/* XPM */
static char *_f4bda3a4a8a4d2786a3c5abaa7e2bcbJiFnN29oUI8rs5Ik[] = {
/* columns rows colors chars-per-pixel */
"64 64 226 2 ",
"   c #B3847E",
".  c #AD7E79",
"X  c #9D706B",
"o  c #8B635C",
"O  c #B0837E",
"+  c #BC8C87",
"@  c #C08F8D",
"#  c #C2908F",
"$  c #B27F7D",
"%  c #7D5657",
"&  c #53312E",
"*  c #482321",
"=  c #43201E",
"-  c #4C2825",
";  c #663F3D",
":  c #835556",
">  c #A67571",
",  c #B48382",
"<  c #BB8A8A",
"1  c #B98887",
"2  c #B48182",
"3  c #B48282",
"4  c #B07E80",
"5  c #AF7C7B",
"6  c #AC7B7B",
"7  c #A97874",
"8  c #A2706D",
"9  c #9D6D6A",
"0  c #9D6C68",
"q  c #9F726D",
"w  c #A26F6C",
"e  c #997069",
"r  c #9A6F69",
"t  c #956C65",
"y  c #926A63",
"u  c #8A615B",
"i  c #875F59",
"p  c #855E56",
"a  c #825C54",
"s  c #815A52",
"d  c #7E564F",
"f  c #7D534C",
"g  c #B07F79",
"h  c #B78882",
"j  c #C08C8A",
"k  c #8D655F",
"l  c #7A4E49",
"z  c #623B37",
"x  c #704743",
"c  c #906361",
"v  c #A67A75",
"b  c #B17E7C",
"n  c #AE7976",
"m  c #AA7875",
"M  c #A1726D",
"N  c #A4726E",
"B  c #A2746E",
"V  c #9E716D",
"C  c #9C706A",
"Z  c #986D67",
"A  c #956A65",
"S  c #89615A",
"D  c #825B53",
"F  c #7F5950",
"G  c #7F5850",
"H  c #7A554D",
"J  c #B78484",
"K  c #8E5D5E",
"L  c #986A65",
"P  c #AB7A76",
"I  c #AA7874",
"U  c #A4726F",
"Y  c #8A625B",
"T  c #7D574F",
"R  c #A37570",
"E  c #AA7672",
"W  c #A0736E",
"Q  c #B07B77",
"!  c #996D68",
"~  c #8E6868",
"^  c #AB7B78",
"/  c #865B55",
"(  c #704A43",
")  c #69453F",
"_  c #79534B",
"`  c #754F48",
"'  c #7C564F",
"]  c #805751",
"[  c #815751",
"{  c #966C6C",
"}  c #A37771",
"|  c #3F211D",
" . c #391917",
".. c #563430",
"X. c #5C3B35",
"o. c #895D57",
"O. c #AD817F",
"+. c #A47B7B",
"@. c #9C7777",
"#. c #987072",
"$. c #603836",
"%. c #230403",
"&. c #3A1A18",
"*. c #B88C8A",
"=. c #785958",
"-. c #6C5253",
";. c #6E4D4E",
":. c #765454",
">. c #835D5D",
",. c #926D6C",
"<. c #5A302B",
"1. c #5A3432",
"2. c #B9837E",
"3. c #C29493",
"4. c #A87D7B",
"5. c #866161",
"6. c #5D4849",
"7. c #553F3F",
"8. c #835B5B",
"9. c #AC7B77",
"0. c #502522",
"q. c #623D39",
"w. c #614039",
"e. c #734E46",
"r. c #B88F8E",
"t. c #856362",
"y. c #68484A",
"u. c #705556",
"i. c #7E6565",
"p. c #937575",
"a. c #A38080",
"s. c #A58788",
"d. c #A38484",
"f. c #987677",
"g. c #875958",
"h. c #754F4F",
"j. c #744948",
"k. c #6D4940",
"l. c #AC8D8D",
"z. c #B79595",
"x. c #B79798",
"c. c #B59393",
"v. c #AA8989",
"b. c #8D6F6E",
"n. c #66443C",
"m. c #775149",
"M. c #907373",
"N. c #8B6B6B",
"B. c #AA7A75",
"V. c #8A6565",
"C. c #A17777",
"Z. c #BA9A9B",
"A. c #B28F90",
"S. c #9F8081",
"D. c #A78081",
"F. c #AF8788",
"G. c #9B7676",
"H. c #BB8682",
"J. c #774F48",
"K. c #AD8585",
"L. c #7E5D5D",
"P. c #734E45",
"I. c #3E3231",
"U. c #30201F",
"Y. c #876869",
"T. c #B4837F",
"R. c #946560",
"E. c #735E5E",
"W. c #140303",
"Q. c #AF8E8F",
"!. c #947171",
"~. c #91605F",
"^. c #734842",
"/. c #9C7C7C",
"(. c #A07B7B",
"). c #976965",
"_. c #5A3330",
"`. c #6D3F3A",
"'. c #A88686",
"]. c #AC8484",
"[. c #C89592",
"{. c #562E28",
"}. c #877271",
"|. c #C08785",
" X c #B58B8C",
".X c #986462",
"XX c #653733",
"oX c #493435",
"OX c #83524E",
"+X c #C18988",
"@X c #77524A",
"#X c #C48987",
"$X c #B57F7D",
"%X c #8D5C58",
"&X c #AD7674",
"*X c #C68A89",
"=X c #462120",
"-X c #C68D8C",
";X c #C98D8B",
":X c #BD8481",
">X c #C38B8A",
",X c #875C56",
"<X c #B37A78",
"1X c #9C6B66",
"2X c #B57C7B",
"3X c #B67E7C",
"4X c #CB9794",
"5X c #CE9B99",
"6X c #C38C8A",
"7X c #77514A",
"8X c #BE9491",
"9X c #E9B8B9",
"0X c #EEBBBC",
"qX c #E2B0B2",
"wX c #D1A2A2",
"eX c #DCABAB",
"rX c #A57375",
"tX c #976769",
"yX c #9D7373",
"uX c #9F6D69",
"iX c #AC8079",
"pX c #B48781",
"aX c #9B6F6A",
"sX c #A07672",
"dX c #A2746F",
"fX c #674F51",
/* pixels */
"  . X o X O + @ @ # $ % & * = - ; : > , < 1 2 2 2 3 2 4 $ 5 5 6 7 > > 8 9 0 9 q q q w X X X X X e r t y y y y u i p a s s d f f ",
"O   g O h 1 j @ @ @ @ j 5 k l z x f c v , 1 , 2 2 2 3 2 4 5 b n m 7 > > M N N B N B M M V X C X C Z A c k k k S p p D F G F H f ",
"  h 1 + + j # @ @ # @ @ j J 5 9 K K o L 5 , 2 2 2 3 2 2 2 $ 5 5 6 P I 7 7 > > U U N N q V q V V C Z A y y k Y o p p D F F T T T ",
"h + j @ j j @ @ @ @ @ < h , $ $ 5 R 9 Z v , 2 2 2 2 3 2 2 2 $ b 5 5 n P P 5 5 E U N B q W e q C C Z A y y k k k o p s s s G G G ",
"h < @ @ + + @ @ j + h $ $ 5 5 5 $ $ P 7 6 O $ 4 O 2 , J J 3 $ $ b 5 Q n $ J O 7 > q ! k k y ~ ~ Z Z Z y k k k k o p a s s F G d ",
"h + @ @ < + h O P v R q W q R R W R $ $ $ O 2 4 4 , J J J 3 2 $ P P P n ^ X y o / ( ) ) ( H _ ` ` ' D p o i k o i p a s s ] [ d ",
"h + @ j + . B Z A Z W R v R X { y Z R 5 $ 4 $ 5 5 O , , , 3 2 $ R R } K ) - |  . . . . . .| - ..X.; ) ` ' p Y i i i p D s F T ' ",
"O h + h . A o.A v O O.+.@.#.{ { { k Z R $ b $ 6 6 4 $ 2 4 $ 5 4 X K f $.& *  . .%.%.%.%.%.%.%.&.* X.; ) ( H ] o u i p s F d f H ",
"g g   . Z d } *.*.+.~ =.-.;.:.>.,.~ o.9 X 7 5 6 ^ 5 4 4 5 6 6 ^ 9 [ z <.= &.&. . .%.%.%.%. .&. . .= - & ..1.X.( D S p G _ ` f _ ",
"2.g . Z H O.3.4.5.6.7.7.6.-.-.;.:.5.>.8.9 q . ^ 9.6 5 6 9.I ^ 7 R K x $.& - - 0.& 1.; ;.:.% _ q.& - * - & & & & w.e.D F _ ` H _ ",
"O . q / O.r.t.y.y.u.i.p.a.s.d.f.t.:.:._ : W 5 ^ 6 5 6 ^ v v v > R Z g.f l h.` j.x x x j.' % 8.a ' j.) X.& - & & & & X.k._ ` e._ ",
"O P o X @.6.y.i.f.d.l.z.x.z.x.c.v.b.h.y.( o.9.9.^ 6 5 ^ 7 R N 8 V X K K c c o.( ) ` a 5.5.>.5.5.5.5.8.H x n.w.......& ..) e.e.m.",
"g 7 u { 7.6.M.l.z.x.x.x.x.x.x.z.c.s.N.:.) ( Z . B.^ 9.7 V L L ! 0 ! K [ / % x ) V.C.+.@.! { ~ ~ k >.% ' h.` e.) w.& & & X.) e.e.",
"h ! A w.7.N.l.z.Z.Z.Z.Z.Z.x.x.x.z.A.S.i.h.q.f 7 9.^ ^ P L u g.u g.o.j.; q.X.h.D.r.F.+.G.f.#.! ~ ~ 5.>.% j.k.j._ ` ) w...X.n.k.e.",
"H.c y.7.i.d.c.Z.Z.Z.S.b.S.z.x.x.x.z.v.N.>.;.; L $ ^ ^ P c f f f J.) 1.0.& 8.r.K.V.:.-.-.=.L.L.=.>.>.>.% h.x ) ( ' ' e.n.; ) k.P.",
"g d & u.p.v.c.Z.Z.d.I.U.- N.Z.Z.x.z.l.f.Y.5.$.: T.m I > R.j.j.J.x $.0.* j.G.L.y.u.i.N.#.f.f.N.L.;.h.% % ' j.; q.j.' ' T _ ` ` e.",
"7 w.7.Y.S.l.A.x.Z.7.E.6.W.&.Q.Z.x.x.c.a.#.!.; j.$ 2.E q ~.] x ^.z <.* 1.5.L.u.N./.a.a.a.S.(.@.!.5.;.x h.' h.) 1.; ` ' ' T T H _ ",
").- h.b.a.v.A.z.x.7.U.%.%.| v.x.x.x.c.s.G.@.h.; $ 1 7 q o.d J.; _.0.* w.=.M./.s.v.s.a.S.@.@.@.@.f.V.y.q.j.h.( 1.X.e.` _ _ H _ P.",
"g.& >.b.a.l.Q.c.x.L.%.%.| w.c.x.z.z.c.d.@.+.% ; $ @ 9.q u ` `.z _.* & 7.M.a.v.v.'.(.f.@.@.@.@.@.@.#.>.q...x j.X.& y.` ` ` ` _ e.",
"~.` c Y./.v.A.c.x.s.= | - p.z.c.c.c.v.S.(.].>.; , [., > u ; _._.& = q.=./.v.v.v.N.&.U.* >.G.@.@.@.@.!.:.& & y.; & ) e.e.e.e.k.k.",
". e ,.t.M.s.A.c.x.x.!.y.N.c.c.c.Q.v.S.@.F.K.% j.j [.T.N f <.{.<.- * >.Y.a.v.v.d.I.}.I.W.= 5.@.@.@.#.G.V.q.= & q.& ; e.e._ ` ) k.",
"|.7 { t.i.S.Q.c.x.x.x.c.x.c.c.A.v.(.f.+. X+.] .X@ [.g o.XX{.<.<.z f G.t.S.v.s.S.oXU.W.%.| 5.@.@.@.@.#.,.;.= | & & q._ e.H f k.k.",
"|.P X ~ =.b.v.c.x.x.x.x.x.x.c.v./.!.@.F.K.9 o.P [.j w OXXX<.<.XX[ v @.5.G.s.'.a.y.%.%.| y.#.@.@.@.@.@.!.% -  .| - X.' s D _ e.` ",
"+Xg } e >.=.f.l.z.x.x.x.x.c.v.f.,.#.K.F.@.k R., @ 7 ~.x z $.XXx [ X @.V.Y.S.a.a.V.&.* - N.@.@.@.@.@.@.#.>.X.&. . .1.' f @X_ @XP.",
"#X|.P } { >.L.@.v.A.z.z.l.S.b.Y.,.].F.+.y o.W +X$X0 OXXXXXXXXXJ.%X).#.#.=.b.(.a.@.% w.5.@.@.@.@.@.@.@.!.>.; *  .%.* k._ p k p e.",
"#X#X$XP } q V.>.Y.#./.f.,.i.>.,.D.K.+.{ g..X|.+X&X%X`.XX`.`.`.j.~.9 ~ #.L.=.!.@.@.G.,.G.@.@.@.@.@.@.G.,.=.q.=  .%.* ) s p D ` e.",
"#X*X|.$X7 X { !.5.=.=.=.:.L.,.+.+.G.k [ o.2.j $Xw OX`.XX`.^.^.J.K X y V.{ h.L.!.@.@.@.@.@.@.@.@.@.f.,.>.h.X.=X . .1.` u p D @Xm.",
"-X;X;X|.$X7 ! k ,.{ ,.~ ~ ,.,.{ k : f .X:X>X|.&X~.OX^.XX`.^.^.OX,X9 R >.k 5.h.L.,.f.f.G.@.@.@.@.#.,.5.% h.w.- = - z d k o T H _ ",
";X;X;X;X|.$X7 ! o o.u u o o o f f g.&X>X*X+X<X1X~.%XOX^.XXXXXX; OX1XR y % 5.5.=.=.5.~ ~ ,.,.~ V.V.~ 5.8.H ; & 1.1.n.] _ J.` s s ",
";X;X;X;X;X|.2.P w ).~.K g.: : .X<X-X*X-X>X|.E 1XR..XR.OX`.XXXXXX<.OX> v 8.' >.~ ~ 5.>.L.L.=.=.L.V.~ ~ 5.' ) q.q._.o.[ H ] i p p ",
";X;X;X;X;X*X+X|.H.<XP <X2.+X-X*X+X+X>X>X+X$XU L .X1X1XOX^.`.`.J.`._./ 7 R % h.:.8.k ~ ~ ~ ,.,.,.,.~ 5.% _ ` ; _./ o o.Y i u i i ",
";X*X;X*X*X*X#X#X|.:X:X+X|.+X+X+XH.:X+X>XH.2X> w w N ,X`.`.`.^.OXOXx <.K 7 7 % ( ( j.j.% >.5.V.5.>.% H _ ' ; $.R.).y R.c o o i D ",
"*X#X*X#X>X*X*X;X;X*X+X+X+X#X|.<X&X3X>X>X+X$XQ n > : $.z XX`.OX/ OXJ.$.1.L <Xg o h.( k.) k.x j.j.( h.( ) $.^.N N R.R.c o o o.D G ",
"*X#X>X#X#X#X*X;X*X+X|.|.2.&XL .X3X*X-X4X5X-XH.^ l {.0. .%. . .* <._.<.- $.L 5 $ L f ( x x j.x ) ; z $.) ~.7 > 9 R.y c %Xp D [ _ ",
"#X#X#X#X#X#X#X#X|.|.2X<X1X: K 2.>X-X4X5X-X$XP OX* | %.&.* * | &.= - {.{.0.`.1X$ $X9 : h.x x ) ) ) f L > > w 9 .XR.R.c o./ ] f J.",
"#X#X+X+X|.|.|.:X:X2X&X.XJ.OXT.# j j j h m w K <.* | = = | | | =X- - - & <.{.j.w $ 3X> R.: [ [ %XL n P > 1X.XR.R.~.c u o./ [ f m.",
"+X+X+X|.|.|.:X:X<X> L j.j.> 6Xj , $Xg > f _.= = = &.| &. .&.| | = = =X* & {._.OX> $X2.$ &X> > n <X<X&Xw .XR.R.~.K o u / [ d l J.",
"|.|.|.|.|.:X2X<X> .Xj.; 1X+ j 2.7 ).! ).j.& = = = - - * =X=X| | | = = | - & {.XXK &X$ $X$X$X2.$ <X&XN 1X.XR.~.o o.o.o.: d H m.J.",
"|.|.|.|.:X2.2X&X1XOXXX%XH.j + X u ,Xu c k p k.1.; x 1.- - - * * = | =X| &.- & & ^.L &X<X$ <X<X<X&XN 9 1X.X~.o %Xo.,X/ d H m.` ` ",
"|.|.:X:X:X2X<XN K x J.Q j + X d f _ J.( x $.= &.x 7X$.& - - * & * * * | &.= & & $.OX1X> P P &X&X> 0 9 1XR.~.K o.o./ [ d l J.` P.",
"|.|.|.:X2.<X&X1XOX`.L 1 h ).x ^.`.; z X.{.=  .&._ ' z X...- - & - - * | | | * & <.`./ L > &X&X> N 1X).1X.X~.%X%X,XOXd H l J.P.^.",
":X:X:X:X3Xn N ~.^.OXQ J L z XX`.$._...& - &.%.& H t ; X.& ..& - - - - = | &.| * & 1.^.g.L N > N 1X9 .XL R.K %Xo.: OXf l J.J.` ( ",
":X:X:X2.<X&X1XOXx L J > XX{.$.1._.X.X...& &.& H ,.V.L.y.& & & * - - - * = | | | * & z J.%X! ! X 9 X L L R.K %Xg.[ f l J.j.^.P.P.",
":X:X2.<X<XN ~.^.f g $Xf 0.{.{.{.X.z 1.{._.& - ; x & - 1.* = = = =X=XoX- * * | | | * & XXf R.9 R.1X1XL R.K %X%X/ OXf J.j.^.^.^.^.",
"2.2.<X<X&X1XOXx L h 9 1.0.& <.1.$.z l L J 8X@ < 6 7X; ; ; 1.* - * = - - =X* = | | | = & n.u Z A R.c R.c o %Xg.g.OXf J.j.`.x x x ",
"2.2.<X<XN ~.j.f P . J.0.& <.z $.<.g.J 3.9X0X0X0XqXwXeXwX# R : [ x & = - =X- =X=X| | | | & j.r ! R.R.~.o.K g./ OX_ J.j.^.x x `.k.",
"2.<X<Xn 9 / j.~.$X! 1.& <.1.& * <.K g.; ; - c 4 rXc c 6 1 ^ & K o.; {.& - * =X| =X| |  .| & u v Z ).c i o./ OXf l l ^.x x `.`.`.",
"$X<X<X&X.XOXOX7 g f _.z $.&.* ; l : f l j.) 1.1.z x x j.R.K % : j._.= X.$.& - = * = | &. .&.; } q A c u g.f _ [ J.J.j.`.`.`.`.`.",
"2X9.n N K OX1Xh w `.) `.= XX: R.L 1X1XW 7 5 4 v W tXyXyX{ y K o.] j.; $.; 1.&. . .| * =  . .* k 7 9 R.K / [ f f l P.^.x `.`.`.`.",
"2Xn E w K %X1 2.f j.^.0.J.j j j 1 2.$ 2 ^ N tXtXtX9 9 c K g.] l l l : f x z = %.%.%. .= =  . .J.P } A %X/ f f l J.j.`.x x `.`.k.",
"<X9.&Xw ~.B [.L l f XX`.J [.[.[.>XH.h H.H.J J 2., ^ rX^ rXW 9 K : ] ] ] : f j.; -  .%.%.&.|  .1.X 9.9 o [ f l J.j.^.x x x ^.) ^.",
"n n E N 1X2.P ,Xf J.j.B H.@ 6Xj H.J $XQ N ~.g.K R..XK o.tXrXrXrX8 uXR.K o.o.K o.o.l 1.=  .=  .= u 7 q R.: f f j.^.x x ^.x x k.P.",
"n &X> N R 7 ).c %XK w T.1 + 1 h 2.  g 7 .X: x x `.x z 1.{.x [ g.~.~.~.o.K R.R.R.R.y c l 1.* = &.P.> B ).o.f J.P.j.^.^.^.^.P.J.f ",
"n &X> N N 9 w B > P $ h h 2.T.h   O . q R./ l j.$.& _.; 1.1.`.J.l l f ] : g.g.o.K o.o o g.x & = XXB v ! o ] l J.j.^.^.P.J.l d / ",
"&XE > > 7 P . g g g g O . P     T.T.O iXV K [ $.* _.x z $._.; J.] ' [ 8.u g.i K k R.Z Z A 9 l <.$.9 v q A o.d l J.P.J.l d / ,Xo.",
"E > N 0 > P g T.h h P } A . g O pXh     v V [ f j.o.) x x ] _ H K o i i c y y y t ! Z } r } X d j.9 R R ! c ,Xd f f ] D u %Xu o ",
"&XN w 1XuXw v h   e ! p Y v v g h h h g R R.K k N w ! o.K 9 ~.g.! aXA y t C aXZ t y y ! X X B Z k q } } X c o.d ' / / o.o o o.u ",
"> N w 0 9 w } e _ _ e.) _ u e O pXh pXg ^ M .XL M M R 9 X 7 } c 9 9 V M sXsXsXW y o k k k ).! B X B B B ! u D [ / ,X%Xu K u %X/ ",
"&X&XN w 0 c d w.X.w.....X.` t O O   h 2   $ g 6 $ b ^ B.U q q 9 w q W R v v v > ).D ] D D u y ! e e e ! k ,X] _ p ,Xo.o.o.,X] ` ",
"n &Xn > L % n.7.y...& & & ( V iXiXO h T., , $ O J 2., T.7 U M X w q q R v v dXZ c H ) _ j.d D k k y y o D H H ] _ D D D ] H J.) ",
"$ n 7 q >.;.7.w...oX* - =X) o V iXg T.T.T.O $ , J J 1 O } R 8 9 V e 9 X B Z y k S ` w.k.w.k.` ] p D ] _ e.` _ H ] d d H J.k.n.X.",
"g P } V.y.7.oXoXoX- oX- - w.) e iXO   T.T.O $ 3 2 , , rX1XX 8 aXV ! k y k u D _ ) n...X.X.X.) ) e.e.k.k.k.( e.` ` ` P.k.n.; w...",
"g v ~ y.oXoXI.oXI.- oX| ..& w.o sXV v O T.O $ $ 6 m yX1X9 9 9 ! L R.,Xa ] ' n.X...& - - ..- ..k.) n.) ) k.( k.k.k.) n.n.w...& - ",
"6 !.fXoXI.U.I.I.| I.oXI.- ..n.( 7Xs i A R W R q ! ! Z r 9 Z c A k p D _ ( w.& & - - - I.oXI.| w.n.n.n.) k.k.) n.; w.w...& - = &."
};
