/* XPM */
static char *_7e46b637b824cca814ff5f35193736fTqCQFd5IFzrqhHRF[] = {
/* columns rows colors chars-per-pixel */
"64 64 216 2 ",
"   c #B3847E",
".  c #AD7E79",
"X  c #926A63",
"o  c #775149",
"O  c #623B37",
"+  c #391917",
"@  c #230403",
"#  c #140303",
"$  c #482321",
"%  c #9D706B",
"&  c #C2908F",
"*  c #C08F8D",
"=  c #BB8A8A",
"-  c #B98887",
";  c #B48182",
":  c #B48282",
">  c #B07E80",
",  c #B27F7D",
"<  c #AF7C7B",
"1  c #AC7B7B",
"2  c #A97874",
"3  c #A67571",
"4  c #A2706D",
"5  c #9D6D6A",
"6  c #9D6C68",
"7  c #9F726D",
"8  c #9A6F69",
"9  c #956C65",
"0  c #8A615B",
"q  c #875F59",
"w  c #855E56",
"e  c #825C54",
"r  c #815A52",
"t  c #7E564F",
"y  c #7D534C",
"u  c #B0837E",
"i  c #69453F",
"p  c #734E46",
"a  c #835D5D",
"s  c #30201F",
"d  c #3A1A18",
"f  c #B78484",
"g  c #B48382",
"h  c #B17E7C",
"j  c #AE7976",
"k  c #AA7875",
"l  c #A1726D",
"z  c #A4726E",
"x  c #A2746E",
"c  c #9E716D",
"v  c #9C706A",
"b  c #986D67",
"n  c #956A65",
"m  c #906361",
"M  c #8D655F",
"N  c #89615A",
"B  c #825B53",
"V  c #7F5950",
"C  c #7F5850",
"Z  c #7A554D",
"A  c #8A625B",
"S  c #B4837F",
"D  c #BC8C87",
"F  c #562E28",
"G  c #43201E",
"H  c #4C2825",
"J  c #663F3D",
"K  c #835556",
"L  c #A37570",
"P  c #AA7874",
"I  c #A4726F",
"U  c #7D574F",
"Y  c #7C564F",
"T  c #B78882",
"R  c #B07F79",
"E  c #7A4E49",
"W  c #704743",
"Q  c #A67A75",
"!  c #AA7A75",
"~  c #AA7672",
"^  c #A0736E",
"/  c #996D68",
"(  c #8E5D5E",
")  c #976965",
"_  c #B07B77",
"`  c #A2746F",
"'  c #AB7B78",
"]  c #997069",
"[  c #8B635C",
"{  c #815751",
"}  c #BB8682",
"|  c #C08C8A",
" . c #744948",
".. c #754F48",
"X. c #754F4F",
"o. c #A87D7B",
"O. c #A07B7B",
"+. c #A17777",
"@. c #9D7373",
"#. c #926D6C",
"$. c #563430",
"%. c #5C3B35",
"&. c #6D4940",
"*. c #79534B",
"=. c #7D5657",
"-. c #B58B8C",
";. c #8E6868",
":. c #7E5D5D",
">. c #866161",
",. c #966C6C",
"<. c #AC7B77",
"1. c #603836",
"2. c #734842",
"3. c #B88F8E",
"4. c #BE9491",
"5. c #987072",
"6. c #68484A",
"7. c #462120",
"8. c #53312E",
"9. c #986A65",
"0. c #5A3330",
"q. c #704A43",
"w. c #A78081",
"e. c #553F3F",
"r. c #493435",
"t. c #3F211D",
"y. c #5A3432",
"u. c #835B5B",
"i. c #614039",
"p. c #AC8079",
"a. c #895D57",
"s. c #8A6565",
"d. c #7B6162",
"f. c #9C7C7C",
"g. c #A38484",
"h. c #AC8D8D",
"j. c #AA8989",
"k. c #987677",
"l. c #836768",
"z. c #705556",
"x. c #B79798",
"c. c #BA9A9B",
"v. c #785958",
"b. c #875C56",
"n. c #774F48",
"m. c #B9837E",
"M. c #674F51",
"N. c #9F8081",
"B. c #B79595",
"V. c #AF8E8F",
"C. c #937575",
"Z. c #856362",
"A. c #83524E",
"S. c #734E45",
"D. c #BD8481",
"F. c #5D4849",
"G. c #B59393",
"H. c #3E3231",
"J. c #8B6B6B",
"K. c #946560",
"L. c #865B55",
"P. c #B2888A",
"I. c #AA8182",
"U. c #66443C",
"Y. c #B28F90",
"T. c #735E5E",
"R. c #986462",
"E. c #805751",
"W. c #947171",
"Q. c #91605F",
"!. c #6D3F3A",
"~. c #A88686",
"^. c #A38080",
"/. c #C08785",
"(. c #9C7777",
"). c #C89592",
"_. c #AF8788",
"`. c #5A302B",
"'. c #877271",
"]. c #77514A",
"[. c #C99896",
"{. c #653733",
"}. c #C18988",
"|. c #A26F6C",
" X c #9B6F6A",
".X c #77524A",
"XX c #C48987",
"oX c #875958",
"OX c #9B726F",
"+X c #C38C8A",
"@X c #AD7674",
"#X c #8D5C58",
"$X c #C68A89",
"%X c #C68D8C",
"&X c #C38B8A",
"*X c #C98D8B",
"=X c #9C6B66",
"-X c #B67E7C",
";X c #B57F7D",
":X c #B57C7B",
">X c #502522",
",X c #CB9794",
"<X c #CE9B99",
"1X c #9F6D69",
"2X c #B37A78",
"3X c #E9B8B9",
"4X c #EEBBBC",
"5X c #DCABAB",
"6X c #D1A2A2",
"7X c #A57375",
"8X c #C4918D",
"9X c #976769",
"0X c #BB8E8A",
"qX c #B48781",
"wX c #A07672",
"eX c #623D39",
/* pixels */
"  . X o O + @ @ # # @ @ @ $ % & * * = = = - ; ; ; : ; > , < < 1 2 3 3 4 5 6 5 7 7 7 7 % % % % % 8 8 9 X X X X 0 q w e r r t y y ",
"u 2 0 i O O p q a i s @ @ @ d y 4 ; f = = - g ; ; ; : ; > < h j k 2 3 3 l z z x z x l l c % v % v b n m M M M N w w B V C V Z y ",
"  . % A % S D * * & ; Z F G G H J K L S = - ; ; ; : ; ; ; , < < 1 j P 2 2 3 3 I I z z 7 c 7 c c v b n X X M A q w w r V V U U Y ",
"T S R R T = * * * * * = < m E J W y m Q ; g ; ; ; ; : ; ; ; , h < < j ! ! ~ ~ ~ I z x 7 ^ ^ 7 v v b n X X M q q w w r r r C C C ",
"T = - * D D * * & & & * = f . / ( ( ( ) 1 u ; > u ; g f f : ; , h < _ j j k P 2 3 I ` x ^ ^ 7 b b b b X M N q w q w e r r V C t ",
"T D * * = - * * * & * = = - f S . L / / 2 u ; > > g f f f : ; , ; ; , j ' . k 2 3 I x ^ 7 8 8 ] b / b X [ q q q q w e r r C { t ",
"T D * * D D * * * * - f f - - - f S 1 Q 1 > , 1 < u g g g : ; , ; ; , j S f R ~ 3 7 9 M [ X X X b 9 9 X X A A q q q w B r V U Y ",
"} D * | D D S . Q ^ ^ L Q 1 1 1 1 < ; < , h > 1 1 > u ; > , < > 1 2 2 < j % X M K  .i i W Y Z ..X.Y e q q A M [ N q w r V t y y ",
"} = * | f Q ) q / Q o.o.O.Q +.@.#.4 1 < . > < 1 ' . > > 1 1 1 ' 7 L Q ( i H d + + + @ + + d H $.%.J &...Y q A q q N w C t Z y *.",
"g f - f Q m =.o.* -.+.;.:.:.>.n ,.>.) Q P . . ' <.1 < 1 <.P ' 2 / 0 y 1.F $ d + @ @ @ @ # @ @ d H %.J &.2.*.=.0 A 0 w V *.y Z *.",
"} S S . ) Y 3.4.5.6.7.s @ @ d 8.Z q K ( L Q < ' 1 < 1 ' Q Q Q 3 9.t O 0.G d d + + @ @ @ @ + d d d G H 8.$.$.%.q.B 0 w r *...y *.",
"T S u % y 4.w.6.e.e.e.e.$.r.t.t.7.1.W  .K L <.<.' 1 < ' 2 I z 4 c 0 W 1.F H H H 8.y.J  .=.a u.&.$.H H H H 8.8.8.i.p r V o p *.o ",
"T u p.a.+.s.r.d.f.g.h.h.j.g.k.l.z.i.1.1.W ( . . ! ' <.2 c / 9./ 6 / ( { *.X.*.*.Z u.M X / 7 @.b M =.p i.8.H 8.8.8.$.%.q.*.p p p ",
"T , . 0 s.d l.x.c.c.c.c.c.x.x.x.g.l.v.J 1. .6 < <.' ' ' 9.0 b.0 M / 5 % % 8 ) X X X X m m X / b b b n 0 *.&.O $.$.$.8.$.&.n...p ",
"} m.7 e t.M.h.c.c.c.N.#.N.B.x.x.x.V.C.Z.1.1.K h S ' ' ! m y y y A.0 m / 7 ^ / M s.5.+.@.5.#.;.X X b b b n A Y q.i.$.8.F %.i &.S.",
"D.m.) 8.F.k.G.c.c.g.H.s H J.c.c.x.x.j.k.Z 0.W z S k P 3 K. . .n.E y L.M m M s.o.4.4.P.I.O.+.5.,.;.;.X n X X [ e o i %.$.%.U.&.p ",
"D.m.Z H J.g.Y.x.c.e.T.F.# d V.c.x.x.G.N.>.J y.R.T R ~ 7 m E.W 2.i i  .E W ( O.W.z.r.H H H $.6.:.>.;.>.q A M [ A q C p U.i.U.&.q.",
"D.. F z.f.j.Y.B.x.e.s @ @ t.j.x.x.x.G.O.s.=.0.Q.* - 2 7 a.t n.!.O y.y.H q.z.T.r.e.M.T.d.v.F.d s 8.X.u.K Y r q q q w C C *.p p S.",
"D.7 %.#.N.h.V.G.x.:.@ @ t.i.G.x.B.B.G.5.#.s.1.m = * <.7 0 ..!.O 0.F G y.r.F.k.C.~.~.^.~.~.^.Z.i.t.t.J Y Z &.*.r L.B r r Y Y *.p ",
"/.2 m (.j.j.Y.G.x.~.G t.H C.B.G.G.G.j.(.O./ 1.( * ).R 3 0 J 0.0.F H $ $.r.C.j.h.J.d s $ Z.O.(.(.>.i.t.8.X.i 1.Z Y Z C C C Y *.o ",
"/./.2 (.g.j.Y.G.x.x.W.6.J.G.G.G.V.j.I._._.#.J ) ).).S z y `.F `.F $ G a z.j.h.j.H.'.H.# G >.(.(.(.5.X.t.8.i 8.i *.*.*.Y *.Y ]...",
"/./.2 @.^.~.V.G.x.x.x.G.x.G.G.V.j.g._.-.w.s.E.1 [.).R a.{.F `.`.F W u.(.W.j.j.~.r.s # @ t.>.(.(.(.(.5.6.d H 8.%.X.o *.Y Z y ].S.",
"/.}.. L (.(.h.G.x.x.x.x.x.x.G.V.~.I.3._.@.( R.f ).f |.A.{.`.`.{.J 7 Q @.;.j.~.^.6.@ @ t.6.5.(.(.(.(.(.>.8.d G 8.Y *.Y r Z *.o ..",
"}.}.m.Q ^ (.f.Y.B.x.x.x.x.G.h.N.w.-._.O.X ( 4 = * 2 Q.W O 1.{.W W )  X+.5.~.j.^.s.d $ H J.(.(.(.(.(.(.s.J H d G p U Y y .X*..XS.",
"XXXXXXR 2 @.(.(.~.V.B.B.h.N.(.O._.I.O.#.( a.; }.  6 A.{.{.{.{.W oX) X 5.O.5.~.^.(.=.i.>.(.(.(.(.(.#.>. .8.d + + $.o e M M w n.p ",
"XXXXXXm.j 3 X OX5.5.C.W.#.W.O.w.w.+.X a.K j +X}.@X#X!.{.!.!.!.W #X6 5 s.W.W.W.(.(.@.#.@.(.(.(.#.s.a X. .8.d + G &.y r r V ..q.p ",
"XX$X%XXXm.j 5 M ;.5.5.5.5.5.5.5.#.q y E 3 &X+X; |.A.!.{.!.2.2.n.oX) c s.s.#.s.>.>.>.s.;.;.>.v.v.a a u.Y 1.H 7.F i.q n X w .X.Xo ",
"%X*X*X*XXXm.Q =Xm q b.q u.q A L.E. .( ; &X&Xm.@XQ.A.2.{.!.2.2.A.b.K.L / K u.s.s.a u.u.:.:.:.>.>.;.;.>.=.U.y.%.$.W U B e Z .XZ *.",
"*X*X*X*X*X}.m.@X9.m 0 0 L.y E y Q.1 %X&X%X}.-X=XQ.#XA.2.{.{.{.J A.K.L Q ( =.K s.s.;.;.;.#.#.#.W.#.;.>.*.q.i O y.L.{ n.q.n.C r r ",
"*X*X*X*X*XXX/.D.-Xj @X3 4 @X-X&X+X%X%X%X&Xm.~ =XK.R.K.A.!.{.{.{.`.W |.Q Q Y X.X.Z u.a >.s.;.;.;.s.u.Y Z Z J F 0 [ a.{ a.a.q w w ",
"*X*X*X*X*X*X}./.} m.-Xm.}.}.%X}.}.}.&X&X}.;XI =XR.=X=XA.2.!.!.n.!.0.W z j P =. .q.&.W &.W  .X.X.X.X.*.Z J F 9.) m K.[ A q 0 q q ",
"*X%X*X%X*X$XXXXX/.&X}.}.}.}.}.}.} D.}.&X} :X3 |.|.z b.!.!.!.2.A.A.W >Xn.2 R j ( q. . .&.J J i W W q.J >XJ 5 I =X) X K.m [ [ q B ",
"%XXX$XXX&X$X%X*X*X*X}.}.}.XXD.@X@X-X&X&X}.;X_ j 3 K 1.O {.!.A.L.A.n.1.H A.@XR S z E.&.i &.W W J 0.0.J #X3 2 z 9.K.K.m [ [ a.B C ",
"$XXX&XXXXXXX%X*X$X}./.D.m.@XQ.R.-X$X%X,X<X%X} ' E F >X+ @ + + $ `.0.`.>X>XA.3 -Xm.1 ) K  . .E y #X4 R j z 1X6 9.K.X m a.w B { *.",
"XXXXXXXXXXXXXXXX/.D.:X2X=XE oX/.&X%X,X<X%X;X! A.$ t.@ d $ $ t.d G H F F >XF A.3 -Xm.;X. 3 3 3 j _ -Xj 3 1X=X9.R.K.K.m a.L.{ y n.",
"XXXX}.}.}.XX}.D.-X:X@XR.!.E S ,X| | D T k 4 ( F $ t.G G t.t.t.7.H H H F `.F 1.oX3 -Xm.m.m.m.-X-XR j 3 |.=XR.K.K.K.m 0 a.L.{ y o ",
"}.}.}./././.D.:X2X3 Q.!.!.3 +X| g ;XR 3 y 0.G G G d t.d + d t.t.G G 7.$ F F F O #X3 R -X-X-X-Xj @X3 |.=XR.K.K.Q.( [ 0 L.{ t E n.",
"/./././.D.D.:X2X3 R.2.{.=XD &XD 2 ) / )  .8.G G G H H H 7.7.t.t.G G G t.H F F F !.K.3 j @Xj @X@X3 1X=X=XR.K.Q.[ a.a.a.K t Z o n.",
"/./././.D.m.:X@X=XA.{.#X} | D % L.{ 0 m M b.&.$.J W y.H H H $ $ G t.7.t.d H 8.8.1.E K.z @XP 3 3 z 6 5 =XR.K.[ [ a.a.L.t Z o ....",
"/./.D.D.D.:X2Xz Q.W n._ | D [ 2.S.*...i W 1.G d W ].1.8.H H H 8.$ $ $ t.d t.H 8.F J A.K.z 3 3 z |.6 5 =XK.Q.( a.a.L.{ t E n...S.",
"/.D.m.m.-X2X@X=XA.!.R.- R { 1.!.!.J O %.F G + d *.Y O %.$.H H 8.H H $ t.t.t.t.H >X1.2.L.n 5 |.|.6 =X) K.R.Q.#X#Xb.A.t Z E n. .2.",
"D.D.m.m.-Xj 4 Q.2.A._ f a.>Xy.O 1.0.$.$.H d @ 8.Y 9 J %.8.$.8.H H H H t.7.t.t.t.7.>XO ..m ) / =X=X) R.) K.( #Xa.K A.y E n.n...q.",
"D.m.-X:X2X@X=XA.W |.f 5 F F F F F %.%.$.8.d 8.Y ,.s.:.6.8.8.8.$ H H H $ H $ t.G t.7.H J L./ / R.) K.R.m ( ( #X#X{ y E n. .2. .S.",
"D.-Xm.2X2Xz Q.2.A.R . W >XF F F %.O y.F 0.8.H J W 8.H $.$ G G 7.7.7.r.H $ $ t.t.t.d t.H &.9 5 K.K.K.m m ( #X#XL.A.Z n. .2.2.2.2.",
"m.:X2X:X@X=XA.E 5 S K.F >XF 1.O O O oXQ & 4.* = 1 ].J J J y.H H H 7.7.G 7.$ G t.t.t.+ d H Y Q 8 K.m ( 0 a.oXL.oXA.Z n. .!.W W W ",
"m.2X2X2X@XR.A.( f . W 1.O O 8.H G E f = 3X4X4X4X5X6X5X6X& Q K ( *.1.H H 7.H 7.7.t.t.d + d 8.8 Q / K.A a.L.A.oXA.*.n. .2.W W !.&.",
"m.2X2Xj ~ K.oXR +Xa.J 2.!.d + F O E.E y.0.H m > 7Xm m 1 - ' H ( a.y.F J %.8.7.t.7.7.t.+ + + o Q Q ) m q K A.A.y E E 2.W W !.!.!.",
";X2X2X@X3 K.=X,XL n.E  .$ O #XK oXa.oXK E J y.y.O W W  .K.( u.K  .0.$ y.1.H @ @ + t.7.G G + F b R 7 m 0 y y *.E n.n. .!.!.!.!.!.",
":X<.j ~ 3 =XR S L.Z E F J D 8X- ; 3 4 2 2 < > Q 4 9X@.@.,.X ( a.E.K y W J F + @ @ @ @ G G + d C 2 Q ) ( L.E n. .2.S.2.W !.!.!.!.",
":Xj ~ ~ z L j 9.a.A.2.2.j & ,X,X8X| < ; ' z 9X9X9X5 5 m ( oXE.E E E K E.E E W O H + @ + G d + 1.7 L % m oXy n. .n. .!.W W !.!.&.",
"2X<.@XI 3 x =X9.K.( [ z f D * ).&X} T } } f f m.g ' 7X' 7X4 5 ( ( E.E.E.K u.a.( ( *.i 8.7.7.d $ m <.L n a.y E n. .2.W W W 2.2.E ",
"j j ~ z 3 4 |.3 3 L 2   } * +XT } f ;X_ z Q.oX( K.R.( a.9X7X7X7X4 1XK.R.m m ( m X m q y i F $ G E 3 3 5 m oXy  .2.W W 2. ...*.y ",
"j @X3 z L 2 R . R R R S T S - T T   R 2 R.K W W !.W O y.F W { oXQ.Q.Q.a.( ( a.( a.a.m M 9.L.O F J 3 x L / m L.t n.n. ...*.t B e ",
"j @X3 z z 2 R     R , T   R S T   u R x K.b.E 2.1.8.0.J y.y.!.E E E y E.K oXa.a.( X 5 9.% x 0 2.n.x Q Q % K.( L.y Z Y { L.a.a.0 ",
"@X~ 3 =X1X|.2 R 0XD R Q 7 Q T S S S u p.c 0 { 1.$ 0.W O 1.0.J E E.t { u.0 m q m n b L Q ^ L L K.0 5 Q Q 7 X 0 B t y { L.a.[ [ a.",
"~ 3 |.6 ) / L S T Q ) 8 w . R u qXT     Q c { y  .q i W W E.*.Z 0 ( q q m X X b 9 / b 8 8 % % 7 8 ^ L L / m L.t y r L.0 0 0 0 [ ",
"@Xz |.|.1X5 Q Q A C [ ..A Q Q R T T T R L K.( m z |./ a.( 6 Q.w /  X) X 9 v  Xb 9 X X m m n / b 7 7 8 8 X a.L.t t L.L.a.[ [ a.{ ",
"j z |.6 5 9.0 p %.q.i.U.*.0 ] u qXT qXR ' l R.9.l l L 5 5 2 L m 6 5 c l wXwXwX^ X [ m 0 a.M X X 9 9 9 X a.C *.{ y r B e e r C o ",
"j @Xz |.6 q q.8.i.i.$.$.%...9 u u   T ;   , R 1 , h ' ! I 7 4 5 4 7 ^ L Q Q Q 3 ) y o y *.C w [ [ [ A e *.o *.*.Y t C C C y o &.",
"j _ j 3 9.=.i.i.6.$.8.8.8.q.c p.p.u T S g g   u f m.f S 2 I l % |.7 7 L Q Q ` b m y i *.i o n.B e C *.p &.q.p o *.y y y o p &.i.",
", j 2 7 a i e.F.8.r.$ H 7.i [ c p.R S S S u u g f f - u I I 4 5 c ] 5 % x b X M N o i.U.i.i.q.U.p q.&.i U...q.p p p q.&.i U.i.%.",
"R ! L s.6.e.r.r.r.H r.H H i.i ] p.u   S S u ; : ; g g 7X=X% 4  Xc b M X M 0 B *.i U.$.$.%.H i.i i i &.&.&.q.p q.&.i i U.i.%.$.8.",
"R Q ;.6.r.r.H.r.H.H r.t.$.8.i.[ wXc Q u S u , S 1 k @.=X5 5 5 =X9.K.b.e r Y U.%.$.8.H H $.H H U.i U.i i &.q.&.U.i.i.i.%.$.r.H t.",
"1 W.M.r.H.s H.H.t.H.r.H.H $.U.q.].r q n L ^ L ^ / / b 8 / / m n M w B *.q.eX8.8.H H H H.r.H.t.8.%.%.i.i.i.i.i.%.$.$.8.r.7.d d d "
};
