/* XPM */
static char *_dad8855e24248cccb224ade21cd6b55Epn5x7AoAaxFD8aZ[] = {
/* columns rows colors chars-per-pixel */
"64 64 204 2 ",
"   c #B07F79",
".  c #B48382",
"X  c #BC8C87",
"o  c #C3958F",
"O  c #BE9189",
"+  c #B27F7D",
"@  c #A07672",
"#  c #AC7B77",
"$  c #BB8E8A",
"%  c #C99896",
"&  c #C89592",
"*  c #C59391",
"=  c #C08F8D",
"-  c #C08C8A",
";  c #BB8A8A",
":  c #B98887",
">  c #B48182",
",  c #B48282",
"<  c #B07E80",
"1  c #B17E7C",
"2  c #AB7B78",
"3  c #AA7874",
"4  c #A67571",
"5  c #A1726D",
"6  c #A2746F",
"7  c #A37771",
"8  c #A2746E",
"9  c #A0736E",
"0  c #9E716D",
"q  c #997069",
"w  c #956C65",
"e  c #8D655F",
"r  c #926A63",
"t  c #89615A",
"y  c #855E56",
"u  c #815A52",
"i  c #7E564F",
"p  c #7D534C",
"a  c #B0837E",
"s  c #B78882",
"d  c #BC928E",
"f  c #956A65",
"g  c #8A615B",
"h  c #6D4940",
"j  c #603836",
"k  c #69453F",
"l  c #906361",
"z  c #C4918D",
"x  c #CE9B99",
"c  c #BB8682",
"v  c #AE7976",
"b  c #AA7875",
"n  c #A97874",
"m  c #A4726E",
"M  c #A4726F",
"N  c #9D706B",
"B  c #9C706A",
"V  c #996D68",
"C  c #825C54",
"Z  c #7F5950",
"A  c #7A554D",
"S  c #B3847E",
"D  c #B48781",
"F  c #754F48",
"G  c #562E28",
"H  c #3A1A18",
"J  c #391917",
"K  c #815751",
"L  c #AF7C7B",
"P  c #9F726D",
"I  c #986D67",
"U  c #875F59",
"Y  c #7D574F",
"T  c #774F48",
"R  c #623B37",
"E  c #230403",
"W  c #140303",
"Q  c #482321",
"!  c #AA7A75",
"~  c #AA7672",
"^  c #734E45",
"/  c #66443C",
"(  c #30201F",
")  c #A2706D",
"_  c #B78484",
"`  c #B07B77",
"'  c #9B6F6A",
"]  c #B4837F",
"[  c #7C564F",
"{  c #53312E",
"}  c #43201E",
"|  c #4C2825",
" . c #835556",
".. c #8B635C",
"X. c #AC7B7B",
"o. c #7A4E49",
"O. c #663F3D",
"+. c #704743",
"@. c #A67A75",
"#. c #8E5D5E",
"$. c #9D7373",
"%. c #9D6D6A",
"&. c #AD7E79",
"*. c #A17777",
"=. c #966C6C",
"-. c #9B726F",
";. c #926D6C",
":. c #79534B",
">. c #AF8788",
",. c #A87D7B",
"<. c #835B5B",
"1. c #744948",
"2. c #765454",
"3. c #754F4F",
"4. c #A78081",
"5. c #C49A9A",
"6. c #C29696",
"7. c #AD8585",
"8. c #A07B7B",
"9. c #9C7777",
"0. c #987072",
"q. c #3F211D",
"w. c #563430",
"e. c #AC8079",
"r. c #D9ACAB",
"t. c #8A6565",
"y. c #68484A",
"u. c #493435",
"i. c #3E3231",
"p. c #614039",
"a. c #986A65",
"s. c #5C3B35",
"d. c #704A43",
"f. c #7D5657",
"g. c #77524A",
"h. c #9B7676",
"j. c #705556",
"k. c #875C56",
"l. c #B9837E",
"z. c #9C6B66",
"x. c #553F3F",
"c. c #B2888A",
"v. c #866161",
"b. c #6E4D4E",
"n. c #805751",
"m. c #5A3432",
"M. c #623D39",
"N. c #BD8481",
"B. c #B58B8C",
"V. c #875958",
"C. c #946560",
"Z. c #8E6868",
"A. c #B38C8E",
"S. c #735E5E",
"D. c #5D4849",
"F. c #A38080",
"G. c #9F6D69",
"H. c #91605F",
"J. c #734842",
"K. c #6D3F3A",
"L. c #CCA2A3",
"P. c #976965",
"I. c #785958",
"U. c #5A3330",
"Y. c #7E5D5D",
"T. c #77514A",
"R. c #C08785",
"E. c #AA8182",
"W. c #8B6B6B",
"Q. c #A47B7B",
"!. c #5A302B",
"~. c #B59393",
"^. c #B28F90",
"/. c #877271",
"(. c #B57F7D",
"). c #895D57",
"_. c #653733",
"`. c #502522",
"'. c #B79798",
"]. c #AD8A8A",
"[. c #C18988",
"{. c #83524E",
"}. c #865B55",
"|. c #AF8E8F",
" X c #7F5951",
".X c #C48987",
"XX c #A88686",
"oX c #C68D8C",
"OX c #C38B8A",
"+X c #C68A89",
"@X c #C98D8B",
"#X c #B57C7B",
"$X c #AD7674",
"%X c #8D5C58",
"&X c #986462",
"*X c #A26F6C",
"=X c #CB9794",
"-X c #B37A78",
";X c #EEBBBC",
":X c #DCABAB",
">X c #D1A2A2",
",X c #A57375",
"<X c #976769",
"1X c #674F51",
/* pixels */
"  . X o O + @ @ # $ % & & * * = - - ; ; ; : > > > , > < + 1 < < # 2 3 4 5 5 5 6 4 7 6 8 8 9 9 9 0 0 q w e w r e e t t y u i p p ",
"a s d $ 8 f g h j k l z x x * * - - - ; ; c . > > > , > < + 1 v b n 4 4 5 m 8 8 M 8 5 5 0 N B 0 B V f l e e e t y y C Z Z Z A p ",
"S D s f u F G H J J J G K . & = = - - - ; : > > > , > > > + 1 L v v 3 n n 4 4 M M M M P 0 P 0 0 B I f r e e g U y y u Z Z Y Y C ",
"s   r T R J E E W W E E E Q 0 = = ; ; : c . > > > > , > > > + 1 L L v ! ! ~ ~ ~ M M 8 P 9 9 P B B V f r r e U U y y u u u Z Z y ",
"s 3 g h R R ^ U U / ( E E E J p ) + . : _ a > < a > . _ _ , > + 1 L ` v v b 3 3 4 M 6 8 9 9 P ' V I I r e t U y U y C u u Z Y i ",
"s   0 e 0 ] = = = = + [ { } } | R  .8 + . a > < < . _ _ _ , > + + 1 + v 2 3 b 3 4 M 8 9 6 6 P q V V I r ..U U U U y y u u Z K i ",
"s s . s X X - = = = = X X.l o.O.+.p l @.> < + X.< a . . . , > + > > + v v b ! ~ 4 4 6 6 9 9 B I I w f r t y y U U U y u u Z Y C ",
"c - = - X X = O $ $ X X s . X.' #.#.#.f + 1 < X.X.< a > < + < < + > + L v ! 2 3 b 7 6 9 P ' ' I f w f l t y t t t t y u Z i p p ",
"c - = - X D a X.@.0 V ' $.@.X.X.@.0 %.V &.<   # 2 L < < X.X.2 2 L < 1 L L X.X.! @.7 6 9 0 q q q w q w e t U U U t t y u i A p Y ",
". - = - ] @.f o.p f *.# @.$.N f =.4 @.@.3 &.&.2 # X.&.2 # 3 2 ! 2 2 L 1 < s < # @ -.f e e r f ;.' B f l g ....g U t y Z Z i A :.",
"c : X s ! f k V $ $ >.,.*.$.*.$.<.U 4 # # 2 L 2 2 L # 2 @.@.@.4 @.2 3   3 0 f #.<.1.k k +.2.A 3.3.i C U e ..e ....t y u Y A p :.",
"s . a # V h 4.5.5.6.7.8.9.-.-.0.l  .K 0 # 2 # # 2 # L 2 n M 5 ) 0 0 @.#.k | H J J J J J J q.{ w.j O.k 3.A y ....g U U Z A A :.Y ",
"s a e.@.p f r.d t.y.w.u.i.u.p.<.U [ 1.o.0 # L v ! 2 # 3 0 V a.V l g p j { Q J J E E E E E E E J | s.O.k d.A f.g U t y u :.g.g.Y ",
"s + X.P d.% h.| u.y.j.j.y.w.| { j k 1.1. .@.1 L # 2 2 2 a.g k.g k.p R G } H J J J E E E E J H J J } | { w.w.R d.u U C Y g.T F ^ ",
"c l.+ z.U t.( x.8.c.0.v.;.0.v.b.p.{ j k F f ` 1 v 2 2 ! l p p p p n.h j { | | | { m.p.d.f.U C h w.{ | { { { { { M.^ u Z g.^ ^ ^ ",
"N.l.c l A ( p.@ B.8.i.( u.v.>.8.t.p.| m.k V.4 c # b 3 4 C.1.1.T T p K A o.F 1.k k 3.<.U v.Z.=.=...f.d.M.{ { { { { { s.d.g.^ ^ ^ ",
"N.l.s g } { 0.c.A.w.S.D.W H F.>.,.<.j m.m.1.G.c s ! ~ 5 H.n.+.J.h o.V.U g k.1.<.h.>.>.8.0.Z.v.<.v.e r U 3.k M.w.w.w.{ w.k ^ d.g.",
"N.c   s.q.v.7.B.A.x.( E E q.8.>.7.*.<.1.{ R G.c - v 3 P g K o.K.R k F p d.k ;.B.L.L.5.c.,.h.;.Z.v.f.<.e e u :.d.M.w.w.w.s.k ^ ^ ",
"N.c P.Q d.9.>.B.A.I.E E q.p.7.7.7.7.$.<.m.R %._ % c # 0 g F K.j U.G s.{ { t.v.Y.Y.I.b.I.Z.h.9.;...<.3.d.y U y u T.k s.{ s./ ^ d.",
"R.c 8 l f *.7.B.A.8.} } | ;.E.4.4.E.4.e j m.P.: x -   4 g O.U.U.G G Q H 1.s.y.F.W.( E ( i.| s.:.v.<.3.h M.f.u u i A ^ / p.k h d.",
"R.R._ ! B 9.E.>.B.B.;.y.v.7.4.Q.Q.Q.Q.e +.J.# - x X   M p !.G !.G | H | { F.~.^.i./.i.W } w.q.q.w.3.[ 1.w.s.A p :.:.:.A :.T.T.F ",
"R.R.s # 8 -.Q.E.A.B.B.>.c.7.4.Q.Q.Q.$.l V.%.(.= % O 4 )._.G !.!.`.R j O.t.'.~.].u.( W E q.I.y.} J q.s.y.O.| / 3.3.3.:.A A p T.^ ",
"R.[.R.  4 8 $.4.>.B.B.B.B.>.E.4.Q.*.=.l l ) _ * z _ z.{._.!.!._.!.}.@.X.8.^.^.|.y.E E q.y.0.W.j.w.H J } { { {  XT.^ g.Y A :.T.F ",
"[.[.[.l.3 4 3 -.,.>.>.c.c.7.4.Q.*.=.l #.V.v [.z _ m H.+.j j _.+.+.p ' ' $.].|.|.0.H Q | W.0.0.0.Z.b.| J E J } T.i Y A p g.:.g.^ ",
".X.X.XR.` 3 @.f e =.Q.Q.*.-.=.r V.V.V.o.) [.- [.# C.{._._._._.K.k.).%.a.Z.8.XX].XXY.p.v.0.0.9.9.9.;.2.j } E J s.k A C e e y T :.",
".X.X.X.XR.  ~ -.f k. .f.<.g g V.V.o.J.m oXOX- (.4 {.K._.K.K.K.K.{.P.%.G.Z.t.-.,.F.8.=.0.0.0.9.9.9.0.v.:.d.Q q.k d.C u Z Z F d.F ",
".X+XoX.X.XN.l.P P.C.C.P.f #.p k R V.l.OXOXOXc ` z.{.K._.K.J.J.T {.H.0 8 -.U v.t.;.0.0.=.;.;.0.0.0.Z.<.d.k w.R s.T e f r y g.g.Y ",
"oX@X@X@X.XR.l.` ) C.k.p +.+.p P.(.OXOX@XOXOXl.m H.{.J._.K.J.J.{.k.#.z.4 M 0.2.f.<.2.2.2.:.I.v.v.v.<.:.h / k G w.i Y C u A g.A p ",
"@X@X@X@X@X[.R.l.` v v #X] c oXoXOXoXoXOXoX[.$Xz.H.%X{.J._._._._.T H.G.m n n ' F 1.:.1.k j M.k 1.:.[ f.:.d.| | }.k.K T d.T u Z y ",
"@X@X@X@X@X.XR.N.c l.~   c OXoXOX[.oXoXoXOXl.~ z.C.&XC.{.K._._._.!.U.{.@.@.# X.b  .K.+.A A 1.1.1.F 1.F R } U.a.f ).k. .).).U y y ",
"@X@X@X@X@X@X[.R.c N.c R.[.[.oX[.[.[.OXOX[.(.M z.&Xz.z.{.J.K.K.T T U.`.{.~ 3 + + . G.+.m.m.R M.j G | } | T 3 m ).l r ..g )...U ..",
"@XoX@XoX@X+X.X.XR.OX[.[.[.[.[.[.c N.[.OXc #X4 *X*Xm k.K.K.K.J.{.{.o.U.| k.~ v (._ (.  ) V.T +.k K.T V.M ! 6 M z.P.r C.l ....U U ",
"oX.X+X.XOX+XoX@X@X@X[.[.[..XN.$X$X(.OXOX[.(.` v 4  .j _._.K.{.}.{.T K.| | k.~ v l.c s l.l.(.l.(.(.(.  m 5 m N V C.C.l ....).}.i ",
"+X.XOX.X.X.XoX@X+X[.R.N.l.$X%X&X(.+XoX=Xx oXc 2 o.G `.J E J J Q !.U.!.`.| `.K m ` l.c _ l.l.(.(.(.  ~ *XG.G.z.a.C.r l ).k. .K :.",
".X.X.X.X.X.X.X.XR.N.#X-Xz.+.V.R.OXoX=Xx oX(.! {.| q.E q.Q Q q.J } | G G !.G G {.m ` (.(.(.(.(.` ` ~ m *XG.z.a.&XC.C.l ).}.K i T ",
".X.X[.[.[..X[.N.(.#X4 &XK.J.] =X- - X s b ) #.G Q q.} } q.q.q.} | | | G !.G G s.k.m v b v v $X# ~ 4 m z.z.&XC.C.C.l ..).}.K p T ",
"[.[.[.R.R.R.N.#X-Xm H.K._.4 - - . (.  4 p G } } } H q.H J H q.q.} } Q Q | G G G K.#.m 3 ! 3 ~ ~ *X*X*Xz.&XC.C.H.H...g k.K i o.T ",
"R.R.R.R.N.N.#X-X4 &Xo._.z.X OX- M f I a.1.{ } } } | | | Q q.q.q.} } } q.q.| G G U.T l m 3 ~ M *X*XG.G.z.&XC.H...).k.). .i A T T ",
"R.R.R.R.N.l.#X$Xz.{._.%Xc - X C.p K }.l l k.h w.O.+.U.| { | Q Q } q.q.q.J q.{ { w.k K C.) 3 4 *XG.z.z.z.&XC.....).).}.i A T F F ",
"R.R.N.N.N.#X-Xm %X+.T ` -   T R ^ +.+.k +.j } H +.T.j { | | | { Q Q Q q.q.q.} | | s.^ k.a.G.G.z.z.z.P.z.C.H...).).k.K i o.T F ^ ",
"R.N.l.l.#X-X$Xz.{.K.0 : # h | R O.j w.s.G } J H :.n.R s.w.{ | { | | Q q.q.q.q.q.Q { R p f a.z.z.z.&XP.C.H.H.%X).k. .i A o.T ^ g.",
"N.N.l.#X-Xv ) H.J.k.` ` T Q { w.w.U.w.w.{ H E { [ w O.s.{ w.{ | | | | Q Q q.q.q.H } | h l ' C.C.C.P.P.H...#.%X). .p p T T T F F ",
"N.l.(.#X-X$Xz.{.{.~ _ l | G { G G s.M.w.{ H { 2.=.t.Y.y.{ { { Q | | | Q | Q q.} q.H q.{ ^ @.V f C.#.g l #.}.}.K p T T J.T T ^ ^ ",
"N.(.#X-X-X$Xz.{.0 z 3 K.U.w.{ R R j U.G U.{ | O.+.{ { w.Q } } } q.} u.| Q Q Q q.q.H J H | f X.' C.#.).k.V.{.{.p ^ J.+.+.+.J.d.T ",
"l.#X-X#X$X~ z.l z _ p k J.+.s.{ { { %.: x x = ; X.T.O.O.O.m.{ { s.| } } Q Q } Q q.} J J J O.@.! V l ).V.p K {.T J.+.K.K.K.K.+.F ",
"l.-X-X-X$X~ G.M - #.F p T Q E H | j # 3 r.;X;X;X:X>X:X>X= @.).P.V.j m.j j | H q.Q Q } H J } g @.4 C.#.K p p T F +.K.k K.+.+.+.g.",
"l.-X-Xv ~ 4 M b 0 U p T | G z.{.p {.o.m.| Q l < ,Xl l 2 : 2 } #.p | } M.K.H E E E J H q.J J R 8 ! 6 l K p T J.+.+.K.K.+.d.^ ^ A ",
"(.-X-X$X4 *Xm G.P.l }.+.k + % : 4 P.H.#.K +.m.m.R +.k 1.C.#.#.).1.+.K.j R Q J E E E E } } J } k.  P V g p T T d.+.h J.+.^ o.T Z ",
"#X# v ~ 4 3 *XG.8 B l l 4 X z % * _ 4 n n L < @.) <X$.$.=.C.#.).K  . .K T 1.+.R { { Q q.| q.H O.M ! P C.}.p T J.J.^ ^ T.p p p C ",
"#Xv ~ ~ m m v #   # 3 # S X X = z - c > 2 ) <X<X<X%.%.l #.V.K 1.1.1.p n.f.V.#.l l }.F R G | } | f   7 V #.p T J.T p K k.V.).K Y ",
"-X# $XM m 8 #       ` S _ s c X OXc s c c _ _ l.. 2 ,X2 ,X) %.<X#.V.V.#.#.C.#.C.l #.#.l k.+.G G }.# 6 8 P...i p i k.....g }.A o.",
"1 v ~ m *X) 3     +   + c s s s c _ (.` m H.V.#.C.&X#.).<X,X,X,X) G.C.C.l l #.#.k.l l C.8 P.p J.k.4 4 4 V g K A }.....g g i ^ +.",
"v v 4 m z.z.)   s s D ] s ] a s s S   ~ f V.+.+.K.+.R m.G +.K V.V.V.V. .V.V.).#.#.V @ 0 @ @.8 ..e 4 8 8 V g i i y U ..g }.F h k ",
"v v 4 m z.P.z.! c O + @ @.4 ] s S a   8 C.k.T J.j { m.O.m.m.K.T T T.p n. .V...l I ' 4 @ 0 8 8 P B 8 8 P f U K C g g g K T / O.k ",
"1 ~ 4 M G.z.0   $ ! r @.r ' s ] ] ] a e.0 g K j Q U.+.R j U.O.o.n.n.K <.g ..e f f V ' B V V ' 8 P B B V e u :.u y U K T h / p.k ",
"~ v ~ *XN P @.! e A V y i   @.a D s S S @.0 K p 1.y K.+.+.n.p A #.#.U U l f f I f e f e f f f V V V f r C :.A A A u :.d.k R p.k ",
"~ v ~ 4 G.f e :.p.d.A k r @.@.a D s s   6 C.#.l m *Xz.).#.G.H.y I ' f r w B ' q w e f U g e e ..e e e y T T p K i i ^ p.s.s.s.p.",
"v v ~ M *X#.T.j w.k w./ ^ C q a D s D   2 5 &XV 5 5 6 %.%.n M l G.N 0 5 @ @ @ 9 r U i i i i y e g U u :.d.h :.K i T k p.s.s.s.s.",
"` v b 4 z.U / { d.w.w.w.s.F w a a S s ] S +   2 + 1 2 ! M 5 ) %.) 9 9 9 @.@.@.4 e T +.p k i T u u :.^ k h d.^ F F / O.M.s.{ { { ",
"] ` v 4 l :.p.y.y.w.{ { { d.0 e.e.a s ] . . S a _ l._ , n M 5 G.*X5 P 5 @.@.6 I l T / T.p.k T p.^ h k k h d.^ d.k / s.s.{ u.u.i.",
"+ v 3 V I.x.x.x.{ | Q | Q k ..0 e.a ] . S a a . _ _ : a M M ) %.0 q ' N 8 V r e t d.s.p.p.s.O.h k k / k d.F d./ O.s.{ u.Q } q.H ",
"  ! 6 U D.x.u.u.u.| u.| | p.k q e.a S ] S a a , > . . ,Xz.N ) ' 0 I e r e g u :.k p.w.w.s.| { k k k p.h k d./ p.s.{ | q.( ( E ( ",
"S @.Z.y.u.u.i.u.i.i.u.q.w.{ p.e @ 0 @.a S a + 1 # b $.z.N %.%.I a.C.k.C K [ / s.w.{ | | w.| q.w.p.p.s.p.p.p.s.{ u.q.H ( ( ( E ( ",
"X.0.1Xu.i.( i.i.q.i.u.i.| w./ d.T.u y q @.@.@.7 0 -.$.0 0 q r f e y U :.d.M.{ { | | | i.u.i.q.q.{ { x.w.w.{ u.i.q.H ( ( ( ( ( H "
};
