/* XPM */
static char *_37d2ee7490f4f2bb988d73900c8be294drTxcvIzY9zKrc1[] = {
/* columns rows colors chars-per-pixel */
"64 64 229 2 ",
"   c #B3847E",
".  c #B48781",
"X  c #B4837F",
"o  c #B78882",
"O  c #B0837E",
"+  c #BC8C87",
"@  c #C08F8D",
"#  c #C2908F",
"$  c #B78484",
"%  c #AD7E79",
"&  c #9A6F69",
"*  c #8E5D5E",
"=  c #986A65",
"-  c #B98887",
";  c #B48182",
":  c #B48282",
">  c #B07E80",
",  c #B27F7D",
"<  c #AF7C7B",
"1  c #AC7B7B",
"2  c #A97874",
"3  c #A67571",
"4  c #A2706D",
"5  c #9D6D6A",
"6  c #9D6C68",
"7  c #A4726F",
"8  c #9F726D",
"9  c #A26F6C",
"0  c #9D706B",
"q  c #997069",
"w  c #956C65",
"e  c #926A63",
"r  c #8A615B",
"t  c #875F59",
"y  c #855E56",
"u  c #825C54",
"i  c #815A52",
"p  c #7E564F",
"a  c #7D534C",
"s  c #C08C8A",
"d  c #A37570",
"f  c #B07B77",
"g  c #B48382",
"h  c #B17E7C",
"j  c #AE7976",
"k  c #AA7875",
"l  c #AA7A75",
"z  c #A4726E",
"x  c #A2746E",
"c  c #A1726D",
"v  c #9E716D",
"b  c #9C706A",
"n  c #986D67",
"m  c #956A65",
"M  c #906361",
"N  c #8D655F",
"B  c #89615A",
"V  c #825B53",
"C  c #7F5950",
"Z  c #7F5850",
"A  c #7A554D",
"S  c #AB7A76",
"D  c #AA7874",
"F  c #AD817F",
"G  c #9B726F",
"H  c #8B635C",
"J  c #996D68",
"K  c #8A625B",
"L  c #7D574F",
"P  c #946560",
"I  c #835B5B",
"U  c #744948",
"Y  c #69453F",
"T  c #704A43",
"R  c #754F48",
"E  c #7C564F",
"W  c #875C56",
"Q  c #4C2825",
"!  c #3F211D",
"~  c #391917",
"^  c #30201F",
"/  c #53312E",
"(  c #563430",
")  c #603836",
"_  c #663F3D",
"`  c #462120",
"'  c #230403",
"]  c #3A1A18",
"[  c #482321",
"{  c #5A3432",
"}  c #77524A",
"|  c #805751",
" . c #815751",
".. c #B18684",
"X. c #A78081",
"o. c #A67A75",
"O. c #987072",
"+. c #623B37",
"@. c #562E28",
"#. c #43201E",
"$. c #5A3330",
"%. c #B88F8E",
"&. c #AD8585",
"*. c #9C7777",
"=. c #8B6B6B",
"-. c #856362",
";. c #8A6565",
":. c #966C6C",
">. c #704743",
",. c #623D39",
"<. c #6E4D4E",
"1. c #765454",
"2. c #7D5657",
"3. c #7F5951",
"4. c #614039",
"5. c #734E46",
"6. c #B07F79",
"7. c #BE9491",
"8. c #8D6F6E",
"9. c #785958",
"0. c #705556",
"q. c #836768",
"w. c #876869",
"e. c #866161",
"r. c #AB7B78",
"t. c #754F4F",
"y. c #8E6868",
"u. c #5C3B35",
"i. c #6D4940",
"p. c #79534B",
"a. c #947171",
"s. c #735E5E",
"d. c #987677",
"f. c #9F8081",
"g. c #A58788",
"h. c #A38484",
"j. c #907373",
"k. c #AC7B77",
"l. c #976965",
"z. c #977C7C",
"x. c #AC8D8D",
"c. c #B19394",
"v. c #B59393",
"b. c #B79595",
"n. c #AF8E8F",
"m. c #8D5C58",
"M. c #A17777",
"N. c #A47B7B",
"B. c #9B7676",
"V. c #926D6C",
"C. c #674F51",
"Z. c #B79798",
"A. c #BA9A9B",
"S. c #68484A",
"D. c #835D5D",
"F. c #7E5D5D",
"G. c #AF8788",
"H. c #553F3F",
"J. c #B28F90",
"K. c #A88686",
"L. c #835556",
"P. c #875958",
"I. c #734842",
"U. c #5D4849",
"Y. c #6C5253",
"T. c #9C7C7C",
"R. c #937575",
"E. c #3E3231",
"W. c #B57C7B",
"Q. c #774F48",
"!. c #502522",
"~. c #A38080",
"^. c #493435",
"/. c #140303",
"(. c #AA8989",
"). c #B9837E",
"_. c #AA7672",
"`. c #91605F",
"'. c #6D3F3A",
"]. c #5A302B",
"[. c #A07B7B",
"{. c #895D57",
"}. c #734E45",
"|. c #C89592",
" X c #877271",
".X c #B2888A",
"XX c #653733",
"oX c #AA8182",
"OX c #83524E",
"+X c #C48987",
"@X c #C18988",
"#X c #AD7674",
"$X c #7A4E49",
"%X c #C08785",
"&X c #775149",
"*X c #C68D8C",
"=X c #C98D8B",
"-X c #C38B8A",
";X c #C68A89",
":X c #B37A78",
">X c #9C6B66",
",X c #986462",
"<X c #B57F7D",
"1X c #BD8481",
"2X c #BB8682",
"3X c #B67E7C",
"4X c #865B55",
"5X c #CB9794",
"6X c #CE9B99",
"7X c #C38C8A",
"8X c #77514A",
"9X c #BB8A8A",
"0X c #C29493",
"qX c #E9B8B9",
"wX c #EEBBBC",
"eX c #E2B0B2",
"rX c #D1A2A2",
"tX c #DCABAB",
"yX c #A57375",
"uX c #A37771",
"iX c #A0736E",
"pX c #976769",
"aX c #9D7373",
"sX c #9F6D69",
"dX c #AC8079",
"fX c #9B6F6A",
"gX c #A07672",
"hX c #66443C",
"jX c #A2746F",
/* pixels */
"  . X . o O + @ @ # # # + $ % & * * * = O - ; ; ; : ; > , < < 1 2 3 3 4 5 6 7 8 8 8 9 0 0 0 0 0 q & w e e e e r t y u i i p a a ",
"O   o o o - s @ @ @ # s @ + $ : % d & = f - g ; ; ; : ; > < h j k 2 3 3 k f l 3 z x c c v 0 b 0 b n m M N N N B y y V C Z C A a ",
"  o - + + + # @ @ - $ $ $ $ - - $ : f 3 < : ; ; ; : ; ; ; , < < 1 S D % O $ F 7 7 G w M H e e e J n m e e N K H y y V C C L L L ",
"o + s @ + + @ @ @ - : % 3 d 3 , - - $ O O g ; ; ; ; : ; ; ; , h < k j S S 0 P H I U Y Y T A A R R E V W r N N N H y i i i Z Z Z ",
"o + # @ + + - O % l 3 d G 0 0 8 3 , - : O O , > O ; g $ $ : , , 8 d 3 * Y Q ! ~ ~ ~ ^ ~ ~ ! / ( ) _ Y R E y N N H y u i i C Z p ",
"o + @ @ o % G m m J d 8 G 8 & = = d , , , O ; > > g $ $ $ : ; , 6 * a ) / ` ~ ~ ' ' ' ' ' ' ' ] [ { _ Y T } p H t y u i p |  .p ",
"o + # - 3 H H G F ..F X.o.d G O.w P 0 < O > , < < O g g g : ; , 6  .+.@.#.] ~ ~ ^ ' ' ' ' ~ ] ~ ~ #.Q / $.$.) T i t y p } } L E ",
"O o + l W m ..%.&.*.=.-.-.-.-.;.:.m M d k h , 1 1 > , ; > , < > 3 * >.) / Q Q Q / $.,.<.1.2.3.Y $.Q [ / / / / / 4.5.i i } R } A ",
"6.O l r n 7.&.8.9.0.9.q.=.w.-.9.1.e.;.r 0 d < 1 r.< > > < 1 1 r.k 0 H  .R R R U >.Y Y t.t ;.y.H I t.Y u./ / / / / / u.i.p.} } p.",
"O 3 M 8 %.a.9.s.e.8.d.f.g.h.f.j.-.1.2.I t 8 k r.k.1 < 1 k.D r.k k 3 8 & = m i Y ) 5.e.y.y.y.;.;.e.r t 2.5.Y u.{ ( ( / $.Y R 5.R ",
"l l.m *.9.0.w.z.g.x.c.v.b.c.c.n.f.w.1.<.t.m.3 r.1 < 1 r.o.o.o.3 3 d G 8 & t.{ _ y.M.N.M.B.a.V.y.;.e.2.2.E E } T 4./ / / u.Y T 5.",
"3 H a.<.C.8.h.c.b.Z.A.A.Z.Z.Z.v.n.f.q.<.S.U l.k.r.1 < r.2 d z 4 v 0 m * U $.>.N.&.*.;.e.e.D.e.e.e.e.I 2.1.5.1.3.} Y u.$.) Y T 5.",
"= w t.S.8.g.c.A.A.Z.Z.A.A.Z.Z.b.v.x.z.F.t.T p.3 l r.k.2 v = = P P M  .U ) E G.N.1.H.( S.0.9.1.1.2.D.D.D.2.R U } i p 5.Y _ Y i.5.",
"W 2.H.F.f.c.A.b.A.A.A.A.A.Z.Z.Z.b.J.K.8.9.1.Y P k.r.r.S = r L.P. .I.+.) 1.&.q.U.S.Y.9.-.=.8.-.F.t.t.1.2.F.1.5.S.A y V 3.A R R 5.",
"} 4.0.j.x.c.A.A.A.A.f.8.f.b.Z.Z.Z.b.n.T.D.D.>.a , r.r.S M a a a >.$./ ,.V.0.U.0.w.R.*.T.T.*.d.=.D.t.<.t.2.2.t.T S.E y i p p A } ",
"4.S.=.f.x.c.A.A.A.h.E.^ Q =.A.A.Z.b.c.h.w.;.2.Y 3 W.D 3 P U U Q._ @.!.F.-.0.q.j.T.~.~.~.T.T.*.B.V.D.1.S.>.1.1.5._ 5.E L A p A } ",
"^.9.R.h.x.c.A.Z.A.H.s.U./.] n.A.Z.Z.v.(.a.a.;.+.6 )._.8 `.| >.'.$.].u.F.-.=.z.h.h.~.~.~.~.[.*.*.d.a.-.t._ S.t.t._ ,.A E L L A p.",
"^.w.T.K.x.c.A.b.Z.H.^ ' ' ! (.Z.Z.Z.v.(.B.d.O._ P - l 8 {.p Q._ $.!.S.8.R.f.h.g.K.K.~.~.*.*.*.*.d.B.V.e.U 4._ 5.S.{ Y p.A A p.}.",
"( =.z.g.x.c.b.c.Z.F.' ' ! 4.v.Z.b.b.v.h.d.T.*.Y l.@ % 8 r R _ $.@.$.<.R.~.K.K.(.h.[.d.*.*.*.*.*.*.*.d.a.F._ { _ <.{ u.R R R p.5.",
"Y ;.8.f.x.c.b.v.Z.K.#.! Q d.b.v.v.v.(.~.a.~.N.>.= |.g 3 r _ $.$./ _ F.d.K.(.(.(.=.] ^ [ D.B.*.*.*.*.B.d.;.1.4.{ _ 4.( 5.5.5.i.i.",
"y y.w.z.K.x.v.b.Z.Z.a.S.=.v.v.v.n.n.K.*.a.&.M.U 3 |.X z a ].@.].@.1.=.T.K.(.(.h.E. XE./.#.e.*.*.*.O.B.B.a.D.>./ / _ / S.R R R i.",
"q V.-.j.h.x.n.v.Z.Z.Z.v.Z.v.v.J.x.K.T.a.N..X:. .$ |.6.{.XX@.].].R a.=.T.K.(.K.~.^.^ /.' ! e.*.*.*.*.B.B.d.;.1./ Q ( @.Y 5.A A i.",
"3 q -.F.R.K.c.v.Z.Z.Z.Z.Z.Z.v.n.K.T.a.*.&.oXM 6 s s 9 OXXX].].XX& o.=.*.h.g.h.~.S.' ' ! S.O.*.*.*.*.*.B.B.V.F.u.Q Q Q Y } A A R ",
"% G e 9.D.f.x.b.b.Z.Z.Z.Z.v.c.K.T.O.a.&.G.G P k @ f `.>.+.) XX>.P M.V.8.~.h.~.~.;.] [ Q =.*.*.*.*.*.*.B.B.a.D.>./ #.` Y } p.} }.",
").l G -.1.=.h.n.v.A.b.b.Z.v.x.T.V.a.X..XM.M l.- $ 6 OXXXXXXXXXQ.M :.O.-.a.T.[.~.*.2._ D.*.*.*.*.*.*.*.*.B.a.-.t.( #.] ,.} p y i ",
"+X).3 G ;.9.8.h.n.v.b.Z.c.x.T.V.a.X..XN.e * f @X#Xm.'.XX'.'.'.$Xl.5 B.-.-.a.T.T.*.B.V.B.*.*.*.*.*.*.B.B.B.a.-.t.{ #.] { } V y 5.",
"+X%XW.3 G V.;.a.f.h.(.(.h.T.V.a.N.&.M.M {.3 s ).9 OX'.XX'.I.I.Q.M 0 e V.1.-.d.*.*.*.*.*.*.*.*.*.*.d.*.B.a.y.F.S./ ] #._ A V } &X",
"*X=X%XW.3 q O.a.V.=.V.a.y.V.d.M.M.:.t P.7 -X%X#X`.OXI.XX'.I.I.OXm.6 P y.D.1.-.V.d.d.d.B.*.*.*.B.B.B.B.a.=.e.1.) Q ] / R H H A A ",
"=X=X=X%XW.3 J J a.O.O.a.a.a.:.e t  .`.W.;X@X:X>X`.m.OXI.XXXXXX'.L.>X0 t ;.F.1.9.;.a.B.B.B.*.B.B.B.d.a.=.-.2.>.{ ` [ u.p.y R a i ",
"=X=X=X=X%X).D 6 M H `.* * t L.L.`.D ;X*X-X%X_.>XP ,XP OX'.XXXXXX) m.3 M I ;.D.1.9.-.y.V.a.a.a.V.8.y.V.;.e.2.Y $.@.$.T A 5.a y y ",
"=X=X=X=X=X;X%XW.D 9 0 9 6 9 D ).@X@X-X-X@X<X7 = ,X>X>XOXI.'.'.Q.'.+.l.2 t 2.e.y.e.F.F.D.D.D.F.F.-.y.=.;.e.1._ +.) Y {.y t r t t ",
"=X;X=X;X;X;X+X+X%XW.W.).%X@X@X@X%X1X@X-X2XW.3 9 9 z W '.'.'.I.OXOX_ _ 6 2 I t.2.;.y.;.D.D.D.D.e.y.y.y.;.2.t.T +.'.r P M H H t V ",
";X+X;X+X-X;X;X%X%X%X@X@X@X+X%X:Xf 3X-X-X@X<Xf j 3 L.) +.XX'.OX4XOXQ.$.'.7 k t R t.2.D.-.y.y.y.y.y.;.D.2.E t.+.$Xl.P M H H {.V Z ",
";X+X-X+X+X+X;X=X;X@X%X%X).f 6 6 3X;X*X5X6X*X2Xr.$X@.!.~ ' ~ ~ [ ].$.].Q I.7 < M t.<.T S.1.2.2.F.E 1.t.U Y _ m.7 6 e M m.y V  .p.",
"+X+X+X+X+X+X+X+X%X%X).:X9 L.* ).-X*X5X6X*X<XS OX[ ! ' ] [ [ ! ] #.Q @.@.@.a 3 W.l.a >.Y >.>.<.<.>.Y Y '.L.9 3 6 P P M {.4X| a Q.",
"+X+X@X@X%X%X%X%X1XW.#X6 Q.OXX # s s s o k 9 * ].[ ! #.#.! ! ! ` Q Q Q / ].) P.D W.6  .U >.>.>.>.>.U m.9 7 6 = P `.M r {.4X .a &X",
"@X@X@X%X%X%X1X).W.3 = U U 3 7Xs g <X6.3 a $.#.#.#.] ! ] ~ ] ! ! #.#.` [ / @._ `.f <X7 * a $X$Xa P.l.D 3 6 P P `.* H r 4X .p $XQ.",
"%X%X%X%X%X1XW.:XD ,XU _ >X+ s ).2 l.J l.U / #.#.#.Q Q [ ` ` ! ! ! #.#.! Q / @.I.6 W.W.f 9 6 6 9 :XD D 9 ,XP `.H {.{.{.L.p A &XQ.",
"%X%X%X%X1X).W.#X>XOXXXm.2Xs + 0 r W r M N y i.{ _ >.{ Q Q Q [ [ #.! ` ! ] Q / $.a 9 f :XW.:X:Xf #XD 9 >X,X`.H m.{.W 4Xp A &XR R ",
"%X%X1X1X1XW.:Xz * >.Q.f s + 0 p a p.Q.T >.) #.] >.8X) / Q Q [ / [ [ [ ! ] #./ / _ P.9 3 S S #XD 3 7 5 >XP `.* {.{.4X .p $XQ.R }.",
"%X%X%X1X).:X#X>XOX'.= - o l.>.I.'._ +.u.@.#.~ ] p.E +.u.( Q Q / Q Q [ ! ! ! [ / ].>.m.= 7 k D 3 z 9 6 >X,X`.m.m.W OXp A $XQ.}.I.",
"1X1X1X1X3Xj z `.I.OXf $ = +.+.'.) $.( / Q ] ' / A w _ u./ ( / Q Q Q Q #.! ] ! [ / { I.m.= z 3 7 >X5 ,X= P * m.{.L.OXa $XQ.Q.R T ",
"1X1X1X).:X#X>XOX>.= $ 3 XX@.) { $.u.{ ( / ] / A V.;.F.S./ / / [ Q Q Q [ #.! ! ! [ / u.Q.m.J 9 0 5 6 = = P * m.P. .a $XQ.U I.}.}.",
"1X1X).:X:Xz `.I.a 6.<Xa !.@.@.@.u.+.{ @.$./ Q _ >./ Q { [ #.#.#.` ` ^.Q [ [ ! ! ! [ / +.a P 5 6 >X>X= P * m.m.4XOXa Q.U I.I.I.I.",
").).:X:X#X>XOX>.= o 5 { !./ @.$.) +.R = $ 7.@ 9X1 8X_ _ _ { [ [ [ #.Q Q ` [ #.! ! ! #./ '.r n m P M P M H m.P.P.OXa Q.U '.>.>.>.",
").).:X:Xz `.U a S % $X!./ ].+.) ].P.$ 0XqXwXwXwXeXrXtXrX# d L. .>.@.` Q ` Q ` ` ! ! ! ! / 5.& J P P `.{.* P.4XL.p.Q.U I.>.>.'.i.",
").:X:Xj 6 P.U `.O 6 { / ].{ / [ ].* P._ _ Q M > yXM M 1 - r./ * {._ @./ Q [ ` ! ` ! ! ~ ! / r o.n l.M t {.4XOXa $X$XI.>.>.'.'.'.",
"<X:X:X#X,XOXOX2 6.a $.+.) ] [ _ $XL.a $XU Y { { +.>.>.U P * 2.L.U $.#.) ) / Q #.[ #.! ] ~ ] _ uX8 m M r P.a p. .Q.Q.U '.'.'.'.'.",
"W.k.j z `.OX>Xo 9 '.'.'.#.+.L.P = 6 6 iX2 < > o.iXpXaXaX:.e * {.| U _ ) _ { ] ^ ~ ! [ #.~ ~ [ N 2 5 P m.4X .a a $X}.I.>.'.'.'.'.",
"W.j _.9 * m.- ).a I.I.!.R s + s - : , ; r.z pXpXpX5 5 M * P.| $X$X$XL.a >.+.#.' ' ' ~ #.#.~ ] Q.k uXm m.4Xa a $XQ.U '.>.>.'.'.i.",
":Xk.#X9 `.x |.= $Xa XX'.$ |.|.|.-X2Xo 2X2X$ $ ).g r.yXr.yXiX5 * L.| | | L.p.U _ Q ~ ' ' ] ! ~ { 0 k.& H  .a $XQ.U I.>.>.>.I.Y I.",
"j j _.z >X).S W a Q.U 7 2X@ 7Xs 2X$ <Xf z `.P.* P ,X* {.pXyXyXyX4 sXP * {.{.* m.{.$X{ #.~ #.~ #.r 2 8 P L.a a U I.>.>.I.>.>.i.}.",
"j #X3 z d 2 l.M m.* 9 X - + - o ).  6.2 ,XL.>.>.'.>.+.{ @.>. .P.* `.* {.* `.P P P e M R { [ #.] }.3 x l.{.a Q.}.I.I.I.I.I.}.Q.a ",
"j #X3 z z 6 9 x 3 l , o o X X o   O % 8 P 4X$XU ) / $._ { { '.Q.$X$Xa | L.P.P.{.* {.* H P.>./ #.XXx o.J H | $XQ.U I.I.}.Q.$Xp 4X",
"#X_.3 3 2 S % 6.6.6.6.O % S .   X X O dXv *  .) [ $.>.+.) $._ Q.| E  .I r P.t * N P n n m & $X].) 5 l G m {. .$XQ.}.Q.$Xp 4XW {.",
"_.3 9 6 3 S 6.X o o S uXm % 6.O . o     o.v  .a U {.Y >.>.| p.A * H t t M e e e w J n uX& uX0 p U & d d J M W p a a | i r m.r H ",
"#X7 9 >XsX0 l .   q w y K o.o.6.o o o 6.d P * N z 9 J {.* 5 `.P.J fXm e w b fXn w e e J 0 G x n N 8 3 uX0 M {.p E 4X4X{.H H {.r ",
"3 z 9 6 6 9 3 q p.p.5.Y p.r q O . o . 6.r.c ,X= c c d 5 0 2 uXM 5 5 v c gXgXgXiXe H N N N m J 8 G x x x w r V  .4XW m.r H r m.4X",
"#X#Xz 9 6 M p 4.u.4.( ( u.R w O O   o ;   , 6.1 , h r.l 7 8 8 5 9 8 iXd o.o.o.3 l.V p V V r e w q q q w N W | p.V W {.{.W V | R ",
"j D j 3 = 2.hXH.S.( / / / T v dXdXO o X g g , O $ ).g X 2 7 c 0 9 8 8 d o.o.jXn M a Y p.U p V N N e e H i a A | p.i i i p A R Y ",
", j 2 8 D.<.H.4.( ^.[ Q ` Y H v dX6.X X X O , g $ $ - O uXd 4 5 v q 5 0 x n e N B R 4.i.4.i.R p y V 3.p.5.R } A | p p A R i.Y u.",
"6.S uX;.S.H.^.^.^.Q ^.Q Q 4.Y q dXO   X X O , : ; g g yX>X0 4 fXv J N e N r V p.Y hX( u.u.{ Y Y 5.5.i.i.i.T 5.R R R }.i.Y _ 4.{ ",
"6.o.y.S.^.^.E.^.E.Q ^.! ( / 4.H gXv o.O X O , , 1 k aX>X5 5 5 J = P W u | E hXu.( / Q Q ( Q ( i.Y hXY Y i.T i.i.i.Y Y hX4.( / Q ",
"1 V.C.^.E.^ E.E.! E.^.E.Q ( hXT 8Xi t m d iXd G J J J & & = M m H y V } T 4./ ^.Q Q Q E.^.E.! 4.hXhXhXY i.i.Y hX_ 4.4.( ^.Q #.] "
};
