/* XPM */
static char *_838747e4e5445e1b188e46211aabba9iUWkcDu7yPYKxe12[] = {
/* columns rows colors chars-per-pixel */
"64 64 163 2 ",
"   c #B07F79",
".  c #AC8079",
"X  c #B0837E",
"o  c #BC8C87",
"O  c #C59391",
"+  c #C89592",
"@  c #C08F8D",
"#  c #C08C8A",
"$  c #BB8A8A",
"%  c #B98887",
"&  c #B48182",
"*  c #B48282",
"=  c #B07E80",
"-  c #B27F7D",
";  c #B17E7C",
":  c #AC7B77",
">  c #AB7B78",
",  c #AA7875",
"<  c #A67571",
"1  c #A1726D",
"2  c #A2746F",
"3  c #A37771",
"4  c #A0736E",
"5  c #9E716D",
"6  c #997069",
"7  c #956C65",
"8  c #926A63",
"9  c #8D655F",
"0  c #89615A",
"q  c #855E56",
"w  c #825C54",
"e  c #815A52",
"r  c #B3847E",
"t  c #BB8E8A",
"y  c #BB8682",
"u  c #AE7976",
"i  c #A97874",
"p  c #A4726E",
"a  c #A4726F",
"s  c #9D706B",
"d  c #9C706A",
"f  c #986D67",
"g  c #906361",
"h  c #8B635C",
"j  c #7F5950",
"k  c #7A554D",
"l  c #B48781",
"z  c #A67A75",
"x  c #CB9794",
"c  c #AF7C7B",
"v  c #7D574F",
"b  c #B78882",
"n  c #986A65",
"m  c #603836",
"M  c #53312E",
"N  c #562E28",
"B  c #704743",
"V  c #AD7E79",
"C  c #CE9B99",
"Z  c #AA7A75",
"A  c #AA7672",
"S  c #875F59",
"D  c #A87D7B",
"F  c #7D534C",
"G  c #623B37",
"H  c #43201E",
"J  c #391917",
"K  c #230403",
"L  c #5A3330",
"P  c #996D68",
"I  c #B78484",
"U  c #9B6F6A",
"Y  c #704A43",
"T  c #140303",
"R  c #815751",
"E  c #69453F",
"W  c #66443C",
"Q  c #A07672",
"!  c #4C2825",
"~  c #663F3D",
"^  c #895D57",
"/  c #B48382",
"(  c #482321",
")  c #502522",
"_  c #77514A",
"`  c #805751",
"'  c #8E5D5E",
"]  c #7E564F",
"[  c #875958",
"{  c #6D3F3A",
"}  c #956A65",
"|  c #9D6D6A",
" . c #9C6B66",
".. c #966C6C",
"X. c #79534B",
"o. c #A2706D",
"O. c #835B5B",
"+. c #77524A",
"@. c #A17777",
"#. c #744948",
"$. c #5A3432",
"%. c #563430",
"&. c #734E46",
"*. c #D1A2A2",
"=. c #C49A9A",
"-. c #987072",
";. c #926D6C",
":. c #946560",
">. c #875C56",
",. c #734E45",
"<. c #774F48",
"1. c #754F48",
"2. c #B9837E",
"3. c #DCABAB",
"4. c #AD8585",
"5. c #B57F7D",
"6. c #B4837F",
"7. c #BD8481",
"8. c #5A302B",
"9. c #3F211D",
"0. c #68484A",
"q. c #3A1A18",
"w. c #735E5E",
"e. c #5D4849",
"r. c #91605F",
"t. c #7D5657",
"y. c #8E6868",
"u. c #30201F",
"i. c #7A4E49",
"p. c #9D7373",
"a. c #653733",
"s. c #754F4F",
"d. c #A57375",
"f. c #5C3B35",
"g. c #C08785",
"h. c #614039",
"j. c #6D4940",
"k. c #835556",
"l. c #976769",
"z. c #C68D8C",
"x. c #83524E",
"c. c #7C564F",
"v. c #C18988",
"b. c #674F51",
"n. c #A26F6C",
"m. c #9F6D69",
"M. c #C48987",
"N. c #C38B8A",
"B. c #986462",
"V. c #C68A89",
"C. c #B07B77",
"Z. c #734842",
"A. c #C98D8B",
"S. c #B57C7B",
"D. c #AD7674",
"F. c #8D5C58",
"G. c #865B55",
"H. c #B37A78",
"J. c #EEBBBC",
"K. c #3E3231",
"L. c #553F3F",
"P. c #493435",
"I. c #9C7777",
/* pixels */
"    . X o O + + + + + + + O O @ # # $ $ $ % & & & * & = - ; = = : > , < 1 1 1 2 < 3 2 2 2 4 4 4 5 5 6 7 7 7 8 9 9 0 0 q q w e w ",
"X   r t + O t @ + + O O + + O O # # # $ $ y * & & & * & = - ; u , i < < 1 p a a a a 1 1 5 s s s d f 7 g 9 9 h 0 q q w j j j k e ",
"r l t + o z d 8 7 . O x x x + O @ # # # $ % & & & * & & & - ; c u u , i i < < a a a a 1 5 s s s d f 8 8 9 g 0 0 q q e j j v v w ",
"b l @ l n g v m M N B V + C + @ t $ $ $ y * & & & & * & & & - ; c c u Z Z A A A a a 4 4 4 4 s s d f 7 8 8 h 0 S q q e e j j j w ",
"b l D S F G H J J J K J L P O @ $ $ $ % I X & = X & * I I * & - ; c c u u , , i < a 2 2 4 4 4 U f f f 8 9 0 0 q S q w e j j v w ",
"b Z h Y L J K J K T T K K J F I t y I % & X & = = * I I I * & - - ; - u > , , i < a a 4 2 2 5 6 f f f 8 h 0 S S S q q e j j R w ",
"b < h E W F 9 5 Q h ! K K J J ~ ^ 2 : X & = - V = X / / / * & - & & - u u , Z A < < 2 2 4 4 U f f 7 7 g 0 q S S S S q e j j v w ",
"r < U 9 z l @ @ t t t h m ( ) M ~ _ n Z - ; = V V = X & = - = = - & - c u Z > , , 3 2 4 4 U U f 7 7 7 g 0 q 0 0 0 0 q e j j v w ",
"r Z 2 z r l X X X X X r z g F ~ B ` ' P V =   > > c = = V V > > c = ; c c c V Z z 3 2 4 5 6 6 6 7 6 7 9 0 S S S 0 0 q e v v v v ",
"/ c u r X z 2 5 1 U P n f U s n ' ' h g < V V > : V V > : , > Z > > c ; = = = : z z Q 4 4 U s U U U 7 g 0 h h 0 S 0 q j j ] k e ",
"b r X X Z 5 n [ ~ { _ ` ` ` ^ } |  .n } 5 > c > > c : > z i < < i > c   - & V z 3 Q Q 4 6 ....6 6 6 7 8 9 h h h h 0 q j v v k e ",
"b r X > 1 U X.M } % t % & z g X.g o.a 1 < > : > > > c > i a 1 o.< z > - / b X z Q f 9 O.q 9 9 9 9 8 8 9 9 9 h h 0 S S j j k +.v ",
"I X . z U g ) z C @ % D @.@.z h _ ' < z > : c u Z > : , s P n P | 3 , z n [ _ #.E $.%.$.G E B E B &.X.e q 0 h 0 S 0 q e k +.+.v ",
"b X : . U Y _ *.=.C =.% @...-.;.` #.:.i V V ; c : > > > n ^ >.' h U s R m ( J J J K K K K J H M %.~ E ,.X.O.h h 0 S w v +.<.1.k ",
"y 2.  b s G 2 3.*.4.@.-.-.-.-.S _ B F | > 5.6.; u > > Z g F F F F ` B L ! H J J J K K K K K K J H M G ~ E Y <.S S S e j +.,.,.+.",
"7.2.2.o u 8.t Q 9.K K K K ( 0._ #.#.#.' p - y r : , , < :.#.#.<.#.{ L N H 9.q.q.J J J J q.H ! H 9.H ( M M %.%.~ k q q v +.,.Y +.",
"7.2.b b 2 <.X.K T T w.e.T K ! M $.~ B R  .u # b ; Z A 1 r.` B B E m N ) ) ( ( ! ! %.E t.y...y._ $.M ! M ! M M M %.~ <.v +.,.Y +.",
"7.y y b 8 $.T K M 9.u.K K J X.G $.M N #.s a # # b u , 5 ^ R i.{ m L N ) ! ! ! H ! ~ &.X.O.y.-.p.:.t.Y G M M M M M %.%.E +.,.Y +.",
"7.y y A a.J ! W s.%.K K 9.! 4.-.t.G M ~ i d.# x t r : 5 ^ <.{ m L N ) ! ! J K f...4.$ D y.X.&.t.h y.h t.Y ~ $.%.%.%.M %.W Y Y +.",
"g.y g.,  .f 8 9 8 &.q.( ( s.O 4.y.m G ) o.- # C O b   < ^ ~ L L 8.N ) ( J K X.z 4.=.=.4.@.-.y.X.E B ` O.t.&.E h.f.%.%.%.f.E j.+.",
"g.g.o o   Z d 7 7 ..&.%.W @.D -.g k.R l.6.* z.C + #   a x.8.N 8.N ) ) q.J X.` M %.0.z =.4...y.S X.G M B c.s.s.Y E h.f.%.f.W E 1.",
"g.g.v.b   , 3 2 d f Q z Q ;...' ' ' :. .* & O C O o < ^ a.) 8.8.) ) m 9.J H K t.T w.b.K e...;.O.&.0.M H ~ c.&.s.s.j.E E h.h.E 1.",
"g.v.g.y 6.Z A z Z h t.t.c.O.` ` g R _ a 6.v.x O o    .x.a.8.8.a.8.G g s | -.h @ 0.u.K T T K %.&.s.0.~ %.H &.c.1.Y Y +.v k Y j.1.",
"v.v.v.g.2.  , i < s :.h P :.^ F G { n.& v.z.z.o 5.m.r.B m m a.B <.~ >.1 p.p.Q ..D ! K K K J K K J q.9.( H %.q w t.v v k +.+.+.,.",
"M.M.M.g.g.2.  , m. .:.:.>.B N N >.5.v.z.N.z.N.6.A :.x.a.a.a.a.{ F ^ >.n | :.g ;.-.D h M E t.~ H J K K K J H G h.1.v w 9 8 0 <.+.",
"M.M.M.M.g.y 2.6.A B.k.#.{ #.B.6.# # z.z.z.N.y u < x.{ a.{ { { { <.' U m.o.p.5 g O.h O.h O.y.h Y M ( H J q.h.Y E v w e j j 1.Y +.",
"M.V.z.M.M.7.2.2.C.A A u - v.z.N.v.z.z.N.N.N.y C. .x.{ a.{ Z.Z.i.x.[ ' U < d.2 Q g #.&.X.&.~ &.c.&.~ m G ~ m M E q 9 8 9 q +.+.v ",
"z.A.A.A.M.g.2.2.5.C.u u 7.o N.N.A.N.N.A.N.N.5.a r.x.Z.a.{ Z.Z.x.[ ' :. .a i , z > : k.m ~ #.#.i.` c.1.~ ) 9.L c.R v w e k +.k e ",
"A.A.A.A.A.v.g.2.y r u S.6.v.z.z.N.z.z.N.z.v.D. .r.F.x.Z.a.a.a.a.Z.x.:.p i i ,   - ; y > R N H ( ) ) 9.J H Y } g >.R <.Y <.e j q ",
"A.A.A.A.A.M.g.7.y 2.2.7.y N.z.N.v.z.z.z.N.2.A  .:.B.:.x.{ a.a.a.8.) 8.x.< A A , 6.b * & I c P F ~ m G k.i V n g ^ >.k.^ ^ S q h ",
"A.A.A.A.A.A.M.g.y 7.y g.v.v.z.v.v.v.N.N.v.5.a  .B. . .x.Z.{ { <.<.{ ) ( <.p i A u y v.y r 5.; y / 5.6.  < s n ^ g 8 h h ^ h S h ",
"A.z.A.z.A.V.M.M.g.N.v.v.v.v.v.v.y 7.v.N.y S.< n.n.a >.{ { { Z.x.x.i.{ ( ( i.a A , 6.y y 7.2.2.6.5.C.A a Z 2 a  .B.8 :.g h h S S ",
"z.M.V.M.N.V.z.A.A.A.v.v.v.M.7.D.D.5.N.N.v.2.C.u < k.m a.a.{ x.G.x.<.{ ) 9.H Z.m.A u 5.6.6.6.2.5.5.C.D.a 1 a s P :.:.g h h ^ G.w ",
"V.M.N.M.M.M.z.A.V.M.g.7.2.D.F.B.5.V.z.x C z.y > i.N ) J K J J ( 8.8.8.) ) ) ) Z.m.u u H.C.S.5.H.C.u A n.m.m. .n :.8 g ^ >.k.R v ",
"M.M.M.M.M.M.M.M.g.7.S.H. .a.x.g.N.z.x C z.6.Z x.( 9.K 9.( ( 9.q.H ! N N 8.N N 8.x.< u u u D.u u D.A a n.m. .n B.:.:.g ^ G.R ] v ",
"M.M.M.v.v.M.v.7.5.S.< B.a.{ 6.x # # # b , n.' N ( 9.H H 9.9.9.H ) ! ! N 8.N N N ~ F.a , u u D.A < n.p  . .B.:.:.:.g h ^ k.R F c.",
"v.v.M.g.g.g.7.S.H.p r.{ a.< z.# / 5.  < F 8.H H H 9.9.q.q.q.9.9.H H ( ( ! N N N L i.r.a Z A A A n.n.n. .B.:.:.r.r.h ^ >.R v i.k ",
"g.g.g.g.7.7.S.H.< B.i.a. .o N.O a h f n #.M H H H ! ! ( ( 9.9.9.H H H 9.9.! N N L B k.B.a A a n.n.m.m. .B.:.r.h ^ >.^ k.] k <.k ",
"g.g.g.g.7.2.S.D. .x.a.F.y # r ] <.R G.g g q E %.~ B L ! ! ! ! ( ( 9.9.9.q.9.( ! ) G i.h n m.m.n.m. . . .B.:.h h ^ ^ G.] k <.<.k ",
"g.g.7.7.7.S.H.p F.B x.6.# z m 8.B B B E B m H q.B _ m M ! ! ! M ( ( ( 9.9.9.H H ( M ~ >.n B.P  . . .B. .:.r.h ^ ^ >.R ] i.<.1.+.",
"g.7.2.2.S.H.D.m.x.x.i b < L ) L m m $.$.M H J q.X.` G $.%.M ! M ! ! ( 9.( 9.9.9.9.H M Y 4 n :.:.:.B.B.:.r.r.F.^ >.k.] k i.<.,.+.",
"7.7.2.S.H.u D.m.[ < + ; ~ ! M M M L %.M M q.K M c.7 W $.M %.M ! ! ! ! ( ( 9.9.9.q.q.q.( 0 . U :.:.r.h r.h ' F.^ k.F F i.i.<.1.1.",
"7.2.5.S.H.D.D.n.n C - <.m ~ 8.8.$.$.G %.M q.M c...9 O.0.M M M ( ! ( ! ( ( ( ( H 9.q.J J M z : U :.' ' >.[ k.k.x.F i.<.Y <.<.,.,.",
"7.5.S.H.H.D.A 1 > c >.<.] i.~ m m m L M L M ! ~ B M M %.( H H H 9.H 9.9.( ( ( ! ( 9.9.q.J e D z f ' ^ k.x.x.x.F <.Y B B B Y Y <.",
"2.S.H.S.D.A A < 1 B.h F F 8.K K 9.J i *.3.C @ $ V _ ~ ~ ~ $.M L { 8.M $.$.9.J J 9.H H q.J M U Z 3 } ^ F F i.<.i.B B { { { { B 1.",
"2.H.H.H.D.A < a m.m.8 G.~ ( } m.B B r.^ *.J.J.J.3.*.3.*.@ z ^ p.:.M N B m K K K T K H 9.J J { z < 5 :.R F i.B B B { { { B B B +.",
"2.H.H.u A < a , u > 3 :.^ < + O n.^ R G 9.( g = d.g g > % > 9.` ~ ! ) L L 9.J J K J 9.! H q.) } Z 2 U h R i.#.B B { { B Y ,.,.k ",
"5.H.H.D.< n.p Z       Z Z X # x x c l.g ^ B $.$.G B B #.:.' g ^ F k.R #.#.#.B B B B %.! ! ( H B   , 2 f ' ] i.B B 1.<.i.<.i.<.j ",
"S.u u A < m.n.A   r X c r o N.@ O z.c i i c = z o.l.p.p.P :.' ^ R k.k.R k.^ g P g >.[ k.#.m L ~ a Z i a n h ] i.+.v G.q ^ k.G.w ",
"S.u A A <  . .a   r     r o o @ @ # y & > p l.l.l.| | g ' ^ R #.#.#.F ` ^ g :.g g h g 4 U >.F <.U z 3 < f ' R c.R ^ h h h ^ R v ",
"H.u D.a p  .B.m.  b b r I b y o N.y y y y I I I * > d.> d.o.| l.:.:.l.l.:.:.' ^ ^ B.g 1 z < 7 g U 3 2 4 U h ] k q h h h h G.<.i.",
"; u A p n. .B.s   o t l r b b b y I 5.C.p r.[ ' :.B.' ^ l.d.d.d.o.| :.r.' ^ ^ ' :.2 < 4 4 4 2 5 5 5 5 d 8 h R G.h h h h >.<.B B ",
"; u < < n. .P 2 b @ l d Z z X b b r ; Z B.k.B B { B G $.N B R [ [ [ k.k.[ [ ^ :.s 3 < 5 d U 4 4 U U 6 7 h j ] v q 0 q R <.{ W E ",
"; u < p n.n.1 X l 3 S 3 z } r b r X   4 :.>.i.B m M $.~ $.$.{ i.i._ F ` [ [ h P f U U f 8 n f 6 7 7 8 9 e +.k c.R e j i.B W ~ E ",
"; A < a m.s 3 5 S ,.7 5 <.U b r r r X . 5 ' R m ( L B G m L ~ i.` ` ` O.h h 9 8 n f 9 9 } 8 8 8 9 g h w <.1.+.c.R j c.Y W ~ h.E ",
"; u A n.s :.>.X.h.Y h Y w l z X l b r r z 5 ` c.#.^ { B B ` X.X.' h S S g } 7 f 8 9 8 w 0 0 h 9 h 0 e +.B B <.k v c.Y W h.G f.E ",
"5.u A < m.g c.W M Y W E 8 d z X l b b   2 :.' g a n.P ^ ' m.r.>.f U } 9 7 d U 6 7 9 h w w +.q h q v i.B W j.1.,.,.Y E h.f.f.f.h.",
"6.u A a n.h &.! h.E ! W j.w 6 X l b l   > 1 B.P 1 1 2 | | i a g m.s 5 1 Q Q Q 4 0 v v ,.,.w ,.+.v Y j.E W j.1.,.j.E h.h.f.%.%.f.",
"r u , < U q f.h.s.! %.%.f.1.7 X X r b r r X c > - ; > Z a 1 o.| o.4 4 4 z z z < 9 B B c.h.Y <.f.j.j.E E j.Y ,.j.E W f.%.M ! ! M ",
"6.u u < g &.h.0.h.%.%.M M Y 5 . . X b l / / r X I I I * i a 1 5 n.1 1 1 z z 2 f g <.W Y h.G E ,.E j.E E j.Y j.W h.h.%.! ( 9.9.K.",
"- u , U t.L.L.L.M ! ( ! ( E h 5 . X X / r X X / I I % X a a o.| 5 6 U s 2 U 8 9 0 Y f.f.h.! %.j.E E W E E E W f.f.M ( 9.q.u.u.q.",
"  Z 2 S e.L.P.P.K.! P.( ( h.E 6 . X r r r X X * & & & d. .s o.| 5 f 9 8 9 0 e s.E h.%.%.f.! ( h.h.h.h.h.G f.f.%.M 9.q.q.u.u.K u.",
"r z y.0.P.P.K.P.9.K.P.9.%.M h.9 Q 5 z X r X - ; : , p. .s |  .f n :.q O.R c.W f.%.M ! ! %.! 9.! %.%.f.%.%.M ! ( 9.q.q.u.u.u.K u.",
"X -.b.P.K.K.P.P.K.P.P.! %.L.0.s.v q 9 6 z z z 3 5 s p.5 5 6 8 f 9 h S v s.W %.%.! P.! 9.P.K.9.9.! ! L.%.%.M K.9.9.q.u.u.u.u.u.q."
};
