/* XPM */
static char *frame_19_delay_0_05s1763316730[] = {
/* columns rows colors chars-per-pixel */
"64 64 141 2 ",
"   c black",
".  c #010101",
"X  c #020202",
"o  c gray1",
"O  c #040404",
"+  c gray2",
"@  c #060606",
"#  c #070707",
"$  c gray3",
"%  c #090909",
"&  c gray4",
"*  c #0B0B0B",
"=  c #0C0C0C",
"-  c gray5",
";  c #0E0E0E",
":  c gray6",
">  c #101010",
",  c gray7",
"<  c gray8",
"1  c #161616",
"2  c gray9",
"3  c #191919",
"4  c gray10",
"5  c gray11",
"6  c #1E1E1E",
"7  c #202020",
"8  c #222222",
"9  c gray14",
"0  c gray15",
"q  c #272727",
"w  c #2A2A2A",
"e  c #2C2C2C",
"r  c #2D2D2D",
"t  c #2F2F2F",
"y  c #313131",
"u  c #323232",
"i  c #323136",
"p  c gray22",
"a  c #3A3A3A",
"s  c #3D3C41",
"d  c gray28",
"f  c #494949",
"g  c #4A494E",
"h  c #4F4F50",
"j  c gray33",
"k  c gray35",
"l  c #5C5C5E",
"z  c #606060",
"x  c gray40",
"c  c #68676B",
"v  c gray42",
"b  c gray43",
"n  c gray45",
"m  c #787779",
"M  c gray48",
"N  c #7C7C7C",
"B  c gray49",
"V  c gray50",
"C  c #838384",
"Z  c #868686",
"A  c gray53",
"S  c #898989",
"D  c gray54",
"F  c #8B8B8B",
"G  c gray55",
"H  c #8D8D8D",
"J  c gray57",
"K  c #939393",
"L  c #959595",
"P  c #979699",
"I  c #9A9A9A",
"U  c gray61",
"Y  c #A0A0A0",
"T  c gray63",
"R  c #A2A2A2",
"E  c #A4A4A6",
"W  c #A7A6A7",
"Q  c #A9A9A9",
"!  c #AAAAAA",
"~  c #ACACAC",
"^  c gray69",
"/  c #B2B2B2",
"(  c #B4B4B4",
")  c gray71",
"_  c #B6B6B7",
"`  c #B8B7BA",
"'  c gray73",
"]  c #BCBCBC",
"[  c gray",
"{  c gray75",
"}  c #C1C1C1",
"|  c #C3C3C3",
" . c #C5C5C5",
".. c gray78",
"X. c gray79",
"o. c #CACACA",
"O. c #CDCDCE",
"+. c gray81",
"@. c #D1D0D1",
"#. c #D2D2D2",
"$. c LightGray",
"%. c gray83",
"&. c #D6D5D7",
"*. c #D8D8D8",
"=. c #DADADB",
"-. c #DCDBDC",
";. c #DDDDDD",
":. c #DFDFDF",
">. c #E1E0E1",
",. c #E1E1E1",
"<. c #E2E2E2",
"1. c #E4E4E4",
"2. c #E6E5E6",
"3. c gray91",
"4. c #E9E9E9",
"5. c #EAEAEA",
"6. c #ECECEC",
"7. c gray93",
"8. c #EEEEEE",
"9. c #EFEFEF",
"0. c gray94",
"q. c gray95",
"w. c #F4F3F4",
"e. c #F5F4F5",
"r. c #F6F6F6",
"t. c #F7F6F7",
"y. c gray97",
"u. c #F8F8F8",
"i. c #F9F8F9",
"p. c #F9F9F9",
"a. c #FAF9FA",
"s. c gray98",
"d. c #FBFAFB",
"f. c #FBFBFB",
"g. c #FCFBFC",
"h. c gray99",
"j. c #FDFCFD",
"k. c #FDFDFD",
"l. c #FEFEFE",
"z. c white",
"x. c None",
/* pixels */
"x.x.x.x.x.x.x.x.x.x.x.x.x.x.x.x.x.x.x.x.      x.                          x.  x.x.x.x.x.x.x.x.x.x.x.x.x.x.x.x.x.x.x.x.x.x.x.x.x.",
"x.x.x.x.x.x.x.x.x.x.x.x.x.x.x.x.                                                    x.x.x.x.x.x.x.x.x.x.x.x.x.x.x.x.x.x.x.x.x.x.",
"x.x.x.x.x.x.x.x.x.x.x.x.x.x.                      @ o o   o @ @ O   o                     x.x.x.x.x.x.x.x.x.x.x.x.x.x.x.x.x.x.x.",
"x.x.x.x.x.x.x.x.x.x.x.x.                        % 3 q u d d d e < ; @                       x.x.x.x.x.x.x.x.x.x.x.x.x.x.x.x.x.x.",
"x.x.x.x.x.x.x.x.x.x.            @ ; 3 l L U ! _ ] _ { } } ,.9.q.7.1.*.^ D n k e ; o             x.x.x.x.x.x.x.x.x.x.x.x.x.x.x.x.",
"x.x.x.x.x.x.x.x.x.          * h G / ;.w.} M u < ; ; * : ; , e f M P } *.r.a.a.q.@.B 0   o o       x.x.x.x.x.x.x.x.x.x.x.x.x.x.x.",
"x.x.x.x.x.x.x.      o @ * l | r.f.a.( s @ @ o % # @ * @ @ % @ o @ % , ; t l D } -.7.4.D 8   o       x.x.x.x.x.x.x.x.x.x.x.x.x.x.",
"x.x.x.x.x.x.        O f { w.g.g.2.v ; @ @ w c E ] @.@.O.{ L C j e < % %   o @ : ; 4 s l k %           x.x.x.x.x.x.x.x.x.x.x.x.x.",
"x.x.x.x.x.    # # % N q.r.u.a.+.p # @ s E 4.y.l.a.l.a.l.l.l.l.l.q.,.O.! n d 6 % % @   @ @ o o           x.x.x.x.x.x.x.x.x.x.x.x.",
"x.x.x.x.o   o # < E u.g.a.y.E 7 o < C 9.l.f.a.f.l.l.l.l.l.l.l.l.l.f.l.f.g.y.2.] E A l t w t s s 4 @       x.x.x.x.x.x.x.x.x.x.x.",
"x.x.x.    o O h o.a.g.r.w.m ; @ 0 _ a.f.q.4.%.%.7.l.a.l.l.g.l.l.l.l.l.f.l.l.l.a.,.C t , , 0 s M E u @       x.x.x.x.x.x.x.x.x.x.",
"x.x.      o z 6.r.r.h.u.M ; o f O.a.,.U h e 3 < 6 z } r.l.l.l.l.l.l.l.l.l.l.a.W e % * @   @ #   < b 0 o       x.x.x.x.x.x.x.x.x.",
"x.      # l w.f.f.a.4.n $ o b 7.7.D w ; #     @ % ; : A a.a.l.l.l.l.l.g.l.r.M ; @ < l H H m j 6 @ < k >       x.x.x.x.x.x.x.x.x.",
"x.      t 6.h.f.a.~ t $ % x 6.o.f % ; ; f B ! ! b 8 % % U l.l.l.l.l.l.l.g.B % @ p ] r.g.f.a.q.=.s @ ; p @ o o   x.x.x.x.x.x.x.x.",
"    @ @ _ a.0.! l : = > m 6./ 5 @ @ j ] @.} 7.q.r.;.f % u 7.l.a.l.l.l.l.` < @ l ,.} z p p b 1.r.,.a @ < w         x.x.x.x.x.x.x.",
"      p q.f.V % $ $ d ' q.o.8 @ 6 U 4.J 8 : z r.l.l...* ; O.a.a.l.l.l.g.k @ p 3...4 % o @ @ b a.g.=.9 % z ,       x.x.x.x.x.x.x.",
"  # o A l.l.J < i J 4.f.a.j @ q } r.L ;   @ , ,.l.l.4.,   o.l.l.g.l.l.r.w @ U l.J o @ % @ @ D a.a.a.k o m D %     o x.x.x.x.x.x.",
"  @ # +.l.l.r.=.1.r.a.l.2.8 # E a.4.e       s 7.l.l.] , % @.l.l.l.l.l.r.6 % C a.=.s @ * @ p 3.r.a.a.d o z 2.e o   o   x.x.x.x.x.",
"  o 9 4.l.l.l.l.l.l.l.l.,.3   { l.9.p % # e  .a.g.-.e @ 8 2.l.l.g.l.l.l.g   ; l =.=.U B ! ,.r.r.,.N $ # p a.! ; @   o x.x.x.x.x.",
"@ o u a.l.l.l.l.l.l.a.l.q.w   K y.q. .D I %.f.y.] e @   f a.l.l.l.g.l.l.G #   @ 0 e d c b n x x 8 ; # # x w.r.z         x.x.x.x.",
"    s l.l.l.l.l.l.l.l.l.l.g   4 P q.r.a.q.%.U h <     ; / g.l.l.l.g.l.l.,.u   o @ # @   @ @ ; @ @ ; l Y ;.l.l.,.e @       x.x.x.",
"    s l.l.l.l.l.l.l.l.l.7.s %   ; s b k p 6 % o   @ ; b q.a.l.l.l.l.l.g.a.>.l %   @ @ o 3 e s f n ' 7.a.r.l.l.g.T %       x.x.x.",
"    d l.l.l.l.l.l.l.l.l.2.8 @ @ # % % o   @ o o @ @ v 4.l.l.l.l.l.l.l.l.f.l.q.L q # o @ ; e l ` l.l.l.l.l.l.l.l.9.q @     x.x.x.",
"@   d l.l.l.l.l.l.l.l.l.a.z 4 z H k s g e # @   , B 4.a.l.l.l.l.l.l.l.l.h.l.l.l.;.C i = ,   % z h.l.h.l.l.l.l.l.l.b         x.x.",
"@ @ p a.l.l.l.l.l.l.l.l.l.r.=.7.l.r.7.q._ 8 < f ] y.l.l.l.l.l.g.l.l.l.l.l.l.l.l.l.l.,.] A z g ] l.l.l.l.l.l.l.l.a.` ; @     x.x.",
"    e 7.l.l.l.l.l.l.l.l.l.l.l.a.y.l.l.l.a.@.@.q.l.l.l.l.l.l.l.l.l.l.l.g.l.l.l.l.l.l.a.l.a.q.r.l.l.l.l.l.l.l.l.l.l.7.8       x.x.",
"  O ; -.l.l.l.l.l.l.l.l.l.l.l.l.l.l.l.l.l.l.l.l.l.f.l.l.l.l.l.l.l.l.l.l.l.l.l.l.l.l.l.l.l.l.l.l.l.l.l.l.l.a.l.l.l.l.n $ O O x.x.",
"@   @ o.l.l.l.l.l.l.l.l.l.l.l.l.l.l.l.l.l.l.l.l.l.l.l.l.l.l.l.l.l.l.l.l.l.l.l.l.l.l.l.l.l.l.l.l.l.l.l.l.l.l.l.l.l.l.} %     x.x.",
"      ' l.l.l.a.=.q.l.l.l.l.l.l.l.l.l.l.l.l.l.l.l.l.l.l.a.l.l.l.l.l.l.l.l.l.l.l.l.l.l.l.l.l.l.l.l.l.l.l.l.l.l.l.l.l.7.6 O O   x.",
"O @   T l.l.a.T 8 n a.l.l.l.l.l.l.l.l.l.l.l.l.l.l.l.l.l.l.l.l.l.l.l.l.l.l.l.l.l.l.l.l.l.l.l.l.l.l.l.l.l.l.l.l.l.l.l.r.d O   O x.",
"    @ n l.a.=.8   z a.l.l.l.l.l.l.l.l.l.l.l.l.l.l.l.l.l.l.l.l.l.l.l.l.l.l.l.l.l.l.l.l.l.l.l.l.l.l.l.l.l.l.l.l.l.l.l.l.B @     x.",
"@     f g.l.N   4 @.l.l.l.l.l.l.l.l.l.l.l.l.l.l.l.l.l.l.l.l.l.l.l.l.l.l.l.l.l.l.l.l.l.l.l.l.l.l.l.l.l.l.l.l.l.l.l.l.l.!         ",
"      < ,.p.d o M %.| *.7.l.l.l.l.l.a.a.l.l.a.a.l.g.a.y.w.w.q.r.7.3.=.%. .~ U U D M D J U U _ @.4.l.r.l.l.l.l.l.l.l.l.;.< o o   ",
"      o U f.p @ L p , 0 s n J T T ^ / / ~ ~ I m v l h f d d d d p e 6 8 ; @ @ @ % @ @ o   @ , 9 i j B E O.9.l.l.l.l.a.a.p   @   ",
"x.    o f 7.p   J g % @   % ; @ # @   @ @ % @ o @   o       @ @ @ @ @ @ ; 6 8 8 8 0 4 4 4 < @   % o   ; 8 d E r.l.l.l.a.j       ",
"x.      , ' h # b ;.^ I j i e 9 4 4 4 6 4 4 0 i s j j k l z l z b N I I _ o.=.%.=.;.O.O.o.o./ A g p q ; % @ ; m r.a.l.l.n @     ",
"x.x.  o @ f J = z l.l.l.a.6.;.%.o.O.O.O.%.%.1.r.w.r.u.l.l.a.l.l.l.l.g.l.g.l.l.l.l.l.l.l.l.l.l.l.p.p.%.' F e @ @ J u.l.l.L       ",
"x.x.    @ % ^ Y -.l.l.l.l.l.l.f.l.l.l.l.l.l.l.l.l.l.l.l.l.l.l.l.l.l.l.l.l.l.l.l.l.l.l.l.l.l.l.l.l.l.l.l.a.,.j @ p q.l.l.' @     ",
"x.x.x.    o g a.a.l.l.l.l.l.l.l.l.l.l.l.l.l.l.l.l.l.l.l.l.l.l.l.l.l.l.l.l.l.l.l.l.l.l.l.l.l.l.l.l.l.l.l.a.r.!   4 ;.l.l./       ",
"x.x.x.    o > ' l.l.l.l.l.l.l.l.l.l.l.l.l.l.l.l.l.l.l.l.l.l.l.l.l.l.l.l.l.l.l.l.l.l.l.l.l.l.l.l.l.l.l.l.;.T s   u 7.h.l.! @     ",
"x.x.x.    o o f r.l.l.l.l.l.l.l.l.l.l.l.l.l.l.l.l.l.l.l.l.l.l.l.l.l.l.l.l.l.l.l.l.l.l.l.l.l.l.l.l.l.r.U w @ @ ; I g.g.l.J       ",
"x.x.x.x.      % ' l.l.l.l.l.l.l.l.l.l.l.l.l.l.l.l.l.l.l.l.l.l.l.l.l.l.l.l.l.l.l.l.l.l.l.l.l.l.l.h.l.U ; @ * e L r.h.l.l.n @     ",
"x.x.x.x.x.      j r.l.l.l.l.l.l.l.l.l.l.l.l.l.l.l.l.l.l.l.l.l.l.l.l.l.l.l.l.l.l.l.l.l.l.l.l.l.l.l.1.q @ e _ 4.a.l.l.l.a.k @     ",
"x.x.x.x.x.    o % ] l.l.l.l.l.l.l.l.l.l.l.l.l.l.l.l.l.l.l.l.l.l.l.l.l.l.l.l.l.l.l.l.l.l.l.l.l.l.a.B # : O.a.l.l.l.l.l.r.s   o   ",
"x.x.x.x.x.x.      f 7.l.l.l.l.l.l.l.l.l.l.l.l.l.l.l.l.l.l.l.l.l.l.l.l.l.l.l.l.l.l.l.l.l.l.l.l.l.o.< o b r.a.l.l.l.l.l.4.4       ",
"x.x.x.x.x.x.    @ @ ~ l.l.l.l.l.l.l.l.l.l.l.l.l.l.l.l.l.l.l.l.l.l.l.l.l.l.l.l.l.l.l.l.l.l.l.l.q.d @ q 3.l.l.l.l.l.l.l.O.@       ",
"x.x.x.x.x.x.x.@ @   p w.l.l.l.l.l.l.l.l.l.l.l.l.l.l.l.l.l.l.l.a.l.l.l.l.l.l.l.l.l.l.l.l.l.l.a.I @ = T l.l.l.l.l.l.l.l.D       x.",
"x.x.x.x.x.x.x.@   @ % ~ l.l.l.l.l.l.l.l.l.l.l.l.l.l.l.l.l.l.7.%.q.l.l.l.l.l.l.l.l.l.l.l.l.l.@.6   j q.l.l.l.l.l.l.l.a.s       x.",
"x.x.x.x.x.x.x.x.      a 3.a.l.l.l.l.l.l.l.l.l.l.l.l.l.l.l.l.j ; s  .r.l.l.l.l.l.l.l.l.l.l.7.f   5 ;.l.l.l.l.l.l.l.l.2.,       x.",
"x.x.x.x.x.x.x.x.      @ j q.l.l.l.l.l.l.l.l.l.l.l.l.l.l.l.l.g % @ 4 m  .2.a.l.l.l.l.l.l.2.l @ : T a.l.l.l.l.l.l.l.l.E @     x.x.",
"x.x.x.x.x.x.x.x.x.  o   % G a.a.l.l.l.l.l.l.l.l.l.l.l.l.l.l.,.D 4 %   , e B o.6.a.l.7.W p ; % b r.l.l.l.l.l.l.l.l.l.j   @     x.",
"x.x.x.x.x.x.x.x.x.x.    o ; ! l.l.l.l.l.l.l.l.l.l.l.l.l.l.l.r.l.o.k 6 @ #   ; p n B d @ * ; c 7.f.h.l.l.l.l.g.l.a.2.,       x.x.",
"x.x.x.x.x.x.x.x.x.x.      o 6 %.a.l.l.l.l.l.l.l.l.l.l.l.l.l.l.l.l.l.=.! j < @ @   % @ @ s ~ r.a.l.l.l.l.l.l.l.l.l.J @       x.x.",
"x.x.x.x.x.x.x.x.x.x.x.  o o   u =.l.l.l.l.l.l.l.l.l.l.l.l.l.l.l.l.l.l.a.r.=.U f q 0 i J 7.a.l.l.l.l.l.l.l.l.l.l.7.u @     x.x.x.",
"x.x.x.x.x.x.x.x.x.x.x.x.    o   0 _ l.g.l.l.l.l.l.l.l.l.l.l.l.l.l.l.l.l.l.l.g.l.a.r.l.a.l.l.l.l.l.l.l.l.l.l.l.a.B @ @     x.x.x.",
"x.x.x.x.x.x.x.x.x.x.x.x.x.        , n %.l.l.l.l.l.l.l.l.l.l.l.l.l.l.l.l.l.l.l.l.l.l.l.l.l.l.l.l.l.l.l.l.l.l.l.I ; @     x.x.x.x.",
"x.x.x.x.x.x.x.x.x.x.x.x.x.x.      @ @ 6 U q.a.a.l.l.l.l.l.l.l.l.l.l.l.l.l.l.l.g.l.l.l.l.l.l.l.l.l.l.l.l.l.a.! <       x.x.x.x.x.",
"x.x.x.x.x.x.x.x.x.x.x.x.x.x.x.o         @ u ] q.l.l.l.l.l.l.l.l.l.l.l.l.l.l.l.l.l.l.l.l.l.l.l.l.l.l.l.l.l.' < %       x.x.x.x.x.",
"x.x.x.x.x.x.x.x.x.x.x.x.x.x.x.x.            ; d A } 7.a.y.g.l.l.l.l.l.l.l.l.l.l.l.l.l.l.l.l.l.l.l.l.g.a.+.6 %       x.x.x.x.x.x.",
"x.x.x.x.x.x.x.x.x.x.x.x.x.x.x.x.x.x.  @   @   @   @ < p B o.q.l.l.l.l.l.l.l.l.l.l.l.l.l.l.l.l.l.a.a.,.D 4 @       x.x.x.x.x.x.x.",
"x.x.x.x.x.x.x.x.x.x.x.x.x.x.x.x.x.x.x.x.    @       @   @ , w k A _ O.4.y.a.l.g.l.a.h.h.l.r.=.T M s ,   @ o     x.x.x.x.x.x.x.x.",
"x.x.x.x.x.x.x.x.x.x.x.x.x.x.x.x.x.x.x.x.x.x.                  @   % % ; 6 p h b D B m m v d = @ o   @ o       x.x.x.x.x.x.x.x.x.",
"x.x.x.x.x.x.x.x.x.x.x.x.x.x.x.x.x.x.x.x.x.x.x.x.                  @             o o o       o o o           x.x.x.x.x.x.x.x.x.x.",
"x.x.x.x.x.x.x.x.x.x.x.x.x.x.x.x.x.x.x.x.x.x.x.x.x.x.x.x.              @   @       o       o   o         x.x.x.x.x.x.x.x.x.x.x.x."
};
