/* XPM */
static char *frame_27_delay_0_05s1763316731[] = {
/* columns rows colors chars-per-pixel */
"64 64 207 2 ",
"   c black",
".  c #010101",
"X  c #020202",
"o  c gray1",
"O  c #040404",
"+  c gray2",
"@  c #040406",
"#  c #060606",
"$  c #070707",
"%  c gray3",
"&  c #090909",
"*  c gray4",
"=  c #0B0B0B",
"-  c #0C0C0C",
";  c gray5",
":  c #0E0E0E",
">  c gray6",
",  c #101010",
"<  c #111111",
"1  c gray7",
"2  c #131313",
"3  c gray8",
"4  c #151515",
"5  c #161616",
"6  c gray9",
"7  c #181818",
"8  c #191919",
"9  c gray10",
"0  c gray11",
"q  c #1D1D1D",
"w  c #1E1E1E",
"e  c gray12",
"r  c #202020",
"t  c #222222",
"y  c #232323",
"u  c gray14",
"i  c gray15",
"p  c #272727",
"a  c #282828",
"s  c #2A2A2A",
"d  c #2C2C2C",
"f  c #2D2D2D",
"g  c #2F2F2F",
"h  c gray19",
"j  c #313131",
"k  c #323232",
"l  c #323136",
"z  c gray22",
"x  c #3A3A3A",
"c  c #3D3C41",
"v  c gray28",
"b  c #494949",
"n  c #4A494E",
"m  c #4F4F50",
"M  c gray33",
"N  c #54535B",
"B  c gray35",
"V  c #5C5C5E",
"C  c #606060",
"Z  c #626166",
"A  c gray40",
"S  c #68676B",
"D  c gray42",
"F  c gray43",
"G  c #707072",
"H  c gray45",
"J  c #747378",
"K  c #787779",
"L  c gray48",
"P  c #7B7B7B",
"I  c #7A7A7C",
"U  c #7C7C7C",
"Y  c gray49",
"T  c gray50",
"R  c #808083",
"E  c #838384",
"W  c #868686",
"Q  c gray53",
"!  c #848388",
"~  c #888888",
"^  c #898989",
"/  c gray54",
"(  c #8B8B8B",
")  c #89888D",
"_  c gray55",
"`  c #8D8D8D",
"'  c #8E8E8E",
"]  c gray57",
"[  c #939393",
"{  c gray58",
"}  c #959595",
"|  c #979699",
" . c #9A9A9A",
".. c #9A999E",
"X. c gray61",
"o. c gray62",
"O. c #9D9CA1",
"+. c #A0A0A0",
"@. c gray63",
"#. c #A1A0A3",
"$. c #A2A2A2",
"%. c #A4A4A6",
"&. c #A7A6A7",
"*. c #A7A7AA",
"=. c #A9A9A9",
"-. c #AAAAAA",
";. c gray67",
":. c #ABAAAE",
">. c #ACACAC",
",. c #AEAEAE",
"<. c #ADADB0",
"1. c #B0AFB3",
"2. c gray69",
"3. c #B2B2B2",
"4. c gray70",
"5. c #B4B4B4",
"6. c gray71",
"7. c #B6B6B7",
"8. c #B8B7BA",
"9. c gray73",
"0. c #BBBBBD",
"q. c gray74",
"w. c gray75",
"e. c #BDBCC0",
"r. c #C0BFC2",
"t. c #C1C1C1",
"y. c #C1C1C3",
"u. c #C3C3C3",
"i. c #C3C2C5",
"p. c #C5C5C5",
"a. c #C6C6C6",
"s. c gray78",
"d. c #C8C7CA",
"f. c gray79",
"g. c #CACACA",
"h. c #CAC9CC",
"j. c #CDCDCE",
"k. c #D1D0D1",
"l. c #D2D2D2",
"z. c LightGray",
"x. c #D3D3D5",
"c. c gray83",
"v. c #D5D5D5",
"b. c #D6D5D7",
"n. c #D7D6D9",
"m. c #D8D8D8",
"M. c #D9D8DB",
"N. c #DADADB",
"B. c #DCDBDC",
"V. c #DDDDDD",
"C. c #DFDFDF",
"Z. c #DEDEE0",
"A. c #E1E0E1",
"S. c #E1E1E1",
"D. c #E1E1E3",
"F. c #E2E2E2",
"G. c gray89",
"H. c #E4E4E4",
"J. c #E4E4E6",
"K. c #E6E5E6",
"L. c #E7E7E7",
"P. c #E6E5E9",
"I. c #E7E7E9",
"U. c gray91",
"Y. c #E9E9E9",
"T. c #E8E8EA",
"R. c #EAEAEA",
"E. c #EBEAED",
"W. c #ECEBEE",
"Q. c #ECECEC",
"!. c gray93",
"~. c #EEEEEE",
"^. c #EFEEEF",
"/. c #EFEFEF",
"(. c #EDECF0",
"). c #F0EFF2",
"_. c gray94",
"`. c #F1F1F1",
"'. c #F1F1F3",
"]. c #F3F3F3",
"[. c #F4F3F4",
"{. c #F4F4F4",
"}. c #F5F4F5",
"|. c gray96",
" X c #F6F6F6",
".X c #F7F6F7",
"XX c gray97",
"oX c #F6F5F8",
"OX c #F8F7FA",
"+X c #F8F8F8",
"@X c #F9F8F9",
"#X c #F9F9F9",
"$X c #FAF9FA",
"%X c gray98",
"&X c #FBFAFB",
"*X c #FBFBFB",
"=X c #F9F8FC",
"-X c #FAFAFE",
";X c #FCFBFC",
":X c #FCFBFF",
">X c gray99",
",X c #FDFCFD",
"<X c #FDFDFD",
"1X c #FEFDFF",
"2X c #FEFEFE",
"3X c white",
"4X c None",
/* pixels */
"4X4X4X4X4X4X4X4X4X4X4X4X4X4X4X4X4X4X4X4X                                      4X  4X4X4X4X4X4X4X4X4X4X4X4X4X4X4X4X4X4X4X4X4X4X4X",
"4X4X4X4X4X4X4X4X4X4X4X4X4X4X4X4X                                                    4X4X4X4X4X4X4X4X4X4X4X4X4X4X4X4X4X4X4X4X4X4X",
"4X4X4X4X4X4X4X4X4X4X4X4X4X4X                      $ & $   $   $                           4X4X4X4X4X4X4X4X4X4X4X4X4X4X4X4X4X4X4X",
"4X4X4X4X4X4X4X4X4X4X4X                          & 5 d j v v v j 8 ; $ $                     4X4X4X4X4X4X4X4X4X4X4X4X4X4X4X4X4X4X",
"4X4X4X4X4X4X4X4X4X4X          & $ & 1 B ] $.>.9.C.L. X~. X X&X`.~.F.z.-.` H M s > O               4X4X4X4X4X4X4X4X4X4X4X4X4X4X4X",
"4X4X4X4X4X4X4X4X      &     $ f V H h.]. X XB.q.$.%.>.9.d.B.`. X;X X&X3X&X3X X].n.U y o $         4X4X4X4X4X4X4X4X4X4X4X4X4X4X4X",
"4X4X4X4X4X4X4X          ; x U X.X.$.z.5.D d ; $ $ X $ & % ; y j c B ^  .} >.m.]. X XY.{ e           4X4X4X4X4X4X4X4X4X4X4X4X4X4X",
"4X4X4X4X4X4X        $ j U $.$.X. .S f & $ $ O & o $ o & $ $   $ o $ $ O O O 1 p n n x Z H 1 O         4X4X4X4X4X4X4X4X4X4X4X4X4X",
"4X4X4X4X        $ ; m X.X.+.] A e & $ $ d C _ t.m.N.b.h.2.[ G V M x 4 4 3 - $   & # & # $   $           4X4X4X4X4X4X4X4X4X4X4X4X",
"4X4X4X4X    $   ; Z X.$. .M 8 o $ $ c $.F.3X*X X*X3X3X3X3X3X&X`.'.`.K.F.K.z.{ A M M B x 0 &       $       4X4X4X4X4X4X4X4X4X4X4X",
"4X4X4X    o   f U X.%.Z e $ o $ f I K. X3X3X&X3X3X*X3X*X3X&X3X3X3X*X3X&X*X*X&X&X~. X X/.m.a.X.G f ;         4X4X4X4X4X4X4X4X4X4X",
"4X4X      o c X. . .B & & $ v ^ %.%.a.`.3X&X&X&X*X3X3X&X3X3X3X3X3X3X3X3X3X*X3X3X X8.F f y M E 2.m.h.j $       4X4X4X4X4X4X4X4X4X",
"4X      $ j | X.{ c &   s H X.X. .%.+.a.c.-.L L ^ 7.~.*X3X3X3X*X&X3X3X3X*X*X&XK.A &   O $ X $ = f ` 7.3     $ 4X4X4X4X4X4X4X4X4X",
"4X      a ] X. .c $ ; c _ %.X.X.%.X.B d 9 ; $ $ & ; v s. X3X&X3X&X3X*X3X3X3X2.j & $ y B L m 0 $ $ & H ^ $ o     4X4X4X4X4X4X4X4X",
"    $ $ F %.X.} & $ v | +.X.X.%.U s & $   = r g 0 & $ 8 W  X3X&X3X*X3X*X*XX.4 $ 1 D C.XX3X3XF.-.c & ; ] v         4X4X4X4X4X4X4X",
"      u | %.$.$.A C | +.X.X.X.L 8 $ ; c E q.C.U.C. .e $ # H &X3X3X&X3X3XW.e # h -.~.3X&X&X&XOX`.C.x $ y -.1       4X4X4X4X4X4X4X",
"  o $ M $.$.$.X.+.+.$.$.$.$.W 3 ; 9 X.Y.~.b.7.a. X`.b.m O & 7.3X;X*X*X3X0.$ 5 a.3X&X&X3Xj.F v M F.h.4 X 0.L $ & X   4X4X4X4X4X4X",
"  $ & ` $.$.$.$.+.+.+.$.+.$.x o 1 9. X`.Y 8 & 8 -.&X3XC.c $ n OX3X3X3X3X+.= y `.3X3X*X%.p O O $ V K.d   =.H.d o X X   4X4X4X4X4X",
"    e | $.$.$.X.$.$.+.$.$.} 3 o { 3X&X` $ o o   x  X;X&X$.$ y `.;X3X3X3X-.# e L.&X3XoXg $ O = $ L z.1 X $.*X;.& o     4X4X4X4X4X",
"$   u X.$.$.$.$.+.+.$.$.$.{ 3 & q.*X*Xm     $   x  X;X3XT $ y `.*X3X*X3Xk.1 X | *X3X XA $ O 3 S C.P o > %.&X XB $   o   4X4X4X4X",
"    a %.$.$.$.$.$.+.$.+.%. .9 o D &X3X2.e $ $ y <.*Xz.L 2   B 3X;X3X;X3X&Xv   > L 9.F.c.V D 7.`.>.5 X M } h.&Xb.g $     4X4X4X4X",
"    s %.X.$.$.$.+.$.$.$.&.+.b o 1 X.`.`.a.| } -.$.H p ; o $ 4.3X;X3X3X3X&Xh.s   O , u V X.X.H m < $ 7 E 1 z  X*XX.        4X4X4X",
"  $ d $.$.$.$.+.+.$.$.$.+.F l < $ ; M A b g s r & o   $ O V  X3X3X3X3X3X3X&X%.;   $ O & o $ $ o   4 E M & y &X3X`.u o X   4X4X4X",
"o   d %.$.X.+.$.$.$.+.+.X.r # x e $   $   $   $ = = $   4 h.3X3X*X3X;X3X3X3X+XS O $ , e $ $ 1 s b { %.8 $ H &X3X*XH         4X4X",
"    d  .$.+.$.$.$.$.$.+.$.v $ 5 c j 7 0 y g c n m u % & I '.3X;X3X3X3X&X3X;X3XF.c O & v D D { %.X.5.*.j v Y.3X3X3X7.& $     4X4X",
"o o 8 X.X.X.$.X.+.$.+.$.+.{ r X & H H H D D V c 1 $ O V i. X;X3X3X&X3X&X3X&X3X3Xb.z $ % 0 f v x y L :.2.G.&X3X3X3X/.u       4X4X",
"  o ; ` +.+.+.$.$.+.$.$.+.$.Y z x L T G 8 2 =   & ; M 0.Y.3X3X3X3X3X3X3X3X3X3X3X3Xm.B & % $     o N 9.T.3X3X;X3X3X3XS & $     4X",
"o   $ ^ $.X.$.$.+.$.+.$.$.$.%.X.} ^ E D & o O 1 s K 4.I.3X*X3X3X*X3X*X3X*X3X*X3X3X3X~...M f p z V 0.~.&X3X3X3X3X3X*Xr.o       4X",
"  $   U $.+.X.$.$.+.$.+.$.$.$.$.X.O.| ^ C m C U %.d.T.;X;X;X3X3X3X3X3X3X&X3X3X*X3X&X3X3XZ.j.z.F.+X3X3X3X3X3X3X3X3X3X~.4 $ $   4X",
"  o   D $.$.$.$.$.$.+.$.$.+.$.$.+.X.$.$. .} 9.m.(.&X3X3X3X3X3X3X3X3X3X3X3X3X3X3X3X3X3X3X&X3X3X3X3X3X3X3X3X3X3X3X3X3XoXn       4X",
"$ $ o b $.$.$.O.+.+.%.X.X.&.;.-.&.-.2.u.m.Q.3X3X3X3X3X3X3X3X&X&X&X3X&X3X3X3X3X3X*X3X3X3X3X&X3X3X3X3X3X3X3X3X3X3X3X3X3XK       4X",
"    o f $.$.$.$.$.$.+.n z k.~.Q.Y.Y.`. X3X3X3X3X3X3X3X3X3X3X3X3X3X3X3X3X3X3X3X3X3X3X3X3X3X3X3X3X3X3X3X3X3X3X3X3X3X3X3X>.$ $     ",
"      ; } $.$.$.$.$.E = $ 9.3X*X3X*X3X3X3X3X3X3X3X3X3X3X&X&X3X3X;X3X3X3X3X3X3X3X3X3X*X3X3X3X3X3X&X3X3X3X3X3X3X3X3X*X*XF.3 # X   ",
"        C X.$.$.$.$.x & e Y.3X3X3X3X3X3X3X3X3X3X;X3X3X3X3X3X3X3X3X3X3X3X3X3X3X3X3X3X3X3X3X3X3X3X3X3X3X3X3X3X&X3X3X3X3X).z   O   ",
"4X    $ l X.$.X.$.S $ $ ~  X&X*X&X3X3X3X&X&X&X XoX X+X).F.m.Z.M.C.b.x.x.x.b.n.n.b.n.M.M.n.F.I.&X&X3X;X3X&X;X3X3X3X3X3X&XM $     ",
"4X      ; L $.$.+.y ; x E.3X&X3X*X*X3X3X~.m.-.^ Z M v x f p u u u e 8 e 9 8 e e e e e e e s z B ..M.oX&X3X;X3X3X3X3X&X3XH X     ",
"4X        z X.%.L $ & >.*X&X&X3XK.h.` V x r $ $ $   o ; $ $ $ o $ & & & & $ $ $ $ o $ O $ o $   O y C 9.(.&X3X;X*X3X3X3X{   X   ",
"4X4X      $ U %.V X y `.&XK.2.Z j 1   $   $ 1 s c M A G Q } |  .O.>.<.<.2.4.<.<.:.-.%.%.%.} H b 3 $ o > m d.=X;X3X*X3X3X8.O     ",
"4X4X    $   z X.C o p  X9.x ; O $ o r c A ] h.F.`.3X&X;X;X3X3X3X3X3X3X3X3X3X3X3X3X3X3X3X3X3X3X`.t.I f = $ e *.3X3X3X3X&X7.      ",
"4X4X4X      & U V   u  Xv O % s D X.z. X X&XXX3X3X3X3X3X;X3X3X3X3X3X3X3X3X3X3X3X3X3X3X3X3X3X3X3X&X&XF.] e o 4 h.3X&X3X3X>.$     ",
"4X4X4X      $ j C $ 4  XK l $.Y. X3X*X3X3X3X*X3X3X3X3X3X3X3X3X3X3X3X3X3X3X3X3X3X3X3X3X3X3X3X3X3X3X3X3X3Xj.e & Z 3X&X*X3X{ o     ",
"4X4X4X4X      ; M & & t.&XE.+X3X3X3X3X3X3X3X3X3X3X3X3X3X3X3X3X3X3X3X3X3X3X3X3X3X3X3X3X3X3X3X3X3X3X3X&X3X(.M $ V ;X3X3X3XH       ",
"4X4X4X4X      $ j e & M  X&X&X3X3X3X3X3X3X3X3X3X3X3X3X3X3X3X3X3X3X3X3X3X3X3X3X3X3X3X3X3X3X3X3XOXC.s.a.5.M & o O.&X&X3X&XB $     ",
"4X4X4X4X4X      = M & ; X.3X&X3X3X3X*X3X3X3X3X3X3X3X3X3X3X3X3X3X3X3X3X3X3X3X3X3X3X3X3X3X3X3X&X*.f ; ; & $ & Z  X3X3X&X&Xx $     ",
"4X4X4X4X4X      $ j z & 4 t.3X3X3X3X3X3X3X3X3X3X3X3X3X3X3X3X3X3X3X3X3X3X3X3X3X3X3X&X3X3X3X3Xi.3 $ , , 7 j ( I.3X3X3X3XK.e       ",
"4X4X4X4X4X4X      $ G 8 o z ~.3X3X3X3X3X3X3X3X3X3X3XOXOXOX=X3X3X3X3X3X3X3X3X3X3X3X3X3X3X3X3XM O y >.8.i.T.oX3X3X3X3X&Xh.O $     ",
"4X4X4X4X4X4X  $ $   x X.u c ~.3X3X3X3X3X3X3X3X~.B.h.5.>.1.w.e.C.;X3X3X3X3X3X3X3X3X3X3X3XoXt.& & *.&X3X3X3X3X3X3X3X3X3X`   $   4X",
"4X4X4X4X4X4X4X$     $  .C.U.3X3X3X3X3X3X{.{.h.%.+.#.#...X.X.X.-.`.3X3X3X&X3X3X3X3X3X3X3XoXm $ c (.;X3X3X3X*X3X*X3X3X Xc       4X",
"4X4X4X4X4X4X4X        s a. X3X3X&X3X&XC.q.=.$.X.$.X.%.X.#.+.#.#.x.&X3X3X*X3X3X3X3X3X&X X9.; $ *.3X;X3X;X3X3X*X3X3X3XI.1 o     4X",
"4X4X4X4X4X4X4X4X    o & l 2.n.Y.K.b.7.$.X.X.+.+.$.X.+.%.X.#.m f Q ~.3X3X3X*X3X3X3X3XoXj.d $ v  X;X3X3X;X3X3X3X*X*X3X%.O       4X",
"4X4X4X4X4X4X4X4X4X    $ & M X.%.$.$.$.X.+.+.$.+.$.#.X.%.%.X.7 % & c J 2.C.~.oX&X~.F.^ e   1 i.*X3X3X;X3X&X3X3X&X3X*XM $       4X",
"4X4X4X4X4X4X4X4X4X        1 F %.$.$.X.X.+.+.+.$.+.+.O.+.O.%.S 4 o o $ O ; x Z C v 7 $ $ r -.&X3X&X3X;X3X3X3X*X3X&XI.1 $     4X4X",
"4X4X4X4X4X4X4X4X4X4X    o $ < E X.$.$.$.+.$.+.$.%.+.#.#.#.#.+._ b u 8 & O   $ $   o 2 v d.&X3X3X;X3X;X3X3X*X3X*X3X] $       4X4X",
"4X4X4X4X4X4X4X4X4X4X4X    o o 8 ` $.X.$.$.+.$.$.+.$.#.#.#.#.#.#.-.O.( K N s u y m R i.'.*X X&X&X3X3X*X3X3X3X3X3XY.x       4X4X4X",
"4X4X4X4X4X4X4X4X4X4X4X4X      o 4 H O.| X.X.+.+.+.+.#.#.#.#.#.#.#.#.%.O.%.%.%.).oX*X3X&X3X3X3X3X3X3X3X3X3X3X&X&XU $ $     4X4X4X",
"4X4X4X4X4X4X4X4X4X4X4X4X4X      $ ; v _ X.X.+.+.+.$.#.#.#.#.#.#.#.#.#.$.X.O.h.3X3X3X3X*X*X3X3X3X3X&X3X3X3X3X*XX.;   o   4X4X4X4X",
"4X4X4X4X4X4X4X4X4X4X4X4X4X4X      $   4 C  . .%.%.X.#.#.#.#.#.#.#.#.#.#.#.%.W.;X3X&X3X;X3X3X*X3X3X3X3X3X3X3X*.4 o       4X4X4X4X",
"4X4X4X4X4X4X4X4X4X4X4X4X4X4X4X      $   o r U X.+.O.#.#.#.#.#.#.#.#.#.#.#.j.3X3X3X*X*X3X3X3X3X3X3X3X3X3X3Xr.1 o       4X4X4X4X4X",
"4X4X4X4X4X4X4X4X4X4X4X4X4X4X4X4X        o O % f m U { +.$.#.%.+.#.#.#.#.>. X;X3X3X3X3X3X*X3X*X3X3X3X3X&Xs.y         4X4X4X4X4X4X",
"4X4X4X4X4X4X4X4X4X4X4X4X4X4X4X4X4X4X  $   o o     $ ; e m ! O.+.#.#.#.:.(.;X3X3X3X*X3X3X3X3X3X3X&X XF.` 8 O o     4X4X4X4X4X4X4X",
"4X4X4X4X4X4X4X4X4X4X4X4X4X4X4X4X4X4X4X4X  $             $ o e z B H ) z.(. X&X X3XOX3X*X3X`.b.$.U c , $   o     4X4X4X4X4X4X4X4X",
"4X4X4X4X4X4X4X4X4X4X4X4X4X4X4X4X4X4X4X4X4X              o     $ O O $ ; e z N I ^ L H H D v ; o $       o     4X4X4X4X4X4X4X4X4X",
"4X4X4X4X4X4X4X4X4X4X4X4X4X4X4X4X4X4X4X4X4X4X4X4X                o $ o             o         $   $           4X4X4X4X4X4X4X4X4X4X",
"4X4X4X4X4X4X4X4X4X4X4X4X4X4X4X4X4X4X4X4X4X4X4X4X4X4X4X4X              O   $   o   $       $             4X4X4X4X4X4X4X4X4X4X4X4X"
};
