/* XPM */
static char *frame_16_delay_0_05s1763316729[] = {
/* columns rows colors chars-per-pixel */
"64 64 163 2 ",
"   c black",
".  c #010101",
"X  c #020202",
"o  c gray1",
"O  c #040404",
"+  c gray2",
"@  c #060606",
"#  c #070707",
"$  c gray3",
"%  c #090909",
"&  c gray4",
"*  c #0C0C0C",
"=  c gray5",
"-  c #0E0E0E",
";  c gray6",
":  c #101010",
">  c #111111",
",  c gray7",
"<  c #131313",
"1  c gray8",
"2  c #151515",
"3  c #161616",
"4  c gray9",
"5  c #191919",
"6  c gray10",
"7  c gray11",
"8  c #1D1D1D",
"9  c #1E1E1E",
"0  c #202020",
"q  c #232323",
"w  c gray14",
"e  c gray15",
"r  c #272727",
"t  c #282828",
"y  c #2A2A2A",
"u  c #2C2C2C",
"i  c #2D2D2D",
"p  c #2F2F2F",
"a  c gray19",
"s  c #313131",
"d  c #323232",
"f  c #323136",
"g  c gray22",
"h  c #3A3A3A",
"j  c #3D3C41",
"k  c gray28",
"l  c #494949",
"z  c #4A494E",
"x  c #4F4F50",
"c  c gray33",
"v  c gray35",
"b  c #5C5C5E",
"n  c #606060",
"m  c #626166",
"M  c gray40",
"N  c #68676B",
"B  c gray42",
"V  c gray43",
"C  c #707072",
"Z  c gray45",
"A  c #787779",
"S  c gray48",
"D  c #7B7B7B",
"F  c #7C7C7C",
"G  c gray49",
"H  c #7E7E7E",
"J  c gray50",
"K  c #808083",
"L  c #838384",
"P  c #868686",
"I  c gray53",
"U  c #888888",
"Y  c #898989",
"T  c #8B8B8B",
"R  c gray55",
"E  c #8D8D8D",
"W  c #8E8E8E",
"Q  c gray57",
"!  c gray58",
"~  c #959595",
"^  c #979699",
"/  c #9A9A9A",
"(  c gray61",
")  c gray62",
"_  c #A0A0A0",
"`  c #A2A2A2",
"'  c #A4A4A6",
"]  c #A7A6A7",
"[  c #A9A9A9",
"{  c gray67",
"}  c #ACACAC",
"|  c #AEAEAE",
" . c gray69",
".. c #B2B2B2",
"X. c gray70",
"o. c #B4B4B4",
"O. c gray71",
"+. c #B6B6B7",
"@. c #B8B7BA",
"#. c gray73",
"$. c #BCBCBC",
"%. c gray74",
"&. c gray",
"*. c gray75",
"=. c #C0C0C0",
"-. c #C1C1C1",
";. c #C3C3C3",
":. c #C5C5C5",
">. c #C6C6C6",
",. c gray78",
"<. c #C8C8C8",
"1. c gray79",
"2. c #CACACA",
"3. c gray80",
"4. c #CDCDCE",
"5. c gray81",
"6. c #D1D0D1",
"7. c #D2D2D2",
"8. c LightGray",
"9. c gray83",
"0. c #D5D5D5",
"q. c #D6D5D7",
"w. c #D8D8D8",
"e. c #DADADB",
"r. c #DCDBDC",
"t. c #DDDDDD",
"y. c #DFDFDF",
"u. c #E1E0E1",
"i. c #E1E1E1",
"p. c #E2E2E2",
"a. c gray89",
"s. c #E4E4E4",
"d. c #E6E5E6",
"f. c #E7E7E7",
"g. c gray91",
"h. c #E9E9E9",
"j. c #EAEAEA",
"k. c gray92",
"l. c #ECECEC",
"z. c gray93",
"x. c #EEEEEE",
"c. c #EFEFEF",
"v. c gray94",
"b. c #F1F1F1",
"n. c gray95",
"m. c #F4F3F4",
"M. c gray96",
"N. c #F6F6F6",
"B. c #F7F6F7",
"V. c gray97",
"C. c #F8F8F8",
"Z. c #F9F8F9",
"A. c #FAF9FA",
"S. c gray98",
"D. c #FBFAFB",
"F. c #FBFBFB",
"G. c #FCFBFC",
"H. c gray99",
"J. c #FDFCFD",
"K. c #FDFDFD",
"L. c #FEFEFE",
"P. c white",
"I. c None",
/* pixels */
"I.I.I.I.I.I.I.I.I.I.I.I.I.I.I.I.I.I.I.I.      I.                      I.  I.  I.I.I.I.I.I.I.I.I.I.I.I.I.I.I.I.I.I.I.I.I.I.I.I.I.",
"I.I.I.I.I.I.I.I.I.I.I.I.I.I.I.I.                                                    I.I.I.I.I.I.I.I.I.I.I.I.I.I.I.I.I.I.I.I.I.I.",
"I.I.I.I.I.I.I.I.I.I.I.I.I.I.                            o   O + O                         I.I.I.I.I.I.I.I.I.I.I.I.I.I.I.I.I.I.I.",
"I.I.I.I.I.I.I.I.I.I.I.I.                            9 9 h z k y 2 & O                       I.I.I.I.I.I.I.I.I.I.I.I.I.I.I.I.I.I.",
"I.I.I.I.I.I.I.I.I.I.  O         O & 4 n S u     O O , 2 0 x D  .p.w.6.| Y V c u & &             I.I.I.I.I.I.I.I.I.I.I.I.I.I.I.I.",
"I.I.I.I.I.I.I.I.I.          & x R  .2.b ; #       O & O O + O & 0 z S _ e.n.A.b.6.H q   o o       I.I.I.I.I.I.I.I.I.I.I.I.I.I.I.",
"I.I.I.I.I.I.I.        # * b >.N.K.>.y O O 9 b H Q / Q Q S j 9 + O O @ O 5 h S { 0.a.p.R 0   o       I.I.I.I.I.I.I.I.I.I.I.I.I.I.",
"I.I.I.I.I.I.        O k *.m.G.G.&.q O > D e.m.A.A.K.A.K.A.j.p.| C k 0 & O + O o - 4 d v l o   o       I.I.I.I.I.I.I.I.I.I.I.I.I.",
"I.I.I.I.I.  o @ O & F b.H.A.S./ >   2 O.N.K.K.K.K.K.K.K.K.K.K.K.K.b.z.0.Y v y -   o O     o O   +       I.I.I.I.I.I.I.I.I.I.I.I.",
"I.I.I.I.  +   @ 5 _ C.K.A.z.V , & u 3.G.K.A.A.K.K.K.K.K.K.K.K.K.K.A.V.K.S.A.f.2.^ d           , 2 O       I.I.I.I.I.I.I.I.I.I.I.",
"I.I.I.    o + x 3.N.H.A.e.k & & j 0.K.6.Y m c v n H >.K.K.K.K.K.K.K.K.K.K.K.s.Y d - & & +     ; k 9 O       I.I.I.I.I.I.I.I.I.I.",
"I.I.    o   m j.N.A.G.9.k   - M s.p.C 9 & O # O O O 2 I A.K.K.K.K.K.K.G.A.6.d & & & 6 y u 8 @ + O 2           I.I.I.I.I.I.I.I.I.",
"I.I.    @ v v.K.A.C.;.h % 7 ( j.{ y   O > w h f y > O & ~ K.K.K.K.K.G.A.2.y O O h ` &. . .>.{ z O O           I.I.I.I.I.I.I.I.I.",
"I.      d j.H.m.i.H 5 % > ` 4.j - O   0 M _ y.j.j.-.h & w s.K.K.K.K.K.z.h o > ) ] f 5 2 > d 2.b.R & O           I.I.I.I.I.I.I.I.",
"    + & +.S.j./ u % @ q X.Q 6 @ O & O O - - S A.K.K.&.O * >.K.H.K.K.K.Q & & { 4.5 O   O     l j.C.J O O 5   o     I.I.I.I.I.I.I.",
"    o g n.s.h > & , n w.&.1 O 6 j O O   O   h N.K.K.z.w O ^ G.K.K.K.A.h O b A.^ o O o o   o h N.A.s.7 + B ;       I.I.I.I.I.I.I.",
"  O O Y K.t.; ; v -.b.A.M O h e.b & o   o O S A.K.K.z.9   ] K.K.K.K.b.t & ) A.&.: - $ & O y O.G.H.N.h + H A & O     I.I.I.I.I.I.",
"o o - 5.K.K.&.-.z.A.A.z.u o / K.~ o O   - n j.S.K.K.{ O & ;.K.K.K.K.b.t o ~ A.A.O.H S R ] e.N.K.K.C.h + H j.d   O   I.I.I.I.I.I.",
"  o w j.K.K.K.K.K.K.K.s.5 @ $.A.n.R j x  .j.A.A.S.6.q & j m.K.K.K.K.S.x @ t _ j.K.G.K.N.K.N.b.p.X.B & O _ G. .- O     I.I.I.I.I.",
"O o d A.K.K.K.K.K.K.K.b.d O h  .p.b.j.z.S.S.A.K.O.u O , #.A.K.K.K.K.K.#.; o @ h Y ] ^ Q C x d 0 > O   k v.C.N.b O O     I.I.I.I.",
"    j K.K.K.K.K.K.K.K.K.| - O & w b ! { &.-. .b -   > R G.K.K.K.K.K.K.K. .g O o & & O   O & O   * w b t.K.K.K.p.h   O     I.I.I.",
"    j K.K.K.K.K.K.K.K.K.N.] h & O & @ * 2 , * o & y { A.K.G.K.K.K.K.K.K.A.j.] l 2 4 2 9 u j v H O.w.A.K.K.K.K.K._ &       I.I.I.",
"    j K.K.K.K.K.K.K.K.K.K.K.j.#.L j w 7 @ % - y Z y.K.K.K.K.K.K.K.K.K.K.K.K.K.b.e.e.r.t.j.N.K.K.K.K.K.K.K.K.K.K.b.t O     I.I.I.",
"O O j K.K.K.K.K.K.K.K.K.K.K.K.K.S.j.e.6.&.&.<.s.A.K.K.K.K.K.K.K.K.K.K.K.K.K.K.N.H.K.K.K.K.K.K.K.K.K.K.K.K.K.K.K.K.V         I.I.",
"  O h A.K.K.K.K.K.K.K.K.K.K.K.K.K.K.K.K.K.K.K.K.K.K.K.K.K.K.K.K.K.K.K.K.K.K.K.K.K.K.K.K.K.K.K.K.K.K.K.K.K.K.K.K.K.@.&     I.I.I.",
"O   u z.K.K.K.K.K.K.K.K.K.K.K.K.K.K.K.K.K.K.K.K.K.K.K.K.K.K.K.K.K.K.K.K.K.K.K.K.K.K.K.K.K.K.K.K.K.K.K.K.K.K.K.K.A.b.w O     I.I.",
"  o > e.K.K.K.K.K.K.K.K.K.K.K.K.K.K.K.K.K.K.K.K.K.K.K.K.K.K.K.K.K.K.K.K.K.K.K.K.K.K.K.K.K.K.K.K.K.K.K.K.K.K.K.K.K.K.N   O     I.",
"o   O 2.K.K.K.b.s.K.K.K.K.K.K.K.K.K.K.K.K.K.K.K.K.K.K.K.K.K.K.K.K.K.K.K.K.K.K.K.K.K.K.K.K.K.K.K.K.K.K.K.K.K.K.K.K.K.-.& O   I.I.",
"  O   &.K.K.N.n h p.K.K.K.K.K.K.K.K.K.K.K.K.K.K.K.K.K.K.K.K.K.K.K.K.K.K.K.K.K.K.K.K.K.K.K.K.K.K.K.K.K.K.K.K.K.K.K.K.v.0   O   I.",
"O O   ] K.K._ & - >.N.K.K.K.K.K.K.K.K.K.K.K.K.K.K.K.K.K.K.K.K.K.K.K.K.K.K.K.K.K.K.K.K.K.K.K.K.K.K.K.K.K.K.K.K.K.K.K.V.k O     I.",
"O   O Z K.A.n   k k n ) 6.A.K.K.K.K.K.N.K.K.K.K.K.K.K.K.K.K.K.K.K.K.H.H.K.K.A.K.N.p.2.4.-.-.&.&.>.6.s.K.K.A.K.K.K.K.K.S O     I.",
"O   O k K.K.| k ) > & O 9 N &.0.e.e.t.w.6.-.-.&.2.6.0.t.s.s.s.s.p.0.#.} Q I C v l u 2 2 & > & - > 5 d v ^ O.N.K.K.K.K.{       O ",
"o     5 s.K.A.A.N.S u > & & 2 9 y y u 9 2 > - & 4 0 w w d d d d y 2 > * O O O O o & O - & - - O - & O & O & c -.K.K.K.t.2 o   I.",
"        ) K.K.K.K.N.p.-.M 9 & O         O & > > & o O o   O O o   O > 5 0 y u j c Z ` | &.&.&.O. .) m y > O   5 I N.S.A.h   O   ",
"I.      l A.K.K.K.K.K.K.A.2.] / I I K I _ O.-.&._ Q R Q H H H S R _ -.5.e.t.z.A.A.K.K.K.K.K.K.K.K.K.K.p.;.H 0 O > [ A.G.c &     ",
"I.      - #.K.K.K.K.K.K.K.K.K.K.K.K.K.K.K.K.K.G.K.K.K.K.K.K.K.A.K.K.K.K.K.K.K.K.K.K.K.K.K.K.K.K.K.K.K.K.K.z.2.h   z K.A.Z O     ",
"I.I.    O l A.K.K.K.K.K.K.K.K.K.K.K.K.K.K.K.K.K.K.K.K.K.K.K.K.K.K.K.K.K.K.K.K.K.K.K.K.K.K.K.K.K.K.K.K.K.K.K.A./ O u b.K.~       ",
"I.I.    O & &.A.K.K.K.K.K.K.K.K.K.K.K.K.K.K.K.K.K.K.K.K.K.K.K.K.K.K.K.K.K.K.K.K.K.K.K.K.K.K.K.K.K.K.K.K.K.z.>.c   h b.K.#.O     ",
"I.I.I.  o   x A.K.K.K.K.K.K.K.K.K.K.K.K.K.K.K.K.K.K.K.K.K.K.K.K.K.K.K.K.K.K.K.K.K.K.K.K.K.K.K.K.K.K.K.b.{ l 2 O O Z K.K. .&     ",
"I.I.I.      - #.K.K.K.K.K.K.K.K.K.K.K.K.K.K.K.K.K.K.K.K.K.K.K.K.K.K.K.K.K.K.K.K.K.K.K.K.K.K.K.K.K.K.K.A > O O > N j.K.K.]       ",
"I.I.I.I.  O   l m.K.K.K.K.K.K.K.K.K.K.K.K.K.K.K.K.K.K.K.K.K.K.K.K.K.K.K.K.K.K.K.K.K.K.K.K.K.K.K.K.K.&.- # d I 5.A.K.K.K.~       ",
"I.I.I.I.      - #.K.K.K.K.K.K.K.K.K.K.K.K.K.K.K.K.K.K.K.K.K.K.K.K.K.K.K.K.K.K.K.K.K.K.K.K.K.K.K.K.K.N & u w.G.K.K.K.K.K.C O +   ",
"I.I.I.I.I.O     x N.K.K.K.K.K.K.K.K.K.K.K.K.K.K.K.K.K.K.K.K.K.K.K.K.K.K.K.K.K.K.K.K.K.K.K.K.K.K.K.j.9 O K K.K.K.K.K.K.K.v +     ",
"I.I.I.I.I.      & -.K.K.K.K.K.K.K.K.K.K.K.K.K.K.K.K.K.K.K.K.K.K.K.K.K.K.K.K.K.K.K.K.K.K.K.K.K.K.K._ & 2 e.K.K.K.K.K.K.A.j o     ",
"I.I.I.I.I.I.  O   l b.K.K.K.K.K.K.K.K.K.K.K.K.K.K.K.K.K.K.K.K.K.K.K.K.K.K.K.K.K.K.K.K.K.K.K.K.K.b.c   b A.K.K.K.K.K.K.p.9     I.",
"I.I.I.I.I.I.    O   ] K.K.K.K.K.K.K.K.K.K.K.K.K.K.K.K.K.K.K.K.K.K.K.K.K.K.K.K.K.K.K.K.K.K.K.K.K.e.2 O { K.K.K.K.K.K.K.>.O       ",
"I.I.I.I.I.I.I.O O O f m.K.K.K.K.K.K.K.K.K.K.K.K.K.K.K.K.K.K.z.t.K.K.K.K.K.K.K.K.K.K.K.K.K.K.K.K.~ & 9 r.K.K.K.K.K.K.K.Y +     I.",
"I.I.I.I.I.I.I.O     & O.K.K.K.K.K.K.K.K.K.K.K.K.K.K.K.K.K.b.x w H s.K.K.K.K.K.K.K.K.K.K.K.K.K.N.h O b K.K.K.K.K.K.K.V.j       I.",
"I.I.I.I.I.I.I.I.  O   j g.A.K.K.K.K.K.K.K.K.K.K.K.K.K.K.K.j.u & O u | N.K.K.K.K.K.K.K.K.K.K.A.Q & - &.K.K.K.K.K.K.K.y.; O   O I.",
"I.I.I.I.I.I.I.I.    o O x b.K.K.K.K.K.K.K.K.K.K.K.K.K.K.K.K.-.n < O - B p.K.K.K.K.K.K.K.K.b./ - O v N.K.K.K.K.K.K.K.] O     I.I.",
"I.I.I.I.I.I.I.I.I.      & I A.K.K.K.K.K.K.K.K.K.K.K.K.K.K.K.K.K. .d *   y S 0.A.K.K.H.K.0.c - O f p.K.G.K.K.K.K.K.K.c   O   I.I.",
"I.I.I.I.I.I.I.I.I.I.  O   - { A.K.K.K.K.K.K.K.K.K.K.K.K.K.K.K.K.K.s.C 2   - > n >.j.r.R 9 O O j 6.K.K.K.K.K.K.K.K.s.> #   I.I.I.",
"I.I.I.I.I.I.I.I.I.I.I.    O 9 6.A.H.K.K.K.K.K.K.K.K.K.K.K.K.K.K.K.K.K.-.c 2 O O 5 h > O O 5 H g.K.K.K.K.K.K.K.K.K.^ #     I.I.I.",
"I.I.I.I.I.I.I.I.I.I.I.  O     d w.H.K.K.K.K.K.K.K.K.K.K.K.K.K.K.K.K.K.K.N.5.J 0   & O 5 c -.N.K.K.K.K.K.K.K.K.K.z.d O     I.I.I.",
"I.I.I.I.I.I.I.I.I.I.I.I.      o y @.V.A.K.K.K.K.K.K.K.K.K.K.K.K.K.K.K.K.K.K.K.t.Y V Y >.K.K.K.K.K.K.K.K.K.K.K.A.A O   O   I.I.I.",
"I.I.I.I.I.I.I.I.I.I.I.I.I.      + > C e.K.K.K.K.K.K.K.K.K.K.K.K.K.K.K.K.K.K.K.K.K.A.K.K.K.K.K.K.K.K.K.K.K.K.K.~ - O O   I.I.I.I.",
"I.I.I.I.I.I.I.I.I.I.I.I.I.I.        & 9 ) z.A.K.K.K.K.K.K.K.K.K.K.K.K.K.K.K.K.K.K.K.K.K.K.K.K.K.K.K.K.K.G.G.| 2       I.I.I.I.I.",
"I.I.I.I.I.I.I.I.I.I.I.I.I.I.I.    O   O & d #.N.K.K.K.K.K.K.K.K.K.K.K.K.K.K.K.K.K.K.K.K.K.K.K.K.K.K.K.K.K.O.2 *     I.I.I.I.I.I.",
"I.I.I.I.I.I.I.I.I.I.I.I.I.I.I.I.          O & l Y &.j.N.A.S.K.K.K.K.K.K.K.K.K.K.K.K.K.K.K.K.K.K.K.K.K.H.4.9         I.I.I.I.I.I.",
"I.I.I.I.I.I.I.I.I.I.I.I.I.I.I.I.I.I.  &       O   - , h S 2.N.K.K.K.K.K.K.K.K.K.K.K.K.K.K.K.K.K.A.A.p.R 5 O       I.I.I.I.I.I.I.",
"I.I.I.I.I.I.I.I.I.I.I.I.I.I.I.I.I.I.I.I.              O O & y v Y O.2.p.b.N.A.A.H.H.H.K.K.V.e.` D j ;   O   O   I.I.I.I.I.I.I.I.",
"I.I.I.I.I.I.I.I.I.I.I.I.I.I.I.I.I.I.I.I.I.I.            O O   O O O O & 9 h c C Y H C Z V k - O O o o         I.I.I.I.I.I.I.I.I.",
"I.I.I.I.I.I.I.I.I.I.I.I.I.I.I.I.I.I.I.I.I.I.I.I.                  O   O o O       O +       O               I.I.I.I.I.I.I.I.I.I.",
"I.I.I.I.I.I.I.I.I.I.I.I.I.I.I.I.I.I.I.I.I.I.I.I.I.I.I.I.              o         O         O   O   o     I.I.I.I.I.I.I.I.I.I.I.I."
};
