/* XPM */
static char *frame_39_delay_0_05s1763316732[] = {
/* columns rows colors chars-per-pixel */
"64 64 163 2 ",
"   c black",
".  c #010101",
"X  c #020202",
"o  c gray1",
"O  c #040404",
"+  c gray2",
"@  c #040406",
"#  c #060606",
"$  c #070707",
"%  c gray3",
"&  c #090909",
"*  c gray4",
"=  c #0B0B0B",
"-  c #0C0C0C",
";  c gray5",
":  c #0E0E0E",
">  c gray6",
",  c #111111",
"<  c gray7",
"1  c #131313",
"2  c #151515",
"3  c #161616",
"4  c #191919",
"5  c gray10",
"6  c gray11",
"7  c #1D1D1D",
"8  c #1E1E1E",
"9  c gray12",
"0  c #202020",
"q  c #222222",
"w  c #232323",
"e  c gray14",
"r  c gray15",
"t  c #282828",
"y  c #2A2A2A",
"u  c #2C2C2C",
"i  c #2D2D2D",
"p  c #2F2F2F",
"a  c #313131",
"s  c #323136",
"d  c gray22",
"f  c #3A3A3A",
"g  c #3D3C41",
"h  c gray28",
"j  c #494949",
"k  c #4A494E",
"l  c #4F4F50",
"z  c gray33",
"x  c #54535B",
"c  c gray35",
"v  c #5C5C5E",
"b  c #5E5D64",
"n  c #606060",
"m  c #626166",
"M  c gray40",
"N  c #68676B",
"B  c gray42",
"V  c gray43",
"C  c #707072",
"Z  c gray45",
"A  c #747378",
"S  c #787779",
"D  c gray48",
"F  c #7B7B7B",
"G  c #7A7A7C",
"H  c #7B7B7D",
"J  c #7C7C7C",
"K  c gray49",
"L  c #7D7C7F",
"P  c #7E7E7E",
"I  c gray50",
"U  c #7E7D80",
"Y  c #808083",
"T  c #838384",
"R  c gray53",
"E  c #848388",
"W  c #898989",
"Q  c #8B8B8B",
"!  c gray55",
"~  c #8E8E8E",
"^  c gray57",
"/  c #939393",
"(  c #959595",
")  c #979699",
"_  c #98989B",
"`  c #9A9A9A",
"'  c gray61",
"]  c #A0A0A0",
"[  c #A2A2A2",
"{  c #A4A4A6",
"}  c #A7A6A7",
"|  c #A7A7AA",
" . c #AAAAAA",
".. c #ADADB0",
"X. c #B0AFB3",
"o. c #B1B0B7",
"O. c #B4B4B4",
"+. c #B5B4B8",
"@. c #B8B7BA",
"#. c gray73",
"$. c #BBBBBD",
"%. c #BAB9BF",
"&. c #BCBCBC",
"*. c gray75",
"=. c #BDBCC0",
"-. c #C1C1C3",
";. c #C3C3C3",
":. c #C5C5C6",
">. c #C8C7CA",
",. c #CAC9CC",
"<. c #CCCBCE",
"1. c gray81",
"2. c #CFCFD2",
"3. c #D1D0D1",
"4. c gray83",
"5. c #D6D5D7",
"6. c #D8D8D8",
"7. c #D9D8DB",
"8. c #DADADB",
"9. c #DCDBDC",
"0. c #DCDBDE",
"q. c #DFDFDF",
"w. c #DEDEE0",
"e. c #E1E0E1",
"r. c #E1E1E1",
"t. c #E1E1E3",
"y. c #E2E2E2",
"u. c #E3E3E5",
"i. c #E6E5E6",
"p. c gray91",
"a. c #EBEAEB",
"s. c #EAE9EC",
"d. c #ECEBEE",
"f. c gray93",
"g. c #EFEEEF",
"h. c #F0EFF2",
"j. c gray95",
"k. c #F2F1F5",
"l. c #F3F3F4",
"z. c #F4F4F4",
"x. c gray96",
"c. c #F6F6F6",
"v. c #F7F6F7",
"b. c gray97",
"n. c #F6F5F8",
"m. c #F6F5FB",
"M. c #F8F7FA",
"N. c #F8F8F8",
"B. c #F9F9F9",
"V. c #FAF9FA",
"C. c #FBFAFB",
"Z. c #FBFBFB",
"A. c #F9F8FC",
"S. c #FAFAFE",
"D. c #FCFBFC",
"F. c #FCFBFF",
"G. c gray99",
"H. c #FDFCFD",
"J. c #FDFDFD",
"K. c #FEFDFF",
"L. c #FEFEFE",
"P. c white",
"I. c None",
/* pixels */
"I.I.I.I.I.I.I.I.I.I.I.I.I.I.I.I.I.I.I.                                        I.I.I.I.I.I.I.I.I.I.I.I.I.I.I.I.I.I.I.I.I.I.I.I.I.",
"I.I.I.I.I.I.I.I.I.I.I.I.I.I.I.I.                                                      I.I.I.I.I.I.I.I.I.I.I.I.I.I.I.I.I.I.I.I.I.",
"I.I.I.I.I.I.I.I.I.I.I.I.I.                      o O O O O O   O   O                       I.I.I.I.I.I.I.I.I.I.I.I.I.I.I.I.I.I.I.",
"I.I.I.I.I.I.I.I.I.I.I.                          % 4 w a g g h a 4 % O %                     I.I.I.I.I.I.I.I.I.I.I.I.I.I.I.I.I.I.",
"I.I.I.I.I.I.I.I.I.I.        O     % % a l l c V 8.j.b.b.b.b.G.z.j.t.3...E V z t % O     O         I.I.I.I.I.I.I.I.I.I.I.I.I.I.I.",
"I.I.I.I.I.I.I.I.      %     O t g z C P D G W 6.M.J.J.J.V.C.G.J.J.C.C.J.J.J.j.h.3.D 0 O O         I.I.I.I.I.I.I.I.I.I.I.I.I.I.I.",
"I.I.I.I.I.I.I.          % p n D D G D P T P +.i.j.j.h.N.b.b.b.V.V.C.m.V.V.V.V.V.z.V.i.~ 0 O o       I.I.I.I.I.I.I.I.I.I.I.I.I.I.",
"I.I.I.I.I.          O e n S G P J P D N z d 0 6 7 7 a k n n v m M M N Z D D Z V V S P R ~ u             I.I.I.I.I.I.I.I.I.I.I.I.",
"I.I.I.I.        O O g Z D T Z z d 4 , % o   $     O   O O O O O O O   O o   O & O O O $ % &               I.I.I.I.I.I.I.I.I.I.I.",
"I.I.I.I.    O o : z J P B g , O O o       O 1 6 g z d 0 2 2 2 2 4 2 , % & & : , % % & O O O O     O       I.I.I.I.I.I.I.I.I.I.I.",
"I.I.I.    O   e M J D j 2 % O O % 6 s g z B C D R t.f.i.i.i.p.p.i.t.w.5.5.5.9.t.8.8.:.&.^ M g e = O % O     I.I.I.I.I.I.I.I.I.I.",
"I.I.        s D P Z g % o O t z N S S S U P P P D ) w.V.J.J.J.J.J.J.V.G.J.J.J.J.V.b.i.#.[ {  .@.O.I e O   o   I.I.I.I.I.I.I.I.I.",
"I.      O t Z J P l $ o 0 c V P R J A Z m v n n v M S *.N.J.J.J.J.J.J.J.J.J.G.N.3./ j e 4 = 7 e z `  ., o     I.I.I.I.I.I.I.I.I.",
"        4 Z Z J P g O 7 V U G J A V m v z z g g d g c N ' h.J.J.J.J.J.J.J.J.k.` h 2 % O     O O   : g h % O     I.I.I.I.I.I.I.I.",
"    O O m P P P P Z z Z G U U A M v g 0 : O   O O O : u z T f.J.J.J.J.J.J.j.G 0 % o O 7 g c k t : % O a d O       I.I.I.I.I.I.I.",
"    O 0 D D J P P P T S G J A B x 7 % % O O : : , % O   % d ! N.J.J.J.J.J.{ t O = 0 ^ 9.p.V.b.8.[ u O O a t O       I.I.I.I.I.I.",
"      j J F P P P P U U S U m k 2 % % s G #.,.9.t.#.m 1 O % f 3.J.J.J.J.f.c :   k 5.M.J.J.J.J.J.V.5.j O $ g %       I.I.I.I.I.I.",
"O O % B J G D P P P P U U S b 3 O , / t.J.V.b.V.V.V.b.+.t O % R J.J.J.J.,.a O 4 t.J.J.J.J.J.J.J.J.V.8.7 o u e o o o o I.I.I.I.I.",
"O   2 S D P P P J P I U J M g @ , ..m.D.J.J.N.9.*.3.j.k.,.4 O s f.J.J.J.,.e O d b.J.J.J.f.) g f I b.&.> o d l % o     I.I.I.I.I.",
"O O 7 I P P P F P P I U U M g O 1 -.D.J.J.J.` e : 7 ` J.G.d O 0 :.J.J.J.1.7 O 4 *.N.J.J.+.% % % 4 >.d & 1 l M l O       I.I.I.I.",
"    0 J P P P P U P P P S b x 4 O x G.J.S.s.4 O     k V.3.0 O t -.J.J.J.t.7   o e >.C.C.*.& O O p B % : g c v %.a O o   I.I.I.I.",
"    0 J P F P P P P J P S b x d = : o.S.S.s.3       Z  .e % % 4 1.J.J.J.G.n   O O a  .C.j.W c S Z ,   e b v x =.| %       I.I.I.",
"  O 0 J P P J P U U P U S l , t 7 O e ..k.S...k a d l ,   O : d t.J.J.J.V.-.2     O 4 M :.a.t.R 2 O 7 x z v x =.s.e o     I.I.I.",
"O   0 G J P P P J P U P G g $ : g 1 % 1 M W Y A s 2 O O O O O N b.J.J.J.b.V.c O O   O % 0 u t & @ , x h , s v =.D.C O       I.I.",
"o   e J P P P P P P U U S b 4 @ t h = % % % O = @ @ , % O , 0 ~ J.J.J.J.J.J.-.2 % O $ $ o $ O @ 2 k b 3 $ 6 b 0.M.@.O O     I.I.",
"  O 1 J P P J P U U U U G M f o o g z e 2 2 2 2 e d t % O 0 u @.J.J.J.J.J.J.b.c t % o O i t t d z v s O % p B h.J.g.w O     I.I.",
"    - V D F D P P J U U U c x 6 $ : g x v z l v x g = @ 4 a l 5.J.J.J.J.J.J.J.;.s t O O w l x m v g : O 7 z W D.J.J.B     o   I.",
"O O O M D F F F P P U U I Z d l 1 $ % 7 z x x l t :   2 g e Y b.J.J.J.J.J.J.J.C.m g 0 o $ 1 t a t - O : h z 0.S.J.J.;.- O o   I.",
"  O   n J F F F J P U U U U M d h 3 % O : 9 7 = O   7 h s m ..J.J.J.J.J.J.J.J.J.9.h z 4 $ O $ $ O O O g k X.A.A.S.D.f.7 o $   I.",
"O O O l F F F F U U U U U G S v s h a % % O $ O $ t l d z U p.J.J.J.J.J.J.J.J.J.b.2.k k d 2 % $ , 4 h z } m.A.A.S.J.M.j O     I.",
"    O d F F F F J U G U U U G G N d h l a 7 0 t k v d B A +.S.J.J.J.J.J.J.J.J.J.J.J.e.2.2.| ! ! [ +.<.<.D.D.D.S.D.J.J.D O     I.",
"O     0 D F F F U U U U U U J G S Z l b M M M B F Z B A ' g.J.J.J.J.J.J.J.J.J.J.J.J.J.D.D.S.A.S.J.J.J.C.J.J.D.D.D.D.J...  O     ",
"      $ B I G D G G U U U Z d z U U U G G D S D S G Y T p.J.J.J.J.J.J.J.J.J.J.J.J.J.J.J.J.J.J.J.J.J.J.J.J.J.J.J.J.J.J.9.1   o   ",
"      $ l J D F D U J U U h o e G U U U U P U G J G T ,.D.J.J.J.J.J.J.J.J.J.J.J.J.J.J.J.J.J.J.J.J.J.J.J.J.J.J.J.J.J.J.V.d O O   ",
"      O 0 J D F G J U J A 2 $ g U U U U U U Y D S ! <.m.J.D.J.J.J.J.J.J.J.J.J.J.J.J.J.J.J.J.J.D.J.J.n.J.J.J.J.J.J.J.J.J.z O     ",
"I.      O v D F J U U U g O , C G U U J U U D T } 0.J.J.J.J.J.S.J.S.k.j.i.8.9.9.e.i.h.M.J.J.J.D.J.k.' t.J.J.J.J.J.J.J.J.Z O     ",
"I.      O w P D G J U S 2 % h U G G G G J T ( 9.M.D.J.J.d.w.@.R B c k g t t e e t d h z M ^ <.k.S.S.O.E t.J.J.J.J.J.J.J.)       ",
"I.I.      O n D J J G l $ 4 ) S G G G U U ' i.m.0.:.[ U l t % O $ O O O O % $ % O O $ $   O 4 j ` >.3.E ^ j.J.J.J.J.J.J.#.@     ",
"I.I.      o u S J J S p O l =.U J / 2.<.,.2.) z p O $ O   $ O : 2 0 e a g z c c k s t e 0 : % $ $ : e e v =.J.J.J.J.J.J.+.O   o ",
"I.I.I.  o o % b J U S 1 $ ` =.J U 2.2.! h 0 O O O O $ , 0 h T +.,.5.9.i.k.M.A.S.M.f.i.e.2.{ c 0 : O O % > B j.S.J.J.J.J.{ O     ",
"I.I.I.    O o w U U A $ $ ,.=.S S V 0 O O $ O 7 d Z [ =.9.b.J.J.J.J.J.J.J.J.J.J.J.J.J.J.J.J.D.9.o.^ z % O , [ D.J.J.J.J.' O     ",
"I.I.I.I.    o O m U M O 6 8.O.h 2 $ O : w j ^ ,.b.D.J.J.J.J.J.J.J.J.J.J.J.J.J.J.J.J.J.J.J.J.S.J.G.k.h.' 2 % 0 5.J.J.J.J.A O     ",
"I.I.I.I.        t J m O 0 h.X.$   , s ^ 5.J.S.A.J.J.j.f.g.f.s.s.u.d.b.J.J.J.J.J.J.J.J.J.J.J.V.D.J.b.J.M.~ $ % Y J.J.J.J.c $     ",
"I.I.I.I.I.      O m m @ , 6.<.w 6 ) i.J.D.b.d.7.<.$.' E W E T T Y W ) u.J.J.J.J.J.J.J.J.J.J.9.[ I D T G z O   D J.J.S.J.d O   o ",
"I.I.I.I.I.  o o $ 6 C - O W h.G G 6.D.t.+.{ ! U G G G G G U S U P G G { J.J.J.J.J.J.J.J.J.d.d - O O O $ % = 7 2.J.J.J.a.0       ",
"I.I.I.I.I.I.    O O l f O t 0.=.G ! 2.E U U S J U G G G G G G U J G U O.J.J.J.J.J.J.J.J.m.( % O , , : , > e ..C.J.J.J.-.o       ",
"I.I.I.I.I.I.    O O 4 N , O z 2.W E U Y U J G G G U U G G G U G U G E i.J.J.J.J.J.J.J.J.,.4 O t O.-.%. .A 5.J.J.J.J.J.R O O   I.",
"I.I.I.I.I.I.I.    O @ c h $ $ u M G U U G G G J G G U U U G G U U U U =.J.J.J.J.J.J.J.i.d & - { J.C.z.2.5.S.J.J.J.J.M.g O     I.",
"I.I.I.I.I.I.I.    o O w B d %   % f U U G U U G G G U U U U U U U U U T ,.V.J.J.D.J.z.z & $ N M.J.J.J.J.J.J.J.J.J.J.i.,       I.",
"I.I.I.I.I.I.I.I.      o u J z 4 $ 2 U U G G G U U U U U U U G U U J U U D [ ,.d.h.8.Z :   7 8.J.J.J.J.J.J.J.J.J.J.J.| O       I.",
"I.I.I.I.I.I.I.I.I.    o O h S B h M P J G U G G G S U G U G G m u p d h B A P G G v ,   2 R S.D.J.J.J.J.J.J.J.J.J.J.z O O   I.I.",
"I.I.I.I.I.I.I.I.I.      O : l U U G G G J G G G G U U U U U G f $ o o $ - 6 t a u , o   h ,.D.S.J.J.J.J.J.J.J.J.J.p., o     I.I.",
"I.I.I.I.I.I.I.I.I.I.        , S S S G D G G S G G U G G U U S z 1 : - O O   O   $ o O h ) z.D.J.J.J.J.J.J.J.J.J.J.( %       I.I.",
"I.I.I.I.I.I.I.I.I.I.I.  o o   t Z S G D S G J G G G U U U G U G A A C l u 1 : % - 0 l U 5.S.J.J.J.J.J.J.J.J.J.J.h.a O     I.I.I.",
"I.I.I.I.I.I.I.I.I.I.I.I.      o 3 z U T G D G G U U G G U U U U U U U G G S B B A D Z ~ V.J.J.J.J.J.J.J.J.J.J.S.D & O     I.I.I.",
"I.I.I.I.I.I.I.I.I.I.I.I.I.    o $ $ d N G G G G G G U U U G U U U U J U G J D S G D Z %.J.J.J.J.J.J.J.J.J.J.S.' >   O   I.I.I.I.",
"I.I.I.I.I.I.I.I.I.I.I.I.I.I.      o o , k A D G U G U G G U U U U U U U J G G G D G T i.D.J.J.J.J.J.J.J.D.S.} ,         I.I.I.I.",
"I.I.I.I.I.I.I.I.I.I.I.I.I.I.I.        O O 2 c G G G U U U U U U U U U U U G G S G G %.D.J.J.J.J.J.J.J.J.J.O.1 O       I.I.I.I.I.",
"I.I.I.I.I.I.I.I.I.I.I.I.I.I.I.I.      o   O % 7 h b B G J G J U U U U U J U U G J [ D.J.J.J.J.J.J.J.C.M.:.7 O O     I.I.I.I.I.I.",
"I.I.I.I.I.I.I.I.I.I.I.I.I.I.I.I.I.I.  O O   O O o   - 6 g B G U U U U U U U U G ! d.J.D.J.J.J.J.J.S.t.~ 6 O o     I.I.I.I.I.I.I.",
"I.I.I.I.I.I.I.I.I.I.I.I.I.I.I.I.I.I.I.      o       o O O O 4 u h x m V A I U ! 8.J.D.D.J.A.0. .Y g ,   O       I.I.I.I.I.I.I.I.",
"I.I.I.I.I.I.I.I.I.I.I.I.I.I.I.I.I.I.I.I.I.                o     O O O $ 1 6 t m W I Z Z V g : O O O   O o     I.I.I.I.I.I.I.I.I.",
"I.I.I.I.I.I.I.I.I.I.I.I.I.I.I.I.I.I.I.I.I.I.I.I.          o     O o   O   o     O   O       O     o O       I.I.I.I.I.I.I.I.I.I.",
"I.I.I.I.I.I.I.I.I.I.I.I.I.I.I.I.I.I.I.I.I.I.I.I.I.I.I.                O   O   O   O       O   o           I.I.I.I.I.I.I.I.I.I.I."
};
