/* XPM */
static char *frame_22_delay_0_05s1763316730[] = {
/* columns rows colors chars-per-pixel */
"64 64 142 2 ",
"   c black",
".  c #010101",
"X  c #020202",
"o  c gray1",
"O  c #040404",
"+  c gray2",
"@  c #060606",
"#  c #070707",
"$  c gray3",
"%  c #090909",
"&  c gray4",
"*  c #0B0B0B",
"=  c #0C0C0C",
"-  c gray5",
";  c #0E0E0E",
":  c #101010",
">  c gray7",
",  c #131313",
"<  c #151515",
"1  c gray9",
"2  c #191919",
"3  c gray11",
"4  c #1D1D1D",
"5  c #1E1E1E",
"6  c #202020",
"7  c #222222",
"8  c #232323",
"9  c gray14",
"0  c #272727",
"q  c #282828",
"w  c #2A2A2A",
"e  c #2C2C2C",
"r  c #2D2D2D",
"t  c #2F2F2F",
"y  c gray19",
"u  c #313131",
"i  c #323232",
"p  c gray22",
"a  c #3A3A3A",
"s  c #3D3C41",
"d  c gray28",
"f  c #494949",
"g  c #4A494E",
"h  c #4F4F50",
"j  c gray33",
"k  c gray35",
"l  c #5C5C5E",
"z  c #606060",
"x  c gray40",
"c  c #68676B",
"v  c gray42",
"b  c gray43",
"n  c gray45",
"m  c #787779",
"M  c gray48",
"N  c #7C7C7C",
"B  c gray49",
"V  c gray50",
"C  c #838384",
"Z  c #868686",
"A  c #888888",
"S  c #898989",
"D  c gray54",
"F  c #8D8D8D",
"G  c #8E8E8E",
"H  c gray57",
"J  c #939393",
"K  c #959595",
"L  c #979699",
"P  c #9A9A9A",
"I  c gray61",
"U  c gray62",
"Y  c gray63",
"T  c #A2A2A2",
"R  c #A4A4A6",
"E  c #A7A6A7",
"W  c #A9A9A9",
"Q  c #AAAAAA",
"!  c #ACACAC",
"~  c #AEAEAE",
"^  c gray69",
"/  c gray70",
"(  c gray71",
")  c #B6B6B7",
"_  c #B8B7BA",
"`  c gray73",
"'  c #BCBCBC",
"]  c gray74",
"[  c gray75",
"{  c #C1C1C1",
"}  c #C3C3C3",
"|  c #C5C5C5",
" . c gray78",
".. c #C8C8C8",
"X. c gray79",
"o. c #CACACA",
"O. c gray80",
"+. c #CDCDCE",
"@. c gray81",
"#. c #D1D0D1",
"$. c #D2D2D2",
"%. c LightGray",
"&. c gray83",
"*. c #D5D5D5",
"=. c #D6D5D7",
"-. c #D8D8D8",
";. c #DADADB",
":. c #DCDBDC",
">. c #DDDDDD",
",. c #DFDFDF",
"<. c #E1E0E1",
"1. c #E2E2E2",
"2. c gray89",
"3. c #E4E4E4",
"4. c #E6E5E6",
"5. c gray91",
"6. c #E9E9E9",
"7. c #EAEAEA",
"8. c #ECECEC",
"9. c #EEEEEE",
"0. c gray94",
"q. c #F1F1F1",
"w. c #F3F3F3",
"e. c #F4F3F4",
"r. c #F5F4F5",
"t. c gray96",
"y. c #F6F6F6",
"u. c #F7F6F7",
"i. c #F8F8F8",
"p. c #F9F8F9",
"a. c #F9F9F9",
"s. c #FAF9FA",
"d. c gray98",
"f. c #FBFAFB",
"g. c #FBFBFB",
"h. c #FCFBFC",
"j. c gray99",
"k. c #FDFCFD",
"l. c #FDFDFD",
"z. c #FEFEFE",
"x. c white",
"c. c None",
/* pixels */
"c.c.c.c.c.c.c.c.c.c.c.c.c.c.c.c.c.c.c.c.                                  c.  c.c.c.c.c.c.c.c.c.c.c.c.c.c.c.c.c.c.c.c.c.c.c.c.c.",
"c.c.c.c.c.c.c.c.c.c.c.c.c.c.c.c.                                                    c.c.c.c.c.c.c.c.c.c.c.c.c.c.c.c.c.c.c.c.c.c.",
"c.c.c.c.c.c.c.c.c.c.c.c.c.c.                    O O $ O o o $ O o o                     c.c.c.c.c.c.c.c.c.c.c.c.c.c.c.c.c.c.c.c.",
"c.c.c.c.c.c.c.c.c.c.c.c.                        $ 2 q i d d f e 2 * O #                     c.c.c.c.c.c.c.c.c.c.c.c.c.c.c.c.c.c.",
"c.c.c.c.c.c.c.c.c.c.          O O $ 1 l G Y W ` %.5.2.8.e.y.e.0.5.,.@.~ G n k q # o O           c.c.c.c.c.c.c.c.c.c.c.c.c.c.c.c.",
"c.c.c.c.c.c.c.c.c.    $     = g K / 4.e.-.Y l a 6 5 , 0 i h N K ) ,.g.y.j.y.y.q.&.V 0   o o       c.c.c.c.c.c.c.c.c.c.c.c.c.c.c.",
"c.c.c.c.c.c.c.        $ = l } y.g.g.I a = =   O O $ $ O   O O $ = , a v ! ..5.p.y.y.5.G 7           c.c.c.c.c.c.c.c.c.c.c.c.c.c.",
"c.c.c.c.c.c.        O f [ e.g.j...s O $ O < f b D H G C n j q 1 = O O O = = < a l n C D V ,           c.c.c.c.c.c.c.c.c.c.c.c.c.",
"c.c.c.c.c.        = M q.g.q.0.N 1 O = h E 4.g.g.j.j.j.j.g.g.y.4...L z i , = $ O O O * $ * $ o           c.c.c.c.c.c.c.c.c.c.c.c.",
"c.c.c.c.    O   , H @.y.g.=.a O   i _ q.p.y.g.j.j.j.j.j.j.j.j.j.j.j.g.5.%.` K c d i 7 0 2 O o o o o       c.c.c.c.c.c.c.c.c.c.c.",
"c.c.c.    O O s E %.-.5.~ q o < v 2.j.h.j.j.j.j.j.j.j.j.j.j.j.j.j.j.j.j.j.j.p.g.5.,.I c j f l C L i O O     c.c.c.c.c.c.c.c.c.c.",
"c.c.      O l | %.-.%.m , $ 6 ) y.j.j.j.j.j.j.j.j.j.j.j.j.j.j.j.j.j.j.j.j.j.g.g.[ s , #   # O , i J e O       c.c.c.c.c.c.c.c.c.",
"c.        f ..@.-.` f O   y @.g.p.h.e.` b f e e i b =.j.j.j.j.j.j.j.j.j.j.j.-.k = O = a d p 5 = O 5 z ,       c.c.c.c.c.c.c.c.c.",
"c.      0 } @.=.G 7 $ O k | ,.2.y.[ s < O O   O O $ 0 W j.j.j.j.j.j.j.j.j.~ i O $ i W 3.5.4.3.) t O , h # o #   c.c.c.c.c.c.c.c.",
"    O O Y %.%.Z = $ 7 Z ..-.%.@.M , O O e v M M v 7 O < [ g.j.j.j.j.j.j...7 O 7 K 5.g.p.:.:.h.i.,.a O a s         c.c.c.c.c.c.c.",
"    O i @.-.@.d $ a [ @.=.=.| h $ $ a Y 8.y.g.g.y...q O i e.j.j.j.j.j.j.z O i ..j.g.9.N 0 7 x 4.h.) O , ! ,       c.c.c.c.c.c.c.",
"  o O n =.&.%.W n { %.#.%.#.h $ # b 4.g.} n j P j.y...= O ..j.j.j.j.j.j.i   D h.j.j.C = O O $ ^ j.=.$ ; ,.V O       c.c.c.c.c.c.",
"o O = / %.=.#.=.=.=.#.%.%.P # % C 9.j.L 2 O : , =.j.q.7   K j.j.j.j.j.j.i   P g.j.j.f o O O a 5.j.=.# , 4.8.e O   O   c.c.c.c.c.",
"    0 O.&.*.#.%.%.&.%.%.%.d   h y.i.w.p % O   y 2.g.[ ,   Z j.j.j.j.j.j.h   v y.j.j._ 5 O 0 ..h.5.z $ e W :./ $ O     c.c.c.c.c.",
"O O e =.&.&.#.%.%.%.&.%.{ 6 = ` g.g.j.k O O 9 ` 8.H 7   $ E j.j.j.j.j.j.D $ , z / 5.q.@.W :.4.I i o # j 2 f q.k   O     c.c.c.c.",
"o   p *.&.%.%.&.%.&.=.%.[ 6 O I i.y.g.2.H S Y V a :   O 2 =.j.j.j.j.j.j.4.i O O = q z H W n i $ O < V d o d j.2.a O     c.c.c.c.",
"  o p *.%.%.&.%.&.&.=.%.@.z   5 g m S G b a : O     O   j j.j.j.j.j.j.j.g.&.f   O O O : $ $   = s ~ ,.d = W g.j.Y $       c.c.c.",
"    p *.%.%.%.&.%.&.&.&.%.M O O O O   O       0 0 $ O e ..j.j.j.j.j.j.j.j.j.:.0 O   O O o 1 k Y 2.5.4.&.| h.j.j.8.0 O O   c.c.c.",
"o   p *.%.%.%.%.&.%.&.&.[ 2 O e i e 0 q i k S n 7 $ < W j.j.j.j.j.j.j.j.j.j.j.%.l < O O o 1 a l O.5.u.j.j.j.j.j.g.c         c.c.",
"o o i =.=.%.%.*.%.%.*.%.| q $ < ~ } O.@.=.[ p % O 5 T j.j.j.j.j.j.j.j.j.j.j.j.j.p.} b 0 O O   $ C h.j.j.j.j.j.j.j./ =       c.c.",
"o   8 %.%.&.%.=.%.*.%.*.@.E a f 2.0.8.<.2.K # $ g | j.j.j.j.j.j.j.j.j.j.j.j.j.j.j.j.y.%.E n j s ` j.j.j.j.j.j.j.j.y.0       c.c.",
"o o = ` &.%.&.&.*.*.*.+.%.=.,.q.j.j.j.j.g.4.G ~ 8.j.j.j.j.j.j.j.j.j.j.j.j.j.j.j.j.j.j.j.j.j.y.q.j.j.j.j.j.j.j.j.j.j.n O O O c.c.",
"o   O ^ =.%.=.&.*.%.*.>.8.j.j.j.j.j.j.j.j.j.j.j.j.j.j.j.j.j.j.j.j.j.j.j.j.j.j.j.j.j.j.j.j.j.j.j.j.j.j.j.j.j.j.j.j.j.| O   O   c.",
"  O   T &.%.%.#.*.3.q.j.j.j.j.j.j.j.j.j.j.j.j.j.j.j.j.j.j.j.j.j.j.j.j.j.j.j.j.j.j.j.j.j.j.j.j.j.j.j.j.j.j.j.j.j.j.j.q.< O O   c.",
"o o o G %.%.%.%.3.t.j.j.j.j.j.j.j.j.j.j.j.j.j.j.j.j.j.j.j.j.j.j.j.j.j.j.j.j.j.j.j.j.j.j.j.j.j.j.j.j.j.j.j.j.j.j.j.j.j.f O   O c.",
"O   O z %.:.%.-.8.3.d.j.j.j.j.j.j.j.j.j.j.j.j.j.j.j.j.j.j.j.j.j.j.j.j.j.j.j.j.j.j.j.j.j.j.j.j.j.j.j.j.j.j.j.j.j.j.j.j.V   O   c.",
"o   O a %.-.-.0.c d 3.j.j.j.j.j.j.j.j.j.j.j.j.j.j.j.j.j.j.j.j.j.j.j.j.j.j.j.j.j.j.j.j.j.j.j.j.j.j.j.j.j.j.j.j.j.j.j.j.W O       ",
"      < [ =.9.=.= $ @.j.j.j.j.j.j.j.j.j.j.j.j.j.j.j.h.j.j.j.j.y.g.j.j.g.y.8.8.,.%.,.5.q.g.g.g.g.j.j.j.j.j.j.j.j.j.j.j.2.<   O   ",
"      o A =.j.W O 9 q.j.j.j.j.j.j.j.j.j.j.j.h.8.4.,.,.@.%.@.} ' I V l g d s e 0 5 0 e a f k b V H ) =.y.g.j.j.j.j.j.j.g.a O O   ",
"c.    o s 5.j.D $ f y.,.} E E R E H V b z z j a q q 9 9 3 , =   O O O O O $ $ $ $ O = $ $   O   $ * 5 f H =.j.j.j.j.j.j.j O     ",
"c.    O $ / j.m $ j n q =   $ # O O O O O O     O O O O O , , 5 0 e f l x n D P Y P C n l d a i 7 , O   * e E j.j.j.j.j.n O     ",
"c.      o f g.m   a , O $ 5 7 q 0 0 e a g g j b G L I U ) } | | :.y.y.g.j.j.j.j.j.j.j.j.j.h.8.q.:.} K h , O , W j.j.j.j.K       ",
"c.c.    o ; ..A O g V A [ %.@.:.2.2.5.y.g.g.y.y.g.g.j.g.j.j.j.j.j.j.j.j.j.j.j.j.j.j.j.j.j.j.j.j.d.j.j.g.[ s O i y.j.j.j./ O     ",
"c.c.      o f E   e 5.y.j.j.j.j.j.j.j.j.j.j.j.j.j.j.j.j.j.j.j.j.j.j.j.j.j.j.j.j.j.j.j.j.j.j.j.j.j.j.j.j.g.@.= $ [ j.j.j.~ O     ",
"c.c.c.  #   = H = # @.g.j.j.j.j.j.j.j.j.j.j.j.j.j.j.j.j.j.j.j.j.j.j.j.j.j.j.j.j.j.j.j.j.j.j.j.j.j.j.j.j.j.e.f   V j.j.j.W O     ",
"c.c.c.      O f i O v j.j.j.j.j.j.j.j.j.j.j.j.j.j.j.j.j.j.j.j.j.j.j.j.j.j.j.j.j.j.j.j.j.j.j.j.j.j.j.y.g.q.=.d $ v h.j.j.P       ",
"c.c.c.c.      = j O s e.j.j.j.j.j.j.j.j.j.j.j.j.j.j.j.j.j.j.j.j.j.j.j.j.j.j.j.j.j.j.j.j.j.j.j.j.j.j.,.} v 0 O = W j.j.j.n       ",
"c.c.c.c.      O f E =.j.j.j.j.j.j.j.j.j.j.j.j.j.j.j.j.j.j.j.j.j.j.j.j.j.j.j.j.j.j.j.j.j.j.j.j.j.j.D e $   % , V q.j.j.j.k O O   ",
"c.c.c.c.c.      = [ j.j.j.j.j.j.j.j.j.j.j.j.j.j.j.j.j.j.j.j.j.j.j.j.j.j.j.j.j.j.j.j.j.j.j.j.j.j.K = $ O < z } p.j.j.j.g.a O     ",
"c.c.c.c.c.      O f y.j.j.j.j.j.j.j.j.j.j.j.j.j.j.j.j.j.j.j.j.j.j.j.j.j.j.j.j.j.j.j.j.j.j.j.g.@.2 $ s D %.j.j.j.j.j.j.8.5       ",
"c.c.c.c.c.c.o   O O R j.j.j.j.j.j.j.j.j.j.j.j.j.j.j.j.j.j.j.j.j.j.j.j.j.j.j.j.j.j.j.j.j.j.j.y.g   q ,.g.h.j.j.j.j.j.j...O       ",
"c.c.c.c.c.c.c.O O   i e.j.j.j.j.j.j.j.j.j.j.j.j.j.j.j.j.j.j.j.j.j.j.j.j.j.j.j.j.j.j.j.j.j.j.I = $ ~ j.j.j.j.j.j.j.j.j.D O O   c.",
"c.c.c.c.c.c.c.O     $ / j.j.j.j.j.j.j.j.j.j.j.j.j.j.j.j.j.j.j.j.j.j.j.j.j.j.j.j.j.j.j.j.j.5.q O z g.j.j.j.j.j.j.j.j.y.s       c.",
"c.c.c.c.c.c.c.  o o   s 5.g.j.j.j.j.j.j.j.j.j.j.j.j.j.j.j.j.,.V } p.y.h.j.j.j.j.j.j.j.j.g.V O 2 2.j.j.j.j.j.j.j.j.j.4., o     c.",
"c.c.c.c.c.c.c.c.    O $ h q.j.j.j.j.j.j.j.j.j.j.j.j.j.j.j.j.D O = n %.5.q.j.j.j.j.j.j.j.%.< O G y.j.j.j.j.j.j.j.j.j.E O     c.c.",
"c.c.c.c.c.c.c.c.c.    O $ G h.j.j.j.j.j.j.j.j.j.j.j.j.j.j.j...e O O ; 9 j K ..g.j.g...m 0 O e 5.j.j.j.j.j.j.j.j.j.j.j   o     c.",
"c.c.c.c.c.c.c.c.c.c.    O : W j.j.j.j.j.j.j.j.j.j.j.j.j.j.j.j.2.n 5 $ $ O $ * j N f ,   $ < ) h.j.j.j.j.j.j.j.j.j.4., O     c.c.",
"c.c.c.c.c.c.c.c.c.c.    O O 5 %.j.j.j.j.j.j.j.j.j.g.8.2.-.q.j.j.y.,./ C f 5 $ O   O O 0 v } h.j.j.j.j.j.j.j.j.j.j.P O       c.c.",
"c.c.c.c.c.c.c.c.c.c.c.        e -.g.j.j.j.j.j.j.4.,.=.%.-.0.j.j.j.g.j.g.g.-.G s e f Y ,.g.j.g.j.j.j.j.j.j.j.j.j.8.i O     c.c.c.",
"c.c.c.c.c.c.c.c.c.c.c.c.    O   e ^ u.g.j.j.5.-.%.%.%.%.2.h.j.j.j.j.j.j.j.j.j.j.g.g.j.j.j.j.j.j.j.j.j.j.j.j.j.g.V O O o   c.c.c.",
"c.c.c.c.c.c.c.c.c.c.c.c.c.      O < b @.,.=.%.@.%.%.@.%.8.j.j.j.j.j.j.j.j.j.j.h.j.j.j.j.j.j.j.j.j.j.j.j.j.j.j.I = O     c.c.c.c.",
"c.c.c.c.c.c.c.c.c.c.c.c.c.c.      O O 5 V O.&.&.%.%.@.,.g.j.j.j.j.j.j.j.j.j.j.j.j.j.j.j.j.j.j.j.j.j.j.j.j.j.E < O     c.c.c.c.c.",
"c.c.c.c.c.c.c.c.c.c.c.c.c.c.c.      O O $ e Y %.%.%.-.g.j.j.j.j.j.j.j.j.j.j.j.j.j.j.j.j.j.j.j.j.j.j.j.j.j.) < $       c.c.c.c.c.",
"c.c.c.c.c.c.c.c.c.c.c.c.c.c.c.c.        O O = i n E -.q.g.j.j.j.j.j.j.j.j.j.j.j.j.j.j.j.j.j.j.j.j.j.j.t...2 o       c.c.c.c.c.c.",
"c.c.c.c.c.c.c.c.c.c.c.c.c.c.c.c.c.c.O O   O     O   < p C @.y.j.j.j.j.j.j.j.j.j.j.j.j.j.j.j.j.j.y.h.2.H 2 O       c.c.c.c.c.c.c.",
"c.c.c.c.c.c.c.c.c.c.c.c.c.c.c.c.c.c.c.c.  O           O O $ q j S ) | 2.y.y.y.j.j.j.j.j.j.y.-.E C s ,     O     c.c.c.c.c.c.c.c.",
"c.c.c.c.c.c.c.c.c.c.c.c.c.c.c.c.c.c.c.c.c.c.              O O O   $ O = 5 a j b D M n n b d = O   O     o     c.c.c.c.c.c.c.c.c.",
"c.c.c.c.c.c.c.c.c.c.c.c.c.c.c.c.c.c.c.c.c.c.c.c.                  O O   O O       O O         O O   O       c.c.c.c.c.c.c.c.c.c.",
"c.c.c.c.c.c.c.c.c.c.c.c.c.c.c.c.c.c.c.c.c.c.c.c.c.c.c.c.                  O       O       O O           c.c.c.c.c.c.c.c.c.c.c.c."
};
