/* XPM */
static char *frame_32_delay_0_05s1763316731[] = {
/* columns rows colors chars-per-pixel */
"64 64 199 2 ",
"   c black",
".  c #010101",
"X  c #020202",
"o  c gray1",
"O  c #040404",
"+  c gray2",
"@  c #040406",
"#  c #060606",
"$  c #070707",
"%  c gray3",
"&  c #090909",
"*  c gray4",
"=  c #0B0B0B",
"-  c #0C0C0C",
";  c gray5",
":  c #0E0E0E",
">  c gray6",
",  c #101010",
"<  c #111111",
"1  c gray7",
"2  c #131313",
"3  c gray8",
"4  c #151515",
"5  c #161616",
"6  c gray9",
"7  c #181818",
"8  c #191919",
"9  c gray10",
"0  c gray11",
"q  c #1D1D1D",
"w  c #1E1E1E",
"e  c gray12",
"r  c #202020",
"t  c #222222",
"y  c #232323",
"u  c gray14",
"i  c gray15",
"p  c #272727",
"a  c #282828",
"s  c #2A2A2A",
"d  c #2C2C2C",
"f  c #2D2D2D",
"g  c #2F2F2F",
"h  c gray19",
"j  c #313131",
"k  c #323232",
"l  c #323136",
"z  c gray22",
"x  c #3A3A3A",
"c  c #3D3C41",
"v  c gray28",
"b  c #494949",
"n  c #4A494E",
"m  c #4F4F50",
"M  c gray33",
"N  c #54535B",
"B  c gray35",
"V  c #5C5C5E",
"C  c #606060",
"Z  c #626166",
"A  c gray40",
"S  c #68676B",
"D  c gray42",
"F  c gray43",
"G  c #707072",
"H  c gray45",
"J  c #747378",
"K  c #787779",
"L  c gray48",
"P  c #7B7B7B",
"I  c #7A7A7C",
"U  c #7B7B7D",
"Y  c #7C7C7C",
"T  c gray49",
"R  c #7D7C7F",
"E  c #7E7E7E",
"W  c gray50",
"Q  c #7E7D80",
"!  c #808083",
"~  c #838384",
"^  c #868686",
"/  c #848388",
"(  c #86858A",
")  c #898989",
"_  c gray54",
"`  c gray55",
"'  c #8D8D8D",
"]  c #8E8E8E",
"[  c #8C8B90",
"{  c #8E8E92",
"}  c gray57",
"|  c #939393",
" . c #919195",
".. c gray58",
"X. c #959595",
"o. c #979699",
"O. c #9A9A9A",
"+. c gray61",
"@. c #9D9CA1",
"#. c #A0A0A0",
"$. c #A1A0A3",
"%. c #A2A2A2",
"&. c #A4A4A6",
"*. c #A7A6A7",
"=. c #A7A7AA",
"-. c #AAAAAA",
";. c gray67",
":. c #ACACAC",
">. c #AEAEAE",
",. c #ADADB0",
"<. c #B0AFB3",
"1. c #B2B2B2",
"2. c gray70",
"3. c #B1B0B7",
"4. c #B4B4B4",
"5. c gray71",
"6. c #B6B6B7",
"7. c #B5B4B8",
"8. c #B8B7BA",
"9. c gray73",
"0. c #BBBBBD",
"q. c #BAB9BF",
"w. c #BCBCBC",
"e. c gray75",
"r. c #BDBCC0",
"t. c #BEBDC3",
"y. c #C0C0C0",
"u. c #C1C1C3",
"i. c #C3C2C5",
"p. c #C5C5C5",
"a. c #C5C5C6",
"s. c #C6C6C6",
"d. c #C8C7CA",
"f. c #C8C8C8",
"g. c gray79",
"h. c #CACACA",
"j. c #CAC9CC",
"k. c #CCCBCE",
"l. c #CDCDCE",
"z. c gray81",
"x. c #CFCFD2",
"c. c #D1D0D1",
"v. c LightGray",
"b. c gray83",
"n. c #D6D5D7",
"m. c #D7D6D9",
"M. c #D8D8D8",
"N. c #DADADB",
"B. c #DCDBDC",
"V. c #DCDBDE",
"C. c #DDDDDD",
"Z. c #DEDEE0",
"A. c #E1E0E1",
"S. c #E1E1E1",
"D. c #E1E1E3",
"F. c #E4E4E4",
"G. c #E6E5E6",
"H. c #E7E7E7",
"J. c gray91",
"K. c #E8E8EA",
"L. c #EAEAEA",
"P. c #EBEAEB",
"I. c #EAE9EC",
"U. c #EBEAED",
"Y. c gray93",
"T. c #EEEEEE",
"R. c #EFEEEF",
"E. c #EFEFEF",
"W. c #F0EFF2",
"Q. c gray94",
"!. c #F1F1F1",
"~. c #F2F1F5",
"^. c #F3F3F4",
"/. c #F4F3F4",
"(. c #F4F4F4",
"). c gray96",
"_. c #F5F4F7",
"`. c #F6F6F6",
"'. c #F7F6F7",
"]. c gray97",
"[. c #F6F5F8",
"{. c #F8F7FA",
"}. c #F8F8F8",
"|. c #F9F9F9",
" X c #FAF9FA",
".X c gray98",
"XX c #FBFAFB",
"oX c #FBFBFB",
"OX c #F9F8FC",
"+X c #FAFAFE",
"@X c #FCFBFC",
"#X c #FCFBFF",
"$X c gray99",
"%X c #FDFCFD",
"&X c #FDFDFD",
"*X c #FEFDFF",
"=X c #FEFEFE",
"-X c white",
";X c None",
/* pixels */
";X;X;X;X;X;X;X;X;X;X;X;X;X;X;X;X;X;X;X;X                                      ;X  ;X;X;X;X;X;X;X;X;X;X;X;X;X;X;X;X;X;X;X;X;X;X;X",
";X;X;X;X;X;X;X;X;X;X;X;X;X;X;X;X                                                      ;X;X;X;X;X;X;X;X;X;X;X;X;X;X;X;X;X;X;X;X;X",
";X;X;X;X;X;X;X;X;X;X;X;X;X                      o O O O O o   O o o                       ;X;X;X;X;X;X;X;X;X;X;X;X;X;X;X;X;X;X;X",
";X;X;X;X;X;X;X;X;X;X;X                          % 8 u h v v b h 6 = O %                     ;X;X;X;X;X;X;X;X;X;X;X;X;X;X;X;X;X;X",
";X;X;X;X;X;X;X;X;X;X        O     % % h m m B F M.!.).}.).).%X).Q.A.c.>.^ F M d % O               ;X;X;X;X;X;X;X;X;X;X;X;X;X;X;X",
";X;X;X;X;X;X;X;X      %     O a c B G E Y I _ M.}.%X%X%X$X%X%X%X%XXXXX%X%X%X).Q.c.L r @   o       ;X;X;X;X;X;X;X;X;X;X;X;X;X;X;X",
";X;X;X;X;X;X;X          % h C L L L L E ~ Y 7.G.).!.!.).[.).{.}.$X}.}.}.}.}.}.}.).}.G.] r % o       ;X;X;X;X;X;X;X;X;X;X;X;X;X;X",
";X;X;X;X;X;X        O u V K I E E E L S M z r 0 0 0 h M C C C Z A S S H L L H G F K E ^ ] f           ;X;X;X;X;X;X;X;X;X;X;X;X;X",
";X;X;X;X        O O c H L ~ H B z 5 : % o   %     o   @ @ o O O O o   O o o O % O % @ @ % % o             ;X;X;X;X;X;X;X;X;X;X;X",
";X;X;X;X    O O : M E E S c > O O o o     o 2 0 c M z r 4 5 5 8 6 5 < % % % : < % % % O   @ o     o O     ;X;X;X;X;X;X;X;X;X;X;X",
";X;X;X    O   u A E L v 3 % O $ = 5 l c M S G L ~ D.T.G.G.G.J.J.G.F.C.b.b.b.C.A.C.M.s.w...A c u = o % O o   ;X;X;X;X;X;X;X;X;X;X",
";X;X    O   l L E K c % o O a M S K K K Q E E E I o.Z.}.%X%X%X%X%X%X}.%X%X%X%X%X$XoXG.9.+.*.:.6.6.W r O o     ;X;X;X;X;X;X;X;X;X",
";X      @ a H Y E M %   r B F E / I K H A C C C V A K r.}.%X%X%X%X%X%X%X%X%X%X}.c. .v a 6 = 0 a m O.-.2 o   O ;X;X;X;X;X;X;X;X;X",
";X      8 H H E I c O 0 F Q L R J G Z C B n c c z c B D +.R.%X%X%X%X%X%X%X%X^.O.v 5 % @       O   : c v % O     ;X;X;X;X;X;X;X;X",
"    O   Z E E E E H B H I Q Q J S B c e : O o @ O o : d M ~ T.@X%X%X%X%X%X!.Y r % o O 0 c B n d - O O h z O       ;X;X;X;X;X;X;X",
"    O r L L Y E E E ~ L I I J S N 8 = @ $ O : < < %     % z ` {.%X%X%X%X%X*.a @ % r } C.J.%X).M.%.d O % l a O     ;X;X;X;X;X;X;X",
"  O   b L Y Y E E E I E K E Z m 5 $ $ l I 9.g.C.A.9.Z 2 O % z c.%X%X%X%XT.B >   m M.}.%X%X%X}.}.}.b.b % % c %   o   ;X;X;X;X;X;X",
"O O $ F R L Y Y E E E E Q J V 5 @ 2  .D.%X@X}.}.{.}.!.6.d $ = ~ %X%X%X%Xg.h O 8 A.%X%X%X%X%X%X%X%X%XM.0 o f u o   o   ;X;X;X;X;X",
"O   5 H Y Y E Y R E E Q R S c @ : 1.[.%X%X%X}.Z.u.c.^.^.g.8 O z E.%X%X%Xg.r O x [.%X%X%XT.o.c x ~ ).w.,   z n & o     ;X;X;X;X;X",
"O o 0 ~ Y E E E E E R E Q S c o 2 u.@X@X%X%XO.y : 0 O.XX}.z $ r s.%X%X%Xc.r O 8 u.}.%X%X6.% % % 0 g.z % 5 m Z m O o o   ;X;X;X;X",
"    e Y E E E E Q E E E K C N 8 @ N $X%X%XI.8 O     m XXc.r O a y.%X%X%XA.0   @ u f.}.oXw.% $ $ h S $ : c N V r.h o o   ;X;X;X;X",
"    r Y E E E Y E Q E Q K C N z - : 3.}.$XI.6     o G -.p % O 8 z.%X%X%X%XC     % g >.].^.~ B K H < o u C V B t.=.=       ;X;X;X",
"  O r R E E E E E Q Q Q K m < a 0 @ u ,.^.XX,.b g z m > @   % x A.%X%X%X}.i.5     O 5 A s.J.A.( 5 $ 0 M M V B r.T.y o     ;X;X;X",
"O   r L E E E E Q E Q Q I c $ : c 2 % 2 S _ Q K l 5 O o O O O D }.%X%X%X).].B O O   % % r d d $ o < M v 2 l V t.@XG O       ;X;X",
"  O u L E E E E E E Q Q K V 8 O a v = O % % O O O $ 2 % @ : r ] %X%X%X%X%X%Xu.6 % O O $ @ $ o o 3 m V 5 $ 0 Z B.[.9.O O     ;X;X",
"O   2 Y E E Y E R E Q E R A c   o c m p 5 5 4 5 u z a $ O r d 6.%X%X%X%X%X%X).B a % O O d d d z M C z o % h S W.%XT.r O o   ;X;X",
"  O : D L Y L E E R Q R Q B M 0 @ < c M V M m B N c =   8 l m m.%X%X%X%X%X%X%Xs.l a   % r m B Z V c : $ 0 m _ {.}.XXF     O o ;X",
"o   O A L L Y L E E Q R Q G z n 4 @ : r M N B m a = o 5 c y ~ [.%X%X%X%X%X%X%X}.Z c r O $ 2 p h p = O : v M Z.%XXX%Xi.% O     ;X",
"  O   C Y Y L Y Y E Q Q R R A z v 5 % @ : e 0 : @   0 v l Z >.%X%X%X%X%X%X%X%X%XZ.v m 0 @ o $ O @ @ @ c n 1.XXXX%X@XI.0 o     ;X",
"O O O m Y L Y L R R R Q R R L V l v l O % @ O   $ p m z B Q J.%X%X%X%X%X%X%X%X%X).x.n n z 5 $ $ : q n m -.[.}.%X%X%X}.b O   o ;X",
"  O   z L Y L Y R R R Q Q R R L S z v m g 0 r d m V z S G 7.%X%X%X%X%X%X%X%X%X%X%X%XD.x.x.-.` ` @.7.j.x.%X%X%X%X%X%X%XL   o   ;X",
"    o r Y L Y L R R E R Q Q I I K G m C A A Z D I H S K +.T.%X%X%X%X%X%X%X%X%X%X%X%X%X%XXXXXXX%X%X%XXXXX%X%X%X%X%X%X%X>.O O     ",
"      % D E L Y Y I R R ~ G z B Q Q Q I I K L L L L ~ ( J.%X%X%X%X%X%X%X%X%X%X%X%X%X%X%X%X%X%X%X%X%X%X%X%X%X%X%X%X%X%XZ.2   o   ",
"      % n R L I L L R R Q v o y Q I Q Q Q Q I I I L ~ g.%X%X%X%X%X%X%X%X%X%X%X%X%X%X%X%X%X%X%X%X%X%X%X%X%X%X%X%X%X%X%X].z O o   ",
";X      r E L L Y L R R G 5 O c Q I Q Q I Q Q L L ` g.}.%X%X%X%X%X%X%XXX%X%X%X%XXXXX%X%X%X%X%X$X%X%X).%X%X%X%X%X%X%X%X%XM o     ",
";X      O V L I L Y R R c @ < G Q Q Q Q Q Q L ~ =.N.%X%X%X%X%X$X}.}.^.!.G.M.C.M.Z.H.W.%X%X%X%X%X%X(.+.Z.%X%X%X%X%X%X%X%XH   o   ",
";X      o r Q L Y Y L K 5 % b E I I I I I ~  .A.[.%X%X%XR.Z.7.( S V m c a p u u a z v M S ] l.R.XXXX2._ A.%X%X%X%X%X%X%X..  o   ",
";X;X      O C L I I I m O 8 o.K K I I Q Q @.G.}.B.s.$.E m a % O o @ o O O $ O @ O O O % @ % 8 n O.g.x./ } R.%X%X%X%X%X%X8.@     ",
";X;X      @ f K L E L h   M u.R R | x.j.d.c.o.M h O $ o   O @ : 5 y u h c M V B n l a u e = % O $ : p p V r.%X$X%X%X%X%X7.o   o ",
";X;X;X  o   % V Q E K 2 % O.w.I R x.v.] b 0 @ @ o @ $ < r v / 6.j.v.B.G.[.%X}.}.oXT.G.A.x.&.B e = @ @ @ < S (.[.%X%X%X%X*.o     ",
";X;X;X      O r Q Q H % % j.r.K K F e O O O $ 0 z H %.u.N.).%X%X%X%X%X%X%X%X%X%X%X%X%X%X%X%X%XC.,.} M % O < &.}.%X%X%X%X..O     ",
";X;X;X;X  O   % Z I A O 0 B.4.b 5 $ o : u b  .j.}.%X%X%X%X%X@X@X%X%X%X%X%X%X%X%X%X%X%X%X%X%X}.%X%X^.R.@.5 % 0 m.%X%X%X%XH O     ",
";X;X;X;X        s I Z o r W.3.$ o < l  .m.%XXXXX%X%X^.T.!.I.I.I.F.T.[.%X%X%X%X%X%X%X%X%X%X%XXX%X}.[.%X}.{ $ % ~ %X%X%X%XV O o   ",
";X;X;X;X;X      @ Z Z @ < M.l.r 0 ..G.%X@X[.U.N.l.q.@./ _ ( ~ ~ ! _ o.F.%X%X%X%X%X%X%X%X%X%XC.%.~ Y ~ I M o   I %X%X%X%Xz   o   ",
";X;X;X;X;X    O @ 0 G : o _ W.I I m.@XD.1.&.[ Q I K K I I I I Q E I I &.%X%X%X%X%X%X%X%X%XT.z = o o O $ @ % e c.%X%X%XJ.e O     ",
";X;X;X;X;X;X    @ $ m c @ a C.r.I ] x./ Q Q K I Q I I I I I I Q I Q Q 6.%X%X%X%X%X%X%X%X[...$ o < 2 : : : p ,.%X%X%X%Xi.O O     ",
";X;X;X;X;X;X    O O 7 S < O M x._ ^ ~ Q Q R I I I Q I Q I Q Q I Q Q / H.%X%X%X%X%X%X%X%Xg.8 O a 2.i.q.-.K b.%X%X%X%X}.` o     ;X",
";X;X;X;X;X;X;X      @ V v $ % d S L R Q I I I I I Q I Q I Q I I Q I Q r.%X%X%X%X%X%X%XF.z $ : =.%X}.[.c.m.%X%X%X%X%X].v O o   ;X",
";X;X;X;X;X;X;X  O   O r F z %   % c Q R R R Q I I Q Q Q Q Q Q Q Q Q Q ~ j.}.%X%X%X%X).M $ $ D {.%X%X%X%X%X%X%X%X%X%XG.2 o     ;X",
";X;X;X;X;X;X;X;XO   O O f I M 7 O 5 E Q I I Q I Q I Q Q I Q Q Q Q I Q E Q #.j.I.E.B.G : o 0 m.%X%X%X%X%X%X%X%X%X%X%X=.O   o   ;X",
";X;X;X;X;X;X;X;X;X      @ v L S v S I I I I I I I Q I Q Q Q I S h f z v S H Y I Q V <   5 ~ }.%X%X%X%X%X%X%X%X%X%X%Xm o o   ;X;X",
";X;X;X;X;X;X;X;X;X      @ : m E I I I I I I I R I I Q I I Q L z o o @ O : 0 d h f <     v l.%X$X%X%X%X%X%X%X%X%X%XJ.2 o o   ;X;X",
";X;X;X;X;X;X;X;X;X;X      O , K K K I K L I L I I I Q Q Q Q L N 5 : : $ @   O   O O % v o.[.%X%X%X%X%X%X%X%X%X%X%X..O       ;X;X",
";X;X;X;X;X;X;X;X;X;X;X    @   a J K L L L L L L I Q I Q Q I I Q J G G m d 4 : % : r m Q b.%X%X%X%X%X%X%X%X%X%X%X!.h O o   ;X;X;X",
";X;X;X;X;X;X;X;X;X;X;X;X    O o 5 M Q ~ L L L L E Q Q I Q Q Q Q Q Q Q I I K D D H L H { }.%X%X%X%X%X%X%X%X%X%X%XL %   o   ;X;X;X",
";X;X;X;X;X;X;X;X;X;X;X;X;X      o $ z S I I R I I I I Q Q I Q Q I Q Q I Y I L L L L H q.%X%X%X%X%X%X%X%X%X%X%X+.:       ;X;X;X;X",
";X;X;X;X;X;X;X;X;X;X;X;X;X;X        o < M H K I E I Q I R R Q Q Q Q Q Q I I I I Y I ! J.%X%X%X%X%X%X%X%X%X%X*.2         ;X;X;X;X",
";X;X;X;X;X;X;X;X;X;X;X;X;X;X;X    o o o O 0 B R I R I R R Q Q Q Q Q Q Q Q I I I I Y w.XX%X%X%X%X%X%X%X%X%X6.< O       ;X;X;X;X;X",
";X;X;X;X;X;X;X;X;X;X;X;X;X;X;X;X      o o o % r v C D I R I I Q Q Q Q Q Q Q I Q I %.%X%X%X%X%X%X%X%X%X}.k.8 O o     ;X;X;X;X;X;X",
";X;X;X;X;X;X;X;X;X;X;X;X;X;X;X;X;X;X  o o o O o     : 0 c D I E I Q Q Q Q Q Q I ] U.%X}.%X%X%X%X%X%XA.] r O       ;X;X;X;X;X;X;X",
";X;X;X;X;X;X;X;X;X;X;X;X;X;X;X;X;X;X;X;X    @     @   O O $ 5 d v B Z G K Q Q ` Z.%X%X%X%X].B.=.~ c 4   O o     ;X;X;X;X;X;X;X;X",
";X;X;X;X;X;X;X;X;X;X;X;X;X;X;X;X;X;X;X;X;X                O @   O O O % > 0 s Z ( E H H F c : o o   o o       ;X;X;X;X;X;X;X;X;X",
";X;X;X;X;X;X;X;X;X;X;X;X;X;X;X;X;X;X;X;X;X;X;X;X          o     O @   @         o o o   o o o o   @         ;X;X;X;X;X;X;X;X;X;X",
";X;X;X;X;X;X;X;X;X;X;X;X;X;X;X;X;X;X;X;X;X;X;X;X;X;X;X;X              o o @   o   O       o   o         ;X;X;X;X;X;X;X;X;X;X;X;X"
};
