/* XPM */
static char *frame_59_delay_0_4s1763316734[] = {
/* columns rows colors chars-per-pixel */
"64 64 192 2 ",
"   c black",
".  c #010101",
"X  c #020202",
"o  c gray1",
"O  c #040404",
"+  c gray2",
"@  c #040406",
"#  c #060606",
"$  c #070707",
"%  c gray3",
"&  c #090909",
"*  c gray4",
"=  c #0B0B0B",
"-  c #0C0C0C",
";  c gray5",
":  c #0E0E0E",
">  c gray6",
",  c #101010",
"<  c #111111",
"1  c gray7",
"2  c #131313",
"3  c #151515",
"4  c #161616",
"5  c gray9",
"6  c #181818",
"7  c #191919",
"8  c gray10",
"9  c gray11",
"0  c #1D1D1D",
"q  c #1E1E1E",
"w  c gray12",
"e  c #202020",
"r  c #222222",
"t  c #232323",
"y  c gray14",
"u  c gray15",
"i  c #282828",
"p  c #2A2A2A",
"a  c #2C2C2C",
"s  c #2D2D2D",
"d  c #2F2F2F",
"f  c gray19",
"g  c #313131",
"h  c #323232",
"j  c #323136",
"k  c gray22",
"l  c #3A3A3A",
"z  c #3D3C41",
"x  c gray28",
"c  c #494949",
"v  c #4A494E",
"b  c #4F4F50",
"n  c gray33",
"m  c #54535B",
"M  c gray35",
"N  c #5C5C5E",
"B  c #5E5D64",
"V  c #606060",
"C  c #626166",
"Z  c gray40",
"A  c #68676B",
"S  c gray42",
"D  c gray43",
"F  c #707072",
"G  c gray45",
"H  c #747378",
"J  c #787779",
"K  c gray48",
"L  c #7B7B7B",
"P  c #7A7A7C",
"I  c #7B7B7D",
"U  c #7C7C7C",
"Y  c gray49",
"T  c #7D7C7F",
"R  c #7E7E7E",
"E  c gray50",
"W  c #7E7D80",
"Q  c #808083",
"!  c #838384",
"~  c gray53",
"^  c #848388",
"/  c #888888",
"(  c #898989",
")  c #8B8B8B",
"_  c gray55",
"`  c #8D8D8D",
"'  c #8E8E8E",
"]  c #8C8B90",
"[  c gray57",
"{  c #939393",
"}  c #959595",
"|  c #929198",
" . c #979699",
".. c #9A9A9A",
"X. c #9A999E",
"o. c gray61",
"O. c #9D9CA1",
"+. c #A1A0A3",
"@. c #A2A2A2",
"#. c #A4A4A6",
"$. c #A7A6A7",
"%. c #A7A7AA",
"&. c #AAAAAA",
"*. c #ADADB0",
"=. c #B0AFB3",
"-. c #B1B0B7",
";. c #B4B4B4",
":. c #B5B4B8",
">. c #B8B7BA",
",. c gray73",
"<. c #BBBBBD",
"1. c #BAB9BF",
"2. c #BCBCBC",
"3. c gray75",
"4. c #BDBCC0",
"5. c #C0BFC2",
"6. c #C1C1C3",
"7. c #C3C3C3",
"8. c #C3C2C5",
"9. c #C5C5C6",
"0. c #C6C6C6",
"q. c #C4C3C9",
"w. c #C8C7CA",
"e. c #CACACA",
"r. c #CAC9CC",
"t. c #CCCBCE",
"y. c #CDCDCE",
"u. c gray81",
"i. c #CFCFD2",
"p. c #D1D0D1",
"a. c #D1D0D3",
"s. c LightGray",
"d. c #D3D3D5",
"f. c gray83",
"g. c #D6D5D7",
"h. c #D8D8D8",
"j. c #DADADB",
"k. c #DCDBDC",
"l. c #DDDDDD",
"z. c #DFDFDF",
"x. c #DEDEE0",
"c. c #E1E0E1",
"v. c #E1E1E1",
"b. c #E1E1E3",
"n. c #E2E2E2",
"m. c #E3E3E5",
"M. c #E4E4E6",
"N. c #E6E5E6",
"B. c #E7E7E7",
"V. c #E6E5E9",
"C. c gray91",
"Z. c #EAEAEA",
"A. c #EAE9EC",
"S. c #EBEAEF",
"D. c #ECEBEE",
"F. c #EDECED",
"G. c gray93",
"H. c #EEEEEE",
"J. c #F0EFF2",
"K. c #F1F1F3",
"L. c gray95",
"P. c #F3F3F3",
"I. c #F2F1F5",
"U. c #F3F3F4",
"Y. c #F4F3F6",
"T. c #F4F4F4",
"R. c gray96",
"E. c #F5F4F7",
"W. c #F6F6F6",
"Q. c #F7F6F7",
"!. c gray97",
"~. c #F6F5F8",
"^. c #F7F6F9",
"/. c #F6F5FB",
"(. c #F8F7FA",
"). c #F8F8F8",
"_. c #F9F9F9",
"`. c #FAF9FA",
"'. c gray98",
"]. c #FBFAFB",
"[. c #FBFBFB",
"{. c #F9F8FC",
"}. c #FAFAFE",
"|. c #FCFBFC",
" X c #FCFBFF",
".X c gray99",
"XX c #FDFCFD",
"oX c #FDFDFD",
"OX c #FEFDFF",
"+X c #FEFEFE",
"@X c white",
"#X c None",
/* pixels */
"#X#X#X#X#X#X#X#X#X#X#X#X#X#X#X#X#X#X#X                                        #X#X#X#X#X#X#X#X#X#X#X#X#X#X#X#X#X#X#X#X#X#X#X#X#X",
"#X#X#X#X#X#X#X#X#X#X#X#X#X#X#X                                                        #X#X#X#X#X#X#X#X#X#X#X#X#X#X#X#X#X#X#X#X#X",
"#X#X#X#X#X#X#X#X#X#X#X#X#X                      o O O O   O   O O                         #X#X#X#X#X#X#X#X#X#X#X#X#X#X#X#X#X#X#X",
"#X#X#X#X#X#X#X#X#X#X#X                          % 7 y h x c c f 3 : O %                     #X#X#X#X#X#X#X#X#X#X#X#X#X#X#X#X#X#X",
"#X#X#X#X#X#X#X#X#X          O     % % f b b M D h.L.Y.(.!.!.].W.J.b.s.*.^ D n i % O   o o         #X#X#X#X#X#X#X#X#X#X#X#X#X#X#X",
"#X#X#X#X#X#X#X#X      %     O i z M F R U P ( h.'..X.X.X.X]..X.X.X'.]..X.X.XU.U.a.J e o O o         #X#X#X#X#X#X#X#X#X#X#X#X#X#X",
"#X#X#X#X#X#X#X          % f V K K K K R Q R :.N.P.L.J.W.W.W.W.'.].].(.].'.'.'.'.W.'.N._ e O         #X#X#X#X#X#X#X#X#X#X#X#X#X#X",
"#X#X#X#X#X          O y V J P R U R K A n l e q q 9 f b V V V C Z Z A F K K F D D J E ( _ s             #X#X#X#X#X#X#X#X#X#X#X#X",
"#X#X#X#X    o   O O z G K ! G n l 7 > % o   $     O   O O O O O % O   O O   % % O % O O % $ O             #X#X#X#X#X#X#X#X#X#X#X",
"#X#X#X    O     : n U R S z , O O O       O 3 7 z n l e 3 3 3 7 3 3 , % % % : , % % % O o o o     o         #X#X#X#X#X#X#X#X#X#X",
"#X#X#X        i Z U K c 3 % O $ * 7 j z n A G K ! b.G.N.N.N.C.C.N.b.z.f.f.f.l.b.k.h.0.3.{ Z z y - O O O o   #X#X#X#X#X#X#X#X#X#X",
"#X#X    O   j K R J z % o O i n A J J J W R R R K } x.'..X.X.X.X.X.X]..X.X.X.X.X[.W.N.,.O.%.&.,.;.E t O o     #X#X#X#X#X#X#X#X#X",
"#X      O i G U R b $ o e M D R ^ R J F C V V V N Z J 3.'..X.X.X.X.X.X.X.X.X].'.s.{ c y 7 % q y b ..&.2 o     #X#X#X#X#X#X#X#X#X",
"        7 G G R R z O q D W P U H D C V M b z z l z M A o.G..X.X.X.X.X.X.X.XP...c 3 % O     O O   , z x O O     #X#X#X#X#X#X#X#X",
"    O o C R R R R G n G P W W H Z M z e : O o O O   : s n Q G..X.X.X.X.X.XL.P e % O O q z M v i : % O f l O       #X#X#X#X#X#X#X",
"    O e K K U R R R ! J P U H S m 7 - O % O : , , :     % l _ W..X.X.X.X.X%.i O % e { l.C.|.W.h.@.s O O f a O       #X#X#X#X#X#X",
"      c K K R R R R W W J W C v 3 % % j P ,.e.l.l.>.C , O - l s..X.X.X.XC.N >   n h.'..X.X.X.X.X'.f.c %   l %       #X#X#X#X#X#X",
"O O % S R K K R R R R W W J B 4 O 2 | b..X'.W.'.'.'.W.>.i O % ~ .X.X.X.Xe.f O 6 c..X.X.X.X.X.X.X.X].h.q O f y O   O   #X#X#X#X#X",
"O O 3 K K R R R U R E W W Z z O : *./.|..X.X(.l.5.a.L.U.t.7 O j J..X.X.Xe.y O l W.|..X.XG. .z l Q W.2.%   l b O O     O #X#X#X#X",
"% o q W R R R K R R E W W Z z O 3 6..X|..X.X..t : q ..|.].l O e 0..X.X.Xy.e O 7 3./..X.X:.% $ % 9 w.k O 4 b C n o       #X#X#X#X",
"    q R R R K R W R R R J B m 7 O m |.|.|.A.7 $     v '.a.e O i 6..X.X.Xb.q     y e.'.'.3.$ O $ j Z % : z N Z 1.f O     #X#X#X#X",
"    e K R R R W R R U R H B m k - > -.}.|.A.7       G &.y % $ 8 y..X.X.X].V   O $ d *.'.L.( M J J -   y V C B 4.%.$ o     #X#X#X",
"  O e R R R R R W W R W H b < i 9 @ y *.J.|.*.v f l b ,   O % l m..X.X.X'.8.3     O 3 Z 0.C.m.^ q O 7 n m B M 4.S.y O     #X#X#X",
"O   e K R R R R U R W R P z $ : z 2 % 2 Z ( ! H j 3 O O O O $ S !..X.X.XW.'.M O O   O % e s s $ O , n c 2 j N q.|.D O       #X#X",
"  O e K R R R R R R W W J N 7 @ a x * $ & & O - O O 2 & O > e ] .X.X.X.X.X.X8.3 % O $ @ o $ o o 7 v B < $ 9 B k.(.>.O O     #X#X",
"O   2 Q U R U R W W W W U Z z   o z b i 3 3 2 3 y k i & O y s ,..X.X.X.X.X.X/.M i % $ o d p p k n N j o - f Z J.}.Y.t O     #X#X",
"    - D K U K R R R W W P M n 9 @ < z m N m v B m z =   7 f b h..X.X.X.X.X.X.X0.j i O O t b M C N z > @ q b ^ |..X.XA     o   #X",
"O O O Z K K U K R R W W W F l v 2 $ $ q n m M b i :   6 z y Q W..X.X.X.X.X.X.X'.C z e O $ < i d s % O : x n k.}..X.X8.- O o   #X",
"  O   V U U K U U W W W W W Z k x 4 % $ : e q * O   q x j C *..X.X.X.X.X.X.X.X.Xl.c n 7 O @ $ $ o % % z v =.{.{.|.|.F.9 o %   #X",
"  O O b U K U K W U P W W W J B j v f $ % O @ @ % i b l n W C..X.X.X.X.X.X.X.X.X/.i.v v k 4 $ $ , t v b %.(.{.{.|.|.(.c o o   #X",
"  O   k K U K U W W W W W W P P A k c b f q t p v N l A H :.}..X.X.X.X.X.X.X.X.X.X.Xc.a.i.%._ _ O.4.s.i.|.|.|.}.|.|..XK o O     ",
"  O O e U K U K W P W W P W U P J F b V Z Z C D P G Z J o.G..X.X.X.X.X.X.X.X.X.X.X.X.X.X|.|.{.{.|..X|.}..X.X|.|.|.}..X*.  O     ",
"o     : G R K K P P P W W G k M W W W W P K J K J P Q ^ V..X.X.X.X.X.X.X.X.X.X.X.X.X.X.X.X.X.X.X.X.X.X.X.X.X.X.X.X.X.Xb.2       ",
"        b W K K P P W W W x o y W P W W W P W W K U Q t..X.X.X.X.X.X.X.X.X.X.X.X.X.X.X.X.X.X.X.X.X.X.X.X.X.X.X.X.X.X.X}.l O O   ",
"      o y G K K P W U W H 3 $ z P W W W W P Q K P _ y./..X.X.X.X.X.X.X|..X.X.X.X.X.X.X.X.X.X.X.X.X}.W..X.X.X.X.X.X.X.X.Xn O     ",
"#X      O N K K P P W W z O 2 F W W U W W W K Q $.k..X.X.X.X.X.X.X}.Y.J.V.h.l.l.x.V.J./..X.X.X.X.XU.o.b..X.X.X.X.X.X.X.XG o o   ",
"#Xo     o t U K P P U P 4 $ x W P W P P J W  .c.(..X.X|.G.x.1.^ A M v z i i y i i k x n Z ] t.J.}..X;.( m.|..X.X.X.X.X.X}       ",
"#X#X  o O $ V P P P J b $ 7  .J P P P W W O.m.(.k.0.+.W b i $ O @ @ O $ O % % O $ O $ $ O $ 4 b o.w.y.^ [ J..X.X.X.X.X.X:.O     ",
"#X#X      o a J P P J d o b 5.U U [ i.r.t.i. .n f O $ O   @ O : 7 t y f z n M M v j i y q : % $ $ < y i V 4..X|..X.X.X.X:.O     ",
"#X#X#X  o o * M W W J 2 $ o.5.U W i.d._ x q $ O O $ $ , t x ^ :.r.d.k.N.L.(.{.}.(.G.m.c.y.$.M q : O O $ : S U.|..X.X.X.X$.O O   ",
"#X#X#Xo   o o t W W G % % w.4.J J S e $ o $ O q k H #.8.h.W..X.X.X.X.X.X.X.X.X.X.X.X.X.X.X.X}.k.=.[ n % $ , #.}..X.X.X.Xo.o     ",
"#X#X#X#X      % C W Z O 9 k.;.c 4 $ O - y x [ r.W.|..X.X.X.X.X.X.X.X.X.X.X.X.X.X.X.X.X.X.X.X|..X|.U.J.O.7 O q h..X.X.X.XJ O o   ",
"#X#X#X#X  O o   i U C O e J.=.$ o 1 j { h..X|.{..X.XJ.J.U.J.A.A.m.G.(..X.X.X.X.X.X.X.X.X.X.X}.|..X/.|.{._ $ $ Q .X.X.X.XM O     ",
"#X#X#X#X#X      O C C O , h.i.e 9 } V.|.|.E.A.j.i.,.O.^ ( ^ ! ! ! (  .m..X.X.X.X.X.X.X.X.X.Xl.+.! K ! U n O   P .X.X.X.Xl O o   ",
"#X#X#X#X#X  o   O q D , O ( J.U P h.|.c.:.#.] W P P P P P J P W P P W %..X.X.X.X.X.X.X.X.XG.l - O O O $ $ % q i..X.X.XA.q       ",
"#X#X#X#X#X#X    O - b z % i l.4.P _ i.^ W W J U W P P U P J P W W P W ;..X.X.X.X.X.X.X.X/.} % O , 2 > > - i *.|..X.X.X8.o o   o ",
"#X#X#X#X#X#X    O O q A 2 - b t.( ^ W Q W U P W P W P P P W P P P U ^ N..X.X.X.X.X.X.X.Xe.7 O i ;.8.,.&.H h..X.X.X.X'.] O O     ",
"#X#X#X#X#X#X#X  O   O V z O % h C P W W P P P W P W W W W P W W W W W 4..X.X.X.X.X.X.XV.k $ : %..X'.Y.a.h.|..X.X.X.X/.z O     #X",
"#X#X#X#X#X#X#Xo     O t D z $ o % z W W W P P W P P W W W W W W W P W ! w.'..X.X.X.XW.n % % A '..X.X.X.X.X.X.X.X.X.XN., o     #X",
"#X#X#X#X#X#X#X#X  o O O i U b 4 % 3 W U W W P W W U W P W P W P W W W W P +.t.S.L.h.H : O q h..X.X.X.X.X.X.X.X.X.X.X%.O o   o #X",
"#X#X#X#X#X#X#X#X#X      O v H D c Z P P J P P K P W W W W W P C s d k x S H W P R V 3   3 ^ |..X.X.X.X.X.X.X.X.X.X.Xn $ o   #X#X",
"#X#X#X#X#X#X#X#X#X    o O > b W W P P J P P P P P P P W U W P l O o o $ : q i f s <     x y..X}..X.X.X.X.X.X.X.X.XC., O     #X#X",
"#X#X#X#X#X#X#X#X#X#X      O , K P J J K J P P P P W W W P W J M 4 > : O O   $   O o O x } E..X.X.X.X.X.X.X.X.X.X.X} %       #X#X",
"#X#X#X#X#X#X#X#X#X#X#X  o   @ p H J P K J P P P P W P W P W W W H H D b s 2 : % - t b W f.|.|..X.X.X.X.X.X.X.X.XL.j O     #X#X#X",
"#X#X#X#X#X#X#X#X#X#X#X#X        3 M W ! P K R P W P W P P W P W W W P W J J S D H J G ] }..X.X.X.X.X.X.X.X.X.X|.K % O     #X#X#X",
"#X#X#X#X#X#X#X#X#X#X#X#X#X    o $ $ l A P P P P P P W P W W W W W W U W P P K J P K G 4..X.X.X.X.X.X.X.X.X.X|.o.,   o   #X#X#X#X",
"#X#X#X#X#X#X#X#X#X#X#X#X#X#X      o   , n H J P W P W P P W W W W W W W W P P P K U Q V.|..X.X.X.X.X.X.X|.}.%.2         #X#X#X#X",
"#X#X#X#X#X#X#X#X#X#X#X#X#X#X      o   O o 7 M P P P W W W W W W W W W P W P P J P P ,.|..X.X.X.X.X.X.X.X.X;., O       #X#X#X#X#X",
"#X#X#X#X#X#X#X#X#X#X#X#X#X#X#X#X          O $ t x B S P U P P W W W W W W U W P U #..X.X.X.X.X.X.X.X.X'.t.7 $ O     #X#X#X#X#X#X",
"#X#X#X#X#X#X#X#X#X#X#X#X#X#X#X#X#X#X  o O   O O o   > 8 z S R W W W W W W W W P _ H..X]..X.X.X.X.X|.b._ e O       #X#X#X#X#X#X#X",
"#X#X#X#X#X#X#X#X#X#X#X#X#X#X#X#X#X#X#X    o o     o o o   O 7 i x M C D J W W _ l..X.X.X}.{.l.%.! x 2   O   O   #X#X#X#X#X#X#X#X",
"#X#X#X#X#X#X#X#X#X#X#X#X#X#X#X#X#X#X#X#X#X              o o o   O O $ - 2 8 i C ( W H G D z : o O O o o       #X#X#X#X#X#X#X#X#X",
"#X#X#X#X#X#X#X#X#X#X#X#X#X#X#X#X#X#X#X#X#X#X#X                o o o o     O     o o o     o   o   o o       #X#X#X#X#X#X#X#X#X#X",
"#X#X#X#X#X#X#X#X#X#X#X#X#X#X#X#X#X#X#X#X#X#X#X#X#X#X#X                O       O   o       o o o           #X#X#X#X#X#X#X#X#X#X#X"
};
