/* XPM */
static char *frame_09_delay_0_05s1763316729[] = {
/* columns rows colors chars-per-pixel */
"64 64 172 2 ",
"   c black",
".  c #010101",
"X  c #020202",
"o  c gray1",
"O  c #040404",
"+  c gray2",
"@  c #060606",
"#  c #070707",
"$  c gray3",
"%  c #090909",
"&  c gray4",
"*  c #0B0B0B",
"=  c #0C0C0C",
"-  c gray5",
";  c #0E0E0E",
":  c gray6",
">  c #101010",
",  c #111111",
"<  c gray7",
"1  c #131313",
"2  c gray8",
"3  c #151515",
"4  c #161616",
"5  c gray9",
"6  c #181818",
"7  c #191919",
"8  c gray10",
"9  c gray11",
"0  c #1D1D1D",
"q  c #1E1E1E",
"w  c gray12",
"e  c #202020",
"r  c #222222",
"t  c #232323",
"y  c gray14",
"u  c gray15",
"i  c #272727",
"p  c #282828",
"a  c #2A2A2A",
"s  c #2C2C2C",
"d  c #2D2D2D",
"f  c #2F2F2F",
"g  c gray19",
"h  c #313131",
"j  c #323232",
"k  c #323136",
"l  c gray22",
"z  c #3A3A3A",
"x  c #3D3C41",
"c  c gray28",
"v  c #494949",
"b  c #4A494E",
"n  c #4F4F50",
"m  c gray33",
"M  c gray35",
"N  c #5C5C5E",
"B  c #606060",
"V  c #626166",
"C  c gray40",
"Z  c #68676B",
"A  c gray42",
"S  c gray43",
"D  c #707072",
"F  c gray45",
"G  c #787779",
"H  c gray48",
"J  c #7B7B7B",
"K  c #7C7C7C",
"L  c gray49",
"P  c #7E7E7E",
"I  c gray50",
"U  c #808083",
"Y  c #838384",
"T  c #868686",
"R  c gray53",
"E  c #888888",
"W  c #898989",
"Q  c gray54",
"!  c #8B8B8B",
"~  c gray55",
"^  c #8D8D8D",
"/  c #8E8E8E",
"(  c gray57",
")  c #939393",
"_  c gray58",
"`  c #959595",
"'  c #979699",
"]  c #9A9A9A",
"[  c gray61",
"{  c gray62",
"}  c #A0A0A0",
"|  c gray63",
" . c #A2A2A2",
".. c #A4A4A6",
"X. c #A7A6A7",
"o. c #A9A9A9",
"O. c #AAAAAA",
"+. c gray67",
"@. c #ACACAC",
"#. c #AEAEAE",
"$. c gray69",
"%. c #B4B4B4",
"&. c gray71",
"*. c #B6B6B7",
"=. c #B8B7BA",
"-. c gray73",
";. c #BCBCBC",
":. c gray74",
">. c gray",
",. c gray75",
"<. c #C0C0C0",
"1. c #C1C1C1",
"2. c #C3C3C3",
"3. c #C5C5C5",
"4. c #C6C6C6",
"5. c gray78",
"6. c #C8C8C8",
"7. c gray79",
"8. c #CACACA",
"9. c gray80",
"0. c #CDCDCE",
"q. c gray81",
"w. c #D1D0D1",
"e. c #D2D2D2",
"r. c LightGray",
"t. c gray83",
"y. c #D5D5D5",
"u. c #D6D5D7",
"i. c #D8D8D8",
"p. c #DADADB",
"a. c #DDDDDD",
"s. c #DFDFDF",
"d. c #E1E0E1",
"f. c #E1E1E1",
"g. c #E2E2E2",
"h. c gray89",
"j. c #E4E4E4",
"k. c #E6E5E6",
"l. c #E7E7E7",
"z. c gray91",
"x. c #E9E9E9",
"c. c #EAEAEA",
"v. c gray92",
"b. c #ECECEC",
"n. c gray93",
"m. c #EEEEEE",
"M. c #EFEEEF",
"N. c #EFEFEF",
"B. c gray94",
"V. c #F1F1F1",
"C. c gray95",
"Z. c #F3F3F3",
"A. c #F4F3F4",
"S. c #F4F4F4",
"D. c gray96",
"F. c #F6F6F6",
"G. c #F7F6F7",
"H. c gray97",
"J. c #F8F8F8",
"K. c #F9F8F9",
"L. c #F9F9F9",
"P. c #FAF9FA",
"I. c gray98",
"U. c #FBFAFB",
"Y. c #FBFBFB",
"T. c #FCFBFC",
"R. c gray99",
"E. c #FDFCFD",
"W. c #FDFDFD",
"Q. c #FEFEFE",
"!. c white",
"~. c None",
/* pixels */
"~.~.~.~.~.~.~.~.~.~.~.~.~.~.~.~.~.~.~.~.  ~.  ~.  ~.      ~.  ~.  ~.  ~.  ~.~.~.~.~.~.~.~.~.~.~.~.~.~.~.~.~.~.~.~.~.~.~.~.~.~.~.",
"~.~.~.~.~.~.~.~.~.~.~.~.~.~.~.~.~.~.                                            ~.~.~.~.~.~.~.~.~.~.~.~.~.~.~.~.~.~.~.~.~.~.~.~.",
"~.~.~.~.~.~.~.~.~.~.~.~.~.~.~.                                O o                     ~.  ~.~.~.~.~.~.~.~.~.~.~.~.~.~.~.~.~.~.~.",
"~.~.~.~.~.~.~.~.~.~.~.~.~.                                  o   1 ; & O                   ~.~.~.~.~.~.~.~.~.~.~.~.~.~.~.~.~.~.~.",
"~.~.~.~.~.~.~.~.~.~.~.X     O   O # ; O     & o # O &   o O & # k C E ' U A M d ; o   o       ~.~.~.~.~.~.~.~.~.~.~.~.~.~.~.~.~.",
"~.~.~.~.~.~.~.~.~.    @     & n ^ ` u     o c E >.q.-.| ` m 7 O & @ & 0 x E 1.x.w.Y 7 & O       ~.~.~.~.~.~.~.~.~.~.~.~.~.~.~.~.",
"~.~.~.~.~.~.~.~.    X & & M 4.V.q.g # # N 5.K.K.Q.Q.Q.Q.Q.Q.z.] m h ; O O O 3 p C ` O.F 1           ~.~.~.~.~.~.~.~.~.~.~.~.~.~.",
"~.~.~.~.~.~.~.      X n ,.Z.Q.8.h o 1 #.D.Z.Y.K.Q.K.Y.Q.Q.Q.Q.D.D.V.w.] M 7 # O O O ; 6 3   o         ~.~.~.~.~.~.~.~.~.~.~.~.~.",
"~.~.~.~.~.      @ & L V.Y.Y.2.i # 6 >.K.H.Z.K.Y.Q.K.K.Q.Q.Q.Q.Q.Q.Q.U.Y.D.h.#.P w O                     ~.~.~.~.~.~.~.~.~.~.~.~.",
"~.~.~.~.  O o   3 @.K.S.K.q.u $ y >.H.k.@.C z z m F -.K.Q.Q.Q.Q.Q.Q.Q.Q.K.H.>.N 6 #                 O   ~.~.~.~.~.~.~.~.~.~.~.~.",
"~.~.~.    o + n 9.U.Q.Y.a.h & i 5.y.S y : o & o # O : n d.K.Q.Q.Q.Q.Q.Y.k.D 3     o   o   o o       o       ~.~.~.~.~.~.~.~.~.~.",
"~.~.      + V c.K.U.U.S.N + 3 *.' y & O o o : 6 & &   # N Y.Q.Q.Q.Q.K.m.m   &   o     o     o   o     o     ~.~.~.~.~.~.~.~.~.~.",
"~.~.    # N V.Q.K.K.m.F ; ; L c o   o o o o s y.8.| x   7 u.Q.Q.Q.Q.D.Z   ; u     o   o o     x U : o         ~.~.~.~.~.~.~.~.~.",
"~.      j c.Y.Y.J.x.B ; + 0 d $ o o o   o   1 u.K.Q.s.3 O | Q.Q.K.Q.{ & O D { O O o o   o o   M D.! o         ~.~.~.~.~.~.~.~.~.",
"~.  O & >.J.K.Q.>.h     + $ +       o     o r B.Q.Q.Z.p O ( Q.Y.Q.k.p   m x.d.7 &     o O O : *.Q.B.z O   O     ~.~.~.~.~.~.~.~.",
"~.  o l D.K.Z.! 0   3 M   + +       o o O o _ Y.Y.Q.` & ; 1.U.Y.Q.8.& 1 9.Q.K.>.m 0 3 & 0 m *.D.K.K.O.o           ~.~.~.~.~.~.~.",
"  O O ^ R.S.B $   i -.P o z w.A ;   # ; x ..D.Y.K.*.7 O m D.Q.Q.Q.w.O ; 1.K.Q.Q.Z.h.u.2.a.S.Q.Q.Q.Y.J O r A O o   ~.~.~.~.~.~.~.",
"+ O : u.Q.Z.i * m a.K.A o m H.m.8.{ { >.x.H.K.d.H 1 O u i.Q.Q.U.K.V.j O x 1.T.Q.J.Q.Q.Q.K.Y.K.K.R.8.6 # E m.j O   O ~.~.~.~.~.~.",
"  O u c.R.Q.4.*.V.Y.K._ o 1 A >.V.D.D.V.9.-.H 0 O   i >.K.K.Q.Q.Q.Q.' = O 0 C | 6.a.m.B.c.h.i.-.! h o h x.H.@.: O     ~.~.~.~.~.",
"    h K.Q.Q.K.Q.Q.Q.Q.m.x O & 3 s v c p 3 : o o 1 N w.Q.Q.Q.Q.Q.Q.Q.D.T 9 O O = 3 y p p p w e & # O 1 $.K.Q.D.B O   o ~.~.~.~.~.",
"X   x Q.Q.Q.Q.Q.Q.Q.Q.Q.p.F 0 O * o   O + & 0 b *.B.Q.Q.T.T.Y.Q.Q.Q.Q.R.8.D h ; O O O O O & O ; s m >.K.Q.Q.K.d.d O       ~.~.~.",
"    x Q.Q.Q.Q.Q.Q.Q.Q.Q.Q.V.t.[ A m m G ] -.y.Z.K.Q.Y.Q.T.Q.K.Q.Q.Q.Q.Q.Q.D.x.9.@.Y G F H U ` -.a.D.Q.Y.Q.Q.Q.Q.{ &     ~.~.~.~.",
"    x Q.Q.Q.Q.Q.Q.Q.Q.R.Q.Q.Q.Y.J.J.Y.Q.Q.Q.Q.Q.Q.K.K.Q.Q.Q.Q.Y.R.Q.Q.Q.R.Q.R.R.R.Q.Q.R.R.Q.R.Q.Q.R.Q.Q.Q.Q.Q.Q.B.e o   ~.~.~.~.",
"O   z Q.Q.Q.Q.Q.Q.R.Q.Q.Q.Q.Q.Q.Y.Q.Q.R.R.Q.R.Q.Q.Q.Q.Q.Q.Q.Q.Q.Q.R.Q.Q.Q.R.Q.Q.R.Q.R.R.Q.R.R.Q.Q.R.Q.Y.Q.R.Q.Q.Q.A O o   ~.~.~.",
"O X z K.Q.Q.Q.Q.Q.Q.Q.V.1.D.Q.Q.Q.Q.Q.Q.Q.Q.Q.Q.Q.Q.Q.Q.Q.Q.Q.K.R.Q.Q.Q.R.Q.R.Q.R.Q.Q.Q.R.Q.Q.Q.Q.Q.Q.Q.Q.Q.Q.Q.Q.-.# O   ~.~.~.",
"X X p x.Q.Q.Q.Q.Q.Q.Q.^ 3 ( Q.Q.Q.Q.Q.Q.Q.Q.Q.Q.Q.Q.Q.K.Q.K.Q.Q.Q.R.Q.Q.Q.R.Q.Q.Q.Q.Q.Q.Q.R.Q.Q.Q.Q.Q.Q.Q.Q.Q.Q.Q.x.u     ~.~.~.",
"  O 3 p.Q.Q.Q.Q.Q.Q.Q.U $ e p.D.Q.Q.Q.Q.Q.Q.Q.Q.Q.Q.Q.Q.Q.Q.Q.Q.Q.Q.Q.Q.Q.R.Q.Q.Q.Q.Q.Q.Q.Q.Q.Q.K.R.Q.K.R.Q.Q.H.K.D.Z     o   ~.",
"  X O 8.Q.Q.Q.Q.Q.Q.Q.i.9 $ M d.Q.Q.Q.Q.Q.Q.Q.Q.Q.Q.Q.Q.Q.Q.Q.Q.R.Q.Q.Q.Q.Q.Q.Q.Q.R.Q.Q.R.Q.R.m.w.>...` P P T O.a.Q.4.& O   ~.~.",
"X O   ;.Q.Q.Q.Q.Q.Q.Q.K.^ ; O h O.m.K.K.Q.Q.Y.K.Q.Q.Q.Q.K.Q.Q.K.Q.K.Q.Q.K.Q.K.Q.Y.Z.x.h.-.( C c e 1 $ $ O $ & & l r.z.6   O ~.~.",
"O O   ..Q.Q.Q.Q.Q.Q.Q.Q.D.C ; & ; x E 1.9.a.d.*.-.-.>.>.4.4.1.<.>.1.@.@.] _ T F m n z j : $ O O o : 3 y g h g : O G D.n O     ~.",
"O   O F Q.Q.Q.Q.Q.Q.Q.Q.Q.B.@.z &     & 7 p p ; 1 1 ; 6 ; ; 1 ; ; ; * O O O   O : $   $ & u x V ] 8.w.p.x.x.*.i O N K.P       ~.",
"X O O v Q.Q.Q.Q.Q.Q.Q.Q.Q.Q.Q.x.| m d 1 O &   O 1 1 ;   = ; > 1 3 3 0 u p p h x m C P T %.p.V.B.J.Q.R.Q.R.%.0 & 1 O.K.O.O O   ~.",
"    O 6 d.Q.Q.Q.Q.Q.Q.Q.Q.Q.Q.Q.Q.K.p.4.O.] P ^ 4.4.O.O.1.4.6.4.9.q.u.u.i.d.x.V.K.Q.Q.Q.Q.Q.Q.Q.Q.Q.Q.Q.>.w o i | B.K.a.7 o   ~.",
"~.  O O ' Q.Q.Q.Q.Q.Q.Q.Q.Q.Q.Q.Q.Q.Y.Q.K.K.Q.K.Q.K.Q.Q.K.Q.Q.Q.Q.Q.Q.Q.Q.R.Q.Q.Q.Q.Q.Q.Q.Q.Q.Q.Q.Q.Q.k.h o p 1.Y.K.Q.K.z   O ~.",
"~.      c K.Q.Q.Q.Q.Q.Q.Q.Q.Q.Q.Q.Q.Y.Q.Y.Q.Q.Q.Q.Q.Q.Q.Q.Q.Q.Q.Q.Q.Q.Q.Q.Q.Q.Q.Q.Q.Q.Q.Q.Q.Q.Q.Q.Q.D.T & ; 1.K.Q.Q.Q.Q.m     ~.",
"~.~.    & -.Q.Q.Q.Q.Q.Q.Q.Q.Q.Q.Q.Q.Q.Q.Q.Q.Q.Q.Q.Q.Q.Q.Q.Q.Q.Q.Q.Q.Q.Q.Q.Q.Q.Q.Q.Q.Q.Q.Q.Q.Q.Q.Q.Q.V.h & H K.Q.Q.Q.Q.Q.F o     ",
"~.~.      v K.Q.Q.Q.Q.Q.Q.Q.Q.Q.Q.Q.Q.Q.Q.Q.Q.Q.Q.Q.Q.Q.Q.Q.Q.Q.Q.Q.Q.Q.Q.Q.Q.Q.Q.Q.Q.Q.Q.Q.Q.Q.Q.Q.p.3 & 8.Q.Q.Q.Q.Q.Q.] o     ",
"~.~.~.  O ; >.K.Q.Q.Q.Q.Q.Q.Q.Q.Q.Q.Q.Q.Q.Q.Q.Q.Q.Q.Q.Q.Q.Q.Q.Q.Q.Q.Q.Q.Q.Q.Q.Q.Q.Q.Q.Q.Q.Q.Q.Q.Q.Q.*.O 0 m.Q.Q.Q.Q.Q.Q.%.O     ",
"~.~.~.  O X m D.Q.Q.Q.Q.Q.Q.Q.Q.Q.Q.Q.Q.Q.Q.Q.Q.Q.Q.Q.Q.Q.Q.Q.Q.Q.Q.Q.Q.Q.Q.Q.Q.Q.Q.Q.Q.Q.Q.Q.Q.Q.Q.( O c K.Q.Q.Q.Q.Q.Q.@.O     ",
"~.~.~.~.    1 *.Q.Q.Q.Q.Q.Q.Q.Q.Q.Q.Q.Q.Q.Q.Q.Q.Q.Q.Q.Q.Q.Q.Q.Q.Q.Q.Q.Q.Q.Q.Q.Q.Q.Q.Q.Q.Q.Q.Q.Q.Q.Q.A & C K.Q.Q.Q.Q.Q.Q.@.O     ",
"~.~.~.~.  O   v V.Q.Q.Q.Q.Q.Q.Q.Q.Q.Q.Q.Q.Q.Q.Q.Q.Q.Q.Q.Q.Q.Q.Q.Q.Q.Q.Q.Q.Q.Q.Q.Q.Q.Q.Q.Q.Q.Q.Q.Q.Q.m O U Q.Q.Q.Q.Q.Q.Q.`       ",
"~.~.~.~.~.    ; *.Q.Q.Q.Q.Q.Q.Q.Q.Q.Q.Q.Q.Q.Q.Q.Q.Q.Q.Q.Q.Q.Q.Q.Q.Q.Q.Q.Q.Q.Q.Q.Q.Q.Q.Q.Q.Q.Q.Q.Q.m.r   @.K.Q.Q.Q.Q.Q.Q.F       ",
"~.~.~.~.~.O     n D.Q.Q.Q.Q.Q.Q.Q.Q.Q.Q.Q.Q.Q.Q.Q.Q.Q.Q.Q.Q.Q.Q.Q.Q.Q.Q.Q.Q.Q.Q.Q.Q.Q.Q.Q.Q.Q.Q.Q.p.&   p.Q.Q.Q.Q.Q.Q.J.M   O ~.",
"~.~.~.~.~.~.    & 1.Q.Q.Q.Q.Q.Q.Q.Q.Q.Q.Q.Q.Q.Q.Q.Q.Q.Q.Q.Q.Q.Q.Q.Q.Q.Q.Q.Q.Q.Q.Q.Q.Q.Q.Q.Q.Q.Q.Q.*.O 0 B.Q.Q.Q.Q.Q.Q.Q.x &   ~.",
"~.~.~.~.~.~.  O O c m.Q.Q.Q.Q.Q.Q.Q.Q.Q.Q.Q.Q.Q.Q.Q.Q.Q.Q.Q.Q.Q.Q.Q.Q.Q.Q.Q.Q.Q.Q.Q.Q.Q.Q.Q.Q.Q.Q.F   n K.Q.Q.Q.Q.Q.Q.x.0 O   ~.",
"~.~.~.~.~.~.~.    ; O.Q.Q.Q.Q.Q.Q.Q.Q.Q.Q.Q.Q.Q.Q.Q.Q.Q.Q.Q.Q.Q.Q.Q.Q.Q.Q.Q.Q.Q.Q.Q.Q.Q.Q.Q.Q.Q.m.h X ` K.Q.Q.Q.Q.Q.Q.9.O O   ~.",
"~.~.~.~.~.~.~.& O O k D.Q.Q.Q.Q.Q.Q.Q.Q.Q.Q.Q.Q.Q.Q.Q.Q.Q.Q.K.d.x.Q.Q.Q.Q.Q.Q.Q.Q.Q.Q.Q.Q.Q.Q.Q.1.O ; t.T.Q.Q.Q.Q.Q.K.^   O   ~.",
"~.~.~.~.~.~.~.~.  O O @.Q.Q.Q.Q.Q.Q.Q.Q.Q.Q.Q.Q.Q.Q.Q.Q.Q.Q.p.d m m.Q.Q.Q.Q.Q.Q.Q.Q.Q.Q.Q.Q.Q.Q.B & n K.Q.Q.Q.Q.Q.Q.D.x O   ~.~.",
"~.~.~.~.~.~.~.~.  O   x k.Q.Q.Q.Q.Q.Q.Q.Q.Q.Q.Q.Q.Q.Q.Q.Q.Q.4.3 O F Z.Q.Q.Q.Q.Q.Q.Q.Q.Q.Q.Q.H.9.5 & ..Q.Q.Q.Q.Q.Q.Q.k.: o   ~.~.",
"~.~.~.~.~.~.~.~.~.      m m.Q.Q.Q.Q.Q.Q.Q.Q.Q.Q.Q.Q.Q.Q.Q.Q.D.B O O N 8.K.Q.Q.Q.Q.Q.Q.Q.Q.Q.2.l   h x.Q.Q.Q.Q.Q.Q.Q.} &     ~.~.",
"~.~.~.~.~.~.~.~.~.    O & E K.Q.Q.Q.Q.Q.Q.Q.Q.Q.Q.Q.Q.Q.Q.Q.Q.k.n O O ; m @.i.k.m.V.D.S.p.U 7 # 0 *.Q.Q.Q.K.Q.Q.K.Q.b   O ~.~.~.",
"~.~.~.~.~.~.~.~.~.~.    O 1 ..K.Q.R.Q.Q.Q.Q.Q.Q.Q.Q.Q.Q.Q.Q.Q.Q.m.F 9 O   & = u x c V N 1 & * 0 @.Q.T.Q.Y.Y.Q.Y.Q.c.1 O o ~.~.~.",
"~.~.~.~.~.~.~.~.~.~.~.    O 0 9.Y.J.Q.Q.Q.Q.Q.Q.Q.Q.Q.Q.Q.Q.Q.Q.Q.K.u.H d 3 & O &     O O 0 V w.Q.Q.Q.U.Q.Q.Q.Q.Q._ O o   ~.~.~.",
"~.~.~.~.~.~.~.~.~.~.~.~.  O O h u.R.Q.Q.Q.Q.Q.Q.Q.Q.Q.Q.Q.Q.Q.Q.Q.Q.K.Q.x.1...^ G N z z H w.K.K.Q.Q.Q.Q.Q.Q.Q.Q.x.h     ~.~.~.~.",
"~.~.~.~.~.~.~.~.~.~.~.~.    +   i *.K.Y.Q.Q.Q.Q.Q.Q.Q.Q.Q.Q.Q.Q.Q.Q.Q.Q.T.Q.Q.Q.Q.Q.K.K.K.Q.Q.Q.Q.Q.Q.Q.Q.Q.K.K.Y *   O ~.~.~.~.",
"~.~.~.~.~.~.~.~.~.~.~.~.~.      O : S u.K.Q.Q.Q.Q.Q.Q.Q.Q.Q.Q.Q.Q.Q.Q.Q.Q.Q.Y.K.Q.Q.Q.Q.Q.Q.Q.Q.Q.Q.Q.Q.Q.Q.Q.' :     ~.~.~.~.~.",
"~.~.~.~.~.~.~.~.~.~.~.~.~.~.      O # 9 | V.K.Q.Q.Q.Q.Q.Q.Q.Q.Q.Q.Q.Q.Q.Q.Q.Q.Q.Q.Q.Q.Q.Q.Q.Q.Q.Q.Q.Q.Q.Q.K...1       ~.~.~.~.~.",
"~.~.~.~.~.~.~.~.~.~.~.~.~.~.~.~.      O # l -.V.K.Q.Q.Q.Q.Q.Q.Q.Q.Q.Q.Q.Q.Q.Q.Q.Q.Q.Q.Q.Q.Q.Q.Q.Q.Q.Q.Q.Q.*.3 O     ~.~.~.~.~.~.",
"~.~.~.~.~.~.~.~.~.~.~.~.~.~.~.~.~.      O O & c ^ >.x.Z.Q.K.Q.Q.Q.Q.Q.Q.Q.Q.Q.Q.Q.Q.Q.Q.Q.Q.Q.Q.Q.Q.Q.R.6.7       ~.~.~.~.~.~.~.",
"~.~.~.~.~.~.~.~.~.~.~.~.~.~.~.~.~.~.~.O   O   O & # : z P 9.V.Q.Q.Q.Q.Q.Q.Q.Q.Q.Q.Q.Q.Q.Q.Q.Q.Q.K.K.d.! 0 O o   ~.~.~.~.~.~.~.~.",
"~.~.~.~.~.~.~.~.~.~.~.~.~.~.~.~.~.~.~.~.~.O           O O $ d M R *.4.d.V.D.D.Q.Q.K.U.Q.H.D.p...J x 1     o   ~.~.~.~.~.~.~.~.~.",
"~.~.~.~.~.~.~.~.~.~.~.~.~.~.~.~.~.~.~.~.~.~.~.              O O O & O 1 0 z m A R H G G F x ; O O     O o o ~.~.~.~.~.~.~.~.~.~.",
"~.~.~.~.~.~.~.~.~.~.~.~.~.~.~.~.~.~.~.~.~.~.~.~.  ~.~.      O         O O     O +   O O       O o o       ~.~.~.~.~.~.~.~.~.~.~.",
"~.~.~.~.~.~.~.~.~.~.~.~.~.~.~.~.~.~.~.~.~.~.~.~.~.~.~.~.~.~.          O   O       +       + O       ~.  ~.~.~.~.~.~.~.~.~.~.~.~."
};
