/* XPM */
static char *frame_14_delay_0_05s1763316729[] = {
/* columns rows colors chars-per-pixel */
"64 64 165 2 ",
"   c black",
".  c #010101",
"X  c #020202",
"o  c gray1",
"O  c #040404",
"+  c gray2",
"@  c #060606",
"#  c #070707",
"$  c gray3",
"%  c #090909",
"&  c gray4",
"*  c #0B0B0B",
"=  c #0C0C0C",
"-  c gray5",
";  c #0E0E0E",
":  c gray6",
">  c #101010",
",  c #111111",
"<  c gray7",
"1  c gray8",
"2  c #151515",
"3  c #161616",
"4  c gray9",
"5  c #181818",
"6  c gray10",
"7  c gray11",
"8  c #1D1D1D",
"9  c #1E1E1E",
"0  c gray12",
"q  c #202020",
"w  c #222222",
"e  c #232323",
"r  c gray14",
"t  c gray15",
"y  c #272727",
"u  c #282828",
"i  c #2A2A2A",
"p  c #2C2C2C",
"a  c #2D2D2D",
"s  c gray19",
"d  c #313131",
"f  c #323232",
"g  c #323136",
"h  c gray22",
"j  c #3A3A3A",
"k  c #3D3C41",
"l  c gray28",
"z  c #494949",
"x  c #4A494E",
"c  c #4F4F50",
"v  c gray33",
"b  c gray35",
"n  c #5C5C5E",
"m  c #606060",
"M  c gray40",
"N  c #68676B",
"B  c gray42",
"V  c gray43",
"C  c #707072",
"Z  c gray45",
"A  c #787779",
"S  c gray48",
"D  c #7B7B7B",
"F  c #7C7C7C",
"G  c gray49",
"H  c gray50",
"J  c #808083",
"K  c #838384",
"L  c gray53",
"P  c #888888",
"I  c #898989",
"U  c gray54",
"Y  c #8B8B8B",
"T  c gray55",
"R  c #8D8D8D",
"E  c #8E8E8E",
"W  c gray57",
"Q  c #939393",
"!  c gray58",
"~  c #959595",
"^  c #979699",
"/  c #9A9A9A",
"(  c gray61",
")  c gray62",
"_  c #A0A0A0",
"`  c gray63",
"'  c #A2A2A2",
"]  c #A4A4A6",
"[  c #A7A6A7",
"{  c #A9A9A9",
"}  c #AAAAAA",
"|  c gray67",
" . c #ACACAC",
".. c #AEAEAE",
"X. c gray69",
"o. c #B2B2B2",
"O. c gray70",
"+. c #B4B4B4",
"@. c gray71",
"#. c #B6B6B7",
"$. c #B8B7BA",
"%. c gray73",
"&. c #BCBCBC",
"*. c gray74",
"=. c gray",
"-. c gray75",
";. c #C0C0C0",
":. c #C1C1C1",
">. c #C3C3C3",
",. c #C5C5C5",
"<. c #C6C6C6",
"1. c gray78",
"2. c #C8C8C8",
"3. c gray79",
"4. c #CACACA",
"5. c #CDCDCE",
"6. c #D1D0D1",
"7. c #D2D2D2",
"8. c LightGray",
"9. c gray83",
"0. c #D5D5D5",
"q. c #D6D5D7",
"w. c #D8D8D8",
"e. c #DADADB",
"r. c #DCDBDC",
"t. c #DDDDDD",
"y. c #DFDFDF",
"u. c #E1E0E1",
"i. c #E1E1E1",
"p. c #E2E2E2",
"a. c gray89",
"s. c #E4E4E4",
"d. c #E6E5E6",
"f. c #E7E7E7",
"g. c gray91",
"h. c #E9E9E9",
"j. c #EAEAEA",
"k. c gray92",
"l. c #ECECEC",
"z. c gray93",
"x. c #EEEEEE",
"c. c #EFEFEF",
"v. c gray94",
"b. c #F1F1F1",
"n. c gray95",
"m. c #F3F3F3",
"M. c #F4F4F4",
"N. c #F5F4F5",
"B. c gray96",
"V. c #F6F6F6",
"C. c #F7F6F7",
"Z. c gray97",
"A. c #F8F8F8",
"S. c #F9F8F9",
"D. c #F9F9F9",
"F. c gray98",
"G. c #FBFAFB",
"H. c #FBFBFB",
"J. c #FCFBFC",
"K. c gray99",
"L. c #FDFCFD",
"P. c #FDFDFD",
"I. c #FEFEFE",
"U. c white",
"Y. c None",
/* pixels */
"Y.Y.Y.Y.Y.Y.Y.Y.Y.Y.Y.Y.Y.Y.Y.Y.Y.Y.Y.Y.      Y.                      Y.  Y.Y.Y.Y.Y.Y.Y.Y.Y.Y.Y.Y.Y.Y.Y.Y.Y.Y.Y.Y.Y.Y.Y.Y.Y.Y.Y.",
"Y.Y.Y.Y.Y.Y.Y.Y.Y.Y.Y.Y.Y.Y.Y.Y.  Y.                                                Y.Y.Y.Y.Y.Y.Y.Y.Y.Y.Y.Y.Y.Y.Y.Y.Y.Y.Y.Y.Y.Y.",
"Y.Y.Y.Y.Y.Y.Y.Y.Y.Y.Y.Y.Y.Y.                            O # O $ o O                       Y.Y.Y.Y.Y.Y.Y.Y.Y.Y.Y.Y.Y.Y.Y.Y.Y.Y.Y.",
"Y.Y.Y.Y.Y.Y.Y.Y.Y.Y.Y.Y.                          $ 9 p k v z p 2 $ $ O                     Y.Y.Y.Y.Y.Y.Y.Y.Y.Y.Y.Y.Y.Y.Y.Y.Y.Y.",
"Y.Y.Y.Y.Y.Y.Y.Y.Y.Y.  O     O   O $ 7 b n w o     O < 2 l Z W @.u.t.6.{ U V v r = O   $ o     Y.Y.Y.Y.Y.Y.Y.Y.Y.Y.Y.Y.Y.Y.Y.Y.Y.",
"Y.Y.Y.Y.Y.Y.Y.Y.Y.    O     = z ~ O.@.l O *     O O # O $   $ = w l A ' -.j.M.v.7.G 6             Y.Y.Y.Y.Y.Y.Y.Y.Y.Y.Y.Y.Y.Y.Y.",
"Y.Y.Y.Y.Y.Y.Y.        $ = n 4.v.H.] 2 O $ 9 k n G F J Z z 9 = = o $ O # $ 9 v K } X.>.G <           Y.Y.Y.Y.Y.Y.Y.Y.Y.Y.Y.Y.Y.Y.",
"Y.Y.Y.Y.Y.Y.        O z -.M.P.v.~ < O 2 P t.M.H.P.J.H.H.v.f.e.' V k 9 = $ O O O * = = 1 $   O         Y.Y.Y.Y.Y.Y.Y.Y.Y.Y.Y.Y.Y.",
"Y.Y.Y.Y.Y.      $ $ F v.H.H.d.m < O p 2.K.M.P.J.P.P.P.P.J.P.P.P.P.M.v.e. .N k 4 $ O O                   Y.Y.Y.Y.Y.Y.Y.Y.Y.Y.Y.Y.",
"Y.Y.Y.Y.        <  .J.M.M.w.k O O k e.M.M.k.,.$.4.v.H.P.P.P.P.P.P.H.M.J.G.P.z.u.L k O               O     Y.Y.Y.Y.Y.Y.Y.Y.Y.Y.Y.",
"Y.Y.Y.    O   v 5.H.J.H.>.p * $ V d.7.S g 2 < = < r G z.S.P.P.P.P.P.P.P.H.M.;.z < = $         O     o   o   Y.Y.Y.Y.Y.Y.Y.Y.Y.Y.",
"Y.Y.      O B v.M.H.H.>.9 $ = G t.V r O O $     O O O v v.P.P.P.P.P.P.J.Z.K = O   5 j v c c d O o   o       Y.Y.Y.Y.Y.Y.Y.Y.Y.Y.",
"Y.Y.    O b v.P.H.S. .9   6 X.>.k $ O O d B E ( K k O $ Y K.P.P.P.P.P.J.S =   i E  .A N n ^ u. .w O   o       Y.Y.Y.Y.Y.Y.Y.Y.Y.",
"Y.      d d.H.M.z.Z 2 o 6  ./ 9 O O O   < s ' m.P.u.f O r k.P.P.P.P.P.] O O v 5.m < o o $ = ' Z.2.u O           Y.Y.Y.Y.Y.Y.Y.Y.",
"    O = $.J.j.W s O O i %.S 2 O     O       q d.P.P.#.=   X.P.K.P.P.S.k O z z.X.  O o O O   j Z.P.4.0 O O O     Y.Y.Y.Y.Y.Y.Y.Y.",
"    O h v.v.z * $ $ v 6.J $ < w =   O   O O q j.P.P.z.7 O / K.P.P.P.e.6 $ X.H.W O O o       b P.H.H.V o = :       Y.Y.Y.Y.Y.Y.Y.",
"  O O U P.v.w = h X.v.j.9 O d X.=     O   $ m P.P.J.e.< O ( P.P.P.P.6.< = w.H.e.p $ O O < v 0.P.P.P.U $ i A       Y.Y.Y.Y.Y.Y.Y.",
"O O = 7.P.P.-.] j.H.H.0.$ O X.v.9 O O   $ d e.P.A.P.N O = 4.P.P.J.P.7.< $ >.M.M.t.( ~ } 7.z.J.P.P.u.h O k d.d     O Y.Y.Y.Y.Y.Y.",
"  o r j.P.P.P.P.P.P.P.0.  O X.H.{ h 6 w N 0.H.J.j.m =   x K.P.P.P.P.z.p O r b U } e.d.M.z.e.>.( N r $ $ ' M. .= O     Y.Y.Y.Y.Y.",
"O O d H.P.P.P.P.P.P.H.j.p O w } u.e.0.t.H.S.u.~ f O O i e.A.P.P.P.P.J.( < O   O O 6 w d p 9 6 = $   $ N M.J.M.n O   O   Y.Y.Y.Y.",
"    k P.P.P.P.P.P.P.P.P.' = O < r u U } T b i $ O O z 2.J.J.P.P.P.P.P.M.@.c g w = O   o O $ $ $ w l ^ v.P.P.P.u.d O       Y.Y.Y.",
"    k P.P.P.P.P.P.P.P.P.H./ 9 $ O O = = O O O O r K d.H.J.J.P.P.P.P.P.P.J.v.j.t.%.E S V Z G W @.7.v.P.P.P.P.P.P.( O O   Y.Y.Y.Y.",
"    k P.P.P.P.P.P.P.P.P.P.P.e.] v : $ $ $ w x E e.P.P.P.P.P.P.P.P.P.P.P.P.P.P.P.P.P.P.P.P.P.P.P.P.P.P.P.P.P.P.P.v.i O     Y.Y.Y.",
"O   k P.P.P.P.P.P.P.P.P.P.P.P.P.j.-. . .-.e.v.K.P.P.P.P.P.P.P.P.P.P.P.P.P.P.P.P.P.P.P.P.P.P.P.P.P.P.P.P.P.P.P.P.P.V       Y.Y.Y.",
"O   h P.P.P.P.P.P.P.P.P.P.P.P.P.P.P.P.P.P.P.P.P.P.P.P.P.P.P.P.P.P.P.P.P.P.P.P.P.P.P.P.P.P.P.P.P.P.P.P.P.P.P.P.P.P.%.$ O   Y.Y.Y.",
"  O p z.P.P.P.P.P.P.P.P.P.P.P.P.P.P.P.P.P.P.P.P.P.P.P.P.P.P.P.P.P.P.P.P.P.P.P.P.P.P.P.P.P.P.P.P.P.P.P.P.P.P.P.P.H.v.r       Y.Y.",
"  O < e.P.P.P.P.P.P.H.P.P.P.P.P.P.P.P.P.P.P.P.P.P.P.P.P.P.P.P.P.P.P.P.P.P.P.P.P.P.P.P.P.P.P.P.P.P.P.P.P.P.P.P.P.P.P.V o o     Y.",
"    O 4.P.P.P.P.v.} d.P.P.P.P.P.P.P.P.P.P.P.P.P.P.P.P.P.P.P.P.P.P.P.P.P.P.P.P.P.P.P.P.P.P.P.P.P.P.P.P.P.P.P.P.P.P.P.,.$ O   Y.Y.",
"O O   -.P.P.P.P.K = Z P.P.H.P.P.P.P.P.P.P.P.P.P.P.P.P.P.P.J.P.P.P.P.P.P.P.P.P.P.P.P.P.P.P.P.P.P.P.P.P.P.P.P.P.P.P.P.c.9   o   Y.",
"O O   ' P.P.P.P.K = r  .H.P.P.P.P.P.P.P.P.P.P.P.P.P.P.P.P.P.P.P.P.P.P.P.P.P.P.P.P.P.P.P.P.P.P.P.P.P.P.P.P.P.P.P.P.P.M.x O     Y.",
"O   O Z P.P.P.P.v.N $ 2 N / ,.4.q.d.H.A.H.P.P.P.P.P.P.P.P.P.P.P.P.P.P.P.M.z.j.e.>.' P P J H J H E { -.7.v.H.P.P.P.P.H.S       Y.",
"    O z P.P.P.P.P.4.r   O O < 5 w d x V E ^ } $.-.%.-.X.' ~ ~ W W K m v k h g r $ $ O O O $ O O   $ $ w k E 7.H.P.P.P.} O O   Y.",
"      2 u.H.P.P.P.P.;.v w = O O O O O O $ $ O = = > = $ O O O O $ O O O O O O O   $ 2 2 2 2 < $ O O O $ O = 9 b 7.S.H.r.2   O Y.",
"Y.    O ( P.P.P.P.P.P.H.7.$.W K V x h r 2 2 = $ O O $ $ = < 6 2 < w p h j k x Z ~  .>.>.>.,.>.-.] ~ S z 9 $   O r } H.H.h   O Y.",
"        z H.P.P.P.P.P.P.P.P.P.P.P.P.v.r.4.,.X.X.} } } X.%.4.5.4.4.7.r.v.M.H.A.H.P.P.P.P.P.P.P.P.P.P.H.M.7.~ h < O 6 e.H.b       ",
"Y.      $ -.P.P.P.P.P.P.P.P.P.P.P.P.P.P.P.P.P.P.P.P.P.P.P.P.P.P.P.P.P.P.P.P.P.P.P.P.P.P.P.P.P.P.P.P.P.P.P.S.j.G $ $ ' H.Z O     ",
"Y.Y.    $ z H.P.P.P.P.P.P.P.P.P.P.P.P.P.P.P.P.P.P.P.P.P.P.P.P.P.P.P.P.P.P.P.P.P.P.P.P.P.P.P.P.P.P.P.P.P.P.v.H.( $ O @.P.~ O     ",
"Y.Y.    O $ %.G.P.P.P.P.P.P.P.P.P.P.P.P.P.P.P.P.P.P.P.P.P.P.P.P.P.P.P.P.P.P.P.P.P.P.P.P.P.P.P.P.P.P.P.P.M.7.Z 5 O 9 j.P.X.O     ",
"Y.Y.Y.    O v M.P.P.P.P.P.P.P.P.P.P.P.P.P.P.P.P.P.P.P.P.P.P.P.P.P.P.P.P.P.P.P.P.P.P.P.P.P.P.P.P.P.P.P.0.v 9 O O < } P.P. .$     ",
"Y.Y.Y.  o   = %.P.P.P.P.P.P.P.P.P.P.P.P.P.P.P.P.P.P.P.P.P.P.P.P.P.P.P.P.P.P.P.P.P.P.P.P.P.P.P.P.P.P.v.h O $ $ j X.v.P.P. .O     ",
"Y.Y.Y.Y.    O z M.P.P.P.P.P.P.P.P.P.P.P.P.P.P.P.P.P.P.P.P.P.P.P.P.P.P.P.P.P.P.P.P.P.P.P.P.P.P.P.P.P.[ O $ b ' z.H.P.P.P.~       ",
"Y.Y.Y.Y.  O O = %.P.P.P.P.P.P.P.P.P.P.P.P.P.P.P.P.P.P.P.P.P.P.P.P.P.P.P.P.P.P.P.P.P.P.P.P.P.P.P.P.P.v   p d.M.H.P.P.P.P.Z O     ",
"Y.Y.Y.Y.Y.      z M.P.P.P.P.P.P.P.P.P.P.P.P.P.P.P.P.P.P.P.P.P.P.P.P.P.P.P.P.P.P.P.P.P.P.P.P.P.P.P.e.6   B H.P.P.P.P.P.H.n O     ",
"Y.Y.Y.Y.Y.    O $ >.P.P.P.P.P.P.P.P.P.P.P.P.P.P.P.P.P.P.P.P.P.P.P.P.P.P.P.P.P.P.P.P.P.P.P.P.P.P.P.U O = 5.P.P.P.P.P.P.H.k   O   ",
"Y.Y.Y.Y.Y.Y.  O O z v.P.P.P.P.P.P.P.P.P.P.P.P.P.P.P.P.P.P.P.P.P.P.P.P.P.P.P.P.P.P.P.P.P.P.P.P.P.v.d O z v.P.P.P.P.P.P.f.9     Y.",
"Y.Y.Y.Y.Y.Y.      O  .P.P.P.P.P.P.P.P.P.P.P.P.P.P.P.P.P.P.P.P.P.P.P.P.P.P.P.P.P.P.P.P.P.P.P.P.P.} O O / P.P.P.P.P.P.P.5.O O   Y.",
"Y.Y.Y.Y.Y.Y.Y.$ O O g M.P.P.P.P.P.P.P.P.P.P.P.P.P.P.P.P.P.H.v.d.P.P.P.P.P.P.P.P.P.P.P.P.P.P.P.S.z   p z.P.P.P.P.P.P.H.E   O   Y.",
"Y.Y.Y.Y.Y.Y.Y.Y.O   $ @.P.P.P.P.P.P.P.P.P.P.P.P.P.P.P.P.P.H.b p  .M.P.P.P.P.P.P.P.P.P.P.P.P.P.,.$   G P.P.P.P.P.P.P.H.k       Y.",
"Y.Y.Y.Y.Y.Y.Y.Y.  O O k d.S.P.P.P.P.P.P.P.P.P.P.P.P.P.P.P.v.r   $ v ,.S.P.P.P.P.P.P.P.P.P.P.v.z O 2 0.P.P.P.P.P.P.P.u.2     Y.Y.",
"Y.Y.Y.Y.Y.Y.Y.Y.      $ v v.P.P.P.P.P.P.P.P.P.P.P.P.P.P.P.P.' 9 $   6 V t.H.P.P.P.P.P.P.P.v.Z O $ Z H.P.P.P.P.P.P.P.' $ O   Y.Y.",
"Y.Y.Y.Y.Y.Y.Y.Y.Y.    O $ U P.H.P.P.P.P.P.P.P.P.P.P.P.P.P.P.P.7.n <     w V >.l.P.P.P.P.t.v $ # h d.P.J.P.J.P.P.P.P.c       Y.Y.",
"Y.Y.Y.Y.Y.Y.Y.Y.Y.Y.      < } P.P.P.P.P.P.P.P.P.P.P.P.P.P.P.P.P.M.@.z = $ O * h U %./ V p O # k 0.H.P.P.P.P.P.P.P.d.2   O Y.Y.Y.",
"Y.Y.Y.Y.Y.Y.Y.Y.Y.Y.Y.    O 9 7.H.P.P.P.P.P.P.P.P.P.P.P.P.P.P.P.P.P.c.( z < O O O O O $ O = n u.P.P.P.P.P.P.P.P.P.^ O O   Y.Y.Y.",
"Y.Y.Y.Y.Y.Y.Y.Y.Y.Y.Y.  O   O d e.P.P.P.P.P.P.P.P.P.P.P.P.P.P.P.P.P.P.P.M.>.D r $ : < < g ] M.P.P.P.P.P.P.P.P.P.j.d O     Y.Y.Y.",
"Y.Y.Y.Y.Y.Y.Y.Y.Y.Y.Y.Y.    O   i @.H.v.P.P.P.P.P.P.P.P.P.P.P.P.P.P.P.P.P.P.J.z.@.{ X.e.M.P.P.P.P.P.P.P.P.P.P.H.S O   O Y.Y.Y.Y.",
"Y.Y.Y.Y.Y.Y.Y.Y.Y.Y.Y.Y.Y.      O = Z e.P.P.P.P.P.P.P.P.P.P.P.P.P.P.P.P.J.P.P.P.P.P.P.P.P.P.P.P.P.P.P.P.P.P.H.~ < O     Y.Y.Y.Y.",
"Y.Y.Y.Y.Y.Y.Y.Y.Y.Y.Y.Y.Y.Y.      O O 6 / M.H.M.P.P.P.P.P.P.P.P.P.P.P.P.P.P.P.P.P.P.P.P.P.P.P.P.P.P.P.P.P.H. .<       Y.Y.Y.Y.Y.",
"Y.Y.Y.Y.Y.Y.Y.Y.Y.Y.Y.Y.Y.Y.Y.      O O $ h -.M.P.P.P.P.P.P.P.P.P.P.P.P.P.P.P.P.P.P.P.P.P.P.P.P.P.P.P.P.P.-.2 O     Y.Y.Y.Y.Y.Y.",
"Y.Y.Y.Y.Y.Y.Y.Y.Y.Y.Y.Y.Y.Y.Y.Y.Y.    O O O $ z E -.d.m.P.P.P.P.P.P.P.P.P.P.P.P.P.P.P.P.P.P.P.P.P.P.J.M.1.9       Y.Y.Y.Y.Y.Y.Y.",
"Y.Y.Y.Y.Y.Y.Y.Y.Y.Y.Y.Y.Y.Y.Y.Y.Y.Y.  O   O O O     2 h G 5.M.P.P.P.P.P.P.P.P.P.P.P.P.P.P.P.P.P.H.H.t.E 9 O       Y.Y.Y.Y.Y.Y.Y.",
"Y.Y.Y.Y.Y.Y.Y.Y.Y.Y.Y.Y.Y.Y.Y.Y.Y.Y.Y.Y.    O   O     O O o i b U +.4.p.v.M.M.P.J.H.H.P.M.H.e.' G k <     O     Y.Y.Y.Y.Y.Y.Y.Y.",
"Y.Y.Y.Y.Y.Y.Y.Y.Y.Y.Y.Y.Y.Y.Y.Y.Y.Y.Y.Y.Y.Y.            O     O o $ $ = w h v Z K S A A B l = O O   O   O     Y.Y.Y.Y.Y.Y.Y.Y.Y.",
"Y.Y.Y.Y.Y.Y.Y.Y.Y.Y.Y.Y.Y.Y.Y.Y.Y.Y.Y.Y.Y.Y.Y.Y.        o     o     o o   o     O O O     o   O O           Y.Y.Y.Y.Y.Y.Y.Y.Y.Y.",
"Y.Y.Y.Y.Y.Y.Y.Y.Y.Y.Y.Y.Y.Y.Y.Y.Y.Y.Y.Y.Y.Y.Y.Y.Y.Y.Y.Y.Y.              o   o     O       O O           Y.Y.Y.Y.Y.Y.Y.Y.Y.Y.Y.Y."
};
