/* XPM */
static char *frame_26_delay_0_05s1763316730[] = {
/* columns rows colors chars-per-pixel */
"64 64 183 2 ",
"   c black",
".  c #010101",
"X  c #020202",
"o  c gray1",
"O  c #040404",
"+  c gray2",
"@  c #040406",
"#  c #060606",
"$  c #070707",
"%  c gray3",
"&  c #090909",
"*  c gray4",
"=  c #0B0B0B",
"-  c #0C0C0C",
";  c gray5",
":  c #0E0E0E",
">  c gray6",
",  c #101010",
"<  c gray7",
"1  c #131313",
"2  c gray8",
"3  c #151515",
"4  c #161616",
"5  c gray9",
"6  c #181818",
"7  c #191919",
"8  c gray10",
"9  c gray11",
"0  c #1D1D1D",
"q  c #1E1E1E",
"w  c gray12",
"e  c #202020",
"r  c #232323",
"t  c gray14",
"y  c gray15",
"u  c #272727",
"i  c #282828",
"p  c #2A2A2A",
"a  c #2C2C2C",
"s  c #2D2D2D",
"d  c #2F2F2F",
"f  c #313131",
"g  c #323232",
"h  c #323136",
"j  c gray22",
"k  c #3A3A3A",
"l  c #3D3C41",
"z  c gray28",
"x  c #494949",
"c  c #4A494E",
"v  c #4F4F50",
"b  c gray33",
"n  c gray35",
"m  c #5C5C5E",
"M  c #606060",
"N  c #626166",
"B  c gray40",
"V  c #68676B",
"C  c gray42",
"Z  c gray43",
"A  c #707072",
"S  c gray45",
"D  c #747378",
"F  c #787779",
"G  c gray48",
"H  c #7B7B7B",
"J  c #7C7C7C",
"K  c #7E7E7E",
"L  c gray50",
"P  c #808083",
"I  c #838384",
"U  c #868686",
"Y  c gray53",
"T  c #888888",
"R  c #898989",
"E  c gray54",
"W  c #8B8B8B",
"Q  c gray55",
"!  c #8E8E8E",
"~  c gray57",
"^  c #939393",
"/  c gray58",
"(  c #959595",
")  c #979699",
"_  c #98989B",
"`  c #9A9A9A",
"'  c gray61",
"]  c gray62",
"[  c #A0A0A0",
"{  c gray63",
"}  c #A2A2A2",
"|  c #A4A4A6",
" . c #A7A6A7",
".. c #A9A9A9",
"X. c #AAAAAA",
"o. c gray67",
"O. c #ABAAAE",
"+. c #ACACAC",
"@. c #AEAEAE",
"#. c #ADADB0",
"$. c #B0AFB3",
"%. c gray69",
"&. c #B2B2B2",
"*. c gray70",
"=. c #B4B4B4",
"-. c gray71",
";. c #B6B6B7",
":. c #B8B7BA",
">. c gray73",
",. c #BCBCBC",
"<. c gray74",
"1. c gray75",
"2. c #C1C1C1",
"3. c #C1C1C3",
"4. c #C3C3C3",
"5. c #C5C5C5",
"6. c #C5C5C6",
"7. c #C6C6C6",
"8. c gray78",
"9. c #C8C7CA",
"0. c gray79",
"q. c #CACACA",
"w. c #CAC9CC",
"e. c #CDCDCE",
"r. c gray81",
"t. c #D1D0D1",
"y. c #D3D3D5",
"u. c gray83",
"i. c #D6D5D7",
"p. c #D7D6D9",
"a. c #D8D8D8",
"s. c #D9D8DB",
"d. c #DADADB",
"f. c #DCDBDC",
"g. c #DDDDDD",
"h. c #DFDFDF",
"j. c #DEDEE0",
"k. c #E1E0E1",
"l. c #E1E1E1",
"z. c #E2E2E2",
"x. c gray89",
"c. c #E4E4E6",
"v. c #E6E5E6",
"b. c #E7E7E7",
"n. c #E7E7E9",
"m. c gray91",
"M. c #E9E9E9",
"N. c #E8E8EA",
"B. c #EAEAEA",
"V. c #ECEBEE",
"C. c #ECECEC",
"Z. c #EDECED",
"A. c gray93",
"S. c #EFEEEF",
"D. c #EFEFEF",
"F. c #F0EFF2",
"G. c #F1F1F1",
"H. c gray95",
"J. c #F3F3F3",
"K. c #F5F4F5",
"L. c gray96",
"P. c #F6F6F6",
"I. c #F7F6F7",
"U. c gray97",
"Y. c #F6F5F8",
"T. c #F8F7FA",
"R. c #F8F8F8",
"E. c #F9F9F9",
"W. c #FAF9FA",
"Q. c gray98",
"!. c #FBFAFB",
"~. c #FBFBFB",
"^. c #F9F8FC",
"/. c #FAFAFE",
"(. c #FCFBFC",
"). c #FCFBFF",
"_. c gray99",
"`. c #FDFCFD",
"'. c #FDFDFD",
"]. c #FEFDFF",
"[. c #FEFEFE",
"{. c white",
"}. c None",
/* pixels */
"}.}.}.}.}.}.}.}.}.}.}.}.}.}.}.}.}.}.}.}.                                      }.  }.}.}.}.}.}.}.}.}.}.}.}.}.}.}.}.}.}.}.}.}.}.}.",
"}.}.}.}.}.}.}.}.}.}.}.}.}.}.}.}.                                                    }.}.}.}.}.}.}.}.}.}.}.}.}.}.}.}.}.}.}.}.}.}.",
"}.}.}.}.}.}.}.}.}.}.}.}.}.}.                    O O % O   O   O O O                       }.}.}.}.}.}.}.}.}.}.}.}.}.}.}.}.}.}.}.",
"}.}.}.}.}.}.}.}.}.}.}.                          % 7 s g z z z g 6 % O %                     }.}.}.}.}.}.}.}.}.}.}.}.}.}.}.}.}.}.",
"}.}.}.}.}.}.}.}.}.}.          O O % 5 n ~ } o.>.g.B.K.F.L.I.H.S.F.v.t.+.U S b p % O             }.}.}.}.}.}.}.}.}.}.}.}.}.}.}.}.",
"}.}.}.}.}.}.}.}.      %     O h V =.k.E.L.L.g.1.} | @.>.9.f.H.T.(.T.E.[.[.E.L.H.i.P 9 O   O       }.}.}.}.}.}.}.}.}.}.}.}.}.}.}.",
"}.}.}.}.}.}.}.      O   - x R +.q.!.L.=.C s 2 O O O % % - 5 u j c m R ( ( ..d.H.Y.E.k.! e           }.}.}.}.}.}.}.}.}.}.}.}.}.}.",
"}.}.}.}.}.}.        O g R +.-.| f.[ k - $ O O O O O O O % O O O   O $ O   - 7 g c c k m S -           }.}.}.}.}.}.}.}.}.}.}.}.}.",
"}.}.}.}.        O % n  .o.%.' B p = O % s Z _ 7.a.x.i.e.&./ A m n k e 5 5 % O o o O % % O - O           }.}.}.}.}.}.}.}.}.}.}.}.",
"}.}.}.}.    O   - C +...' b 7 o > O l ..B.[.[.E.[.[.E.[.[.[.(.E.L.H.v.k.k.q.[ B b b n h 7 O O O O         }.}.}.}.}.}.}.}.}.}.}.",
"}.}.}.    O   k U  .&.Z 7 % o - k ..K.E.[.[.[.[.[.!.[.[.[.(.[.[.[.[.[.!.[.!.R.Y.S.L.L.h.f.7...Z s - % O     }.}.}.}.}.}.}.}.}.}.",
"}.}.      O x ]  ...M % , - z / ..4.T.[.[.!.[.[.[.[.[.[.[.[.[.[.[.[.[.[.[.[.[.[.E.>.Z h t v J =.d.q.a O O     }.}.}.}.}.}.}.}.}.",
"}.      O l ..&. .v %   s J ..o.#.@.t.K.i...H J ! -.S.[.[.[.[._.[.[.[.[.[.E.E.v.B -   O O O O 5 s ! >.,     O }.}.}.}.}.}.}.}.}.",
"}.      u ] ..} l O O l ]  .o...+.' M l 9 > O O % $ k 4.[.[.[.[.(.[.!.[.[.[.1.g % O t M F b w O O % J R O O O   }.}.}.}.}.}.}.}.",
"    O O J +.o.} 1 $ b | +.+.#.%.R i - O $ = u s t $ O 9 ! L._._.[.[._.[.[.] 5 O - C k.H.L.Y.k...l $ O ~ z         }.}.}.}.}.}.}.",
"    O u ....#.+.B V &. .+.+.+.I 1 $ - l I 1.j.n.k.( w $ - S _.[.[.[.[.[.Z.7 O s +.F.[.E.[.E.E.E.v.z $ 9 +.,       }.}.}.}.}.}.}.",
"    O m +.+.+.+.o.+.+.....o.U 7 O 9 ] m.H.g.-.8.[.E.i.v % % :.[.[.[.[.[.>.O , 7.[.(.E.[.e.A x b p.i.5   =.G % O     }.}.}.}.}.}.",
"O O % ~ ..+.+.+.+...+.+.+.o.k % 7 :.L.L.S 7 % 7 | E.E.k.l   c I.(.[.(.[...- s I.[.[.[.| u O O O M j.p   &.B.g     O   }.}.}.}.}.",
"    5 | +.+.+.....+.+...+.[ , = / E.!.R   O O   k K.!.!.+.$ u F.(.[.[.[...O w F.E.[.Y.k O O =   I d., O 4.E.+., O     }.}.}.}.}.",
"O O e +.+.+.+...+.+...+...[ 1 % 4.!.[.c   O O   k K.[.[.P O r H.[.[.(.[.t., = _ [.[.L.B O O - Z v.U O - 4.T.L.n O O     }.}.}.}.",
"    p &.+.+.....+...+.+.+. .7   V E.[...w $ O u #.H.d.F - O m [.(.[.[.[.E.x O - D 4.k.e.m B >.B.+.5   b ) y.E.k.h O     }.}.}.}.",
"    p +.+.+.+.+.+...+... .&.b O , ' L.H.q.' _ +.} J i   O - *.[.(.[.[.[.E.q.u   = = w n  .] D b , O w Q w j H.[.}         }.}.}.",
"    s &.+.....+.+.+.+.+.+.Z z w $ > n Z z g g e % O O O O M L.[.[.[.[.[.[.[.| - O   O % - $ $ O   5 R n   e H.[.H.u   O   }.}.}.",
"O   s &.+.+.+.+.+.+.+.+.} i $ k r $ O O O % O O - - O   u k.[.[.[.[.[.[.[.[.E.N O   , w = : 1 p x } ..7 O I [.[.E.C O       }.}.",
"O   s +.o.o.o.o.+.+.+.+.%.x   5 x l e w a j z n m e O % R [.[.[.[.[.[.[.[.(.[.x.l O $ l S A ) ..o.=.:.d x B.[.[.[.-.$ o     }.}.",
"  O w &.o.+.o.o.+.+.+.+.%./ w   = G U I G G C v , O O N F.[.[.[.[.[.[.(.[.(.[.[.p.j   % t g z k e P :.7.Z.[.[.[.[.S.t O     }.}.",
"  O - / o...o.o.o.o.+.+.+.+.Q z z ! R G e 1 %   % - M p.[.[.[.[.[.[.[.[.[.[.[.[.[.d.n , $ O $ o @ V v.(.(.[.[.[.[.[.V   O     }.",
"O   O ! +.+.+.+.+.+.+.+.+.+.o.| } | ~ D , O % 5 k Q i.E.[.[.[.[.[.[.[.[.[.[.[.[.[.[.F.&.A z k l D k.(.E.[.[.[.[.[.[.7.- O O   }.",
"  O   R o.+.+.+.+.+.+.+.+.+.+.+.+.| +.] Z N G _ 7.x.L.[.(.[.[.[.[.[.[.[.[.[.[.[.[.[.[.[.E.E.S.F.T.[.[.[.[.[.[.[.[.[.n.w o O   }.",
"O O o S +.+.+.+.+.+.+.o.+.+.+.+.+.*.-.1.y.Z.H.H.T.[.[.[.[.[.[.[.[.[.[.[.[.[.[.[.[.[.[.[.[.[.[.[.[.[.[.[.[.[.[.[.[.[.E.c o   O }.",
"O O O x +.#.+.+.+.+.+.&.} -.e.k.v.S.I.[.[.[.[.[.[.[.[.[.[.[.[.[.[.[.[.[.[.[.[.[.[.[.[.[.[.[.[.[.[.[.[.[.[.[.[.[.[.[.[.D O     }.",
"O     s +.&.+.+.+.+.o.n g t.E.[.[.[.[.[.[.[.[.[.[.[.[.[.[.[.[.[.[.[.[.[.[.[.[.[.[.[.[.[.[.[.[.[.[.[.[.[.[.[.[.[.[.[.[.+.        ",
"      , } +.+.+.+.+.U - O >.[.[.[.[.[.[.[.[.[.[.[.[.[.[.!.[.[.[.[.[.(.[.[.[.[.[.[.[.[.[.[.[.[.(.[.[.[.[.[.[.[.[.[.[.[.k.5 O     ",
"      O C +.+.+.+.+.k O s v.[.[.[.[.[.[.[.[.[.[.[.[.[.[.[.[.[.[.[.[.[.[.[.[.[.[.[.[.[.[.[.[.[.[.[.[.[.[.[.[.[.[.[.[.[.E.j   O   ",
"}.    O h | +.+.+.J O % R L.E.[.[.[.[.[.(.[.(.E.Y.T.T.F.x.d.p.d.d.t.y.y.y.t.p.p.p.p.d.d.d.k.B.(.(.[.[.[.(.(.(.[.[.[.[.E.b O     ",
"}.    O - J ....+.p   k S.[.!.[.E.[.[.[.S.i...! m c z k s u t u u w 7 9 w w w w w 8 w e e p j n ' f.Y.(.[.[.[.[.[.[.[.[.S   o   ",
"}.      O j ....R O % +.L.(.[.!.v.7.I n k 7 O O   $ o % O $ $ O $ % % $ O % % $ = $ O @ $ o O   o e m &.S.(.[.(.[.[.[.[./ o o   ",
"}.}.      - U | m O w H.E.B.$.N g ,   O O O 7 a l b B Z R / _ _ ] +.$.&.&.$.....o.+... .} / F z 4 o o : v 9.^.[.E.[.[.[.>.O     ",
"}.}.      O k &.B   p Y.>.z -   O O e l n ~ 1.v.L.[.[.[.[.[.[.[.[.[.[.[.[.[.[.[.[.[.[.[.[.[.[.H.4.J p = $ 4 } (.(.[.[.(.-.o     ",
"}.}.}.  O   % H Z   u L.x - , s M ] e.S.L.E.[.[.[.[.[.[.[.[.[.[.[.[.[.[.[.[.[.[.[.[.[.[.[.[.[.[.Y.(.k.R w o 5 9.(.(.[.[.o.      ",
"}.}.}.    O   k Z O 5 H.D z ..B.[.[.[.[.[.[.[.[.[.[.[.[.[.[.[.[.[.[.[.[.[.[.[.[.[.[.[.[.[.[.[.[.[.[.[.[.e.w % A [.(.[.[./       ",
"}.}.}.}.      - m % % 7.S.Z.[.[.[.[.[.[.[.[.[.[.[.[.[.[.[.[.[.[.[.[.[.[.[.[.[.[.[.[.[.[.[.[.[.[.[.[.[.[.F.b   n (.[.[.[.A O     ",
"}.}.}.}.    O O g w % v T.(.[.[.[.[.[.[.[.[.[.[.[.[.[.[.[.[.[.[.[.[.[.[.[.[.[.[.[.[.[.[.[.[.[.E.k.9.q.-.m %   } (.(.[.[.n %     ",
"}.}.}.}.}.      - k O - ] L.[.[.[.[.[.[.[.[.[.[.[.[.[.[.[.[.[.[.[.[.[.[.[.[.[.[.[.[.[.[.[.[.E.| s , - - - % N Y.[.[.[.L.k O     ",
"}.}.}.}.}.        u u O w -.[.[.[.[.[.[.[.[.[.[.[.[.[.[.[.[.[.[.[.[.[.[.[.[.[.[.[.[.[.[.[.[.4.5 O - , , g R S.[.[.[.[.S.w       ",
"}.}.}.}.}.}.O   O $ b -   g B.[.[.[.[.[.[.[.[.[.[.[.[.[.[.[.[.[.[.[.[.[.[.[.[.[.[.[.[.[.[.[.v O u +.:.1.n.E.[.[.[.[.[.e.O       ",
"}.}.}.}.}.}.  O O   p U s c L.[.[.[.[.[.[.[.[.[.[.[.[.[.[.[.(.(.[.[.[.[.[.[.[.[.[.[.[.[.[.4.% O ..(.[.[.[.[.[.[.[.[.[.R O     }.",
"}.}.}.}.}.}.}.O     O / j.B.[.[.[.[.[.[.[.[.[.[.Y.V.S.S.B.[.[.[.[.[.[.[.[.[.[.[.[.[.[.[.Y.v O k Z.E.[.[.[.[.[.[.[.[.E.l       }.",
"}.}.}.}.}.}.}.  O   O s h.L.[.[.[.[.[.[.[.[.J.p.>.#.+.o.o.s.F.S.(.E.[.[.[.[.[.[.[.[.[.T.>.% O ..E.(.[.(.[.[.[.[.[.[.x.2 O     }.",
"}.}.}.}.}.}.}.}.    O % v S.[.[.[.[.[.[.[.j.>...o.o.o.#.#.o.B x $.S.[.[.[.[.[.[.[.[.[.7.s $ x L.[.[.[.[.[.[.[.[.[.[.| O       }.",
"}.}.}.}.}.}.}.}.}.    O % A i.m.I.K.S.b.7.&...+.o.o.o.#.#.{ w $ : l D &.g.S.E.(.F.g._ w   7 9.L.[.[.(.[.[.[.[.[.[._.b   O     }.",
"}.}.}.}.}.}.}.}.}.      O O F %.@.&.@.....+.+...o.O.o.o.#.&.Z 3 = o $ O , k N A z 5 O $ e ..(.E.[.[.(.[.(.[.[.[.!.m., O     }.}.",
"}.}.}.}.}.}.}.}.}.}.    O O , ! +...o.+.+.+.+.+.+.+.+.+.#.#.#._ b u , % % % $ O   o 7 z 9.T.[.[.(.[.[.[.[.[.[.[.[._ O       }.}.",
"}.}.}.}.}.}.}.}.}.}.}.    o   u ] o.+.+.+.+.+.+.+.#.+.#.#.#.o.#...#./ U m l d h l I 4.L.[.[.E.[.[.[.[.[.[.[.[.[.B.g O     }.}.}.",
"}.}.}.}.}.}.}.}.}.}.}.}.      o 9 K  .+.+.+.+.+.+.+.+.o.#.#.#.#.#.$.$.$.7.Y.(.(.(.[.(.(.[.[.[.[.[.[.[.[.[.[.[.E.R O O O   }.}.}.",
"}.}.}.}.}.}.}.}.}.}.}.}.}.      O - b _ +.o.o.o.+.+.#.o.#.#.o.#.#.$.$.$.d.[.[.(.[.[.[.[.[.[.[.[.[.[.[.[.[.[.[._ - O     }.}.}.}.",
"}.}.}.}.}.}.}.}.}.}.}.}.}.}.      O O 5 N | ..$.+.#...#.#.#.+.#.#.#.+.>.K.[.[.[.[.[.[.[.[.[.[.[.[.[.[.[.[.!.| 5 O     }.}.}.}.}.",
"}.}.}.}.}.}.}.}.}.}.}.}.}.}.}.      o O O e J ..+.#.o.#.#.#.#.+.#.#...F.[.[.[.[.[.[.(.[.[.[.[.[.[.[.[.[.[.-.9 %       }.}.}.}.}.",
"}.}.}.}.}.}.}.}.}.}.}.}.}.}.}.}.          O O d n Y _ o.+.o.+.+.&.#.j.[.(.[.[.[.[.[.[.[.[.[.[.[.[.[.[.E.t.r         }.}.}.}.}.}.",
"}.}.}.}.}.}.}.}.}.}.}.}.}.}.}.}.}.}.O o O   O     O 5 i b Q | +.o.w.(.[.[.[.[.[.[.[.[.[.[.[.[.[.(.E.v.! 7 O       }.}.}.}.}.}.}.",
"}.}.}.}.}.}.}.}.}.}.}.}.}.}.}.}.}.}.}.}.o O         o   O O w l A -.9.h.H.L.E.T.[.[.(.[.[.E.p.} J l , O O       }.}.}.}.}.}.}.}.",
"}.}.}.}.}.}.}.}.}.}.}.}.}.}.}.}.}.}.}.}.}.              O   O O O = $ - w j b G R G A S C z - O O %   O     O }.}.}.}.}.}.}.}.}.",
"}.}.}.}.}.}.}.}.}.}.}.}.}.}.}.}.}.}.}.}.}.}.}.}.                O O   O O         O O       O       O       }.}.}.}.}.}.}.}.}.}.",
"}.}.}.}.}.}.}.}.}.}.}.}.}.}.}.}.}.}.}.}.}.}.}.}.}.}.}.}.              O   O   O O         O   O         }.}.}.}.}.}.}.}.}.}.}.}."
};
