/* XPM */
static char *frame_35_delay_0_05s1763316731[] = {
/* columns rows colors chars-per-pixel */
"64 64 230 2 ",
"   c black",
".  c #010101",
"X  c #020202",
"o  c gray1",
"O  c #040404",
"+  c gray2",
"@  c #040406",
"#  c #060606",
"$  c #070707",
"%  c gray3",
"&  c #090909",
"*  c gray4",
"=  c #0B0B0B",
"-  c #0C0C0C",
";  c gray5",
":  c #0E0E0E",
">  c gray6",
",  c #101010",
"<  c #111111",
"1  c gray7",
"2  c #131313",
"3  c gray8",
"4  c #151515",
"5  c #161616",
"6  c gray9",
"7  c #181818",
"8  c #191919",
"9  c gray10",
"0  c gray11",
"q  c #1D1D1D",
"w  c #1E1E1E",
"e  c gray12",
"r  c #202020",
"t  c #222222",
"y  c #232323",
"u  c gray14",
"i  c gray15",
"p  c #272727",
"a  c #282828",
"s  c #2A2A2A",
"d  c #2C2C2C",
"f  c #2D2D2D",
"g  c #2F2F2F",
"h  c gray19",
"j  c #313131",
"k  c #323232",
"l  c #323136",
"z  c gray22",
"x  c #3A3A3A",
"c  c #3D3C41",
"v  c gray28",
"b  c #494949",
"n  c #4A494E",
"m  c #4F4F50",
"M  c gray33",
"N  c #54535B",
"B  c gray35",
"V  c #5C5C5E",
"C  c #5E5D64",
"Z  c #606060",
"A  c #626166",
"S  c gray40",
"D  c #68676B",
"F  c gray42",
"G  c gray43",
"H  c #707072",
"J  c gray45",
"K  c #747378",
"L  c #787779",
"P  c gray48",
"I  c #7B7B7B",
"U  c #7A7A7C",
"Y  c #7B7B7D",
"T  c #7C7C7C",
"R  c gray49",
"E  c #7D7C7F",
"W  c #7E7E7E",
"Q  c gray50",
"!  c #7E7D80",
"~  c #808083",
"^  c #838384",
"/  c #868686",
"(  c gray53",
")  c #848388",
"_  c #86858A",
"`  c #888888",
"'  c #898989",
"]  c #8B8B8B",
"[  c #89888D",
"{  c gray55",
"}  c #8D8D8D",
"|  c #8E8E8E",
" . c #8C8B90",
".. c #8E8E92",
"X. c gray57",
"o. c #939393",
"O. c gray58",
"+. c #959595",
"@. c #929198",
"#. c #979699",
"$. c #98989B",
"%. c #9A9A9A",
"&. c gray61",
"*. c gray62",
"=. c #9D9CA1",
"-. c #A0A0A0",
";. c #A1A0A3",
":. c #A2A2A2",
">. c #A4A4A6",
",. c #A7A6A7",
"<. c #A7A7AA",
"1. c #A9A9A9",
"2. c #AAAAAA",
"3. c gray67",
"4. c #ACACAC",
"5. c #AEAEAE",
"6. c #ADADB0",
"7. c #AEADB3",
"8. c #B0AFB3",
"9. c gray70",
"0. c #B1B0B7",
"q. c #B4B4B4",
"w. c gray71",
"e. c #B6B6B7",
"r. c #B5B4B8",
"t. c #B8B7BA",
"y. c gray73",
"u. c #BBBBBD",
"i. c #BAB9BF",
"p. c #BCBCBC",
"a. c gray75",
"s. c #BDBCC0",
"d. c #BEBDC3",
"f. c #C0BFC2",
"g. c #C0C0C0",
"h. c #C1C1C1",
"j. c #C1C1C3",
"k. c #C3C2C5",
"l. c #C1C0C7",
"z. c #C5C5C5",
"x. c #C5C5C6",
"c. c #C6C6C6",
"v. c #C6C5C9",
"b. c #C8C7CA",
"n. c #C8C8C8",
"m. c gray79",
"M. c #CACACA",
"N. c #CAC9CC",
"B. c #CCCBCE",
"V. c #CDCDCE",
"C. c gray81",
"Z. c #CFCFD2",
"A. c #D1D0D1",
"S. c #D1D0D3",
"D. c LightGray",
"F. c #D3D3D5",
"G. c gray83",
"H. c #D6D5D7",
"J. c #D7D6D9",
"K. c #D8D8D8",
"L. c #D9D8DB",
"P. c #DADADB",
"I. c #DCDBDC",
"U. c #DCDBDE",
"Y. c #DDDDDD",
"T. c #DFDFDF",
"R. c #DEDEE0",
"E. c #E1E0E1",
"W. c #E1E1E1",
"Q. c #E1E1E3",
"!. c #E2E2E2",
"~. c gray89",
"^. c #E3E3E5",
"/. c #E2E1E6",
"(. c #E4E4E4",
"). c #E4E4E6",
"_. c #E6E5E6",
"`. c #E7E7E7",
"'. c gray91",
"]. c #E9E9E9",
"[. c #E8E8EA",
"{. c #EAEAEA",
"}. c #EBEAEB",
"|. c #EAE9EC",
" X c #EBEAED",
".X c #EBEAEF",
"XX c #ECEBEE",
"oX c #ECECEC",
"OX c #EDECED",
"+X c gray93",
"@X c #EEEEEE",
"#X c #EFEFEF",
"$X c #EDECF0",
"%X c #EFEEF3",
"&X c #F0EFF2",
"*X c gray94",
"=X c #F1F1F1",
"-X c #F1F1F3",
";X c gray95",
":X c #F3F3F3",
">X c #F2F1F5",
",X c #F4F3F4",
"<X c #F4F3F6",
"1X c #F4F4F4",
"2X c gray96",
"3X c #F5F4F7",
"4X c #F6F6F6",
"5X c #F7F6F7",
"6X c gray97",
"7X c #F5F4F9",
"8X c #F6F5F8",
"9X c #F7F6F9",
"0X c #F8F7FA",
"qX c #F8F8F8",
"wX c #F9F9F9",
"eX c #FAF9FA",
"rX c gray98",
"tX c #FBFAFB",
"yX c #FBFBFB",
"uX c #F9F8FC",
"iX c #FAFAFE",
"pX c #FCFBFC",
"aX c #FCFBFF",
"sX c gray99",
"dX c #FDFCFD",
"fX c #FDFDFD",
"gX c #FEFDFF",
"hX c #FEFEFE",
"jX c white",
"kX c None",
/* pixels */
"kXkXkXkXkXkXkXkXkXkXkXkXkXkXkXkXkXkX  kX                                      kX  kXkXkXkXkXkXkXkXkXkXkXkXkXkXkXkXkXkXkXkXkXkXkX",
"kXkXkXkXkXkXkXkXkXkXkXkXkXkXkXkX                                                      kXkXkXkXkXkXkXkXkXkXkXkXkXkXkXkXkXkXkXkXkX",
"kXkXkXkXkXkXkXkXkXkXkXkXkX                      O O O O X O   O X X                       kXkXkXkXkXkXkXkXkXkXkXkXkXkXkXkXkXkXkX",
"kXkXkXkXkXkXkXkXkXkXkX                          % 8 u k v v b h 8 = O $                     kXkXkXkXkXkXkXkXkXkXkXkXkXkXkXkXkXkX",
"kXkXkXkXkXkXkXkXkXkX        O     % % h m m B G P.*X>XqX6X5XyX1X$XW.A.4.` G M d % O               kXkXkXkXkXkXkXkXkXkXkXkXkXkXkX",
"kXkXkXkXkXkXkXkX      %     O a c M G Q P T ` H.rXsXsXtXrXsXsXsXsXrXrXsXsXsX*X*XC.L r O   O       kXkXkXkXkXkXkXkXkXkXkXkXkXkXkX",
"kXkXkXkXkXkXkX          % h Z P P P P E ^ W t.`.*X*X*X5X5X5X6XrXsXrXqXrXrXrX6XyX5XrX`.| r %         kXkXkXkXkXkXkXkXkXkXkXkXkXkX",
"kXkXkXkXkXkX        O u Z L U W W T P D M x r q q q k M Z Z Z A S S D H P P J G G L W / | f O         kXkXkXkXkXkXkXkXkXkXkXkXkX",
"kXkXkXkX      O O O c J P ^ J M z 3 < % O   %   o O   O O O O % O O   O O   O % O $ O O % % O             kXkXkXkXkXkXkXkXkXkXkX",
"kXkXkXkX  O     : M W W F c > O O O       O 3 8 c m x e 3 3 3 3 6 3 < % % % > < % % & O O         O       kXkXkXkXkXkXkXkXkXkXkX",
"kXkXkX        u S W P v 3 % O $ % 0 l c M D J P ^ /.+X`.'.`.}.`.`.W.Y.H.H.H.Y.W.P.P.c.p.+.S c u % O % O     kXkXkXkXkXkXkXkXkXkX",
"kXkX      O l P W L c % O O a M D L P J W W E W P +.E.rXsXsXsXsXsXsXrXsXsXsXsXsXrX5X`.y.*.,.1.y.9.^ u O O     kXkXkXkXkXkXkXkXkX",
"kX      O a J T W M %   r B G W ) ! U J S Z Z Z V S L a.6XsXsXsXsXsXsXsXsXsXsXrXA.o.v u 8 % q u m %.1.3 O   O kXkXkXkXkXkXkXkXkX",
"kX      8 J J W U c O q G ! P E L G A C B n c c x c B D %.@XsXsXsXsXsXsXsXsX*X%.v 3 -         O   : c v O O O   kXkXkXkXkXkXkXkX",
"    O O A W W W W J B J U ! ! K D B c r > O O O O O : d M ~ +XsXsXsXsXsXsX*XT r %   O q c B n a : O O h x O       kXkXkXkXkXkXkX",
"    O r P P T W W W ^ P U U K F N 8 = O % O : , < %     % x { 5XsXsXsXsXsX<.a O % u o.Y.}.sX1XI.:.f O $ k a O     kXkXkXkXkXkXkX",
"      b P P W W W W T W L E A n 6 & % l U y.M.I.T.y.A 2 @ % x A.sXsXsXsXoXV ,   M K.rXsXsXsXsXsXrXH.b O % c %   X   kXkXkXkXkXkX",
"O O $ F T T P T W E W W E K C 5 O 2 @./.sXrX5XrXrXrX5Xw.a O % ^ sXsXsXsXM.h O 6 E.sXsXsXsXsXsXsXsXpXP.r   f u O X X   kXkXkXkXkX",
"O   3 L P T W W W W W ! ! D c @ : 7.5XsXsXsX5XY.g.A.:X>XM.8 O l +XsXsXsXM.u O x ,XpXsXsX+X$.c x ^ 5Xp.:   x n = O X   kXkXkXkXkX",
"O O q ^ W W W W E W W W ! D c o 2 l.sXsXsXsX%.y , q %.tXrXx O u M.sXsXsXV.e $ 8 a.rXsXsXr.% % % 8 n.x O 3 m S m O   X   kXkXkXkX",
"    r T W W W W ! W E W L C N 8 O N sXsXsX}.8 O     n rXA.r @ a a.sXsXsXW.q   O y M.rXrXa.% O O h F % : c B V i.h O X   kXkXkXkX",
"    r T W W W T W ! W ! L C N z - : 0.tXsX}.8       J 1.p % O 8 V.sXsXsXsXZ     O h 5.tX*X` B P J <   y Z C B d.<.=       kXkXkX",
"  O r W W E W W W ! ! ! L m < a q @ u 7.>XrX7.n g x m < X O - x (.sXsXsXrXg.3     O 3 D v.}.W._ 3 # q M M C N i..Xu O     kXkXkX",
"O   r P W W W W ! W ! ! U c # > c < % 3 D ` ~ K z 3 O X O X O D 5XsXsXsX6XrXB O O   O % r s f # O 2 M v 2 l V d.sXG O       kXkX",
"  O u P W W W W W W ! ! L Z 8 O a v % % $ $ $ = O @ < % X < r | sXsXsXsXsXsXl.6 % O O # @ = @ o 6 n C 5 $ 0 C U.rXt.O O     kXkX",
"O   2 T W W T W E W ! W U S c o O c m a 6 6 2 3 u x a % O u f y.sXsXsXsXsXsX5XB a % # O s s s z M C l o = g D %XsX$Xu O     kXkX",
"  O : G P T P W W E ! E E B M q # < c M V N n B B c :   9 k n H.sXsXsXsXsXsXsXc.l a O % y m B A V x > @ e m [ uXsXsXG     O o kX",
"O   O S P P T P W W ! E ! H x n 5 O % r M N B M p : X 6 c u ^ 5XsXsXsXsXsXsXsXrXA c e O # 2 a h u : o : v M R.tXsXsXx.= O     kX",
"  O   Z T T P T T W ! ! E E S z v 5 % $ > r q % @   q v l A 7.sXsXsXsXsXsXsXsXsXR.b m 8 O # % # O O # c m 7.uXtXpXpX$Xq o $   kX",
"O O O m T P T P E E E ! E E P V l b h % % O @ @ $ p M z B W }.sXsXsXsXsXsXsXsXsX5XZ.n n x 5 # # < q v M <.7XuXtXtXpXrXb O     kX",
"  O   x P T P T E E E ! ! E E P D z b m h r r d n V x D J w.sXsXsXsXsXsXsXsXsXsXsXsXE.Z.Z.<.| { =.r.B.B.sXsXpXtXpXsXsXP O     kX",
"      r T P T P E E W E ! ! U U L H m C S S A G I J D L &.$XsXsXsXsXsXsXsXsXsXsXsXsXsXtXtXrXtXpXsXsXsXpXsXsXpXpXpXtXsX7.  o o   ",
"      % F W P P E U ! ! W K x B ! ! ! U U U L U P P ~ / `.sXsXsXsXsXsXsXsXsXsXsXsXsXsXsXsXsXsXsXsXsXsXsXsXsXsXsXsXsXsXR.<       ",
"      # m W P T P U U ! W v   u ! U ! ! ! ! U U U U ^ M.sXsXsXsXsXsXsXsXsXsXsXsXsXsXsXsXsXsXsXsXsXsXsXsXsXsXsXsXsXsXsXrXx O O   ",
"kX      r W P U P T ! U J 2 % c ! U ! ! U ! ^ P P { N.0XsXsXsXsXsXsXsXsXpXsXsXsXpXtXsXpXsXsXsXsXsXsX9XsXsXsXsXsXsXsXsXsXM O     ",
"kX        V P P T P ! ! c O < H ! ! ! ! ! ! U ! <.I.sXsXsXsXsXpXsXtX>X*X`.K.Y.Y.R.`.&X0XsXsXsXsXsX>X*.R.sXsXsXsXsXsXsXsXJ O O   ",
"kX      o u ! P P P P P 5 # v ! U U U U U ~ +.R.9XpXsXsX.XY.r._ D C n c a a u u a z v M S ..N.%XpXpXw.` /.pXsXsXsXsXsXsX+.  o   ",
"kXkX      O Z P E P U m % 8 $.L L U U ! ! =._.9XI.c.:.! M a % # o # @ @ O @ $ $ @ O # # o # 8 m $.b.V.) o.&XsXsXsXsXsXsXr.O     ",
"kXkX    O o f L P W U h o m g.U ! o.C.N.b.Z.#.M g O # o O O O - 5 r a g c M B B n l a u e - % # % > a a V a.sXsXsXsXsXsXr.O     ",
"kXkXkX      % V E E L 3 % $.f.U ! S.C...v e # O o # # 2 r v _ t.N.H.I._.,X9XtXrX9X$X(.E.V.>.B e : O O # , F >XrXsXsXsXsX<.O o   ",
"kXkXkX      O u ! ! K % % M.d.L L G r # O # O q z K :.g.Y.,XsXsXsXsXsXsXsXsXsXsXsXsXsXsXsXsXsXY.7.o.M % # < -.rXsXsXsXsX$.      ",
"kXkXkXkX  o   O A U S o 0 U.q.b 3 #   - u b o.b.3XpXsXsXsXsXsXsXsXsXsXsXsXsXsXsXsXsXsXsXsXsXpXtXsX5X$X=.5 # e J.sXsXsXsXP O O   ",
"kXkXkXkX        a ! A o e $X9.# o < l o.H.sXtX0XsXpX*XXX>X.X.X`./.+X0XsXsXsXsXsXsXsXsXsXsXsXtXpXsX9XtX7X..# % ^ sXsXsXsXB O     ",
"kXkXkXkXkX  o   @ A A @ < K.M.u 0 O.`.pXpX9X.XL.V.u.=._ ` _ ^ ^ ^ ` %./.sXsXsXsXsXsXsXsXsXsXI.-.^ P ^ U M o   P sXsXsXsXx   O   ",
"kXkXkXkXkX    o # 0 H > O ` &XE U J.pXR.w.>. .! U L L Y U U U E E U U >.sXsXsXsXsXsXsXsXsX+Xx = @   $ $ O = e Z.sXsXsX}.r       ",
"kXkXkXkXkXkX    o # m c O a I.u.U | V.) ! ! L E ! U U U U U U ! U ! W 9.sXsXsXsXsXsXsXsX9X+.% O > < > : : u 7.tXsXsXrXx.  O     ",
"kXkXkXkXkXkX    O o 0 D 3 # M B.` _ ~ ~ ! U U U Y ! U ! Y Y ! U ! E ) `.sXsXsXsXsXsXsXsXb.8 O a 9.j.u.1.L J.sXsXsXsXrX/   O   kX",
"kXkXkXkXkXkXkX    o O B v # : f S U W ! U U U U U ! U ! U ! U E E E W d.sXsXsXsXsXsXsX`.x # > <.sXrX9XA.J.pXsXsXsXsX0Xc O O   kX",
"kXkXkXkXkXkXkX  o o o r H x $   % c W E E E ! U U ! ! ! ! E E E E ! ! ^ b.rXsXsXsXsX3XM $ $ D rXsXsXsXsXsXsXsXsXsXsX`.< o o   kX",
"kXkXkXkXkXkXkXkX    o O f U M 3 $ 3 ! E U U ! Y ! U E E E E ! ! E ! ! ! ! :.N.XX$XL.J - O q K.sXsXsXsXsXsXsXsXsXsXsX1.O       kX",
"kXkXkXkXkXkXkXkXkX    O O v P F b D U U U Y U Y U ! U ! E E U S f h z v F L U U ! Z 3   7 ^ sXsXsXsXsXsXsXsXsXsXsXsXm O o   kXkX",
"kXkXkXkXkXkXkXkXkX      O : m ! U U U U Y U U Y U U ! U ! ! U x O o O # - 0 f h h >     v Z.sXpXsXsXsXsXsXsXsXsXsX}.3       kXkX",
"kXkXkXkXkXkXkXkXkXkX    O O < L L L U L L U U U Y Y ! ! ! ! P M 3 > : O O O O   # O # v +.,XsXsXsXsXsXsXsXsXsXsXsX+.$       kXkX",
"kXkXkXkXkXkXkXkXkXkXkX    O   a K L U P P P U P U ! U ! E E U E K J H m f < : % : r m ! H.sXsXsXsXsXsXsXsXsXsXsX$Xh O O   kXkXkX",
"kXkXkXkXkXkXkXkXkXkXkXkX  O O   5 N ! ^ P P P P Y Y ! U E E E ! E ! ! U U L F G J P K ..rXsXsXsXsXsXsXsXsXsXsXsXT &       kXkXkX",
"kXkXkXkXkXkXkXkXkXkXkXkXkX      # # x D U U W U Y Y U ! E E ! ! E E E E U U P P P P J i.sXsXsXsXsXsXsXsXsXsXrX*.:   o   kXkXkXkX",
"kXkXkXkXkXkXkXkXkXkXkXkXkXkX      o   < M J L U E E ! U ! ! ! ! ! E ! ! U U U E U U ^ `.sXsXsXsXsXsXsXsXsXpX,.3         kXkXkXkX",
"kXkXkXkXkXkXkXkXkXkXkXkXkXkXkX    O O O o 3 B U U U U W ! U ! ! ! E E E ! U U U U E i.rXsXsXsXsXsXsXsXsXsXw.2 O       kXkXkXkXkX",
"kXkXkXkXkXkXkXkXkXkXkXkXkXkXkXkX          o % y v Z D W U U ! ! E ! ! ! E E U ! U :.pXsXsXsXsXsXsXsXsX0Xb.q O O     kXkXkXkXkXkX",
"kXkXkXkXkXkXkXkXkXkXkXkXkXkXkXkXkXkX  O O o O o     > q c D U ! E ! ! E E ! ! U { +XsXrXsXsXsXsXsXtXW.| q O       kXkXkXkXkXkXkX",
"kXkXkXkXkXkXkXkXkXkXkXkXkXkXkXkXkXkXkX      O     O   O O # 5 s v B A G L ! ! { R.sXsXsXtXuXI.<.^ c 2 o O   O   kXkXkXkXkXkXkXkX",
"kXkXkXkXkXkXkXkXkXkXkXkXkXkXkXkXkXkXkXkXkX              o O o o O O O $ < 0 a A _ ! J J G c : o o # o o       kXkXkXkXkXkXkXkXkX",
"kXkXkXkXkXkXkXkXkXkXkXkXkXkXkXkXkXkXkXkXkXkXkXkX              o O o   O   O       O o     o o o   o o       kXkXkXkXkXkXkXkXkXkX",
"kXkXkXkXkXkXkXkXkXkXkXkXkXkXkXkXkXkXkXkXkXkXkXkXkXkXkXkX              O   O   O   @       o   o           kXkXkXkXkXkXkXkXkXkXkX"
};
