/* XPM */
static char *frame_24_delay_0_05s1763316730[] = {
/* columns rows colors chars-per-pixel */
"64 64 169 2 ",
"   c black",
".  c #010101",
"X  c #020202",
"o  c gray1",
"O  c #040404",
"+  c gray2",
"@  c #060606",
"#  c #070707",
"$  c gray3",
"%  c #090909",
"&  c gray4",
"*  c #0B0B0B",
"=  c #0C0C0C",
"-  c gray5",
";  c #0E0E0E",
":  c gray6",
">  c #101010",
",  c #111111",
"<  c #131313",
"1  c gray8",
"2  c #151515",
"3  c #161616",
"4  c gray9",
"5  c #181818",
"6  c #191919",
"7  c gray11",
"8  c #1E1E1E",
"9  c gray12",
"0  c #202020",
"q  c #222222",
"w  c #232323",
"e  c gray14",
"r  c gray15",
"t  c #272727",
"y  c #282828",
"u  c #2A2A2A",
"i  c #2C2C2C",
"p  c #2D2D2D",
"a  c #313131",
"s  c #323232",
"d  c #323136",
"f  c gray22",
"g  c #3A3A3A",
"h  c #3D3C41",
"j  c gray28",
"k  c #494949",
"l  c #4A494E",
"z  c #4F4F50",
"x  c gray33",
"c  c gray35",
"v  c #5C5C5E",
"b  c #606060",
"n  c #626166",
"m  c gray40",
"M  c #68676B",
"N  c gray42",
"B  c gray43",
"V  c #707072",
"C  c gray45",
"Z  c #787779",
"A  c gray48",
"S  c #7C7C7C",
"D  c gray49",
"F  c #7E7E7E",
"G  c gray50",
"H  c #808083",
"J  c #838384",
"K  c #868686",
"L  c gray53",
"P  c #888888",
"I  c #898989",
"U  c gray54",
"Y  c #8B8B8B",
"T  c gray55",
"R  c #8D8D8D",
"E  c #8E8E8E",
"W  c gray57",
"Q  c #939393",
"!  c gray58",
"~  c #959595",
"^  c #979699",
"/  c #9A9A9A",
"(  c gray61",
")  c gray62",
"_  c #A0A0A0",
"`  c gray63",
"'  c #A2A2A2",
"]  c #A4A4A6",
"[  c #A7A6A7",
"{  c #A9A9A9",
"}  c #AAAAAA",
"|  c gray67",
" . c #ACACAC",
".. c #AEAEAE",
"X. c gray69",
"o. c #B2B2B2",
"O. c gray70",
"+. c #B4B4B4",
"@. c gray71",
"#. c #B6B6B7",
"$. c #B8B7BA",
"%. c gray73",
"&. c #BCBCBC",
"*. c gray74",
"=. c gray",
"-. c gray75",
";. c #C0C0C0",
":. c #C1C1C1",
">. c #C3C3C3",
",. c #C5C5C5",
"<. c #C6C6C6",
"1. c gray78",
"2. c #C8C8C8",
"3. c gray79",
"4. c #CACACA",
"5. c gray80",
"6. c #CDCDCE",
"7. c gray81",
"8. c #D1D0D1",
"9. c #D2D2D2",
"0. c LightGray",
"q. c gray83",
"w. c #D5D5D5",
"e. c #D6D5D7",
"r. c #D8D8D8",
"t. c #DADADB",
"y. c #DCDBDC",
"u. c #DDDDDD",
"i. c #DFDFDF",
"p. c #E1E0E1",
"a. c #E1E1E1",
"s. c #E2E2E2",
"d. c gray89",
"f. c #E4E4E4",
"g. c #E6E5E6",
"h. c #E7E7E7",
"j. c gray91",
"k. c #E9E9E9",
"l. c #EAEAEA",
"z. c gray92",
"x. c #ECECEC",
"c. c gray93",
"v. c #EEEEEE",
"b. c #EFEFEF",
"n. c gray94",
"m. c #F1F1F1",
"M. c gray95",
"N. c #F3F3F3",
"B. c #F4F3F4",
"V. c #F4F4F4",
"C. c gray96",
"Z. c #F6F6F6",
"A. c #F7F6F7",
"S. c gray97",
"D. c #F8F8F8",
"F. c #F9F8F9",
"G. c #F9F9F9",
"H. c #FAF9FA",
"J. c gray98",
"K. c #FBFAFB",
"L. c #FBFBFB",
"P. c #FCFBFC",
"I. c gray99",
"U. c #FDFCFD",
"Y. c #FDFDFD",
"T. c #FEFDFF",
"R. c #FEFEFE",
"E. c white",
"W. c None",
/* pixels */
"W.W.W.W.W.W.W.W.W.W.W.W.W.W.W.W.W.W.W.W.                                      W.  W.W.W.W.W.W.W.W.W.W.W.W.W.W.W.W.W.W.W.W.W.W.W.",
"W.W.W.W.W.W.W.W.W.W.W.W.W.W.W.W.                                                    W.W.W.W.W.W.W.W.W.W.W.W.W.W.W.W.W.W.W.W.W.W.",
"W.W.W.W.W.W.W.W.W.W.W.W.W.W.                      O & o   O   O O o                       W.W.W.W.W.W.W.W.W.W.W.W.W.W.W.W.W.W.W.",
"W.W.W.W.W.W.W.W.W.W.W.                          * 5 p s j j k s 6 * O #                     W.W.W.W.W.W.W.W.W.W.W.W.W.W.W.W.W.W.",
"W.W.W.W.W.W.W.W.W.W.          O O # 7 v Q _ ..%.r.j.m.v.m.Z.m.D.j.i.8...J C c u O O O           W.W.W.W.W.W.W.W.W.W.W.W.W.W.W.W.",
"W.W.W.W.W.W.W.W.W.    O     & k Y O.i.A.j.>.Y C k g g g k Z O.e.z.A.P.I.I.I.Z.m.e.G e o   o       W.W.W.W.W.W.W.W.W.W.W.W.W.W.W.",
"W.W.W.W.W.W.W.        & = c >.Z.L.L.8.M w &   O o O & O # O = < 2 w b [ u.m.L.P.P.L.j.R 0           W.W.W.W.W.W.W.W.W.W.W.W.W.W.",
"W.W.W.W.W.W.        O g ( B.L.I.d.S 2 O O O 6 s v N C N x e < & o O O & 6 k N J R ( %.&.O.g o         W.W.W.W.W.W.W.W.W.W.W.W.W.",
"W.W.W.W.W.      & & b O.e.I.u.N e O O e S >.s.Z.I.I.I.I.L.v.8.#.' C h & O O = O O O = = > =             W.W.W.W.W.W.W.W.W.W.W.W.",
"W.W.W.W.    o o = A %.O.r.{ s O O < N f.I.I.I.I.I.I.I.I.I.I.I.I.P.L.n.3.W x h s e 1 & & # O O     o       W.W.W.W.W.W.W.W.W.W.W.",
"W.W.W.    O O g ( &.&.&.m = O 6 N 5.A.P.I.I.I.I.I.I.I.I.I.I.I.I.I.I.I.I.I.I.m.z.j.i.&.' Y S Z N x 7 # o     W.W.W.W.W.W.W.W.W.W.",
"W.W.      O k #.&.#.' k = O s [ B.I.I.I.I.I.I.I.I.I.I.I.I.I.I.I.I.I.I.I.I.I.L.L.&.k 7 2 < < 7 s G X.p o o     W.W.W.W.W.W.W.W.W.",
"W.      o k #.#.>.Y w O & x O.&.>.i.L.Z.r...m k v / r.I.I.I.I.I.I.I.I.I.I.I.u.b = O   = < & O O & 7 N 2     O W.W.W.W.W.W.W.W.W.",
"W.      t ..%.O.N = & 2 N >.&.%.$.( Z h 7 < &   o & w H Z.I.I.I.I.I.I.I.I.r.d = o s R %.>.O./ z 2   e N # O o   W.W.W.W.W.W.W.W.",
"    O O Q &.>.M O # u Q #.%.&.$.b 2 O O # & e x g : O = G P.I.I.I.I.I.I.x.g O 1 J f.L.I.L.Z.Z.v.2.t O V h         W.W.W.W.W.W.W.",
"    O p %.>.;.c O j { #.&.&.O.h & # 6 j P #.f.v.j.>.j & 7 s.I.I.I.I.I.I.~ O : [ Z.I.I.m.Y c Y j.K.P O g O.=       W.W.W.W.W.W.W.",
"  o O M &.&.>...( O.&.&.>.%.j O = x 8.v.e.G N ( m.L.0.< O ^ I.I.I.I.I.I.k O m Z.I.I.n.x = O = ( I.#.O < f.J &   o   W.W.W.W.W.W.",
"o O & ' &.-.&.,.#.&.&.&.&.R # & N j.Z.u.s & & = { L.B.h   h I.I.I.I.I.I.l   G L.I.I.Q # o o & R I.7.o < d.j.s o o     W.W.W.W.W.",
"  # 7 #.&.-.>.&.>.&.>.&.>.x O s s.L.I.C O O & O Q Z.m.l O e j.I.I.I.I.I.x & j j.I.L.^ # O O u u.Z.Q o 7 r.v.O.& o     W.W.W.W.W.",
"O O e &.-.-.&.>.&.;.&.>.&.g O C L.L.L.m O O O g s.Z.%.6 & e v.I.I.I.I.I.R & & h &.L.m.~ v N ,.f.Z <   x k z j.c O o o   W.W.W.W.",
"    s >.>.-.-.&.&.;.&.&.&.f O c Z.L.I.>.k l H e.>.N 7   & h I.I.I.I.I.I.b.j # O 2 N 3.j.m.t.[ h & O p ' < : u.u.s O     W.W.W.W.",
"    s &.&.-.>.-.>.&.>.&.&.N   < N #.8.5...' A g 2 O & &   ~ I.I.I.I.I.I.P.u.e o   O 7 j h y > # O k &.Y & 7 v.I.'         W.W.W.",
"    s >.&.>.&.-.&.>.>.&.&.n & O # 1 w 6 = O o   &   & O u j.I.I.I.I.I.I.I.I...2 O   O O o # # p J 5.e.c & M I.I.v.w o o   W.W.W.",
"O   s &.>.&.-.-.&.>.&.;.] = O < 6 # = O O   7 g g O O & ' I.I.I.I.I.I.I.I.I.I.O.u     O & k Q #.e.e.d.%.c r.I.I.L.V         W.W.",
"o   u &.>.&.-.-.-.-.-.-.#.w # & b N m m C A Y j 6 O < ^ Z.I.I.I.I.I.I.I.I.I.I.I.3.h & O o 7 e u ..y.L.I.I.I.I.I.I.#.&       W.W.",
"  O 7 %.&.&.-.-.-.-.-.-.>.G 5 & m { ] ] ] &.V     2 ] I.I.I.I.I.I.I.I.I.I.I.I.I.I.j.Y p & O     Y L.I.I.I.I.I.I.I.b.e       W.W.",
"  O < { &.>.-.&.>.&.-.-.>.%.( J O.%.| O.>.e.' s M 3.P.I.I.I.I.I.I.I.I.I.I.I.I.I.I.I.I.f.{ S M S j.I.I.I.I.I.I.I.I.I.C O O     W.",
"o o O ^ -.>.&.>.&.>.&.-.-.>.>.>.&.8.h.b.m.v.v.f.L.I.I.I.I.I.I.I.I.I.I.I.I.I.I.I.I.I.I.I.L.L.P.L.I.I.I.I.I.I.I.I.I.I.,.= O O   W.",
"  O   R -.-.-.&.-.-.#.%.,.5.u.v.Z.L.I.I.I.I.I.I.I.I.I.I.I.I.I.I.I.I.I.I.I.I.I.I.I.I.I.I.I.I.I.I.I.I.I.I.I.I.I.I.I.I.v.6 O O   W.",
"o O o A &.-.-.-.-.-.,.s.m.L.I.I.I.I.I.I.I.I.I.I.I.I.I.I.I.I.I.I.I.I.I.I.I.I.I.I.I.I.I.I.I.I.I.I.I.I.I.I.I.I.I.I.I.I.L.k O     W.",
"O O O x -.&.>.-.%.8.B.I.I.I.I.I.I.I.I.I.I.I.I.I.I.I.I.I.I.I.I.I.I.I.I.I.I.I.I.I.I.I.I.I.I.I.I.I.I.I.I.I.I.I.I.I.I.I.I.G   O   W.",
"O   o s &.>.>.&.0.( r.I.I.I.I.I.I.I.I.I.I.I.I.I.I.I.I.I.I.I.I.I.I.I.I.I.I.I.I.I.I.I.I.I.I.I.I.I.I.I.I.I.I.I.I.I.I.I.I.{ O O     ",
"      < { >.&.5.( = x I.I.I.I.I.I.I.I.I.I.I.I.I.I.I.I.I.I.I.I.I.I.I.L.L.I.I.I.I.I.I.I.I.L.I.P.L.I.I.I.I.I.I.I.I.I.I.I.u.2 o     ",
"      o Z #.-.r.h O C I.I.I.I.I.I.I.I.I.I.I.I.I.I.L.v.t.e.r.e.,.,.3.>.>.&.>.>.,.>.&.&.&.#.O.,.s.Z.I.I.I.I.I.I.I.I.I.I.L.h   O   ",
"W.    o s #.&...< & ,.I.I.I.L.Z.m.s.e.3.3.O.' G b x g p e e 2 = < = = = = & & & & & & & & = < e x A ( &.f.I.I.I.I.I.I.I.x O     ",
"W.    o O Y &.~ & 7 v.Z.s.,.Y x h s w 6 < & O   O o   & O O & = = < < < < = < > < < < 2 = =       O O = g ~ z.I.I.I.I.I.C O     ",
"W.      O s %.J   e r.G g > = O & # o & & 2 e p h v C ~ ' ( { %.&.>.>.,.>.,.,.,.,.,.,.>.>.#.' C g e 2 O O = n m.I.I.I.I.~ o     ",
"W.W.      & ~ J o s Q &   & e l C G ( O.>.3.r.s.D.P.P.L.I.I.I.I.I.I.I.I.I.I.I.I.I.I.I.I.I.I.L.I.m.t.5.~ f O O Z I.I.I.I.&.o     ",
"W.W.    o   g G   i ' p m %.e.L.I.I.I.I.I.I.I.I.I.I.I.I.I.I.I.I.I.I.I.I.I.I.I.I.I.I.I.I.I.I.I.I.I.I.I.I.d.b   1 8.I.I.I.#.o     ",
"W.W.W.      = M = & e.f.V.L.I.I.I.I.I.I.I.I.I.I.I.I.I.I.I.I.I.I.I.I.I.I.I.I.I.I.I.I.I.I.I.I.I.I.I.I.I.I.I.f.w o { I.I.P.{ O o   ",
"W.W.W.      O g u O Z Z.P.K.I.I.I.I.I.I.I.I.I.I.I.I.I.I.I.I.I.I.I.I.I.I.I.I.I.I.I.I.I.I.I.I.I.I.I.I.L.I.m.>.7 O ' I.I.I./       ",
"W.W.W.W.      = x O 6 5.I.I.I.I.I.I.I.I.I.I.I.I.I.I.I.I.I.I.I.I.I.I.I.I.I.I.I.I.I.I.I.I.I.I.I.I.I.I.f.#.x < O 6 5.I.I.I.C &     ",
"W.W.W.W.    O   h s & c P.I.I.I.I.I.I.I.I.I.I.I.I.I.I.I.I.I.I.I.I.I.I.I.I.I.I.I.I.I.I.I.I.I.I.I.I...h #   # e ] P.I.I.I.c O     ",
"W.W.W.W.W.      = N < j I.I.I.I.I.I.I.I.I.I.I.I.I.I.I.I.I.I.I.I.I.I.I.I.I.I.I.I.I.I.I.I.I.I.I.I.' < O & p Y r.L.I.I.I.L.g O     ",
"W.W.W.W.W.      o k ] 5.I.I.I.I.I.I.I.I.I.I.I.I.I.I.I.I.I.I.I.I.I.I.I.I.I.I.I.I.I.I.I.I.I.I.L.5.< & g { v.I.I.I.I.I.I.f.7       ",
"W.W.W.W.W.W.O   O O ] L.I.I.I.I.I.I.I.I.I.I.I.I.I.I.I.I.I.I.I.I.I.I.I.I.I.I.I.I.I.I.I.I.I.I.Z.j   e e.L.I.I.I.I.I.I.I.3.O O     ",
"W.W.W.W.W.W.  O O o s Z.I.I.I.I.I.I.I.I.I.I.I.I.I.I.I.I.I.I.I.I.I.I.I.I.I.I.I.I.I.I.I.I.I.L./ & & ..I.I.I.I.I.I.I.I.I.Y O     W.",
"W.W.W.W.W.W.W.O     & #.I.I.I.I.I.I.I.I.I.I.I.I.I.I.I.I.I.I.I.I.I.I.I.I.I.I.I.I.I.I.I.I.I.Z.p O b L.I.I.I.I.I.I.I.I.Z.h O     W.",
"W.W.W.W.W.W.W.  O     h j.L.I.I.I.I.I.I.I.I.I.I.I.I.I.I.I.I.f.Y O.m.Z.P.I.I.I.I.I.I.I.I.L.' O < 8.I.I.I.I.I.I.I.I.I.f.2 O     W.",
"W.W.W.W.W.W.W.W.    O & c n.I.I.I.I.I.I.I.I.I.I.I.I.I.I.I.I.Q O & h ( s.L.I.I.I.I.I.I.I.8.e & c m.I.I.I.I.I.I.I.I.I.] O     W.W.",
"W.W.W.W.W.W.W.W.W.    O & Y P.I.I.I.I.I.I.I.I.I.I.I.I.L.v.v.%.e O O & w x ' r.I.I.P.v.{ e & 9 0.L.I.I.I.I.I.I.I.I.I.x   o     W.",
"W.W.W.W.W.W.W.W.W.        < { I.I.I.I.I.I.I.I.I.I.j.e.3.&.-.>.#.A s = & O & e b G A h = & 6 ..I.I.I.I.I.I.I.I.I.I.j.6 O     W.W.",
"W.W.W.W.W.W.W.W.W.W.    O O 7 e.I.K.I.I.I.I.f.e.>.&.&.>.&.&.>.&.,.v.-.G s = O     O O O p #.I.I.I.I.I.I.I.I.I.I.I.( O       W.W.",
"W.W.W.W.W.W.W.W.W.W.W.    o   p r.c.f.f.8.,.&.>.%.&.&.&.&.>.&.>.v.L.I.D.Z.%.N s e e k ~ j.I.I.I.I.I.I.I.I.I.I.I.x.s O     W.W.W.",
"W.W.W.W.W.W.W.W.W.W.W.W.    O   7 H &.;.&.%.%.%.%.%.%.&.&.&.>.r.P.I.P.I.I.I.I.I.m.Z.L.L.I.I.I.I.I.I.I.I.I.I.I.L.G O O o   W.W.W.",
"W.W.W.W.W.W.W.W.W.W.W.W.W.      & & z ' %.%.%.&.%.%.%.&.&.>.,.m.I.I.I.I.I.I.I.I.I.I.I.I.I.I.I.I.I.I.I.I.I.I.I.( = O     W.W.W.W.",
"W.W.W.W.W.W.W.W.W.W.W.W.W.W.      O   2 C #.+.&.%.&.%.&.&.,.m.I.I.I.I.I.I.I.I.I.I.I.I.I.I.I.I.I.I.I.I.I.I.I.[ 2 o     W.W.W.W.W.",
"W.W.W.W.W.W.W.W.W.W.W.W.W.W.W.      O O O 7 Q &.%.%.%.%.2.m.I.I.I.I.I.I.I.I.I.I.I.I.I.I.I.I.I.I.I.I.I.I.I.#.2 &       W.W.W.W.W.",
"W.W.W.W.W.W.W.W.W.W.W.W.W.W.W.W.      o O O & s b R { -.s.I.L.I.I.I.I.I.I.I.I.I.I.I.I.I.I.I.I.I.I.I.I.I.8.7         W.W.W.W.W.W.",
"W.W.W.W.W.W.W.W.W.W.W.W.W.W.W.W.W.W.o o   o     O O = p H 5.Z.L.I.I.I.I.I.I.I.I.I.I.I.I.I.I.I.I.Z.P.f.R 7         W.W.W.W.W.W.W.",
"W.W.W.W.W.W.W.W.W.W.W.W.W.W.W.W.W.W.W.W.  O         o o O < y c P O.5.s.Z.Z.L.I.I.I.I.I.I.Z.r.' H h <   o       W.W.W.W.W.W.W.W.",
"W.W.W.W.W.W.W.W.W.W.W.W.W.W.W.W.W.W.W.W.W.              O     O o & & = 7 g x N Y S C C N j = o o O   o o   o W.W.W.W.W.W.W.W.W.",
"W.W.W.W.W.W.W.W.W.W.W.W.W.W.W.W.W.W.W.W.W.W.W.W.                  O   O o O   o   o o     o o o o   o       W.W.W.W.W.W.W.W.W.W.",
"W.W.W.W.W.W.W.W.W.W.W.W.W.W.W.W.W.W.W.W.W.W.W.W.W.W.W.W.              o   O     o o       o   o         W.W.W.W.W.W.W.W.W.W.W.W."
};
