/* XPM */
static char *frame_20_delay_0_05s1763316730[] = {
/* columns rows colors chars-per-pixel */
"64 64 134 2 ",
"   c black",
".  c #010101",
"X  c #020202",
"o  c gray1",
"O  c #040404",
"+  c gray2",
"@  c #060606",
"#  c #070707",
"$  c gray3",
"%  c #090909",
"&  c gray4",
"*  c #0B0B0B",
"=  c gray5",
"-  c #0E0E0E",
";  c #101010",
":  c #111111",
">  c #131313",
",  c gray8",
"<  c #151515",
"1  c gray9",
"2  c #181818",
"3  c gray10",
"4  c gray11",
"5  c #1D1D1D",
"6  c gray12",
"7  c #222222",
"8  c gray14",
"9  c gray15",
"0  c #282828",
"q  c #2A2A2A",
"w  c #2C2C2C",
"e  c #2D2D2D",
"r  c gray19",
"t  c #323232",
"y  c gray22",
"u  c #3A3A3A",
"i  c #3D3C41",
"p  c gray28",
"a  c #494949",
"s  c #4A494E",
"d  c #4F4F50",
"f  c gray33",
"g  c gray35",
"h  c #5C5C5E",
"j  c #606060",
"k  c gray40",
"l  c #68676B",
"z  c gray42",
"x  c gray43",
"c  c #707072",
"v  c gray45",
"b  c #787779",
"n  c gray48",
"m  c #7C7C7C",
"M  c gray49",
"N  c gray50",
"B  c #838384",
"V  c #868686",
"C  c #898989",
"Z  c gray54",
"A  c gray55",
"S  c #8E8E8E",
"D  c gray58",
"F  c #959595",
"G  c #979699",
"H  c #9A9A9A",
"J  c gray61",
"K  c #A0A0A0",
"L  c #A2A2A2",
"P  c #A4A4A6",
"I  c #A7A6A7",
"U  c #A9A9A9",
"Y  c #AAAAAA",
"T  c #ACACAC",
"R  c #AEAEAE",
"E  c gray69",
"W  c #B2B2B2",
"Q  c gray70",
"!  c gray71",
"~  c gray73",
"^  c gray74",
"/  c gray75",
"(  c #C0C0C0",
")  c #C1C1C1",
"_  c #C3C3C3",
"`  c #C5C5C5",
"'  c #C6C6C6",
"]  c #C8C8C8",
"[  c gray79",
"{  c #CACACA",
"}  c gray80",
"|  c #CDCDCE",
" . c gray81",
".. c #D1D0D1",
"X. c #D2D2D2",
"o. c gray83",
"O. c #D5D5D5",
"+. c #D6D5D7",
"@. c #D8D8D8",
"#. c #DADADB",
"$. c #DCDBDC",
"%. c #DDDDDD",
"&. c #DFDFDF",
"*. c #E1E0E1",
"=. c #E2E2E2",
"-. c gray89",
";. c #E4E4E4",
":. c #E6E5E6",
">. c gray91",
",. c #E9E9E9",
"<. c #EAEAEA",
"1. c gray92",
"2. c #ECECEC",
"3. c gray93",
"4. c #EFEFEF",
"5. c gray94",
"6. c #F1F1F1",
"7. c gray95",
"8. c #F4F3F4",
"9. c #F5F4F5",
"0. c #F6F6F6",
"q. c gray97",
"w. c #F8F8F8",
"e. c #F9F8F9",
"r. c #FAF9FA",
"t. c #FBFAFB",
"y. c #FBFBFB",
"u. c #FCFBFC",
"i. c gray99",
"p. c #FDFCFD",
"a. c #FDFDFD",
"s. c #FEFEFE",
"d. c white",
"f. c None",
/* pixels */
"f.f.f.f.f.f.f.f.f.f.f.f.f.f.f.f.f.f.f.f.      f.                          f.  f.f.f.f.f.f.f.f.f.f.f.f.f.f.f.f.f.f.f.f.f.f.f.f.f.",
"f.f.f.f.f.f.f.f.f.f.f.f.f.f.f.f.                                                    f.f.f.f.f.f.f.f.f.f.f.f.f.f.f.f.f.f.f.f.f.f.",
"f.f.f.f.f.f.f.f.f.f.f.f.f.f.                      @ O o @   # O o o o                   f.f.f.f.f.f.f.f.f.f.f.f.f.f.f.f.f.f.f.f.",
"f.f.f.f.f.f.f.f.f.f.f.f.                        $ 3 0 t i u a e < * @                       f.f.f.f.f.f.f.f.f.f.f.f.f.f.f.f.f.f.",
"f.f.f.f.f.f.f.f.f.f.            @ = 3 h F L Y ^ o.1.1.>.3.0.6.8.1.&...E C v g 0 # O @           f.f.f.f.f.f.f.f.f.f.f.f.f.f.f.f.",
"f.f.f.f.f.f.f.f.f.          * d A W ;.0.#.L j e 5 , 3 5 8 w s n P | 6.0.a.a.6.6.O.m 8   @         f.f.f.f.f.f.f.f.f.f.f.f.f.f.f.",
"f.f.f.f.f.f.f.        # * g _ 0.a.-.N i , @ o $ # o o   @   @ @ $ ; r z P ` *.3.8.0.1.C 6           f.f.f.f.f.f.f.f.f.f.f.f.f.f.",
"f.f.f.f.f.f.        O i / 8.u.u.T 7 $ @ @ # < i d g h j f p 5 = = $ @ $ $ = ; 7 p f h k p @           f.f.f.f.f.f.f.f.f.f.f.f.f.",
"f.f.f.f.f.    @ $ $ b 6.0.w.%.k * # O y z W *.3.r.a.a.a.r.0.3.X.I z e = @ @     $ @ O @ # O O           f.f.f.f.f.f.f.f.f.f.f.f.",
"f.f.f.f.      @ < P w.u.i.( w   o 5 H >.r.r.0.a.a.a.a.a.a.a.a.r.a.q.4.O.Y D n p 0 0 5 5 5 > * @ @ O       f.f.f.f.f.f.f.f.f.f.f.",
"f.f.f.    @ O d { r.u.w.A 1 o = g O.r.i.a.a.a.a.a.a.r.a.a.a.a.a.a.a.a.a.a.a.0.0.1.T z z d s v F K t @       f.f.f.f.f.f.f.f.f.f.",
"f.f.        j 1.0.0.*.k = @ 1 G 8.a.a.a.a.i.r.0.a.a.a.a.a.a.a.a.a.a.a.a.a.a.6.| d < @   $ @ @ = y H w O       f.f.f.f.f.f.f.f.f.",
"f.      @ h 0.u.i.@.p $ $ 9 _ u.r.r.0.{ A d r r d n +.a.r.a.a.a.a.a.a.a.u.r.K 5 @ @ * < 7 3 = @ = > r         f.f.f.f.f.f.f.f.f.",
"f.      t 1.i.0.~ 9 $ $ a o.a.i.r.~ s 2 ;   @ @ @   9 G a.a.a.a.a.a.a.a.y.A ; @ > k ` ..*.&.` c 3 @   O @ @     f.f.f.f.f.f.f.f.",
"    @ @ E r.r.A 4 @ @ b 1.a.r.>.x = @ o ; e s p 9 $ @ = C r.a.a.a.a.a.a.( , @ e Y 0.r.;.( ^ 2.0.` p @ @ 2         f.f.f.f.f.f.f.",
"    @ y 6.i.0.p $ 3 G 5.i.a.] i $ $ 3 z ^ T Q -.*.P 7 @ 3 | u.a.a.a.a.a.f @ 8 ` 0.a.^ y ; < p 3.u.#.3 $ f ;       f.f.f.f.f.f.f.",
"  @   S a.a.a.Y x #.u.u.a.#.9 o @ s { ^ p 3 ; A a.a.~ ; O A a.a.a.a.a.6.5   N a.w.8.0 $ @ @ @ ` a.r.i @ j M $ @     f.f.f.f.f.f.",
"@   = | a.a.a.a.u.a.r.a.0.l @ , M 1.3.y @   @ f a.a.1.2   m a.a.a.a.a.0.7   G r.q.0.< O @   3 #.r.a.i   j ;.e   O   @ f.f.f.f.f.",
"    9 1.a.a.a.a.a.a.a.a.*.3 $ v 6.y.;.3 $ $ = A r.1.v $ @ J a.a.a.a.a.a.7 o k ;.y.6.N * ; s ( 0.0.T < @ e ;.Y $ @     f.f.f.f.f.",
"@   t u.a.a.a.a.a.a.a.a.{ @ $ | w.y.9.z t d P 1.( s @ $ $ ~ a.a.a.a.a.a.s $ = t F { ;.` { 3.1.! j < = $ = K 0.g         f.f.f.f.",
"    a a.a.a.a.a.a.a.a.a.{ @ $ J 2.6.0.#.` ( J s < O     6 ;.a.a.a.a.a.a.( t o o @ 3 i M g y 0 = @ @ 5 9 e *.a.;.e @       f.f.f.",
"    a a.a.a.a.a.a.a.a.a.3.t @ < t g f t 5 5 * @   @ O O v a.a.a.a.a.a.a.y.#.i $   O @   =   @   > f ( X.*.r.a.a.K $       f.f.f.",
"    a a.a.a.a.a.a.a.a.a.r.k @ # @ @ # o $ # o o   $   t ;.a.a.a.a.a.a.a.a.a.$.p @ $ o @     = i ~ 6.a.a.a.a.a.a.6.9       f.f.f.",
"@   a a.a.a.a.a.a.a.a.a.*.9 o < t 6 6 y d s $ $ @ @ 0 ` a.u.a.a.a.a.a.a.a.a.a.1.b ; @   @   $ 5 K r.a.a.a.a.a.a.a.k         f.f.",
"    i r.a.a.a.a.a.a.a.a.0.M 5 v $.O.#.2.6.f $ @ 1 z X.a.a.a.a.a.a.a.a.a.a.a.a.a.w.! f 9 = @   $ A a.a.a.a.a.a.a.a.E $       f.f.",
"  @ e 3.a.a.a.a.a.a.a.a.a.r.O.1.i.a.a.a.u.M 7 g ( 0.a.a.a.a.a.a.a.a.a.a.a.a.a.a.a.0.6.#.` K D P 3.a.a.a.a.a.a.a.a.4.8   o   f.f.",
"  @ ; #.a.a.a.a.a.a.a.a.a.a.a.a.a.a.a.a.a.r.#.6.a.a.a.a.a.a.a.a.a.a.a.a.a.a.a.a.a.a.a.a.a.a.a.a.a.a.a.a.a.a.a.a.a.r.k $ @   f.f.",
"O   @ | a.a.a.a.a.a.a.a.a.a.a.a.a.a.a.a.a.a.a.a.a.a.a.a.a.a.a.a.a.a.a.a.a.a.a.a.a.a.a.a.a.a.a.a.a.a.a.a.a.a.a.a.a.a.` $ @   f.f.",
"  @   ^ a.a.a.a.a.a.a.a.a.a.a.a.a.a.a.a.a.a.a.a.a.a.a.a.a.a.a.a.a.a.a.a.a.a.a.a.a.a.a.a.a.a.a.a.a.a.a.a.a.a.a.a.a.a.6.3   @   f.",
"@     K a.a.a.a.a.a.a.a.a.a.a.a.a.a.a.a.a.a.a.a.a.a.a.a.a.a.a.a.a.a.a.a.a.a.a.a.a.a.a.a.a.a.a.a.a.a.a.a.a.a.a.a.a.a.0.a     @ f.",
"@   @ v a.a.a.3.J } r.a.a.a.a.a.a.a.a.a.a.a.a.a.a.a.a.a.a.a.a.a.a.a.a.a.a.a.a.a.a.a.a.a.a.a.a.a.a.a.a.a.a.a.a.a.a.a.a.n       f.",
"    O i a.a.a.B = f u.a.a.a.a.a.a.a.a.a.a.a.a.a.a.a.a.a.a.a.a.a.a.a.a.a.a.a.a.a.a.a.a.a.a.a.a.a.a.a.a.a.a.a.a.a.a.a.a.Y @       ",
"      < *.a.6.y @ N a.a.a.a.a.a.a.a.a.a.a.a.a.r.a.r.i.i.a.a.a.0.r.a.i.r.4.;.>.;.*.-.&.>.6.w.y.y.i.i.0.a.a.a.a.a.a.a.a.%.< @     ",
"      @ H u.$.= O { 6.;.0.a.a.a.a.a.a.a.a.a.r.0.3.;.#.| W K A M v l j d y e e e w 0 0 r y d v B F ! } 0.a.a.a.a.a.a.a.r.y     @ ",
"f.      a w.X.  < *.h t a g v v M z j j j j f p y t 7 ; @   @ @ @ @ $ @ @ $ $ $ $ @   @ @ o @ o $ $ 3 p G $.a.a.u.a.a.a.s @     ",
"f.      $ ~ #.= $ { 5 @ @ O @       @   @ @ @           @ $ = 3 5 6 9 t i d f d s f f a e 5 = # @ #   O $ t P 0.a.r.a.a.x @     ",
"f.f.    O a 1.e @ M T h y 9 5 < 3 7 9 9 0 9 e e u a k n F T ( | X.#.%.3.0.r.u.a.a.a.a.a.;.O.` ! L N f 3 @   = v r.a.a.a.F       ",
"f.f.    @ = ~ b @ 5 *.0.6.*.@.X.X.%.;.*.*.;.;.1.0.0.a.a.a.a.a.a.a.a.a.a.a.a.a.a.a.a.a.a.a.a.a.a.a.a.0.{ l < @ = P a.a.a.^ O     ",
"f.f.f.      f | 5 $ T a.a.a.a.a.a.a.a.a.a.a.a.a.a.a.a.a.a.a.a.a.a.a.a.a.a.a.a.a.a.a.a.a.a.a.a.a.a.a.a.a.a.~ 3 $ s a.a.a.W       ",
"f.f.f.      = ~ I j ;.a.a.a.a.a.a.a.a.a.a.a.a.a.a.a.a.a.a.a.a.a.a.a.a.a.a.a.a.a.a.a.a.a.a.a.a.a.a.a.a.a.a.a.g   t 0.i.y.Y O o   ",
"f.f.f.    @   a 6.r.a.a.a.a.a.a.a.a.a.a.a.a.a.a.a.a.a.a.a.a.a.a.a.a.a.a.a.a.a.a.a.a.a.a.a.a.a.a.a.a.r.r.6.^ 0   i 6.a.a.F       ",
"f.f.f.f.      $ ~ a.a.a.a.a.a.a.a.a.a.a.a.a.a.a.a.a.a.a.a.a.a.a.a.a.a.a.a.a.a.a.a.a.a.a.a.a.a.a.a.a.#.K g < @ @ F u.a.a.v       ",
"f.f.f.f.      o f 0.a.a.a.a.a.a.a.a.a.a.a.a.a.a.a.a.a.a.a.a.a.a.a.a.a.a.a.a.a.a.a.a.a.a.a.a.a.a.6.M 3   @ @ = f 6.a.a.u.g   O   ",
"f.f.f.f.f.      $ ^ a.a.a.a.a.a.a.a.a.a.a.a.a.a.a.a.a.a.a.a.a.a.a.a.a.a.a.a.a.a.a.a.a.a.a.a.a.a.Y < @ @ < y H 3.a.a.a.a.a @     ",
"f.f.f.f.f.f.  o   a 3.a.a.a.a.a.a.a.a.a.a.a.a.a.a.a.a.a.a.a.a.a.a.a.a.a.a.a.a.a.a.a.a.a.a.a.a.1.t $ 3 C { 1.a.a.a.a.a.1.3       ",
"f.f.f.f.f.f.    O @ I a.a.a.a.a.a.a.a.a.a.a.a.a.a.a.a.a.a.a.a.a.a.a.a.a.a.a.a.a.a.a.a.a.a.a.0.B $ @ M u.a.a.a.a.a.a.a.| @       ",
"f.f.f.f.f.f.f.@   @ t w.a.a.a.a.a.a.a.a.a.a.a.a.a.a.a.a.a.a.a.a.a.a.a.a.a.a.a.a.a.a.a.a.a.a.X.3 $ t 3.a.a.a.a.a.a.a.u.A       f.",
"f.f.f.f.f.f.f.@ @   $ T a.a.a.a.a.a.a.a.a.a.a.a.a.a.a.a.a.a.a.r.a.a.a.a.a.a.a.a.a.a.a.a.a.a.d @ ; ^ a.a.a.a.a.a.a.a.r.i       f.",
"f.f.f.f.f.f.f.f.    @ i ;.r.a.a.a.a.a.a.a.a.a.a.a.a.a.a.a.a.W f W 6.0.u.a.a.a.a.a.a.a.a.a.K $ @ x a.a.a.a.a.a.a.a.a.;.,       f.",
"f.f.f.f.f.f.f.f.      @ f 4.a.a.a.a.a.a.a.a.a.a.a.a.a.a.a.a.s $ 3 p n | 3.u.a.a.a.a.a.a.K ; @ 5 *.r.a.a.a.a.a.a.a.a.P $ @   f.f.",
"f.f.f.f.f.f.f.f.f.    @ $ A r.a.a.a.a.a.a.a.a.a.a.a.a.a.a.a.P < @ @ @ = a C { 2.0.;.O.M <   ; K r.a.a.a.a.a.a.a.a.r.d   O     f.",
"f.f.f.f.f.f.f.f.f.f.    @ ; Y a.a.a.a.a.a.a.a.a.a.a.a.a.a.a.y.W f 5 $ @ @ $ = y d e = @   7 Y r.a.a.a.a.a.a.a.a.a.1.; @     f.f.",
"f.f.f.f.f.f.f.f.f.f.      @ 7 X.u.u.a.a.a.a.a.a.a.a.a.a.a.a.a.a.a.3.T f 5 $ $ @ O @ @ @ i ( a.u.a.a.a.a.a.a.a.a.a.H @       f.f.",
"f.f.f.f.f.f.f.f.f.f.f.    o   e +.a.a.a.a.a.a.a.a.a.a.a.a.a.a.a.a.a.a.a.;.T k 0 9 y v Y 3.a.a.a.a.a.a.a.a.a.a.a.1.t @     f.f.f.",
"f.f.f.f.f.f.f.f.f.f.f.f.        9 ! 8.u.a.a.a.a.a.a.a.a.a.a.a.a.a.a.a.a.a.a.u.a.r.w.u.a.a.a.a.a.a.a.a.a.a.a.a.r.B @ @     f.f.f.",
"f.f.f.f.f.f.f.f.f.f.f.f.f.      $ ; b @.a.a.a.a.a.a.a.a.a.a.a.a.a.a.a.a.a.a.a.a.a.a.a.a.a.a.a.a.a.a.a.a.a.a.a.H @ O     f.f.f.f.",
"f.f.f.f.f.f.f.f.f.f.f.f.f.f.      @ @ 5 J 3.r.r.a.a.a.a.a.a.a.a.a.a.a.a.a.a.a.a.a.a.a.a.a.a.a.a.a.a.a.a.a.a.I ;       f.f.f.f.f.",
"f.f.f.f.f.f.f.f.f.f.f.f.f.f.f.        @ $ y ~ 0.a.a.a.a.a.a.a.a.a.a.a.a.a.a.a.a.a.a.a.a.a.a.a.a.a.a.a.a.a.~ < $       f.f.f.f.f.",
"f.f.f.f.f.f.f.f.f.f.f.f.f.f.f.f.        @ @ = a V ( *.q.r.r.i.a.a.a.a.a.a.a.a.a.a.a.a.a.a.a.a.a.a.a.a.u.{ 6         f.f.f.f.f.f.",
"f.f.f.f.f.f.f.f.f.f.f.f.f.f.f.f.f.f.  @     @   @ $ , t M { 0.a.a.a.a.a.a.a.a.a.a.a.a.a.a.a.a.a.r.r.*.A 3 @       f.f.f.f.f.f.f.",
"f.f.f.f.f.f.f.f.f.f.f.f.f.f.f.f.f.f.f.f.  @           @   ; e g A T { -.0.r.a.a.a.a.i.u.a.0.#.Y n u ; o   O     f.f.f.f.f.f.f.f.",
"f.f.f.f.f.f.f.f.f.f.f.f.f.f.f.f.f.f.f.f.f.f.                  @ @ $ @ = 5 y s v C b v c z p *   o     @ O     f.f.f.f.f.f.f.f.f.",
"f.f.f.f.f.f.f.f.f.f.f.f.f.f.f.f.f.f.f.f.f.f.f.f.                  @   O o         @           @             f.f.f.f.f.f.f.f.f.f.",
"f.f.f.f.f.f.f.f.f.f.f.f.f.f.f.f.f.f.f.f.f.f.f.f.f.f.f.f.              o   @   O   @       @   @   o     f.f.f.f.f.f.f.f.f.f.f.f."
};
