/* XPM */
static char *frame_01_delay_0_05s1763316728[] = {
/* columns rows colors chars-per-pixel */
"64 64 159 2 ",
"   c black",
".  c #010101",
"X  c #020202",
"o  c gray1",
"O  c #040404",
"+  c gray2",
"@  c #060606",
"#  c #070707",
"$  c gray3",
"%  c #090909",
"&  c gray4",
"*  c #0B0B0B",
"=  c #0C0C0C",
"-  c gray5",
";  c #0E0E0E",
":  c gray6",
">  c #101010",
",  c #111111",
"<  c gray7",
"1  c gray8",
"2  c #151515",
"3  c #161616",
"4  c gray9",
"5  c #181818",
"6  c #191919",
"7  c gray10",
"8  c gray11",
"9  c #1D1D1D",
"0  c #1E1E1E",
"q  c gray12",
"w  c #202020",
"e  c #222222",
"r  c gray14",
"t  c #272727",
"y  c #282828",
"u  c #2A2A2A",
"i  c #2C2C2C",
"p  c #2D2D2D",
"a  c gray19",
"s  c #323232",
"d  c #323136",
"f  c gray22",
"g  c #3A3A3A",
"h  c #3D3C41",
"j  c gray28",
"k  c #494949",
"l  c #4A494E",
"z  c #4F4F50",
"x  c gray33",
"c  c gray35",
"v  c #5C5C5E",
"b  c #606060",
"n  c #626166",
"m  c gray40",
"M  c #68676B",
"N  c gray42",
"B  c gray43",
"V  c #707072",
"C  c gray45",
"Z  c #787779",
"A  c gray48",
"S  c #7B7B7B",
"D  c #7C7C7C",
"F  c gray50",
"G  c #838384",
"H  c #868686",
"J  c gray53",
"K  c #888888",
"L  c #898989",
"P  c gray54",
"I  c #8B8B8B",
"U  c gray55",
"Y  c #8D8D8D",
"T  c #8E8E8E",
"R  c gray57",
"E  c gray58",
"W  c #959595",
"Q  c #979699",
"!  c #9A9A9A",
"~  c gray62",
"^  c #A0A0A0",
"/  c #A2A2A2",
"(  c #A4A4A6",
")  c #A7A6A7",
"_  c #A9A9A9",
"`  c #AAAAAA",
"'  c #ACACAC",
"]  c #AEAEAE",
"[  c gray69",
"{  c #B2B2B2",
"}  c #B4B4B4",
"|  c gray71",
" . c #B6B6B7",
".. c #B8B7BA",
"X. c gray73",
"o. c #BCBCBC",
"O. c gray",
"+. c gray75",
"@. c #C0C0C0",
"#. c #C1C1C1",
"$. c #C3C3C3",
"%. c #C6C6C6",
"&. c gray78",
"*. c #C8C8C8",
"=. c gray79",
"-. c #CACACA",
";. c gray80",
":. c #CDCDCE",
">. c gray81",
",. c #D1D0D1",
"<. c #D2D2D2",
"1. c LightGray",
"2. c gray83",
"3. c #D5D5D5",
"4. c #D6D5D7",
"5. c #D8D8D8",
"6. c #DADADB",
"7. c #DCDBDC",
"8. c #DDDDDD",
"9. c #DFDFDF",
"0. c #E1E1E1",
"q. c #E2E2E2",
"w. c gray89",
"e. c #E4E4E4",
"r. c #E6E5E6",
"t. c #E7E7E7",
"y. c gray91",
"u. c #E9E9E9",
"i. c #EAEAEA",
"p. c gray92",
"a. c #ECECEC",
"s. c #EDECED",
"d. c gray93",
"f. c #EEEEEE",
"g. c #EFEFEF",
"h. c gray94",
"j. c #F1F1F1",
"k. c gray95",
"l. c #F3F3F3",
"z. c #F4F3F4",
"x. c #F4F4F4",
"c. c #F5F4F5",
"v. c gray96",
"b. c #F6F6F6",
"n. c gray97",
"m. c #F8F8F8",
"M. c #F9F8F9",
"N. c #F9F9F9",
"B. c #FAF9FA",
"V. c gray98",
"C. c #FBFAFB",
"Z. c #FBFBFB",
"A. c #FCFBFC",
"S. c gray99",
"D. c #FDFCFD",
"F. c #FDFDFD",
"G. c #FEFEFE",
"H. c white",
"J. c None",
/* pixels */
"J.J.J.J.J.J.J.J.J.J.J.J.J.J.J.J.J.J.J.J.J.J.J.J.J.J.J.J.  J.J.J.  J.J.J.J.J.J.J.J.J.J.J.J.J.J.J.J.J.J.J.J.J.J.J.J.J.J.J.J.J.J.J.",
"J.J.J.J.J.J.J.J.J.J.J.J.J.J.J.J.J.J.J.J.                                J.J.J.J.J.J.J.J.J.J.J.J.J.J.J.J.J.J.J.J.J.J.J.J.J.J.J.J.",
"J.J.J.J.J.J.J.J.J.J.J.J.J.J.J.J.                              O O O                 J.J.J.J.J.J.J.J.J.J.J.J.J.J.J.J.J.J.J.J.J.J.",
"J.J.J.J.J.J.J.J.J.J.J.J.J.J.                                  8 0 = O O                 J.J.J.J.J.J.J.J.J.J.J.J.J.J.J.J.J.J.J.J.",
"J.J.J.J.J.J.J.J.J.J.J.J.      O O   1 =         * O *   O O % 3 z ! X._ P C c t = O   o     J.J.J.J.J.J.J.J.J.J.J.J.J.J.J.J.J.J.",
"J.J.J.J.J.J.J.J.J.J.        = l T ( f O   O 5 c D T R J Z k *   O O < e c F / ,.>.G e O O     J.J.J.J.J.J.J.J.J.J.J.J.J.J.J.J.J.",
"J.J.J.J.J.J.J.J.J.    = * c =.b.e.f O O k ^ 8.V.V.C.F.F.F.n.%.Z s * * O   * = 5 8 g m h o         J.J.J.J.J.J.J.J.J.J.J.J.J.J.J.",
"J.J.J.J.J.J.J.      O k +.l.V.e.h * < T d.A.V.F.C.F.F.F.F.F.b.b.d.$.~ B h t = O * # O =     o       J.J.J.J.J.J.J.J.J.J.J.J.J.J.",
"J.J.J.J.J.J.    O * A l.b.V.a.z * : W S.b.F.F.F.V.A.F.F.F.F.F.F.F.F.F.V.z.i.$.T l = o                 J.J.J.J.J.J.J.J.J.J.J.J.J.",
"J.J.J.J.J.  O   3 ! b.z.V.e.z $ * G l.h.+.F m m G ) 8.F.F.F.F.F.F.F.F.F.V.b. .k <                   O   J.J.J.J.J.J.J.J.J.J.J.J.",
"J.J.J.J.  O O z ,.V.V.b.d.m * O A 7.D s = O * O * * 3 B i.V.F.F.F.F.F.b.7.z =     O       O         O     J.J.J.J.J.J.J.J.J.J.J.",
"J.J.J.    O n i.b.V.F.b.C O * Z _ y O O O   p y < O   < v V.F.F.F.F.F.=.p *     o     o     O   o           J.J.J.J.J.J.J.J.J.J.",
"J.J.    O b l.F.F.F.z.b o o f x * O O   O   B w.7.X.n * * X.F.F.F.F.,.t $ 5 z #   O   O   O # j k o *       J.J.J.J.J.J.J.J.J.J.",
"J.J.    s i.V.F.F.i.c O O O * O   O   o   O l V.V.m.d.f o N F.F.F.d.h   5 +.+.O O O O   O     C a.B *         J.J.J.J.J.J.J.J.J.",
"J.  O * { V.V.F.=.f *   O           O   % * T b.F.A.F.c O x F.F.F.) O > [ V.d.f O % o O O O p =.F.g.N   * o     J.J.J.J.J.J.J.J.",
"J.    f b.V.l.T t O O O   > f *     O   O v l.F.F.F. .3 * Z A.F.F.C O 5 e.F.V.8.T j t t z R w.b.C.V.%.= 5 3     J.J.J.J.J.J.J.J.",
"J.O O T F.F.G =   e ! e   x l.G s < < f U i.b.C.A.! 5 O t 6.F.F.F. .O * $.V.F.V.V.d.w.e.l.F.F.F.F.V.R O r Z o     J.J.J.J.J.J.J.",
"O O = 2.F.A.A 3 x ,.F.v   h b.V.d.7.6.t.m.m.n.6.C > O 0 X.C.F.F.F.i.s O j 7.A.F.V.V.F.F.V.V.F.F.C.+.r   N y.y O o J.J.J.J.J.J.J.",
"  O t i.F.F.h.,.d.F.F.W * O b %.i.d.w.2.=.] B y O   t @.V.C.F.F.F.F.Q = O e B / 2.d.d.d.d.i.6._ x > O 5 =.A.} = O   J.J.J.J.J.J.",
"  O s V.F.F.F.F.F.F.F.d.j O * 1 e t y 0 3 :   * < v ,.m.A.F.F.F.F.F.V.G <   O O 0 s s y e e 0 *   * 8 / V.A.b.v O   o J.J.J.J.J.",
"  O h F.F.F.F.F.F.F.F.F.w.m 3 o   * * O $ O e z [ h.V.A.A.A.F.F.F.F.F.V.X.b p = O o   O O o $ = s F 2.V.A.A.F.w.i     J.J.J.J.J.",
"O   h F.F.F.F.F.F.F.F.F.F.z.=.G m B A T ! ' 6.l.V.A.A.V.A.A.F.F.F.F.F.F.b.b.8.$.T B N G A A P $.w.b.F.F.A.F.F.F.~ * o   J.J.J.J.",
"O O h F.F.F.F.F.F.F.F.F.F.F.F.F.A.F.F.F.F.F.V.F.A.F.F.F.A.F.F.F.F.F.F.F.F.F.A.F.A.F.F.F.F.F.F.F.F.S.F.A.F.F.F.F.d.t o   J.J.J.J.",
"O   h F.F.F.F.F.F.F.F.F.F.F.F.F.F.F.F.A.F.F.F.F.F.F.A.F.A.F.F.F.F.F.F.F.F.F.F.F.F.F.F.A.F.F.F.F.F.S.F.C.F.F.F.F.F.B O o J.J.J.J.",
"  O f V.F.F.F.F.F.F.F.F.i.] w.F.F.F.F.F.F.F.F.F.F.F.F.F.F.F.F.F.F.F.F.F.F.F.F.F.F.F.F.F.F.F.F.F.F.F.F.F.F.F.F.F.F.o.*     J.J.J.",
"O   y i.F.F.F.F.F.F.F.F.P * A F.F.F.F.F.F.F.F.F.F.F.F.F.F.F.F.F.F.F.F.F.F.F.F.F.F.F.F.F.F.F.F.F.F.F.F.F.F.F.F.F.F.d.y     J.J.J.",
"    3 6.F.F.F.F.F.F.F.F.B O s i.F.F.F.F.F.F.F.F.F.F.F.F.F.F.F.F.F.F.F.F.F.F.F.F.F.F.F.F.F.F.F.F.F.A.A.V.V.F.x.S.V.b.B O O J.J.J.",
"O O O =.F.F.F.F.F.F.F.F.] = O V l.F.F.F.F.F.F.F.F.F.F.F.F.F.F.F.F.F.F.F.F.F.F.F.F.F.F.F.F.F.F.l.w.:...( B z b U e.F.%.* O   J.J.",
"  O   X.F.F.F.F.F.F.F.F.V.b   * b w.V.V.V.F.A.b.V.V.V.F.A.A.F.F.F.n.V.V.F.F.F.F.F.V.l.w.:./ b f y 5 = * O   O * j y.i.0 o   J.J.",
"J.O o ) F.F.F.F.F.F.F.F.F.i.x   * p v T [ +.%.=.6.6.2.6.,.,.2.6.5.6.,.,.=.] W G M c h s 0 * O o O O   = 8 s p O O G b.k O   J.J.",
"J.  O C F.F.F.F.F.F.F.F.F.F.e.m <     * = > 3 5 e t e e 0 w e e w 0 0 0 3 O O O *     * O o w j N A ( X.,.w.' = O M F.A O   J.J.",
"J.O O h F.F.F.F.F.F.F.F.F.F.F.b._ l p < O O         O O   O           %   * 3 e p d k b P X.5.g.V.V.C.x.d.Q 0   < _ F._   O J.J.",
"J.O O 5 w.F.F.F.F.F.F.F.F.F.F.F.V.l.w.=.{ / ! P C C A A G P G G F G W W ) X.>.5.w.e.V.F.F.F.F.F.F.F.F.b.A = * * P l.F.5.5   O J.",
"J.  O O ~ F.F.F.F.F.F.F.F.F.F.F.F.V.F.F.V.V.F.F.A.F.F.F.x.V.S.V.b.S.F.F.A.F.F.A.F.F.F.F.F.F.F.F.F.F.F.R = O y _ b.V.V.V.f   O J.",
"J.J.    k V.F.F.F.F.F.F.F.F.F.F.F.F.F.F.F.F.F.F.F.F.F.F.F.F.F.F.F.F.F.F.F.F.F.F.F.F.F.F.F.F.F.F.F.F.V.s o y ,.F.F.F.F.F.x O   J.",
"J.J.    = X.F.F.F.F.F.F.F.F.F.F.F.F.F.F.F.F.F.F.F.F.F.F.F.F.F.F.F.F.F.F.F.F.F.F.F.F.F.F.F.F.F.F.F.F.2.3 * Q V.F.F.F.F.F.C O o J.",
"J.J.J.O o x h.F.F.F.F.F.F.F.F.F.F.F.F.F.F.F.F.F.F.F.F.F.F.F.F.F.F.F.F.F.F.F.F.F.F.F.F.F.F.F.F.F.F.F.X.  # :.F.F.F.F.F.F.E     J.",
"J.J.J.  O : X.C.F.F.F.F.F.F.F.F.F.F.F.F.F.F.F.F.F.F.F.F.F.F.F.F.F.F.F.F.F.F.F.F.F.F.F.F.F.F.F.F.F.F._   O a.F.F.F.F.F.F.[ *   J.",
"J.J.J.J.O   l l.F.F.F.F.F.F.F.F.F.F.F.F.F.F.F.F.F.F.F.F.F.F.F.F.F.F.F.F.F.F.F.F.F.F.F.F.F.F.F.F.F.F.~ O > d.F.F.F.F.F.F.]     J.",
"J.J.J.J.    : X.F.F.F.F.F.F.F.F.F.F.F.F.F.F.F.F.F.F.F.F.F.F.F.F.F.F.F.F.F.F.F.F.F.F.F.F.F.F.F.F.F.F.P   0 z.F.F.F.F.F.F.]     J.",
"J.J.J.J.J.O   k b.F.F.F.F.F.F.F.F.F.F.F.F.F.F.F.F.F.F.F.F.F.F.F.F.F.F.F.F.F.F.F.F.F.F.F.F.F.F.F.F.F.b O h b.F.F.F.F.F.F.W     J.",
"J.J.J.J.J.    = X.V.F.F.F.F.F.F.F.F.F.F.F.F.F.F.F.F.F.F.F.F.F.F.F.F.F.F.F.F.F.F.F.F.F.F.F.F.F.F.F.l.s   m F.F.F.F.F.F.F.B O   J.",
"J.J.J.J.J.J.  O l b.F.F.F.F.F.F.F.F.F.F.F.F.F.F.F.F.F.F.F.F.F.F.F.F.F.F.F.F.F.F.F.F.F.F.F.F.F.F.F.8.=   ) F.F.F.F.F.F.V.v O O J.",
"J.J.J.J.J.J.    * $.F.F.F.F.F.F.F.F.F.F.F.F.F.F.F.F.F.F.F.F.F.F.F.F.F.F.F.F.F.F.F.F.F.F.F.F.F.F.F. .O O 2.F.F.F.F.F.F.F.h O   J.",
"J.J.J.J.J.J.J.O   h i.F.F.F.F.F.F.F.F.F.F.F.F.F.F.F.F.F.F.F.F.F.F.F.F.F.F.F.F.F.F.F.F.F.F.F.F.F.V.C * 0 d.F.F.F.F.F.F.e.0 O   J.",
"J.J.J.J.J.J.J.    * ( F.F.F.F.F.F.F.F.F.F.F.F.F.F.F.F.F.F.F.F.F.F.F.F.F.F.F.F.F.F.F.F.F.F.F.F.F.d.y # b A.F.F.F.F.F.F.:.      J.",
"J.J.J.J.J.J.J.J.O O f b.F.F.F.F.F.F.F.F.F.F.F.F.F.F.F.F.F.F.d.=.e.F.F.F.F.F.F.F.F.F.F.F.F.F.F.F._   o  .F.F.F.F.F.F.V.T     J.J.",
"J.J.J.J.J.J.J.J.  O * { F.F.F.F.F.F.F.F.F.F.F.F.F.F.F.F.F.F.R % f 8.F.F.F.F.F.F.F.F.F.F.F.F.F.b.f o p d.F.F.F.F.F.F.b.h O   J.J.",
"J.J.J.J.J.J.J.J.J.    h w.V.F.F.F.F.F.F.F.F.F.F.F.F.F.F.F.F.G * O z 6.F.F.F.F.F.F.F.F.F.F.F.b.T * O Q F.A.F.F.F.F.F.e.> o   J.J.",
"J.J.J.J.J.J.J.J.J.o   * x l.F.F.F.F.F.F.F.F.F.F.F.F.F.F.F.F.e.k o O r / b.F.F.F.F.F.F.F.F.m.G * O h l.F.A.F.F.F.F.F./ *   J.J.J.",
"J.J.J.J.J.J.J.J.J.J.  O * P b.F.F.F.F.F.F.F.F.F.F.F.F.F.F.F.F.8.f O O $ h ! $.2.d.V.m.b.e.C < * 0 $.F.F.F.F.F.F.A.A.x O O J.J.J.",
"J.J.J.J.J.J.J.J.J.J.J.  o < ( F.F.F.F.F.F.F.F.F.F.F.F.F.F.F.F.F.d.G 5 O O * = 3 h x x M f * o r $.F.F.F.F.F.F.F.F.e.<     J.J.J.",
"J.J.J.J.J.J.J.J.J.J.J.J.  O 0 2.V.F.F.F.F.F.F.F.F.F.F.F.F.F.F.F.F.F.:.x < * O * O   O   O = h %.F.F.F.F.F.F.F.F.F.! O o J.J.J.J.",
"J.J.J.J.J.J.J.J.J.J.J.J.  o   s 5.S.F.F.F.F.F.F.F.F.F.F.F.F.F.F.F.F.V.l.%./ G x t 3 5 5 5 A d.b.F.F.F.F.F.F.F.F.a.s     J.J.J.J.",
"J.J.J.J.J.J.J.J.J.J.J.J.J.      y  .V.V.F.F.F.F.F.F.F.F.F.F.F.F.F.F.F.F.V.F.V.V.d.e.8.:.i.V.A.F.F.F.F.F.F.F.F.V.Z o     J.J.J.J.",
"J.J.J.J.J.J.J.J.J.J.J.J.J.J.    O = C 2.F.F.F.F.F.F.F.F.F.F.F.F.F.F.F.F.V.F.A.A.V.F.F.V.F.F.F.F.F.F.F.F.F.F.F.Q =   O J.J.J.J.J.",
"J.J.J.J.J.J.J.J.J.J.J.J.J.J.J.    O   5 ( d.V.V.F.F.F.F.F.F.F.F.F.F.F.F.F.F.F.F.F.F.F.F.F.F.F.F.F.F.F.F.V.V.] <   O J.J.J.J.J.J.",
"J.J.J.J.J.J.J.J.J.J.J.J.J.J.J.J.J.  O O * f X.l.F.F.F.F.F.F.F.F.F.F.F.F.F.F.F.F.F.F.F.F.F.F.F.F.F.F.F.F.F. .3 O     J.J.J.J.J.J.",
"J.J.J.J.J.J.J.J.J.J.J.J.J.J.J.J.J.J.  O     = k G +.i.l.F.F.F.F.F.F.F.F.F.F.F.F.F.F.F.F.F.F.F.F.F.F.V.V.=.5 O     J.J.J.J.J.J.J.",
"J.J.J.J.J.J.J.J.J.J.J.J.J.J.J.J.J.J.J.J.O   O   * O < f F =.V.F.F.F.F.F.F.F.F.F.F.F.F.F.F.F.F.F.V.V.w.I 0 O     J.J.J.J.J.J.J.J.",
"J.J.J.J.J.J.J.J.J.J.J.J.J.J.J.J.J.J.J.J.J.J.            O * y c P { $.w.l.b.b.V.F.A.F.F.F.V.2.^ F h < O O o   J.J.J.J.J.J.J.J.J.",
"J.J.J.J.J.J.J.J.J.J.J.J.J.J.J.J.J.J.J.J.J.J.J.J.J.    O   O   O * * O = 0 f x B K A B B N h = *   o   o O   J.J.J.J.J.J.J.J.J.J.",
"J.J.J.J.J.J.J.J.J.J.J.J.J.J.J.J.J.J.J.J.J.J.J.J.J.J.J.J.J.            O           O O O       O O   O   J.J.J.J.J.J.J.J.J.J.J.J.",
"J.J.J.J.J.J.J.J.J.J.J.J.J.J.J.J.J.J.J.J.J.J.J.J.J.J.J.J.J.J.J.J.J.      O   O     o O O   O O   J.J.J.J.J.J.J.J.J.J.J.J.J.J.J.J."
};
