/* XPM */
static char *frame_34_delay_0_05s1763316731[] = {
/* columns rows colors chars-per-pixel */
"64 64 225 2 ",
"   c black",
".  c #010101",
"X  c #020202",
"o  c gray1",
"O  c #040404",
"+  c gray2",
"@  c #040406",
"#  c #060606",
"$  c #070707",
"%  c gray3",
"&  c #090909",
"*  c gray4",
"=  c #0B0B0B",
"-  c #0C0C0C",
";  c gray5",
":  c #0E0E0E",
">  c gray6",
",  c #101010",
"<  c #111111",
"1  c gray7",
"2  c #131313",
"3  c gray8",
"4  c #151515",
"5  c #161616",
"6  c gray9",
"7  c #181818",
"8  c #191919",
"9  c gray10",
"0  c gray11",
"q  c #1D1D1D",
"w  c #1E1E1E",
"e  c gray12",
"r  c #202020",
"t  c #222222",
"y  c #232323",
"u  c gray14",
"i  c gray15",
"p  c #272727",
"a  c #282828",
"s  c #2A2A2A",
"d  c #2C2C2C",
"f  c #2D2D2D",
"g  c #2F2F2F",
"h  c gray19",
"j  c #313131",
"k  c #323232",
"l  c #323136",
"z  c gray22",
"x  c #3A3A3A",
"c  c #3D3C41",
"v  c gray28",
"b  c #494949",
"n  c #4A494E",
"m  c #4F4F50",
"M  c gray33",
"N  c #54535B",
"B  c gray35",
"V  c #5C5C5E",
"C  c #5E5D64",
"Z  c #606060",
"A  c #626166",
"S  c gray40",
"D  c #68676B",
"F  c gray42",
"G  c gray43",
"H  c #707072",
"J  c gray45",
"K  c #747378",
"L  c #787779",
"P  c gray48",
"I  c #7B7B7B",
"U  c #7A7A7C",
"Y  c #7B7B7D",
"T  c #7C7C7C",
"R  c gray49",
"E  c #7D7C7F",
"W  c #7E7E7E",
"Q  c gray50",
"!  c #7E7D80",
"~  c #808083",
"^  c #838384",
"/  c #868686",
"(  c gray53",
")  c #848388",
"_  c #86858A",
"`  c #888888",
"'  c #898989",
"]  c #8B8B8B",
"[  c #89888D",
"{  c gray55",
"}  c #8D8D8D",
"|  c #8E8E8E",
" . c #8C8B90",
".. c #8E8E92",
"X. c gray57",
"o. c #939393",
"O. c gray58",
"+. c #959595",
"@. c #929198",
"#. c #979699",
"$. c #98989B",
"%. c #9A9A9A",
"&. c gray61",
"*. c gray62",
"=. c #9D9CA1",
"-. c #A0A0A0",
";. c #A1A0A3",
":. c #A2A2A2",
">. c #A4A4A6",
",. c #A7A6A7",
"<. c #A7A7AA",
"1. c #A9A9A9",
"2. c #AAAAAA",
"3. c gray67",
"4. c #ACACAC",
"5. c #AEAEAE",
"6. c #ADADB0",
"7. c #AEADB3",
"8. c #B0AFB3",
"9. c gray70",
"0. c #B1B0B7",
"q. c #B4B4B4",
"w. c gray71",
"e. c #B6B6B7",
"r. c #B5B4B8",
"t. c #B8B7BA",
"y. c gray73",
"u. c #BBBBBD",
"i. c #BAB9BF",
"p. c #BCBCBC",
"a. c gray75",
"s. c #BDBCC0",
"d. c #BEBDC3",
"f. c #C0BFC2",
"g. c #C0C0C0",
"h. c #C1C1C1",
"j. c #C1C1C3",
"k. c #C3C2C5",
"l. c #C1C0C7",
"z. c #C5C5C5",
"x. c #C5C5C6",
"c. c #C6C6C6",
"v. c #C6C5C9",
"b. c #C8C7CA",
"n. c #C8C8C8",
"m. c gray79",
"M. c #CACACA",
"N. c #CAC9CC",
"B. c #CCCBCE",
"V. c #CDCDCE",
"C. c gray81",
"Z. c #CFCFD2",
"A. c #D1D0D1",
"S. c #D1D0D3",
"D. c LightGray",
"F. c #D3D3D5",
"G. c gray83",
"H. c #D6D5D7",
"J. c #D7D6D9",
"K. c #D8D8D8",
"L. c #D9D8DB",
"P. c #DADADB",
"I. c #DCDBDC",
"U. c #DCDBDE",
"Y. c #DDDDDD",
"T. c #DFDFDF",
"R. c #DEDEE0",
"E. c #E1E0E1",
"W. c #E1E1E1",
"Q. c #E1E1E3",
"!. c gray89",
"~. c #E3E3E5",
"^. c #E2E1E6",
"/. c #E4E4E4",
"(. c #E4E4E6",
"). c #E6E5E6",
"_. c #E7E7E7",
"`. c gray91",
"'. c #E9E9E9",
"]. c #EAEAEA",
"[. c #EBEAEB",
"{. c #EAE9EC",
"}. c #EBEAED",
"|. c #EBEAEF",
" X c #ECEBEE",
".X c #EDECED",
"XX c gray93",
"oX c #EEEEEE",
"OX c #EFEFEF",
"+X c #EDECF0",
"@X c #EFEEF3",
"#X c #F0EFF2",
"$X c gray94",
"%X c #F1F1F1",
"&X c #F1F1F3",
"*X c gray95",
"=X c #F3F3F3",
"-X c #F2F1F5",
";X c #F4F3F4",
":X c #F4F3F6",
">X c #F4F4F4",
",X c gray96",
"<X c #F5F4F7",
"1X c #F6F6F6",
"2X c #F7F6F7",
"3X c gray97",
"4X c #F6F5F8",
"5X c #F8F7FA",
"6X c #F8F8F8",
"7X c #F9F9F9",
"8X c #FAF9FA",
"9X c gray98",
"0X c #FBFAFB",
"qX c #FBFBFB",
"wX c #F9F8FC",
"eX c #FAFAFE",
"rX c #FCFBFC",
"tX c #FCFBFF",
"yX c gray99",
"uX c #FDFCFD",
"iX c #FDFDFD",
"pX c #FEFDFF",
"aX c #FEFEFE",
"sX c white",
"dX c None",
/* pixels */
"dXdXdXdXdXdXdXdXdXdXdXdXdXdXdXdXdXdXdXdX                                      dX  dXdXdXdXdXdXdXdXdXdXdXdXdXdXdXdXdXdXdXdXdXdXdX",
"dXdXdXdXdXdXdXdXdXdXdXdXdXdXdXdX                                                      dXdXdXdXdXdXdXdXdXdXdXdXdXdXdXdXdXdXdXdXdX",
"dXdXdXdXdXdXdXdXdXdXdXdXdX                        & O O O O X O X O                       dXdXdXdXdXdXdXdXdXdXdXdXdXdXdXdXdXdXdX",
"dXdXdXdXdXdXdXdXdXdXdX                          % 6 u k v v v h 8 % O %                     dXdXdXdXdXdXdXdXdXdXdXdXdXdXdXdXdXdX",
"dXdXdXdXdXdXdXdXdXdX        O     % % h m m B G P.$X;X5X3X2XyX=X@XW.A.4.( G M d % O               dXdXdXdXdXdXdXdXdXdXdXdXdXdXdX",
"dXdXdXdXdXdXdXdX      %     O a c B H W T T ` J.7XyXyXyXqXqXyXyXyX9X0XyXyXyX$X=XA.L r O   O       dXdXdXdXdXdXdXdXdXdXdXdXdXdXdX",
"dXdXdXdXdXdXdX          % h Z P P P P W ^ E r._.=X=X$X=X2X2X2X7XyX9X9X6X9X6X2X9X2X9X_.| r %         dXdXdXdXdXdXdXdXdXdXdXdXdXdX",
"dXdXdXdXdXdX        O u Z L U W W T P D M z r q q 0 h M Z Z Z A S S D H P P J G G L Q ^ | f           dXdXdXdXdXdXdXdXdXdXdXdXdX",
"dXdXdXdX      O O O c J P ^ J B z 5 > % O   %     O   O O O O % O O   O O   $ & O O O O % % O             dXdXdXdXdXdXdXdXdXdXdX",
"dXdXdXdX  O     : M W W F c > O O O       O 3 8 c M x q 3 3 3 3 3 6 < % % % : < & & & O O   O       O     dXdXdXdXdXdXdXdXdXdXdX",
"dXdXdX        u S W P v 3 % O $ = 8 l c M D J P ^ _. X_.`._.[._._.W.Y.H.H.G.Y.W.P.P.z.p.o.S c u : O % O O   dXdXdXdXdXdXdXdXdXdX",
"dXdX      O l P W L c % O O a M D L P J ! W W W P O.E.9XyXyXyXyXyXyX9XyXyXyXyXyX9X2X_.y.*.,.4.w.w.W u O       dXdXdXdXdXdXdXdXdX",
"dX      O a J T W M %   r B G W ) ! L J A Z Z Z V S L a.3XyXyXyXyXyXyXyXyXyXyX9XA.o.v u 8 % q u m %.2.2 O   O dXdXdXdXdXdXdXdXdX",
"dX      8 J J W U c O q G ! P E K G A C B m c c z c B D %. XyXyXyXyXyXyXyXyX=X%.v 3 =       O O   : c v O O     dXdXdXdXdXdXdXdX",
"    O O A W W W W J B J U ! ! K D B c r : O O O O o : f M Q  XyXyXyXyXyXyX=XP r %   O q c B n a : O O h x O       dXdXdXdXdXdXdX",
"    O r P P T W W W ^ P U U K F N 0 % # $ O : < < %     = x { 2XyXyXyXyXyX<.a O % u o.Y.[.yX;XI.:.f O $ h d O     dXdXdXdXdXdXdX",
"      b P P W W W W T W L E A n 6 & % l U y.M.I.Y.y.A 3 @ % x A.yXyXyXyX.XV <   M K.9XyXyXyXyXyX9XH.b O # c =   o   dXdXdXdXdXdX",
"O O $ F T T P T W E W W E K C 5 O 2 @.^.yX9X2X9X9X9X2Xw.a O = ^ yXyXyXyXM.h O 6 E.yXyXyXyXyXyXyXyXrXP.r o d y o o     dXdXdXdXdX",
"O   3 L P T W W W W W ! ! D c @ : 7.2XyXyXyX2XY.g.A.=X=XB.8 O l #XyXyXyXM.r O x ;XrXyXyX X%.c x ^ 2Xp.: o z m % o     dXdXdXdXdX",
"O O q ^ W W W W E W W W ! D c o 2 l.yXyXyXyX%.y , q %.yX9Xx O r z.yXyXyXB.r $ 8 s.9XyXyXr.% % % 8 n.x O 2 m A m O o o   dXdXdXdX",
"    r T W W W W ! W E W L C N 8 O N yXyXyX[.8 O     n 9XA.r   a g.yXyXyXW.q   O u M.9X9Xp.% O # h F % > c B V s.h O o   dXdXdXdX",
"    r T W W W T W ! W ! L C N z - : 0.0XyX[.8       J 2.u % % 8 A.yXyXyXyXZ     O h 4.yX=X` B P J <   u Z V B d.<.%       dXdXdX",
"  O r W W E W W W ! ! ! L m < a q @ u 7.-X9X7.n h x m < O O : x /.yXyXyX9Xg.3     O 3 F z.[.W._ 3 O q M M C N s.+Xy o     dXdXdX",
"O   r P W W W W ! W ! ! U c # : c < % < S ` ~ K l 3 O O   @ O D 2XyXyXyX2X9XB O O   O % r s f # O 2 M v 3 l V d.rXH O       dXdX",
"  O u P W W W W W W ! ! L Z 8 O a v % % % O % % # @ 2 % @ > r | yXyXyXyXyXyXl.6 % O o # # % @ o 6 n C 5 # 0 C U.4Xt.O O     dXdX",
"O   2 T W W T W E W ! W U S c o O c m a 7 3 < 6 u x a % O y f y.yXyXyXyXyXyX2XB a % O O h s s z M C l o = h D @XyX@Xu O     dXdX",
"  O : F P T P W W E ! E E B M q # < c M V M m B B c -   8 h m H.yXyXyXyXyXyXyXz.l a O % r m V A V c > o q m [ 0XyXyXG     O o dX",
"O   O S P P T P W W ! E ! H x n 5 O % r M N B m a :   7 c u ~ 2XyXyXyXyXyXyXyX9XA c r O # > p h a % @ > v M R.0XyXyXx.= O     dX",
"  O   Z T T P T T W ! ! E E S z v 5 % $ > e q - @   0 v l A 7.yXyXyXyXyXyXyXyXyXR.b m 8 O # % # O O O c n 8.wX0XrXrX@Xq o $   dX",
"O O O m T P T P E E E ! E E P V l b h % % O O O # a M z B ! [.yXyXyXyXyXyXyXyXyX2XZ.n n x 5 # # < q b M <.4XwX0X0XrX3Xb O     dX",
"  O   x P T P T E E E ! ! E E P D z b m h r r a m V z D K w.yXyXyXyXyXyXyXyXyXyXyXyXW.Z.B.<.| { =.r.B.B.yXyXrX0XrXyXyXP O     dX",
"      r T P T P E E W E ! ! U U L H m C S S A H U J D L %. XyXyXyXyXyXyXyXyXyXyXyXyXyX0XrXrX0XyXyXyXyX0XyXyXrXrXrX0XyX8.  o o   ",
"      % F W P P U P ! U ~ J z B ! E ! U U U P P P U ~ ^ _.yXyXyXyXyXyXyXyXyXyXyXyXyXyXyXyXyXyXyXyXyXyXyXyXyXyXyXyXyXyXR.<       ",
"      # m W P T P U ! ! W v   u E E ! ! ! ! U Y U U ^ M.yXyXyXyXyXyXyXyXyXyXyXyXyXyXyXyXyXyXyXyXyXyXyXyXyXyXyXyXyXyXyX9Xx O O   ",
"dX      r W P U E P ! W K 2 % c E E ! ! E E ~ P P | B.4XyXyXyXyXyXyXyX0XrXyXyXyXrX0XyXrXyXyXyXyXyXyX4XyXyXyXyXyXyXyXyXyXM O     ",
"dX        V P P T P U W c @ < H E E E E ! ! U ! <.I.yXyXyXyXyXrXyX0X-X=X_.K.Y.Y.R._.#X5XyXyXyXyXyX-X*.E.yXyXyXyXyXyXyXyXJ O O   ",
"dX      o u ! P P P U L 6 % v W U U U U U ~ O.R.2XyXyXyX+XR.r._ D C n c a p p y p z v M S ..B.@X0XrX9._ W.yXyXyXyXyXyXyXO.  O   ",
"dXdX      O Z P W P U m % 8 #.L L U U ! ! =._.4XI.z.;.! M a % O O @ O O # @ # # @ O # $ o # 5 m $.b.Z.) o.#XyXyXyXyXyXyXr.O     ",
"dXdX    O o f L P W U h X m f.Y E o.A.B.b.S.#.M h O $ O   # O : 6 r p h c M V B n l a u r - = O % > p p V a.yXyXyXyXyXyXr.O     ",
"dXdXdX      % V E ! P < % $.f.Y E Z.Z.| v r O O o # O < r v _ w.B.F.I./.;X5X9X5X5X+X/.W.B.>.B r : O # # < F -X9XyXyXyXyX<.O o   ",
"dXdXdX      O u ! ! K % % B.s.L L G r # O O O q z K :.g.I.2XyXyXyXyXyXyXyXyXyXyXyXyXyXyXyXyXyXY.7.o.M $ # < :.9XyXyXyXyX$.      ",
"dXdXdXdX  o   O A U S o 0 P.9.b 3 O   : u b o.b.<XrXyXyXyXyXyXyXyXyXyXyXyXyXyXyXyXyXyXyXyXyXrX0XyX=X@X=.5 # q J.yXyXyXyXP O O   ",
"dXdXdXdX        p ! A o q $X8.% o < l o.H.yX0X9XyXrX#X.X-X|.|.[._. X5XyXyXyXyXyXyXyXyXyXyXyX0XyXyX4XyX0X..# % ~ yXyXyXyXB O     ",
"dXdXdXdXdX  o   @ A A @ < K.B.y q O._.yXrX4X|.L.B.i.=.) ` ) ^ ^ ! ` %.^.yXyXyXyXyXyXyXyXyXyXI.=.^ P ~ U M o   P yXyXyXyXx   O   ",
"dXdXdXdXdX    o # 0 H > O ` #XU U J.rXR.r.,. .! U L L ! U U U ! ! U U ,.yXyXyXyXyXyXyXyXyX Xx = O   $ % O = r Z.yXyXyX.Xr       ",
"dXdXdXdXdXdX    o @ m c # a I.a.U | B.) ! W L U ! U U U U U U ! U ! W 0.yXyXyXyXyXyXyXyX5XO.# # > < > : : u 7.9XyXyXqXz.  O     ",
"dXdXdXdXdXdX    o o 0 D 3 # M B.` _ ~ ~ ! U U U U ! U ! U U ! U ! E ) _.yXyXyXyXyXyXyXyXM.8 # a 9.l.u.2.L J.yXyXyXyX9X^   O   dX",
"dXdXdXdXdXdXdX  o o o B v # - f S Y ! ! U U U U U ! U ! U ! U ! W ! W s.yXyXyXyXyXyXyX_.z # > ,.yX9X4XA.J.rXyXyXyXyX5Xc O O   dX",
"dXdXdXdXdXdXdX  o o o r H x $   & c E E E E ! U U ! ! ! ! ! U ! E ! ~ ~ b.9XyXyXyXyX;XM $ $ D 9XyXyXyXyXyXyXyXyXyXyX_.<       dX",
"dXdXdXdXdXdXdXdX    o O f U M 3 & 3 E E U U ! U ! U ! W ! ! ! ! E E ! ! ! -.B..X@XK.K - O q K.yXyXyXyXyXyXyXyXyXyXyX<.O   O   dX",
"dXdXdXdXdXdXdXdXdX    O O v P F b D U U U W U U U ! U ! ! U U S f h z v F L U U ! Z 3 O 6 ) yXyXyXyXyXyXyXyXyXyXyXyXm O O   dXdX",
"dXdXdXdXdXdXdXdXdX      O : m ! U U U U U U U U U U ! U ! ! U x O O O # - 0 f h g :     v B.yXrXyXyXyXyXyXyXyXyXyX[.< O     dXdX",
"dXdXdXdXdXdXdXdXdXdX    O O < L L L U L L U U E U U ! ! ! ! P B 4 : : O O o O   O O O b O.2XyXyXyXyXyXyXyXyXyXyXyXO.$       dXdX",
"dXdXdXdXdXdXdXdXdXdXdX    O   a K U U P P P P P U ! U ! U ! U ! K J H m f 2 : % : r m ! H.yXyXyXyXyXyXyXyXyXyXyX$Xh O O   dXdXdX",
"dXdXdXdXdXdXdXdXdXdXdXdX  O O   5 N ! ! P P P P E W ! U ! U ! ! E ! ! U U L F G J P K ..9XyXyXyXyXyXyXyXyXyXyXyXP $ O     dXdXdX",
"dXdXdXdXdXdXdXdXdXdXdXdXdX      # # x F U U U U U U U ! ! ! ! ! E E E E U P P P P P J i.yXyXyXyXyXyXyXyXyXyX9X*.<       dXdXdXdX",
"dXdXdXdXdXdXdXdXdXdXdXdXdXdX        o < m K L U ! U ! U ! ! ! ! ! E ! ! U U E U W U ! _.yXyXyXyXyXyXyXyXyX9X,.2         dXdXdXdX",
"dXdXdXdXdXdXdXdXdXdXdXdXdXdXdX    o o o   4 B U U U U ! U ! ! ! ! E E E ! U U U U U p.0XyXyXyXyXyXyXyXyXyXw.2 O       dXdXdXdXdX",
"dXdXdXdXdXdXdXdXdXdXdXdXdXdXdXdX      o   o % r v Z F U ! U U ! E ! ! ! E E E E U :.rXyXyXyXyXyXyXyXyX5Xb.q O O     dXdXdXdXdXdX",
"dXdXdXdXdXdXdXdXdXdXdXdXdXdXdXdXdXdX  o O O O o   o > 0 c F U ! E ! ! E E E E U |  XyX9XyXyXyXyXyX0XW...q O       dXdXdXdXdXdXdX",
"dXdXdXdXdXdXdXdXdXdXdXdXdXdXdXdXdXdXdXdX    O     o   O O # 5 s v B A G L E ! ` T.yXyXyXyX4XI.<.~ c 2 o O   O   dXdXdXdXdXdXdXdX",
"dXdXdXdXdXdXdXdXdXdXdXdXdXdXdXdXdXdXdXdXdX              o O o o O O O $ < q d A _ ! J J G c : o O # o o       dXdXdXdXdXdXdXdXdX",
"dXdXdXdXdXdXdXdXdXdXdXdXdXdXdXdXdXdXdXdXdXdXdXdX              o O o   O   O     X X @     X o o   o o       dXdXdXdXdXdXdXdXdXdX",
"dXdXdXdXdXdXdXdXdXdXdXdXdXdXdXdXdXdXdXdXdXdXdXdXdXdXdXdX              O   O   O X X       O   o           dXdXdXdXdXdXdXdXdXdXdX"
};
