/* XPM */
static char *frame_25_delay_0_05s1763316730[] = {
/* columns rows colors chars-per-pixel */
"64 64 167 2 ",
"   c black",
".  c #010101",
"X  c #020202",
"o  c gray1",
"O  c #040404",
"+  c gray2",
"@  c #060606",
"#  c #070707",
"$  c gray3",
"%  c #090909",
"&  c gray4",
"*  c #0B0B0B",
"=  c #0C0C0C",
"-  c gray5",
";  c #0E0E0E",
":  c gray6",
">  c #101010",
",  c #111111",
"<  c gray7",
"1  c #131313",
"2  c #151515",
"3  c gray9",
"4  c #181818",
"5  c gray10",
"6  c gray11",
"7  c #1D1D1D",
"8  c #1E1E1E",
"9  c gray12",
"0  c #202020",
"q  c #222222",
"w  c #232323",
"e  c gray14",
"r  c gray15",
"t  c #272727",
"y  c #282828",
"u  c #2A2A2A",
"i  c #2C2C2C",
"p  c #2D2D2D",
"a  c #2F2F2F",
"s  c #313131",
"d  c #323232",
"f  c #323136",
"g  c gray22",
"h  c #3A3A3A",
"j  c #3D3C41",
"k  c gray28",
"l  c #494949",
"z  c #4A494E",
"x  c #4F4F50",
"c  c gray33",
"v  c gray35",
"b  c #5C5C5E",
"n  c #606060",
"m  c #626166",
"M  c gray40",
"N  c #68676B",
"B  c gray42",
"V  c gray43",
"C  c #707072",
"Z  c gray45",
"A  c #787779",
"S  c gray48",
"D  c gray49",
"F  c #7E7E7E",
"G  c gray50",
"H  c #808083",
"J  c #838384",
"K  c #868686",
"L  c gray53",
"P  c #888888",
"I  c #898989",
"U  c gray54",
"Y  c #8B8B8B",
"T  c gray55",
"R  c #8D8D8D",
"E  c #8E8E8E",
"W  c gray57",
"Q  c gray58",
"!  c #959595",
"~  c #979699",
"^  c #9A9A9A",
"/  c gray61",
"(  c #A0A0A0",
")  c gray63",
"_  c #A2A2A2",
"`  c #A4A4A6",
"'  c #A7A6A7",
"]  c #A9A9A9",
"[  c #AAAAAA",
"{  c gray67",
"}  c #ACACAC",
"|  c #AEAEAE",
" . c #ADADB0",
".. c gray69",
"X. c #B2B2B2",
"o. c gray70",
"O. c #B4B4B4",
"+. c gray71",
"@. c #B6B6B7",
"#. c #B8B7BA",
"$. c gray73",
"%. c #BCBCBC",
"&. c gray74",
"*. c gray",
"=. c gray75",
"-. c #C0C0C0",
";. c #C1C1C1",
":. c #C3C3C3",
">. c #C5C5C5",
",. c #C6C6C6",
"<. c gray78",
"1. c #C8C8C8",
"2. c gray79",
"3. c #CACACA",
"4. c gray80",
"5. c #CDCDCE",
"6. c gray81",
"7. c #D1D0D1",
"8. c #D2D2D2",
"9. c LightGray",
"0. c gray83",
"q. c #D5D5D5",
"w. c #D6D5D7",
"e. c #D8D8D8",
"r. c #DADADB",
"t. c #DCDBDC",
"y. c #DDDDDD",
"u. c #DFDFDF",
"i. c #E1E0E1",
"p. c #E1E1E1",
"a. c #E2E2E2",
"s. c gray89",
"d. c #E4E4E4",
"f. c #E6E5E6",
"g. c #E7E7E7",
"h. c gray91",
"j. c #E9E9E9",
"k. c #EAEAEA",
"l. c gray92",
"z. c #ECECEC",
"x. c gray93",
"c. c #EFEFEF",
"v. c gray94",
"b. c #F1F1F1",
"n. c gray95",
"m. c #F3F3F3",
"M. c #F4F3F4",
"N. c #F5F4F5",
"B. c gray96",
"V. c #F6F6F6",
"C. c #F7F6F7",
"Z. c gray97",
"A. c #F8F8F8",
"S. c #F9F8F9",
"D. c #F9F9F9",
"F. c #FAF9FA",
"G. c gray98",
"H. c #FBFAFB",
"J. c #FBFBFB",
"K. c #FCFBFC",
"L. c gray99",
"P. c #FDFCFD",
"I. c #FDFDFD",
"U. c #FEFDFF",
"Y. c #FEFEFE",
"T. c white",
"R. c None",
/* pixels */
"R.R.R.R.R.R.R.R.R.R.R.R.R.R.R.R.R.R.R.R.                                      R.  R.R.R.R.R.R.R.R.R.R.R.R.R.R.R.R.R.R.R.R.R.R.R.",
"R.R.R.R.R.R.R.R.R.R.R.R.R.R.R.R.                                                    R.R.R.R.R.R.R.R.R.R.R.R.R.R.R.R.R.R.R.R.R.R.",
"R.R.R.R.R.R.R.R.R.R.R.R.R.R.                      O & o o o   o o o                       R.R.R.R.R.R.R.R.R.R.R.R.R.R.R.R.R.R.R.",
"R.R.R.R.R.R.R.R.R.R.R.                          = 5 i d k k k d 4 = O #                     R.R.R.R.R.R.R.R.R.R.R.R.R.R.R.R.R.R.",
"R.R.R.R.R.R.R.R.R.R.          O O & 6 m ^ _ | $.e.f.B.S.A.B.n.c.k.d.9.} L Z x u # O O           R.R.R.R.R.R.R.R.R.R.R.R.R.R.R.R.",
"R.R.R.R.R.R.R.R.R.    O     & l Y O.f.n.B.e...E V n M J ~ @.6.s.B.A.S.T.H.H.B.n.w.G t   o o       R.R.R.R.R.R.R.R.R.R.R.R.R.R.R.",
"R.R.R.R.R.R.R.        & = j ! x.S.H.B.>.v = & O O O & & # = = 2 d c S ` 9.n.H.L.H.S.f.E 6           R.R.R.R.R.R.R.R.R.R.R.R.R.R.",
"R.R.R.R.R.R.        O d Y | 3.S.S.$.j = O O & 6 h j k i 5 o O O o o O = = 0 j b E { $.3.-.j           R.R.R.R.R.R.R.R.R.R.R.R.R.",
"R.R.R.R.        O , x ` X.O.u.3.v , O & i ! e.k.n.n.n.k.d.e.-.^ C v g 2 & O O   O O 2 1 : = o           R.R.R.R.R.R.R.R.R.R.R.R.",
"R.R.R.R.    o o , B | X.[ ` B 2 # # g [ k.T.T.S.T.T.T.T.T.T.B.S.K.S.v.w.} G M c e , & & # # o o O         R.R.R.R.R.R.R.R.R.R.R.",
"R.R.R.    O   h W O.X.X.S 9 O O 0 W d.S.T.T.T.T.T.S.T.T.T.T.L.T.T.T.T.S.H.L.A.B.k.u.>.| Y V Y A j = & O     R.R.R.R.R.R.R.R.R.R.",
"R.R.      O l { X.| X.l * * 1 c ` e.S.T.H.H.T.H.T.T.T.S.T.L.T.T.L.T.T.T.T.T.T.T.h.E g 5 1 4 i A X.%.i O       R.R.R.R.R.R.R.R.R.",
"R.        j [ { O.^ d O & g ! O. .#.>.i.3.! J C L O.x.T.T.L.T.T.L.T.T.T.T.S.H.@.g =   * O > O # , l { 5     O R.R.R.R.R.R.R.R.R.",
"R.      t ` O.O.C 5   & n ` O.O.#.| B i 6 O O o   $ z 4.T.T.S.T.S.T.S.T.T.d.m : & = x Y O._ c 6 & & z Y O O O   R.R.R.R.R.R.R.R.",
"    O O L ..@.N & O 9 S | X.| [ J 9 $ o & 2 t i 5 & O 9 X.S.T.S.T.T.L.L.L.v O O d ..z.L.L.L.B.e.G # O { j o       R.R.R.R.R.R.R.",
"    O t [ o.@.N & l ^ X.| | O.B 1 O = x ! 9.d.h.u.! 3 $ 6 3.T.T.T.L.T.T.-.= : C u.B.T.S.B.t.e.S.x.k # l %.=       R.R.R.R.R.R.R.",
"  o O b X.O.O.| ^ | O.O.O.O.B = O i $.v.n.3.W A w.S.O.2 O b n.T.S.T.S.T.E O g S.T.T.S.t.B 0 6 W B.O.O , d.S &   o   R.R.R.R.R.R.",
"o O & / O.O.@.O.#.O.O.O.X._ , & x e.B.B.n 5 &   b S.S.m   = 9.T.T.T.T.T.V o m L.T.T.h.d = O & v B.w.O 2 s.k.d o o     R.R.R.R.R.",
"    6 ' o.O.@.O.o.X.o.o.O.S O 5 s.S.T.%.= O   # c B.S.B O # %.T.K.T.T.T.B o c n.S.A.O.& O O & ^ S.W O 6 k.S.| = O     R.R.R.R.R.",
"O O t X.o.X.$.O.o.X.o.o.O.B O j S.L.L.6., O O 0 :.M.$.= & O %.T.S.T.T.T.' # 1 E t.T.d.j # , n k./ , O b Y Y B.v O o o   R.R.R.R.",
"    d X.o.o.O.O.O.X.o.O.-.n # l B.L.L.M.L k c >.e.Y 6 & O , e.T.T.T.K.T.c.x   : t G 6.t.%.-.%.N & O 6 / , 1 w.s.f O     R.R.R.R.",
"    d X.o.O.O.O.X.X.o.O.O.Z   2 E >.9.z.k.<.` n t = O   O x B.T.K.T.T.T.S.s.l &   & 6 j B N 0 & O f _ J = 6 s.T._   o     R.R.R.",
"    d X.o.o.O.O.O.O.O.O._ j * O O 5 0 u t 0 > & = &   O & X.T.K.K.T.T.T.T.S.w.j O   O O O O & 2 z | 3.g O n T.H.x.y o     R.R.R.",
"O   d X.o.o.O.O.O.O.O.o.B O 4 i , & * o o O & 0 d 5 O O C S.T.T.T.T.T.K.T.T.Z.w.f   &   = 6 x ^ -.%.-.i 1 3.T.T.L.B         R.R.",
"O   i O.O.O.O.O.O.O.O.O.Y = & 6 n B n x z c z j 4 O O k k.T.T.T.T.S.T.S.T.S.T.T.6.g # O O 0 c c v | :.3.-.S.T.T.T.O.#       R.R.",
"  O 5 %.O.O.O.O.O.O.O.O...v $ & l Y W W Y 0 $ O o 2 c >.S.T.S.T.T.T.T.K.T.T.T.T.S.u.A 0 & O # O = | d.T.T.T.L.T.T.c.t       R.R.",
"  O & ^ @.O.$.O.@.@.O.$.@.O.I z W ` ~ E S # & 2 z ! 6.S.T.L.T.T.T.T.L.L.T.T.T.K.S.T.S.u.W l i d B n.T.T.S.T.L.T.T.T.B & O o   R.",
"O   O W O.O.O.O.O.@.@.@.@.@.$.X.| | | ` ` A J _ -.u.Z.T.T.L.T.T.L.T.T.T.L.L.T.T.T.T.T.T.S.x.s.k.M.T.T.T.T.T.T.T.T.T.>.= o O   R.",
"  O   Y X.X.O.O.@.O.@.%.@.$.X.X.X.%.9.k.n.n.d.d.n.S.T.S.L.L.T.T.T.T.T.T.S.T.T.L.T.S.T.T.T.T.T.T.T.T.T.T.T.T.T.T.T.T.c.4 o O   R.",
"o O o S o.X.X.O.O.@.O.@.#.$.>.9.k.B.S.T.T.T.T.T.T.T.T.T.T.T.T.T.T.T.T.T.T.T.T.T.T.T.T.T.T.T.T.T.T.T.T.T.T.T.T.T.T.T.S.l o   o R.",
"O O O c O. .X.X.O.@.W %.u.x.S.T.T.S.T.T.T.L.T.L.T.T.T.T.T.T.S.L.T.T.S.T.T.T.T.T.T.T.T.T.T.S.T.T.T.T.T.T.T.T.T.T.T.T.T.S O     R.",
"O   o f O.X...X.O.S 6 B S.S.T.T.T.T.T.T.L.T.T.T.T.T.T.T.T.T.T.T.T.T.T.T.T.T.T.T.T.T.T.T.T.T.T.T.T.T.T.T.T.T.T.T.T.T.T.}   o     ",
"      1 ( O.X.X.[ i O M T.T.T.L.T.T.T.T.T.T.T.T.T.T.T.L.H.K.T.T.S.T.L.A.S.T.T.T.T.T.T.T.B.S.S.T.K.T.T.T.T.T.T.T.T.T.T.u.2   o   ",
"      o B O.O.O.A O = 6.T.T.T.T.T.T.T.T.T.T.T.T.T.T.T.T.T.k.u.e.e.w.e.w.9.1.3.3.6.6.e.t.u.s.x.S.T.T.T.T.T.T.S.T.L.T.T.S.g   O   ",
"R.    o f | O.O.i O c T.T.L.H.T.S.T.S.n.i.>.X.| ^ E J b x d t t 0 w 9 0 , , 2 6 5 5 0 0 u i j b H [ 9.n.S.T.S.T.T.T.T.S.c O     ",
"R.    o = G X.` , = $.S.T.T.S.T.s.X.G l i 2 =   O o   & O O &   O O O O $ = &   O $ & O # # O     $ 9 x _ x.T.T.T.T.S.T.Z O     ",
"R.      O d ..! o > u.A.A.0.^ v d &   & = O 2 5 0 u d j c V W W Q W ~ ^ [ O.../ ^ ^ W J J N c d t & O O = k 6.S.S.T.T.T.!   o   ",
"R.R.      & E ! o > z.3.C 0 O O   , u c G | >.3.w.u.d.B.T.B.T.T.T.T.T.S.T.S.T.S.T.T.T.T.B.S.B.k.w.| C d = O h d.H.T.T.T.$.O     ",
"R.R.    O   g ~ : : u.u O O 4 k C O.d.B.S.T.T.T.T.T.T.T.T.T.T.T.T.T.T.T.T.T.T.T.T.T.T.T.T.T.T.T.T.T.S.i.L = # Z S.T.T.S.X.O     ",
"R.R.R.  O   = C 2 & | k y Z -.k.B.B.T.T.T.T.T.T.T.T.T.T.T.T.T.T.T.T.T.T.T.T.T.T.T.T.T.T.T.T.T.T.T.T.T.T.n.B o 5 s.T.T.L.[ O     ",
"R.R.R.    o   g d O S f.f.T.T.T.T.T.T.T.T.T.T.T.T.T.T.T.T.T.T.T.T.T.T.T.T.T.T.T.T.T.T.T.T.T.T.T.T.T.T.T.k.` # * 6.S.S.T.^ o     ",
"R.R.R.R.      & l # 4 t.M.T.T.T.T.T.T.S.T.T.T.T.T.T.T.T.T.T.T.T.T.T.T.T.T.T.T.T.T.T.T.T.T.T.T.T.L.T.w.G g , & 5 0.T.T.T.C o     ",
"R.R.R.R.    o   d 6 # c k.S.T.T.T.T.T.T.T.T.T.T.T.T.T.T.T.T.T.T.T.T.T.T.T.T.T.T.T.T.T.T.T.T.T.T.s.L 6 & o O 0 _ S.S.T.T.v #     ",
"R.R.R.R.R.      = x O # E A.T.T.T.T.T.T.T.L.T.T.T.T.T.T.T.T.T.T.T.T.T.T.T.T.T.T.T.T.T.T.T.T.T.x.v O = = l W 9.B.T.T.T.B.h O     ",
"R.R.R.R.R.    o o k c O i n.T.T.T.T.T.T.T.T.T.T.T.T.T.T.T.T.T.T.T.T.T.T.T.T.T.T.T.T.T.T.T.T.S.B O & c $.c.L.T.T.T.T.T.l.6 o     ",
"R.R.R.R.R.R.    O O Y l V S.T.T.T.T.T.T.T.T.T.T.T.T.T.T.T.T.T.T.T.T.T.T.T.T.T.T.T.T.T.S.T.T.[ =   n m.S.S.T.T.T.T.T.T.3.O       ",
"R.R.R.R.R.R.  O O o j x.S.K.T.T.T.T.T.T.T.T.T.T.T.T.T.T.T.T.T.S.L.T.T.T.T.T.T.T.T.T.T.T.T.d.0 O d d.T.T.T.T.T.T.T.T.T.L O     R.",
"R.R.R.R.R.R.R.#     & O.H.T.S.T.T.T.T.T.T.T.L.T.T.T.T.T.T.T.T.T.T.T.L.T.S.T.T.T.T.T.T.T.S.G & , -.B.T.T.T.S.T.T.T.T.Z.j o     R.",
"R.R.R.R.R.R.R.    O o j d.B.T.T.T.T.T.T.T.T.T.T.T.T.T.B.T.T.e.~ s.S.T.T.L.T.T.T.T.T.T.T.s.w # B S.T.T.S.T.T.L.T.T.T.s.1 o     R.",
"R.R.R.R.R.R.R.R.    O   c x.K.T.T.T.T.T.T.T.T.T.B.d.e.6.w.k.c O u A >.s.B.L.T.T.T.L.T.T.S $ 2 w.T.T.T.K.T.T.T.S.T.T.` O       R.",
"R.R.R.R.R.R.R.R.R.    O & E S.H.T.T.T.T.T.T.M.s.>.O.O.O.O.O.N & O O & i b W 3.x.S.S.h.R : O Z B.T.T.K.T.H.T.T.T.L.T.z   o     R.",
"R.R.R.R.R.R.R.R.R.        = [ T.K.S.B.Z.n.d.-.#.X.X.X.O.X.X.O.S f , , & O O = j C m i $ $ u e.A.S.T.K.T.T.T.S.L.S.g.2 O     R.R.",
"R.R.R.R.R.R.R.R.R.R.    o O 6 | -.%.>.>.%.O.O.O.O.O.O.O.O.O.O.O.| ! J n d 1 O   & O O O j 4.T.T.T.T.S.T.T.T.T.L.T./ O       R.R.",
"R.R.R.R.R.R.R.R.R.R.R.    o   0 _ o.O.X.X.O.O.O.O.O.O.O.O.O.O.O.o.$.f.S.n.6.E d 6 w c ^ k.S.S.T.T.T.T.L.L.T.T.T.k.d O     R.R.R.",
"R.R.R.R.R.R.R.R.R.R.R.R.    O   6 G  .| O.O.O.O.O.O.O.O.O.O.O.O. .3.T.T.T.T.T.S.n.n.S.L.T.T.T.T.T.T.T.T.T.T.S.S.S O o o   R.R.R.",
"R.R.R.R.R.R.R.R.R.R.R.R.R.      O = x ~ O.O.O.O.O.O.O.O.O.O.O.O.%.n.S.T.S.L.T.K.T.T.T.T.T.L.T.T.H.T.T.T.T.T.T.^ = o o   R.R.R.R.",
"R.R.R.R.R.R.R.R.R.R.R.R.R.R.      O O 2 N ..o.O.O.@.O.O.O.O. .$.k.S.T.T.T.T.T.S.T.L.T.L.T.T.L.T.T.T.T.T.T.S.' 2 o     R.R.R.R.R.",
"R.R.R.R.R.R.R.R.R.R.R.R.R.R.R.      o O o u L | O.O.O.o.O.o.o.t.S.T.T.T.T.T.T.T.L.T.L.T.T.L.T.T.T.T.T.T.T.O.2 #       R.R.R.R.R.",
"R.R.R.R.R.R.R.R.R.R.R.R.R.R.R.R.      O o O & d n Y / X.O.@.e.S.T.T.T.T.S.T.T.S.T.L.T.L.T.T.T.T.T.T.T.S.9.5         R.R.R.R.R.R.",
"R.R.R.R.R.R.R.R.R.R.R.R.R.R.R.R.R.R.o     o     O O = i n  .k.T.S.T.T.T.T.T.T.T.T.L.T.T.T.L.L.T.S.S.d.E 5   o     R.R.R.R.R.R.R.",
"R.R.R.R.R.R.R.R.R.R.R.R.R.R.R.R.R.R.R.R.O O         O   O , u c Y o.6.s.n.B.L.T.K.T.T.T.T.S.9.( J j ,     o     R.R.R.R.R.R.R.R.",
"R.R.R.R.R.R.R.R.R.R.R.R.R.R.R.R.R.R.R.R.R.              O O   O   & # = 9 g x V Y S C C B j = O   O   O o     R.R.R.R.R.R.R.R.R.",
"R.R.R.R.R.R.R.R.R.R.R.R.R.R.R.R.R.R.R.R.R.R.R.R.                  O O   O O     O   O         O O   O       R.R.R.R.R.R.R.R.R.R.",
"R.R.R.R.R.R.R.R.R.R.R.R.R.R.R.R.R.R.R.R.R.R.R.R.R.R.R.R.                  O       O       O O           R.R.R.R.R.R.R.R.R.R.R.R."
};
