/* XPM */
static char *frame_53_delay_0_05s1763316733[] = {
/* columns rows colors chars-per-pixel */
"64 64 191 2 ",
"   c black",
".  c #010101",
"X  c #020202",
"o  c gray1",
"O  c #040404",
"+  c gray2",
"@  c #040406",
"#  c #060606",
"$  c #070707",
"%  c gray3",
"&  c #090909",
"*  c gray4",
"=  c #0B0B0B",
"-  c #0C0C0C",
";  c gray5",
":  c #0E0E0E",
">  c gray6",
",  c #101010",
"<  c #111111",
"1  c gray7",
"2  c #131313",
"3  c #151515",
"4  c #161616",
"5  c gray9",
"6  c #181818",
"7  c #191919",
"8  c gray10",
"9  c gray11",
"0  c #1D1D1D",
"q  c #1E1E1E",
"w  c gray12",
"e  c #202020",
"r  c #222222",
"t  c #232323",
"y  c gray14",
"u  c gray15",
"i  c #282828",
"p  c #2A2A2A",
"a  c #2C2C2C",
"s  c #2D2D2D",
"d  c #2F2F2F",
"f  c gray19",
"g  c #313131",
"h  c #323232",
"j  c #323136",
"k  c gray22",
"l  c #3A3A3A",
"z  c #3D3C41",
"x  c gray28",
"c  c #494949",
"v  c #4A494E",
"b  c #4F4F50",
"n  c gray33",
"m  c #54535B",
"M  c gray35",
"N  c #5C5C5E",
"B  c #5E5D64",
"V  c #606060",
"C  c #626166",
"Z  c gray40",
"A  c #68676B",
"S  c gray42",
"D  c gray43",
"F  c #707072",
"G  c gray45",
"H  c #747378",
"J  c #787779",
"K  c gray48",
"L  c #7B7B7B",
"P  c #7A7A7C",
"I  c #7B7B7D",
"U  c #7C7C7C",
"Y  c gray49",
"T  c #7D7C7F",
"R  c #7E7E7E",
"E  c gray50",
"W  c #7E7D80",
"Q  c #808083",
"!  c #838384",
"~  c gray53",
"^  c #848388",
"/  c #888888",
"(  c #898989",
")  c #8B8B8B",
"_  c gray55",
"`  c #8E8E8E",
"'  c #8C8B90",
"]  c gray57",
"[  c #939393",
"{  c #959595",
"}  c #929198",
"|  c #979699",
" . c #9A9A9A",
".. c #9A999E",
"X. c gray61",
"o. c #9D9CA1",
"O. c #A1A0A3",
"+. c #A2A2A2",
"@. c #A4A4A6",
"#. c #A7A6A7",
"$. c #A7A7AA",
"%. c #AAAAAA",
"&. c #ADADB0",
"*. c #B0AFB3",
"=. c #B1B0B7",
"-. c #B4B4B4",
";. c #B5B4B8",
":. c #B8B7BA",
">. c gray73",
",. c #BBBBBD",
"<. c #BAB9BF",
"1. c #BCBCBC",
"2. c gray75",
"3. c #BDBCC0",
"4. c #C0BFC2",
"5. c #C1C1C3",
"6. c #C3C3C3",
"7. c #C3C2C5",
"8. c #C5C5C6",
"9. c #C6C6C6",
"0. c #C4C3C9",
"q. c #C8C7CA",
"w. c #CACACA",
"e. c #CAC9CC",
"r. c #CCCBCE",
"t. c #CDCDCE",
"y. c gray81",
"u. c #CFCFD2",
"i. c #D1D0D1",
"p. c #D1D0D3",
"a. c LightGray",
"s. c #D3D3D5",
"d. c gray83",
"f. c #D6D5D7",
"g. c #D8D8D8",
"h. c #DADADB",
"j. c #DCDBDC",
"k. c #DDDDDD",
"l. c #DFDFDF",
"z. c #DEDEE0",
"x. c #E1E0E1",
"c. c #E1E1E1",
"v. c #E1E1E3",
"b. c #E2E2E2",
"n. c #E3E3E5",
"m. c #E4E4E6",
"M. c #E6E5E6",
"N. c #E7E7E7",
"B. c #E6E5E9",
"V. c gray91",
"C. c #EAEAEA",
"Z. c #EAE9EC",
"A. c #EBEAEF",
"S. c #ECEBEE",
"D. c #EDECED",
"F. c gray93",
"G. c #EEEEEE",
"H. c #F0EFF2",
"J. c #F1F1F3",
"K. c gray95",
"L. c #F3F3F3",
"P. c #F2F1F5",
"I. c #F3F3F4",
"U. c #F4F3F6",
"Y. c #F4F4F4",
"T. c gray96",
"R. c #F5F4F7",
"E. c #F6F6F6",
"W. c #F7F6F7",
"Q. c gray97",
"!. c #F6F5F8",
"~. c #F7F6F9",
"^. c #F6F5FB",
"/. c #F8F7FA",
"(. c #F8F8F8",
"). c #F9F9F9",
"_. c #FAF9FA",
"`. c gray98",
"'. c #FBFAFB",
"]. c #FBFBFB",
"[. c #F9F8FC",
"{. c #FAFAFE",
"}. c #FCFBFC",
"|. c #FCFBFF",
" X c gray99",
".X c #FDFCFD",
"XX c #FDFDFD",
"oX c #FEFDFF",
"OX c #FEFEFE",
"+X c white",
"@X c None",
/* pixels */
"@X@X@X@X@X@X@X@X@X@X@X@X@X@X@X@X@X@X@X                                        @X@X@X@X@X@X@X@X@X@X@X@X@X@X@X@X@X@X@X@X@X@X@X@X@X",
"@X@X@X@X@X@X@X@X@X@X@X@X@X@X@X@X                                                      @X@X@X@X@X@X@X@X@X@X@X@X@X@X@X@X@X@X@X@X@X",
"@X@X@X@X@X@X@X@X@X@X@X@X@X                      O O O O   O   O O o                       @X@X@X@X@X@X@X@X@X@X@X@X@X@X@X@X@X@X@X",
"@X@X@X@X@X@X@X@X@X@X@X                          % 7 y f x c c f 5 = O $                     @X@X@X@X@X@X@X@X@X@X@X@X@X@X@X@X@X@X",
"@X@X@X@X@X@X@X@X@X          O     % % f b b M D h.L.T.T.'.T.].T.H.v.i.&.^ D n i % O     O         @X@X@X@X@X@X@X@X@X@X@X@X@X@X@X",
"@X@X@X@X@X@X@X@X      %     O i z M G R K P ( g./. X X X'. X X X X'.{. X X XP.L.i.J e O O         @X@X@X@X@X@X@X@X@X@X@X@X@X@X@X",
"@X@X@X@X@X@X@X          % f V K K P K R ! R ;.M.L.L.H.P.T.T.Q.'.'.'.'.'.'.'.'.'.T.'.M._ e O         @X@X@X@X@X@X@X@X@X@X@X@X@X@X",
"@X@X@X@X@X          O y V J P R P R K A n k w q q 7 f n V V V C Z Z Z F K K F D D J R ( ` s O           @X@X@X@X@X@X@X@X@X@X@X@X",
"@X@X@X@X    o   O O z G K ! G n k 6 > % o o $ o   O   O O O O O O O   O O   $ % O O O O % $ O             @X@X@X@X@X@X@X@X@X@X@X",
"@X@X@X    O     : n U R S z , O $ o       o 3 8 z n k q 3 3 3 7 5 5 , % % % : , = % $ $ O O         O     @X@X@X@X@X@X@X@X@X@X@X",
"@X@X@X        i Z U K c 3 % O $ = 8 j z n Z G P ! n.G.M.M.M.V.V.M.v.k.d.d.d.k.v.h.h.9.2.] Z z y : O O O O   @X@X@X@X@X@X@X@X@X@X",
"@X@X    O   k K R J z % o O i n Z J J J W R U W K { z.'. X X X X X X X X X X X X XT.M.>.o.#.%.>.-.R y O       @X@X@X@X@X@X@X@X@X",
"@X      O i G U R b $ o e M D R ^ W J G C B V V N Z K 2.(. X X X X X X X X X X(.i.[ c y 6 = q y b  .%.3       @X@X@X@X@X@X@X@X@X",
"        7 G G R R z O q D W P U G D C V M n z z k z M A X.G. X X X X X X X XP. .c 3 % O     O O   : z x % O     @X@X@X@X@X@X@X@X",
"    O o C R R R R G n G P W W H Z M z w : O O O O   : s n Q G. X X X X X XL.K e % O O q z M v i : % O f k O       @X@X@X@X@X@X@X",
"    O e K K U R R R ! J P U H S m 9 - O $ O % < , :     % k ` Q. X X X X X$.i O % y ] k.V.'.L.j.+.s O O f s O       @X@X@X@X@X@X",
"      c K K R R R R W W J W C v 3 % % j P >.w.k.l.>.C 2 O % k i. X X X XV.M >   n g.'. X X X X X'.d.c O o k %       @X@X@X@X@X@X",
"O O % S R K K R R R R W W J B 4 O , } v. X'.T.'.'.'.T.;.a O - !  X X X Xw.g $ 6 z. X X X X X X X X'.h.e   j y O   O   @X@X@X@X@X",
"O   3 K K R R R U R E W W Z z O , &.^.}. X X(.k.3.i.L.L.e.7 O k H. X X Xw.y O k T. X X XG.| z l Q T.1.%   k b O O     O @X@X@X@X",
"% o q W R R R K R R E W W Z z O 3 5. X}. X X .t : q  .{.'.k O y 9. X X Xt.w O 6 2.'. X X;.% % % q q.k O 4 b Z n o       @X@X@X@X",
"    q R R R K R W R R R P B m 6 O m  X}.}.A.5 O     v '.i.e O i 5. X X Xv.9 o o y w.'.'.2.O O $ j Z % : z N Z <.f O     @X@X@X@X",
"    e K R R R W R R U R H B m k - : =.{.}.A.5       G %.y % $ 9 t. X X X XV   o O f &.'.L.( M K J =   y V C B 3.$.$ o     @X@X@X",
"  O e R R R R R W W W W H b < i 9 O y &.P.}.&.v f k b < o O = k n. X X X(.7.3     O 3 Z 9.V.v.^ q O 7 n m V M <.A.y O     @X@X@X",
"O   e K R R R R U R W U P z $ ; z 2 % 2 Z ( ! H j 3 O O O o O A (. X X X^.(.M O O   O % e s s $ O , n x 3 j N 0. XD O       @X@X",
"  O y K R R R R R R W W P N 6 o p x = $ $ $ $ = O @ 2 $ O , e `  X X X X X X7.3 % O $ @ o $ O o 5 v B < $ 9 B j.'.;.O O     @X@X",
"O   , R R R R R W W W W P Z z o o z b i 3 2 2 4 y k i $ O e a >. X X X X X X^.M i % $ o s p p k n N j o = f Z H.{.T.y O     @X@X",
"    : D K L K R R U W W U M n 9 $ , z m N m b N m z : o 7 j b g. X X X X X X X9.j i O O t b N C N z > @ q b ^ }. X XA   O O   @X",
"O O O Z K L L L R R W W W F l v 2 @ % q n m M b i = o 4 z t ! T. X X X X X X X'.C z e O $ > i s a = O : x n j.{. X X7.= O     @X",
"  O   V P L L L U W P W W W Z k x 4 % $ : q q = @ o w c j C &. X X X X X X X X Xk.c n 7 O @ $ $ O % $ z v *.[.[.}.}.G.7   O   @X",
"  O   n L L L L P W W W W W J N j v f $ % O @ $ $ y v k n R V. X X X X X X X X X^.u.v v k 4 $ $ , e c b $./.[.[.}.}./.c O O O @X",
"  O   k L L L L W P W W W W P P A k c b f q e p b B j A H -. X X X X X X X X X X X Xx.i.u.%._ _ o.3.i.i.}.}.}.{.}.}. XK   O     ",
"  O O e L L L L W W W W W W P P J F b V Z Z C S P G A J X.G. X X X X X X X X X X X X X}.}.{.[.[.}. X}.}.}. X}.}.}.{. X&.O O     ",
"  O   % S E K K P P W W R H k M W W W W P K J J K P Q ^ B. X X X X X X X X X X X X X X X X X X X X X X X X X X X X X Xv.2   O   ",
"      % b P K K P P W P U x o y W U W W W P W W K P ! e. X X X X X X X X X X X X X X X X X X X X X X X X X X X X X X X{.k O O   ",
"        e L K K P P W W H 3 O z P W W W W P Q K P _ t.^. X X X X X X X}. X X X X X}. X X X X X X X}.T. X X X X X X X X Xn O     ",
"@X      O N K K W U W W z O < G W W U W W W K Q #.j. X X X X X X X{.U.H.M.h.k.k.x.B.H.^. X X X X XP.X.v. X X X X X X X XG O     ",
"@XO     o t U K J P W J 3 $ x W P W P P J Q { x./.}. X}.G.z.;.^ Z N b z i i y i i k x n Z ` t.H.{. X-./ n.}. X X X X X X{       ",
"@X@X    O O V P P P J b $ 7 | J P P P W W o.m.[.j.9.O.W b i % $ @ @ o O O $ $ O O O $ $ o $ 6 c  .e.t.^ ] H. X X X X X X;.O     ",
"@X@XO     o a J P P J s O b 4.P W ] u.e.e.u.| n f O $ O   $ O : 4 t y f z n M M v j i y w - % $ % < y i V 3. X}. X X X X;.O     ",
"@X@X@X  o   = N W W P 2 % ..4.U W p.p._ x w $ @ O O $ , e x ^ :.e.s.j.M.P./.[.{./.G.n.x.r.$.M w : O O $ > S P.}. X X X X#.O O   ",
"@X@X@X      O y W W F $ % e.3.J J S q $ O $ O q k G $.7.h.T. X X X X X X X X X X X X X X X X{.j.*.] n % O < @.}. X X X X..      ",
"@X@X@X@X  O   O C W Z O 9 h.-.c 3 $ O : y x ] e.T. X X X X X X X X X X X X X X X X X X X X X}. X XU.H.o.4 $ q g. X X X XK O   O ",
"@X@X@X@X        i U C O w H.*.$   , j [ g. X}.[. X XP.A.P.A.A.V.n.G./. X X X X X X X X X X X{.}. X/. X/.' % $ Q  X X X XM O     ",
"@X@X@X@X@X    O @ C C O , g.u.e q { B. X}./.B.h.t.,.o.^ ( ^ ! ! ! ( | n. X X X X X X X X X Xk.O.Q K ! U n O   K  X X X Xl O O   ",
"@X@X@X@X@X  O   $ 9 F ; O ( H.U P g.}.x.;.#._ W P P P P P J P W P P R $. X X X X X X X X XG.k : O O $ $ $ % q u. X X XA.e       ",
"@X@X@X@X@X@X    O O b z O p j.3.P _ u.^ W W J U W P P U P J P W W K R =. X X X X X X X X^.{ % O , , < : - i &.{. X X}.7.  O     ",
"@X@X@X@X@X@X    o o 9 A 2 $ n r./ ^ W Q W P P W P W P P P W P P P W ^ n. X X X X X X X Xq.7 O i -.7.<.%.H g. X X X X'.' O O     ",
"@X@X@X@X@X@X@X  o o O M x $ - s Z P W W P P P W P W W W W P W W W W W 3. X X X X X X XB.k % : #. X'.L.u.g.}. X X X XT.z O   O @X",
"@X@X@X@X@X@X@XO     O y D k %   % z W P W P P W P P P W W W W P W U W ! q.{. X X X XT.n $ $ A '. X X X X X X X X X XM., o     @X",
"@X@X@X@X@X@X@X@X    O O s P n 6 % 4 W W W W P W W W W W W P W W W W U W U O.r.A.L.h.H : o q h. X X X X X X X X X X X$.O o     @X",
"@X@X@X@X@X@X@X@X@X  O   O c J S c Z P P J P P K P P U W W U P C s f k x S H P P U V 2   3 ! }. X X X X X X X X X X Xn $ O   @X@X",
"@X@X@X@X@X@X@X@X@X      O : b W W P P J P P P P P P W W W W P l $ O O O : q p f s < O   x t. X{. X X X X X X X X XV., O     @X@X",
"@X@X@X@X@X@X@X@X@X@X      O , J P J J K J P P P U W W W W P J M 2 > - O O   $   @   $ x { R. X X X X X X X X X X X{ % o   o @X@X",
"@X@X@X@X@X@X@X@X@X@X@X  O O O i H J P K J P P P P W P P P W W P H H F b s 2 : % - t b W d.}.}. X X X X X X X X XP.f O     @X@X@X",
"@X@X@X@X@X@X@X@X@X@X@X@X      o 4 M W ! P K R P W P W P P W W W W W P W J J S S H J G ` {. X X X X X X X X X X}.K % O     @X@X@X",
"@X@X@X@X@X@X@X@X@X@X@X@X@X    o $ $ k A P P P P P P W W W W W W W W W U P P K J P J G 3. X X X X X X X X X X}.X.: o     @X@X@X@X",
"@X@X@X@X@X@X@X@X@X@X@X@X@X@X      o o , n H J P W P W P P W W W W W W W W P J P K P Q m.}. X X X X X X X X}.$.2         @X@X@X@X",
"@X@X@X@X@X@X@X@X@X@X@X@X@X@X@X        O   7 M P P P U W W W W W W W W W W P P J P K ,.}. X X X X X X X X X-., O       @X@X@X@X@X",
"@X@X@X@X@X@X@X@X@X@X@X@X@X@X@X@X      o o o $ t x B S P W P U W W W W U W W W P U @. X X X X X X X X X'.e.7 $ O     @X@X@X@X@X@X",
"@X@X@X@X@X@X@X@X@X@X@X@X@X@X@X@X@X@X  O o   O O o o > 7 z S P W W W W W U W W P _ G. X'. X X X X X}.v.` e O       @X@X@X@X@X@X@X",
"@X@X@X@X@X@X@X@X@X@X@X@X@X@X@X@X@X@X@X      o     o   o o O 4 p x M C D J W W _ z. X}.}.{.[.k.$.! x 2   O   o   @X@X@X@X@X@X@X@X",
"@X@X@X@X@X@X@X@X@X@X@X@X@X@X@X@X@X@X@X@X@X              o o o   O O O = 2 8 i C / R H G D z : o O O o o       @X@X@X@X@X@X@X@X@X",
"@X@X@X@X@X@X@X@X@X@X@X@X@X@X@X@X@X@X@X@X@X@X@Xo               o O o o o   o o     O   O   O   o   o o       @X@X@X@X@X@X@X@X@X@X",
"@X@X@X@X@X@X@X@X@X@X@X@X@X@X@X@X@X@X@X@X@X@X@X@X@X@X@X                o       o O O         o o           @X@X@X@X@X@X@X@X@X@X@X"
};
