/* XPM */
static char *frame_37_delay_0_05s1763316732[] = {
/* columns rows colors chars-per-pixel */
"64 64 162 2 ",
"   c black",
".  c #010101",
"X  c #020202",
"o  c gray1",
"O  c #040404",
"+  c gray2",
"@  c #040406",
"#  c #060606",
"$  c #070707",
"%  c gray3",
"&  c #090909",
"*  c gray4",
"=  c #0B0B0B",
"-  c #0C0C0C",
";  c gray5",
":  c #0E0E0E",
">  c gray6",
",  c #111111",
"<  c gray7",
"1  c #131313",
"2  c #151515",
"3  c #161616",
"4  c #191919",
"5  c gray10",
"6  c gray11",
"7  c #1D1D1D",
"8  c gray12",
"9  c #202020",
"0  c #222222",
"q  c #232323",
"w  c gray14",
"e  c gray15",
"r  c #282828",
"t  c #2A2A2A",
"y  c #2C2C2C",
"u  c #2D2D2D",
"i  c #2F2F2F",
"p  c #313131",
"a  c #323136",
"s  c gray22",
"d  c #3A3A3A",
"f  c #3D3C41",
"g  c gray28",
"h  c #494949",
"j  c #4A494E",
"k  c #4F4F50",
"l  c gray33",
"z  c #54535B",
"x  c gray35",
"c  c #5C5C5E",
"v  c #5E5D64",
"b  c #606060",
"n  c #626166",
"m  c gray40",
"M  c #68676B",
"N  c gray42",
"B  c gray43",
"V  c #707072",
"C  c gray45",
"Z  c #747378",
"A  c #787779",
"S  c gray48",
"D  c #7B7B7B",
"F  c #7A7A7C",
"G  c #7B7B7D",
"H  c #7C7C7C",
"J  c gray49",
"K  c #7D7C7F",
"L  c #7E7E7E",
"P  c gray50",
"I  c #7E7D80",
"U  c #808083",
"Y  c #838384",
"T  c gray53",
"R  c #848388",
"E  c #898989",
"W  c #8B8B8B",
"Q  c gray55",
"!  c #8E8E8E",
"~  c gray57",
"^  c #939393",
"/  c #959595",
"(  c #979699",
")  c #98989B",
"_  c #9A9A9A",
"`  c gray61",
"'  c #A0A0A0",
"]  c #A2A2A2",
"[  c #A4A4A6",
"{  c #A7A6A7",
"}  c #A7A7AA",
"|  c #AAAAAA",
" . c #ADADB0",
".. c #B0AFB3",
"X. c #B1B0B7",
"o. c #B4B4B4",
"O. c #B5B4B8",
"+. c #B8B7BA",
"@. c gray73",
"#. c #BBBBBD",
"$. c #BAB9BF",
"%. c #BCBCBC",
"&. c gray75",
"*. c #BDBCC0",
"=. c #C1C1C3",
"-. c #C3C3C3",
";. c #C5C5C6",
":. c #C8C7CA",
">. c #CAC9CC",
",. c #CCCBCE",
"<. c gray81",
"1. c #CFCFD2",
"2. c #D1D0D1",
"3. c gray83",
"4. c #D6D5D7",
"5. c #D8D8D8",
"6. c #D9D8DB",
"7. c #DADADB",
"8. c #DCDBDC",
"9. c #DCDBDE",
"0. c #DFDFDF",
"q. c #DEDEE0",
"w. c #E1E0E1",
"e. c #E1E1E1",
"r. c #E1E1E3",
"t. c #E2E2E2",
"y. c #E3E3E5",
"u. c #E6E5E6",
"i. c gray91",
"p. c #EBEAEB",
"a. c #EAE9EC",
"s. c #ECEBEE",
"d. c gray93",
"f. c #EFEEEF",
"g. c #F0EFF2",
"h. c gray95",
"j. c #F2F1F5",
"k. c #F3F3F4",
"l. c #F4F4F4",
"z. c gray96",
"x. c #F6F6F6",
"c. c #F7F6F7",
"v. c gray97",
"b. c #F6F5F8",
"n. c #F6F5FB",
"m. c #F8F7FA",
"M. c #F8F8F8",
"N. c #F9F9F9",
"B. c #FAF9FA",
"V. c #FBFAFB",
"C. c #FBFBFB",
"Z. c #F9F8FC",
"A. c #FAFAFE",
"S. c #FCFBFC",
"D. c #FCFBFF",
"F. c gray99",
"G. c #FDFCFD",
"H. c #FDFDFD",
"J. c #FEFDFF",
"K. c #FEFEFE",
"L. c white",
"P. c None",
/* pixels */
"P.P.P.P.P.P.P.P.P.P.P.P.P.P.P.P.P.P.P.P.                                      P.P.P.P.P.P.P.P.P.P.P.P.P.P.P.P.P.P.P.P.P.P.P.P.P.",
"P.P.P.P.P.P.P.P.P.P.P.P.P.P.P.P.                                                      P.P.P.P.P.P.P.P.P.P.P.P.P.P.P.P.P.P.P.P.P.",
"P.P.P.P.P.P.P.P.P.P.P.P.P.                      o O O O O O   O   O                       P.P.P.P.P.P.P.P.P.P.P.P.P.P.P.P.P.P.P.",
"P.P.P.P.P.P.P.P.P.P.P.                          % 4 q p f f g p 4 % O %                     P.P.P.P.P.P.P.P.P.P.P.P.P.P.P.P.P.P.",
"P.P.P.P.P.P.P.P.P.P.        O     % % p k k x B 7.h.v.v.v.v.F.l.h.r.2. .R B l r % O     O         P.P.P.P.P.P.P.P.P.P.P.P.P.P.P.",
"P.P.P.P.P.P.P.P.      %     O r f l V L S F E 5.m.H.H.H.B.V.F.H.H.V.V.H.H.H.h.g.2.S 9 O O         P.P.P.P.P.P.P.P.P.P.P.P.P.P.P.",
"P.P.P.P.P.P.P.          % i b S S F S L Y L O.u.h.h.g.M.v.v.v.B.B.V.n.B.B.B.B.B.l.B.u.! 9 O o       P.P.P.P.P.P.P.P.P.P.P.P.P.P.",
"P.P.P.P.P.P.        O w b A F L H L S M l s 9 6 7 7 p j b b c n m m M C S S C B B A L T ! y             P.P.P.P.P.P.P.P.P.P.P.P.",
"P.P.P.P.        O O f C S Y C l s 4 , % o   $     O   O O O O O O O   O o   O & O O O $ % &               P.P.P.P.P.P.P.P.P.P.P.",
"P.P.P.P.    O o : l H L N f , O O o       O 1 6 f l s 9 2 2 2 2 4 2 , % & & : , % % & O O O O       o     P.P.P.P.P.P.P.P.P.P.P.",
"P.P.P.    O   w m H S h 2 % O O % 6 a f l N V S T r.d.u.u.u.i.i.u.r.q.4.4.4.8.r.7.7.;.%.~ m f w : O % O   o P.P.P.P.P.P.P.P.P.P.",
"P.P.        a S L C f % o O r l M A A A I L L L S ( q.B.H.H.H.H.H.H.B.F.H.H.H.H.B.v.u.@.] [ | +.o.L w O       P.P.P.P.P.P.P.P.P.",
"P.      O r C H L k $ o 9 x B L T H Z C n c b b c m A &.M.H.H.H.H.H.H.H.H.H.F.M.2.^ h w 4 = 7 w l _ | , o   O P.P.P.P.P.P.P.P.P.",
"P.      4 C C H L f O 7 B I F H Z B n c l l f f s f x M ` g.H.H.H.H.H.H.H.H.j._ g 2 % O     O O   : f g % O     P.P.P.P.P.P.P.P.",
"    O O n L L L L C l C F I I Z m c f 9 : O   O O O : y l Y d.H.H.H.H.H.H.h.F 9 % o O 7 f x j r : % O p s O       P.P.P.P.P.P.P.",
"    O 9 S S H L L L Y A F H Z N z 7 % % O O : : , % O   % s Q M.H.H.H.H.H.[ r O = 9 ~ 8.i.B.v.7.] y O O p r O     P.P.P.P.P.P.P.",
"      h H D L L L L I I A I n j 2 % % a F @.>.8.r.@.n 1 O % d 2.H.H.H.H.d.x :   j 4.m.H.H.H.H.H.B.4.h O $ f %       P.P.P.P.P.P.",
"O O % N H F S L L L L I I A v 3 O , ^ r.H.B.v.B.B.B.v.O.r O % T H.H.H.H.>.p O 4 r.H.H.H.H.H.H.H.H.B.7.7 o y w o o o o P.P.P.P.P.",
"O   2 A S L L L H L P I H m f @ ,  .n.S.H.H.M.8.&.2.h.j.>.4 O a d.H.H.H.>.w O s v.H.H.H.d.( f d P v.%.> o s k % o     P.P.P.P.P.",
"O O 7 P L L L D L L P I I m f O 1 =.S.H.H.H._ w : 7 _ H.F.s O 9 ;.H.H.H.<.7 O 4 &.M.H.H.O.% % % 4 :.s & 1 k m k O       P.P.P.P.",
"    9 H L L L L I L L L A v z 4 O z F.H.A.a.4 O     j B.2.9 O r =.H.H.H.r.7   o w :.V.V.&.& O O i N % : f x c $.p O o   P.P.P.P.",
"    9 H L D L L L L H L A v z s = : X.A.A.a.3       C | w % % 4 <.H.H.H.F.b   O O p | V.h.E x A C ,   w v c z *.} %       P.P.P.",
"  O 9 H L L H L I I L I A k , r 7 O w  .j.A. .j p s k ,   O : s r.H.H.H.B.=.2     O 4 m ;.p.r.T 2 O 7 z l c z *.a.w o     P.P.P.",
"O   9 F H L L L H L I L F f $ : f 1 % 1 m E U Z a 2 O O O O O M v.H.H.H.v.B.x O O   O % 9 y r & @ , z g , a c *.S.V O       P.P.",
"o   w H L L L L L L I I A v 4 @ r g = % % % O = @ @ , % O , 9 ! H.H.H.H.H.H.=.2 % O $ $ o $ O @ 2 j v 3 $ 6 v 9.m.+.O O     P.P.",
"  O 1 H L L H L I I I I F m d o o f l w 2 2 2 2 w s r % O 9 y +.H.H.H.H.H.H.v.x r % o O u r r s l c a O % i N g.H.f.q O     P.P.",
"    - B S D S L L H I I I x z 6 $ : f z c l k c z f = @ 4 p k 4.H.H.H.H.H.H.H.-.a r O O q k z n c f : O 7 l E S.H.H.N     o   P.",
"O O O m S D D D L L I I P C s k 1 $ % 7 l z z k r :   2 f w U v.H.H.H.H.H.H.H.V.n f 9 o $ 1 r p r - O : g l 9.A.H.H.-.- O o   P.",
"  O   b H D D D H L I I I I m s g 3 % O : 8 7 = O   7 g a n  .H.H.H.H.H.H.H.H.H.8.g l 4 $ O $ $ O O O f j ..Z.Z.A.S.d.7 o $   P.",
"O O O k D D D D I I I I I F A c a g p % % O $ O $ r k s l I i.H.H.H.H.H.H.H.H.H.v.1.j j s 2 % $ , 4 g l { n.Z.Z.A.H.m.h O     P.",
"    O s D D D D H I F I I I F F M s g k p 7 9 r j c s N Z O.A.H.H.H.H.H.H.H.H.H.H.H.w.1.1.} Q Q ] O.,.,.S.S.S.A.S.H.H.S O     P.",
"O     9 S D D D I I I I I I H F A C k v m m m N D C N Z ` f.H.H.H.H.H.H.H.H.H.H.H.H.H.S.S.A.Z.A.H.H.H.V.H.H.S.S.S.S.H. .  O     ",
"      $ N P F S F F I I I C s l I I I F F S A S A F U Y i.H.H.H.H.H.H.H.H.H.H.H.H.H.H.H.H.H.H.H.H.H.H.H.H.H.H.H.H.H.H.8.1   o   ",
"      $ k H S D S I H I I h   q F I I I I L I F H F Y >.S.H.H.H.H.H.H.H.H.H.H.H.H.H.H.H.H.H.H.H.H.H.H.H.H.H.H.H.H.H.H.B.s O O   ",
"      o 9 H S D H H I H Z 2 $ f I I I I I I U S A Q ,.n.H.S.H.H.H.H.H.H.H.H.H.H.H.H.H.H.H.H.H.S.H.H.b.H.H.H.H.H.H.H.H.H.l O     ",
"P.      O c S D F I I I f O , V F I I H I I S Y { 9.H.H.H.H.H.S.H.A.j.h.u.7.8.8.w.u.g.m.H.H.H.S.H.j.` r.H.H.H.H.H.H.H.H.C O     ",
"P.      O q L S H F I A 2 % h I F F F F H Y / 8.m.S.H.H.d.q.+.Y N x j f r r w w r s g l m ~ ,.j.A.A.o.R r.H.H.H.H.H.H.H.(       ",
"P.P.      O b S H H F k $ 4 ( A F F F I I ` u.n.9.;.] I k w % $ $ O O O O % $ % O O $ $   O 4 h _ :.2.R ~ h.H.H.H.H.H.H.@.@     ",
"P.P.      o y A H H A i O k *.I H ^ 1.,.>.1.( l i O $ O   $ O - 2 9 w p f l x x j a r w 9 : % $ $ : w w c *.H.H.H.H.H.H.O.O   o ",
"P.P.P.  o   - v H I A 1 $ ) &.H I 1.1.Q g 9 O O O O $ , q g Y O.>.4.8.u.j.m.Z.A.m.d.u.w.1.[ x 9 : O O % > N h.A.H.H.H.H.[ O     ",
"P.P.P.    o   q I I Z $ $ >.*.A A B 9 O O $ O 7 s C ] &.7.v.H.H.H.H.H.H.H.H.H.H.H.H.H.H.H.H.S.8.X.~ l % O , ] S.H.H.H.H.` O     ",
"P.P.P.P.  o o $ n I m O 6 6.o.g 2 $ O : q h ~ >.v.S.H.H.H.H.H.H.H.H.H.H.H.H.H.H.H.H.H.H.H.H.A.H.F.j.g.` 2 % 9 4.H.H.H.H.Z O     ",
"P.P.P.P.        r H n O 9 g...$   , a ~ 4.H.A.Z.H.A.j.d.f.s.a.a.y.s.v.H.H.H.H.H.H.H.H.H.H.H.B.S.H.v.H.m.! $ % U H.H.H.H.x $     ",
"P.P.P.P.P.      O n n @ , 5.,.q 6 ( u.H.S.v.s.6.<.$.` Y E R Y Y U E ( y.H.H.H.H.H.H.H.H.H.H.8.] P S Y F l O   S H.H.A.H.s O   o ",
"P.P.P.P.P.    o $ 6 V - O E g.F F 5.S.r.O.[ Q I F S F F F F F I L F F [ H.H.H.H.H.H.H.H.H.s.s - O O O $ % - 7 1.H.H.H.p.9       ",
"P.P.P.P.P.P.    O O k d O r 9.*.F Q 1.R I I A H I F F F F F F I H F I o.H.H.H.H.H.H.H.H.n./ % O , , : , > w  .B.H.H.H.=.o       ",
"P.P.P.P.P.P.    O O 4 M , O l 1.E R I U I H F F F I I F F F I F I F R u.H.H.H.H.H.H.H.H.>.4 O r o.=.$.| Z 4.H.H.H.H.H.T O O   P.",
"P.P.P.P.P.P.P.    O @ x g $ $ y m F I I F F F H F I I I F I F I I I I *.H.H.H.H.H.H.H.u.s & - [ H.V.l.1.4.A.H.H.H.H.m.f O     P.",
"P.P.P.P.P.P.P.  o o O q N s $   $ s I H I I I F F F I I I I I I I I I Y >.B.H.H.H.H.l.l & $ M m.H.H.H.H.H.H.H.H.H.H.u.,       P.",
"P.P.P.P.P.P.P.P.    o   y H l 4 $ 2 I I F F F I I I I I I I F I I H I I S ] >.s.g.6.C :   7 7.H.H.H.H.H.H.H.H.H.H.H.} O       P.",
"P.P.P.P.P.P.P.P.P.    o O g A N g M L L F H I F F F F I I F F n y i s g N Z L F F c ,   2 T A.S.H.H.H.H.H.H.H.H.H.H.l O O   P.P.",
"P.P.P.P.P.P.P.P.P.      O : k I H F F F F F F F F F I I I I F d $ o o $ - 6 r p y , o   g >.S.A.H.H.H.H.H.H.H.H.H.i., o     P.P.",
"P.P.P.P.P.P.P.P.P.P.      O , A S A S S F S Z F F I F F I I A l 1 : - O O   O   O o O g ( l.S.H.H.H.H.H.H.H.H.H.H./ %       P.P.",
"P.P.P.P.P.P.P.P.P.P.P.  o     r Z Z S S Z F L F F F I I I F I F Z Z V k y 1 : % : 9 k I 4.A.H.H.H.H.H.H.H.H.H.H.g.p O     P.P.P.",
"P.P.P.P.P.P.P.P.P.P.P.P.        3 l I Y L S F S I I F F I I I I I I I F F A N N Z S C ! B.H.H.H.H.H.H.H.H.H.H.A.S & O     P.P.P.",
"P.P.P.P.P.P.P.P.P.P.P.P.P.    O $ $ s M F F L F F F I I I F I I I I H I F H S A F F C #.H.H.H.H.H.H.H.H.H.H.A.` >   O   P.P.P.P.",
"P.P.P.P.P.P.P.P.P.P.P.P.P.P.      o o , k Z A F I F I F F I I I I I I I H F F F S F Y u.S.H.H.H.H.H.H.H.S.A.{ ,         P.P.P.P.",
"P.P.P.P.P.P.P.P.P.P.P.P.P.P.P.        O O 4 x F F F I I I I I I I I I I I F F A F F $.S.H.H.H.H.H.H.H.H.H.o.1 O       P.P.P.P.P.",
"P.P.P.P.P.P.P.P.P.P.P.P.P.P.P.P.      o   O % q g v N F H F H I I I I I H I I F H ] S.H.H.H.H.H.H.H.V.m.;.7 O O     P.P.P.P.P.P.",
"P.P.P.P.P.P.P.P.P.P.P.P.P.P.P.P.P.P.  O O   O O o   - 6 f N F I I I I I I I I F Q s.H.S.H.H.H.H.H.A.r.! 6 O o     P.P.P.P.P.P.P.",
"P.P.P.P.P.P.P.P.P.P.P.P.P.P.P.P.P.P.P.      o       o O O O 4 y g z n B Z P I Q q.H.S.S.H.Z.9.| U f ,   O       P.P.P.P.P.P.P.P.",
"P.P.P.P.P.P.P.P.P.P.P.P.P.P.P.P.P.P.P.P.P.                O     O O O - 1 6 r n E P C C B f : O O O   O o     P.P.P.P.P.P.P.P.P.",
"P.P.P.P.P.P.P.P.P.P.P.P.P.P.P.P.P.P.P.P.P.P.P.P.              o O O   O   o     O   O       O     o O       P.P.P.P.P.P.P.P.P.P.",
"P.P.P.P.P.P.P.P.P.P.P.P.P.P.P.P.P.P.P.P.P.P.P.P.P.P.P.                O   O   O   O       O   o           P.P.P.P.P.P.P.P.P.P.P."
};
