/* XPM */
static char *frame_03_delay_0_05s1763316728[] = {
/* columns rows colors chars-per-pixel */
"64 64 162 2 ",
"   c black",
".  c #010101",
"X  c #020202",
"o  c gray1",
"O  c #040404",
"+  c gray2",
"@  c #060606",
"#  c #070707",
"$  c gray3",
"%  c #090909",
"&  c gray4",
"*  c #0B0B0B",
"=  c #0C0C0C",
"-  c gray5",
";  c #0E0E0E",
":  c gray6",
">  c #111111",
",  c gray7",
"<  c gray8",
"1  c #151515",
"2  c #161616",
"3  c gray9",
"4  c #181818",
"5  c #191919",
"6  c gray10",
"7  c gray11",
"8  c #1D1D1D",
"9  c #1E1E1E",
"0  c gray12",
"q  c #202020",
"w  c #222222",
"e  c #232323",
"r  c gray14",
"t  c gray15",
"y  c #272727",
"u  c #282828",
"i  c #2A2A2A",
"p  c #2C2C2C",
"a  c #2D2D2D",
"s  c #2F2F2F",
"d  c #313131",
"f  c #323232",
"g  c gray22",
"h  c #3A3A3A",
"j  c #3D3C41",
"k  c gray28",
"l  c #494949",
"z  c #4A494E",
"x  c #4F4F50",
"c  c gray33",
"v  c gray35",
"b  c #5C5C5E",
"n  c #606060",
"m  c #626166",
"M  c gray40",
"N  c #68676B",
"B  c gray42",
"V  c gray43",
"C  c #707072",
"Z  c gray45",
"A  c #787779",
"S  c gray48",
"D  c #7C7C7C",
"F  c gray49",
"G  c #7E7E7E",
"H  c #808083",
"J  c #838384",
"K  c #868686",
"L  c gray53",
"P  c #888888",
"I  c #898989",
"U  c gray54",
"Y  c #8B8B8B",
"T  c gray55",
"R  c #8D8D8D",
"E  c #8E8E8E",
"W  c gray57",
"Q  c gray58",
"!  c #959595",
"~  c #979699",
"^  c #9A9A9A",
"/  c gray62",
"(  c #A0A0A0",
")  c gray63",
"_  c #A2A2A2",
"`  c #A4A4A6",
"'  c #A7A6A7",
"]  c #A9A9A9",
"[  c gray67",
"{  c #ACACAC",
"}  c #AEAEAE",
"|  c gray69",
" . c #B2B2B2",
".. c gray70",
"X. c #B4B4B4",
"o. c gray71",
"O. c #B6B6B7",
"+. c #B8B7BA",
"@. c gray73",
"#. c gray74",
"$. c gray75",
"%. c #C0C0C0",
"&. c #C1C1C1",
"*. c #C3C3C3",
"=. c #C5C5C5",
"-. c #C6C6C6",
";. c gray78",
":. c #C8C8C8",
">. c gray79",
",. c #CACACA",
"<. c gray80",
"1. c #CDCDCE",
"2. c gray81",
"3. c #D1D0D1",
"4. c LightGray",
"5. c gray83",
"6. c #D5D5D5",
"7. c #D8D8D8",
"8. c #DADADB",
"9. c #DCDBDC",
"0. c #DDDDDD",
"q. c #DFDFDF",
"w. c #E1E0E1",
"e. c #E1E1E1",
"r. c #E2E2E2",
"t. c gray89",
"y. c #E4E4E4",
"u. c #E6E5E6",
"i. c #E7E7E7",
"p. c gray91",
"a. c #E9E9E9",
"s. c #EAEAEA",
"d. c gray92",
"f. c #ECECEC",
"g. c gray93",
"h. c #EEEEEE",
"j. c #EFEFEF",
"k. c gray94",
"l. c #F1F1F1",
"z. c gray95",
"x. c #F3F3F3",
"c. c #F4F3F4",
"v. c #F4F4F4",
"b. c #F5F4F5",
"n. c gray96",
"m. c #F6F6F6",
"M. c #F7F6F7",
"N. c gray97",
"B. c #F8F8F8",
"V. c #F9F8F9",
"C. c #F9F9F9",
"Z. c #FAF9FA",
"A. c gray98",
"S. c #FBFAFB",
"D. c #FBFBFB",
"F. c #FCFBFC",
"G. c gray99",
"H. c #FDFCFD",
"J. c #FDFDFD",
"K. c #FEFEFE",
"L. c white",
"P. c None",
/* pixels */
"P.P.P.P.P.P.P.P.P.P.P.P.P.P.P.P.P.P.P.P.  P.P.P.P.P.  P.  P.  P.  P.P.P.P.P.P.P.P.P.P.P.P.P.P.P.P.P.P.P.P.P.P.P.P.P.P.P.P.P.P.P.",
"P.P.P.P.P.P.P.P.P.P.P.P.P.P.P.P.P.P.P.P.                                    P.P.P.P.P.P.P.P.P.P.P.P.P.P.P.P.P.P.P.P.P.P.P.P.P.P.",
"P.P.P.P.P.P.P.P.P.P.P.P.P.P.P.P.                              O o o                 P.P.P.P.P.P.P.P.P.P.P.P.P.P.P.P.P.P.P.P.P.P.",
"P.P.P.P.P.P.P.P.P.P.P.P.P.P.                                o 7 7 ; O O                 P.P.P.P.P.P.P.P.P.P.P.P.P.P.P.P.P.P.P.P.",
"P.P.P.P.P.P.P.P.P.P.P.O     O   # o , ;     o   # O # o o O % 3 c ^ @.] Y C v u - o   O     P.P.P.P.P.P.P.P.P.P.P.P.P.P.P.P.P.P.",
"P.P.P.P.P.P.P.P.P.P.  O     & x R _ g O   o 4 v F R E K A l %   O O > q v F ( 4.<.J q O o o     P.P.P.P.P.P.P.P.P.P.P.P.P.P.P.P.",
"P.P.P.P.P.P.P.P.P.  O % & v :.m.i.g O O l / q.B.D.Z.L.L.L.N.;.A d % % + + % > 1 7 j M j   o       P.P.P.P.P.P.P.P.P.P.P.P.P.P.P.",
"P.P.P.P.P.P.P.      O z %.x.Z.y.j % , R j.D.Z.Z.L.Z.L.L.L.Z.m.x.j.&./ V j r ; O % # O *     o       P.P.P.P.P.P.P.P.P.P.P.P.P.P.",
"P.P.P.P.P.P.    # % F l.D.S.f.x # : ! G.N.L.L.L.Z.Z.L.L.L.Z.L.G.L.L.Z.D.v.s.@.Y z -                   P.P.P.P.P.P.P.P.P.P.P.P.P.",
"P.P.P.P.P.O o   1 { Z.v.Z.s.x $ % K x.k.#.H M M J ' t.L.L.L.L.L.D.L.L.L.G.x.o.c , o                 O   P.P.P.P.P.P.P.P.P.P.P.P.",
"P.P.P.P.  o o x 3.S.S.N.l.b % # F 8.F i : + % + # % 0 B i.Z.L.L.L.L.L.x.5.x :     o       o               P.P.P.P.P.P.P.P.P.P.P.",
"P.P.P.    o m d.x.S.m.v.Z - % A ] i o O o   r s , + O # b Z.L.L.L.G.L.;.d   o   o     +     O     o o o     P.P.P.P.P.P.P.P.P.P.",
"P.P.    # b k.D.L.D.j.N : ; g c % O O o o   M y.9.@.M * % @.L.L.L.G.3.r   7 x     o o   o o O l l o #       P.P.P.P.P.P.P.P.P.P.",
"P.P.    d d.D.L.L.t.c O O O , ;   o o o o o c B.Z.N.j.g + M L.L.Z.d.j   7 o. .+ O o o   o     Z j.V %         P.P.P.P.P.P.P.P.P.",
"P.  O % X.N.Z.L.>.j $   O $ O   o   o   # % E N.D.L.x.x O c G.G.L.] % % ..Z.i.g % % O O O O i ,.L.l.B o % O     P.P.P.P.P.P.P.P.",
"P.  O g v.Z.l.! 7   O o   : k $     o o O b x.G.D.L.O.1 % C F.D.L.C + 7 i.G.B.q.J j q q c E t.m.Z.Z.*.% 4 1     P.P.P.P.P.P.P.P.",
"  O O R D.L.J #   r ( 0 O c l.Y d , ; g T s.L.Z.G.' 4 # r 7.L.L.L.| O $ &.Z.D.L.Z.j.q.q.l.D.L.L.L.D.W O r S O     P.P.P.P.P.P.P.",
"O O ; 6.L.D.F 1 c 2.L.b   j l.L.d.9.8.d.B.B.m.8.Z , + 7 &.G.G.G.L.s.p O j 9.S.L.Z.Z.L.L.L.L.L.L.Z.&.e # B p.u O O O P.P.P.P.P.P.",
"  o r s.D.D.j.4.d.L.D.Q % % n ;.s.j.y.4.2.} V i +   y %.G.Z.L.L.L.D.~ # O y M ] 3.f.m.d.s.s.5.] x 1 O 7 >.m...; O   P.P.P.P.P.P.",
"  o f D.L.L.L.L.D.L.L.d.l O % 1 r p i 4 1 ,   $ > b 4.B.F.L.G.G.L.D.m.K , o O * 7 s d u u u q % O # q _ Z.S.m.b O     P.P.P.P.P.",
"O   h L.L.L.L.L.L.L.L.L.t.M 3   O % $ O   O q c | k.Z.G.F.F.G.G.L.D.L.l.@.M d ; O O o o % $ - ; i J 5.Z.S.D.D.t.d O O P.P.P.P.P.",
"O   j L.L.L.D.L.L.L.Z.L.D.v.>.J M V Z K ^ ..8.l.Z.F.G.Z.F.F.F.L.L.L.D.L.m.v.q.+.R Z B G S S Y %.t.m.L.D.S.L.D.D.( %     P.P.P.P.",
"O   k L.D.L.L.L.L.Z.D.L.L.L.L.Z.L.L.Z.L.D.L.Z.L.L.D.D.L.F.L.G.G.L.D.L.L.D.L.L.D.D.D.L.D.D.L.D.D.L.D.D.L.D.L.L.L.j.q     P.P.P.P.",
"O   k L.L.D.L.D.L.L.L.D.L.D.L.L.D.D.L.Z.L.L.D.L.G.G.F.G.Z.Z.L.G.D.L.D.L.L.D.L.D.L.L.D.L.L.Z.L.L.D.L.L.D.L.D.L.L.L.V O O P.P.P.P.",
"O O g B.L.L.L.L.L.L.L.L.s.} t.L.L.L.L.L.D.L.L.D.L.L.D.L.G.G.L.G.L.D.D.L.D.L.D.L.L.L.D.D.L.D.L.L.L.L.L.G.L.Z.L.L.L.@.O O   P.P.P.",
"O   y s.D.L.L.L.D.L.D.L.Y % S F.L.L.L.L.L.L.L.L.D.L.D.D.L.Z.G.L.D.L.L.L.L.D.L.L.D.L.L.L.D.L.D.L.D.G.L.L.L.L.L.L.L.f.i     P.P.P.",
"  O < 8.L.L.L.L.L.D.L.L.V O g f.L.L.D.L.L.L.L.L.L.D.L.D.L.L.G.L.L.D.L.D.L.L.D.L.L.L.L.L.L.L.L.L.Z.D.G.Z.Z.L.L.D.Z.v.C O   O P.P.",
"  O O >.L.L.L.D.L.L.L.L.{ % % S k.L.L.L.L.L.D.L.L.L.L.L.G.G.L.L.L.L.L.L.D.D.L.L.D.L.D.L.D.L.Z.j.t.2. .' V z n R y.L.;.% O   P.P.",
"O O   #.L.L.L.L.L.L.D.L.m.n   % n q.S.Z.L.D.L.m.m.Z.Z.Z.G.G.G.F.L.Z.L.Z.S.S.L.L.D.S.v.t.<.` n g i 4 % # O % O % k y.d.q o o P.P.",
"P.O   ' L.L.L.L.L.L.L.L.L.q.x O   p b E | $.*.>.8.8.8.8.2.4.8.8.6.7.2.6.>.} Q K N v j d q $ O O o o # % 1 d d O O Y N.k o   P.P.",
"O   O C L.L.L.L.L.L.D.L.L.D.t.M ;   O % : : 1 3 i i q r 7 q r r r r 7 7 1 O   O % O   % % % q k B J _ @.4.t.( ; O M Z.D o   P.P.",
"P.O O k Z.L.L.L.L.L.L.L.L.L.L.l.( c p ; O o   o   O O O     O         O O % 3 q p j x M H ..7.k.v.D.D.Z.j.W 7 % , ] m.] o     P.",
"P.  O 1 e.D.L.L.L.L.L.D.L.L.L.L.G.Z.t.;. .( Q Y Z C A S L W J S F P ! ! ' +.2.7.q.j.m.Z.L.L.L.D.L.Z.Z.m.A : $ , Y l.D.7.3 O O P.",
"P.  O O ( L.L.L.L.L.L.L.L.D.L.D.G.L.G.D.Z.Z.Z.Z.L.L.D.D.x.Z.L.l.m.S.Z.L.Z.S.L.L.L.L.L.L.L.L.L.L.L.L.L.W O O u ] l.D.S.m.g   O P.",
"P.P.    k B.L.L.L.D.L.L.L.L.L.L.L.G.L.L.G.L.G.L.L.L.L.L.L.L.L.L.L.L.L.D.D.L.L.L.L.D.L.L.L.L.L.L.L.L.N.d O i 2.Z.L.L.L.L.c     P.",
"P.P.    ; @.L.L.L.L.L.L.D.L.L.L.L.L.G.D.L.L.L.L.L.L.L.L.L.L.L.Z.L.L.L.L.L.L.L.D.L.L.L.L.L.L.D.L.L.L.7.1 $ Q Z.Z.L.L.L.L.C       ",
"P.P.    o z l.L.L.L.L.L.L.L.L.L.L.L.G.L.L.L.L.L.G.L.L.L.L.L.L.L.L.D.L.L.L.L.L.L.L.L.D.L.L.L.L.L.L.D.@.  % 2.L.L.L.L.L.L.^     P.",
"P.P.P.  o - #.D.L.L.L.D.L.L.L.D.L.L.G.L.G.D.L.G.L.L.L.G.L.D.L.L.L.L.L.L.L.L.L.L.L.L.L.L.L.L.D.L.L.L.]   O y.L.L.L.L.L.L...O     ",
"P.P.P.  o o z k.L.L.L.L.D.L.L.D.L.L.L.L.L.L.L.L.L.L.L.L.L.L.L.L.L.D.L.L.L.L.L.L.D.L.L.L.D.L.D.L.L.L.^ $ : j.L.L.L.D.L.L.}     P.",
"P.P.P.P.o o , X.L.L.L.L.L.L.L.L.G.L.G.L.L.L.L.L.L.L.L.G.L.L.D.L.L.L.D.L.L.L.L.L.L.L.L.L.L.L.L.L.L.L.Y O 7 m.L.L.L.L.L.L.} +     ",
"P.P.P.P.  O o l m.L.L.L.L.L.L.L.L.L.G.L.L.L.L.L.L.L.D.L.L.L.L.L.L.L.L.L.L.L.L.L.L.L.D.L.L.D.L.L.L.L.n O j l.L.L.L.D.L.L.W     P.",
"P.P.P.P.P.    ; @.L.L.L.L.L.L.L.L.L.L.L.L.L.L.G.L.L.L.L.L.L.L.L.L.L.D.L.L.L.D.L.L.L.L.L.L.L.L.L.L.l.d   M L.L.L.L.L.L.L.Z o   P.",
"P.P.P.P.P.+     z m.D.L.L.L.L.L.L.G.L.L.L.L.L.L.L.L.L.L.L.D.L.D.L.L.L.L.L.L.L.L.L.L.L.L.L.L.L.L.m.8.,   ' L.L.L.L.D.L.Z.b O   P.",
"P.P.P.P.P.P.    % #.L.L.L.D.L.L.L.L.L.L.L.L.L.L.L.D.L.L.L.L.L.L.L.L.L.L.L.L.L.L.L.L.L.L.L.L.D.L.L.o.o O 4.L.L.L.L.L.L.Z.j   + P.",
"P.P.P.P.P.P.    o j s.L.L.L.L.L.L.L.L.L.L.L.L.L.L.L.L.D.L.L.L.L.L.L.D.L.L.L.L.L.L.L.L.L.L.L.L.L.Z.C O q j.L.L.L.L.L.L.y.q +   P.",
"P.P.P.P.P.P.P.O   # ' L.G.L.L.L.L.L.G.L.L.G.L.L.L.D.L.L.L.L.L.L.L.L.L.L.L.L.L.L.L.L.L.L.L.L.L.L.i.i O n Z.L.L.L.L.L.L.2.O O   P.",
"P.P.P.P.P.P.P.% O + g m.L.L.G.L.L.L.G.L.L.G.L.L.L.L.L.L.L.L.l.;.q.Z.L.L.L.L.L.L.D.L.L.D.L.L.L.L.(     ..Z.L.L.L.L.D.Z.R       P.",
"P.P.P.P.P.P.P.P.o   * } L.L.L.L.L.L.L.L.L.L.L.L.L.L.L.L.L.L.W % g q.L.L.L.L.L.L.L.L.L.L.L.D.L.l.h % p j.Z.L.D.L.L.L.m.j o   P.P.",
"P.P.P.P.P.P.P.P.  O   j t.L.L.L.L.L.L.L.L.L.D.L.L.L.L.L.L.L.H %   c 8.L.L.L.L.L.L.L.L.L.L.L.m.W % O ~ L.L.Z.L.D.L.L.y.> o   P.P.",
"P.P.P.P.P.P.P.P.P.    O c l.L.L.L.L.L.D.L.L.L.L.L.D.L.L.L.L.y.l O O r ( v.L.L.L.L.L.L.L.L.Z.Y %   l l.L.D.D.D.L.D.L.( %     P.P.",
"P.P.P.P.P.P.P.P.P.P.  O % Y m.Z.D.L.L.L.L.L.L.L.L.L.L.L.L.L.L.q.j * O : k ^ %.q.f.m.B.m.t.C % O 7 #.L.Z.D.L.D.L.D.L.z O + P.P.P.",
"P.P.P.P.P.P.P.P.P.P.    O , ` L.L.L.D.D.D.L.L.L.L.L.L.L.D.L.L.Z.s.F 4     % - < j c c N g % ; 7 >.L.L.L.D.D.L.D.L.y., +   P.P.P.",
"P.P.P.P.P.P.P.P.P.P.P.    O q 4.D.L.L.L.L.L.L.L.L.L.D.L.L.L.D.L.L.B.>.k 4 O % O %   +   O ; j ;.L.L.D.L.L.D.D.L.L.~ O   o P.P.P.",
"P.P.P.P.P.P.P.P.P.P.P.P.  O   d 6.D.L.L.L.L.L.L.L.D.L.L.D.L.L.L.L.L.Z.m.;.( J z r 1 4 1 q S y.c.L.L.L.Z.L.L.L.L.s.d o   P.P.P.P.",
"P.P.P.P.P.P.P.P.P.P.P.P.P.    O y o.N.Z.L.L.L.D.L.L.L.L.L.L.L.L.L.L.L.L.L.Z.Z.Z.j.t.i.6.y.L.L.L.L.L.L.L.L.D.Z.Z.A     o P.P.P.P.",
"P.P.P.P.P.P.P.P.P.P.P.P.P.P.    O 3 Z 4.Z.L.L.L.L.L.D.L.L.L.D.L.L.L.L.L.F.L.G.Z.m.L.L.Z.Z.L.L.L.Z.L.L.L.L.L.D.~ ; o   P.P.P.P.P.",
"P.P.P.P.P.P.P.P.P.P.P.P.P.P.P.    o O 4 ( j.Z.L.L.L.L.L.L.L.L.L.L.L.G.L.L.Z.L.D.D.L.L.D.L.L.L.L.L.G.L.L.L.Z.( <       P.P.P.P.P.",
"P.P.P.P.P.P.P.P.P.P.P.P.P.P.P.P.    o O % g @.m.L.L.L.L.L.L.D.L.G.L.L.L.L.L.D.L.L.D.L.L.L.L.L.L.L.L.L.L.L.o.1 O     P.P.P.P.P.P.",
"P.P.P.P.P.P.P.P.P.P.P.P.P.P.P.P.P.P.  o O O % k Y @.s.x.Z.D.L.L.L.L.G.L.L.L.L.L.L.L.L.L.L.L.L.L.L.L.Z.L.>.4       P.P.P.P.P.P.P.",
"P.P.P.P.P.P.P.P.P.P.P.P.P.P.P.P.P.P.P.P.  O o O # O 1 g F >.j.Z.L.L.L.L.L.L.L.L.L.L.L.L.L.L.L.L.Z.m.t.R 7 O     P.P.P.P.P.P.P.P.",
"P.P.P.P.P.P.P.P.P.P.P.P.P.P.P.P.P.P.P.P.P.O           O O # d b K o.2.t.j.Z.m.G.L.Z.Z.L.L.m.6.( S j ,     O o P.P.P.P.P.P.P.P.P.",
"P.P.P.P.P.P.P.P.P.P.P.P.P.P.P.P.P.P.P.P.P.P.P.P.          o   O O O O , 7 g c C K S A A N j ; %       o   o P.P.P.P.P.P.P.P.P.P.",
"P.P.P.P.P.P.P.P.P.P.P.P.P.P.P.P.P.P.P.P.P.P.P.P.P.P.P.P.    o o       o   o   o O O O O     O   O       P.P.P.P.P.P.P.P.P.P.P.P.",
"P.P.P.P.P.P.P.P.P.P.P.P.P.P.P.P.P.P.P.P.P.P.P.P.P.P.P.P.P.P.P.P.      +   o       O O O   O   o   P.P.P.P.P.P.P.P.P.P.P.P.P.P.P."
};
