/* XPM */
static char *frame_29_delay_0_05s1763316731[] = {
/* columns rows colors chars-per-pixel */
"64 64 177 2 ",
"   c black",
".  c #010101",
"X  c #020202",
"o  c gray1",
"O  c #040404",
"+  c gray2",
"@  c #040406",
"#  c #060606",
"$  c #070707",
"%  c gray3",
"&  c #090909",
"*  c gray4",
"=  c #0B0B0B",
"-  c #0C0C0C",
";  c gray5",
":  c #0E0E0E",
">  c gray6",
",  c #101010",
"<  c #111111",
"1  c gray7",
"2  c #131313",
"3  c gray8",
"4  c #151515",
"5  c gray9",
"6  c #181818",
"7  c #191919",
"8  c gray10",
"9  c gray11",
"0  c #1D1D1D",
"q  c #1E1E1E",
"w  c gray12",
"e  c #202020",
"r  c #222222",
"t  c #232323",
"y  c gray14",
"u  c #272727",
"i  c #282828",
"p  c #2A2A2A",
"a  c #2C2C2C",
"s  c #2D2D2D",
"d  c #2F2F2F",
"f  c gray19",
"g  c #313131",
"h  c #323232",
"j  c #323136",
"k  c gray22",
"l  c #3A3A3A",
"z  c #3D3C41",
"x  c gray28",
"c  c #494949",
"v  c #4A494E",
"b  c #4F4F50",
"n  c gray33",
"m  c gray35",
"M  c #5C5C5E",
"N  c #606060",
"B  c #626166",
"V  c gray40",
"C  c #68676B",
"Z  c gray42",
"A  c gray43",
"S  c #707072",
"D  c gray45",
"F  c #787779",
"G  c gray48",
"H  c #7B7B7B",
"J  c #7C7C7C",
"K  c gray49",
"L  c #7E7E7E",
"P  c gray50",
"I  c #808083",
"U  c #838384",
"Y  c #868686",
"T  c gray53",
"R  c #888888",
"E  c #898989",
"W  c gray54",
"Q  c #8B8B8B",
"!  c gray55",
"~  c #8D8D8D",
"^  c #8E8E8E",
"/  c gray57",
"(  c #939393",
")  c gray58",
"_  c #959595",
"`  c #979699",
"'  c #9A9A9A",
"]  c gray61",
"[  c gray62",
"{  c #A0A0A0",
"}  c gray63",
"|  c #A2A2A2",
" . c #A4A4A6",
".. c #A7A6A7",
"X. c #A9A9A9",
"o. c #AAAAAA",
"O. c gray67",
"+. c #ACACAC",
"@. c #AEAEAE",
"#. c #ADADB0",
"$. c gray69",
"%. c gray70",
"&. c #B4B4B4",
"*. c gray71",
"=. c #B6B6B7",
"-. c #B8B7BA",
";. c gray73",
":. c #BCBCBC",
">. c gray",
",. c gray75",
"<. c #C0C0C0",
"1. c #C1C1C1",
"2. c #C3C3C3",
"3. c #C5C5C5",
"4. c #C6C6C6",
"5. c gray78",
"6. c gray79",
"7. c #CACACA",
"8. c gray80",
"9. c #CDCDCE",
"0. c gray81",
"q. c #D1D0D1",
"w. c #D2D2D2",
"e. c LightGray",
"r. c #D5D5D5",
"t. c #D6D5D7",
"y. c #D8D8D8",
"u. c #DADADB",
"i. c #DCDBDC",
"p. c #DDDDDD",
"a. c #DFDFDF",
"s. c #E1E0E1",
"d. c #E1E1E1",
"f. c #E2E2E2",
"g. c #E4E4E4",
"h. c #E6E5E6",
"j. c #E7E7E7",
"k. c #E6E5E9",
"l. c #E7E7E9",
"z. c gray91",
"x. c #E9E9E9",
"c. c #EAEAEA",
"v. c #EBEAEB",
"b. c gray92",
"n. c #EAE9EC",
"m. c #ECEBEE",
"M. c #ECECEC",
"N. c gray93",
"B. c #EEEEEE",
"V. c #EFEFEF",
"C. c gray94",
"Z. c #F1F1F1",
"A. c gray95",
"S. c #F4F3F4",
"D. c #F4F4F4",
"F. c #F5F4F5",
"G. c gray96",
"H. c #F6F6F6",
"J. c #F7F6F7",
"K. c gray97",
"L. c #F8F8F8",
"P. c #F9F8F9",
"I. c #F9F9F9",
"U. c #FAF9FA",
"Y. c gray98",
"T. c #FBFAFB",
"R. c #FBFBFB",
"E. c #F9F8FC",
"W. c #FCFBFC",
"Q. c #FCFBFF",
"!. c gray99",
"~. c #FDFCFD",
"^. c #FDFDFD",
"/. c #FEFDFF",
"(. c #FEFEFE",
"). c white",
"_. c None",
/* pixels */
"_._._._._._._._._._._._._._._._._._._._.                                      _.  _._._._._._._._._._._._._._._._._._._._._._._.",
"_._._._._._._._._._._._._._._._.                                                    _._._._._._._._._._._._._._._._._._._._._._.",
"_._._._._._._._._._._._._._.                    O O O o   O   O O O                       _._._._._._._._._._._._._._._._._._._.",
"_._._._._._._._._._._.                          & 7 e h x x x h 7 & O O                     _._._._._._._._._._._._._._._._._._.",
"_._._._._._._._._._.        O   O # 3 h n Z @.,.a.C.S.R.H.H.R.S.N.s.q.@.( A n p & O   %           _._._._._._._._._._._._._._._.",
"_._._._._._._._.      &     O d x V W ` ^ ,.R.H.!.!.!.Q.R.Q.R.!.!.H.R.!.!.!.H.H.t.L 7 O   O       _._._._._._._._._._._._._._._.",
"_._._._._._._.        O O k D ( ( ^ ` W A ( ^ L U D m n m m W | ..1.v.L.R.L.L.R.!.R.h.^ 7 %         _._._._._._._._._._._._._._.",
"_._._._._._.        O p D _ ^ _ U M p 7 >   O   O   O     O   & & - 6 u z v m V G '  .@.' 7           _._._._._._._._._._._._._.",
"_._._._.        O > x ^ ( ( B p #   O % O 4 p p d l b b c c u 7 4 O # O & % O O O O - , & O O O         _._._._._._._._._._._._.",
"_._._._.    O   > N ' ` L f * o O & u c D <.v.v.C.N.S.R.S.H.N.h.a.;.[ U A N m v h , 4 , > &       O       _._._._._._._._._._._.",
"_._._.    O   d F ( ( M 6 # # y V U ( _ _ _ k.!.!.!.!.!.!.!.!.!.!.!.W.!.R.!.H.H.h.v.h.r.w.e.1._ V d & O     _._._._._._._._._._.",
"_._.    O   l W Y W l * o > n U W / ( ( _ _  .C.!.!.!.!.!.!.!.!.!.!.!.!.!.!.!.!.R.R.R.H.C.N.H.H.H.y.p O   O   _._._._._._._._._.",
"_.      O h ^ ( U f &   p D ( ( ( ( ' / / ` ( { C.!.!.!.!.!.!.!.!.!.!.!.!.!.R.R.N.$.Z z e y l n L y.,.3 O   O _._._._._._._._._.",
"_.      u W ^ ( f O > x Q ' ( ( _ ( / V x d 7 7 h G -.H.!.!.!.!.!.!.!.!.!.!.R.$.h , %   & &   O % d 8.( %   &   _._._._._._._._.",
"    O O C _ ( ( f > M ( _ _ ` _ _ M y   $ & O O O O > z 6.W.!.!.!.!.!.!.!.R.( , & & f M U U Z n 4 # l i.z O       _._._._._._._.",
"    O e ^ ( _ ( R L ( ( _ _ _ U p & O O d m L R N p % O e 2.!.!.!.!.!.!.!.6.,   x *.v.R.!.!.R.C.&., # A @.,       _._._._._._._.",
"  O   b ( ) _ ) ( ) ( ) _ _ ( z   % l X.v.R.R.H.H.u.[ e O h C.R.!.!.!.!.R.N O z h.!.!.!.C.y.-.k.H.B   d X.G         _._._._._._.",
"O O & L ( _ _ ) ) ( ) _ _ _ L ,   C g.R.R.L.w.;.C.H.R.@.7   @.!.!.!.!.!.H.u O  .!.!.!.!.( p 4 z S.;.O > R y.h O   O   _._._._._.",
"O   4 W _ ) ( ) _ _ ) ( ) _ n O 9 h.R.!.h.N y > M C.!.!.b O G !.!.!.!.!.C.5 O ,.!.!.H.0.7 O O & 3.9.& & U 8.+.& O     _._._._._.",
"O o q ( _ ) ( ) _ _ ) ) _ _ x   d R.R.R.V & O   4 s.!.C.l O B !.!.!.!.!.H.u O U H.!.!.G O O   > y. .O > ^ 1.C.m O   O   _._._._.",
"o   i ` _ ) ) ( ) _ _ ) ( ^ b O 7 r.R.!.c O > O l S.h.A O O e s.!.!.!.!.R.G & > Y H.R.G , & 7 U 3.j $ d / 3.R.s.f O     _._._._.",
"    p ` _ ) ) ) ( ) _ _ ( ^ Z 7 & v S.!.1.h 6 x ,.| k > O O   3.!.!.!.!.!.8.& % , V 0.k.O.[ 0.| a O > V c X.H.R.| O       _._._.",
"  o a ` _ ) ) ) _ _ _ _ _ I c z O & Z 1.y.*.^ Y z >   & & O   w.!.!.!.!.!.C.x   O O q z H ^ x *   > M l & m R.R.v.y O     _._._.",
"o   u ` _ ) ) ) _ _ _ _ ` x O j l O & 7 q 9 , & & > e d > O l v.!.!.!.!.!.!.3.e o       O #   # t V V & O _ R.R.!.D O       _._.",
"o o e _ _ _ _ _ _ _ _ _ ' c O = v h & & O & , 4 q n m q   4 ,.R.!.!.!.!.!.!.!.@.q O   # 2 8 p N Y _ p O e m.!.!.!.-.O O     _._.",
"  o 7 ^ _ _ _ _ _ _ _ _ ) R e O 4 V M n x x M M Z N q   O ^ R.!.!.!.!.!.!.!.!.R.( ,   O q n Q ^ W n & u Y !.!.!.!.C.e O   O _._.",
"  o * U _ _ _ _ _ _ _ _ ) / A $ % y m S Z D Z B c 4 O O l s.!.!.!.!.!.!.!.!.!.!.C.Y p %   O q w 9   % Z w.!.!.!.!.!.A O O O   _.",
"o o O G _ _ _ _ _ _ _ _ ) ( / v & & * z q e e 7   O O h ( !.!.!.!.!.!.!.!.!.!.!.!.v.' B u # O #   & l $.R.!.!.!.!.!.3.> O     _.",
"o O   C _ _ ) _ _ ) ` _ _ _ _ ( N q , h % O   O & 4 b A 1.!.!.!.!.!.!.!.!.!.!.!.!.!.C.$.R M l j z U ,.L.!.!.!.!.!.!.N.q       _.",
"o o O N _ ) ( _ _ ) ` _ _ _ _ _ ( Y Z V d 7 u p z C G ' v.W.!.!.!.!.!.!.!.!.!.!.!.!.!.R.a.3.,.9.h.L.R.!.!.!.!.!.!.!.R.c O   O _.",
"  o O x ( ( _ _ _ _ _ ( ' [ [ ` _ _ ^ Y Y Y L L W _ _ w.H.!.!.!.!.!.!.!.!.!.!.!.!.!.!.!.!.!.!.!.!.!.!.!.!.!.!.!.!.!.!.H O     _.",
"    o u / ( _ _ _ _ _ _ W F ,.{ ( ( ( ( ( ( _ _ _ _ 6.L.!.!.!.!.!.!.!.!.!.!.!.!.!.!.!.!.!.!.!.!.!.!.!.!.!.!.!.!.!.!.!.#.  O     ",
"      > U ) _ _ _ _ ( ' h & _ h.;.[ ' ( ^ / ^ _ ;.s.R.!.!.!.!.!.!.!.!.!.!.!.!.!.!.!.!.!.!.!.!.!.!.!.!.!.!.!.!.!.!.!.!.g.,   O   ",
"        m ( _ _ _ ) / D & % +.!.R.s.;. . . .3.s.L.!.!.!.!.!.!.!.!.!.!.!.!.!.!.!.!.!.!.!.!.!.!.!.!.!.!.!.!.!.!.!.!.!.!.R.l O     ",
"_.      y ^ _ _ ( ( ( j   l C.!.R.R.!.!.!.!.R.!.!.!.R.W.!.!.!.!.!.!.R.R.!.!.!.!.!.!.R.R.!.!.!.!.!.!.!.!.!.!.!.!.!.!.!.!.n O   O ",
"_.      % A _ ( ( ^ G > O X.L.W.!.W.!.!.!.!.R.R.!.!.!.N.u.9.$.Q C M n n M N D D F ` *.-.*.3.6.u.C.!.!.!.!.!.!.!.!.!.!.!.D &     ",
"_.      O a ( / ( / n   p v.R.R.!.!.!.!.!.H.u.1.^ F N z p , & O O O O O O O & O O O & & > > q u l V [ 9.H.H.!.!.!.!.!.!.(   o   ",
"_._.      O A ( / / d & C !.R.!.!.!.v.9.| m u > O O O O     , e h z c c z h f h h q , , & O       &   q D w.!.!.!.!.!.!.-.O     ",
"_._.      O a ( ^ W > O ..!.!.H.3.G h 2 $   O & e d z M U [ ,.s.C.W.R.L.H.H.v.v.v.r.;.,.,.@.( L n p , O   e -.!.!.!.!.!.*.o     ",
"_._._.      & S ( W O & 5.R.6.N 7 O O % 7 j L *.y.v.N.R.R.!.!.!.!.!.!.!.!.!.!.!.!.!.R.!.!.R.R.!.H.s.*.M q O u i.!.!.!.!...O o   ",
"_._._.        d ( D % 7 a. .q O O e M X.9.C.!.!.!.!.!.!.!.!.!.!.!.!.!.!.!.!.!.!.!.!.!.!.!.!.!.!.!.!.!.W.X.6 O W !.!.!.!.'       ",
"_._._._.  O   O A V & 4 N.N $ e G r.R.!.!.R.!.!.!.!.!.!.!.!.!.!.!.!.!.!.!.!.!.!.!.!.!.!.!.!.!.!.!.!.!.!.m.b O c !.!.!.!.D O     ",
"_._._._.        f N   7 v.9.U e.R.!.!.!.!.!.!.!.!.R.!.!.!.!.!.!.!.!.!.!.!.!.!.!.!.!.!.!.!.!.!.Q.R.C.a.t.^ 2 O W !.!.!.!.m O     ",
"_._._._._.      > b - , ,.L.!.!.!.!.!.!.!.!.R.!.N.h.h.s.s.a.a.a.v.L.!.!.!.!.!.!.!.!.!.!.!.!.R.3.C c y 2 O & d s.!.!.!.!.l O O   ",
"_._._._._.    O O q >   V H.R.!.!.!.R.R.!.s.;.[ ` _ _ ) _ ) _ ) _ | N.!.!.!.!.!.!.!.!.!.!.!.,.q O   O O , c 6.!.!.!.!.v.q O     ",
"_._._._._._.    O & q & - [ R.!.!.!.R.R.r.[ ^ ` _ _ _ ) ) _ ) ) ( _ 1.!.!.!.!.!.!.!.!.!.!.N.h O 4 c A ( ;.C.!.!.!.!.!.1.O O     ",
"_._._._._._.  O O O > u O , X.N.!.!.!.w._ _ _ ( _ _ _ _ _ _ _ _ _ ( X.!.!.!.!.!.!.!.!.!.Q.W O > O.H.R.!.!.!.!.!.!.!.R.W   &   _.",
"_._._._._._._.      & v 4 & > M H.W.r.' _ _ _ _ _ _ _ _ _ _ _ _ _ _ ` h.!.!.!.!.!.!.!.!.w.7 O V L.R.!.!.!.!.!.!.!.!.H.c   O   _.",
"_._._._._._._.  O   O u M q & , t.6.' _ _ _ _ _ _ _ _ _ _ _ ( / ( ( ( 3.!.!.!.!.!.!.!.C.m & 7 y.W.!.!.!.!.!.!.!.!.!.k.>       _.",
"_._._._._._._._.O   O O j F v A _ ' _ ( _ _ _ _ _ _ _ _ _ _ _ M L ( _ _ y.!.!.!.!.!.!.[ > & ^ !.!.!.!.!.!.!.!.!.!.!.| O   O   _.",
"_._._._._._._._._.      & n ( ( ( ) _ _ _ _ _ _ _ _ _ _ _ _ V & > p z A _ t.C.S.N.a.Y 4   l C.!.!.!.!.!.!.!.!.!.!.!.n   O   _._.",
"_._._._._._._._._.      O % M ( _ ) ( ) _ _ ( ` _ _ _ _ _ _ V & & o O O > p c x h q & O p 9.!.!.!.!.!.!.!.!.!.!.!.m.,       _._.",
"_._._._._._._._._._.      O , U ) _ _ _ _ _ _ _ _ _ _ _ _ _ ( A l 7 > o O   O &   O & c e.H.!.!.!.!.!.!.!.!.!.!.!._ O       _._.",
"_._._._._._._._._._._.    O   q L ) ) _ ) _ _ _ _ _ _ _ _ _ ( ( _ ( U N x h p e l z Z h.!.!.!.!.!.!.!.!.!.!.!.!.N.h O O   _._._.",
"_._._._._._._._._._._._.      O 5 V ^ ^ ) _ _ _ _ _ _ _ _ _ _ _ _ _ ( _ ( ^ ( ( ` ! $.!.!.!.!.!.!.!.!.!.!.!.!.!.G         _._._.",
"_._._._._._._._._._._._._.      O O x L _ _ _ _ _ _ _ _ _ _ _ _ _ _ _ _ ( ( ( ( ^ ` h.R.!.!.!.!.!.!.!.!.!.!.!.' > & O   _._._._.",
"_._._._._._._._._._._._._._.        o 4 m ( ( _ ( _ ( _ _ ( _ _ _ _ _ _ _ _ _ ( ` ,.Q.!.!.!.!.!.!.!.!.!.!.!.X.4         _._._._.",
"_._._._._._._._._._._._._._._.    o o o o w C ( _ _ _ ( ( ( _ ( _ _ _ _ _ _ _ _ [ N.!.!.!.!.!.!.!.!.!.!.!.*.4 O       _._._._._.",
"_._._._._._._._._._._._._._._._.      o   o & e b A Y ^ ( ( ( _ _ _ _ _ _ _ ( ^ w.!.!.!.!.!.!.!.!.!.!.W.6.7         _._._._._._.",
"_._._._._._._._._._._._._._._._._._.  o O o O o   # > w v H ( ( _ _ _ _ ( ( ( $.!.!.!.!.!.!.!.!.!.R.s.^ 7 O       _._._._._._._.",
"_._._._._._._._._._._._._._._._._._._._.    o     o o o O O q l m D H I W ^ @.V.R.R.W.W.!.H.t.[ L z , O O   O   _._._._._._._._.",
"_._._._._._._._._._._._._._._._._._._._._.              o O o O O O O & , 8 c D W U D D A z > &     O         _._._._._._._._._.",
"_._._._._._._._._._._._._._._._._._._._._._._._.              o o o o o   o o   O     O       O   O O       _._._._._._._._._._.",
"_._._._._._._._._._._._._._._._._._._._._._._._._._._._.          o   o   O   o   O       O O           _._._._._._._._._._._._."
};
