/* XPM */
static char *frame_36_delay_0_05s1763316732[] = {
/* columns rows colors chars-per-pixel */
"64 64 161 2 ",
"   c black",
".  c #010101",
"X  c #020202",
"o  c gray1",
"O  c #040404",
"+  c gray2",
"@  c #040406",
"#  c #060606",
"$  c #070707",
"%  c gray3",
"&  c #090909",
"*  c gray4",
"=  c #0B0B0B",
"-  c #0C0C0C",
";  c gray5",
":  c #0E0E0E",
">  c gray6",
",  c #111111",
"<  c #131313",
"1  c #151515",
"2  c #161616",
"3  c #191919",
"4  c gray10",
"5  c gray11",
"6  c #1D1D1D",
"7  c gray12",
"8  c #202020",
"9  c #222222",
"0  c #232323",
"q  c gray14",
"w  c gray15",
"e  c #282828",
"r  c #2A2A2A",
"t  c #2C2C2C",
"y  c #2D2D2D",
"u  c #2F2F2F",
"i  c #313131",
"p  c #323136",
"a  c gray22",
"s  c #3A3A3A",
"d  c #3D3C41",
"f  c gray28",
"g  c #494949",
"h  c #4A494E",
"j  c #4F4F50",
"k  c gray33",
"l  c #54535B",
"z  c gray35",
"x  c #5C5C5E",
"c  c #5E5D64",
"v  c #606060",
"b  c #626166",
"n  c gray40",
"m  c #68676B",
"M  c gray42",
"N  c gray43",
"B  c #707072",
"V  c gray45",
"C  c #747378",
"Z  c #787779",
"A  c gray48",
"S  c #7B7B7B",
"D  c #7A7A7C",
"F  c #7B7B7D",
"G  c #7C7C7C",
"H  c gray49",
"J  c #7D7C7F",
"K  c #7E7E7E",
"L  c gray50",
"P  c #7E7D80",
"I  c #808083",
"U  c #838384",
"Y  c gray53",
"T  c #848388",
"R  c #898989",
"E  c #8B8B8B",
"W  c gray55",
"Q  c #8E8E8E",
"!  c gray57",
"~  c #939393",
"^  c #959595",
"/  c #979699",
"(  c #98989B",
")  c #9A9A9A",
"_  c gray61",
"`  c #A0A0A0",
"'  c #A2A2A2",
"]  c #A4A4A6",
"[  c #A7A6A7",
"{  c #A7A7AA",
"}  c #AAAAAA",
"|  c #ADADB0",
" . c #B0AFB3",
".. c #B1B0B7",
"X. c #B4B4B4",
"o. c #B5B4B8",
"O. c #B8B7BA",
"+. c gray73",
"@. c #BBBBBD",
"#. c #BAB9BF",
"$. c #BCBCBC",
"%. c gray75",
"&. c #BDBCC0",
"*. c #C1C1C3",
"=. c #C3C3C3",
"-. c #C5C5C6",
";. c #C8C7CA",
":. c #CAC9CC",
">. c #CCCBCE",
",. c gray81",
"<. c #CFCFD2",
"1. c #D1D0D1",
"2. c gray83",
"3. c #D6D5D7",
"4. c #D8D8D8",
"5. c #D9D8DB",
"6. c #DADADB",
"7. c #DCDBDC",
"8. c #DCDBDE",
"9. c #DFDFDF",
"0. c #DEDEE0",
"q. c #E1E0E1",
"w. c #E1E1E1",
"e. c #E1E1E3",
"r. c #E2E2E2",
"t. c #E3E3E5",
"y. c #E6E5E6",
"u. c gray91",
"i. c #EBEAEB",
"p. c #EAE9EC",
"a. c #ECEBEE",
"s. c gray93",
"d. c #EFEEEF",
"f. c #F0EFF2",
"g. c gray95",
"h. c #F2F1F5",
"j. c #F3F3F4",
"k. c #F4F4F4",
"l. c gray96",
"z. c #F6F6F6",
"x. c #F7F6F7",
"c. c gray97",
"v. c #F6F5F8",
"b. c #F6F5FB",
"n. c #F8F7FA",
"m. c #F8F8F8",
"M. c #F9F9F9",
"N. c #FAF9FA",
"B. c #FBFAFB",
"V. c #FBFBFB",
"C. c #F9F8FC",
"Z. c #FAFAFE",
"A. c #FCFBFC",
"S. c #FCFBFF",
"D. c gray99",
"F. c #FDFCFD",
"G. c #FDFDFD",
"H. c #FEFDFF",
"J. c #FEFEFE",
"K. c white",
"L. c None",
/* pixels */
"L.L.L.L.L.L.L.L.L.L.L.L.L.L.L.L.L.L.L.L.                                      L.L.L.L.L.L.L.L.L.L.L.L.L.L.L.L.L.L.L.L.L.L.L.L.L.",
"L.L.L.L.L.L.L.L.L.L.L.L.L.L.L.L.                                                      L.L.L.L.L.L.L.L.L.L.L.L.L.L.L.L.L.L.L.L.L.",
"L.L.L.L.L.L.L.L.L.L.L.L.L.                      o O O O o o   o o o                       L.L.L.L.L.L.L.L.L.L.L.L.L.L.L.L.L.L.L.",
"L.L.L.L.L.L.L.L.L.L.L.                          % 3 0 i d d f u 2 = % O                     L.L.L.L.L.L.L.L.L.L.L.L.L.L.L.L.L.L.",
"L.L.L.L.L.L.L.L.L.L.        O     % % i j j z N 4.h.k.m.m.m.V.c.g.e.1.| T N k e % O     O         L.L.L.L.L.L.L.L.L.L.L.L.L.L.L.",
"L.L.L.L.L.L.L.L.      %     O e d k B K G G R 4.N.F.F.F.V.N.V.F.F.N.V.F.F.F.j.f.1.Z 8 o O         L.L.L.L.L.L.L.L.L.L.L.L.L.L.L.",
"L.L.L.L.L.L.L.          % u v A D A A G I K o.y.j.g.g.m.c.c.c.m.N.G.m.N.V.N.m.V.c.N.y.Q 8 O         L.L.L.L.L.L.L.L.L.L.L.L.L.L.",
"L.L.L.L.L.L.        O q v Z D K G K A M k a 8 5 6 6 i h v v v b n n m V A A B N N Z K Y Q y O         L.L.L.L.L.L.L.L.L.L.L.L.L.",
"L.L.L.L.        O O d V A U V k a 3 , %   @ O   o O   @ O o o % O O   O o   % % o % o o % % O             L.L.L.L.L.L.L.L.L.L.L.",
"L.L.L.L.    O o : k G K M d , O O @         1 6 d j s 7 1 1 1 1 1 2 , % & & = , = % % % O           o     L.L.L.L.L.L.L.L.L.L.L.",
"L.L.L.    O   q n G A g 1 % O O % 4 p d k M B A U r.d.y.y.y.u.u.t.e.9.3.3.2.9.e.4.4.=.+.~ n d q : O % O   o L.L.L.L.L.L.L.L.L.L.",
"L.L.        p A K V d % o O e k m Z Z Z I K G K G / 9.N.F.F.F.F.F.F.N.F.F.F.F.F.G.m.u.+.` { } +.X.L q O       L.L.L.L.L.L.L.L.L.",
"L.      O e V G K j $ o 8 z N K U P Z B b v v v x m Z %.N.F.F.F.F.F.F.F.F.F.V.m.1.~ f e 1 = 6 q j ) } < o   O L.L.L.L.L.L.L.L.L.",
"L.      3 V V G K d O 6 N P D G Z N b x k j d d a s z m ) d.F.F.F.F.F.F.F.F.j.) f 1 % @     O O   : d f % O     L.L.L.L.L.L.L.L.",
"    O O b K K K K V k V D P P C n x s 7 > % @ o O   > y k I d.F.F.F.F.F.F.f.G 7 % @ O 6 d z h e - % O i a O       L.L.L.L.L.L.L.",
"    O 8 A A G K K K U Z D G C M l 3 - % O o = > , = o   = a E m.F.F.F.F.F.[ e @ % 8 ~ 8.u.V.c.4.' y O O i e O     L.L.L.L.L.L.L.",
"      g G S K K K K P P Z P b h 1 % % p D +.:.7.9.+.b < O = a 1.F.F.F.F.d.z ,   h 3.N.F.F.F.F.F.N.3.f % % d %       L.L.L.L.L.L.",
"O O % M G D A K K K K P P Z c 2 O , ~ e.F.N.c.N.V.N.c.o.e O = Y F.F.F.F.;.i O 2 e.F.F.F.F.F.F.F.F.D.4.6 o y q o o o o L.L.L.L.L.",
"O   1 Z A K K K G K L P G n d @ > | b.F.F.F.m.7.%.1.g.h.:.4 O p d.F.F.F.:.0 O s m.D.F.F.d./ d a I c.$.>   a h = o     L.L.L.L.L.",
"O O 6 L K K K S K K L P P n d O < *.F.F.G.F.) q : 6 ) F.N.a O 8 -.F.F.F.,.7 O 3 %.m.F.F.o.% % % 3 ;.a & 1 j n j O       L.L.L.L.",
"    8 G K K K K P K K K Z c l 3 $ l G.G.G.p.3 @     h N.1.7 O e %.F.F.F.e.6     q ;.D.N.$.% O % u M % : d z x #.i O o   L.L.L.L.",
"    8 G K S K K K K G K Z c l a * : | Z.Z.p.3       V } q % % 4 ,.F.F.F.G.v   o O u } D.g.R z A B ,   0 c x l &.{ %       L.L.L.",
"  O 8 G K K G K P P K P Z j , e 4 @ q | h.Z.| g i a j > @ o * s e.F.F.F.m.=.1     O 3 n -.u.e.Y 1 O 6 l k x l #.d.0 o     L.L.L.",
"O   8 D G K K K G K P K D d $ : d < % , n R I C p 1 O O O o O m m.F.F.F.m.N.z O O   O % 8 y r % O , l f < p x &.F.N O       L.L.",
"o   q G K K K K K K P P Z c 3 @ r f * $ % % O = @ o < % O > 8 Q F.F.F.F.F.F.=.1 % O O O O % O @ 1 h c 1 % 3 c 7.b.+.O o     L.L.",
"  O < G K K G K P P P P D n s o o d j e 1 1 1 1 q a e % O 8 y +.F.F.F.F.F.F.c.z e % O O y e e a k v p o - y M f.F.d.0 @ o   L.L.",
"    - N A S A K K G P P P z l 6 @ , d l x k j x l d = o 3 i j 3.F.F.F.F.F.F.F.=.p e O O 0 j z b x d , O 6 j R Z.F.F.M   o o   L.",
"O O O n A S S S K K P P L V a j 1 @ $ 7 k l l j e - o 1 d q I c.F.F.F.F.F.F.F.N.b d 7 @ % , e u e % O : f k 7.Z.F.F.=.- o     L.",
"  O   v G S S S G K P P P P n a f 2 % O - 7 6 - O o 6 f p b | F.F.F.F.F.F.F.F.F.7.f k 3 O O & O O O O d h | Z.C.Z.G.d.6 o %   L.",
"O O O j S S S S P P P P P D Z x p f i % % @ O O % q j a k P u.F.F.F.F.F.F.F.F.F.c.<.h h a 1 & & , 3 g k [ b.Z.C.Z.F.m.g o     L.",
"    O a S S S S G P D P P P D D m a f j i 6 7 r h x a m C o.G.F.F.F.F.F.F.F.F.F.F.F.e.<.>.{ E W ' o.:.>.F.G.S.Z.Z.F.F.A   o   L.",
"O     8 A S S S P P P P P P G D Z V j c n n n M G V m Z _ d.F.F.F.F.F.F.F.F.F.F.F.F.F.S.F.S.Z.Z.F.F.F.F.F.F.F.Z.G.Z.F.| o o     ",
"      $ M L D A A D D P P V a k P P P D D D Z D Z D I T u.F.F.F.F.F.F.F.F.F.F.F.F.F.F.F.F.F.F.F.F.F.F.F.F.F.F.F.F.F.F.9.<   o   ",
"      % j G A S D P P P P g   q D P P P P G P G D A Y ;.F.F.F.F.F.F.F.F.F.F.F.F.F.F.F.F.F.F.F.F.F.F.F.F.F.F.F.F.F.F.F.N.a O o   ",
"      o 8 G A S A P G P C 1 $ d P P P P P P I A A E >.b.F.V.F.F.F.F.F.F.F.F.F.F.F.F.F.F.F.F.F.F.F.F.c.F.F.F.F.F.F.F.F.F.k o   o ",
"L.      O x A S G G P P d O , B D P P D P P A U { 7.F.F.F.F.F.F.F.Z.h.j.u.4.7.7.0.y.g.N.F.F.F.F.F.h._ 9.F.F.F.F.F.F.F.F.V o     ",
"L.      O q K A D G G Z 1 % f P D D D D D I ^ 7.c.F.F.F.d.0.O.U m z h d e q q q e a f k n Q :.g.Z.G.X.Y e.F.F.F.F.F.F.F./   o   ",
"L.L.      O v A K D D j $ 3 / Z G D D P P _ y.c.7.-.' P j e % O % O O O $ % % % O O % O o % 3 g ( ;.<.T ~ f.F.F.F.F.F.F.+.o     ",
"L.L.    o   t Z G G D u   k &.G P ~ 1.:.:.<./ k i O %     O @ - 1 8 q i d k z z h p e q 7 * % % % : e q x #.F.D.F.F.F.F.X.@     ",
"L.L.L.  o o % c G P Z < % / =.D G <.<.Q g 8 O O O O % , 8 f U o.:.3.7.y.g.b.Z.Z.b.d.y.q.<.{ z 8 - O $ $ : M j.Z.F.F.F.Z.[ O   o ",
"L.L.L.    o o q P P C $ % ;.&.Z Z B 6 % O O O 6 a V ' %.8.k.F.F.F.F.F.F.F.F.F.F.F.F.F.F.F.F.F.7.| ~ k % O , ' S.F.F.F.F.( o     ",
"L.L.L.L.    o O b G m o 4 7.X.g < $ o : q g ~ >.c.F.F.F.F.F.F.F.F.F.F.F.F.F.F.F.F.F.F.F.F.F.Z.F.F.k.d._ 2 & 6 3.F.F.F.F.A @     ",
"L.L.L.L.        e D b O 7 h.| $   , p ~ 3.F.Z.C.F.F.g.d.f.d.u.a.t.d.m.F.F.F.F.F.F.F.F.F.F.F.N.Z.F.b.F.N.Q & % I F.F.F.F.z O     ",
"L.L.L.L.L.      O b b O , 4.<.8 6 ^ y.F.F.b.u.5.>.$.) T R T U U I R / t.F.F.F.F.F.F.F.F.F.F.7.' I A I G k o   A F.F.G.F.s @ o   ",
"L.L.L.L.L.  o o $ 6 B : o R f.G A 5.S.q.o.] W P D Z D D D D D P K D D ] F.F.F.F.F.F.F.F.F.d.a - O o O & % % 6 1.F.F.F.u.8       ",
"L.L.L.L.L.L.    O O j a O e 0.&.D Q >.T L P Z D P D D D D D D P D D P X.F.F.F.F.F.F.F.F.b.^ % O , , : > : q | S.F.F.F.=.o       ",
"L.L.L.L.L.L.    O O 3 m < O k >.R T I I P D D G D P P D D P P D D P T y.F.F.F.F.F.F.F.F.;.3 O e X.=.$.} C 3.F.F.F.F.F.Y O O   L.",
"L.L.L.L.L.L.L.    o @ z f % % t n A P P D G D D D P P P D D D P P P P &.F.F.F.F.F.F.F.y.a % : ] F.N.c.<.4.Z.F.F.F.F.m.d O     L.",
"L.L.L.L.L.L.L.    o O q M a %   % s P G P P P D D D P P P P P P P D K U :.N.F.F.Z.G.c.k % % m N.Z.F.F.F.F.F.F.F.F.F.y.,   o   L.",
"L.L.L.L.L.L.L.L.      o y D k 3 % 1 P P D D D P P P P P P P D P P P P P A ' :.a.f.4.Z %   6 4.F.F.F.F.F.F.F.F.F.F.F.[ O       L.",
"L.L.L.L.L.L.L.L.L.    o O f Z M f n K G D P D D D D D P P D D b u u a g M C K D D x 1   1 Y N.F.F.F.F.F.F.F.F.F.F.F.k @ o   L.L.",
"L.L.L.L.L.L.L.L.L.      O : j K P D D D D D D D D D P P P D P s $ o O O - 6 e i u :     g :.Z.Z.F.F.F.F.F.F.F.F.F.u., @     L.L.",
"L.L.L.L.L.L.L.L.L.L.      O , Z Z Z D A D A A D P P D D P P Z k 1 : * O @   O   O   $ f / k.G.F.F.F.F.F.F.F.F.F.F.^ % o     L.L.",
"L.L.L.L.L.L.L.L.L.L.L.  O     e V Z D A Z D D D D D P P P D P D C C B j t < : % : 8 j P 2.G.G.G.F.F.F.F.F.F.F.F.d.i o     L.L.L.",
"L.L.L.L.L.L.L.L.L.L.L.L.        1 k P U D A D A D P D D P P P P P P P D A Z M M Z A V Q N.F.F.F.F.F.F.F.F.F.F.G.G % o     L.L.L.",
"L.L.L.L.L.L.L.L.L.L.L.L.L.    O $ % a m D D D D D D P P P D P P P P P G D D A Z D A V #.F.F.F.F.F.F.F.F.F.F.Z._ : o o   L.L.L.L.",
"L.L.L.L.L.L.L.L.L.L.L.L.L.L.      o o , j C Z D P D P D D G P P P P P P P D A D A D I y.F.F.F.F.F.F.F.F.D.F.{ 1         L.L.L.L.",
"L.L.L.L.L.L.L.L.L.L.L.L.L.L.L.        O O 3 x D D D P P P P P P P P P D P D D A D A $.Z.F.F.F.F.F.F.F.F.F.X.< O       L.L.L.L.L.",
"L.L.L.L.L.L.L.L.L.L.L.L.L.L.L.L.      o   O % 8 f c M D P D G P P P P P D P P D G ' F.F.F.F.F.F.F.F.D.N.-.6 O O     L.L.L.L.L.L.",
"L.L.L.L.L.L.L.L.L.L.L.L.L.L.L.L.L.L.  O O   O O O   - 4 d M D P P P P P P P P D E d.F.Z.F.F.F.F.F.Z.e.Q 5 O       L.L.L.L.L.L.L.",
"L.L.L.L.L.L.L.L.L.L.L.L.L.L.L.L.L.L.L.      o       o O O O 3 t f l b B Z P P W 9.F.F.F.F.Z.7.{ I d 1   O   o   L.L.L.L.L.L.L.L.",
"L.L.L.L.L.L.L.L.L.L.L.L.L.L.L.L.L.L.L.L.L.                O     O O O * < 4 e b Y P V V N d : O O O   o       L.L.L.L.L.L.L.L.L.",
"L.L.L.L.L.L.L.L.L.L.L.L.L.L.L.L.L.L.L.L.L.L.L.L.              O   O   o o     o   o o     o   o   o o       L.L.L.L.L.L.L.L.L.L.",
"L.L.L.L.L.L.L.L.L.L.L.L.L.L.L.L.L.L.L.L.L.L.L.L.L.L.L.L.              o   O o   o O       o o o           L.L.L.L.L.L.L.L.L.L.L."
};
