/* XPM */
static char *frame_02_delay_0_05s1763316728[] = {
/* columns rows colors chars-per-pixel */
"64 64 137 2 ",
"   c black",
".  c #010101",
"X  c #020202",
"o  c gray1",
"O  c #040404",
"+  c gray2",
"@  c #060606",
"#  c #070707",
"$  c gray3",
"%  c #090909",
"&  c gray4",
"*  c #0B0B0B",
"=  c #0C0C0C",
"-  c gray5",
";  c #0E0E0E",
":  c gray6",
">  c #111111",
",  c gray7",
"<  c gray8",
"1  c #151515",
"2  c #161616",
"3  c #181818",
"4  c gray10",
"5  c gray11",
"6  c #1D1D1D",
"7  c #1E1E1E",
"8  c #202020",
"9  c #222222",
"0  c gray14",
"q  c gray15",
"w  c #272727",
"e  c #2A2A2A",
"r  c #2C2C2C",
"t  c #2F2F2F",
"y  c #313131",
"u  c #323232",
"i  c gray22",
"p  c #3A3A3A",
"a  c #3D3C41",
"s  c gray28",
"d  c #4A494E",
"f  c #4F4F50",
"g  c gray33",
"h  c gray35",
"j  c #5C5C5E",
"k  c #606060",
"l  c gray40",
"z  c #68676B",
"x  c gray42",
"c  c gray43",
"v  c #707072",
"b  c gray45",
"n  c #787779",
"m  c gray48",
"M  c #7C7C7C",
"N  c gray49",
"B  c #808083",
"V  c #838384",
"C  c #868686",
"Z  c #888888",
"A  c gray54",
"S  c gray55",
"D  c #8D8D8D",
"F  c #8E8E8E",
"G  c gray57",
"H  c gray58",
"J  c #959595",
"K  c #979699",
"L  c #9A9A9A",
"P  c gray62",
"I  c #A0A0A0",
"U  c gray63",
"Y  c #A2A2A2",
"T  c #A4A4A6",
"R  c #A7A6A7",
"E  c #A9A9A9",
"W  c gray67",
"Q  c #ACACAC",
"!  c #AEAEAE",
"~  c gray69",
"^  c gray70",
"/  c #B4B4B4",
"(  c gray71",
")  c #B6B6B7",
"_  c #B8B7BA",
"`  c gray73",
"'  c gray74",
"]  c #C0C0C0",
"[  c #C1C1C1",
"{  c #C3C3C3",
"}  c #C6C6C6",
"|  c #C8C8C8",
" . c gray79",
".. c #CACACA",
"X. c gray80",
"o. c #CDCDCE",
"O. c #D1D0D1",
"+. c LightGray",
"@. c #D5D5D5",
"#. c #D8D8D8",
"$. c #DADADB",
"%. c #DCDBDC",
"&. c #DDDDDD",
"*. c #DFDFDF",
"=. c #E1E1E1",
"-. c #E2E2E2",
";. c gray89",
":. c #E4E4E4",
">. c #E6E5E6",
",. c #E7E7E7",
"<. c #E9E9E9",
"1. c #EAEAEA",
"2. c #ECECEC",
"3. c gray93",
"4. c #EEEEEE",
"5. c #EFEFEF",
"6. c gray94",
"7. c gray95",
"8. c #F3F3F3",
"9. c #F4F3F4",
"0. c #F5F4F5",
"q. c #F6F6F6",
"w. c #F7F6F7",
"e. c gray97",
"r. c #F9F8F9",
"t. c #F9F9F9",
"y. c #FAF9FA",
"u. c gray98",
"i. c #FBFAFB",
"p. c #FBFBFB",
"a. c #FCFBFC",
"s. c gray99",
"d. c #FDFCFD",
"f. c #FDFDFD",
"g. c #FEFEFE",
"h. c white",
"j. c None",
/* pixels */
"j.j.j.j.j.j.j.j.j.j.j.j.j.j.j.j.j.j.j.j.j.j.j.j.j.j.j.j.  j.j.j.j.j.j.j.j.j.j.j.j.j.j.j.j.j.j.j.j.j.j.j.j.j.j.j.j.j.j.j.j.j.j.j.",
"j.j.j.j.j.j.j.j.j.j.j.j.j.j.j.j.j.j.j.j.                                  j.j.j.j.j.j.j.j.j.j.j.j.j.j.j.j.j.j.j.j.j.j.j.j.j.j.j.",
"j.j.j.j.j.j.j.j.j.j.j.j.j.j.j.j.                              O                     j.j.j.j.j.j.j.j.j.j.j.j.j.j.j.j.j.j.j.j.j.j.",
"j.j.j.j.j.j.j.j.j.j.j.j.j.j.                                + 5 5 , O O                 j.j.j.j.j.j.j.j.j.j.j.j.j.j.j.j.j.j.j.j.",
"j.j.j.j.j.j.j.j.j.j.j.j.    O   $   < -     o   $ O O O O O % 1 g L ' E A b h e - O   O     j.j.j.j.j.j.j.j.j.j.j.j.j.j.j.j.j.j.",
"j.j.j.j.j.j.j.j.j.j.  O     & f F Y i O   o 3 h N F G V m s %   O O , 8 h N U O...V 8 O o o     j.j.j.j.j.j.j.j.j.j.j.j.j.j.j.j.",
"j.j.j.j.j.j.j.j.j.  O % & h | w.1.i $ O s I &.y.y.p.h.h.h.0.} m u % % O O % - 1 5 a l a   o       j.j.j.j.j.j.j.j.j.j.j.j.j.j.j.",
"j.j.j.j.j.j.j.      O d [ 8.y.:.a % : F 2.p.y.y.s.s.h.h.h.y.e.0.2.[ P c a 0 - O % $ O &     o       j.j.j.j.j.j.j.j.j.j.j.j.j.j.",
"j.j.j.j.j.j.    # % M 7.p.p.2.f $ : J s.e.h.h.h.y.y.h.h.h.y.h.a.h.h.y.h.8.1.` F d *                   j.j.j.j.j.j.j.j.j.j.j.j.j.",
"j.j.j.j.j.O o   1 Q y.0.y.1.f $ & C 8.6.' B l l V R -.h.h.h.h.h.h.y.h.h.p.7.( f < o                 O   j.j.j.j.j.j.j.j.j.j.j.j.",
"j.j.j.j.  o o d O.p.p.w.7.j % # N #.M e : O & O $ % 5 v 1.y.h.h.h.h.h.7.@.g :       o     o   o           j.j.j.j.j.j.j.j.j.j.j.",
"j.j.j.    o l 2.0.y.w.0.b - % n E e O O o   9 t , O O O j y.h.h.h.h.h.} r   o   o o   o     o     o o o     j.j.j.j.j.j.j.j.j.j.",
"j.j.    O j 7.p.h.p.9.z - : i g % O O o o o l :.%.` l & & ` h.h.h.p.+.0   4 f   o   o o   o O s s O %       j.j.j.j.j.j.j.j.j.j.",
"j.j.    y 1.p.h.h.:.g O O O , -   o o o     g y.y.y.5.p o l h.h.p.1.a   5 ( / O O o   o   o o b 2.c %         j.j.j.j.j.j.j.j.j.",
"j.  O % / y.y.h. .a #   O $ O   o   o   $ & F e.p.h.8.f + g h.p.h.E $ * ~ y.>.i % % O O O O w X.h.7.c O % O     j.j.j.j.j.j.j.j.",
"j.  O i 9.y.7.J 5   O O   : s %     o o O j 8.s.p.h.) 1 $ b p.a.h.v O 5 1.h.y.%.V a 8 8 g F :.0.y.p.{ % 3 1     j.j.j.j.j.j.j.j.",
"j.O O F p.h.V O   0 L 5 O g 7.C u 1 - i F 1.h.y.p.R 4 O 0 $.p.h.h.~ O % [ y.p.h.p.2.-.&.7.p.h.h.h.p.G o 0 m O     j.j.j.j.j.j.j.",
"o O - @.h.p.N 1 g +.h.j O a 7.h.2.%.$.2.0.y.e.$.b , o 8 [ p.h.p.h.1.r O a $.h.h.y.y.h.h.h.h.h.h.y.] 8 $ x 1.w O   O j.j.j.j.j.j.",
"  o 0 1.p.y.7.+.2.p.p.J % % k } 1.2.>.+.X.~ c w O   w ] p.p.a.h.h.y.K %   e l E +.2.e.2.2.2.@.E f 1 O 5  .e./ - O   j.j.j.j.j.j.",
"  o u p.h.h.h.h.p.h.h.1.s O % 1 0 r e 3 1 : o % , j +.y.p.h.h.a.h.h.e.C ,   O & 5 r u 0 e 0 8 % O $ 8 Y y.p.0.j O   O j.j.j.j.j.",
"    i h.h.h.h.h.h.h.h.h.-.l 1 O o & % O O O 8 f ~ 6.y.a.a.p.h.s.y.h.h.7.` l u - O O O o % % = - e V @.y.p.p.y.-.u O   j.j.j.j.j.",
"O   a h.h.h.h.h.h.h.p.h.h.9. .V l c b C L / $.7.y.p.p.y.a.p.y.s.h.h.y.h.0.0.&._ F b x N m m S [ :.0.h.p.y.h.h.p.I % O   j.j.j.j.",
"O o s h.h.p.y.h.h.p.h.p.h.p.h.p.h.h.p.p.p.h.h.h.h.p.p.p.a.h.s.h.h.p.h.h.h.h.h.p.y.h.h.p.p.h.h.p.h.p.h.p.p.p.h.h.2.8 O   j.j.j.j.",
"O   s p.h.h.p.h.h.p.h.h.p.h.y.h.p.p.h.y.h.h.y.h.p.h.p.h.y.p.s.h.p.h.p.h.p.h.p.p.h.h.p.h.h.p.p.h.p.h.h.p.h.h.h.h.h.c O   j.j.j.j.",
"O   i y.h.h.h.h.h.h.h.h.1.! -.h.h.h.h.h.h.s.h.s.s.p.s.h.s.h.h.y.h.p.h.h.p.h.p.h.p.h.h.p.p.h.h.p.h.h.h.h.h.p.h.h.h.` $ O   j.j.j.",
"  O w 1.p.h.h.h.p.h.p.h.A % m h.h.h.h.h.h.h.h.h.h.h.p.s.h.p.p.h.p.h.h.p.h.p.h.h.h.h.h.h.h.p.h.h.p.h.p.h.h.h.h.h.h.2.w     j.j.j.",
"  o 1 $.h.h.h.h.h.p.h.h.c O i 2.h.h.h.h.h.s.h.h.h.h.h.s.p.h.p.h.h.h.h.h.h.p.p.h.h.p.h.h.h.h.h.h.y.y.p.y.y.p.h.y.y.0.b O   j.j.j.",
"  O O  .h.h.h.p.h.h.h.h.Q % % n 7.h.h.p.h.h.h.h.h.s.h.h.h.p.h.h.p.h.h.p.h.h.p.h.h.p.p.h.p.h.y.2.-.X./ U c f k F 1.p.} % O   j.j.",
"O O   ` h.h.h.h.h.h.p.h.0.k   % j *.y.y.h.s.h.0.0.e.y.s.p.p.h.p.h.e.h.y.y.y.h.h.y.p.8.-.X.T k p r 5 $ $ O $ O % s >.2.8 o o j.j.",
"j.o o R h.h.h.h.h.h.h.h.h.*.g     t j F ~ ] { ..$.$.$.$.O.+.#.$.#.#.O.@. .! H C x h a y 8 $ o O o o $ $ 1 u t O O A e.s O   j.j.",
"O   O v h.h.h.h.h.h.p.h.h.h.-.l -   O % : : 1 1 e e 8 0 5 8 0 0 9 9 5 5 1 O o o & o   % & $ 8 s z V U ` +.-.U - O l y.N o   j.j.",
"j.O O s y.h.h.h.h.h.h.h.h.h.h.7.Y g r - O o   o o o O O       o   o   O O & 2 7 r a f l B / $.6.0.p.p.y.5.G 7 % , E 0.E o     j.",
"j.  O 1 -.s.h.h.h.h.h.h.s.h.s.h.h.p.:.| / U H A b v b m Z G V m N C J J R _ +.@.&.2.y.h.h.h.h.h.y.p.p.0.m : $ , A 8.p.$.3 O   j.",
"j.  O O J h.h.h.s.h.h.s.h.h.h.h.s.e.p.s.y.y.p.y.h.h.h.p.0.y.s.e.0.s.p.y.y.y.h.h.p.h.h.h.h.h.p.h.h.h.h.G O O w E 7.p.y.e.i   O j.",
"j.j.O   s e.h.h.h.h.h.h.h.h.h.s.h.s.h.h.s.s.s.h.h.h.h.h.h.h.h.h.h.h.h.h.h.y.h.h.h.h.h.h.h.p.h.h.h.h.y.u O e @.y.h.h.h.h.f     j.",
"j.j.    - ` h.h.h.s.h.h.s.h.h.h.h.h.s.s.h.h.h.h.h.h.h.h.h.h.h.y.h.h.h.h.h.h.h.h.h.h.h.h.h.h.h.h.h.h.#.< $ J e.y.p.h.h.h.b O   j.",
"j.j.      d 8.h.h.h.h.h.h.h.h.h.h.h.h.h.h.h.h.h.s.h.h.h.h.s.h.h.h.h.h.h.h.p.h.h.h.h.h.h.h.p.h.h.h.p.`   & o.h.h.h.h.h.h.L     j.",
"j.j.j.  O % ' s.h.h.h.s.s.h.h.s.h.s.h.s.s.s.s.h.h.h.h.s.h.h.h.h.p.h.p.h.h.h.h.h.p.h.h.p.h.h.h.p.h.h.E   O >.h.h.h.h.h.h._ O   j.",
"j.j.j.  O o f 7.h.h.h.h.h.h.h.h.h.s.h.s.h.h.h.h.h.h.h.h.s.h.h.s.h.h.h.h.h.h.h.h.h.h.h.h.h.h.h.h.h.h.L $ : 5.h.h.h.p.h.h.!     j.",
"j.j.j.j.    , ( h.h.s.h.h.h.s.h.h.h.h.h.h.h.h.h.h.h.h.s.h.h.h.h.p.h.h.h.h.h.h.h.h.h.h.p.h.h.h.p.h.h.A O 5 0.h.h.h.h.h.h.!   o   ",
"j.j.j.j.  +   s 0.h.h.h.h.h.s.h.h.h.h.h.h.h.h.s.s.h.h.h.h.s.h.h.h.h.h.h.h.h.h.h.h.h.h.h.h.h.h.h.h.h.k O a 0.h.h.h.p.h.h.H     j.",
"j.j.j.j.j.    - ` h.h.h.h.h.h.h.h.h.s.h.h.h.h.h.h.h.h.h.h.h.h.h.h.h.h.h.h.h.h.h.p.h.p.h.h.h.h.h.h.6.u   l h.h.h.h.h.h.h.c     j.",
"j.j.j.j.j.      d 0.s.h.h.h.h.h.h.h.h.h.h.h.h.s.h.h.h.h.h.h.s.s.h.h.h.h.h.h.h.h.h.h.h.h.p.h.h.p.0.$.,   R h.h.h.h.p.h.y.j O   j.",
"j.j.j.j.j.j.  O $ ] h.h.h.s.h.h.h.s.h.h.h.h.h.h.h.s.h.s.h.h.h.h.h.h.h.h.h.h.h.h.h.h.h.h.h.h.h.h.h.( o O +.h.h.h.h.h.h.y.a o O j.",
"j.j.j.j.j.j.  O o a 2.h.h.h.s.h.h.h.s.h.h.h.h.h.h.h.s.h.h.h.h.h.p.h.h.h.h.h.h.h.h.h.h.h.h.h.h.h.y.v O 8 2.h.h.h.p.h.h.1.8 o   j.",
"j.j.j.j.j.j.j.O   $ U h.h.h.h.h.h.h.h.h.h.h.h.h.h.h.h.h.h.h.h.h.h.h.h.h.h.h.h.h.h.h.p.h.h.h.h.h.2.e O k y.h.h.h.h.h.h.X.O     j.",
"j.j.j.j.j.j.j.j.O O i 0.h.h.h.h.h.h.h.h.h.h.s.h.h.h.h.h.h.h.5.| -.y.h.h.p.h.h.h.h.h.p.h.h.p.h.h.U   o ( p.h.p.h.h.h.y.F     j.j.",
"j.j.j.j.j.j.j.j.  o * Q h.h.h.s.h.h.h.s.h.h.h.h.h.h.h.h.s.h.G $ i &.h.h.h.h.h.h.h.h.h.h.h.h.h.0.i $ u 2.p.p.h.h.h.h.0.a o   j.j.",
"j.j.j.j.j.j.j.j.j.O   a >.h.h.h.h.h.h.h.s.h.s.h.h.h.h.h.h.h.B $ O f $.p.h.h.h.h.h.h.h.h.h.h.y.F % O L h.p.h.p.h.h.h.>.: o   j.j.",
"j.j.j.j.j.j.j.j.j.    O g 7.h.h.h.h.s.h.h.h.h.h.s.h.h.h.h.h.>.s O O 0 R 0.h.h.h.h.h.h.h.h.y.A &   s 7.h.y.h.h.p.h.p.I %     j.j.",
"j.j.j.j.j.j.j.j.j.j.  O % S 0.y.h.h.h.h.h.h.h.h.h.h.h.h.h.h.h.$.a & O - s L ] &.2.0.0.0.-.v = O 5 ] h.y.h.y.p.h.y.p.g O O j.j.j.",
"j.j.j.j.j.j.j.j.j.j.j.  o , T h.h.p.s.p.h.s.h.h.h.h.s.h.h.h.h.y.1.N 3     % - , i g g x i % = 5  .h.p.h.p.p.h.p.h.>., o   j.j.j.",
"j.j.j.j.j.j.j.j.j.j.j.    O 8 @.y.h.h.h.h.h.h.h.h.h.h.h.h.s.h.h.h.e...s 1 O % O %   O   O & a } h.h.p.h.h.p.h.p.h.K O   O j.j.j.",
"j.j.j.j.j.j.j.j.j.j.j.j.o     u X.h.h.h.h.h.h.h.h.h.s.h.h.h.h.s.h.h.y.0.} U V f w 1 3 3 8 m >.0.h.h.h.p.h.h.h.h.1.u o   j.j.j.j.",
"j.j.j.j.j.j.j.j.j.j.j.j.j.    o w ( e.y.h.h.h.h.s.h.h.h.h.h.h.h.h.h.h.h.h.y.y.y.2.:.>.@.1.h.h.h.p.h.h.h.h.h.e.y.n     o j.j.j.j.",
"j.j.j.j.j.j.j.j.j.j.j.j.j.j.    O 2 v @.e.h.h.h.h.h.s.h.h.s.s.h.h.h.h.h.p.h.p.h.0.h.h.y.p.p.h.h.h.h.h.p.h.h.y.K :     j.j.j.j.j.",
"j.j.j.j.j.j.j.j.j.j.j.j.j.j.j.    O O 3 U 2.y.h.h.h.h.h.h.h.h.h.h.h.h.h.h.p.h.y.p.h.h.h.h.h.h.h.h.h.h.h.h.y.E <     j.j.j.j.j.j.",
"j.j.j.j.j.j.j.j.j.j.j.j.j.j.j.j.    O O % i ` 7.h.h.h.h.h.h.h.h.h.h.h.h.p.h.h.h.h.h.h.p.h.h.h.h.h.h.h.h.h.( 1 O     j.j.j.j.j.j.",
"j.j.j.j.j.j.j.j.j.j.j.j.j.j.j.j.j.j.  O O O % s A ` 1.7.y.y.h.h.h.h.h.h.h.p.h.h.h.p.h.h.h.h.h.h.h.h.p.p.| 3       j.j.j.j.j.j.j.",
"j.j.j.j.j.j.j.j.j.j.j.j.j.j.j.j.j.j.j.j.  O O O % O < i M  .0.h.h.y.h.h.h.h.h.h.h.h.h.h.h.h.h.h.y.0.-.F 5 O     j.j.j.j.j.j.j.j.",
"j.j.j.j.j.j.j.j.j.j.j.j.j.j.j.j.j.j.j.j.j.j.          O O $ u j A / X.-.7.8.0.h.p.p.p.h.p.7.@.I m a : O O O o j.j.j.j.j.j.j.j.j.",
"j.j.j.j.j.j.j.j.j.j.j.j.j.j.j.j.j.j.j.j.j.j.j.j.          O   O o $ % , 5 i g v Z m n n l a - %   o o     O j.j.j.j.j.j.j.j.j.j.",
"j.j.j.j.j.j.j.j.j.j.j.j.j.j.j.j.j.j.j.j.j.j.j.j.j.j.j.j.    O       o     o   o O O O O   O   O o       j.j.j.j.j.j.j.j.j.j.j.j.",
"j.j.j.j.j.j.j.j.j.j.j.j.j.j.j.j.j.j.j.j.j.j.j.j.j.j.j.j.j.j.j.j.      O   o       O O O   O O     j.j.j.j.j.j.j.j.j.j.j.j.j.j.j."
};
