/* XPM */
static char *frame_30_delay_0_05s1763316731[] = {
/* columns rows colors chars-per-pixel */
"64 64 180 2 ",
"   c black",
".  c #010101",
"X  c #020202",
"o  c gray1",
"O  c #040404",
"+  c gray2",
"@  c #040406",
"#  c #060606",
"$  c #070707",
"%  c gray3",
"&  c #090909",
"*  c gray4",
"=  c #0B0B0B",
"-  c #0C0C0C",
";  c gray5",
":  c #0E0E0E",
">  c gray6",
",  c #101010",
"<  c #111111",
"1  c gray7",
"2  c #131313",
"3  c gray8",
"4  c #151515",
"5  c #161616",
"6  c gray9",
"7  c #181818",
"8  c #191919",
"9  c gray10",
"0  c gray11",
"q  c #1D1D1D",
"w  c #1E1E1E",
"e  c gray12",
"r  c #202020",
"t  c #222222",
"y  c #232323",
"u  c gray14",
"i  c #272727",
"p  c #282828",
"a  c #2A2A2A",
"s  c #2C2C2C",
"d  c #2D2D2D",
"f  c #2F2F2F",
"g  c gray19",
"h  c #313131",
"j  c #323232",
"k  c #323136",
"l  c gray22",
"z  c #3A3A3A",
"x  c #3D3C41",
"c  c gray28",
"v  c #494949",
"b  c #4A494E",
"n  c #4F4F50",
"m  c gray33",
"M  c #54535B",
"N  c gray35",
"B  c #5C5C5E",
"V  c #606060",
"C  c #626166",
"Z  c gray40",
"A  c #68676B",
"S  c gray42",
"D  c gray43",
"F  c #707072",
"G  c gray45",
"H  c #747378",
"J  c #787779",
"K  c gray48",
"L  c #7B7B7B",
"P  c #7C7C7C",
"I  c gray49",
"U  c #7E7E7E",
"Y  c gray50",
"T  c #808083",
"R  c #838384",
"E  c #868686",
"W  c gray53",
"Q  c #888888",
"!  c #898989",
"~  c gray54",
"^  c #8B8B8B",
"/  c #89888D",
"(  c gray55",
")  c #8D8D8D",
"_  c #8E8E8E",
"`  c gray57",
"'  c #939393",
"]  c gray58",
"[  c #959595",
"{  c #979699",
"}  c #9A9A9A",
"|  c gray61",
" . c gray62",
".. c #A0A0A0",
"X. c gray63",
"o. c #A2A2A2",
"O. c #A4A4A6",
"+. c #A7A6A7",
"@. c #A9A9A9",
"#. c #AAAAAA",
"$. c gray67",
"%. c #ACACAC",
"&. c #AEAEAE",
"*. c #ADADB0",
"=. c gray69",
"-. c #B2B2B2",
";. c #B4B4B4",
":. c gray71",
">. c #B6B6B7",
",. c #B8B7BA",
"<. c gray73",
"1. c #BCBCBC",
"2. c gray",
"3. c gray75",
"4. c #C0C0C0",
"5. c #C1C1C1",
"6. c #C3C3C3",
"7. c #C5C5C5",
"8. c #C6C6C6",
"9. c gray78",
"0. c gray79",
"q. c #CACACA",
"w. c gray80",
"e. c #CDCDCE",
"r. c gray81",
"t. c #D1D0D1",
"y. c #D2D2D2",
"u. c LightGray",
"i. c gray83",
"p. c #D5D5D5",
"a. c #D6D5D7",
"s. c #D8D8D8",
"d. c #DADADB",
"f. c #DCDBDC",
"g. c #DDDDDD",
"h. c #DFDFDF",
"j. c #DEDEE0",
"k. c #E1E0E1",
"l. c #E1E1E1",
"z. c #E2E2E2",
"x. c #E4E4E4",
"c. c #E6E5E6",
"v. c #E7E7E7",
"b. c #E6E5E9",
"n. c gray91",
"m. c #E9E9E9",
"M. c #EAEAEA",
"N. c #EBEAEB",
"B. c gray92",
"V. c #ECECEC",
"C. c gray93",
"Z. c #EEEEEE",
"A. c #EFEFEF",
"S. c gray94",
"D. c #F1F1F1",
"F. c gray95",
"G. c #F4F3F4",
"H. c #F4F4F4",
"J. c #F5F4F5",
"K. c gray96",
"L. c #F6F6F6",
"P. c #F7F6F7",
"I. c gray97",
"U. c #F8F8F8",
"Y. c #F9F8F9",
"T. c #F9F9F9",
"R. c #FAF9FA",
"E. c gray98",
"W. c #FBFAFB",
"Q. c #FBFBFB",
"!. c #F9F8FC",
"~. c #FCFBFC",
"^. c #FCFBFF",
"/. c gray99",
"(. c #FDFCFD",
"). c #FDFDFD",
"_. c #FEFDFF",
"`. c #FEFEFE",
"'. c white",
"]. c None",
/* pixels */
"].].].].].].].].].].].].].].].].].].].].                                      ].  ].].].].].].].].].].].].].].].].].].].].].].].",
"].].].].].].].].].].].].].].].].                                                    ].].].].].].].].].].].].].].].].].].].].].].",
"].].].].].].].].].].].].].                        O O   o o   o o o                       ].].].].].].].].].].].].].].].].].].].",
"].].].].].].].].].].].                          - 9 u j c c v j 6 = O $                     ].].].].].].].].].].].].].].].].].].",
"].].].].].].].].].].        O   % O 3 j m B Z =.g.F.J.P.P.K.K.J.C.l.u.%.( D m s % O   o           ].].].].].].].].].].].].].].].",
"].].].].].].].].      %     O f m V J ! ( W 4.F.Q.).).).~.).).).).Q.Q.).).).K.K.a.Y 9 %   O       ].].].].].].].].].].].].].].].",
"].].].].].].].          , f S ` Q ! ! W G B W Y Y G B n N N R o.O.4.N.U.Q.Q.P.Q.).~.v.( y O         ].].].].].].].].].].].].].].",
"].].].].].].        O u Z R ! ! P B f 3 % O O   o   O o o O $ o % - 9 u x n B Z K } +.%.} w           ].].].].].].].].].].].].].",
"].].].].      o O O x R ( ! C u % o O % $ - u f g l n m v v u 9 6 @ O O % % O $ % O % % % % O             ].].].].].].].].].].].",
"].].].].    o   - N ( ! K k % o O % u v S Q d.C.S.C.G.K.K.K.C.x.k.<.| T Z m m x f 9 > , - % O       o     ].].].].].].].].].].].",
"].].].    o   f D ! ! S , O $ u n K R W ! ( +.C.~.).).).).).).).).).).).Q.K.K.F.x.N.l.e.u.u.<.[ S y % o o   ].].].].].].].].].].",
"].].      o k Y W T x % O - v R ^ ^ ^ ] ( ^ ( | f.).).).).).).).).).).).).).).).~.Q.Q.K.F.C.K.K.P.s.j O o     ].].].].].].].].].",
"].        f W W W j O $ s A ^ ( ^ ! ! ! W R R Y P 3.Q.~.).).).).).).).).).).Q.Q.C.$.D c y y z v Y l.3., O   O ].].].].].].].].].",
"].      9 R ( ' i O O z R Q ^ ^ ( ^ Y b l 9 , - 0 j ! N.).).).).).).).).).).Q.%.f $ O -       O O f 9.! $ O     ].].].].].].].].",
"    O $ D ` ^ ^ f > m ! W ! W W G v w $ $ = o o O % - j  .).)./.).).).).).Q.T , % % k V R R S m 5 O u -.x O       ].].].].].].].",
"    @ r ( ( ! ! P Y ! W Q Q W Z u % % O k N Y ! V a % O 3 | /.).).).).).).8., O v ,.N.K.).~.Q.F.$.5 o B | ,       ].].].].].].].",
"      n ( ! ! ! ! ! ! ( ( ( Y j O % z -.N.Q.Q.K.F.d.| r O u a.U.).).).).~.V $ x x.).).).).f.<.j.K.C - f { Y o       ].].].].].].",
"O O $ K ! ( ! ! ! W ! ! ( ( Z 5 % D x.K.Q.K.u.4.N.Q.U.>.2 % Y Q.).).).).).u O | ).).)./.` a 3 c V.*.O - Y >.f o o o   ].].].].].",
"O   5 W ! ^ ! W ! ! ! ! ` ! c O w d.).).l.V u - B U.).).n O x C.).).).).Q.5 - 4.Q.).K.r.9   o % 9.0.- 5 K %.%.% o     ].].].].].",
"O O w ! ! W ! ! ! ! ! ! ! T c   f Q.Q.~.A % O   5 h.).F.z O j l.).).).).K.y O R J.Q.).Y O O   % u.$.% 5 Y ` F.N O   o   ].].].].",
"    i ! ! ! ! W ! ! ! ! ! G m O 9 e.).~.x @   $ z H.x.G O O - a.).).).).~.G O > R J.Q.W $ % 0 ( u.j % f ` ( F.l.g o   o ].].].].",
"    a W ! ! ! ! ! ! ! ! ! G C ,   b F.~.<.j w v 3...j - O O   e.).).).).).i.% % $ B r.x.+.| r.$.j O - Z v G C.Q.X.=       ].].].",
"  O i ! W ! ! W ( ! ! ! ! D x x O % D 3.s.%.( ( x - o O o o   a.).).).).).K.c $ O @ w x D Y c =   - m z   j F.~.V.y o     ].].].",
"O   i W ! ! ! ! ! ! ! ! ( x O j a % O 9 w w = % O   q f o o z K.).).).).).).-.y O   %   O $ O - y Z B % % m F.).Q.G O       ].].",
"  O y ( ! ! ! ! W ! ! ! ! v O % x j , - O % % - r c m 9   % %.).).).).).).).Q.` 9 O   O 5 0 s N L W s O u | ).).).>.O O     ].].",
"O   9 W ! ! ! ! ! ! ! ! ! T y   5 B M n c c B B C N 9 O O c l.).).).).).).).).F.G ,   $ 5 v P W Y v % u F s.).).).G.y O     ].].",
"  O - K ! ! ! ! ! ! ! ! ( ! D , % u M A Z D S C c 5 O O z K F.).).).).).).).).).a.A y $   - w u w   $ S +.J.).).).).D $   o @ ].",
"o o O G ^ ! ! ! ! ! ! ! ( ! W m =   - x 9 y r 7 % O O a A | K.).).).).).).).).).).e.W B w   O   o % j ! x.Q.).).).).8.% O     ].",
"  O   Z ! ^ ! ^ ! ! ! ^ ! ! ( Q v - , a   O   O O 5 c A Y 7.).).).).).).).).).).).).<.( Y B z k z Z +.k.).).).).).).C.w o     ].",
"O O o m ^ ! ! ! ! ^ ^ ! ( ( _ ( ! D m V f w y y x B G Y } F.).).).).).).).).).).).).P.9.+.} ` $.4.x.Q.P.).).).).).).U.c O   o ].",
"  O   z ! ^ ! ^ ^ ! ^ ! ( ! ( ^ ( ( Y S D D A S K W T ' s.~.).).).).).).).).).).).).).).Q.J.C.K.~.).).).).).).).).).).K   o   ].",
"    o a ( ! ! ! ! ^ ! ^ T m 4.{ ( ( ! Q T R R W ! ( } g.Q.).).).).).).).).).).).).).).).~.).).).).).).).).).).).).).).*.O O     ",
"o     - R Q ^ ! ! ^ ! Q j O [ +.^ ! ( ! W W W Y ! 3.x.).).).).).).).).).).).).).).).).).).).).).).).).).).).).).).).).j.,   @   ",
"        N Q ! ( ! ! ! A % % -.} +.,._ ( R W { X.u.Q.).).).).).).).).).).).).).).).).).).).).).).).).).).).).).).).).).K.z O     ",
"].      u W ! ! ( ` R s % z x.{ x.Q.s.-.<.e.N.).).).).~.).).).).).).F.~.).).).).).).Q.Q.).Q.~.).).).).).).).).).).).).).m O   O ",
"].      % S ( ( ! ( K % % X.N.$.K.U.).).)./.Q.~.).).K.S.l.0.-.( D B m N B V G G J [ >.<.>.7.i.d.S.).).).).).).).).).).).J %     ",
"].      o a ( ! ! ` v O u V.C.u.).).).).~.K.f.4.( K V z a 9 O o O O O O O O % O % O % % - - w a z Z | r.0.K.).).).).).).[   o   ",
"].].      % D W ^ ! a % S ).N.N.).).x.e.X.N s - @   @ O O   , y j x v v z z f j f w , , - O O   O O O w v %.Q.).).).).).,.O     ",
"].].    o   f ! W ( , O X.).n.K.0.Y j , % o O , 0 f x V Y | 3.l.K.Q.Q.K.F.K.N.N.x.a.<.3.3.%.W G n a , O o 0 ,.).).).).).>.o     ",
"].].].      % A ` Y = % 8.Q.6.V 9 O O % 6 k Y %.s.N.C.U.).K.).).).).).).).).).).).).).).).).Q.Q.Q.l.4.B 5 @ u l.).).).).+.O O   ",
"].].].      O a W S % 2 f.+.w O O y N %.u.A.Q.).).).).).).).).).).).).).).).).).).).).).).).).).).).).J.-.5   Y ).).).).|       ",
"].].].].  o   O A B % , C.V $ e T u.Q.Q.).Q.).~.).).).).).).).).).).).).).).).).).).).).).).).).).).).).G.m O v ).).).).G O     ",
"].].].].        j B o 9 N.a.^ u.~.).Q.).~.).).).).U.Q.Q.).).).).Q.).).).).).).).).).).).).).).Q.Q.F.g.a.( w % T ).).).).m O O   ",
"].].].].].    o - n O % 4.)./.).).).Q.).~.Q.Q.C.j.0.<.$.%.<.3.3.3.8.F.).).).).).).).).).).).U.8.A c y 5 O   y d.).).~.K.z O     ",
"].].].].].    O o y 3 o C C.).V.~.).~.~.F.w.<.| _ _ ^ ^ ^ _ / W W ! w.).).).).).).).).).).).3.9 O   O - , f ( ).).).).N.y       ",
"].].].].].].    O % e o , | F.4.f.).~.d.X.` ( W ( _ ^ ^ ^ ^ ^ ^ ! W 0.).).).).).).).).).).C.f O 5 v G [ >.| N.).).).Q.8.O O     ",
"].].].].].].  O O o 6 y   w %.%.` 6.9.( _ ( ( ^ _ _ ( ( _ ( ^ ^ ! ! $.).).).).).).).).).Q.( @ - X.J.~.).g.0.).).).).Q.!   %   ].",
"].].].].].].].    o % n , $ , z ! ( ( ` ( ( ( ( ( _ ^ ( ( ( ^ / ! ! { g.).).).).).).).).u.0 O Z K.Q.).).K.K.).).).).K.v O O   ].",
"].].].].].].].    O o y B 5 O 3 R ^ ! ( ( _ ! ! ( ^ _ ^ ^ ^ ' W ( ! ( | B.Q.).).).).~.F.m % 6 i.).).).).).).).).).).v., @ o   ].",
"].].].].].].].].    O O k J b S ^ / ^ ^ _ ( ! ! ( ( ) ) ! ! ( V J Q ( ( [ u.Q.).).).K.| - % ( ).).).).).).).).).).).| O       ].",
"].].].].].].].].].    O % v W W ^ ^ ( ( _ ( ( ( ( ( ) ) W W B % , a x D Y W ..<.4.%.S 3   v S.).).).).).).).).).).~.n       ].].",
"].].].].].].].].].      O % B W W ^ ( ( ( _ ( ( _ _ / ^ ^ Q A - %   % O - r a u y , $ $ u e.).).).).).).).).).).).v.3 @ @   ].].",
"].].].].].].].].].].    O O , G ( W ^ ^ ( ( ! ! ! / ( ( _ ^ ( D z w , O O   O       O a 4.Q.).).).).).).).).).).).[ O       ].].",
"].].].].].].].].].].].  o     9 G W ( ^ ` ( ! ! ^ W ( _ ( / W ! [ ! P V c k a y j x V [ ).).).~.).).).).).).).).C.z o o   ].].].",
"].].].].].].].].].].].].      O w Z ( W ( ( ( ( / W / ( ^ _ / ( ( ( ( ( ` ` ^ ^ ^ ^ ! +.).).).).).).).).).).).).K   o     ].].].",
"].].].].].].].].].].].].].      o $ x G ! ^ ( ( / / ( ( ^ _ / ^ ( ( ( ( ( ^ ^ ^ ( ! Q 9.).).).).).).).).).).).| , O     ].].].].",
"].].].].].].].].].].].].].].      o   - m ! ( ( ^ ^ _ / ( ( / ! ` ( ^ ( ( / Q / / ! { K.).).).).).).).).).).+., o       ].].].].",
"].].].].].].].].].].].].].].].    O O O   y Z ! / ^ ^ _ ^ ( ^ ^ ( ( ^ ( Q Q / / / / g.~.).).).).).).).).).<.6         ].].].].].",
"].].].].].].].].].].].].].].].].          O % y b Z P W ^ ^ ^ ! ^ ! / ! / ^ / ^ ( <.Q.).).).).).).).).K.0.e o       ].].].].].].",
"].].].].].].].].].].].].].].].].].].  o O O O o     ; e b J ^ ! / ^ / ^ ! / ! ^ } F.).).).).).).).Q.l.( 9 O       ].].].].].].].",
"].].].].].].].].].].].].].].].].].].].].    o     O o O O O 6 k n C D P ! ( ` ` d.Q.~.~.).U.a.X.K x , O O   o   ].].].].].].].].",
"].].].].].].].].].].].].].].].].].].].].].              o O o O $ O   O 3 0 j B ^ Y G G Z x - O O   O O       ].].].].].].].].].",
"].].].].].].].].].].].].].].].].].].].].].].].].              o o o   o   o     o   @     O O               ].].].].].].].].].].",
"].].].].].].].].].].].].].].].].].].].].].].].].].].].].              o o O   o   o       O   O   O     ].].].].].].].].].].].]."
};
