/* XPM */
static char *frame_28_delay_0_05s1763316731[] = {
/* columns rows colors chars-per-pixel */
"64 64 170 2 ",
"   c black",
".  c #010101",
"X  c #020202",
"o  c gray1",
"O  c #040404",
"+  c gray2",
"@  c #040406",
"#  c #060606",
"$  c #070707",
"%  c gray3",
"&  c #090909",
"*  c gray4",
"=  c #0B0B0B",
"-  c #0C0C0C",
";  c gray5",
":  c #0E0E0E",
">  c #101010",
",  c #111111",
"<  c gray7",
"1  c #131313",
"2  c gray8",
"3  c #151515",
"4  c #161616",
"5  c gray9",
"6  c #181818",
"7  c #191919",
"8  c gray10",
"9  c gray11",
"0  c #1D1D1D",
"q  c gray12",
"w  c #202020",
"e  c #222222",
"r  c #232323",
"t  c gray14",
"y  c gray15",
"u  c #272727",
"i  c #282828",
"p  c #2A2A2A",
"a  c #2C2C2C",
"s  c #2D2D2D",
"d  c gray19",
"f  c #313131",
"g  c #323232",
"h  c #323136",
"j  c gray22",
"k  c #3A3A3A",
"l  c #3D3C41",
"z  c gray28",
"x  c #494949",
"c  c #4A494E",
"v  c #4F4F50",
"b  c gray33",
"n  c gray35",
"m  c #5C5C5E",
"M  c #606060",
"N  c #626166",
"B  c gray40",
"V  c #68676B",
"C  c gray42",
"Z  c gray43",
"A  c #707072",
"S  c gray45",
"D  c #787779",
"F  c gray48",
"G  c #7B7B7B",
"H  c gray49",
"J  c #7D7C7F",
"K  c #7E7E7E",
"L  c gray50",
"P  c #808083",
"I  c #838384",
"U  c #868686",
"Y  c #898989",
"T  c gray54",
"R  c #8B8B8B",
"E  c gray55",
"W  c #8D8D8D",
"Q  c #8E8E8E",
"!  c gray57",
"~  c #939393",
"^  c gray58",
"/  c #959595",
"(  c #979699",
")  c #9A9A9A",
"_  c #9A999E",
"`  c gray61",
"'  c gray62",
"]  c #A0A0A0",
"[  c gray63",
"{  c #A2A2A2",
"}  c #A4A4A6",
"|  c #A7A6A7",
" . c #A9A9A9",
".. c #AAAAAA",
"X. c gray67",
"o. c #ACACAC",
"O. c #AEAEAE",
"+. c #ADADB0",
"@. c gray69",
"#. c #B2B2B2",
"$. c gray70",
"%. c gray71",
"&. c #B6B6B7",
"*. c #B8B7BA",
"=. c gray73",
"-. c gray74",
";. c gray",
":. c #C0C0C0",
">. c #C1C1C3",
",. c #C3C3C3",
"<. c #C3C2C5",
"1. c #C6C6C6",
"2. c gray78",
"3. c #C8C8C8",
"4. c #CACACA",
"5. c #CDCDCE",
"6. c gray81",
"7. c #D1D0D1",
"8. c #D2D2D2",
"9. c LightGray",
"0. c #D5D5D5",
"q. c #D6D5D7",
"w. c #D8D8D8",
"e. c #DCDBDC",
"r. c #DDDDDD",
"t. c #DFDFDF",
"y. c #E1E0E1",
"u. c #E1E1E1",
"i. c #E2E2E2",
"p. c gray89",
"a. c #E4E4E4",
"s. c #E6E5E6",
"d. c #E6E5E9",
"f. c #E7E7E9",
"g. c gray91",
"h. c #E8E8EA",
"j. c #EAEAEA",
"k. c gray92",
"l. c #EAE9EC",
"z. c #ECEBEE",
"x. c #EDECED",
"c. c #EEEEEE",
"v. c #EFEFEF",
"b. c gray94",
"n. c #F1F1F1",
"m. c gray95",
"M. c #F4F3F4",
"N. c #F4F4F4",
"B. c gray96",
"V. c #F6F6F6",
"C. c #F7F6F7",
"Z. c gray97",
"A. c #F6F5F8",
"S. c #F8F7FA",
"D. c #F8F8F8",
"F. c #F9F8F9",
"G. c #FAF9FA",
"H. c gray98",
"J. c #FBFAFB",
"K. c #FBFBFB",
"L. c #F9F8FC",
"P. c #FAFAFE",
"I. c #FCFBFC",
"U. c #FCFBFF",
"Y. c #FDFCFD",
"T. c #FDFDFD",
"R. c #FEFDFF",
"E. c #FEFEFE",
"W. c white",
"Q. c None",
/* pixels */
"Q.Q.Q.Q.Q.Q.Q.Q.Q.Q.Q.Q.Q.Q.Q.Q.Q.Q.Q.Q.                                      Q.  Q.Q.Q.Q.Q.Q.Q.Q.Q.Q.Q.Q.Q.Q.Q.Q.Q.Q.Q.Q.Q.Q.Q.",
"Q.Q.Q.Q.Q.Q.Q.Q.Q.Q.Q.Q.Q.Q.Q.Q.                                                    Q.Q.Q.Q.Q.Q.Q.Q.Q.Q.Q.Q.Q.Q.Q.Q.Q.Q.Q.Q.Q.Q.",
"Q.Q.Q.Q.Q.Q.Q.Q.Q.Q.Q.Q.Q.Q.                    O O O O   O   o O O                       Q.Q.Q.Q.Q.Q.Q.Q.Q.Q.Q.Q.Q.Q.Q.Q.Q.Q.Q.",
"Q.Q.Q.Q.Q.Q.Q.Q.Q.Q.Q.                          % 6 a g z z x g 6 % O %                     Q.Q.Q.Q.Q.Q.Q.Q.Q.Q.Q.Q.Q.Q.Q.Q.Q.Q.",
"Q.Q.Q.Q.Q.Q.Q.Q.Q.Q.        O   O   1 j A {  .=.t.x.N.K.V.V.K.V.x.i.8.o.P Z b p % O   O           Q.Q.Q.Q.Q.Q.Q.Q.Q.Q.Q.Q.Q.Q.Q.",
"Q.Q.Q.Q.Q.Q.Q.Q.      O     % s b C R ] x.b.e.e.4.5.9.a.s.V.D.Z.T.Z.J.T.T.T.V.V.q.K e O   O       Q.Q.Q.Q.Q.Q.Q.Q.Q.Q.Q.Q.Q.Q.Q.",
"Q.Q.Q.Q.Q.Q.Q.        O % j S ! ! ! E I c 7 : : : - : : > e g v G ! _ { %.t.x.n.V.M.s.Q w O         Q.Q.Q.Q.Q.Q.Q.Q.Q.Q.Q.Q.Q.Q.",
"Q.Q.Q.Q.Q.Q.        O p S / / / Q m r - O # O O O # o % # O   O o % O O = > w p g z C ' _ s           Q.Q.Q.Q.Q.Q.Q.Q.Q.Q.Q.Q.Q.",
"Q.Q.Q.Q.      O O > v Q ( ! T v 9   O % z (  .@.;.6.;.@.{ T A b a q 4 4 % % O o O O O % O O O           Q.Q.Q.Q.Q.Q.Q.Q.Q.Q.Q.Q.",
"Q.Q.Q.Q.  O     : m ' ~ E x 1 o O O g U x.V.T.V.T.T.T.T.T.T.T.V.x.k.k.k.w.%.Q W P N k > : % o       O     Q.Q.Q.Q.Q.Q.Q.Q.Q.Q.Q.",
"Q.Q.Q.        s K ! ( A i     1 l S ! / e.K.K.T.I.T.T.T.T.T.T.T.T.T.I.T.T.T.T.K.K.A.k.s.5.=.| } P s % O     Q.Q.Q.Q.Q.Q.Q.Q.Q.Q.",
"Q.Q.      O k ! ! T z % o : l T ) ) / ^ ' x.K.T.T.T.T.T.T.T.T.T.T.T.T.T.T.T.T.T.K.J.2.| T ' *.i.A.e.g O       Q.Q.Q.Q.Q.Q.Q.Q.Q.",
"Q.      O g ! / I r % % p S ~ ` ) ) ) ) U ( 4.w.v.S.K.I.T.T.T.T.T.T.T.T.T.T.K.V.@.l 0 % % : 2 7 m 5.1.1 O   O Q.Q.Q.Q.Q.Q.Q.Q.Q.",
"Q.      u ! / / p O > x U ) ` ~ ^ ( S k : : 2 7 p v ( a.T.T.T.T.T.T.T.T.T.T.5.b 4 O   = 7 > % O # 4 ) T %   :   Q.Q.Q.Q.Q.Q.Q.Q.",
"    O % Z / ~ T 4 4 C ! ~ / ' / I l :   % % O O O o O a Q V.T.T.T.T.T.T.T.1.r O   g ~ 8.i.y.*.A 4 # > 1.l         Q.Q.Q.Q.Q.Q.Q.",
"    O w Q ( ^ ! Z Z ~ ( / / / F t   O e F =.;.{ K b > O > S T.T.T.T.T.T.I.b O 7 U e.T.J.I.T.I.V.1.0 O Z ;.>       Q.Q.Q.Q.Q.Q.Q.",
"      b ! / / ~ ~ / ! / / / ! u   7 I e.n.S.K.n.V.b.=.x O : %.T.T.T.T.T.t.> O ) T.T.T.T.n.2. .2.V./   u s.F o       Q.Q.Q.Q.Q.Q.",
"O O % P ~ ~ / / / ! / / / / B % 4 *.V.K.K.8.K b ] K.K.s.z   m Z.T.T.T.T. .  0 k.T.T.T.n.C w : 2 ) q.4 %  .k.g o   o   Q.Q.Q.Q.Q.",
"O   4 ! / / ~ ~ / / / ! ^ / k O n T.K.V./ e     1 t.T.K.E O l n.T.T.T.T.E O g T.T.T.A.} O O O % j w.% % Q n.o.% O o   Q.Q.Q.Q.Q.",
"O O 0 ( / ~ ~ / / / / / / / t   / K.K.8.: o $   4 t.T.n.l O c K.T.T.T.T. .% > ' K.T.T.B   % O O G ) O : ) k.V.n O   o   Q.Q.Q.Q.",
"    u ( / / ~ ~ / / / ~ / _ t o c T.I.8.> % O 2 / V.w.C O O a x.T.T.T.T.x.g % : A t.n.o.g s z ~ &.r % l ( k.K.e.g O o   Q.Q.Q.Q.",
"    p ( / ~ ~ / ~ ~ / / ~ ( b O $ A M.M.$.F U $.*.B u :   O p n.T.T.T.T.I.4.0 % % e j b G S C v e O > Z r Z V.K.{         Q.Q.Q.",
"  O s ( / ~ / ~ / / / / / D v a O > C  .&.&.S p > % O % O % A T.T.T.T.T.T.T.) : o o O O O   % O   4 D v % k J.T.n.r o     Q.Q.Q.",
"O   u ( / / ~ / / / / ~ Q e % v g $ % : : - % O O 6 k p   > 1.T.T.T.T.T.T.T.x.F o   $ 7 9 0 0 p x G G > % P K.T.T.Z         Q.Q.",
"o o e ) / / / / / / / / / s   w B l 7 : : $ 1 g v Z z % : m T.T.T.T.T.T.T.T.T.s.z O   s A Q ' _ ' _ b O s z.T.T.T.@.O O     Q.Q.",
"  o 7 / / / / / / / / / / S % o p Z C M M n V D S z : O u 8.T.T.T.T.T.T.T.T.T.T.i.v   : 0 m R K c d Z l >.T.T.T.T.k.r o     Q.Q.",
"o O : U / / / / / / / / ~ ! v O % s Z A m B m l e % O 7 { T.T.T.T.T.T.T.T.T.T.T.T.k.N > O O : : O % J 9.T.T.T.T.T.T.Z %   O O Q.",
"    O K / / / / / / / / ) ~ W z % % b b = > 4 O     e U x.T.T.T.T.T.T.T.T.T.T.T.T.T.e.T g % O % 4 b w.T.T.T.T.T.T.T.:.% O     Q.",
"o O   A / ~ / / / ~ ( / / / / ! n k Z b % O o % e v P >.T.T.T.T.T.T.T.T.T.T.T.T.T.T.T.s.o.I A U  .h.T.T.T.T.T.T.T.T.h.0   O   Q.",
"o O o M ~ ~ ~ / / / ( / / / / / ~ / Q D n z x m G T =.V.T.T.T.T.T.T.T.T.T.T.T.T.T.T.I.T.J.M.n.K.T.T.T.T.T.T.T.T.T.T.S.x O     Q.",
"  o O z ( / / / / / / ~ ) ' ' ( / ~ / ~ T ~ ! ( ' =.v.T.T.T.T.T.T.T.T.T.T.T.T.T.T.T.T.T.T.I.T.T.T.T.T.T.T.T.T.T.T.T.T.F   O   Q.",
"    o p ! ) / / / / / U x $.t.%.| | { { {  .2.i.x.K.T.T.T.T.T.T.T.T.T.T.T.T.T.T.T.T.T.T.T.T.T.T.T.T.T.T.T.T.T.T.T.T.T.+.O   O   ",
"      : T ' / / / / ! j O Z K.T.n.n.x.x.n.K.T.T.T.T.T.T.T.T.T.T.T.T.T.T.T.T.T.T.T.T.T.T.T.T.T.T.T.T.T.T.T.T.T.T.T.T.T.i.7       ",
"        M ~ / / / / Z % -  .K.I.K.K.K.I.T.T.T.T.T.T.T.T.T.T.T.T.T.T.T.T.T.T.T.T.T.T.T.T.T.T.T.T.T.T.T.T.T.T.T.T.T.T.T.J.j   O   ",
"Q.      a / / / ~ ! t O z V.J.T.K.I.T.T.T.T.I.T.T.T.T.I.T.T.I.T.V.n.K.T.T.T.T.T.T.J.N.M.T.T.T.T.J.T.T.T.T.T.T.T.T.T.T.T.b o     ",
"Q.      % Z / / ~ C % : =.T.J.I.T.T.T.T.T.K.K.K.n.s.8.:. .( P m z z m m m M C Z B b x x b N A P | >.k.T.T.T.T.T.T.T.T.T.A % O   ",
"Q.      o a ! ! / k   b K.S.K.K.T.T.T.T.t.%.F z g a 9 : O O % O O O O O   O % O O O O % O O O % o 3 h J t.L.T.T.T.T.T.T./   o   ",
"Q.Q.      O Z ! ( p % R K.K.K.I.T.z.2.S g O   o o o o o : 7 e j x x g g g g s s g l x x k g s u 3 % o % l 2.L.T.T.T.T.T.*.O     ",
"Q.Q.    o o s ! / 4 %  .K.K.t.} Z g > O % % p x n S Q | <.4.e.n.T.K.n.x.x.n.k.k.n.M.K.T.x.x.s.e.>.[ v = o w *.I.T.T.T.T.%.o     ",
"Q.Q.Q.      = A ( 4 %  .e.K d : O O O 7 n } i.D.A.T.A.T.T.T.T.T.T.T.T.T.T.T.T.T.T.T.T.T.T.T.K.I.J.J.k.! 9 o r e.T.T.T.T.+.o o   ",
"Q.Q.Q.  o   O a ( u % ( M % % > p B ' q.N.T.T.T.T.T.T.T.T.T.T.T.T.T.T.T.T.T.T.T.T.T.T.T.T.T.T.T.T.T.T.T.=.4   ~ T.T.T.T./ O     ",
"Q.Q.Q.Q.      O D j o A D e m ;.g.S.T.T.T.T.T.T.T.T.T.T.T.T.T.T.T.T.T.T.T.T.T.T.T.T.T.T.T.T.T.T.T.T.T.T.k.k % F T.T.T.T.S O     ",
"Q.Q.Q.Q.        k x   l V.i.J.T.T.T.T.T.T.T.T.T.T.T.T.T.T.T.T.T.T.T.T.T.T.T.T.T.T.T.T.T.T.T.T.J.n.e.>.o.m % %  .I.T.T.T.m O     ",
"Q.Q.Q.Q.Q.  o   = b % 7 e.T.I.T.T.T.T.T.T.T.T.T.T.T.T.T.T.T.T.T.T.T.T.T.T.T.T.T.T.T.T.T.T.T.J.p.m 7 % =   = b x.T.T.I.I.k   O   ",
"Q.Q.Q.Q.Q.    o O 0 7 % B V.T.T.T.T.T.T.T.T.T.K.T.V.M.M.n.K.V.D.T.T.T.T.T.T.T.T.T.T.T.T.T.T.v.l O : : > s F f.T.T.T.T.f.0 o     ",
"Q.Q.Q.Q.Q.Q.    O O s O : } I.T.T.T.T.T.T.T.V.w.*.@.}  .@.&.%.,.q.s.T.T.T.T.T.T.T.T.T.T.T.T.A % % S $.@.f.J.T.T.T.T.T.4.O O     ",
"Q.Q.Q.Q.Q.Q.  O O O 7 u O 7  .T.T.T.T.T.T.k.@.) / / / / / / / / / ' V.T.T.T.T.T.T.T.T.T.J.1.> o C T.I.T.T.T.T.T.T.T.T.R   %   Q.",
"Q.Q.Q.Q.Q.Q.Q.    O % n e O M T.T.T.T.T.e.{ / / / / / / / / / / / / e.T.T.T.T.T.T.T.T.T.A.b % g s.T.T.T.T.T.T.T.T.T.Z.x   o   Q.",
"Q.Q.Q.Q.Q.Q.Q.    O O u D v &.T.I.T.K.4./ / / / / / / / / / ! ( ) / @.V.T.T.T.T.T.T.K.D.{ O = { T.T.T.T.T.T.T.T.T.T.f.: o     Q.",
"Q.Q.Q.Q.Q.Q.Q.Q.    O % g ~ _ :.t.t.@.) / / / / / / / / / / U b A ^ / t.T.T.T.T.T.T.V.{ 7 % b x.T.T.T.T.T.T.T.T.T.T.| O   o   Q.",
"Q.Q.Q.Q.Q.Q.Q.Q.Q.    O % b ! ) ) / / / / / / / / / / / / / g % % p B ) t.T.K.S.K.5.V %   s q.T.T.T.T.T.T.T.T.T.T.T.v   o   Q.Q.",
"Q.Q.Q.Q.Q.Q.Q.Q.Q.      O % M ) / / ! / / / / ( / / / / / / m 1 % o O 1 k A U U N 0 O % k 6.T.T.T.T.T.T.T.T.T.T.T.k.1 o o   Q.Q.",
"Q.Q.Q.Q.Q.Q.Q.Q.Q.Q.      O > F ) / / / / / / / / / / / / / ! I m 9 : O o   O $ O   e K s.J.T.T.T.T.T.T.T.T.T.T.T./ O       Q.Q.",
"Q.Q.Q.Q.Q.Q.Q.Q.Q.Q.Q.  O     7 K ~ ~ / ~ ~ / / / / / / / / ! / / ! A x g 0 > u k F q.V.T.K.I.T.T.T.T.T.T.T.T.T.k.g o o   Q.Q.Q.",
"Q.Q.Q.Q.Q.Q.Q.Q.Q.Q.Q.Q.  o o   4 A ) ( / / / / / / / / / / / / / / / / / / ! *.A.T.T.I.T.T.T.T.T.T.T.T.T.T.T.K.J o o     Q.Q.Q.",
"Q.Q.Q.Q.Q.Q.Q.Q.Q.Q.Q.Q.Q.      o : z K / / / / / / / / / / / / / / / / / / / 4.T.T.T.T.T.T.T.T.T.T.T.T.T.T.T.] : O     Q.Q.Q.Q.",
"Q.Q.Q.Q.Q.Q.Q.Q.Q.Q.Q.Q.Q.Q.      o o 4 n ! ! ` ) ) ) ) ) ) / / / / / / / / / e.T.T.T.T.T.T.T.T.T.T.T.T.T.T. .3         Q.Q.Q.Q.",
"Q.Q.Q.Q.Q.Q.Q.Q.Q.Q.Q.Q.Q.Q.Q.        O o e F ( ) ) ) ) ) ) / / / / / / / / { x.T.T.T.T.T.T.T.T.T.T.T.T.T.*.>         Q.Q.Q.Q.Q.",
"Q.Q.Q.Q.Q.Q.Q.Q.Q.Q.Q.Q.Q.Q.Q.Q.          o % s c A U ! ) ! ~ / / / / / / / 4.T.T.T.T.T.T.T.T.T.T.T.K.K.8.0 o       Q.Q.Q.Q.Q.Q.",
"Q.Q.Q.Q.Q.Q.Q.Q.Q.Q.Q.Q.Q.Q.Q.Q.Q.Q.o o O o O o   % : 0 z K ) ~ / / / / ! %.n.T.T.T.T.T.T.T.T.T.T.K.i.Q 7 O       Q.Q.Q.Q.Q.Q.Q.",
"Q.Q.Q.Q.Q.Q.Q.Q.Q.Q.Q.Q.Q.Q.Q.Q.Q.Q.Q.Q.    o     o   o O O 0 k m S L P @.s.K.K.T.J.I.I.T.n.q. .T k 4 O O   o   Q.Q.Q.Q.Q.Q.Q.Q.",
"Q.Q.Q.Q.Q.Q.Q.Q.Q.Q.Q.Q.Q.Q.Q.Q.Q.Q.Q.Q.Q.            o o O o O O O O O 7 k b A T L S S Z z : %     O         Q.Q.Q.Q.Q.Q.Q.Q.Q.",
"Q.Q.Q.Q.Q.Q.Q.Q.Q.Q.Q.Q.Q.Q.Q.Q.Q.Q.Q.Q.Q.Q.Q.Q.              o o o   o o     o O   O         O O   O       Q.Q.Q.Q.Q.Q.Q.Q.Q.Q.",
"Q.Q.Q.Q.Q.Q.Q.Q.Q.Q.Q.Q.Q.Q.Q.Q.Q.Q.Q.Q.Q.Q.Q.Q.Q.Q.Q.Q.              o   O o     O       O O           Q.Q.Q.Q.Q.Q.Q.Q.Q.Q.Q.Q."
};
