/* XPM */
static char *frame_10_delay_0_05s1763316729[] = {
/* columns rows colors chars-per-pixel */
"64 64 170 2 ",
"   c black",
".  c #010101",
"X  c #020202",
"o  c gray1",
"O  c #040404",
"+  c gray2",
"@  c #060606",
"#  c #070707",
"$  c gray3",
"%  c #090909",
"&  c gray4",
"*  c #0B0B0B",
"=  c #0C0C0C",
"-  c gray5",
";  c #0E0E0E",
":  c gray6",
">  c #101010",
",  c #111111",
"<  c gray7",
"1  c #131313",
"2  c gray8",
"3  c #151515",
"4  c #161616",
"5  c gray9",
"6  c #181818",
"7  c #191919",
"8  c gray10",
"9  c gray11",
"0  c #1D1D1D",
"q  c #1E1E1E",
"w  c gray12",
"e  c #202020",
"r  c #222222",
"t  c gray14",
"y  c gray15",
"u  c #272727",
"i  c #282828",
"p  c #2A2A2A",
"a  c #2C2C2C",
"s  c #2D2D2D",
"d  c #2F2F2F",
"f  c gray19",
"g  c #313131",
"h  c #323232",
"j  c #323136",
"k  c gray22",
"l  c #3A3A3A",
"z  c #3D3C41",
"x  c gray28",
"c  c #494949",
"v  c #4A494E",
"b  c #4F4F50",
"n  c gray33",
"m  c gray35",
"M  c #5C5C5E",
"N  c #606060",
"B  c #626166",
"V  c gray40",
"C  c #68676B",
"Z  c gray42",
"A  c gray43",
"S  c #707072",
"D  c gray45",
"F  c #787779",
"G  c gray48",
"H  c #7B7B7B",
"J  c #7C7C7C",
"K  c gray49",
"L  c #7E7E7E",
"P  c gray50",
"I  c #808083",
"U  c #838384",
"Y  c #868686",
"T  c gray53",
"R  c #888888",
"E  c #898989",
"W  c gray54",
"Q  c #8B8B8B",
"!  c gray55",
"~  c #8D8D8D",
"^  c #8E8E8E",
"/  c gray57",
"(  c gray58",
")  c #959595",
"_  c #979699",
"`  c #9A9A9A",
"'  c gray61",
"]  c gray62",
"[  c #A0A0A0",
"{  c gray63",
"}  c #A2A2A2",
"|  c #A4A4A6",
" . c #A7A6A7",
".. c #A9A9A9",
"X. c gray67",
"o. c #ACACAC",
"O. c #AEAEAE",
"+. c gray69",
"@. c #B2B2B2",
"#. c gray70",
"$. c #B4B4B4",
"%. c gray71",
"&. c #B6B6B7",
"*. c #B8B7BA",
"=. c gray73",
"-. c #BCBCBC",
";. c gray74",
":. c gray",
">. c gray75",
",. c #C0C0C0",
"<. c #C1C1C1",
"1. c #C3C3C3",
"2. c #C5C5C5",
"3. c #C6C6C6",
"4. c #C8C8C8",
"5. c gray79",
"6. c #CACACA",
"7. c gray80",
"8. c #CDCDCE",
"9. c gray81",
"0. c #D1D0D1",
"q. c #D2D2D2",
"w. c LightGray",
"e. c gray83",
"r. c #D5D5D5",
"t. c #D6D5D7",
"y. c #D8D8D8",
"u. c #DADADB",
"i. c #DCDBDC",
"p. c #DDDDDD",
"a. c #DFDFDF",
"s. c #E1E0E1",
"d. c #E1E1E1",
"f. c #E2E2E2",
"g. c gray89",
"h. c #E4E4E4",
"j. c #E6E5E6",
"k. c #E7E7E7",
"l. c gray91",
"z. c #E9E9E9",
"x. c #EAEAEA",
"c. c gray92",
"v. c #ECECEC",
"b. c gray93",
"n. c #EEEEEE",
"m. c #EFEFEF",
"M. c gray94",
"N. c #F1F1F1",
"B. c gray95",
"V. c #F3F3F3",
"C. c #F4F4F4",
"Z. c #F5F4F5",
"A. c gray96",
"S. c #F6F6F6",
"D. c #F7F6F7",
"F. c gray97",
"G. c #F8F8F8",
"H. c #F9F8F9",
"J. c #F9F9F9",
"K. c #FAF9FA",
"L. c gray98",
"P. c #FBFAFB",
"I. c #FBFBFB",
"U. c #FCFBFC",
"Y. c gray99",
"T. c #FDFCFD",
"R. c #FDFDFD",
"E. c #FEFEFE",
"W. c white",
"Q. c None",
/* pixels */
"Q.Q.Q.Q.Q.Q.Q.Q.Q.Q.Q.Q.Q.Q.Q.Q.Q.Q.Q.Q.  Q.  Q.                  Q.  Q.  Q.Q.Q.Q.Q.Q.Q.Q.Q.Q.Q.Q.Q.Q.Q.Q.Q.Q.Q.Q.Q.Q.Q.Q.Q.Q.Q.",
"Q.Q.Q.Q.Q.Q.Q.Q.Q.Q.Q.Q.Q.Q.Q.Q.Q.Q.                                            Q.Q.Q.Q.Q.Q.Q.Q.Q.Q.Q.Q.Q.Q.Q.Q.Q.Q.Q.Q.Q.Q.Q.Q.",
"Q.Q.Q.Q.Q.Q.Q.Q.Q.Q.Q.Q.Q.Q.Q.                                O O                     Q.  Q.Q.Q.Q.Q.Q.Q.Q.Q.Q.Q.Q.Q.Q.Q.Q.Q.Q.Q.",
"Q.Q.Q.Q.Q.Q.Q.Q.Q.Q.Q.Q.Q.                                  O 7 7 * O O                   Q.Q.Q.Q.Q.Q.Q.Q.Q.Q.Q.Q.Q.Q.Q.Q.Q.Q.Q.",
"Q.Q.Q.Q.Q.Q.Q.Q.Q.Q.Q.O     O     # w x w   O     O   O O     , m %.6.O.U C m s = O   O       Q.Q.Q.Q.Q.Q.Q.Q.Q.Q.Q.Q.Q.Q.Q.Q.Q.",
"Q.Q.Q.Q.Q.Q.Q.Q.Q.    O     = c / O.Y w * * * 7 l N Y Y V s O   O > j A ..s.S.V.0.K t o o o       Q.Q.Q.Q.Q.Q.Q.Q.Q.Q.Q.Q.Q.Q.Q.",
"Q.Q.Q.Q.Q.Q.Q.Q.      = * n 3.S.v.D * O , V >.m.S.Y.G.Y.Y.S.7.A 7 * O O = > z M Y O.1.W w           Q.Q.Q.Q.Q.Q.Q.Q.Q.Q.Q.Q.Q.Q.",
"Q.Q.Q.Q.Q.Q.Q.      O c >.V.G.V.A *   x 1.V.U.G.G.Y.Y.Y.Y.Y.Y.S.r.) n e * * # O O O = 5 1   o         Q.Q.Q.Q.Q.Q.Q.Q.Q.Q.Q.Q.Q.",
"Q.Q.Q.Q.Q.      * * K v.G.G.k.m # O M x.S.U.G.U.G.S.Y.Y.Y.Y.Y.Y.Y.Y.Y.x.4.Y n x w O                     Q.Q.Q.Q.Q.Q.Q.Q.Q.Q.Q.Q.",
"Q.Q.Q.Q.  $     2 ..Y.G.Y.g.z = * Z S.y.] G B B D W -.G.Y.Y.Y.Y.Y.Y.Y.Y.G.G.g.T S h                 O     Q.Q.Q.Q.Q.Q.Q.Q.Q.Q.Q.",
"Q.Q.Q.    O O c 6.Y.Y.G.a.z O * G y.G w * O   O O O = n h.G.Y.Y.Y.Y.Y.Y.S.&.g *     o     o                 Q.Q.Q.Q.Q.Q.Q.Q.Q.Q.",
"Q.Q.      O B c.S.G.Y.a.z O 2 / } g O O O   7 l g 2   O n V.Y.Y.Y.Y.G.S.A 2 O   o o   o     O     o O       Q.Q.Q.Q.Q.Q.Q.Q.Q.Q.",
"Q.Q.    * M M.Y.U.H.y.c $ $ m l =   O O O   i y.g.i.P # = ' Y.Y.Y.Y.S.P * = =   o   o   o o   w K 2           Q.Q.Q.Q.Q.Q.Q.Q.Q.",
"Q.      g h.Y.Y.U.*.f O $ $ $ *   O O     O = 7.G.Y.S.n O n Y.Y.Y.Y.*.* O B A O O o o   o   O i V.] =         Q.Q.Q.Q.Q.Q.Q.Q.Q.",
"    O * >.G.G.V.W 2   * O $         o   O   w a.Y.Y.Y.A O b Y.Y.Y.Y.m   x x.>.O o     O O O ,  .G.G.S O   O     Q.Q.Q.Q.Q.Q.Q.Q.",
"Q.    l V.G.y.C =   g m * $ 7 O     O o O O I Y.Y.Y.3.6 O Y Y.Y.Y.S.g * } G.V.F e O o o = i  .S.Y.G.6.=           Q.Q.Q.Q.Q.Q.Q.",
"  O O ^ Y.a.w $ O m y.M   x =.e O     = w F v.U.Y.6.s O t a.Y.Y.Y.v.s O 1.G.Y.G.h.1._ ` 1.h.G.Y.Y.U.=.* O C *     Q.Q.Q.Q.Q.Q.Q.",
"O O = r.Y.a.w t / v.G.n O D F.7.F n V ] i.F.F.v.) w   w %.U.Y.Y.G.V.s O n g.Y.Y.G.Y.G.Y.Y.Y.G.G.M.>.s O k g.g     O Q.Q.Q.Q.Q.Q.",
"  O t v.Y.Y.i.i.F.Y.Y.U   2 F >.0.v.V.m.V.a.} l O   w @.S.U.Y.Y.Y.Y.T = O s / *.e.a.v.G.U.V.6.^ c 1 O , ..Y.O.: O     Q.Q.Q.Q.Q.",
"  O g G.Y.Y.G.Y.Y.Y.Y.x.z O * = e z z z k t >   * x 1.Y.U.Y.Y.Y.Y.Y.S.P >   O 2 2 9 g l c g 7 = O O s @.S.H.v.N O   O Q.Q.Q.Q.Q.",
"    z Y.Y.Y.Y.Y.Y.Y.Y.Y.y.G i , O   O O   * * x  .V.Y.Y.Y.Y.Y.Y.Y.Y.Y.Y.=.n 7 * O O O # * * O , c / g.G.Y.Y.Y.a.g         Q.Q.Q.",
"  O z Y.Y.Y.Y.Y.Y.Y.Y.Y.Y.V.g.>.) G A S H Y -.x.Y.Y.U.Y.Y.Y.Y.Y.Y.Y.Y.Y.G.V.q.>.} U A M n N ) 6.v.S.Y.Y.Y.Y.Y.Y...* O   Q.Q.Q.Q.",
"    z Y.Y.Y.Y.Y.Y.Y.Y.Y.Y.Y.Y.Y.Y.Y.Y.Y.Y.Y.U.Y.Y.Y.Y.Y.Y.Y.Y.Y.Y.Y.Y.Y.Y.Y.Y.Y.Y.Y.Y.Y.Y.Y.Y.Y.Y.Y.Y.Y.Y.Y.Y.Y.M.i O   Q.Q.Q.Q.",
"O O z Y.Y.Y.Y.Y.Y.Y.Y.Y.Y.Y.Y.Y.Y.Y.Y.Y.Y.Y.Y.Y.Y.Y.Y.Y.Y.Y.Y.Y.Y.Y.Y.Y.Y.Y.Y.Y.Y.Y.Y.Y.Y.Y.Y.Y.Y.Y.Y.Y.Y.Y.Y.Y.G.S O     Q.Q.Q.",
"  O l G.Y.Y.Y.Y.Y.Y.Y.G.F.Y.Y.Y.Y.Y.Y.Y.Y.Y.Y.Y.Y.Y.Y.Y.Y.Y.Y.Y.Y.Y.Y.Y.Y.Y.Y.Y.Y.Y.Y.Y.Y.Y.Y.Y.Y.Y.Y.Y.Y.Y.Y.Y.Y.-.* O   Q.Q.Q.",
"O   i x.Y.Y.Y.Y.Y.Y.Y./ H x.Y.Y.Y.Y.Y.Y.Y.Y.Y.Y.Y.Y.Y.Y.Y.Y.Y.Y.Y.Y.Y.Y.Y.Y.Y.Y.Y.Y.Y.Y.Y.Y.Y.Y.Y.Y.Y.Y.Y.Y.Y.Y.Y.V.t     Q.Q.Q.",
"  O 2 y.Y.Y.Y.Y.Y.Y.G.2 * | Y.S.Y.Y.Y.Y.Y.Y.Y.Y.Y.Y.Y.Y.Y.Y.Y.Y.Y.Y.Y.Y.Y.Y.Y.Y.Y.Y.Y.Y.Y.Y.Y.Y.Y.Y.Y.Y.Y.Y.Y.Y.Y.Y.C         Q.",
"  O O 7.Y.Y.Y.Y.Y.Y.S.c O e =.S.Y.Y.Y.Y.Y.Y.Y.Y.Y.Y.Y.Y.Y.Y.Y.Y.Y.Y.Y.Y.Y.Y.Y.Y.Y.Y.Y.Y.Y.Y.Y.Y.Y.Y.Y.Y.Y.Y.Y.Y.Y.Y.6.* O   Q.Q.",
"  O   >.Y.Y.Y.Y.Y.Y.Y.7.2 O e U 7.V.G.G.Y.Y.Y.G.Y.Y.Y.Y.Y.U.U.U.Y.G.Y.Y.Y.Y.G.Y.G.Y.Y.S.a.7.X.W D Z V V m b b W 6.S.x.e O   Q.Q.",
"O O   } Y.Y.Y.Y.Y.Y.Y.Y.] 2   * w z Z W ..*.1.6.r.r.q.q.7.a.g.k.x.x.v.S.U.V.g.q.O.K M z p 9 O * * O       O   O w ^ S.x O   O Q.",
"O   O S Y.Y.Y.Y.Y.Y.Y.Y.Y.>.n , O   O * * , 7 w t e w e t u s j g g j c b z t 7 O O   O * * 2 s k l z z l c z , * 7 x.K O     Q.",
"O O O x Y.Y.Y.Y.Y.Y.Y.Y.Y.Y.v.1.) b l t w 2 = $ O * O O O O * O O O   $ O *   * w g c M W X.1.t.v.V.V.V.S.S.t.l O = h...      Q.",
"    O 2 h.G.Y.Y.Y.Y.Y.Y.Y.Y.Y.Y.Y.Y.V.h.9.7.>.O.[ }  .O.}  .W U U P K Z M D / @.q.h.S.G.G.Y.Y.Y.Y.Y.Y.Y.G.3.z = * S Y.s.7   O Q.",
"Q.  O O _ Y.Y.Y.Y.Y.Y.Y.Y.Y.Y.Y.Y.Y.G.Y.G.U.G.Y.Y.Y.U.Y.G.Y.Y.G.F.H.Y.Y.S.G.Y.Y.Y.Y.Y.Y.Y.Y.Y.Y.Y.Y.Y.Y.=.e O = K v.Y.G.l   O Q.",
"Q.      c G.Y.Y.Y.Y.Y.Y.Y.Y.Y.Y.Y.Y.Y.Y.Y.Y.Y.Y.Y.Y.Y.Y.Y.Y.Y.Y.Y.Y.Y.Y.Y.Y.Y.Y.Y.Y.Y.Y.Y.Y.Y.Y.Y.Y.Y.v.i O e  .C.Y.Y.Y.n     Q.",
"Q.Q.    * =.Y.Y.Y.Y.Y.Y.Y.Y.Y.Y.Y.Y.Y.Y.Y.Y.Y.Y.Y.Y.Y.Y.Y.Y.Y.Y.Y.Y.Y.Y.Y.Y.Y.Y.Y.Y.Y.Y.Y.Y.Y.Y.Y.Y.Y. .* = +.G.Y.Y.Y.Y.S       ",
"Q.Q.    O c G.Y.Y.Y.Y.Y.Y.Y.Y.Y.Y.Y.Y.Y.Y.Y.Y.Y.Y.Y.Y.Y.Y.Y.Y.Y.Y.Y.Y.Y.Y.Y.Y.Y.Y.Y.Y.Y.Y.Y.Y.Y.Y.Y.Y.z * M Y.Y.Y.Y.Y.Y.`       ",
"Q.Q.Q.  O = >.G.Y.Y.Y.Y.Y.Y.Y.Y.Y.Y.Y.Y.Y.Y.Y.Y.Y.Y.Y.Y.Y.Y.Y.Y.Y.Y.Y.Y.Y.Y.Y.Y.Y.Y.Y.Y.Y.Y.Y.Y.Y.Y.y.7 O @.Y.Y.Y.Y.Y.Y.%.*     ",
"Q.Q.Q.O O   n S.Y.Y.Y.Y.Y.Y.Y.Y.Y.Y.Y.Y.Y.Y.Y.Y.Y.Y.Y.Y.Y.Y.Y.Y.Y.Y.Y.Y.Y.Y.Y.Y.Y.Y.Y.Y.Y.Y.Y.Y.Y.Y.%.O , g.Y.Y.Y.Y.Y.Y.O.O     ",
"Q.Q.Q.Q.    : =.Y.Y.Y.Y.Y.Y.Y.Y.Y.Y.Y.Y.Y.Y.Y.Y.Y.Y.Y.Y.Y.Y.Y.Y.Y.Y.Y.Y.Y.Y.Y.Y.Y.Y.Y.Y.Y.Y.Y.Y.Y.Y.^   l G.Y.Y.Y.Y.Y.Y.O.O     ",
"Q.Q.Q.Q.    O c S.Y.Y.Y.Y.Y.Y.Y.Y.Y.Y.Y.Y.Y.Y.Y.Y.Y.Y.Y.Y.Y.Y.Y.Y.Y.Y.Y.Y.Y.Y.Y.Y.Y.Y.Y.Y.Y.Y.Y.Y.G.b O Z Y.Y.Y.Y.Y.Y.Y.)       ",
"Q.Q.Q.Q.      = %.Y.Y.Y.Y.Y.Y.Y.Y.Y.Y.Y.Y.Y.Y.Y.Y.Y.Y.Y.Y.Y.Y.Y.Y.Y.Y.Y.Y.Y.Y.Y.Y.Y.Y.Y.Y.Y.Y.Y.Y.x.t O ] Y.Y.Y.Y.Y.Y.Y.D O     ",
"Q.Q.Q.Q.Q.    O b S.Y.Y.Y.Y.Y.Y.Y.Y.Y.Y.Y.Y.Y.Y.Y.Y.Y.Y.Y.Y.Y.Y.Y.Y.Y.Y.Y.Y.Y.Y.Y.Y.Y.Y.Y.Y.Y.Y.Y.7.* * y.Y.Y.Y.Y.Y.Y.G.m O O Q.",
"Q.Q.Q.Q.Q.      * 1.Y.Y.Y.Y.Y.Y.Y.Y.Y.Y.Y.Y.Y.Y.Y.Y.Y.Y.Y.Y.Y.Y.Y.Y.Y.Y.Y.Y.Y.Y.Y.Y.Y.Y.Y.Y.Y.Y.Y._ O s V.Y.Y.Y.Y.Y.Y.G.l     Q.",
"Q.Q.Q.Q.Q.Q.  O O c S.Y.Y.Y.Y.Y.Y.Y.Y.Y.Y.Y.Y.Y.Y.Y.Y.Y.Y.Y.Y.Y.Y.Y.Y.Y.Y.Y.Y.Y.Y.Y.Y.Y.Y.Y.Y.Y.G.m O N G.Y.Y.Y.Y.Y.Y.x.w     Q.",
"Q.Q.Q.Q.Q.Q.  O   O ..Y.Y.Y.Y.Y.Y.Y.Y.Y.Y.Y.Y.Y.Y.Y.Y.Y.Y.Y.Y.Y.Y.Y.Y.Y.Y.Y.Y.Y.Y.Y.Y.Y.Y.Y.Y.Y.q.7 #  .Y.Y.Y.Y.Y.Y.Y.7.O O   Q.",
"Q.Q.Q.Q.Q.Q.Q.* O O j S.Y.Y.Y.Y.Y.Y.Y.Y.Y.Y.Y.Y.Y.Y.Y.Y.Y.Y.V.6.V.Y.Y.Y.Y.Y.Y.Y.Y.Y.Y.Y.Y.Y.Y.Y.K # d k.Y.Y.Y.Y.Y.Y.G.^ *     Q.",
"Q.Q.Q.Q.Q.Q.Q.Q.    O @.Y.Y.Y.Y.Y.Y.Y.Y.Y.Y.Y.Y.Y.Y.Y.Y.Y.Y.^ * I v.Y.Y.Y.Y.Y.Y.Y.Y.Y.Y.Y.Y.Y.x.e O Y Y.Y.Y.Y.Y.Y.Y.S.z     Q.Q.",
"Q.Q.Q.Q.Q.Q.Q.Q.  O   z h.Y.Y.Y.Y.Y.Y.Y.Y.Y.Y.Y.Y.Y.Y.Y.Y.Y.Y O * C y.Y.Y.Y.Y.Y.Y.Y.Y.Y.Y.Y.H.A * w g.U.Y.Y.Y.Y.Y.Y.h., O   Q.Q.",
"Q.Q.Q.Q.Q.Q.Q.Q.Q.      n V.Y.Y.Y.Y.Y.Y.Y.Y.Y.Y.Y.Y.Y.Y.Y.Y.k.c O O w U x.Y.Y.Y.Y.Y.Y.Y.Y.G.Y * * Y G.Y.Y.Y.Y.Y.Y.Y.] *     Q.Q.",
"Q.Q.Q.Q.Q.Q.Q.Q.Q.    O * ! Y.Y.Y.Y.Y.Y.Y.Y.Y.Y.Y.Y.Y.Y.Y.Y.Y.x.G 2 * * g U 7.v.G.Y.Y.C.y.S = O N S.Y.Y.Y.Y.Y.Y.Y.U.m   O   Q.Q.",
"Q.Q.Q.Q.Q.Q.Q.Q.Q.Q.    O ,  .G.Y.Y.Y.Y.Y.Y.Y.Y.Y.Y.Y.Y.Y.Y.Y.Y.S.r.m =   * , g N ^ ^ M w * = n h.G.Y.Y.Y.Y.Y.Y.Y.x., O   Q.Q.Q.",
"Q.Q.Q.Q.Q.Q.Q.Q.Q.Q.Q.    O 9 7.G.Y.Y.Y.Y.Y.Y.Y.Y.Y.Y.Y.Y.Y.Y.Y.Y.Y.S.=.m e * = *   *   = w F h.Y.Y.Y.Y.Y.Y.Y.Y.Y._ O O O Q.Q.Q.",
"Q.Q.Q.Q.Q.Q.Q.Q.Q.Q.Q.Q.  O O g i.Y.Y.Y.Y.Y.Y.Y.Y.Y.Y.Y.Y.Y.Y.Y.Y.Y.Y.Y.G.s.] C s 7 2 s K w.S.G.Y.Y.Y.Y.Y.Y.Y.Y.x.k     Q.Q.Q.Q.",
"Q.Q.Q.Q.Q.Q.Q.Q.Q.Q.Q.Q.O   O   u %.G.Y.Y.Y.Y.Y.Y.Y.Y.Y.Y.Y.Y.Y.Y.Y.Y.Y.Y.Y.Y.Y.G.x.x.S.Y.Y.Y.Y.Y.Y.Y.Y.Y.Y.Y.G.Y O     Q.Q.Q.Q.",
"Q.Q.Q.Q.Q.Q.Q.Q.Q.Q.Q.Q.Q.      O 2 A r.Y.Y.Y.Y.Y.Y.Y.Y.Y.Y.Y.Y.Y.Y.Y.Y.Y.Y.Y.U.Y.Y.Y.Y.Y.Y.Y.Y.Y.Y.Y.Y.Y.Y.Y._ = *     Q.Q.Q.Q.",
"Q.Q.Q.Q.Q.Q.Q.Q.Q.Q.Q.Q.Q.Q.      O O e } V.G.G.Y.Y.Y.Y.Y.Y.Y.Y.Y.Y.Y.Y.Y.Y.Y.Y.Y.Y.Y.Y.Y.Y.Y.Y.Y.Y.Y.Y.Y.G.} 2       Q.Q.Q.Q.Q.",
"Q.Q.Q.Q.Q.Q.Q.Q.Q.Q.Q.Q.Q.Q.Q.      O   O k =.V.Y.Y.Y.Y.Y.Y.Y.Y.Y.Y.Y.Y.Y.Y.Y.Y.Y.Y.Y.Y.Y.Y.Y.Y.Y.Y.Y.Y.Y.%.2 O     Q.Q.Q.Q.Q.Q.",
"Q.Q.Q.Q.Q.Q.Q.Q.Q.Q.Q.Q.Q.Q.Q.Q.Q.    O O O * c ^ >.h.C.Y.Y.Y.Y.Y.Y.Y.Y.Y.Y.Y.Y.Y.Y.Y.Y.Y.Y.Y.Y.Y.Y.G.Y.6.w       Q.Q.Q.Q.Q.Q.Q.",
"Q.Q.Q.Q.Q.Q.Q.Q.Q.Q.Q.Q.Q.Q.Q.Q.Q.Q.Q.    O O O * * = l I q.S.Y.Y.Y.Y.Y.Y.Y.Y.Y.Y.Y.Y.Y.Y.Y.Y.Y.U.G.g.! w       Q.Q.Q.Q.Q.Q.Q.Q.",
"Q.Q.Q.Q.Q.Q.Q.Q.Q.Q.Q.Q.Q.Q.Q.Q.Q.Q.Q.Q.Q.O         O O O O s M W %.3.g.S.V.S.G.Y.U.G.Y.G.S.y. .K c ,       O Q.Q.Q.Q.Q.Q.Q.Q.Q.",
"Q.Q.Q.Q.Q.Q.Q.Q.Q.Q.Q.Q.Q.Q.Q.Q.Q.Q.Q.Q.Q.Q.Q.          O O   O   $ O * 2 k n A W K G F S z = O *   O O O   Q.Q.Q.Q.Q.Q.Q.Q.Q.Q.",
"Q.Q.Q.Q.Q.Q.Q.Q.Q.Q.Q.Q.Q.Q.Q.Q.Q.Q.Q.Q.Q.Q.Q.Q.  Q.Q.        O       O O     O O O O O   O   O O         Q.Q.Q.Q.Q.Q.Q.Q.Q.Q.Q.",
"Q.Q.Q.Q.Q.Q.Q.Q.Q.Q.Q.Q.Q.Q.Q.Q.Q.Q.Q.Q.Q.Q.Q.Q.Q.Q.Q.Q.Q.Q.          O   O       O       O O           Q.Q.Q.Q.Q.Q.Q.Q.Q.Q.Q.Q."
};
