/* XPM */
static char *frame_15_delay_0_05s1763316729[] = {
/* columns rows colors chars-per-pixel */
"64 64 144 2 ",
"   c black",
".  c #010101",
"X  c #020202",
"o  c gray1",
"O  c #040404",
"+  c gray2",
"@  c #060606",
"#  c #070707",
"$  c gray3",
"%  c #090909",
"&  c gray4",
"*  c #0C0C0C",
"=  c gray5",
"-  c #0E0E0E",
";  c gray6",
":  c #101010",
">  c #111111",
",  c gray7",
"<  c gray8",
"1  c #151515",
"2  c #161616",
"3  c gray9",
"4  c #191919",
"5  c gray11",
"6  c #1E1E1E",
"7  c #202020",
"8  c #222222",
"9  c gray14",
"0  c gray15",
"q  c #272727",
"w  c #2A2A2A",
"e  c #2C2C2C",
"r  c #2D2D2D",
"t  c #2F2F2F",
"y  c #313131",
"u  c #323232",
"i  c gray22",
"p  c #3A3A3A",
"a  c #3D3C41",
"s  c gray28",
"d  c #494949",
"f  c #4A494E",
"g  c #4F4F50",
"h  c gray33",
"j  c gray35",
"k  c #5C5C5E",
"l  c #606060",
"z  c gray40",
"x  c gray42",
"c  c gray43",
"v  c #707072",
"b  c gray45",
"n  c #787779",
"m  c #7B7B7B",
"M  c #7C7C7C",
"N  c #7E7E7E",
"B  c #838384",
"V  c #868686",
"C  c gray53",
"Z  c #898989",
"A  c #8B8B8B",
"S  c gray55",
"D  c #8D8D8D",
"F  c #8E8E8E",
"G  c gray57",
"H  c gray58",
"J  c #959595",
"K  c #979699",
"L  c #9A9A9A",
"P  c gray61",
"I  c gray62",
"U  c gray63",
"Y  c #A2A2A2",
"T  c #A4A4A6",
"R  c #A7A6A7",
"E  c #A9A9A9",
"W  c #AAAAAA",
"Q  c #ACACAC",
"!  c #AEAEAE",
"~  c gray69",
"^  c #B2B2B2",
"/  c gray70",
"(  c #B4B4B4",
")  c gray71",
"_  c #B6B6B7",
"`  c #B8B7BA",
"'  c gray73",
"]  c #BCBCBC",
"[  c gray74",
"{  c gray75",
"}  c #C0C0C0",
"|  c #C1C1C1",
" . c #C3C3C3",
".. c #C5C5C5",
"X. c gray78",
"o. c #C8C8C8",
"O. c gray79",
"+. c #CACACA",
"@. c gray80",
"#. c #CDCDCE",
"$. c gray81",
"%. c #D1D0D1",
"&. c #D2D2D2",
"*. c gray83",
"=. c #D6D5D7",
"-. c #D8D8D8",
";. c #DADADB",
":. c #DCDBDC",
">. c #DDDDDD",
",. c #DFDFDF",
"<. c #E1E0E1",
"1. c #E1E1E1",
"2. c #E2E2E2",
"3. c gray89",
"4. c #E4E4E4",
"5. c #E6E5E6",
"6. c #E7E7E7",
"7. c #E9E9E9",
"8. c gray92",
"9. c gray93",
"0. c #EEEEEE",
"q. c #EFEFEF",
"w. c gray94",
"e. c #F1F1F1",
"r. c gray95",
"t. c #F4F3F4",
"y. c #F5F4F5",
"u. c gray96",
"i. c #F6F6F6",
"p. c #F7F6F7",
"a. c gray97",
"s. c #F8F8F8",
"d. c #F9F8F9",
"f. c #FAF9FA",
"g. c gray98",
"h. c #FBFAFB",
"j. c #FBFBFB",
"k. c #FCFBFC",
"l. c gray99",
"z. c #FDFCFD",
"x. c #FDFDFD",
"c. c #FEFEFE",
"v. c white",
"b. c None",
/* pixels */
"b.b.b.b.b.b.b.b.b.b.b.b.b.b.b.b.b.b.b.b.      b.                      b.  b.  b.b.b.b.b.b.b.b.b.b.b.b.b.b.b.b.b.b.b.b.b.b.b.b.b.",
"b.b.b.b.b.b.b.b.b.b.b.b.b.b.b.b.                                                    b.b.b.b.b.b.b.b.b.b.b.b.b.b.b.b.b.b.b.b.b.b.",
"b.b.b.b.b.b.b.b.b.b.b.b.b.b.                            +   O % +                         b.b.b.b.b.b.b.b.b.b.b.b.b.b.b.b.b.b.b.",
"b.b.b.b.b.b.b.b.b.b.b.b.                            & r s s s r 3 @ &                       b.b.b.b.b.b.b.b.b.b.b.b.b.b.b.b.b.b.",
"b.b.b.b.b.b.b.b.b.b.  O         O O 6 j c > O     O O 7 h B T $.3.3.&.W C c h r * O   &       b.b.b.b.b.b.b.b.b.b.b.b.b.b.b.b.b.",
"b.b.b.b.b.b.b.b.b.          & g F ^ R i - O     O O & O O o O * i M ] 4.r.j.s.e.-.M 7 O   O       b.b.b.b.b.b.b.b.b.b.b.b.b.b.b.",
"b.b.b.b.b.b.b.        # * k X.i.i.U 3 O O 6 z Z &.:.' M d r ; & O & ; 3 i h n U %.3.3.C >   O       b.b.b.b.b.b.b.b.b.b.b.b.b.b.",
"b.b.b.b.b.b.        O d { t.k.k.J > O w ! 7.i.f.f.x.f.j.e.t.:.U j 7 & o % O O O > 6 6 w >             b.b.b.b.b.b.b.b.b.b.b.b.b.",
"b.b.b.b.b.  o @ O & M e.l.j.i.m > # s 3.f.x.x.x.x.x.x.x.x.x.x.x.x.7.+.I b l a 3 #   O       &           b.b.b.b.b.b.b.b.b.b.b.b.",
"b.b.b.b.  +   @ 4 R 0.x.f.6.j > O d 3.f.x.f.i.6.7.i.x.x.x.x.x.x.x.x.i.x.i.s.0.;.v & O   O     * > O O     b.b.b.b.b.b.b.b.b.b.b.",
"b.b.b.    o + g @.i.k.f.=.i & & c 6.e.+.V i 9 6 4 a J e.x.x.x.x.x.x.x.x.f.x.>.j >   &   O       > O         b.b.b.b.b.b.b.b.b.b.",
"b.b.    o   z 8.i.f.k.*.r   - H e.L u > O     @ - O O h f.x.x.x.x.x.x.k.f.W 9 O & a B L b g 9 *               b.b.b.b.b.b.b.b.b.",
"b.b.    @ j q.x.f.s.>.a & < ^ -.l - O O 3 d B J F f - * J x.x.x.x.x.k.f.G -   6 F :.Q V G { 3.Q i #           b.b.b.b.b.b.b.b.b.",
"b.      u 7.l.l.f...u & > ! ` u O O     9 x ,.u.x.0.z $ r 0.x.x.x.x.x.| > O a ..H u - O & > I i.3.p O           b.b.b.b.b.b.b.b.",
"    + & _ j.e.' n 2 O , P P 4 O - O O     O z l.l.x.:.- - ..x.x.x.x.x.x O u 3.^   O   O     u 0.a..., O   O     b.b.b.b.b.b.b.b.",
"    o i e.s.h 2 O - u { { 5 > i i &   O O   i i.x.x.u.i   ! k.x.x.x.s.r O K f.V O O O     O a i.f.k.d O a -       b.b.b.b.b.b.b.",
"  O O Z x.e.u & 9 V 4.a.d O a ;.i   o   + & J f.x.j.0.w   ] x.x.x.x.3.6 & ..j.+.w # & # O 7 | k.l.l.b O x n & O   b.b.b.b.b.b.b.",
"o o ; $.x.x.=.' 3.f.f.0.6 + ^ i.d O     - Z e.x.x.f.^ O < =.x.x.x.x.3.6 & | i.f.>.Q H J | :.i.f.x.8.y + B 8.t     O b.b.b.b.b.b.",
"  o 9 7.x.x.x.x.x.x.x.6.4 O | j.[ a u a Q r.f.f.x.;.r   h x.x.x.x.x.f.i O r G +.7.k.a.a.i.f.e.,.P i O 5 ;.f.^ - O     b.b.b.b.b.",
"O o u f.x.x.x.x.x.x.f.e.u O i  .e.7.6.0.s.x.j.;.V 9 O 6 @.x.x.x.x.x.x.' 6 O O 6 i l C Z M g i w ; * ; H i.f.t.k O O O   b.b.b.b.",
"    a x.x.x.x.x.x.x.x.x.! - o 3 l K | +.[ ! z 8 &   6 W k.x.x.x.x.x.x.x.) f 6 &   O +   O # O O 3 d ~ s.x.x.x.3.i O   O   b.b.b.",
"    a x.x.x.x.x.x.x.x.x.s.R r   O & 2 7 3 O   + > k { f.x.k.x.x.x.x.x.x.x.e.;.U c d u u i h b Z X.i.a.f.x.x.x.x.I # O   b.b.b.b.",
"    a x.x.x.x.x.x.x.x.x.x.x.>.G s 7 > @ @ 3 i b $.f.x.x.x.x.x.x.x.x.x.x.x.x.x.x.x.w.6.4.7.i.x.x.x.x.x.x.x.x.x.x.0.q       b.b.b.",
"O O a x.x.x.x.x.x.x.x.x.x.x.x.f.8.;.) !  .&.7.x.x.x.x.x.x.x.x.x.x.x.x.x.x.x.x.x.x.x.x.x.x.x.x.x.x.x.x.x.x.x.x.x.x.c       b.b.b.",
"  O i f.x.x.x.x.x.x.x.x.x.x.x.x.x.x.x.x.x.x.x.x.x.x.x.x.x.x.x.x.x.x.x.x.x.x.x.x.x.x.x.x.x.x.x.x.x.x.x.x.x.x.x.x.x.' &     b.b.b.",
"O   r 0.x.x.x.x.x.x.x.x.x.x.x.x.x.x.x.x.x.x.x.x.x.x.x.x.x.x.x.x.x.x.x.x.x.x.x.x.x.x.x.x.x.x.x.x.x.x.x.x.x.x.x.x.f.w.9       b.b.",
"O   > ;.x.x.x.x.f.x.k.x.x.x.x.x.x.x.x.x.x.x.x.x.x.x.x.x.x.x.x.x.x.x.x.x.x.x.x.x.x.x.x.x.x.x.x.x.x.x.x.x.x.x.x.x.x.x.c     O   b.",
"    O +.x.x.x.x.| &.x.x.x.x.x.x.x.x.x.x.x.x.x.x.x.x.x.x.x.x.x.x.x.x.x.x.x.x.x.x.x.x.x.x.x.x.x.x.x.x.x.x.x.x.x.x.x.x.| & O   b.b.",
"O O   [ x.x.x.W 4 i 0.x.x.x.x.x.x.x.x.x.x.x.x.x.x.x.x.x.x.x.x.x.x.x.x.x.x.x.x.x.x.x.x.x.x.x.x.x.x.x.x.x.x.x.x.x.x.x.0.6 O   O b.",
"O O   R x.x.f.a O 3 I ,.x.x.x.x.x.x.x.x.x.x.x.x.x.x.x.x.x.x.x.x.x.x.x.x.x.x.x.x.x.x.x.x.x.x.x.x.x.x.x.x.x.x.x.x.x.x.i.s O     b.",
"O   O b x.f.i.J w   & r V [ 3.i.x.x.f.i.x.x.x.x.x.x.x.x.x.x.x.x.x.x.x.x.x.e.7.>.=.$.+.| | | [ [ [ [ ..3.f.f.x.x.x.x.x.b       b.",
"    O d i.x.x.i.$.a 4   O > u j F I L L ! ' ) ..+.+.+.+...| | ^ Z c k k j d u 9 7 4 3 3 > > - - > - > r h V +.i.x.x.x.W O O     ",
"      3 6.f.x.x.x.0.| z r ; O O O O & O & > - > 3 3 3 > - > - O O O O O O   O O   & 3 > 3 3 3 3 & > - & O & 9 l 3.x.x.>.3   O b.",
"b.    O I x.x.x.x.x.f.k.>._ V a w 9 9 7 7 4 > 3 > - - 3 3 3 3 6 r d h h k c Z I W ) | | +.+.$.$.| ..^ V d 7   O s ;.j.f.i     b.",
"b.      s f.x.x.x.x.x.x.x.x.x.s.3.3.3.<.&.&.+...| | | | ....+.&.3.i.f.x.x.x.x.x.x.x.x.x.x.x.x.x.x.x.x.x.i.>.B > # d 0.j.h O     ",
"b.      * ] x.x.x.x.x.x.x.x.x.x.x.x.x.x.x.x.x.k.x.x.x.x.x.x.x.f.x.x.x.x.x.x.x.x.x.x.x.x.x.x.x.x.x.x.x.x.f.i.i.I > # +.j.b O     ",
"b.b.      f i.x.x.x.x.x.x.x.x.x.x.x.x.x.x.x.x.x.x.x.x.x.x.x.x.x.x.x.x.x.x.x.x.x.x.x.x.x.x.x.x.x.x.x.x.x.x.x.f.^ - O @.x.J       ",
"b.b.    O & ] j.x.x.x.x.x.x.x.x.x.x.x.x.x.x.x.x.x.x.x.x.x.x.x.x.x.x.x.x.x.x.x.x.x.x.x.x.x.x.x.x.x.x.x.x.x.0.) 7 O a e.x.` O     ",
"b.b.b.  O   g s.x.x.x.x.x.x.x.x.x.x.x.x.x.x.x.x.x.x.x.x.x.x.x.x.x.x.x.x.x.x.x.x.x.x.x.x.x.x.x.x.x.f.x.3.Z a 3 O w $.x.x.^ O     ",
"b.b.b.      - ' x.x.x.x.x.x.x.x.x.x.x.x.x.x.x.x.x.x.x.x.x.x.x.x.x.x.x.x.x.x.x.x.x.x.x.x.x.x.x.x.x.x.j.j   O & u ..f.x.x.! O   O ",
"b.b.b.b.    O d t.x.x.x.x.x.x.x.x.x.x.x.x.x.x.x.x.x.x.x.x.x.x.x.x.x.x.x.x.x.x.x.x.x.x.x.x.x.x.x.x.x.| - O j U 6.f.x.x.x.J       ",
"b.b.b.b.  O O - ' x.x.x.x.x.x.x.x.x.x.x.x.x.x.x.x.x.x.x.x.x.x.x.x.x.x.x.x.x.x.x.x.x.x.x.x.x.x.x.x.x.h   d 0.x.x.x.x.x.x.b     O ",
"b.b.b.b.b.      d i.x.x.x.x.x.x.x.x.x.x.x.x.x.x.x.x.x.x.x.x.x.x.x.x.x.x.x.x.x.x.x.x.x.x.x.x.x.x.x.;.4 O ^ f.x.x.x.x.x.x.j O     ",
"b.b.b.b.b.      & | x.x.x.x.x.x.x.x.x.x.x.x.x.x.x.x.x.x.x.x.x.x.x.x.x.x.x.x.x.x.x.x.x.x.x.x.x.x.x.V O 7 6.x.x.x.x.x.x.f.i   O   ",
"b.b.b.b.b.b.  O   a e.x.x.x.x.x.x.x.x.x.x.x.x.x.x.x.x.x.x.x.x.x.x.x.x.x.x.x.x.x.x.x.x.x.x.x.x.x.e.a   z f.x.x.x.x.x.x.7.4 O   b.",
"b.b.b.b.b.b.    O # ^ x.x.x.x.x.x.x.x.x.x.x.x.x.x.x.x.x.x.x.x.x.x.x.x.x.x.x.x.x.x.x.x.x.x.x.x.x.+.& & +.x.x.x.x.x.x.x...O O   b.",
"b.b.b.b.b.b.b.& O O u i.x.x.x.x.x.x.x.x.x.x.x.x.x.x.x.x.x.x.f.i.x.x.x.x.x.x.x.x.x.x.x.x.x.x.x.x.l & a t.x.x.x.x.x.x.x.F       b.",
"b.b.b.b.b.b.b.O     # ! x.x.x.x.x.x.x.x.x.x.x.x.x.x.x.x.x.x.F f [ x.x.x.x.x.x.x.x.x.x.x.x.x.x.;.> & U x.x.x.x.x.x.x.f.a       b.",
"b.b.b.b.b.b.b.b.      a 6.k.x.x.x.x.x.x.x.x.x.x.x.x.x.x.x.x.i O 3 B 6.x.x.x.x.x.x.x.x.x.x.x.e.z   u e.x.x.x.x.x.x.x.3., O O   b.",
"b.b.b.b.b.b.b.b.      & h e.x.x.x.x.x.x.x.x.x.x.x.x.x.x.x.x.^ w O O i W 6.x.x.k.x.x.x.x.x.x.R - & L x.x.x.x.x.x.x.x.R O     b.b.",
"b.b.b.b.b.b.b.b.b.      & G f.x.x.x.x.x.x.x.x.x.x.x.x.x.x.x.x.>.l - & & w F :.0.x.x.l.x.7.B - # f 0.x.x.x.x.x.x.x.x.g   O   b.b.",
"b.b.b.b.b.b.b.b.b.b.  O   - W f.x.x.x.x.x.x.x.x.x.x.x.x.x.x.x.x.t.! i - # O 6 c F ^ [ J u O O a >.x.x.x.x.x.x.x.x.6.3     b.b.b.",
"b.b.b.b.b.b.b.b.b.b.b.    O 6 &.f.x.x.x.x.x.x.x.x.x.x.x.x.x.x.x.x.x.i.| h > O O O - O & O > l 3.x.x.x.x.x.x.x.x.x.K #     b.b.b.",
"b.b.b.b.b.b.b.b.b.b.b.        r ;.x.x.x.x.x.x.x.x.x.x.x.x.x.x.x.x.x.x.x.i.$.b w 6 4 3 3 d ! i.x.x.x.x.x.x.x.x.x.e.u O     b.b.b.",
"b.b.b.b.b.b.b.b.b.b.b.b.        w ' s.f.x.x.x.x.x.x.x.x.x.x.x.x.x.x.x.x.x.x.x.f.3.| +.3.x.x.x.x.x.x.x.x.x.x.x.f.B O O   b.b.b.b.",
"b.b.b.b.b.b.b.b.b.b.b.b.b.        : x ;.x.x.x.x.x.x.x.x.x.x.x.x.x.x.x.x.x.x.x.x.x.f.k.x.x.x.x.x.x.x.x.x.x.x.x.J - O O   b.b.b.b.",
"b.b.b.b.b.b.b.b.b.b.b.b.b.b.O     O O 4 I 0.f.x.x.x.x.x.x.x.x.x.x.x.x.x.x.x.x.x.x.x.x.x.x.x.x.x.x.x.x.x.k.k.! -       b.b.b.b.b.",
"b.b.b.b.b.b.b.b.b.b.b.b.b.b.b.      O O & u ' i.x.x.x.x.x.x.x.x.x.x.x.x.x.x.x.x.x.x.x.x.x.x.x.x.x.x.x.x.x.) 3 O     b.b.b.b.b.b.",
"b.b.b.b.b.b.b.b.b.b.b.b.b.b.b.b.O         O & d Z [ 7.s.x.x.x.x.x.x.x.x.x.x.x.x.x.x.x.x.x.x.x.x.x.x.x.k.$.6         b.b.b.b.b.b.",
"b.b.b.b.b.b.b.b.b.b.b.b.b.b.b.b.b.b.  O       O     > i m +.i.x.x.x.x.x.x.x.x.x.x.x.x.x.x.x.x.x.f.f.>.D 3 O       b.b.b.b.b.b.b.",
"b.b.b.b.b.b.b.b.b.b.b.b.b.b.b.b.b.b.b.b.  O       O   O O & w j Z ) +.3.f.f.x.a.x.l.l.l.x.i.;.P M a 3   O   O   b.b.b.b.b.b.b.b.",
"b.b.b.b.b.b.b.b.b.b.b.b.b.b.b.b.b.b.b.b.b.b.            O O   O O O O > 6 i h b S M b b x s - O O   o         b.b.b.b.b.b.b.b.b.",
"b.b.b.b.b.b.b.b.b.b.b.b.b.b.b.b.b.b.b.b.b.b.b.b.                    O     O       O       O O               b.b.b.b.b.b.b.b.b.b.",
"b.b.b.b.b.b.b.b.b.b.b.b.b.b.b.b.b.b.b.b.b.b.b.b.b.b.b.b.                o     o o O       O   O   o     b.b.b.b.b.b.b.b.b.b.b.b."
};
