/* XPM */
static char *frame_31_delay_0_05s1763316731[] = {
/* columns rows colors chars-per-pixel */
"64 64 207 2 ",
"   c black",
".  c #010101",
"X  c #020202",
"o  c gray1",
"O  c #040404",
"+  c gray2",
"@  c #040406",
"#  c #060606",
"$  c #070707",
"%  c gray3",
"&  c #090909",
"*  c gray4",
"=  c #0B0B0B",
"-  c #0C0C0C",
";  c gray5",
":  c #0E0E0E",
">  c gray6",
",  c #101010",
"<  c #111111",
"1  c gray7",
"2  c #131313",
"3  c #151515",
"4  c #161616",
"5  c gray9",
"6  c #181818",
"7  c gray10",
"8  c gray11",
"9  c #1D1D1D",
"0  c #1E1E1E",
"q  c gray12",
"w  c #202020",
"e  c #222222",
"r  c #232323",
"t  c gray14",
"y  c gray15",
"u  c #272727",
"i  c #282828",
"p  c #2A2A2A",
"a  c #2C2C2C",
"s  c #2D2D2D",
"d  c #2F2F2F",
"f  c gray19",
"g  c #313131",
"h  c #323232",
"j  c #323136",
"k  c gray22",
"l  c #3A3A3A",
"z  c #3D3C41",
"x  c gray28",
"c  c #494949",
"v  c #4A494E",
"b  c #4F4F50",
"n  c gray33",
"m  c #54535B",
"M  c gray35",
"N  c #5C5C5E",
"B  c #606060",
"V  c #626166",
"C  c gray40",
"Z  c #68676B",
"A  c gray42",
"S  c gray43",
"D  c #707072",
"F  c gray45",
"G  c #747378",
"H  c #787779",
"J  c gray48",
"K  c #7B7B7B",
"L  c #7C7C7C",
"P  c #7D7C7F",
"I  c #7E7E7E",
"U  c gray50",
"Y  c #7E7D80",
"T  c #808083",
"R  c #838384",
"E  c #868686",
"W  c gray53",
"Q  c #848388",
"!  c #86858A",
"~  c #888888",
"^  c #898989",
"/  c gray54",
"(  c #8B8B8B",
")  c #89888D",
"_  c gray55",
"`  c #8D8D8D",
"'  c #8E8E8E",
"]  c #8C8B90",
"[  c #8E8E92",
"{  c gray57",
"}  c #919195",
"|  c gray58",
" . c #959595",
".. c #929198",
"X. c #979699",
"o. c #98989B",
"O. c #9A9A9A",
"+. c #9A999E",
"@. c gray61",
"#. c gray62",
"$. c #9D9CA1",
"%. c #A0A0A0",
"&. c gray63",
"*. c #A2A2A2",
"=. c #A4A4A6",
"-. c #A7A6A7",
";. c #A9A9A9",
":. c gray67",
">. c #ABAAAE",
",. c #ACACAC",
"<. c #AEAEAE",
"1. c gray69",
"2. c #B2B2B2",
"3. c gray70",
"4. c #B1B0B7",
"5. c #B6B6B7",
"6. c #B5B4B8",
"7. c #B8B7BA",
"8. c gray73",
"9. c #BCBCBC",
"0. c gray",
"q. c gray75",
"w. c #BDBCC0",
"e. c #C0C0C0",
"r. c #C1C1C1",
"t. c #C3C3C3",
"y. c #C3C2C5",
"u. c #C5C5C6",
"i. c #C6C6C6",
"p. c #C4C3C9",
"a. c #C6C5C9",
"s. c #C8C7CA",
"d. c #C8C8C8",
"f. c gray79",
"g. c #CACACA",
"h. c gray80",
"j. c #CDCDCE",
"k. c gray81",
"l. c #CCCBD0",
"z. c #D1D0D1",
"x. c #D1D0D3",
"c. c #D2D2D2",
"v. c #D3D3D5",
"b. c gray83",
"n. c #D5D5D5",
"m. c #D6D5D7",
"M. c #D8D8D8",
"N. c #D9D8DB",
"B. c #DAD9DE",
"V. c #DCDBDE",
"C. c #DDDDDD",
"Z. c #DFDFDF",
"A. c #DDDCE1",
"S. c #DEDEE0",
"D. c #E1E1E1",
"F. c #E1E1E3",
"G. c #E2E2E2",
"H. c #E3E2E7",
"J. c #E4E4E4",
"K. c #E6E5E6",
"L. c #E7E7E7",
"P. c #E6E5E9",
"I. c #E7E7E9",
"U. c #E9E9E9",
"Y. c #E8E8EA",
"T. c #EAEAEA",
"R. c #EBEAEB",
"E. c gray92",
"W. c #EAE9EC",
"Q. c gray93",
"!. c #EEEEEE",
"~. c #EFEEEF",
"^. c #EFEFEF",
"/. c #EDECF0",
"(. c #EFEEF3",
"). c #F0EFF2",
"_. c gray94",
"`. c gray95",
"'. c #F2F1F5",
"]. c #F3F3F4",
"[. c #F4F3F4",
"{. c #F4F3F6",
"}. c #F4F4F4",
"|. c gray96",
" X c #F6F6F6",
".X c #F7F6F7",
"XX c gray97",
"oX c #F6F5F8",
"OX c #F8F7FA",
"+X c #F8F8F8",
"@X c #F9F8F9",
"#X c #F9F9F9",
"$X c #FAF9FA",
"%X c gray98",
"&X c #FBFAFB",
"*X c #FBFBFB",
"=X c #F9F8FC",
"-X c #FAFAFE",
";X c #FCFBFC",
":X c #FCFBFF",
">X c gray99",
",X c #FDFCFD",
"<X c #FDFDFD",
"1X c #FEFDFF",
"2X c #FEFEFE",
"3X c white",
"4X c None",
/* pixels */
"4X4X4X4X4X4X4X4X4X4X4X4X4X4X4X4X4X4X4X4X                                      4X  4X4X4X4X4X4X4X4X4X4X4X4X4X4X4X4X4X4X4X4X4X4X4X",
"4X4X4X4X4X4X4X4X4X4X4X4X4X4X4X4X                                                    4X4X4X4X4X4X4X4X4X4X4X4X4X4X4X4X4X4X4X4X4X4X",
"4X4X4X4X4X4X4X4X4X4X4X4X4X                      o O O o o o   O o o                       4X4X4X4X4X4X4X4X4X4X4X4X4X4X4X4X4X4X4X",
"4X4X4X4X4X4X4X4X4X4X4X                          % 6 t h x x x h 5 = O $                     4X4X4X4X4X4X4X4X4X4X4X4X4X4X4X4X4X4X",
"4X4X4X4X4X4X4X4X4X4X        O   o $ 2 k n N C 1.Z.`.[.XXXX.X;X[.Q.G.z.:.R S n i % O   o           4X4X4X4X4X4X4X4X4X4X4X4X4X4X4X",
"4X4X4X4X4X4X4X4X      %     O d b B H ` ` W / E.XX2X2X2X;X;X2X2X*X*X*X2X2X*X.X.Xn.U t %   O       4X4X4X4X4X4X4X4X4X4X4X4X4X4X4X",
"4X4X4X4X4X4X4X          % d S W ~ ` / W W I o.j.k.M.v.d.0.i.n.G.K.).*X.X*X*X2X*X>X;XK.` 0 O         4X4X4X4X4X4X4X4X4X4X4X4X4X4X",
"4X4X4X4X4X4X        O t C R W / W F v t 8 , 2 < > 5 > = % < - < 4 0 l M A I ` ` o.*.0.y.=.d           4X4X4X4X4X4X4X4X4X4X4X4X4X",
"4X4X4X4X      o O O l R W ( S l 6 % O   @ O @ = - % % % - - O - O O $ O O % O % % O - , % = O             4X4X4X4X4X4X4X4X4X4X4X",
"4X4X4X4X  o     - N W ( R l > O O O - i l c A :.1.1.1.5.r.r.:.#. .L B x l t 6 6 < < % O O   o       o     4X4X4X4X4X4X4X4X4X4X4X",
"4X4X4X    o   g S / / S u   O 6 l V J W W / W =.E.2X;X2X2X2X2X2X2X2X2XoXQ.Q.U.L.J.v.u.d.0.#.` I n w % O     4X4X4X4X4X4X4X4X4X4X",
"4X4X    o   j U W / v - O < l F W R ` / W / / / 3.[.2X2X2X2X2X2X2X2X2X2X2X2X2X2X;X;X*XU.u.:.:.y.Q.d.h O   o   4X4X4X4X4X4X4X4X4X",
"4X      % g ~ ~ R d % O 6 M U W _ / ! / T H J D K ` K.*X2X2X2X2X2X2X2X2X2X;X*X`.M.W c w < O - < h *.0.2 O   O 4X4X4X4X4X4X4X4X4X",
"4X      7 D W ~ l O O l G Y R R Y R I B b x d w t j M 8.[.2X2X2X;X2X2X2X2X2X*X{ 4 O $     $     $ - C D O o o   4X4X4X4X4X4X4X4X",
"    O $ A W W W S t n R R R W W A c t - % O o O $ % - w / K.2X;X2X2X2X2X2X*X .% % % j B *.d.r.X.i O O S g O       4X4X4X4X4X4X4X",
"    O q J ( ~ / / Y R W R W W D t O O O - 0 l n n p % O 2 Y .X2X2X2X;X2X*Xd.< o l 0.)..X*X;X*X2Xd.0 o a A <       4X4X4X4X4X4X4X",
"  o   c ` / W ~ / ~ / W W R U x O - h W h.K.).XX`.U.` 2 O 0 1.2X2X2X2X2X*XL O 6 z.2X2X>X2X.XOX*X.Xo.O $ H C o       4X4X4X4X4X4X",
"o O % D / W / ~ ~ ~ ~ W W W C 5 O c G.2X*X.X*X*XXX;X[.=.2 O c R.2X2X2X2X;XN % n 2X2X2X2X[.` z F XXZ.6   N *.h o o o   4X4X4X4X4X",
"O   4 R W W / W / ~ / ~ W T M - $ 3.2X>X2X[.:.S A K.*X*XC O t j.2X;X;X2XOXb O N 2X;X2X.XH - o - 0.K.u   N ~ *.% o     4X4X4X4X4X",
"O o 0 ( / W / W W / ~ / ~ F b   < N.2X*X2XW 2 O O I OX*XN O < 7.;X2X2X2X*Xb O b *X*X2Xn.< O   % u.Z.6 o V R h.M O   o   4X4X4X4X",
"    q ~ W / ~ W W / ~ ~ / S n O < j.>X2XE.6 o O - { 2Xo.> O   R 2X2X2X2X;XD % 6 i.Q.*Xk.6 % 0 K .XT % - F / ;.G.g o   o 4X4X4X4X",
"    w ~ W / / ~ / / / ~ / S M O   n U.2XQ.6 O   M h.I 4 o O o R 2X2X2X2X;X9.< $ z d.;XXX1.R 0.'.o.6 o h U R X.>X&.-       4X4X4X",
"  O u ~ W ~ / W / ~ / ~ / v d w - % c e.K.! n v v 0 > O o o O u.2X2X2X2X2XV.l % O 4 A 1.8.8.X.b 5 O 0 N q v { >X~.t o     4X4X4X",
"O   u ~ ~ / / W / / ~ / ` 8 O l g % $ 6 i t t < % O < 5 o o 6 N.2X2X2X2X;X*XR < O   % % , , O   o 6 S h O d | >X>XS O       4X4X",
"o o 0 W W W / / W / / ~ / j O - c i % - O @     w h z 0   < b W.2X2X2X2X2X2Xz.v - O O @ O % , 6 z D C ,   v =.2X2X8.O o     4X4X",
"  o 6 T / ~ / ~ / ~ ~ / W D <   4 n m z k k l z V B i O O l C *X2X2X2X2X2X2X'.} z ,   O j n Z D I A 6   w F w.=X2XQ.t o   o 4X4X",
"  o - J ~ / ~ / / ~ / ~ W J N < @ < m A V Z Z D m d % % h N $.=X2X2X2X2X2X2X2XU.Y z < % % 6 j c l 6 % - Z S V.OX*X;XA O   o   4X",
"o o O F / / / ~ ~ / ~ / W W A n 4   - h x x v z < O % h m Z a.2X2X2X2X2X2X2X2X2XM.G N t % O O O     % n D >.2X2XOX2Xy.= o o   4X",
"o O   S / / / / / / / / / / I B x >   O O O = O O = j b Z ..'.2X2X2X2X2X=X2X2X2X=Xj.S S n h 6 6 4 j V [ 0.;X2X2X2X;XU.0 o o   4X",
"  O O N / / ~ / / / / ~ / W / U M x h < % - O - i v Z S Y u.2X2X2X2X2X2X2X2X2X2X2X*Xn.[ T Y J F F ( 7.W..X;X2X2X2X;XOXc o     4X",
"  o   l / / / / / / / / W / R R Y S N N N N n b V H R / ,.=X>X2X2X2X2X2X2X2X2X2X2X2X2X).S.j.a.a.N./.=X2X2X2X2X2X2X2X2XH   o o 4X",
"o   o i / / / / / / / / / A A X./ W W R Y Y I Y ! ! R } H.2X2X2X2X2X2X2X2X2X2X2X2X2X2X2X;X;X=X=X2X2X2X;X2X2X2X2X2X2X2X<.o o     ",
"      - K ` / / ~ / / ~ J 8 - ;.W / ! Q W W ! ! ! ] $.N.;X2X2X;X2X2X2X2X2X2X2X2X2X2X2X2X2X2X2X2X2X2X=X=X2X2X2X2X2X2X*XS.<       ",
"      o M ` / / / / / I c % 0 o.W / ! ! W W ! ! Y $.H.=X2X2X2X2X2X2X2X2X2X2X2X2X2X2X2X2X2X2X2X2X2X2X=X>X2X2X2X2X2X2X2X.Xl O     ",
"4X      t W / ~ ( ~ R J - % R { / R R R R R ! ` w.(.;X;X2X;X2X2X2X;X;X;X>X2X2X2X=X2X2X;X2X=X2X;X2X2X2X2X;X2X2X2X2X2X2X2Xn O   O ",
"4X      % B ~ ~ / ` ~ c * q h.~ ! X.1.{ ..} 6.Z.2X2X2X2X;X2X2X;X=X'.'.F.n.j.d.N.Y.oXoX;X;X2X;X;X;X;XQ.G.2X2X2X2X2X2X;X2XF       ",
"4X      o a R / ~ ~ R 4   R n.W W a.*XI.I.Q.=X>XoX2X2X/.p.} H D B x k h 0 4 < t j z m n A V Z F X.a.F.=.d.2X2X2X2X2X2X2X .o     ",
"4X4X  o   - C W / / C $ < n.k.' ( W.2X=X=X/.S.l.6.+.Y v 2   % O O   O O O O % O O O   % % O % O O < h v C n.;X2X2X2X2X2X7.O     ",
"4X4X    o   a R W W x o h .Xh.' *.*XI.w.S z w 4 = O O O - 0 u a z M V D ( $.=.! C v z h f f a w >   O % % B ).;X2X2X2X2X6.O o   ",
"4X4X4X  o   % Z W W l   N *Xk.R { R l - % O O O 6 i k n ..l.H.W.[.;X*X*X*X2X2X2X2XoX2X/.W.W.W.S.w.` c 6 o - L OX2X2X2X2X-.O     ",
"4X4X4X    o o i W ~ w   ~ >X1.a -     $ u V ! =.d.N.Y.oX*X2X2X;X2X2X2X2X2X2X2X2X2X2X2X2X2X2X*X2X2X2X=Xj.z < = *.2X;X2X2X|       ",
"4X4X4X4X      % C ~ r o ( j.q O O 0 b :.n.oX*X2X2X2X2X2X2X2X;X;X2X2X2X2X2X2X2X2X2X2X2X2X2X2X=X=X2X2X2X2XV.h $ n 2X2X2X2XD O o   ",
"4X4X4X4X        g ( q O { ,.% 2 { N.*X2X;XoX=X=X=X/.'./.I.P.A.A.V.v.U.2X2X2X2X2X2X2X2X2X2X2X=X2X*X[.Q.G.5.d % A 2X2X*X;XN O     ",
"4X4X4X4X4X      - A g o A U.L H ).=X*X;X;XQ.v.1.=.$.X.[ W ( ] ] ( R ] V.2X2X2X2X2X2X2X2X2X2X*XU.=.M x d O   4 y.2X2X;X2Xl   O   ",
"4X4X4X4X4X    o o d x o q Z.2X#.s.=X*XG.3.| ] W ! ! ! ! ! ! ( / ! / ! e.2X2X2X2X2X2X2X2X2X=XN.l %   O % O = ` ;X2X2X2XR.0 o     ",
"4X4X4X4X4X4Xo   O % v 1 O W `.1.+.[.Z.X./ ! W ! ! ! ! ! ! ! ( / ~ ! Q v.2X2X2X2X2X2X2X2X2XU.c O > i b A Z [ OX2X2X2X*Xy.O O     ",
"4X4X4X4X4X4X  o O o 0 h   8 z.5./ t.%.T W W W W W W ! ! ! ! / / / ~ R s.2X2X2X2X2X2X2X2X=X` O - ! V.;X2Xu.E.2X2X2X2X*X/   %   4X",
"4X4X4X4X4X4X4X    o O n < % u B G / R ) / ! W W ! ! ! ! ! ! _ ! ~ / ( o.V.oX2X2X2X2X=X=Xd.0 O n oXOX2X*X=X2X2X2X2X2XXXc O o   4X",
"4X4X4X4X4X4X4X    o o w c - $   j ` / ! ! ~ ~ / ! ! W ! ! / ] W ! / _ ] ] >.x.(.'./.I.6.z % < l.2X2X;X2X2X2X2X2X2X2XG.<       4X",
"4X4X4X4X4X4X4X4Xo   o o d N w - z ! ~ ~ ! W / / ! ! ~ ! / / Q I T ~ ] [ ! ! Q [ +.$.] B - % D =X2X2X2X2X2X2X2X2X2X2X*.O   O   4X",
"4X4X4X4X4X4X4X4X4X    o % x ~ F R / W ! W ~ ! / ! ! ! ! ~ ! Q j 0 N G Y ! ! Q Q Y J z -   i G.2X2X2X2X;X>X2X2X2X;X>Xn   O   4X4X",
"4X4X4X4X4X4X4X4X4X      o $ N / W / ! ! ~ ! / W ! W ~ ! ( ! ! 5 O o > e z z z z t % O @ 6 6.OX2X2X2X;X2X2X2X2X2X;XK.< o     4X4X",
"4X4X4X4X4X4X4X4X4X4X    o O < F W W W W ! W / ~ ~ ( ! ! ! ! _ m 2 ; o o o o o o O O > f [ =X2X2X2X2X2X2X2X2X2X2X2X .O       4X4X",
"4X4X4X4X4X4X4X4X4X4X4X    o   6 G W / ! W W / W ( ! ! ! ! ! ~ ~ G A b j 5 > > ; w z S ! a.=X2X2X2X2X2X2X2X2X2X2XQ.l O O   4X4X4X",
"4X4X4X4X4X4X4X4X4X4X4X4X  o o   4 C ! ! W ! ! W ! ~ ! ! ! ! ] ! ! ! ! ! Y Q R Y R ! ! [ /.2X2X2X2X2X2X2X2X2X2X2XJ O       4X4X4X",
"4X4X4X4X4X4X4X4X4X4X4X4X4X      o O z F Q R ! ~ ] ! ! ! ! ! ! ! ! ! ! ! ! ! ! ( ! / ! 6.2X2X2X2X2X2X2X2X2X2X2Xo.<   o   4X4X4X4X",
"4X4X4X4X4X4X4X4X4X4X4X4X4X4X      o   < n / Y ! ! ! ! ! ! ! ) W ! ! ! ! ! ( ! ( ) / [ W.2X2X2X2X2X2X2X2X2X2X=.<         4X4X4X4X",
"4X4X4X4X4X4X4X4X4X4X4X4X4X4X4X    o o O o w C W ! ! ! ! ! ! _ ( ! ! ! ( / ~ ) ) ) ( v.=X2X2X2X2X2X2X2X2X2X8.6 O       4X4X4X4X4X",
"4X4X4X4X4X4X4X4X4X4X4X4X4X4X4X4X      o   o % w x C K ( ) ( / / ( ~ ( ( ! ( ) ( ! p.*X2X2X2X2X2X2X2X>XOXd.0         4X4X4X4X4X4X",
"4X4X4X4X4X4X4X4X4X4X4X4X4X4X4X4X4X4X    O o O o o   - w z A ! / ) ) ! ( ( ) ~ ( w.=X2X2X2X2X2X2X2X.XG.{ 6 o       4X4X4X4X4X4X4X",
"4X4X4X4X4X4X4X4X4X4X4X4X4X4X4X4X4X4X4X4X  o         o o @ o 4 h b V D K ! ) } $.).2X2X;X2X*Xn.$.Y z 2 O O   O   4X4X4X4X4X4X4X4X",
"4X4X4X4X4X4X4X4X4X4X4X4X4X4X4X4X4X4X4X4X4X                o O O O O   O 2 8 i Z ! J F F C z - O o   o O       4X4X4X4X4X4X4X4X4X",
"4X4X4X4X4X4X4X4X4X4X4X4X4X4X4X4X4X4X4X4X4X4X4X4Xo         o   o O o   o o     o o   o     o o   o           4X4X4X4X4X4X4X4X4X4X",
"4X4X4X4X4X4X4X4X4X4X4X4X4X4X4X4X4X4X4X4X4X4X4X4X4X4X4X4X              o   O o     O       O o     o     4X4X4X4X4X4X4X4X4X4X4X4X"
};
