/* XPM */
static char *frame_05_delay_0_05s1763316728[] = {
/* columns rows colors chars-per-pixel */
"64 64 168 2 ",
"   c black",
".  c #010101",
"X  c #020202",
"o  c gray1",
"O  c #040404",
"+  c gray2",
"@  c #060606",
"#  c #070707",
"$  c gray3",
"%  c #090909",
"&  c gray4",
"*  c #0B0B0B",
"=  c #0C0C0C",
"-  c gray5",
";  c #0E0E0E",
":  c gray6",
">  c #101010",
",  c #111111",
"<  c gray7",
"1  c #131313",
"2  c gray8",
"3  c #151515",
"4  c #161616",
"5  c gray9",
"6  c #181818",
"7  c #191919",
"8  c gray10",
"9  c gray11",
"0  c #1D1D1D",
"q  c #1E1E1E",
"w  c gray12",
"e  c #202020",
"r  c #222222",
"t  c #232323",
"y  c gray14",
"u  c gray15",
"i  c #272727",
"p  c #282828",
"a  c #2A2A2A",
"s  c #2C2C2C",
"d  c #2D2D2D",
"f  c #2F2F2F",
"g  c gray19",
"h  c #313131",
"j  c #323232",
"k  c gray22",
"l  c #3A3A3A",
"z  c #3D3C41",
"x  c gray28",
"c  c #494949",
"v  c #4A494E",
"b  c #4F4F50",
"n  c gray33",
"m  c gray35",
"M  c #5C5C5E",
"N  c #606060",
"B  c #626166",
"V  c gray40",
"C  c #68676B",
"Z  c gray42",
"A  c gray43",
"S  c #707072",
"D  c gray45",
"F  c #787779",
"G  c gray48",
"H  c #7C7C7C",
"J  c gray49",
"K  c #7E7E7E",
"L  c gray50",
"P  c #808083",
"I  c #838384",
"U  c #868686",
"Y  c gray53",
"T  c #888888",
"R  c #898989",
"E  c gray54",
"W  c #8B8B8B",
"Q  c gray55",
"!  c #8D8D8D",
"~  c #8E8E8E",
"^  c gray57",
"/  c gray58",
"(  c #959595",
")  c #979699",
"_  c #9A9A9A",
"`  c gray62",
"'  c #A0A0A0",
"]  c gray63",
"[  c #A2A2A2",
"{  c #A4A4A6",
"}  c #A7A6A7",
"|  c #A9A9A9",
" . c gray67",
".. c #ACACAC",
"X. c #AEAEAE",
"o. c gray69",
"O. c #B2B2B2",
"+. c gray70",
"@. c #B4B4B4",
"#. c gray71",
"$. c #B6B6B7",
"%. c #B8B7BA",
"&. c gray73",
"*. c #BCBCBC",
"=. c gray74",
"-. c gray75",
";. c #C0C0C0",
":. c #C1C1C1",
">. c #C3C3C3",
",. c #C5C5C5",
"<. c #C6C6C6",
"1. c gray78",
"2. c #C8C8C8",
"3. c gray79",
"4. c #CACACA",
"5. c gray80",
"6. c #CDCDCE",
"7. c gray81",
"8. c #D1D0D1",
"9. c #D2D2D2",
"0. c LightGray",
"q. c gray83",
"w. c #D5D5D5",
"e. c #D8D8D8",
"r. c #DADADB",
"t. c #DCDBDC",
"y. c #DDDDDD",
"u. c #DFDFDF",
"i. c #E1E0E1",
"p. c #E1E1E1",
"a. c #E2E2E2",
"s. c gray89",
"d. c #E4E4E4",
"f. c #E6E5E6",
"g. c #E7E7E7",
"h. c gray91",
"j. c #E9E9E9",
"k. c #EAEAEA",
"l. c gray92",
"z. c #ECECEC",
"x. c gray93",
"c. c #EEEEEE",
"v. c #EFEFEF",
"b. c gray94",
"n. c #F1F1F1",
"m. c gray95",
"M. c #F3F3F3",
"N. c #F4F3F4",
"B. c #F4F4F4",
"V. c #F5F4F5",
"C. c gray96",
"Z. c #F6F6F6",
"A. c #F7F6F7",
"S. c gray97",
"D. c #F8F8F8",
"F. c #F9F8F9",
"G. c #F9F9F9",
"H. c #FAF9FA",
"J. c gray98",
"K. c #FBFAFB",
"L. c #FBFBFB",
"P. c #FCFBFC",
"I. c gray99",
"U. c #FDFCFD",
"Y. c #FDFDFD",
"T. c #FEFEFE",
"R. c white",
"E. c None",
/* pixels */
"E.E.E.E.E.E.E.E.E.E.E.E.E.E.E.E.E.E.E.E.  E.E.E.  E.  E.  E.  E.  E.E.E.  E.E.E.E.E.E.E.E.E.E.E.E.E.E.E.E.E.E.E.E.E.E.E.E.E.E.E.",
"E.E.E.E.E.E.E.E.E.E.E.E.E.E.E.E.E.E.E.                                        E.E.E.E.E.E.E.E.E.E.E.E.E.E.E.E.E.E.E.E.E.E.E.E.E.",
"E.E.E.E.E.E.E.E.E.E.E.E.E.E.E.E.                              O                       E.E.E.E.E.E.E.E.E.E.E.E.E.E.E.E.E.E.E.E.E.",
"E.E.E.E.E.E.E.E.E.E.E.E.E.                                  O 9 9 < O O                   E.E.E.E.E.E.E.E.E.E.E.E.E.E.E.E.E.E.E.",
"E.E.E.E.E.E.E.E.E.E.E.O     O   #   3 ;         # O O O O O % 5 n _ &.| E D m p ; O   O     E.E.E.E.E.E.E.E.E.E.E.E.E.E.E.E.E.E.",
"E.E.E.E.E.E.E.E.E.E.  O     & b ! [ k O   o 7 m J ! ^ I G x %   O O < r m J ' 9.4.U w O O       E.E.E.E.E.E.E.E.E.E.E.E.E.E.E.E.",
"E.E.E.E.E.E.E.E.E.  O % & m 2.Z.h.k O O c ` u.H.L.L.R.R.R.Z.1.G j % % $ O % < 3 9 z V z O         E.E.E.E.E.E.E.E.E.E.E.E.E.E.E.",
"E.E.E.E.E.E.E.      O v ;.M.H.d.z % < ! v.I.H.H.R.H.R.R.R.H.Z.n.z.>._ A z t ; O % O O ;     O         E.E.E.E.E.E.E.E.E.E.E.E.E.",
"E.E.E.E.E.E.    # % J n.L.K.z.b # > ( I.D.R.R.R.L.H.R.R.R.H.R.P.R.R.H.H.n.k.&.W b ;                   E.E.E.E.E.E.E.E.E.E.E.E.E.",
"E.E.E.E.  O o   3 ..H.B.H.k.b $ % U M.b.*.P V V I { s.R.R.R.R.R.P.R.R.R.R.M.@.n <                   O   E.E.E.E.E.E.E.E.E.E.E.E.",
"E.E.E.    o o b 8.K.K.S.n.M % # J r.J a ; O * O $ % r Z h.H.R.R.L.R.R.B.w.b ;     O       O O             E.E.E.E.E.E.E.E.E.E.E.",
"E.E.E.    o B l.M.K.Z.B.D - % F | a o O O   y d < O O O M H.R.R.R.R.R.1.d O           O           O O       E.E.E.E.E.E.E.E.E.E.",
"E.E.    # M b.L.R.L.v.C : ; k n % O O o o   V s.t.&.V * * &.R.R.R.R.7.y   9 b   O   O   O   O c c   %         E.E.E.E.E.E.E.E.E.",
"E.      j l.L.R.R.s.n O O O < ;   o o o o o n D.H.D.v.k O V R.R.H.k.z   9 @.O.O O O       O   S v.A %         E.E.E.E.E.E.E.E.E.",
"E.  O % @.S.H.R.3.z $   O $ O   o   o   # % ~ D.R.R.M.b O n P.L.R.| O ; O.H.g.k % % O O O O p 4.R.v.A   % O     E.E.E.E.E.E.E.E.",
"E.  O k B.H.n.( 9   O o   > x $     o o O M M.L.H.R.@.3 $ D P.L.R.D O 9 g.R.S.u.I z r w n ^ d.Z.H.H.1.% 7 3     E.E.E.E.E.E.E.E.",
"  O O ! L.R.I #   y ' w O n n.E j 3 ; k E k.R.H.L.} 7 # y r.R.R.R.O.O % :.H.L.R.H.v.u.u.n.L.R.R.R.L.^ O y G o     E.E.E.E.E.E.E.",
"O O ; w.R.L.J 3 n 7.R.M   z n.R.k.r.r.v.S.H.Z.r.D 2 O 9 :.L.L.R.R.k.d O z t.P.R.H.H.R.R.R.R.R.R.H.;.y # Z h.p O o o E.E.E.E.E.E.",
"  o y k.L.L.v.9.l.R.L./ % % N 1.k.v.s.9.5.o.A p O   y ;.L.L.R.L.R.H.) O O y V | 9.z.Z.l.k.k.q.| b 3 O 9 3.D.O.; o   E.E.E.E.E.E.",
"  o j L.R.R.R.R.L.R.R.l.c O % 3 y d p 7 3 <   % < M 0.H.L.R.L.R.R.L.Z.U 3 O O & 9 f j p p i e % O O r ' H.H.Z.M O     E.E.E.E.E.",
"O   l R.R.R.R.R.R.R.R.R.s.V 3 O o % % o   O r b o.b.H.P.P.P.I.I.R.L.R.n.&.V j ; O O o o % % * ; s P q.H.L.I.H.s.j o     E.E.E.E.",
"    z R.R.R.L.R.R.R.H.R.L.B.3.I V A D U _ @.r.n.H.L.L.H.P.L.L.R.R.R.R.R.Z.M.u.$.Q D Z J G G W :.s.Z.R.L.H.R.R.I._ % o   E.E.E.E.",
"    x R.L.R.R.R.R.H.L.R.R.R.R.H.R.R.H.R.L.R.R.R.R.L.L.L.P.R.I.I.L.R.R.R.R.R.R.L.H.R.R.L.L.R.L.L.R.H.R.I.I.R.R.R.n.r o   E.E.E.E.",
"O   x R.R.L.R.L.R.R.R.L.R.L.H.R.L.L.R.H.R.R.H.R.L.R.L.R.H.L.R.I.R.L.R.L.L.R.L.L.R.R.L.R.R.H.R.R.I.R.R.H.R.I.I.R.R.A O O   E.E.E.",
"O   k H.R.R.R.R.R.R.R.R.k.X.s.R.R.R.R.R.R.L.R.R.H.L.I.R.I.I.R.I.L.R.R.R.L.L.R.R.H.R.R.R.L.R.R.R.R.R.R.I.R.L.R.R.R.&.$ O   E.E.E.",
"  O p k.L.R.R.R.L.R.L.R.E % G R.R.R.R.R.R.R.R.R.R.R.L.L.R.H.I.R.R.L.R.L.L.R.R.L.R.R.R.L.R.L.L.R.I.I.R.R.R.R.R.R.R.l.p     E.E.E.",
"  O 3 r.R.R.R.R.R.L.R.R.A O k v.R.R.R.L.R.R.R.R.L.R.R.L.R.R.I.R.R.R.R.R.R.L.R.L.R.R.R.R.R.R.L.R.H.L.I.H.H.R.R.L.H.n.D o   o E.E.",
"  O O 3.R.R.R.L.R.R.R.R...% # G v.R.R.R.L.R.R.R.R.R.R.R.I.I.R.R.H.R.L.R.R.R.R.R.L.R.H.R.L.R.L.v.u.7.+.{ A v N ! h.R.1.# O   E.E.",
"O O   &.R.R.R.R.R.R.L.R.Z.N   % N u.H.H.R.R.L.Z.Z.H.H.L.I.L.R.H.R.H.R.H.H.L.R.R.L.K.B.s.5.{ N k s 7 $ $ O % O % x g.k.y o o E.E.",
"O   O } R.R.R.R.R.R.R.R.R.u.b O   d M ! o.=.1.3.r.r.e.r.8.9.e.r.w.e.7.w.3.../ U C m z j e % O O o o $ $ 3 j j o O Y Z.x o   E.E.",
"O   O S R.R.R.R.R.R.L.R.R.L.s.V ;   O % ; : 3 5 p p y y 9 r y y y y 9 9 3 O O   % O   % % % e x Z I [ &.9.s.' ; O V H.J o     E.",
"E.O O x H.R.R.R.R.R.R.R.R.R.R.n.' n d ; O o   o o o O O       o       O O % 3 r d z b V P O.e.v.B.L.I.H.v.^ 9 % < | Z.| o     E.",
"E.  O 6 s.L.R.R.R.R.R.L.R.R.R.R.R.H.s.1.O.[ / E D D F G Y ^ I G J Y ( ( } $.7.e.i.v.Z.L.R.R.R.L.R.H.H.Z.F > $ 2 E M.L.e.6 O o E.",
"E.  O   _ R.R.R.R.R.R.R.R.L.R.L.L.L.R.L.H.H.H.H.R.L.L.L.M.H.R.n.Z.P.L.P.H.R.R.R.L.R.R.R.R.R.R.R.R.R.R.^ # O i | n.D.H.D.k   O E.",
"E.  O   c H.R.R.R.L.R.R.R.R.R.R.R.L.R.R.L.R.L.R.R.R.R.R.R.R.R.R.R.R.R.L.K.R.R.R.R.R.R.R.R.R.R.R.R.R.S.j o p 7.H.R.R.R.R.b o   E.",
"E.E.    ; &.R.R.R.R.R.R.L.R.R.R.R.R.L.L.R.R.R.R.R.R.R.R.R.R.R.H.R.R.R.R.R.R.R.K.R.R.L.R.R.R.L.R.R.R.e.3 $ / H.H.L.R.R.R.D       ",
"E.E.      n n.R.R.R.R.R.R.R.R.R.R.R.R.L.R.R.L.R.R.R.L.R.R.R.R.R.R.L.R.R.R.R.R.R.R.L.R.R.L.R.R.L.L.R.&.  % 7.R.R.R.R.R.R._     E.",
"E.E.E.  O ; *.K.R.R.R.L.R.R.R.L.R.R.R.R.R.L.R.R.R.R.R.R.R.L.R.R.R.R.R.R.R.R.R.R.R.R.R.R.R.R.R.R.R.R.|   O s.R.R.R.R.R.R.@.%     ",
"E.E.E.  O   b n.R.R.R.R.L.R.R.L.R.R.R.L.R.R.R.R.R.R.R.R.R.R.R.R.R.L.R.R.R.R.R.R.R.R.R.L.R.R.R.R.R.R.) # < v.R.R.R.R.R.R.X.    E.",
"E.E.E.E.    < @.R.R.R.R.R.R.R.R.L.R.R.R.R.R.R.R.R.R.R.L.R.R.L.R.R.R.L.R.R.R.R.R.R.R.R.R.R.R.L.R.R.R.W # 9 B.R.R.R.L.R.R.X.o     ",
"E.E.E.E.  O   c D.R.R.R.R.R.R.R.R.R.R.R.R.R.R.L.R.R.L.R.R.R.R.R.R.R.R.R.R.R.R.R.R.R.R.R.L.R.R.R.R.R.N O z M.R.R.R.R.R.R.^     E.",
"E.E.E.E.E.    ; &.L.R.R.R.R.R.R.R.R.R.L.R.R.R.R.R.R.R.R.R.R.R.R.R.R.L.R.R.R.R.R.R.L.R.R.R.R.R.R.R.n.j   V R.R.R.L.R.R.R.D O     ",
"E.E.E.E.E.O     v Z.R.R.R.R.R.R.R.R.R.R.R.R.R.R.R.R.R.R.R.L.R.L.R.R.R.R.R.R.R.R.R.R.R.L.R.R.L.R.Z.r.<   { R.R.R.R.R.R.Z.N O   E.",
"E.E.E.E.E.E.    % =.R.R.R.L.R.R.R.R.R.R.R.R.R.R.R.L.R.R.R.R.R.R.R.R.R.R.R.R.R.R.R.R.R.R.R.R.R.R.R.@.O O 9.R.R.R.R.R.R.H.z   O E.",
"E.E.E.E.E.E.  O o z k.R.R.R.R.R.R.R.L.R.R.R.R.R.R.R.R.L.R.R.R.R.R.R.R.R.R.R.R.R.R.R.R.R.R.R.R.R.H.D O w v.R.R.R.L.R.R.g.e     E.",
"E.E.E.E.E.E.E.    % { R.R.R.R.R.R.R.R.R.R.L.R.R.R.L.R.R.R.R.R.R.R.R.R.R.R.R.R.R.R.R.R.R.R.L.R.R.k.p O N H.R.R.R.R.R.R.7.O O   E.",
"E.E.E.E.E.E.E.% O O k Z.R.R.L.R.R.R.R.R.L.R.R.R.R.R.R.R.R.R.b.2.i.H.R.R.R.R.R.L.R.R.R.R.R.R.L.R.[     O.L.R.L.R.R.R.H.! O     E.",
"E.E.E.E.E.E.E.E.    ; X.L.R.R.R.R.R.R.R.R.R.R.R.R.R.R.R.R.R.^ $ k u.L.R.R.R.R.R.R.R.L.R.R.R.R.B.l # f v.K.L.R.R.R.R.Z.z     E.E.",
"E.E.E.E.E.E.E.E.  O   z s.R.R.R.R.L.R.R.L.R.R.R.L.R.R.R.R.R.J $ O b r.R.R.R.R.R.R.R.R.R.R.R.S.~ $ O ) R.L.R.L.R.R.R.g.; o   E.E.",
"E.E.E.E.E.E.E.E.E.    O n n.R.R.R.R.R.R.R.R.R.R.R.R.R.R.R.R.g.c O O y ' M.R.R.R.R.R.R.R.R.H.W %   c v.R.H.R.R.L.R.L.' %     E.E.",
"E.E.E.E.E.E.E.E.E.    O % E Z.H.R.R.R.R.R.R.R.L.R.R.R.R.R.R.R.r.z - O : x _ ;.u.z.Z.S.Z.d.D ; O 9 =.R.K.R.H.L.R.H.H.b   O E.E.E.",
"E.E.E.E.E.E.E.E.E.E.    O < { R.R.H.R.L.R.R.R.R.R.R.L.R.R.R.R.H.g.J 7     $ ; < z n n C k # & 9 3.R.R.R.L.L.R.L.R.g.< o   E.E.E.",
"E.E.E.E.E.E.E.E.E.E.E.    O r 9.L.R.R.R.R.R.R.R.R.R.R.R.R.L.R.R.R.H.3.x 7 O $ O %   O   O - z 1.R.R.L.R.R.L.R.L.R.) O   O E.E.E.",
"E.E.E.E.E.E.E.E.E.E.E.E.  O   j w.L.R.R.R.R.R.R.R.R.R.R.R.R.R.R.R.R.H.B.1.' I b y 3 7 5 e G g.n.R.R.R.L.R.R.R.R.k.j O   E.E.E.E.",
"E.E.E.E.E.E.E.E.E.E.E.E.E.    O i %.H.S.R.R.R.R.R.R.R.L.R.L.R.L.R.R.R.R.R.H.H.H.v.s.g.q.h.R.R.L.K.R.R.R.R.R.S.H.F     o E.E.E.E.",
"E.E.E.E.E.E.E.E.E.E.E.E.E.E.    O 3 D q.H.R.R.R.L.R.R.R.R.R.R.R.R.R.R.R.K.R.L.H.Z.R.R.H.K.R.R.R.R.R.R.L.R.R.H.) :     E.E.E.E.E.",
"E.E.E.E.E.E.E.E.E.E.E.E.E.E.E.    O # 9 ' v.H.L.R.R.R.R.R.L.R.R.R.R.R.R.R.H.R.H.K.L.R.R.R.R.R.R.R.R.R.R.R.H.} 2       E.E.E.E.E.",
"E.E.E.E.E.E.E.E.E.E.E.E.E.E.E.E.      O # k &.Z.R.R.R.R.R.R.R.R.R.R.R.L.R.R.L.R.R.R.R.R.R.R.R.R.R.R.R.R.R.@.3 O     E.E.E.E.E.E.",
"E.E.E.E.E.E.E.E.E.E.E.E.E.E.E.E.E.E.    O O $ x E &.k.M.L.K.R.R.R.R.R.R.R.R.R.R.L.R.R.R.R.R.R.R.R.R.H.L.3.7       E.E.E.E.E.E.E.",
"E.E.E.E.E.E.E.E.E.E.E.E.E.E.E.E.E.E.E.O   O O   $ O 3 k G 3.M.K.L.R.R.R.R.R.R.R.R.R.R.R.R.R.R.R.S.Z.s.Q 7 O     E.E.E.E.E.E.E.E.",
"E.E.E.E.E.E.E.E.E.E.E.E.E.E.E.E.E.E.E.E.E.O           O O   j N U @.5.s.v.Z.Z.L.L.L.K.R.K.Z.w.} J z < O   O o E.E.E.E.E.E.E.E.E.",
"E.E.E.E.E.E.E.E.E.E.E.E.E.E.E.E.E.E.E.E.E.E.E.E.          O   O O # # < 9 k n D Y F G F C z ; % %         o E.E.E.E.E.E.E.E.E.E.",
"E.E.E.E.E.E.E.E.E.E.E.E.E.E.E.E.E.E.E.E.E.E.E.E.E.E.E.E.      O     O     O     O O O O   O O     O     E.E.E.E.E.E.E.E.E.E.E.E.",
"E.E.E.E.E.E.E.E.E.E.E.E.E.E.E.E.E.E.E.E.E.E.E.E.E.E.E.E.E.E.E.        O       O   O O O   O   O     E.E.E.E.E.E.E.E.E.E.E.E.E.E."
};
