/* XPM */
static char *frame_00_delay_0_2s1763316727[] = {
/* columns rows colors chars-per-pixel */
"64 64 133 2 ",
"   c black",
".  c #010101",
"X  c #020202",
"o  c gray1",
"O  c #040404",
"+  c gray2",
"@  c #060606",
"#  c #070707",
"$  c gray3",
"%  c #090909",
"&  c gray4",
"*  c #0B0B0B",
"=  c gray5",
"-  c #0E0E0E",
";  c #101010",
":  c gray7",
">  c gray8",
",  c #151515",
"<  c #161616",
"1  c #181818",
"2  c gray10",
"3  c gray11",
"4  c #1E1E1E",
"5  c #202020",
"6  c #222222",
"7  c gray14",
"8  c #272727",
"9  c #2A2A2A",
"0  c #2C2C2C",
"q  c gray19",
"w  c #323232",
"e  c #323136",
"r  c gray22",
"t  c #3A3A3A",
"y  c #3D3C41",
"u  c gray28",
"i  c #494949",
"p  c #4A494E",
"a  c #4F4F50",
"s  c gray33",
"d  c gray35",
"f  c #5C5C5E",
"g  c #606060",
"h  c #626166",
"j  c gray40",
"k  c #68676B",
"l  c gray42",
"z  c gray43",
"x  c #707072",
"c  c gray45",
"v  c #787779",
"b  c gray48",
"n  c #7C7C7C",
"m  c gray50",
"M  c #838384",
"N  c #868686",
"B  c gray53",
"V  c #888888",
"C  c gray54",
"Z  c gray55",
"A  c #8D8D8D",
"S  c #8E8E8E",
"D  c gray57",
"F  c #959595",
"G  c #979699",
"H  c #9A9A9A",
"J  c gray62",
"K  c #A0A0A0",
"L  c #A2A2A2",
"P  c #A4A4A6",
"I  c #A7A6A7",
"U  c #A9A9A9",
"Y  c #ACACAC",
"T  c gray69",
"R  c #B2B2B2",
"E  c #B4B4B4",
"W  c gray71",
"Q  c #B6B6B7",
"!  c #B8B7BA",
"~  c gray73",
"^  c #BCBCBC",
"/  c gray",
"(  c gray75",
")  c #C1C1C1",
"_  c #C3C3C3",
"`  c gray78",
"'  c gray79",
"]  c #CACACA",
"[  c gray80",
"{  c #CDCDCE",
"}  c gray81",
"|  c #D1D0D1",
" . c #D2D2D2",
".. c LightGray",
"X. c #D5D5D5",
"o. c #D8D8D8",
"O. c #DADADB",
"+. c #DDDDDD",
"@. c #DFDFDF",
"#. c #E1E1E1",
"$. c gray89",
"%. c #E4E4E4",
"&. c #E6E5E6",
"*. c #E7E7E7",
"=. c #E9E9E9",
"-. c #EAEAEA",
";. c gray92",
":. c #ECECEC",
">. c #EDECED",
",. c gray93",
"<. c #EEEEEE",
"1. c #EFEFEF",
"2. c gray94",
"3. c #F1F1F1",
"4. c gray95",
"5. c #F4F3F4",
"6. c #F5F4F5",
"7. c gray96",
"8. c #F6F6F6",
"9. c #F8F8F8",
"0. c #F9F8F9",
"q. c #F9F9F9",
"w. c #FAF9FA",
"e. c gray98",
"r. c #FBFAFB",
"t. c #FBFBFB",
"y. c #FCFBFC",
"u. c gray99",
"i. c #FDFCFD",
"p. c #FDFDFD",
"a. c #FEFEFE",
"s. c white",
"d. c None",
/* pixels */
"d.d.d.d.d.d.d.d.d.d.d.d.d.d.d.d.d.d.d.d.d.d.d.d.d.d.d.d.d.d.d.d.d.d.d.d.d.d.d.d.d.d.d.d.d.d.d.d.d.d.d.d.d.d.d.d.d.d.d.d.d.d.d.d.",
"d.d.d.d.d.d.d.d.d.d.d.d.d.d.d.d.d.d.d.d.d.d.d.                        d.d.d.d.d.d.d.d.d.d.d.d.d.d.d.d.d.d.d.d.d.d.d.d.d.d.d.d.d.",
"d.d.d.d.d.d.d.d.d.d.d.d.d.d.d.d.d.                            O O O               d.d.d.d.d.d.d.d.d.d.d.d.d.d.d.d.d.d.d.d.d.d.d.",
"d.d.d.d.d.d.d.d.d.d.d.d.d.d.                                  3 4 = O O                 d.d.d.d.d.d.d.d.d.d.d.d.d.d.d.d.d.d.d.d.",
"d.d.d.d.d.d.d.d.d.d.d.d.      O O   : =         $ O *   O O # < s H ( U C x d 8 = O   O     d.d.d.d.d.d.d.d.d.d.d.d.d.d.d.d.d.d.",
"d.d.d.d.d.d.d.d.d.d.        = p S L t O O   2 d m D D B b u *   O O ; 5 d m L  .' M 5 O O     d.d.d.d.d.d.d.d.d.d.d.d.d.d.d.d.d.",
"d.d.d.d.d.d.d.d.d.    = * d ' 8.-.t O O u J +.e.e.y.i.i.i.e._ v w * $ O O * = < 4 y j y   O       d.d.d.d.d.d.d.d.d.d.d.d.d.d.d.",
"d.d.d.d.d.d.d.d.    O i ( 5.e.%.y * ; S <.u.u.t.e.y.i.i.i.i.8.8.<.) J z y 7 = O * O O *     O       d.d.d.d.d.d.d.d.d.d.d.d.d.d.",
"d.d.d.d.d.d.* * O * m <.y.e.>.a # ; F t.8.i.i.i.u.u.i.i.i.i.i.i.u.i.u.u.5.-.) S p =                   d.d.d.d.d.d.d.d.d.d.d.d.d.",
"d.d.d.d.d.      < P 8.5.e.>.a $ * N 4.4.( m j j M P @.i.i.i.i.i.i.i.i.i.t.7.Q i : O                 O   d.d.d.d.d.d.d.d.d.d.d.d.",
"d.d.d.d.  O O a  .e.e.9.4.f * O n +.n w = O * O $ * < l $.t.i.i.i.i.i.8.+.a *     O       O         O     d.d.d.d.d.d.d.d.d.d.d.",
"d.d.d.    O h ;.8.e.i.8.c * * v U 9 * O O   5 q < O O * f e.i.i.i.i.i.[ 0 *           O     O             d.d.d.d.d.d.d.d.d.d.d.",
"d.d.d.  O f 4.i.i.i.<.j = = t s * O       O j %.+.~ h * * ~ i.i.i.i.} 7 * 2 p * O   O   O   # u i O *       d.d.d.d.d.d.d.d.d.d.",
"d.d.    w -.i.t.i.-.s O O O $ O   O   O O   a 9.e.e.<.t O l i.i.i.<.y O 2 ~ ( O O O   O   O   c <.z *         d.d.d.d.d.d.d.d.d.",
"d.d.O * ~ 9.e.i.[ t *   O * O   O     O # * F i.i.u.e.d O s i.i.i.I # = T e.<.r O *   O O O 0 ' i.4.l   * O   d.d.d.d.d.d.d.d.d.",
"d.    e 8.t.4.D 7 O       = u *     O   O f 7.u.u.i.E < # b i.i.i.c O < *.u.e.+.S u 8 8 a D %.8.e.e._ = < <     d.d.d.d.d.d.d.d.",
"d.O O S i.i.M *   5 H 5 O p 4.S w > : t Z -.8.e.e.J 2 # 7 O.i.i.i.Q O * ) e.t.t.e.1.@.%.4.i.i.i.i.i.D O 7 v O   O d.d.d.d.d.d.d.",
"d.O = X.i.t.n > s  .i.f O y 4.t.%.+.O.%.9.9.e.O.c ; O 5 ^ t.i.i.i.-.e O u +.t.i.e.e.i.i.t.t.i.i.i.~ 7   l -.7 O   d.d.d.d.d.d.d.",
"  O 7 -.i.i.1. .<.i.i.F * O g ` -.<.$.O.' Y j 7 O   8 ) t.e.i.i.i.i.G = # 5 z P o.<.1.<.;.;.O.U s : O 2 ' i.R = O O d.d.d.d.d.d.",
"  O w t.i.i.i.i.i.i.i.1.u O # < 7 7 9 4 < =   * ; s  .e.u.i.i.i.i.i.8.N > O O O 3 w w 8 5 7 3 *   * 2 L e.t.8.f O     d.d.d.d.d.",
"O   y i.i.i.i.i.i.i.i.i.$.h < O O O * O * O 9 a T 1.t.t.i.i.i.i.i.i.i.t.~ g 0 = O O O O O O O = q m X.t.t.t.i.$.9 O   d.d.d.d.d.",
"O O y i.i.i.i.i.i.i.i.i.i.8.' M j j n S H Y O.4.t.t.t.t.t.i.i.i.i.i.i.i.9.9.@.( Z z l m n n S _ $.8.i.i.i.i.i.i.K *   d.d.d.d.d.",
"O   y i.i.i.i.i.i.i.i.i.i.i.i.i.t.i.i.i.i.i.i.i.i.i.i.i.i.i.i.i.i.i.i.i.i.i.i.i.i.i.i.i.i.i.i.i.i.t.i.t.i.i.i.i.<.7   O d.d.d.d.",
"O   y i.i.i.i.i.i.i.i.i.i.i.i.i.i.t.i.i.i.i.i.i.t.i.i.i.t.i.i.i.i.i.i.i.i.i.i.i.i.t.i.i.i.i.i.i.i.i.i.i.i.i.i.i.i.z O O d.d.d.d.",
"O   t e.i.i.i.i.i.i.i.i.-.Y $.i.i.i.i.i.i.i.i.i.i.i.i.i.i.i.i.i.i.i.i.i.i.i.i.i.i.i.i.i.i.i.i.i.i.i.i.i.i.i.i.i.i.( O   d.d.d.d.",
"  O 7 -.i.i.i.i.i.i.i.i.C = b i.i.i.i.i.i.i.i.i.i.i.i.i.i.i.i.i.i.i.i.i.i.i.i.i.i.i.i.i.i.i.i.i.i.i.i.i.i.i.i.i.i.<.7     d.d.d.",
"  O < O.i.i.i.i.i.i.i.i.z O e <.i.i.i.i.i.i.i.i.i.i.i.i.i.i.i.i.i.i.i.i.i.i.i.i.i.i.i.i.i.i.i.i.i.i.i.e.e.i.8.e.e.8.z   O d.d.d.",
"d.O O ' i.i.i.i.i.i.i.i.Y = O x 4.i.i.i.i.i.i.i.i.i.i.i.i.i.i.i.i.i.i.i.i.i.i.i.i.i.i.i.i.i.i.4.$.{ ~ P z p g S -.i.( # O d.d.d.",
"O O   ( i.i.i.i.i.i.i.i.e.g   * h $.e.8.t.i.i.8.e.e.e.e.u.y.i.y.i.9.e.e.i.i.i.i.y.e.5.$.[ P g t 0 2 * * O     * u %.-.3 O   d.d.",
"d.O o I i.i.i.i.i.i.i.i.i.-.a O   q f S T ( _ [ O.O.O.O.|  .o.O.o.o.|  .{ Y F B l d y w 3 *   O   O O * 2 w 0 O O B 8.u O   d.d.",
"d.  O c i.i.i.i.i.i.i.i.i.i.%.h >   O * = = < < 7 7 5 5 3 5 5 5 5 5 3 3 < O O O *     * O O 5 u k b P ~  .$.U = O j 8.m O   d.d.",
"d.O   y i.i.i.i.i.i.i.i.i.i.i.8.U p 0 : O O       O O O       O O   O O O * < 5 0 e i g B ~ O.1.e.e.e.8.<.G 4 O : U t.P   O d.d.",
"d.O O 2 $.i.i.i.i.i.i.i.i.i.i.i.t.4.%.' T L H Z c c b n V D M M n N G F U ~ { +.$.-.9.i.i.i.i.i.i.i.i.9.c ; * : S 4.i.O.< O O d.",
"d.d.O   H i.i.i.i.i.i.i.i.i.i.i.i.e.i.i.e.e.i.i.t.i.i.i.7.e.u.e.1.t.i.i.e.i.i.u.i.i.i.i.i.i.i.i.i.i.i.D * O 7 L 8.t.i.e.t   O d.",
"d.d.O   i e.i.i.i.i.i.i.i.i.i.i.i.i.i.i.i.i.i.i.i.i.i.i.i.i.i.i.i.i.i.i.i.i.i.i.i.i.i.i.i.i.i.i.i.i.e.e O 9 { i.i.i.i.i.a O   d.",
"d.d.    = ~ i.i.i.i.i.i.i.i.i.i.i.i.i.i.i.i.i.i.i.i.i.i.i.i.i.i.i.i.i.i.i.i.i.i.i.i.i.i.i.i.i.i.i.i.o.> * D e.i.i.i.i.i.c #   d.",
"d.d.d.O   s 9.9.i.i.i.i.i.i.i.i.i.i.i.i.i.i.i.i.i.i.i.i.i.i.i.i.i.i.i.i.i.i.i.i.i.i.i.i.i.i.i.i.i.i.! o O } i.i.i.i.i.i.F     d.",
"d.d.d.  O = ^ y.i.i.i.i.i.i.i.i.i.i.i.i.i.i.i.i.i.i.i.i.i.i.i.i.i.i.i.i.i.i.i.i.i.i.i.i.i.i.i.i.i.i.U   O :.i.i.i.i.i.i.T *   d.",
"d.d.d.d.$   a 8.i.i.i.i.i.i.i.i.i.i.i.i.i.i.i.i.i.i.i.i.i.i.i.i.i.i.i.i.i.i.i.i.i.i.i.i.i.i.i.i.i.i.H O ; <.i.i.i.i.i.i.Y     d.",
"d.d.d.d.*   = ~ i.i.i.i.i.i.i.i.i.i.i.i.i.i.i.i.i.i.i.i.i.i.i.i.i.i.i.i.i.i.i.i.i.i.i.i.i.i.i.i.i.i.C   4 5.i.i.i.i.i.i.Y O   d.",
"d.d.d.d.d.O   a 9.i.i.i.i.i.i.i.i.i.i.i.i.i.i.i.i.i.i.i.i.i.i.i.i.i.i.i.i.i.i.i.i.i.i.i.i.i.i.i.i.i.g O y 9.i.i.i.i.i.i.G O   d.",
"d.d.d.d.d.    * ~ i.i.i.i.i.i.i.i.i.i.i.i.i.i.i.i.i.i.i.i.i.i.i.i.i.i.i.i.i.i.i.i.i.i.i.i.i.i.i.i.1.w   j i.i.i.i.i.i.i.z O   d.",
"d.d.d.d.d.d.  o p 8.i.i.i.i.i.i.i.i.i.i.i.i.i.i.i.i.i.i.i.i.i.i.i.i.i.i.i.i.i.i.i.i.i.i.i.i.i.i.i.+.:   P i.i.i.i.i.i.i.f O   d.",
"d.d.d.d.d.d.    * _ i.i.i.i.i.i.i.i.i.i.i.i.i.i.i.i.i.i.i.i.i.i.i.i.i.i.i.i.i.i.i.i.i.i.i.i.i.i.i.Q O O X.i.i.i.i.i.i.i.y   O d.",
"d.d.d.d.d.d.d.o O y 4.i.i.i.i.i.i.i.i.i.i.i.i.i.i.i.i.i.i.i.i.i.i.i.i.i.i.i.i.i.i.i.i.i.i.i.i.i.t.x # 5 1.i.i.i.i.i.i.-.4 O   d.",
"d.d.d.d.d.d.d.o   # Y i.i.i.i.i.i.i.i.i.i.i.i.i.i.i.i.i.i.i.i.i.i.i.i.i.i.i.i.i.i.i.i.i.i.i.i.i.*.0 * f i.i.i.i.i.i.i.{     d.d.",
"d.d.d.d.d.d.d.d.O O t e.i.i.i.i.i.i.i.i.i.i.i.i.i.i.i.i.i.i.2.' %.e.i.i.i.i.i.i.i.i.i.i.i.i.i.i.U     T i.i.i.i.i.i.e.S     d.d.",
"d.d.d.d.d.d.d.d.  O * Y i.i.i.i.i.i.i.i.i.i.i.i.i.i.i.i.i.i.D $ t $.i.i.i.i.i.i.i.i.i.i.i.i.i.9.t O 0 <.i.i.i.i.i.i.8.y O   d.d.",
"d.d.d.d.d.d.d.d.d.    y $.i.i.i.i.i.i.i.i.i.i.i.i.i.i.i.i.i.M $ O s O.i.i.i.i.i.i.i.i.i.i.i.8.S # O F i.i.i.i.i.i.i.%.; O   d.d.",
"d.d.d.d.d.d.d.d.d.    * a 8.i.i.i.i.i.i.i.i.i.i.i.i.i.i.i.i.*.u   O 7 P 8.i.i.i.i.i.i.i.i.e.M *   y 4.i.i.i.i.i.i.i.K *   d.d.d.",
"d.d.d.d.d.d.d.d.d.d.o O * B 9.i.i.i.i.i.i.i.i.i.i.i.i.i.i.i.i.+.t O O O y H ) o.1.e.8.8.%.b : * 4 _ i.i.i.i.i.i.t.t.s O O d.d.d.",
"d.d.d.d.d.d.d.d.d.d.d.  O : P i.i.i.i.i.i.i.i.i.i.i.i.i.i.i.i.i.<.M 2 O O * * 2 y s s k t * O 7 _ i.i.i.i.i.i.i.i.*.>   O d.d.d.",
"d.d.d.d.d.d.d.d.d.d.d.d.  O 4  .e.u.u.i.i.i.i.i.i.i.i.i.i.i.i.i.i.u.{ s : * O # O   O O O * y ` i.i.i.i.i.i.i.i.i.H O O d.d.d.d.",
"d.d.d.d.d.d.d.d.d.d.d.d.d.    w o.u.i.i.i.i.i.i.i.i.i.i.i.i.i.i.i.i.e.8.` L M s 7 < 2 < 2 b <.4.i.i.i.i.i.i.i.i.-.w     d.d.d.d.",
"d.d.d.d.d.d.d.d.d.d.d.d.d.    O 8 R e.e.i.i.i.i.i.i.i.i.i.i.i.i.i.i.i.i.t.t.e.e.<.%.@.{ -.t.i.i.i.i.i.i.i.i.i.e.m O   d.d.d.d.d.",
"d.d.d.d.d.d.d.d.d.d.d.d.d.d.    O ; x O.i.i.i.i.i.i.i.i.i.i.i.i.i.i.i.i.t.i.t.t.e.i.i.e.i.i.i.i.i.i.i.i.i.i.i.G =     d.d.d.d.d.",
"d.d.d.d.d.d.d.d.d.d.d.d.d.d.d.    O O 4 L ;.e.t.i.i.i.i.i.i.i.i.i.i.i.i.i.i.i.i.i.i.i.i.i.i.i.i.i.i.i.i.t.9.Y >   O d.d.d.d.d.d.",
"d.d.d.d.d.d.d.d.d.d.d.d.d.d.d.d.d.  O   * t ~ 4.i.i.i.i.i.i.i.i.i.i.i.i.i.i.i.i.i.i.i.i.i.i.i.i.i.i.i.i.i.Q < O   d.d.d.d.d.d.d.",
"d.d.d.d.d.d.d.d.d.d.d.d.d.d.d.d.d.d.d.    O = u S ( -.4.i.i.i.i.i.i.i.i.i.i.i.i.i.i.i.i.i.i.i.i.i.i.u.8.' 4     d.d.d.d.d.d.d.d.",
"d.d.d.d.d.d.d.d.d.d.d.d.d.d.d.d.d.d.d.d.    O   #   > t m ' e.i.i.i.i.i.i.i.i.i.i.i.i.i.i.i.i.i.e.e.$.Z 4 O   d.d.d.d.d.d.d.d.d.",
"d.d.d.d.d.d.d.d.d.d.d.d.d.d.d.d.d.d.d.d.d.d.          O O # 9 d N Q _ $.4.8.8.e.i.u.i.u.i.e.X.L m y : O O   O d.d.d.d.d.d.d.d.d.",
"d.d.d.d.d.d.d.d.d.d.d.d.d.d.d.d.d.d.d.d.d.d.d.d.d.d.O     O   O   # # = 4 t s z V b z z l y = O O     O o d.d.d.d.d.d.d.d.d.d.d.",
"d.d.d.d.d.d.d.d.d.d.d.d.d.d.d.d.d.d.d.d.d.d.d.d.d.d.d.d.d.        O               O O O     O       O d.d.d.d.d.d.d.d.d.d.d.d.d.",
"d.d.d.d.d.d.d.d.d.d.d.d.d.d.d.d.d.d.d.d.d.d.d.d.d.d.d.d.d.d.d.d.d.d.d.O     O     O O O   O   O d.d.d.d.d.d.d.d.d.d.d.d.d.d.d.d."
};
