/* XPM */
static char *frame_17_delay_0_05s1763316729[] = {
/* columns rows colors chars-per-pixel */
"64 64 172 2 ",
"   c black",
".  c #010101",
"X  c #020202",
"o  c gray1",
"O  c #040404",
"+  c gray2",
"@  c #060606",
"#  c #070707",
"$  c gray3",
"%  c #090909",
"&  c gray4",
"*  c #0B0B0B",
"=  c #0C0C0C",
"-  c gray5",
";  c #0E0E0E",
":  c gray6",
">  c #101010",
",  c #111111",
"<  c gray7",
"1  c #131313",
"2  c gray8",
"3  c #151515",
"4  c #161616",
"5  c gray9",
"6  c #181818",
"7  c #191919",
"8  c gray10",
"9  c gray11",
"0  c #1D1D1D",
"q  c #1E1E1E",
"w  c gray12",
"e  c #202020",
"r  c #222222",
"t  c #232323",
"y  c gray14",
"u  c gray15",
"i  c #272727",
"p  c #282828",
"a  c #2A2A2A",
"s  c #2C2C2C",
"d  c #2D2D2D",
"f  c #2F2F2F",
"g  c gray19",
"h  c #313131",
"j  c #323232",
"k  c #323136",
"l  c gray22",
"z  c #3A3A3A",
"x  c #3D3C41",
"c  c gray28",
"v  c #494949",
"b  c #4A494E",
"n  c #4F4F50",
"m  c gray33",
"M  c gray35",
"N  c #5C5C5E",
"B  c #606060",
"V  c #626166",
"C  c gray40",
"Z  c #68676B",
"A  c gray42",
"S  c gray43",
"D  c #707072",
"F  c gray45",
"G  c #787779",
"H  c gray48",
"J  c #7B7B7B",
"K  c #7C7C7C",
"L  c gray49",
"P  c #7E7E7E",
"I  c gray50",
"U  c #808083",
"Y  c #838384",
"T  c #868686",
"R  c gray53",
"E  c #898989",
"W  c gray54",
"Q  c #8B8B8B",
"!  c gray55",
"~  c #8D8D8D",
"^  c #8E8E8E",
"/  c gray57",
"(  c #939393",
")  c gray58",
"_  c #959595",
"`  c #979699",
"'  c #9A9A9A",
"]  c gray61",
"[  c gray62",
"{  c #A0A0A0",
"}  c gray63",
"|  c #A2A2A2",
" . c #A4A4A6",
".. c #A7A6A7",
"X. c #A9A9A9",
"o. c #AAAAAA",
"O. c gray67",
"+. c #ACACAC",
"@. c #AEAEAE",
"#. c gray69",
"$. c #B2B2B2",
"%. c gray70",
"&. c #B4B4B4",
"*. c gray71",
"=. c #B6B6B7",
"-. c #B8B7BA",
";. c gray73",
":. c #BCBCBC",
">. c gray74",
",. c gray",
"<. c gray75",
"1. c #C0C0C0",
"2. c #C1C1C1",
"3. c #C3C3C3",
"4. c #C5C5C5",
"5. c #C6C6C6",
"6. c gray78",
"7. c #C8C8C8",
"8. c gray79",
"9. c #CACACA",
"0. c gray80",
"q. c #CDCDCE",
"w. c gray81",
"e. c #D1D0D1",
"r. c #D2D2D2",
"t. c LightGray",
"y. c gray83",
"u. c #D5D5D5",
"i. c #D6D5D7",
"p. c #D8D8D8",
"a. c #DADADB",
"s. c #DCDBDC",
"d. c #DDDDDD",
"f. c #DFDFDF",
"g. c #E1E0E1",
"h. c #E1E1E1",
"j. c #E2E2E2",
"k. c gray89",
"l. c #E4E4E4",
"z. c #E6E5E6",
"x. c #E7E7E7",
"c. c gray91",
"v. c #E9E9E9",
"b. c #EAEAEA",
"n. c gray92",
"m. c #ECECEC",
"M. c gray93",
"N. c #EEEEEE",
"B. c #EFEFEF",
"V. c gray94",
"C. c #F1F1F1",
"Z. c gray95",
"A. c #F3F3F3",
"S. c #F4F3F4",
"D. c #F4F4F4",
"F. c gray96",
"G. c #F6F6F6",
"H. c gray97",
"J. c #F8F8F8",
"K. c #F9F8F9",
"L. c #F9F9F9",
"P. c #FAF9FA",
"I. c gray98",
"U. c #FBFAFB",
"Y. c #FBFBFB",
"T. c #FCFBFC",
"R. c gray99",
"E. c #FDFCFD",
"W. c #FDFDFD",
"Q. c #FEFEFE",
"!. c white",
"~. c None",
/* pixels */
"~.~.~.~.~.~.~.~.~.~.~.~.~.~.~.~.~.~.~.~.      ~.                      ~.  ~.  ~.~.~.~.~.~.~.~.~.~.~.~.~.~.~.~.~.~.~.~.~.~.~.~.~.",
"~.~.~.~.~.~.~.~.~.~.~.~.~.~.~.~.                                                    ~.~.~.~.~.~.~.~.~.~.~.~.~.~.~.~.~.~.~.~.~.~.",
"~.~.~.~.~.~.~.~.~.~.~.~.~.~.                      + + + o   + O O                         ~.~.~.~.~.~.~.~.~.~.~.~.~.~.~.~.~.~.~.",
"~.~.~.~.~.~.~.~.~.~.~.~.                        * 7 d l c c c d 2 & #                       ~.~.~.~.~.~.~.~.~.~.~.~.~.~.~.~.~.~.",
"~.~.~.~.~.~.~.~.~.~.  +         + $ 6 B ) ] / F C C A S S X.0.a.b.l.d. .U F m d ; +             ~.~.~.~.~.~.~.~.~.~.~.~.~.~.~.~.",
"~.~.~.~.~.~.~.~.~.          * n R $.d.0.H f = &   + & # + & , 2 l ~ &.0.M.P.P.C.e.L 0     O       ~.~.~.~.~.~.~.~.~.~.~.~.~.~.~.",
"~.~.~.~.~.~.~.        # * N 5.G.Q.h.A 2 + + # & y l l l d $ & O + = > > 7 v G X.a.M.x.~ r &         ~.~.~.~.~.~.~.~.~.~.~.~.~.~.",
"~.~.~.~.~.~.        O c <.A.T.T.3.d + + 2 C X.p.C.B.C.C.D.w.#./ n 6 $ & + O + & ; 0 i j j   o         ~.~.~.~.~.~.~.~.~.~.~.~.~.",
"~.~.~.~.~.  o + + & F C.R.H.V.! : + 2 H b.G.Q.Q.P.Q.Q.Q.Q.Q.Q.Q.J.x.p.>.L n a ;   O +   $   +   +       ~.~.~.~.~.~.~.~.~.~.~.~.",
"~.~.~.~.  O   # 2  .J.G.P.p.m o & d :.C.Q.P.P.Q.Q.Q.Q.Q.Q.Q.Q.Q.Q.R.Q.R.R.G.M.e.{ ~ F C j     o   +       ~.~.~.~.~.~.~.~.~.~.~.",
"~.~.~.    o O n 0.T.R.J.9.d $ & M l.C.C.9.` ) ) =.s.G.Q.Q.Q.Q.Q.Q.R.Q.R.Q.Q.Q.M.` c l y ,   2 n F y         ~.~.~.~.~.~.~.~.~.~.",
"~.~.      o V n.G.P.P.9.d # 4 / M.5.F i 2 + $ + ; 0 A h.Q.Q.Q.Q.R.Q.Q.Q.Q.Q.9.c & + + +   o $ + = 2           ~.~.~.~.~.~.~.~.~.",
"~.      $ N B.Y.A.J.@.i $ 9 >.M.T 2 O   + 2 0 , & o + x c.Y.Q.Q.Q.Q.P.P.P.( e # ; c F J / ! v y # +           ~.~.~.~.~.~.~.~.~.",
"~.      j l.R.Y.h.S , $ s 2.y.v :   y A [ 5.c.d.=.V =   n G.Q.Q.Q.R.Q.Q.#.2 $ 7 / a.@.L H X.C.h.[ & + y $   o   ~.~.~.~.~.~.~.~.",
"    O = =.P.n./ t &   v q.0.s + & N 5./ m C s.A.Q.C.U & - y.Q.P.Q.R.Q.D.x $ l y.2.l ; +   $ ' G.H.C + s z +       ~.~.~.~.~.~.~.",
"    O l C.R.L + $ , L b.M.m + ; ` y.l - + # A Q.Q.H.z., o %.P.Q.T.Q.Q.q.= + >.M.j & o   O   F G.P.9.# & { ,       ~.~.~.~.~.~.~.",
"  + + ~ Q.Q.' 9 n 5.C.G.-.+ &  .P.H   o o O m P.Q.P.d.&   >.R.Q.Q.Q.Q.<.& 4 b.n.d   $ & O 2 &.R.R.s.7 # 1.H   O     ~.~.~.~.~.~.",
"+   ; w.Q.Q.A.p.V.J.J.Q.L O x B.C.c o     2 <.R.Q.Y.G + 2 i.Q.Q.Q.Q.Q.q.= = 5.P.{ d l l M =.G.Q.Q.a.7 + V b.j   O   ~.~.~.~.~.~.",
"  o t b.Q.Q.Q.Q.Q.R.R.Q.L + v P.Q.I & & j o.Y.P.C./ 2   j A.Q.R.Q.R.Q.B.f = w A { [ 2.d.b.b.d.y.=.A + + l G.X.- +     ~.~.~.~.~.",
"+ o j P.Q.Q.Y.Q.Q.Q.P.Q.@.+ ; [ V.C.=.=.k.P.C.w.B & + = / P.Q.Q.Q.Q.Q.Q.[ o o o & ; 9 l z s t 7 & + o + A J.Y.N O   +   ~.~.~.~.",
"    x Q.Q.Q.Q.Q.T.Q.Q.Q.b.a + & c X.<.*.#.^ c 3 o o o l z.Q.P.Q.Q.Q.Q.Q.B.n # O + & +   # + O # ; a b / h.Q.Q.h.l O +     ~.~.~.",
"    x Q.Q.Q.Q.Q.Q.Q.Q.Q.M.j +   o ; 4 = - - # o     x i.G.T.Q.T.R.Q.Q.Q.P.z./ l ; + + + O O l  .>.a.G.Q.H.Q.R.Q.{ &       ~.~.~.",
"    x Q.Q.Q.Q.Q.Q.Q.Q.Q.Q.F ; ; d 4 # : 2 # o o 2 L h.P.Q.Q.Q.P.Q.Q.Q.Q.R.Q.Q.b.;.[ L M b L a.P.Q.Q.Q.P.Q.Q.R.Q.C.y       ~.~.~.",
"+   x Q.Q.Q.Q.Q.Q.Q.Q.Q.Q.n.;.9.k.i.5.e.2.c t c ;.A.P.P.Q.Q.Q.Q.Q.R.Q.Q.Q.Q.Q.Q.G.Q.Q.P.G.Q.Q.Q.Q.Q.Q.Q.Q.Q.Q.Q.Q.S         ~.~.",
"  + l P.Q.Q.Q.Q.Q.Q.Q.Q.Q.Q.Q.Q.Q.Q.Q.Q.P.M.a.b.Q.Q.Y.Q.Q.Q.Q.Q.R.Q.Q.Q.Q.Q.Q.Q.Q.Q.Q.Q.P.Q.Q.Q.Q.Q.Q.Q.Q.Q.Q.Q.Q.;.+     ~.~.~.",
"+   d M.Q.Q.Q.Q.Q.Q.Q.Q.Q.Q.Q.Q.Q.Q.Q.Q.Q.Q.Q.Q.Q.Q.Q.Q.Q.Q.Q.Q.Q.R.Q.Q.R.Q.Q.Q.Q.Q.Q.Q.Q.Q.Q.Q.Q.Q.Q.Q.Q.Q.Q.Q.P.C.y +     ~.~.",
"    , a.Q.Q.Q.Q.P.Q.Q.Q.Q.Q.Q.Q.Q.Q.Q.Q.Q.Q.Q.Q.Q.Q.Q.Q.Q.Q.Q.Q.Q.Q.Q.R.Q.Q.Q.Q.Q.Q.Q.Q.Q.Q.Q.Q.Q.Q.Q.Q.P.Q.Q.Q.Q.Q.Z   o     ~.",
"+   + 9.Q.Q.Q.Q.Q.Q.T.Q.Q.Q.Q.Q.Q.Q.Q.Q.Q.Q.Q.Q.Q.Q.Q.Y.Q.Q.Q.Q.Q.Q.Q.Q.R.Q.Q.Q.Q.Q.Q.Q.Q.Q.Q.Q.Q.Q.Q.Q.Q.Q.Q.Q.Q.Q.2.& + + ~.~.",
"  +   >.Q.Q.z.C m M.Q.Q.Q.Q.Q.Q.Q.Q.Q.Q.Q.Q.Q.Q.Q.Q.Q.Q.Q.P.Q.Q.Q.Q.Q.Q.Y.Q.Q.Q.Q.Q.Q.Q.Q.Q.Q.Q.Q.Q.Q.Q.Q.Q.Q.Q.Q.Q.M.0     + ~.",
"o +   { Q.Q.S & ; a.Q.Q.Q.Q.Q.Q.Q.Q.Q.Q.Q.Q.Q.Q.Q.Q.Q.Q.Q.Q.Q.Q.Q.Q.Q.Q.Q.Q.Q.Q.Q.Q.Q.Q.Q.Q.Q.Q.Q.Q.Q.Q.Q.Q.Q.Q.Q.Q.G.c +     ~.",
"+   + F Q.g.2   F G.G.T.Q.Q.Q.Q.Q.Q.Q.Q.Q.Q.Q.Q.Q.Q.Q.Q.Q.Q.Q.Q.Q.Q.R.R.Y.Q.P.Y.Q.G.T.Q.Q.Q.Q.Q.Q.Y.Q.Q.Q.Q.Q.Q.Q.Q.Q.L       ~.",
"    + c Q.2.& 0 a.H Z 9.P.Q.Q.Q.Q.Q.Q.Q.Q.Q.Q.Q.Q.Q.Q.Q.Q.Q.Q.Q.G.P.J.b.d.i.i.>.U S F ~ $.2.p.p.z.P.Q.Q.Q.Q.Q.Q.Q.Q.Q.@.+ o     ",
"o   o 2 z.;.# e i.r   7 c A ' [ ' ' ' ' { $.5.2.@.) L F F F F F M v c j y w w ;   ; + + ; 4 d a j v H ;.d.G.Q.Q.Q.Q.Q.d.2 O o ~.",
"      o [ e.; k n.L y +   &   +   +   o   & , ; & o o + + + + +   + + # + + + ; i j l y 2 ; + + +     + s S 3.P.Q.Q.Y.P.l       ",
"~.      c C.X.7.Q.Q.i.E m l a y d a a a y y 2 7 5 d l z l l l x m M A L ' o.@.2.i.z.M.a.0.@.~ ~ K m a = o + 9 F C.Q.Q.P.m O     ",
"~.      - 1.H.P.Q.Q.Q.T.G.M.a.a.d.d.d.d.p.e.5.9.9.h.C.C.M.G.C.G.P.P.P.P.P.P.Q.Q.Q.Q.Q.P.Q.Q.P.P.P.Q.s.;.Z r & + F P.R.Q.F +     ",
"~.~.    + v H.P.Q.Q.Q.Q.Q.Q.Q.Q.Q.Q.Q.Q.Q.Q.Q.Q.Q.Q.Q.Q.Q.Q.Q.Q.Q.Q.Q.Q.Q.Q.Q.Q.Q.Q.Q.Q.Q.Q.Q.Q.Q.Q.Q.Q.Q.0.M + 7 d.Q.Q.)       ",
"~.~.    O = :.H.Q.Q.Q.Q.Q.Q.Q.Q.Q.Q.Q.Q.Q.Q.Q.Q.Q.Q.Q.Q.Q.Q.Q.Q.Q.Q.Q.Q.Q.Q.Q.Q.Q.Q.Q.Q.Q.Q.Q.Q.Q.Q.Q.Q.Q.Q.p.;   9.Q.Q.;.O     ",
"~.~.~.  O   b G.Q.Q.Q.Q.Q.Q.Q.Q.Q.Q.Q.Q.Q.Q.Q.Q.Q.Q.Q.Q.Q.Q.Q.Q.Q.Q.Q.Q.Q.Q.Q.Q.Q.Q.Q.Q.Q.Q.Q.Q.Q.Q.Q.Q.P.M.$.& + 9.Q.R.$.      ",
"~.~.~.      > ;.Q.Q.Q.Q.Q.Q.Q.Q.Q.Q.Q.Q.Q.Q.Q.Q.Q.Q.Q.Q.Q.Q.Q.Q.Q.Q.Q.Q.Q.Q.Q.Q.Q.Q.Q.Q.Q.Q.Q.Q.Q.Q.Q.C.%.n 2 & 0 b.T.Q.+.    o ",
"~.~.~.~.  +   v C.Q.Q.Q.Q.Q.Q.Q.Q.Q.Q.Q.Q.Q.Q.Q.Q.Q.Q.Q.Q.Q.Q.Q.Q.Q.Q.Q.Q.Q.Q.Q.Q.Q.Q.Q.Q.Q.Q.Q.Q.Q.C.F , $ ; y X.Q.Q.Q./       ",
"~.~.~.~.      ; ;.Q.Q.Q.Q.Q.Q.Q.Q.Q.Q.Q.Q.Q.Q.Q.Q.Q.Q.Q.Q.Q.Q.Q.Q.Q.Q.Q.Q.Q.Q.Q.Q.Q.Q.Q.Q.Q.Q.Q.Q.Q.T :   d H i.Q.Q.Q.Q.F O     ",
"~.~.~.~.~.o     n G.Q.Q.Q.Q.Q.Q.Q.Q.Q.Q.Q.Q.Q.Q.Q.Q.Q.Q.Q.Q.Q.Q.Q.Q.Q.Q.Q.Q.Q.Q.Q.Q.Q.Q.Q.Q.Q.Q.Q.0.0 + x d.T.Q.Q.Q.Q.P.M +     ",
"~.~.~.~.~.      & =.Q.Q.Q.Q.Q.Q.Q.Q.Q.Q.Q.Q.Q.Q.Q.Q.Q.Q.Q.Q.Q.Q.Q.Q.Q.Q.Q.Q.Q.Q.Q.Q.Q.Q.Q.Q.Q.Q.Q.C & y d.H.Q.Q.Q.Q.Q.Q.x   +   ",
"~.~.~.~.~.~.  O + c M.Q.Q.Q.Q.Q.Q.Q.Q.Q.Q.Q.Q.Q.Q.Q.Q.Q.Q.Q.Q.Q.Q.Q.Q.Q.Q.Q.Q.Q.Q.Q.Q.Q.Q.Q.Q.P.9.: + E G.Q.Q.Q.Q.Q.P.b.7     ~.",
"~.~.~.~.~.~.    +   ..Q.Q.Q.Q.Q.Q.Q.Q.Q.Q.Q.Q.Q.Q.Q.Q.Q.Q.Q.Q.Q.Q.Q.Q.Q.Q.Q.Q.Q.Q.Q.Q.Q.Q.Q.Q.P.m + a b.Q.Q.Q.Q.Q.Q.Y.5.+       ",
"~.~.~.~.~.~.~.# + + k C.Q.Q.Q.Q.Q.Q.Q.Q.Q.Q.Q.Q.Q.Q.Q.Q.Q.P.Q.Q.Q.Q.Q.Q.Q.Q.Q.Q.Q.Q.Q.Q.Q.Q.P.{ + & ' Q.Q.Q.Q.Q.Q.Q.Q.E +     ~.",
"~.~.~.~.~.~.~.+     & $.Q.Q.Q.Q.Q.Q.Q.Q.Q.Q.Q.Q.Q.Q.Q.Q.Q.P.' [ C.Q.Q.Q.Q.Q.Q.Q.Q.Q.Q.Q.Q.Q.A.j   v b.Q.Q.Q.Q.Q.Q.Q.P.x       ~.",
"~.~.~.~.~.~.~.~.  o   x b.Q.Q.Q.Q.Q.Q.Q.Q.Q.Q.Q.Q.Q.Q.Q.Q.0.& & n $.M.P.Q.Q.R.Q.Q.Q.Q.Q.Q.Q.) # , 5.P.Q.Q.Q.Q.Q.Q.Q.z.; o o   ~.",
"~.~.~.~.~.~.~.~.      + M C.Q.Q.Q.Q.Q.Q.Q.Q.Q.Q.Q.Q.Q.Q.Q.z.v + + ; m =.C.Q.Q.Q.Q.Q.Q.Q.Q.&.> + m P.Q.Q.Q.Q.Q.Q.Q.Q. .+     ~.~.",
"~.~.~.~.~.~.~.~.~.    o & ~ P.P.Q.Q.Q.Q.Q.Q.Q.Q.Q.Q.Q.Q.Q.Q.M.~ y + + ; n ) 0.b.P.G.J.M. .7 + g s.Q.Q.Q.Q.Y.Q.Q.P.Q.m   +     ~.",
"~.~.~.~.~.~.~.~.~.~.    o : X.P.Q.Q.Q.Q.Q.Q.Q.Q.Q.Q.Q.Q.Q.Q.Q.Q.h.U d $     ; d m C Z z - $ a 5.Q.Q.Q.Y.Q.Q.Q.Q.Q.h., +     ~.~.",
"~.~.~.~.~.~.~.~.~.~.      o 0 e.Y.Q.Q.Q.Q.Q.Q.Q.Q.Q.Q.Q.Q.Q.Q.Q.Q.Q.b.~ j 2 + O + &   + & l i.P.Q.Y.Q.Q.Q.Q.Q.Q.Q.` #     ~.~.~.",
"~.~.~.~.~.~.~.~.~.~.~.  o     j a.P.Q.Q.Q.Q.Q.Q.Q.Q.Q.Q.Q.Q.Q.Q.Q.Q.G.Q.D.0.' F v k d M ) b.R.Q.Q.Q.Q.Q.Q.Q.Q.Q.M.l +     ~.~.~.",
"~.~.~.~.~.~.~.~.~.~.~.~.    o   j =.G.P.Q.Q.Q.Q.Q.Q.Q.Q.Q.Q.Q.Q.Q.Q.Q.Q.Q.Q.Q.P.P.P.P.Q.Q.Q.Q.Q.Q.Q.Q.Q.Q.Q.Q.P.L #   o   ~.~.~.",
"~.~.~.~.~.~.~.~.~.~.~.~.~.o       , F i.Q.Q.Q.Q.Q.Q.Q.Q.Q.Q.Q.Q.Q.Q.Q.Q.Y.Q.Q.Q.Q.Q.T.Q.Q.Q.Q.Q.Q.Q.Q.Q.Q.Q.Q.) ; o o o ~.~.~.~.",
"~.~.~.~.~.~.~.~.~.~.~.~.~.~.        + 7 [ M.P.Q.Q.Q.Q.Q.Q.Q.Q.Q.Q.Q.Q.Q.Q.Q.Q.Q.Q.Q.Q.Q.Q.Q.Q.Q.Q.Q.Q.Q.Y.Q.@.2       ~.~.~.~.~.",
"~.~.~.~.~.~.~.~.~.~.~.~.~.~.~.    + +   & j ;.G.Q.Q.Q.Q.Q.Q.Q.Q.Q.Q.Q.Q.Q.Q.Q.P.Q.Q.Q.Q.Q.Q.Q.Q.Q.Q.Q.Q.Q.=.2 &       ~.~.~.~.~.",
"~.~.~.~.~.~.~.~.~.~.~.~.~.~.~.~.          + ; c T >.b.G.G.Q.Q.Q.Q.Q.Q.Q.Q.Q.Q.Q.Q.Q.Q.Q.Q.Q.Q.Q.Q.Q.Q.P.0.r o       ~.~.~.~.~.~.",
"~.~.~.~.~.~.~.~.~.~.~.~.~.~.~.~.~.~.  &   +   +   & 2 l L 5.C.Q.Q.Q.Q.Q.Q.Q.Q.Q.Q.Q.Q.Q.Q.Q.Q.Q.P.P.h.~ 7 O       ~.~.~.~.~.~.~.",
"~.~.~.~.~.~.~.~.~.~.~.~.~.~.~.~.~.~.~.~.            +   + & a M Q =.9.z.C.G.Q.G.Q.R.R.R.Q.D.p. .H x ,   o o     ~.~.~.~.~.~.~.~.",
"~.~.~.~.~.~.~.~.~.~.~.~.~.~.~.~.~.~.~.~.~.~.            +     + O & + ; 0 l n F Q L G G A c ;   +   +         ~.~.~.~.~.~.~.~.~.",
"~.~.~.~.~.~.~.~.~.~.~.~.~.~.~.~.~.~.~.~.~.~.~.~.                  + +   +       O         O   + +           ~.~.~.~.~.~.~.~.~.~.",
"~.~.~.~.~.~.~.~.~.~.~.~.~.~.~.~.~.~.~.~.~.~.~.~.~.~.~.~.                  O       +       o o           ~.~.~.~.~.~.~.~.~.~.~.~."
};
