/* XPM */
static char *frame_11_delay_0_05s1763316729[] = {
/* columns rows colors chars-per-pixel */
"64 64 170 2 ",
"   c black",
".  c #010101",
"X  c #020202",
"o  c gray1",
"O  c #040404",
"+  c gray2",
"@  c #060606",
"#  c #070707",
"$  c gray3",
"%  c #090909",
"&  c gray4",
"*  c #0B0B0B",
"=  c #0C0C0C",
"-  c gray5",
";  c #0E0E0E",
":  c gray6",
">  c #101010",
",  c #111111",
"<  c gray7",
"1  c #131313",
"2  c gray8",
"3  c #151515",
"4  c #161616",
"5  c gray9",
"6  c #181818",
"7  c #191919",
"8  c gray10",
"9  c gray11",
"0  c #1D1D1D",
"q  c #1E1E1E",
"w  c gray12",
"e  c #202020",
"r  c #222222",
"t  c #232323",
"y  c gray14",
"u  c gray15",
"i  c #272727",
"p  c #282828",
"a  c #2A2A2A",
"s  c #2C2C2C",
"d  c #2D2D2D",
"f  c #2F2F2F",
"g  c gray19",
"h  c #313131",
"j  c #323232",
"k  c #323136",
"l  c gray22",
"z  c #3A3A3A",
"x  c #3D3C41",
"c  c gray28",
"v  c #494949",
"b  c #4A494E",
"n  c #4F4F50",
"m  c gray33",
"M  c gray35",
"N  c #5C5C5E",
"B  c #606060",
"V  c #626166",
"C  c gray40",
"Z  c #68676B",
"A  c gray42",
"S  c gray43",
"D  c #707072",
"F  c gray45",
"G  c #787779",
"H  c gray48",
"J  c #7B7B7B",
"K  c #7C7C7C",
"L  c gray49",
"P  c gray50",
"I  c #808083",
"U  c #838384",
"Y  c #868686",
"T  c gray53",
"R  c #888888",
"E  c #898989",
"W  c gray54",
"Q  c #8B8B8B",
"!  c gray55",
"~  c #8D8D8D",
"^  c #8E8E8E",
"/  c gray57",
"(  c #939393",
")  c gray58",
"_  c #959595",
"`  c #979699",
"'  c #9A9A9A",
"]  c gray61",
"[  c gray62",
"{  c #A0A0A0",
"}  c gray63",
"|  c #A2A2A2",
" . c #A4A4A6",
".. c #A7A6A7",
"X. c #A9A9A9",
"o. c #AAAAAA",
"O. c gray67",
"+. c #ACACAC",
"@. c #AEAEAE",
"#. c gray69",
"$. c #B2B2B2",
"%. c gray70",
"&. c #B4B4B4",
"*. c gray71",
"=. c #B6B6B7",
"-. c #B8B7BA",
";. c gray73",
":. c #BCBCBC",
">. c gray",
",. c gray75",
"<. c #C0C0C0",
"1. c #C1C1C1",
"2. c #C3C3C3",
"3. c #C5C5C5",
"4. c #C6C6C6",
"5. c gray78",
"6. c #C8C8C8",
"7. c gray79",
"8. c #CACACA",
"9. c gray80",
"0. c #CDCDCE",
"q. c gray81",
"w. c #D1D0D1",
"e. c #D2D2D2",
"r. c LightGray",
"t. c gray83",
"y. c #D5D5D5",
"u. c #D6D5D7",
"i. c #D8D8D8",
"p. c #DADADB",
"a. c #DDDDDD",
"s. c #DFDFDF",
"d. c #E1E0E1",
"f. c #E1E1E1",
"g. c #E2E2E2",
"h. c gray89",
"j. c #E4E4E4",
"k. c #E6E5E6",
"l. c #E7E7E7",
"z. c gray91",
"x. c #E9E9E9",
"c. c #EAEAEA",
"v. c gray92",
"b. c #ECECEC",
"n. c gray93",
"m. c #EEEEEE",
"M. c #EFEFEF",
"N. c gray94",
"B. c #F1F1F1",
"V. c gray95",
"C. c #F3F3F3",
"Z. c #F4F4F4",
"A. c gray96",
"S. c #F6F6F6",
"D. c #F7F6F7",
"F. c gray97",
"G. c #F8F8F8",
"H. c #F9F8F9",
"J. c #F9F9F9",
"K. c #FAF9FA",
"L. c gray98",
"P. c #FBFAFB",
"I. c #FBFBFB",
"U. c #FCFBFC",
"Y. c gray99",
"T. c #FDFCFD",
"R. c #FDFDFD",
"E. c #FEFEFE",
"W. c white",
"Q. c None",
/* pixels */
"Q.Q.Q.Q.Q.Q.Q.Q.Q.Q.Q.Q.Q.Q.Q.Q.Q.Q.Q.Q.  Q.  Q.                  Q.  Q.  Q.Q.Q.Q.Q.Q.Q.Q.Q.Q.Q.Q.Q.Q.Q.Q.Q.Q.Q.Q.Q.Q.Q.Q.Q.Q.Q.",
"Q.Q.Q.Q.Q.Q.Q.Q.Q.Q.Q.Q.Q.Q.Q.Q.Q.Q.                                              Q.Q.Q.Q.Q.Q.Q.Q.Q.Q.Q.Q.Q.Q.Q.Q.Q.Q.Q.Q.Q.Q.Q.",
"Q.Q.Q.Q.Q.Q.Q.Q.Q.Q.Q.Q.Q.Q.Q.                            O O o O O                   Q.  Q.Q.Q.Q.Q.Q.Q.Q.Q.Q.Q.Q.Q.Q.Q.Q.Q.Q.Q.",
"Q.Q.Q.Q.Q.Q.Q.Q.Q.Q.Q.Q.                                8 j c z 8 $ O O                   Q.Q.Q.Q.Q.Q.Q.Q.Q.Q.Q.Q.Q.Q.Q.Q.Q.Q.Q.",
"Q.Q.Q.Q.Q.Q.Q.Q.Q.Q.Q.O     O     $ 9 v x =       O   o o 8 s m R :.6.{ U A M s = o   o       Q.Q.Q.Q.Q.Q.Q.Q.Q.Q.Q.Q.Q.Q.Q.Q.Q.",
"Q.Q.Q.Q.Q.Q.Q.Q.Q.    O     = v / +.E 9 $ $ O   r z 8 o   O # O # > e b A ] w.v.w.K r   o o       Q.Q.Q.Q.Q.Q.Q.Q.Q.Q.Q.Q.Q.Q.Q.",
"Q.Q.Q.Q.Q.Q.Q.Q.      = , N 4.S.S.V * O 1 c H 8.C.C.h.8. .E B j $ $   O O $ 1 j B E / B $           Q.Q.Q.Q.Q.Q.Q.Q.Q.Q.Q.Q.Q.Q.",
"Q.Q.Q.Q.Q.Q.        O v ,.C.C.n.V $ O c 2.Z.J.Y.I.I.T.J.T.S.S.S.i.] F v a * O O O # : , $   o         Q.Q.Q.Q.Q.Q.Q.Q.Q.Q.Q.Q.Q.",
"Q.Q.Q.Q.Q.      $ $ L S.S.S.h.v # = H N.J.S.J.J.Y.T.Y.F.T.T.T.T.T.T.R.Y.v.8.E M l =                     Q.Q.Q.Q.Q.Q.Q.Q.Q.Q.Q.Q.",
"Q.Q.Q.Q.  O     4 +.J.J.J.h.z $ = F N.h.o.A m c B ( 4.J.T.T.T.T.T.T.T.Y.Y.F.Z.:.Z 4                 O     Q.Q.Q.Q.Q.Q.Q.Q.Q.Q.Q.",
"Q.Q.Q.    O   m 9.J.T.J.l.x O 8 / 9.F w > O o O   $ 8 M C.S.T.T.T.T.T.T.F.=.c 2 $ o       o         o       Q.Q.Q.Q.Q.Q.Q.Q.Q.Q.",
"Q.Q.      O V C.S.J.T.Z.M O = / E 9 o O O   x b g , o O P T.T.T.T.T.T.T.E 2 o   o o   o     o   o     o     Q.Q.Q.Q.Q.Q.Q.Q.Q.Q.",
"Q.Q.    # N v.S.S.J.h.N $ $ x j #   O     o G J.v.p.M # e h.T.T.T.T.T.#.# # : o   o o o   o = v j #           Q.Q.Q.Q.Q.Q.Q.Q.Q.",
"Q.      j j.T.T.U.+.u = $ $ , $   o o o o o i v.T.T.a.8 O ;.T.T.T.T.j.a O j c O o o   o   o O A a.m O o       Q.Q.Q.Q.Q.Q.Q.Q.Q.",
"    O = =.G.J.t.M > o 8 x $ O O     o   o   9 N.T.T.F.g o Q T.T.T.T.T o 2 1.n # o   o O O O # ..Y.j.j O # O     Q.Q.Q.Q.Q.Q.Q.Q.",
"Q.  O z C.J.^ u =   z ;.j O u = o   o o o o M Y.Y.Y.Z.g o Q T.T.T.n.g $ Z J.` = o o   o   , L S.J.J.E   = =       Q.Q.Q.Q.Q.Q.Q.",
"  O O ^ T.2.$ $ t ^ v.+.o = =.g o     o # g y.Y.Y.J.9.= O #.T.T.J.C.s O R J.S.&.A M V F ' i.F.T.T.T.V = j K     o Q.Q.Q.Q.Q.Q.Q.",
"O O = w.T.a.c N r.J.J.E # g n.' 9 o o 2 N p.T.F.C.=.i O j v.T.T.T.S.v O 5 L w.S.G.J.J.F.F.T.T.T.T.8.w   F v.j     o Q.Q.Q.Q.Q.Q.",
"  O u v.T.T.S.S.T.T.T...$ 2 =.Z.w.+.#.q.S.Y.n.#.m 2   , ,.J.T.T.T.T.2.r O # 9 n ' 8.Z.J.J.C.N.,.Q i O 8 9.F.+.= O     Q.Q.Q.Q.Q.",
"    j J.T.T.T.T.T.T.T.v.u O w v A | -.8.4.Q g = o = j #.S.Y.T.T.T.Y.T.2.m : # O * 9 x Z A z s 4 O # = _ T.T.T.N O   o Q.Q.Q.Q.Q.",
"o   x T.T.T.T.T.T.T.T.T.=.9 O # O $ = 4 8 o $ = g ^ a.T.T.T.T.T.T.T.T.T.C.<.H k 1 $ O # =   O = 9 x ..Y.T.T.T.h.j O       Q.Q.Q.",
"  o x T.T.T.T.T.T.T.T.T.F.r.D v g 4 = o # 4 v X.v.T.J.T.Y.T.T.T.T.T.T.T.G.T.J.l.9.E b c z v C / w.n.T.T.T.T.T.T.o.$     Q.Q.Q.Q.",
"    x T.T.T.T.T.T.T.T.T.T.T.J.N.z.i.5.+.+.q.N.T.T.T.T.T.T.T.T.T.T.T.T.T.T.T.T.Y.Y.T.S.S.N.N.Y.T.T.T.T.T.T.T.T.T.N.i o   Q.Q.Q.Q.",
"O   x T.T.T.T.T.T.T.T.T.T.T.T.T.Y.T.Y.Y.T.T.T.T.T.T.T.T.T.T.T.T.T.T.T.T.T.T.T.T.T.T.Y.T.T.T.T.T.T.T.T.T.T.T.T.T.Y.A O o   Q.Q.Q.",
"o o z J.T.T.T.T.T.T.T.T.T.T.T.T.T.T.T.T.T.T.T.T.T.T.T.T.T.T.T.T.T.T.T.T.T.T.T.T.T.T.T.T.T.T.T.T.T.T.T.T.T.T.T.T.T.-.# O   Q.Q.Q.",
"o   i v.T.T.T.T.T.T.T.T.T.T.T.T.T.T.T.T.T.T.T.T.T.T.T.T.T.T.T.T.T.T.T.T.T.T.T.T.T.T.T.T.T.T.T.T.T.T.T.T.T.T.T.T.T.Z.u       Q.Q.",
"  o 2 p.T.T.T.T.T.T.J.2.r.J.T.T.T.T.T.T.T.T.T.T.T.T.T.T.T.T.T.T.T.T.T.T.T.T.T.T.T.T.T.T.T.T.T.T.T.T.T.T.T.T.T.T.T.T.A O   o   Q.",
"  o O 8.T.T.T.T.T.T.i.8 a 8.J.T.T.T.T.T.T.T.T.T.T.T.T.T.T.T.T.T.T.T.T.T.T.T.T.T.T.T.T.T.T.T.T.T.T.T.T.T.T.T.T.T.T.T.4.$ O   Q.Q.",
"o O   ;.T.T.T.T.T.T.p.9 O j :.S.T.T.T.T.T.T.T.T.T.T.T.T.T.T.T.T.T.T.T.T.T.T.Y.T.J.T.J.J.F.C.C.S.S.v.v.S.Y.J.Y.Y.T.T.M.e   O Q.Q.",
"o o o | T.T.T.T.T.T.Y.] = O 9 M E 8.n.T.T.T.T.T.T.T.T.T.T.T.T.T.T.T.T.T.J.J.h.,. ...' H B c z z z j z b M S I <.n.T.I.b O     Q.",
"O   O D T.T.T.T.T.T.T.J.' u $ O $ 4 l N U / ' ` ..#.1.8.w.p.i.w.8.1.-...F c i $ # O #   o $ o O O O O o   O O 4 x 9.G.J       Q.",
"o O O c T.T.T.T.T.T.T.T.Y.8.S s 8 $ $ o O O # # # O > 4 r i t 9 4 = o O O O o $ w 9 r j n N A S S S A N n k w O O z M.o.O O   Q.",
"      4 h.J.T.T.T.T.T.T.T.T.J.n.y.| N x j s s s i w , , O O $ $ = 2 6 y l N E ;.w.r.p.n.J.T.T.T.T.T.T.T.J.l.w.U # # r.a.8     Q.",
"Q.  O o ` T.T.T.T.T.T.T.T.T.T.T.J.T.J.b.l.s.p.a.p.w.8.,.o.' | =.;.,.w.p.l.J.Y.T.T.T.T.T.T.T.T.T.T.T.T.T.Y.Y.J.Q # O a.S.z   O Q.",
"Q.  o   c J.T.T.T.T.T.T.T.T.T.T.T.T.T.T.T.T.T.T.J.T.T.T.T.T.T.T.T.T.T.T.T.T.T.T.T.T.T.T.T.T.T.T.T.T.T.T.Y.a.S 2 = c T.T.M o     ",
"Q.Q.    $ ;.T.T.T.T.T.T.T.T.T.T.T.T.T.T.T.T.T.T.T.T.T.T.T.T.T.T.T.T.T.T.T.T.T.T.T.T.T.T.T.T.T.T.T.T.T.T.8.p =   s 5.T.T.F $     ",
"Q.Q.    o v G.T.T.T.T.T.T.T.T.T.T.T.T.T.T.T.T.T.T.T.T.T.T.T.T.T.T.T.T.T.T.T.T.T.T.T.T.T.T.T.T.T.T.T.T.n.j o 8 A p.J.T.T._       ",
"Q.Q.    O = ,.J.T.T.T.T.T.T.T.T.T.T.T.T.T.T.T.T.T.T.T.T.T.T.T.T.T.T.T.T.T.T.T.T.T.T.T.T.T.T.T.T.T.T.T._ o # ' S.F.T.T.T.#.$     ",
"Q.Q.Q.    O n S.T.T.T.T.T.T.T.T.T.T.T.T.T.T.T.T.T.T.T.T.T.T.T.T.T.T.T.T.T.T.T.T.T.T.T.T.T.T.T.T.T.T.J.x $ c J.T.T.T.T.T.+.O     ",
"Q.Q.Q.Q.o   , ;.T.T.T.T.T.T.T.T.T.T.T.T.T.T.T.T.T.T.T.T.T.T.T.T.T.T.T.T.T.T.T.T.T.T.T.T.T.T.T.T.T.T.9.4 = o.Y.Y.T.T.T.T.+.O o   ",
"Q.Q.Q.Q.  O o c Z.T.T.T.T.T.T.T.T.T.T.T.T.T.T.T.T.T.T.T.T.T.T.T.T.T.T.T.T.T.T.T.T.T.T.T.T.T.T.T.T.T.' O 4 a.T.T.T.T.T.T._       ",
"Q.Q.Q.Q.      = =.J.T.T.T.T.T.T.T.T.T.T.T.T.T.T.T.T.T.T.T.T.T.T.T.T.T.T.T.T.T.T.T.T.T.T.T.T.T.T.T.T.m O n J.T.T.T.T.T.T.F O     ",
"Q.Q.Q.Q.Q.o     m S.T.T.T.T.T.T.T.T.T.T.T.T.T.T.T.T.T.T.T.T.T.T.T.T.T.T.T.T.T.T.T.T.T.T.T.T.T.T.T.N.t   / T.T.T.T.T.T.T.B o o   ",
"Q.Q.Q.Q.Q.    o $ 4.T.T.T.T.T.T.T.T.T.T.T.T.T.T.T.T.T.T.T.T.T.T.T.T.T.T.T.T.T.T.T.T.T.T.T.T.T.T.T.p., o 1.T.T.T.T.T.T.J.z   o Q.",
"Q.Q.Q.Q.Q.Q.  o o c N.T.T.T.T.T.T.T.T.T.T.T.T.T.T.T.T.T.T.T.T.T.T.T.T.T.T.T.T.T.T.T.T.T.T.T.T.T.Y.^ o 4 j.T.T.T.T.T.J.n.9 o   Q.",
"Q.Q.Q.Q.Q.Q.    o O o.T.T.T.T.T.T.T.T.T.T.T.T.T.T.T.T.T.T.T.T.T.T.T.T.T.T.T.T.T.T.T.T.T.T.T.T.T.C.l   B J.T.T.T.T.T.T.5.O O   Q.",
"Q.Q.Q.Q.Q.Q.Q.$ O O k Z.T.T.T.T.T.T.T.T.T.T.T.T.T.T.T.T.T.T.s.| C.T.T.T.T.T.T.T.T.T.T.T.T.T.T.T.=.# $ &.T.T.T.T.T.T.T.^ o     Q.",
"Q.Q.Q.Q.Q.Q.Q.Q.o   $ =.T.T.T.T.T.T.T.T.T.T.T.T.T.T.T.T.T.T.C $ P n.T.T.T.T.T.T.T.T.T.T.T.T.T.T.n $ l N.T.T.T.T.T.T.F.x     Q.Q.",
"Q.Q.Q.Q.Q.Q.Q.Q.  O   x l.J.T.T.T.T.T.T.T.T.T.T.T.T.T.T.T.T.Z = # P S.Y.T.T.T.T.T.T.T.T.T.T.F.;.$ O _ T.T.T.T.T.T.T.l.= O   Q.Q.",
"Q.Q.Q.Q.Q.Q.Q.Q.Q.  o   m C.T.T.T.T.T.T.T.T.T.T.T.T.T.T.T.T.i.g # 2 G i.T.T.T.T.T.T.T.T.T.Y.8.a = a j.T.T.T.T.T.T.T...$     Q.Q.",
"Q.Q.Q.Q.Q.Q.Q.Q.Q.    O $ Q T.Y.T.T.T.T.T.T.T.T.T.T.T.T.T.T.T.y.z *   8 A ..a.n.J.S.Z.N.s.^ u O 2 #.J.T.T.T.T.T.T.T.n   O   Q.Q.",
"Q.Q.Q.Q.Q.Q.Q.Q.Q.Q.    O ,  .J.T.T.T.T.T.T.T.T.T.T.T.T.T.T.T.T.w.n 1 o   # w x m m m v 9 $ $ 8 ( J.T.T.T.T.T.T.T.z.9 o   Q.Q.Q.",
"Q.Q.Q.Q.Q.Q.Q.Q.Q.Q.Q.    o 9 9.Y.J.T.T.T.T.T.T.T.T.T.T.T.T.T.T.T.N.,.N w =   o $   #   O , j +.T.T.T.T.T.T.T.T.T.' O   O Q.Q.Q.",
"Q.Q.Q.Q.Q.Q.Q.Q.Q.Q.Q.Q.o o O j r.R.T.T.T.T.T.T.T.T.T.T.T.T.T.T.T.T.Y.C.j.+.L m x x z v D #.v.J.T.T.T.T.T.T.T.T.v.k o   Q.Q.Q.Q.",
"Q.Q.Q.Q.Q.Q.Q.Q.Q.Q.Q.Q.o   O   s =.J.Y.T.T.T.T.T.T.T.T.T.T.T.T.T.T.T.T.T.Y.T.Y.J.Y.J.J.Y.T.T.T.T.T.T.T.T.T.T.J.Y O   o Q.Q.Q.Q.",
"Q.Q.Q.Q.Q.Q.Q.Q.Q.Q.Q.Q.Q.      o = G y.T.T.T.T.T.T.T.T.T.T.T.T.T.T.T.T.T.T.Y.T.T.T.T.T.T.T.T.T.T.T.T.T.T.T.Y.` = #     Q.Q.Q.Q.",
"Q.Q.Q.Q.Q.Q.Q.Q.Q.Q.Q.Q.Q.Q.      O # w ' n.J.Y.T.T.T.T.T.T.T.T.T.T.T.T.T.T.T.T.T.T.T.T.T.T.T.T.T.T.T.T.T.F.| 2       Q.Q.Q.Q.Q.",
"Q.Q.Q.Q.Q.Q.Q.Q.Q.Q.Q.Q.Q.Q.Q.        O # z :.C.T.T.T.T.T.T.T.T.T.T.T.T.T.T.T.T.T.T.T.T.T.T.T.T.T.T.T.T.T.=.4 O     Q.Q.Q.Q.Q.Q.",
"Q.Q.Q.Q.Q.Q.Q.Q.Q.Q.Q.Q.Q.Q.Q.Q.Q.      o O $ c ^ ,.j.Z.T.T.T.T.T.T.T.T.T.T.T.T.T.T.T.T.T.T.T.T.T.T.Y.Y.9.9       Q.Q.Q.Q.Q.Q.Q.",
"Q.Q.Q.Q.Q.Q.Q.Q.Q.Q.Q.Q.Q.Q.Q.Q.Q.Q.Q.O   O o o $ = : z P q.C.J.T.T.T.T.T.T.T.T.T.T.T.T.T.T.T.T.J.J.h.! 9 O o     Q.Q.Q.Q.Q.Q.Q.",
"Q.Q.Q.Q.Q.Q.Q.Q.Q.Q.Q.Q.Q.Q.Q.Q.Q.Q.Q.Q.  o o       O O O O j N E =.4.h.Z.S.S.J.T.R.J.T.J.J.p.| F x , O   o   Q.Q.Q.Q.Q.Q.Q.Q.Q.",
"Q.Q.Q.Q.Q.Q.Q.Q.Q.Q.Q.Q.Q.Q.Q.Q.Q.Q.Q.Q.Q.Q.            O o   O o # O = 4 j m S E L H G D c = O =   o O o O   Q.Q.Q.Q.Q.Q.Q.Q.Q.",
"Q.Q.Q.Q.Q.Q.Q.Q.Q.Q.Q.Q.Q.Q.Q.Q.Q.Q.Q.Q.Q.Q.Q.Q.  Q.Q.      O         o o O     O O O O   O   O O         Q.Q.Q.Q.Q.Q.Q.Q.Q.Q.Q.",
"Q.Q.Q.Q.Q.Q.Q.Q.Q.Q.Q.Q.Q.Q.Q.Q.Q.Q.Q.Q.Q.Q.Q.Q.Q.Q.Q.Q.Q.            o       o   O       O O           Q.Q.Q.Q.Q.Q.Q.Q.Q.Q.Q.Q."
};
