/* XPM */
static char *frame_55_delay_0_05s1763316734[] = {
/* columns rows colors chars-per-pixel */
"64 64 192 2 ",
"   c black",
".  c #010101",
"X  c #020202",
"o  c gray1",
"O  c #040404",
"+  c gray2",
"@  c #040406",
"#  c #060606",
"$  c #070707",
"%  c gray3",
"&  c #090909",
"*  c gray4",
"=  c #0B0B0B",
"-  c #0C0C0C",
";  c gray5",
":  c #0E0E0E",
">  c gray6",
",  c #101010",
"<  c #111111",
"1  c gray7",
"2  c #131313",
"3  c #151515",
"4  c #161616",
"5  c gray9",
"6  c #181818",
"7  c #191919",
"8  c gray10",
"9  c gray11",
"0  c #1D1D1D",
"q  c #1E1E1E",
"w  c gray12",
"e  c #202020",
"r  c #222222",
"t  c #232323",
"y  c gray14",
"u  c gray15",
"i  c #282828",
"p  c #2A2A2A",
"a  c #2C2C2C",
"s  c #2D2D2D",
"d  c #2F2F2F",
"f  c gray19",
"g  c #313131",
"h  c #323232",
"j  c #323136",
"k  c gray22",
"l  c #3A3A3A",
"z  c #3D3C41",
"x  c gray28",
"c  c #494949",
"v  c #4A494E",
"b  c #4F4F50",
"n  c gray33",
"m  c #54535B",
"M  c gray35",
"N  c #5C5C5E",
"B  c #5E5D64",
"V  c #606060",
"C  c #626166",
"Z  c gray40",
"A  c #68676B",
"S  c gray42",
"D  c gray43",
"F  c #707072",
"G  c gray45",
"H  c #747378",
"J  c #787779",
"K  c gray48",
"L  c #7B7B7B",
"P  c #7A7A7C",
"I  c #7B7B7D",
"U  c #7C7C7C",
"Y  c gray49",
"T  c #7D7C7F",
"R  c #7E7E7E",
"E  c gray50",
"W  c #7E7D80",
"Q  c #808083",
"!  c #838384",
"~  c gray53",
"^  c #848388",
"/  c #888888",
"(  c #898989",
")  c #8B8B8B",
"_  c gray55",
"`  c #8D8D8D",
"'  c #8E8E8E",
"]  c #8C8B90",
"[  c gray57",
"{  c #939393",
"}  c #959595",
"|  c #929198",
" . c #979699",
".. c #9A9A9A",
"X. c #9A999E",
"o. c gray61",
"O. c #9D9CA1",
"+. c #A1A0A3",
"@. c #A2A2A2",
"#. c #A4A4A6",
"$. c #A7A6A7",
"%. c #A7A7AA",
"&. c #AAAAAA",
"*. c #ADADB0",
"=. c #B0AFB3",
"-. c #B1B0B7",
";. c #B4B4B4",
":. c #B5B4B8",
">. c #B8B7BA",
",. c gray73",
"<. c #BBBBBD",
"1. c #BAB9BF",
"2. c #BCBCBC",
"3. c gray75",
"4. c #BDBCC0",
"5. c #C0BFC2",
"6. c #C1C1C3",
"7. c #C3C3C3",
"8. c #C3C2C5",
"9. c #C5C5C6",
"0. c #C6C6C6",
"q. c #C4C3C9",
"w. c #C8C7CA",
"e. c #CACACA",
"r. c #CAC9CC",
"t. c #CCCBCE",
"y. c #CDCDCE",
"u. c gray81",
"i. c #CFCFD2",
"p. c #D1D0D1",
"a. c #D1D0D3",
"s. c LightGray",
"d. c #D3D3D5",
"f. c gray83",
"g. c #D6D5D7",
"h. c #D8D8D8",
"j. c #DADADB",
"k. c #DCDBDC",
"l. c #DDDDDD",
"z. c #DFDFDF",
"x. c #DEDEE0",
"c. c #E1E0E1",
"v. c #E1E1E1",
"b. c #E1E1E3",
"n. c #E2E2E2",
"m. c #E3E3E5",
"M. c #E4E4E6",
"N. c #E6E5E6",
"B. c #E7E7E7",
"V. c #E6E5E9",
"C. c gray91",
"Z. c #EAEAEA",
"A. c #EAE9EC",
"S. c #EBEAEF",
"D. c #ECEBEE",
"F. c #EDECED",
"G. c gray93",
"H. c #EEEEEE",
"J. c #F0EFF2",
"K. c #F1F1F3",
"L. c gray95",
"P. c #F3F3F3",
"I. c #F2F1F5",
"U. c #F3F3F4",
"Y. c #F4F3F6",
"T. c #F4F4F4",
"R. c gray96",
"E. c #F5F4F7",
"W. c #F6F6F6",
"Q. c #F7F6F7",
"!. c gray97",
"~. c #F6F5F8",
"^. c #F7F6F9",
"/. c #F6F5FB",
"(. c #F8F7FA",
"). c #F8F8F8",
"_. c #F9F9F9",
"`. c #FAF9FA",
"'. c gray98",
"]. c #FBFAFB",
"[. c #FBFBFB",
"{. c #F9F8FC",
"}. c #FAFAFE",
"|. c #FCFBFC",
" X c #FCFBFF",
".X c gray99",
"XX c #FDFCFD",
"oX c #FDFDFD",
"OX c #FEFDFF",
"+X c #FEFEFE",
"@X c white",
"#X c None",
/* pixels */
"#X#X#X#X#X#X#X#X#X#X#X#X#X#X#X#X#X#X#X                                        #X#X#X#X#X#X#X#X#X#X#X#X#X#X#X#X#X#X#X#X#X#X#X#X#X",
"#X#X#X#X#X#X#X#X#X#X#X#X#X#X#X#X                                                      #X#X#X#X#X#X#X#X#X#X#X#X#X#X#X#X#X#X#X#X#X",
"#X#X#X#X#X#X#X#X#X#X#X#X#X                      O O O O o o   O o o                       #X#X#X#X#X#X#X#X#X#X#X#X#X#X#X#X#X#X#X",
"#X#X#X#X#X#X#X#X#X#X#X                          % 7 y f x x x h 5 - O $                     #X#X#X#X#X#X#X#X#X#X#X#X#X#X#X#X#X#X",
"#X#X#X#X#X#X#X#X#X          O     % % f b b M D j.L.U.).^.!.[.U.J.b.a.*./ D n i % O     o         #X#X#X#X#X#X#X#X#X#X#X#X#X#X#X",
"#X#X#X#X#X#X#X#X      %     O i z M G R K P ( h.).XXXXXX'..XXXXXXX'.'.XX[..XJ.U.a.J e o O o         #X#X#X#X#X#X#X#X#X#X#X#X#X#X",
"#X#X#X#X#X#X#X          % f V K K K K R ! R :.N.L.L.J.W.W.W.W.'.[.[.^.[.'.[.'.[.W.'.N._ e O         #X#X#X#X#X#X#X#X#X#X#X#X#X#X",
"#X#X#X#X#X          O y V J P R I R K A n k e q q 9 f b V V V C Z Z A F K K F D D J R ( ' s             #X#X#X#X#X#X#X#X#X#X#X#X",
"#X#X#X#X    o   O O z G K ! G n k 7 , % o   $     O   O O O O O O O   O o o O $ O O O $ % % O             #X#X#X#X#X#X#X#X#X#X#X",
"#X#X#X    O     : n U R S z , O O O       O 2 9 z n k w 3 3 3 5 5 3 2 % % % : , - % $ O O   o     O       o #X#X#X#X#X#X#X#X#X#X",
"#X#X#X        i Z U K c 3 % O $ - 7 j z n S F K ! b.H.N.N.N.C.C.N.b.l.g.f.f.l.b.j.j.0.2.{ Z z y - O O O     #X#X#X#X#X#X#X#X#X#X",
"#X#X    O   j K R J z % o O i n Z J J J W R R R L } z.'.XXXXXXXXXXXX'..XXXXXXXXX[.!.N.2.O.$.&.,.;.E y O   o   #X#X#X#X#X#X#X#X#X",
"#X      O i G U R b $ o e M D R ^ W J F C V V V N Z K 3.).XXXXXXXXXXXXXXXXXX[.).u.{ x y 5 - q y b ..&.3       #X#X#X#X#X#X#X#X#X",
"        7 G G R R z O q D W P U H D C B M b z z k z M Z o.H.XXXXXXXXXXXXXXXXP...c 3 - o     o O   : z x % O     #X#X#X#X#X#X#X#X",
"    O o C R R R R G n G P W W H Z M z w > O O O O o > s n Q H.XXXXXXXXXXXXK.L e % o O 9 z M v i : % O f k O       #X#X#X#X#X#X#X",
"    O e K K U R R R ! J P U H S m 9 * $ $ O - > , % o o % k ' W.XXXXXXXXXX$.i O - e { l.C.[.P.l.@.s O O f s O       #X#X#X#X#X#X",
"      c K K R R R R W W J W C v 3 % % j P ,.e.l.l.,.C 2 O % k a.XXXXXXXXZ.M >   b g.'.XXXXXXXXXX'.g.c O   l %       #X#X#X#X#X#X",
"O O % S R K K R R R R W W J B 4 O 2 | b.XX'.W.'.'.'.W.:.s O - ! XXXXXXXXe.f $ 5 b.XXXXXXXXXXXXXXXX'.h.w O h y O   O   #X#X#X#X#X",
"O   3 K K R R R U R E W W Z z O : *./.|.XXXX!.x.5.a.L.U.r.7 O j H.XXXXXXe.y o l !.XXXXXXH. .z k Q W.2.%   k v O O O     #X#X#X#X",
"% o q W R R R K R R E W W Z z O 2 6.XX|.XXXXo.e : q ..[.[.k O y 9.XXXXXXy.w O 7 3.).XXXX:.% $ % 9 e.k O 5 b Z n         #X#X#X#X",
"    q R R R K R W R R R P B m 6 @ m |.[.[.A.7 O     v '.a.w o i 6.XXXXXXb.q   o u w.'.'.3.$ O $ j Z % : z B Z 1.f O   O #X#X#X#X",
"    e K R R R W R R U R H B m k * > -.{.|.A.7       G &.y % $ 9 u.XXXXXXXXV   o $ d &.'.L.( M K J -   y V C B 3.%.%       #X#X#X",
"  O e R R R R R W W W W H b < i 9 @ y *.J.[.*.b d k n , o O % l b.XXXXXX'.6.3     O 5 Z 9.C.b./ q O 7 n m B M 1.S.y       #X#X#X",
"O   e K R R R R U R W U P z $ ; z 2 * 2 Z / ! H j 3 O O O   $ A ).XXXXXX!.!.M O O   O - e s p % O , n x 2 j N q.XXD O O     #X#X",
"  O y K R R R R R R W W P N 6 o s x * $ % % % % + O 3 % O : e ' XXXXXXXXXXXX6.5 % O $ @ O % O O 3 v B 2 $ 9 B k.'.:.O o   o #X#X",
"O   , R R R R R W W W W P Z z o o z b i 3 3 2 3 y k i % O y s ,.XXXXXXXXXXXXW.M i % @ @ s p i k n N j o % j Z J.[.U.y O     #X#X",
"    : D K L K R R U W W U M n 9 @ 2 z m N m v B m z -   7 h b g.XXXXXXXXXXXXXX9.j i O % y b N C N z > o q b ^ |.XXXXZ     o   #X",
"O O O Z K L L L R R W W W F l v 2 @ $ w n m M b i :   6 z y Q W.XXXXXXXXXXXXXX[.C z e O O , i d s - o : c n k.[.XXXX6.: O     #X",
"  O   V P L L L U W P W W W Z k x 4 % % : e q * O   w x j C *.XXXXXXXXXXXXXXXXXXl.c b 7 o @ $ $   % $ z v =.{.{.|.|.H.7 o $   #X",
"  O   n L L L L P W W W W W J N j v h % % O @ $ $ i b k n W C.XXXXXXXXXXXXXXXXXX^.i.v v k 4 $ $ 2 e v n %.^.{.{.[.[.).c o o o #X",
"  O   k L L L L W P W W W W P P Z k c v f q e i v N k Z H :.XXXXXXXXXXXXXXXXXXXXXXXXb.i.i.&._ _ O.4.i.i.|.|.[.[.|.|.XXK   O     ",
"  O O e L L L L W W W W W W P P P F b B Z Z Z S I G S J X.H.XXXXXXXXXXXXXXXXXXXXXXXXXX|.|.[.{.{.|.XX|.|.|.XX|.|.[.[.XX*.o o     ",
"  o   % S W K K P P W W W G k M W W W W P K J K J P W / V.XXXXXXXXXXXXXXXXXXXXXXXXXXXXXXXXXXXXXXXXXXXXXXXXXXXXXXXXXX.Xb.,   O   ",
"      % b P K K P P W P W c   y W P W W W P W R K P ! r.XXXXXXXXXXXXXXXXXXXXXXXXXXXXXXXXXXXXXXXXXXXXXXXXXXXXXXXXXXXXXX'.k O O   ",
"        e L K K P P W W H 2 $ z P W W W W P Q K P _ t.^.XXXXXXXXXXXXXX[..X.XXXXXXXXXXXXXXXXXXXXXXX[.U.XXXXXXXXXXXXXXXXXXn O     ",
"#Xo     O N K K W P W W z O < F W W P W W W K Q %.j.XXXXXXXXXXXXXX[.U.J.N.j.l.l.x.V.J.^.XXXXXXXXXXL.o.b.XXXXXXXXXXXXXXXXG   o   ",
"#X    o o y U K K P P P 4 $ c W P W P P J W  .b.(.XXXXXXJ.x.:.^ A M v z i y i y y k c n Z ] i.S.[.XX;.~ x.XXXXXXXXXXXXXX} O     ",
"#X#X    O O V K P P J b $ 7  .J P P P W W O.m./.k.9.@.W b i % O @ $ o $ O $ % $ O O $ $ o $ 4 b ..r.i.^ { J.XXXXXXXXXXXX:.O     ",
"#X#X  o   o s J P P J f O b 5.U U [ i.r.r.i. .n d o $ o   @ O - 4 y y f z n M M v j i y w : % $ $ > i i B 3.XX[.XXXXXXXX:.o     ",
"#X#X#X  o   * N W W J 2 % ..5.P W i.d._ x w $ $ o $ $ , r x / :.r.d.k.N.U./.{.[.(.H.m.b.y.$.M w : O o $ : S U.'.XXXXXXXX%.O o   ",
"#X#X#X      O y W W G $ * r.4.J J D w $ O $ O 9 k G $.6.j.W.XXXXXXXXXXXXXXXXXXXXXXXXXXXXXXXX[.k.=.[ n % O < #.[.XXXXXXXX..o     ",
"#X#X#X#X  o   O C P Z o 9 j.:.c 2 $ O - y c [ r.W.XXXXXXXXXXXXXXXXXXXXXXXXXXXXXXXXXXXXXXXXXX[.|.XXU.J.O.4 $ w h.XXXXXXXXK o o   ",
"#X#X#X#X  O   o i W C o w J.*.$ o < j { h.XX|.{.XXXXU.S.L.S.A.A.m.H.^.XXXXXXXXXXXXXXXXXXXXXX[.|.XX^.XX(.] $ $ Q XXXXXXXXM $     ",
"#X#X#X#X#X      O C C o < h.i.e 9 } V.|.|.E.A.j.y.<.O.^ ( / ! ! Q (  .m.XXXXXXXXXXXXXXXXXXXXl.+.Q P ! U n O   P XXXXXXXXk o o   ",
"#X#X#X#X#X      $ 9 F > O ( J.U P g.|.b.:.$.] W P P P P P J P W P P W %.XXXXXXXXXXXXXXXXXXH.k - O O $ $ $ % w i.XXXXXXS.w   o   ",
"#X#X#X#X#X#X  o @ o b z $ p k.4.U _ i.^ W W J P W P P U P J P W W K W ;.XXXXXXXXXXXXXXXX^.} % O , , > : > y *.[.XXXX|.6.o       ",
"#X#X#X#X#X#X    o o 9 A 2 O n t.( ^ W Q W U P W P W P P P W P P P R ^ m.XXXXXXXXXXXXXXXXw.7 O i ;.6.1.&.H h.XXXXXXXX'.] o o     ",
"#X#X#X#X#X#X#X  o o o M c $ - s Z P W W P P P U P W W W W P W W W W W 4.XXXXXXXXXXXXXXN.k % : $.XX'.W.a.h.[.XXXXXXXXW.z $   o #X",
"#X#X#X#X#X#X#Xo     O t D k $   % z W U W P P W P P P W W W W P W P W ! w.[.XXXXXXXXU.n % % A '.XXXXXXXXXXXXXXXXXXXXM., O     #X",
"#X#X#X#X#X#X#X#X    O O s P n 6 % 3 W W W W P W W W W W W P W W W W U W P +.r.S.K.j.H : o q h.XXXXXXXXXXXXXXXXXXXXXX&.O o     #X",
"#X#X#X#X#X#X#X#X#X  o o O c J D c Z P P J P P K P P U W W U P C d d k x S H R P R B 3   3 ! [.XXXXXXXXXXXXXXXXXXXXXXb O O   #X#X",
"#X#X#X#X#X#X#X#X#X      O : b R W P P J P P P P P P W W W W P l $ o o $ : w i f f >     x i.XX[.XXXXXXXXXXXXXXXXXXC.2 O     #X#X",
"#X#X#X#X#X#X#X#X#X#X      O , J P J J K J P P P P W W W W P J M 2 > - O O   $   +   % c } W.XXXXXXXXXXXXXXXXXXXXXX} %     O #X#X",
"#X#X#X#X#X#X#X#X#X#X#X  o   O s H J P K J P P P P W P P P W W P H H F b s 2 : % - e v R d.|.[.XXXXXXXXXXXXXXXXXXU.h O     #X#X#X",
"#X#X#X#X#X#X#X#X#X#X#X#X        3 M W ! P K W P W P W P P W W W W W P W J J S S H K G ' '.XXXXXXXXXXXXXXXXXXXX|.K % O     #X#X#X",
"#X#X#X#X#X#X#X#X#X#X#X#X#X    o $ % k A P P P P P P W W W W W W W W W U U P K J P K G <.XXXXXXXXXXXXXXXXXXXX[.o.,       #X#X#X#X",
"#X#X#X#X#X#X#X#X#X#X#X#X#X#X      o o , b H J P W P W P P W W W W W W W W P J P K P Q M.XXXXXXXXXXXXXXXX|.[.%.2         #X#X#X#X",
"#X#X#X#X#X#X#X#X#X#X#X#X#X#X#X        O o 6 M P P P U W W W W W W W W W W P P K P K 1..XXXXXXXXXXXXXXXXXXX;., O       #X#X#X#X#X",
"#X#X#X#X#X#X#X#X#X#X#X#X#X#X#X#X      o o o $ w x B S P W P U W W W W P P W W P P $.XXXXXXXXXXXXXXXXXX'.r.7 O O     #X#X#X#X#X#X",
"#X#X#X#X#X#X#X#X#X#X#X#X#X#X#X#X#X#X  O o   O o o o : 7 z S U W W W W W W W W P ( J.XX[.XXXXXXXXXX[.b.] e O o     #X#X#X#X#X#X#X",
"#X#X#X#X#X#X#X#X#X#X#X#X#X#X#X#X#X#X#X      o     o   o O O 6 i c M C F J W W _ j.XX|.XX|.(.l.%.! x 2   O       #X#X#X#X#X#X#X#X",
"#X#X#X#X#X#X#X#X#X#X#X#X#X#X#X#X#X#X#X#X#X                O O   O O   $ 2 9 i C ( W G G D z : o o O o o o     #X#X#X#X#X#X#X#X#X",
"#X#X#X#X#X#X#X#X#X#X#X#X#X#X#X#X#X#X#X#X#X#X#Xo               O O   o     o       O   o     o o   o o       #X#X#X#X#X#X#X#X#X#X",
"#X#X#X#X#X#X#X#X#X#X#X#X#X#X#X#X#X#X#X#X#X#X#X#X#X#X#X                O       o o O       O   o           #X#X#X#X#X#X#X#X#X#X#X"
};
