/* XPM */
static char *frame_54_delay_0_05s1763316734[] = {
/* columns rows colors chars-per-pixel */
"64 64 192 2 ",
"   c black",
".  c #010101",
"X  c #020202",
"o  c gray1",
"O  c #040404",
"+  c gray2",
"@  c #040406",
"#  c #060606",
"$  c #070707",
"%  c gray3",
"&  c #090909",
"*  c gray4",
"=  c #0B0B0B",
"-  c #0C0C0C",
";  c gray5",
":  c #0E0E0E",
">  c gray6",
",  c #101010",
"<  c #111111",
"1  c gray7",
"2  c #131313",
"3  c #151515",
"4  c #161616",
"5  c gray9",
"6  c #181818",
"7  c #191919",
"8  c gray10",
"9  c gray11",
"0  c #1D1D1D",
"q  c #1E1E1E",
"w  c gray12",
"e  c #202020",
"r  c #222222",
"t  c #232323",
"y  c gray14",
"u  c gray15",
"i  c #282828",
"p  c #2A2A2A",
"a  c #2C2C2C",
"s  c #2D2D2D",
"d  c #2F2F2F",
"f  c gray19",
"g  c #313131",
"h  c #323232",
"j  c #323136",
"k  c gray22",
"l  c #3A3A3A",
"z  c #3D3C41",
"x  c gray28",
"c  c #494949",
"v  c #4A494E",
"b  c #4F4F50",
"n  c gray33",
"m  c #54535B",
"M  c gray35",
"N  c #5C5C5E",
"B  c #5E5D64",
"V  c #606060",
"C  c #626166",
"Z  c gray40",
"A  c #68676B",
"S  c gray42",
"D  c gray43",
"F  c #707072",
"G  c gray45",
"H  c #747378",
"J  c #787779",
"K  c gray48",
"L  c #7B7B7B",
"P  c #7A7A7C",
"I  c #7B7B7D",
"U  c #7C7C7C",
"Y  c gray49",
"T  c #7D7C7F",
"R  c #7E7E7E",
"E  c gray50",
"W  c #7E7D80",
"Q  c #808083",
"!  c #838384",
"~  c gray53",
"^  c #848388",
"/  c #888888",
"(  c #898989",
")  c #8B8B8B",
"_  c gray55",
"`  c #8D8D8D",
"'  c #8E8E8E",
"]  c #8C8B90",
"[  c gray57",
"{  c #939393",
"}  c #959595",
"|  c #929198",
" . c #979699",
".. c #9A9A9A",
"X. c #9A999E",
"o. c gray61",
"O. c #9D9CA1",
"+. c #A1A0A3",
"@. c #A2A2A2",
"#. c #A4A4A6",
"$. c #A7A6A7",
"%. c #A7A7AA",
"&. c #AAAAAA",
"*. c #ADADB0",
"=. c #B0AFB3",
"-. c #B1B0B7",
";. c #B4B4B4",
":. c #B5B4B8",
">. c #B8B7BA",
",. c gray73",
"<. c #BBBBBD",
"1. c #BAB9BF",
"2. c #BCBCBC",
"3. c gray75",
"4. c #BDBCC0",
"5. c #C0BFC2",
"6. c #C1C1C3",
"7. c #C3C3C3",
"8. c #C3C2C5",
"9. c #C5C5C6",
"0. c #C6C6C6",
"q. c #C4C3C9",
"w. c #C8C7CA",
"e. c #CACACA",
"r. c #CAC9CC",
"t. c #CCCBCE",
"y. c #CDCDCE",
"u. c gray81",
"i. c #CFCFD2",
"p. c #D1D0D1",
"a. c #D1D0D3",
"s. c LightGray",
"d. c #D3D3D5",
"f. c gray83",
"g. c #D6D5D7",
"h. c #D8D8D8",
"j. c #DADADB",
"k. c #DCDBDC",
"l. c #DDDDDD",
"z. c #DFDFDF",
"x. c #DEDEE0",
"c. c #E1E0E1",
"v. c #E1E1E1",
"b. c #E1E1E3",
"n. c #E2E2E2",
"m. c #E3E3E5",
"M. c #E4E4E6",
"N. c #E6E5E6",
"B. c #E7E7E7",
"V. c #E6E5E9",
"C. c gray91",
"Z. c #EAEAEA",
"A. c #EAE9EC",
"S. c #EBEAEF",
"D. c #ECEBEE",
"F. c #EDECED",
"G. c gray93",
"H. c #EEEEEE",
"J. c #F0EFF2",
"K. c #F1F1F3",
"L. c gray95",
"P. c #F3F3F3",
"I. c #F2F1F5",
"U. c #F3F3F4",
"Y. c #F4F3F6",
"T. c #F4F4F4",
"R. c gray96",
"E. c #F5F4F7",
"W. c #F6F6F6",
"Q. c #F7F6F7",
"!. c gray97",
"~. c #F6F5F8",
"^. c #F7F6F9",
"/. c #F6F5FB",
"(. c #F8F7FA",
"). c #F8F8F8",
"_. c #F9F9F9",
"`. c #FAF9FA",
"'. c gray98",
"]. c #FBFAFB",
"[. c #FBFBFB",
"{. c #F9F8FC",
"}. c #FAFAFE",
"|. c #FCFBFC",
" X c #FCFBFF",
".X c gray99",
"XX c #FDFCFD",
"oX c #FDFDFD",
"OX c #FEFDFF",
"+X c #FEFEFE",
"@X c white",
"#X c None",
/* pixels */
"#X#X#X#X#X#X#X#X#X#X#X#X#X#X#X#X#X#X#X                                        #X#X#X#X#X#X#X#X#X#X#X#X#X#X#X#X#X#X#X#X#X#X#X#X#X",
"#X#X#X#X#X#X#X#X#X#X#X#X#X#X#X#X                                                      #X#X#X#X#X#X#X#X#X#X#X#X#X#X#X#X#X#X#X#X#X",
"#X#X#X#X#X#X#X#X#X#X#X#X#X                      O O O O O O   O O                         #X#X#X#X#X#X#X#X#X#X#X#X#X#X#X#X#X#X#X",
"#X#X#X#X#X#X#X#X#X#X#X                          % 7 y h x x c f 3 : O %                     #X#X#X#X#X#X#X#X#X#X#X#X#X#X#X#X#X#X",
"#X#X#X#X#X#X#X#X#X          O     $ % f b b M D h.P.T./.).R.[.T.P.b.p.*.^ D n i % O               #X#X#X#X#X#X#X#X#X#X#X#X#X#X#X",
"#X#X#X#X#X#X#X#X      %     O i z M F R L P ( h.]..X.X.X[..X.X.X.X].{..X|..XP.I.p.J e O O O         #X#X#X#X#X#X#X#X#X#X#X#X#X#X",
"#X#X#X#X#X#X#X          % f V K K P K R Q R :.N.P.I.J.T.R.).R.].].].].].].].].].R.].N._ e %         #X#X#X#X#X#X#X#X#X#X#X#X#X#X",
"#X#X#X#X#X          O y V J P R R U K S n k e q q 7 f n V V V C Z Z Z F K K F D D J R ( _ s             #X#X#X#X#X#X#X#X#X#X#X#X",
"#X#X#X#X    o   O O z G K ! G n k 7 < % o   $     O   O O O O O O O   O O   O % O O O O % % O             #X#X#X#X#X#X#X#X#X#X#X",
"#X#X#X    O     : n U R S z , O O O       O 3 7 z n k q 3 3 3 7 3 5 , % % % : , - % & &   O O       O     #X#X#X#X#X#X#X#X#X#X#X",
"#X#X#X        i Z U K c 3 % O $ * 7 j z n A G K ! m.H.N.N.N.C.C.N.b.l.g.g.f.l.b.k.h.0.2.{ Z z y : O O O O   #X#X#X#X#X#X#X#X#X#X",
"#X#X    O   j K R J z % o O i n A J J J W R R R K } x.]..X.X.X.X.X.X.X.X.X.X.X.X.XR.N.,.O.$.&.<.;.R y O       #X#X#X#X#X#X#X#X#X",
"#X      O i G U R b $ o e M D R ^ R J F C N V V N Z K 3.]..X.X.X.X.X.X.X.X.X.X).p.{ x y 7 - q y n ..&.,       #X#X#X#X#X#X#X#X#X",
"        7 G G R R z O q D W P U H D C V M n z z k z M A o.H..X.X.X.X.X.X.X.XI...c 3 % O       O   : z c % O     #X#X#X#X#X#X#X#X",
"    O o C R R R R G n G P W W H Z M z e : O   O O   : s n E H..X.X.X.X.X.XP.K e % O O q z M v i : % O f k O       #X#X#X#X#X#X#X",
"    O e K K U R R R ! J P U H S m 7 : O % O : < , :     = k _ !..X.X.X.X.X%.i O % y [ l.C.].P.l.@.s O O f s O       #X#X#X#X#X#X",
"      c K K R R R R W W J W C v 3 % % j P ,.e.l.z.,.C 2 O % k p..X.X.X.XC.M >   n h.]..X.X.X.X.X].s.c $ o k %       #X#X#X#X#X#X",
"O O % S R K K R R R R W W J B 4 O , | b..X].R.].].].R.:.a O - ! .X.X.X.Xe.g $ 6 x..X.X.X.X.X.X.X.X].h.q   j y O   @   #X#X#X#X#X",
"O   3 K K R R R U R E W W Z z O < *./.|..X.X).l.4.p.P.P.r.9 O j J..X.X.Xe.y O l R..X.X.XH. .z k Q R.3.$   k b O O     o #X#X#X#X",
"% o q W R R R K R R E W W Z z O 2 6..X|..X.X..t : q ..|.{.k O t 0..X.X.Xy.e O 7 3.]..X.X:.% $ % 9 e.k o 4 b C n o       #X#X#X#X",
"    q R R R K R W R R R P B m 6 O m .X|.|.S.7 O     b ].a.e O i 6..X.X.Xb.0 o   y e.].].<.% O $ j Z % : z N Z 4.f O o   #X#X#X#X",
"    e K R R R W R R U R H B m k - : -.{.|.S.6       F %.y % $ 8 y..X.X.X.XV   o O f *.].P.( M K J -   y V C B 4.%.$       #X#X#X",
"  O e R R R R R W W W W H b < i q O y *.I.|.*.v s k n ,   O % l m..X.X.X).8.3     O 3 Z 0.C.b.^ q O 7 n m B M 4.S.y O     #X#X#X",
"O   e K R R R R U R W U P z $ ; z 2 % 2 Z ( ! H j 3 O O O O $ S )..X.X.X/.).M O O   O % e a s $ @ , n x 2 j N q..XD O       #X#X",
"  O y K R R R R R R W W P N 6 o a x - $ & & O % O O 3 % O > e ] .X.X.X.X.X.X8.3 % O $ @ o $ o o 6 v B < $ 9 C k.].:.O O     #X#X",
"O   , R R R R R W W W W P Z z o   z b i 3 3 2 3 y k i % O y s >..X.X.X.X.X.X/.M i % $ o a a a k n N j o * f Z J.{.R.y O     #X#X",
"    : D K L K R R U W W U M n 9 $ , z m N m v B m z :   7 f b h..X.X.X.X.X.X.X0.j i O O t b M C N z > @ 9 b ^ |..X.XS   O     #X",
"O O O Z K L L L R R W W W F l v 3 @ % w n m M b i :   6 z t ! R..X.X.X.X.X.X.X].C z e O $ < i f a = @ > x n k.{..X.X8.% O O   #X",
"  O   V P L L L U W P W W W Z k x 4 % O : e q * O   q x j C *..X.X.X.X.X.X.X.X.Xl.c n 7 o @ $ $ O % % z v =.{.{.|.|.H.8   $   #X",
"  O   n L L L L P W W W W W J N j x j $ % O @ $ % i b k n W C..X.X.X.X.X.X.X.X.X/.i.v v k 4 $ $ , e v b %.(.{.{.|.{.].c O O   #X",
"  O   k L L L L W P W W W W P P A k x b f w t i v N k A H ;..X.X.X.X.X.X.X.X.X.X.X.Xc.a.i.%._ _ O.4.a.a..X.X.X{.|.|..XK O O     ",
"  O O e L L L L W W W W W W P P P F b V Z Z C S P G S J X.H..X.X.X.X.X.X.X.X.X.X.X.X.X.X.X|.{.{.|..X|.|..X.X.X|..X{..X*.  O     ",
"  o   % S R K K P P P W W H k M W W W W P K J K K P Q ^ V..X.X.X.X.X.X.X.X.X.X.X.X.X.X.X.X.X.X.X.X.X.X.X.X.X.X.X.X.X.Xb.3       ",
"      % b P K K P P W W R x   y W P W W W P W W K P ! r..X.X.X.X.X.X.X.X.X.X.X.X.X.X.X.X.X.X.X.X.X.X.X.X.X.X.X.X.X.X.X{.k O O   ",
"        e U K K W P U W H 3 $ z P W W W W P Q K P ) y./..X.X.X.X.X.X.X|..X.X.X.X.X|..X.X.X.X.X.X.X|.R..X.X.X.X.X.X.X.X.Xn O     ",
"#Xo     O N K K P P W W z O < G W W U W W W K Q $.k..X.X.X.X.X.X.X{.T.J.V.h.l.l.c.V.J./..X.X.X.X.XI.o.b..X.X.X.X.X.X.X.XG O   O ",
"#X    o   t U K P U W J 3 $ x W P W P P J W  .c.(.|..X|.H.x.:.^ A M v z i i y i i k x n Z _ t.J.{..X;.( b..X.X.X.X.X.X.X{       ",
"#X#X    $ O V P P P J b $ 7  .J P P P W W O.m.(.k.0.+.W b i % $ @ @ O $ O % % O O O $ $ O $ 7 v X.r.y.^ [ J..X.X.X.X.X.X>.O     ",
"#X#X  o   o a J P P J f O b 5.U W [ i.r.r.i. .n f $ $ O   $ o : 4 t y f z n M M v j i y e - % $ % , y i V 4..X.X.X.X.X.X:.O     ",
"#X#X#X  o   * N W W J 2 % ..5.U U i.d.) x w $ O O O $ , e x ^ >.r.d.k.N.T.(.{.{.(.H.m.c.y.%.M w : O O % > S I..X.X.X.X.X%.O     ",
"#X#X#X      O y W W F $ % r.4.J J D q $ o $ O w k G %.8.j.R..X.X.X.X.X.X.X.X.X.X.X.X.X.X.X.X{.l.=.[ n % $ , #.{..X.X.X.XX.      ",
"#X#X#X#X  o   O C W Z O 9 j.;.v 3 $ O > y x [ r.R..X.X.X.X.X.X.X.X.X.X.X.X.X.X.X.X.X.X.X.X.X.X.X.XI.J.O.3 % q g..X.X.X.XK O   O ",
"#X#X#X#X  O   o i U C O e J.=.$ o 1 j [ h..X{.{..X.XI.D.I.D.S.S.m.H.(..X.X.X.X.X.X.X.X.X.X.X{.|..X/..X].] % $ ! .X.X.X.XM O     ",
"#X#X#X#X#X      O C C O < h.t.e 9 { V.|.|.(.C.j.y.<.O.^ ( ^ ! ! ! (  .m..X.X.X.X.X.X.X.X.X.Xl.@.Q K Q R n O   K .X.X.X.Xl O O   ",
"#X#X#X#X#X      $ 9 F : O / J.U I h. Xx.:.$.) W P P P P P J P W P P R %..X.X.X.X.X.X.X.X.XH.k : O O O & $ % w a..X.X.XS.e       ",
"#X#X#X#X#X#X  o @ O b z $ i k.4.U ' t.^ W W P U W P P U P J P W W K R -..X.X.X.X.X.X.X.X/.} % O , 2 , : - i *.{..X.X|.8.  O     ",
"#X#X#X#X#X#X    O O 9 A 3 O n i./ ^ Q Q W W P W P W P P P W P P P W ^ m..X.X.X.X.X.X.X.Xw.7 O i ;.6.<.&.H h..X.X.X.X].] O O     ",
"#X#X#X#X#X#X#X    o O M x $ - a Z J I W P P P U P W W W W P W W W W W 4..X.X.X.X.X.X.XV.k % : $..X].T.i.h.|..X.X.X.XR.z O   O #X",
"#X#X#X#X#X#X#X  o   O e D k % o % l W U W P P W P P P W W W W P W P W ! w.{..X.X.X.XT.n $ % S {..X.X.X.X.X.X.X.X.X.XN., o     #X",
"#X#X#X#X#X#X#X#X    O O s U n 3 % 3 W W W W P W W W W W W P W W W W U W U +.t.S.P.h.H : o q h..X.X.X.X.X.X.X.X.X.X.X%.O o     #X",
"#X#X#X#X#X#X#X#X#X  o o O c J S c Z P P J P P K P P U W W U P C f f k x S H U P U V 3   4 ! .X.X.X.X.X.X.X.X.X.X.X.Xn $ O   #X#X",
"#X#X#X#X#X#X#X#X#X      O > b W W P P J P P P P P P W W W W P l O o o $ : q i f f <     x i..X{..X.X.X.X.X.X.X.X.XC., O     #X#X",
"#X#X#X#X#X#X#X#X#X#X  o o O , J P J J K J P P P P W W W W P J M 3 > - O O   $   o o O x } T..X.X.X.X.X.X.X.X.X.X.X} % o   o #X#X",
"#X#X#X#X#X#X#X#X#X#X#X    o O a H J P K J P P P P W P P P W W P H H F b s 2 : % - t b W g..X|..X.X.X.X.X.X.X.X.XI.f O     #X#X#X",
"#X#X#X#X#X#X#X#X#X#X#X#X      o 3 M W ! P K W P W P W P P W W W W W P U J J S S H J G ] {..X.X.X.X.X.X.X.X.X.X|.K % O     #X#X#X",
"#X#X#X#X#X#X#X#X#X#X#X#X#X      $ % k A P P P P P P W W W W W W W W W W P P K J P K G 4..X.X.X.X.X.X.X.X.X.X|.o.: o     #X#X#X#X",
"#X#X#X#X#X#X#X#X#X#X#X#X#X#X      o o , b H J P W P W P P U W W W W W W W P P P K P ! N.|..X.X.X.X.X.X.X.X{.%.2         #X#X#X#X",
"#X#X#X#X#X#X#X#X#X#X#X#X#X#X#X        O o 6 M P P P U W W W W W W W W W P P P J P K <.{..X.X.X.X.X.X.X.X.X;., O       #X#X#X#X#X",
"#X#X#X#X#X#X#X#X#X#X#X#X#X#X#X#X      o o o $ t x B S P W P P W W W W W W W W P U #..X.X.X.X.X.X.X.X.X].t.7 $ O     #X#X#X#X#X#X",
"#X#X#X#X#X#X#X#X#X#X#X#X#X#X#X#X#X#X  o o   O o o o > 8 z S R W U W W W P W W U ) J..X|..X.X.X.X.X|.b._ e O       #X#X#X#X#X#X#X",
"#X#X#X#X#X#X#X#X#X#X#X#X#X#X#X#X#X#X#X    o o     o   O   O 6 i x M C F J W W _ h..X.X.X{.{.l.%.! x 2   O   o   #X#X#X#X#X#X#X#X",
"#X#X#X#X#X#X#X#X#X#X#X#X#X#X#X#X#X#X#X#X#X              O O O   O O O * 2 9 i C ( W G G D z : o O O o o       #X#X#X#X#X#X#X#X#X",
"#X#X#X#X#X#X#X#X#X#X#X#X#X#X#X#X#X#X#X#X#X#X#X                O O     O   O       O       O   o   o o       #X#X#X#X#X#X#X#X#X#X",
"#X#X#X#X#X#X#X#X#X#X#X#X#X#X#X#X#X#X#X#X#X#X#X#X#X#X#X                O       O O O       O o o           #X#X#X#X#X#X#X#X#X#X#X"
};
