/* XPM */
static char *frame_33_delay_0_05s1763316731[] = {
/* columns rows colors chars-per-pixel */
"64 64 220 2 ",
"   c black",
".  c #010101",
"X  c #020202",
"o  c gray1",
"O  c #040404",
"+  c gray2",
"@  c #040406",
"#  c #060606",
"$  c #070707",
"%  c gray3",
"&  c #090909",
"*  c gray4",
"=  c #0B0B0B",
"-  c #0C0C0C",
";  c gray5",
":  c #0E0E0E",
">  c gray6",
",  c #101010",
"<  c #111111",
"1  c gray7",
"2  c #131313",
"3  c gray8",
"4  c #151515",
"5  c #161616",
"6  c gray9",
"7  c #181818",
"8  c #191919",
"9  c gray10",
"0  c gray11",
"q  c #1D1D1D",
"w  c #1E1E1E",
"e  c gray12",
"r  c #202020",
"t  c #222222",
"y  c #232323",
"u  c gray14",
"i  c gray15",
"p  c #272727",
"a  c #282828",
"s  c #2A2A2A",
"d  c #2C2C2C",
"f  c #2D2D2D",
"g  c #2F2F2F",
"h  c gray19",
"j  c #313131",
"k  c #323232",
"l  c #323136",
"z  c gray22",
"x  c #3A3A3A",
"c  c #3D3C41",
"v  c gray28",
"b  c #494949",
"n  c #4A494E",
"m  c #4F4F50",
"M  c gray33",
"N  c #54535B",
"B  c gray35",
"V  c #5C5C5E",
"C  c #5E5D64",
"Z  c #606060",
"A  c #626166",
"S  c gray40",
"D  c #68676B",
"F  c gray42",
"G  c gray43",
"H  c #707072",
"J  c gray45",
"K  c #747378",
"L  c #787779",
"P  c gray48",
"I  c #7B7B7B",
"U  c #7A7A7C",
"Y  c #7B7B7D",
"T  c #7C7C7C",
"R  c gray49",
"E  c #7D7C7F",
"W  c #7E7E7E",
"Q  c gray50",
"!  c #7E7D80",
"~  c #808083",
"^  c #838384",
"/  c #868686",
"(  c gray53",
")  c #848388",
"_  c #86858A",
"`  c #888888",
"'  c #898989",
"]  c #8B8B8B",
"[  c #89888D",
"{  c gray55",
"}  c #8D8D8D",
"|  c #8E8E8E",
" . c #8C8B90",
".. c #8E8E92",
"X. c gray57",
"o. c #939393",
"O. c #919195",
"+. c gray58",
"@. c #959595",
"#. c #979699",
"$. c #98989B",
"%. c #9A9A9A",
"&. c gray61",
"*. c gray62",
"=. c #9D9CA1",
"-. c #A0A0A0",
";. c #A1A0A3",
":. c #A2A2A2",
">. c #A4A4A6",
",. c #A7A6A7",
"<. c #A7A7AA",
"1. c #A9A9A9",
"2. c #AAAAAA",
"3. c gray67",
"4. c #ACACAC",
"5. c #AEAEAE",
"6. c #ADADB0",
"7. c #AEADB3",
"8. c #B0AFB3",
"9. c gray70",
"0. c #B1B0B7",
"q. c #B4B4B4",
"w. c gray71",
"e. c #B6B6B7",
"r. c #B5B4B8",
"t. c #B8B7BA",
"y. c gray73",
"u. c #BBBBBD",
"i. c #BAB9BF",
"p. c #BCBCBC",
"a. c gray75",
"s. c #BDBCC0",
"d. c #BEBDC3",
"f. c #C0BFC2",
"g. c #C0C0C0",
"h. c #C1C1C1",
"j. c #C1C1C3",
"k. c #C3C2C5",
"l. c #C1C0C7",
"z. c #C5C5C5",
"x. c #C5C5C6",
"c. c #C6C6C6",
"v. c #C6C5C9",
"b. c #C8C7CA",
"n. c #C8C8C8",
"m. c gray79",
"M. c #CACACA",
"N. c #CAC9CC",
"B. c #CCCBCE",
"V. c #CDCDCE",
"C. c gray81",
"Z. c #CFCFD2",
"A. c #D1D0D1",
"S. c #D1D0D3",
"D. c LightGray",
"F. c #D3D3D5",
"G. c gray83",
"H. c #D6D5D7",
"J. c #D7D6D9",
"K. c #D8D8D8",
"L. c #D9D8DB",
"P. c #DADADB",
"I. c #DCDBDC",
"U. c #DCDBDE",
"Y. c #DDDDDD",
"T. c #DFDFDF",
"R. c #DEDEE0",
"E. c #E1E0E1",
"W. c #E1E1E1",
"Q. c #E1E1E3",
"!. c #E3E3E5",
"~. c #E4E4E4",
"^. c #E4E4E6",
"/. c #E6E5E6",
"(. c #E7E7E7",
"). c gray91",
"_. c #E9E9E9",
"`. c #EAEAEA",
"'. c #EBEAEB",
"]. c #EAE9EC",
"[. c #EBEAED",
"{. c #EBEAEF",
"}. c #ECEBEE",
"|. c gray93",
" X c #EEEEEE",
".X c #EFEFEF",
"XX c #EDECF0",
"oX c #F0EFF2",
"OX c gray94",
"+X c #F1F1F1",
"@X c gray95",
"#X c #F3F3F3",
"$X c #F2F1F5",
"%X c #F4F3F4",
"&X c #F4F3F6",
"*X c #F4F4F4",
"=X c gray96",
"-X c #F5F4F7",
";X c #F6F6F6",
":X c #F7F6F7",
">X c gray97",
",X c #F6F5F8",
"<X c #F8F7FA",
"1X c #F8F8F8",
"2X c #F9F9F9",
"3X c #FAF9FA",
"4X c gray98",
"5X c #FBFAFB",
"6X c #FBFBFB",
"7X c #F9F8FC",
"8X c #FAFAFE",
"9X c #FCFBFC",
"0X c #FCFBFF",
"qX c gray99",
"wX c #FDFCFD",
"eX c #FDFDFD",
"rX c #FEFDFF",
"tX c #FEFEFE",
"yX c white",
"uX c None",
/* pixels */
"uXuXuXuXuXuXuXuXuXuXuXuXuXuXuXuXuXuXuXuX                                      uX  uXuXuXuXuXuXuXuXuXuXuXuXuXuXuXuXuXuXuXuXuXuXuX",
"uXuXuXuXuXuXuXuXuXuXuXuXuXuXuXuX                                                      uXuXuXuXuXuXuXuXuXuXuXuXuXuXuXuXuXuXuXuXuX",
"uXuXuXuXuXuXuXuXuXuXuXuXuX                      O O O O o o   O o o                       uXuXuXuXuXuXuXuXuXuXuXuXuXuXuXuXuXuXuX",
"uXuXuXuXuXuXuXuXuXuXuX                          % 9 u h v b b h 6 = O $                     uXuXuXuXuXuXuXuXuXuXuXuXuXuXuXuXuXuX",
"uXuXuXuXuXuXuXuXuXuX        O   O O - h m m B G P.OX%X<X-X>XqX-XoXQ.A.5.( G M d % O               uXuXuXuXuXuXuXuXuXuXuXuXuXuXuX",
"uXuXuXuXuXuXuXuX      %     O a c B G W P P ' J.1XqXqXqXqXqXqXqXqX1X6XqXqXqXOXOXA.P r O   o       uXuXuXuXuXuXuXuXuXuXuXuXuXuXuX",
"uXuXuXuXuXuXuX          % h Z P P U P W ^ W r.(.*XOXOX-X-X-X;XqX9X1X6X1X1X,X1X6X-X1X(.| r % o       uXuXuXuXuXuXuXuXuXuXuXuXuXuX",
"uXuXuXuXuXuX        O u Z L U W U W P D M z r q q q h M Z Z Z Z S D D J U P J G G L W ( { f           uXuXuXuXuXuXuXuXuXuXuXuXuX",
"uXuXuXuX        O O c J P ! J B z 5 , % o o %     O   O O O O O O O   O O   O % O $ O O % O O             uXuXuXuXuXuXuXuXuXuXuX",
"uXuXuXuX    O O : M W W F c < O O o o       4 9 c M x q 4 4 4 4 6 4 2 % % % > 2 % % % O o O O       O     uXuXuXuXuXuXuXuXuXuXuX",
"uXuXuX    O   u S W P v 2 % O % - 5 l c M D J P ^ Q.|.(.).(.'.(.(.!.Y.H.H.H.Y.!.P.P.c.p.o.S c u - O % O     uXuXuXuXuXuXuXuXuXuX",
"uXuX    O   l P W L c % o O a M D L L L ! W W W P +.E.9XqXqXqXqXqXqX1XqXqXqXqXqXqX-X(.y.*.,.4.e.w.Q y O   O   uXuXuXuXuXuXuXuXuX",
"uX      O a J T W M %   r B G W ) ! L J A Z Z Z V S L s.>XqXqXqXqXqXqXqXqXqXqX1XA.o.b u 7 % q u M %.3.< O   O uXuXuXuXuXuXuXuXuX",
"uX      9 J J W U c O q G ! U E K G A Z B m c c z c B D %. XqXqXqXqXqXqXqXqXOX%.b 3 % o     o O   : c v % O     uXuXuXuXuXuXuXuX",
"    O   A W W W W J B J U U E K D B c r : O O O O O : f M ~  XqXqXqXqXqXqXOXW r % o O 0 c B n a : O O h z O       uXuXuXuXuXuXuX",
"    O r P P U W W W ^ L W W K F N 9 % O % O : < < %     = z | -XqXqXqXqXqX<.a O % y X.Y.'.qX*XI.:.f O O h d O     uXuXuXuXuXuXuX",
"  O   b W P W T W W W W L E A n 6 % % l U y.M.I.T.y.A 2 O % x A.qXqXqXqX|.V <   m P.1XqXqXqXqXqX1XH.b % - c %       uXuXuXuXuXuX",
"O O O F P E P W W W W ! E K C 5 O 3 O.Q.qX6X,X1X6X1X-Xw.d O % ^ qXqXqXqXM.h O 7 Q.qXqXqXqXqXqXqXqXqXP.q   f u O   @   uXuXuXuXuX",
"O   4 P P W W W U W W ! ! D c O : 7.,XqXqXqX>XT.g.A.#X-XM.0 O z XXqXqXqXM.y O x -XqXqXqX|.$.c x ~ -Xp.:   z n - O o   uXuXuXuXuX",
"O O q Q W T W W ! W W W ! D c o 2 l.qXqXqXqX%.y > q %.qX1Xz O y M.qXqXqXV.e O 9 g.1XqXqXr.% % % 0 n.z % 4 m A m O   o   uXuXuXuX",
"    r T W W T W ! W W W L C N 9 O N qXqXqX'.9 O     n 1XA.r @ a p.qXqXqXQ.q   o i M.1X9Xp.% $ O j F % : c B V s.j o     uXuXuXuX",
"    r T W W W W W ! W ! L C N z - : 0.1XqX'.9     O J 3.u % O 0 A.qXqXqXqXZ   O # g 5.9XOX( B P J <   y Z V B d.<.:       uXuXuX",
"  O r W W E W W W ! ! ! L m < a 0 @ u 7.%X6X5.n h z m > O O - z !.qXqXqX1Xg.4     O 4 S c.'.Q._ 4 $ q M M C B s.[.u o     uXuXuX",
"O   r P W W W W ! W ! ! U c O : c 2 % 2 S ' ! K l 4 O o o O O D >XqXqXqX1X>XB O O o O % r d d % O < M v 4 l V s.qXG O       uXuX",
"  O u P W W W W W W ! ! L Z 9 O a v - % % % O % O O 3 % o , r | qXqXqXqXqXqXl.7 % O O O % % O o 4 n C 5 % 0 C I.<Xt.O O     uXuX",
"O   < T W W W W E W ! W E S c   o c m u 4 4 4 4 u z a % O y f y.qXqXqXqXqXqX-XB a % O O f a d z M Z z o % h D oXqXoXy O     uXuX",
"  O : F P P P W W E ! E ! B M q O < c M V M m B B c :   9 h m H.qXqXqXqXqXqXqXc.l a O % u m B A V c , O w m [ 7XqXqXG     O o uX",
"O   O S P T P T W W ! E ! H z n 4 o : r M N B m a :   7 c u ~ -XqXqXqXqXqXqXqX1XA c q O % , u h a = @ : v M R.6XqXqXx.- O     uX",
"  O   Z T P T P P W ! ! E E S z b 5 % O > r q : @   q v l A 7.qXqXqXqXqXqXqXqXqXR.b n 0 o % % %   O % c n 8.7X6X9X9XXXq o     uX",
"O O O m P T P T E W E ! E E P V l v l % % o O O % a m z B ! '.qXqXqXqXqXqXqXqXqX-XZ.n n z 4 O % < q v m <.,X7X6X9X9X1Xb O   o uX",
"  O   z T P T P E E E ! ! E E P D z v m h r r a n V z D J w.qXqXqXqXqXqXqXqXqXqXqXqXE.Z.B.<.{ { =.t.Z.N.9X9X9X6X9XqXqXP   o   uX",
"    O r P T P T E E ! E ! ! U U L H m Z S S A G U J D L &.XXqXqXqXqXqXqXqXqXqXqXqXqXqX9X9X9X7X9XqXqX9X9XqXqX9X9X9X6XqX5.O O     ",
"      % F W P P P U ! ! ! H z B ! E W U U U L P P P ~ ( /.qXqXqXqXqXqXqXqXqXqXqXqXqXqXqXqXqXqXqXqXqXqXqXqXqXqXqXqXqXqXQ.<   O   ",
"      % m W P T U P ! U ! v o y E ! ! ! E E U E U U ^ b.qXqXqXqXqXqXqXqXqXqXqXqXqXqXqXqXqXqXqXqXqXqXqXqXqXqXqXqXqXqXqX1Xz O     ",
"uX      r W P U P U ! ! H 4 % c E E ! ! E E ~ P P | B.1XqXqXqXqXqXqXqX6X9XqXqXqX9X6X9X6XqXqXqXqXqXqX-XqXqXqXqXqXqXqXqXqXM O   O ",
"uX      O B P U W P ! ! c @ 2 G E E E E ! ! P ~ <.P.qXqXqXqXqX9XqX6X%X%X(.L.Y.Y.R./.oX,XqXqXqXqXqXOX*.Q.qXqXqXqXqXqXqXqXH       ",
"uX        u ! P P P W L 5 % v ! U U U U U ~ @.T.-XqXqXqXXXR.t._ D C m c a u u u i z v M D { Z.XX9X9Xq._ Q.qXqXqXqXqXqXqX@.  O   ",
"uXuX    o O Z P U U W n % 7 #.L L U U ! ! =.!.<XI.c.:.! m a % O o @ o @ O % % % % O % %   % 5 m $.M.V.( X.oXqXqXqXqXqXqXu.O     ",
"uXuX    o   f U P W P h o m f.U E +.Z.N.b.Z.$.M h O %     % O : 4 r i h c M B B n l a u r = - O % < a i Z s.qXqXqXqXqXqXr.O     ",
"uXuXuX      - B E ! P < % %.f.U E Z.Z.| v r O O O O % < r v ) e.B.F.I./.%X<X<X7X<XXX!.E.V.>.B r = O O % > F *X9XqXqXqXqX<.O     ",
"uXuXuX      o y ! ! G % - v.s.L L G q # o # o q z J :.g.Y.%XqXqXqXqXqXqXqXqXqXqXqXqXqXqXqXqXqXI.8.X.M % O < >.1XqXqXqXqX%.o     ",
"uXuXuXuX  o o O A U D o 0 I.9.b 4 # o : u b X.b.-X6XqXqXqXqXqXqXqXqXqXqXqXqXqXqXqXqXqXqXqXqX9X6XqX%X|.=.5 O q J.qXqXqXqXP O     ",
"uXuXuXuX        a ! A o r XX9.% O 2 l X.L.9X9X9XqX9X%XXX%X[.'.'.!.}.<XqXqXqXqXqXqXqXqXqXqXqX9XqXqX,X6X1X..% % ^ qXqXqXqXB O     ",
"uXuXuXuXuX      @ A A o < K.Z.r 0 +.(.9X9X,X}.L.B.u.=.) ' _ ~ ^ ~ ' $.!.qXqXqXqXqXqXqXqXqXqXI.=.^ U ^ E M     P qXqXqXqXx o o   ",
"uXuXuXuXuX    O @ 0 H , o ' oXE U L.9XE.w.>. .! U L L U U U U ! W U U >.qXqXqXqXqXqXqXqXqX|.z - O   % % O - q Z.qXqXqX'.r o     ",
"uXuXuXuXuXuX    O o m c O d I.s.E | N.) ! ! L E ! U U U U U U ! U ! ! 9.qXqXqXqXqXqXqXqX,X@.% @ , 2 , : : u 7.6XqXqX1Xc.O O     ",
"uXuXuXuXuXuX    o o 6 D 2 % M N.' ( ~ ~ ! U U U E ! U ! U U W U ! E ) (.qXqXqXqXqXqXqXqXN.9 o a 9.l.u.3.L J.qXqXqXqX1X_   o   uX",
"uXuXuXuXuXuXuXo o o O B v % = d S P E ! U U U U U ! U ! U ! U E ! E ! s.qXqXqXqXqXqXqX(.z % , >.qX,X%XZ.J.9XqXqXqXqX,Xb O o   uX",
"uXuXuXuXuXuXuX    o o r G z %   % c ! W ! E ! U U ! ! ! ! E E E E ! ! ^ N.1XqXqXqXqX%XM % % D 1XqXqXqXqXqXqXqXqXqXqX(.< o O   uX",
"uXuXuXuXuXuXuXuX    o o f U M 6 O 4 ! ! U U ! W ! U ! U E E ! ! E E ! ! ! -.B.[.XXI.H : O q L.qXqXqXqXqXqXqXqXqXqXqX<.O       uX",
"uXuXuXuXuXuXuXuXuX    O O v P D v D U U U E U U U ! U ! E E U D f g z v D L E P ~ Z 4   6 ^ qXqXqXqXqXqXqXqXqXqXqXqXm O     uXuX",
"uXuXuXuXuXuXuXuXuX      O : m ~ U U U U U U U U U U ! U E E U z O o o % = 0 f h f ,     b N.qX9XqXqXqXqXqXqXqXqXqX'.< O O   uXuX",
"uXuXuXuXuXuXuXuXuXuX    o O < L L L U L L U U E U ! ! ! ! ! P N 4 , : o O O O   O o O v @.-XqXqXqXqXqXqXqXqXqXqXqX@.%       uXuX",
"uXuXuXuXuXuXuXuXuXuXuX    o   a K L P P P P P P U ! U ! ! U U ! K J G m f < : % : y m ! H.qXqXqXqXqXqXqXqXqXqXqXXXh o o   uXuXuX",
"uXuXuXuXuXuXuXuXuXuXuXuX    O o 4 N ! ^ P P U P U ! ! U ! ! ! ! ! ! ! U U L F F J P J ..1XqXqXqXqXqXqXqXqXqXqXqXT O   o   uXuXuX",
"uXuXuXuXuXuXuXuXuXuXuXuXuX      o % z D U U U U U U U ! ! U ! ! ! ! ! ! E U U P P U H s.qXqXqXqXqXqXqXqXqXqX1X*.<       uXuXuXuX",
"uXuXuXuXuXuXuXuXuXuXuXuXuXuX        o < m H L U W U ! U ! U ! ! ! U ! ! Y Y Y Y E U ~ (.qXqXqXqXqXqXqXqXqX9X<.4         uXuXuXuX",
"uXuXuXuXuXuXuXuXuXuXuXuXuXuXuX    o o o O 9 B U U E U ! ! ! ! ! ! ! ! ! Y Y Y Y U U u.1XqXqXqXqXqXqXqXqXqXq.3 O       uXuXuXuXuX",
"uXuXuXuXuXuXuXuXuXuXuXuXuXuXuXuX      o o o % r v C F P ! U U ! ! ! ! ! ! Y Y Y U >.9XqXqXqXqXqXqXqXqX<Xb.9 O       uXuXuXuXuXuX",
"uXuXuXuXuXuXuXuXuXuXuXuXuXuXuXuXuXuX  o o o O o     : q c D U ! ! ! ! Y ! ! ! Y { |.qX1XqXqXqXqXqX9XQ.| r O       uXuXuXuXuXuXuX",
"uXuXuXuXuXuXuXuXuXuXuXuXuXuXuXuXuXuXuXuX    o     O o o O % 5 d v B A G K ! ! [ R.qXqXqXqX,XI.<.^ c 4   O   O   uXuXuXuXuXuXuXuX",
"uXuXuXuXuXuXuXuXuXuXuXuXuXuXuXuXuXuXuXuXuX                O o o O % O = , 0 s A _ ~ J J G c : o o   o o       uXuXuXuXuXuXuXuXuX",
"uXuXuXuXuXuXuXuXuXuXuXuXuXuXuXuXuXuXuXuXuXuXuXuX          o     O o o     o o   o   o     @   o   o o       uXuXuXuXuXuXuXuXuXuX",
"uXuXuXuXuXuXuXuXuXuXuXuXuXuXuXuXuXuXuXuXuXuXuXuXuXuXuXuX              o   O   o   O       o o o         uXuXuXuXuXuXuXuXuXuXuXuX"
};
