/* XPM */
static char *frame_12_delay_0_05s1763316729[] = {
/* columns rows colors chars-per-pixel */
"64 64 165 2 ",
"   c black",
".  c #010101",
"X  c #020202",
"o  c gray1",
"O  c #040404",
"+  c gray2",
"@  c #060606",
"#  c #070707",
"$  c gray3",
"%  c #090909",
"&  c gray4",
"*  c #0B0B0B",
"=  c #0C0C0C",
"-  c gray5",
";  c #0E0E0E",
":  c gray6",
">  c #101010",
",  c #111111",
"<  c gray7",
"1  c #131313",
"2  c gray8",
"3  c #151515",
"4  c #161616",
"5  c gray9",
"6  c #181818",
"7  c #191919",
"8  c gray10",
"9  c gray11",
"0  c #1D1D1D",
"q  c #1E1E1E",
"w  c gray12",
"e  c #202020",
"r  c #222222",
"t  c gray14",
"y  c gray15",
"u  c #272727",
"i  c #282828",
"p  c #2A2A2A",
"a  c #2C2C2C",
"s  c #2D2D2D",
"d  c #2F2F2F",
"f  c #313131",
"g  c #323232",
"h  c #323136",
"j  c gray22",
"k  c #3A3A3A",
"l  c #3D3C41",
"z  c gray28",
"x  c #494949",
"c  c #4A494E",
"v  c #4F4F50",
"b  c gray33",
"n  c gray35",
"m  c #5C5C5E",
"M  c #606060",
"N  c #626166",
"B  c gray40",
"V  c #68676B",
"C  c gray42",
"Z  c gray43",
"A  c #707072",
"S  c gray45",
"D  c #787779",
"F  c gray48",
"G  c #7B7B7B",
"H  c #7C7C7C",
"J  c gray49",
"K  c #7E7E7E",
"L  c gray50",
"P  c #808083",
"I  c #868686",
"U  c gray53",
"Y  c #898989",
"T  c gray54",
"R  c #8B8B8B",
"E  c #8D8D8D",
"W  c #8E8E8E",
"Q  c gray57",
"!  c gray58",
"~  c #959595",
"^  c #979699",
"/  c #9A9A9A",
"(  c gray61",
")  c gray62",
"_  c gray63",
"`  c #A2A2A2",
"'  c #A4A4A6",
"]  c #A7A6A7",
"[  c #A9A9A9",
"{  c #AAAAAA",
"}  c gray67",
"|  c #ACACAC",
" . c #AEAEAE",
".. c gray69",
"X. c #B2B2B2",
"o. c gray70",
"O. c #B4B4B4",
"+. c gray71",
"@. c #B6B6B7",
"#. c #B8B7BA",
"$. c gray73",
"%. c #BCBCBC",
"&. c gray74",
"*. c gray",
"=. c gray75",
"-. c #C0C0C0",
";. c #C1C1C1",
":. c #C3C3C3",
">. c #C5C5C5",
",. c #C6C6C6",
"<. c gray78",
"1. c #C8C8C8",
"2. c gray79",
"3. c #CACACA",
"4. c gray80",
"5. c #CDCDCE",
"6. c gray81",
"7. c #D1D0D1",
"8. c #D2D2D2",
"9. c LightGray",
"0. c gray83",
"q. c #D5D5D5",
"w. c #D8D8D8",
"e. c #DADADB",
"r. c #DCDBDC",
"t. c #DDDDDD",
"y. c #DFDFDF",
"u. c #E1E0E1",
"i. c #E1E1E1",
"p. c #E2E2E2",
"a. c gray89",
"s. c #E4E4E4",
"d. c #E6E5E6",
"f. c #E7E7E7",
"g. c #E9E9E9",
"h. c #EAEAEA",
"j. c gray92",
"k. c #ECECEC",
"l. c gray93",
"z. c #EEEEEE",
"x. c #EFEFEF",
"c. c gray94",
"v. c #F1F1F1",
"b. c gray95",
"n. c #F3F3F3",
"m. c #F4F3F4",
"M. c #F4F4F4",
"N. c gray96",
"B. c #F6F6F6",
"V. c #F7F6F7",
"C. c gray97",
"Z. c #F8F8F8",
"A. c #F9F8F9",
"S. c #F9F9F9",
"D. c #FAF9FA",
"F. c gray98",
"G. c #FBFAFB",
"H. c #FBFBFB",
"J. c #FCFBFC",
"K. c gray99",
"L. c #FDFCFD",
"P. c #FDFDFD",
"I. c #FEFEFE",
"U. c white",
"Y. c None",
/* pixels */
"Y.Y.Y.Y.Y.Y.Y.Y.Y.Y.Y.Y.Y.Y.Y.Y.Y.Y.Y.Y.  Y.  Y.                  Y.  Y.  Y.Y.Y.Y.Y.Y.Y.Y.Y.Y.Y.Y.Y.Y.Y.Y.Y.Y.Y.Y.Y.Y.Y.Y.Y.Y.Y.",
"Y.Y.Y.Y.Y.Y.Y.Y.Y.Y.Y.Y.Y.Y.Y.Y.  Y.                                              Y.Y.Y.Y.Y.Y.Y.Y.Y.Y.Y.Y.Y.Y.Y.Y.Y.Y.Y.Y.Y.Y.Y.",
"Y.Y.Y.Y.Y.Y.Y.Y.Y.Y.Y.Y.Y.Y.                              O O O O O                       Y.Y.Y.Y.Y.Y.Y.Y.Y.Y.Y.Y.Y.Y.Y.Y.Y.Y.Y.",
"Y.Y.Y.Y.Y.Y.Y.Y.Y.Y.Y.Y.                                  w l s 4 $ O O                     Y.Y.Y.Y.Y.Y.Y.Y.Y.Y.Y.Y.Y.Y.Y.Y.Y.Y.",
"Y.Y.Y.Y.Y.Y.Y.Y.Y.Y.  O     O   O $ w z 6 O   #   O   O O $ s b H { $.) P A b y = o   o       Y.Y.Y.Y.Y.Y.Y.Y.Y.Y.Y.Y.Y.Y.Y.Y.Y.",
"Y.Y.Y.Y.Y.Y.Y.Y.Y.    O     - b Y ] D w $ O - 8 y y y e $ O $     $ 4 b H ) :.u.7.H y # o o       Y.Y.Y.Y.Y.Y.Y.Y.Y.Y.Y.Y.Y.Y.Y.",
"Y.Y.Y.Y.Y.Y.Y.        $ - m <.B.j.v O O > A :.k.B.n.k.k.t.{ G x t $ o $ $ $ 2 9 z L / b   o         Y.Y.Y.Y.Y.Y.Y.Y.Y.Y.Y.Y.Y.Y.",
"Y.Y.Y.Y.Y.Y.        O x *.n.H.r.l $ > B e.J.H.H.H.J.P.J.P.P.B.B.k.7.R b g > = O o # $ # o   o         Y.Y.Y.Y.Y.Y.Y.Y.Y.Y.Y.Y.Y.",
"Y.Y.Y.Y.Y.      $ $ G m.H.B.q.j $ 4 ^ H.H.P.P.H.H.P.P.P.J.P.P.P.P.P.P.J.B.s.*.Q v 2 O                   Y.Y.Y.Y.Y.Y.Y.Y.Y.Y.Y.Y.",
"Y.Y.Y.Y.        4 | H.m.H.u.g O 6 ) H.n.h.%.R C A ^ <.H.P.P.P.P.P.P.P.P.H.H.k.{ l O O               O     Y.Y.Y.Y.Y.Y.Y.Y.Y.Y.Y.",
"Y.Y.Y.    O   b 4.H.H.H.k.b O 8 ..B...n u - $ O   $ 8 S n.P.P.P.P.P.P.P.B.<.v 4       O   o                 Y.Y.Y.Y.Y.Y.Y.Y.Y.Y.",
"Y.Y.      O B n.B.H.H.h.n $ - { | v 4 O O   6 d i >   O W P.P.P.P.P.P.P.Q 2 O O O O         o     o o o     Y.Y.Y.Y.Y.Y.Y.Y.Y.Y.",
"Y.Y.    # n h.B.M.H.y.x O - Z m -   O O O   j t.f.w.n $ e h.P.P.P.P.P.| > $ $ O   O O   O     V x O o         Y.Y.Y.Y.Y.Y.Y.Y.Y.",
"Y.      g s.K.K.C.^ u # : l i $ O O o     o O ) P.Z.q.8 O ) P.P.P.P.h.g O g b O O     O   O $ L n.C O         Y.Y.Y.Y.Y.Y.Y.Y.Y.",
"    O - @.Z.H.u.m = o 8 W w O #     o   O     D P.P.B.z   D P.P.P.P.` O 4 $.V - O     O O O O | K.k.g O   O     Y.Y.Y.Y.Y.Y.Y.Y.",
"    O j c.h.I y = $ c <.n O 4 4     O o O O $ | J.P.B.z o D J.P.P.P.v $ b H.| > O O O     w A B.H.H.P O 4 -       Y.Y.Y.Y.Y.Y.Y.",
"  O O Y J.Y $   4 W k.4.> O ` b O       $ $ B J.P.n.| - O ..P.P.J.n.h O C H.B.2.V z z z L w.H.P.K.K.b   M P       Y.Y.Y.Y.Y.Y.Y.",
"O O - 7.P...h A 2.B.H.) O i k...> O O   8 Z k.H.P.2.u O l k.P.P.J.P.M O , Y k.B.H.j.c.x.Z.P.H.P.K.2.8 O ` u.g   O O Y.Y.Y.Y.Y.Y.",
"  O y h.P.C.h.C.P.P.P.` $ w 2.n.:.P B Y <.B.H.B.' u O 8 <.H.P.P.P.J.a.j $ $ j C ' s.m.H.H.Z.P.w.W i $ a f.P.| - O     Y.Y.Y.Y.Y.",
"O   g H.P.P.P.P.P.P.H.q.8 O e B W *.:.r.h.2.) z - O 6 ` K.P.P.P.P.K.J.2.l : O O > s l l v N b e O $ 8 ..P.J.B.m O       Y.Y.Y.Y.",
"O   l P.P.P.P.P.P.P.P.P.' 4 O O O 1 6 e i 4 $ $   j @.P.J.J.P.P.P.P.P.P.c./ v s $ O O O O $ O O = l ..H.P.P.P.u.g O O     Y.Y.Y.",
"    l P.P.P.P.P.P.P.P.P.B.:.A l e > $   $ O > j I f.H.P.J.J.P.P.P.P.P.P.Z.G.H.s.| M v v l h x A -.h.P.K.P.P.P.P.) $     Y.Y.Y.Y.",
"    l P.P.P.P.P.P.P.P.P.P.P.P.n.q.<.@.W D ) <.k.P.P.P.P.P.P.P.P.P.P.P.P.P.P.P.P.J.P.m.m.k.h.n.P.P.K.P.P.P.P.P.P.n.y     Y.Y.Y.Y.",
"O   l P.P.P.P.P.P.P.P.P.P.P.P.P.P.P.H.H.B.H.J.B.P.P.P.P.P.P.P.P.P.P.P.P.P.P.P.P.P.P.J.P.P.H.P.P.P.P.P.P.P.P.P.P.K.A   O   Y.Y.Y.",
"O   j P.P.P.P.P.P.P.P.P.P.P.P.P.P.P.P.P.P.P.P.P.P.P.P.P.P.P.P.P.P.P.P.P.P.P.P.P.P.P.P.P.P.P.P.P.P.P.P.P.P.P.P.P.P.$.# O   Y.Y.Y.",
"  O s k.P.P.P.P.P.P.P.P.P.P.P.P.P.P.P.P.P.P.P.P.P.P.P.P.P.P.P.P.P.P.P.P.P.P.P.P.P.P.P.P.P.P.P.P.P.P.P.P.P.P.P.P.P.k.y       Y.Y.",
"  O 4 q.P.P.P.P.P.P.h.n.P.P.P.P.P.P.P.P.P.P.P.P.P.P.P.P.P.P.P.P.P.P.P.P.P.P.P.P.P.P.P.P.P.P.P.P.P.P.P.P.P.P.P.P.P.P.C O   O   Y.",
"    O 2.P.P.P.P.P.f.x M k.P.P.P.P.P.P.P.P.P.P.P.P.P.P.P.P.P.P.P.P.P.P.P.P.P.P.P.P.P.P.P.P.P.P.P.P.P.P.P.P.P.P.P.P.P.<.$ O   Y.Y.",
"O O   *.P.P.P.P.P.q.> $ b 7.B.P.P.P.P.P.P.P.P.P.P.P.P.P.P.J.P.P.P.P.P.P.P.P.H.P.H.P.H.Z.H.P.J.J.P.J.H.B.P.H.H.H.P.P.k.e   O Y.Y.",
"O O   ` P.P.P.P.P.H.G $ O w b Q *.u.B.P.P.P.P.P.P.P.P.P.P.P.P.P.P.P.P.P.P.H.n.f.7.4.<.$.` ! S B M M A H U / @.k.P.P.P.z O     Y.",
"O   O A P.P.P.P.P.P.k.W y # O O > i b S Y / { 2.q.w.t.r.q.4.0.4.q.4.#.Q B n l y w w 4 $ o $ O # O # o *   O > l Q u.Z.G       Y.",
"    O x H.H.P.P.P.P.P.P.7.W v e $ O O   O $ O 8 e i y i e w w w w 8 - O   O   O $ $ $ 4 e s k l l l j g i w $ O O j f.{ O O   Y.",
"      4 u.H.P.P.P.P.P.P.P.J.H.w.*.Q m l g s w > $   O   O - = $ O - 8 y l b Z Q @...*.6.t.f.n.B.B.P.k.f.t.4.` x * O ' t.>   O Y.",
"Y.    O ) P.P.P.P.P.P.P.P.P.P.P.P.P.H.h.f.u.4.:.| ' ) ` { { | | { :.7.t.n.H.G.P.P.P.P.P.P.P.P.P.P.P.P.P.H.H.H.t.i O Q n.h   O Y.",
"Y.      z H.P.P.P.P.P.P.P.P.P.P.P.P.P.P.P.P.P.P.P.P.P.P.P.P.P.P.P.P.P.P.P.P.P.P.P.P.P.P.P.P.P.P.P.P.P.P.G.n.' j = > :.K.n       ",
"Y.Y.    O $.P.P.P.P.P.P.P.P.P.P.P.P.P.P.P.P.P.P.P.P.P.P.P.P.P.P.P.P.P.P.P.P.P.P.P.P.P.P.P.P.P.P.P.P.P.P.n.H - O # A B.P.S O     ",
"Y.Y.    O x Z.P.P.P.P.P.P.P.P.P.P.P.P.P.P.P.P.P.P.P.P.P.P.P.P.P.P.P.P.P.P.P.P.P.P.P.P.P.P.P.P.P.P.P.K.P.^ $ O j / n.P.P.! O     ",
"Y.Y.    O $ *.H.P.P.P.P.P.P.P.P.P.P.P.P.P.P.P.P.P.P.P.P.P.P.P.P.P.P.P.P.P.P.P.P.P.P.P.P.P.P.P.P.P.P.P.u.e $ b h.H.J.P.P...$     ",
"Y.Y.Y.    O v B.P.P.P.P.P.P.P.P.P.P.P.P.P.P.P.P.P.P.P.P.P.P.P.P.P.P.P.P.P.P.P.P.P.P.P.P.P.P.P.P.P.P.P.A   y w.G.P.P.P.P.| #     ",
"Y.Y.Y.  O   > $.P.P.P.P.P.P.P.P.P.P.P.P.P.P.P.P.P.P.P.P.P.P.P.P.P.P.P.P.P.P.P.P.P.P.P.P.P.P.P.P.P.P.u.y - ^ P.J.P.P.P.P.| O     ",
"Y.Y.Y.Y.  O   b n.P.P.P.P.P.P.P.P.P.P.P.P.P.P.P.P.P.P.P.P.P.P.P.P.P.P.P.P.P.P.P.P.P.P.P.P.P.P.P.P.P.^ - w k.P.P.P.P.P.P.!       ",
"Y.Y.Y.Y.      - $.P.P.P.P.P.P.P.P.P.P.P.P.P.P.P.P.P.P.P.P.P.P.P.P.P.P.P.P.P.P.P.P.P.P.P.P.P.P.P.P.B.j O S P.P.P.P.P.P.P.S O     ",
"Y.Y.Y.Y.Y.O     x B.P.P.P.P.P.P.P.P.P.P.P.P.P.P.P.P.P.P.P.P.P.P.P.P.P.P.P.P.P.P.P.P.P.P.P.P.P.P.P.w.> - 2.P.P.P.P.P.P.H.b O     ",
"Y.Y.Y.Y.Y.      $ :.P.P.P.P.P.P.P.P.P.P.P.P.P.P.P.P.P.P.P.P.P.P.P.P.P.P.P.P.P.P.P.P.P.P.P.P.P.P.P.{ O s n.P.P.P.P.P.P.H.j   O Y.",
"Y.Y.Y.Y.Y.Y.  O   l n.P.P.P.P.P.P.P.P.P.P.P.P.P.P.P.P.P.P.P.P.P.P.P.P.P.P.P.P.P.P.P.P.P.P.P.P.P.P.S O b J.P.P.P.P.P.H.h.8 O   Y.",
"Y.Y.Y.Y.Y.Y.    o O { P.P.P.P.P.P.P.P.P.P.P.P.P.P.P.P.P.P.P.P.P.P.P.P.P.P.P.P.P.P.P.P.P.P.P.P.P.B.j O Q P.P.P.P.P.P.H.2.O O   Y.",
"Y.Y.Y.Y.Y.Y.Y.$ O O h n.P.P.P.P.P.P.P.P.P.P.P.P.P.P.P.P.P.P.w.@.H.P.P.P.P.P.P.P.P.P.P.P.P.P.P.P.7.O $ 7.P.P.P.P.P.P.J.W O     Y.",
"Y.Y.Y.Y.Y.Y.Y.Y.o   $ @.P.P.P.P.P.P.P.P.P.P.P.P.P.P.P.P.P.P.x - ! P.P.P.P.P.P.P.P.P.P.P.P.P.P.P.C   l n.P.P.P.P.P.P.B.l       Y.",
"Y.Y.Y.Y.Y.Y.Y.Y.  O   l f.H.P.P.P.P.P.P.P.P.P.P.P.P.P.P.P.P.N   w #.P.P.P.P.P.P.P.P.P.P.P.P.P.:.> $ ! P.P.P.P.P.P.P.f.,     Y.Y.",
"Y.Y.Y.Y.Y.Y.Y.Y.Y.    $ b n.P.P.P.P.P.P.P.P.P.P.P.P.P.P.P.P.w.8 O - H k.P.P.P.P.P.P.P.P.P.H.2.g $ l M.P.P.P.P.P.P.P.) $     Y.Y.",
"Y.Y.Y.Y.Y.Y.Y.Y.Y.    O $ R P.H.P.P.P.P.P.P.P.P.P.P.P.P.P.P.P...s O   x ..t.n.P.H.B.P.P.H.| w O 9 =.H.P.P.H.P.P.P.J.v   O   Y.Y.",
"Y.Y.Y.Y.Y.Y.Y.Y.Y.Y.    O > ` H.P.P.P.P.P.P.P.P.P.P.P.P.P.P.P.P.t.m $ $ $ y z G :.| Q H m 4 O 8 ..H.P.P.P.P.P.P.P.f.4 O O Y.Y.Y.",
"Y.Y.Y.Y.Y.Y.Y.Y.Y.Y.Y.  O O e 7.H.H.P.P.P.P.P.P.P.P.P.P.P.P.P.P.P.n.Q y $   O   O $ O   O O k 7.P.P.P.P.P.P.P.P.P.^ O     Y.Y.Y.",
"Y.Y.Y.Y.Y.Y.Y.Y.Y.Y.Y.Y.  O # s q.J.P.P.P.P.P.P.P.P.P.P.P.P.P.P.P.P.Z.n.@.H b 9 > > w i s G k.H.P.P.P.P.P.P.P.P.h.g O     Y.Y.Y.",
"Y.Y.Y.Y.Y.Y.Y.Y.Y.Y.Y.Y.      O i @.H.H.P.P.P.P.P.P.P.P.P.P.P.P.P.P.P.P.J.P.P.u.@.2.f.H.H.J.J.P.P.P.P.P.P.P.P.H.G O   O Y.Y.Y.Y.",
"Y.Y.Y.Y.Y.Y.Y.Y.Y.Y.Y.Y.Y.      O , Z q.P.P.P.P.P.P.P.P.P.P.P.P.P.P.P.P.P.P.P.J.P.P.P.P.P.P.P.P.P.P.P.P.P.P.H.` :       Y.Y.Y.Y.",
"Y.Y.Y.Y.Y.Y.Y.Y.Y.Y.Y.Y.Y.Y.    O   $ w / k.H.H.P.P.P.P.P.P.P.P.P.P.P.P.P.P.P.P.P.P.P.P.P.P.P.P.P.P.P.P.P.Z.{ 8       Y.Y.Y.Y.Y.",
"Y.Y.Y.Y.Y.Y.Y.Y.Y.Y.Y.Y.Y.Y.Y.        O O g $.n.P.P.P.P.P.P.P.P.P.P.P.P.P.P.P.P.P.P.P.P.P.P.P.P.P.P.P.P.H.@.4 O     Y.Y.Y.Y.Y.Y.",
"Y.Y.Y.Y.Y.Y.Y.Y.Y.Y.Y.Y.Y.Y.Y.Y.Y.      O O - x W *.h.n.P.P.P.P.P.P.P.P.P.P.P.P.P.P.P.P.P.P.P.P.P.P.J.B.<.8       Y.Y.Y.Y.Y.Y.Y.",
"Y.Y.Y.Y.Y.Y.Y.Y.Y.Y.Y.Y.Y.Y.Y.Y.Y.Y.  O   O O O $ $ 4 k H 2.c.H.P.P.P.P.P.P.P.P.P.P.P.P.P.P.P.P.H.H.u.Q 9 O   O   Y.Y.Y.Y.Y.Y.Y.",
"Y.Y.Y.Y.Y.Y.Y.Y.Y.Y.Y.Y.Y.Y.Y.Y.Y.Y.Y.Y.  O       O O O O # i n Y @.<.u.n.B.B.H.P.J.H.P.B.H.w.` H l > O   O     Y.Y.Y.Y.Y.Y.Y.Y.",
"Y.Y.Y.Y.Y.Y.Y.Y.Y.Y.Y.Y.Y.Y.Y.Y.Y.Y.Y.Y.Y.Y.            O   o O O O $ > e j b D Y D D D B z - O O   O O   O   Y.Y.Y.Y.Y.Y.Y.Y.Y.",
"Y.Y.Y.Y.Y.Y.Y.Y.Y.Y.Y.Y.Y.Y.Y.Y.Y.Y.Y.Y.Y.Y.Y.Y.  Y.Y.  o     o     O   O       O   $         O O         Y.Y.Y.Y.Y.Y.Y.Y.Y.Y.Y.",
"Y.Y.Y.Y.Y.Y.Y.Y.Y.Y.Y.Y.Y.Y.Y.Y.Y.Y.Y.Y.Y.Y.Y.Y.Y.Y.Y.Y.Y.                O       O       O O           Y.Y.Y.Y.Y.Y.Y.Y.Y.Y.Y.Y."
};
