/* XPM */
static char *frame_50_delay_0_05s1763316733[] = {
/* columns rows colors chars-per-pixel */
"64 64 186 2 ",
"   c black",
".  c #010101",
"X  c #020202",
"o  c gray1",
"O  c #040404",
"+  c gray2",
"@  c #040406",
"#  c #060606",
"$  c #070707",
"%  c gray3",
"&  c #090909",
"*  c gray4",
"=  c #0B0B0B",
"-  c #0C0C0C",
";  c gray5",
":  c #0E0E0E",
">  c gray6",
",  c #101010",
"<  c #111111",
"1  c #131313",
"2  c #151515",
"3  c #161616",
"4  c gray9",
"5  c #181818",
"6  c #191919",
"7  c gray10",
"8  c gray11",
"9  c #1D1D1D",
"0  c #1E1E1E",
"q  c gray12",
"w  c #202020",
"e  c #222222",
"r  c #232323",
"t  c gray14",
"y  c gray15",
"u  c #282828",
"i  c #2A2A2A",
"p  c #2C2C2C",
"a  c #2D2D2D",
"s  c #2F2F2F",
"d  c gray19",
"f  c #313131",
"g  c #323232",
"h  c #323136",
"j  c gray22",
"k  c #3A3A3A",
"l  c #3D3C41",
"z  c gray28",
"x  c #494949",
"c  c #4A494E",
"v  c #4F4F50",
"b  c gray33",
"n  c #54535B",
"m  c gray35",
"M  c #5C5C5E",
"N  c #5E5D64",
"B  c #606060",
"V  c #626166",
"C  c gray40",
"Z  c #68676B",
"A  c gray42",
"S  c gray43",
"D  c #707072",
"F  c gray45",
"G  c #747378",
"H  c #787779",
"J  c gray48",
"K  c #7B7B7B",
"L  c #7A7A7C",
"P  c #7B7B7D",
"I  c #7C7C7C",
"U  c gray49",
"Y  c #7D7C7F",
"T  c #7E7E7E",
"R  c gray50",
"E  c #7E7D80",
"W  c #808083",
"Q  c #838384",
"!  c gray53",
"~  c #848388",
"^  c #888888",
"/  c #898989",
"(  c #8B8B8B",
")  c gray55",
"_  c #8E8E8E",
"`  c gray57",
"'  c #939393",
"]  c #959595",
"[  c #929198",
"{  c #979699",
"}  c #9A9A9A",
"|  c gray61",
" . c #9D9CA1",
".. c #A1A0A3",
"X. c #A2A2A2",
"o. c #A4A4A6",
"O. c #A7A6A7",
"+. c #A7A7AA",
"@. c #AAAAAA",
"#. c #ADADB0",
"$. c #B0AFB3",
"%. c #B1B0B7",
"&. c #B4B4B4",
"*. c #B5B4B8",
"=. c #B8B7BA",
"-. c gray73",
";. c #BBBBBD",
":. c #BAB9BF",
">. c #BCBCBC",
",. c gray75",
"<. c #BDBCC0",
"1. c #C0BFC2",
"2. c #C1C1C3",
"3. c #C3C3C3",
"4. c #C3C2C5",
"5. c #C5C5C6",
"6. c #C6C6C6",
"7. c #C8C7CA",
"8. c #CACACA",
"9. c #CAC9CC",
"0. c #CCCBCE",
"q. c #CDCDCE",
"w. c gray81",
"e. c #CFCFD2",
"r. c #D1D0D1",
"t. c LightGray",
"y. c #D3D3D5",
"u. c gray83",
"i. c #D6D5D7",
"p. c #D8D8D8",
"a. c #DADADB",
"s. c #DCDBDC",
"d. c #DDDDDD",
"f. c #DFDFDF",
"g. c #DEDEE0",
"h. c #E1E0E1",
"j. c #E1E1E1",
"k. c #E1E1E3",
"l. c #E2E2E2",
"z. c #E3E3E5",
"x. c #E4E4E6",
"c. c #E6E5E6",
"v. c #E7E7E7",
"b. c #E6E5E9",
"n. c gray91",
"m. c #EAEAEA",
"M. c #EAE9EC",
"N. c #EBEAEF",
"B. c #ECEBEE",
"V. c #EDECED",
"C. c gray93",
"Z. c #EEEEEE",
"A. c #EFEEEF",
"S. c #F0EFF2",
"D. c #F1F1F3",
"F. c gray95",
"G. c #F3F3F3",
"H. c #F2F1F5",
"J. c #F4F3F6",
"K. c #F4F4F4",
"L. c gray96",
"P. c #F5F4F7",
"I. c #F6F6F6",
"U. c #F7F6F7",
"Y. c gray97",
"T. c #F6F5F8",
"R. c #F7F6F9",
"E. c #F6F5FB",
"W. c #F8F7FA",
"Q. c #F8F8F8",
"!. c #F9F9F9",
"~. c #FAF9FA",
"^. c gray98",
"/. c #FBFAFB",
"(. c #FBFBFB",
"). c #F9F8FC",
"_. c #FAFAFE",
"`. c #FCFBFC",
"'. c #FCFBFF",
"]. c gray99",
"[. c #FDFCFD",
"{. c #FDFDFD",
"}. c #FEFDFF",
"|. c #FEFEFE",
" X c white",
".X c None",
/* pixels */
".X.X.X.X.X.X.X.X.X.X.X.X.X.X.X.X.X.X.X                                        .X.X.X.X.X.X.X.X.X.X.X.X.X.X.X.X.X.X.X.X.X.X.X.X.X",
".X.X.X.X.X.X.X.X.X.X.X.X.X.X.X.X                                                      .X.X.X.X.X.X.X.X.X.X.X.X.X.X.X.X.X.X.X.X.X",
".X.X.X.X.X.X.X.X.X.X.X.X.X                      o O O O O     O O                         .X.X.X.X.X.X.X.X.X.X.X.X.X.X.X.X.X.X.X",
".X.X.X.X.X.X.X.X.X.X.X                          % 6 t g z z x d 5 - O %                     .X.X.X.X.X.X.X.X.X.X.X.X.X.X.X.X.X.X",
".X.X.X.X.X.X.X.X.X          O     % % d v v m S p.F.L.W.U.U.].L.S.k.r.@.! S b u % O               .X.X.X.X.X.X.X.X.X.X.X.X.X.X.X",
".X.X.X.X.X.X.X.X      %     O u l m D T I L / p.(.].].].(.].].].].(.`.`.`.].H.H.r.H w O O O       .X.X.X.X.X.X.X.X.X.X.X.X.X.X.X",
".X.X.X.X.X.X.X          % d B J J J J T W T *.c.F.F.S.L.L.L.U.(.`.(.(.(.(.(.(.(.L.(.c.) w %         .X.X.X.X.X.X.X.X.X.X.X.X.X.X",
".X.X.X.X.X          O t B H L T I T J Z b k w 0 0 8 d v B B B V C C Z D H J D S S H T ^ _ a             .X.X.X.X.X.X.X.X.X.X.X.X",
".X.X.X.X    o   O O l F J Q F b k 6 > % o   $     O   O O O O O O O   O O   O % O O O O % % O             .X.X.X.X.X.X.X.X.X.X.X",
".X.X.X.X  O     : b I T A l , O O O       O 2 6 l v k w 2 2 2 6 2 6 , % % % : , - % % %   O O             .X.X.X.X.X.X.X.X.X.X.X",
".X.X.X        u C I J x 2 % O $ - 6 h k b Z F J ! k.C.c.c.c.n.n.c.k.d.i.i.t.d.h.s.p.6.,.' C l t : O % O     .X.X.X.X.X.X.X.X.X.X",
".X.X    O   j J T H l % o O u b Z H H H E T T T J ] g.(.].].].].].].(.].].].].(.(.L.c.-. .O.@.=.&.W t O O     .X.X.X.X.X.X.X.X.X",
".X      O u F I T v $ o w m S T ~ T H F V B B B M C H ,.!.].].].].].].].].].(.(.r.' x t 6 : 0 t c } @.1 O     .X.X.X.X.X.X.X.X.X",
"        6 F F T T l O 0 S E L I G S V N m v l l k l m Z | A.].].].].].].].].K.} x 2 %       O O O : k z O O     .X.X.X.X.X.X.X.X",
"    O o V T T T T F b F L E E G C m l w : O o O O   : a b R C.].].].].].].F.L w % O O 0 l m c u : % % d k O       .X.X.X.X.X.X.X",
"    O w J J I T T T Q H L I G A n 6 : O $ O : > , :     % k ) E.].].].].].+.u O % t ' d.n.(.F.s.X.a O O d a O       .X.X.X.X.X.X",
"      x J J T T T T E E H E V c 2 % % h L -.8.d.d.=.V , O = k r.].].].].V.m >   v p.(.].].].].].(.t.x % % l %       .X.X.X.X.X.X",
"O O % A T J J T T T T E E H N 3 O , [ k.].(.L.(.(.(.L.=.i O % Q ].].].].8.d O 4 k.].].].].].].].].(.p.0   a t O   O O .X.X.X.X.X",
"O O 2 J J T T T I T R E E C l O , #.E.`.].].U.g.1.r.F.F.9.6 O k S.].].].8.t O k L.].].].C.{ l k W L.>.:   k c % O     .X.X.X.X.X",
"% o 0 E T T T J T T R E E C l O 2 2.].`.].].| w : 0 } (.`.k O r 6.].].].q.q O 5 ,.(.].].*.% % % 8 7.k % 5 c Z v O       .X.X.X.X",
"    0 T T T J T E T T T H N n 6 O n ].`.`.N.4 O     c (.r.w o u 2.].].].k.0   o t 8.(._.>.$ O O d A % : l m M <.d O     .X.X.X.X",
"    w J T T T E T T I T G N n j - > %._.`.N.4       F @.t % $ 8 q.].].].(.B   o O d @.(.F./ m J F ,   r B M m <.+.=       .X.X.X",
"  O w T T T T T E E T E G v < u 8 O t #.H.`.#.c d k v , O o % k z.].].].(.2.2     O 6 C 5.N.k.! 2 $ 0 b b B m <.N.t O     .X.X.X",
"O   w J T T T T I T E T L l $ : l 1 % , C ^ Q H h 2 O O O o $ Z U.].].].U.W.m O O   O % w p p $ O , b z 1 h M <.].S O       .X.X",
"  O w J T T T T T T E E H M 6 @ i z = $ % $ $ % O O 1 % O , w _ ].].].].].].4.2 % O $ @ o $ O o 2 c N 3 $ 8 N s.(.*.O O     .X.X",
"O   1 W I T I T E E E E I C l   o l v u 2 1 1 2 t k u % O w p =.].].].].].].E.m u % $ o a i i j b M h o = d A S.].S.t       .X.X",
"    - S J I J T T T E E L m b 8 $ , l n M n v N n l :   6 h v p.].].].].].].].6.h u O O r v M V M l > @ 9 v ^ `.].].S   O     .X",
"O O O C J J I J T T E E E D k c 1 @ $ q b n m v u : o 3 l r Q L.].].].].].].].(.V l w O $ > u a u - @ > z b s.).].].4.: O O   .X",
"  O   B I I J I I E E E E E C j x 3 % $ : 0 8 = o o 8 z h V #.].].].].].].].].].d.x b 6 O O $ $ o O O l v #.).).`.`.C.0   $   .X",
"  O O v I J I J E I L E E E H N h x d % % O O $ $ u v j b E n.].].].].].].].].].E.e.c c j 2 $ $ , 6 x b O.W.).)._._.(.x O O   .X",
"  O   j J I J I E E E E E E L L Z j x v d 0 w i c M j Z G *._.].].].].].].].].].].].k.e.e.@.) )  .*.0.0.`.`.`._.`.`.].J O O     ",
"  O O w I J I J E L E E L E I L H D v N C C V A L F Z H | A.].].].].].].].].].].].].].`.`.`._._.].].`.`.`.].`.`.`._.].#.  O     ",
"  o   - A R J J L L E E E F j M E L E E L J H H H L W ! b.].].].].].].].].].].].].].].].].].].].].].].].].].].].].].].k.1       ",
"      % v I J J L L L E E z   t E E E E E I E E J L Q 9.].].].].].].].].].].].].].].].].].].].].].].].].].].].].].].]._.k O O   ",
"        w I J J E L E L G 2 $ l E L E I E L W J L ) q.E.].].].].].].].`.].].].].].`.].].].].].].].`.L.].].].].].].].].].b O     ",
".Xo     o M J J L L E E l O , D E E E E E E J W +.s.].].].].].].]._.J.S.b.p.d.d.h.b.S.E.].].].].].H.| k.].].].].].].].].F O     ",
".X    o o r I J L L E H 3 $ z E E E L L H W ' h.W.`.].`.C.g.*.~ Z m c l u u t u t j x b C _ q.S._.].&.^ k.`.].].].].].].]       ",
".X.X    O % N J I L H v $ 6 { H L H L E E  .x.).a.6...E v u % $ @ @ O $ O % % O $ O $ $ o $ 6 x } 9.q.~ ' S.].].].].].].=.O     ",
".X.X  o   o p H L L H a o v 1.L E ` e.9.9.e.{ b d O $ O   $ O : 3 r t d l b m m c h u t q = % $ % < t u N ,.].`.].].].].*.O     ",
".X.X.X  o   = M E E L 1 % | 1.I I e.y.) z q $ @ O O $ < w x ~ *.9.y.s.c.F.W.)._.W.C.z.h.0.+.m q : O O $ > A H.(.].].].].O.O     ",
".X.X.X      o t E E D $ % 9.<.H H S w $ O $ O 8 k G o.4.p.L.].].].].].].].].].].].].].].].]._.s.$.' b % O < o.`.].].].].| o     ",
".X.X.X.X  o   % V E C O 7 s.&.x 1 $ O - t x ` 9.L.].].].].].].].].].].].].].].].].].].].].].`.].`.H.S. .3 $ 0 p.].].].].H O o   ",
".X.X.X.X  O o   u I V O q S.$.$ o 1 h ' p.`.).).].].H.B.H.N.N.N.z.B.W.].].].].].].].].].].].`.`.].E.`.)._ $ $ W ].].].].m O     ",
".X.X.X.X.X      O V V O , p.e.w 8 ' x.`.`.W.n.s.q.;. .~ / ! Q Q Q / } k.].].].].].].].].].].d...Q J Q I b O   J ].].].].k O o   ",
".X.X.X.X.X  o   O q A < O / S.I L p.`.h.*.O.) E L L L L L H L E L L E +.].].].].].].].].].C.k % O o O $ $ % 0 e.].].].N.q   o   ",
".X.X.X.X.X.X    O @ v l $ u s.<.L ) e.~ E E H L E L L I L H L E E L E &.].].].].].].].].E.] % O < , > > - u #._.].].`.4.o       ",
".X.X.X.X.X.X    O o w Z 1 O b e.^ ~ R W E L L E L E L L L E L L L I ~ x.].].].].].].].].8.6 O u &.4.;.@.G p.].].].].(.! O o     ",
".X.X.X.X.X.X.X    o O m x O - d C L E E L L L E L E E E E L E E E E E <.].].].].].].].b.j $ : +.].(.J.e.p.`.].].].].E.l O   o .X",
".X.X.X.X.X.X.Xo     O t A k $   % l E I E L L E L L L E E E E L E L E Q 7._.].].].].L.b $ % Z (.].].].].].].].].].].c., o     .X",
".X.X.X.X.X.X.X.X  o O O u I b 4 % 2 E E E E L E E E E E E L E E E E I E I ..9.N.F.p.G : O 0 p.].].].].].].].].].].].+.O o     .X",
".X.X.X.X.X.X.X.X.X      O x H A x C L L H L L J L L I E E I L V a d j z A G E L E B 2   2 ~ `.].].].].].].].].].].].b $ O   .X.X",
".X.X.X.X.X.X.X.X.X    o O : v E E P L H L L L L L L E E E E L k $ O o $ : 0 i a a ,     z q.]._.].].].].].].].].].n., O     .X.X",
".X.X.X.X.X.X.X.X.X.X      O , H L H H J H L L L L E E E E L H m 1 > : O o   $   O o $ z ] J.].].].].].].].].].].].] % o   o .X.X",
".X.X.X.X.X.X.X.X.X.X.X  O o $ u G H L J H L L L L E L L L E E L G G S v a 1 : % : w v E i.`.`.].].].].].].].].].H.d O     .X.X.X",
".X.X.X.X.X.X.X.X.X.X.X.X        3 n E Q L J E L E L E L L E E E L E L E H H A A G H F _ _.].].].].].].].].].].`.J % O     .X.X.X",
".X.X.X.X.X.X.X.X.X.X.X.X.X    O O $ k Z L L L L L L E E E E E E E E E E L L J H L J F <.].].].].].].].].].].`.| : o     .X.X.X.X",
".X.X.X.X.X.X.X.X.X.X.X.X.X.X      o   , v G H L E L E L L E E E E E E E L L L L J L W x.`.].].].].].].].].`.+.1         .X.X.X.X",
".X.X.X.X.X.X.X.X.X.X.X.X.X.X.X    o   O o 7 m L L L E E E E E E E E E E E L L J L J ;.`.].].].].].].].].].&., O       .X.X.X.X.X",
".X.X.X.X.X.X.X.X.X.X.X.X.X.X.X.X        o o $ r z N A L I L L E E E E E E I E L I o.].].].].].].].].(.W.6.0 $ O     .X.X.X.X.X.X",
".X.X.X.X.X.X.X.X.X.X.X.X.X.X.X.X.X.X  o o   O o O   > 7 l A I E E E E E E E E L ) A.].(.].].].].].`.k._ 0 O       .X.X.X.X.X.X.X",
".X.X.X.X.X.X.X.X.X.X.X.X.X.X.X.X.X.X.X    o o       o O O O 6 p x m V S G R E ) d.].].]._.).d.+.Q z 1   O   o   .X.X.X.X.X.X.X.X",
".X.X.X.X.X.X.X.X.X.X.X.X.X.X.X.X.X.X.X.X.X                O     O O O - 1 8 u V / E G F S l : o O O o o       .X.X.X.X.X.X.X.X.X",
".X.X.X.X.X.X.X.X.X.X.X.X.X.X.X.X.X.X.X.X.X.X.X                O O     O   O     o o o     o   o   o o       .X.X.X.X.X.X.X.X.X.X",
".X.X.X.X.X.X.X.X.X.X.X.X.X.X.X.X.X.X.X.X.X.X.X.X.X.X.X                O       O   o       o o o           .X.X.X.X.X.X.X.X.X.X.X"
};
