/* XPM */
static char *frame_13_delay_0_05s1763316729[] = {
/* columns rows colors chars-per-pixel */
"64 64 169 2 ",
"   c black",
".  c #010101",
"X  c #020202",
"o  c gray1",
"O  c #040404",
"+  c gray2",
"@  c #060606",
"#  c #070707",
"$  c gray3",
"%  c #090909",
"&  c gray4",
"*  c #0B0B0B",
"=  c #0C0C0C",
"-  c gray5",
";  c #0E0E0E",
":  c gray6",
">  c #101010",
",  c #111111",
"<  c gray7",
"1  c #131313",
"2  c gray8",
"3  c #151515",
"4  c #161616",
"5  c gray9",
"6  c #181818",
"7  c #191919",
"8  c gray10",
"9  c gray11",
"0  c #1E1E1E",
"q  c gray12",
"w  c #202020",
"e  c #222222",
"r  c #232323",
"t  c gray14",
"y  c gray15",
"u  c #272727",
"i  c #282828",
"p  c #2A2A2A",
"a  c #2C2C2C",
"s  c #2D2D2D",
"d  c #2F2F2F",
"f  c gray19",
"g  c #313131",
"h  c #323232",
"j  c #323136",
"k  c gray22",
"l  c #3A3A3A",
"z  c #3D3C41",
"x  c gray28",
"c  c #494949",
"v  c #4A494E",
"b  c #4F4F50",
"n  c gray33",
"m  c gray35",
"M  c #5C5C5E",
"N  c #606060",
"B  c #626166",
"V  c gray40",
"C  c #68676B",
"Z  c gray42",
"A  c gray43",
"S  c gray45",
"D  c #787779",
"F  c gray48",
"G  c #7B7B7B",
"H  c #7C7C7C",
"J  c gray49",
"K  c #7E7E7E",
"L  c gray50",
"P  c #808083",
"I  c #838384",
"U  c #868686",
"Y  c gray53",
"T  c #888888",
"R  c #898989",
"E  c gray54",
"W  c #8B8B8B",
"Q  c gray55",
"!  c #8D8D8D",
"~  c #8E8E8E",
"^  c gray57",
"/  c gray58",
"(  c #959595",
")  c #979699",
"_  c #9A9A9A",
"`  c gray61",
"'  c gray62",
"]  c #A0A0A0",
"[  c gray63",
"{  c #A2A2A2",
"}  c #A4A4A6",
"|  c #A7A6A7",
" . c #A9A9A9",
".. c #AAAAAA",
"X. c gray67",
"o. c #ACACAC",
"O. c #AEAEAE",
"+. c gray69",
"@. c #B2B2B2",
"#. c gray70",
"$. c #B4B4B4",
"%. c gray71",
"&. c #B6B6B7",
"*. c #B8B7BA",
"=. c gray73",
"-. c #BCBCBC",
";. c gray74",
":. c gray",
">. c gray75",
",. c #C0C0C0",
"<. c #C1C1C1",
"1. c #C3C3C3",
"2. c #C5C5C5",
"3. c #C6C6C6",
"4. c gray78",
"5. c #C8C8C8",
"6. c gray79",
"7. c #CACACA",
"8. c gray80",
"9. c #CDCDCE",
"0. c gray81",
"q. c #D1D0D1",
"w. c #D2D2D2",
"e. c LightGray",
"r. c gray83",
"t. c #D5D5D5",
"y. c #D6D5D7",
"u. c #D8D8D8",
"i. c #DADADB",
"p. c #DCDBDC",
"a. c #DDDDDD",
"s. c #DFDFDF",
"d. c #E1E0E1",
"f. c #E1E1E1",
"g. c #E2E2E2",
"h. c gray89",
"j. c #E4E4E4",
"k. c #E6E5E6",
"l. c #E7E7E7",
"z. c gray91",
"x. c #E9E9E9",
"c. c #EAEAEA",
"v. c gray92",
"b. c #ECECEC",
"n. c gray93",
"m. c #EEEEEE",
"M. c #EFEFEF",
"N. c gray94",
"B. c #F1F1F1",
"V. c gray95",
"C. c #F3F3F3",
"Z. c #F4F4F4",
"A. c gray96",
"S. c #F6F6F6",
"D. c gray97",
"F. c #F8F8F8",
"G. c #F9F8F9",
"H. c #F9F9F9",
"J. c #FAF9FA",
"K. c gray98",
"L. c #FBFAFB",
"P. c #FBFBFB",
"I. c #FCFBFC",
"U. c gray99",
"Y. c #FDFCFD",
"T. c #FDFDFD",
"R. c #FEFEFE",
"E. c white",
"W. c None",
/* pixels */
"W.W.W.W.W.W.W.W.W.W.W.W.W.W.W.W.W.W.W.W.  W.  W.                      W.  W.W.W.W.W.W.W.W.W.W.W.W.W.W.W.W.W.W.W.W.W.W.W.W.W.W.W.",
"W.W.W.W.W.W.W.W.W.W.W.W.W.W.W.W.  W.                                              W.W.W.W.W.W.W.W.W.W.W.W.W.W.W.W.W.W.W.W.W.W.W.",
"W.W.W.W.W.W.W.W.W.W.W.W.W.W.                              $ O $                           W.W.W.W.W.W.W.W.W.W.W.W.W.W.W.W.W.W.W.",
"W.W.W.W.W.W.W.W.W.W.W.W.                                w z x a 7 $ O O O                   W.W.W.W.W.W.W.W.W.W.W.W.W.W.W.W.W.W.",
"W.W.W.W.W.W.W.W.W.W.  O     O   O O q x h # o     O   O $ a M ~ ] =.e.' P A n h * o   o       W.W.W.W.W.W.W.W.W.W.W.W.W.W.W.W.W.",
"W.W.W.W.W.W.W.W.W.    O     - n W | ~ q O O     O O $ O   O $   $ , j N ( u.N.v.e.J 7 $ o O       W.W.W.W.W.W.W.W.W.W.W.W.W.W.W.",
"W.W.W.W.W.W.W.        $ - M 4.N.T.~ - O - c ( 9.i.v.u.9.' Z z 7 - $ O   $ 4 i v S ^ } V >           W.W.W.W.W.W.W.W.W.W.W.W.W.W.",
"W.W.W.W.W.W.        O c :.Z.T.N.U $ O z 9.Z.I.T.T.I.T.I.U.U.Z.v.t.` N h , O O O O # - 1 O     o       W.W.W.W.W.W.W.W.W.W.W.W.W.",
"W.W.W.W.W.      $ $ G v.P.P.s.c > $ x i.I.T.T.I.T.T.T.T.I.T.T.T.T.T.T.Z.y.} D b a , O                   W.W.W.W.W.W.W.W.W.W.W.W.",
"W.W.W.W.    o o 4 o.Z.P.P.9.h O O n g.D.M.y.o.o.5.k.P.P.T.T.T.T.T.T.P.I.P.G.g.^ l O O o             o     W.W.W.W.W.W.W.W.W.W.W.",
"W.W.W.    O O v e.P.I.P.5.t O 7 Y C.r.D j - $ O , 7 c o.N.T.T.T.T.T.T.T.N.U u O       o       #       o o   W.W.W.W.W.W.W.W.W.W.",
"W.W.      O V N.Z.P.P.9.t $ 9 o.z.U q O O   $ # $ O O 6 o.T.T.T.T.T.T.P.V O O O O O         4 l o   O       W.W.W.W.W.W.W.W.W.W.",
"W.W.    $ m m.T.T.G.:.h $ q +./ j - O o o o c =.X.H t $ h N.T.T.T.T.T.` $ O m n   O O   O   o 1.G O o         W.W.W.W.W.W.W.W.W.",
"W.      h k.F.P.m.T 9 o 4 W l $ O O o       O ] T.T.:.- * 4.T.T.T.T.v.t $ n 9.7 O     O   O $ <.N.n O           W.W.W.W.W.W.W.W.",
"    O = &.T.P.u.M - O i ~ q - O     o   o o   ~ T.T.m.t o ] T.T.T.T.| O 4 t.4.$ O     O O $ i l.I.e.5 O O O     W.W.W.W.W.W.W.W.",
"    O k N.N.A q * $ n e.z O w i     O O O   - 4.T.T.m.t O ] I.T.T.T.n O N P.u.- O O o     w %.T.P.P.m o i -       W.W.W.W.W.W.W.",
"  O O W T.:.$   7 U v.:.$ O o.D O   O   $ $ S P.I.I.9.- $ 4.T.T.T.Z.l O P I.I.^ i w 4 h I t.Z.T.T.T.S O n P     o W.W.W.W.W.W.W.",
"O O - e.T.v.M S e.P.P.' $ i v.e.q O     7 ~ m.N.P.z.n O h m.T.T.T.P.J o 7 +.Z.Z.v.h.g.v.P.P.I.T.T.M.z O Z m.l     o W.W.W.W.W.W.",
"  o t z.T.T.T.T.T.T.T.9.$ $ +.T.:.x i B 4.P.P.I.5.n O - ] I.T.T.T.T.s.q O 4 n | r.m.P.P.P.Z.Z.g.} c * , -.T.%.* O     W.W.W.W.W.",
"O O h P.T.T.T.T.T.T.P.P.z O w n ~ X.4.m.Z.k.%.V q O O G P.Z.T.T.T.T.P.,.h - - O 7 h v b b b h w -   # C Z.I.Z.M O   o   W.W.W.W.",
"    z T.T.T.T.T.T.T.T.T.%.4 O O O = r z l t 7 O $ t ( N.I.I.T.T.T.T.T.T.t.P j - # O o   O   $ O * z ) M.T.T.T.g.h O       W.W.W.",
"    z T.T.T.T.T.T.T.T.T.Z.%.M h 7 $ =   $ O $ w G t.Z.T.I.I.T.T.T.T.T.T.P.P.v.<.( V b b c n A I >.v.T.I.T.T.T.T.] $     W.W.W.W.",
"    z T.T.T.T.T.T.T.T.T.T.T.T.v.t.o.S B Z W *.s.P.P.T.T.T.T.T.T.T.T.T.T.T.T.I.T.I.T.B.B.Z.Z.T.T.T.T.T.T.T.T.T.T.M.u o     W.W.W.",
"O   z T.T.T.T.T.T.T.T.T.T.T.T.T.U.U.P.U.U.F.P.U.T.T.T.T.T.T.T.T.T.T.T.T.T.T.T.T.T.T.I.I.T.T.T.T.T.T.T.T.T.T.T.T.T.A   o   W.W.W.",
"O   l P.T.T.T.T.T.T.T.T.T.T.T.T.T.T.T.T.T.T.T.T.T.T.T.T.T.T.T.T.T.T.T.T.T.T.T.T.T.T.T.T.T.T.T.T.T.T.T.T.T.T.T.T.T.=.$ O   W.W.W.",
"  O a m.T.T.T.T.T.T.T.T.T.T.T.T.T.T.T.T.T.T.T.T.T.T.T.T.T.T.T.T.T.T.T.T.T.T.T.T.T.T.T.T.T.T.T.T.T.T.T.T.T.T.T.T.P.N.t       W.W.",
"  O - y.T.T.T.T.T.T.P.T.T.T.T.T.T.T.T.T.T.T.T.T.T.T.T.T.T.T.T.T.T.T.T.T.T.T.T.T.T.T.T.T.T.T.T.T.T.T.T.T.T.T.T.T.T.T.S O   o   W.",
"  O O 5.T.T.T.T.T.F.9.v.T.T.T.T.T.T.T.T.T.T.T.T.T.T.T.T.T.T.T.T.T.T.T.T.T.T.T.T.T.T.T.T.T.T.T.T.T.T.T.T.T.T.T.T.T.T.4.$ O   W.W.",
"O O   =.T.T.T.T.T.:.q b y.P.I.T.T.T.T.T.T.T.T.T.T.T.T.T.T.I.T.T.T.T.T.T.T.T.T.T.P.T.T.T.T.T.P.P.T.P.P.T.I.P.T.T.T.T.m.7   O W.W.",
"O O   ] T.T.T.T.T.=.$ $ a A =.v.T.T.T.T.T.T.T.T.T.T.T.T.T.T.T.T.T.T.T.T.T.T.T.T.m.s.4.4.4.7.s.s.s.s.u.t.v.P.T.T.T.T.Z.x O     W.",
"O   O A T.T.T.T.T.T.J 2 O O , l G +.5.8.t.t.e.e.u.u.y.u.t.s.k.m.m.m.u.<.o.J M c a q 4 4 7 t a h i t w w l B _ u.P.T.P.G       W.",
"    O c P.P.T.T.T.T.m.=.C a $ O # O 7 7 w t q w a i i t t a h l z z i , O O   O $ O   O O $ O O O $ $ $ O O $ i J g.I.X.O O   W.",
"    O 7 g.P.T.T.T.T.T.T.P.u.} n a , $ O O   O O O O   O O O O $ $ O O , 7 a z n G ^ +.+.+.^ W U ~ ' ' W M h : O O v v.a.2   O W.",
"W.      ' T.T.T.T.T.T.T.T.T.P.T.u.:.] ' ' ' ' ] ] ' ] ' ] / P S A D W :.9.g.N.N.P.T.P.T.P.T.T.T.T.T.T.T.Z.m.<.V - $ ' N.l   O W.",
"W.      x G.T.T.T.T.T.T.T.T.T.T.T.T.T.T.T.T.T.T.T.T.T.T.T.T.T.T.T.T.T.T.T.T.T.T.T.T.T.T.T.T.T.T.T.T.T.T.T.T.Z.5.s   W U.m       ",
"W.      $ %.T.T.T.T.T.T.T.T.T.T.T.T.T.T.T.T.T.T.T.T.T.T.T.T.T.T.T.T.T.T.T.T.T.T.T.T.T.T.T.T.T.T.T.T.T.T.T.h.S w $ 2 =.T.S O     ",
"W.W.    O c P.T.T.T.T.T.T.T.T.T.T.T.T.T.T.T.T.T.T.T.T.T.T.T.T.T.T.T.T.T.T.T.T.T.T.T.T.T.T.T.T.T.T.T.I.T.v.c O o w _ Z.T.( O     ",
"W.W.    O $ =.P.T.T.T.T.T.T.T.T.T.T.T.T.T.T.T.T.T.T.T.T.T.T.T.T.T.T.T.T.T.T.T.T.T.T.T.T.T.T.T.T.T.T.T.P.A O 5 Z t.Z.T.T.+.$     ",
"W.W.W.    O n Z.T.T.T.T.T.T.T.T.T.T.T.T.T.T.T.T.T.T.T.T.T.T.T.T.T.T.T.T.T.T.T.T.T.T.T.T.T.T.T.T.T.T.T.&.- $ U P.T.T.T.T.o.O     ",
"W.W.W.      , =.P.T.T.T.T.T.T.T.T.T.T.T.T.T.T.T.T.T.T.T.T.T.T.T.T.T.T.T.T.T.T.T.T.T.T.T.T.T.T.T.T.T.Z.n $ c Z.I.T.T.T.T.o.O     ",
"W.W.W.W.    O c Z.T.T.T.T.T.T.T.T.T.T.T.T.T.T.T.T.T.T.T.T.T.T.T.T.T.T.T.T.T.T.T.T.T.T.T.T.T.T.T.T.T.5.$ $ +.T.T.T.T.T.T.(       ",
"W.W.W.W.  o   - =.T.T.T.T.T.T.T.T.T.T.T.T.T.T.T.T.T.T.T.T.T.T.T.T.T.T.T.T.T.T.T.T.T.T.T.T.T.T.T.T.T.Z O z N.T.T.T.T.T.T.S O     ",
"W.W.W.W.W.      c Z.T.T.T.T.T.T.T.T.T.T.T.T.T.T.T.T.T.T.T.T.T.T.T.T.T.T.T.T.T.T.T.T.T.T.T.T.T.T.T.v.i O ^ P.T.T.T.T.T.P.M O     ",
"W.W.W.W.W.    o $ <.T.T.T.T.T.T.T.T.T.T.T.T.T.T.T.T.T.T.T.T.T.T.T.T.T.T.T.T.T.T.T.T.T.T.T.T.T.T.T.+.  4 g.T.T.T.T.T.T.P.l   O W.",
"W.W.W.W.W.W.  O O z N.T.T.T.T.T.T.T.T.T.T.T.T.T.T.T.T.T.T.T.T.T.T.T.T.T.T.T.T.T.T.T.T.T.T.T.T.T.T.M O n P.T.T.T.T.T.P.z.7     W.",
"W.W.W.W.W.W.  o   O o.T.T.T.T.T.T.T.T.T.T.T.T.T.T.T.T.T.T.T.T.T.T.T.T.T.T.T.T.T.T.T.T.T.T.T.T.T.k.q O ] T.T.T.T.T.T.I.4.O O   W.",
"W.W.W.W.W.W.W.$ O O j Z.T.T.T.T.T.T.T.T.T.T.T.T.T.T.T.T.T.P.} %.T.T.T.T.T.T.T.T.T.T.T.T.T.T.T.T.' $ w l.T.T.T.T.T.T.P.~ O     W.",
"W.W.W.W.W.W.W.W.O   $ %.T.T.T.T.T.T.T.T.T.T.T.T.T.T.T.T.T.g.q 4 =.T.T.T.T.T.T.T.T.T.T.T.T.T.T.Z.l   Z T.T.T.T.T.T.T.P.z       W.",
"W.W.W.W.W.W.W.W.  O   z h.T.T.T.T.T.T.T.T.T.T.T.T.T.T.T.T.Z.l   i <.Z.I.T.T.T.T.T.T.T.T.T.T.T.%.$ - 4.U.T.T.T.T.T.T.g., O   W.W.",
"W.W.W.W.W.W.W.W.      # n N.T.T.T.T.T.T.T.T.T.T.T.T.T.T.T.T.=.7 $ - V 9.T.T.T.T.T.T.T.T.T.P.u.h $ z P.T.T.T.T.T.T.T.]       W.W.",
"W.W.W.W.W.W.W.W.W.    O $ ^ T.P.T.T.T.T.T.T.T.T.T.T.T.T.T.T.T.' t $   7 S e.N.I.T.T.T.Z.s.~ i $ 4 <.Z.T.T.I.T.T.T.T.b   O   W.W.",
"W.W.W.W.W.W.W.W.W.W.    O 2 o.T.T.T.T.T.T.T.T.T.T.T.T.T.T.T.T.Z.s.S q $   4 n | p.s.+.n q O O , _ P.T.T.T.T.T.T.T.k.4     W.W.W.",
"W.W.W.W.W.W.W.W.W.W.W.    O t e.T.T.T.T.T.T.T.T.T.T.T.T.T.T.T.T.T.T.t.V 4   O - 4 4 O   O 9 c 5.T.T.T.T.T.T.T.T.T._ O   O W.W.W.",
"W.W.W.W.W.W.W.W.W.W.W.W.O   O h t.T.T.T.T.T.T.T.T.T.T.T.T.T.T.T.T.T.T.T.u.~ h , $ $ , h I e.Z.I.T.T.T.T.T.T.T.T.v.h O     W.W.W.",
"W.W.W.W.W.W.W.W.W.W.W.W.      O i =.N.P.T.T.T.T.T.T.T.T.T.T.T.T.T.T.T.T.I.T.N.-.} | 4.P.T.T.T.T.T.T.T.T.T.T.T.P.J *   O W.W.W.W.",
"W.W.W.W.W.W.W.W.W.W.W.W.W.      O , S u.T.T.T.T.T.T.T.T.T.T.T.T.T.T.T.T.T.T.T.Z.T.T.T.T.T.T.T.T.T.T.T.T.T.T.P.] : O     W.W.W.W.",
"W.W.W.W.W.W.W.W.W.W.W.W.W.W.    O   $ q ] N.P.T.T.T.T.T.T.T.T.T.T.T.T.T.T.T.T.T.T.T.T.T.T.T.T.T.T.T.T.T.T.G.o.:       W.W.W.W.W.",
"W.W.W.W.W.W.W.W.W.W.W.W.W.W.W.        O O h :.Z.T.T.T.T.T.T.T.T.T.T.T.T.T.T.T.T.T.T.T.T.T.T.T.T.T.T.T.T.T.=.4 O     W.W.W.W.W.W.",
"W.W.W.W.W.W.W.W.W.W.W.W.W.W.W.W.W.      O O $ c ~ :.v.N.T.T.T.T.T.T.T.T.T.T.T.T.T.T.T.T.T.T.T.T.T.T.P.Z.5.7       W.W.W.W.W.W.W.",
"W.W.W.W.W.W.W.W.W.W.W.W.W.W.W.W.W.W.  O   O O O $   - l J 9.Z.T.T.T.T.T.T.T.T.T.T.T.T.T.T.T.T.T.P.P.g.~ 4 O       W.W.W.W.W.W.W.",
"W.W.W.W.W.W.W.W.W.W.W.W.W.W.W.W.W.W.W.W.  O       O O O O O a m W %.4.g.N.Z.T.P.T.P.P.T.Z.P.r.{ J z , O   O o   W.W.W.W.W.W.W.W.",
"W.W.W.W.W.W.W.W.W.W.W.W.W.W.W.W.W.W.W.W.W.W.            O O   O   $ O , w l n D I D D D V c , O O     O   o   W.W.W.W.W.W.W.W.W.",
"W.W.W.W.W.W.W.W.W.W.W.W.W.W.W.W.W.W.W.W.W.W.W.W.              O     O     O     O O O     O O     O       W.W.W.W.W.W.W.W.W.W.W.",
"W.W.W.W.W.W.W.W.W.W.W.W.W.W.W.W.W.W.W.W.W.W.W.W.W.W.W.W.W.              O     O   O       O   O         W.W.W.W.W.W.W.W.W.W.W.W."
};
