/* XPM */
static char *frame_18_delay_0_05s1763316730[] = {
/* columns rows colors chars-per-pixel */
"64 64 166 2 ",
"   c black",
".  c #010101",
"X  c #020202",
"o  c gray1",
"O  c #040404",
"+  c gray2",
"@  c #060606",
"#  c #070707",
"$  c gray3",
"%  c #090909",
"&  c gray4",
"*  c #0B0B0B",
"=  c #0C0C0C",
"-  c gray5",
";  c #0E0E0E",
":  c gray6",
">  c #101010",
",  c #111111",
"<  c gray7",
"1  c #131313",
"2  c gray8",
"3  c #151515",
"4  c #161616",
"5  c gray9",
"6  c #181818",
"7  c #191919",
"8  c gray10",
"9  c gray11",
"0  c #1E1E1E",
"q  c gray12",
"w  c #202020",
"e  c #222222",
"r  c #232323",
"t  c gray14",
"y  c gray15",
"u  c #272727",
"i  c #282828",
"p  c #2A2A2A",
"a  c #2C2C2C",
"s  c #2D2D2D",
"d  c #2F2F2F",
"f  c gray19",
"g  c #323232",
"h  c #323136",
"j  c gray22",
"k  c #3A3A3A",
"l  c #3D3C41",
"z  c gray28",
"x  c #494949",
"c  c #4A494E",
"v  c #4F4F50",
"b  c gray33",
"n  c gray35",
"m  c #5C5C5E",
"M  c #606060",
"N  c #626166",
"B  c gray40",
"V  c #68676B",
"C  c gray42",
"Z  c gray43",
"A  c #707072",
"S  c gray45",
"D  c #787779",
"F  c gray48",
"G  c #7B7B7B",
"H  c #7C7C7C",
"J  c gray49",
"K  c gray50",
"L  c #808083",
"P  c #838384",
"I  c #868686",
"U  c gray53",
"Y  c #898989",
"T  c gray54",
"R  c #8B8B8B",
"E  c gray55",
"W  c #8E8E8E",
"Q  c gray57",
"!  c gray58",
"~  c #959595",
"^  c #979699",
"/  c #9A9A9A",
"(  c gray61",
")  c gray62",
"_  c #A0A0A0",
"`  c gray63",
"'  c #A2A2A2",
"]  c #A4A4A6",
"[  c #A7A6A7",
"{  c #A9A9A9",
"}  c #AAAAAA",
"|  c gray67",
" . c #ACACAC",
".. c #AEAEAE",
"X. c gray69",
"o. c #B2B2B2",
"O. c gray70",
"+. c #B4B4B4",
"@. c gray71",
"#. c #B6B6B7",
"$. c #B8B7BA",
"%. c gray73",
"&. c #BCBCBC",
"*. c gray74",
"=. c gray75",
"-. c #C0C0C0",
";. c #C1C1C1",
":. c #C3C3C3",
">. c #C6C6C6",
",. c gray78",
"<. c #C8C8C8",
"1. c gray79",
"2. c #CACACA",
"3. c #CDCDCE",
"4. c gray81",
"5. c #D1D0D1",
"6. c #D2D2D2",
"7. c LightGray",
"8. c gray83",
"9. c #D5D5D5",
"0. c #D6D5D7",
"q. c #D8D8D8",
"w. c #DADADB",
"e. c #DCDBDC",
"r. c #DDDDDD",
"t. c #DFDFDF",
"y. c #E1E0E1",
"u. c #E1E1E1",
"i. c #E2E2E2",
"p. c gray89",
"a. c #E4E4E4",
"s. c #E6E5E6",
"d. c #E7E7E7",
"f. c gray91",
"g. c #E9E9E9",
"h. c #EAEAEA",
"j. c gray92",
"k. c #ECECEC",
"l. c #EDECED",
"z. c gray93",
"x. c #EEEEEE",
"c. c #EFEFEF",
"v. c gray94",
"b. c #F1F1F1",
"n. c gray95",
"m. c #F3F3F3",
"M. c #F4F3F4",
"N. c #F4F4F4",
"B. c #F5F4F5",
"V. c gray96",
"C. c #F6F6F6",
"Z. c gray97",
"A. c #F8F8F8",
"S. c #F9F8F9",
"D. c #F9F9F9",
"F. c #FAF9FA",
"G. c gray98",
"H. c #FBFAFB",
"J. c #FBFBFB",
"K. c #FCFBFC",
"L. c gray99",
"P. c #FDFCFD",
"I. c #FDFDFD",
"U. c #FEFEFE",
"Y. c white",
"T. c None",
/* pixels */
"T.T.T.T.T.T.T.T.T.T.T.T.T.T.T.T.T.T.T.T.      T.                      T.  T.  T.T.T.T.T.T.T.T.T.T.T.T.T.T.T.T.T.T.T.T.T.T.T.T.T.",
"T.T.T.T.T.T.T.T.T.T.T.T.T.T.T.T.                                                    T.T.T.T.T.T.T.T.T.T.T.T.T.T.T.T.T.T.T.T.T.T.",
"T.T.T.T.T.T.T.T.T.T.T.T.T.T.                      @ % @     @ O @                         T.T.T.T.T.T.T.T.T.T.T.T.T.T.T.T.T.T.T.",
"T.T.T.T.T.T.T.T.T.T.T.T.                        % 6 a g z z z a 3 % @                       T.T.T.T.T.T.T.T.T.T.T.T.T.T.T.T.T.T.",
"T.T.T.T.T.T.T.T.T.T.            @ ; 9 n R ( Q P C A F F I Q ..q.h.i.3.] R A m a & @             T.T.T.T.T.T.T.T.T.T.T.T.T.T.T.T.",
"T.T.T.T.T.T.T.T.T.          * v U X.t.,.Z f < < @ @   @ @ % % < k M ] 4.z.C.F.n.5.G t o O         T.T.T.T.T.T.T.T.T.T.T.T.T.T.T.",
"T.T.T.T.T.T.T.        # * m :.C.L.a.C 1 @ @ # % t k j j a q % O o @ % : 9 b T %.0.b.a.T e   O       T.T.T.T.T.T.T.T.T.T.T.T.T.T.",
"T.T.T.T.T.T.        O l =.m.K.K.4.h o @ e B { q.h.n.C.n.c.h.0._ A l ; % @ o @ % 3 a n S n %           T.T.T.T.T.T.T.T.T.T.T.T.T.",
"T.T.T.T.T.    @ # % D n.Z.Z.K.[ 8 @ < F d.U.L.L.F.U.U.U.U.U.U.U.U.n.i.$.T b p ; $   @ @ $ $ O   o       T.T.T.T.T.T.T.T.T.T.T.T.",
"T.T.T.T.  O o # 2 ] Z.C.F.C.G < % u %.Z.U.F.L.L.U.U.U.U.U.U.U.U.U.K.U.L.U.C.z.w._ L n f p p t j 9 @       T.T.T.T.T.T.T.T.T.T.T.",
"T.T.T.      O v :.m.L.Z.V.D $ o b w.F.v.n.0.>.>.4.h.A.U.U.U.U.U.U.L.U.L.U.U.U.F.w.L k < , t v K [ f         T.T.T.T.T.T.T.T.T.T.",
"T.T.      O N j.C.F.K.Z.L - O M d.z.~ v j 6 ; ; : t K i.U.L.U.U.L.U.U.U.U.U.r.M 9 O O @ & $ O O 1 Z u         T.T.T.T.T.T.T.T.T.",
"T.      @ m V.L.L.Z.h.C $ $ B z.4.b - % @ % % % % O % b n.U.U.U.U.U.F.U.F.r.g @ ; 8 n Q Q A z 5 @ ; z < o     T.T.T.T.T.T.T.T.T.",
"T.      g h.L.F.Z.| d $ # B i.D 8 * : k n R ....[ b % % Q U.U.U.U.L.U.U.V.v $ < G 4.z.5.1.h.b.8.n @ % p #   o   T.T.T.T.T.T.T.T.",
"    @ @ X.K.v.| b :   < D z.M @ @ 9 ~ *.P P r.L.U.n.n O t z.L.L.U.L.U.U._ $ $ ^ i.G k 2 3 g 1.A.h.b % e g %       T.T.T.T.T.T.T.",
"    O j v.L.F ; $ ; z >.z.I O $ C 0.~ 9 % $ b L.U.U.4.@ ; 4.J.L.K.U.U.U.k @ m C.A % O   @ # c A.F.w.3 % E <       T.T.T.T.T.T.T.",
"  @ @ I U.U.Q 1 k ( n.L.a.e @ A n.5.3   O @ w v.U.F.4.@ % 0.U.U.U.U.U.z.e @  .L.b o % % @ @ Z L.L.n.g o ..F   @     T.T.T.T.T.T.",
"@   ; 4.U.U.V.4.a.Z.Z.U.:.% < i.F.I O       A C.U.L.E < w j.L.U.U.U.U.N.q o K F.:.h @ % 5 C d.N.U.N.g o @.h.g   O   T.T.T.T.T.T.",
"  @ t f.L.U.U.U.U.L.L.U.X.@ a V.U.^ @ % < M n.F.L.w.f   c L.U.U.U.L.U.U.g o 1 M 4.a.2.,.q.n.C.i.-.P ; # :.F.{ @ @     T.T.T.T.T.",
"O   g F.U.U.U.L.U.U.F.U.>.@ 3 [ v.n.R _ ,.j.L.Z.-.k @   ^ F.U.L.U.U.U.U.P # % * e j x v b v g e 1 o * l z.Z.C.M     @   T.T.T.T.",
"    l U.U.U.U.U.L.U.U.U.z.a @ ; M :.h.j.j.i.:.m 3   * p i.U.F.U.U.U.U.U.c.B # o @ O o   # @ @ @ ; e v 5.U.U.L.i.j   @     T.T.T.",
"    l U.U.U.U.U.U.U.U.U.F.j @   @ 2 p a a t 3 O   # 3 ..C.K.U.K.L.U.U.U.F.n...l @ @   @   O j ! X.q.c.F.U.U.U.U._ %       T.T.T.",
"    z U.U.U.U.U.U.U.U.U.n.k ; 8 a o @ o O o O O   1 [ F.U.U.U.F.U.U.U.U.L.U.U.j.Q e @ O   @ ; :.U.U.U.U.U.U.U.U.z.p       T.T.T.",
"@   z U.U.U.U.U.U.U.U.U.U...x _ a._ L L M # O   z &.F.F.U.U.U.U.U.L.U.U.U.U.U.U.A.5.F j w : e 0.U.U.L.U.U.L.U.L.U.Z         T.T.",
"    k F.U.U.U.U.U.U.U.U.U.U.z.U.U.U.U.U.F.Q M ) a.U.U.U.U.U.U.U.L.U.U.U.U.U.U.U.U.U.F.a.w.5.q.U.U.U.U.U.U.U.U.U.U.$.;     T.T.T.",
"@   a z.U.U.U.U.U.U.U.U.U.U.U.U.U.U.U.U.U.U.F.U.U.C.U.U.U.U.U.U.U.L.U.U.L.U.U.U.U.U.U.L.U.U.U.U.U.U.U.U.U.U.U.U.F.z.p       T.T.",
"    < w.U.U.U.U.F.U.U.U.U.U.U.U.U.U.U.U.U.U.U.U.U.U.U.U.U.U.U.U.U.U.U.L.U.U.U.U.U.U.U.U.U.U.L.U.U.U.U.U.F.U.U.U.U.U.V %       T.",
"@   @ 2.U.U.U.U.U.U.K.U.U.U.U.U.U.U.U.U.U.U.U.U.U.U.U.U.U.U.U.U.U.U.U.U.L.U.U.U.U.U.U.U.U.U.U.U.U.U.U.U.U.U.U.U.U.U.:.@ @ @ T.T.",
"  @   *.U.U.U.w.F h.U.U.U.U.U.U.U.U.U.U.U.U.U.U.U.U.U.U.U.F.U.U.U.U.U.U.L.U.U.U.U.U.U.U.U.U.U.U.U.U.U.U.U.U.U.U.U.U.b.9     @ T.",
"  @   _ U.U.N.b @ T U.U.U.U.U.U.U.U.U.U.U.U.U.U.U.U.U.U.U.U.U.U.U.U.U.U.U.U.U.U.U.U.U.U.U.U.U.U.U.U.U.U.U.U.U.U.U.U.U.c @     T.",
"@   @ S U.U.:.* % X.K.U.U.U.U.U.U.U.U.U.U.U.U.U.U.U.U.U.U.U.U.U.U.U.U.U.F.U.U.U.U.U.F.U.U.U.U.U.U.U.U.U.U.U.U.U.U.U.U.K @     T.",
"      x U.F.Z   x *.5.C.U.U.U.U.U.U.U.U.U.U.U.U.U.U.U.U.U.U.U.U.U.U.U.U.U.n.h.r.5.4.:.w.r.z.U.U.U.U.U.U.U.U.U.U.U.U.U...        ",
"      3 i.C.z   m 3 e C *.w.i.z.C.C.F.h.i.e.4.4.0.0.e.a.h.k.z.d.q.4.2.| G x a t 9 < < e a l n K @.r.Z.U.U.U.U.U.U.U.U.r.3       ",
"      @ ) C.a @ E p @ @ 9 t g k v v v a a t 8 3 q e t a h h k a e 6 3 @ @ @ @ @ % % ;   o @ @ @ % h z C W ,.z.U.U.U.L.F.k   o   ",
"T.      z h.t @ :.q.S g 3 % @ @ @ O   @ % % @ @ @ o @ ; % % @ @ @ o $ q k M T ) @.+.%.{ ~ S n a 3 %   @ o 9 x *.U.U.U.F.b o     ",
"T.      ; X.g # :.U.F.i.@.[ ~ S N M M M K K K E / / _ / T I I I [ $.*.0.a.F.C.U.U.U.L.F.U.U.C.i.%.K B l e @ o 1  .F.U.U.S @     ",
"T.T.    @ x +.T M.U.U.U.U.U.U.U.U.U.U.U.U.U.U.U.U.U.U.U.U.U.U.U.U.U.U.U.U.U.U.U.U.U.U.U.U.U.U.U.U.U.F.n.w./ a # l F.U.U.~       ",
"T.T.    @ % *.C.U.U.U.U.U.U.U.U.U.U.U.U.U.U.U.U.U.U.U.U.U.U.U.U.U.U.U.U.U.U.U.U.U.U.U.U.U.U.U.U.U.U.U.C.U.U.%.* t n.U.U.%.o     ",
"T.T.T.      b z.U.U.U.U.U.U.U.U.U.U.U.U.U.U.U.U.U.U.U.U.U.U.U.U.U.U.U.U.U.U.U.U.U.U.U.U.U.U.U.U.U.U.U.U.F.Z.)   e a.U.L.X.      ",
"T.T.T.      ; X.U.U.U.U.U.U.U.U.U.U.U.U.U.U.U.U.U.U.U.U.U.U.U.U.U.U.U.U.U.U.U.U.U.U.U.U.U.U.U.U.U.U.U.h.X.S e % b C.U.U.{ @     ",
"T.T.T.T.      x n.U.U.U.U.U.U.U.U.U.U.U.U.U.U.U.U.U.U.U.U.U.U.U.U.U.U.U.U.U.U.U.U.U.U.U.U.U.U.U.U.U.r.z %   @ q 2.U.U.U.Q       ",
"T.T.T.T.  @   % %.U.U.U.U.U.U.U.U.U.U.U.U.U.U.U.U.U.U.U.U.U.U.U.U.U.U.U.U.U.U.U.U.U.U.U.U.U.U.U.U.C.v @ ; g Z 0.C.F.U.U.S o o   ",
"T.T.T.T.T.  @   v C.U.U.U.U.U.U.U.U.U.U.U.U.U.U.U.U.U.U.U.U.U.U.U.U.U.U.U.U.U.U.U.U.U.U.U.U.U.U.F.( # ; E h.K.U.U.U.U.K.n @     ",
"T.T.T.T.T.      % *.U.U.U.U.U.U.U.U.U.U.U.U.U.U.U.U.U.U.U.U.U.U.U.U.U.U.U.U.U.U.U.U.U.U.U.U.U.U.z.a   N n.F.U.U.U.U.U.C.l   o   ",
"T.T.T.T.T.T.  @   z z.U.U.U.U.U.U.U.U.U.U.U.U.U.U.U.U.U.U.U.U.U.U.U.U.U.U.U.U.U.U.U.U.U.U.U.U.U._ % < 5.U.U.U.U.U.U.F.h.8       ",
"T.T.T.T.T.T.    @ % { U.U.U.U.U.U.U.U.U.U.U.U.U.U.U.U.U.U.U.U.U.U.U.U.U.U.U.U.U.U.U.U.U.U.U.U.c.g @ m U.U.U.U.U.U.U.U.>.@       ",
"T.T.T.T.T.T.T.@ @   h C.U.U.U.U.U.U.U.U.U.U.U.U.U.U.U.U.U.U.U.U.U.U.U.U.U.U.U.U.U.U.U.U.U.U.F.Q @ < ,.U.U.U.U.U.U.U.U.T       T.",
"T.T.T.T.T.T.T.@     % X.U.U.U.U.U.U.U.U.U.U.U.U.U.U.U.U.U.U.e.i.U.U.U.U.U.U.U.U.U.U.U.U.U.U.h.a   A F.U.U.U.U.U.U.U.F.l       T.",
"T.T.T.T.T.T.T.T.      l a.K.U.U.U.U.U.U.U.U.U.U.U.U.U.U.U.a.a e T i.U.U.U.U.L.U.U.U.U.U.U.C.S   8 e.F.U.U.U.U.U.U.U.r.1 o o   T.",
"T.T.T.T.T.T.T.T.      @ b n.U.U.U.U.U.U.U.U.U.U.U.U.U.U.U.a.a % @ t A 2.C.U.U.U.U.U.U.U.C.[ , # I F.U.U.U.U.U.U.U.U.[ o     T.T.",
"T.T.T.T.T.T.T.T.T.    @ % I F.F.U.U.U.U.U.U.U.U.U.U.U.U.U.U.>.x < O o ; x { d.C.F.C.A.d.[ ; @ z j.U.L.U.U.U.U.U.F.L.b   @     T.",
"T.T.T.T.T.T.T.T.T.T.    @ : { F.U.U.U.U.U.U.U.U.U.U.U.U.U.U.U.n.@.M 9 @ % % u b B B n p & @ a 0.U.L.U.U.U.U.L.U.U.d.< @     T.T.",
"T.T.T.T.T.T.T.T.T.T.        9 5.L.L.U.U.U.U.U.U.U.U.U.U.U.U.U.U.U.U.i.E g ; @ o @ @ @   ; z 0.L.U.U.U.U.U.U.U.U.U.^ @     T.T.T.",
"T.T.T.T.T.T.T.T.T.T.T.    o   j w.U.U.U.U.U.U.U.U.U.U.U.U.U.U.U.U.U.L.U.N.+.F x k k z F ..h.F.U.U.L.U.U.U.U.U.U.z.d @     T.T.T.",
"T.T.T.T.T.T.T.T.T.T.T.T.        t @.C.F.U.U.U.U.U.U.U.U.U.U.U.U.U.U.U.U.L.U.U.F.F.F.F.U.U.U.U.U.U.U.U.U.U.U.U.F.K @   O   T.T.T.",
"T.T.T.T.T.T.T.T.T.T.T.T.T.      O < A 0.U.U.U.U.U.U.U.U.U.U.U.U.U.U.U.U.U.U.L.U.U.U.K.U.U.U.U.U.U.U.U.U.U.U.U./ %   O   T.T.T.T.",
"T.T.T.T.T.T.T.T.T.T.T.T.T.T.o       @ 8 / z.C.U.U.U.U.U.U.U.U.U.U.U.U.U.U.U.U.U.U.U.U.U.U.U.U.U.U.U.U.U.L.U.[ 6       T.T.T.T.T.",
"T.T.T.T.T.T.T.T.T.T.T.T.T.T.T.    @   @ @ j %.n.U.U.U.U.U.U.U.U.U.U.U.U.U.U.U.F.U.U.U.U.U.U.U.U.U.U.U.U.U.%.3 %       T.T.T.T.T.",
"T.T.T.T.T.T.T.T.T.T.T.T.T.T.T.T.            ; x I *.h.C.C.U.U.U.U.U.U.U.U.U.U.U.U.U.U.U.U.U.U.U.U.U.L.K.4.9         T.T.T.T.T.T.",
"T.T.T.T.T.T.T.T.T.T.T.T.T.T.T.T.T.T.  %   @ @     % < k K >.C.U.U.U.U.U.U.U.U.U.U.U.U.U.U.U.U.U.F.F.i.E 8 @       T.T.T.T.T.T.T.",
"T.T.T.T.T.T.T.T.T.T.T.T.T.T.T.T.T.T.T.T.            @     % a n I @.:.i.n.C.F.Z.L.L.L.L.U.n.w._ K l <   O   O   T.T.T.T.T.T.T.T.",
"T.T.T.T.T.T.T.T.T.T.T.T.T.T.T.T.T.T.T.T.T.T.            @     @ @ % @ % 9 k v S T K D D C z ; % o     @       T.T.T.T.T.T.T.T.T.",
"T.T.T.T.T.T.T.T.T.T.T.T.T.T.T.T.T.T.T.T.T.T.T.T.                  @   @ @       O         O   @ @           T.T.T.T.T.T.T.T.T.T.",
"T.T.T.T.T.T.T.T.T.T.T.T.T.T.T.T.T.T.T.T.T.T.T.T.T.T.T.T.                      @   @       o o           T.T.T.T.T.T.T.T.T.T.T.T."
};
