/* XPM */
static char *frame_04_delay_0_05s1763316728[] = {
/* columns rows colors chars-per-pixel */
"64 64 166 2 ",
"   c black",
".  c #010101",
"X  c #020202",
"o  c gray1",
"O  c #040404",
"+  c gray2",
"@  c #060606",
"#  c #070707",
"$  c gray3",
"%  c #090909",
"&  c gray4",
"*  c #0B0B0B",
"=  c #0C0C0C",
"-  c gray5",
";  c #0E0E0E",
":  c gray6",
">  c #111111",
",  c gray7",
"<  c #131313",
"1  c gray8",
"2  c #151515",
"3  c #161616",
"4  c gray9",
"5  c #181818",
"6  c #191919",
"7  c gray10",
"8  c gray11",
"9  c #1D1D1D",
"0  c #1E1E1E",
"q  c gray12",
"w  c #202020",
"e  c #222222",
"r  c #232323",
"t  c gray14",
"y  c gray15",
"u  c #272727",
"i  c #282828",
"p  c #2A2A2A",
"a  c #2C2C2C",
"s  c #2D2D2D",
"d  c #2F2F2F",
"f  c gray19",
"g  c #313131",
"h  c #323232",
"j  c gray22",
"k  c #3A3A3A",
"l  c #3D3C41",
"z  c gray28",
"x  c #494949",
"c  c #4A494E",
"v  c #4F4F50",
"b  c gray33",
"n  c gray35",
"m  c #5C5C5E",
"M  c #606060",
"N  c #626166",
"B  c gray40",
"V  c #68676B",
"C  c gray42",
"Z  c gray43",
"A  c #707072",
"S  c gray45",
"D  c #787779",
"F  c gray48",
"G  c #7C7C7C",
"H  c gray49",
"J  c #7E7E7E",
"K  c gray50",
"L  c #808083",
"P  c #838384",
"I  c #868686",
"U  c gray53",
"Y  c #888888",
"T  c #898989",
"R  c gray54",
"E  c #8B8B8B",
"W  c gray55",
"Q  c #8D8D8D",
"!  c #8E8E8E",
"~  c gray57",
"^  c #939393",
"/  c gray58",
"(  c #959595",
")  c #979699",
"_  c #9A9A9A",
"`  c gray62",
"'  c #A0A0A0",
"]  c gray63",
"[  c #A2A2A2",
"{  c #A4A4A6",
"}  c #A7A6A7",
"|  c #A9A9A9",
" . c gray67",
".. c #ACACAC",
"X. c #AEAEAE",
"o. c gray69",
"O. c #B2B2B2",
"+. c gray70",
"@. c #B4B4B4",
"#. c gray71",
"$. c #B6B6B7",
"%. c #B8B7BA",
"&. c gray73",
"*. c gray74",
"=. c gray75",
"-. c #C0C0C0",
";. c #C1C1C1",
":. c #C3C3C3",
">. c #C5C5C5",
",. c #C6C6C6",
"<. c gray78",
"1. c #C8C8C8",
"2. c gray79",
"3. c #CACACA",
"4. c gray80",
"5. c #CDCDCE",
"6. c gray81",
"7. c #D1D0D1",
"8. c LightGray",
"9. c gray83",
"0. c #D5D5D5",
"q. c #D8D8D8",
"w. c #DADADB",
"e. c #DCDBDC",
"r. c #DDDDDD",
"t. c #DFDFDF",
"y. c #E1E0E1",
"u. c #E1E1E1",
"i. c #E2E2E2",
"p. c gray89",
"a. c #E4E4E4",
"s. c #E6E5E6",
"d. c #E7E7E7",
"f. c gray91",
"g. c #E9E9E9",
"h. c #EAEAEA",
"j. c gray92",
"k. c #ECECEC",
"l. c gray93",
"z. c #EEEEEE",
"x. c #EFEFEF",
"c. c gray94",
"v. c #F1F1F1",
"b. c gray95",
"n. c #F3F3F3",
"m. c #F4F3F4",
"M. c #F4F4F4",
"N. c #F5F4F5",
"B. c gray96",
"V. c #F6F6F6",
"C. c #F7F6F7",
"Z. c gray97",
"A. c #F8F8F8",
"S. c #F9F8F9",
"D. c #F9F9F9",
"F. c #FAF9FA",
"G. c gray98",
"H. c #FBFAFB",
"J. c #FBFBFB",
"K. c #FCFBFC",
"L. c gray99",
"P. c #FDFCFD",
"I. c #FDFDFD",
"U. c #FEFEFE",
"Y. c white",
"T. c None",
/* pixels */
"T.T.T.T.T.T.T.T.T.T.T.T.T.T.T.T.T.T.T.T.  T.T.T.  T.  T.  T.  T.  T.T.T.  T.T.T.T.T.T.T.T.T.T.T.T.T.T.T.T.T.T.T.T.T.T.T.T.T.T.T.",
"T.T.T.T.T.T.T.T.T.T.T.T.T.T.T.T.T.T.T.                                      T.T.T.T.T.T.T.T.T.T.T.T.T.T.T.T.T.T.T.T.T.T.T.T.T.T.",
"T.T.T.T.T.T.T.T.T.T.T.T.T.T.T.T.                              O o o                 T.T.T.T.T.T.T.T.T.T.T.T.T.T.T.T.T.T.T.T.T.T.",
"T.T.T.T.T.T.T.T.T.T.T.T.T.T.                                o 8 8 ; O O                   T.T.T.T.T.T.T.T.T.T.T.T.T.T.T.T.T.T.T.",
"T.T.T.T.T.T.T.T.T.T.T.O     O   O o < ;     O   # O # o o O % 4 b _ &.| R S n u * O   O     T.T.T.T.T.T.T.T.T.T.T.T.T.T.T.T.T.T.",
"T.T.T.T.T.T.T.T.T.T.  O     & v Q { j O o   6 n H Q ! I D x %   O O , e n H ' 8.6.P w O O       T.T.T.T.T.T.T.T.T.T.T.T.T.T.T.T.",
"T.T.T.T.T.T.T.T.T.  O % & n 1.V.f.j # O z ` t.Z.J.F.Y.Y.Y.A.<.D g % % O O % : 4 8 l B l O         T.T.T.T.T.T.T.T.T.T.T.T.T.T.T.",
"T.T.T.T.T.T.T.      O c -.n.F.a.l % : Q x.J.F.F.Y.F.Y.Y.Y.F.V.v.x.;.` Z l r ; O % O O -     O       T.T.T.T.T.T.T.T.T.T.T.T.T.T.",
"T.T.T.T.T.T.    # % H v.J.H.k.v % : ( Y.V.Y.Y.Y.F.F.Y.Y.Y.J.Y.Y.Y.Y.F.J.V.h.&.W v ;                   T.T.T.T.T.T.T.T.T.T.T.T.T.",
"T.T.T.T.  O o   2 ..F.M.F.h.v $ % I n.x.*.K B B P } p.Y.Y.Y.F.Y.J.Y.Y.Y.J.n.#.v ,                   O   T.T.T.T.T.T.T.T.T.T.T.T.",
"T.T.T.T.  o o v 7.H.H.Z.v.m % # G q.H a ; O % O # % e C h.F.Y.Y.Y.Y.Y.n.9.v :             O O             T.T.T.T.T.T.T.T.T.T.T.",
"T.T.T.    o N j.n.H.V.M.S - % D | a o O O   t f , o O O m F.Y.Y.Y.J.Y.<.f   o   O o   O           O O       T.T.T.T.T.T.T.T.T.T.",
"T.T.    # m c.J.Y.J.x.V : ; j b * O O     o B p.e.&.B * % &.Y.Y.Y.Y.6.t   8 v     O   O   O O x x   %       T.T.T.T.T.T.T.T.T.T.",
"T.T.    g j.J.Y.Y.p.b O O O , ;   O o o o o b A.F.A.x.j O B Y.Y.F.h.l   8 #.+.o O   O   O     S x.Z %         T.T.T.T.T.T.T.T.T.",
"T.  O % @.Z.F.Y.2.l $   O $ O       o   # * ! A.J.Y.n.v O b Y.J.Y.| O - o.F.f.j % $ O O O O i 4.Y.x.Z   % O     T.T.T.T.T.T.T.T.",
"T.  O j M.F.v.( 8   O o   : z $     o o O m n.J.J.Y.$.2 # S F.L.Y.S O 8 h.J.F.t.I l w w v ~ p.V.F.F.<.% 6 2     T.T.T.T.T.T.T.T.",
"  O O Q J.Y.P #   t ' q O b v.R g 2 ; j R h.Y.F.J.} 6 # t w.L.Y.Y.o.O % -.F.Y.Y.F.x.t.t.v.J.Y.Y.Y.J.~ O t F O     T.T.T.T.T.T.T.",
"O O ; 0.Y.J.H 2 b 6.Y.m   l v.Y.h.e.w.x.V.F.V.w.S < O 8 ;.L.Y.L.Y.h.a O l e.F.J.Z.F.Y.Y.Y.Y.Y.Y.F.-.r # C h.i O   O T.T.T.T.T.T.",
"  o t h.J.J.x.8.j.Y.J./ % % M <.h.x.a.8.6.o.Z u O   u -.F.F.Y.L.Y.F.) $ O t B | 8.k.V.k.h.h.9.| b 2 O 8 2.V.o.; O   T.T.T.T.T.T.",
"  o h J.Y.Y.Y.Y.J.Y.Y.j.x O % 2 t a i 6 2 ,   % , m 8.A.L.Y.L.Y.Y.Y.V.I , O O - 8 d g i i i w % O O e ' F.J.V.m O   O T.T.T.T.T.",
"O   k Y.Y.Y.Y.Y.Y.Y.Y.Y.p.B 2 O o * % O   O e b o.v.F.L.F.Y.Y.J.J.J.Y.v.&.B g - O O o o % % ; ; i L 0.F.J.J.F.p.g O   T.T.T.T.T.",
"    l Y.Y.Y.J.Y.Y.Y.F.Y.J.M.2.P B Z S U _ o.w.v.F.F.L.F.K.F.F.Y.Y.Y.Y.Y.V.n.t.%.Q S C H F F R ;.p.A.Y.J.H.Y.Y.J.' % O   T.T.T.T.",
"    z Y.J.Y.Y.Y.Y.F.J.Y.Y.Y.Y.F.Y.Y.J.J.J.Y.F.Y.Y.J.J.J.K.Y.Y.J.J.Y.Y.Y.Y.Y.Y.F.Y.J.Y.J.Y.J.J.Y.Y.J.Y.J.J.J.Y.Y.x.w O   T.T.T.T.",
"O   z Y.Y.J.Y.J.Y.Y.Y.J.Y.J.F.Y.J.J.Y.F.Y.Y.J.Y.F.Y.L.Y.F.F.J.Y.Y.J.Y.J.J.Y.J.Y.J.Y.J.Y.J.Y.J.Y.J.Y.Y.F.Y.Y.Y.Y.Y.Z O     T.T.T.",
"O   j F.Y.Y.Y.Y.Y.Y.Y.Y.h.X.p.Y.Y.Y.Y.Y.J.Y.Y.J.Y.Y.J.Y.J.Y.Y.J.J.Y.Y.J.Y.J.Y.Y.J.Y.Y.J.J.Y.Y.J.Y.Y.Y.Y.Y.H.Y.Y.Y.&.O O   T.T.T.",
"  O i h.J.Y.Y.Y.J.Y.J.Y.R % F Y.Y.Y.Y.Y.Y.Y.Y.Y.J.Y.J.J.Y.F.J.Y.Y.J.Y.J.J.Y.Y.J.Y.Y.Y.Y.Y.J.J.Y.J.Y.J.Y.Y.Y.Y.Y.Y.j.i     T.T.T.",
"  O 2 w.Y.Y.Y.Y.Y.J.Y.Y.Z O j x.Y.Y.J.Y.Y.Y.Y.Y.Y.J.Y.J.Y.Y.Y.Y.Y.Y.J.Y.Y.J.Y.J.Y.J.Y.Y.Y.Y.Y.Y.F.J.J.F.F.J.Y.H.F.M.S O   O T.T.",
"  O O 2.Y.Y.Y.J.Y.Y.Y.Y...% # F c.Y.Y.Y.Y.Y.J.Y.Y.Y.Y.Y.J.Y.F.Y.J.Y.Y.Y.Y.Y.Y.Y.Y.J.J.Y.J.Y.F.x.t.6.+.{ Z v M Q a.Y.<.$ O   T.T.",
"O O   &.Y.Y.Y.Y.Y.Y.J.Y.V.M   % M t.H.F.Y.J.Y.V.V.F.F.F.Y.F.Y.K.J.F.Y.F.F.H.Y.Y.J.F.M.p.4.{ M j a 6 $ $ O % O % x a.k.e O   T.T.",
"O   O } Y.Y.Y.Y.Y.Y.Y.Y.Y.t.v O   a m ! o.=.:.2.w.w.q.w.6.8.0.w.w.q.6.0.2.../ I V n l f w $ O O o o $ $ 2 g g O O Y V.z O   T.T.",
"O   O A Y.Y.Y.Y.Y.Y.J.Y.Y.J.p.B ;   O % : : 2 4 i a e t 8 e t t r r 8 8 2 O o   % O   % * $ w z V P ' *.8.p.' ; O B F.H       T.",
"T.O O z F.Y.Y.Y.Y.Y.Y.Y.Y.Y.Y.v.' b a ; O o   o O   O O       O o     O O % 4 e a l b B L o.q.c.V.F.J.F.v.~ 8 % , | V.| O O   T.",
"T.  O 2 p.J.Y.Y.Y.Y.Y.Y.J.Y.Y.J.J.J.p.,.+.[ ( U S S D F R ! P F H I ( ( } &.6.q.t.x.V.Y.Y.Y.Y.Y.F.F.Y.V.F : $ < R n.Y.q.4 O   T.",
"T.  O O ` Y.Y.Y.Y.Y.J.Y.Y.Y.Y.Y.Y.J.Y.J.F.F.F.F.Y.F.Y.J.v.F.Y.M.V.F.F.Y.F.F.Y.Y.J.Y.Y.Y.J.Y.Y.J.Y.Y.Y.! O O i | v.H.J.Z.j   O T.",
"T.T.    z F.Y.Y.Y.Y.Y.Y.Y.Y.Y.Y.Y.J.Y.Y.J.Y.Y.Y.Y.Y.Y.Y.Y.Y.J.Y.Y.Y.Y.J.Y.J.J.Y.Y.Y.Y.Y.Y.Y.Y.Y.J.Y.Z.g O i 6.F.Y.Y.Y.J.v     T.",
"T.T.    - &.Y.Y.Y.J.J.Y.Y.Y.Y.J.Y.Y.J.Y.J.Y.Y.Y.Y.Y.Y.Y.Y.Y.Y.Y.Y.Y.Y.Y.Y.Y.Y.Y.Y.Y.Y.Y.Y.Y.Y.Y.Y.Y.w.2 $ / F.F.Y.Y.Y.Y.S O     ",
"T.T.    O v v.Y.Y.Y.Y.Y.Y.Y.Y.Y.Y.Y.J.Y.Y.Y.Y.Y.J.Y.Y.Y.Y.Y.Y.Y.Y.Y.Y.Y.Y.Y.Y.Y.Y.Y.Y.Y.Y.J.Y.Y.Y.Y.&.  % 6.Y.Y.Y.Y.Y.Y._     T.",
"T.T.T.  O ; =.F.Y.Y.Y.Y.J.Y.Y.Y.Y.Y.Y.Y.J.Y.Y.J.Y.Y.J.Y.Y.Y.J.Y.Y.J.Y.Y.Y.Y.Y.J.J.Y.Y.J.Y.Y.Y.J.Y.Y.|   O a.Y.Y.Y.Y.Y.Y.+.$     ",
"T.T.T.  O   v v.Y.Y.Y.J.Y.Y.J.Y.Y.J.J.Y.Y.Y.Y.Y.Y.J.Y.Y.Y.J.Y.J.J.Y.Y.Y.Y.Y.Y.Y.Y.Y.Y.Y.Y.Y.Y.Y.Y.Y._ % : x.Y.Y.Y.Y.Y.Y.X.    T.",
"T.T.T.T.    , #.Y.Y.Y.Y.Y.Y.Y.Y.Y.Y.Y.Y.Y.Y.Y.Y.Y.Y.Y.Y.Y.Y.Y.Y.Y.Y.Y.Y.Y.Y.Y.Y.Y.Y.Y.J.Y.Y.Y.J.Y.J.W O 8 V.Y.Y.Y.J.Y.Y...  O   ",
"T.T.T.T.  O O z V.Y.Y.Y.Y.Y.Y.Y.Y.Y.Y.Y.Y.Y.Y.Y.J.Y.Y.Y.Y.Y.Y.Y.Y.Y.Y.Y.Y.Y.Y.Y.Y.J.Y.Y.Y.Y.Y.Y.Y.Y.M O l v.Y.Y.Y.Y.Y.Y.~     T.",
"T.T.T.T.T.    ; &.J.Y.Y.Y.Y.Y.Y.Y.Y.Y.Y.Y.J.Y.Y.Y.Y.Y.Y.Y.Y.Y.Y.Y.Y.Y.J.Y.J.Y.Y.Y.Y.Y.Y.Y.Y.Y.Y.J.v.h   B Y.Y.Y.J.Y.Y.Y.S O     ",
"T.T.T.T.T.O     c V.Y.Y.Y.J.Y.Y.Y.J.Y.Y.Y.Y.Y.J.Y.Y.J.Y.Y.Y.Y.Y.Y.Y.Y.Y.Y.Y.Y.Y.Y.Y.Y.Y.J.Y.Y.J.F.w.,   } Y.Y.Y.Y.Y.Y.Z.m O   T.",
"T.T.T.T.T.T.    % =.Y.Y.Y.Y.Y.Y.Y.Y.Y.Y.Y.Y.Y.Y.Y.Y.Y.Y.J.Y.Y.J.Y.Y.Y.Y.Y.Y.Y.Y.Y.Y.Y.Y.Y.Y.Y.Y.Y.#.o O 8.Y.Y.Y.Y.Y.Y.F.l   O T.",
"T.T.T.T.T.T.  O o l j.J.Y.Y.Y.Y.Y.Y.Y.Y.Y.Y.Y.Y.Y.Y.Y.Y.Y.Y.Y.Y.Y.J.Y.Y.Y.Y.Y.Y.Y.Y.Y.Y.Y.Y.Y.Y.F.S O w x.Y.Y.Y.Y.Y.Y.a.e O   T.",
"T.T.T.T.T.T.T.    # } Y.J.Y.Y.Y.Y.Y.Y.J.Y.Y.Y.Y.Y.Y.J.Y.Y.Y.Y.Y.Y.Y.Y.Y.Y.Y.Y.Y.Y.J.Y.Y.J.Y.Y.Y.f.i O M F.Y.Y.Y.Y.Y.Y.6.O O   T.",
"T.T.T.T.T.T.T.% O O j V.Y.Y.Y.Y.Y.Y.Y.Y.Y.J.Y.Y.Y.Y.Y.Y.Y.Y.x.2.p.F.Y.Y.Y.Y.Y.Y.Y.Y.Y.Y.Y.Y.Y.Y.'     o.H.Y.Y.Y.Y.J.F.W       T.",
"T.T.T.T.T.T.T.T.o   * X.Y.Y.Y.J.Y.Y.Y.Y.Y.Y.Y.Y.Y.Y.Y.Y.J.Y.~ % j t.J.Y.Y.Y.Y.Y.Y.Y.Y.J.Y.Y.J.V.k $ f c.F.Y.F.Y.Y.Y.V.l O   T.T.",
"T.T.T.T.T.T.T.T.  O   l p.Y.Y.Y.Y.J.Y.Y.J.Y.Y.Y.J.Y.Y.Y.Y.Y.L % O v e.Y.Y.Y.Y.Y.Y.Y.Y.Y.Y.Y.V.Q % O ) Y.Y.F.Y.J.Y.Y.a.: O   T.T.",
"T.T.T.T.T.T.T.T.T.    O b v.Y.Y.Y.Y.Y.Y.Y.Y.Y.Y.Y.Y.Y.Y.Y.Y.a.x O O t ' m.Y.Y.Y.Y.Y.Y.Y.Y.F.R ;   x v.J.J.J.J.Y.J.Y.' %     T.T.",
"T.T.T.T.T.T.T.T.T.    O % R V.F.Y.Y.Y.Y.Y.Y.Y.J.Y.Y.Y.Y.Y.Y.Y.w.l & O : z _ -.t.x.V.V.V.a.S % O 8 -.Y.Y.J.Y.J.Y.J.Y.c   O T.T.T.",
"T.T.T.T.T.T.T.T.T.T.    O , { Y.Y.F.Y.J.Y.Y.Y.Y.Y.Y.J.Y.Y.Y.Y.F.s.H 6     $ ; < k b b V j % ; 8 2.Y.H.Y.J.J.Y.J.Y.a.< O   T.T.T.",
"T.T.T.T.T.T.T.T.T.T.T.    O e 8.J.Y.Y.Y.Y.Y.Y.Y.Y.Y.Y.Y.Y.J.Y.Y.Y.F.4.z 6 O $   %   O O O ; l <.Y.Y.Y.J.Y.Y.J.Y.Y.( O   O T.T.T.",
"T.T.T.T.T.T.T.T.T.T.T.T.  O   g 0.J.Y.Y.Y.Y.Y.Y.Y.Y.Y.Y.Y.Y.Y.Y.Y.Y.F.M.<.' L b t 2 5 2 e F a.v.Y.J.J.J.Y.J.Y.Y.h.g     T.T.T.T.",
"T.T.T.T.T.T.T.T.T.T.T.T.T.    O i #.F.Z.Y.Y.Y.Y.Y.Y.Y.J.Y.J.Y.J.Y.Y.Y.Y.Y.F.F.F.j.a.s.9.a.Y.Y.Y.Y.Y.Y.Y.Y.Y.F.F.D     O T.T.T.T.",
"T.T.T.T.T.T.T.T.T.T.T.T.T.T.    O 2 S 8.Z.Y.Y.Y.J.Y.Y.Y.Y.Y.Y.Y.Y.Y.Y.Y.K.Y.J.H.Z.Y.Y.H.F.Y.Y.Y.Y.J.Y.Y.Y.Y.F.) ; O   T.T.T.T.T.",
"T.T.T.T.T.T.T.T.T.T.T.T.T.T.T.      % 6 ' x.F.Y.Y.Y.Y.Y.Y.H.Y.Y.Y.Y.Y.Y.Y.Y.Y.F.F.Y.Y.J.Y.Y.Y.Y.Y.J.Y.Y.Y.F.' 2       T.T.T.T.T.",
"T.T.T.T.T.T.T.T.T.T.T.T.T.T.T.T.      O % j &.V.Y.Y.Y.Y.Y.Y.Y.Y.J.Y.Y.Y.Y.J.Y.J.Y.Y.Y.Y.Y.Y.Y.Y.Y.Y.Y.Y.Y.#.2 O     T.T.T.T.T.T.",
"T.T.T.T.T.T.T.T.T.T.T.T.T.T.T.T.T.T.  O O O % x R &.h.n.H.J.Y.Y.Y.Y.Y.J.Y.Y.Y.Y.Y.J.Y.Y.Y.Y.Y.Y.Y.Y.F.Y.2.e       T.T.T.T.T.T.T.",
"T.T.T.T.T.T.T.T.T.T.T.T.T.T.T.T.T.T.T.T.  O     $ O 2 j F 2.n.Y.Y.Y.Y.Y.J.Y.Y.Y.Y.Y.Y.Y.Y.Y.Y.Y.F.V.p.Q 6       T.T.T.T.T.T.T.T.",
"T.T.T.T.T.T.T.T.T.T.T.T.T.T.T.T.T.T.T.T.T.O           O O # g m I @.4.p.v.V.V.J.Y.F.F.Y.J.V.0.' H z 2 O   O   T.T.T.T.T.T.T.T.T.",
"T.T.T.T.T.T.T.T.T.T.T.T.T.T.T.T.T.T.T.T.T.T.T.T.          O   O O # # , 8 j b S I F D D V l ; % %   o   O   T.T.T.T.T.T.T.T.T.T.",
"T.T.T.T.T.T.T.T.T.T.T.T.T.T.T.T.T.T.T.T.T.T.T.T.T.T.T.T.      O     O     O     O O # O       O O       T.T.T.T.T.T.T.T.T.T.T.T.",
"T.T.T.T.T.T.T.T.T.T.T.T.T.T.T.T.T.T.T.T.T.T.T.T.T.T.T.T.T.T.T.T.      O       O   O O O   O O       T.T.T.T.T.T.T.T.T.T.T.T.T.T."
};
