/* XPM */
static char *frame_52_delay_0_05s1763316733[] = {
/* columns rows colors chars-per-pixel */
"64 64 191 2 ",
"   c black",
".  c #010101",
"X  c #020202",
"o  c gray1",
"O  c #040404",
"+  c gray2",
"@  c #040406",
"#  c #060606",
"$  c #070707",
"%  c gray3",
"&  c #090909",
"*  c gray4",
"=  c #0B0B0B",
"-  c #0C0C0C",
";  c gray5",
":  c #0E0E0E",
">  c gray6",
",  c #101010",
"<  c #111111",
"1  c gray7",
"2  c #131313",
"3  c #151515",
"4  c #161616",
"5  c gray9",
"6  c #181818",
"7  c #191919",
"8  c gray10",
"9  c gray11",
"0  c #1D1D1D",
"q  c #1E1E1E",
"w  c gray12",
"e  c #202020",
"r  c #222222",
"t  c #232323",
"y  c gray14",
"u  c gray15",
"i  c #282828",
"p  c #2A2A2A",
"a  c #2C2C2C",
"s  c #2D2D2D",
"d  c #2F2F2F",
"f  c gray19",
"g  c #313131",
"h  c #323232",
"j  c #323136",
"k  c gray22",
"l  c #3A3A3A",
"z  c #3D3C41",
"x  c gray28",
"c  c #494949",
"v  c #4A494E",
"b  c #4F4F50",
"n  c gray33",
"m  c #54535B",
"M  c gray35",
"N  c #5C5C5E",
"B  c #5E5D64",
"V  c #606060",
"C  c #626166",
"Z  c gray40",
"A  c #68676B",
"S  c gray42",
"D  c gray43",
"F  c #707072",
"G  c gray45",
"H  c #747378",
"J  c #787779",
"K  c gray48",
"L  c #7B7B7B",
"P  c #7A7A7C",
"I  c #7B7B7D",
"U  c #7C7C7C",
"Y  c gray49",
"T  c #7D7C7F",
"R  c #7E7E7E",
"E  c gray50",
"W  c #7E7D80",
"Q  c #808083",
"!  c #838384",
"~  c gray53",
"^  c #848388",
"/  c #888888",
"(  c #898989",
")  c #8B8B8B",
"_  c gray55",
"`  c #8E8E8E",
"'  c #8C8B90",
"]  c gray57",
"[  c #939393",
"{  c #959595",
"}  c #929198",
"|  c #979699",
" . c #9A9A9A",
".. c #9A999E",
"X. c gray61",
"o. c #9D9CA1",
"O. c #A1A0A3",
"+. c #A2A2A2",
"@. c #A4A4A6",
"#. c #A7A6A7",
"$. c #A7A7AA",
"%. c #AAAAAA",
"&. c #ADADB0",
"*. c #B0AFB3",
"=. c #B1B0B7",
"-. c #B4B4B4",
";. c #B5B4B8",
":. c #B8B7BA",
">. c gray73",
",. c #BBBBBD",
"<. c #BAB9BF",
"1. c #BCBCBC",
"2. c gray75",
"3. c #BDBCC0",
"4. c #C0BFC2",
"5. c #C1C1C3",
"6. c #C3C3C3",
"7. c #C3C2C5",
"8. c #C5C5C6",
"9. c #C6C6C6",
"0. c #C4C3C9",
"q. c #C8C7CA",
"w. c #CACACA",
"e. c #CAC9CC",
"r. c #CCCBCE",
"t. c #CDCDCE",
"y. c gray81",
"u. c #CFCFD2",
"i. c #D1D0D1",
"p. c #D1D0D3",
"a. c LightGray",
"s. c #D3D3D5",
"d. c gray83",
"f. c #D6D5D7",
"g. c #D8D8D8",
"h. c #DADADB",
"j. c #DCDBDC",
"k. c #DDDDDD",
"l. c #DFDFDF",
"z. c #DEDEE0",
"x. c #E1E0E1",
"c. c #E1E1E1",
"v. c #E1E1E3",
"b. c #E2E2E2",
"n. c #E3E3E5",
"m. c #E4E4E6",
"M. c #E6E5E6",
"N. c #E7E7E7",
"B. c #E6E5E9",
"V. c gray91",
"C. c #EAEAEA",
"Z. c #EAE9EC",
"A. c #EBEAEF",
"S. c #ECEBEE",
"D. c #EDECED",
"F. c gray93",
"G. c #EEEEEE",
"H. c #F0EFF2",
"J. c #F1F1F3",
"K. c gray95",
"L. c #F3F3F3",
"P. c #F2F1F5",
"I. c #F3F3F4",
"U. c #F4F3F6",
"Y. c #F4F4F4",
"T. c gray96",
"R. c #F5F4F7",
"E. c #F6F6F6",
"W. c #F7F6F7",
"Q. c gray97",
"!. c #F6F5F8",
"~. c #F7F6F9",
"^. c #F6F5FB",
"/. c #F8F7FA",
"(. c #F8F8F8",
"). c #F9F9F9",
"_. c #FAF9FA",
"`. c gray98",
"'. c #FBFAFB",
"]. c #FBFBFB",
"[. c #F9F8FC",
"{. c #FAFAFE",
"}. c #FCFBFC",
"|. c #FCFBFF",
" X c gray99",
".X c #FDFCFD",
"XX c #FDFDFD",
"oX c #FEFDFF",
"OX c #FEFEFE",
"+X c white",
"@X c None",
/* pixels */
"@X@X@X@X@X@X@X@X@X@X@X@X@X@X@X@X@X@X@X                                        @X@X@X@X@X@X@X@X@X@X@X@X@X@X@X@X@X@X@X@X@X@X@X@X@X",
"@X@X@X@X@X@X@X@X@X@X@X@X@X@X@X@X                                                      @X@X@X@X@X@X@X@X@X@X@X@X@X@X@X@X@X@X@X@X@X",
"@X@X@X@X@X@X@X@X@X@X@X@X@X                      o O O O O O   O                           @X@X@X@X@X@X@X@X@X@X@X@X@X@X@X@X@X@X@X",
"@X@X@X@X@X@X@X@X@X@X@X                          % 7 y h x x c f 7 : O %                     @X@X@X@X@X@X@X@X@X@X@X@X@X@X@X@X@X@X",
"@X@X@X@X@X@X@X@X@X          O     % % f b b M D g.K.T./.W.W.].T.H.v.p.%.^ D n i % O     o         @X@X@X@X@X@X@X@X@X@X@X@X@X@X@X",
"@X@X@X@X@X@X@X@X      %     O i z M F R U P ( g.]. X X X]. X X X X].}. X}. XK.P.i.J e O O         @X@X@X@X@X@X@X@X@X@X@X@X@X@X@X",
"@X@X@X@X@X@X@X          % f V K K K K R Q R ;.M.K.K.H.T.T.T.W.].}.]./.].].].].].Y.].M._ e O o       @X@X@X@X@X@X@X@X@X@X@X@X@X@X",
"@X@X@X@X@X          O y V J P R U R K A n l e q q 9 f b V V V C Z Z A F K K F D D J E ( ` s             @X@X@X@X@X@X@X@X@X@X@X@X",
"@X@X@X@X    o   O O z G K ! G n l 7 > % o   $     O   O O O O O O O   O O   O % O O O O % $ O             @X@X@X@X@X@X@X@X@X@X@X",
"@X@X@X    O     : n U R S z , O O O       O 3 7 z n l q 3 3 3 7 5 5 , % % % : , - % % % o o o       o     @X@X@X@X@X@X@X@X@X@X@X",
"@X@X@X        i Z U K c 3 % O $ - 7 j l n A G K ! v.G.M.M.M.V.V.M.v.k.f.f.a.k.x.j.g.9.2.] Z z y - O % O   o @X@X@X@X@X@X@X@X@X@X",
"@X@X    O   k K R J z % o O i n A J J J W R R R K { z.]. X X X X X X].]. X X X].].T.M.>.o.$.%.>.-.E y O       @X@X@X@X@X@X@X@X@X",
"@X      O i G U R b $ o e M D R ^ R J G C V V V N Z J 2.]. X X X X X X X X X].].p.[ x y 7 - q y b X.%.2 o     @X@X@X@X@X@X@X@X@X",
"        7 G G R R z O q D W P U H D C B M b z z l z M A X.G. X X X X X X X XY. .c 3 % O     o O   > z x O O     @X@X@X@X@X@X@X@X",
"    O o C R R R R G n G P W W H Z M z e : O o O O   : s n E G. X X X X X XK.P e % O O q z M v i - % O f l O       @X@X@X@X@X@X@X",
"    O e K K U R R R ! J P U H S m 7 : O $ O : > , :     % l ` T. X X X X X$.i O % y ] k.V.].K.k.+.s O O h a O       @X@X@X@X@X@X",
"      c K K R R R R W W J W C v 3 % % j P >.w.k.k.:.C , O = l p. X X X XD.M >   b g.]. X X X X X].f.c O   z %       @X@X@X@X@X@X",
"O O % S R K K R R R R W W J B 4 O , } v. X].T.].].].T.:.p O % !  X X X Xw.f O 5 v. X X X X X X X X].g.w o f y O   O   @X@X@X@X@X",
"O O 3 K K R R R U R E W W Z z O , &.^.}. X XW.z.4.i.K.K.e.7 O l H. X X Xw.y O l T. X X XG.| z l Q T.2.%   l v = O o   o @X@X@X@X",
"% o q W R R R K R R E W W Z z O 3 5. X}. X XX.e : q  .].}.l O t 9. X X Xt.w O 6 2.]. X X;.% $ % q q.k $ 5 b Z b O       @X@X@X@X",
"    q R R R K R W R R R J B m 7 O m  X}.}.A.5 O     v ].p.e O i 5. X X Xv.q   o y w.].{.2.$ O $ j Z % : z M Z <.f O     @X@X@X@X",
"    e K R R R W R R U R H B m k - > =.{.}.A.5       G %.y % $ 7 t. X X X].V   o O f %.].K.( M K J =   y V C B 3.%.% o     @X@X@X",
"  O e R R R R R W W R W H b < i 9 O y &.P.}.&.v f l b , o O = l n. X X X].5.3     O 7 Z 9.V.v.^ q O q n n V M <.A.y O     @X@X@X",
"O   e K R R R R U R W R P z $ : z 2 % , Z / ! J j 3 O O O o O A W. X X XW./.M O O   O % e s s $ O , n c 2 j N 0.}.D O       @X@X",
"  O e K R R R R R R W W J N 7 @ p x = $ % $ $ % O O 2 % O , e `  X X X X X X7.3 % O $ @ o $ O o 5 v B < $ 9 B j.[.:.O O     @X@X",
"O   2 Q U R U R W W W W U Z z   o z b i 3 2 2 3 y l i % O e a >. X X X X X X^.M i % $ o s p p k n N j o = f S H.{.P.t O     @X@X",
"    - D K U K R R R W W P M n 9 $ , z m N m b B m z :   7 j b g. X X X X X X X9.j i O O t b N C N z > @ q b ^ }. X XA     o   @X",
"O O O Z K K U K R R W W W F l v 2 @ $ w n m M b i : o 4 z t ! T. X X X X X X X].C z e O $ > i s i = O : x n j.{. X X7.- O o   @X",
"  O   V U U K U U W W W W W Z k c 4 % $ : q 9 = o o 9 x j C &. X X X X X X X X Xk.c n 7 O @ $ $ o % $ z v *.[.[.}.}.G.q o $   @X",
"  O O b U K U K W U P W W W J B j c f % % O O $ $ i b k n W V. X X X X X X X X X^.u.v v k 4 $ $ , e c n $./.[.[.{.}./.c o o o @X",
"  O   k K U K U W W W W W W P P A k c b f q e p v N k A H ;. X X X X X X X X X X X Xx.i.u.$._ _ o.3.i.u.}.}.}.{.}.}. XK   O     ",
"  O O e U K U K W P W W P W U P J F b B Z Z C S P G A J ..G. X X X X X X X X X X X X X}.}.}.[.[.}. X}.{. X X}.}.}.{. X&.o o     ",
"      = S R K K P P W W R H l M W W W W P K J K K P Q ^ B. X X X X X X X X X X X X X X X X X X X X X X X X X X X X X Xv.2       ",
"  o   $ b U K K P P U W U c   y W U W W W P W W K P ! e. X X X X X X X X X X X X X X X X X X X X X X X X X X X X X X X{.l O O   ",
"  o o   w U K K W P W U H 2 % z P W W W W P Q K P _ t.^. X X X X X X X}. X X X X X}. X X X X X X X}.T. X X X X X X X X Xn O     ",
"@X      o N K K P P W W z @ , F W W U W W W J Q @.j. X X X X X X X{.Y.H.B.g.k.k.x.B.H.^. X X X X XP.X.v. X X X X X X X XG o o   ",
"@X  o   o y U K P P W J 3 $ c U P W P P J Q { x./. X X}.G.z.;.^ A M v z i i y i i k x n Z ` t.H.{. X-./ n.}. X X X X X X{       ",
"@X@X    O $ B U U P J b $ 7 | J P P P W W o.n.[.j.9.O.W b i % $ @ @ O $ O % % O O O $ $ o $ 7 c  .e.t.^ ] H. X X X X X X;.O     ",
"@X@Xo     O a H P P J s o b 4.P W ] u.e.e.u.| n f $ $ O   $ O : 4 t y f z n M M v j i y w = % $ % < y i B 2. X}. X X X X;.O     ",
"@X@X@X  O   - N W W P 2 % ..4.P W p.p._ x w $ O O O $ , e x ^ :.u.p.j.M.K./.[.{./.G.n.x.r.$.M w : O O $ > S P.]. X X X X@.O O   ",
"@X@X@X  o   o t W W F $ $ e.3.J H D q $ O O O q l H @.5.j.T. X X X X X X X X X X X X X X X X{.j.*.] n % O < @.}. X X X X..      ",
"@X@X@X@X      = C W Z O 9 j.-.c 3 $ O : y c ] e.T. X X X X X X X X X X X X X X X X X X X X X}. X XY.H.o.4 $ q g. X X X XK O   o ",
"@X@X@X@X  o   o i U C O w H.*.$   , j [ g. X}.[. X XP.A.P.A.A.V.n.G./. X X X X X X X X X X X}.}. X/. X/.' % $ Q  X X X XM $   o ",
"@X@X@X@X@X      O C C O < g.u.e q { B. X}./.B.j.t.,.o.^ ( ^ ! ! ! ( | n. X X X X X X X X X Xk.+.Q P ! U n O   K  X X X Xl O     ",
"@X@X@X@X@X    o O w S < O ) H.P U g.[.x.;.@._ E P P P P P J P W P P W @. X X X X X X X X XG.l = O O $ O $ % q u. X X XA.q       ",
"@X@X@X@X@X@X    O O b z O i j.3.U ` r.^ W W J U W P P U P J P W W K W -. X X X X X X X X^.{ % O , , < < - i &.{. X X}.7.  O   o ",
"@X@X@X@X@X@X    O o q A 2 $ n u./ ^ Q Q W P P W P W P P P W P P P W ^ n. X X X X X X X Xq.7 O i -.5.<.%.H g. X X X X]._ O O     ",
"@X@X@X@X@X@X@X  O   O M c O - f Z P W W P P P W P W W W W P W W W W W 3. X X X X X X XB.l $ : @. X].Y.u.g.}. X X X X^.z O     @X",
"@X@X@X@X@X@X@Xo     O t S l $   % z W P W P P W P P P W W W W P W P U ! q.{.}. X X XY.n $ % A ]. X X X X X X X X X XM., o     @X",
"@X@X@X@X@X@X@X@X  o O O i U n 7 % 3 R W W W P W W W W W W P W W W W W W U O.r.A.K.g.H : O q g. X X X X X X X X X X X$.O o     @X",
"@X@X@X@X@X@X@X@X@X      O c J S c Z P P J P P K P P U W W U P C s f k x S H U P W B 3   3 ! }. X X X X X X X X X X Xn $ O   @X@X",
"@X@X@X@X@X@X@X@X@X    o O : b W W T P J P P P P P P W W W W P l O O O $ - q p f d ,     x u. X{. X X X X X X X X XV., O     @X@X",
"@X@X@X@X@X@X@X@X@X@X      O , K P J J K J P P P P W W W W P J M 3 > - O O   $   O O O x { Y. X X X X X X X X X X X{ % o   o @X@X",
"@X@X@X@X@X@X@X@X@X@X@X  O   $ i H J P K J P P P P W P P P W W P H H F b s 2 : % - e n R f.}.}. X X X X X X X X XP.f O     @X@X@X",
"@X@X@X@X@X@X@X@X@X@X@X@X        4 M W ! P K W P W P W P P W W W W W P W J J S S G J G ` {. X X X X X X X X X X}.K % O     @X@X@X",
"@X@X@X@X@X@X@X@X@X@X@X@X@X    o O $ l A P P P P P P W W W W W W W W W U P P K J P K G <. X X X X X X X X X X}.X.: o     @X@X@X@X",
"@X@X@X@X@X@X@X@X@X@X@X@X@X@X      o   , b H J P W P W P P W W W W W W W W P J P K U Q n. X X X X X X X X X}.$.2         @X@X@X@X",
"@X@X@X@X@X@X@X@X@X@X@X@X@X@X@X    o   O o 8 M P P P W W W W W W W W W W W P P J P P <.}. X X X X X X X X X-., O       @X@X@X@X@X",
"@X@X@X@X@X@X@X@X@X@X@X@X@X@X@X@X        o o $ t x B S P U P P W W W W U W W W P U @. X X X X X X X X]./.e.q $ O     @X@X@X@X@X@X",
"@X@X@X@X@X@X@X@X@X@X@X@X@X@X@X@X@X@X  o o   O o O   > 8 z S R W W W W W P W W U _ G. X]. X X X X X}.v.` q O       @X@X@X@X@X@X@X",
"@X@X@X@X@X@X@X@X@X@X@X@X@X@X@X@X@X@X@X    o o       o O   O 7 i c M C F J W W ) k. X X X{.[.k.$.! x 2   O   o   @X@X@X@X@X@X@X@X",
"@X@X@X@X@X@X@X@X@X@X@X@X@X@X@X@X@X@X@X@X@X              O   O   O O O - 2 9 i C ( W H G D z : o O O o o       @X@X@X@X@X@X@X@X@X",
"@X@X@X@X@X@X@X@X@X@X@X@X@X@X@X@X@X@X@X@X@X@X@X            O       O o     O     o o o     o   o   o o       @X@X@X@X@X@X@X@X@X@X",
"@X@X@X@X@X@X@X@X@X@X@X@X@X@X@X@X@X@X@X@X@X@X@X@X@X@X@X                O       O   o       o o o           @X@X@X@X@X@X@X@X@X@X@X"
};
