/* XPM */
static char *frame_08_delay_0_05s1763316728[] = {
/* columns rows colors chars-per-pixel */
"64 64 170 2 ",
"   c black",
".  c #010101",
"X  c #020202",
"o  c gray1",
"O  c #040404",
"+  c gray2",
"@  c #060606",
"#  c #070707",
"$  c gray3",
"%  c #090909",
"&  c gray4",
"*  c #0B0B0B",
"=  c #0C0C0C",
"-  c gray5",
";  c #0E0E0E",
":  c gray6",
">  c #101010",
",  c #111111",
"<  c gray7",
"1  c #131313",
"2  c gray8",
"3  c #151515",
"4  c #161616",
"5  c gray9",
"6  c #181818",
"7  c #191919",
"8  c gray10",
"9  c gray11",
"0  c #1D1D1D",
"q  c #1E1E1E",
"w  c gray12",
"e  c #202020",
"r  c #222222",
"t  c #232323",
"y  c gray14",
"u  c gray15",
"i  c #272727",
"p  c #282828",
"a  c #2A2A2A",
"s  c #2C2C2C",
"d  c #2D2D2D",
"f  c #2F2F2F",
"g  c gray19",
"h  c #313131",
"j  c #323232",
"k  c #323136",
"l  c gray22",
"z  c #3A3A3A",
"x  c #3D3C41",
"c  c gray28",
"v  c #494949",
"b  c #4A494E",
"n  c #4F4F50",
"m  c gray33",
"M  c gray35",
"N  c #5C5C5E",
"B  c #606060",
"V  c #626166",
"C  c gray40",
"Z  c #68676B",
"A  c gray42",
"S  c gray43",
"D  c #707072",
"F  c gray45",
"G  c #787779",
"H  c gray48",
"J  c #7B7B7B",
"K  c #7C7C7C",
"L  c gray49",
"P  c #7E7E7E",
"I  c gray50",
"U  c #808083",
"Y  c #838384",
"T  c #868686",
"R  c gray53",
"E  c #888888",
"W  c #898989",
"Q  c gray54",
"!  c #8B8B8B",
"~  c gray55",
"^  c #8D8D8D",
"/  c #8E8E8E",
"(  c gray57",
")  c gray58",
"_  c #959595",
"`  c #979699",
"'  c #9A9A9A",
"]  c gray62",
"[  c #A0A0A0",
"{  c gray63",
"}  c #A2A2A2",
"|  c #A4A4A6",
" . c #A7A6A7",
".. c #A9A9A9",
"X. c gray67",
"o. c #ACACAC",
"O. c #AEAEAE",
"+. c gray69",
"@. c #B2B2B2",
"#. c gray70",
"$. c #B4B4B4",
"%. c gray71",
"&. c #B6B6B7",
"*. c #B8B7BA",
"=. c gray73",
"-. c #BCBCBC",
";. c gray74",
":. c gray75",
">. c #C0C0C0",
",. c #C1C1C1",
"<. c #C3C3C3",
"1. c #C5C5C5",
"2. c #C6C6C6",
"3. c gray78",
"4. c #C8C8C8",
"5. c gray79",
"6. c #CACACA",
"7. c gray80",
"8. c #CDCDCE",
"9. c gray81",
"0. c #D1D0D1",
"q. c #D2D2D2",
"w. c LightGray",
"e. c gray83",
"r. c #D5D5D5",
"t. c #D8D8D8",
"y. c #DADADB",
"u. c #DCDBDC",
"i. c #DDDDDD",
"p. c #DFDFDF",
"a. c #E1E0E1",
"s. c #E1E1E1",
"d. c #E2E2E2",
"f. c gray89",
"g. c #E4E4E4",
"h. c #E6E5E6",
"j. c #E7E7E7",
"k. c gray91",
"l. c #E9E9E9",
"z. c #EAEAEA",
"x. c gray92",
"c. c #ECECEC",
"v. c gray93",
"b. c #EEEEEE",
"n. c #EFEFEF",
"m. c gray94",
"M. c #F1F1F1",
"N. c gray95",
"B. c #F3F3F3",
"V. c #F4F3F4",
"C. c #F4F4F4",
"Z. c #F5F4F5",
"A. c gray96",
"S. c #F6F6F6",
"D. c #F7F6F7",
"F. c gray97",
"G. c #F8F8F8",
"H. c #F9F8F9",
"J. c #F9F9F9",
"K. c #FAF9FA",
"L. c gray98",
"P. c #FBFAFB",
"I. c #FBFBFB",
"U. c #FCFBFC",
"Y. c gray99",
"T. c #FDFCFD",
"R. c #FDFDFD",
"E. c #FEFEFE",
"W. c white",
"Q. c None",
/* pixels */
"Q.Q.Q.Q.Q.Q.Q.Q.Q.Q.Q.Q.Q.Q.Q.Q.Q.Q.Q.Q.  Q.  Q.  Q.  Q.  Q.  Q.  Q.  Q.  Q.Q.Q.Q.Q.Q.Q.Q.Q.Q.Q.Q.Q.Q.Q.Q.Q.Q.Q.Q.Q.Q.Q.Q.Q.Q.Q.",
"Q.Q.Q.Q.Q.Q.Q.Q.Q.Q.Q.Q.Q.Q.Q.Q.Q.Q.Q.                                          Q.Q.Q.Q.Q.Q.Q.Q.Q.Q.Q.Q.Q.Q.Q.Q.Q.Q.Q.Q.Q.Q.Q.Q.",
"Q.Q.Q.Q.Q.Q.Q.Q.Q.Q.Q.Q.Q.Q.Q.                                O o o                   Q.Q.Q.Q.Q.Q.Q.Q.Q.Q.Q.Q.Q.Q.Q.Q.Q.Q.Q.Q.Q.",
"Q.Q.Q.Q.Q.Q.Q.Q.Q.Q.Q.Q.Q.                                  o 9 9 ; O O                   Q.Q.Q.Q.Q.Q.Q.Q.Q.Q.Q.Q.Q.Q.Q.Q.Q.Q.Q.",
"Q.Q.Q.Q.Q.Q.Q.Q.Q.Q.Q.O     O   # o 1 ;         # O # o o O % 5 m ' -...! D M p ; o   O       Q.Q.Q.Q.Q.Q.Q.Q.Q.Q.Q.Q.Q.Q.Q.Q.Q.",
"Q.Q.Q.Q.Q.Q.Q.Q.Q.    O     & n ^ [ l O   o 7 M L ^ ( Y H c %   O O < e M L [ q.7.Y e O O       Q.Q.Q.Q.Q.Q.Q.Q.Q.Q.Q.Q.Q.Q.Q.Q.",
"Q.Q.Q.Q.Q.Q.Q.Q.    O % & M 4.S.z.l # O v ] p.K.I.K.W.W.W.S.3.G j % % O O % > 5 9 x C x o         Q.Q.Q.Q.Q.Q.Q.Q.Q.Q.Q.Q.Q.Q.Q.",
"Q.Q.Q.Q.Q.Q.Q.      O b >.B.K.g.x % : ^ x.W.K.K.W.K.W.W.W.K.S.B.n.,.] S x t ; O % O O ;     o         Q.Q.Q.Q.Q.Q.Q.Q.Q.Q.Q.Q.Q.",
"Q.Q.Q.Q.Q.      # % L M.I.P.c.n $ > _ Y.G.W.W.W.I.K.W.W.W.K.W.U.W.W.K.I.C.z.=.! b ;                     Q.Q.Q.Q.Q.Q.Q.Q.Q.Q.Q.Q.",
"Q.Q.Q.Q.  O o   3 o.K.C.K.z.n $ * Y B.m.;.I C C Y | f.W.W.W.W.W.I.W.W.W.Y.M.%.m <                   O   Q.Q.Q.Q.Q.Q.Q.Q.Q.Q.Q.Q.",
"Q.Q.Q.    O o n 0.P.P.F.M.N % # L y.L a : O % O # % e S k.K.W.W.W.W.W.B.r.m ;     O   o   o o       O       Q.Q.Q.Q.Q.Q.Q.Q.Q.Q.",
"Q.Q.Q.    o V x.B.P.S.C.F - % G ..a o O O   y f < O O O N K.W.W.W.Y.W.3.s   o         o     o         o     Q.Q.Q.Q.Q.Q.Q.Q.Q.Q.",
"Q.Q.    # N m.I.W.I.n.Z : ; l m % O O o o   C f.u.=.C * & =.W.W.W.Y.0.t o 7 n   O     O   O O c v o $         Q.Q.Q.Q.Q.Q.Q.Q.Q.",
"Q.      j x.I.W.W.f.m O O O < ;   o o o o o m G.K.G.n.l O C W.W.K.x.x   w %.#.O O O O   O   o D n.S %         Q.Q.Q.Q.Q.Q.Q.Q.Q.",
"Q.  O % $.F.K.W.5.x $   O $ O   o   o   # % / G.I.W.B.n O m U.I.W...$ * +.K.k.l % % O O O O p 7.W.m.A O % O     Q.Q.Q.Q.Q.Q.Q.Q.",
"Q.  O l C.K.M._ 9   O o   > c $     o o O N B.Y.I.W.&.3 % F U.I.W.D O 9 g.W.F.p.Y x e e m / f.S.K.K.<.% 7 3     Q.Q.Q.Q.Q.Q.Q.Q.",
"  O O ^ I.W.Y #   y [ w O m M.! j 1 ; l ! z.W.K.I. .7 $ y y.W.W.W.@.O $ ,.K.I.W.K.n.p.p.M.I.W.W.W.I.( O y H O     Q.Q.Q.Q.Q.Q.Q.",
"O O ; r.W.I.L 3 m 9.W.N   x M.W.z.u.y.n.S.K.S.y.F 2 O 9 ,.I.I.W.W.z.s O x u.P.W.K.K.W.W.W.W.W.W.K.,.t # A k.p O   O Q.Q.Q.Q.Q.Q.",
"  o y z.I.I.n.q.z.W.I._ % % B 3.z.n.g.q.7.+.S p O   y >.I.K.W.I.W.K.` # O i C ..0.c.C.c.z.z.r...n 3 O 9 5.S.@.; O     Q.Q.Q.Q.Q.",
"  o j I.W.W.W.W.I.W.W.z.v O % 3 y s p 7 3 <   % < N w.K.I.W.I.W.W.I.G.Y 1 o O * 9 f j p p p w % O # e } K.K.S.N O   o Q.Q.Q.Q.Q.",
"O   z W.W.W.W.W.W.W.W.W.f.C 3 o O % % O o O e n +.n.K.U.U.I.W.I.W.I.W.M.=.C j - O O o o % $ - ; a I r.K.I.Y.K.f.j O       Q.Q.Q.",
"    x W.W.W.I.W.W.W.I.W.W.B.5.Y C S F Y ' @.u.M.K.I.I.K.U.I.K.W.W.W.I.W.S.C.p.*.^ F A P H H ! >.f.G.Y.I.K.W.W.Y.] %     Q.Q.Q.Q.",
"    c W.I.W.W.W.W.I.W.I.W.K.W.K.W.W.I.W.W.I.W.I.U.W.I.W.U.W.W.I.W.I.W.W.I.W.I.W.I.I.W.I.I.W.I.I.W.I.Y.W.Y.W.W.W.M.e o   Q.Q.Q.Q.",
"O   c W.W.I.W.I.W.I.W.W.I.W.W.W.I.I.W.I.I.W.W.W.I.W.I.U.H.I.I.W.I.W.I.W.W.I.W.I.W.W.I.W.W.K.W.W.Y.W.W.I.W.Y.Y.W.W.S O o   Q.Q.Q.",
"O   l K.W.W.W.W.W.W.W.W.z.O.f.W.W.W.W.W.W.W.W.W.I.Y.W.Y.I.W.W.I.W.I.I.W.I.W.I.W.W.W.I.I.W.I.W.W.W.W.W.Y.W.I.W.W.W.=.$ O   Q.Q.Q.",
"  O p z.I.W.W.W.I.W.I.W.! % H P.W.W.W.W.Y.W.Y.W.Y.W.Y.Y.W.I.I.W.I.W.W.W.W.I.W.W.I.W.W.W.I.W.I.W.Y.Y.W.W.W.W.W.W.W.x.p     Q.Q.Q.",
"  O 3 y.W.W.W.W.W.I.W.W.S O l c.W.W.W.W.W.W.W.W.W.W.W.Y.I.W.I.W.W.I.W.I.W.W.I.W.W.W.W.W.W.W.W.W.K.Y.Y.K.K.Y.W.I.K.M.D O   o Q.Q.",
"  O O 5.W.W.W.I.W.W.W.W.o.% % H M.W.W.I.W.W.Y.W.W.Y.W.W.W.I.W.W.W.W.W.W.I.I.W.W.I.W.P.W.I.W.K.n.f.7.%.| S b B ^ k.W.3.% O   Q.Q.",
"O O   =.W.W.W.W.W.W.I.W.S.B   % N p.K.K.W.Y.W.S.S.F.K.Y.I.I.W.I.W.K.W.K.K.P.W.W.I.P.C.f.7.| B l a 7 $ $ O % O % c g.n.e   O Q.Q.",
"O   O  .W.W.W.W.W.W.W.W.W.p.n O   g N ^ +.:.<.5.y.y.t.y.0.q.t.y.r.r.q.w.5.O._ Y Z M x j e % O o O o $ $ 3 j g O O E C.c O   Q.Q.",
"O   O D W.W.W.W.W.W.I.W.W.I.f.C ;   O % : : 3 5 p p t y 9 w y y y y 9 9 3 O O o % O   $ % % w c A Y [ -.q.f.[ ; O C K.K O     Q.",
"O O O c K.W.W.W.W.W.W.W.W.W.W.M.[ m s ; O o   o O o O O o     o o     O O % 5 e s x n C Y @.t.n.S.K.Y.K.n.( e % < ..S...      Q.",
"    O 5 p.W.Y.W.W.W.W.W.W.W.W.Y.W.K.g.4.#.} _ E F D G H ! / Y H L Y _ _ | =.7.y.p.n.S.Y.W.W.W.W.K.I.I.S.G : # 1 ! M.Y.t.5 O o Q.",
"Q.  O   [ W.W.W.W.W.Y.W.W.Y.W.W.Y.Y.Y.Y.F.K.K.K.W.W.I.I.M.K.W.B.S.W.Y.K.K.Y.W.W.Y.W.W.W.W.W.Y.W.W.W.W.( # O p ..M.I.I.G.l   o Q.",
"Q.  O   c K.W.W.W.Y.W.Y.W.W.Y.W.W.Y.Y.W.W.Y.Y.W.W.W.W.W.W.W.W.W.W.W.Y.W.W.Y.W.W.W.W.W.W.W.W.Y.W.W.W.F.j o a 0.K.W.W.W.I.m o   Q.",
"Q.Q.    * =.W.W.W.W.W.W.W.Y.W.W.W.W.Y.Y.W.W.W.W.Y.W.W.W.W.W.W.K.W.W.W.W.W.W.W.Y.W.W.Y.W.W.W.W.W.W.W.t.3 # _ K.K.W.W.W.W.D       ",
"Q.Q.    o n M.W.W.W.Y.W.W.W.W.W.W.W.W.W.W.W.Y.W.W.W.Y.W.W.W.Y.W.W.Y.W.Y.W.Y.W.W.W.W.Y.W.Y.W.W.W.Y.W.*.  & 7.U.W.W.W.W.W.'       ",
"Q.Q.Q.  O ; -.Y.W.W.W.W.W.W.Y.W.W.Y.W.Y.W.Y.W.W.W.W.W.W.W.W.W.W.W.W.W.W.W.W.W.W.W.W.W.W.W.W.Y.W.W.W...  % g.W.W.W.W.W.W.%.#     ",
"Q.Q.Q.  $   b S.W.W.W.W.Y.W.Y.W.W.Y.W.Y.W.W.W.W.W.Y.Y.W.W.Y.W.W.Y.W.W.W.W.W.W.W.W.Y.W.W.W.W.W.Y.W.W.' $ : n.W.W.W.Y.W.W.O.#     ",
"Q.Q.Q.Q.  o 1 %.W.W.W.Y.W.W.W.W.W.W.W.W.W.W.W.W.W.W.W.W.W.W.Y.W.Y.W.W.W.W.W.W.W.W.W.W.Y.W.W.W.Y.W.Y.! O 9 S.W.W.W.W.W.W.o.O     ",
"Q.Q.Q.Q.    O c S.Y.W.W.W.W.W.W.W.W.W.W.W.W.W.Y.W.W.Y.W.W.W.Y.W.W.W.W.W.W.W.W.W.W.W.W.W.Y.W.W.W.W.W.B O x S.W.W.Y.W.W.W.(       ",
"Q.Q.Q.Q.Q.O   ; =.W.W.W.W.W.W.Y.W.W.Y.W.W.W.W.W.W.W.W.W.W.W.W.W.W.W.W.W.W.Y.W.W.W.Y.Y.W.W.W.W.W.Y.M.j   C I.W.W.W.W.W.W.F o     ",
"Q.Q.Q.Q.Q.O     b S.Y.W.W.W.W.W.W.W.W.W.W.W.W.Y.W.W.W.Y.W.W.W.W.W.W.W.W.W.W.W.W.W.W.W.W.W.W.W.W.K.y.<   | W.W.W.Y.W.W.G.N $   Q.",
"Q.Q.Q.Q.Q.Q.    % ;.W.W.W.W.W.W.W.Y.W.W.W.W.W.W.Y.W.W.W.Y.W.Y.W.Y.W.W.W.W.W.W.W.W.W.W.W.W.W.Y.W.W.%.O O q.W.W.W.W.W.W.K.x # O Q.",
"Q.Q.Q.Q.Q.Q.  O O x z.W.W.W.Y.W.W.W.Y.W.W.W.W.W.W.W.W.W.W.W.W.W.W.W.Y.W.W.W.W.W.W.W.W.W.W.W.W.W.K.D O e n.W.W.W.W.W.W.z.9 o   Q.",
"Q.Q.Q.Q.Q.Q.Q.    $ | W.W.W.W.W.W.W.W.W.W.W.W.W.W.Y.Y.W.W.W.W.W.W.W.W.W.W.W.W.W.W.W.W.W.W.Y.W.W.k.p o B K.W.W.W.I.W.W.7.O O   Q.",
"Q.Q.Q.Q.Q.Q.Q.% O O k S.W.W.W.W.W.W.W.W.W.W.Y.W.W.W.W.W.W.W.m.4.p.K.W.W.W.W.W.W.Y.W.W.W.W.Y.W.W.[   o +.U.W.I.W.W.W.K.^       Q.",
"Q.Q.Q.Q.Q.Q.Q.Q.  O O o.W.W.W.Y.W.W.W.Y.W.W.W.W.W.W.W.W.W.W.( % l p.W.W.W.W.W.W.W.W.W.Y.W.W.W.M.z $ g n.U.I.W.W.W.W.S.x     Q.Q.",
"Q.Q.Q.Q.Q.Q.Q.Q.  O   x f.W.W.W.W.I.W.W.I.W.W.W.I.W.W.W.W.W.L % O m y.W.W.W.W.W.W.W.W.W.W.W.K.^ % O ` W.Y.Y.W.I.W.W.g.< O   Q.Q.",
"Q.Q.Q.Q.Q.Q.Q.Q.Q.    * m n.W.W.W.W.W.W.W.W.W.W.W.W.W.W.W.W.g.v   O y [ S.W.W.W.W.W.W.W.W.K.! %   v M.Y.K.W.I.W.I.W.[ %     Q.Q.",
"Q.Q.Q.Q.Q.Q.Q.Q.Q.    O % ! S.K.W.W.W.W.W.W.W.I.W.W.W.W.W.W.W.y.x = O ; c ' ;.p.n.S.G.C.f.D ; O 9 >.W.Y.I.Y.W.Y.Y.Y.b   O Q.Q.Q.",
"Q.Q.Q.Q.Q.Q.Q.Q.Q.Q.    O < } W.W.K.W.I.W.W.W.W.W.W.I.W.W.W.W.K.g.L 9     O ; < z m m Z l $ % 9 5.W.Y.W.I.W.I.I.W.g.2 O   Q.Q.Q.",
"Q.Q.Q.Q.Q.Q.Q.Q.Q.Q.Q.    O e w.I.W.W.W.W.W.W.W.W.W.W.W.W.I.W.W.W.K.7.c 7 O $ O %   O   O ; x 3.W.W.I.W.W.I.Y.W.W.` O O O Q.Q.Q.",
"Q.Q.Q.Q.Q.Q.Q.Q.Q.Q.Q.Q.  O   j r.I.W.W.W.W.W.W.W.W.W.W.W.W.W.W.W.W.K.S.3.[ Y n i 3 7 5 e H g.V.W.Y.W.Y.W.W.W.W.z.j     Q.Q.Q.Q.",
"Q.Q.Q.Q.Q.Q.Q.Q.Q.Q.Q.Q.Q.    O i %.K.I.W.W.W.W.W.W.W.I.W.I.W.I.W.W.W.W.W.K.K.K.n.f.g.r.g.W.W.W.W.W.W.Y.W.Y.K.K.G O     Q.Q.Q.Q.",
"Q.Q.Q.Q.Q.Q.Q.Q.Q.Q.Q.Q.Q.      o ; S w.K.W.W.W.I.W.W.W.W.W.W.W.W.W.W.W.U.W.P.K.S.W.W.P.K.W.W.W.W.Y.W.W.W.W.K.` >     Q.Q.Q.Q.Q.",
"Q.Q.Q.Q.Q.Q.Q.Q.Q.Q.Q.Q.Q.Q.      O # 9 [ n.K.I.W.W.W.W.W.W.W.W.W.W.W.W.W.K.W.I.I.W.W.I.W.W.W.W.W.W.W.W.W.K. .3       Q.Q.Q.Q.Q.",
"Q.Q.Q.Q.Q.Q.Q.Q.Q.Q.Q.Q.Q.Q.Q.Q.      O O l =.M.W.W.W.W.W.W.W.W.K.W.W.I.W.W.I.W.W.I.W.W.W.W.W.W.W.W.W.W.W.%.3 O     Q.Q.Q.Q.Q.Q.",
"Q.Q.Q.Q.Q.Q.Q.Q.Q.Q.Q.Q.Q.Q.Q.Q.Q.      O o % c ! =.z.B.K.K.W.W.W.W.W.W.W.W.W.W.W.W.W.W.W.W.W.W.W.W.K.Y.4.7       Q.Q.Q.Q.Q.Q.Q.",
"Q.Q.Q.Q.Q.Q.Q.Q.Q.Q.Q.Q.Q.Q.Q.Q.Q.Q.Q.O o O o o # O 3 l G 5.B.W.W.W.W.W.W.W.W.W.W.W.W.W.W.W.W.W.F.S.f.^ 9 O     Q.Q.Q.Q.Q.Q.Q.Q.",
"Q.Q.Q.Q.Q.Q.Q.Q.Q.Q.Q.Q.Q.Q.Q.Q.Q.Q.Q.Q.Q.o         o O O   j M Y %.7.f.n.S.S.I.W.K.P.W.K.S.r.| L z < O   O   Q.Q.Q.Q.Q.Q.Q.Q.Q.",
"Q.Q.Q.Q.Q.Q.Q.Q.Q.Q.Q.Q.Q.Q.Q.Q.Q.Q.Q.Q.Q.Q.Q.            o O O O %   < 9 l M F Y G G G A x ; % O   o   O   Q.Q.Q.Q.Q.Q.Q.Q.Q.Q.",
"Q.Q.Q.Q.Q.Q.Q.Q.Q.Q.Q.Q.Q.Q.Q.Q.Q.Q.Q.Q.Q.Q.Q.Q.  Q.Q.      O       o     o   o O O O O       O O         Q.Q.Q.Q.Q.Q.Q.Q.Q.Q.Q.",
"Q.Q.Q.Q.Q.Q.Q.Q.Q.Q.Q.Q.Q.Q.Q.Q.Q.Q.Q.Q.Q.Q.Q.Q.Q.Q.Q.Q.Q.Q.      o   O   o     O O       O O       Q.Q.Q.Q.Q.Q.Q.Q.Q.Q.Q.Q.Q.Q."
};
