/* XPM */
static char *frame_21_delay_0_05s1763316730[] = {
/* columns rows colors chars-per-pixel */
"64 64 160 2 ",
"   c black",
".  c #010101",
"X  c #020202",
"o  c gray1",
"O  c #040404",
"+  c gray2",
"@  c #060606",
"#  c #070707",
"$  c gray3",
"%  c #090909",
"&  c gray4",
"*  c #0B0B0B",
"=  c #0C0C0C",
"-  c gray5",
";  c #0E0E0E",
":  c gray6",
">  c #101010",
",  c #111111",
"<  c #131313",
"1  c gray8",
"2  c #151515",
"3  c gray9",
"4  c #181818",
"5  c #191919",
"6  c gray10",
"7  c gray11",
"8  c #1D1D1D",
"9  c #1E1E1E",
"0  c gray12",
"q  c #202020",
"w  c #222222",
"e  c gray14",
"r  c gray15",
"t  c #272727",
"y  c #2A2A2A",
"u  c #2C2C2C",
"i  c #2D2D2D",
"p  c #2F2F2F",
"a  c gray19",
"s  c #313131",
"d  c #323232",
"f  c gray22",
"g  c #3A3A3A",
"h  c #3D3C41",
"j  c gray28",
"k  c #494949",
"l  c #4A494E",
"z  c #4F4F50",
"x  c gray33",
"c  c gray35",
"v  c #5C5C5E",
"b  c #606060",
"n  c #626166",
"m  c gray40",
"M  c #68676B",
"N  c gray42",
"B  c gray43",
"V  c #707072",
"C  c gray45",
"Z  c #787779",
"A  c gray48",
"S  c #7B7B7B",
"D  c #7C7C7C",
"F  c #7E7E7E",
"G  c gray50",
"H  c #838384",
"J  c gray53",
"K  c #888888",
"L  c #898989",
"P  c gray54",
"I  c #8D8D8D",
"U  c #8E8E8E",
"Y  c gray57",
"T  c #939393",
"R  c gray58",
"E  c #959595",
"W  c #979699",
"Q  c #9A9A9A",
"!  c gray61",
"~  c gray62",
"^  c gray63",
"/  c #A2A2A2",
"(  c #A4A4A6",
")  c #A7A6A7",
"_  c #A9A9A9",
"`  c #AAAAAA",
"'  c gray67",
"]  c #ACACAC",
"[  c #AEAEAE",
"{  c gray69",
"}  c #B2B2B2",
"|  c gray70",
" . c #B4B4B4",
".. c gray71",
"X. c #B6B6B7",
"o. c #B8B7BA",
"O. c gray73",
"+. c #BCBCBC",
"@. c gray74",
"#. c gray",
"$. c gray75",
"%. c #C0C0C0",
"&. c #C1C1C1",
"*. c #C3C3C3",
"=. c #C5C5C5",
"-. c #C6C6C6",
";. c gray78",
":. c #C8C8C8",
">. c gray79",
",. c #CACACA",
"<. c gray80",
"1. c #CDCDCE",
"2. c gray81",
"3. c #D1D0D1",
"4. c #D2D2D2",
"5. c LightGray",
"6. c gray83",
"7. c #D6D5D7",
"8. c #D8D8D8",
"9. c #DADADB",
"0. c #DCDBDC",
"q. c #DDDDDD",
"w. c #DFDFDF",
"e. c #E1E0E1",
"r. c #E1E1E1",
"t. c #E2E2E2",
"y. c gray89",
"u. c #E4E4E4",
"i. c #E6E5E6",
"p. c #E7E7E7",
"a. c gray91",
"s. c #E9E9E9",
"d. c #EAEAEA",
"f. c gray92",
"g. c #ECECEC",
"h. c gray93",
"j. c #EEEEEE",
"k. c #EFEFEF",
"l. c gray94",
"z. c #F1F1F1",
"x. c gray95",
"c. c #F3F3F3",
"v. c #F4F3F4",
"b. c #F4F4F4",
"n. c #F5F4F5",
"m. c #F6F6F6",
"M. c #F7F6F7",
"N. c gray97",
"B. c #F8F8F8",
"V. c #F9F8F9",
"C. c #FAF9FA",
"Z. c #FBFAFB",
"A. c #FBFBFB",
"S. c #FCFBFC",
"D. c gray99",
"F. c #FDFCFD",
"G. c #FDFDFD",
"H. c #FEFEFE",
"J. c white",
"K. c None",
/* pixels */
"K.K.K.K.K.K.K.K.K.K.K.K.K.K.K.K.K.K.K.K.      K.                          K.  K.K.K.K.K.K.K.K.K.K.K.K.K.K.K.K.K.K.K.K.K.K.K.K.K.",
"K.K.K.K.K.K.K.K.K.K.K.K.K.K.K.K.                                                    K.K.K.K.K.K.K.K.K.K.K.K.K.K.K.K.K.K.K.K.K.K.",
"K.K.K.K.K.K.K.K.K.K.K.K.K.K.                      # $ #     $ # # #                     K.K.K.K.K.K.K.K.K.K.K.K.K.K.K.K.K.K.K.K.",
"K.K.K.K.K.K.K.K.K.K.K.K.                        $ 5 y d h h j i 1 $ #                       K.K.K.K.K.K.K.K.K.K.K.K.K.K.K.K.K.K.",
"K.K.K.K.K.K.K.K.K.K.            # # 3 c U ^ _ O.3.d.z.g.m.m.m.m.d.9.3.` H C c d # o #           K.K.K.K.K.K.K.K.K.K.K.K.K.K.K.K.",
"K.K.K.K.K.K.K.K.K.    $     * z R { w.c.r.^ C n c b k h c n N [ p.C.B.H.m.m.C.z.7.D e   o o       K.K.K.K.K.K.K.K.K.K.K.K.K.K.K.",
"K.K.K.K.K.K.K.        # * v *.m.B.C.<.v < # O #     #   # $ # - , k N ! 2.d.S.H.H.m.p.U q           K.K.K.K.K.K.K.K.K.K.K.K.K.K.",
"K.K.K.K.K.K.        O k $.c.S.S.f.G < # # - f z x x v m v z d - # # #   , t z F ( o.>.3.#.h           K.K.K.K.K.K.K.K.K.K.K.K.K.",
"K.K.K.K.K.    # $ < A z.N.N.N.Q i $ O q P w.z.C.m.m.C.H.C.m.z.>.T v h = $ #   # # # , 1 : = o           K.K.K.K.K.K.K.K.K.K.K.K.",
"K.K.K.K.      # 1 ! B.m.S.8.z = O $ b 9.B.A.B.G.H.H.H.H.H.H.H.B.H.m.g.w.o.A k t - - $ $ # #   # $         K.K.K.K.K.K.K.K.K.K.K.",
"K.K.K.    # # h #.g.S.H.O.q o - l $.z.G.H.G.H.H.H.H.H.H.H.H.H.H.H.H.H.H.H.H.m.d.7...A x h h x H P d #       K.K.K.K.K.K.K.K.K.K.",
"K.K.        n r.p.d.f.U 1 $ 3 ) z.m.H.H.G.G.H.H.H.H.H.H.H.H.H.H.H.H.H.H.H.H.C.7.V 7 < > $ # # 4 b O.i #       K.K.K.K.K.K.K.K.K.",
"K.      # x 0.f.g.O.f , $ f >.S.C.A.c.O.A v l j v Q p.H.H.A.H.H.H.H.H.H.C.m.>.d = # = q 7 5 # # # i T ,       K.K.K.K.K.K.K.K.K.",
"K.      u 6.r.y.A 5 $ : b 6.H.S.N.9.v > $ > = O # # f 3.H.H.H.H.S.H.H.S.H.&.t # 1 V *.9.r.w.$.G - # q b # #     K.K.K.K.K.K.K.K.",
"    # O ] a.y.Z - - d ( y.f.C.a.K y # o t j c c f $ $ i 3.C.H.A.H.H.H.H.7.t # q ` C.C.w. . .f.m.#.t # d d         K.K.K.K.K.K.K.",
"    o f r.d.y.t $ b 2.a.r.d.#.j : O 3 K r.p.w.m.g.W 5 # f r.C.H.H.H.H.H.M # 7 O.S.B.#.y , < n C.C.#.- $ U ,       K.K.K.K.K.K.K.",
"    # A d.d.p.P A 9.p.u.a.>.q o > c >.w.H u e F H.z.` # o T A.H.H.H.H.H.g   G H.H.H.h $ # o 3 d.H.g.i , ] Z $       K.K.K.K.K.K.",
"  # - &.d.p.d.d.p.p.p.p.a.M $ 7 ( g.k.j # $ # d m.H.r.5 o F H.H.H.H.H.H.g   W C.H.H.7 $ # o f l.H.w.q # $.p.i   o o o K.K.K.K.K.",
"  # q w.d.a.d.d.d.p.d.p.9.7 $ ! S.C.9.5 $ #   N v.C.F # o P H.H.S.H.H.S.x o N C.S.H.P 7 o 7 ..S.d.Z $ $ c 9.{ < O     K.K.K.K.K.",
"#   i p.d.d.a.d.d.p.d.d.&.# , e.Z.Z.v.v < 7 A g.r.A - $ - O.S.H.H.H.S.H.R o < C 1.C.S.1.^ :.m.| h - - $ # F b.b     o   K.K.K.K.",
"    f f.d.d.d.d.d.d.p.d.O.# 1 >.m.C.m.g.1...[ N d       h z.H.H.H.H.S.H.p.d # o q n ` ..O.! z : #   j $ # U H.r.f o       K.K.K.",
"    f f.d.d.d.d.d.d.d.d.7.5 $ 7 h N b x d 7 $ #   # # , &.S.C.S.S.H.H.H.H.&.g # # # # - , $   o d ! r.v b u.m.H.^ $       K.K.K.",
"    f f.d.d.d.d.d.d.d.d.d.c # $ # # #   $ # - -     - P m.H.H.H.H.H.H.H.H.C.p.A , $   #     1 A 9.m.H.H.H.H.Z.H.g.y o     K.K.K.",
"#   f f.d.d.f.d.d.d.d.d.3.5   i l f j x V P x -   # F z.H.H.H.H.H.H.H.S.H.S.H.z...h -   #   $ q ..C.H.H.G.H.H.H.H.N         K.K.",
"    d d.g.d.d.d.d.d.g.d.p.k   i u.r.r.p.l.K $ # q E B.H.H.H.H.S.H.S.H.H.H.H.H.H.H.p.( b a < # $ ! H.H.H.H.H.H.H.H.{ $ #     K.K.",
"  # e d.d.d.d.d.d.d.d.d.g.r.F ` G.C.C.B.H.P , c 3.H.H.H.H.H.H.H.A.H.H.H.H.H.H.H.H.H.H.m.p.3.{ [ d.H.H.H.H.H.H.H.H.c.q       K.K.",
"  # : 1.g.d.d.d.r.d.z.C.H.S.H.H.H.H.H.H.H.g.1.z.H.H.H.H.H.H.H.H.H.H.H.H.H.H.H.H.H.H.H.H.H.H.H.H.H.H.H.H.H.H.H.H.H.S.N $ #   K.K.",
"    # #.g.g.d.d.z.C.H.H.H.H.C.H.H.H.H.H.H.H.H.H.H.H.H.H.H.H.H.H.H.H.H.H.H.H.H.H.H.H.H.H.H.H.Z.H.H.H.H.H.H.H.H.H.H.H.;.,       K.",
"o #   { d.g.d.z.H.H.H.H.H.H.H.H.H.H.H.H.H.H.H.H.H.H.H.H.H.H.H.H.H.H.H.H.H.H.H.H.H.H.H.H.H.H.H.H.H.H.H.H.H.H.H.H.H.H.l.5 #   # K.",
"#     Q d.g.z.C.H.H.H.H.H.H.H.H.H.H.H.H.H.H.H.H.H.H.H.H.H.H.H.H.H.H.H.H.H.H.H.H.H.H.H.H.H.H.H.H.H.H.H.H.H.H.H.H.H.H.m.j       K.",
"    # N d.S.H.H.w.;.C.H.H.H.H.H.S.H.H.H.H.H.H.H.H.H.H.H.H.H.H.H.H.H.H.H.H.H.H.H.H.H.H.H.H.H.H.H.H.H.H.H.H.H.H.H.H.H.H.F       K.",
"#     f g.H.H.l.h 1 r.H.H.H.H.H.H.H.H.H.H.H.H.H.H.H.H.H.H.H.H.H.H.H.H.H.H.H.H.H.H.H.H.H.H.H.H.H.H.H.H.H.H.H.H.H.H.H.C.` # o     ",
"      1 r.H.H.;.# * w.C.H.H.H.H.H.H.H.H.H.H.H.H.H.C.H.H.S.H.H.H.H.H.H.C.m.g.d.p.r.r.d.z.z.C.C.H.A.C.H.H.H.H.H.H.H.H.C.w.1 #     ",
"      o ! C.H.W   h z.H.H.H.H.H.H.H.H.H.H.H.C.m.r.y.e.3.>.>.+.[ ! U F m j h h d y y d f h k b B T ..<.p.C.H.H.H.H.H.H.C.f   o   ",
"K.      j N.H.C # m >.` ....o.&.;.;.;.{ Q C c k f y q 7 1 1 $ # # #   # # $ $     #   #   # #   $ $ , f P 0.S.H.C.H.H.H.x o     ",
"K.      * #.H.n   A d $ # # # - , - : o #   #         # $ $ , 5 q t d j v N Z F U U F C m v j f t 1 o # $ d ( c.H.C.H.H.C #     ",
"K.      o k C.b # C c 0 1 1 , - - - , 7 t f l x A P U ! ` ..;.<.7.p.z.B.H.H.H.H.H.C.H.H.H.H.H.g.9.*.E k 1 # - T H.H.H.H.E       ",
"K.K.    # * &.N   N p.5.;.;.;.#.&.#.&.1.7.d.H.m.S.S.N.S.H.H.H.H.H.H.H.H.H.H.H.H.H.H.H.H.H.H.H.H.C.H.H.g.{ f # : 1.H.H.H.{ #     ",
"K.K.    o   x K o j z.H.H.H.H.H.H.H.H.H.H.H.H.H.H.H.H.H.H.H.H.H.H.H.H.H.H.H.H.H.H.H.H.H.H.H.H.H.H.H.H.H.H.9.e $ A S.H.H.[       ",
"K.K.K.  o   - S $ 1 r.S.H.H.H.H.H.H.H.H.H.H.H.H.H.H.H.H.H.H.H.H.H.H.H.H.H.H.H.H.H.H.H.H.H.H.H.H.H.H.H.H.H.H.b   M H.A.C.` #     ",
"K.K.K.    o   h g t p.H.H.H.H.H.H.H.H.H.H.H.H.H.H.H.H.H.H.H.H.H.H.H.H.H.H.H.H.H.H.H.H.H.H.H.H.H.H.H.A.C.m.d.h   H C.H.H.Q       ",
"K.K.K.K.  o   , ~ 3.H.G.H.H.H.H.H.H.H.H.H.H.H.H.H.H.H.H.H.H.H.H.H.H.H.H.H.H.H.H.H.H.H.H.H.H.H.H.H.H.z.1.Q x # , $.S.H.H.A       ",
"K.K.K.K.      o l B.H.H.H.H.H.H.H.H.H.H.H.H.H.H.H.H.H.H.H.H.H.H.H.H.H.H.H.H.H.H.H.H.H.H.H.H.H.H.S.w.l 1   $ , C z.H.H.C.x #     ",
"K.K.K.K.K.      $ #.H.H.H.H.H.H.H.H.H.H.H.H.H.H.H.H.H.H.H.H.H.H.H.H.H.H.H.H.H.H.H.H.H.H.H.H.H.H.p.f # # 5 i Q m.H.H.H.S.h #     ",
"K.K.K.K.K.K.  o   h m.H.H.H.H.H.H.H.H.H.H.H.H.H.H.H.H.H.H.H.H.H.H.H.H.H.H.H.H.H.H.H.H.H.H.H.C.m.v $ 5 E 7.z.H.H.H.H.H.p.7       ",
"K.K.K.K.K.K.      # [ H.H.H.H.H.H.H.H.H.H.H.H.H.H.H.H.H.H.H.H.H.H.H.H.H.H.H.H.H.H.H.H.H.H.H.m.{ # # Q S.C.H.H.H.H.H.H.>.#       ",
"K.K.K.K.K.K.K.#   # d z.H.H.H.H.H.H.H.H.H.H.H.H.H.H.H.H.H.H.H.H.H.H.H.H.H.H.H.H.H.H.H.H.H.H.z.d $ z m.H.H.H.H.H.H.H.S.H #     K.",
"K.K.K.K.K.K.K.# #   $ [ H.H.H.H.H.H.H.H.H.H.H.H.H.H.H.H.H.H.H.H.H.H.H.H.H.H.H.H.H.H.H.H.H.H.P # , >.H.H.H.H.H.H.H.H.m.h       K.",
"K.K.K.K.K.K.K.K.      h a.S.H.H.H.H.H.H.H.H.H.H.H.H.H.H.H.H.{ C 9.C.H.S.H.H.H.H.H.H.H.H.A.O., # A H.H.H.H.H.H.H.H.H.p., o     K.",
"K.K.K.K.K.K.K.K.      # c g.H.H.H.H.H.H.H.H.H.H.H.H.H.H.H.H.h $ i P 3.m.H.H.H.H.H.H.H.H.>.y O h f.H.H.H.H.H.H.H.H.H./ # o   K.K.",
"K.K.K.K.K.K.K.K.K.    # $ U B.H.H.H.H.H.H.H.H.H.H.H.H.H.H.H.) 1 # # 5 x U #.w.f.z.B.p.T 1 # q 3.H.H.H.S.H.H.H.H.C.C.l   o     K.",
"K.K.K.K.K.K.K.K.K.K.    # , ^ C.H.H.H.H.H.H.H.H.H.H.H.H.H.H.H.O.x 7 $ $ # $ q f k x t # # q  .C.H.S.H.H.H.S.H.H.H.r., o o   K.K.",
"K.K.K.K.K.K.K.K.K.K.        7 3.S.H.H.H.H.H.H.H.H.H.S.C.S.H.H.H.H.9.H j 7 1 $ # o o # , v 7.G.H.H.H.H.H.H.H.H.H.H.Q $       K.K.",
"K.K.K.K.K.K.K.K.K.K.K.    #   i 1.S.H.H.H.H.H.H.H.H.z.z.H.H.H.H.C.H.m.c.p.&.E F v v F &.C.C.A.H.H.H.H.H.H.H.H.H.d.d #     K.K.K.",
"K.K.K.K.K.K.K.K.K.K.K.K.      # t O.B.C.H.H.C.z.g.g.d.z.H.H.H.H.H.H.H.H.C.H.C.H.C.H.H.H.H.H.H.H.H.H.H.H.H.H.H.C.F # #     K.K.K.",
"K.K.K.K.K.K.K.K.K.K.K.K.K.      # , N 7.m.m.z.d.a.p.f.B.H.H.H.H.H.H.H.H.H.H.H.H.H.H.G.H.H.H.H.H.H.H.H.H.H.H.H.Q # o     K.K.K.K.",
"K.K.K.K.K.K.K.K.K.K.K.K.K.K.      # # 5 T r.a.d.p.p.z.S.H.H.H.H.H.H.H.H.H.H.H.H.H.S.H.H.H.H.H.H.H.H.H.H.H.H.) ,       K.K.K.K.K.",
"K.K.K.K.K.K.K.K.K.K.K.K.K.K.K.        # $ i ..r.p.d.m.H.H.H.H.H.H.H.H.H.H.H.C.H.H.H.H.S.H.H.H.H.H.H.H.H.H.O.1 o       K.K.K.K.K.",
"K.K.K.K.K.K.K.K.K.K.K.K.K.K.K.K.        o   = g A O.r.g.S.H.A.H.H.H.H.H.H.H.H.H.H.H.H.H.H.H.H.H.H.H.H.C.>.0         K.K.K.K.K.K.",
"K.K.K.K.K.K.K.K.K.K.K.K.K.K.K.K.K.K.  #   # #   # # 1 f F >.z.m.H.H.H.H.H.H.H.H.H.H.H.H.H.H.H.H.m.C.r.T 5 #       K.K.K.K.K.K.K.",
"K.K.K.K.K.K.K.K.K.K.K.K.K.K.K.K.K.K.K.K.  #             # # y c K  .:.r.z.C.m.H.S.H.H.H.H.z.9.` H f ,     o     K.K.K.K.K.K.K.K.",
"K.K.K.K.K.K.K.K.K.K.K.K.K.K.K.K.K.K.K.K.K.K.                  # O # # : q f l V P A V V N j -     #   # o   o K.K.K.K.K.K.K.K.K.",
"K.K.K.K.K.K.K.K.K.K.K.K.K.K.K.K.K.K.K.K.K.K.K.K.                  #   o o o   o   o         #   #           K.K.K.K.K.K.K.K.K.K.",
"K.K.K.K.K.K.K.K.K.K.K.K.K.K.K.K.K.K.K.K.K.K.K.K.K.K.K.K.              o   O   o   #       #             K.K.K.K.K.K.K.K.K.K.K.K."
};
