/* XPM */
static char *frame_23_delay_0_05s1763316730[] = {
/* columns rows colors chars-per-pixel */
"64 64 165 2 ",
"   c black",
".  c #010101",
"X  c #020202",
"o  c gray1",
"O  c #040404",
"+  c gray2",
"@  c #060606",
"#  c #070707",
"$  c gray3",
"%  c #090909",
"&  c gray4",
"*  c #0B0B0B",
"=  c #0C0C0C",
"-  c gray5",
";  c #0E0E0E",
":  c gray6",
">  c #101010",
",  c #111111",
"<  c gray7",
"1  c #131313",
"2  c gray8",
"3  c #151515",
"4  c #161616",
"5  c gray9",
"6  c #181818",
"7  c #191919",
"8  c gray11",
"9  c #1E1E1E",
"0  c #202020",
"q  c #222222",
"w  c #232323",
"e  c gray14",
"r  c gray15",
"t  c #272727",
"y  c #282828",
"u  c #2A2A2A",
"i  c #2C2C2C",
"p  c #2D2D2D",
"a  c #2F2F2F",
"s  c #313131",
"d  c #323232",
"f  c #323136",
"g  c gray22",
"h  c #3A3A3A",
"j  c #3D3C41",
"k  c gray28",
"l  c #494949",
"z  c #4A494E",
"x  c #4F4F50",
"c  c gray33",
"v  c gray35",
"b  c #5C5C5E",
"n  c #606060",
"m  c #626166",
"M  c gray40",
"N  c #68676B",
"B  c gray42",
"V  c gray43",
"C  c #707072",
"Z  c gray45",
"A  c #787779",
"S  c gray48",
"D  c #7C7C7C",
"F  c gray49",
"G  c #7E7E7E",
"H  c gray50",
"J  c #808083",
"K  c #838384",
"L  c #868686",
"P  c gray53",
"I  c #888888",
"U  c #898989",
"Y  c gray54",
"T  c #8B8B8B",
"R  c #8D8D8D",
"E  c #8E8E8E",
"W  c gray57",
"Q  c #939393",
"!  c gray58",
"~  c #959595",
"^  c #979699",
"/  c #9A9A9A",
"(  c gray61",
")  c gray62",
"_  c #A0A0A0",
"`  c gray63",
"'  c #A2A2A2",
"]  c #A4A4A6",
"[  c #A7A6A7",
"{  c #A9A9A9",
"}  c #AAAAAA",
"|  c gray67",
" . c #ACACAC",
".. c #AEAEAE",
"X. c gray69",
"o. c #B2B2B2",
"O. c gray70",
"+. c #B4B4B4",
"@. c gray71",
"#. c #B6B6B7",
"$. c #B8B7BA",
"%. c gray73",
"&. c #BCBCBC",
"*. c gray74",
"=. c gray",
"-. c gray75",
";. c #C0C0C0",
":. c #C1C1C1",
">. c #C3C3C3",
",. c #C5C5C5",
"<. c #C6C6C6",
"1. c gray78",
"2. c #C8C8C8",
"3. c gray79",
"4. c #CACACA",
"5. c gray80",
"6. c #CDCDCE",
"7. c gray81",
"8. c #D1D0D1",
"9. c #D2D2D2",
"0. c LightGray",
"q. c gray83",
"w. c #D5D5D5",
"e. c #D6D5D7",
"r. c #D8D8D8",
"t. c #DADADB",
"y. c #DDDDDD",
"u. c #DFDFDF",
"i. c #E1E0E1",
"p. c #E1E1E1",
"a. c #E2E2E2",
"s. c gray89",
"d. c #E4E4E4",
"f. c #E6E5E6",
"g. c #E7E7E7",
"h. c gray91",
"j. c #E9E9E9",
"k. c #EAEAEA",
"l. c gray92",
"z. c #ECECEC",
"x. c #EEEEEE",
"c. c #EFEFEF",
"v. c gray94",
"b. c #F1F1F1",
"n. c gray95",
"m. c #F4F3F4",
"M. c #F4F4F4",
"N. c gray96",
"B. c #F6F6F6",
"V. c #F7F6F7",
"C. c gray97",
"Z. c #F8F8F8",
"A. c #F9F8F9",
"S. c #F9F9F9",
"D. c #FAF9FA",
"F. c gray98",
"G. c #FBFAFB",
"H. c #FBFBFB",
"J. c #FCFBFC",
"K. c gray99",
"L. c #FDFCFD",
"P. c #FDFDFD",
"I. c #FEFEFE",
"U. c white",
"Y. c None",
/* pixels */
"Y.Y.Y.Y.Y.Y.Y.Y.Y.Y.Y.Y.Y.Y.Y.Y.Y.Y.Y.Y.                                      Y.Y.Y.Y.Y.Y.Y.Y.Y.Y.Y.Y.Y.Y.Y.Y.Y.Y.Y.Y.Y.Y.Y.Y.Y.",
"Y.Y.Y.Y.Y.Y.Y.Y.Y.Y.Y.Y.Y.Y.Y.Y.                                                    Y.Y.Y.Y.Y.Y.Y.Y.Y.Y.Y.Y.Y.Y.Y.Y.Y.Y.Y.Y.Y.Y.",
"Y.Y.Y.Y.Y.Y.Y.Y.Y.Y.Y.Y.Y.Y.                    o O $ O o o   O o o                       Y.Y.Y.Y.Y.Y.Y.Y.Y.Y.Y.Y.Y.Y.Y.Y.Y.Y.Y.",
"Y.Y.Y.Y.Y.Y.Y.Y.Y.Y.Y.Y.                        $ 5 i s k k l s 7 * O #                     Y.Y.Y.Y.Y.Y.Y.Y.Y.Y.Y.Y.Y.Y.Y.Y.Y.Y.",
"Y.Y.Y.Y.Y.Y.Y.Y.Y.Y.          O O $ 8 b ~ ) | %.t.k.z.B.m.B.B.z.k.i.0. .K Z v u $ o o           Y.Y.Y.Y.Y.Y.Y.Y.Y.Y.Y.Y.Y.Y.Y.Y.",
"Y.Y.Y.Y.Y.Y.Y.Y.Y.    $     = z Q o.i.V.l.>.U Z l g h l x S o.e.k.B.J.K.K.K.B.b.r.D e o   o       Y.Y.Y.Y.Y.Y.Y.Y.Y.Y.Y.Y.Y.Y.Y.",
"Y.Y.Y.Y.Y.Y.Y.        $ = b >.B.H.Z.4.N 0 * O O   $ $     O = 4 2 0 v ` y.Z.J.B.H.H.k.R 0           Y.Y.Y.Y.Y.Y.Y.Y.Y.Y.Y.Y.Y.Y.",
"Y.Y.Y.Y.Y.Y.        O h <.m.H.K.a.S 4 * O O 7 s b N V N c r = O o O O * 7 c C K R ( o.1.o.h o         Y.Y.Y.Y.Y.Y.Y.Y.Y.Y.Y.Y.Y.",
"Y.Y.Y.Y.Y.        = b 4.Z.J.y.Z r   O w S 4.k.B.K.K.K.K.H.z.0.#.` Z j * O O = O O O $ $ > = o           Y.Y.Y.Y.Y.Y.Y.Y.Y.Y.Y.Y.",
"Y.Y.Y.Y.  o O   1 D >.>.z.| u O   7 V s.H.J.K.K.K.K.K.K.K.K.K.K.K.H.v.4.W c j s r 2 $ = $ O o     o       Y.Y.Y.Y.Y.Y.Y.Y.Y.Y.Y.",
"Y.Y.Y.    O   h [ >.<.*.n 1 O 4 B 6.V.J.K.K.K.K.K.K.K.K.K.K.K.K.K.K.K.J.K.K.b.l.k.y.*.( K K A M c 6 O O     Y.Y.Y.Y.Y.Y.Y.Y.Y.Y.",
"Y.Y.      o c #.%.4.| l 2 O g <.m.K.K.K.K.K.K.K.K.K.K.K.K.K.K.K.K.K.K.K.K.K.H.H.*.l 9 4 = 1 8 s H X.p O       Y.Y.Y.Y.Y.Y.Y.Y.Y.",
"Y.        l >.<.<.U 0 O $ c <.a.H.J.H.B.r.#.B k b / y.K.H.K.K.K.K.K.K.K.K.K.y.n 2 O   $ = $ O o $ 9 V 2       Y.Y.Y.Y.Y.Y.Y.Y.Y.",
"Y.      r #.>.;.B 1 $ 9 S *.<.<.6.<.K j 4 1   O O $ 9 J B.K.K.K.K.K.K.K.K.r.f O $ d R X.>.#./ x 5 O 9 N $ o #   Y.Y.Y.Y.Y.Y.Y.Y.",
"    O O ~ <.4.N = $ s _ 4.*.>.$.B 9 # O # O r c h : O > D K.K.K.K.K.K.K.z.h O > T d.H.K.H.B.B.z.1.t O V j         Y.Y.Y.Y.Y.Y.Y.",
"    O p <.>.<.v O k #.5.>.>. .j * O 7 k P #.t.z.k.>.k $ 9 a.K.K.K.K.K.K.~ O : [ B.Z.J.v.^ v I g.J.I $ d O.=       Y.Y.Y.Y.Y.Y.Y.",
"    o N >.<.<.#.` >.<.<.*.%.c $ O c e.c.q.D M ( m.H.0.7 o ( K.K.K.K.K.K.l   M b.K.K.v.x = O = ( K.$.O 1 g.D $ o     Y.Y.Y.Y.Y.Y.",
"O O = | >.<.>.<.<.>.<.<.4.Q $ $ M z.J.y.u O O = [ H.B.j   l K.K.K.K.K.K.z   H H.K.K./ = O O o ! K.7.O 1 a.d.p     O   Y.Y.Y.Y.Y.",
"    9 #.<.>.>.<.<.2.<.2.4.c   s k.H.H.Z O O O # Q H.Z.c o e k.K.K.K.K.K.c O k z.K.K.~ # # O t y.V.I $ r t.z.o.1 O     Y.Y.Y.Y.Y.",
"O O p 4.<.<.<.<.<.<.2.<.<.h O Z H.H.m.v O O O h y.Z.%.7 $ r h.K.K.K.K.K.R $ $ j *.H.b.~ v C <.d.S 1 o c l l k.v   o o   Y.Y.Y.Y.",
"    s <.<.<.<.<.<.2.<.2.4.h   v B.K.H.#.l z K 5.>.M 9 O O j B.K.K.K.K.K.v.k O O 4 B 4.z.V.t.Q j $ O p ` 5 = y.y.s o     Y.Y.Y.Y.",
"    s 4.<.<.1.<.2.<.2.<.4.V   1 Z #.0.2. .` Z h 4       O ~ K.K.K.K.K.K.J.y.r O   O 1 h k u # $ O l *.U $ 9 z.K.` $ o     Y.Y.Y.",
"    s <.1.1.1.1.<.2.<.2.2.B O O O 2 7 7 4 O $   $   O   y y.K.K.K.K.K.K.K.K.| 4 O   O O o # $ p K e.y.v $ N K.K.z.0 o     Y.Y.Y.",
"O o s 4.1.1.1.1.2.<.2.4. .= O 4 7 O O O     9 h j $   $ | K.K.K.K.K.K.K.K.K.K. .u   O   * j T 1.y.y.a.$.v t.K.K.J.N         Y.Y.",
"  O s 4.<.<.1.1.1.1.1.1.%.0 $ = n Z M Z K / ] k 7 O > ^ B.K.K.K.K.K.K.K.K.K.K.K.4.j $ O $ 9 t p  .z.H.K.K.K.K.K.K.#.$       Y.Y.",
"O   9 4.1.1.1.1.1.1.1.1.6.K 7 $ C #.#.5.t.a.C   o 2 ` K.K.K.K.K.K.K.K.K.K.K.K.K.K.k.U p O O   $ R K.K.K.K.K.K.K.K.v.r       Y.Y.",
"  O = | 1.1.1.1.1.1.1.1.<.<.o.K *.u.k.k.g.g. .h N 4.J.K.K.K.K.K.K.K.K.K.K.K.K.K.K.K.J.y. .D N K z.K.K.K.K.K.K.K.K.H.V O O   Y.Y.",
"O   O ` 1.1.1.1.1.1.1.1.4.<.0.a.b.J.K.K.H.H.H.k.H.K.K.K.K.K.K.K.K.K.K.K.K.K.K.K.K.K.K.K.H.H.J.H.K.K.K.K.K.K.K.K.K.K.<.= O O   Y.",
"  O   ~ 1.1.1.1.1.1.4.6.t.k.H.K.K.K.K.K.K.K.K.K.K.K.K.K.K.K.K.K.K.K.K.K.K.K.K.K.K.K.K.K.K.K.K.K.K.K.K.K.K.K.K.K.K.K.b.7 O O   Y.",
"o O O K <.4.<.<.1.e.a.b.K.K.K.K.K.K.K.K.K.K.K.K.K.K.K.K.K.K.K.K.K.K.K.K.K.K.K.K.K.K.K.K.K.K.K.K.K.K.K.K.K.K.K.K.K.K.Z.l O     Y.",
"O   O c >.<.4.4.s.H.H.K.K.K.K.K.K.K.K.K.K.K.K.K.K.K.K.K.K.K.K.K.K.K.K.K.K.K.K.K.K.K.K.K.K.K.K.K.K.K.K.K.K.K.K.K.K.K.K.D   O   Y.",
"O   O h <.4.>.a.b.( e.K.K.K.K.K.K.K.K.K.K.K.K.K.K.K.K.K.K.K.K.K.K.K.K.K.K.K.K.K.K.K.K.K.K.K.K.K.K.K.K.K.K.K.K.K.K.K.K.| O O     ",
"      4 #.1.4.b.( = c K.K.K.K.K.K.K.K.K.K.K.K.K.K.K.K.K.K.K.K.K.K.K.H.H.J.K.K.K.K.K.K.K.H.H.K.H.K.K.K.K.K.K.K.K.K.K.K.y.4   O   ",
"      o D >.4.b.j O Z K.K.K.K.K.K.K.K.K.K.K.K.K.K.K.k.t.e.r.e.4.<.4.>.<.*.>.>.<.>.>.*.*.o. .<.t.B.K.K.K.K.K.K.K.K.K.K.H.h   O   ",
"Y.    o h >.6.0.1 $ <.K.K.K.J.Z.b.a.e.4.4.$.` H n c h e 0 r 4 = = = = $ = $ $ $ $ $ $ O $ O 1 r l S ( %.g.J.K.K.K.K.K.K.c O     ",
"Y.    O $ Q 5.>.$ 9 z.B.a.<.U c j s 8 2 4   O   O o O O     $ = 1 1 1 1 1 = 1 1 1 4 4 4 = = = =   o O O h ~ k.K.K.K.K.K.Z O     ",
"Y.      O h 6.o.  u g.D f = O O = O * $ = 7 0 u j b Z ~ ~ `  .*.>.>.>.<.>.<.>.<.<.<.>.>.>.>.| Z h r 4 O O $ m b.K.K.K.K.~       ",
"Y.Y.    O = [ | O h K $ O > r z Z I ( X.*.4.t.a.Z.J.J.H.K.K.K.K.K.K.H.K.K.K.K.K.K.K.K.K.K.K.K.K.b.t.6.~ f O O V K.K.K.K.o.O     ",
"Y.Y.    o o h ( o i ] g N %.t.H.K.K.K.K.K.K.K.K.K.K.K.K.K.K.K.K.K.K.K.K.K.K.K.K.K.K.K.K.K.K.K.K.K.K.K.K.g.n O 4 0.K.K.K. .o     ",
"Y.Y.Y.  O   = S * $ t.g.K.H.B.K.K.K.K.K.K.K.K.K.K.K.K.K.K.K.K.K.K.K.K.K.K.K.K.K.K.K.K.K.K.K.K.K.K.K.K.K.K.a.0 O ` K.K.K.| O o   ",
"Y.Y.Y.      O h u O Z B.H.K.K.K.K.K.K.K.K.K.K.K.K.K.K.K.K.K.K.K.K.K.K.K.K.K.K.K.K.K.K.K.K.K.K.K.K.K.B.H.b.%.t   ` K.K.K./       ",
"Y.Y.Y.Y.      = z   8 6.K.K.K.K.K.K.K.K.K.K.K.K.K.K.K.K.K.K.K.K.K.K.K.K.K.K.K.K.K.K.K.K.K.K.K.K.K.K.z.#.c = O 4 0.K.K.K.Z       ",
"Y.Y.Y.Y.      $ h p $ n J.K.K.K.K.K.K.K.K.K.K.K.K.K.K.K.K.K.K.K.K.K.K.K.K.K.K.K.K.K.K.K.K.K.K.K.K. .j : O O r [ J.K.K.K.v O O   ",
"Y.Y.Y.Y.Y.      = N = k J.K.K.K.K.K.K.K.K.K.K.K.K.K.K.K.K.K.K.K.K.K.K.K.K.K.K.K.K.K.K.K.K.K.K.K.` = $ 1 p K t.K.K.K.K.H.h O     ",
"Y.Y.Y.Y.Y.    O O j [ 7.K.K.K.K.K.K.K.K.K.K.K.K.K.K.K.K.K.K.K.K.K.K.K.K.K.K.K.K.K.K.K.K.K.K.H.5.7 $ h [ g.K.K.K.K.K.K.g.9       ",
"Y.Y.Y.Y.Y.Y.    O O [ K.K.K.K.K.K.K.K.K.K.K.K.K.K.K.K.K.K.K.K.K.K.K.K.K.K.K.K.K.K.K.K.K.K.K.B.l   u 0.H.K.K.K.K.K.K.K.4.O       ",
"Y.Y.Y.Y.Y.Y.  O O   s z.K.K.K.K.K.K.K.K.K.K.K.K.K.K.K.K.K.K.K.K.K.K.K.K.K.K.K.K.K.K.K.K.K.H./ $ $  .K.K.K.K.K.K.K.K.K.U O O   Y.",
"Y.Y.Y.Y.Y.Y.Y.O   O $ o.K.K.K.K.K.K.K.K.K.K.K.K.K.K.K.K.K.K.K.K.K.K.K.K.K.K.K.K.K.K.K.K.K.B.p O c H.K.K.K.K.K.K.K.K.B.j       Y.",
"Y.Y.Y.Y.Y.Y.Y.O   O O j g.H.K.K.K.K.K.K.K.K.K.K.K.K.K.K.K.K.g.U  .b.B.K.K.K.K.K.K.K.K.K.H.` O 1 4.K.K.K.K.K.K.K.K.K.g.1       Y.",
"Y.Y.Y.Y.Y.Y.Y.Y.    O O x v.K.K.K.K.K.K.K.K.K.K.K.K.K.K.K.K.R O > j ( y.H.K.K.K.K.K.K.K.0.e $ c b.K.K.K.K.K.K.K.K.K.[ O     Y.Y.",
"Y.Y.Y.Y.Y.Y.Y.Y.Y.    O $ U J.K.K.K.K.K.K.K.K.K.K.K.K.K.H.b.$.r O O $ 0 c ` t.B.K.J.k. .y O 9 e.K.K.K.K.K.K.K.K.K.K.l   o     Y.",
"Y.Y.Y.Y.Y.Y.Y.Y.Y.        > | K.K.K.K.K.K.K.K.K.K.K.b.g.e.0.>.#.J g 1 $ O $ e M D S j = $ 5  .J.K.K.K.K.K.K.K.K.K.g.1 O     Y.Y.",
"Y.Y.Y.Y.Y.Y.Y.Y.Y.Y.    O O 9 0.K.H.K.K.K.H.H.b.y.7.4.4.<.<.>.4.z.z.>.D s 1 O O O O O O p *.K.K.K.K.K.K.K.K.K.K.K.~ O       Y.Y.",
"Y.Y.Y.Y.Y.Y.Y.Y.Y.Y.Y.    O   i 0.K.K.K.b.a.4.4.4.4.<.<.<.<.1.h.K.K.K.H.b.%.M h e 0 l ~ k.K.K.K.K.K.K.K.K.K.K.K.l.s O o   Y.Y.Y.",
"Y.Y.Y.Y.Y.Y.Y.Y.Y.Y.Y.Y.      o i *.v.t.<.<.<.1.<.<.<.<.>.<.t.K.J.K.K.K.K.K.B.H.z.b.H.H.K.K.K.K.K.K.K.K.K.K.K.H.H O o     Y.Y.Y.",
"Y.Y.Y.Y.Y.Y.Y.Y.Y.Y.Y.Y.Y.      O $ c | <.<.<.<.<.<.<.<.<.7.m.K.K.K.K.K.K.K.K.K.K.K.K.K.K.K.K.K.K.K.K.K.K.K.K.( = O o   Y.Y.Y.Y.",
"Y.Y.Y.Y.Y.Y.Y.Y.Y.Y.Y.Y.Y.Y.      O O 2 S ;.>.<.<.<.<.1.0.b.K.K.K.K.K.K.K.K.K.K.K.K.K.K.K.K.K.K.K.K.K.K.K.Z.[ 4 o     Y.Y.Y.Y.Y.",
"Y.Y.Y.Y.Y.Y.Y.Y.Y.Y.Y.Y.Y.Y.Y.      O O $ a Q >.<.<.<.<.z.K.K.K.K.K.K.K.K.K.K.K.K.K.K.K.K.K.K.K.K.K.K.K.K.#.4 #       Y.Y.Y.Y.Y.",
"Y.Y.Y.Y.Y.Y.Y.Y.Y.Y.Y.Y.Y.Y.Y.Y.      O o O $ s N Q %.0.H.K.K.K.K.K.K.K.K.K.K.K.K.K.K.K.K.K.K.K.K.K.K.J.4.9 o       Y.Y.Y.Y.Y.Y.",
"Y.Y.Y.Y.Y.Y.Y.Y.Y.Y.Y.Y.Y.Y.Y.Y.Y.Y.o     o o   O O 6 g J 6.B.H.K.K.K.K.K.K.K.K.K.K.K.K.K.K.K.K.B.J.a.U 7 o       Y.Y.Y.Y.Y.Y.Y.",
"Y.Y.Y.Y.Y.Y.Y.Y.Y.Y.Y.Y.Y.Y.Y.Y.Y.Y.Y.Y.O O         o   $ $ p v U #.<.a.B.B.H.K.K.K.K.K.K.B.r.` J j 1   o o     Y.Y.Y.Y.Y.Y.Y.Y.",
"Y.Y.Y.Y.Y.Y.Y.Y.Y.Y.Y.Y.Y.Y.Y.Y.Y.Y.Y.Y.Y.              O   O O o $ O = 9 h c V U S Z Z B j = O O O O   o     Y.Y.Y.Y.Y.Y.Y.Y.Y.",
"Y.Y.Y.Y.Y.Y.Y.Y.Y.Y.Y.Y.Y.Y.Y.Y.Y.Y.Y.Y.Y.Y.Y.Y.                  O O   O O       O O   O   O   O           Y.Y.Y.Y.Y.Y.Y.Y.Y.Y.",
"Y.Y.Y.Y.Y.Y.Y.Y.Y.Y.Y.Y.Y.Y.Y.Y.Y.Y.Y.Y.Y.Y.Y.Y.Y.Y.Y.Y.                  O       O       O   O         Y.Y.Y.Y.Y.Y.Y.Y.Y.Y.Y.Y."
};
