/* XPM */
static char *_faf61d307824d459ecfa2e814f5716bI78NeZYecvOQmWqg[] = {
/* columns rows colors chars-per-pixel */
"64 64 256 2 ",
"   c #190301",
".  c #191914",
"X  c #16120B",
"o  c #270804",
"O  c #330C06",
"+  c #29160A",
"@  c #36140A",
"#  c #271C12",
"$  c #381D14",
"%  c #2A2517",
"&  c #372618",
"*  c #38321D",
"=  c #35280E",
"-  c #382D23",
";  c #3C3425",
":  c #383528",
">  c #3D3B33",
",  c #2C2E24",
"<  c #41170F",
"1  c #451812",
"2  c #541F1A",
"3  c #432A1D",
"4  c #472618",
"5  c #56231B",
"6  c #46351B",
"7  c #57381A",
"8  c #552D0D",
"9  c #6D311B",
"0  c #582B21",
"q  c #483827",
"w  c #5B3424",
"e  c #563726",
"r  c #463C34",
"t  c #4F352B",
"y  c #663B27",
"u  c #793628",
"i  c #7B3633",
"p  c #682A24",
"a  c #70451C",
"s  c #57442A",
"d  c #494437",
"f  c #5B4B33",
"g  c #574837",
"h  c #55492F",
"j  c #634324",
"k  c #64432C",
"l  c #694729",
"z  c #764A2A",
"x  c #78522D",
"c  c #6C4C33",
"v  c #674936",
"b  c #734C34",
"n  c #794D35",
"m  c #66543A",
"M  c #745234",
"N  c #7C5433",
"B  c #7C5B3B",
"V  c #775739",
"C  c #6C502B",
"Z  c #78623C",
"A  c #4B4B44",
"S  c #595349",
"D  c #565851",
"F  c #574D44",
"G  c #6A5846",
"H  c #7B5C43",
"J  c #755C46",
"K  c #685C55",
"L  c #725A55",
"P  c #79644A",
"I  c #686258",
"U  c #786956",
"Y  c #70654D",
"T  c #6B6B67",
"R  c #7A7569",
"E  c #7D7875",
"W  c #756B68",
"Q  c #5D645A",
"!  c #3E4137",
"~  c #91382C",
"^  c #84241C",
"/  c #874C29",
"(  c #934B2D",
")  c #88542B",
"_  c #94542C",
"`  c #9C5D2C",
"'  c #97582A",
"]  c #894937",
"[  c #964737",
"{  c #845434",
"}  c #8A5434",
"|  c #8B5A34",
" . c #8B543B",
".. c #8C5B3B",
"X. c #835A37",
"o. c #945433",
"O. c #945C33",
"+. c #9B5C34",
"@. c #935B3B",
"#. c #9C5C3A",
"$. c #985539",
"%. c #A35D3C",
"&. c #A45C36",
"*. c #A45132",
"=. c #8C633B",
"-. c #896438",
";. c #94633C",
":. c #9C623C",
">. c #986537",
",. c #9E612D",
"<. c #A6642C",
"1. c #A36434",
"2. c #AC6B35",
"3. c #A3643C",
"4. c #AB6B3C",
"5. c #A76739",
"6. c #B56D38",
"7. c #AE713C",
"8. c #B4723C",
"9. c #BA733B",
"0. c #B5682E",
"q. c #904D1E",
"w. c #C5753A",
"e. c #845C43",
"r. c #985C42",
"t. c #9A4843",
"y. c #A65945",
"u. c #B45749",
"i. c #B2544C",
"p. c #836344",
"a. c #886849",
"s. c #9B6542",
"d. c #9B6A44",
"f. c #946D4C",
"g. c #986A47",
"h. c #9C734B",
"j. c #876C56",
"k. c #936C54",
"l. c #877459",
"z. c #9C7452",
"x. c #977759",
"c. c #8C724E",
"v. c #A36B44",
"b. c #A86846",
"n. c #B56B47",
"m. c #A4734B",
"M. c #AB744C",
"N. c #AB7748",
"B. c #B47443",
"V. c #BB7B4C",
"C. c #B77748",
"Z. c #B96A55",
"A. c #AC7B53",
"S. c #A67855",
"D. c #B87755",
"F. c #AB6C52",
"G. c #877867",
"H. c #977963",
"J. c #857C76",
"K. c #90766F",
"L. c #A87E6B",
"P. c #C47B46",
"I. c #C36759",
"U. c #C6785B",
"Y. c #D27F41",
"T. c #C97963",
"R. c #CB6E63",
"E. c #7E817F",
"W. c #A9825B",
"Q. c #BA8354",
"!. c #BC845C",
"~. c #B8865A",
"^. c #BF9259",
"/. c #978269",
"(. c #898374",
"). c #968778",
"_. c #9F907F",
"`. c #A78666",
"'. c #B88B66",
"]. c #BB936A",
"[. c #A88B75",
"{. c #B38D73",
"}. c #B89576",
"|. c #AA9478",
" X c #97825E",
".X c #C7844B",
"XX c #D5874A",
"oX c #C68759",
"OX c #D68B55",
"+X c #CA935E",
"@X c #D7935B",
"#X c #E69558",
"$X c #CB8C63",
"%X c #C58965",
"&X c #D58866",
"*X c #C99568",
"=X c #D49868",
"-X c #C79A74",
";X c #D59C73",
":X c #CB8972",
">X c #E69B69",
",X c #C9A279",
"<X c #D6A578",
"1X c #D5A871",
"2X c #E7A979",
"3X c #E7A873",
"4X c #8A8684",
"5X c #958D8A",
"6X c #9B9489",
"7X c #989997",
"8X c #8A938F",
"9X c #A79888",
"0X c #B79A85",
"qX c #A89B93",
"wX c #AE928C",
"eX c #BAA389",
"rX c #A7A39B",
"tX c #B8A697",
"yX c #A8A08E",
"uX c #ABA8A8",
"iX c #B7ACA4",
"pX c #B8B8BB",
"aX c #B3B2B4",
"sX c #9EA0A6",
"dX c #C49984",
"fX c #C8A886",
"gX c #D7AC85",
"hX c #CCB18C",
"jX c #D8B48B",
"kX c #C7AB96",
"lX c #C9B598",
"zX c #D7B898",
"xX c #E5B68A",
"cX c #E8BB96",
"vX c #E7B085",
"bX c #C5ABA3",
"nX c #D6BCA8",
"mX c #CBBBB2",
"MX c #DAC39D",
"NX c #ECC799",
"BX c #D9C5A9",
"VX c #D9C4B6",
"CX c #CEC2B6",
"ZX c #E6C9A5",
"AX c #EDD0AF",
"SX c #B9BBC8",
"DX c #B1BBD2",
"FX c #BCC4D5",
"GX c #BBC3CD",
"HX c #C7C7CA",
"JX c #C6CAD7",
"KX c #D6D0CF",
"LX c #E7D5C9",
"PX c #E4D7D3",
"IX c #E0DCDC",
"UX c #CEBFC8",
/* pixels */
". . . . # % * 3 q ; * d Y /.eXfXjXcXjXfXlXBXLXPXKXiXuX9X9X9XG.K.tXVXBXAXAXAXAXNXNXAXAXAXBXmX6XR D Q Q Q d d d d : : ; ; q q ; > ",
". # & & & & & & & & r q G j.{.-XgXgX,X].hXBXAXLXaX4X).(.(.).G U [.kXlXnXAXZXNXNXxXNXxXMXBXBXlX9XR Q D D A d > > : : ; * * ; - > ",
"3 e w w w w w 0 3 $ $ & 3 v f.'.;X*X].'.fXzXVXCXtXG.R Y G.G.G m G.0X0XeXZXZXjXxX2X2X1X<XjXfXfXkXtXR I D D r , d > : : ; ; q ; > ",
"& w y k c n n b H e.c 4 $ 3 k h.oX*X%X*X,XzXzXeX_.U U f U l.m q U /.|.|.hXNXgX<X2X2X+X+X<X,X-X}.}.eX(.T A > A D d d d g d d d > ",
"% 3 q e c a.a.P H a.k.r.w $ 4 y v.oX*X].-XjXhX|./.J J s U U f q m G././.fXjXgX;X=X1X=X^.*X-X].].}.eX9XT T E 4XE T D d q ; : > ! ",
"# * g j.eXzXzXzXfX[.x.S.s.w 1 4 b M.'.'.].jXfX|.G.G J s J Y f q q Y l.x.}.gXgX=XoX*XoXN.~.'.~.'.'.[.tX5X7X8XE.I A > : * * : , , ",
"q P {.jXzXjXhXnXAXBXkX{.S.e.0 $ 4 { A.*X-XjX}.`.l.G m q Y Y m 6 6 f a.c.].,X<X*XQ.A.v.;.g.g.g.S.S.`.0X9XE I A : % : * : ; - : , ",
"m [.jX,X'.L.x.{.kXVXVXkX}.S.n 4 $ 4  .A.-XfX{.`.l.m m g G Y G q 6 s p.a.].,X*XQ.s.n y w w w y b e.x.H.U g d > - % # # % - ; : > ",
"|.fXW.d.;.a.f.H.[.kXBXzXfX'.m.z 4 4 w ..'.-X{.`.P Y U G U Y Y h 6 s p.=.].<X!.@.y $ + + $ $ 4 4 w c c c v g d r q q - - - & & - ",
"}.m.| ) | ..e.e.H.[.eXfX{.`.A.h...k w c g.A.`.`.l.l.Y m U G m f 6 7 B =.~.'.s.y $ + + $ & 4 e w e e w k c v v v g r r q % % ; ; ",
"h.) ) O.| n y 4 6 G j.H.k.k.z.g.d.;.g.h.m.S.W.`. XU h f Y m f f 6 q B =.m.g.y & $ & 3 e k n e.e.n c k y k c c v v s d r g h * & ",
"z ) :.s.n k 4 + $ & q v c n e.-.=.;.~.*X'.'.'.`.c.m s s Y m f f q q M =.s.n e 4 e j M B a.L.{.[.H.x.a.H H V n b k v f r d g g * ",
"X.d.:.| z w $ + # % % = e y n B X.S.'.~.~.~.S.W.c.m s s Y Y f m s s l N N k j z x X.=.f.`.}.|././.x.x./.x.c.H B V b l e q : q h ",
"m.d.| z y e 3 % - , , g 3 0 k b X.z.h.m.W.m.g. Xc.m h s Y U f m s l k l N X.=.-.-.-.g.x.l.P P a.x.x.x.x. X`.x.p.P B B V l 6 % * ",
"m.;.| z c e & : r > F g g g m J p.a.a.h.S.z.W.`.P m f s P U m m v k k c p.f.g.;.-.-.c.a.f f v M n M V N V c.`.`.x.a.p.a.a.P g ; ",
"X.x 8 7 M e + & % # & q t v v v H c.x.`.x.x.`.c.V m f f U U G J G m f M p.a.=.;.X.B M 7 & q e c n B X.{ x l j B k.L.H.p.H P P Y ",
"a a N =.e.J 3 $ # + # - F G L K.G.j.l.l.a.l./.a.m f m m l.U U l.G G s J H H N X.x j 4 + + @ t v z N x z N B N z j k M a.k.a.J U ",
"z =.d.h.f.x.J t t t t r L K.).)._.9X_.).l.l.l.l.m m Z P /.l.G.G.G.G g J J v k j 7 & & & # o 3 m M N { { x z M C j y 7 7 l V P P ",
";.=.d.A.S.S.{.L.j.U G.K.6XK.G.K I G.G.G././././.U j.P G.G.l./.).G.G f l.P m v 6 = h d - # + & s c V { X.B N -.p.M C j j 7 7 c P ",
";.A.W.m.A.'.dXkXbXbXtXqXwXwX).G.I G J.9X9XyX9X_.l.U l.9XG.(.9X9XG.I U G.G m q q f ; : : # & 3 7 7 j l z N N x N -.B V C C l 7 s ",
"A.;.-.g.`.}.dXdXbXVXLXmXiXiXmXrXqXqXqXqX5X(.R (.).R U yX5X9XrXqX(.R 6XyXG.I g % % % # . # # & e 7 y a a a a a l z b V p.B M V m ",
";.;.h.S.`.{.[.L.kXmXKXLXPXLXCXmXmXiX5X7XqXrXrXrXuXrX7XiX7XuXaX7XE (.6X6XR S F F % . # # # = 3 k B N X.) z z j j j 7 7 l B Z V P ",
"=.h.z.z.{.}.0XtXmXLXLXLXLXLXKXKXmXpXpXpXSXHXHXHXHXHXHXSXaXaXuX7X8XsXuX7X4X5X4XW S q ; * % ; h J a.a.s...X.B M l j j 7 7 l Z Z Z ",
"z.f.z.{.[.L.wXbXqXqXiXmXVXLXLXmXKXHXHXKXHXHXJXJXHXGXJXJXJXGXaXsXpXGXGXSXSXaXaXsXJ.G g ; * d G j.j.k.a.X.B H P P J H V l s C p.P ",
"X.f.`.}.H.wXwXwXtXbXtXtXVXVXLXPXKXHXHXKXJXHXJXJXJXJXJXJXFXDXJXJXFXFXFXJXJXKXKXUXmX9XG.U I Y U U l.j.j.l.j.J P J J P P P B V P j.",
"x.}.}.L.H.j.K.5XtXmXVXVXnXnXBXVXLXPXPXIXHXSXpXpXSXSXJXJXFXJXJXDXDXFXJXJXKXIXIXLXmXbXqX).R I U K L J P G.U I Y J J J J P j.a.B J ",
"fX}.z.k.k.H.|.0XnXnXVXAXnXlXfX0X0XkXCXCXmXmXaXuXrX4XuXpXHXSXSXDXJXJXKXPXLXLXLXLXVXtX6XG.U K S F F G G G G G Y J P U J J J V m G ",
"'.W.L.S.L.{.0X0X0X0XeXkXzXkX0X{.x.H.l.(.tXqXqX5X4XW 4X5XuXsXSXJXJXKXKXVXBXnXzXnXnXnXkXtXqX6XJ.G.G.Y G G m m J J P J J H a.H P G ",
"`.-X].'.{.}.}.{.0XkXhXhXhX-Xz.N l l k s d I G.G.K W J.4XuXuX7X5XE W U P c.x.x.x.x.`.|.kXlXlXtX9X[.H.H.j.P H J m c V B V p.p.P P ",
",X-X%X-XgX-XfXzXcXZXcXgX'.m.;.=.X.l k f g G.6XR K W J.5X5XE K g h s g f V H a.j.j.a.f.k.k.k.k.f.a.a.c.a.a.a.a.p.p.e.p.B p.c.c.P ",
"-X'.'.%XgXxXZXZXNXcX<X~.A.'.*X~.m.X.v F I E E J.5X4XE 4XJ.I g s s s s f m V H H p.a.a.f.S.S.f.h.h.h.S.z.S.`.W.W.`.`.`.z.x.x.c.H.",
"-X<XxXcXcXxXxXxX<X%XM.~.;X2X>XoX;.M U R 4X7XaXHXuX4XT K K S f m c c k j z x N N N N =.g.S.~.'.*X*X*X*X-X;X,XgXxX,X-X'.z.f.f.c.c.",
"cXcXxXxXvXxXvX*XQ.oX$X<X1XoX8.5.X.J W 8XpXIXJXaX7XT A : - q f v c c x { ) ) O.O.| { | | | :.M.!.=X<X=X*X<X<X<X<X-X-X,XgX,X].W.x.",
"vXvX2X3X3X;X=X+X@X=X@X.XC.C.C.m.M G J.4XR E I D D A d ; = 6 s c M N { / o.#.3.v.>.<.1.1.5.5.v.B.B.Q.$X=X=X1X2X2X2X2X<X1X<X<X,X}.",
"2X3X>X>X@XOX@X=X#XOXw.P.V.8.5...e g d d F r : , , , * = = 6 e b X...| @.O.+.1.5.1.2.8.8.7.7.B.C.B.7.C.oXoX+X=X=X=X=X;X2XvXvXgXfX",
"=X>X>X>XOXXXOXOXY.w.w.XX.XQ.;.8 & r D D r % . X . % % % * 6 e M ..s.:.O.:.3.1.` ' ` <.<.2.2.2.2.2.1.,.` 4.V..XU.V.oX$X$XoX*X-X,X",
"#X#X#XXXXXOXXXw.w.XXOXOXXXN.j @ o r D d # X . . . % : ; q s s b  . .| @.+.+.+.,.,.<.2.2.8.6.6.9.9.8.B.8.4.B.A.Q.!.!.;X<X<XvX<X-X",
"OXY.w.XX#XXX0.w.Y.XXY.Y.P.5.l @ + r r : - : : : : : : * q s k b B X.{ } @.+.O.O.O.,.1.2.8.8.6.6.9.9.P.V.C.B.C.!.!.^.*X*X*XoX<XxX",
"XXXX#X#Xw.` 9.P.P.P.w.w.9.3.V 4 - - - & - : , % % % % & q e s c V e.s.@.@.@.| | >.>.>.>.7.B.8.6.0.6.6.8.2.) / +.N.5.:.A.oXQ.Q.~.",
"XXXX#Xw.' 9.V.C.C.P.w.P.9.+.e.k & & & = % * q e c n  .r.r.r.r.r.g.h.b.b.d.d.s.@.| ) { >.` 1.6.9.9.9.6.2.8..X6.2.B..XV.C.V.C.!.-X",
"P.@XP.` P.V.5.b.B.w.w.P.9.+.g.M e w w y 9 ~ ( ( ] [ $.$. .} } / @.h.s.@.#.s.s.s.s.=.{ / / _ ' <.6.9.9.9.9.6.P.P.P.oX=X=X<X<X*X*X",
"@X8.` 8.4.q./ 3.B.6.P.XXP.1.s.N 4 y } } @.A.A.W.v.v.v.M.A.~.*XA.,XfX].S.s.....@.@.@.| { { / _ _ 5.6.6.9.9.6.C.P.8.4.B.V.oX~.~.z.",
"B.1.5.' _ ' ` 4.P.C.P.OXV.' #.z z  .m.z.,XfX}.hXzXjX,XgXhXzXMXzXBXBXlXfX}.f.y y X.....{ { ) / _ _ n.B.B.9.6.8.B.C.b.O.) O.>.h.x.",
"2.5.` ' 5.' 5.oXP.P.P.V.3._ @. .z ..'.}.lXlXhXMXBXZXBXZXMXZXAXlXlXBXzX[.eX[.&   k X.s.s...{ x { } #.M.V.C.6.2.4.b.V.M.:.>.| =.f.",
"8.8.<.<.` B.P.V.V.B.C.B.+./ @.@.z y `.}.lXBXlXMXBXBXBXBXzXMXkXl.U 0X[.@ t :       @ n s.d...{ b n { v.M.C.8.5.5.5.4.V.!.N.N.m.z.",
"7.` ` <.6.9.C.V.B.5.4.5.) / s.r.u 5 k.`.G.g q G./.H.& + e t     o + + o o     o     5  .d.s.r. .y z s.N.V.V.8.&.` ` 3.V.N.>.| N ",
"1.' <.0.6.6.B.C.4.3.3.O.{ / b.$.1 o o         o o o O O O O O o + + O O o o o o O o < y } s.b.| 9 z ;.M..XP.V.8.` ` ,.v.D.A.d.a.",
">.1.<.0.2.6.B.:.>.1.O.O.} $.s.} O o o       O @ @ @ 1 < 1 < < @ @ @ @ @ O O O @ 7 7 j x z r.D.z 9 z @.v..XoX.XC.4.1.,.>.v.C.!.W.",
"` ` 6.2.9.2.+.O.O.+._ o./ @.r.{ o o o o   O @ 1 < 2 0 5 2 2 2 1 1 < < < < 1 < @ { X.h.h.s.M.D.{ x z } :.C.+XoX.XC.9.8.1.3.1.A.A.",
"+.5.2.2.4.' O.O.O.O.#.o./ @.r.{ o O @ O @ 1 0 0 0 0 p y p p p 5 5 5 2 2 5 2 2 0 X.h.d.;.m.!.M.| N z / @.m.!.@X+X.XV.9.4.5.5.v.m.",
"4.4.4.4._ o.:.} O.o.3./ / @.b. .@ 8 8 8 c 5 y i i i i ~ i i i i u u i i p u a.S.{.hXQ.a D.%XA...{ { { } d.A.oX+X@XoX.XC.B.5.3.m.",
"b.4.1.` _ :.@./ #.#.3./ } @.F.b.8 l N x f.y p ] ] t.t.t.t.t.~ [ [ ~ y.t.~ u ].].hXMX+X` %X%XM...{ ..X.{ @.>.M.oX$X+X=XoXV.N.v.h.",
"b.3.+.' 3.:.o.} :.3.:.) } @.F.Z.9 N `.S.S.S.] y.y.i.i.i.u.i.i.i.i.i.[ [ u ] ].jXfX<XQ.v.%X!.m.........{ { | ;.M.Q.$X*XoX$XQ.A.m.",
"5.O.O.>.:.:.O.O.3.+.>.>.} @.D.Z.9 =.,XfX,XdXu [ Z.I.Z.I.I.R.I.I.I.u.t.~ p S.fXzXxXoXb.C.!.A.b.| @.| g.g.) | O.:.N.oX$X$X+XoXQ.N.",
"O.) O.+.3.3.3.+.+._ O.+._ #.D.T.o.m.gXgX-X].A.] y.i.i.I.R.R.I.R.Z.[ ~ 9 r.fXjXjXvXU.b.U.D.M.v.@.o.} :.m.;.| | :.N.V.+X=X+XOX.XQ.",
"o.} +.3.b.3.%.o._ / +.` ` 5.D.U.n.oX;X-X,X,X*XF.~ ~ *.i.i.u.u.*.~ ^ u F.,XzXzXgX$Xn.F.%XoXM.v.:._ _ O.s.m.d...;.m.Q.oX=X=X@XoXoX",
"} $.%.%.3.%.( / _ O.' ` &.5.n.I.%.3.n.oX,X,X,Xs.u ^ ~ ~ ~ ~ ~ ( ~ ^ 9 ].zXhXxX;Xn.*.D.%X%XV.B.4.&.' _ o.:.v.b.s.v.N.!.=X=X=X=X=X",
"$.r.y.%.#.( ( o.o._ &.&.4.3.n.Z.I.[ ( B.;XfXhXhX .9 u @.b.%XF.-X'.S.`.hXzX<X$XZ.[ y.D.$X$XoXC.B.5.5.1.' +.#.b.b.v.M.D.$X;X;X=X'.",
"r.y.%.%.( ( $.$.o.+.1.&.&.' 3.n.u.[ ( &.=X-XjXfX-XfXfXhXjXjXjXxXjXjXgX;XxX<XoX%.u.Z.D.%X%XoXoXV.C.4.1.&.O.+.b.b.v.s.;.d.A.A.W.x.",
"b.y.#.o.( #.$.o.%.%.&.&.( o.b.b.y.*.~ ~ u.D.<X,X*X<X,XjXgX;XvXvX;XgX<XU.&XoXU.n.Z.F.M.D.%X%XoXoXV.C.B.4.3.&.3.b.b.M.;.| | =.f.x.",
"b.o.o.o.$.o.+.%.%.%.&.( / #.:.b.b.%.*.^ ^ u.;XD.oX<X*XgXgXoX2X&XoX;X=XZ.Z.Z.D.Z.D.F.b.v.M.!.$X$XoX.XV.C.4.3.%.3.s.M.A.A.m.d.f.k.",
"@.o.$.$.#.#.%.%.%.&.( ( $.#.D.$XoXZ.u.*.*.%.Z.Z.D.$XU.:X:XU.T.R.U.&XT.I.I.T.:XD.D.M.b.3.d.A.%X*X$X+XoXV.B.b.3.#.#.:.M.~.m.m.g.a.",
"@.$.$.#.y.y.%.%.$.( / $.#.U.3X2X;X&XU.Z.Z.Z.Z.U.U.U.U.T.T.U.T.T.T.T.T.T.:X:X:X%X%XD.M.v.d.d.A.%X*X$X$X$XoXD.n.3.' O.:.M.A.d.=.B ",
" .o.y.y.y.y.#.$.( ( $.r.D.3X2X>X>X&X&XU.U.Z.Z.U.T.T.T.T.T.T.T.T.T.T.T.:X*X<X*X%X*X%X!.A.v.:.s.M.!.%X$X$X$XoXD.M.>.>.O.s.S.~.A.z."
};
