/* XPM */
static char *c0b80bc1e7cf4c1482661a1ca98dc902tfJ00Nj7FdZdDXPM[] = {
/* columns rows colors chars-per-pixel */
"64 64 246 2 ",
"   c None",
".  c black",
"X  c #010101",
"o  c #020202",
"O  c gray1",
"+  c #040404",
"@  c gray2",
"#  c #060606",
"$  c #070707",
"%  c gray3",
"&  c #090909",
"*  c gray4",
"=  c #0B0B0B",
"-  c #0C0C0C",
";  c gray5",
":  c #0E0E0E",
">  c gray6",
",  c #101010",
"<  c #111111",
"1  c gray7",
"2  c #131313",
"3  c gray8",
"4  c #151515",
"5  c #161616",
"6  c gray9",
"7  c #181818",
"8  c #191919",
"9  c gray10",
"0  c #1B1B1B",
"q  c gray11",
"w  c #1D1D1D",
"e  c #1E1E1E",
"r  c gray12",
"t  c #202020",
"y  c gray13",
"u  c #222222",
"i  c #232323",
"p  c gray14",
"a  c #252525",
"s  c gray15",
"d  c #272727",
"f  c #282828",
"g  c gray16",
"h  c #2A2A2A",
"j  c gray17",
"k  c #2C2C2C",
"l  c #2D2D2D",
"z  c gray18",
"x  c gray19",
"c  c #313131",
"v  c #323232",
"b  c gray20",
"n  c #343434",
"m  c #353535",
"M  c gray21",
"N  c #373737",
"B  c gray22",
"V  c #3A3A3A",
"C  c #3C3C3C",
"Z  c gray24",
"A  c #3F3F3F",
"S  c gray25",
"D  c #414141",
"F  c gray26",
"G  c #434343",
"H  c #444444",
"J  c gray27",
"K  c #464646",
"L  c gray28",
"P  c #484848",
"I  c #494949",
"U  c gray29",
"Y  c #4B4B4B",
"T  c #4C4C4C",
"R  c gray30",
"E  c #4E4E4E",
"W  c gray31",
"Q  c #505050",
"!  c #515151",
"~  c #535353",
"^  c #555555",
"/  c #565656",
"(  c gray35",
")  c #5A5A5A",
"_  c #5C5B5C",
"`  c gray36",
"'  c #5D5D5D",
"]  c #5F5F5F",
"[  c gray38",
"{  c #626262",
"}  c gray39",
"|  c #646464",
" . c #656565",
".. c gray40",
"X. c #676767",
"o. c #686868",
"O. c DimGray",
"+. c #6A6A6A",
"@. c gray42",
"#. c #6C6C6C",
"$. c #6D6C6D",
"%. c #6D6D6D",
"&. c gray43",
"*. c #6F6F6F",
"=. c gray44",
"-. c #717171",
";. c #727272",
":. c gray45",
">. c #747474",
",. c gray46",
"<. c #767676",
"1. c #777777",
"2. c #797979",
"3. c #7C7C7C",
"4. c gray49",
"5. c gray50",
"6. c #808080",
"7. c #818181",
"8. c #838283",
"9. c gray53",
"0. c #888888",
"q. c gray54",
"w. c gray55",
"e. c #8E8D8E",
"r. c #8E8E8E",
"t. c gray56",
"y. c #909090",
"u. c #919091",
"i. c gray57",
"p. c #929292",
"a. c #939293",
"s. c #939393",
"d. c gray58",
"f. c #959495",
"g. c #959595",
"h. c #969596",
"j. c gray59",
"k. c #979797",
"l. c #989898",
"z. c gray60",
"x. c #9A9A9A",
"c. c #9B9B9B",
"v. c #9C9B9C",
"b. c gray61",
"n. c #9D9D9D",
"m. c gray62",
"M. c #9F9F9F",
"N. c #A0A0A0",
"B. c gray63",
"V. c #A2A2A2",
"C. c gray64",
"Z. c #A5A5A5",
"A. c gray65",
"S. c #A7A7A7",
"D. c gray66",
"F. c #A9A9A9",
"G. c #AAAAAA",
"H. c #ACACAC",
"J. c #AEAEAE",
"K. c gray69",
"L. c #B1B1B1",
"P. c gray70",
"I. c #B4B4B4",
"U. c gray71",
"Y. c #B6B6B6",
"T. c #B7B6B7",
"R. c #B7B7B7",
"E. c gray72",
"W. c #B9B9B9",
"Q. c #BAB9BA",
"!. c gray73",
"~. c #BBBBBB",
"^. c #BCBCBC",
"/. c gray74",
"(. c #BEBDBE",
"). c gray",
"_. c gray75",
"`. c #C0C0C0",
"'. c #C1C1C1",
"]. c gray76",
"[. c #C3C3C3",
"{. c #C5C5C5",
"}. c #C6C5C6",
"|. c #C8C8C8",
" X c gray79",
".X c #CBCBCB",
"XX c #CDCDCD",
"oX c #CECECE",
"OX c gray81",
"+X c #D0D0D0",
"@X c LightGray",
"#X c gray83",
"$X c gray84",
"%X c #D7D7D7",
"&X c #D8D7D8",
"*X c #D8D8D8",
"=X c #D9D8D9",
"-X c gray85",
";X c #DADADA",
":X c gray86",
">X c gainsboro",
",X c #DDDDDD",
"<X c gray87",
"1X c #DFDFDF",
"2X c gray88",
"3X c #E1E1E1",
"4X c #E2E2E2",
"5X c gray89",
"6X c #E4E4E4",
"7X c gray90",
"8X c #E6E6E6",
"9X c #E7E7E7",
"0X c gray91",
"qX c #E9E9E9",
"wX c gray92",
"eX c #ECEBEC",
"rX c #ECECEC",
"tX c gray93",
"yX c #EEEEEE",
"uX c #EFEFEF",
"iX c gray94",
"pX c #F1F1F1",
"aX c gray95",
"sX c #F3F2F3",
"dX c #F3F3F3",
"fX c #F4F4F4",
"gX c gray96",
"hX c #F6F5F6",
"jX c #F6F6F6",
"kX c #F7F6F7",
"lX c gray97",
"zX c #F8F7F8",
"xX c #F8F8F8",
"cX c #F9F8F9",
"vX c #F9F9F9",
"bX c #FAF9FA",
"nX c gray98",
"mX c #FBFAFB",
"MX c #FBFBFB",
"NX c #FCFBFC",
"BX c gray99",
"VX c #FDFCFD",
"CX c #FDFDFD",
"ZX c #FEFDFE",
"AX c #FEFEFE",
"SX c white",
/* pixels */
"                                                                                                                                ",
"                                                                                                                                ",
"                                                                                                                                ",
"                                    #       O   O O O O O O O O # # O =         O                                               ",
"                                > # # # # < O # # = # # O = # O O O O O = O # # 5 > =                                           ",
"                        O y y 5 # O 5 = # = > = # > 8 O O # O # $.*X#Xo.# > = > y = l S 8                                       ",
"                      # y f 5 # = O = = > q # > = # > = f = # = l U U d Z.D.D.P.l c 5 5 > = 8                                   ",
"                  O = > < > y U < 5 = > > # # > g.g.g.g.0.q # 8 5 < 5 y = 5 < Z 4.2.d # > = < <                                 ",
"              = y O < > O *X*X< O # # # # <XcXlXcXcXlXcXcXR.# = 5 = # O < # # y O = d d # 5 # = = > #                           ",
"          y > > # q M _ #XV.M 5 < > L <X*XlX5XyXcXcXcXBXBXlX*X<X5X*X<Xs.U ] f = f > 5 5 = < = > < 8 8                           ",
"        # 5 # y f V.5XcXV.= < < d U 6X*X*X*X*X<X&X*X*XcXcXBXpXpXcXlXlXlXeX[ y > O = = # # # = 8 < # 5                           ",
"        = > # s.BXyXcXlX# 8 # > cXlX*X# # 5 O O O # d cXBXlXBXBXcXlXBXcX0.# O 8 > # < d # = y > = > O                           ",
"    = # 8 = [ cXwXpXM.> O # 5 [.| 5 # < = = > 5 < = > q V.pXcXBXcXlXcX[.> d < 5 5 = < > # # > < < d 8 < <                       ",
"  8 < q y  XpXpXlXg.5 > q q 8 l = > 8 > 5 8 U L U q > 8 > [ cXlXcXc.y < # B 8 > 5 O 2.# = = f R > < < > < S                     ",
"  = d 8 7.cXlXlX5Xy = f # 5 l > 5 5 O 8 < ~ cXlXcX) c < = U pXwXyXy 5 = < @X] # 5 = 5 < 5 = d lXy = > > y >                     ",
"  5 # 5 lXlXBXV.= < 5 O = < # < < O = = # v.cXlXNXcX<X< 8 R cXcXt.# 5 > ^.yXwXs.> > < < O > d cXXXg.l = O > = y                 ",
"  # = > lXV.c < y > > # # q ] = # = = U Z.lXlXcXXXs.c < 5 U cXBXg.# < = S yXcXlXcX4.-.o.| 6XlXlXlXlXR 8 < # # =                 ",
"  # # c cXy < y O O # # = S Z.R L U U D.cXpXcX*X| # < 8 q $.cXlXH.= q 5 > V.!.5XyXcXBXBXcXlXpXcX*XR.B 8 = < = < 5               ",
"  = # g.cX!./ f !.!.L O > > q Z.@X@X@X<XV.U ~ d > # = d R.lXcXpXlXc.y < < 5 < d R R U U R R [ U l = > > q l > = 8 <             ",
"  = > t.zXyXcXcXpXyXyXZ.] 5 8 8 q < < = = 8 8 = = 9.M.BXlXlXcXBXcXlXcX{.) O q 8 f > = = = < = > 8 5 # / [.cXD.S < = #           ",
"  < # s.cXyXcXlXlXcXcXBX X5 < q y 5 5 > < 8 > # -.<XzXlXcXlXcXBXcXcXcXcX{.-.d > q > # # # < = # < = / ^.cXlXpXo.= = #           ",
"  > # s.cXcXcXcXcXcXcXcXcX!.U L R R U U R <.5X<XBXBXcXcXpXcXcXBXBXcXBXBXBXcX5X*X#X*X*X*X*X:X<X*X*X<XpXcXlXlXcXwX= = =           ",
"O # < c.BXcXlXcXcXlXlXcXlXlXyXBXlXlXcXcXcXBXcXcXBXBXBXBXBXBXBXBXBXBXBXBXBXBXBXBXcXcXlXlXlXlXlXlXlXcXlXyXyXcXlXyX< = =           ",
"O # -.XXBXlXlXcXcXcXlXlXBXcXpXcXcXcXBXBXBXBXBXBXBXBXBXBXBXBXBXBXBXBXBXBXBXBXBXBXBXBXpXcXlXcXpXyXcXlXcXlXlXlXlXlX| O O           ",
"# # !.pXcXcXlXcXcXcXlXlX] c V.lXlXcXBXBXBXBXBXBXBXBXBXBXBXBXBXBXBXBXBXBXBXBXBXBXBXcXcXcXcXlXlXlXyXlXcXcXlXlXcXBXt.< > <         ",
"O = P.pXcXlXcXcXlXcXcXlX8 5 d cXBXBXBXBXBXBXBXBXBXBXBXBXBXBXBXBXBXBXBXBXBXBXBXBXBXcXBXcXcXpXBXBXcXcXcXlXlXlXcXlX6Xy > 5 8       ",
"O # P.yXcXcXcXBXlXBXcXlX= 8 = c.BXcXBXBXBXBXBXBXBXBXBXBXBXBXBXBXBXBXBXBXBXBXBXBXBXcXpXBXcXpX#X*X~ U U ~ R U R U wX^.M 8 =       ",
"# > R.lXcXpXNXBXBXBXBXBX] = # = $.<.4.cXcXcXcXcXBXBXBXBXBXBXBXBXBXBXBXBXcXBXBXlXlXpX6X-.-.R = # = = < = 8 < > 5 l wXc.# q #     ",
"q # R.cXBXBXBXBXBXBXBXBXBXd # < > 5 < < -.lXcXcXBXBXBXBXBXBXBXBXBXBXBXcXcXlX<X< d < > O # 5 y 8 > 8 < > = # d < 5 *X5X5 # >     ",
"< > f Z.lXpXlXBXBXBXBXBXBX!.L > q 8 5 > 5 l y f d d d d d d d d d d d y d f d > = = > > = # = c s.5X<X*X#X*Xc 5 = *X*X= 5 <     ",
"  > 5 c cXcXlXBXBXBXBXBXcXcXpXo.d f d > = 8 < > # # # # # # = = = = # = 5 8 > d f d f d $.^.P.<XlXlXlX7.S c = > < *XpX/ O <     ",
"  # q < lXlXcXBXBXBXBXBXBXpXlXBXpXcX5X= # > # 8 # # # # # # # # # # # = < = # g.yXBXpXcXyXpX6XyXcXpX<X= 8 > = = -.cXcX$.= 8     ",
"  5 > # !.lXcXBXBXBXBXBXBXcXcXlXBXBXlXpXpXcXcXlXcXBXBXBXcXcXBXBXBXBXBXcXcXcXcXlXBXlXcXcXcXBXcXlXcXcXM.# # 5 = S pXpXpX$.O >     ",
"  < = = ~ pXlXlXcXcXcXcXcXBXBXBXBXBXBXBXBXBXBXBXBXBXBXBXBXBXBXBXBXBXBXBXBXBXBXBXBXBXBXBXBXBXBXBXcX^.# O # | 5XyXcXBXcXg.O = #   ",
"    = > > *XlXlXpXcXpXlXBXBXBXBXBXBXBXBXBXBXBXBXBXBXBXBXBXBXBXBXBXBXBXBXBXBXBXBXBXBXBXBXBXBXBXBXcXR.# O R pXpXlXcXBXlXBX< > > # ",
"    = 5 = | XXlXpXcXlXlXBXBXBXBXBXBXBXBXBXBXBXBXBXBXBXBXBXBXBXBXBXBXBXBXBXBXBXBXBXBXBXBXBXBXBXBXcXR.# O | lXpXlXlXlXlXlX5 = > O ",
"      # y = 2.yXBXcXBXNXcXBXBXBXBXBXBXBXBXBXBXBXBXBXBXBXBXBXBXBXBXBXBXBXBXBXBXBXBXBXBXBXBXBXBXBXBXR.# O o.lXBXyXlXlXcXcXlXM 5 > ",
"      O 8 > y cXpXcXlXcXBXBXBXBXBXBXBXBXBXBXBXBXBXBXBXBXBXBXBXBXBXBXBXBXBXBXBXBXBXBXBXBXBXBXBXBXBXR.# O | BXcXcXcXpXlXcXBXd y 8 ",
"        = < > P.cXcXyXBXBXBXBXBXBXBXBXBXBXBXBXBXBXBXBXBXBXBXBXBXBXBXBXBXBXBXBXBXBXBXBXBXBXBXBXBXcXR.# O o.BXlXcXlXlXlXlXBXc 8 = ",
"        5 # 5 L yXlXlXyXBXBXBXBXBXBXBXBXBXBXBXBXBXBXBXBXBXBXBXBXBXBXBXBXBXBXBXBXBXBXBXBXBXBXBXBXcXR.# = $.BXBXBXBXBXcXcXcXy = # ",
"          # = q # *XyX5XBXBXBXBXBXBXBXBXBXBXBXBXBXBXBXBXBXBXBXBXBXBXBXBXBXBXBXBXBXBXBXBXBXBXBXzXwX!.= = -.BXBXBXBXBXBX6XcXf # < ",
"          > # 5 > ) lXlXBXBXBXBXBXBXBXBXBXBXBXBXBXBXBXBXBXBXBXBXBXBXBXBXBXBXBXBXBXBXBXBXBXBXBXlXc.8 > = $.BXBXBXBXBXcXcXd > > # ",
"              > # q  XlXcXBXBXBXBXBXBXBXBXBXBXBXBXBXBXBXBXBXBXBXBXBXBXBXBXBXBXBXBXBXBXBXBXBXBXlXf 5 = <.#XBXBXBXBXBXcXs.5 < >   ",
"              = O 5 P.cXBXBXBXBXBXBXBXBXBXBXBXBXBXBXBXBXBXBXBXBXBXBXBXBXBXBXBXBXBXBXBXBXBXBXBXpX# = O D.BXBXBXBXBXBXBX[ = # f   ",
"              O = q 8 P.BXBXBXcXBXBXBXBXBXBXBXBXBXBXBXBXBXBXP.s.M.fXcXBXcXBXBXBXBXBXBXcXBXBXcX[.= q d cXcXBXcXBXcXBXlX<.q #     ",
"                = = 8 # 4.lXyXcXcXBXBXBXBXBXBXBXBXBXBXBXBX[.= = = U R.*XcXcXcXlXcXcXlXNXlXcX5X5 > # U lXpXcXcXlXlXlX!.5 > #     ",
"                y = < # ] BXcXlXpXBXBXBXBXBXBXBXBXBXBXBXBX{.= O < = # 4.cXcXcXNXBXlXcXcXNXpX[.= < > ^.lXcXpXcXcXlXcXL < O #     ",
"                    = > = s.cXBXBXBXBXBXBXBXBXBXBXBXBXBXBXBX!.M.> > 8 q o.5XcXcXcXlXcXpXlX[ # = > R lXpXpXcXpXcXcX0.f 5 O       ",
"                      O d > 5 XXcXcXBXBXBXBXBXBXBXBXBXBXBXBXcXBX[.| # > = q <.g.s.g.t.y = > > > Z.cXpXlXlXcXlXlX@X5 = > O       ",
"                      O < > > -.NXlXBXBXBXBXBXBXBXBXBXBXBXBXcXcXlX@X8 > = O = < O < 8 = # # > c BXlXpXcXcXlXBXBX-.O = >         ",
"                          > > = t.yXcXcXBXcXBXcXcXcXcXBXpXBXBXBXBXcX XR.d 5 5 > # 5 # 5 q ~ ^.5XcXlXlXcXcXlX6X7.# O O           ",
"                            > 8 < d @XlXyXlXcXBXBXlXlXBXpXBXBXBXBXBXcXlXcXH.c.g.s.s.g.t.{.cXyXcXcXlXlXcXcXlXR 5 5 # 5           ",
"                            O = > > o. XyXlXcXBXcXpXBXcXpXBXBXBXBXBXBXcXcXpXcXcXyXyXBXBXlXcXlXcXNXcXlXcXlX<XM q 5 #             ",
"                              < = = < 8 f V.9XcXlXlXcXpXBXBXBXBXBXBXBXcXlXcXcXcXlXlXcXcXcXlXpXcXlXyXcX5X4.q > > #               ",
"                                    8 < < 8 Z U t.cXlXlXlXBXBXBXBXBXBXcXcXBXcXpXcXcXpXlXBXcXcXcXcXcX4.q # = > >                 ",
"                                      = = < 8 5 Z -.4.BXzXNXBXBXBXBXBXcXcXcXcXcXBXBXcXcXcXlXcXlX^.-.d > = #                     ",
"                                          = > > O < > = > 7.t.s.[.cXcXBXBXBXBXBXcXBXcXBXlXM.g.S > 8 < 5 #                       ",
"                                                8 5 5 > 8 # > O q f d d y d d d d f f y f > # = < 8 y                           ",
"                                                    < # < > 5 > = > < = # # # # # 5 = > < 8 < > = <                             ",
"                                                                5 > = # O O O O O < = 8 < =                                     ",
"                                                                                                                                ",
"                                                                                                                                ",
"                                                                                                                                ",
"                                                                                                                                "
};
