/* XPM */
static char *bf8467556471464acf4bdb1850f6b0d8uYk9CRXtA8VOYK1L[] = {
/* columns rows colors chars-per-pixel */
"64 64 208 2 ",
"   c #160201",
".  c #1D0402",
"X  c #240303",
"o  c #2A0605",
"O  c #250B0B",
"+  c #2C0C0B",
"@  c #2A0906",
"#  c #330D0C",
"$  c #29110F",
"%  c #35110F",
"&  c #3D130F",
"*  c #310F10",
"=  c #251413",
"-  c #2C1514",
";  c #2A1718",
":  c #2D1B19",
">  c #291816",
",  c #351312",
"<  c #3B1614",
"1  c #3D1A16",
"2  c #311B1A",
"3  c #3D1B1A",
"4  c #351917",
"5  c #34211C",
"6  c #3D231E",
"7  c #372322",
"8  c #3D2523",
"9  c #3D292B",
"0  c #3B272C",
"q  c #431D16",
"w  c #431D1B",
"e  c #49191C",
"r  c #42221D",
"t  c #4B231E",
"y  c #51241E",
"u  c #442422",
"i  c #4B2524",
"p  c #442A25",
"a  c #4A2A26",
"s  c #452D2B",
"d  c #4D2C2A",
"f  c #4E2729",
"g  c #532423",
"h  c #532B25",
"j  c #592F27",
"k  c #532528",
"l  c #542D2B",
"z  c #5A2E2B",
"x  c #47312F",
"c  c #4C312D",
"v  c #54322C",
"b  c #5A322D",
"n  c #432D32",
"m  c #5B2F31",
"M  c #453132",
"N  c #4C3636",
"B  c #543531",
"V  c #5B3433",
"C  c #553833",
"Z  c #5D3B35",
"A  c #5D3C3A",
"S  c #553A3A",
"D  c #63352F",
"F  c #612F32",
"G  c #623533",
"H  c #633B34",
"J  c #6A3C36",
"K  c #643C3B",
"L  c #6B3D3A",
"P  c #633638",
"I  c #713B39",
"U  c #5D413E",
"Y  c #5F4037",
"T  c #644137",
"R  c #64423B",
"E  c #6B443D",
"W  c #6B493E",
"Q  c #6A443A",
"!  c #72443D",
"~  c #73483F",
"^  c #6C3F41",
"/  c #603E40",
"(  c #5E4241",
")  c #654443",
"_  c #6C4542",
"`  c #6E4A43",
"'  c #6D4B4A",
"]  c #644848",
"[  c #724642",
"{  c #734C44",
"}  c #7A4C45",
"|  c #754749",
" . c #744D4A",
".. c #7A4D4A",
"X. c #794744",
"o. c #6F504D",
"O. c #755146",
"+. c #7A5147",
"@. c #76514A",
"#. c #7B534C",
"$. c #7E594E",
"%. c #794F50",
"&. c #635151",
"*. c #765252",
"=. c #7C5452",
"-. c #7E5951",
";. c #7F5C59",
":. c #725D5C",
">. c #834F4C",
",. c #81534D",
"<. c #81594F",
"1. c #825553",
"2. c #8B5754",
"3. c #845B54",
"4. c #8A5B56",
"5. c #825759",
"6. c #855D59",
"7. c #8B5E5A",
"8. c #925D5A",
"9. c #836156",
"0. c #86615A",
"q. c #8C625C",
"w. c #92625E",
"e. c #8C5F62",
"r. c #876260",
"t. c #8D6462",
"y. c #8D6963",
"u. c #8C6768",
"i. c #8E6B6C",
"p. c #936562",
"a. c #9A6563",
"s. c #946A64",
"d. c #9A6A66",
"f. c #956669",
"g. c #956B6A",
"h. c #9C6D6A",
"j. c #996768",
"k. c #9D716C",
"l. c #997067",
"z. c #9C6E70",
"x. c #976F71",
"c. c #977373",
"v. c #9C7373",
"b. c #9E7B7A",
"n. c #A16E6B",
"m. c #A2736E",
"M. c #A9736E",
"N. c #A06F70",
"B. c #A47572",
"V. c #AB7673",
"C. c #A57974",
"Z. c #AB7A76",
"A. c #A6767A",
"S. c #A47A7A",
"D. c #AD7C7A",
"F. c #AA767A",
"G. c #B07776",
"H. c #B17A77",
"J. c #B27D7B",
"K. c #B97E7D",
"L. c #AE827C",
"P. c #A6807F",
"I. c #B3827D",
"U. c #BA817E",
"Y. c #B6887F",
"T. c #C0847F",
"R. c #AE7F81",
"E. c #B27F80",
"W. c #AC8383",
"Q. c #AB898B",
"!. c #B68384",
"~. c #B48382",
"^. c #BB8482",
"/. c #B48983",
"(. c #B98986",
"). c #BC8A84",
"_. c #B5878A",
"`. c #B98788",
"'. c #B58C8A",
"]. c #BE8D8B",
"[. c #BF8D8C",
"{. c #BD8B8A",
"}. c #BC918C",
"|. c #B88F92",
" X c #BF9896",
".X c #BB9898",
"XX c #C18685",
"oX c #C28885",
"OX c #C38B8A",
"+X c #C88D8C",
"@X c #C3918E",
"#X c #C4938E",
"$X c #C8908E",
"%X c #C59391",
"&X c #C59591",
"*X c #C49391",
"=X c #CA9594",
"-X c #C99896",
";X c #CB9892",
":X c #C69D99",
">X c #CD9C9A",
",X c #C59A96",
"<X c #D09896",
"1X c #CBA5A1",
"2X c #D2A3A4",
"3X c #D6A9A8",
"4X c #EABABA",
"5X c #E0B0B3",
/* pixels */
"Z.Z.Z.I.(.OX#X&X@X@X@X%X#X@X@XOXOX].(.{.{.`.!.~.!.!.~.~.J.J.J.D.Z.V.B.m.n.h.n.m.m.m.m.h.h.h.h.h.k.h.d.s.p.p.t.q.9.6.6.1.-.$.$.#.",
"D.L.I.].#X#X}.}.*X%X%X%X&X&X%X@XOX[.].].{.`.!.~.~.~.E.E.J.J.D.D.Z.C.B.B.m.m.m.m.m.m.m.m.k.k.k.k.k.h.s.p.t.t.q.q.9.6.6.1.-.$.#.#.",
"L.I.].#X/.C.k.s.h.D.*X-X-X-X&X%X*XOX[.[.{./.!.!.~.~.~.E.I.J.D.D.Z.Z.Z.Z.V.B.m.m.B.m.m.m.m.m.k.k.k.h.s.p.q.p.q.q.6.6.1.1.-.-.-.-.",
"I./.}.L.s.t.=.H l l ..L.-X>X&X@X@XOX].].`.!.~.~.~.~.!.!.~.~.J.J.D.D.Z.Z.D.Z.V.B.B.m.m.m.m.m.k.k.k.k.s.p.p.q.9.9.6.6.6.3.-.-.-.-.",
"/./.C.6.#.H r % % # # 3 K k.*X@X[.{.{.(.`.~.~.E.I.!././.!.!.E.E.J.J.J.D.D.D.Z.V.B.B.m.m.B.m.k.k.h.d.s.s.q.q.6.6.9.6.6.1.1.-.-.-.",
"/.Z.7.W b # # % + . X o X w 6./.].(./././.I.L.L.J.I./././.!.E.J.K.K.J.D.D.D.Z.V.B.B.m.m.B.m.k.k.h.d.s.s.q.9.6.6.9.6.6.1.1.-.-.-.",
"I.B.7.W _ #.t.v.C.r.a o o % < E 7.B.D.~./.I.I.D.D.I././.!.!.~.E.K.K.J.D.D.D.Z.V.B.B.m.m.m.k.k.s.s.d.s.q.q.9.6.6.q.q.6.3.1.-.-.-.",
"J.B.h.p.C./.}.}.'.}._.6.V i f l K #.d.Z.L.L.D.Z.D.L.~.~.~.R.R.D.J.I.J.D.D.D.Z.Z.B.B.m.m.k.k.k.s.s.d.s.y.q.9.6.7.q.q.6.3.1.-.#.#.",
"L.C.B.D./.I.W.L.L.L.W.W.C.t...K [ 1.7.h.D.D.D.Z.Z.D.D.D.D.D.Z.Z.D.J.J.D.D.D.D.Z.Z.V.B.m.k.k.h.h.d.d.d.t.q.q.q.q.7.q.6.-.-.-.#.#.",
"I.D.D.I.D.Z.m.m.k.k.h.h.h.k.k.g.q.q.7.a.B.D.D.Z.Z.D.D.D.Z.Z.Z.Z.D.D.D.J.J.J.D.D.Z.C.C.B.k.k.h.h.k.h.h.p.q.q.7.7.7.q.6.-.-.-.#.#.",
"I.I.I.L.C.k.s.6.L _ ..1.=.1.r.g.g.j.j.j.m.Z.D.Z.Z.D.D.D.Z.C.C.C.Z.D.D.D.J.J.D.C.B.B.B.k.k.k.s.k.k.k.s.p.p.q.q.q.q.q.6.-.-.#.#.#.",
"~.I.L.Z.k.s. .V g.'.{._.W.B.q.=.t.v.B.B.B.Z.D.Z.D.D.D.Z.B.B.m.m.C.Z.D.J././.~.C.B.h.r.6.6.q.y.q.q.p.p.t.q.q.q.q.q.q.6.$.$.#.@.#.",
"/.~.D.C.h.7.V D.:X[._.W.S.S.S.7.=.t.C.Z.Z.D.D.D.D.D.D.Z.B.j.j.j.h.B.Z.B.g.1...[ _ A B A K _ _ E _ ` @.-.5.q.t.q.q.7.6.1.#.+.@.O.",
"/.~.D.D.d.[ 1.:X,X:X XW.c.h.v.u.=...a.A.D.D.J.D.D.D.D.Z.j.7.4.7.q.h.h.=.K i < # * + + + @ , 3 d V K E { =.3.0.9.9.q.6.-.#.@.O.O.",
"^.^.I.^.d.L C.3X1XW.b.c.c.v.x.6. .| 1.h.Z.J.I.J.D.D.D.Z.p.1.1.#.#.#.| V f u 3 , # @ X X X o @ , r v K R _ ` @.6.9.6.3.$.#.O.{ O.",
"^.^.I.(.m.H /.k.u + O O - d ' *.| | | q.m.J./.I.D.Z.Z.m.p...[  .[ E V l u 3 3 3 < , 4 4 1 r a u w w i l v v b R #.3.3.$.@.{ [ { ",
"^.^.^.(.d.#.` + . . :.N   O d l V K | 5.h.D.].`.J.Z.V.m.w.1.[ [ E H v l a a i a f V _ ;.u.g.u.%.A v l d f f l v b R @.#.#.{ { { ",
"^.^.^.I.p.b @ $ c 6 : = O 3  .K l l V ..j.C.{.OXI.D.m.n.7.<. .E H b l d d f f u f K ' @.5.f.v.b.u.=. .K l l l v v v b E  .@.{ { ",
"^.^.^.m.D < d ) @.C - = 7 / W.g.=.K m [ m.Z.OX=X].I.Z.n.7.+.W H b l h d f < + V g.W.'.P.g.=.| =.r.u.r.5.| R Z V V v v b R ` { { ",
"^.^.^.Z.d.h.g.y.y.` r u s ;.|.W.r.K G G j.!.@X>X#X(.J.B.7.E b b b l d u # , %.S.W..X XW.S.v.g.=._ _ =.5.*. .' T Z B v v Z R ` { ",
"T.).).Y.I.Z.k.s.g.s.' Z ' b.S.h.p.5.1.j.~.!.&X>X#X(.D.n.#.b h b j h u 1 w  .*.V S ] b..XW.c.u.6.=.R B ) *.*. .' ) T C v Z R _ ` ",
"U.).).I.I.Z.B.m.k.h.v.b.v.g.h.t.7.w.p.n.~.!.#X>X#X(.V.7.L l b b h h b e 1 w 4 ' - :.&.- ( i.i.;. .' C a A *. . .@.` ` W R T E ` ",
"oXoX).).I.Z.Z.C.B.q.3.=.=.6.1.1.7.,.1.B./.{.%X#X{.J.d...H b b H j K t.h.z.v.u.Q.o.7 >     + B ' @.' R B a ` =.@. .{ @.$.$.{ ` W ",
"oXoXoX^.U.H.Z.Z.B.h.p.t.g.p.4...L [ n.I.{.OXOX`.H.n.q.! H G G [ [ _ 4.v.k.b.v.v.c.B + + $ , + + , 1 3 u u Z ;.;.-.-.$.$.O.@.O.{ ",
"OXOXoXoX^.U.J.D.n.d.p.p.5.L z G 7.!.OX%XoXOXoXI.V.a.,.J J J L L <.4.7.d.h.s.t.f.v.S.r.V ) *.K u , @ o o # r Z R @.-.3.y.s.q.+.{ ",
"OXOXOXOXXX^.U.I.V.a.1.[ L ..j.`.{.OXOXOXoXOX^.D.m.1.! J E E E E } 8.d.d.n.m.k.u.5.6.6.r.0.u.0. .B i w 3 3 Z [ ` #.3.-.-.-.@.{ { ",
"+X+XOXOXoX^.U.I.G.V.Z.J.K.oXOXOXoXOX+XOXOXoX^.J.d...! J J ! [ } ,.2.w.d.m.B.B.B.t.|  .=.' R ` @. .L K K ) Z b W 3.q.s.p.9.#.@.@.",
"+X+X+X+XoXXX^.U.K.J.G.J.^.{.OX+X$X+X+XOXoX{.K.n.8.>.[ J J ! ~ ,.4.w.w.n.m.V.C.C.Z.D.6.K K  . . .=.=.| R l w b #.1.#.3.6.#.+.#.#.",
"+X+X+X+XOXXXXX^.).I.J.K.^.oXOXOX+XOXOXOXOX^.V.d.w.4.,.[ J J J J ! 2.a.n.V.B.Z.J.J.D./.Z.1.b t w i g e & w [ p.q.4.1.+.{ ..#.3.-.",
"+X+X+X+XOXoXXXXX).^.^.^.{.oXOXOXoXOXOXoXOXI.V.d.a.a.w.,.J J J J b g D 1.m.B.Z.D.!.`.I.I.~.D.h.1.J G J ,.B.D.d.q.7.6.3.6.7.7.9.3.",
"+X+X+X+X+X+XOXXX).).).oXoXoXoXoXOXoXoXoX{.J.m.d.a.d.d.,.[ J J X.X.Q y y { h.V.Z.D./.{.`.I.I.I.I.I.I.I.J.B.m.d.7.w.s.w.7.7.q.9.9.",
"+X+X+X+X+X+XOXOXoX+XoXoXoXoXOXXX^.^.oXoX^.J.m.n.n.n.4.E E J ! <.+.} J t t #.m.V.D.I.`.^.^.!.!.I.I.J.D.m.Z.Z.m.d.s.s.p.w.q.q.9.9.",
"+XOXOXOXOXOXOX+X+X+XOXXXoXXXK.Z.Z.^.OXOXXXI.D.Z.B.1.G J L [ ..3.<.} E h q t [ j.V.D.I.I.^.^.^.!.K.J.D.m.m.m.n.d.p.p.w.q.q.7.3.$.",
"OXOXOXOXOXOXOXOXOXoX^.^.U.V.8.a.J.OX%X=X<X%X^.Z...j i & # # < t j b j h h y g X.d.V.H.J.J.K.K.K.J.D.V.m.n.n.h.d.p.p.w.7.6.4.-.#.",
"OXoXOXOXoXoXXXXX).^.J.G.a.I 2.).OXOX=X>X#XI.C.#.h w # 1 u u w 1 w i h j j j j b ,.h.Z.Z.J.Z.Z.J.Z.V.B.m.n.d.d.p.p.p.w.7.4.1.#.@.",
"oXXXXXXXXXXX).^.K.J.n.8.J >.^.=XOX].(./.Z.h.4.b r 1 w w w w w r i i a j b b j j L 4.n.Z.Z.Z.Z.V.V.m.n.d.a.p.p.w.w.w.q.7.4.1.+.@.",
"XXXXXXXXXX^.U.J.G.n.8.J ! V.].(.I.D.D.n...b t w u w w 3 < 3 3 r r r r t d v j j G ..w.m.V.V.V.m.m.n.n.d.d.p.w.w.q.q.q.4.3.=.+.O.",
"XXXXXXXX^.^.K.J.m.w.X.J h.{.OX].m.w.j.p. .l w u u d d a u u 6 r r r r r r i v v b [ 1.p.m.B.m.m.n.n.n.d.a.p.w.7.q.7.6.1.=.#.+.O.",
"XX^.^.^.^.K.J.V.a.,.J p./.(.D.,...1.4.q.q.3._ V K _ V f d d a p u r r 6 3 r i a l H  .7.d.h.h.h.h.h.d.d.p.w.w.w.7.4.4.#.#.+.{ O.",
"^.U.^.U.K.J.J.n.8.X.4.I./.k.H b [ [ [ E _ Z r w _  .K B d f a d i a u r 6 6 r r u l K 4.p.s.d.d.d.d.d.s.w.w.7.7.4.4.1.#.#.@.{ O.",
"^.^.K.K.J.J.Z.d.2.,.B.I.h.b h b Z H V V l w , w  .=.K V B v a d d l a u p 6 6 6 r r h ` s.s.s.p.p.p.p.p.w.7.4.2.3.1.#.....{ [ { ",
"U.U.K.J.J.G.Z.d.4.m.@XB.J h h h h v Z v l 1 + l =.t._ Z B B d d d f d a a u 6 6 3 < 1 a 3.C.k.p.p.p.w.w.7.7.4.3.1.#.+.} ..{ [ ` ",
"U.K.K.J.G.G.Z.n.n.#XZ.{ H H v b V Z R V l w l *.g.t.5.` v d c a f a d a a p p u r 1 < < v k.D.k.p.q.q.7.4.3.1.,.#... . . .[ [ { ",
"K.K.J.J.G.G.V.m.D.Z.4. .#. .E V H V l l m l f L _ v l V a r u r w r r r u p u a p r 3 < q #.C.C.h.q.7.4.1.<.#.} { [ [ [ [ [ [ ` ",
"K.J.J.J.V.Z.M.m.m.d.4.+. .h o @ 1 e B.2X2X>X*X{.R.=.^ L ^ A l V ) B v V V u 4 4 u u r 1 < h p.C.B.d.7.#.#.+.{ { [ [ W E E W W ` ",
"J.J.J.D.V.M.m.m.n.k.p.1.G j s.g.| [ e.f.2X4X4X4X5X2X3X2X*XS.p.v.r.l V _ V + X . X O u u < 1 L m.C.m.s.3.#.} [ ! ! W E W [ W [ { ",
"J.J.J.Z.M.M.m.Z.D.D.m.p.w.V.%X].N.4.,.G e g p.R.B.p.t.F._.A.k | K l k m V w < # + , 3 a w w h 7.C.m.k.w.1...{ ! ! W W _ [ { { O.",
"G.G.Z.V.M.m.m.D.D.I.D.Z.Z.I.OX=X%XD.j.p.7.| G m P _ _ ..e.e.p.e.=.5.=.| [ [ | _ _ _ V h f t t W m.Z.B.d.q.1.} { [  .{ +.#.+.+.#.",
"G.G.V.V.M.n.m.Z.I.I.I.I./.{.].#X=XOXD.Z.F.D.E.F.z.h.B.B.z.f.e.6.=.6.5.1.1.6.t.g.p.6.6.1. .G b E h.Z.B.k.d.q.<.+...#.4.6.7.4.3.1.",
"Z.Z.V.V.n.n.h.B.D.I.I.I.I.(.{.].OX{.{.!.D.B.j.a.f.h.h.p.e.7.1.| | | %.1.7.p.p.p.t.t.t.k.h.7.=.#.s.C.B.B.h.q.1.#.3.7.q.w.q.7.1.+.",
"G.Z.V.M.n.d.d.m.I.Y.Y.I././.^.(.{.(.`.`.`./././.!.Z.C.Z.A.N.z.j.f.f.f.f.f.p.7.7.7.p.p.k.Z.B.s.p.k.C.m.m.d.q.<.#.4.q.q.q.q.3...[ ",
"G.Z.M.m.n.d.d.m.L.).).Y.I.I././.(./.D.D.N.w.4.7.p.p.7.7.j.B.V.B.B.h.a.p.7.7.4.7.s.m.B.m.m.k.m.k.k.m.m.k.s.4.<.1.q.q.q.q.3.+.[ W ",
"D.D.V.m.n.d.d.B./.}.L.k.C.Z.I.I./.I.J.B.p.1.[ [ ^ ^ L F z _ 1.4.4.6.5.5.6.6.4.p.h.B.B.k.k.k.k.k.k.k.l.s.q.<.#.$.3.9.6.1...W Q Q ",
"D.Z.V.m.n.n.m.L.L.B.q.C.B.k.I.^.I.I.D.m.p.5...| K z V K V V L | | ....=.5.7.t.s.h.k.h.h.s.s.d.k.s.s.p.q.3.+.+.#.-.-.1.+.[ Q R R ",
"D.Z.V.m.n.m.B.k.9.+.s.s.<.m./.I.I.I.I.D.h.8.1.G i V | K G V K ..=.=.3.6.q.t.p.s.s.s.w.q.s.s.p.p.y.q.q.3.+.{ #.$.-.#.+.[ Q Q H H ",
"D.Z.V.m.n.p.3...R { 9.{ q.L.D.L./././.I.Z.d.1.#. .4.[ [ [ #.+.+.7.7.6.q.p.s.d.s.p.t.t.6.q.q.q.q.q.q.1.+.~ { O.#.#.#.{ E H H H H ",
"G.Z.V.m.m.q.=.R v ` R ` s.k.C.L./././.D.m.p.q.p.m.m.h.q.7.j.p.7.d.d.s.p.s.k.k.k.s.q.q.6.3.#.6.q.9.<.@.{ Q ` { {  .{ E T Z Z Z Z ",
"J.D.Z.V.k.q.' d R R v R ` 6.k.I./././.I.Z.m.d.d.m.m.B.h.h.B.B.p.h.k.k.k.B.B.B.k.q.-.#.O.O.1.O.O.#.{ ` W Q ` { { ` E R T Z C B B ",
"I.D.D.B.g.6.Z ) o.v B v Z #.k.L.L.~.~././.I.L.D.D.D.D.Z.B.B.B.h.m.k.m.B.B.B.C.B.y.{ { #.R { @.Q E ` W E W ` { W W R Z C v v c d ",
"I.D.Z.m.0.' U ' U C B v v @.k.L.D.~.~./././.I.I././.~.J.V.B.m.h.k.k.k.B.B.C.k.s.q.@.E ` T H E { W _ E E W ` W R T Z C c a p u 8 ",
"I.D.C.g.*.U A A c p d d a ` t.m.Z.L.I.I.I.I.I.~.!.`.`.~.V.B.m.n.k.k.k.k.B.k.g.q.6.` Z Z T v b Q E E E R E E R Y Z B c p 8 6 2 2 ",
"D.Z.v.6.] S N N x x c a d Z  .l.Z.L.I.I.I.I.I.I.~.!.I.V.j.h.m.k.k.s.p.p.p.q.3.@._ A v v Z v i Z T Y T Z Z Z Z B c p 6 6 5 2 ; = ",
"D.C.u.] N M s N s M x p B B R q.k.m.C.L.I.I.I.I.D.Z.B.h.h.h.h.j.d.q.6.1.1.#.E Z C v d c C c r a C B Z Z C B x s p 6 5 5 : : : > ",
"S.g.] M 9 0 n n 9 x x s c C R ` O.1.0.s.m.m.m.k.j.j.h.j.j.a.p.p.q.6.1.@.{ T v v a p p 6 p p 6 6 p p c B c x s 8 7 5 : : > ; ; : "
};
