/* XPM */
static char *result[] = {
/* columns rows colors chars-per-pixel */
"64 64 244 2 ",
"   c #120E0C",
".  c #13120D",
"X  c #1B140E",
"o  c #160E12",
"O  c #141213",
"+  c #1B1515",
"@  c #1C1A16",
"#  c #16151A",
"$  c #1B161A",
"%  c #1C191C",
"&  c #161919",
"*  c #0E1710",
"=  c #27150E",
"-  c #37180A",
";  c #231615",
":  c #231A16",
">  c #2B1A14",
",  c #21161A",
"<  c #241A1C",
"1  c #2B1C1C",
"2  c #2E1715",
"3  c #341D1B",
"4  c #361C14",
"5  c #162117",
"6  c #25231C",
"7  c #34221D",
"8  c #3B221D",
"9  c #3B2116",
"0  c #23301E",
"q  c #1D1B22",
"w  c #1B1A25",
"e  c #231D24",
"r  c #2B1E22",
"t  c #231F2A",
"y  c #331E21",
"u  c #1E252A",
"i  c #1F2430",
"p  c #242124",
"a  c #2B2324",
"s  c #2A242C",
"d  c #2C2A2B",
"f  c #26262A",
"g  c #342223",
"h  c #3C2424",
"j  c #33242A",
"k  c #332B2E",
"l  c #3A2829",
"z  c #35322D",
"x  c #2C2A34",
"c  c #282836",
"v  c #322B32",
"b  c #332B36",
"n  c #393638",
"m  c #2A3233",
"M  c #441C0A",
"N  c #491C14",
"B  c #44241B",
"V  c #4A261B",
"C  c #532C1B",
"Z  c #542616",
"A  c #562C12",
"S  c #622814",
"D  c #693619",
"F  c #74381A",
"G  c #62280C",
"H  c #442B25",
"J  c #4C2A22",
"K  c #432B2B",
"L  c #472725",
"P  c #562D25",
"I  c #4A342A",
"U  c #54332C",
"Y  c #5B322D",
"T  c #573527",
"R  c #483738",
"E  c #5B3532",
"W  c #583A36",
"Q  c #462F33",
"!  c #653729",
"~  c #763C25",
"^  c #653B37",
"/  c #763C34",
"(  c #612C26",
")  c #54433C",
"_  c #7B4427",
"`  c #69433B",
"'  c #784436",
"]  c #694228",
"[  c #7E4919",
"{  c #353243",
"}  c #3C3C43",
"|  c #393849",
" . c #393D53",
".. c #2A2D41",
"X. c #453C47",
"o. c #553E44",
"O. c #3C434E",
"+. c #48444A",
"@. c #574646",
"#. c #464656",
"$. c #574C56",
"%. c #585559",
"&. c #4E5551",
"*. c #764946",
"=. c #634D55",
"-. c #675555",
";. c #755956",
":. c #6D514B",
">. c #70615A",
",. c #4A4D61",
"<. c #575668",
"1. c #525870",
"2. c #645D67",
"3. c #6B5C6E",
"4. c #5C6276",
"5. c #596266",
"6. c #66636C",
"7. c #676578",
"8. c #7B6C79",
"9. c #7A6B70",
"0. c #3D4A3F",
"q. c #894C1C",
"w. c #884828",
"e. c #975529",
"r. c #864D35",
"t. c #8A553A",
"y. c #995637",
"u. c #904F2D",
"i. c #A55A34",
"p. c #A3582C",
"a. c #996334",
"s. c #AA6539",
"d. c #B87A3A",
"f. c #B16E37",
"g. c #C2763E",
"h. c #965649",
"j. c #965D52",
"k. c #87544A",
"l. c #986756",
"z. c #8E614E",
"x. c #B26B44",
"c. c #BA7547",
"v. c #A8765A",
"b. c #B77A58",
"n. c #AD6A4E",
"m. c #886869",
"M. c #947173",
"N. c #A97667",
"B. c #B77A66",
"V. c #AC776F",
"C. c #CA7B45",
"Z. c #C47A47",
"A. c #C27D56",
"S. c #C67E60",
"D. c #BD8038",
"F. c #C5843B",
"G. c #B8805B",
"H. c #BE8240",
"J. c #BC8364",
"K. c #BA8878",
"L. c #CA8449",
"P. c #C4825C",
"I. c #CA8558",
"U. c #D48959",
"Y. c #D3834D",
"T. c #C28564",
"R. c #C4856B",
"E. c #CA8869",
"W. c #D48C64",
"Q. c #D68D68",
"!. c #DB9368",
"~. c #C58C74",
"^. c #CA8C72",
"/. c #C28C7C",
"(. c #C68978",
"). c #CB927D",
"_. c #C89178",
"`. c #D99576",
"'. c #CE8D71",
"]. c #E39C79",
"[. c #E7A17E",
"{. c #777789",
"}. c #727388",
"|. c #8A7786",
" X c #A27F86",
".X c #7E8394",
"XX c #9A8487",
"oX c #878799",
"OX c #998898",
"+X c #938B92",
"@X c #A98589",
"#X c #B78C87",
"$X c #AC8D95",
"%X c #A78C96",
"&X c #B38E98",
"*X c #AA939A",
"=X c #B99398",
"-X c #BE9087",
";X c #9898A9",
":X c #8F91AD",
">X c #A99AA4",
",X c #B69AA1",
"<X c #9CA2B5",
"1X c #A7A9B8",
"2X c #B2AAB1",
"3X c #C4958C",
"4X c #C99687",
"5X c #D69887",
"6X c #C59896",
"7X c #D59893",
"8X c #C88D85",
"9X c #E29E89",
"0X c #D7A38A",
"qX c #C7A299",
"wX c #D3A49A",
"eX c #E9A589",
"rX c #E9A896",
"tX c #F0AC90",
"yX c #C89CA3",
"uX c #D4A7A4",
"iX c #CEB3B0",
"pX c #9AA8C5",
"aX c #A2ADC6",
"sX c #B7B8C5",
"dX c #B0B6CF",
"fX c #A2AFD4",
"gX c #B9C5D6",
"hX c #BCC1CC",
"jX c #C9CAD6",
"kX c #D5D6DC",
"lX c #D1CBD0",
"zX c #E6D4D2",
"xX c #CAD6E4",
"cX c #D5DAE7",
"vX c #CCD6EC",
"bX c #DAE5F2",
"nX c #D8E3ED",
"mX c #E6ECF4",
"MX c #ECF3F9",
"NX c #FCFDFE",
"BX c #F6F7FA",
"VX c #F1ECEC",
"CX c #C1BCC9",
"ZX c None",
/* pixels */
"ZXZXZXZXZXZXZXZXZXZXZXZXZXZXZXZXZXZXZXZXZXZXZXZXZXZXZXZXZXZXZXZXZXZXZXvXZXZXZX=.@.` ) ` -.>.ZXZXZXZXZXZXZXZXZXZXZXZXZXZXZXZXZXZX",
"ZXZXZXZXZXZXZXZXZXZXZXZXZXZXZXZXZXZXZXZXZXZXZXZXZXZXZXZXZXZXZXZXZXZXZXvXcXhX8.@.W Q R U ) ) R @.ZXZXZXZXZXZXZXZXZXZXZXZXZXZXZXZX",
"gXZXZXZXZXZXZXZXZXZXZXZXZXZXZXZXZXZXZXZXZXZXZXZXZXZXZXZXZXZXZXZXZXZX6.%.6.jX6.@.o.R I R I I R l R ) @.2.ZXZXZXZXZXZXZXZXZXZXZXZX",
"ZXgXvXZXZXZXZXZXZXZXZXZXZXZXZXZXZXZXZXZXZXZXZXZXZXZXZXZXZXZXZXZX%.) R +.$.jX6.$.o.o.@.) ) ) @.o.R R R ) 2.ZXZXZXZXZXZXZXZXZXZXZX",
"ZXZXZXbXZXZXZXZXZXZXZXZXZXZXZXZXZXZXZXZXZXZXZXZXZXZXZXZXZXZX&.) @.;X8.@.+X>XsX|.>X$.=.@.:.-.-.=.=.2.<.$.#.$.<.3.}.ZXZXZXZXZXZXZX",
"ZXZXZXxXZXZXZXZXZXZXZXZXZXZXZXZXZXZXZXZXZXZXZXZXZXZXZXZXH I C I &.@.-.-.o.=.2X2XlX+X9.m.9.9.8.9.}.8.|.}.}.;X{.|.:XxXZXZXZXZXZXZX",
"ZXZXZXmXZXZXZXZXZXZXZXZXZXZXZXZXZXZXZXZXZXZXZXZXZXZXI 7 8 H ) I I 8 l W :.>.m.M.oXlXlXlXkXlXkXjXzXkXkXbXlXdXkXjXcXMX<XZXZXZXZXZX",
"ZXZXZXbXZXZXZXZXZXZXZXZXZXZXZXZXZXZXZXZXZXZXZXZXZX1 1 g H I I H H H T ' z.l.v.G.K.K.$XXX*X,X>X2X>XOX X X|.|.7.3.7.lXaXZXZXZXZXZX",
"ZXZXZXZXvXdXZXZXZXZXZXZXZXZXZXZXZXZXZXZXZXZXZX) ; = > 7 8 T ) T U U ` z.v.v.G.J.K.K.K.K.=X,X*X>X&X X X X X X|.}.7.jXdXZXZXZXZXZX",
"ZXZXZXZXZXxXZXZXZXZXZXZXZXZXZXZXZXZXZXZXZXZX&.: @ 6 6 0 h I T T U ` k.v.G.v.G.J.K.K.K.K.-XqXqXqXyX6XyX&X>X>X X|.7.sXvXZXZXZXZXZX",
"ZXZXZXZXgXaXZXZXZXZXZXZXZXZXZXZXZXZXZXZXZXm n &.%.+.7 >.>.>.W ) ` :.z.v.G.G.J.J.K.K.K.K.-X-X-X6X6X&X=X=X,X X&X X|.:XBX:XZXZXZXZX",
"ZXZXZXZXpXxXZXZXZXZXZXZXZXZXZXZXZXZXZXZX&.5 & & + 6 6 7 z ) :.W *.k.l.v.J.J.R.R._._.K.K._.4X4XqX3X7X&XyX,XyX&X,XOXoXMXBXpXZXZXZX",
"ZXZXZXZXZXcXZXZXZXZXZXZXZXZXZXZXZXZXZX0.n O # $ $ < 1 7 h K ;.U ` *.l.v.J.T.R.J._._._.).).).4XqX8X3X6X3X&X&X&X X>XOXdXmXBXfXZXZX",
"ZXZXZXZXZXZXnXZXZXZXZXZXZXZXZXZXZXZXZX5 @ # # # # , < 1 7 H -.W *.l.v.B.E.T.(.S.'._.).).).0X4X4X3X3X8X6X6X&X6X&X&X%X:XpXmXvXZXZX",
"ZXZXZXZXZXZXbXZXZXZXZXZXZXZXZXZXZXZX5 5 q % q # # ; < 1 7 K m.` z.v.G.T.E.E.R.E.'.E._._.4X5X4XwX7X3X6X3X6X6XyX&X&X*X>XZXdXbXZXZX",
"ZXZXZXZXZXZXbXZXZXZXZXZXZXZXZXZXZXu 5 @ u % # # # $ + > h R M.j.G.J.J.P.T.E.E.E.E._.^._.).5X7XwX7X6X7X6X6X6X=X,X&X&X>X:XdXMX:XZX",
"ZXZXZXZXfXjXZXZXZXZXZXZXZXZXZXZXZX0 @ % p # w # $ $ , y Q 9.;.v.G.G.I.G.I.W.J._.^.E.^._.R.(.(.8X6X7XwXwX6X6XyX,X=X&X,XOXZXvXMXcX",
"ZXxXZXZXZXcXpXZXZXZXZXZXZXZXZXZX0 @ % n d # # w t r r K U ;.z.v.G.L.G.I.G.J.E.J.T.T.J.B.B.V.N.v.N.V.7XwXuXyXyX=X6X=X,X*XZXZXgXbX",
"ZXZXZXZXZXbXaXZXZXZXZXZXZXZXZXz 5 6 6 ) s # # w s s 1 l Q ;.N.b.H.E._.I.I.J.J.J.J.T.^.R./.K.K.l.z.j.N.#XwXuXyXyXyXyX,X>X;XZXZXZX",
"ZXZXZXgXxXdXZXZXZXZXZXZXZXZXZX0 6 6 6 n w # # w q , < l I ^ v.b.T.H.G.H.!.J._._.).0X0XwXuXuXwXwX#XK.V.8X6XyXuXuX6X,X,X&X>XZXZXZX",
"ZXZXZXZXbXZXZXZXZXZXZXZXZXZXZXz n R n a f q q w % $ , j Q ] z.c.L.Z.Z.I.I.E._.[.0XwXiXiXzXzXlXiXqX3X4X0XwXwXuXqX6X&X%X*X>XZXZXZX",
"ZXZXZXZXMXZXZXZXZXZXZXZXZXZX5 @ z n l s s w w e % $ % 1 I T t.c.d.C.Z.L.G.!.!.).4XwXVXNXNXNXBXVXzX-X0X0XrXuXqX6X XM.m.M.%XOXZXZX",
"ZXZXZXZXpXbXZXZXZXZXZXZXZX5 * o : : e , e w q q q % < 1 l T t.x.g.C.L.I.I.!.`.`.K.K.iXzXBXNXNXNXlX-X0X].0X0XqX=X X Xm.;.m.>XZXZX",
"ZXZXZXZXZXMXZXZXZXZXZXZXZX* * O + % o e w $ # # q e < 1 8 V r.x.g.C.L.U.U.!.!.'._._.4XrXiXzXVXVX6X_.~.E.!.K.K.K.&X,X,X%XXX+XZXZX",
"ZXZXZXZXZXnXZXZXZXZXZXZXi * * * + # + % q # $ # q e e e g V _ s.g.C.Y.U.Q.W.E.E.5XS.8X8X8XyXyX&X#XK.R.A.A.P.J.K.,XzXzXiX,XXXZXZX",
"ZXZXZXZXZXnXpXZXZXZXZXZXw * * O O O # % e q $ $ q e e < g V _ s.g.C.L.I.W.W.E.W.S.S.S.V.V.#X8X8XK.J.R.b.A.c.v.K.lXNXNXVXCX*XZXZX",
"ZXZXZXZXZXZXxXpXZXZXZXZXi * O * o O # < f e q # $ e e r 7 T ' s.g.C.Y.U.U.W.W.W.S.S.(.B.B.V.8XB.8X(.E.A.Z.Z.b.~.iXNXNXNXVX*XZXZX",
"ZXZXZXZXZXZXZXbXZXZXZXZXi * # # O O & % p p e q q e t r j T t.x.Z.C.Y.Y.W.W.W.W.9XS.8XS.8XB.8X8X)._.E.P.A.c.c.R.0XiXBXNXzX2XZXZX",
"ZXZXZXZXZXZXZXZXnXZXZXZXi & # * O * # # q s f p w e r r y Y t.x.C.C.C.C.!.!.W.!.].S.9X7X8X8X8X8X5X5XQ.W.Z.f.Z.S./.6X2X2X>X2XZXZX",
"ZXZXZXZXZXZXZXZXgXxXZXZXm w # & O O o # s b b b t e e e y U r.x.C.C.Y.U.!.!.!.].9X9XrX9X7X7X7X5X5X`.S.A.c.Z.A.Q.).3X#XOX*X>XZXZX",
"ZXZXZXZXZXZXZXZXZXaXnXaXO.i u & # O # w x +.} } b e r e y U r.x.g.C.Y.!.!.!.!.eXtXrXrXrXrX7X7X5X'.c.A.!.Q.Q.Q.`.5X7X@X X@X%XZXZX",
"ZXZXZXZXZXZXZXZXZXZXZXBX,...u w # * O # b #.+.+.b t r , y P r.i.g.C.Y.U.!.!.].eXrXrXrXrXrX7X9X5XE.Z.U.S.y.w.y.G.~.-XK.@X%X%XZXZX",
"ZXZXZXZXZXZXZXZXZXZXZXfXxX4.c u & # # & c X.+.n v e < 1 3 T r.s.Z.C.U.!.!.].[.tXtXrXrXrX5X5X5X'.S.Z.f.x.n.S.n.S.V. X X X X XZXZX",
"ZXZXZXZXZXZXZXZXZXZXZXZX.XmXO...i w # # f n n v k a < < 8 T _ a.s.C.C.!.].].[.tXtXtXtX9X`.T.n.i.y.w.w.w.h.V.B.V.B.V.8X XyX XZXZX",
"ZXZXZXZXZXZXZXZXZXZXZXZXZXfXkXO.c w q O % s s x v < @ 1 h T _ e.g.C.C.!.].].[.tXrXeXeX5Xb.y.~ G S S S ( ( / j.M.h.|.&X&X1X XZXZX",
"ZXZXZXZXZXZXZXZXZXZXZXZXZX4.gXhXoX,.q # q q e x d + : 1 h ! w.q.i.g.C.S.Q.].[.[.9XeX`.S.y.~ G N N N N N L L *.*./ k.M.&X,X XZXZX",
"ZXZXZXZXZXZXZXZXZXZXZXZXZXO.1.NX4.4.i w % e q r < o < 1 8 T _ q.i.g.Z.Z.A.S.9X`.`.Q.A.i.F G Z Z N N B h L L Y Y E ^ ;.M.,X|.ZXZX",
"ZXZXZXZXZXZXZXZXZXZXZXZXO.#.xXkXO.i 4.# # $ # e + + < 1 8 P F w.i.i.i.x.x.S.S.S.S.b.s.r.F S D S P L L U E ^ ^ o.^ ^ ^ m.%Xm.ZXZX",
"ZXZXZXZXZXZXZXZXZXZXZX#.+.jXkXO.m x n # # # # # o + + 1 7 C ] w.i.p.i.i.i.x.Z.n.x.y.u.~ F F ! ! ( ! ! / *.k.*.*.` ^ E ;.@X2.ZXZX",
"ZXZXZXZXZXZXZXZXZXm O.+.oXMX<.| c u %.f # # o # + + ; < 7 J F w.u.p.i.i.i.i.x.x.p.q.w.~ _ ~ ~ ~ ~ / ' / *.k.*.^ ^ ^ U W m.;.ZXZX",
"ZXZXZXZXZXZXZXZXZXm O.O.MX1X<.0.f $ $ &.O # } +.o O $ : 4 B ( _ w.w.p.i.i.e.x.s.e.w.F D _ t.u.y.h.w.w./ / / ^ ^ E E W W ;.;.ZXZX",
"ZXZXZXZXZXZXZXZXZXm O..XBX1X,.m e # O k v p n O +X, < < 2 B C D w.w.w.p.i.y.i.s.u.F D ~ _ r.y.a.i.p.w.F / / ( ^ Y Y W ^ ;.;.ZXZX",
"ZXZXZXZXZXZXZXZXZXm 5.4.NX;X&.} d % @ O O O O O O %.% 1 2 3 P ! ~ w.u.u.u.y.i.y.[ D D ! D ~ _ w.y.i.w.F / / ( ( Y Y E ^ :.9.ZXZX",
"ZXZXZXZXZXZXZXZXZX.XO.4.NX.X#.n z 6 O .     O . O %.; < > 4 B C ] w./ F ' _ ~ D G A ( P Z A S ~ y.y.w.w.h./ ( P P Y E o.>.oXZXZX",
"ZXZXZXZXZXZXZXZXZXZX1.kX1X.X5.n z a : + O O . O O %.< % < > 9 9 K P C A C Z N Z N Z C V Z V P ' h.y.p.h.h.' ^ Y E ^ ^ W @.jXZXZX",
"ZXZXZXZXZXZXZXZXZXZX1XcX,.| 6.n z d 6 + o .   O . } % % + X : > 9 7 9 9 B C C V C C M B V V Y ! / / w.h.n.j./ ( Y W W W m.{.ZXZX",
"ZXZXZXZXZXZXZXZXZXZXgX1XO. .+.R +.z ; + # O O * . f %.n % @ + : : : > 1 3 3 L V V V V B V J P P ( ( / h.h.j.' P P U W o.9.}.ZXZX",
"ZXZXZXZXZXZXZXZXZXZX<XNX#.{ d d l n k + + O o   O # &.d R a @ X X @ ; ; 1 3 L B B B B B B J U Z ( ( / h.j.j.' P J H I W %.1XZXpX",
"ZXZXZXZXZXZXZXZXZX4.{.NX,.| x j j a +.6 < $ O o O O d % + O $ $ % # + < 1 1 3 7 4 4 9 9 B J J J ( ( ^ k.l.j./ P J L Q X.=.lXbXbX",
"ZXZXZXZXZXZXZXf 5. .,.NX{.X.b j g a z Q a $ + O O O O z O O O @ @ + + # , ; > 2 4 4 8 9 4 B L V N L ^ k.j.k.! J L K X.o.aXdXZXZX",
"ZXZXZXZX5.0.%.+.} | 4.NX|.X.b r r 1 < < , < o O O # O f . O O + + + + + $ < , 1 > 1 8 8 8 B L B L P Y ^ *.^ P L K K X.X.dXoXZXZX",
"ZXZXZXn d p f b } #.:XNX:X| j s r 1 < < , $ O   + < ; + % + O + @ $ # + + < , < > 1 7 7 8 h y L L Q Q Y Y ^ L L Q Q X.}.jX<XZXZX",
"ZXz 6 n 6 < t b +.{.MX1X4.b $.< < < < # + + o o o < 6 = X < + X + , , + , , , < < 1 7 7 3 h y h L Q L h L U K K l Q <.jX}.}.ZXZX",
"0 0 @ d % e s b #.kXsX#.{ oXp %.&.n n < + $ o o o 3 W 9 = > : X + $ , + $ , $ , 1 6 7 g y h y l K K L B L y K y j X.}.<XX.1.ZXZX",
"@ @ & p % w s n #.NX;X#.b +.w % < # $ + + + $ + + 3 ` ] M - = = o , , + , , , e 1 r 1 g g l y y j j y y y y j j b X.4.pX#.<.ZXZX",
"O # w $ w p c | ,.NX:X .b %.n % $ + + $ + + $ + ; 2 ] h.D M - = ; , + , $ , , < < < 1 3 r r e r j y y y y y j j $.3.|.1XX.1.ZXZX",
"# q # # , t x { 4.NX1.| c e 6.n # # $ + $ $ @ + X - ) a.e.A M = = , < < , , , , < < < 1 1 < < r r r < 1 y j j s 3.X.:X;XX.<.ZXZX",
"# % # # q t c { :XNX.X| c t %.f R $ ; + + ; + + * 6 T a.D.e.G - - 2 < ; , , , , < < < 6 : 1 a a , , , r v k v k 3. .oX:X,.ZXZXZX",
"# # # q q { { <.4.kX1X .c p O.@ k $ $ @ + + + + & : A [ D.D.f.[ M M - 2 2 ; , e < < : 6 : 6 6 < < j r v < n X.X.4.X.aX{.<.ZXZXZX",
"# # & q s } c | O.cXsX| c p m $ $ k , < < @ + X X X 6 ] a.D.F.D.p.D A - = = , , < < : @ 6 : @ + < e % < < e e t b { |.<X<.ZXZXZX",
"# # q q { c .. .;XMX}.{ s q f + + < k : @ @ X   o + > T a.H.F.F.D.q.D A M - - ; = : : = < ; ; , < < , < , , e r s { 7.sX,.2.3.ZX",
"% % e q s  .O.jXmX}.4.c p q % + % 6 d a + @ =     O = A :.H.F.F.F.d.a.[ D M M 4 = = = : > < ; 1 < < ; + , e , r s { 1.cX,.+.+.R ",
"$ % w q t ..,.NX}. .#.i q % O O < a a 6 6 < @ . . . = C D.H.F.L.F.F.D.f.e.[ D A A B - > 2 2 < < < < ; # , , , e s { 1.sX .n d a ",
"$ % q q s .. .BX:X..c c q $ # @ < < a a a < : X   O > A a.H.L.L.F.F.H.D.D.s.e.w._ ] C B L L L 3 r ; + + , , , , s { 1.jX,.} x b "
};
