/* XPM */
static char *result[] = {
/* columns rows colors chars-per-pixel */
"64 64 254 2 ",
"   c #0D0204",
".  c #1B0605",
"X  c #2C0201",
"o  c #260907",
"O  c #340400",
"+  c #3C0502",
"@  c #3B0904",
"#  c #2D1509",
"$  c #38150E",
"%  c #2A1415",
"&  c #391915",
"*  c #3B261F",
"=  c #440502",
"-  c #430B02",
";  c #560D0A",
":  c #4A1509",
">  c #561C0D",
",  c #421C14",
"<  c #4B1E14",
"1  c #551C15",
"2  c #681612",
"3  c #4F2B12",
"4  c #4B2318",
"5  c #562919",
"6  c #59321D",
"7  c #672B1B",
"8  c #722F12",
"9  c #63331E",
"0  c #6E341E",
"q  c #572C24",
"w  c #4B322C",
"e  c #593425",
"r  c #573637",
"t  c #643522",
"y  c #6C3227",
"u  c #693625",
"i  c #6C3B26",
"p  c #6C3B29",
"a  c #783926",
"s  c #733D2B",
"d  c #693C36",
"f  c #59452B",
"g  c #74422B",
"h  c #7B422C",
"j  c #7B452C",
"k  c #674B33",
"l  c #694A33",
"z  c #7A4631",
"x  c #7D4933",
"c  c #764B38",
"v  c #77563A",
"b  c #754D4C",
"n  c #756060",
"m  c #853D1D",
"M  c #893C2B",
"N  c #9B431F",
"B  c #84472C",
"V  c #97492B",
"C  c #844B33",
"Z  c #844836",
"A  c #894C34",
"S  c #8C4E3A",
"D  c #954B36",
"F  c #8B5135",
"G  c #895439",
"H  c #8C543B",
"J  c #955436",
"K  c #92553C",
"L  c #99563B",
"P  c #945A3D",
"I  c #9B5B3E",
"U  c #AD5436",
"Y  c #A85C3A",
"T  c #9E613B",
"R  c #A8663E",
"E  c #CC6B37",
"W  c #845247",
"Q  c #835C42",
"!  c #965745",
"~  c #955B42",
"^  c #9B5D42",
"/  c #A15E43",
"(  c #A85945",
")  c #8B6348",
"_  c #9C6243",
"`  c #96684A",
"'  c #976A51",
"]  c #996E54",
"[  c #9A7257",
"{  c #A36345",
"}  c #AB6445",
"|  c #A4654B",
" . c #AD6748",
".. c #A3694C",
"X. c #AC6B4C",
"o. c #B86845",
"O. c #B36D4C",
"+. c #AB724D",
"@. c #B7714F",
"#. c #A86756",
"$. c #AC6C50",
"%. c #B86C54",
"&. c #A37456",
"*. c #AD7253",
"=. c #A77859",
"-. c #AE7D5C",
";. c #B47353",
":. c #BB7553",
">. c #BC7A56",
",. c #B67759",
"<. c #BC7B5B",
"1. c #957073",
"2. c #AA7665",
"3. c #B87B62",
"4. c #C06548",
"5. c #C37A56",
"6. c #C37D5B",
"7. c #C87859",
"8. c #C67D63",
"9. c #D47F66",
"0. c #AF815B",
"q. c #BA835C",
"w. c #AA8368",
"e. c #B48464",
"r. c #BA8766",
"t. c #BC8B6B",
"y. c #BA9271",
"u. c #C4825E",
"i. c #C8835C",
"p. c #D78754",
"a. c #C48363",
"s. c #CA8563",
"d. c #C58B64",
"f. c #CB8A65",
"g. c #C7846B",
"h. c #C38D6C",
"j. c #CC8C6A",
"k. c #D28264",
"l. c #D38B65",
"z. c #D28D6B",
"x. c #D9896B",
"c. c #C99166",
"v. c #C4926E",
"b. c #CD926C",
"n. c #D3936D",
"m. c #D9936E",
"M. c #D69A6E",
"N. c #CB8A72",
"B. c #D38D72",
"V. c #DC8B73",
"C. c #C49472",
"Z. c #CB9574",
"A. c #CC9A75",
"S. c #C99678",
"D. c #CC9B7A",
"F. c #D49572",
"G. c #DA9573",
"H. c #D59A74",
"J. c #DB9B75",
"K. c #D89479",
"L. c #D39C7C",
"P. c #DC9D7A",
"I. c #EC9A6D",
"U. c #E49879",
"Y. c #E29C7A",
"T. c #DDA06D",
"R. c #CFA27E",
"E. c #D7A676",
"W. c #D4A27D",
"Q. c #DDA27C",
"!. c #E9AB76",
"~. c #E5A77A",
"^. c #E1A37D",
"/. c #B18D8B",
"(. c #C89D8D",
"). c #D49D81",
"_. c #DA9E82",
"`. c #DC9D88",
"'. c #E69C80",
"]. c #D5A382",
"[. c #DBA383",
"{. c #DDA984",
"}. c #D5A788",
"|. c #DCA68A",
" X c #DDAA8A",
".X c #D0B08E",
"XX c #DFAD91",
"oX c #E3A683",
"OX c #E7A587",
"+X c #E4AA85",
"@X c #EAAC86",
"#X c #E5AC8A",
"$X c #E9AD8B",
"%X c #F1AB8D",
"&X c #EAB587",
"*X c #E6B18D",
"=X c #EBB28D",
"-X c #F4B98B",
";X c #E4AD92",
":X c #F5AF91",
">X c #E6B393",
",X c #ECB492",
"<X c #EEB995",
"1X c #ECB49A",
"2X c #EEBA9A",
"3X c #F2B592",
"4X c #F2BB96",
"5X c #F9BA97",
"6X c #F2BD9B",
"7X c #F9BC9C",
"8X c #C39EA3",
"9X c #F2BEA2",
"0X c #F9BDAE",
"qX c #EBC69A",
"wX c #F4C19D",
"eX c #F9C698",
"rX c #FAC49E",
"tX c #F2D39D",
"yX c #EBC1A5",
"uX c #F4C3A3",
"iX c #FAC5A3",
"pX c #F7C9A5",
"aX c #FACBA4",
"sX c #F5C6A9",
"dX c #FAC6A9",
"fX c #F6CAAB",
"gX c #FACDAC",
"hX c #FCD3A5",
"jX c #F5D5A9",
"kX c #FBD2AC",
"lX c #FCD9AD",
"zX c #F5CAB3",
"xX c #F9CEB1",
"cX c #EBD8B3",
"vX c #F2D7B7",
"bX c #FAD2B4",
"nX c #FDDCB3",
"mX c #FAD5BA",
"MX c #FCDCBB",
"NX c #F6E3B7",
"BX c #FDE2B4",
"VX c #FDE5BB",
"CX c #FDE9BD",
"ZX c #FEF1BE",
"AX c #FCDBC3",
"SX c #FDDFCA",
"DX c #FDECC4",
"FX c #FDE4C8",
"GX c #FDECCA",
"HX c #FDF3C8",
"JX c #FDF3CC",
"KX c #FDE7D4",
"LX c #FDF5D2",
"PX c #FDF7D5",
/* pixels */
"zXyX[.].d...G H ..F.1XzXmXzXzXzXfXfXzXfXsX9XuX9XyXsXsXsXsXsXsXuXuXuXwX6X6XwXwX2X2X<X<X<X,X,X,X&X,X=X*X=X@X{.Q.P.J.J.J.J.E.G.M.n.",
"fXoXJ.u.I i t 6 9 t B X.$XxXbXxXxXxXxXfXuXuXuXuXfXgXsXsXgXpXuXuXuXuXsXwXwX2XwX2X2X<X<X<X<X,X,X,X*X*X@X@X@XoXP.J.J.Q.J.J.J.G.n.M.",
"F.r.} 9 3 < , o . o # , i 6.5XsXdXsXfXsXfXwXuX6XuXsXsXfXsXuXuXuXuXpXuXwXwXuX2X6X<X<X<X<X=X<X=X,X*X@X#X#X#X{.P.P.Q.P.Q.Q.Q.M.H.n.",
"a.+.X.;.j.+X=XOX,.q $ < 4 e I a.P.4X9XsXsXsXuX6XuXsXfXfXsXpXsXuXsXsXsXwXwX2XwXwXwX2X<X<X,X&X=X=X$X#X@X*X@X^.J.P.Q.P.Q.P.J.H.H.n.",
"n.H.$XsXxXxXfXxXxX6XF.X.K K K ;.a.P.=XsX9XsXuX6X6XuXuXuXsXuXwXuX6XsXuXwXuXwXwXyXuX2XwX2X,X,X,X=X*X*X$X=X@XoXQ.Q.^.Q.Q.Q.Q.M.m.n.",
"$XwXsXfXsXsXuXuXsXuX9X,XOXK.3.6.z.P.P.4XuXsXuX6XuXuXuXuXuX6X2X6XwX9XuXsXsXuXuXuX2X6X2X2X,X,X*X$X,X=X,X*X$X+XoXoX^.Q.^.oXQ.J.n.b.",
"9XfXuXwX2X,X=X=XOXY.Y.^.OX#XOXOX_.oXQ.$X2XsXuX2XuXuXuXsX6X2X4X6X2X2X9XsXuXsXsXsX2X<X,X*X$X#X#X#X$X$X$X#X#X+X+XoXoXoXoXQ.Q.J.H.b.",
"yXfXwX,X*X~.f.@.s.F.L.F.B.z.P.$X,X>X$X$X<XuXuX6X6XuXuX6X2X<X,X,X<X2X6XsXsXuX9X4X=X$XK.f.a.8.j.b.d.u.d.j.b.H.L.^.^.{.oXQ.Q.H.M.l.",
"uXuX<X$XY.$.t.yXxXxXfXsXyX>XN.z.oX1X9X2X6XuXpXuX6XuX6X6X,X$X@X$X$X,X2X2X$XF.,._ ~ S z p s s d Z ~ | X.:.,.d.f.F.Q.Q.oXQ.Q.J.F.f.",
"uX4X=X+X5.a.MXmXxXfXuX2X,X2X$XF.s.oX2X9XwXuXuXuXwXuXuXuX$X^.J.P.P.^.$XQ.6.| Z u 4 4 , & $ # $ 4 5 p x ` ;.;.>.u.u.H.P.Q.P.H.F.f.",
"wXwX,X^.O.sXmXmXMXmXuX9X;X;XOXK.g.a.$X1XuXsXsXwX6XuXuXuX=Xn.B.z.z.j.f.:./ Z s y q 4 , & , , 4 6 p u p p z H ) _ _ ..q.b.J.H.n.j.",
"2XwX<XG.O.mXFXpX}.C.j.j.G.|.OXz.s.8.B.$X2XuXfXpXwX2X6X2X=Xm.6.a.6.8.;./ S z s s s s h S ' *.a.N.N.,._ H G K H H P H I T *.u.b.d.",
"uXpXuXH.O.bX-.4 & % % % < W #.%.3.8.8.Y.=XuXbXgXpXwX4X<X@XJ.f.6.6.:.} / S S ! Z K ! | <.z.J.#X>X>X#XL.g.3.$.~ K H P P P _ _ *.d.",
"pXsXuXJ.s.! . % . n n   o r d s ! ( 3.B.=X6XzXbXfXwXwX=X+XF.z.i.:.X./ ~ S S S s y ^ N.|.;X[.F.j.Z.P.+XOXP.F.j.<.*.` _ ~ P P P X.",
"gXfX4Xm.Z o q b w .   % * n 1.b b d W ,.2X4XxXAXbXpXwXwX@Xm.i.:. ./ ^ S Z Z 1 q g.,XsXmXmXfXuX,X[.j.<.r.F.K.H.N.a.<.*..._ _ P ..",
"pXwXJ.^ z #.' 1.r w & r r /.8X/.1.d b s >XwXbXFXAXkXpXwX=Xz.O.I ~ / L Z a < s K.oX[.>XyXMXbXsX>X;XoXF.<.~ ..j.j.N.j.a.,.*.+._ _ ",
"kXwX@X=X=X~.+XS.1.r w r n 8X8X/.2.#.| g.9XpXbXSXAXmXfXwX@X5.L L / L A S a y X.S y r % 1.W [ L.1XOXP.N.a.*.Z x r.j.s.f.a.d.r.u.q.",
"kXkXtXwXwX@X$X+X#X).2.t.`.;X;X_.'.U.$X,XsXfXbXAXAXmXpX=Xm. .L I / K L i. .S W b 1./.. n %   o t ..g.g.8.O...~ z b.j.j.c.j.n.H.n.",
"kXfXpXwXqX2X<X6X+X$X,X,X`.Y.B.G._.P.x.$XfXgXmXAXbXgX4X~.i.} Y { ;. .X.J.7XwXwX6XOX`.W % % % % % * & 4 q t g j z ` b.j.d.d.d.b.J.",
"kXhXkXrX4X4X2X4X+XP.F.F.K._.Y.J.8.5.OXuXgXkXmXbXfX7X@XU.5.} } X.6.s.s.l.$X=X$XOXOX1X>X).` d d b b w , % # $ & 4 F ;.;.f.n.H.J.H.",
"fXhXhXpXeX4X<X4X<X=X$X=XoXz.>.( 6.,XxXbXbXbXbXgXiX3XY.i.@.X.O.:.:.l.^.+X@X=X,X=X_.P.oXP.P.G.P.`.S.3.' A s s p Z O.,.<.G.^.^.^.Q.",
"kXfXkXkXhXaXeX&X~.Q.m.i.@.} <.#XuXgXbXbXbXbXgXpX6X~.l.@.@.@.:.>.>.i.G.~.$X4X2X2X4X#XB.j.F.s.<.$.8.g.a.,.$.$.X.;._ P q.M.Q.^.~.Q.",
"gXkXkXkXkXhXhXuX4X@X+XQ.@XwXbXkXbXbXmXbXbXmXgXuX4X~.l.5.O.:.>.i.z.n.J.~.oX<X6X6X6X,X6XOXg.O.,.a.i.u.s.f.j.<...C C X.n.G.b.n.b.i.",
"fXaXpXkXgXfXhXwXwX4XwXiXgXgXbXbXmXbXmXbXxXxXaXwX!.Y.l.7.:.@.:.5.i.z.Y.~.@X<XwXwXuXuXuXsXuX,Xj...A B B C B a a _ J.=X~.Q.J.G.n.E.",
"aXaXkXfXaXkXgXgXpXwX-XuXxXbXmXmXmXbXmXbXbXxXuX3X@X^.U.m.k.@. . .} } O.>.m.@X4X6X6XuXfXfXsXuXpX5X$XH.r.*.;.a.#X4X6X@XQ.^.^.E.P.J.",
"pXgXkXaXgXgXgXgXaXpXwXpXgXbXmXbXgXbXbXxXmXxXwX-X@X^.@XoXm.6.@.O.:.>.X.J F 5.oX,X6X6XuXaXzXxXsXsXuXiXwXiXaX9X4X2X=X<X@X@X=X@X+X~.",
"iXaXaXaXgXgXxXgXgXfXpXkXxXxXxXgXxXgXxXbXbXaXwX4X@X@X$XOXl.6.:.@.s.z.i.5.L h  .Y.,XwX7XpXxXzXgXaXsXiXfXuXuX2X4X6X6X4X=X$X+XoX$XOX",
"iXiXaXgXkXxXkXaXgXgXgXgXxXxXxXgXfXpXgXbXgXaX4X3X%X3X$Xz.:.;.;.5.n.G.G.k.:.h h Y G.=X2X6XuXgXaXzXfXfXuXuXuX6X4X3X4X,X=X@X+X$XoXoX",
"6X7XiXgXgXxXxXbXbXmXxXxXxXxXaXiX4XwXkXbXbXfXiXwX6X$Xj. ./ ^ T @.6.i.i.:. .B C a J l.$X6XuXuX9XuXuXuXuXuX6X6X,X=X,X,X$X$X@X#XoX[.",
"6X6XuXdXdXxXxXbXbXxXgXdXdXuX&XY.4XaXbXmXAXAXbXuX3X6.Y B 4 $ , < < 7 B F J Y { ^ A / z.$X6X6XwX6X6X6X6X6X6X4X,X$X$X=X$XOX+X#XoX^.",
"=X4X6XiXdXgXfXgXfXuXiX9X4XU.5.4XbXkXmXAXAXxXuX7Xl.L y < s B Z C h B C ^ ^ {  .^ / D  .m.$X2X6X9X6X6X6X4X,X,X,X,X=X$X#X$X$XOXoX[.",
"$X$X,X6XiXdXdXuXwX6X4X$Xl.} @XxXbXbXkXfXpX4X@XG./ A s i 7 q 5 u 9 j C s h B P ^ ^ ^ L >.G.$X2X6X2X2X4X,X%X,X$X%X$X$X#XOXoX_.[.P.",
"#X;X,X2X6X9X9X6X5X=X~.x.} P.fXgXpXrXpXwX$X<.D a s s u i p u u t 0 g g g g g i C P { T X.j.Y.$X1X6X,X,X,X;X%X3X$X$X$XOX|.oX_._._.",
"oX#X,X,X6X9X5X4X,XOXU.:.l.6XgXgXuX$X+X,X+Xs.$.~ ! ^ X.X.H C G z x g x g x i e 9 x C G _ ,.n.oX#X=X=X$X,X=X=X,X$X#X$X;XOXOX[.P.[.",
"|.#X#X=X,X6X4X4X$XY.k.5.OXfXaX2Xl.n.z.m.n.i.L i Z f.B.,...^ ~ G G G G C G g i t g t j C P <.oXoXOX$X$X$X$X$X$X$XOX#X#XOX[._._._.",
").[.#X;X,X,X1X$XoXG.6.z.9XsX<XX.<.u.:.} ^ s , u X.F.[.j.X.$.^ ^ P x K G H G C F t g g t p ^ 8.,X$XOXOX$X#X$X#X$X#X#XOX|.OX[.L._.",
"L._.OX#X$X,X$X$XY.z.6.oXzX2X;.J X. .{ J Z 5 s ;.H.P.L.j.s.<.{ P H Z x C x P Z G z g g 6 6 i G H.6X$X+X+XoXoXOXoXOXoX|._.[._.)._.",
"Z.L.[.|.#X+X+XoXG.z.k.,XwX+XF I I ^ { ! A Z a.[.9X2XP.l.l.6.X.! G G ~ ~ H F C C C F g g e 6 t ` =X,X$XoXoXoXoX[._.L.P.).).).]._.",
"Z.L.[.[.oXoX~.P.F.z.Q.2XuXs.L B F X.O.^ :.5.7.V.U.U.U.U.U.s.8.<.3.<.z.oXj.d.=...G G F C i p e e j.,X>X@XoXoX_._.[.L.L.K.).).[.).",
"h.Z.L.K.{.^.oXQ.J.m.>XsX6XX.J K |  .O.6.k.9.x.x.x.V.V.m.x.x.l.l.x.F.x.V.m.G.G.F.;._ _ j z g t 5 G Q.$X*X+X[._.P.L.L.L.Z.).S.D.).",
"h.N.Z.P.[.oX{.Q.Q.E.9XzXQ.;.>.X.@.L D M V U E U U U 4.o.Y U V N m V V U U Y R R 5.i.0.J z G z 3 t X.#X{.{.+X|.[.P.L.].S.Z.L.].).",
"t.t.Z.P.#XoXoXoX{.{.zX2XF.a.g.X.& M O.o.U !.tXtXp.l.lXNXtXI.7X-X!.E !.qXi.m 8 8 m V T R T x H g u G c.{.+X+X+X{.[.L.L.L.L.[.|._.",
"r.t.Z._.#X*X*X#X{.&X<XoXP.n.s.9 M 6.$Xi.M.ZXCXJXhXBXGXGXCX4XlXKXMXeXPXKX!.Y @.O.> m 8 m T P P P g C _ Q. X+X#X#X#X XL.W. X[.[.[.",
"t.g.L.oX*X,X*X{.*X{.Q.~.J.m.} ^ t.f.pX&XhXHXHXJXBXDXGXGXDXlXFXKXnXFXSXFX-X+XKXY.R E.B 8 m J _ *.~ _ _ c.#X$X*X*X{.|.W.[.[.|.[.|.",
"h.h.R.#X,X2X<X{. X{.{.*X+XJ.a.3.&.!.eX-XlXCXNXHXBXDXDXDXCXNXPXPXGXC.FXlXtXfXFX*XqXyX+.T B B { _ q.+.+.q.*X*X#X>X X{.W.}. X X].].",
"h.t.D.#X<X2XwX}.W.#X X}.Q.L.d.| ..E.&XT.jXhXtXqX.XcXNXNXcXb [ /.w.# w.VXy.k KXW.&.sX$.R L V >.q.d.,.r.c.*X#X*X>X#X{.[.}.XXXX X[.",
"C.C.Z.#X<XqXwX{.W.E. XC.D.Z. Xg.F q.E.G 3 : - @ O + - : @ @ X X . O X , o X e $ X 1 @ + @ B n.J.A.u.c.M.*X,X>X#X X].].].XX X X X",
"D.S.C.].*X<XwX*X{.A.L.v.j.j.K.x.V : : O . o @ @ - - = - - @ O O O X X X X O O O + O O X . ~ @X@XM.i.q.E.*X,X>X X X].D.).).].XX).",
"D.R.S.R. X,X2X=X#XW.v.v.H.n.8.7.D 8 0 > o : > > ; : - : - - + @ @ X O O + + = = = = + X 4 =XuX4XM.c.q.#X*X>X,X[.].L.].}.D.].].].",
"D.W.W.D.].*X*XqXQ.E.v.q.{.m.k.4.8 7 a 7 - B Z a 1 M 2 - - = + @ X O + + + = = ; 2 ; = 1 1XaXiX4X~.c.c.~.$X>X#XD.W.}.].]. XXX X|.",
"].}.].D.L.{.*X#X[.+Xd.;.P.z.B.4.8 > 0 0 : I | ( ( | J y ; = O O + + = 1 a ( ( D #.( M 9XgXdX7XiX+XA.M.{.+X X#X].D.).D. X X X X X",
"]. X].R.D.{.{.A.>X{.>.,.U.G.i.9.B : 9 6 # F 5.B.8.X.! K Z y 7 y M W #.%.9.9.1XU.9.9.9XdXiX5X7XdX4XM.H.Q.Q.].D.W.L.D.].|.].|.}.].",
"(.].].W.A.W.Z.h.+Xf.q.d.^.F.5.6.7.: 5 v ' ` 7.z.B.N.8.%.| ! #.#.2.8.).1X0XdXxX:X'.0XxX0X5X5XaXgXeXm.Q.Q.W.].C.W.S.D.].).}. X}.XX",
"R.R.R.W.D.A.h.r.A.d.f.b.~.T.u.k.U.B +.v.c.d.7.k.k.V.K.B.N.8.g.N.).`.0XAXgX7X%X:X0X0X5X:X7X7XaXhXwXH.P.Q.W.t.W.Q.D.D.].].[. X X|.",
"y.D.A.D.C.v.R.c.d.A.Z.b.+XJ.f.m.0X9.q.M.jX{.8.5.7.k.s.k.B.K.`.vXSXMXAXAX5X%XdXdX7X3X%X5XrXaXdXhX4X$X@XE.b.t.A.A.).S.].}.}.[.XX|.",
"y.A.y.C.C.v.A.r.c.d.d.F.E.E.M.l.U.5X@.M.BXCXDXnXvXkXfXbXSXKXFXFXGXMXdX:XdXxX0X:XOXOX5X7XiXrXdXiX3X&X+XQ.H.r.r.r.S.r.D.S.S.).}.XX",
"w.v.S.C.v.C.t.0.c.*.v.E.,X+XE.f.7.%X5XI.5XeXlXlXlXBXNXBXDXCXlXlXaX5X5XxXbX7X'.U.'.3X5X7XwXiXaXaXeX2X#XH.L.d.-.h.r.).D.D.S.L.]. X",
"=.t.y.C.v.y.t.r.0.=.c.E.wX=XQ.H.5.7.U.-XeXlXlXlXlXhXhXhXhXaXrX5XiXgXkXdX%X'.U.'.4X5X6X6XrXdXaXaX&X&XW.A.b.-.-.r.-.S.A.}.D.].S.D.",
"[ w.C.r.r.q.e.w.0.0.q.M.+X2XH.P.i.:.k.lXBXCXCXCXCXCXVXVXnXkXhXaXiX5X:XU.U.U.$X7XwX7X4XwXiXaXaXaXuX@XW.b.v.e.&.e.&.3.e.D.Z.r.S.y.",
"v [ w.-.y.0.0.[ ` ` -.i.&XuXJ.E.c.Q.BXBXCXDXDXHXGXDXDXDXDXCXBXBXrXOXU.@X%X:X6X6XwX=X=XwXrXaXbXkXwXoXb.C.h.t.] [ Q [ [ A.e.=.y.C.",
"f v [ w.w.[ ] ) ` ) q.n.!.hX~.H.aXCXVXVXDXDXLXJXJXJXLXJXJXHXDXCXBXlX<X$X,X6X,X2X2X#X,XrXiXhXnXaX*XM.r.0.t.-.` v G v ) y.' ` r.r.",
"f f v [ [ w.) v v ` -.f.=XhX&XhXBXBXnXBXNXDXJXJXJXPXPXPXJXJXHXDXCXVXBXpX,X,X$X|.#X=XwXrXaXnXnX,XA.q.-.r.=.` c v v l ) [ ` v ].' ",
"f * f v v [ v k v G &.c.5XeXhXlXhXhXlXhXlXBXVXDXHXPXLXPXPXPXLXHXDXDXCXCXBX>XS.oX=XwXiXrXbXBXhX{.A...) 0.[ v k k k l v ` ) [ e.[ ",
"3 * f f v v v k f v ..n.~.hXhXeXeXeXeXeXeXhXBXVXHXHXJXLXPXPXJXJXHXHXDXCXNXBXwX$X5XaXaXlXMXnXqXR.C.y.) ) v k f 6 l f c Q [ [ -.w."
};
