/* XPM */
static char *result[] = {
/* columns rows colors chars-per-pixel */
"64 64 35 1 ",
"  c #0B0B0B",
". c #141414",
"X c #1B1B1B",
"o c #242424",
"O c #2C2C2C",
"+ c #343434",
"@ c #3C3C3C",
"# c #444444",
"$ c #4B4B4B",
"% c #545454",
"& c #585758",
"* c #5B5B5B",
"= c #636363",
"- c #6C6C6C",
"; c #737373",
": c #7B7B7B",
"> c #848484",
", c #8B8B8B",
"< c #949494",
"1 c #9B9B9B",
"2 c #A4A4A4",
"3 c #A8A7A8",
"4 c #ABABAB",
"5 c #B0AFB0",
"6 c #B3B3B3",
"7 c #B8B7B8",
"8 c #BBBBBB",
"9 c #C4C4C4",
"0 c #CBCBCB",
"q c #D3D3D3",
"w c #DBDBDB",
"e c #E3E3E3",
"r c #ECECEC",
"t c #F3F3F3",
"y c #FBFAFB",
/* pixels */
"q963,-*=;160qqqq0624900000qqq00q00009099999989898886764434444222",
"83<-$+OO++$-<2<:=-:,2800qqqqq00000090909998988896878664434443222",
"1>-#$%$+X.XO+@$*;,1466000q0q0q00q0000009099898888668664444444221",
",>,26909<*@#$=>14777869000q0q000000q0900909989888888644444444222",
"579qqqqqq051<2687778879000q00009008,-=:4989888898898666444644222",
"900q009999988876666909090000999998>*$#@$>11224666888666666464221",
"0q0998753222442214690900000009886<-=*%$+@$%*=:><<124666666644321",
"009862,<4777521<<2680000090988762:-===*$OoOOOO#*;:>,<22466644221",
"09961>8qqq0q0962<289000090098542<:======$+OoooO+#%->,<<234444311",
"0974:8eww0998973<28000000000521<,;==*$%========*$$$=;:>>,1344311",
"9082<wewwq098962<1790q0009095<<<>-==%O@%-:,12662<;=%%=--;;><2321",
"00811w01>:;:<3211<2790q0900961<,>-=*@O*><124226773<:;-===--;:,<1",
"000114$XX@o.O&;:,,1680wq0098421,:=*%+#<690wq074246641>:;--=--;:,",
"0q92>+XOX=+.o%&*-;,480ww000861,>:-*%O;4690wwq0961114321,::;----:",
"q96:@+%*@. o@,,;-$=>00wew0006<:;;-=$#,,:=-,8qq9873<><221<,>:;;;;",
"092::<>:$@+$%24<;**-00wewq096,---==*%*@#=.;-*,88631,-:<111<,>:::",
"q0998664>%#%<642<<1600weew082;---=>,:>>,4#@+ .#>221<:==,<<<<1<<<",
"qq009887864688644568qqwewq06<;-;:;<899996,+.XXXo$-:>:;==12211221",
"qq099999668424244240qqwww084,;;>,,<48978884-@++#+oOO+@$$:,<<1124",
"qqq0999974466421,19qqqww0971>::><244888666661>,>;$@OOOO@:>,11332",
"qqqq099888762,:>60qwqwq0072,>>>,,2489898744421122,:-***;::<46664",
"qqqqq009641,,<60qqwwwwq094<>>>,,<1448909982<<<<,,11,>>>;-;124444",
"0qqqq00098899qqqqwwwwqq083<>>>,<2246890909992,:>>,,,,:=*;1222111",
"qqqqqq000990qqqwwwwqwq09822<,>>,,12689900q00084,-*%*%*-<76644224",
"00qqqqqq0090qwwwqwwqwq986662<>:::;;>169990qqq0009822269996666644",
"qqqqqqqqq00qqwwwqwqwqq0886862,>>,<:-=>49900qwq0q0000099999876766",
"qqqqqwqqqqqqqqwqqqqwqq996884<,>,22<,-%:49900qqq00qq0099999877667",
"00q0qqqqqwqqwqqqqqqqq099994<>>><222<:%%;28900qqqq000099998778866",
"00qqqwwwwqqwqq0990qwwqq094>;=&*-;:>:-*=*;18900000000999998886666",
"990qqqqwqqq009460qqeew004:=@+@@@@$*=-;;-=;1890009009998888688666",
"8890qqqqq0096<2qwqwwq008>=@#$%%%%*==-;;;--:289090999998988876664",
"899000000986,<9wqqqq082,=&$$#@@##%%$$*=-;-;<28999999998888686646",
"68900009976,,90q00003:%$%$%&%$$$$$%%$$#*--->16899989998888776446",
"68899999862>60qq755851>-->,:===&**%**$##%**;,2688889998878776646",
"6778999864119q04<11<<:%$:22,>:;--====%$$$$%*=,688788898878766444",
"4668999841,4002:,,:;=@+=,4621<,>:;--==**$$$#$-<88788888876666446",
"44688886411908-;::;;&#:1666444121,>:;;==*%$#@$=49668867664646444",
"24667866212991=;;>>:->18998886864444<,;-==*$#@@:8986686444444464",
"2246686421809>;:,1<<14468900q0009888662,--=*%$@*2886666444433344",
"1224696444007,<1212346889987868511466992>;;=*%$$:786666444224244",
"<124886646q041443321112676421>:-=**:,12,:;::-;*$-286488633422444",
"<124898667074662<1,:--,331,:;%@++X..X@*::::1<>:=;188886664244664",
"<12689866766666,-=*$@@==--*%;,<221111<<<<<2441<,>29q086766446466",
"<1468998766641:+Ooo@@@#%=,38qwwwq998846666614966260wq86764446646",
"114899900664<*OO*>4661,,,<46999909666890q082490969qwq76864466664",
"<128990qq941:#*,46894<,,,<124665898660wwwwwq000980eq944866467766",
"1126890qq831,:29988841<,,<12554469999weerreeq0989ww0914664446676",
"222489qwq94657qwq0083,18qwere05479000wrrttrrwq8990w94<8662242664",
"22247900008680wwww0716rytryyytw99qweerrttrrrw0090q04<16444444644",
"4422479009980weeee09wtyyyttyytreeettteetrrewq009q082<86424466786",
"4442468000qwetrrre0ryyyyyyrrtterrtyyttrrteq00980q08<696444466664",
"64442628090wrtrereryyytrrtrerwerrtyyyyyytw000990q842842422444646",
"444222<1990qwwwqetyttrwwwqwwwq0wetrtyyyyeq0099998629622224446666",
"2244211<2799qq9qrytrww090900009qweetreewew96466424992<4422666676",
"1211112<<489900ette0984687797880qqerw090996212244994<<1221424676",
"<211111,1,289qettw0952<<52<33323490q088966411246784,2,,111212468",
",<2111<,,>1480wre0886<,,>:;;::<,169q09072<,,444662,<2,,<<2422446",
"><11<1,,>>1677qwqq93,:===--*-::>>4899861,;;146442:;2<>,,,1242211",
":,<,,,,,>:,286900q74<;$%%=-=;:,>,42541>;;>44442<:;<1<,:>:,,2<<11",
"*:,,,>-:--,28846992<>-%$%$&-:;-:11<<<;-:,46442<:-<<1<>;;--:1:><1",
"@*;,>>--=;,1804111,::::%%@$%%%-;:>::--:188642<>;,1,,<:=***:>;;<>",
"@#*-;:=%*;,2009q1;;;,>>:*##$$@%-;-=*;:158842<:;,,>:,;=%%%$;;--1;",
"++$%*==$*=:490qq0<;%=*;::-:-;;:;;:-:13366422>-,21:;;;$%$%#=-;>,:",
"+o@#%*%%$*>28qq0994;$$%;>>,<,<,>,<<46453222<:4621,-**#@+$#%=:;>,"
};
