/* XPM */
static char *out[] = {
/* columns rows colors chars-per-pixel */
"64 64 216 2 ",
"   c #2B1608",
".  c #4A2415",
"X  c #5C2C1A",
"o  c #68321E",
"O  c #583F2A",
"+  c #763A24",
"@  c #7E3D26",
"#  c #63432F",
"$  c #6E402D",
"%  c #6A4D37",
"&  c #77523D",
"*  c #7F5D46",
"=  c #814A35",
"-  c #8E4B34",
";  c #96523A",
":  c #865540",
">  c #8C5D46",
",  c #9D5943",
"<  c #955F49",
"1  c #A45E45",
"2  c #89664F",
"3  c #9B644E",
"4  c #916A53",
"5  c #9A6F56",
"6  c #AB644A",
"7  c #A16851",
"8  c #AD6D51",
"9  c #A86D58",
"0  c #B36A51",
"q  c #B76F53",
"w  c #A1765D",
"e  c #A7755C",
"r  c #AE755B",
"t  c #B4715D",
"y  c #B97658",
"u  c #A87B63",
"i  c #AE7D64",
"p  c #B77764",
"a  c #BD7564",
"s  c #B27861",
"d  c #B47F64",
"f  c #BB7E63",
"g  c #C1785B",
"h  c #C87E61",
"j  c #AC836B",
"k  c #BE8466",
"l  c #B3876E",
"z  c #BA876A",
"x  c #BF8B6C",
"c  c #B78C72",
"v  c #BC8E72",
"b  c #C38264",
"n  c #CC8566",
"m  c #C78568",
"M  c #C4816F",
"N  c #C48A6C",
"B  c #CC8C6D",
"V  c #CC8C6E",
"C  c #D18969",
"Z  c #D48C6E",
"A  c #D88F6F",
"S  c #C98270",
"D  c #C88973",
"F  c #D08B78",
"G  c #C39072",
"H  c #C69677",
"J  c #C89172",
"K  c #CC9475",
"L  c #CA997A",
"P  c #CF9C7E",
"I  c #D19071",
"U  c #D09072",
"Y  c #D29172",
"T  c #D09273",
"R  c #D39273",
"E  c #D49374",
"W  c #D59475",
"Q  c #DA9472",
"!  c #DD9876",
"~  c #D79778",
"^  c #D1967C",
"/  c #D89778",
"(  c #D59A7B",
")  c #D99878",
"_  c #D9997A",
"`  c #DB9A7A",
"'  c #DA9A7B",
"]  c #DC9B7B",
"[  c #DB9C7D",
"{  c #DA9D7E",
"}  c #DE9D7D",
"|  c #DC9D7E",
" . c #DD9D7E",
".. c #E09E7D",
"X. c #E2A07F",
"o. c #DD9E80",
"O. c #DE9F80",
"+. c #DF9F80",
"@. c #D4A082",
"#. c #DFA081",
"$. c #DCA386",
"%. c #D8A485",
"&. c #DCA88A",
"*. c #DFAB8E",
"=. c #DFAF94",
"-. c #E0A081",
";. c #E2A181",
":. c #E3A181",
">. c #E0A182",
",. c #E1A283",
"<. c #E3A282",
"1. c #E4A281",
"2. c #E4A383",
"3. c #E5A383",
"4. c #E6A483",
"5. c #E5A484",
"6. c #E6A585",
"7. c #E7A685",
"8. c #E7A686",
"9. c #E8A786",
"0. c #E0A58A",
"q. c #E3AC8D",
"w. c #E7AD8F",
"e. c #E8A888",
"r. c #E9A888",
"t. c #E9A989",
"y. c #EAA989",
"u. c #EAAA8A",
"i. c #EBAA8A",
"p. c #EBAB8B",
"a. c #EBAC8C",
"s. c #EBAE8F",
"d. c #ECAC8C",
"f. c #ECAD8D",
"g. c #EDAD8D",
"h. c #EDAE8E",
"j. c #ECAE8F",
"k. c #EEAF8F",
"l. c #EDAF90",
"z. c #E4B195",
"x. c #E9B193",
"c. c #EDB091",
"v. c #EEB090",
"b. c #EEB091",
"n. c #EDB192",
"m. c #EEB192",
"M. c #EFB192",
"N. c #EFB293",
"B. c #ECB496",
"V. c #E6B599",
"C. c #EAB79A",
"Z. c #EEB899",
"A. c #EEBC9E",
"S. c #F0B293",
"D. c #F0B394",
"F. c #F1B495",
"G. c #F0B496",
"H. c #F1B596",
"J. c #F1B597",
"K. c #F2B596",
"L. c #F2B697",
"P. c #F2B698",
"I. c #F2B799",
"U. c #F3B799",
"Y. c #F3B899",
"T. c #F2B89A",
"R. c #F3B99A",
"E. c #F3B99B",
"W. c #F4B99B",
"Q. c #F4BA9B",
"!. c #F4BA9C",
"~. c #F4BB9D",
"^. c #F5BB9D",
"/. c #F5BC9D",
"(. c #F5BC9E",
"). c #F5BD9E",
"_. c #F1BFA1",
"`. c #F5BEA0",
"'. c #F6BEA0",
"]. c #F6BFA0",
"[. c #F6BFA1",
"{. c #F6C0A2",
"}. c #F6C1A2",
"|. c #F6C1A3",
" X c #F6C2A3",
".X c #F7C2A3",
"XX c #F6C3A4",
"oX c #F7C3A5",
"OX c #F2C4A5",
"+X c #F7C4A5",
"@X c #F7C5A6",
"#X c #F7C6A7",
"$X c #F7C7A8",
"%X c #F7C8A9",
"&X c #F0CBAD",
"*X c #F4CDAE",
"=X c #F8C8A9",
"-X c #F8C9AA",
";X c #F8CAAB",
":X c #F8CBAC",
">X c #F8CCAD",
",X c #F8CDAE",
"<X c #F9CEAF",
"1X c #F3D1B3",
"2X c #F7D1B2",
"3X c #F0D4B6",
"4X c #F6D4B6",
"5X c #FAD3B4",
"6X c #FAD7B8",
"7X c #F1D8B9",
"8X c #F7D8BA",
"9X c #F5DBBB",
"0X c #FADDBE",
"qX c #F6DDC0",
"wX c #F9E1C3",
"eX c #FBE5C7",
/* pixels */
"z.m.6.6.~ N x @.&.B.Z.'.).+X.X+X`.@X`.XX). X X X`.XX X XA.`.A.`.E.`.Y.Z.F.Y.F.N.s.c.0.q.t.c.8.t.,.6.>.6.O. .~  .~ ) E ~ R W Y R ",
"*.6.g.4.` m U ( | o.2.N.{.{.oX X}. X{.{.oXoX@XoX%X@X#X%X{.{.`.'.'.).).E.Y.R.Y.I.H.F.N.s.b.n.v.y.t.6.6.6.O...X.] ] ` / W E R W Z ",
"H ! V f 9 < : = : > < z w.I.E.{.}.+X]. X#XoX).'.%X>X`.XX{.{.!.`.'.'.c.F.Y.E.m.F.D.k.6.t.f.F.6.r.7.6.] O. .-.) ] _  .R ! Y A Z Z ",
"x y , = & & $ X . . O + 7 k P w.^.{.{.{.XX).I.E.=X%X}. X{.).R.).Y.D.m.n.Y.F.H.F.H.s.9.6.d.e.,.-.4.e.6. .}  .' /  .` ~ R A Z C C ",
"t 6 7 f K $.%.v < : = : > 7 f K 6.E.`.{.{.L.B.I.).@X@X XF.J.H.Y.I.Y.H.I.B.Y.F.H.D.D.t.u.6.2.:.<.:.d.6.-.~  ._ ..] -./ Y C C C Z ",
"b B 8.N.E.`.}.~.Y.*.@.K k f f U ( w.^.^.E.v.n.N.}.`.'.E.B.v.n.I.`.~.).'.].).).J.K.n.a.t.9.1.6.:.y.r.r.-.} ' o.` >.>.! R n n C C ",
"8.v.s.N.L./.I.).'.R.N.s.,.' Y ( ] 2.s.I.Y.F.t.F.`.XXJ.N.b.c.8.N.'.oX'. X#X}.I.J.Y.F.r.6.r.i.4.y.g.p.6.,.O.,.' o.:.2.W C n m b n ",
"g.a.t.6.w.w.a.w.s.e.e.q.t.r.o.{ O.>.k.F.F.D.s.B.I.B.s.a.s.r.r.v.+X{. X`.XX{.I.N.x.0.( { >.,.,.5.t.6.:.,.,.>.| | >.O.W C C h h b ",
"4.9.1.-.m / #.e.2.,.~ ] / O.-.5.<.6.r.K.F.I.D.D.c.n.s.r.-.:.4.a.P.).N.s.@.K k k s 9 3 9 r k N V b V W / ~ ,.O.>.| :.W Z h b g g ",
":.:.<.f V n.E.B.m.g.t.:.W m B W -.8.d.m.H.G.K.M.F.k.a.` R R ~ ` 6.8.( d 7 : + $ X X X X X $ : < 3 9 f k N U ~ ( | Q W C h g g y ",
"8.:.m b s.).N.e.q.0.o.t.4.I y g W <.6.m.F.Y.j.F.M.M.t.R m V m V R B 8 < : + X X . . . . X X X $ & : < 7 9 s r b R / V n g g y a ",
"c...y ( B.$.d < > : : 7 N B g y h I ..t.K.G.M.g.M.d.t.W b f k k b t 1 - = + o o $ $ o $ & > < : = = : - < < ; 1 9 f b f g g g g ",
"x.1.b $.z & . . O & # O $ 1 8 y 0 b I :.d.L.M.b.p.g.9.( m b f b t 8 , ; = - - ; , 8 f N K o.E D r 7 7 3 : : : ; ; < < 7 8 y y g ",
"g.O.b d #     . 2 v O   . X = ; 1 q C ! y.Y.Y.M.m.M.e.~ U b f 8 6 1 ; - ; ; < 6 f B W ( ` { >.{ ` T V m s 9 < ; > > : : < 8 8 0 ",
"~ / 8 - o X $ # # & . . . O X $ = ; y Q 9.{.{.~.Y.E.t. .V k 8 6 1 , - : - - @ , y V m m b f r t f V D T E D r 8 7 < : : : 1 , 1 ",
"b 6 ; 6 N 9 9 3 : % . . . # & $ $ @ : ! i. X<X-X#X'.F.,.m 8 1 1 , - = + o @ 7 N E ( O.o.{ R N f 8 < ; 8 m V D N f 9 < : > ; , , ",
"/ R V ` a.j.2.,.V s < 2 : 7 r 3 - ; , 6.M.XX6X8X>X XN.-.y 6 1 1 - @ + X $ 3 3 > $ % $ % = 3 9 s 8 9 - + - f b N s y 9 9 1 8 6 8 ",
"F.k.d.-.3.h.j.v.a.6.o.( R U B m B W ..v.'.%X8X8X<X Xs.W 0 1 6 , - - @ X + + + o . .         . . X X # # X = k U V b f f B b y q ",
"F.K.d.M.v.a.4.O.' / C C Z R C C Z n n D. X<X5X6X<X Xr.I 0 1 1 0 6 B b y s k d x u 2 # . . . .           . X < B f g y b m n b b ",
"D.D.R.E.'.d.W Z Z Z Z Z R n g 0 0 g s.`.-X<X<X<X-X^.6.n 0 6 0 B I W -.4.O.[ ..O.6.O.D t s 9 9 : : = & X . X - ; , 0 g f g g y y ",
"D.L.). XoX XM.X.b y 0 y 6 1 1 y o. X@X%X;X<X<X<X'.F.` n y g g B / r.9.i.1./ V W !  .W Z n C B n f f t s r t 8 , 8 U ..4.<...n C ",
"Y.Y.`.XX<X%X%X`.Y.a.` R ( o.n.`.=X-X>X:X;X>X>X#X^.6.Z m n C W Z ! 9.i.y.k.g.-.m 0 6 q q 6 6 8 y h Z W C b 8 - 8 R U b B / R q 0 ",
"L.).{.-X>X5X-X#X{..XE.`.@X%X X$X=X<X=X<X2X5X-XXXF.:.n n Z ! ! 3.6.d.6.y.M.Y.c.n.8.V 0 1 , 1 ; , ; ; = = = - t B ] 6.W y 6 6 6 r ",
"'. X@X>X6X4X<X%X X'.^.{.>X>X%X`.%X2X<X2X6X5X#X^.v.` n n Z W ! 3.r.p.r.r.D.L.I.D.].~.^.L.s.( N y y t t b } 1.6. .W W  .U k B N N ",
"'.%X>X2X8X8X6X<X{.{.{.%X<X<X#X>X X2X5X8X8X5X`.Y.a.-.A A n n n n h h C X.g.L.W.'.^.^.{.}.}.oX).).L.L.D.D.g.d.5.3.~ V W <. .( b k ",
" X#X-X2X0X0X8X2X:X%X,X,X2X5X<X%X;X>X2X8XwX5X`.D.g.9.1.-.Z g y g g 6 1 8 C i.Y.'.I.E.`.+X%X%XoX[.).^.L.g.d.d.9.6.:.R B ] 6.| d s ",
"`.;X%X5X9XwX8X2X2X<X%X<X2X<X#X@X@X<X>X0X0X2X^.S.F.D.s.i.! n y C ! A y 1 , f ] H.).^.`.#X%X>X#X@X`.{.D.D.g.d.6.6.4.<.n W ,.:.f d ",
"@X@X<X<X5X6X5X<X<X>X#X X XI.s.s.`.-X<X8X8X>X`.L.).E.F.:.Q n n ! g.9.] g , - 6 U s.Y.`.+X>X=X%XXX#X'.Y.c.v.t.4.6.r.1./ U -.| b b ",
").@XoX#X`.%X X`.Y.Y.g.9.W m h s. X<X6X8X5X>X X`.'.`.2.C g h Z 4.r.6.! n 1 - - 1 b >.D. X}.+X`.'.^.R.F.Y.d.g.9.i.1.6. ./ W  .V D ",
"I.|.).).`.E.L.s.3.Q n 0 , 6 ,.{.-X<X8X0X0X6X<X@X`.a.m 8 6 6 8 0 q 0 0 6 6 6 8 1 1 g ! g.F.!.U.K.K.F.D.d.d.i.y.y.r.6.1.) / { U U ",
"v.'.H.).L.D.X.! n y ; - 8 w.@X<X2X8XwXwXeXwX5X%Xt.b , - + + o + + = - 1 0 g q y q 0 y W 6.g.g.b.j.M.8.t.y.d.8.4.t.i.! [ ' ] B V ",
"M.H.F.H.g.X.C g 6 - - f B.%X<X5X0X0XwXwX0X6X%Xn.m 1 @ o + @ @ + @ = - - , 1 6 0 g g 8 y B ..:.r.i.r.3.1.f.y.6.5.9.1.|  .W U B V ",
"t.p.v.a.] I g 8 - - g N.@X2X6X8X4X6X6X5X%X).x.R 1 - + + + + o o o @ + = - ; ; 1 6 q 0 6 6 b W  . .,. .X.X.8.2.2.o.-.{ ( ~ R U T ",
"r.4.y...C g 8 ; = 8 { I.<X2X5X<X#X`.'.`.B. .f 1 - + + + + + + o + + @ = - = + = ; ; ; ; , , y I W ~ R W ! +.,.o.] ~ ( W / U V V ",
"..4...Q m y ; - 6 R | E.`.x.0.s.t.t.9.g.v.| 8 ; , 1 1 ; - - = = = - = - : @ o @ = - = = = : = 8 W ~ I R ~ ` / _ ~ E J K W T B V ",
"..! ..Z g 1 ; ; b ( o.6.E f f W { W B V D r - - y R R 8 6 , ; - - - ; < < = = - = - = + $ $ @ + 9 W ! W R Y T U E N N T E R V V ",
"/ ] ! n q 1 ; 6 K E ( V r 8 0 b V b 0 6 , = @ 1 m ) ~ C f 8 , , - - - ; ; ; - ; - ; - : = & @ + + 7 U | R Y U R I K k T R E Z Z ",
"~ ` ! h y 6 , 6 T N J k 9 0 r y b b 0 8 7 ; k v.F.i.:.! A g 8 1 , , 1 1 1 , , ; , 1 1 , < < = + + @ 1 V E R A ( ( T N K / R Y Z ",
"! <.W h f t , 8 K N x d 9 t s b n I y f b V | F.Y.F.4.<.! Z g y 0 y h m g h 0 0 8 8 1 6 1 6 ; @ + + @ 1 V ~ W { >.( f K ~ U n Z ",
":.3.! g y b 6 0 E N r 9 s t f b C C I ` 3... ...4.8.3...! A C C Z C n Z Y A B y q 0 y 0 8 8 1 > = @ @ - f W ~ o.6.@.b D E R C n ",
"| r...B t U f y E f ; ; ; ; - 1 0 g C W C Y R W A W n n g h y 0 0 0 0 g y y 8 1 6 6 6 6 1 6 6 < = = : ; 6 W ! 8.0.$.x R R E C C ",
"O.a.a./ f m ( k J k 6 ; = @ - ; 6 8 0 0 q g g y y 0 6 1 1 ; ; ; - - - ; ; - = = = = = @ @ @ @ @ = ; 6 8 6 W -.5.0.( N U R T C C ",
"{ x.a.t.V k ( E m m f f f g n n h n h m S n M m m C S F F F S S n m g y 0 8 , 1 , , ; ; - - = - 8 B V b t ` O.-.O.P N J T W C C ",
"P w.F.J.2.f J ' ' ~ R Y ~ Z C n Q X.X.;.6.>.:.q.q.t.0.O.0.{ F U V M M g V m a g a g q q 0 6 6 y ! 3.1.B b O.` _ ( N N J T K U B ",
"N 0.Y.F.v.U f | ..` A ! Q A Z n ! 9.| O.' #.| 2.` #.>.>.V M p f r 9 q g 0 0 a y q y 0 0 8 y n 3.y.3...I B ] | { K J J K K J m m ",
"z P N.L.H.6.k N ,.{ R W ! Q ! n b m h y M f p p t y p s r 3 3 3 3 < 3 3 3 7 0 0 0 0 8 6 y B 8.n.y. .R k ` 2.O.T N x J P H J N N ",
"L P 0.I.I.Y.T y / 6.W ! ! ! Z C f t 3 1 7 9 7 9 9 9 9 9 7 7 > > > > > < < 3 7 9 t t 8 q n 8.v.v.6...f b O.6.T k z x x N G J k N ",
"L P ( a.L.L.0.f b :.<.! ..Q A n h y r 8 r t t y f s s r r 9 3 < > > < < 3 7 7 9 9 8 t b ,.N.n.6.,.{ y B O./ b d f k z d J D N N ",
"K %.@.5.t.m.n.E t R 4.4.<.! A n y y q y y b b B N N f f r 9 7 3 < < < 7 9 y p f t f m O.n.F.w.8.3.W y W W D s s d k f x N K J R ",
"P %.%.@.$.s.v.| s y 6.6.-.! ! n g g b b ' { W W W I m f f s 9 7 9 7 r f N R U V V U O.l.N.n.s.8.3.h m R T f s s d f k z K D W ( ",
"@.&.@.%.>.q.0.2.D f W r.1.-.! A b b b ~ v.Y.9.e.6.:.R B m k f k N D K | 2.i.:.-. .o.6.N.b.D.s.v.] b V W N s r s s d k J K ^ T K ",
"@.%.@.o.%.P k ^ { W W r.i.:...A n h R 8.I.D.t.t.t.e.6.2.s.$.@.0.w.w.c.s.J.s.t.:.5.,.e.t.s.s.t.e.T N U B p d d s k x H H ( P N k ",
"L %.$.$.P x 5 u N ( ] D.v.6.....A W t.F.m.m.g.t.:.r.l.N.s.C.B.Z.N.L.H.I.s.q.|  . .w.q.t.e.s.q.q.V W U b t k J x z J L P K L K ( ",
"H %.%.%.P i 2 2 7 x 6.D.L.9.1.r.1.4.G.L.L.H.F.c.n.M.G.B.B.B.C.E.'.J.Z.v.s.o.>.#.e.e.e.e.e.w.w.0.E ( R s s x N ( J J H T T ( @.^ ",
"v @.P %.L i < * 2 w H ^.).L. .g.d.j.a.L.^./.B.^.).A.B.A.`. XE.;X<X#XB.F.w.,.' >.2.e.,.2.e.s.q.>.{ o.N e r 9 9 J H x x T ( $.0.$.",
"l L P L L d * % 2 2 d x.@X).6.:.g.h.t.N.). X~.'.oX.XoX X%XXX-X-X<X X0.0.w.8.O.O.2.,.,.5.t.c.w.0.o.| k x x 7 9 s ^ J v N ( @.0.q.",
"w G L @.H u & & & & w $..X@XD.p.i.l.y.H.Y.E.^.{. X.XXX;X X-XA.).B.s.o.t.8.8.>.' _ #.2.t.s.I.L.q.{ K z c i w 9 s k ^ K K T @.0.&.",
"w z L P x w % % & & 5 d ).>X).a.t.f.y.M.L.F.Y.T.I.D.s.g.J.Y.w.w.d.r.2.8.8.O.' ` O.,.2.s.L.Y.R.t.{ K d v j i i 9 7 p N J L P z i ",
"5 w v z d 5 # # % & > 7 &.2X`.v.t.d.X.g.G.Q.F.F.F.M.2.s.s.6.| ,.0.8.~ ~ ] { _ { <.0.>.s.Y.'.F.q.( z 5 G z l u 7 = 3 9 d d w 4 4 ",
"% & 2 5 u 5 # # # % * 3 K ,X-XJ.2.e.E.].%X{.E.R.^.L.b.v.j.a.4.:.>./ R W  .-...2.s.O.o.n./.(.^.0.H z 7 w u 7 5 3 & & > > > < 2 > ",
"O O # * 4 4 % O # % & < k -X;Xz.&.XX%X:X;X2X%X%X`.}.)./.S.D.n.v.6.:.U U W | $.e.5.2.s.P.E.{.B.( x d l 4 4 * 2 4 # % > 3 3 7 7 i ",
"O O O % * 2 & O O O & > V '.2X2X8X8X4X2X5X8X0X9X2X<X2X<X-X{.'.'.R.J.( K T ^ _ O.,.u.N.P.{.|.q.G G w u 4 > * * & O # < 7 s d f z ",
". . . # % * & # . O $ < o.`.-X8XqXwX9X8X8XqX9XwXwXwX8X8X9X6X@X@X#X:X_.z.@.K D [ s.J.m._.@X_.( G x w * * & & O O O # & < 9 r r s ",
". . . O # & % # . X # d q.XX1X1X8X9X9X1X3X3X3X3X7X7X3X3X3X3X&X&X*X&X&X&X&X=.P &.V.A.A._.OX=.v c l w * & & # O O # # % * 5 3 e u "
};
