/* XPM */
static char *out[] = {
/* columns rows colors chars-per-pixel */
"64 64 226 2 ",
"   c #2B1608",
".  c #4A2415",
"X  c #5C2C1A",
"o  c #68321E",
"O  c #583F2A",
"+  c #763A24",
"@  c #7E3D26",
"#  c #63432F",
"$  c #6E402D",
"%  c #6A4D37",
"&  c #77523D",
"*  c #7F5D46",
"=  c #814A35",
"-  c #8E4B34",
";  c #96523A",
":  c #865540",
">  c #8C5D46",
",  c #9D5943",
"<  c #955F49",
"1  c #A45E45",
"2  c #89664F",
"3  c #9B644E",
"4  c #916A53",
"5  c #9A6F56",
"6  c #AB644A",
"7  c #A16851",
"8  c #AD6D51",
"9  c #A86D58",
"0  c #B36A51",
"q  c #B76F53",
"w  c #A1765D",
"e  c #A7755C",
"r  c #AE755B",
"t  c #B4715D",
"y  c #B97658",
"u  c #A87B63",
"i  c #AE7D64",
"p  c #B77764",
"a  c #BD7564",
"s  c #B27861",
"d  c #B47F64",
"f  c #BB7E63",
"g  c #C1785B",
"h  c #C87E61",
"j  c #C07B6B",
"k  c #AC836B",
"l  c #BE8466",
"z  c #B3876E",
"x  c #BA876A",
"c  c #BF8B6C",
"v  c #B78C72",
"b  c #BC8E72",
"n  c #C38264",
"m  c #CC8566",
"M  c #C78568",
"N  c #C4816F",
"B  c #C48A6C",
"V  c #CC8C6D",
"C  c #CC8C6E",
"Z  c #D18969",
"A  c #D48C6E",
"S  c #D88F6F",
"D  c #C88973",
"F  c #D08B78",
"G  c #D38E7E",
"H  c #C39072",
"J  c #C69677",
"K  c #C89172",
"L  c #CC9475",
"P  c #CA997A",
"I  c #CF9C7E",
"U  c #D19071",
"Y  c #D09072",
"T  c #D29172",
"R  c #D09273",
"E  c #D39273",
"W  c #D49374",
"Q  c #D59475",
"!  c #DA9472",
"~  c #DD9876",
"^  c #D79778",
"/  c #D1967C",
"(  c #D89778",
")  c #D59A7B",
"_  c #D99878",
"`  c #D9997A",
"'  c #DB9A7A",
"]  c #DA9A7B",
"[  c #DC9B7B",
"{  c #DB9C7D",
"}  c #DA9D7E",
"|  c #DE9D7D",
" . c #DC9D7E",
".. c #DD9D7E",
"X. c #E09E7D",
"o. c #E29F7D",
"O. c #E2A07F",
"+. c #D89380",
"@. c #DD9E80",
"#. c #DE9F80",
"$. c #DF9F80",
"%. c #DD9986",
"&. c #CFA186",
"*. c #D4A082",
"=. c #DFA081",
"-. c #DCA386",
";. c #D8A485",
":. c #D7A88D",
">. c #DCA88A",
",. c #DFAB8E",
"<. c #DBAB91",
"1. c #DFAF94",
"2. c #E0A081",
"3. c #E2A181",
"4. c #E3A181",
"5. c #E0A182",
"6. c #E1A283",
"7. c #E3A282",
"8. c #E4A281",
"9. c #E4A382",
"0. c #E4A383",
"q. c #E5A483",
"w. c #E6A483",
"e. c #E5A484",
"r. c #E6A585",
"t. c #E7A685",
"y. c #E7A686",
"u. c #E8A787",
"i. c #E9A887",
"p. c #E0A58A",
"a. c #E3AC8D",
"s. c #E7AD8F",
"d. c #E8A888",
"f. c #E9A888",
"g. c #E9A989",
"h. c #EAA989",
"j. c #EAAA8A",
"k. c #EBAA8A",
"l. c #EBAB8B",
"z. c #EBAC8C",
"x. c #EBAE8F",
"c. c #ECAC8C",
"v. c #ECAD8D",
"b. c #EDAD8D",
"n. c #EDAE8E",
"m. c #ECAE8F",
"M. c #EDAE8F",
"N. c #EDAF90",
"B. c #EEAF90",
"V. c #E4B195",
"C. c #E9B193",
"Z. c #EDB091",
"A. c #EEB090",
"S. c #EFB090",
"D. c #EEB091",
"F. c #EDB192",
"G. c #EEB192",
"H. c #EFB192",
"J. c #EFB293",
"K. c #ECB496",
"L. c #E6B599",
"P. c #EAB79A",
"I. c #EEB899",
"U. c #EEBC9E",
"Y. c #F0B293",
"T. c #F0B394",
"R. c #F0B495",
"E. c #F1B495",
"W. c #F1B596",
"Q. c #F1B597",
"!. c #F2B596",
"~. c #F2B697",
"^. c #F2B698",
"/. c #F2B799",
"(. c #F3B799",
"). c #F3B899",
"_. c #F2B89A",
"`. c #F3B89A",
"'. c #F3B99A",
"]. c #F3B99B",
"[. c #F4B99B",
"{. c #F4BA9B",
"}. c #F4BA9C",
"|. c #F4BB9D",
" X c #F5BB9D",
".X c #F5BC9E",
"XX c #F5BD9F",
"oX c #F5BE9F",
"OX c #F1BFA1",
"+X c #F5BEA0",
"@X c #F6BEA0",
"#X c #F6BFA0",
"$X c #F6BFA1",
"%X c #F6C0A2",
"&X c #F6C1A2",
"*X c #F6C1A3",
"=X c #F7C2A3",
"-X c #F6C3A4",
";X c #F2C4A5",
":X c #F7C4A5",
">X c #F7C4A6",
",X c #F7C5A6",
"<X c #F7C6A7",
"1X c #F7C8A9",
"2X c #F0CBAD",
"3X c #F4CDAE",
"4X c #F8C8A9",
"5X c #F8C9AA",
"6X c #F8CAAB",
"7X c #F8CBAC",
"8X c #F8CCAD",
"9X c #F8CDAE",
"0X c #F9CEAF",
"qX c #F3D1B3",
"wX c #F7D1B2",
"eX c #F0D4B6",
"rX c #F6D4B6",
"tX c #FAD3B4",
"yX c #FAD7B8",
"uX c #F1D8B9",
"iX c #F7D8BA",
"pX c #F5DBBB",
"aX c #FADDBE",
"sX c #F6DDC0",
"dX c #F9E1C3",
"fX c #FBE5C7",
/* pixels */
"1.G.t.r.` B k k e u J I I :.<.1.1.V.V.V.1.V.1.V.1.V.V.P.U.I.P.P.C.V.1.V.a.x.x.R.x.Z.x.Z.x.Z.x.x.d.r.0.g.0.0.' ..^ _ W ' ( Q Q E ",
",.k.b.c.t.Q d k u u b I I ;.:.<.1.V.1.V.V.1.V.1.V.1.V.1.I.P.P.1.V.V.V.V.a.F.z.x.v.z.J.x.D.z.A.z.z.r.y.0.h.0.O.[ [ ' | ' | ' Q A ",
"J o.O.t.9.' f k u k x I -.p.p.a.V.L.V.L.L.P.1.V.V.P.1.L.U.OXV.V.V.L.V.V.V.V.a.F.R.R.z.g.v.Y.g.z.g.g.5.t.u.t._ [ ` ..( ..| | T A ",
"H ~ | o.8.( M f f Y p.I.XXOXXXXX>X,X#X%X1XXXL.L.|._.L.|.=X,X#X_._.P.[.U.OX|.W.R.`.E.N.Z.T.J.v.z.l.d.r.0.i.8.] _ ..' ' X.o.( E A ",
"H ~ ! | ' { Y V C } 0.d.d.x.E.#X@X>X+X,X-X,X#X=X`.@X#X>X=X>XXX=X[. X}./.K.`.R.W.Y.T.Z.J.u.z.g.k.y.y.q.r.9.6.` ' ' ' | O._ ! A Z ",
"J ! A ! _ R s 7 7 7 7 5 5 s / F./.#X=X@X=X%X=X}.|./.@X=X>X%X|./.[.|.`.E.E.J.Z.B.!.E.J.v.v.8.t.t.y.6.3.o.t.q.| ' | ' #.| _ T Z Z ",
"J X.Z S m 7 = & $ $ X O O # = s -.P.Q.|.=X=X}.#X`.(.R.#X$X,X|.J.W. XR.Q.J.Y.g.J.J.`.B.n.y.q.w.t.t.q.[ o.i.d.Q _ ..$.` ..' T M m ",
"J | Z h 0 8 s H I J 5 $ # # $ = 7 l ( g.|.}.XX`.Q.v.R.Q.$XXX`.F.H.v.x.E./.J.J.R..X~.J.N.S.g.6.0.r.8.o.y.l.y. .{ 5.#.=.#.[ Y m n ",
"b q.| ! ! g.Q.|.|.=X|.p.b u 5 3 3 9 l ` z.}./.`.M.l.p.}.}.XXJ.J.a.k.g.|.Q.|.`.%X_./.C.Y.z.z.p.0.2.6.t.h.t.y.$.5.{ 2.{ | _ T M h ",
"x k.y.i.Y.Y.E.Q.^.=X#XXXXXC.p.E B f n C ` l.!.H.M.d.y.N.XX`.x.g.r.g.y.J.@X#X=X%X#XQ.C.x.v.0.0.#.#.6.3.3.t.y.#.#.#.@.#.' [ A m y ",
"b g.o.g.v.J.u.B.J.Z.x.F.R.F.0.5.#.^ C T ` y.M.J.v.v.g.N.x.J.d.3.3.0.y.B.|.}.`.XX_.F.p.-.) Y l l B R M C C Q C ^ { #._ { [ A g a ",
"J x.5.8.u.0.y.Q C ` =.0.0.6.{ ` $.( ` ` ..q.d.b.H.c.g.M.H.M.y.` $...5.g.`.R.p./ l r 3 3 > = = & = < 3 3 r f f B C R E ^ ` V g y ",
"J E.i.t.q.q.m y } Q.I.R.g.z.$.Q n n V ` 8.q.d.D.l.k.g.H.k.v.$.T C C E $.$.` f 7 = $ X X . . . . . X $ = = 3 7 9 9 r f D C M y g ",
"J a.Q.J.6.A y $.`.XXR.p.d.d.0.[ A t q n ~ r.y.H.B.h.d.l.v.z.' n n n M V M t , = $ X X . . . . . X $ + + @ = : > > > , , 7 8 t q ",
"K 0.g.R.{ f n F.L.I 9 < < 3 7 l M g 8 q m [ o.v.S.S.0.u.g.l.E f f l y l p 8 - = + @ o $ $ = - 7 i l r 3 < < > - - - - > > > > 6 ",
"I } v.z.#.f E ) 4 O . . X .   X = 1 6 8 f V Q q.E.M.d.y.g.y.! n f y f t 8 1 - - = = - , t l B Q =.@.` R R B f r 9 , , > > : = - ",
"I *.#.z.0.C B :       . 4 #       X = , 6 n A 6.v.T.g.l.d.y._ C l f t 6 , ; - - = - - , 9 f y f t f l M M C R Q B f r 9 3 > - ; ",
"d.{ T C M 8 - $ X X X O # .       . X + = 8 A | B.|.Q.J.J.l...C l t 6 , ; = = @ o + > r Y } [ R M f 9 3 ; ; 9 l M n l d s 7 6 8 ",
"d...V M 8 , 1 T Y f t 7 > $ . . X & $ X + = h O.R.1XOX|.|.`.=.C t 6 ; ; - = + X o 7 9 7 5 5 3 5 9 s t t 9 > + @ 9 n f f l f f n ",
"*.d.S.n.M.c.| O.T.l.g.} Y x s w 9 9 3 - < , n l.`.9X0X,X,X|.g.M 6 , 1 ; = + X X @ = +   . .       . X # & & $ X $ i C C B n f y ",
") r.S.E.S.Y.u.t.t.B.d.v.d.y.6.{ Y Z Z Z T O.d.`.XXyXyXyX1XXXX.g 1 1 1 - ; ; @ @ @ ; < & # .                   . . + l f 8 f m T ",
"2.0.E.(.(./.`.b.y.| _ ! U A A A A Z A m m m d.|.1XwXyXyX9X`.X.g 6 1 0 6 y T _ Q _ ^ Q ) K i 4 > > > : $ & & o . . $ 1 8 M ' #.2.",
"g.n.k.~.}.#X|.=XT.~ h h m A Z A m h 0 0 y O.#X1XwXiX9XwX1XXX_ g 0 0 g Q _ ..o.| ( _ _ #.q.X.m m Z T M f 9 9 6 9 9 p 1 8 f g y 0 ",
"c.g.c.(.@X#X=X1X8X@Xl.A g 6 1 1 1 1 8 C _.6X,X1XwX8X4X1XXXx.Q g g g h U 6.k.u.h.y.T n g m m h g y 0 0 g Z A ! m h 1 6 U X.V 8 y ",
"y.M.S.Q.|.,X<X1X1X%X@X#XT.y.' ) ) d.`.6X1X6X8XtX9X0X<X9XQ.6.A m m A U ! X.l.k.E.G.Y.p.C 8 1 1 , 1 6 8 q 8 0 1 - @ 1 n C ^ 2.^ C ",
"z.S.R.|.#X,X1XwXwX1X%X|.$X@X#X#X,X,X>X,X1X8X0XwXiX9X9X=XJ.' m Z S ! X.d.k.k.l.g.Y.E./.^.`.p.` n y 8 , ; ; , 1 y U O.| T C  .0.Q ",
"M.E.M.|.XX0X<X9XyX0X1X,X#X@X`.9X6X1X%X1XwXwXwXtXyXyX=X#Xv.| Z Z Z ! ~ q.d.h.t.l.E.J.Y./..X>X}.#X+XXXx.x.J.W.k.M.l.d.o.| C E o.` ",
"S.E.E.}.=X9X0X9XiXwX9X,X=X=X#X1X0X6X=X,XwXwXwXyXdX9XXXQ.v.| S Z Z h h h m m A o.J.(.^.^.%X@X#X-X<X,X@X|.#X|.J.v.v.t.8.X.| T .._ ",
"d.J.|.@X#X0X1XyXiXaX8X9X#X4X,XwX8X4X,X<X1XwXiXdXaXwX#X`.l.v.6.#.m g y h q 8 1 0 Y z.^.|.|.:X#X8X,X<X=X%X(.W.z.k.8.u.w.r.o.' T ` ",
"q.v./.|.=X,X4X0XtXtX0X8X4X4X1X,X1X,X=X#X6XwXwXpXaX9X XJ.Y.Y.F.d.! g g Z ~ Z 0 ; , y $.Q.[.|.=X4X6X<X$X=X#X`.Z.h.f.k.0.q.8.#.' Q ",
"q.H.b.Q.$X=X}.,X<X6X=X=X=X,X|.`.B.d.| J.,XiXwXpXaX9XE.}.`.}.M.O.A m g o.k.d.S q - ; 1 C r.E.Q.#X-X=X^.`.`.`.h.l.g.k.q.t.8.q.W ^ ",
"k.l.h.Y.#X.X}.|.#XXXQ.J.R.z.O.A g 0 T Q.1XtXtXiX0X6X#X#X-X#Xy.m h g A o.q.| Z q , ; ; , f ' d.M.`.^.J.v.E.m.k.g.l.u.w.q.r.8.` T ",
"8.y.y.Z.T.[.[.^.R.J.d.O.! m q , ; n Q.6X1XyXyXdXpXtX<X1XXXx.M 0 1 8 0 q 0 8 6 1 6 q 0 8 6 y E 8.u.z.z.z.u.l.u.z.w.t.t.0.2.8.{ _ ",
"8.w.k.l.H.T.^.R.z.O.~ Z g 1 - - V Q.6X9XtXyXfXfXdXdXwX=XB.M 1 - @ + + + + @ - 1 6 0 q q y 0 q M T ' 8.6.q.6.q.6.t.0.6.{ @.' ` T ",
"5.t.X.9.h.S.d.v.o.A g 0 ; - 1 Q _.,X1XiXpXdXpXdXaXyX=XR.C 6 @ + o + + o + = = - ; 1 1 0 g g 6 6 y M U _ ' ' ( [ O.=.Q ` ..` Y C ",
"o.O.o.X.g.u.y.| Q g 0 ; - , E Q.8X0XwXwXyX8XwX1X,X_.V.T 8 - + o + o o o + + + = - - - ; 1 1 , < ; 1 f Y Q T Y Y Q Q T E Q R U C ",
"( [ ~ | | o.X.~ h q , - ; M @._.,X1X1X1XXX|./.XXx.` y 6 - = + + + + o + + @ @ = = + + = - - = = = = - f T E Y A C Y Y E B B R E ",
"^ | ~ ~ | ~ ~ A g 6 ; ; y E $.R.x.=.` @.0.=.0.g.g.E 6 ; ; ; ; - = @ = @ = = - - = + @ = = = + $ $ $ + = s / ` U A C U Y C B Q T ",
"E ' W | | ~ S m q 1 ; 1 Y E ^ @.B p t R _ Q l n n t ; ; t C n 6 , ; - - - - - ; - - = - - ; = = = + + $ = t C Y Y Q C E K B Y A ",
"C ( ' | X.~ A m y 1 ; 8 Y B R l t 9 9 f n f 6 6 , = @ 1 M Q U g y 1 ; - - - - ; ; - ; - ; ; ; < < = + + $ = 6 M E T R ) L B C V ",
"l T ` 6.#.| m g y 1 ; t M B B d 9 9 8 y f l 8 8 , ; t 6.y.O.! A g 0 1 1 ; , 8 8 1 1 1 1 1 6 6 6 3 < @ $ + @ = t Y E ` =./ C W Y ",
"l T { 6.w.[ n f n 8 , p C l l r 9 8 t f n V f y f M ` g.R.z.X.! Z g q 6 8 0 g g h g y 6 6 0 0 6 1 , : + @ = = 1 C E @.-.} R Y Z ",
"c / } g.G.d.M t C M 6 l R s , 9 7 9 6 t h Z m A ! ! A ( O.q._ ! Z Z g g g g y h h g 6 6 1 6 1 ; ; < = = = > ; ; V ..} *.) L C Z ",
"x L -.M._.Y.` t M ^ n y C t , - - @ = - 6 y g h h h m m A m g y q 8 , ; , , 1 , , - = @ = = + o + + + = 3 r y 1 T @.} ` L L R V ",
"f R p.E.K./.z.C p ) Q D M l r 9 , ; , 6 6 0 0 0 0 q 0 0 6 6 1 1 , , , , , 1 , , - = = - = ; - - - - , f C ^ M y ! ..) ) H L V M ",
"x c -.Z.J.W.Q.} f B { ` Q A B M M M f g m m A F F D N N D D F F F F F D D n g a a g q 0 q q q 6 6 8 n X.O.X.m l ..[ ) K J L B B ",
"P I L g./.`.Y.g.C f E ..' Y C U ( ( h h ! ..+.%.{ %.G %.-.5.+.` G F N N a y y a t g q g g y 6 0 g A 6.v.o.| f U 6.@.B c J K l B ",
"P I L } G.~.J.N.$.t l #.| C C Z ! ! Z h M C M j Y Y C D D D C C N t 9 7 7 7 9 9 9 8 8 0 0 0 6 y ! g.B.q.O.C f [ 0.L l x c C B B ",
"L ;.*.{ 0.G.G.W.d.n t ^ 7.| ' ^ A ! Z n t 8 8 9 7 r 9 9 9 9 9 w 7 3 < 4 > < > 3 3 9 9 t 8 8 q Z 6.J.v.#.` n n ..Q B f c x L K E ",
"I ;.;.*.;.a.N.x.d.B 9 B i.t.X.| ~ A Z g y y t 8 6 8 r r t s r 9 7 3 4 > > > < < 3 3 7 8 9 t M { z.x.6.{ Q y U ! M f s x L D / ) ",
"*.>.&.;.=.-.` } 0.@.t t #.g.o.O.~ S M g f f 8 y t f f l n l t r 7 3 > > > < > 3 7 9 7 8 t C } Z.J.N.0.6.M n T Q f s s K L / R L ",
"*.;.*.-.;.I f c p.` C f ` u.q.o.| ~ m g g n f n ..E Y Y E M p r 9 7 3 , 3 7 9 t f l f l C =.F.C.K.x.a.Q n U T B s s c H ) I B l ",
"P ;.-.-.I J w 4 d R Q Q { H.w.r.| o.A n g h C 6.v.d.t.y.O._ D B s s d d d l C Q ` ^ R E ^ z.x.C.a.C.=.M M U C f s l J I L P L ) ",
"J ;.:.;.;.x 5 & 4 s ) 5.l.E.v.X.8.X.~ m Z Q y.Z.R.r.9.0.r.y.d.=.I ) @.p.a.p.p.0.p.=.{ ` 6.s.s.a.a.a.Q V U T l l H K J L R ) } / ",
"b *.I ;.I b 5 & 2 4 d d.Y.~.Q.o.8.u.| ~ r.z.K.E.~.J.3.t.g.Z.s.g.C.V.,.x.C.K.0.@.=.2.) d.d.x.p.s.a.a.Y E E B 9 x J c c K ) -.p.-.",
"z P I P I x 2 % 2 2 w *.@X%X|.l.q.n.l.r.y.l.^.`.|.`.R.Z.J.Z.K.C.I.#X%XI.K.s.0.#.} } =.8.r.p.0.a.x.-.) E H r 9 s L K b c ) } p.a.",
"w H P *.J d & % & & 4 J _.,X}.J.8.q.h.u.g.v.|.%XXX#X}.}._.|._.-XOX,X#XXX-.p.a.e.` ' { 6.6.d.s.C.-.-.) K d i 9 s f / L K L *.-.>.",
"w x P I c w & % & & 4 i V.8X4XXXg.q.h.k.M.M.)._.}.XX[.|.|.oX%X#XI.C.x.y.y.d.0.6.' Q { #.p.m.M.F.,.*.b H k k i 9 7 p B K P I x i ",
"5 w b x d 5 # # % & * 3 L wX1XXXv.d.O.y.m.{.E.E.E.`.z.Z.Z.Z.p.a.d.v.0.0.0.0.` ' ' #.' e.m.Q.W.`.p.I 5 v x z u 9 = 3 9 d d w 4 4 ",
"% & 2 5 u 5 % # # % & > c ,X9X%XM.6.g.|.1X%X].'.XX~.D.m.m.z.w.4.5.{ { ` ..| ` ' r.p.` p.E..X Xs.*.b u 5 u 5 7 5 & & > > > < 2 > ",
"O O # * 4 4 % O # % & > s #X6XI.;.P.1X7X6X0X1X4X+X&XoX.XY.R.G.H.r.2.E Y U _ ' 6.e.d.6.Z.].%X|.p.H d z 4 4 * 2 4 % % > 3 3 7 7 i ",
"O O O % * 2 & O O O & - l oXwXtXyXiXrXwXtXiXaXpXwXwXtX0X5X%X@X|.`.~.=.L R / ^ #.6.j.J.^.%X*XC.J H u u 4 > * * & O # < 7 s d f x ",
". . . # % * & # . O $ < @.+X5XiXsXdXpXiXiXsXpXdXdXdXiXiXpXyX,X,X<X7XOXV.*.L D { x.Q.G.OX,XOX) H c w * * & & O O O # & < 9 r r s ",
". . . O # & % # . X # d a.-XqXqXiXpXpXqXeXeXeXeXuXuXeXeXeXeX2X2X3X2X2X2X2X1.I >.L.U.U.OX;X1.b v z w * & & # O O # # % * 5 3 w u "
};
