/* XPM */
static char *out[] = {
/* columns rows colors chars-per-pixel */
"64 64 232 2 ",
"   c #2B1608",
".  c #4A2415",
"X  c #5C2C1A",
"o  c #68321E",
"O  c #583F2A",
"+  c #763A24",
"@  c #7E3D26",
"#  c #63432F",
"$  c #6E402D",
"%  c #6A4D37",
"&  c #77523D",
"*  c #7F5D46",
"=  c #814A35",
"-  c #8E4B34",
";  c #96523A",
":  c #865540",
">  c #8C5D46",
",  c #9D5943",
"<  c #955F49",
"1  c #A45E45",
"2  c #89664F",
"3  c #9B644E",
"4  c #916A53",
"5  c #9A6F56",
"6  c #AB644A",
"7  c #A16851",
"8  c #AD6D51",
"9  c #A86D58",
"0  c #B36A51",
"q  c #B76F53",
"w  c #A1765D",
"e  c #A7755C",
"r  c #AE755B",
"t  c #B4715D",
"y  c #B97658",
"u  c #A87B63",
"i  c #AE7D64",
"p  c #B77764",
"a  c #BD7564",
"s  c #B27861",
"d  c #B47F64",
"f  c #BB7E63",
"g  c #C1785B",
"h  c #C87E61",
"j  c #C07B6B",
"k  c #AC836B",
"l  c #BE8466",
"z  c #B3876E",
"x  c #BA876A",
"c  c #BF8B6C",
"v  c #BF8470",
"b  c #B78C72",
"n  c #BC8E72",
"m  c #C38264",
"M  c #CC8566",
"N  c #C78568",
"B  c #C4816F",
"V  c #C48A6C",
"C  c #CC8C6D",
"Z  c #CC8C6E",
"A  c #D18969",
"S  c #D48C6E",
"D  c #D88F6F",
"F  c #C98270",
"G  c #C88973",
"H  c #CC8A78",
"J  c #D08B78",
"K  c #C39072",
"L  c #C69677",
"P  c #C89172",
"I  c #CC9475",
"U  c #C5987F",
"Y  c #CA997A",
"T  c #CF9C7E",
"R  c #D19071",
"E  c #D09072",
"W  c #D29172",
"Q  c #D09273",
"!  c #D39273",
"~  c #D49374",
"^  c #D59475",
"/  c #DA9472",
"(  c #DD9876",
")  c #D79778",
"_  c #D1967C",
"`  c #D89778",
"'  c #D59A7B",
"]  c #D99878",
"[  c #D9997A",
"{  c #DB9A7A",
"}  c #DA9A7B",
"|  c #DC9B7B",
" . c #DB9C7D",
".. c #DA9D7E",
"X. c #DE9D7D",
"o. c #DC9D7E",
"O. c #DD9D7E",
"+. c #E09E7D",
"@. c #E29F7D",
"#. c #E2A07F",
"$. c #CA9E84",
"%. c #D89380",
"&. c #D89982",
"*. c #DD9E80",
"=. c #DE9F80",
"-. c #DF9F80",
";. c #DD9986",
":. c #D99E87",
">. c #D4A082",
",. c #DFA081",
"<. c #DCA386",
"1. c #D8A485",
"2. c #DCA88A",
"3. c #DFAB8E",
"4. c #DFAF94",
"5. c #E0A081",
"6. c #E2A181",
"7. c #E3A181",
"8. c #E0A182",
"9. c #E1A283",
"0. c #E3A282",
"q. c #E4A281",
"w. c #E4A382",
"e. c #E5A382",
"r. c #E4A383",
"t. c #E5A383",
"y. c #E5A483",
"u. c #E6A483",
"i. c #E5A484",
"p. c #E6A584",
"a. c #E6A585",
"s. c #E7A685",
"d. c #E7A686",
"f. c #E8A786",
"g. c #E9A887",
"h. c #E0A58A",
"j. c #E3AC8D",
"k. c #E7AD8F",
"l. c #E8A888",
"z. c #E9A989",
"x. c #EAA989",
"c. c #EAAA8A",
"v. c #EBAA8A",
"b. c #EBAB8B",
"n. c #EBAC8C",
"m. c #EBAE8F",
"M. c #ECAC8C",
"N. c #ECAD8D",
"B. c #EDAD8D",
"V. c #EDAE8E",
"C. c #ECAE8F",
"Z. c #EDAE8F",
"A. c #EEAF8F",
"S. c #EDAF90",
"D. c #EEAF90",
"F. c #E4B195",
"G. c #E9B193",
"H. c #EDB091",
"J. c #EFB090",
"K. c #EEB091",
"L. c #EDB192",
"P. c #EEB192",
"I. c #EFB192",
"U. c #EFB293",
"Y. c #ECB496",
"T. c #EAB79A",
"R. c #EEB899",
"E. c #E9BC9F",
"W. c #EEBC9E",
"Q. c #F0B293",
"!. c #F0B394",
"~. c #F1B495",
"^. c #F0B496",
"/. c #F1B596",
"(. c #F1B597",
"). c #F2B596",
"_. c #F2B697",
"`. c #F2B698",
"'. c #F2B799",
"]. c #F3B799",
"[. c #F3B899",
"{. c #F2B89A",
"}. c #F3B89A",
"|. c #F3B99A",
" X c #F3B99B",
".X c #F4B99B",
"XX c #F4BA9B",
"oX c #F4BA9C",
"OX c #F4BB9C",
"+X c #F4BB9D",
"@X c #F5BB9D",
"#X c #F5BC9E",
"$X c #F5BD9E",
"%X c #F5BD9F",
"&X c #F5BE9F",
"*X c #F1BFA1",
"=X c #F5BEA0",
"-X c #F6BEA0",
";X c #F6BFA1",
":X c #F6C0A2",
">X c #F6C1A2",
",X c #F6C1A3",
"<X c #F6C2A3",
"1X c #F7C2A3",
"2X c #F6C3A4",
"3X c #F7C3A5",
"4X c #F2C4A5",
"5X c #F7C4A6",
"6X c #F7C5A6",
"7X c #F7C6A7",
"8X c #F7C7A8",
"9X c #F7C8A9",
"0X c #F0CBAD",
"qX c #F8C8A9",
"wX c #F8C9AA",
"eX c #F8CAAB",
"rX c #F8CBAC",
"tX c #F8CCAD",
"yX c #F8CDAE",
"uX c #F9CEAF",
"iX c #F3D1B3",
"pX c #F7D1B2",
"aX c #F0D4B6",
"sX c #F6D4B6",
"dX c #FAD3B4",
"fX c #FAD7B8",
"gX c #F1D8B9",
"hX c #F7D8BA",
"jX c #F5DBBB",
"kX c #FADDBE",
"lX c #F6DDC0",
"zX c #F9E1C3",
/* pixels */
"4.P.f.d.R r > & o X . O $ > s Q h.(.>XqX3X<X}.oX+XqX4X7X#X#X}.oXoX.XQ.'.^.+X`.].P.m.a.n.z.n.z.g.r.l.i.c.h.9.{ X.` [ ^ { ) ) ! ^ ",
"2.f.g.| f 3 < 5 4 & & & : > 3 t Z ,.(.>XqX>XOX`.(.6X<X>X+X{.`.+X#XOX#X^.+X#XXX.X[.A.k.c.n.z.d.0.d.c.l.f.x.p.X.| | | +.{ | [ ` ! ",
"K / / M y P 1.T.W.T.$.L K l y m E [ ,.(.>X3Xm.!..X7X{.XX'.(.I.{.XX1X+X=X<X5X.XXX`.(.z.Z.Z.n.0.f.l.c.q.y.u.y.` { | | ) X.X.{ R D ",
"c M M A h.G.{.+X5X>X=X{.R.a.[ Q ^ ..[ n.#X+XI.J.'.oX'.!.!.m.J.J.;X>X-X+X5X1X+X`..XI.z.r.a.z.i.a.n.g.a.0.0.X.` ] +.| | X.#.^ R S ",
"x C A #.k.I.'.;X&X=X{.oXL.k.k.0.' *.,.n./..X!.~.U.`.~.!.a.y.y.c.c.~.{.G.h.:.' ' V l f l G _ [ [ [ f.y.d.#.X.{ | } O.#.0.` ~ A S ",
"K ( #.z.!.J.c.c.!.(.(.(.G.j.9.*.,.7.d.m.).)._.Q.~./.^.c.| ^ ] +.d.c.0.G t < : = & $ $ & & > 7 r s l ^ ] o.] X.*.=.=.9.=.{ R C A ",
"L A.l.P.c.X.! m.`.=XR.'.U.J.! R R 8.+.Z.!.XXJ.J.U.'.I.n.S C N Z ! _ l 6 < = o o X X . . . X $ & > 7 r l G ) ^ ,.9.l.,.8.] E h M ",
"K A.A.g.X.E k.+X>X=X+X{.(.n.,.R N C ] y.(.).Q.n.^.J.J.d.R f l N N f 8 ; : + $ $ o X o o $ $ & = = : > 3 8 y f Z r.9.9.X.] A N h ",
"n S.d.d.M r.XX$X!.(.R.G.n.m.y./ m m A X.y.).).{.k.N.N.g.R g f m y 8 1 ; - = : - - 3 7 s f P V f 7 3 < < > < < 8 G o.,.9.) S m m ",
"K Z.i.` R m.G.k.' I ' _ E Z N M h g m R #.n.-X<XXX!.N.y._ N m y 8 , ; ; , , 7 8 m Z )  .h.9.9.,.' G l r 3 ; ; < 7 l ! =.` A h g ",
"U ].i.) ^ h.l 5 > 5 5 2 > 3 < 1 6 0 0 A +.J.<XuX6X<XZ.n.| C r 8 1 ; - ; ; , 7 y E ,...X.) [ Q _ ) ' ^ _ G d , ; ; 7 y Z ^ A g g ",
"T |.K.^ G r o X X X .   . . . o + = : 0 y.^.eXdXuX>X'.N.X.y 6 1 1 - - = @ 1 V [ c.z.h.X.o.] Z V V f m W [ R p 9 , < < r N m g y ",
"I m.z._ 1 - X X X X X . . . X $ $ o @ 8 c.}.6XhXpXeXOXc.N 8 1 6 ; - = + = y N ' :.n.N.m.r.o.^ R m y , 1 f E V N t 3 : > < r y g ",
"I o.m 1 1 ^ ) V P f e w 9 9 s d p l [ y.`.+XqXfXdX8X'.o.g 1 6 8 1 0 8 ; - - - 9 l _ 1.>.[ I G V f y 8 - - r P G V r < : : : 7 0 ",
"_ [ R ] #.+.q.l.l.a.[ [ ^ / A ~ ^ { A d.}.7X7XuXeX<Xn.` y 6 6 f N R [ +.R f , = + = < w e i r r 7 7 < < @ = d G V l 9 < : = - 1 ",
"..[ y.d.n.c.t.X.] / ~ ~ ] ~ C h g g *.#X5X9XeX8X2X~.r.C g q q h | ] ,.7.g.y.^ l 9 : o X X X X X o X X X o X 3 V Q N f 8 7 - - ; ",
"1.9.n.).).#X~.d.A g y g q q 6 q Z !.;XqX8XrXtX6X'.z.R M m A C A A +.0.g.g.0.` ^ Z C y 1 - @ $ $ o $ o o X o = t f y y f y 8 7 6 ",
"j.^.).(.-X<X<X=XXXJ.,.! ! [ a.R.<X8X8X6XeXtXuX>X!.| M h M / | | ] #.d.g.N.J.n.` f q y y q 6 8 8 0 y y y y y 8 ; ; 1 y f m V Z t ",
"3.K.A.).%XqX9XeX-X>X{.#X=X9X>X5XqX8X2XeXpXfX>X+Xn.] h h A / ] #.y.z.q.d.A.).I.{.I.h.N y 8 8 1 6 6 q 0 0 6 - @ - y N m M N N y N ",
"<.B.Q._.>XrXyXqXuX&X+XOX6XeXeXeXeXwXeXuXpXuX=XI.z.] M M A M A ~ #.#.f.s.V.!.Q.(..X`.(.^.G.*.N f 8 6 , , 1 6 y N / R ! | R m g y ",
"9.M.~.#X6XuXpXhX<X6X+X:X>XuXeXeX5XuXpXhXhXpXXXQ.n.c.X.| M g q y q g h ] g.J.(.'.(.}.XX-X.X-X#X#X~.!.c.n.c.n.d.+.#.y.W / X.y.{ ^ ",
"l.U.[.#XeXuXfXdXwX9X6X8X9XtXyX6XqXuXdXhXhX8X+XQ.m.J.J.d./ g y h M y 6 6 h 0.Q./.}.}.#X&X;X>X-X+X#XoX.X).J.A.z.q.X.| 7.S N ] y.A ",
"n.+X(.1XeXhXhXzXuXuXeXtXrXuX7X6XqXuXtXhXpX8XQ.Q.).XXN.#.D h h ] y.#.M 6 ; y ! ~..X#X'.=X1X6X+X&X:X-X^.~.Q.J.s.u.#.^ / X.N y 8 1 ",
"D.].%X5XuXhXzXhXpXtX7X8X6XXXc.c.7XtXtXsXdX7XOX#X=X`.+.h m h / #.z.q.| h , ; 6 W n.@X+X>XeX7X+X>X3X;X^.!.J.z.d.y.y.] R X.X.y 8 N ",
"n.#X2XtXuXkXpXdX<X#XI.c.| M h n.1XeXsXhXhXhXeX>XoX+.y 0 6 0 y h m h y 0 , , , 6 N a.R.5X2X7X2X<X+X-X.X).A.b.d.c.a.y.C ) =.8.! R ",
"~.@X5XrXuXeX6X#XI.#.A g 1 6 *.=X6XuXhXzXzXzXuX#X| q ; @ + + + + @ @ - ; 0 q y 0 8 M 0.`.-X>X>X#X+X}.~.!.).b.z.g.g.7.X.C { y.z.E ",
"_.:X#XeXuX6X~.n.| h 1 - - [ {.6XeXhXlXzXzXpXW.0.y ; o o + @ + + + - - ; 0 q q y q q M 0.J.-X.X`.'.^.c.J.J.I.0.d.v.g.X.R ~ p.e.I ",
"].%X>X7X6X).d.~ h 6 - ; _ {.9XpXhXpXuX6X6X^.o.f 1 - + + + + + $ + = @ - , 1 6 q g q q M 0.g.n.!.Q.A.c.c.N.N.g.u.M.x.#.X.! +.#.Q ",
"J.XX;X7XXXJ./ M 6 - - V G.eXtXhXeX6X=XXXo.m 6 ; = + + + + + $ + + + @ - - - - 1 q g q q h | y.d.g.g.g.N.z.c.g.M.g.x.u.p.` ` | [ ",
"B.).@XoXQ.X.M q ; = y *.R.=XW.G.k.k.G.n.,.y ; ; , 1 1 - - = = = @ = = - = + + - ; , 1 1 1 y ^ X.#.q.0.0.s.d.d.d.v.g.f.r.@.` { ` ",
"A.~.D.).d.` g 6 ; , m 9.^.>.Q [ ` R N l 0 - - 1 N ] f 6 1 ; - - = ; - 3 - @ + = - ; - - - < t E ` X.^ X.#.z.,.7.r.g.,.f.#.X.) [ ",
"M.J.I.g.+.C q 1 ; 8 ! ,.' f f Z N y 8 1 - = 1 l [ X.R f y 1 ; - - - ; , , - - = ; - = = = = : y ` ] / / X.7.t.X.y.0.#.7.u.X.~ ^ ",
"u.M.v.g.~ h 0 1 ; m E [ f t y E N N t r 7 V k.{.I.g.| ] M y 1 , ; ; , 1 , ; ; ; ; ; ; - @ & @ > f ] / ] ~ | [ o.) X.=.9.=.*.! ! ",
"d.u.+.X.R g 8 , 6 Z Z Q f t m E ! R m N ] h.K.}.`.c.#.X.S M g 0 6 y h y y 0 0 6 , , , , - = & + < Z ` ^ / Q ^ ^ ^ ) [  .O.} ^ E ",
"7.7.( ( A f 1 1 t ^ G V p y m R ~ ! ] y.y.d.+.y.d.b.| | / ~ A A A ~ R / ] ] M y 0 0 1 1 7 3 : + = y Z ) ~ [ E ) ^ _ Z Q ) | Z E ",
"@.O.| / C g 8 6 y E G l s y V N N R ] / / R A R R A F h M h g g M A A / { ] C g g y y 0 8 1 - @ @ < V ~ ` ! Z E ^ Q V V Q ^ E E ",
"` ( ( / h f q 0 y I V f r f y y t h y y y y y y q 0 1 1 ; , , 7 6 q y g y y q y y g g g 6 6 , : @ - t R R ^ E ! R E G V P _ Q ^ ",
"` [ ` / M g f 8 y E V r r y 7 < < 1 7 6 9 9 9 9 7 3 < - : = = @ @ = : - - = - ; 1 6 0 8 6 6 1 ; = - 1 N R R R R ~ ^ Z l I _ [ ! ",
"! X.` X.M m m y f ^ l 8 r 9 - + o + & > < > : : & % # # $ % # % # # $ $ + $ o $ @ @ @ ; 6 8 , 1 ; ; , y R / R ^ [ *.P l I  .! E ",
"R | X.+.Z y N m N ) N y r 3 - $ . . . . . .             . . . . . O O . O X . . . . . X = < 1 6 < ; , 8 ~ ~ ) ) +.,._ l I ! E A ",
"N { @.z._ l V _ N ^ G m y r 3 : . . . . . . . .   .       . . .           .             . $ 3 6 7 1 1 8 M ` [ ,.=.h.' V V ^ ^ A ",
"N ` w.n.n.E m _ ) R ^ N m f l 9 @ X . . O O O O . .   . . . . . .     . . .               . & 1 0 q 8 0 M [ o.O.9.,.' V P ^ W C ",
"V  .r.L.Q.n.l Z -.o.^ ~ R Z N l l < X # # & & & % # O O O O . O . . X X o o X O . .     . $ = 3 r N m f N |  .,.o...I V P ' Z A ",
"x ' k.U..XC.Z f *.0.o.' [ ~ S M R H 3 - : 5 w > : & % $ # # # # # # $ @ : = & = $ X . . o < < 8 Z ) ~ N C X.{  ...' Q n L _ Q C ",
"d _ j.}.^.{.,.l Z d.o.X.^ ] ) S C ^ j < : 5 I $.$.$.$.K f v s e 3 3 3 3 3 3 < - = + o : 8 j y C #.7.| C Z | { X.^ I V V P Q G C ",
"x V h.U.@X+Xm.Q l 6.+.^ / ) ( S A / / j r t &.j.F.F.E.4.4.&.&.:.E H j j j t r 7 - - - 0 B g g | n.a.@.C ^ ` | [ _ P c c Y P c N ",
"I _ I m.XX&X(.9.f ) #.+.X.+.D / A ^ d.f.;.J H E %.;.:.h.9.;.&.h.j.j.%.&.%.H B y 7 r y j B h E n.C.i.` C ) r.` ) V V d c Y L l N ",
"Y T Q ..(.'.|.U.Z V 5.q.q.+.( D S M #.d.N.d.;.;.9.9.;.%.;.%.&.*.r.k.;.;.d.%.F j m B a g g N ,.I.k.,.! N X.r.^ V l d d l c P V N ",
"Y 1.>.*.i.U.^.'.o.p ) c.q.@.| ( M h M | ;.h.0.0.;.-.i.j.h.r.g.z.;.-.%.%.%.&.Z C g q 0 0 y [ U.(.i.X.R C [ ,.Z f s s d l l I Z Q ",
"T 1.1.>.>.a.m.Z.g.f V g.x.+.| / M m y y N J ;.;.*.9.j.F.Y.F.k.m.h.;.&.^ J F j y q 8 6 0 m h.`.k.l.| Z N ] ! f 8 r d p x I G ^ ) ",
">.2.>.1.>.<.<.9.a.{ f 6.g.a./ / M N y t y f g B F F V J &._ F v f p t p t 9 9 9 8 0 8 y ^ ^.m.n.l.8.f W ` Z 9 e r d s P I _ ! I ",
">.2.1.1.1.>.c l k.o.R w.b.#.X./ M m f f f y y r t r r e e e 7 7 7 > < < 3 3 3 7 0 t y Z c.^.m.k.z.` N W R l r s s f K P T >.P V ",
"Y 2.1.2.>.L e 3 x I o.a.N.d.X.| M m f m m N f f y f s f e e 7 7 3 < > < 3 3 9 r t l Z c.U.^.k.K.k.N N ^ f r x x d K L Y T Y I ' ",
"L 1.2.2.1.c 7 > 2 u ..S..XA.+.+./ M M Z 0.i.*.' [ ! R V l r 9 7 7 3 7 9 s f N G Z ^ h.P.H.m.d.j.[ N R Z r s P I P K L Y _ T ' _ ",
"n 1.>.1.T c 5 & * 4 e G.;X[.| g.q.+.+.A.`./.n.c.i.c.X.o._ V s f l V l _ ..i.9.8.o.h.d.m.m.n.a.k.' ^ ~ V r r 9 l >.c c P _ <.*.<.",
"z Y T T T x 2 % * > 5 T qX>Xz.u.N.u.u.P.;X X'.Q.n.n.z.n.K.k.h.9.F.F.G.T.U.K.j.h.a.j.k.j.n.n.k.9...` Q f x 7 < 9 I V c V T >.i.j.",
"w K Y >.L d * % & & 4 K %XqXQ.M.I.N.f.~.+XXX%X;X(.(.^.}. X{. X<X>X9X*X{.R.z.9.h.0.r.r.h.d.n.m.j...*.V x z i w r f _ I K K >.9.2.",
"u x Y Y K w & % % & 2 u G.uX=XP.z.M.v.J.}.+X>X:X,X>X1X<X7X7X7X9XeX5XF.m.P.k.i.,.+.#.9.0.n.J.^.j.:.Y v L z i u r 9 f c I I Y x i ",
"5 w x n z w # # % & & 4 Y pX9X(.c.c.#.C.(.-X^.}.OX+Xm.R.>X6XR.R.{.Y.a.k.n.c.X.[  .8. .k.I.-X{.m.1.Y 5 z n z i u = 3 9 f x w < 4 ",
"% & 2 4 k 5 # O # # & > f qXuX Xk.9.N.+X>X2X+XXX#X^.C.n.U.c.h.0.c.g.8.X.,.{  .' i.9.o.m.+X+X#Xa._ c u 5 u e 5 w * + > > > > < > ",
"O O # * 4 4 % O # # & > 0 *XuXR.1.R.5XuXeXtX3X5X=X>X{. XK.m.b.z.+.X.! ~ ) [ ..h.l.r.,.^.{.,X X<.K i z 5 2 > * 4 % # : < < 7 3 s ",
"O O O % & 2 & O O O % : l %XuXpXhXhXsXpXdXjXlXhXsXpXtX9X9X+X-X+XXXN.' Q _ _ [ o.9.c.U.`.>X,XG.P K w w 4 > * & & O # < 7 s d f x ",
". . . # % * & # . O $ < O.=XeXhXlXzXjXhXhXlXjXzXzXzXaXhXjXfX6X6X7XrX*XG.>.I G o.n.(.P.*X6X*XT K c w * * & & O O O # & < 9 r r s ",
". . . O # & % # . X # d j.2XiXiXhXjXjXiXaXaXaXaXgXgXaXaXaXaX0X0X0X0X0X0X0X4.T 2.G.W.W.*X4X4.K b z u * & & # O O # # % * 5 3 w u "
};
