/* XPM */
static char *out[] = {
/* columns rows colors chars-per-pixel */
"64 64 212 2 ",
"   c #2B1608",
".  c #4A2415",
"X  c #5C2C1A",
"o  c #68321E",
"O  c #583F2A",
"+  c #763A24",
"@  c #7E3D26",
"#  c #63432F",
"$  c #6E402D",
"%  c #6A4D37",
"&  c #77523D",
"*  c #7F5D46",
"=  c #814A35",
"-  c #8E4B34",
";  c #96523A",
":  c #865540",
">  c #8C5D46",
",  c #9D5943",
"<  c #955F49",
"1  c #A45E45",
"2  c #89664F",
"3  c #9B644E",
"4  c #916A53",
"5  c #9A6F56",
"6  c #AB644A",
"7  c #A16851",
"8  c #AD6D51",
"9  c #A86D58",
"0  c #B36A51",
"q  c #B76F53",
"w  c #A1765D",
"e  c #A7755C",
"r  c #AE755B",
"t  c #B4715D",
"y  c #B97658",
"u  c #A87B63",
"i  c #AE7D64",
"p  c #B77764",
"a  c #BD7564",
"s  c #B27861",
"d  c #B47F64",
"f  c #BB7E63",
"g  c #C1785B",
"h  c #C87E61",
"j  c #C07B6B",
"k  c #AC836B",
"l  c #BE8466",
"z  c #B3876E",
"x  c #BA876A",
"c  c #BF8B6C",
"v  c #B78C72",
"b  c #BC8E72",
"n  c #C38264",
"m  c #CC8566",
"M  c #C78568",
"N  c #C4816F",
"B  c #C48A6C",
"V  c #CC8C6D",
"C  c #CC8C6E",
"Z  c #D18969",
"A  c #D48C6E",
"S  c #D88F6F",
"D  c #C88973",
"F  c #CC8A78",
"G  c #D38E7E",
"H  c #C39072",
"J  c #C69677",
"K  c #C89172",
"L  c #CC9475",
"P  c #C09379",
"I  c #CA997A",
"U  c #CF9C7E",
"Y  c #D19071",
"T  c #D09072",
"R  c #D29172",
"E  c #D09273",
"W  c #D39273",
"Q  c #D49374",
"!  c #D59475",
"~  c #DA9472",
"^  c #DD9876",
"/  c #D79778",
"(  c #D1967C",
")  c #D89778",
"_  c #D59A7B",
"`  c #D99878",
"'  c #D9997A",
"]  c #DB9A7A",
"[  c #DA9A7B",
"{  c #DC9B7B",
"}  c #DB9C7D",
"|  c #DA9D7E",
" . c #DE9D7D",
".. c #DC9D7E",
"X. c #DD9D7E",
"o. c #E09E7D",
"O. c #E29F7D",
"+. c #E2A07F",
"@. c #DD9E80",
"#. c #DE9F80",
"$. c #DF9F80",
"%. c #D4A082",
"&. c #DFA081",
"*. c #DCA386",
"=. c #D8A485",
"-. c #D7A88D",
";. c #DCA88A",
":. c #DBAB91",
">. c #DFAF94",
",. c #E0A081",
"<. c #E2A181",
"1. c #E3A181",
"2. c #E0A182",
"3. c #E1A283",
"4. c #E3A282",
"5. c #E4A281",
"6. c #E4A382",
"7. c #E4A383",
"8. c #E5A383",
"9. c #E6A483",
"0. c #E5A484",
"q. c #E6A584",
"w. c #E6A585",
"e. c #E7A685",
"r. c #E7A686",
"t. c #E8A786",
"y. c #E8A787",
"u. c #E9A887",
"i. c #E0A58A",
"p. c #E3AC8D",
"a. c #E7AD8F",
"s. c #E8A888",
"d. c #E9A888",
"f. c #E9A989",
"g. c #EAA989",
"h. c #EBAA8A",
"j. c #EBAB8B",
"k. c #EBAE8F",
"l. c #ECAC8C",
"z. c #ECAD8D",
"x. c #EDAD8D",
"c. c #EDAE8E",
"v. c #ECAE8F",
"b. c #EEAF8F",
"n. c #EDAF90",
"m. c #E4B195",
"M. c #E9B193",
"N. c #EFB090",
"B. c #EEB091",
"V. c #EEB192",
"C. c #EFB293",
"Z. c #ECB496",
"A. c #E6B599",
"S. c #EAB79A",
"D. c #EEB899",
"F. c #EEBC9E",
"G. c #F0B293",
"H. c #F0B394",
"J. c #F0B495",
"K. c #F1B495",
"L. c #F0B496",
"P. c #F1B596",
"I. c #F1B597",
"U. c #F2B596",
"Y. c #F2B697",
"T. c #F2B798",
"R. c #F3B799",
"E. c #F3B89A",
"W. c #F3B99A",
"Q. c #F3B99B",
"!. c #F4B99B",
"~. c #F4BA9C",
"^. c #F4BB9C",
"/. c #F4BB9D",
"(. c #F5BD9E",
"). c #F5BD9F",
"_. c #F5BE9F",
"`. c #F1BFA1",
"'. c #F5BEA0",
"]. c #F6BFA1",
"[. c #F6C0A1",
"{. c #F6C0A2",
"}. c #F6C1A3",
"|. c #F7C2A3",
" X c #F6C3A4",
".X c #F7C3A5",
"XX c #F2C4A5",
"oX c #F7C4A5",
"OX c #F7C5A6",
"+X c #F7C6A7",
"@X c #F7C7A8",
"#X c #F0CBAD",
"$X c #F4CDAE",
"%X c #F8C8A9",
"&X c #F8C9AA",
"*X c #F8CAAB",
"=X c #F8CBAC",
"-X c #F8CDAE",
";X c #F9CEAF",
":X c #F3D1B3",
">X c #F7D1B2",
",X c #F0D4B6",
"<X c #F6D4B6",
"1X c #FAD3B4",
"2X c #FAD7B8",
"3X c #F1D8B9",
"4X c #F7D8BA",
"5X c #F5DBBB",
"6X c #FADDBE",
"7X c #F6DDC0",
"8X c #F9E1C3",
"9X c #FBE5C7",
/* pixels */
">.V.9.e.` B k k u k J U %.%.;.m.:.m.m.m.m.m.>.m.m.A.m.S.S.S.A.A.m.m.m.m.p.M.k.C.a.k.i.i.*.v.f.r.&.0.2.i.7.3.X.X./ / / ] ` ] Q Q ",
";.f.b.l.e.E d u u u J I U =.:.m.>.:.m.m.A.m.m.>.A.m.m.A.A.A.A.>.>.>.m.>.p.a.k.k.a.p.p.i.p.i.r.h.i.f.w.r.r.r.3. .{ ] ] { o.] / T ",
"H  .O.q.9.Q i k w k P U %.%.=.:.>.>.;.m.A.A.>.>.>.A.>.m.m.S.>.m.>.m.>.>.Z.M.r.a.f.k.3.r.k.M.j.c.k.c.3.r.r.g.5.<. .[ Q ]  .+./ ! ",
"c ~ ~ ^ ~ V d w w k b I U U ;.:.>.>.>.m.A.>.m.>.m.m.>.m.S.A.m.m.m.>.>.>.A.a.a.k.E.C.V.B.U.B.l.f.n.j.0.q.r.d.q.+.X./ ` / o. ./ ! ",
"c ~ Z A Z h f u w d I =.U U -.>.:.m.m.A.m.A.m.m.>.m.m.A.m.S.m.S.m.A.A.S.Z.!.I.E.J.I.B.I.l.j.r.d.r.r.q.0.4.y.q.&.' } '  .)  ./ ^ ",
"b ~ Z m m g f s i x I U U =.;.>.>.m.A.m.A.A.A.m.m.m.A.S.D.D.).^.Q.^.^.^.R.L.C.K.I.C.K.V.c.g.y.q.d.0.3.0.5.y.w.{ } | } } #.@.^ Y ",
"P ] m Z Z m g f l K I =.=.>.;.A.S.D.S.).{.|.E./.[.|.I.{.{.|.).[.|.^.I.!.^.^.j.K.K.K.k.C.V.z.7.d.d.d. .5.q.j.1.+.$.2.' #.3.&.! Y ",
"P ] A Z Z m M B D C _ a.J.E.Q.E.].].^.(. X|.].~.^.I.I.R.].{.[.).).E.C.I.~.I.n.j.U.U.J.C.I.N.g.w.s.s.w.0.x.j.r.3.0.#.@.@.3. ./ A ",
"H ] A A Z A A T K L &.k.n.C.K.I.I.).^./.).|.{.{.^.^.G.E.Z.].).[.K.B.k.K.E.^.K.K.K.^.I.E.k.K.k.j.3.0.<.s.3.0.<.#./  ./ <.] | ] ! ",
"H ^ A A A ! ] I I U %.%.*.%.*.f.Z.E.^.).[.!.^.[.).K.B.C.K.!.).^.G.j.f.k.K.^.|._.).!.^.K.C.B.r.@./ C C C B l B D C C E W ' / ^ A ",
"L  .A ~ A ^ n s e e < > < < 4 s I a.p.C.E.I.J.U.E.K.0.j.n.).Z.K.x.w.3.w.n.).^.[.|.|.Z.C.p.%.s 7 3 > = < 3 3 3 r s p r d M E Y Z ",
"I  .S Z S m 1 ; - > > & # X O o & 3 e K 3.f.l.B.K.n.0.0.n.U.G.j.f.$.$.<.j.K.^.E.E.a.L d 7 > $ o X . . o $ = = : < , , < 7 8 y f ",
"K  .~ S ! Y y p l I I P e > & & & = > 7 f R #.l.l.B.w.f.7.d.f.f.#.@.} 3.0.B.G.n.E d > $ o X . . . . X & = = = > > < - - ; 3 , 1 ",
"c %.] A <./ Q ' 0.r.a.M.a.=.P d 8 7 3 1 y l D } j.h.g.w.y.j.w.3. .Q ! ! /  .@.C 8 > $ o X X X o & > e c l s s r r 8 7 3 , < , > ",
"J %.W Q +. ./  .8.d.&.r.r.7.' ' L T n l f n n ! <.j.4.4.q.j.3.q.! M n M D C l t , = + $ + @ : 9 l ( _ 3.i.&.E ( E _ D y 8 8 3 > ",
"U %.=./ &.r.} #.@.Q D T &.=.&.3._ D y t y n T W <.d.4.+.r.r.q.0.Q g y y n f 0 1 - = & = < 3 9 n T T T C L T T C ! / C D B n 8 3 ",
"U =.*.} _ f.#.} M t C k.D.).D.C.r.@.C y 6 0 n ! / q.3.r.+.d.q.0.E n t y y y 6 1 - - - ; ; , 6 y y f t t 6 7 ; ; , t l B B B f r ",
"=.%.=.3._ g.w.Y 8 f a.m.m.=.I B d e r 8 8 8 t m A  .q.d.q.0.w.<.W n g y t 6 , ; - : = + = 3 N C E K B n n y 8 < = + ; f M l M f ",
"-.;.U i.! } ' V 6 K U P e : O .   . . o = 3 1 g M ^  .n.j.n.0.3./ T f y 8 7 - = @ $ . & 7 4 = $ X . . # & : & : = $ o > D ! D n ",
"=.%.U =.! M ! E l f > X . . . O         X o @ , M Q 8.U.^.K.n.j.0.E y 1 1 , - @ + X $ : $ . . .                   . . X 1 l 8 y ",
"=.=.%.=.E f n p 1 - X . X $ % # . .   . # $ $ + 8 ] q.|.+X[.!.K.j.! 8 , , ; = @ o X + + = : # # . . . & % $ $ & $ o . o - 1 q ] ",
"-.=.=.=.3. .T y , 1 f d f f f e 4 > > 3 e < > ; y r.k.oX1X%XoX^.j.V 6 , 1 , ; 1 3 1 r M L _ ! B s 8 r l B f y 8 1 6 8 t 8 , t n ",
":.p.;.*.q.l.q.q.0.Q Q f.f.w.#.@.} _ E Y Y Y C } r.E.K.+X4X4X+X^.w.m , , 0 f t E +. .! / [ 3. .} ! S V A V m g m Q Q D 0 ; y ~  .",
"p.p.*.*.w.<.j.G.G.q./  .+.! A A ! A A Z Q A m m 0.E.[.*X4X4X+XE.0.m 8 6 g Q } } d.g./ V M m m V M h 8 6 y h m h g 6 - - y Q ^  .",
"-.-.=.*.#.3.x.U.U.E.x.{ V V M m M Z m h y q y <.).[.oX;X1X1XoXU./ m y h h A  .d.g.x.x.j.! n 6 1 1 , , 1 , ; - - - , f +.q.3.! R ",
"p.i.i.p.i.r.U.G.E.^.^.G.8.Z g 8 1 1 1 , 8 T E.@X;XoX=X=X;X*X).s.! m M A ^ ^ <.g.g.d.x.U.E.E.n.&.' V M n f n C / 0.h.y.q.x.0. .T ",
"l.a.*.p.p.d.x.K.K.[.).*X|.].B.r./ ! E s.).=X@X*X*X*X*X;X;X*XK.3.A V m S d.l.0.d.x.x.d.E.)./.K.].).|.R././.(.K.E.C.B.1.y.d.g.o.{ ",
"a.a.i.i.i.0.j.K.^.[.|.*X;X{.].^..X|.[.@X;X*X*X*X;X;X-X;X>X|.n.] A Z Z A o.5.<.q.j.l.C.I.^.~./.E.[.OX].(.|.].R.K.N.x.w.0.d.d.8.+.",
"w.r.2.i.&.d.n.^.^.[.+X1X*X@X/.).U.).oX&XOX+XoX>X>X1X4X1XoX).s. .A A m m h h g g h S r.R.^.{.^.|.|.OX|.OX[.{.R.U.c.B.r.d.8.y.q.6.",
"0.4.2.&.3.f.K.E.[.|.*X1X1X&X|.E.^.%X=X@X%X|.+X1X1X6X6X1XoXU.l.8.5.] A g y g g 0 1 1 y / j.K.Q._.oX+X+X{.{._.R.E.K.B.t.u.u.w.7.1.",
"w.w.X.#.3.B.n.U.).oX@X1X;X;X|.[.=X=XoX*X*XOX+X;X1X6X6X;X|./.x.N.G.j.S h g ~ ^ ^ m 1 - 1 f  .w.U./.|.^.[.!.!.K.K.B.l.r.d.u.d.5.q.",
"y.3.@.} <.s.U.K.}.{.|.*X;X1X*X+X*X*XoXoXoX{.).+X1X6X6X*XoX!.K.K.K.d.~ h Z O.d.5.o.g - - , 8 V +.U.B.J.E.U.U.B.d.l.g.g.y.x.8.q.3.",
"#.&.@.&. .j.x.U.U.E.!.].oX*X[.+X[.).K.f.] q.^.*X<X1X4X@X].oX^.[.k.~ h h Z o.+.~ h y 1 6 6 6 0 f ! 3.9.x.n.B.j.y.q.u.d.d.8.r.3.8.",
"+.} #.&.3.j.n.x.G.J.K.^.).^.E.B.d. .Z q g j.|.*X4X4X2X-X%X[.|.Z.! t 1 1 8 6 , ; ; , 0 q y y q 8 y V ' q.d.d.q.0.8.$.3.r.d.3. .} ",
",.7./ | 3.j.d.x.J.K.n.K.K.n.+.^ m q ; 6 3.oXoX;X4X9X6X6X>X*XE.} t , + + + + + @ ; 1 1 6 0 y q y 8 0 y R ..5.^ ) ! ' W 3.<.| / ! ",
"| _ ' _ q.y.d.y.x.j.B.r.r. .Z y 1 - , _ +X;X;X1X6X8X8X6X1X[.} t ; + o + @ + @ @ = = - - ; 6 8 6 6 1 , 8 V ! E R ! R R W ` ' W L ",
"! _ ! ' ' 4.6.q.w.j.d.5.Q m q , = 1 #.|.+X2X;X4X4X6X>X*X).k.f < @ @ + + o + + @ @ - = = @ - ; ; - - : - < l E } R Q A Q R ! E E ",
"W E ! W / X.o.{ O.8.+.Q m q , - , / D.oXOX;X1X1X*XoXD.p.' f 1 - @ + + + $ $ @ = = - = + @ @ : - = + $ + + = r E @.! E C Q Y E E ",
"T R D L E ] Q / ] 5.! m y 1 - ; n w.Z.|.+X+XZ.Z.K.^.w.E 8 , - - - = @ = = - = - - , - = - : = - - : + $ + $ + 7 B ] C R Q / E _ ",
"B c B B L ` / Q ] ^ A g 8 , - 0 E 3.M.3._ ' #.} #.} ' D 0 , 1 t f 8 ; - ; - = = ; ; > : ; - - ; ; ; > = & + $ @ , l A A / ' | %.",
"f x l B B [ } ` ~ S M g 1 , , B K _ E y y n Q T n t 8 , = = 6 M C f 0 1 , ; - - - - - ; - < ; , < 3 < < : + + @ @ , M ! / &.*.=.",
"l x B B T ' <. . .S g t 6 , 1 l M D f 6 8 8 f g 8 1 1 - - y ! } A m h y 6 1 , , 1 6 1 6 6 1 1 1 6 1 , , < = + @ = - y Y  .w.p.%.",
"f x l B L } } 3.0.] y t 8 1 , l l B 8 6 6 t y n f 8 1 6 f #.j.d.{ A h g y q 6 0 y n y g y 8 1 6 6 6 ; , ; - @ @ - ; 1 Q $.r.@._ ",
"x x x B L ' &.r.k.0.n 8 y 6 1 B l d 8 7 8 t f n M g f D } ] } 0.0.^ V h m h h g g y y q 0 1 , , ; = + + @ + - 3 r 8 8 ! <.<.' L ",
"d c H J H _ 3.k.a.n.W y y n 8 L y 7 3 7 , 1 6 y g V V A m A A S A m g g 0 0 6 1 , , , ; = - @ + o o o @ = ; y T W f f ] [ ' E K ",
"x H U I I L i.V.C.B.f.M t D l f d 7 ; = @ = - 1 0 0 q 0 y y y y 0 8 6 1 , , ; , ; ; ; - - - - ; , , 1 1 8 n +.+. .n M '  ./ L B ",
"J ( U U U _ _ f.C.I.f.' p M C M B l r 8 6 t q y g g y g y y 0 0 y f a a g n a j y y 0 y y y 0 y y g q g Q r.3. ./ M Q  ._ L f l ",
"I U U %.U U U *.V.n.a.r.B y W ! ! E D V Y h g Z / ~ ! G G F F F ! G F F F N n a j g a a a y y 0 q q g Q G.j. .! M n ]  .W f f l ",
"J %.| ;.=.=.%.=.r.V.k.B.} l B @.Y C D E Q A n M Y T C C G G G G F G F n r r 8 8 9 r 8 8 y y t 0 8 g Q x.G.j.} ~ y M / / n f l B ",
"I =.*.%.=.%.U %.@.%.j.a.f.D f /  .T T R ! Q h f y t t f n n f y r r r 9 3 3 3 3 7 7 3 8 r t y t y A r.n.B.7.3.V y T / B d d l K ",
"%.;.%.=.=.=.U H f U _ *.#.W 6 C 3.+.Q ! / Q n y t 8 8 t f l y s r r 7 7 7 7 > 3 3 9 3 9 8 y t f C 0.r.k.j.s.} n M ~ D l s f l H ",
"%.;.=.=.=.%.K e 3 c K L E / f n #.1. .] ] V n y f y y f n n l f d r 9 7 3 3 < < 3 7 8 t f f l E w.k.f.f.f.r.V n ! Q n s d B B B ",
"I ;.=.*.=.I d 5 * 4 u l L &.] ! } d.O.O.Q V g n y l D C D C C V l p r 9 3 3 3 9 r f n B M C E 0.f.k.f.a.r.W f V Y M s d l L L ( ",
"K =.;.=.=.b w 2 * 2 5 7 H a.B.a.&.3.6.5.^ n n n M ' f.w.w.w.#./ ! D l s d d l B L L _ } [ ! @.f.M.a.a.f.' M M C D d f c K I _ ( ",
"b %.U %.U b w * * > * > d M.S./.h. .O.r.X.) m A #.Z.s.7.} #.#.3.p.p.%.U U %._ =.*.*.! / } #.} p.a.M.p.| ! Y V M l B c c K I _ *.",
"z I U U U x 4 % * * & & w ;.F.[.I.6.<.s.w. ./ 3.B.T.n.j.f.f.f.i.a.a.;.>.a.a.f.i.*._ E ! } 7.0.i.p.a.i._ / R D r r l L c B L *.p.",
"w H I U J x * % % & & 4 w I '.+XI.f.1.j.4.3.#.k.Z.~.I.W.D.K.B.M.m.Z.S.oXD.m.*.r.| / E / / <.&.f.i.a.*.@.E H l e 7 f B K B _ %.*.",
"w z J U b e & % % & * > w H @X=X/.f.1.3.r.q.a.k.I.^./._.{.'.{.'.F.D.D.D.Z.*.*.0.#.! W ! / #.f.s.M.p.*.L H c d e 7 7 s B L U c i ",
"5 w b b x w % # # % % * 4 c +X;XF.C.3.+.r.I.H.T.L.R.C.J.C.I.C.D.a.a.w.f.f.r.' X.' / E ' #.f.f.U.I.;.I c c H u e < : 3 r d e 4 4 ",
"% & 4 5 k 4 % O # # % > 3 c %X=X|.f.&.C.oX{.Q.P.Q.E.C.k.B.k.r.7.7.3.3.<.<.{ ' / | @.#.| 3.M.J.E.^.=.H u w u w 7 > % & > > < < 4 ",
"O O # * 4 4 * O # # % > < E @X1X:.p.'.*X+X-X&X+X).{./.^.Y.P.k.b.7.7.] W Y ! _ { X.r.r. .3.E./.F.a.I f d 2 4 : 4 & # : 3 3 9 5 i ",
"O O O % * 2 * O O O % = r V.&X;X<X4X1X1X1X4X8X7X2X-X1X-X%X}._.^.!.K.0.E E ! ` } 3.w.k.n.E.[.F.=.P d w e 2 > & & # O > 7 r d f x ",
". . . # % * & # . O $ < @.'.&X4X7X8X5X4X4X7X5X8X8X8X<X4X5X2XOXOX+X=X`.m.%.L D #.k.I.Z.'.OXF.U H c w * * & & O O O # & < 9 r r d ",
". . . O # & % # . X # d p. X;X:X4X5X5X:X,X,X,X,X3X3X,X,X,X,X#X#X$X#X#X#X#X>.U ;.A.S.F.F.XX>.b v x w * & & # O O # # % * 5 5 w u "
};
