/* XPM */
static char *out[] = {
/* columns rows colors chars-per-pixel */
"64 64 211 2 ",
"   c #2B1608",
".  c #4A2415",
"X  c #5C2C1A",
"o  c #68321E",
"O  c #583F2A",
"+  c #763A24",
"@  c #7E3D26",
"#  c #63432F",
"$  c #6E402D",
"%  c #6A4D37",
"&  c #77523D",
"*  c #7F5D46",
"=  c #814A35",
"-  c #8E4B34",
";  c #96523A",
":  c #865540",
">  c #8C5D46",
",  c #9D5943",
"<  c #955F49",
"1  c #A45E45",
"2  c #89664F",
"3  c #9B644E",
"4  c #916A53",
"5  c #9A6F56",
"6  c #AB644A",
"7  c #A16851",
"8  c #AD6D51",
"9  c #A86D58",
"0  c #B36A51",
"q  c #B76F53",
"w  c #A1765D",
"e  c #A7755C",
"r  c #AE755B",
"t  c #B4715D",
"y  c #B97658",
"u  c #A87B63",
"i  c #AE7D64",
"p  c #B77764",
"a  c #BD7564",
"s  c #B27861",
"d  c #B47F64",
"f  c #BB7E63",
"g  c #C1785B",
"h  c #C87E61",
"j  c #AC836B",
"k  c #BE8466",
"l  c #B3876E",
"z  c #BA876A",
"x  c #BF8B6C",
"c  c #B78C72",
"v  c #BC8E72",
"b  c #C38264",
"n  c #CC8566",
"m  c #C78568",
"M  c #C48A6C",
"N  c #CC8C6D",
"B  c #CC8C6E",
"V  c #D18969",
"C  c #D48C6E",
"Z  c #D88F6F",
"A  c #C98270",
"S  c #C88973",
"D  c #CC8A78",
"F  c #D38E7E",
"G  c #C39072",
"H  c #C69677",
"J  c #C89172",
"K  c #CC9475",
"L  c #CA997A",
"P  c #CF9C7E",
"I  c #D19071",
"U  c #D09072",
"Y  c #D29172",
"T  c #D09273",
"R  c #D39273",
"E  c #D49374",
"W  c #D59475",
"Q  c #DA9472",
"!  c #DD9876",
"~  c #D79778",
"^  c #D1967C",
"/  c #D89778",
"(  c #D59A7B",
")  c #D99878",
"_  c #D9997A",
"`  c #DB9A7A",
"'  c #DA9A7B",
"]  c #DC9B7B",
"[  c #DB9C7D",
"{  c #DA9D7E",
"}  c #DE9D7D",
"|  c #DC9D7E",
" . c #DD9D7E",
".. c #E09E7D",
"X. c #E29F7D",
"o. c #E2A07F",
"O. c #D89982",
"+. c #DD9E80",
"@. c #DE9F80",
"#. c #DF9F80",
"$. c #CFA186",
"%. c #D4A082",
"&. c #DFA081",
"*. c #DCA386",
"=. c #D8A485",
"-. c #D7A88D",
";. c #DCA88A",
":. c #DFAB8E",
">. c #DBAB91",
",. c #DFAF94",
"<. c #E0A081",
"1. c #E2A181",
"2. c #E0A182",
"3. c #E1A283",
"4. c #E3A282",
"5. c #E4A281",
"6. c #E4A382",
"7. c #E5A382",
"8. c #E4A383",
"9. c #E6A483",
"0. c #E5A484",
"q. c #E6A584",
"w. c #E6A585",
"e. c #E7A685",
"r. c #E7A686",
"t. c #E8A787",
"y. c #E9A887",
"u. c #E0A58A",
"i. c #E3AC8D",
"p. c #E7AD8F",
"a. c #E8A888",
"s. c #E9A989",
"d. c #EAA989",
"f. c #EAAA8A",
"g. c #EBAA8A",
"h. c #EBAB8B",
"j. c #EBAC8C",
"k. c #EBAE8F",
"l. c #ECAC8C",
"z. c #ECAD8D",
"x. c #EDAD8D",
"c. c #ECAE8F",
"v. c #EDAE8F",
"b. c #EEAF8F",
"n. c #E4B195",
"m. c #E9B193",
"M. c #EEB090",
"N. c #EEB091",
"B. c #EDB192",
"V. c #EEB192",
"C. c #EFB192",
"Z. c #EFB293",
"A. c #ECB496",
"S. c #E6B599",
"D. c #EAB79A",
"F. c #EEB899",
"G. c #EEBC9E",
"H. c #F0B394",
"J. c #F0B495",
"K. c #F1B495",
"L. c #F0B496",
"P. c #F1B596",
"I. c #F1B597",
"U. c #F2B697",
"Y. c #F2B799",
"T. c #F3B799",
"R. c #F2B89A",
"E. c #F3B99A",
"W. c #F4B99B",
"Q. c #F4BA9B",
"!. c #F4BA9C",
"~. c #F4BB9D",
"^. c #F5BB9D",
"/. c #F5BC9D",
"(. c #F5BD9E",
"). c #F5BD9F",
"_. c #F5BE9F",
"`. c #F1BFA1",
"'. c #F5BEA0",
"]. c #F6BEA0",
"[. c #F6BFA0",
"{. c #F6BFA1",
"}. c #F6C0A1",
"|. c #F7C2A3",
" X c #F7C3A5",
".X c #F2C4A5",
"XX c #F7C4A5",
"oX c #F7C6A7",
"OX c #F7C7A8",
"+X c #F7C8A9",
"@X c #F0CBAD",
"#X c #F4CDAE",
"$X c #F8C8A9",
"%X c #F8C9AA",
"&X c #F8CAAB",
"*X c #F8CBAC",
"=X c #F8CCAD",
"-X c #F8CDAE",
";X c #F9CEAF",
":X c #F3D1B3",
">X c #F7D1B2",
",X c #F0D4B6",
"<X c #FAD3B4",
"1X c #FAD7B8",
"2X c #F1D8B9",
"3X c #F7D8BA",
"4X c #F5DBBB",
"5X c #FADDBE",
"6X c #F6DDC0",
"7X c #F9E1C3",
"8X c #FBE5C7",
/* pixels */
",.N.q.9.) M j j u u v %.P -.-.n.,.n.,.n.,.,.,.n.,.S.,.D.S.D.S.n.,.,.,.,.>.i.a.p.u.i.u.u.u.a.i.p.u.u.3.a.9.0.' ` ~ ) ~ ` / / E R ",
"=.f.x.l.e.W z j u u v P $.=.;.,.,.,.,.n.,.,.,.,.n.,.n.n.S.S.n.,.,.,.,.,.i.i.j.j.i.;.u.u.;.u.a.u.i.a.r.9.a.7...) ` ` }  .} ` E U ",
"G ..X.q.7.~ d u u j l P %.$.%.>.,.,.:.n.n.n.>.,.,.n.,.n.S.D.,.,.,.,.-.>.i.i.u.a.i.i.=.*.u.p.s.M.g.s.2.w.a.y.` ` ] } W } ..` I Z ",
"x C Q ! Z N d u u j l L =.P =.>.,.,.n.n.S.,.,.>.,.,.,.n.D.S.,.,.,.,.,.>.,.i.a.a.m.p.c.M.A.A.c.z.M.j.6.6.t.r.` ` } ` ] } ../ Y C ",
"v Z C Z Z V f u u j l L P %.=.>.>.,.,.n.,.,.,.,.,.n.,.n.n.S.,.n.,.,.m.S.m.U.J.U.V.Z.M.M.j.s.a.z.a.w.3.r.<.0.` ] ' `  .<.) W C C ",
"v ! C C Z C n k d d l L $.$.>.>.,.,.n.n.,.,.n.>.,.n.S.S.D.D.`.D./.`.W.I.R.U.J.L.A.V.M.h.j.3.3.e.r.o.7.@.r.q.@.` +.` #. .` I V V ",
"G } C C Z ! m b k x G $.-.-.-.,.S.D.S.D.D.D.,.S.D._.R.|.}.XX/.`.W.{.I.R.U.H.s.c.M.H.l.b.d.r.4.e.y.r. .o.w.g.' +.&.8.| <.` E m m ",
"G ..C C Z Q ^ m J T =.i.J.F.S.F.|.[.].[. X|._.R._.R._.W.oX|._.R.R.H.H.K.K.C.c.M.H.U.k.M.M.s.q.w.q.3.1.e.z.y.3.+.&.1.+.@.) C n b ",
"k <.V Z ) ..~ ( K +.u.C.K.R.U.].W.{./.|.'. X}.].T.K.A.T._.|._.R.v.c.M.U.M.C.c.K.K.U.M.H.k.M.a.r.<.1.<.0.<.1.+.@.~ @.+.2.) / h h ",
"l ] C Z o..._ ^ ^ ( ( ( +.;.p.I.^./._._._.{.{./.T.k.v.M./.W./.A.h.a.p.k.W././.W.].U.T.A.A.u.+.^ J N S k k b B B T E ~ _ ) ~ n g ",
"d ..W ! ! B y r 3 < : * > 2 w G ;.m.p.A.Y.].Y.W.H.c.3.M.^./.C.j.r.q.<.c./.|.W.{./._.m.p.=.M e 3 > : : < < 9 r y f b f U E E g g ",
"G *. .` n p ; - > : & o O O X $ < r M { a.Z.K.K.C.a.3.a.R.T.j.3.1.<.2.a.E.^.W.I.k.P z e < $ X X X . X o = = : < 3 3 3 8 k m f g ",
"G u.a.q.E b y S L $.L d > = & = = > 7 k B @.j.x.s.s.3.h.s.c.0.3.` ] } a.s.K.j.{ f < @ o X . . . . X $ = = = : > - : ; 3 , 7 8 y ",
"x P C... .~  .3.a.k.A.i.;.L d s 9 6 8 t b B @.s.l.s.r.q.a.8.3.` ~ ( / ` 3.1.B r > @ o X X X o $ > e l z d r r 9 9 3 < < < < - , ",
"L P w.<.<.6.} r.3.a.@.u.*.*.U ^ J M f k m B T w.t.h.8.a.r.s.<.I m B N V U B 8 , = = $ $ = > 3 d T *.{ *.{ | B B S b 9 7 3 < = - ",
"%.P 3.w.s.3.1._ B S ~ +.i.a.+.I B f y y S I / <.g.r.<.<.g.y.0.V f f y b k t 1 - = = - - , t k U _ { { { { ( W ~ ( I M k y 3 > : ",
"%.;.{ 0.r.q.E f y u.k./.T.W.k.r._ B t 8 t I / 3.7.r.<.r.q.y.7.I y y y f r 8 , ; - ; ; , 3 r y b f f r y r t y b S B b b y r 3 3 ",
"=.;.3.1.c.3.b 8 ^ m.,.*.^ M d e 9 9 8 1 8 y B ~ 7.l.s.0.7.6.<.U k y y t 6 , ; - - : = = , y S B J k f t 6 ; - = , y m m m f y 8 ",
"=.-._ E <.0.k t ( P r > $ X .     . o : , t f B  .M.r.a.l.k. .~ N k 8 7 1 ; - = $ o o 3 d k 9 9 9 r e t r e < : + ; t m N B g N ",
"%.=.~ b S I m f r & .   . . O         X + = 7 m / M.T.K.K.c.0./ B y 1 , , - @ + . $ : = X X .       . X o # # O o $ 3 J ~ b f b ",
"%.*.s.T b y 1 , @ X X $ & & O . . . X = o $ + b / H. X+X`.U.M.0.m 6 ; , - = + o X + $ $ . O       . . .     . . . . @ t y f B ` ",
"*.;.s.s.1.B q 6 m ^ D B B k r 2 2 3 9 9 3 < 7 B s.K.;X;X$X{.I.3.f 1 , 1 - - - + + - 3 8 e 2 % % $ > 3 > = = : = $ $ - 6 1 y I ` ",
";.*.U ` s.c.r...Q r.0.0.r.a.[ ( _ ~ V B C ` ` s.T.|.#X3X>X+Xk._ y 6 , 8 1 y m I /  .~ { @.{ B k b E U m g t 8 y y m h 1 q B f y ",
"i.8.~ 1.P.U.T.H.s...` W B C C n C B C C C n V a.|. X>X3X<X+XA./ y 6 6 g I T ~ e.} ~ E  .7.@.` U B h y g n C Q ! W y - ; ~ } _ m ",
"u.8.<.0.M.^.T._.R.s.C h h n n V n h y y 8 b a.|. X=X=X<X;XOXc./ y 0 q h C q.q.g.r.1.N b g h h h y 0 y g h h y 8 - = 6 C W / ` 3.",
"j.i.3.1.K.R.^./.|._.C. .V y 6 6 1 , , t ~ `.=X+X*X=X;X;XOXW.0.C n h V B E <.h.g.l.l.c.@.b t 1 , , ; ; - - - - , y W 7. .` N U ..",
"M.M./ o.U.W.I./.|.$X).).W.H. .E W { +.`.=X;X+X&X;X<X$X&X XK.E V n W Q ..1.y.7.g.v.H.V.K.^.W.c.j.u.[ I U E <.+.s.c.c.7.7.@.` m _ ",
"k.j.<.a.R.W./._.+X-XOX|.|._.^./. X+X X+X&X=X&X=X<X<X;X+X|.s.I n n Z ` 7.g.r.y.r.M.M.P.K./._.{.'.oX]./.W.]._.H.c.c.0.5.q.q.} I ) ",
"a.s.<.g.C.W./.|.OX<X;X=X X/.T._. X&X=XoX|.;X>X>X<X3X;XOXH.r.C C n C V C V C W ..r.C.K.W.U.]./.|.].|.'.W.W.R.C.c.9.e.7.r.<.1. ./ ",
"q.3.<.c.K.R._._.=X<X<X=XoXW.T._. X;XoXXX+X=X<X<X5X3X=X/.C.s.` Q C h h y y 8 6 8 n 1.K.T./.W.{.|.OXoX X|.].Y.H.c.g.r.e.q.q.o.o./ ",
"t.q. .g.U.^.T._.=X<X;X;X*X|.'. X;X;X|.oX+X;X=X5X8X7X X/.P.M.q.q.! V y g V C 0 , ; t U j.K.).^. XoX=X_. X{./.k.v.M.h.7.w.y.r.] ` ",
"w.<. .7.U.T.W.{.$X=X&X;X=X$XoX+X&XOX|._.{.OX+X>X7X<X XW.Y.C.C.c.o.C g n q.q.! g , - , f { s.N.W./._.^.I.R.K.C.c.M.8.r.5.y.7.@. .",
"1.2. .7.l.K.T.)./.}.+X&X X|._._.I.c.1.<.A.+X>X3X3X<X X/.I._.^.a.C n h Z q.q.! C 1 ; ; , 8 N 2.h.c.C.C.M.g.M.t.g.a.a.q.y.7.7.1.<.",
"5.@...r.l.c.Y.U.Y.W.R.R.W.H.l.o.Q g 0 E /.|.>X3X3X=XoX]./.{.I.U y 0 g h n g y 6 1 6 0 6 6 8 b / X.r.e.g.l.y.w.w.8.q.r.q.<.+.@.E ",
"2.3.` e.z.M.M.Y.Y.T.g.c.g.#.n q , , f F.+X;X>X5X7X3X;X&X X/.U t , ; = - = - - ; 1 q 0 y y q 6 y m ) / 1.<.7./ ] @.y...#.{ <.W E ",
".. . .o.y.x.l.z.K.c.7.` Q g 6 - - b A.+X;X>X3X7X8X8X3X=X_._ 8 - + $ + + @ + = - ; , 1 1 y q 8 6 8 y N I W T I Y ~ ` Y / ` ( J I ",
"/ ` ` 1.X.q.q.l.s.7.` V y 1 = ; m A. X>X<X<X3X7X5X<X;X|.+.t ; + $ + + + + @ + = - - - ; , 1 , ; - , 8 N U E E E U T I T J T M ~ ",
"~ ~ / ] | } ..1.7.` n q 1 - - k p.`.+X>X<X>X>X#XOX`.A.+.f ; = + + + + $ + + @ = - = + @ - - - = = @ @ , b ~ ~ I U I T U ^ B M T ",
"R ^ I W / ] Q ) o.C y 1 ; - 8 W A. X`. X|.`.A.R.T.i.b 8 , - + + + @ + @ @ - = - - = + @ - - = = $ $ + @ > f T ~ E W N I ( ^ k I ",
"I S N E ] ` W Q Q h 6 ; ; 1 b ( k.i.^ ^ u.u.` #.r. .f , ; , 7 3 ; ; - = - = - - , - = @ - - - - = & $ $ $ - 9 N E Y U T { ^ M M ",
"b M M ` `  .` ` n g 1 , ; f B W ~ f 8 y m ~ m f f r ; = ; f B m 8 1 ; ; - - - - - ; - - - , ; < < < & + $ @ = 8 m E U *.=.{ M N ",
"k M N ` 3.} } ` n y 6 ; , f b N k 6 7 8 k b y 6 1 ; @ - f I T N f q 1 , ; ; , 1 1 , ; , , 6 1 1 3 , > = @ + = - t B ~ *.*.*.J B ",
"k B k ^ u.s.<.` b y 6 , 3 M f b s 8 3 8 f b y 8 8 6 , U k.H.] Q V g 6 6 6 6 6 g y g q 0 6 0 6 6 1 , ; = = @ = - 6 I / *.;.*.M J ",
"z x k K a.c.M.3.m t y 6 1 M k f r 7 8 8 f m b f k m B ~ r.a.7.` C n g g b g y g h h y 6 6 6 6 , ; - = + = = , , 6 U ` { u.^ S N ",
"d M G P *.k.c.M.E y f k 8 M d 3 > 3 , 3 6 q g n V C n V C Q Q W n h g q 6 6 6 8 6 , - ; - - = + o $ $ @ ; t b k 8 W ] 2.( T S J ",
"k M P K =.k.V.j.0.b y M f f f 7 > = + @ - , 6 0 y 0 q g g g y 0 6 1 1 ; - ; ; ; - - - - - = = @ - ; , 7 b E @.B f ' ` { ^ G J S ",
"H P K ( =.k.k.B.M._ r b T B k f y t 6 8 g g y g g g 0 q q 0 6 8 q a q a a a q 6 6 8 1 6 6 q 0 q q y q C y.1.` N B 3./ W x M M M ",
"H P ^ ( @.u.c.B.K.0.b y ^ ~ B B I C n h h C O.O.O.F D D F F F F F F A A D g a g b a a y g g q 0 y h ` l.y...I b ` #.W M x S M M ",
"H %.%.=.{ *.a.Z.c.M.( f k  .C W n U C C g B / ( T F F F F O.O.[ F N f f r 9 8 r t 8 q y 8 q 0 q b ` c.H.@.` m b _  .S f d S B U ",
"P =.%.{ %.%.*.a.a.i.u.M t ^ ` Q W C W C n y y t r f M b b f k f d r 3 3 3 < 3 3 3 7 r t t r t f / j.C.a.3./ f m ` T f d k M I ^ ",
"P ;.%.*.*.=.P ^ ^ a.+.U 8 N X.} ] / V C h f 8 8 8 r 9 f s s r 9 9 9 < < 3 < > < 3 9 3 0 t f f T s.K.0.3.3.I y B / S 9 d k J ^ K ",
"%.;.%.=.=.%.G 9 k u.( N y y / 7.} / C n g f t 8 t y y f b k y r r 7 < < 3 < < 3 9 9 8 9 y b W p.c.M.w.u.2.k b E B f r d J P J k ",
"L ;.*.;.%.H u > 2 d k B B f U e.} } ~ V g f y f m B N U S B k d 9 9 3 3 < 3 7 r s k f k b / s.k.a.z.p.g.U b C E f z d G J P K ^ ",
"L =.=.=.%.x w > * 2 e K { ~ _ 6.1.} ` m g b b U a.p.w.3.3.` T M d r 9 9 r s k S T  .~ I / 3.p.j.m.i.j.W M m U N k J M J K ^ ( ^ ",
"v %.P %.P x 5 * * > 2 w K k.r.r.q.r.! Z N U I s.C.M.3.@.1.0.@.+.*.P J L P =.=.{ <.+.E ~ +.p.u.i.p.C.+.E U I b d f J z G J %.{ *.",
"l L P P L l 2 % * * * 2 x A.T.H.3.q.8.] } 3.a.A.F.V.g.0.r.a.0.8.i.i.i.>.m.p.u.=.( ( ( { r.a.u.u.p.i.+.T ~ J r 9 d J J M J ( u.i.",
"w G L P J d * % & & * 5 u m.'._.r.<.f.a.` r.j.Y.R.T.P.M.k.C.j.A.n.D.G.|.S.i.u.u.` ] ~  .3.0.u.i.p.i.{ ( T M w 9 9 k M K J ( %.;.",
"w l H P G e & % & & * > u P +X|.A.3.a.z.g.s.A.K./._.)./.{.`.'.`.`.G.{.F.a.2.w.u.~ E ~ / 3.u.j.k.c.*.{ ^ v d u e 7 7 d M ^ P d u ",
"5 5 v v z e % # % & & : 3 P oX&X/.c.1.a.s.M.N.H.R.Q.H.P.J.E.F.R.p.H.i.p.a.a._ _ ~ _ T { 0.k.c.I.B.;.L d x l u e : = 3 r r 5 4 4 ",
"% & 2 4 j 5 % O % % % : 3 G %X=X{.p.1.a.(./.R.I./.I.c.j.M.z.a.3.8.8.3. ...] ' ~  .u.+.+.j.A.T.W.A.P G w w e 9 7 2 % = : > < < 4 ",
"O O # * 4 4 & O O % & : < B oX>Xi.;.F.+XoX=XOX|.~.).T.E.J.C.s.l.2.2.I I Y ~ _ <.<.p.{ *.C.~./._.*.G l i 4 2 : 4 & # & 3 3 9 7 i ",
"O O O % * 2 * O O O % = 8 c.+X>X#X1X<X<X<X<X3X3X<X-X;X;XoX!._./.W.A.{ T T W ~ +.3.a.c.H./.|.W.%.G i w w 2 * & * # # > 7 r d f z ",
". . . # % * & # . O $ < +.'.%X3X6X7X4X3X3X6X4X7X7X7X3X3X4X1XoXXXoX*X`.n.%.K S [ k.I.A.'.oXG.P G x w : * & & O O O # & < 9 r r d ",
". . . O # & % # . X # d i.|.;X:X3X4X4X:X,X,X,X,X2X2X,X,X,X,X@X@X#X@X@X@X@X,.P ;.S.D.G.G..X,.v c j w * & & # O O # # % * 5 5 w u "
};
