/* XPM */
static char *out[] = {
/* columns rows colors chars-per-pixel */
"64 64 218 2 ",
"   c #2B1608",
".  c #4A2415",
"X  c #5C2C1A",
"o  c #68321E",
"O  c #583F2A",
"+  c #763A24",
"@  c #7E3D26",
"#  c #63432F",
"$  c #6E402D",
"%  c #6A4D37",
"&  c #77523D",
"*  c #7F5D46",
"=  c #814A35",
"-  c #8E4B34",
";  c #96523A",
":  c #865540",
">  c #8C5D46",
",  c #9D5943",
"<  c #955F49",
"1  c #A45E45",
"2  c #89664F",
"3  c #9B644E",
"4  c #916A53",
"5  c #9A6F56",
"6  c #AB644A",
"7  c #A16851",
"8  c #AD6D51",
"9  c #A86D58",
"0  c #B36A51",
"q  c #B76F53",
"w  c #A1765D",
"e  c #A7755C",
"r  c #AE755B",
"t  c #B4715D",
"y  c #B97658",
"u  c #A87B63",
"i  c #AE7D64",
"p  c #B77764",
"a  c #BD7564",
"s  c #B27861",
"d  c #B47F64",
"f  c #BB7E63",
"g  c #C1785B",
"h  c #C87E61",
"j  c #C07B6B",
"k  c #AC836B",
"l  c #BE8466",
"z  c #B3876E",
"x  c #BA876A",
"c  c #BF8B6C",
"v  c #B78C72",
"b  c #BC8E72",
"n  c #C38264",
"m  c #CC8566",
"M  c #C78568",
"N  c #C4816F",
"B  c #C48A6C",
"V  c #CC8C6D",
"C  c #CC8C6E",
"Z  c #D18969",
"A  c #D48C6E",
"S  c #D88F6F",
"D  c #C88973",
"F  c #CC8A78",
"G  c #D38E7E",
"H  c #C39072",
"J  c #C69677",
"K  c #C89172",
"L  c #CC9475",
"P  c #C09379",
"I  c #CA997A",
"U  c #CF9C7E",
"Y  c #D19071",
"T  c #D09072",
"R  c #D29172",
"E  c #D09273",
"W  c #D39273",
"Q  c #D49374",
"!  c #D59475",
"~  c #DA9472",
"^  c #DD9876",
"/  c #D79778",
"(  c #D1967C",
")  c #D89778",
"_  c #D59A7B",
"`  c #D99878",
"'  c #D9997A",
"]  c #DB9A7A",
"[  c #DA9A7B",
"{  c #DC9B7B",
"}  c #DB9C7D",
"|  c #DA9D7E",
" . c #DE9D7D",
".. c #DC9D7E",
"X. c #DD9D7E",
"o. c #E09E7D",
"O. c #E29F7D",
"+. c #E2A07F",
"@. c #D89380",
"#. c #DD9E80",
"$. c #DE9F80",
"%. c #DF9F80",
"&. c #D4A082",
"*. c #DFA081",
"=. c #DCA386",
"-. c #D8A485",
";. c #DCA88A",
":. c #DFAB8E",
">. c #DBAB91",
",. c #DFAF94",
"<. c #E0A081",
"1. c #E2A181",
"2. c #E3A181",
"3. c #E0A182",
"4. c #E1A283",
"5. c #E4A281",
"6. c #E4A382",
"7. c #E4A383",
"8. c #E5A383",
"9. c #E5A483",
"0. c #E6A483",
"q. c #E5A484",
"w. c #E6A584",
"e. c #E6A585",
"r. c #E7A685",
"t. c #E7A686",
"y. c #E9A887",
"u. c #E0A58A",
"i. c #E3AC8D",
"p. c #E7AD8F",
"a. c #E8A888",
"s. c #E9A989",
"d. c #EAAA8A",
"f. c #EBAA8A",
"g. c #EBAC8C",
"h. c #EBAE8F",
"j. c #ECAC8C",
"k. c #ECAD8D",
"l. c #EDAD8D",
"z. c #EDAE8E",
"x. c #ECAE8F",
"c. c #EDAE8F",
"v. c #EEAF8F",
"b. c #EEAF90",
"n. c #E4B195",
"m. c #E9B193",
"M. c #EDB091",
"N. c #EEB090",
"B. c #EFB090",
"V. c #EEB091",
"C. c #EDB192",
"Z. c #EEB192",
"A. c #EFB192",
"S. c #EFB293",
"D. c #ECB496",
"F. c #E6B599",
"G. c #EAB79A",
"H. c #EEB899",
"J. c #EEBC9E",
"K. c #F0B293",
"L. c #F0B394",
"P. c #F0B495",
"I. c #F1B495",
"U. c #F0B496",
"Y. c #F1B597",
"T. c #F2B596",
"R. c #F2B697",
"E. c #F2B799",
"W. c #F3B799",
"Q. c #F3B899",
"!. c #F3B89A",
"~. c #F3B99A",
"^. c #F3B99B",
"/. c #F4B99B",
"(. c #F4BA9B",
"). c #F4BA9C",
"_. c #F4BB9D",
"`. c #F5BB9D",
"'. c #F5BC9D",
"]. c #F5BC9E",
"[. c #F5BD9F",
"{. c #F1BFA1",
"}. c #F5BEA0",
"|. c #F6BEA0",
" X c #F6BFA0",
".X c #F6BFA1",
"XX c #F6C0A2",
"oX c #F6C1A2",
"OX c #F6C1A3",
"+X c #F6C2A3",
"@X c #F7C2A3",
"#X c #F6C3A4",
"$X c #F2C4A5",
"%X c #F7C4A5",
"&X c #F7C4A6",
"*X c #F7C5A6",
"=X c #F7C6A7",
"-X c #F0CBAD",
";X c #F4CDAE",
":X c #F8C8A9",
">X c #F8C9AA",
",X c #F8CAAB",
"<X c #F8CBAC",
"1X c #F8CCAD",
"2X c #F8CDAE",
"3X c #F9CEAF",
"4X c #F3D1B3",
"5X c #F7D1B2",
"6X c #F0D4B6",
"7X c #F6D4B6",
"8X c #FAD3B4",
"9X c #FAD7B8",
"0X c #F1D8B9",
"qX c #F7D8BA",
"wX c #F5DBBB",
"eX c #FADDBE",
"rX c #F6DDC0",
"tX c #F9E1C3",
/* pixels */
",.Z.w.2.! B k k w z J U &.>.>.,.>.,.>.>.,.,.>.,.>.,.,.,.,.G.,.,.n.,.>.,.i.,.i.n.u.i.;.=.u.h.u.t.=.u.3.=.u.3.[ } / / / } ) ) E R ",
":.d.l.j.o.T d k u k I U U >.,.,.>.>.;.,.>.n.,.,.,.,.,.n.n.n.n.,.F.,.,.>.n.n.,.i.i.u.u.=.t.u.u.=.=.4.s.4.q.4.<.X.^ [ ^ ^ X.^ ) W ",
"P O. .+.+.Q i i e x P U -.>.;.;.>.>.>.,.>.,.,.,.,.,.,.F.F.G.,.F.n.F.n.>.,.,.,.i.u.i.| =.t.p.=.p.t.d.1.h.l.s.<.o.o.} Q  .o.^ Y A ",
"b ^ ~ ^ ^ M i u u z I U -.;.-.>.,.:.:.>.n.n.,.,.n.,.>.n.G.F.,.,.n.,.,.>.n.,.,.,.p.i.p.i.C.C.z.B.h.j.s.e.d.s.e.o.+.] ) ' o./ R A ",
"x  .^ o.~ D d i e x &.&.U -.=.:.>.,.,.,.,.n.,.,.,.,.,.n.n.n.,.G.n.F.n.G.n.G.Q.^.U.R.H.S.Z.h.B.j.t.d.t.e.4.4.<.q...[ ) } ' / T A ",
"H ^ ^ ^ ~ Z l i i c _ | &.-.>.>.,.h.m.S.F.F.G.G.J.G.G.G.J.|.].XX+XXX.X!.!.Y.!.E.~.S.S.B.Z.b.s.w.1.*.w.8.$.X.} q.1.#.[ [ ..! Z Z ",
"z %.S ~ ^ A n n x L _ | -.C.p.D.E.'.E.}.XX+X}.&XOX+X{.|._.@XU.XXXX+XE.|.!.).h.A.L.S.p.N.S.K.4.d.t.t.o.+.<.r.} 1.0.*.' $. .} V m ",
"H +.~ ~ ~ A B D C ( | $.p.C.h.P._./._.|.&X+XXXXX+X}.!.~.}.].!.|.+XXXR.U.E.R.S.d.Z.M.N.h.P.z.p.y.d.8.$.o.8.1.w.1.y.w.} } <.{ ! m ",
"x +.~  .S ! / _ E U U _ ( ( K K E | p.'.}.XX.XXX).}./.E.U.E.Q.}./.}.Q.S.z.h.P.I.S.A.R.).P.S.z.z.t.4.<.3.<.4.1.1.} } / *.} } / V ",
"x X.^ ^ ^ ^ X._ H f r 3 > * & & & > s | p.D.!.!.'./.E.h.N.p.h.!.!.E.p.y.j.p.N.E./././.!.|.(.S.p.=.) E K T C B n n M V R ' ' / V ",
"c 4.A ~ ^ <.M s 3 < : < > $ o X X # $ > r B ! p.R.!.N.N.g.z.j.!.!.P.1.w.t.t.t.E.}.|.E./.E.D.-.( x 9 < > > 3 < 3 3 r t f n B V V ",
"L 4.^ ^ ^ / y 8 l ( | i.n.-.x 7 > : : : < 9 l E 4.N.N.z.s.1.s.l.C.d.$.$.1.%.y.N._.E.p.u.E r < * $ o X . X X $ + = : ; < 7 7 r l ",
"H u.w.o.^  .~ } =.z.l.E.R.).C.,.#.( c f s y f V Q 4.j.N.7.t.t.v.y.f.$.} / } +.j.p.t.V r : + o X . . . . X $ $ = + = : : : ; ; 3 ",
"H -.i.' o.d.1.e.a.d.s.C.P.S.h.i.4.| ' W T B V M R } t.s.s.f.y.d.t.t.[ V T T W / ! n 6 - + o X X X o $ : 5 s i r 7 7 7 < : : : ; ",
"P -.u./ y.S.1.s.B.v.3.*.' } _ | | } C M M n M Y [ 1.w.y.d.s.1.l.s.j.T n n M n n f 8 - = + + $ + ; 7 s K | | ( E K D l p 8 7 < > ",
"U -.t.! N.S.s.1.w.X.n M u.E./.J.R.p.1.) V y 8 n ) $.1.t.s.4.w.t.s.t.R y f f f y 0 , - = = - ; 3 t l B E _ / E E / E E T B l r 3 ",
"U -.u.) 8.S.z.t.) f p p.G.J.p.=.( L c M n g 0 y h ! o.d.s.j.w.t.1.1.R n y y y 0 1 ; - - - ; ; , 8 y f f t y t y 0 y M V V B p r ",
"&.-.j./ *.z.z.q.V 0 / h.-.d < & O . . o = , 7 6 y M ^ w.z.S.f.w.t.$.Q M n y 8 , ; - = = @ + = 6 n E ( ! W M f 8 ; = = 7 f n f f ",
"&.-.4.T E w.8.y.V n M d & .     O       . X + ; 8 n V +.S.).h.j.z.t.W V f y 3 ; - = $ X X : 5 s i s 3 3 9 e 9 9 7 < o + 7 D M V ",
"&.U $.V T ) T V M t : . . . . . #       . O o o = 8 Z } R.&X_.E.E.z.1.M 0 , , ; = + X . @ = o . O .       . . . . X O X $ y C n ",
"&.u.P.q.! W g 0 ; - ; , ; < < 3 & # X # $ 4 : @ + - A y.R.:X1X&X_.!.t.M 1 , ; - @ + X . X $ + X .       . .       .   . . - y y ",
";.-.z.S.z.8.+./ M n / s.p.i.t.$.E H c B l n f y n T d.I.}.5X8X<X&XR.X.y 1 , 1 - , 1 , 3 y l c x i 4 * : < < > : > : + o + , 6 t ",
"u.$./ ^ 1.d.s.S.S.j./ +.s.s.<.4.*.} Y Y A Y V ! ! o.d.'.=X8X8X3X=XR.Q t 1 1 0 y y ! } } / } / *.*.' M Z Z C y t y f y f M y 1 l ",
"i.4.~ Z ] j.I.S.|.'.N.8. .! Z Z Z A Z A A m g y g $.).}.<X8X8X<X&XS.Q q 8 0 g ! ) } 8.+.' Z Y ! o.) m g y q y n A Y m n 6 ; y ^ ",
"=.$.A A { I.W.|.E.XX).R.+.A h n g h g y 6 1 8 V i.XX%X<X:X8X3X1X/.d.Z g g h m A  .t.8.j.e.<.M y 6 0 0 0 0 q 0 q 8 1 ; - ; n T T ",
"i.u.^ ^ d.W.).).}..XXX.X.XR.w.Y g 8 8 0 f Q C.%X:X+X+X*X,X3X1X&XR.X.m h A ! ^ ^ +.t.r.s.I.W.z.w.E n y 8 6 3 ; ; ; , t Z 8.t.$.V ",
"h.k. .o.N.S.R.'.}.:X.X1X1X&X/./.I.S.h.!.XX1X%X<X=X1XOX3X8X8X:X.Xj.^ h m ! o.o.t.s.t.+.s.I.).P.!.T.).P.R.R.S.y.j.N.N.t.s.s.s.X./ ",
"p.t. .^ j.R.!.|.&X:X1X5X5X:X.X/._.).}.&X:X:X&X:X<X1X1X<XqX8X=X!.s.! m m A ! ~ ^ <.1.s.s.R.!.E./.'.Q.!.E.OXOX].S.R.z.s.t.s.8.+.o.",
"e.t.y.1.t.!.'.+X&X1X5X8X<X1X&X_.R.!.|.1X:X:X+X<X5X8X8XqX8X1X'./.t.o.A Z h h g y q g h  .j.).).'./.+XXXXX].OX[.|.E.I.s.t.+.1.+.1.",
"9.3.s.d.N.E.|.+X:X:X8X8XqX1X&X/./.XX:X1X1X:X+X,X5X8XqXtXqX:X).P.z.s.8.^ m y y g g 6 , 6 V t./._.).+X&X+XXX|..X`.|.S.z.8.8.1.s.+.",
"q.0.#.w.z.R.R.XX=X1X1XqXqX8X&X&X&X:X%X:X:X=X+X&X1X8X8XtXtX:XE.z.z.S.z.w.! g g ^ ^ ! 0 ; ; y ! z.!.|.}.XX.X+XE.R.!.I.z.w.f.l.+.+.",
"e.<.X.+.s.N.R.'.+X&X1X5X8X8X<X=X:X+X&X+X}.P.h.!.:X5X8XtX8X:X).N.E.|.N.o.A h Z +.t.o.Z , - ; 1 V 4.S.R.!.|./.E.S.S.c.s.w.j.w.6.} ",
"$.*.1.t.8.l.R.}./.}.}.:X:X:X@X.X_.E.j.w.Z m 8..X=X5XqXtX8X:X.X|.E.XX<.m g n A  .~ Z g 6 , 1 , 6 n } q.N.N.I.N.N.r.9.0.y.2.0.2.7.",
"*. .O.j.y.d.z.!././.T.!.].`.W.d.+.A h 6 6 Z /.:X=X5XqXtXqX8X1X.X_.q.n 8 1 1 6 1 , , 1 1 q y y 0 8 f W X.y.j.j.w.w.8.+.8.t.1.2.X.",
"4.<.[ y.j.j.s.!.W.).N.U.E.j. .A g 6 - ; T }.&X%X3XtXqXtXtXtX:X+Xp.M , - @ + $ + + - ; 1 6 q 0 y q 0 0 M ) 1.o.o.<.X./ +.1.1.! / ",
"} ' ) t.j.s.t.s.I.S.j.s.<.^ m q , - , E J.1X1X5X8XqXtXtXtX8X:Xh.V , @ o + @ + $ @ @ @ - , , 1 0 y 0 1 6 n T R R Q R Q ) } / Q E ",
"_ / ! w.t.8.o.2.w.j.5. .m h 0 , = 6 / J.}.8X8X8X1X8X8X5X=XJ.p.R 6 - @ + + + o + + + @ = @ @ - , , , ; ; ; r B R R R V R V E Z D ",
"/ W !  .+. .^ ^ +.<.{ Z g 0 ; - , M p.}.:X:X5X1X1XXX+XE.p.E f 6 ; @ @ + + + + @ = = = = + + @ = - = = = = = 7 D [ ! T V T C C M ",
"T L D ) '  .~ ^  .o.Y n 0 1 - ; f [ u.}.XXJ.D.C.p.h.p.N.q.V , ; ; , ; - - - @ = - ; ; ; = = @ = - - @ $ + + + 3 B [ T T C Y M B ",
"D M B ) ' / ^ ^ ^ ! V t 1 ; ; 8 V ! t.t.( B E [ $.! V R C t ; 1 f C s 1 , ; - - - - ; ; : : : : ; - : = = + $ + , n V T E E E C ",
"f l B [ } ^ ^ ^ A A h t 1 , , f M C U n t t n R M n 8 8 ; @ @ 1 l E M n 0 3 ; ; - - - ; ; ; ; ; ; ; ; < : = + + @ , n T T ( _ ( ",
"l l l [ 1.1.o.) m n h t 1 , 6 l l x B t 8 8 y f n y 6 6 ; - f 1.1.) A Z g 0 1 , ; , 7 1 1 1 1 1 1 3 3 , < : + + + @ 1 M ( | -.( ",
"x c l ! t.j.q.1.T f y f 8 1 8 n l c p 8 8 r t f M M 0 y y M ) j.j.w.! A m h 0 0 0 y y g n g 6 6 6 0 , , 3 < + + @ - - M [ =.| ( ",
"d c c ( z.z.d.t.' y y M f 6 y V l p r 8 r t f n m M M Z ) ' A ' 8.8.^ A Z m n g g q y g n 0 1 1 6 1 ; ; ; : @ + : , ; n X.*.| H ",
"d c c U u.C.h.U.4.M t V V f f Q y 7 ; 3 ; ; , 8 y m Z A Y Z A Y Z A h g q 0 6 6 1 , , 1 ; - - - @ + o o o + = 7 s y 7 C _ _ ( H ",
"x c L K =.P.R.Y.Y._ y f ! T f B l 9 , - @ @ - 1 0 0 q 0 0 q y q q 8 1 1 1 , ; - ; ; - - @ @ @ @ @ @ = - - ; y T / V y W / ! H c ",
"L U L L &.C.h.U.H.z.n r E [ C T V M y f y y y g h m j N j f p p p j j N N N j j a p 0 6 6 6 1 6 0 0 6 6 0 M / } o.V f ) ' ! l c ",
"I U U U &.i.S.S.E.C.( s C | } ' / R V V / M g m / ) @.@.@.G @.G } } @.F F N N j p p a p a a y q q 0 q g ! w.1.' W n R _ _ D f x ",
"L -.-.-.&.=.z.!.M.Z.p.B s _ 1.*.Y A V / ! / n M M D M F G @.E G F F F N s r 9 7 3 9 6 8 q a q 0 6 0 g ! t.N.7.' l f ) _ B x x B ",
"I -.-.-.&.U q.p.t.q.i.K 9 l $.1.} Q R ! { ` V f t 8 9 y N l f y r r e 9 7 3 3 > > < 3 3 9 8 0 8 t y T i.S.4.<.W y n / E l f c K ",
"&.;.U -.-.U _ | K | _ ( 9 8 V 8.1.X.Q ~ ^ Q n f f y 8 r f f y s y r 7 9 3 3 > > < < > 3 9 9 8 y n R 1.p.p.1.[ M y T C l s x x K ",
"&.-.-.-.;.&.J d e U L Q n 9 y $.y.o.} / ) Z n y f y y n M B V n n s 9 7 7 3 < > 3 3 7 9 r s p n ' 4.q.u.p.t.W f V R l r p l D M ",
"I -.=.-.-.U d 5 > e x U L l f  .y.y.1.o.) Z n n f B E } R / ) Q M f r 9 7 3 3 3 9 i p n f n B _ p.p.u.p.u.*.n M V V p p f H L _ ",
"J -.;.-.-.H u > * > 4 i K / } 4.j.s.w.1.o.Z n n V } p.p.M.q.1.*._ E B d s r i x c K E _ E K / 4.p.p.i.t.*.B M V T l f c L L U ( ",
"b &.&.&.U b e > & 2 > 2 x m.p.N.p.7.1.s.8.) V Q %.N.p.d.1.*.} t.u.p._ U U &.( &.-.| ( / ! ..[ i.i.u.u.u.E V M V l l x c K U _ | ",
"z I U U U x 4 & & & & & e -.^.J.R.1.w.y.u.} } 1.S.S.M.I.h.t.u.i.i.:.:.>.,.,.>.-.=.( K ( X.| $.=.3.p.u._ _ C B p r l L c B ( | u.",
"w H I &.I z * % & & & < 5 ( J.*XD.j.%.t.4.3.#.p.R.!.M.I.U.Y.p.D.i.F.m.+XJ.n.>.i.&.! T / E } } u.=.i.=._ ( K x 9 7 x D C B U &.=.",
"w x J U H e * # % % * > 5 H +X*X_.h.q.1.q.3.u.p.).).'.Y..X{.{._.{.H.H.F.H.*.=.7.4./ E E ! _ *.u.p.u.u.U D c d e 7 9 d c I U z i ",
"5 5 v b z w & # % & % : 4 c =X,XOXS. . .e.N.z.I.U.T.h.R.S.V.D.G.D.p.u.p.h.d.X.*._ ! T / $.7.t.P.S.M.#.c x c i e < : 3 r d 5 4 4 ",
"% & 2 4 k 5 & O # # % : 3 D :X<X+Xe.| a. X#X}.~.!.~.Z.x.Z.p.a.7.e.3.3.<.<.3...' } [ } [ $.z.S.P.~.-.I d e i w 7 < $ = > > > > > ",
"O O # * 4 4 : O O # % : < E *X3Xn.-.{.=X&X<X3X:X}.oX_..X~.R.Z.A.q.<.) W T Q / $.' <.e.*.4.R.!.|.p.U x x < 4 > 4 & O * 3 3 9 3 d ",
"O O O % * 2 * O O O % = r Z.,X8XqXqX7X2X3XqXeXwXqX;X8X3X3X*X|.[.'.Y.s.W E E / [ *.e.h.M._._._.:.L x e e 4 > & & # # : 7 r d f x ",
". . . # % * & # . O $ < #.}.>XqXrXtXwXqXqXrXwXtXtXtX7XqXwX9X*X*X=X<X{.n.&.L D } h.Y.D.}.*X{.U H c w * * & & O O O # & < 9 r r s ",
". . . O # & % # . X # d i.#X4X4XqXwXwX4X6X6X6X6X0X0X6X6X6X6X-X-X;X-X-X-X-X,.U ;.F.G.G.{.$X,.b v k w * & & # O O # # % * 5 4 w u "
};
