/* XPM */
static char *out[] = {
/* columns rows colors chars-per-pixel */
"64 64 229 2 ",
"   c #2B1608",
".  c #4A2415",
"X  c #5C2C1A",
"o  c #68321E",
"O  c #583F2A",
"+  c #763A24",
"@  c #7E3D26",
"#  c #63432F",
"$  c #6E402D",
"%  c #6A4D37",
"&  c #77523D",
"*  c #7F5D46",
"=  c #814A35",
"-  c #8E4B34",
";  c #96523A",
":  c #865540",
">  c #8C5D46",
",  c #9D5943",
"<  c #955F49",
"1  c #A45E45",
"2  c #89664F",
"3  c #9B644E",
"4  c #916A53",
"5  c #9A6F56",
"6  c #AB644A",
"7  c #A16851",
"8  c #AD6D51",
"9  c #A86D58",
"0  c #B36A51",
"q  c #B76F53",
"w  c #A1765D",
"e  c #A7755C",
"r  c #AE755B",
"t  c #B4715D",
"y  c #B97658",
"u  c #A87B63",
"i  c #AE7D64",
"p  c #B77764",
"a  c #BD7564",
"s  c #B27861",
"d  c #B47F64",
"f  c #BB7E63",
"g  c #C1785B",
"h  c #C87E61",
"j  c #C07B6B",
"k  c #AC836B",
"l  c #BE8466",
"z  c #B3876E",
"x  c #BA876A",
"c  c #BF8B6C",
"v  c #B78C72",
"b  c #BC8E72",
"n  c #C38264",
"m  c #CC8566",
"M  c #C78568",
"N  c #C4816F",
"B  c #C48A6C",
"V  c #CC8C6D",
"C  c #CC8C6E",
"Z  c #D18969",
"A  c #D48C6E",
"S  c #D88F6F",
"D  c #C98270",
"F  c #C88973",
"G  c #CC8A78",
"H  c #D08B78",
"J  c #D38E7E",
"K  c #C39072",
"L  c #C69677",
"P  c #C89172",
"I  c #CC9475",
"U  c #C09379",
"Y  c #CA997A",
"T  c #CF9C7E",
"R  c #D19071",
"E  c #D09072",
"W  c #D29172",
"Q  c #D09273",
"!  c #D39273",
"~  c #D49374",
"^  c #D59475",
"/  c #DA9472",
"(  c #DD9876",
")  c #D79778",
"_  c #D1967C",
"`  c #D89778",
"'  c #D59A7B",
"]  c #D99878",
"[  c #D9997A",
"{  c #DB9A7A",
"}  c #DA9A7B",
"|  c #DC9B7B",
" . c #DB9C7D",
".. c #DA9D7E",
"X. c #DE9D7D",
"o. c #DC9D7E",
"O. c #DD9D7E",
"+. c #E09E7D",
"@. c #E2A07F",
"#. c #DD9E80",
"$. c #DE9F80",
"%. c #DF9F80",
"&. c #DD9986",
"*. c #D4A082",
"=. c #DFA081",
"-. c #DCA386",
";. c #D8A485",
":. c #DCA88A",
">. c #DFAB8E",
",. c #DFAF94",
"<. c #E0A081",
"1. c #E2A181",
"2. c #E3A181",
"3. c #E0A182",
"4. c #E1A283",
"5. c #E3A282",
"6. c #E4A281",
"7. c #E5A382",
"8. c #E4A383",
"9. c #E5A483",
"0. c #E6A483",
"q. c #E5A484",
"w. c #E6A585",
"e. c #E7A685",
"r. c #E7A686",
"t. c #E8A786",
"y. c #E8A787",
"u. c #E9A887",
"i. c #E0A58A",
"p. c #E3AC8D",
"a. c #E7AD8F",
"s. c #E8A888",
"d. c #E9A888",
"f. c #E9A989",
"g. c #EAA989",
"h. c #EAAA8A",
"j. c #EBAA8A",
"k. c #EBAB8B",
"l. c #EBAC8C",
"z. c #EBAE8F",
"x. c #ECAC8C",
"c. c #ECAD8D",
"v. c #EDAD8D",
"b. c #EDAE8E",
"n. c #ECAE8F",
"m. c #EEAF8F",
"M. c #EEAF90",
"N. c #E4B195",
"B. c #E9B193",
"V. c #EDB091",
"C. c #EEB090",
"Z. c #EFB090",
"A. c #EEB091",
"S. c #EDB192",
"D. c #EEB192",
"F. c #EFB192",
"G. c #EFB293",
"H. c #ECB496",
"J. c #EEB899",
"K. c #EEBC9E",
"L. c #F0B293",
"P. c #F0B394",
"I. c #F0B495",
"U. c #F1B495",
"Y. c #F0B496",
"T. c #F1B596",
"R. c #F1B597",
"E. c #F2B596",
"W. c #F2B697",
"Q. c #F2B698",
"!. c #F2B798",
"~. c #F2B799",
"^. c #F3B799",
"/. c #F3B899",
"(. c #F2B89A",
"). c #F3B89A",
"_. c #F3B99A",
"`. c #F3B99B",
"'. c #F4B99B",
"]. c #F4BA9B",
"[. c #F4BA9C",
"{. c #F4BB9C",
"}. c #F4BB9D",
"|. c #F5BB9D",
" X c #F5BC9E",
".X c #F5BD9E",
"XX c #F5BD9F",
"oX c #F5BE9F",
"OX c #F1BFA1",
"+X c #F5BEA0",
"@X c #F6BEA0",
"#X c #F6BFA0",
"$X c #F6BFA1",
"%X c #F6C0A1",
"&X c #F6C0A2",
"*X c #F6C1A2",
"=X c #F6C1A3",
"-X c #F6C2A3",
";X c #F7C2A3",
":X c #F6C3A4",
">X c #F7C3A5",
",X c #F2C4A5",
"<X c #F7C4A5",
"1X c #F7C4A6",
"2X c #F7C5A6",
"3X c #F7C6A7",
"4X c #F7C7A8",
"5X c #F7C8A9",
"6X c #F0CBAD",
"7X c #F8C8A9",
"8X c #F8C9AA",
"9X c #F8CAAB",
"0X c #F8CBAC",
"qX c #F8CCAD",
"wX c #F8CDAE",
"eX c #F9CEAF",
"rX c #F3D1B3",
"tX c #F7D1B2",
"yX c #F0D4B6",
"uX c #F6D4B6",
"iX c #FAD3B4",
"pX c #FAD7B8",
"aX c #F1D8B9",
"sX c #F7D8BA",
"dX c #F5DBBB",
"fX c #FADDBE",
"gX c #F6DDC0",
"hX c #F9E1C3",
"jX c #FBE5C7",
/* pixels */
",.D.t.t.] B k k z *.*...) =.N.K.K.XX+X%X+X>X%X-X X X&X3X3X7X+X1X|.+X~.oX!.Q.G.I.D.F.A.F.f.k.f.k.w.g.%.r.8.8.{ X.) [ ^ { ] ) ! ~ ",
":.t.v.x.u.Q d i e 7 < > : < p ' p.V./. X&X>X>X+X[.[.+X<X7X7X-X{.~.I.~.'.|./.I.H.U.G.D.F.z.f.z.e.s.8.6.7.h.5.X.| | | +.{ | { ` ! ",
"K +.+.0.5.n < = $ $ X X O # & < s P } H.&X3X X X/.|./.3X3X3X[.Q.Y.[.I./.|.|.G.].[.'.n.G.m.M.s.k.s.f.4.y.j.k.X.{ X.| ) O.<.{ R ~ ",
"c ] / ( W 3 + & > > & $ & * > 3 e f Q 4. X&X X'.Y.U.[.-X3X&X'.H.U.Y.Y.XX:X-X}.}.%XY.n.f.m.r.4.4.f.u.e.y.x.r.6. .#.O.| +.%.) ^ A ",
"x X.S S 8 < w T >.N.N.*.b v z l l C ~ #.z.[.[.@XG.W.[.<XXX[.I.G.k.Y.[.-X{.;X#X%XY.n.p.#.C B C Q Q [ W ! ) X.O.4.#.3.<.5.] ^ A A ",
"K X.S A t B p.H.).+X{.OX.XV.B.4...~ [ [ u.Y.Y.Y.'.M.[.R./.S.k.y.k.m./. X'.H.p.L p 9 7 > & & & : > 7 9 r l B C R [ #.4.%.{ ^ Z m ",
"U @.W A A z.f.G.Y. XY.[.Y.Y.a.a.r.8.} %.f.U.V./.G.!.G.G.T.V.O.%.8.k.r.G.f.' s < = $ X . . . . . X + & = 3 r r y n C I O.+.] M m ",
"U @./ / e.w.f.k.z.n.B.B.Q.V.r.4.4.=.| 4.k.G.U.Y./.U.l.G.U.r.! C ) ] ) } ) f , = + $ X . X X X o & : = = : : > < 7 7 t C ) ! m n ",
"v =.+.8.4.f.q.~ [ a.B.H.B.n.a.4.E E E @.e.G.U.L.M.G.x.Z.Z.f.Z M M V C V f 9 ; : + + @ - ; 9 r l K P f r 3 3 < < - - > 3 8 n m n ",
"b i.5.+.8.5.! n B.Y.'.Y.H.B.G.r.] M n Z @.u.V.G.L.Z.F.c.C.f.^ g n f l f t 7 , - - ; 7 s C [ 4.8.r.8.4.[ ~ F l r 3 , ; ; < 3 r f ",
"b p.O.| +.| f } !.(.V.H.[.[.z.r.O.E y f ! %.8.G./.).f.m.M.k.^ m M f y 8 9 3 ; < , 7 6 n Q } C C C ~ C Q [ ..Q ~ C f 3 3 3 < : 7 ",
"L i.8.O.%.E f 8.H.p.T K c f d l F Z n f m ! | f. X).Y.U.oXz.| C M y 0 1 , ; ; - - , r C 4.k.w.[ ! m f t y f F ^ ) C l s 9 < > > ",
"b >.i.r.w.W M i.L w > & & & # $ = 3 6 t t m ! e.!.8X-X-X X!.8.E y 0 6 , - - = + - p P ~ ~ *.*...Y C M f 8 3 ; t M W C F s 7 > > ",
"K >.i.r.f.Q C d & . . . . .     . X $ = - 6 S 8./.tXeX7X<X/.k.C 8 1 1 ; = + o $ 9 r 7 > * * % % & * < 3 3 7 < @ 7 B C B n p 7 < ",
"L ;.*.*.8.} 9 @ . . . . . .     . $ $ o o @ f m. XuXuXeX7X/.} f 1 1 1 - , ; + + @ = + X .             . . . X o o 9 C [ E n p y ",
"T ;.;.P } n - , 9 < 3 < > & O # > r 7 3 8 Z 1./.<XtXuXeX7XU.) y 6 6 y 0 F ^ C M C C Q c d w & $ # o X . . . . . . + r t 8 f f n ",
"T *.>.I f f t ) e.f.e.f.} ) ^ C n M m ~ ] { e.).-X9XtX0X&XU.^ y 6 0 n ) ~ +.e.8.} { O.=.+.[ C V M M f r 9 7 < ; : , , 1 0 l n n ",
"*.;.>.) F +.k.+.%.e.2.8.4.=.] ! S W W Z f F Y.>X>X5X9X&X!.r.W g g h m ^ 5.8.u.y.@.E m M Z Z m M g g g m W ^ W Z n 6 ; 6 M ^ 5.e.",
";.*.*.i.V.J.z.n.k.8.^ ) ) ] ) ) m g 0 t ) XX&X2X8XwX:XXXG.O.M m Z S S ] 1.u.8.f.k.m.%.C t 8 6 6 6 0 6 0 0 8 ; - - , 0 W 5.} n Z ",
"*.T *.a./.W.Q./. XU.| Z m y q q 0 0 n B.8X9X3X4XeXeX2X#Xk.^ n m ^ X.@.5.y.u.e.y.U.L.M.G.'.Q.4.) C f t 6 t t y n ) @.O.| %.6.{ f ",
"*.*.' i.l.W.G.;X5X3X[.[.k.8.} =.8.Y.&X9X3X9XqXiXtXiXoX).5.^ m Z M ! X.e.@.e.f.j.v.P.F.!.R._.W.oXoX.XR.Q.G.R.F.G.k.F.k.w.) ] +.X.",
":.-.*.*.z.'./. XwXeX7X<X&XXX'.&X7X3X9X:X2X0XiXuXuX8X Xm.u.O.^ Z M g n g g g Z X.m.Y.U.W.!.R.|.].$X$X X'.^.R.).L.Z.l.x.w.5.~ ) +.",
">.>...=.k.{.!.<XiXsXeX0X7X>X[.3XqXiX2X:X8XiXtXpXsX7X~.Z.M.m.5.X.m g 0 g y 0 , 6 m u.U./.).|./.oX<X4X`.@X X`.M.Z.v.m.t.u.5.@.V [ ",
"p.-.=.4.Y./.XX<XtXfXsXeX0X&XXX5XeXeX9X3X9XeXsXsXsX&XU.Z.G.G.F.w./ m g / +./ g , , t ] z.[.XX X%X9X2X$X+X;XoX^.M.m.g.w.y.x.8.| W ",
"i.-.#.a.U. X<XtXuXhXsXiX7X7X0XeX0X0X7X0X:XeXiXgXiX<X/.Y.R..Xn.+.m h A u.q.t.| g - - 1 M =.!. X<X-X2X=X:X#X&X^.!.b.b.7.k.7.u.8.| ",
"p.p.i.f.!.3XwX0XiXsXfXiXtX0X0X0XeX7X<X+X7XeXsXpXuX-X X X%X[.O.l g g S X.X.S m y , , , 1 y ] n.Y.'.#X$XXX&X[./.U.v.k.f.r.h.u.e.@.",
"l.a.4.f.$X3X&XqXuXfXsXuXuXiX7X<XXXm.O.V.4XiXsXsXtX0X+X&X X8.y 6 , , - ; ; , ; , 6 y 0 q 8 y V 5.m./.S./.R.'.m.m.m.b.6.r.l.f.+.@.",
"M.r.8.f.;X<X:X2XeXeX0X3X3XXXG.e.] g m Y.7XiXsXhXjXfX7X{.8.y ; @ o o o o + @ - , 6 q q q g q 0 n { 5.f.x.T.A.x.k.x.z.f.q.j.u.q.+.",
"w.w.<.C.R.$X#X;X-X3XXX[.k.8.A g , y V.7X<XsXhXhXhXfX7XH.f , + o $ @ + + + - = - - , , 8 0 q q 8 q M ) 1.5.6.6.q.t.f.h.d.8.7.<.7.",
"q.$.8.v./.].@X-X&X XU.u.{ n 1 - 8 B.7XeXiXsXhXfXsX7X/.W 1 - + + + + + o + + @ = - = - - 1 1 , , , , y E [ ) { | 5.8.g.4.6.7.<.<.",
"r.7.| e.Z.W.[.-X[.U.@.^ g 1 = 8 p.-X0XsXsXsXtX0X+Xa.C 8 ; = o + + + + + = @ @ - : @ + @ - - - - : : = 7 B | W ^ ] $.' O.#.%.) ] ",
"q.<.X.@.Z.Z./.!.G.8.W g 6 - , #.>X3XtXuXsX0X7XK.z.m 7 ; ; , 1 ; - : - - - - - , - @ @ = = - - = @ + + + > n ) ] ` ~ Q ^ ] } ~ I ",
"O.@.O.w.k.b.G.U.5.) n 0 ; ; M a.+X0X&X-XY.Y./.!.B.[ t 6 t M C t , , ; ; - - - , ; - - - - ; ; - @ @ + + + : f | ] R E ^ ~ [ P C ",
"3.O.+.5.g.m.m.u.{ m q , - 8 ^ m.K.>.' *.4.=.O.) C 9 - ; l ] | C y 8 , ; ; - ; - , ; - ; ; , 1 , < < : @ + + : t ~ E E E [ [ I c ",
"2.2.{ 6.u.u.e.+.! g 1 ; ; C } z.! l 8 n ) E y 8 1 - = p ] 5.) S m g 6 1 1 , , 8 6 6 ; 1 6 6 1 0 8 6 < : @ @ + - f ! V ) O.8.I B ",
"+. .[ { e.5.} / Z y 1 - 0 R ~ } l 8 8 s m M t 8 7 1 f f.!.U.t.2./ Z h q y q g M m M g y q 0 q q 0 8 1 ; : @ @ = , n Q ) 8.i...l ",
"~ [ ) <.O.%.] ^ n 8 1 , y W B Q s 8 8 y n m y y f m } f.k.k.u.e./ S Z Z m Z M m m Z n y 0 q 0 0 6 6 6 3 : = = - ; l ) ..=.p.*.B ",
"^ ) ) | @.O.{ m f 8 1 , f C n B s 8 t y n m m Z ] | ] / / / ) ~ Z M g y y q 0 q q 6 1 , ; ; ; ; - @ @ @ @ : ; 6 6 y ) #.w.a.i.P ",
"C I C ] { X.S m y y 6 , y C l l t t 9 8 t a g m Z m g m m m p q 8 1 , , ; , , , , ; = = = = @ @ + @ + @ - r l M y a ) 4.i.>.*.K ",
"B B F { @.{ / M y a t 6 f Q f 7 7 , - = ; , 1 1 6 6 6 0 q 0 9 6 6 6 6 6 q 8 0 6 6 6 , , 6 1 , 6 6 6 6 6 f ) O.O.n m X.@.i.;.T c ",
"f l B +.8.8.X.A 8 t n y y ' s , - @ + = ; , 1 8 6 q p j D D D J G H G G C G N j g h g g g g g g q q q n | f.y.e.n ^ ..-.*...I P ",
"f l B } f.h.8.) y 8 m F f Q l r 7 7 9 y m M Z A / ) J ) &.=.&.[ J C V C D j g g g y y g g y g q 0 y Z +.G.f.e.O.m ) o.=.=.' K K ",
"f c B [ z.G.n.k.F t y ) Q Q M M M V M Z m / / O.<.=.J &.&.&.J J J n t r r r 9 r 0 6 9 p y a q q q m | l.Y.y.| W V 6.| %.} L c P ",
"l c K ' z.Q.G.F.3.f r Q 4.) ! ~ ] ! ~ A Z W } ] ~ H G F F f p s s r 7 7 7 7 < 7 7 7 9 8 t p p p M O.l.I.n.2.| M E q.=.[ I B B K ",
"d B K 4.p.(.Q.U.l.! 8 l ..o.{ ` ^ [ / ( Z M n n y r s p t p t s 9 r 7 9 3 7 < 7 7 9 7 r 8 y t n ~ n.A.G.<.8.) l W q.#.Q l c c P ",
"x c L _ a.Y.!.R.J.i.l 8 C o.{ ) ) ) { / W n f t 8 8 y f n l l f f r r 7 7 < < 3 9 r s p f f n ~ f.S.Y.s.8.8.E f ] #.I l f d B F ",
"Y T L T p.].F.R._.R.~ s g ..X.O.| +.^ / A M y y y f f n C C M M f s 9 9 7 7 3 r s l l C F Q Q r.F.R.f.p.z.8.f F { [ f f f K c B ",
"Y *._ _ -.S.G.G.J.G.r.C f F 8.5.q.+.` ^ A n n l l l M C ) ) E C l d r 9 r t s n E ) ) | | ] ` f.Y.z.s.l.G.] n W ] C d d l B l M ",
"L ;.*.#._ p.z.S.V.A.k.8.f s } k.2.8.X.{ Z M n n n ) w.w.%.f.e.O.E P f l B ~ ..r.4.4.e.k.8.8.k.H.V.z.l.V.k.m F ] R f r f d B F Q ",
"T *.;.*...*.p.f.z.r.z.r.B 8 M j.u.+.{ ] A M m m ] e.G.n.m.m.b.y.q.=.=...B.p.B.V.B.f.s.4.4.4.S.S.z.a.B.a.=.M Q ` V p r r c F ^ ) ",
"*.:.*.;.*.;.' ' ..r.@.u.) y l %.t.e.| ( / S V | G.Y.p.f.x.M.e.G.V.G.B.H.{.'.p.R.z.f.[ #.8.B.f.B.a.B.r.p.~ R E C f s 9 d P _ Q I ",
"*.;.;.*.;.' P r K i.=.=.e.C W @.u.g.6.| X.X.8.z.].G.l.s.b.z.f.n.~.F.H.V.K.J.H.H.S.4...#.f.B.p.w.l.p.p.;.[ ) R f d f d c Y *.P n ",
"Y :.;.:.*.L u 2 9 L ' ] X.O.%.M.@.x.z.b.1.j.f.[.{.!.).'.Q.Q.n.).'.K.OX3XOXOXJ.Q.a.4.=.w.=.r.4.p.r.B.a.=.) ) n f B c B Y Y Y I _ ",
"L ;.:.:.;.c 5 * * 4 i ' x.k.e.F.4.7.L.A.j.k.f.U.oX].oXXX.XoXoX%X2X4X9X7X8XK.>.p.B.4.4.%.4.4.4.p.a.a.a...[ C d f Y P K L I T ' _ ",
"b *.*.*.T c 5 * * 2 4 x f.'.z.|.k.8.y.U.Z.M.8.z.[.1XOXoX>X3X%X2X4X3XOXOXJ.p.} f.f.s.} | <.4.#.i.a.H.=.} ^ f 7 r c K l b Y ' #.-.",
"z Y T T T x 2 % * * * 9 :. X$X+XG.2.6.k.v.Z.b.V..X{.'.oX%X+XK.%X2XH.V.l.p.k.s.4.8.} [ ) 8.q.w.p.Y.V.i.^ K z 7 7 s Y b K Y ' i.p.",
"w K Y *.L d * % & & * w v K.;X*XG.k.9.x.f.z.A.F.n.G.S.G.k.m.f.V.p.a.f.m.q.s.=.=.[ ) ) $.=.l.V.J.H.B.=.L i k w e r c P L K T i.i.",
"w x Y Y K w & % % & * 5 d N.wX1XT.f.w.@.f.G.Y.U.U.E.A.n.z.f.r.4.4.4.=.+.%.X.X.X.} ) #.$.r.n.I.!.H.;.T b z z u r 9 9 f P Y Y x i ",
"5 w v b d w # # % & & > 9 p.9X8XR.z.#.z._.@XR.).{./.s.z.n.n.4.4.=.@.E ) ] <.{ %.X.8.) [ l.~.Y.{.p.*.K w K v u u > > 6 d x e < 4 ",
"% & 2 5 k 5 % O # # & * 7 *.eX8X[.4.r.oX0X3X%X{.oX_.G.F.Q.M.k.y.9.#.^ R ) ) ` O.4.s.o...G./. XJ.a.L l 5 w w 4 w < % = > > < < > ",
"O O # * 4 4 * O # # & > < *.eXeX;.a.:XeX9XtX0XeX+X*XoX%X(.W.S.R.x.f.| E E ~ } 4.8.h.4.F.R.}.`.H.Y B d k 2 2 : 4 & # : < < 7 3 i ",
"O O O % & 2 * O O O % : r !.eXtXsXsXuXtXiXsXhXgXsXiXtXtXqX3X@X X@X'.4.I Q _ ) [ 4.h.G.Q.&X=XH.Y K d w 5 > : & & O O > 7 s d d x ",
". . . # % * & # . O $ < #.+X5XsXgXhXdXsXsXgXdXhXhXhXyXsXdXpX2X4X3X0XOXB.*.I F  .z.R.D.OX2XOX' K c w * * & & O O O # & < 9 r r i ",
". . . O # & % # . X # d p.:XrXrXsXdXdXrXyXyXyXyXaXaXyXyXyXyX6X6X6X6X6X6X6X,.T :.B.K.K.OX,X,.b v z w * & & # O O # # % * 5 5 w u "
};
