/* XPM */
static char *out[] = {
/* columns rows colors chars-per-pixel */
"64 64 225 2 ",
"   c #2B1608",
".  c #4A2415",
"X  c #5C2C1A",
"o  c #68321E",
"O  c #583F2A",
"+  c #763A24",
"@  c #7E3D26",
"#  c #63432F",
"$  c #6E402D",
"%  c #6A4D37",
"&  c #77523D",
"*  c #7F5D46",
"=  c #814A35",
"-  c #8E4B34",
";  c #96523A",
":  c #865540",
">  c #8C5D46",
",  c #9D5943",
"<  c #955F49",
"1  c #A45E45",
"2  c #89664F",
"3  c #9B644E",
"4  c #916A53",
"5  c #9A6F56",
"6  c #AB644A",
"7  c #A16851",
"8  c #AD6D51",
"9  c #A86D58",
"0  c #B36A51",
"q  c #B76F53",
"w  c #A1765D",
"e  c #A7755C",
"r  c #AE755B",
"t  c #B4715D",
"y  c #B97658",
"u  c #A87B63",
"i  c #AE7D64",
"p  c #B77764",
"a  c #BD7564",
"s  c #B27861",
"d  c #B47F64",
"f  c #BB7E63",
"g  c #C1785B",
"h  c #C87E61",
"j  c #C07B6B",
"k  c #AC836B",
"l  c #BE8466",
"z  c #B3876E",
"x  c #BA876A",
"c  c #BF8B6C",
"v  c #BF8470",
"b  c #B78C72",
"n  c #BC8E72",
"m  c #C38264",
"M  c #CC8566",
"N  c #C78568",
"B  c #C4816F",
"V  c #C48A6C",
"C  c #CC8C6D",
"Z  c #CC8C6E",
"A  c #D18969",
"S  c #D48C6E",
"D  c #D88F6F",
"F  c #C98270",
"G  c #C88973",
"H  c #CC8A78",
"J  c #D38E7E",
"K  c #C39072",
"L  c #C69677",
"P  c #C89172",
"I  c #CC9475",
"U  c #CA997A",
"Y  c #CF9C7E",
"T  c #D19071",
"R  c #D09072",
"E  c #D29172",
"W  c #D09273",
"Q  c #D39273",
"!  c #D49374",
"~  c #D59475",
"^  c #DA9472",
"/  c #DD9876",
"(  c #D79778",
")  c #D1967C",
"_  c #D89778",
"`  c #D59A7B",
"'  c #D99878",
"]  c #D9997A",
"[  c #DB9A7A",
"{  c #DA9A7B",
"}  c #DC9B7B",
"|  c #DB9C7D",
" . c #DA9D7E",
".. c #DE9D7D",
"X. c #DC9D7E",
"o. c #DD9D7E",
"O. c #E09E7D",
"+. c #E29F7D",
"@. c #E2A07F",
"#. c #D89380",
"$. c #DD9E80",
"%. c #DE9F80",
"&. c #DF9F80",
"*. c #DD9986",
"=. c #D99E87",
"-. c #D4A082",
";. c #DFA081",
":. c #DCA386",
">. c #D8A485",
",. c #DCA88A",
"<. c #DFAF94",
"1. c #E0A081",
"2. c #E2A181",
"3. c #E3A181",
"4. c #E0A182",
"5. c #E1A283",
"6. c #E3A282",
"7. c #E4A281",
"8. c #E5A382",
"9. c #E4A383",
"0. c #E5A383",
"q. c #E5A483",
"w. c #E6A483",
"e. c #E5A484",
"r. c #E6A584",
"t. c #E6A585",
"y. c #E7A685",
"u. c #E7A686",
"i. c #E8A786",
"p. c #E8A787",
"a. c #E9A887",
"s. c #E0A58A",
"d. c #E3AC8D",
"f. c #E7AD8F",
"g. c #E8A888",
"h. c #E9A989",
"j. c #EAA989",
"k. c #EAAA8A",
"l. c #EBAA8A",
"z. c #EBAB8B",
"x. c #EBAC8C",
"c. c #EBAE8F",
"v. c #ECAC8C",
"b. c #ECAD8D",
"n. c #EDAD8D",
"m. c #ECAE8F",
"M. c #EDAE8F",
"N. c #EEAF8F",
"B. c #EEAF90",
"V. c #E4B195",
"C. c #E9B193",
"Z. c #EDB091",
"A. c #EFB090",
"S. c #EEB091",
"D. c #EDB192",
"F. c #EEB192",
"G. c #EFB192",
"H. c #EFB293",
"J. c #ECB496",
"K. c #EAB79A",
"L. c #EEB899",
"P. c #EEBC9E",
"I. c #F0B293",
"U. c #F0B394",
"Y. c #F0B495",
"T. c #F1B495",
"R. c #F0B496",
"E. c #F1B596",
"W. c #F1B597",
"Q. c #F2B596",
"!. c #F2B697",
"~. c #F2B698",
"^. c #F2B799",
"/. c #F3B799",
"(. c #F3B899",
"). c #F2B89A",
"_. c #F3B89A",
"`. c #F3B99A",
"'. c #F3B99B",
"]. c #F4B99B",
"[. c #F4BA9B",
"{. c #F4BA9C",
"}. c #F4BB9C",
"|. c #F4BB9D",
" X c #F5BB9D",
".X c #F5BC9E",
"XX c #F5BD9E",
"oX c #F5BD9F",
"OX c #F5BE9F",
"+X c #F1BFA1",
"@X c #F5BEA0",
"#X c #F6BEA0",
"$X c #F6BFA1",
"%X c #F6C0A2",
"&X c #F6C1A2",
"*X c #F6C1A3",
"=X c #F6C2A3",
"-X c #F7C2A3",
";X c #F6C3A4",
":X c #F7C3A5",
">X c #F2C4A5",
",X c #F7C4A6",
"<X c #F7C5A6",
"1X c #F7C6A7",
"2X c #F7C7A8",
"3X c #F7C8A9",
"4X c #F0CBAD",
"5X c #F8C8A9",
"6X c #F8C9AA",
"7X c #F8CAAB",
"8X c #F8CBAC",
"9X c #F8CCAD",
"0X c #F8CDAE",
"qX c #F9CEAF",
"wX c #F3D1B3",
"eX c #F7D1B2",
"rX c #F0D4B6",
"tX c #F6D4B6",
"yX c #FAD3B4",
"uX c #FAD7B8",
"iX c #F1D8B9",
"pX c #F7D8BA",
"aX c #F5DBBB",
"sX c #F6DDC0",
"dX c #F9E1C3",
/* pixels */
"<.F.i.u.' p > = $ # . . # = < d I e.Y.$X:X1X$X{.W..X>X1X*X.X_.{.{.]./.^.R.|.~./.F.c.t.x.g.x.h.a.3.t.e.g.s.9.[ ..( ] ~ [ ( ( Q ~ ",
",.i.b.3.C 3 < e i w > : : > 3 9 f R e.W.$X&X}.~.W.`.=X&X*X`.~.Y./.}..X`.|..X[.].(.Y.F.k.x.h.t.6.u.t.g.i.t.O...} } } O.[ } ] _ Q ",
"K ^ ^ D y P >.K.P.+XV.>.-.I f m C Q ( k.&X:X/.Y.F.$X).'.^.W.b.F.Y.-X|.*X=X,X].[.~.W.g.M.M.x.6.p.g.k.7.q.w.@._ [ } } ( ....[ T D ",
"c M M A 9.C.Y./.$X&X+X+X.XY.e.` ~  .] 5.R.|.`.A.^.{.^.U.U.c.g.k.Q.&X#X|.,X-X|.~.].F.g.5.t.g.e.t.x.a.t.6.6..._ ' O.} } O.@.~ T S ",
"x D A @.p.F.Y.`.`..X`.{.D.Y.g.g.$.$.;.g.x.W.T.T.H.~.T.Y.t.9.t.k.x.T.).`.c.d.` ` W P f l G R W | ` &.t.t.@...] } } o.@.6.' ! A S ",
"K / @.h.U.c.g.k.Y.W.W.W.C.d.5.$.;.3.3.p.b.Q.!.I.T.E.R.S.0.~ ' } t.k.g.| m 9 > = & & $ $ & = < 9 s p C E ( ] ..$.%.%.5.&.[ T C A ",
"L N.g.F.x.0.Q d.'.$XL.^./.c.$.~ E ~ ' t.T./.A.A.H./.F.b.O.C C Z Q ) C y 7 > + o X X . . . . X % : < 9 l m Z C ` 5.g.;.4.' R h M ",
"K A.p.a.i.R 9.|.*X@X'.`..X`.g.} R m C ' g.S.I.F.R.A.x.A.0.m l N N m t 6 ; + $ $ o X X o o o + = = & : < 8 9 t f ( &.5...' A N h ",
"n k.t.t.^ ~ Q.XXY.W.c.C.p.F.g.$.S m m E ..k././.T.F.b.A...C f m y t 6 , - = = - - > , 9 t V V V r < < < > < < 3 r Z ` 5.( S m m ",
"c k.x.t.T &.J.d.` x d c K V m m h g g N ^ 3.`.*X.X`./.b.3.E m y t 1 , ; , ; 7 7 t V ( | s.e.e.5.$.Z l p 9 < ; - ; 7 m ~ ( A h g ",
"c F.k.t.Q s.l > = & = & & = = > , 1 1 g ~ t.Y.qXqX1X'.`.k.~ y 8 6 1 - ; ; , , 8 l ( | $.$.` E W ( ` ~ ~ W V 9 < ; < , y R A g g ",
"L C.S.4.C r o . X . . . . . . X o + @ - C g.`.qXuXqX*X`.b.Z 6 1 1 , - = - = 9 V :.g.g.9.@.' E Z V f f V ] ( V r 9 ; > < t m g y ",
"K :.| C 1 - : = & @ + # . O X $ + $ @ ; C Q.<XqXyXyX*X`.$.g 1 6 1 ; - = $ ; l W ~ 5.g.c.5.4.~ ] C m t 1 0 V C Z l 9 > > > 8 y g ",
"I X.m f g ~ t.4.5. .I v v f f f p l ] 0.b.`.*XqXyX5X*Xb.E q 1 8 8 6 t 1 ; - = ; r v >.-.] ( W Z m y t 7 = 3 V G K l 9 < : : 7 0 ",
") 5.` p.b.0.3.g.g.t.| $.$.^ S ! ~ [ S ' F.*X1XqX7X5XQ.g.C q , 0 m N Q &.&.C 8 ; = @ : w e s e r e 3 < 3 : + 3 G C V y 9 < : - 1 ",
" .e.x.A.Q.T.x...' E S ! ' ! C h g g Z Y.,X3X8X2X5X.Xk.~ N q q y S ' ( 3.a.t.O.Q m 9 = o X X X X o X X X o X $ d W Z V m t < ; ; ",
">.c.g.Q.Q..X`.Q.3.! j q q q 6 q m e.$X5X2X8X9X8X$XT.| Z m N A A N O.6.a.g.i...~ ( ~ C y 3 - @ + o $ o o X . X - f y y f y f f 0 ",
"d.A.Q.W.#X*X:X$X[./.T.k.5.9.t.Y.=X2X2X<X7XqXqX&X*Xg.~ h M A ^ } } ' t.a.b.c.x.9.R y y g f t 0 8 r y t y y 9 8 , , ; 8 f m V m t ",
"s.S.N.`.oXqX3X7X1X&X/..X*X5X*X8X5X2X;X7XqXyX8X:X/.t.S h N S D @.q.h.7.u.N.Q.F.W.F.c.R l y 8 1 6 6 0 t y y 6 ; - , y m M m N g m ",
":.n.I./.&X8XqXqXqX:X|.}.<X7X7X7X7X6X7XqXuXqX5X`.F.i.^ S A M N S ' @.i.y.b.A.I.W.].~.W.R.C.e.N f 8 1 , ; , ; , 8 N T Q } p.@.C g ",
"5.v.T..X<XqXeXuXqX<X|.%X&XqX7X7X,X8XeXpXaXyX*X`.b.k.0.3.! N q y q g g S ..A.W./.W._.[.#X].#X.X.XT.U.x.e.4.p.t.t.@.q.@.R N ..0.~ ",
"g.H.(.$X7XqXuXuX6X5X<X2X3X9X0X<X5XqXyXuXpXyX*XI.T.A.A.A.@.A y y M h q 1 6 S x.E._._..XOX$X&X#X|..X{.].Q.`.N.A.p.t.} 3.4.N g S m ",
"x.|.W.-X8XuXpXdXaXyX7X8X8XqX1X<X5XqX9XpXaXqX.X`.Q.`.T.x.' A g A O.t.D h 1 , f 9.]..X^.*X-X<X|.OX%X#XR.T.I.A.0.k.g.} R ..@.l 1 1 ",
"B./.oX,XqXpXaXaXuX9X5X2X<X[.x.x..X5X9XtXaXqX*X.X*X$XZ.! m g N ^ h.p.} D y , , y 4.F.|.*X7X1X*X&X*X$XR.U.W.h.u.q.x.@.R Q 9.Q y N ",
"x..X*X9XqXyXeXyX*X.XF.g.} M y } W.7XyXpXaXpX8X8X{.S.R t 6 6 0 g m h h g 6 , , 1 t ] b.$X;X5X*X=X|.#X].`.Q.F.u.k.t.q.' R %.e.] T ",
"T. X,X8XqX7X:X.XG.0.A h 1 , C /.<X8XaXdXdXdXuX1Xc.N 6 - + $ + + + @ - - , 0 y q 8 y Q b.`.&X&X.X|._.T.U.Q.A.h.a.a.i...Q [ q.h.R ",
"!.%X.X1X:X:XT.x.O.A 0 - - V Y.<XqXyXaXdXaXuX1XR.Q 6 = $ $ @ @ @ + @ = ; 1 q q y q q t ] b.`.Q./.^.R.x.A.A.G.0.u.l.a.....! r.8.I ",
"/.oX.X.X$XQ.u.' A 0 - = m F.*XeXaXeXqXqX1X+Xg.E t ; @ + + + + $ + @ @ = ; , 6 6 g g q g ' g.x.U.I.N.k.k.b.x.a.w.v.j.@...] O.@.W ",
"A.[./..X`.x...A q ; - t d.$X9XpX8X8X1X$Xc.~ t 1 - = + + + + $ + + + @ = - - - ; 6 g q q y E $.p.a.a.p.g.t.k.p.v.i.j.w.r._ _ } ] ",
"n.Q./.T.I...S y 1 - 6 ~ L.@X+X'.Y.f.Z.Y.x.W 6 ; , 1 8 , ; - - = @ = = = - + + @ - , 1 1 1 0 C ..3.7.3.0.3.u.p.u.l.t.4.3.+._ [ _ ",
"N.Q.g.A.0._ g q , ; t ` Y.x.W ] | ] C C V 8 - , y ' Z t 6 1 - - - ; - < < @ + = - - - - - - 7 V ( ..~ ..3.0.;.9.9.p.;.&.@...( ] ",
"v.A.k.i...C y 6 , 1 N ` e.C f V E l 8 8 1 = - t Q ....A m 8 , ; ; - ; , , - - = ; - - = = = = 3 Z ' ^ ^ ..] &...3.6.&.| w...! Q ",
"w.v.@.0.Q N q 1 ; 0 C ` K t y Z Z N t r 7 8 ~ /.F.b.3.' S h 0 1 ; , , 1 , , - ; - ; ; - = @ @ = 7 ' ^ ' ! } ] $.( $.( | %.$.Q Q ",
"u.w.O...T m q 1 1 m Z W V t f R Q E m N R $.x.T.~.k.t...^ A N q 6 q h h g y 0 6 1 , , , ; : & + = f _ ~ ^ W ~ ~ ( ( W ( o.{ ~ R ",
"3.3./ / D N 0 1 8 C V V p y m E ! ( R q.t.p...t.p.z.} } } ! A A A Q D ^ ' ' S h q 0 1 1 8 3 : + @ 3 V ^ ! ] R ( ~ W Z R ( } Z R ",
"+.o.} ^ D m q 6 y C G x p y V N C C Z ^ ^ T A T E A F h M h g g h N N S [ ' C g g y y y 0 6 ; - = - t ! _ Q Z R ~ W V V W ~ R R ",
"_ / / ^ h f y 0 8 C V f r f y 9 8 y y y y j j y q 8 1 1 , , , , ; 1 1 6 0 6 6 6 0 g g g q 6 1 , = = 3 C E ~ R Q T ( G V P ) W ~ ",
"_ ] _ ^ M g f t y Z V r r r , - - ; ; , , 1 7 7 < > : : : = = @ + $ @ @ @ = @ = - , 1 6 6 6 1 , - - ; t T E T T !  .P l I ) ] Q ",
"Q .._ ..A g m l f ~ V s r 9 - + X # X + @ & + + $ # . O # % # & % % $ $ + $ o o o $ $ = ; 8 , 1 , ; - 6 Z ^ T ~ ] $.I l I | Q R ",
"E } ..O.^ y m C N W Z l y 9 , @ X .   . . . . . . .     . . . . . . . . . . . . .     . X = 3 6 7 ; ; 1 C ! ( ( 9.;.) l P Q R A ",
"N ' O.h.$.V f ~ N R R C f f r 7 = X . . . . X . . . . . . . . .       .   . .   .         . + < 1 1 1 8 y ( ] ;.%.s.` V V ~ ~ A ",
"N ' t.x.x.` m R ( T E Z Z V V f r 3 o . O O O O . . . . . . . . . . . X X X . . . .         X = 0 t t t f ] X.o.5.;.` V P ( E C ",
"V | $.D.I.x.V m &.$.~ Q E ~ N l m ! t : $ % & & & % # # O O . O . O X X $ o X # X .   . . o = 3 r N V C l } | ;.$. .I V P ` Z A ",
"x ` g.H.].W.` f W 6.X.` ' Q S M A _ Z B 7 3 e e s e w < 5 3 & & % + + @ : = & = + X X o : 9 7 8 Z @.! E C ..4.|  .` W c L ) W C ",
"d ) d._.W.).g.V m 3.$.$.~ ' ( S N ~ } ~ p 3 9 r v J J H f G p r 8 t 9 r r 9 < 3 : = - t F G y C @.i.} ( Z } [ 4.~ W V K P I G C ",
"x V s.H. X|./.` l W &.~ ^ ( / S A A 3.p.2.H B B G H J G B B a y B H j B G a r r r 8 a H G N g ' x.t.+.( R $.4.] ) P c c U P c N ",
"I ) I c.[.OXW.c.V V &.O...O.D ^ A A ' t.x.k.#.*.&.&.J J #.J J #.#.&.#.J J H a B B j a j g h R x.m.e._ C ( 9.| ( V V d c U L l N ",
"U -.I  .W./.`.H.| l 1.7.7.O./ D S M S ~ &.u.9.*.g.g.*.#.*.#.*.&.9.e.J J *.#.B j h q 0 0 y N e.F.c.5.Q N ' 9.} Z l d d l c P V N ",
"U >.-.$.e.H.R./.5.p R k.7.+.} / A h f l m J &.9.*.&.:.d.s.*.#.#.*.J B B F B a y 8 0 0 0 y ] H.W.e.3.^ m ~ &.Z m s s d l l I Z W ",
"Y >.>.-. .t.c.M.a.f V a.j.O.} ^ M m y q y f G Z J J J *.s._ H F B a p p r 7 9 9 0 8 6 0 C s.~.c.g.9.C N ' } Z p r d p x I G ~ ( ",
"-.,.-.>.-.:.:.5.t.[ f 2.a.t.^ ^ M N y g y f y f y p s d f d 9 3 3 3 > < 3 3 3 7 8 0 8 m $.R.c.x.c.g.m E _ } d e r d s P I ) Q I ",
"-.>.>.>.>.-.c x f.X.T 3.z.@...^ M m f f m m l l m f s e i e 3 3 < > > < 3 3 7 7 0 t g ( F.R.c.f.J.| N E ( C r s s f K P Y -.P V ",
"U ,.>.,.-.L e 3 x P X.t.b.i...} M m f m E 0...( R Z V v p s w 7 3 3 3 9 r f l V m Z ~ k.H.R.C.S.f.E N ~ C f d x d K L U Y U I ` ",
"L >.>.,.>.c 7 > 2 i  .x.].x.O.O.^ M M ( 6.F.b.g.t.&.] W Z V f d d f x P ` &.9.5.$.$.s.F.Z.c.g.c.:.N T Z m s V I P K L U ) Y ` ) ",
"n >.-.>.Y c w & * 4 e C.$X(.} a.7.O.O.N.~.E.x.k.e.k.i.b.F.Z.:.:.s.C.d.J.R.W.g.k.5.g.u.c.c.x.t.f.` ~ ! Z r s 9 l -.c c P ) :.$.:.",
"z U Y Y Y x 2 % * > 5 Y 5X&Xh.w.b.w.w.F.$X`./.I.Y.F.F.Y.`.`.R.J.+X+X'.K.'.c.d.s.t.d.g.d.x.x.f.d. .( W v x 7 3 9 I V c V Y -.s.d.",
"w K U -.L d * % & & 4 K oX5XI.v.x.b.i.T.|.[.oX$XW..X'.$X'.*X$X1X8X3X+X'.L.c.5.s.9.9.9.s.u.x.c.d. .$.E x z i w r f ) I K K -.5.s.",
"u x U U K w & % % & 2 u C.qX.XF.h.v.l.F._.|.$X%X*X&X-X=X1X1X1X3X8X+Xg.c.F.c.e.;.&.&.5.6.x.F.R.d.=.-.v L z i u r 9 p c I I U x i ",
"5 w x n z w # # % & & 4 U eX3XW.k.k.&.k.W.#XW._.}.|.c.R.+X<XJ.J.).J.t.f.b.p.} ] | 4.| f.F.#X).c.>.U w z n z i u = 3 9 f x w < 4 ",
"% & 2 4 k 5 # O # # & > f 5XqX'.b.5.b.|.*X;X|.[..XR.m.x.H.k.s.5.g.5.4.$.;.[ | ` e.5.X.c.|.|..Xt.) c u 5 u e 5 w * + > > > > < > ",
"O O # * 4 4 % O # # & > r +XqXL.>.L.,XqX7X9X:X,X@X&X).'.S.c.z.h.$...Q ! ( ]  .s.g.9.;.R.).*X'.:.K i z 5 2 > * 4 % # : < < 7 3 s ",
"O O O % & 2 & O O O % : m oXqXeXuXpXtXeXyXaXaXpXtXqX9X3X3X|.#X|.[.b.` W W ) ] $.5.k.H.~.&X*XC.P K w w 4 > * & & O # < 7 s d f x ",
". . . # % * & # . O $ < $.@X7XpXsXdXaXpXpXsXaXdXdXdXrXpXaXuX<X<X1X8X+XC.-.I G X.x.W.F.+X<X+XY K c w * * & & O O O # & < 9 r r s ",
". . . O # & % # . X # d d.;XwXwXpXaXaXwXrXrXrXrXiXiXrXrXrXrX4X4X4X4X4X4X4X<.Y ,.C.P.P.+X>X<.K b z u * & & # O O # # % * 5 3 w u "
};
