/* XPM */
static char *out[] = {
/* columns rows colors chars-per-pixel */
"64 64 217 2 ",
"   c #2B1608",
".  c #4A2415",
"X  c #5C2C1A",
"o  c #68321E",
"O  c #583F2A",
"+  c #763A24",
"@  c #7E3D26",
"#  c #63432F",
"$  c #6E402D",
"%  c #6A4D37",
"&  c #77523D",
"*  c #7F5D46",
"=  c #814A35",
"-  c #8E4B34",
";  c #96523A",
":  c #865540",
">  c #8C5D46",
",  c #9D5943",
"<  c #955F49",
"1  c #A45E45",
"2  c #89664F",
"3  c #9B644E",
"4  c #916A53",
"5  c #9A6F56",
"6  c #AB644A",
"7  c #A16851",
"8  c #AD6D51",
"9  c #A86D58",
"0  c #B36A51",
"q  c #B76F53",
"w  c #A1765D",
"e  c #A7755C",
"r  c #AE755B",
"t  c #B4715D",
"y  c #B97658",
"u  c #A87B63",
"i  c #AE7D64",
"p  c #B77764",
"a  c #BD7564",
"s  c #B27861",
"d  c #B47F64",
"f  c #BB7E63",
"g  c #C1785B",
"h  c #C87E61",
"j  c #C07B6B",
"k  c #AC836B",
"l  c #BE8466",
"z  c #B3876E",
"x  c #BA876A",
"c  c #BF8B6C",
"v  c #B78C72",
"b  c #BC8E72",
"n  c #C38264",
"m  c #CC8566",
"M  c #C78568",
"N  c #C4816F",
"B  c #C48A6C",
"V  c #CC8C6D",
"C  c #CC8C6E",
"Z  c #D18969",
"A  c #D48C6E",
"S  c #D88F6F",
"D  c #C98270",
"F  c #C88973",
"G  c #CC8A78",
"H  c #D08B78",
"J  c #C39072",
"K  c #C69677",
"L  c #C89172",
"P  c #CC9475",
"I  c #CA997A",
"U  c #CF9C7E",
"Y  c #D19071",
"T  c #D09072",
"R  c #D09273",
"E  c #D39273",
"W  c #D49374",
"Q  c #D59475",
"!  c #DA9472",
"~  c #DD9876",
"^  c #D79778",
"/  c #D1967C",
"(  c #D89778",
")  c #D59A7B",
"_  c #D99878",
"`  c #D9997A",
"'  c #DB9A7A",
"]  c #DA9A7B",
"[  c #DC9B7B",
"{  c #DB9C7D",
"}  c #DA9D7E",
"|  c #DE9D7D",
" . c #DC9D7E",
".. c #DD9D7E",
"X. c #E09E7D",
"o. c #E29F7D",
"O. c #D89380",
"+. c #D89982",
"@. c #DD9E80",
"#. c #DE9F80",
"$. c #DF9F80",
"%. c #DD9986",
"&. c #D4A082",
"*. c #DFA081",
"=. c #DCA386",
"-. c #D8A485",
";. c #DCA88A",
":. c #DFAF94",
">. c #E0A081",
",. c #E2A181",
"<. c #E3A181",
"1. c #E0A182",
"2. c #E1A283",
"3. c #E3A282",
"4. c #E4A281",
"5. c #E4A382",
"6. c #E4A383",
"7. c #E5A484",
"8. c #E6A584",
"9. c #E6A585",
"0. c #E7A686",
"q. c #E8A786",
"w. c #E8A787",
"e. c #E9A887",
"r. c #E0A58A",
"t. c #E3AC8D",
"y. c #E7AD8F",
"u. c #E8A888",
"i. c #E9A888",
"p. c #E9A989",
"a. c #EAA989",
"s. c #EAAA8A",
"d. c #EBAA8A",
"f. c #EBAB8B",
"g. c #EBAC8C",
"h. c #EBAE8F",
"j. c #ECAC8C",
"k. c #ECAD8D",
"l. c #EDAE8E",
"z. c #ECAE8F",
"x. c #EDAE8F",
"c. c #EEAF8F",
"v. c #EEAF90",
"b. c #E4B195",
"n. c #E9B193",
"m. c #EDB091",
"M. c #EEB090",
"N. c #EFB090",
"B. c #EEB091",
"V. c #EDB192",
"C. c #EEB192",
"Z. c #EFB192",
"A. c #EFB293",
"S. c #ECB496",
"D. c #E6B599",
"F. c #EEB899",
"G. c #EEBC9E",
"H. c #F0B293",
"J. c #F0B394",
"K. c #F0B495",
"L. c #F1B495",
"P. c #F0B496",
"I. c #F1B596",
"U. c #F1B597",
"Y. c #F2B596",
"T. c #F2B698",
"R. c #F2B799",
"E. c #F3B799",
"W. c #F2B89A",
"Q. c #F3B89A",
"!. c #F3B99A",
"~. c #F3B99B",
"^. c #F4B99B",
"/. c #F4BA9B",
"(. c #F4BA9C",
"). c #F4BB9C",
"_. c #F4BB9D",
"`. c #F5BB9D",
"'. c #F5BC9E",
"]. c #F5BD9E",
"[. c #F5BD9F",
"{. c #F1BFA1",
"}. c #F5BEA0",
"|. c #F6BEA0",
" X c #F6BFA0",
".X c #F6C0A2",
"XX c #F6C1A3",
"oX c #F6C2A3",
"OX c #F6C3A4",
"+X c #F7C3A5",
"@X c #F2C4A5",
"#X c #F7C4A6",
"$X c #F7C5A6",
"%X c #F7C6A7",
"&X c #F7C7A8",
"*X c #F7C8A9",
"=X c #F0CBAD",
"-X c #F8C8A9",
";X c #F8C9AA",
":X c #F8CAAB",
">X c #F8CBAC",
",X c #F8CCAD",
"<X c #F8CDAE",
"1X c #F9CEAF",
"2X c #F3D1B3",
"3X c #F7D1B2",
"4X c #F0D4B6",
"5X c #F6D4B6",
"6X c #FAD3B4",
"7X c #FAD7B8",
"8X c #F1D8B9",
"9X c #F7D8BA",
"0X c #F5DBBB",
"qX c #FADDBE",
"wX c #F6DDC0",
"eX c #F9E1C3",
"rX c #FBE5C7",
/* pixels */
"s p d W 0.F.F.~.R.~.R.`.~.'.`.oX[.}.[.XX[.XX_..XW.[.W.G.W.~.T.T.m.V.h.m.h.V.x.v.u.r.0.u.9.u.=.6.( ' } | ] { ^ ^ C C C T Y Y T C ",
"& + & = e I r.V.R.W.W._.].`.`.W.G.}.OX[..X}.}.[.G.Y.K.A.T.^.~.P.K.S.j.h.Z.Z.M.h.i.u.9.0.f.<.>. .| ..@.$.6.} ) R P Y Y Y W E W T ",
"& $ o $ : 9 l } V.'.S.~.}.`.K.~.oXoX~..X`.[.T.'.`.T.m.K./.}.A.U.S.m.3.j.C.L.0.j.0.s.3.u.3.e.' | ..| ` [ 3.<.W R Q E V C S W T A ",
"U J u w 9 8 y C 2.W.~.T.|.Y.K.U.OX[.}.T.`.`.R.W..XT.K.A.^.Y.R.T.W.x.u.u.v.e.9.3.a.a.q.X.3.| ` ' [ [  .@.,.X.^ T Q C Z V T C C m ",
"S.F.t.} P C n E ^ u.I.}.A.A.P.^.}.[.~.T.V.R.F.W.~. X~.[._.[.R.^.U.I.v.k.0.z.9.w.9.j.s.3.| @.] ..' 1.#.1.[ | W ^ C C V A Z Z Z V ",
"K.A.V.u.u.1.^ ^  .0.A.R.~.Y.U.~.U.T.K.V.V.V.V.~.~.). X}.oX'.'./.Q.v.j.p.i.f.0.9.u.f.j.3.<.>. .{ | #.1.| #._ E C C V V V C Z Z Z ",
"u.s.#.| } r.^  .3.k.v.I.~.T.h.~./.T.y.k.s.V.y.~.[.'.E.F.V.t.r.t.r.&.W ` >.u.6.i.j.v.9.a.3.9.] | @.2.@.#.} ` C C C Z M Z V V n M ",
"u.0.<._ E C T ` 0.j.v.A.^.T.K.m.R.Y.u.} #.1.2.p.A.x. .c s 3 < < < : < 3 r l B B T ^ _ | 1.3.#.@.#.1.$.@.| ` E C C M M h Z V h n ",
"u.v.y.s.' T M T ] u.v.Y.K.T.A.A.A.A.9.Q T Q W  .' E t 7 > + o X X X X X X = < 3 7 f n C Y ^  .2.{ | ` *.^ ' E C n n n n h M g n ",
"1.2.9.j.0._ C g Y @.0.H.K.P.L.N.N.z.7.V M C C C M y 6 ; = + + o X . . . X X $ & = 3 9 r f n V T ` `  .' ` ^ Q V n f g g n g g g ",
"5 r B R } } Z n n W ( a.m.E.k.N.Z.j.>.Y M V n M f t , ; - - = = = : = > < 7 3 < = - > < 3 7 3 8 n C E ^ ^ ^ M V M n y g f n y a ",
"# * u d l f y y g n Y X.K.~.A.l.H.B.#.Q R M f y t 8 , ; , , , 7 t f n C } r.} P l r 7 3 , < ; , 7 7 r n C T B n n f y f h n g g ",
"O w u w 5 3 < < 1 y M | i.}.}.T.V.j.1.^ C n y r 6 1 , , , 7 8 f M / } r.2.u.r.u.1. .R M r 8 , , < 3 , 3 3 r y y y f a f y g g g ",
"# # O . O X + = - - a X.u.%X:XOX[.Y.k.^ M y r 6 , ; ; - ; , 6 f E  .#.` Q T T T Q ^  .1.} C p 9 7 3 3 < < > < 3 8 r t q q t q q ",
": = o . O o o $ + + - X.v.%X1X1X%X}.j.Q y 8 6 1 ; - = = @ 7 f / 1.m.n.m.0.} M n y y r M ) ` C B n d 7 < < > : - < 7 1 6 6 0 6 8 ",
"E p 3 > : > 3 7 7 8 C j.`.*X3X:XOXE.X.M 0 8 8 ; ; - = + - s p f B / } 1.1.} C M n r ; - 9 M C R C C f 9 7 < > : ; , 1 1 6 1 6 1 ",
"0.2.) ^ C C V C C ' [ A.[.1X5X3X[.A.Q g 6 8 t 6 6 y r 1 - @ @ @ o $ = < 3 r t p 8 8 7 < @ 3 B E C n n f t r 7 9 , 1 6 8 6 8 8 8 ",
"_ E Q Y W W W Y Z m >._.%X1X1X*X`.j.E g 0 q M M M [ 3.X._ C f 7 - o .       . . . O X X o o 3 L ^ ^ C g f n M n t 8 8 8 q q r 8 ",
"Z V m A C m y q M 0.~.oX,X1XOX}.H.3.m g g h m ' | 3.<.9.7.9.| 1.@.P e < = $ X . .       . X o 7 r 8 6 y n m n n g y r t y h t y ",
"v._ n g g g V 1.}.OXOXoX1X:XOXE.0.! m m S ! S ( i.s.i.s.s.| ^ ^ <.) Q V V M l r 9 7 3 < > ; 1 1 , 6 0 y n g f g y 8 0 8 t t t t ",
"oXoX`.T.K.[.}.:XOX*X%X:X,X;X}.K.[ S Z S ! <.>.<.9.x.j.v.k.m.3.E g y g h h g y n M S Y Q V h 0 ; , n E X.X.X.X.,.E n y y y g g n ",
":XOX*XoX%X:X*X%X*X:X;X:X1XOXE.0.} A A A ~ 7.i.s.s.x.j.l.x.K.~.A.u.R n r 0 6 6 6 0 0 8 1 , - ; 0 Y X.' E Y E ( [ Q g y t f n n g ",
"1X>X.X%X,X1XOX%X:X3X1X3X>X}.k.s.X.! m Z Y ( ( X.e.k.f.v.M.~.V.R.^.T.T.K.s. .M y 8 7 1 t n ! [ X.3.3.X.7.~ M t y t 0 1 6 6 8 1 8 ",
"3X,XOX*X1X:X%XOX>X1X5X9X3X~.x.i.e.X.W m h g g g h h ! i.E.T.J.E.T.W.~.[.oXoX}._.[.`.T.K.E.v.k.e.s.[ ^ ' 7.[ g y n n t r t t t t ",
"5X6X:X1X1X,X1X,X*X:X9X9XOXE.v.v.v.9.#.S g g m Z y 6 1 g | J.T.'.A.^.~.[.}.$XoXOX[.`./.~.R.E.v.M.u.q.Q Q X.9.| ' Q T f f f l n l ",
"9X1X1X:X1X,X*XOX*X1X9X1X%X[.T.E.K.j.7.S h h ~ 7.X.A 0 ; 6 C v.E._.~.[.oX:X$X*X$X}._.'.'.H.x.H.x.i.9.| E ` 3.e.3.9.T y s p y p s ",
"1X:X`.`.Y.i.~ A.;X9X5X<X*X}.T.W.~.>.m m Z [ 3.j.s.<.A 6 ; 1 y | E.`._.%X$X:X%X$X#XoX(.}.A.H.9.a.i.c.6.#.^ 3.<.8.7.^ r r r r r t ",
"`.v.<.W h 0 E T.1X9XqX9X5X*XXX^.3.n t q h Z ! Q ! m g 6 , ; , 8 Y f.Y.~.:X:X:X+X-X%X XE.T.W.i.e.f.a.0.9.#.1.3.X.5.^ f r y y s y ",
"7.! g 1 - n ~.:X5XeXrXrXqX6X~.' t 1 ; - = = = = - ; , 1 6 g q 6 0 M X.K.!.OX}.[.[.XXE.`.A.T.V.j.s.d.u.d.X.[ X.7.X._ l f f n f n ",
"S q - - M F.,X3XqXrXrXqX1X[.^ 8 - + o + @ + + + = - , 6 q g g g g q h [ i.H.^.~.T.T.`.A.A.H.x.k.v.j.d.a.d.[ [ | X._ n f n n M M ",
"y ; - C ~.1X1X9X9XqX*X%X~.2.t , = + + + + + o + = - = , 1 0 6 g g g 0 y Y q.9.H.K.K.s.M.l.A.a.B.v.j.7.d.3.e.^ o.| ` n n V C n C ",
", - f t.:X1X1X1X:X}.F.>.C 8 , = @ + + + + + + + = = - - ; ; , 8 y y 0 1 q M ^ 6.j.f.u.w.f.a.j.v.s.i.3.7.3.X.' [ [ Q n f M M M M ",
"- 7 ) _.%X}.F.V.u.k.s.X.y 1 ; , , ; - = @ = = = = = - - = + @ ; ; ; ; ; ; 1 f _ ' X.[ 3.4.a.0.k.7.9.@.1.} @.`  .W W n M M E T Q ",
"- n r.x.^ C ) } ` Q W M 8 ; 1 n ^ f 1 , ; - - - ; ; < ; @ @ = = - - - @ = = ; p W W ( _ [ o.3.X.X.' ..^ ' / ` ` ^ Q M M E E E E ",
"1 E ) R t r f C n t 6 ; = - 8 T ` ( t 8 1 1 - - ; , , , - ; = - - ; = & + & + = t } ` ^ ( | Q _ ' [ E E R ) P ^ } ) n V T Q M C ",
"q Q R l r 8 y n n t 7 ; , R y.s.9.[ A n y 1 , ; ; ; ; , , ; ; - ; ; < - : = + + = t E  .#.^ W W ^ ^ W L L J R ) } ^ W R Q E C C ",
"r ^ L p 9 r y M M g f n C s.Y.K.k.0.[ A g q 6 6 6 q 0 0 1 , 1 1 1 6 6 7 3 < = + + = 8 E Q W Q Q W Q W Q c c P ) ^ ) / } E E C A ",
"t P B r 8 y n n V Z ^ X.X.1.i.j.k.7.X.W Z m h g h m m m h g 0 6 0 0 q 6 8 7 , = + & - t T W Q Q _ ` ` W B l R } ) ) ) ) E C C Z ",
"t / d 9 9 8 6 8 n S W W S ( Q ^ ~ [ Z Z Z Z h m m Z m m m g 0 q y g 0 8 8 8 1 < = = = ; f E Y ( [ 1.^ } B c L ) ) } C C C R m Z ",
"n M p < - = @ - 0 q 0 0 g h h h h g y 0 q 6 6 6 0 0 0 6 6 1 , 1 6 1 , , 6 6 6 , > = - ; 8 C Q ' 1.1.} ) B l L / } R B M C V Z m ",
"C B f 9 ; - ; 1 1 6 , 1 6 q q 0 q y q y y q 0 0 6 1 , ; - - = - = = = @ + = - - : ; , 8 1 V ( >. .r.1.1.B c L / P R M n h V m Z ",
"M E M f y g m Z C A ! ( +.Q %.+.@.@.%.+.+.O.O.H F j y 0 q 8 6 1 , ; , - - = - - 1 f n n t n [ 1.2.r.3.) L B J I / K B n M Z Z Z ",
"f } C R T Q m S <.9.<.u.u.s.0.y.n.n.1.+.+.+.H H D G N D Z D g j g j y g y q 0 g _ 7.~ ' g C [ 3.3.6.' / L L B L R P J B M A m A ",
"f ^  .Q _ ( ! S 7.3.} >.9.3.>.%.>.r.^ D D D N j j N N j j m N h h g y q g h W 3.v.9.4.[ M E ` >.3.X.^ P L B J J U U K n M V T V ",
"V C [ ^ Y ~ [ W M M f f n N f f p f d p 7 9 7 7 7 r r r r g g j y g t g h ' k.E.v.3.<.~ M ^ X.3.@.#./ P B L c L L U L n n M M M ",
"#.n E [ ^ ( ~ Y n y 8 8 r r t r t s s r 9 7 7 3 7 7 w 9 9 t f f n f y n ^ j.Y.K.u.X.' Y M [ 3.9.>.^ P L J c c J I U B c B n B B ",
"V.` M 3.| [ R Q n n r 8 8 f f n n l y r 9 9 7 3 7 9 7 9 r y t f n n n E u.E.v.h.9.3.^ M M 3.#.3.[ ) B B c x s c I I l M J L l M ",
"n.t.M ..e.@.^ A M f y t f M V C T M f r r 7 3 3 9 r r y M n n n M C T u.K.A.V.r.r.2.Q g T 3.#.[ _ C l f l f s d c l f B L M B M ",
"U s.E E 0.7.[ W h g y g Y <.[ X.( T n n s t r t s l M ^ ~ [ W W R ^ >.A.V.K.A.y.u.u.V g C 7.[ } M l l f r s d x x x p L L / E R ",
"U &.) C 2.u.,.^ m g g M 1.v.k.j.0.X._ R B c L R ) #.3.0.j.s.i.@.@.' u.n.A.V.n.h.h.| g h ( [ ' E M l f d s r d d s s B L C ) ` ) ",
"&.;.U ) } j.X.[ ! m h ~ k.Y.2.0.s.9.0.s.i.y.t.V.F.~.n.A.Y.K.u.0.<.3.2.y.f.Y.t.y.y.^ f V [ 1.E C M L f r r s t s s c J R / ) R C ",
"&.-.-.&.1.0.e.X.X.[ S 3.H.T.u.0.3.u.s.s.A.A.V.V.F.F.F.n.R.n.0.#.2.u.6.s.y.t.u.u.y./ M Q ' _ C B R C p 9 r s d d x B L I &.U L n ",
"I ;.-.-.U &.x.j.u.i.o.j.v.K.v.E.g.A.H.T.V.F.F._.~.}.S.~.R.y.2.r.6.j.u.y.r.0.t.y.2.} C ) Q ( V C C L r 9 7 f K B B P P I I U / ) ",
"K -.;.-.U x &.x.k.Y.k.s.v.A.K.Y.`._.[.[.}.}.}.oX,X:X:X_._.S.u.1.1.0.1.<.#.1.1.1.0.^ ' / ^ ) E E E C 9 9 r d x U I L J L P U ) / ",
"b &.&.&.I d u L t.`.A.k.v.T.m.K.}.}.}.OXOX:XOX*X,X,XOX_.S.y.2.0.1.6.^ @.1.6.) 1.2.} ) ) @.1.E ^ ^ B r r e 7 7 B U J d b I &.@.=.",
"z I U U U d 4 5 x r.K.W.H.x.A.T.E.}.'.}.$X;X$X#X;XoXS.n.0.>.r.r.u. .^ _ ] ] #.#.6.2.2.} u.r.) ^ R d d x x e 7 r J L b J / } r.t.",
"w J I &.K d * * * w &.F.J.N.v.T.H.T.A.).~.~.F.K.A.V.r.n.s.i.r.p.} @.Q ) E ` ] 2.1.6.9.j.y.y.-.=.L d d d k e 7 r p L L P L } =.r.",
"w x I I J e & & = > u &._.Y.j.u.c.x.K.A.!.A.x.i.u.3. .#.2.7.9.@.` ` ^ Q ( ` ....6.r.y.h.P.u.r.&.I d x c k i u e 7 r n L L I x i ",
"5 w v J d e % # % * : u V.:XV.k.i.a.u.A.R.~.m.m.s.g.} #.X.7.[ ' ` ` Q ^ | >.@.2.2.6.r.V.E.[.r.U K d 3 x x d u e = < 9 d d 9 < 4 ",
"% & 2 5 k 5 % O # % * 3 U ;XOXs.0.A.}.oXoX}.R.W.W.B.c.s.p.6.>.^ ^ Q W Q | ' 2.r. .| y.V.~.'.y.) J l 5 w u w 5 7 * + > > > < < > ",
"O O # * 4 4 & O # # & > d oX,Xr.n.OX&X:X:X>XOXOX}..X!.Q.z.B.p.w...^ Y W W ..@.0.6.u.V.T.~..Xh.U x d d 5 > : : 4 # # > < 3 w 7 d ",
"O O O % & 2 * O O O & : M _.3X3X9X9X5X3X6X9XqX9X3X1X<X:X$X_.|.~.E.m.) P R / ] #.2.s.A.T..XXXt.L J e w 4 > : & & O # < 7 s d d x ",
". . . # % * & # . O $ < @.}.*X9XwXeX0X9X9XwX0XeXeXqX4X9X0X7X$X#X%X>X{.b.&.P F { h.U.C.{.$X{.) J c w * * & & O O O # & < 9 r r i ",
". . . O # & % # . X # d t.OX2X2X9X0X0X2X4X4X4X4X8X8X4X4X4X4X=X=X=X=X=X=X=X:.U ;.D.G.G.{.@X:.J v z w * & & # O O # # % * 5 3 w u "
};
