/* XPM */
static char *out[] = {
/* columns rows colors chars-per-pixel */
"64 64 219 2 ",
"   c #2B1608",
".  c #4A2415",
"X  c #5C2C1A",
"o  c #68321E",
"O  c #583F2A",
"+  c #763A24",
"@  c #7E3D26",
"#  c #63432F",
"$  c #6E402D",
"%  c #6A4D37",
"&  c #77523D",
"*  c #7F5D46",
"=  c #814A35",
"-  c #8E4B34",
";  c #96523A",
":  c #865540",
">  c #8C5D46",
",  c #9D5943",
"<  c #955F49",
"1  c #A45E45",
"2  c #89664F",
"3  c #9B644E",
"4  c #916A53",
"5  c #9A6F56",
"6  c #AB644A",
"7  c #A16851",
"8  c #AD6D51",
"9  c #A86D58",
"0  c #B36A51",
"q  c #B76F53",
"w  c #A1765D",
"e  c #A7755C",
"r  c #AE755B",
"t  c #B4715D",
"y  c #B97658",
"u  c #A87B63",
"i  c #AE7D64",
"p  c #B77764",
"a  c #BD7564",
"s  c #B27861",
"d  c #B47F64",
"f  c #BB7E63",
"g  c #C1785B",
"h  c #C87E61",
"j  c #AC836B",
"k  c #BE8466",
"l  c #B3876E",
"z  c #BA876A",
"x  c #BF8B6C",
"c  c #B78C72",
"v  c #BC8E72",
"b  c #C38264",
"n  c #CC8566",
"m  c #C78568",
"M  c #C4816F",
"N  c #C48A6C",
"B  c #CC8C6D",
"V  c #CC8C6E",
"C  c #D18969",
"Z  c #D48C6E",
"A  c #C88973",
"S  c #CC8A78",
"D  c #D08B78",
"F  c #D38E7E",
"G  c #C39072",
"H  c #C69677",
"J  c #C89172",
"K  c #CC9475",
"L  c #C09379",
"P  c #CA997A",
"I  c #CF9C7E",
"U  c #D19071",
"Y  c #D09072",
"T  c #D29172",
"R  c #D09273",
"E  c #D39273",
"W  c #D49374",
"Q  c #D59475",
"!  c #DA9472",
"~  c #DD9876",
"^  c #D79778",
"/  c #D1967C",
"(  c #D89778",
")  c #D59A7B",
"_  c #D99878",
"`  c #D9997A",
"'  c #DB9A7A",
"]  c #DA9A7B",
"[  c #DC9B7B",
"{  c #DB9C7D",
"}  c #DA9D7E",
"|  c #DE9D7D",
" . c #DD9D7E",
".. c #E09E7D",
"X. c #E29F7D",
"o. c #E2A07F",
"O. c #DD9E80",
"+. c #DE9F80",
"@. c #DF9F80",
"#. c #CFA186",
"$. c #D4A082",
"%. c #DFA081",
"&. c #DCA386",
"*. c #D8A485",
"=. c #D7A88D",
"-. c #DCA88A",
";. c #DFAB8E",
":. c #DBAB91",
">. c #DFAF94",
",. c #E0A081",
"<. c #E2A181",
"1. c #E3A181",
"2. c #E0A182",
"3. c #E1A283",
"4. c #E3A282",
"5. c #E4A281",
"6. c #E4A383",
"7. c #E5A483",
"8. c #E6A483",
"9. c #E5A484",
"0. c #E6A584",
"q. c #E6A585",
"w. c #E7A685",
"e. c #E7A686",
"r. c #E8A787",
"t. c #E0A58A",
"y. c #E3AC8D",
"u. c #E7AD8F",
"i. c #E8A888",
"p. c #E9A888",
"a. c #E9A989",
"s. c #EAA989",
"d. c #EAAA8A",
"f. c #EBAA8A",
"g. c #EBAB8B",
"h. c #EBAC8C",
"j. c #EBAE8F",
"k. c #ECAC8C",
"l. c #ECAD8D",
"z. c #EDAD8D",
"x. c #EDAE8E",
"c. c #ECAE8F",
"v. c #EEAF8F",
"b. c #EDAF90",
"n. c #E4B195",
"m. c #E9B193",
"M. c #EDB091",
"N. c #EEB090",
"B. c #EFB090",
"V. c #EEB091",
"C. c #EDB192",
"Z. c #EEB192",
"A. c #EFB192",
"S. c #EFB293",
"D. c #ECB496",
"F. c #E6B599",
"G. c #EAB79A",
"H. c #EEB899",
"J. c #EEBC9E",
"K. c #F0B293",
"L. c #F0B394",
"P. c #F0B495",
"I. c #F1B495",
"U. c #F1B596",
"Y. c #F1B597",
"T. c #F2B596",
"R. c #F2B697",
"E. c #F2B799",
"W. c #F3B799",
"Q. c #F3B899",
"!. c #F2B89A",
"~. c #F3B89A",
"^. c #F3B99A",
"/. c #F3B99B",
"(. c #F4B99B",
"). c #F4BA9B",
"_. c #F4BA9C",
"`. c #F4BB9D",
"'. c #F5BB9D",
"]. c #F5BC9D",
"[. c #F5BD9E",
"{. c #F5BD9F",
"}. c #F1BFA1",
"|. c #F5BEA0",
" X c #F6BEA0",
".X c #F6BFA0",
"XX c #F6BFA1",
"oX c #F6C0A2",
"OX c #F6C1A2",
"+X c #F6C2A3",
"@X c #F7C2A3",
"#X c #F6C3A4",
"$X c #F7C3A5",
"%X c #F2C4A5",
"&X c #F7C4A6",
"*X c #F7C5A6",
"=X c #F7C6A7",
"-X c #F7C7A8",
";X c #F7C8A9",
":X c #F0CBAD",
">X c #F4CDAE",
",X c #F8C8A9",
"<X c #F8C9AA",
"1X c #F8CAAB",
"2X c #F8CBAC",
"3X c #F8CCAD",
"4X c #F8CDAE",
"5X c #F9CEAF",
"6X c #F3D1B3",
"7X c #F0D4B6",
"8X c #F6D4B6",
"9X c #FAD3B4",
"0X c #FAD7B8",
"qX c #F1D8B9",
"wX c #F7D8BA",
"eX c #F5DBBB",
"rX c #FADDBE",
"tX c #F6DDC0",
"yX c #F9E1C3",
/* pixels */
">.Z.0.1.Q N j j w l H I P =.:.D.>.G.n.>.:.>.:.n.n.>.>.n.n.n.>.>.:.:.:.>.y.F.n.n.:.>.-.;.t.a.y.u.3.t.3.t.t.} ^ ^ R R V Q T E R T ",
";.d.z.8...N d j u j P I I =.>.C.n.n.>.:.:.:.>.>.>.>.n.n.n.n.n.>.>.:.;.:.n.n.F.u.y.;.-.-.y.y.;.9.y.3.&.t.t.+.^ ^ ^ E Y U _ E [ ! ",
"H X.| o.| J i i u z L I I >.>.n.n.n.=.=.:.>.:.>.>.n.>.n.F.G.>.>.:.>.-.:.>.F.>.>.>.;.$.-.>.u.&.t.y.y.+.t.r.t...6.3.3._ O.,.,.' [ ",
"v Q Z Z m d e u w i G I I -.>.>.n.>.=.$.:.>.n.:.>.>.>.n.G.n.>.>.>.>.;.;.>.n.>.>.>.>.-.*.y.u.-.y.m.V.j.h.A.j.h.q.d.r.6.,.6.,...` ",
"z ! C C b d u u 5 j G I P -.:.n.>.>.-.n.n.F.H.[.}.&X}.&XJ.+XJ.J.F.m.F.J.F.H.J.}.~.J.H.~.H.`.S.~.j.V.j.K.j.a.a.a.3.r.q.1.X.3.| | ",
"c Q Z n B f u u u j H P $.-.y.u.y.y.K.S.H.H.~._.[.oX+XXXXX+X+XXXoX}.}.}.oX+X+XXXoX X`.T.H.H.H.D.S.V.j.j.x.d.r.q.r.q.4.....` | ` ",
"l ` h h b f 9 u w j G I *.y.t.a.q.t.} ) K ) R +.V.[.}. X+X@X_.|.|.[.H.~._.+X`.+X|. XD.E./._.C.D.K.K.h.V.z.h.2.<.8.e.[  .[ ..` ( ",
"c Q n h h p r e u j x I &.y.+.K f 7 < > < > > 7 K u.S.{.#XoXXX.X+X}.Y.K.[.@X|.{.|.~.S.U.(.W.Z.j.V.B.j.j.K.d.r.3.e.6...[ { 4.,.] ",
"d E n h g f r u w l H ) } } f < = & $ $ X O O # & 9 J $.y.(.XX@XE._.S.V.K.].XXXXU.P.h.A.L.U.(.B.h.Q.T.T.A.K.j.h.%.4.` +...r.6.4.",
"l U n h b f r e i c ) ' ..f 9 r x K I x 5 & & % = : 3 s K q.T.T.'.T.M.a.x.W.XX`.L.j.q.d.I._. X`.`._._.T.V.V.V.6.%.O...| q.4.q.4.",
"c W h h h m s r s v ) ,.` V ) S.~.`.J.}.}.n.P x d r 7 r m ] +.V.W.T.i.r.h.Q.E.R.S.j.+.r.j.).W.XXoX+XH.H.A.V.6.+.) ) R ) } } Q Q ",
"x K n h m b z r d x &.a.d.r.A.K._._.!.}.&X_.D.u.t.) J b Y R ^ q.A.V.a.q.j.K.Y.j.h.q...6.j.W.'.(.`.H.u.} $.K f r r r 9 r d s s f ",
"z R U B b k d d u G i.h.a.x.u.L.h.V.V.S.u.j.y.y.t.q.O.] Q ) ) t.h.V.j.r.a.x.d.d.+.+.' ,.,.x.V.j.} N 9 > = = $ # o X o + = : > 9 ",
"x / W J N k d u u J a.p.g.a.k.d...Q ) } &.t.3.O.%.R ` W ) ' } 6.x.h.g.a.h.j.h.a. .R Y E ^ +.,.Y t < & o X . . . . . . X # $ $ = ",
"G P J J x N f d d J e.j.d.s.8._ g ) u._._._.j.a.q.[ b f b _ ` i.z.A.e.r.a.z.q.h.{ b k n m V b t < : o X o X . X # $ = : > > = = ",
"I P K J J x x f z R d.z.V.6.^ y b m.H.H.H.u.t.6.<.[ n y t b Q ..d.u.d.w.d.a.d.r.^ f t f b f t 1 - = $ + = = > 3 s k N J K f s r ",
"I I P P G G x x d R q.I.K.q.V y } H.&.x 3 < : : > 8 t y 8 t m ^  .z.j.V.w.a.r.6.R b y y t t 6 3 - - = - ; 7 t f k N B R R ) R R ",
"$.$.$.I P P P G x V @.a.T.d.Y B } l & . . . O     . $ - 6 8 f n ^ f.z.V.V.q.d.2.Y b f y 0 1 ; - - = = = = < r b k y t 8 8 6 8 t ",
"$.$.I I $.$.P I K _  .8.k.a.n b 7 X     . O &       . X @ ; 6 b ! 6.j._.T.T.d.q._ B t 8 6 1 - = = + X + 7 f d k k k r f s 9 - = ",
"$.$.$.I $.I I I 3.@. .! V b 8 - : + $ $ & % O . . . . # $ + @ 6 ! q.T.&X=X[.T.j.q.m 6 , , ; = + + . + > > O . . . . . # & : : > ",
"$.$.I I I I P $.y.a.^ E h y 0 y ^ t.V / G f 3 : & & > 9 : = = ; ..d.'.5X4X=X[.T.6.b 1 , , - @ + X X + o o . O .               . ",
"-.*.*.*.} $.$.$.H.b.4.d.K.j.x.4...h.V.V.V.a.O.I I Y N b f f B ! A.W.|.5X0X5X&XV.+.y 1 ; , = ; ; - - < 7 r 5 * # O O O # # O . . ",
"y.y.=.-.-.-.I K W [ 4.S.W.K.k.x.a.q.4.q.4.q.` ] / E Z Z E ! B Q W.+X+X9X0X0X}.A.` y , , 0 8 y E [ ' Q ] O.3.I K f s s k b 8 < < ",
"y.;.*.*.-.=.*.+.' Q 4.d.Q.Y.I.(.(.h.' E ! Q E Z Q E n h h y g ,.XX|.<X5XwX5X&Xj.[ g 6 6 h E E _ 6...W E _ } ..[ ! Z h b b b b m ",
"&.-.*.&.*.-.-.j.[ E ..V.I. X].oX}.[.a.Q m g g b q 0 6 6 y ^ S.=X`.-X4X9X5X1X{.j.C b y h h Y ..a.q.a.q.Q m b y b y y 0 q q b h h ",
"y.t.;.t.;.-.t.a.r.[ k.U.R.T.[.XX&X=XXXQ.h.' b y y y b } }.<X<X=X=X=X4X4X4X=X/.+.V h n Z Q ~ 1.r.r.a.j.K.d.) f 6 1 , , ; ; ; - = ",
"j.l.t.y.u.m.t.r.r.o.a.x.R._.(.OX,X5X+XXXoX XT.T.(.XX`.+X<X2X#X,X1X5X<X4X4X<XV.[ C h h Q 4.r.o.r.s.k.d.T.(.`.S.T.j.t.) R Y V m B ",
"c.i.t.t.m.y.t.a...~ r.A.(.{. X+X4X5X,X+X@X[.(.W.XX<X&X*X;X1X1X;X4X5X5X1X4X+Xz.W Q n C Z ..1.w.w.s.a.z.S.[.~.W.(.XXoX_._._.W.K.V.",
"q.e.3.t.&.&.3.K.6...z.'.(.XXoX2X3X9X5X4X+X'.W.'.OX1X4X=XOX=X2X5X5X9X9X9X$X).e.,.Q Z n h g g y b h [ h.A.(.).~.'. X+X_.oX_.I.T.A.",
"7.2.3.O.&.$.+.x.f.j.I.(.[. X=X<X9XtX9X4X=X[.[.oX=X4X4X#X#X,X5X5X0XtXtX5XXXT.A.a.q...Z g y y q 6 1 6 n q.T.'._.'.XXXXOX+X`.`._.Z.",
"9.8.O.} 2.} | w.s.A.h.Q. X+X+X<X9XtX0X9X4X=X_.=X1X5X#X=X+X&XoX5X0XrXwX5X[.~.h.A.K.V.~ h g Z Z Z y , ; q _ V.Y.`.$X,X[. XXX'.K.I.",
"q.o. .{ 3.} 2.6.j.v.h.K.[.oX*X1X9X0X5X5X2X,X=X=X2X+XH.V.j.W.+X<X0XtX0X<X&XQ.A.K._.e.! h h ! ,...! 0 - - 6 m  .d.Q.`.|.{.Q.T.I.k.",
"+.%.} +.+.3.} q.p.g.x.T.'.@X@X1X;X=X4X1X+X X`.W.j.4.n h [ OX&X5X9XtX0X5X&XoX}.[.V.! h h h ~ ..Q h 0 , , ; 1 y ^ 4.d.x.K.j.V.v.j.",
"%.| X.} 3.3.+.6.K.d.h.h.(.'.OXoX@X+X_.(.K.d.,.Q h 0 1 h T.*X=X5XwXwX0X0X4X+X].K.^ y 6 1 6 6 1 , , , 0 q y 6 6 y Y  .6.a.A.a.f.6.",
"3.,.^ O.2.t.+.r.V.K.r.h.A._._.].'.W.z.q...Q g 6 ; , B `.<X4X,X0XrXyXtXyX0X<XS.) y , @ + + @ + @ ; , 1 0 y y 0 6 0 b V [ 6.q.[  .",
"{ ` ` ^ +.} O.t.g.a.q.w.x.K.T.I.(.z.' Z n y , - , R H.<X5X2X4X8XyXyX0X5X1X[.O.q ; + o + @ + + @ - - - ; 6 0 0 0 6 1 8 m Q ) E V ",
") ^ ^ ) / ) ] 6.r.d.| 5.w.x.k.x.6._ n h 0 ; - 6 R H.+X5X5X5X5X5X<X<XJ.H.u.+.y , @ + $ + + + o + + - = - = , , , - - - 9 k R V T ",
"^ E ) E ) ) ) | q.4.~ ~ 5.8.q.o.! n y 0 ; - 1 B y.}.;X5X9X4X+X}.`.Q.u./ k 8 , = + + + + o o + @ = = = + + = - = = = + = < k R Q ",
"Y K A J R / R _ | ' C W [ 8.[ ! Z h 6 , - , f _ C.+X}.}.}.~.y.d.d.K.6.^ y 1 - ; ; - = = = = @ - ; < - + = - = = = + $ $ $ ; y T ",
"N m N N J J K ^ @._ Z Z ~ X.~ Z m q 1 ; , y Y [ V.V.O.J ) } ] ^ E Y V f 6 ; 1 f b 6 ; - - - = = - < - = : : - : : = & + + + : t ",
"k k k x x N K } .. .Q Z Z ' ~ Z y 6 ; ; 6 N J / } K y s f J Y m 8 8 1 ; + - 8 N b k 8 3 ; ; - - - : : - - ; ; < < < > = + + + - ",
"k k k k x N K ` 3.1.| Z C Q ! n b 8 , ; 0 A N G J f 8 8 t k m f 8 6 1 - ; b  .' E n b t 6 1 , , 1 , , , 1 , , 1 3 , < : + + + @ ",
"z x f x x G V { q.d...! Z Z n n b y , 1 y N f N k r 6 8 y k f m y t 8 t b ..6.q._ E b g y q 1 6 0 y 0 q 0 6 1 6 1 1 < < = + + = ",
"d x z k G G R ) i.h.x.q.' n b B Y b 6 1 k J f d d r 8 8 f f b n n n n Y ^ E _ ....Q n b b g y 0 q q q 0 8 1 1 , ; - = = = = = ; ",
"d x x x x G G } u.K.U.B.3.B g B E ^ m 0 f R k 8 < 3 , , 3 8 q b n Z B Y n V V E n h a q 1 1 , , ; , - - @ = = @ + o + @ - 8 r t ",
"z G I P G G G } Z.E.E.U.x.T b m [ O.) b f b k 8 , - = = - , 6 q y q a q q q q q 0 6 1 1 , ; - - - - = @ @ = = - - ; , 6 b R ^ b ",
"P I I $.) ) R } j.E.V.Y.K.3.b f E 3.( ^ E Y b b f f 8 8 y b g h h h a p a a t a b b a a a q 9 6 6 6 , 6 6 6 6 0 q q q Z ..` Q b ",
"P I I $.$.) K R -.S.S.U.T.a.K f W @.| [  .T Y V R Q Y V b b m R / F F A F F S D F S N b f a 8 8 t 0 0 0 q 0 6 6 q y n 4.,.^ B f ",
"K $.*.*.$.} ) ) $.y.u.L.b.b.O.m b ` 9.q.` E V Y V ^ ^ [ V b B E N N A D A D A A M M s 9 7 7 3 7 7 7 8 y 0 y 0 0 t V ,.d.] W k N ",
"P *.*.*.$.*.I I I ) } 3.y.q.+.K k m <.6.<._ E R E ^ ( Q Y b k s r 8 r d k f r r r 9 3 4 3 4 < 3 , 3 7 8 t t t t m ` y.,.,.Y y m ",
"$.-.#.*.*.*.H J G x K ) ) ` ) } K B T ..<...Q Q _ ` R Q E R f s 8 8 8 t f k s r 9 9 < 3 4 3 > 3 3 9 3 9 t t t k R q.O.+.` m t Y ",
"$.*.*.*.-.$.H i e r $.) K b V [ 3.] Q ..4._ _ ^  .] Q V B m f y y s y k N b f s r 9 3 < 3 3 3 7 9 9 7 9 f f N E 3.y.+.) V b f N ",
"P *.&.*.*.$.d 5 4 5 G $.K Y n a.x.t. .<.' ]  . .'  .^ W m b m m b N N A V K k d r 9 7 7 7 9 9 d f f d f b R ] ) O.t.3.R k x m N ",
"H *.-.*.*.G u > * 2 4 d )  ...j.W.3.4.,.` E  . .,...` W E ^ } } +.} +.} t.} } K x d f l z f G K ) R J N R ) O.&.t.3./ m m k k k ",
"v $.$.$.I v 5 4 & 2 2 4 G y.h.T.[.j.3.3.` _ E | ..6.[ [ ] t.2.t.} &.} t.y.y.$.-.;.*.I I P K B K +.+.R I ) } ) &.&.) b m N N N k ",
"l P I I I z 4 & & 2 * * i u./.}.OXh.O.%.^ ^ ` 2.t.9.e.3.i.y.y.y.&.&.&.t.u.u.n.F.n.;.*.I K J K ^ t.&./ / / ) } } ) J k k f N K J ",
"w G P $.P z * % & & * 4 i y.XX*X}.S.@.O.Q ) ) i.b.C.t.t.t.j.u.D.u.m.;.D.m.F.}.}.*.*.*.I G J K } ) ) } } } ) } } x J k d s N K K ",
"w z H I x e : # % % * 4 u -.=X*X`.j.9.<.%.] 3.h.j.j.u.u.D.H.E.J.}.H.m.n.F.E.(.n.-.) ] K K J / ] O.} $.+.&.) / K k k f r d x x s ",
"5 5 c v l w % # % & % > 7 I 2X1X`.S.| | %.N.L.I.E.R.j.M.j.V.u.C.D.u.t.u.j.Z.3.q.O.] Y K R / W +.e.A.3.&.} P G x d r 3 9 d s 5 4 ",
"% & 2 4 j 5 & # # # % : 3 K ,X2X`.q.} i..X#X|.).{./.V.c.Z.d.i.3.q.,.2.2.q.2.O.` { ` ^ / +.} 3.y.L.U.y.) J l x i u > = < < > > > ",
"O O # * 4 4 * O # # % > < Q +X5Xn.>.}.=X1X2X5X,X|.OX|.XX^.R.Z.Z.a.i.@.` Y W ^ +.` %.2.a.) +.V.(.E.C.P x d 5 < 4 4 % % < < 7 3 r ",
"O O O % * 2 * O O O % = s Z.1X9XwXwX8X4X5XwXrXeXwX>X9X5X5X*X X{.].Y.t.E R R ^ ] 3.e.j.j.I.`.`.m.I G i u 4 4 & * % O > 7 s d f z ",
". . . # % * & # . O $ < O.|.<XwXtXyXeXwXwXtXeXyXyXyX8XwXeX0X*X*X=X2X}.n.$.K A { j.Y.Z.|.*X}.) G x w * * & & O O O # & < 9 r r s ",
". . . O # & % # . X # d y.#X6X6XwXeXeX6X7X7X7X7XqXqX7X7X7X7X:X:X>X:X:X:X:X>.I -.F.G.G.}.%X>.v c j w * & & # O O # # % * 5 3 w u "
};
