/* XPM */
static char *out[] = {
/* columns rows colors chars-per-pixel */
"64 64 223 2 ",
"   c #2B1608",
".  c #4A2415",
"X  c #5C2C1A",
"o  c #68321E",
"O  c #583F2A",
"+  c #763A24",
"@  c #7E3D26",
"#  c #63432F",
"$  c #6E402D",
"%  c #6A4D37",
"&  c #77523D",
"*  c #7F5D46",
"=  c #814A35",
"-  c #8E4B34",
";  c #96523A",
":  c #865540",
">  c #8C5D46",
",  c #9D5943",
"<  c #955F49",
"1  c #A45E45",
"2  c #89664F",
"3  c #9B644E",
"4  c #916A53",
"5  c #9A6F56",
"6  c #AB644A",
"7  c #A16851",
"8  c #AD6D51",
"9  c #A86D58",
"0  c #B36A51",
"q  c #B76F53",
"w  c #A1765D",
"e  c #A7755C",
"r  c #AE755B",
"t  c #B4715D",
"y  c #B97658",
"u  c #A87B63",
"i  c #AE7D64",
"p  c #B77764",
"a  c #BD7564",
"s  c #B27861",
"d  c #B47F64",
"f  c #BB7E63",
"g  c #C1785B",
"h  c #C87E61",
"j  c #AC836B",
"k  c #BE8466",
"l  c #B3876E",
"z  c #BA876A",
"x  c #BF8B6C",
"c  c #B78C72",
"v  c #BC8E72",
"b  c #C38264",
"n  c #CC8566",
"m  c #C78568",
"M  c #C48A6C",
"N  c #CC8C6D",
"B  c #CC8C6E",
"V  c #D18969",
"C  c #D48C6E",
"Z  c #D88F6F",
"A  c #C98270",
"S  c #C88973",
"D  c #CC8A78",
"F  c #D38E7E",
"G  c #C39072",
"H  c #C69677",
"J  c #C89172",
"K  c #CC9475",
"L  c #CA997A",
"P  c #CF9C7E",
"I  c #D19071",
"U  c #D09072",
"Y  c #D29172",
"T  c #D09273",
"R  c #D39273",
"E  c #D49374",
"W  c #D59475",
"Q  c #DA9472",
"!  c #DD9876",
"~  c #D79778",
"^  c #D1967C",
"/  c #D89778",
"(  c #D59A7B",
")  c #D99878",
"_  c #D9997A",
"`  c #DB9A7A",
"'  c #DA9A7B",
"]  c #DC9B7B",
"[  c #DB9C7D",
"{  c #DA9D7E",
"}  c #DE9D7D",
"|  c #DC9D7E",
" . c #DD9D7E",
".. c #E09E7D",
"X. c #E29F7D",
"o. c #E2A07F",
"O. c #D89380",
"+. c #D89982",
"@. c #DD9E80",
"#. c #DE9F80",
"$. c #DF9F80",
"%. c #DD9986",
"&. c #CFA186",
"*. c #D4A082",
"=. c #DFA081",
"-. c #DCA386",
";. c #D8A485",
":. c #D7A88D",
">. c #DCA88A",
",. c #DFAB8E",
"<. c #DBAB91",
"1. c #DFAF94",
"2. c #E0A081",
"3. c #E2A181",
"4. c #E3A181",
"5. c #E0A182",
"6. c #E1A283",
"7. c #E3A282",
"8. c #E4A281",
"9. c #E4A382",
"0. c #E4A383",
"q. c #E5A483",
"w. c #E6A483",
"e. c #E5A484",
"r. c #E6A584",
"t. c #E6A585",
"y. c #E7A685",
"u. c #E7A686",
"i. c #E8A786",
"p. c #E8A787",
"a. c #E0A58A",
"s. c #E3AC8D",
"d. c #E7AD8F",
"f. c #E8A888",
"g. c #E9A989",
"h. c #EAAA8A",
"j. c #EBAB8B",
"k. c #EBAC8C",
"l. c #EBAE8F",
"z. c #ECAC8C",
"x. c #ECAD8D",
"c. c #EDAD8D",
"v. c #EDAE8E",
"b. c #ECAE8F",
"n. c #EDAE8F",
"m. c #EEAF8F",
"M. c #EDAF90",
"N. c #EEAF90",
"B. c #E4B195",
"V. c #E9B193",
"C. c #EDB091",
"Z. c #EEB090",
"A. c #EFB090",
"S. c #EEB091",
"D. c #EDB192",
"F. c #EEB192",
"G. c #EFB192",
"H. c #EFB293",
"J. c #ECB496",
"K. c #E6B599",
"L. c #EAB79A",
"P. c #EEB899",
"I. c #F0B293",
"U. c #F0B394",
"Y. c #F1B495",
"T. c #F0B496",
"R. c #F1B596",
"E. c #F1B597",
"W. c #F2B596",
"Q. c #F2B697",
"!. c #F2B698",
"~. c #F2B799",
"^. c #F3B799",
"/. c #F3B899",
"(. c #F2B89A",
"). c #F3B89A",
"_. c #F3B99A",
"`. c #F3B99B",
"'. c #F4B99B",
"]. c #F4BA9B",
"[. c #F4BA9C",
"{. c #F4BB9D",
"}. c #F5BB9D",
"|. c #F5BC9D",
" X c #F5BC9E",
".X c #F5BD9E",
"XX c #F5BD9F",
"oX c #F1BFA1",
"OX c #F5BEA0",
"+X c #F6BEA0",
"@X c #F6BFA0",
"#X c #F6BFA1",
"$X c #F6C0A2",
"%X c #F6C1A2",
"&X c #F6C2A3",
"*X c #F7C2A3",
"=X c #F6C3A4",
"-X c #F2C4A5",
";X c #F7C4A6",
":X c #F7C5A6",
">X c #F7C6A7",
",X c #F7C7A8",
"<X c #F0CBAD",
"1X c #F4CDAE",
"2X c #F8C8A9",
"3X c #F8C9AA",
"4X c #F8CAAB",
"5X c #F8CBAC",
"6X c #F8CCAD",
"7X c #F8CDAE",
"8X c #F9CEAF",
"9X c #F3D1B3",
"0X c #F7D1B2",
"qX c #F0D4B6",
"wX c #F6D4B6",
"eX c #FAD3B4",
"rX c #FAD7B8",
"tX c #F1D8B9",
"yX c #F7D8BA",
"uX c #F5DBBB",
"iX c #FADDBE",
"pX c #F6DDC0",
"aX c #F9E1C3",
/* pixels */
"1.F.r.4.W M j j w l H P L :.<.J.1.<.<.<.:.1.<.1.<.1.1.1.1.1.1.1.<.1.<.1.s.K.B.B.>.d.>.,.a.l.d.d.t.a.5.-.a.5.' [ ~ ~ ~ [ / / T Y ",
",.h.c.w...M d j u j L P P :.1.<.<.<.>.:.<.<.1.1.1.1.1.B.B.B.<.1.1.<.,.<.B.B.K.d.s.,.s.f.C.C.F.l.z.g.g.g.l.h.f.t.9.=.3.} 4.} ] / ",
"H X.} o.} J i i e z H P P 1.1.<.1.<.*.;.<.1.<.V.K.K.1.K.P.L.1.1.1.K.B.V.P.`.V.V.P.[.V.).~.~.d.F.F.F.g.l.n.C.r.p.i.i.} X.9.2.E ) ",
"v W Q C B k u u u l H P P >.<.;.>.:.:.,.V.K.K.P.{.{.P.P.oX{.P.P.oXoXoXoX=X&XOXXXXX[.P.Q._.).T.A.T.A.l.d.F.l.t.t.h.t.} 5.e.5.) ~ ",
"z ~ C Q N k d j u z L P L ;.-.,.,.V.J.).Q. X_..XoX;X*X%X$X%X[.}.). X).&XoX:XOXoX).[.P.).F.R.H.F.n.A.m.c.0.g.0.e.6.3...4.3.6.~ _ ",
"c ( E Q R M d f k J ( { @.=.5.a.d.C.C.V.Q.Q.).[.*X$X*XOXOXOX X X).~.).).$X&X).~._.~.Q.!.F.N.n.m.F.N.l.l.f.r.r.e.3.@.=.3.t.' ' _ ",
"l ) Z Z R M d f x ( ( a.a.@.B B M J d f J { g.P.[.&XoXOX&X*X[.T._._.Z.XX$X&XF.F.U.!.F.~.A.I.f.T.I.I.k.C.c.z.5.3.w.0.3.r.e.i.` [ ",
"c W Z C R m d f m ~ { -.{ p < = & & $ $ & : e J B.T.)._.OX X).T.F.C.l.T. X&X_.F.F.Z.l.Q.'.).).[.[.R.C.n.I.j.=.3.0.r.7.3.f.t.' [ ",
"j ~ Z C V m s f m ~ ( M 3 : : > & # X X X $ & 3 r M ' Z.T.'.~._.g.l.h.[._.|.C.F.t.g.k.[.OX+XXX+X_./.Z.h.a.@.W ~ ^ W U Y I E Q ~ ",
"l E Z V C b f f E / m 9 r J { <.<.P l 5 > > < 3 3 r M ' g.C.Q.W.g.p.h.T.~.F.h.f.e.6.c.).).OXOXQ.V.a.;.J k r 7 3 7 9 9 9 s f b b ",
"c ' V V C m f b =.X.m W C.XXQ._.).$X`.V.>.;.J x f b k U ' c.z.A.m.j.r.l.J.Z.5.5.5.3.r.F.~.].a.^ p 3 : & $ $ X X o + & : < 7 6 9 ",
"v ~ C V C N b m g.f.g.g.Q.I.G.F.[.[.(.l.C.f.-._ ~ U B T _ r.f.c.G.j.g.t.l.j.} E ~ ) @.a.h.{ f 3 : o X X . . . . X o $ + = : > : ",
"z ^ I C V N m Y g.c.f.k.g.v.f.u.6.a.5.s.@.@._ ~ T ~ W ' _ p.f.m.k.A.f.c.f.c.Q N N B U ~ N f , = + o X X X o $ = < 9 3 3 < < < > ",
"x H T J N m b ~ f.h.g.f.j.0.m m @.V.J.T.l.f.@.Y m b m ~ @.$.c.j.v.u.f.g.z.l.U f f b b m y 1 - @ + + @ = > 7 d J { ( ^ M k f s 9 ",
"G L J J B B s ' Z.m.u.t.q.m y l.OX&XP.P.C.h.@.| C g 8 m ) X.3.c.F.z.u.p.f.c.N y y f y t 8 , - - = - - 6 r k b J T ~ B ^ T ~ U B ",
"P L ^ ( H G d ' I.C.C.@.N y ' P.P.a.J d r 9 r f b a 8 t m E } p.F.l.h.t.h.8.U k k f 8 6 1 ; - - > - = , t f f s t 8 8 8 8 y b m ",
"P P L P L L k | g.I.I.0.f m u.>.u & . . .   . X + < 1 8 y N ) g.Z.I.n.g.g.p.~ N f t 6 1 - - = = $ $ > f J ^ J k f p 8 8 ; - = , ",
"*.*.*.P ;.;.G Y ..g.c.0.m U M : .   . . #       . o @ - 8 b ~ r.Q.).).F.S.m.| m y 6 , ; - @ + X o > < & $ . . . O + = > < > = $ ",
"*.;.P P ;.>.G ~ 7.} } 7.B p = . . . . & # .     . $ o $ @ 8 ~ r.XX2X&XXX+X_.=.m 6 < ; - @ + X X + + o   # .               . X X ",
"*.P P P ;.;.^ E 6.E f 8 1 = < 1 7 7 7 4 * # O O = < = + = , 8.g.OX8X6X6X>X X=.f 1 , , = = @ o X + = > & % O . . O # # . . . . . ",
"*.*.P P P ;.@.8.' W m n f m 0.c.t.h.a.-.K J M J k b f b n ) c.).OXyXyXrX:XQ._ y , , 6 , 8 b f m B T ^ ( L x 9 9 9 f d 8 3 < = @ ",
">.;.;.;.>.>.T.V.t.c.Z.N.c.} ! r.c.k.f.u.t.' Y V R U C C Z Q I.XX2X8XyXwX:XT.' y 6 1 y n m I 8.| } _ [ [ 5.} I N S n h f f b N m ",
"1.1.:.>.>.;.P a.6.Z.j.I.I.I.j.0.e.u.C C C R n C C C g a h h.).*X4XeX7X4XOXI.I g q y a C } 0.X.e.7.R m V N E h g y y y h n V g q ",
"s.,.;.:.>.;.E N } g.j.Q.XXXX[.Q.8.V h n V C n a q 6 6 B P.:X*X&X8X7X3X6XXXu.C g n V n V X.p.r.t.j.j.) b 6 1 1 1 6 1 , - ; - = - ",
"-.>.;.-.;.>.~ C ! c.Z.Q.XX:X*X;X Xc.Q n q q 8 8 t Y C.:X2X4X>X>X4X8X7X:XF.3.N n n Z ! } X.p.r.g.h.Q.G.Y.h.h.@.W m b y f g m R 3.",
"s.a.,.a.,.f.g.} r.c.I.R.XX+X;X3X3XXX#X/.F.z.h.F.[.*X&X:X4X3X4XeXeX8X7X*XF.} C n V Z X.q.i.r.g.f.c.Z.I.F.~.).+X_.}.Q.A.Z.I.A.I.z.",
"l.x.a.s.d.V.f.8.r.A.Z.Q.*X4X2X7X8X8X[.#X$X+XQ.$X>X6X&X:X3XeX3X8XyXrX*X[.c.0.C n V n h V E Q ] g.c.F.m.Q.'. XOXOXOX$XT.!.!.Q.g.p.",
"d.u.a.a.V.a.$.! g.c.Q.).:X4X2X8XeX8X,XXXXX[.OX2X6X3XXX XeX8X8X0XaX8XXXQ.I.r.} Q V g q 0 q 6 6 g } c.I.~. X). XOX;X$X[.[.OX^.c.0.",
"t.u.6.a.;.g.5.} g.).).*X:X2X8XyXwXeX:XOX_.}.:X2X6X4X=X2X2X8X8XaXiXyXOXOXU.m.u.f.Z h y n n g 1 , 6 N u.XX'.}.XX;X+X&XXX$X[.I.c.p.",
"q.5.6.@.-.g.g.p.c.F._. X:X,X8XyXyXyXeX:X:X:X3X4X7X6X>X=X=X3X8XyXaXeX*XQ.U.m.I.N.} n h Z X.} C 6 - ; t ~ h.Q.[.}.$X#X[.[.Q.c.m.z.",
"e.w.@.{ 5.t.0.c.Z.).Q.XX:X3X3XeXrXpX0X0X7X6X=X2XOX[.Z.R.:XeX8XuXuXrXOX[._.).J.8.R n h } ..X.V y ; ; ; 6 m 0.g.G.).+Xc.c.G.I.f.j.",
"t.o. .[ 6.3.h.g.c.Q.Q.[.;X2X:X4X0XrX2X*X:XOXQ.g.} n ~ I.2X8XyXwXiXeX:X&X;X/.t.m q q y g g y 6 1 6 0 8 , 8 b ~ t.z.n.N.p.z.z.9.e.",
"#.=.{ @.@.6.h.j.r.j.I.XX}.*X*X>X&X*X[.I.p.8.R g 6 a g.OX*X8XyXiXyXpX8X2X=XZ.m 8 ; = @ @ + = - 1 8 q q y q 0 g E ' q.e.j.i.t.4.0.",
"=.} X.{ 6.5.Z.A.q.t.j.).'.}.%X$X[.Z.g.} C g 1 - t Z.:X2X4X6XaXaXaXaXeX:XI.B 6 - $ o $ + + = - ; , , 6 0 y y 0 8 b Y / } } | } } ",
"6.2.~ =.=.a.g.G.j.g.p.c.~._.).Q.c.8.C h q ; - f h.4X4X7X8XeXyXiXyX8XXXP.' r = + + @ $ o + @ + = - - - 1 6 8 , , 1 f b U E / U W ",
"[ _ W ~ #.{ e.n.j.t.r.y.v.F.Q.g.} V g 6 ; - b C.:X8X8XeXyXwX6X7X*XT.a.~ y , = + + + o o + @ @ = = + + = ; ; - = : - 9 N ~ E B B ",
"( ~ ~ ( W =.p.j.p.4.} 8.y.v.3.) n a 6 ; - f 5.XX:XeXeXeX2X:X*X[.h.~ y 6 - = @ + + + @ + @ - - ; = + + @ = - - @ + + @ 7 B ' E Q ",
"~ R W T ^ _ 8.g.X.) Q X.8.X.~ n g 6 ; ; 8 Y u.P.2XOXP.T.C.g.l.z.h.~ t , , 1 6 , ; - - - = - - < > = = = - : = @ + + + + 1 b Y C ",
"U K S K T W ) 3.q.` V ! } } m a 0 1 - 1 m ' 5.F.h.^ M ~ =.' N U B b ; - 6 m M t 6 , - ; - - = : ; - - - > < > > > = + + @ , f B ",
"S m M M J E ! / $.C C Z } E b 8 1 , ; t I Y ' W b t y b I m t 6 6 - + ; f U N m b 8 , ; ; ; , < 1 , - ; 1 1 1 3 3 > @ + + @ , m ",
"k k k x x E } { ) C n C C C b 8 , , 1 b M m B M 8 8 8 f f b t 8 3 ; 1 ~ f.6.' E n a 6 6 1 6 q y q y 0 8 6 6 6 6 , < = @ + = = f ",
"z k k k x ^ 5.r.6.~ C V V n h 8 1 , 6 k b k J f 8 8 8 y f m f y y f B =.c.h.r.! C h g y g g g h n n a 8 8 8 8 1 1 , > @ + : - 8 ",
"z x f x x ( @.h.t.h.E C m b h f 6 1 1 m M M f r 8 r t f m N m N E ) B R ) $.~ E C n y y y q 6 0 8 6 ; ; ; , - = = = + = > 7 ; 8 ",
"d x z k G ^ =.u.Z.d.3.U h y m m y 8 8 B M r 7 9 r 7 1 6 t g n V C n h n N n g y 0 6 , - ; ; - - = @ + + + + o o $ $ = 3 f M 8 f ",
"d x x x G ^ -.C.I.Q.R.} b y m ~ U f t U k 8 ; ; = = = - , 8 q q 0 q q q 0 8 6 6 , 1 , 1 1 , , , - ; - ; ; ; ; , ; , r T T ) y B ",
"z G P J G ^ 5.l.P.Q.~.h.U y b { ] B f b k s 9 1 , 1 6 q q y y y g a a a f g A A D D D A A a q q y q q q q q 8 8 q b } X.} I b W ",
"L P P *.L P P l.P.~.S.C.' k y T 5.| U Y B B b N Y I g h V R C E F F D O.O.%.O.O.O.F S S a 8 t q 0 y 0 q y q 6 y m 0.r.3.' m m =.",
"L P P *.;.P K a.Q.F.H.R.h.N t m =.$.} _ ~ T B Y ~ E m g m U B J ^ F F F F U S J x s 9 7 7 7 7 3 7 8 0 8 8 6 8 b } c.6.' E b U _ ",
"K *.;.;.*.{ ( =.u.F.d.U.M.5.b k T 5.e.} R R B ~ E ~ U b f f r r 9 s r s 9 r 9 r 7 7 > < < < 3 3 3 7 9 r 8 t f ) u.d.@.[ b f T _ ",
"L ;.;.;.*.;.P { @.=.5.u.h.t.M s N _ 3.0.} ) R ~ R R N b f t 8 7 9 9 9 r s s r e 7 3 < < < < < < 7 3 7 9 s f U 0.f.t.5.U y b ) B ",
"*.>.&.;.;.;.H L J J { @.5.5.m r b T _ ..3...W ~ ) ~ m b b f r r r r r f f k r r 7 3 > < < < < 7 7 9 7 r b W @.u.u.h.~ f f ~ J f ",
"*.;.;.;.>.*.H i w r *.-.( Y I b T W @.} 7.} ) / [ I m b m f f b M M m m B b s 9 7 7 3 < 7 9 r s p p p m @.u.a.a.f.-.m f U Y b s ",
"L ;.-.;.;.*.d 5 4 4 G *.K T E } | ' [ 7.X.r. .~ E E N m m N B -.@.{ ' @.T K k d i i r d f x U T B J B ' a.5.a.f.-.Y b N m b f f ",
"H ;.>.;.;.G u > * > 4 d ( | t.l.F.' =.5.X.} } ~ ~ E C U ' t.f.u.a.{ @.a.6.a.-.P P P P P L ( @.{ ' T W 5.a.@.-.-.( N m b M k b J ",
"v *.*.*.P v 5 2 & 2 > 2 z f.d.R.F.0.@.g.0.=._ ) $.} ~ @.a.C.f.a.{ { { a.s.s.-.>.,.,.*.:.P P ^ { #.#.( @.5.{ @.( ^ B b b J K x J ",
"l L P P P z 4 & & > * : i s.`.oX%Xk.@.=.@.| | 5.6.@.5.6.Z.T.l.s.,.-.>.,.d.d.B.K.P.>.;.;.P K W [ a.=.( @.-.a.{ K K B f s J K K J ",
"w G L *.L l * % & & * 4 e ;.OX:XoXF.$.@.} | @.d.f.s.a.C.C.P.T.J.d.V.V.J.B.XXoX&X1.;.{ { W ^ K { ( 5.+.a.{ a.L J K J f s f L K K ",
"w z H P G e * # % % * > e *.,X:X{.l.e.3.=.@.a.d.l.C.d.d.).P.~.{.oXP.V.K.P.P.`.B.,.{ _ W ~ T ' [ 5.a.5.-.a.( J x k s s s x J x i ",
"5 5 c v l w & # % & % : 3 J >X4X{.H.} } =.Z.U.Y.~.Q.l.C.l.S.d.D.J.d.a.d.l.F.6.t.=._ U ~ ~ { @.a.C.C.5.-.J L G f 9 4 < 9 d i 5 4 ",
"% & 2 4 j 5 & O # # % : 3 M 3X5X&Xt.{ f.@X=XOX_.OX_.F.b.F.d.f.6.t.2.5.5.t.5.| _ [ _ [ [ #.5.t.l._.T.{ J f l u e 5 = = > < > > > ",
"O O # * 4 4 : O # # % : < T :X8XB.1.oX>X:X5X8X2XOX%XOX#X_.Q.F.F.g.g.$._ U E ~ #._ 5.t.u.' C.)._.J.a.x x e 4 > 4 : % & 3 3 9 3 r ",
"O O O % * 2 * O O O % = r F.4XeXyXyXwX7X8XyXiXuXyX1XeX8X8X:X+XXX|.E.g.R T T ~ ' =.t.l.C.T.{.{.,.J x e u 4 > & * % O : 7 s d f z ",
". . . # % * & # . O $ < @.OX3XyXpXaXuXyXyXpXuXaXaXaXwXyXuXrX:X:X>X5XoXB.*.K S [ l.E.J.OX:XoX( G x w * * & & O O O # & < 9 r r s ",
". . . O # & % # . X # d s.=X9X9XyXuXuX9XqXqXqXqXtXtXqXqXqXqX<X<X1X<X<X<X<X1.P >.K.L.L.oX-X1.v c j w * * & # O O # # % * 5 3 w u "
};
