/* XPM */
static char *out[] = {
/* columns rows colors chars-per-pixel */
"64 64 213 2 ",
"   c #2B1608",
".  c #4A2415",
"X  c #5C2C1A",
"o  c #68321E",
"O  c #583F2A",
"+  c #763A24",
"@  c #7E3D26",
"#  c #63432F",
"$  c #6E402D",
"%  c #6A4D37",
"&  c #77523D",
"*  c #7F5D46",
"=  c #814A35",
"-  c #8E4B34",
";  c #96523A",
":  c #865540",
">  c #8C5D46",
",  c #9D5943",
"<  c #955F49",
"1  c #A45E45",
"2  c #89664F",
"3  c #9B644E",
"4  c #916A53",
"5  c #9A6F56",
"6  c #AB644A",
"7  c #A16851",
"8  c #AD6D51",
"9  c #A86D58",
"0  c #B36A51",
"q  c #B76F53",
"w  c #A1765D",
"e  c #A7755C",
"r  c #AE755B",
"t  c #B4715D",
"y  c #B97658",
"u  c #A87B63",
"i  c #AE7D64",
"p  c #B77764",
"a  c #BD7564",
"s  c #B27861",
"d  c #B47F64",
"f  c #BB7E63",
"g  c #C1785B",
"h  c #C87E61",
"j  c #C07B6B",
"k  c #AC836B",
"l  c #BE8466",
"z  c #B3876E",
"x  c #BA876A",
"c  c #BF8B6C",
"v  c #B78C72",
"b  c #BC8E72",
"n  c #C38264",
"m  c #CC8566",
"M  c #C78568",
"N  c #C48A6C",
"B  c #CC8C6D",
"V  c #CC8C6E",
"C  c #D18969",
"Z  c #D48C6E",
"A  c #D88F6F",
"S  c #C88973",
"D  c #D38E7E",
"F  c #C39072",
"G  c #C69677",
"H  c #C89172",
"J  c #CC9475",
"K  c #CA997A",
"L  c #CF9C7E",
"P  c #D19071",
"I  c #D09072",
"U  c #D29172",
"Y  c #D09273",
"T  c #D39273",
"R  c #D49374",
"E  c #D59475",
"W  c #DA9472",
"Q  c #DD9876",
"!  c #D79778",
"~  c #D1967C",
"^  c #D89778",
"/  c #D59A7B",
"(  c #D99878",
")  c #D9997A",
"_  c #DB9A7A",
"`  c #DA9A7B",
"'  c #DC9B7B",
"]  c #DB9C7D",
"[  c #DA9D7E",
"{  c #DE9D7D",
"}  c #DC9D7E",
"|  c #DD9D7E",
" . c #E09E7D",
".. c #E29F7D",
"X. c #E2A07F",
"o. c #D89380",
"O. c #DD9E80",
"+. c #DE9F80",
"@. c #DF9F80",
"#. c #D4A082",
"$. c #DFA081",
"%. c #DCA386",
"&. c #D8A485",
"*. c #DCA88A",
"=. c #DFAB8E",
"-. c #DBAB91",
";. c #DFAF94",
":. c #E0A081",
">. c #E2A181",
",. c #E3A181",
"<. c #E0A182",
"1. c #E1A283",
"2. c #E3A282",
"3. c #E4A281",
"4. c #E4A382",
"5. c #E4A383",
"6. c #E5A383",
"7. c #E6A483",
"8. c #E5A484",
"9. c #E6A584",
"0. c #E6A585",
"q. c #E7A685",
"w. c #E7A686",
"e. c #E8A786",
"r. c #E8A787",
"t. c #E0A58A",
"y. c #E3AC8D",
"u. c #E7AD8F",
"i. c #E8A888",
"p. c #E9A888",
"a. c #E9A989",
"s. c #EAA989",
"d. c #EAAA8A",
"f. c #EBAA8A",
"g. c #EBAC8C",
"h. c #EBAE8F",
"j. c #ECAC8C",
"k. c #ECAD8D",
"l. c #EDAD8D",
"z. c #ECAE8F",
"x. c #EEAF8F",
"c. c #E4B195",
"v. c #E9B193",
"b. c #EDB091",
"n. c #EFB090",
"m. c #EEB091",
"M. c #EDB192",
"N. c #EEB192",
"B. c #EFB192",
"V. c #EFB293",
"C. c #ECB496",
"Z. c #E1B49A",
"A. c #E6B599",
"S. c #EAB79A",
"D. c #EEB899",
"F. c #EEBC9E",
"G. c #F0B495",
"H. c #F1B495",
"J. c #F0B496",
"K. c #F1B597",
"L. c #F2B596",
"P. c #F2B697",
"I. c #F2B698",
"U. c #F2B798",
"Y. c #F2B799",
"T. c #F3B899",
"R. c #F2B89A",
"E. c #F3B89A",
"W. c #F3B99B",
"Q. c #F4B99B",
"!. c #F4BA9C",
"~. c #F4BB9D",
"^. c #F5BB9D",
"/. c #F5BC9D",
"(. c #F5BC9E",
"). c #F5BD9F",
"_. c #F5BE9F",
"`. c #F1BFA1",
"'. c #F5BEA0",
"]. c #F6BEA0",
"[. c #F6BFA1",
"{. c #F6C0A1",
"}. c #F6C1A2",
"|. c #F6C2A3",
" X c #F7C2A3",
".X c #F6C3A4",
"XX c #F7C3A5",
"oX c #F2C4A5",
"OX c #F7C4A5",
"+X c #F7C5A6",
"@X c #F7C6A7",
"#X c #F7C7A8",
"$X c #F0CBAD",
"%X c #F4CDAE",
"&X c #F8C8A9",
"*X c #F8C9AA",
"=X c #F8CAAB",
"-X c #F8CBAC",
";X c #F8CDAE",
":X c #F9CEAF",
">X c #EECEB0",
",X c #F3D1B3",
"<X c #F7D1B2",
"1X c #F0D4B6",
"2X c #F6D4B6",
"3X c #FAD3B4",
"4X c #FAD7B8",
"5X c #F1D8B9",
"6X c #F7D8BA",
"7X c #F5DBBB",
"8X c #FADDBE",
"9X c #F6DDC0",
"0X c #F9E1C3",
/* pixels */
";.N.7.9.) H u k i k F #.L -.-.c.c.A.c.c.;.A.c.S.c.F.A.F.F.F.c.S.c.c.A.c.u.Y.V.J.h.B.i.b.i.b.u.a.@.>.8.i.[ <.^ ! I Y E ! I ^ V I ",
"=.s.j.j.e.! N k k v K L &.-.c.;.c.c.Z.c.c.c.c.;.A.c.A.F.F.S.c.c.A.c.c.i.b.P.b.J.b.0.t.t.a.i.0.u.$.[ 5.1.$.| } [ ) E ! E T U E V ",
"F {  .,.3.) x v v F K L #.c.c.c.A.S.-.c.c.c.-.c.c.A.c.c.F.S.;.c.c.c.-.y.M.V.i.u.u.i.<.t.i.i.$.>.>.5.} 1.$.>._ ' ' ' R ^ E ! Z Z ",
"v W Q Q { Y S v c c L L &.-.u.;.A.c.;.-.c.c.;.-.Z.c.;.c.A.c.;.;.c.c.;.-.;.h.u.y.z.i.8.8.l.i.i.0.y.r.1.2.r.| ) ) { ' ( ! E T C Z ",
"x ' Q ' A Y S F v F L #.#.-.c.-.c.c.;.c.;.c.;.;.;.c.;.A.Z.A.c.c.c.c.;.c.y.u.u.C.h.M.h.M.d.b.u.h.i.s.5.r.| ) ! ' ' _ ) ) V Z m C ",
"N { Q Q W Z H F F F L #.&.-.*.c.c.c.c.;.;.-.c.;.;.c.c.c.A.c.c.c.A.A.A.D.D.D.R.D.I.C.G.k.k.d.d.0.9.>.5.<.' E ) ! ' ( ) T V m m m ",
"N @.Q { Q ( J K ~ #.#.&.-.c.-.c.c.c.c.c.c.c.-.A.A.F.D./.F.F.c.S./.|.D.~.W.~.u.b.V.J.u.0.e.d.$.$.X.8.$.4.) ) T ! ) @.E I C m h m ",
"M { X... .Q R / t.t.t.-.c.c.c.A.D./.D.A.D.F.F.).OX|.'.{.OXXXE.`.}.`.R.D.^.B.b.V.G.b.5.>.d.5.2.| $.:.1.| ) ` ( ! } ` T V C M h h ",
"m ..9.e.>.w.5.u.u.G.G.D.D.|.|.|.F.|.`.@X|.+X[.}./.'.|.}.). XE.^.I.R.P.I.G.G.B.V.z.M.z.a.a.i.$...{ 9.9.>.| | _ O.` } T U M h g h ",
"Z  .9.1.e.q.f.V.V.V.C.V.W.Y.{.).{.).'.}.OX/.].G.Y.).).].XXE.P.Y.I.M.G.M.I.V.W.P.H.m.B.a.a.9.>.6.w.a.9.>.| | | | ] } ! Z m h g a ",
"A ,.1.p.d.h.8.d.d.b.a.z.I.).W.(.}.|.R.).|.OXb.V.J.).D./.}.G.l.b.V.W.B.P.Y.Q.).Q.V.V.0.a.0.1.[ 1.2.5.E ^ ` | / ' ) _ I C M n q y ",
"W @.:.1.[ Y N x c c F ~ u.Y.W.R.).!.W.W.{.{.b.u.V.Y.P.Y.(.u.d.d.g.E./.).{.{.!.E.P.b.t./ / J H H S l y l S B M I E E T B m a y y ",
") ) B a 3 < : = $ % % & > x K &.t.b.P.E.P.Y.u.d.u.D.Y.P.i.0.>.0.a.Y.).).W.].W.B.t./ d 5 3 > : > < < < 7 9 8 0 s f B V V f g y a ",
"{ B 0 , 3 3 7 > % o # o $ = < 9 n / 0.B.G.B.a.>.a.b.V.k.0.@.>.>.d.V.Y.B.I.y.J r < : $ X X . . X o + & = > < < < 3 7 9 y y 0 q q ",
">.) M T [ t.&.&.K x 4 > < ; - 3 y N V 1.x.B.8.0.i.s.8.r.w. .A ' 5.d.d.i.J r : $ o X . . . . X o & = + = : > = = > < : ; ; 1 1 6 ",
"e.$.| $.a.a.y.u.M.t.#.J J S f y f n n ! e.f.a.8.d.i.0.8.@.P V V E ^ ) N r ; $ o o X X o $ = 3 d x s 7 7 7 7 < : < < : : : : , 1 ",
"<.1.<.9.:.` ) <.[ :.[ / Y V M N n B V ) X.f.a.e.5.8.8.p.Y n n n n M n 0 ; = + + $ + = 7 s H / [ [ / H H N S l t 9 7 < > : - - 1 ",
"a.1.5.' B y / y.D.D.D.b.0.[ V f 0 f V ) X.a.a.>.9.2.5.8.! a y y t y 0 1 - = = = - , 9 s N S N N n n n n H Y V S n s 7 < < ; 1 6 ",
"x.a.! M t &.c.F.D.D.t.t.#.o.B f 0 0 f P { a.0.7.r.p. .>.` M y y y 0 1 , - - - - - - 1 f n l y y r 6 ; ; , t y N n l r t r y q y ",
"x.a.T 0 M u.u.#.F 9 : $ # & > < 6 6 q f E $.d.a.j.9.8.3.' B n y t 7 ; - - = + o - w x S J H c f l t 9 < @ o - s S N n f M B h h ",
"' a.) y N K r & . . . .       . + - 1 y M ) a.P.b.x.k.e.) I n t 1 1 - = + o X : < : o X . . . O o $ & & $ o X < S Y n n f n g f ",
"U ` T M d = .   . . # .       . O o + , n R f.).OX!.E.b.e.I y 1 , , - + o . o + o .   .                     . o 9 r 0 f M P I m ",
"C M 8 ; @ = + : > > > % O X X : > + + + 0 X.f.OX<X*X/.Y.l.U 1 , 1 ; @ @ + X o = < 5 & % O # # % & & $ & $ o X + 1 7 y ` >.0.B t ",
"..^ f 0 f [ 0.` 8.[ J c c c l n f r r n T b.P.*X4X=X|.Y.0.M 1 , 6 , , r r s M T ` [ / H l s p n V n r 6 6 8 t y 1 8 f y n n 8 t ",
"a.x.l.b.) { e.f.w.r.1. .R E V E Z Z T ( 1.E.{.;X<X4XOXW.>.n 1 1 0 f a ! { @.) ) ! >. .{ Z C C C h h h T Z T m 1 ; T | P 8 0 f n ",
"l.b.Y.H.L.d.X...! Z m C P Z Z C Z n y M V.{.@X<X<X:X|.Y.>.h 0 0 y C )  .e.f.X.Y M h n n n g 0 6 q a h g y , = , M P ^ $.^ ! n s ",
"d.E.P./.).}.1.Z h h g m m m q 0 6 0 V D.*X*X|.;X<X:XE.b.` M y n M B ^ e.f.j.d.j.@.B 1 , 1 1 , , , ; @ = - 6 M @.>.) M T >.e.M s ",
"B.P.E.W.|.{.{.b.0.Z g 6 6 6 1 t T G.OX|.=X=X;X-X:X;XE.9.T M C Z ) Q X.9.f.a.x.G.Y.I.H.t.t.` Y B M M B ` i.d.i.r.r.) B M >.9.S l ",
"x.G.E.{.|.;X-X@X/.Y.V.x.9.i.V.{.OX-X=X=X+X-X;X<X<X@XV.>.m m m W X.f.6.p.w.s.l.P.G.I.P.).W.{.W.(.R.).b.E.l.l.0.k.w.5.) P T | I B ",
"B.P./.{.*X*X;X:X=X/.W.Y.^.^.@X@X#X=X*X*X=X<X4X<X*X{.b.' C M C Z A Q Q >.9.a.x.G.Y.H.L.E.{.{.].'.{.].W.Y.b.e.>.9.6.8.8.) P ^ T B ",
"G.Y.E.|.*X<X*X:X;XOXG.Y.Q.-X@X@X@X&X|.<X:X4X4X4X@X/.e.{ A Z h h g g q y y C { B.E./.G.Q.OX@X{.OXXX#XP.Y.B.l. .X.7.f. .X.^ | I H ",
"P.Y./.{.-X<X4X<X;X{.P.Q.OX-X-X#X*X#X;X<X4X8X8X-XOXP.f.9.e.Q m y y g h q 1 , 0 R x.E.P./.@X|.(.}.+X{./.G.x.a.9.p.p.w.$.,.' ' P V ",
"l.P./.|.@X4X4X6X;X@X|.#X}.;X-X;XXXXX}.<X<X0X0X<X{.G.x.L.n.d.A h g A Q ( m 1 - 1 f @.l.E./.{.(.XXV.W.H.b.l.f.a.f. .r...>.' ^ I Y ",
"f.V./.).@X;X<X;X3X@X|.@X&X-X#X/.P.Y.|.*X4X8X3X;X{.P.G.H.L.e.A h m ..9...W y ; - , 0 V 1.B.P.E.H.E.J.V.e.a.s.f.i.e.7.$.| | E V V ",
"w.V.V./.|.@XOXXXXX|.Y.).{.Y.@.W Q P.).-X4X8X<X*X{.).D./.x.T y g Z Q T C h 0 1 8 6 1 6 M @.d.d.l.l.k.w.1.5.d.4.5.8.>.! | [ ! M C ",
"p.l.B.P.E.Q.Q.E._.l.9. .Q m q q 5.).OX;X8X4X4X;X-X|./.b.I 0 1 1 1 , ; - , 1 0 y y y 0 8 n R  .X.a.w.{ ,.5.>.@.@.$.` / J ` T C B ",
"3.d.x.E.V.I.H.l.e.$.Z g 1 ; 1 >.OX-X+X<X8X0X0X0X;X@XV.U 6 - + + + + + = ; , 1 0 0 q y y 6 y M ! ! ^ ! ^ E ' ' ` ! ! Y Y I R C P ",
"X.6.f.l.b.l.f.{ E m q , - 1 [ {.;X<X:X4X0X0X0X8X-X/.! 6 - + + + + + + = = = ; - , 6 8 6 6 1 1 f V T U I V I T T R E J S H E Y Z ",
"' w...9.f.d.E C h 0 ; - 8 t.D.*X<X4X-X3X4X4X@X|.W.t.0 ; @ + o + + + $ + = = = = = ; ; ; ; ; - < t T R Y I I M B V I N n Y ` I Z ",
"' ' ' ..9.' m g 8 ; = 1 ) V.|.*X<X4X;X-X*X|.V.[ Y y ; = @ + + + + + @ = - : = + + = - - - + = @ = 9 J ^ ` P V B V V B f R T C m ",
"T ! W { ' E h 0 ; ; , M [ D.|.@X|.XXD.B.b.G.0.I 6 , - - - - - - = - = - ; 3 - = = = = - = = + + $ + 3 N T E V T B T H l V E P C ",
"T E ^ W Q Z q 1 ; ; y Y 1.G.u./ / [  .+. . .O.M 6 ; 1 l M 6 1 ; ; - = = ; < ; - - - - ; ; > > = + + @ , l P P I E / Y l J T C C ",
"T ) Z Q W C 8 , , 1 l S / >.n y y V B B f y 7 - @ - 0 V U N y 1 , ; - - , ; ; ; ; ; - , 1 1 < > = @ $ @ , M V ! [ &.J c J ~ B Z ",
"Y ^ ! W T m y 1 , 6 l f H n 8 6 0 f f a 8 6 , - , M ) ) ! Z n q 6 1 ; , q 8 8 6 6 1 , 1 6 1 1 , > @ + + - 6 V ! t.t./ c J / V C ",
"B ` ) { V g a 0 , 8 n n n s 7 9 8 y f m 0 t 8 r N d.b.d.) E m h g y y y g h h h y 0 6 6 6 1 1 1 > = + = - , M ` [ [ ~ F F J N S ",
"S / >.5.! a l n 8 t V d s r 9 9 y f n M f y M P R ^ ..>. .W T m m h h g q y g q 6 , 1 1 ; - = = @ = > 3 9 1 V ) [ / J F F J N N ",
"S [ 1.u.9.V y B n d N s , ; ; ; , 1 6 g m P M C C Z S T P m y q 0 1 ; ; ; , - - = - + + o o o + = 7 f V N y V )  ./ c F K H l c ",
"F / >.u.M.| y n / n N y 6 ; @ + - ; 1 0 y q 0 q y y q 6 6 1 ; ; ; - - - - ; = = - - - - - , , 1 9 B ' | P f T ! ) H l c K F M M ",
"G / / u.z.u.Y y H E S B f d s s t f h M h h g y q q 0 0 0 a p a p j p y q 0 0 8 6 0 q q 0 q q g C >.' | M B ) { S c x F l F H I ",
"K &./ #.u.b.1.n l / E V Z P V I M h T W ! E o.o.D T o.D o.Y S n n h y t a t y t y y y 0 0 y n Q a.@.) P n I | T c d x x c H J ~ ",
"#.*.L &.t.b.i./ y N T T U ! Z E Z M a n l l n J H J M S H V x r w w 3 7 9 9 7 9 t t 6 8 t M ^ d.l.9.! M f ) I M f f s c K ~ J H ",
"#.*.&./ &.&.&./ n t V ! { _ ! ! E M t t t 8 r y f f s f f s r 7 7 3 > > 7 7 7 7 r 8 8 t M ` 0.u.j.>.R a M ) N d s s f F / / H N ",
"K *.&.*.L F x K H f y | $.X.' | Z M y f t t y f n n l N d d r 9 3 3 < 7 3 7 7 8 9 t y M ! d.u.k.0.9.B n B U l s r f F J ~ / J / ",
"H #.*.&.L d 5 r v H M ! e...' ( T n y y f n I E E I V I N d r 9 7 3 7 7 9 r d f f l N E 0.a.i.i.y.) n C P n s f x c F H ~ K ~ ~ ",
"b #.L #.K d > > 5 s S ~ e.l.' | Q Z t y M E 1.u.0.t.! / J H n f f N d c N J H E Y J I $.i.h.t.t.y.T n I V d s c K F c H J [ [ <.",
"z K L L K d 4 & 2 > f [ V.C.X.{ ..Z h n ) 0.B.u.i.| ) } [ [ / L L ~ L #.t.#.E / / ~ [ t.i.u.8.1.t.Y J V l 9 7 9 H F F F J / %.y.",
"w F K L F u * % & & 4 ~ D./.a.X.>.>.P ^ 0.E.J.G.V.z.t.t.1.y.*.t.*.c.u.c.*.&.E Y R ` ! 1.[ 1.i.u./ / E H d r 7 9 d J H H F #.&.&.",
"w z G K c w & % % & 4 d c.|.W.0.9.a.e.>.x.P.T.Q.^.U.P.J.D.D.D.C.A.D.c.[ t.1.<.) ! E ! @.<.i.V.h.y./ J c d i e w 7 r l F K F x r ",
"5 w v b d 5 # # % & & 5 ~ ;X|.V.a.a.9.i.d.x.V.Y.~.).C.D.R.{.P.V.v.V.>.t.<.0.) ) ! ` ! | u.W.n.I.t./ d x x k u w = 3 9 d d 5 4 4 ",
"% & 4 5 k 4 % O # % & > f OX;XY.d.5.$.i./.W.P.G.I.U.g.i.u.d.i.1.0.p.1.] +._ ) ! } | { 0.k.I.G.u.#.F r 5 d w 4 5 * + > > > > < 4 ",
"O O # * 4 4 & O # # & : 0 W.:X).&.y.!.#X@X*X}.{.).W.G.Y.m.h.d.0.1.@.T E E ) ` >.<.8.[ V.B.^./.i.F d d 5 > > > 4 # # > < < 9 3 d ",
"O O O % * 2 & O O O & : f _.*X<X6X4X3X3X3X6X6X4X3X;X=X+X@X/._.~.P.k.[ Y Y E ( +.$.0.B.I.]._.A.J F u u 5 4 : & & # # < 7 r d f x ",
". . . # % * & # . O $ < O.'.*X6X9X0X7X6X6X9X7X0X0X0X2X6X7X4X+X#X@X-X`.c.#.H S +.h.K.C.`.+XF.L F c w * * & & O O O # & < 9 r r d ",
". . . O # & % # . X # d y..X:X,X7X7X7X,X1X1X1X1X5X5X1X1X1X1X>X$X%X$X$X>X$X;.L *.A.S.F.F.oX;.b v v w * & & # O O # # % * 5 5 w u "
};
