/* XPM */
static char *out[] = {
/* columns rows colors chars-per-pixel */
"64 64 229 2 ",
"   c #2B1608",
".  c #4A2415",
"X  c #5C2C1A",
"o  c #68321E",
"O  c #583F2A",
"+  c #763A24",
"@  c #7E3D26",
"#  c #63432F",
"$  c #6E402D",
"%  c #6A4D37",
"&  c #77523D",
"*  c #7F5D46",
"=  c #814A35",
"-  c #8E4B34",
";  c #96523A",
":  c #865540",
">  c #8C5D46",
",  c #9D5943",
"<  c #955F49",
"1  c #A45E45",
"2  c #89664F",
"3  c #9B644E",
"4  c #916A53",
"5  c #9A6F56",
"6  c #AB644A",
"7  c #A16851",
"8  c #AD6D51",
"9  c #A86D58",
"0  c #B36A51",
"q  c #B76F53",
"w  c #A1765D",
"e  c #A7755C",
"r  c #AE755B",
"t  c #B4715D",
"y  c #B97658",
"u  c #A87B63",
"i  c #AE7D64",
"p  c #B77764",
"a  c #BD7564",
"s  c #B27861",
"d  c #B47F64",
"f  c #BB7E63",
"g  c #C1785B",
"h  c #C87E61",
"j  c #C07B6B",
"k  c #AC836B",
"l  c #BE8466",
"z  c #B3876E",
"x  c #BA876A",
"c  c #BF8B6C",
"v  c #B78C72",
"b  c #BC8E72",
"n  c #C38264",
"m  c #CC8566",
"M  c #C78568",
"N  c #C4816F",
"B  c #C48A6C",
"V  c #CC8C6D",
"C  c #CC8C6E",
"Z  c #D18969",
"A  c #D48C6E",
"S  c #D88F6F",
"D  c #C88973",
"F  c #D08B78",
"G  c #D38E7E",
"H  c #C39072",
"J  c #C69677",
"K  c #C89172",
"L  c #CC9475",
"P  c #C09379",
"I  c #CA997A",
"U  c #CF9C7E",
"Y  c #D19071",
"T  c #D09072",
"R  c #D29172",
"E  c #D09273",
"W  c #D39273",
"Q  c #D49374",
"!  c #D59475",
"~  c #DA9472",
"^  c #DD9876",
"/  c #D79778",
"(  c #D1967C",
")  c #D89778",
"_  c #D59A7B",
"`  c #D99878",
"'  c #D9997A",
"]  c #DB9A7A",
"[  c #DA9A7B",
"{  c #DC9B7B",
"}  c #DB9C7D",
"|  c #DA9D7E",
" . c #DE9D7D",
".. c #DC9D7E",
"X. c #DD9D7E",
"o. c #E09E7D",
"O. c #E29F7D",
"+. c #E2A07F",
"@. c #D89380",
"#. c #D89982",
"$. c #DD9E80",
"%. c #DE9F80",
"&. c #DD9986",
"*. c #CFA186",
"=. c #D4A082",
"-. c #DFA081",
";. c #DCA386",
":. c #D8A485",
">. c #D7A88D",
",. c #DCA88A",
"<. c #DFAB8E",
"1. c #DBAB91",
"2. c #DFAF94",
"3. c #E0A081",
"4. c #E2A181",
"5. c #E3A181",
"6. c #E0A182",
"7. c #E1A283",
"8. c #E3A282",
"9. c #E4A281",
"0. c #E4A382",
"q. c #E4A383",
"w. c #E5A483",
"e. c #E6A483",
"r. c #E5A484",
"t. c #E6A584",
"y. c #E6A585",
"u. c #E7A685",
"i. c #E7A686",
"p. c #E8A786",
"a. c #E8A787",
"s. c #E9A887",
"d. c #E0A58A",
"f. c #E3AC8D",
"g. c #E7AD8F",
"h. c #E8A888",
"j. c #E9A989",
"k. c #EAA989",
"l. c #EAAA8A",
"z. c #EBAA8A",
"x. c #EBAB8B",
"c. c #EBAC8C",
"v. c #EBAE8F",
"b. c #ECAC8C",
"n. c #ECAD8D",
"m. c #EDAD8D",
"M. c #EDAE8E",
"N. c #ECAE8F",
"B. c #EDAE8F",
"V. c #EEAF8F",
"C. c #EDAF90",
"Z. c #EEAF90",
"A. c #E4B195",
"S. c #E9B193",
"D. c #EDB091",
"F. c #EFB090",
"G. c #EEB091",
"H. c #EDB192",
"J. c #EEB192",
"K. c #EFB192",
"L. c #EFB293",
"P. c #ECB496",
"I. c #E6B599",
"U. c #EAB79A",
"Y. c #EEB899",
"T. c #EEBC9E",
"R. c #F0B293",
"E. c #F0B394",
"W. c #F0B495",
"Q. c #F1B495",
"!. c #F0B496",
"~. c #F1B596",
"^. c #F1B597",
"/. c #F2B596",
"(. c #F2B697",
"). c #F2B698",
"_. c #F2B799",
"`. c #F3B799",
"'. c #F3B899",
"]. c #F2B89A",
"[. c #F3B89A",
"{. c #F3B99A",
"}. c #F3B99B",
"|. c #F4B99B",
" X c #F4BA9C",
".X c #F4BB9C",
"XX c #F4BB9D",
"oX c #F5BB9D",
"OX c #F5BC9E",
"+X c #F5BD9E",
"@X c #F5BD9F",
"#X c #F5BE9F",
"$X c #F1BFA1",
"%X c #F5BEA0",
"&X c #F6BEA0",
"*X c #F6BFA0",
"=X c #F6BFA1",
"-X c #F6C0A2",
";X c #F6C1A2",
":X c #F7C2A3",
">X c #F6C3A4",
",X c #F2C4A5",
"<X c #F7C4A5",
"1X c #F7C4A6",
"2X c #F7C5A6",
"3X c #F7C6A7",
"4X c #F7C8A9",
"5X c #F0CBAD",
"6X c #F4CDAE",
"7X c #F8C8A9",
"8X c #F8C9AA",
"9X c #F8CAAB",
"0X c #F8CBAC",
"qX c #F8CCAD",
"wX c #F8CDAE",
"eX c #F9CEAF",
"rX c #F3D1B3",
"tX c #F7D1B2",
"yX c #F0D4B6",
"uX c #F6D4B6",
"iX c #FAD3B4",
"pX c #FAD7B8",
"aX c #F1D8B9",
"sX c #F7D8BA",
"dX c #F5DBBB",
"fX c #FADDBE",
"gX c #F6DDC0",
"hX c #F9E1C3",
"jX c #FBE5C7",
/* pixels */
"2.J.t.y.' B k k e u J U U >.1.2.<.A.A.A.2.A.2.A.<.A.A.U.T.Y.U.U.<.A.2.A.f.g.v.E.v.D.f.f.h.D.v.v.r.y.q.h.q.q.] X./ ` Q ] ) ! Q W ",
"<.z.m.b.u.Q d k u u b J *.:.>.1.2.<.2.A.A.2.A.2.<.2.A.2.Y.U.U.2.A.<.A.A.<.<.g.g.n.c.h.f.f.r.h.f.c.y.i.q.k.q.+.{ { ]  .]  .] ! A ",
"J O.+.t.0.] f d u k x U >.<.>.<.A.I.<.I.U.U.2.A.A.U.2.I.T.$XA.A.A.I.<.U.U.!.f.H.E.E.c.v.n.R.j.c.k.j.6.u.a.k.` { ' X.) X. . .R A ",
"c ^ ^ O.9.` M f n T h.!.@X$X@X@X1X2X*X1X8X7X%X$X;X&X%X$X7X1X*X%X&X.X|.$X%XXX~.E.].Q.E.D.E.K.n.b.F.c.y.q.s.9.[ ` X.] ] o.O.) W A ",
"H ^ ~ ` ] } T V l K T ! E ..f.].&X1X%X1X>X2X*X;X[.%X].+X>X1X@X:X|.oX]..XW.].E.~.V.E.D.K.z.c.h.z.i.i.t.r.o.7.' ] ] ]  .+.` S A A ",
"J ~ A ~ ` E s < > : * & = * 7 L v.].+X&X:X-X:X&X.X_./.].+X-X;X_.|.].[.].E.K.F.Z.K.Q.K.n.n.9.t.u.p.7.4.+.t.w. .]  .] %. .` R Z Z ",
"J o.Z S m 7 = : : : # X X O X = i ( ;.!.:X:X X%X[.`.n.(.=X1XXX].E.E.F.^.K.R.j.K.L.[.Z.M.n.h.e.u.t.9.{ O.k.h.] ' ..-.' X.] R M m ",
"J  .Z m g t l | g.A.*.i 4 & = = < 9 f ! v. X.X[./.n.z.v.=X&X].E.K.b.v.Q..X(.K.W.OX(.L.C.!.n.k.q.t.9.O.9.x.p.+.} 6.%.-.%.{ T m n ",
"b w.^  .~ h.(.XXXX1X+X>XA.>.P l e 8 p T _ c._.|.B.b.h.K. X@XL.L.h.c.j.E.^.+X|.-X].+X!.R.c.c.r.q.3.7.u.k.u.p.t.6.} 3.} 6.` Q m h ",
"x q.i.s.n.E.Q.^.)..X;X&X@X].P.h.' D n C ' ..F.K.V.h.f.C./.[.g.j.y.q.i.b.].*X>X-X%X|.!.v.g.q..._ ' ' ] '  ...%.' %.$.%.o.] A m y ",
"b j.9.j.n.K.a.Z.K.!.g.P.W.H.t.f.$.+.! ! ' 7.7.L.b.F.q.C.v.E.h.r.4.q...f.(..XW.K.<.U B c d e 7 7 7 s r s p B n C Q ' / } { ` g a ",
"J ,.k.9.a.k.i.] C ' -.q.h.6.} ' Q T Q ' 6.q.t.m.K.b.j.z.K.B.i.' / / / -.z.n...n e : + $ $ X X X X o + : < 7 s p n n n T ' T g y ",
"J <.n.z.9.9.` f Q ^.|..XP.F.t.9.T n f m ) w.h.F.x.c.z.n.z.b.k.R M C D E T T f 3 = $ X X . . . . . X X $ $ = : < < 3 7 t f M y g ",
"J ,./.K.p.] n M ].@XW.h.7.7.-.-.' m q 8 h ` p.z.Z.k.h.c.h.n.k.Z f n n M n t 7 = $ + X o X X o $ & < < > = = : > - > - > < ; 7 8 ",
"K $.j.E.k.E y -.P.;.9 < : : > 7 p g q q y m Q 9.V.F.q.k.j.x. .T f l y f p 0 ; - = @ @ = > 7 s B ( | ! C f s 9 7 < - - > ; > = < ",
"U | p.c.b.C n _ u # . . . O . . X = , 6 0 f m ` z.W.n.i.n.k...T M f f t 8 1 ; - ; ; ; , t f B K ! ! ! E Q E T D D p 7 < , : = = ",
"U =.%.n.q...B 7 .     . # 5 .     . X + - 8 M ) +.E./.K.n.n.+.` n f t 6 , ; - - = = + - 1 f n n t t 8 6 9 y n T B B l f 9 7 ; ; ",
",.7.R C n 8 - = = $ $ + % # .     . X X o @ 8 ) +..X1X%XL.W.z.] M t 6 , ; = = @ o o > i B E { E L D n p 8 ; = ; 8 n l l f p t p ",
"f.r.Q S Z n 0 R t.! D n e < $ O X # : + + + =  .p.+X7XwX1X;XF.+.n 6 ; ; - = + X X - < : X $ O X # = : < 7 7 : o o e l m C M f n ",
"=.h.K./.(.b.9.^ t.F.j.c.r.` l d d s 8 9 8 p Z z.[.;XeXiXiX1XW.' y , 1 , - - + X $ $ $ o . .             . . . X X X s C M f f y ",
"_ 6.F.E.F.R.K.n.+.k.h.q.+.i...' T Z Z Q R  .) E.+X7XpXpXiX7Xn.E 8 1 1 6 , t y 8 6 p p d i w % O . X . . . . .     . : 7 1 n T  .",
"3.q.b.F.`._.[.|.E. .` S Y A A A A Z m h g y o.XX4X0XsXpXwX;Xv.Q q 1 8 n m T o.t.9. . ...6.$.E f s s d 9 3 < : = $ = 6 6 n T o.3.",
"n.M.z.V./..XXX;X>X(.` h y g g g y 0 1 6 n g.%X4X0XiXwXeX4X@Xq.Z g y g M ` t.o.t.t.` M Q ) o.m m m m g n M M M M D m , 8 T M 0 0 ",
"b.j.k.K.&X&X%X4X0X7X.XK.q.m y q y f C f.7X9X2X8XeXeXwX4X7XE.' m m m m Y ) t.a.k.V.b...g 6 1 1 0 0 6 6 0 g h g q 1 - 1 m o.6.n y ",
"c.z.F.^.XX%X;X4X8XwX1X*X|..XW.|.!.+X>X8X1X9XqXwXwXiXwX0X+Xb.S m m A ) +.o.p.z.b.k.R.W./.h.Q y 8 1 , ; - - - = - , g ` Q Z 3.../ ",
"K.F.E.XX&X1X8X0XeXeX8X1X=X&X+X*X1X1X1X2X4XqXeXeXiXsXwX1X].t.Q m m Q ^ h.z.z.x.k.b.V._.).[.+X+X|.W.h.' Q / _ ..q.z.t.9. .C T o.] ",
"/.Q.B.+X&X7X7XwXpXsX7X2X;X&X(.;X9XwX-X;X0XiXtXiXpXiX1X+XE.p.Q A Z A m A Q ^ S 9.V.E.R._.OX+X X%X%X>X]..X+X+XE.F.x.h.O.+. .W Q ' ",
"/.Q.Q. X:X1X8XwXsXsXwX2X:X+X*X8XeX9X1X1X8XwXtXpXgXsX>X(.E.k.+.' Q m g y y 0 6 q A p.K.).-X&X*X>X3X2X&XXX&X.XL.b.z.u.9.q.k.' Q ' ",
"b.E.E.+X+X7X8XeXsXfXiXwX8X7X7XtXqX7X2X3X1X8XeXsXfXsX%X|.V.b.b.V. .m y h Z m q , , y ] XXXX<X+X1X1X3X>X7X.X+X/.K.p.a.e.t.O.+.R ' ",
"b.n.K.].+X2X7X0XeXiXeXqX7X7X8X1X7X%X(.E..X7XeXsXgXiX7X].R.R.H.V.+.A g Z 9.9.^ h , - 6 T h.K..X;X9X3X1X:X*X.X(.V.F.z.t.r.9.%.] ! ",
"z.k.k.(.=X:X X1X3X0X;X>X+X|.n.F.t.S g  .%X0XwXdXfXiX;X X[.&X!.+.A m h ^ z.p.` A 8 ; = , y ] h.!..X;X).[.[.[.n.x.K.z.q.k.p.+.Q ' ",
"z.k.k.V.|.OX XXX+X@X^.K.n.+.Q M q , n !.7XwXeXsXgXiX0X>X>X%Xi.m q q y m m h y 0 6 6 6 , 1 0 T 6.F.).L.n.Q.N.z.k.b.a.e.t.y.9.' R ",
"9.t.k.V.E.|.|..XW.K.h.+.T h 6 - - n ^.9X7XsXsXhXhXhXsXwX&Xv.M 6 - = = = @ = - , , q y y q 0 0 M ` 9.t.b.a.x.a.c.q.u.t.p.3.9.} ' ",
"9.t.z.b.K.E./.K.c.9.S Z y 1 - - D ^.9XwXiXpXgXjXhXhXtX8Xv.M 1 = $ $ + + + @ - - ; , 6 0 y y q 0 y M !  .q.7.q.7.+.q.7.9.+.] ' R ",
"6.u.o.0.k.F.c.b.O.A g 0 , - , ! ].7X8XsXdXhXsXsXiX8X].E.C 6 = @ + + o o $ @ + = - ; - , 8 0 6 6 , 8 f T ] ] Q ) ' 6.! _ ..' T C ",
"O.+.O. .t.a.p.] Q g 0 ; - ; m f.;X0XwXiXeXqX1X1X%Xg.! M 8 - + + + o $ o + @ + = - = $ @ ; ; - - - - > s Q R T T ! ! R W ! E T C ",
") { ^  . .O.o.^ h q , - - g ! g..X1XU.$Xv.v.g.!.v.r.y 1 - - = = @ @ + @ @ - = ; - + + @ = - = = + = + = 8 W ' Q C T T W B B E W ",
"/  .^ ^  .^ ^ A g 6 ; ; 8 W ! f.f.E l T o.] ' `  .W f 1 6 y M q ; ; - - = = - ; < = = = = - - = + $ + $ = 8 T / T C T T T B Q R ",
"Q ] Q  . .^ S m q 1 ; , n W B $.B p 8 f C C n t 0 1 @ @ 1 M T M y 8 ; ; - - = - ; - = - - ; - > > : + $ $ = , M T Q C E ! D T A ",
"C ) ]  . .^ A m f 1 ; , D B n l p 8 8 t n n y 1 6 ; - t -. .` T Z g 6 , , ; ; ; , , ; ; , , ; 7 7 3 : + $ + @ , m R T _ $.D C Z ",
"l R ' 7.o. .m n f 8 ; 6 M B B f 9 9 8 t f m n 8 8 8 f 7.E.E.9. .Z m y q 6 6 8 g q y 0 8 1 6 6 6 3 7 ; = + @ + = y W ' -.o.C Q T ",
"l R } 7.e.+.m f m f 6 8 E f s r r 8 t y M M Z M C ! ' ] q.z.k.o.S m m m h h h g m m h q 0 0 q 6 1 1 < - @ = = ; 1 T $.;.7.E T Z ",
"c ( | j.J.F.T t C ! y t _ n , < , , ; , 8 g h Z ~ ~ Z Q ) ` S A Z m y y y y 0 q q 0 , , 1 , ; - = = + @ = < 7 1 1 / | ;.;.( C Z ",
"x L ;.B.].R.+.f f _ K y C l 8 , - @ @ - , 6 q q q y g g h g y q 8 1 , ; ; ; ; - ; = = @ = = + o + + + = 6 l C y y $.| ' L L E V ",
"f E d.Q.W._.c.Q p E ..D M m f l t y t g g h h h g g t g y y a N a N j N a a q 8 6 1 , , , 1 , 1 , , , y S o.+.n n X._ _ H L V m ",
"x c ;.D.L.(.^.7.f l } ' ! ! T Q T T Z h m Q ' #...G G #.#.#.$.#.#.G F D N N g a N g q g g y g 8 0 q n o.t.o./ n T { _ K J L B B ",
"I U L j._.].R.v.D f D  .] T C T ) ` Q Z m ` ! ! ! &.G G #.#.@.#.G N s a t 7 8 q 8 y q q q y 6 6 g A 9.b.t. .M M 7.t.T c J K l B ",
"I U L | J.(.L.C.f.f p o.+.) T Z ~ ) ) A M f y t y p a p p s t t p 9 3 < < < < < 7 7 8 0 0 0 6 8 Z q.F.h.+.' f M q.] l l c C B B ",
"L :.=.} q.J.J.~.h.B 8 T 8.9.]  .A S Z m n y 8 9 7 7 e 9 9 9 9 e 7 7 < 4 > < > < < 7 7 8 8 8 q M ] L.n.r.' Q y Q ! T f c x L K W ",
"U :.:.=.:.f.C.n.g.B 9 f 6.u.p.] ^ ) Q m n y t 8 6 8 r y f f s r e 7 3 > > > < < 3 3 7 9 8 y M Q c.v.h.q.+.n M ) T f s x L D ( _ ",
"*.,.*.:.-.;.' | q.| s 8 ! k.q.9.^ ^ A m n f y y f n f M D D p s r 9 < < < < > 3 9 s 8 y f C | b.K.C.r.g.! n R ! B s s K L ( E L ",
"=.:.=.;.:.U f l d.' C y E a.t.r. .^ Q h g n f n  .r.o.' ..! m n p r 9 7 9 9 t f D D M M T ..c.S.P.v.h.6.M m R C f s c H _ U B l ",
"I :.;.;.U J w 4 d K ! Q ! z.b.y. .O.^ m g h C 7.n.V.b.i.t.r.] _ C B f D K ( _ 6.' q.$.' _ r.v.S.f.S.f.T l Y C f s l J U L I L _ ",
"J :.>.:.:.x 5 & 4 s _ 6.t.b.K.o.9.9.^ Q S ) i.D.E.n.h.+.y.h.f.h.f.;.,.d.f.g.g.f.d.-.} ' 6.g.g.f.f.f.$.V Y R l f H K J L ( _ | ( ",
"b =.U :.U b 5 & 2 4 d h.R.(.!.r.9.K.q.^ 9.b.W.Q.(.L.b.z.j.D.g.j.g.g.g.P.S.P.<.f.$.$._ $.h.h.6.q.f.g.T T W B 9 x J c c K _ ;.d.;.",
"z I U U U x 2 % 2 2 w =.&X-X%Xx.9.V.z.t.k.b.W.].XX].W.D.(.D.v.S.Y.*X-X;X>XU.g.7.$.| -.9.y.6.q.r.g.;._ E K r 9 s L K b c _ | d.f.",
"w H I =.J d & % & & 4 J ].2X1X|.9.w.k.k.6.n./..X@X%X X X$XXX].>X$X;X;X@X<.$.f.7.6.] / 7.7.h.f.S.h.;._ K d i 9 s f ( L K L | ;.,.",
"w x I U c w & % & & 4 i A.0X7X@Xn.w.k.z.k.B.'.P.W.(.|..XXX%X-X;XY.S.v.g.i.h.r.7.] ! ' %.h.h.B.H.f.=.c H k k i 9 7 p B K I U x i ",
"5 w b x d 5 # # % & * 3 L eX4X%XE.h.+.i.N.(.E.Q.Q.[.c.D.D.F.d.g.h.n.q.r.q.q.' ] ] %.] 7.N.(.E.].<.U e v x z u 9 = 3 9 d d w 4 4 ",
"% & 2 5 u 5 # # # % & > c 1XwX-Xv.7.j.XX4X1X}.{.@X(.G.N.!.c.e.5.6.} } ' X. .' ] t.f.' 6.Q.OXoXP.=.c u 5 u 5 7 5 & & > > > < 2 > ",
"O O # * 4 4 % O # # & > p *X9X$X:.U.1X0X9XeX7X7X%X;X#XOXR.!.J.K.y.3.W T T / ] t.r.h.7.D.E.-XXXd.H d z 4 4 * 2 4 % % > 3 3 7 7 i ",
"O O O % * 2 & O O O & - l #XeXiXsXsXuXtXiXsXgXdXtXeXiXeX8X-X&XXX[.!.-.L E ( / %.7.l.L.).-X;XS.J H u u 4 > * * & O # < 7 s d f x ",
". . . # % * & # . O $ < $.%X8XsXgXhXdXsXsXgXdXhXhXhXsXsXdXpX2X2X3X0X$XA.=.L D } v.^.J.$X2X$X_ H c w * * & & O O O # & < 9 r r s ",
". . . O # & % # . X # d f.>XrXrXsXdXdXrXyXyXyXyXaXaXyXyXyXyX5X5X6X5X5X5X5X2.U ,.I.T.T.$X,X2.b v z w * & & # O O # # % * 5 3 w u "
};
