/* XPM */
static char *out[] = {
/* columns rows colors chars-per-pixel */
"64 64 224 2 ",
"   c #2B1608",
".  c #4A2415",
"X  c #5C2C1A",
"o  c #68321E",
"O  c #583F2A",
"+  c #763A24",
"@  c #7E3D26",
"#  c #63432F",
"$  c #6E402D",
"%  c #6A4D37",
"&  c #77523D",
"*  c #7F5D46",
"=  c #814A35",
"-  c #8E4B34",
";  c #96523A",
":  c #865540",
">  c #8C5D46",
",  c #9D5943",
"<  c #955F49",
"1  c #A45E45",
"2  c #89664F",
"3  c #9B644E",
"4  c #916A53",
"5  c #9A6F56",
"6  c #AB644A",
"7  c #A16851",
"8  c #AD6D51",
"9  c #A86D58",
"0  c #B36A51",
"q  c #B76F53",
"w  c #A1765D",
"e  c #A7755C",
"r  c #AE755B",
"t  c #B4715D",
"y  c #B97658",
"u  c #A87B63",
"i  c #AE7D64",
"p  c #B77764",
"a  c #B27861",
"s  c #B47F64",
"d  c #BB7E63",
"f  c #C1785B",
"g  c #C87E61",
"h  c #C07B6B",
"j  c #AC836B",
"k  c #BE8466",
"l  c #B3876E",
"z  c #BA876A",
"x  c #BF8B6C",
"c  c #B78C72",
"v  c #BC8E72",
"b  c #C38264",
"n  c #CC8566",
"m  c #C78568",
"M  c #C4816F",
"N  c #C48A6C",
"B  c #CC8C6D",
"V  c #CC8C6E",
"C  c #D18969",
"Z  c #D48C6E",
"A  c #D88F6F",
"S  c #C88973",
"D  c #CC8A78",
"F  c #D08B78",
"G  c #D38E7E",
"H  c #C39072",
"J  c #C69677",
"K  c #C89172",
"L  c #CC9475",
"P  c #CA997A",
"I  c #CF9C7E",
"U  c #D19071",
"Y  c #D09072",
"T  c #D09273",
"R  c #D39273",
"E  c #D49374",
"W  c #D59475",
"Q  c #DA9472",
"!  c #DD9876",
"~  c #D79778",
"^  c #D1967C",
"/  c #D89778",
"(  c #D59A7B",
")  c #D99878",
"_  c #D9997A",
"`  c #DB9A7A",
"'  c #DA9A7B",
"]  c #DC9B7B",
"[  c #DB9C7D",
"{  c #DA9D7E",
"}  c #DE9D7D",
"|  c #DC9D7E",
" . c #DD9D7E",
".. c #E09E7D",
"X. c #E29F7D",
"o. c #E2A07F",
"O. c #D89380",
"+. c #DD9E80",
"@. c #DE9F80",
"#. c #DF9F80",
"$. c #DD9986",
"%. c #D4A082",
"&. c #DFA081",
"*. c #DCA386",
"=. c #D8A485",
"-. c #DCA88A",
";. c #DFAB8E",
":. c #DFAF94",
">. c #E0A081",
",. c #E3A181",
"<. c #E0A182",
"1. c #E1A283",
"2. c #E3A282",
"3. c #E4A281",
"4. c #E4A382",
"5. c #E4A383",
"6. c #E5A383",
"7. c #E5A483",
"8. c #E6A483",
"9. c #E5A484",
"0. c #E6A585",
"q. c #E7A685",
"w. c #E7A686",
"e. c #E8A786",
"r. c #E8A787",
"t. c #E9A887",
"y. c #E0A58A",
"u. c #E3AC8D",
"i. c #E7AD8F",
"p. c #E8A888",
"a. c #E9A888",
"s. c #E9A989",
"d. c #EAA989",
"f. c #EAAA8A",
"g. c #EBAA8A",
"h. c #EBAB8B",
"j. c #EBAC8C",
"k. c #EBAE8F",
"l. c #ECAC8C",
"z. c #ECAD8D",
"x. c #EDAD8D",
"c. c #EDAE8E",
"v. c #ECAE8F",
"b. c #EDAE8F",
"n. c #EEAF8F",
"m. c #E9B193",
"M. c #EDB091",
"N. c #EEB090",
"B. c #EFB090",
"V. c #EEB091",
"C. c #EDB192",
"Z. c #EEB192",
"A. c #EFB192",
"S. c #EFB293",
"D. c #ECB496",
"F. c #EEB899",
"G. c #EEBC9E",
"H. c #F0B293",
"J. c #F0B394",
"K. c #F0B495",
"L. c #F1B495",
"P. c #F0B496",
"I. c #F1B596",
"U. c #F1B597",
"Y. c #F2B596",
"T. c #F2B697",
"R. c #F2B698",
"E. c #F2B798",
"W. c #F2B799",
"Q. c #F3B799",
"!. c #F3B899",
"~. c #F2B89A",
"^. c #F3B89A",
"/. c #F3B99A",
"(. c #F3B99B",
"). c #F4B99B",
"_. c #F4BA9B",
"`. c #F4BA9C",
"'. c #F4BB9C",
"]. c #F4BB9D",
"[. c #F5BB9D",
"{. c #F5BC9E",
"}. c #F5BD9E",
"|. c #F5BD9F",
" X c #F5BE9F",
".X c #F1BFA1",
"XX c #F5BEA0",
"oX c #F6BEA0",
"OX c #F6BFA0",
"+X c #F6BFA1",
"@X c #F6C0A1",
"#X c #F6C0A2",
"$X c #F6C1A2",
"%X c #F6C1A3",
"&X c #F6C2A3",
"*X c #F7C2A3",
"=X c #F6C3A4",
"-X c #F7C3A5",
";X c #F2C4A5",
":X c #F7C4A5",
">X c #F7C5A6",
",X c #F7C6A7",
"<X c #F7C7A8",
"1X c #F7C8A9",
"2X c #F0CBAD",
"3X c #F8C8A9",
"4X c #F8C9AA",
"5X c #F8CAAB",
"6X c #F8CBAC",
"7X c #F8CDAE",
"8X c #F9CEAF",
"9X c #F3D1B3",
"0X c #F7D1B2",
"qX c #F0D4B6",
"wX c #F6D4B6",
"eX c #FAD3B4",
"rX c #FAD7B8",
"tX c #F1D8B9",
"yX c #F7D8BA",
"uX c #F5DBBB",
"iX c #FADDBE",
"pX c #F6DDC0",
"aX c #F9E1C3",
"sX c #FBE5C7",
/* pixels */
":.Z.e.e.) N i i i H +.C.F..X_.oX{.=X=X3XOX,X3X1X#X{.}.=X%X1X=X>X[.).{. XP._.Q.Q.Z.T.M.A.k.j.s.B.w.5.8.p.5.5.` } ~ _ W ` ) ~ R W ",
"-.e.x.x.t.W b d b x b d d d K 5.~.oX%X%X,X3X>X@X#XU.(.#X%X1X,XOX{.(.T./.[.!.Q.S.!.S.Z.A.j.s.k.w.a.7.5.e.d...} ] ] ] ..` ] ] / R ",
"H ..] 8.7.` s 3 : & $ $ $ & $ < H p.m.[.=X3X{.=X*X[.C._.,X8X%X XK.T.P. X[.[.S._.R.U.k.c.c.M.w.r.p.f.3.r.h.w./ ] } ] ~ } } ` U A ",
"x Z A ! Z t : @ @ & & # # # # $ > 9 k ` _.oX(.#X#XS.C.G.3X,X%X~.L.S.P.oX=X*X].{.@X_.C.A.A.B.9.0.j.t.q.r.h.w...[ ..] ] ..o.W U Z ",
"z A C A q , 7 H %.m.i.%.i 5 5 3 < 7 8 V ' k.L.oX~.L.c._.oX*X[.T.h.B.~.|.OX*XOX@X{.oX~.T.M.c.w.5.0.h.8.k.w.r.<.] ] <.>.2.) E C Z ",
"H ) C Z y H p.F.oX%X*X=X%XF.i.%.L b b B E  .k.Q.L.I.P.U.[.~.L.M.f.f.A.E._.#X%X#X%X~.L.i.1.' ~ W <.1. . .1.>.` +.@.1.1.#.` W U C ",
"H o.A ] ..A.f.Q._.oX~.W.Q.(.C.C.k.w.) R )  .1.P.S.Q.j.S.I.A.k.p.0.h.d.L._.oXi.y.L H s s 7 3 3 3 9 p r s b K B E [ 3.&.<.o.] m n ",
"J o...a.k.n.B.M.f.c.i.M.T.P.m.u.w.7. .[ ..o.1.Z.P.B.j.b.L.L.p.) `  .1.1.k.1.b 9 > @ $ # # . . . # @ = > 7 t s d N Y W ' >.) C m ",
"z 1.0.0.w.r.j.0.m ~ i.~.G.{.U.T.1./ B U ) 7.a.A.J.S.z.B.B.T.f.R m Y V W Y b 6 > @ o X . . X . . X $ $ @ = > , , < 7 t V ~ ) C b ",
"l *.7.7.w.a.7.b L F.OX*X*XOX[.P.c.[ C d B ] w.j.A.B.x.z.N.B.h.B d d b m d 8 , = @ + $ $ $ = > 3 e r 9 3 < < < < - - , 7 y N m d ",
"x u...d.h.h.m k k. XF..X_._.k.j.w...C f d R ) 7.B.T.j.c.c.c.1.Y d d y y 8 1 - - = = - 7 y K T  .5.5.~ E T b s 9 < > : > 3 7 9 y ",
"J u.5.f.H.d.m R P.F.*.H d i 9 9 r y y f b m Y ..c._._.L.T.U.5.E V d t 6 1 , - - ; < 7 y L ~ W R V T Y K W W E Y K r 7 , < > > 3 ",
"x ;.<.M.A.B.m ~ +.i & # # # . . X $ - , 1 y m ] 0. X,X=X%X^.c. .m d 6 1 ; - - = @ , d W <.i.p.5.) Y b y 8 6 y V V N d y 3 > : : ",
"z I 5.y.M.f.T d > . .     .       . X # + - 0 ] h.#XeX8X1XoXL.>.d 6 1 , - = + X = r k H L %.%.( ~ E V b y 1 - , d L K m r 3 > = ",
"K %.+.T E m 1 - = $ $ $ $ # . . . # $ $ $ @ - 3.A.>X0XrX8X>Xk.W q 1 , ; = = o X = @ $ $ $ & $ $ & < < 3 3 3 < = > H N b b y 7 < ",
"I *.w.Y b 8 ; t <. .L ~ E z i r p s y r d U  .k.{.=XeXrX0X#Xp.m 0 1 1 , 1 y 8 7 6 7 < @ X X     . . . . . . X X X 7 V E Y k y y ",
"I %.y.>.[ f.j.1.` a.j.c.d.a.) / U Z Z / Q A ] T.[.6X0X0X3XOX<.m 6 1 8 m b W ..@.~ ' ~ ' L d 7 > = & $ o o # . . . $ 9 8 8 d b B ",
"=.%.i.U.Q.L.T.h.a.7.3.] / W Q W Q Z m f y R ~.oX=X1X6X,X%XA.) b 0 0 y C ` ` r...` W W ] ..W U C m b d t r 9 6 , , , 1 1 q f b b ",
"=.*.0.c.T.Q.T.[._.k.A n m m f f q 0 1 y y.*XOX>X8X4X=X=X{.0.n b g n m C ] x.4.d.h.a.C y q f y f q y y m W / C m f , = 8 C ] ` } ",
"%.( +.w.L.T.[.#X8X%X].c.d.` B b m ~ i.[.8X6X,X3X8X8X>XOXL.] m b C Q ` ` 3.t.q.r.B.H.S.d.+.V y t 6 1 , ; ; - - = - , y W ` B m ` ",
"%.%.( d.B.T.[.,X3X8X=X#X{.oX~.[.[.,X#X6X,X3X1X8X0XeX=XoXa./ n m m Z ` 7.o.t.t.c.x.S.H.Q.U.oX{.{.L.w.' U m m m W  .7.` } ..3.B y ",
"-.*.1.d.L._.oX,X8X0X8X>XOX|._.oX6X4X,X=X>X6X8X0XeX8XOXB.d.] A C n b g b g C ` q.n.H.Q.T.Q.[.oX_.{.`.).Y.Q.L.n.n.B.c.w.} R ~ ..m ",
";.;.1.L.T.#X X6XeXyX1X,X*X[.T.*X0X8X:X=X7XeX0XrXpX8XQ.B.x.d...` n f 0 f q 0 1 y ] Q.W.!.^.[.]. X#X:X_.oX{._.d.h.c.B.0.7./ W )  .",
"u.*.0.A.{.=X3X8XiXiXeX<X8X4X6X1X8X1X>X,X8XrXyXyXaX,XE.c.B.c.c.0.! b y Z ` n q , 1 m 7.!.{.&X%X#X,X>X#XXX{.Q.Q.j.j.d.,.3.3.U U >.",
"5.*.w.Q.{.1X0X0XyXaXyX8X7X4X6X8X6X8X>X4X=X8XeXpX0X XQ.Q.A.Q.A...n g C r.7.0.! q - ; t / j.oX=X1X&X:X%X%XOX[.Q.A.0.w.7.7.7.o.U ..",
"x.*.d.[.#X5X7X8XyXyXyXeX0X6X6X,X#XC.k.P.3X0XeXeXeX=X+X_.oX_.[ f y y Z ] ] W C q , ; ; 6 V d.~.&X*XOX+X|.[.T.~.B.t.e.6.w.d.7.` ) ",
"j.f.j.[.-X8X1X8XeXrX1X1X=X%Xk.0./ m C T.=XeXeXyXrX0X#X X_.[ t 1 , ; - ; ; , , 1 6 q 6 1 0 B ..c.W.oXS.U.(.T.B.n.g.t.3.w.7.a.} ) ",
"v.w.f.{.1X:X=X>X3X=XoXL.B...n q 1 y f.{.1X0XaXaXsXyX6X.X~ 8 - + $ $ + $ + = - , 0 q q q q q g ) a.T.A.B.z.j.x.h.l.d.w.0.h.8...` ",
"w.7.h.[.~.+X_.#X[.[.B.3.Z f , - 8 i.%XeX8XyXpXsXpXeX%X*.8 - + + @ @ + + + - @ - ; , 6 q y q 8 y m ..r.a.8.f.r.d.e.d.8.a...7.o...",
"3.3.d.L.^._.oX_.Q.h...n q ; - r y.*X0XeXeXrXyX0X3XC.*.d ; @ + + $ + $ o + @ @ = - = - , 8 6 1 , 6 m W ] ..} ..>.g.8.7.<.7. .>.[ ",
"w.7.h.B.T.T.A.Q.d.] m q , - 6 *. X8X8XeX0X6X=XoXi.V 6 ; = @ $ @ @ @ $ + @ = @ - = @ + = - - = = - , y E ) / R ` <.r...>.o.5.[ ..",
"7.o.d.d.B.B.c.0.[ C y 1 - , U k.>X,X%X.XF.C.i.P.A.W 8 ; 1 y 8 ; - - = = - - - < - @ @ = - - = @ @ @ - d / _ W U ` ~ _ ) { } ~ ~ ",
"..o.q.d.h.c.d...C f 6 , - d ' ~.F.*.~ *.1.1.` E b 6 - , y / V 0 , , ; - = - ; , - - - - - - = $ $ + + : b  .] / Y W Y W E W R ~ ",
"<. .4.7.a.a.7./ g q 1 ; , V ' M.E d y m R m y 8 1 = - d W ] ] C d 8 ; ; ; ; , , , ; ; ; , , , < : = + + , m ` R A Y Y Y E L L Y ",
",.,.] 3.o.7./ C f 8 ; , d ~ U +.y 8 6 d V m t 8 6 6 m H.Q.A.3.] Z g q 6 8 y b b y q 6 8 6 q 6 8 6 , @ @ = 1 m W Q R V T L H k L ",
"X. .] ] o...W m y 1 , , m W T K y 8 8 d R R b k m W <.c.T.A.0...` Z C C A Z W / ` / n y q y q 0 0 1 - @ @ - t Y W E T ~ ( K k T ",
"/ ! ! ] Q ] Z b 0 6 , 1 b K x x 8 8 y B Z W B } 3.3. .....] A Z n n g m b b f C m m y y y y y t 0 8 , : + = , m Y ~ _ %.( N x ~ ",
") _ ] ] ` ` n y y 8 1 1 m m k s r t d d g n Z W Q C C n n b q 8 1 , - - - ; , , , - - - , , , , 8 6 7 , - - ; y W [ 1.+.*.N b R ",
"K ~ / } ] / b y b y 1 6 m L r 9 t t , , 1 q q 0 0 0 0 0 6 1 - - , 1 ; , 7 r 9 6 , - @ + $ $ X $ @ - - ; 7 8 1 y / 5.@.y.*.K b Y ",
"N K ) ` ..` g 8 b b 0 8 m L r , , - = @ - ; ; - @ @ @ @ = , - < e t , < 6 y q 9 7 < = @ @ @ + = = = = 6 m V b y } ..*.y.*.K H L ",
"d N ~ ..5.o.B t t V b d m T p 8 7 , , t b f y 0 6 8 t d p t t t t t t t t h 0 0 6 1 , 6 8 0 0 0 1 1 8 Y ] ..V m @.5.{ *.( K K U ",
"k m ~ >.a.f.} d 8 m W m m U b d b m m m A A ] O.F F F O.<.O.$.G F F O.F G D h h b f y f y f q q 0 q E q.r.7.U E 1.&. ._ L K K V ",
"z K L p.H.S.w.Y t d T E E ) V T R ) C n C ..$.$.3.>.O.>.i.p.$.$.O.G D F M M h h f y 0 q y y 6 0 f W 5.p.4.o.m [ ..1.~ W K J L T ",
"z H ' k.).Q.S.5.k 8 m ( ..[ ) ~ ] ` ` Z C `  .[ $.$.$.$.<.$.$.O.D h h y t t t 8 6 6 0 0 q 0 6 t Y k.M.>.>.E B ..a.@.~ K H H T B ",
"s H ~ i.m.~.T.P.V 8 y ' >.) R ) W _ ] W m m m m d D D m z s d p 7 3 3 3 < 3 3 , , 7 9 t 8 0 8 m <.T.i.a.} m V w.1.( N N k L K m ",
"z N L y.F.P.!.U.5.d 8 N @...` / ) ` } Q n b 8 6 7 7 9 7 3 < 3 3 5 < < > > > > > < 3 7 9 t t d ) M.A.p.0.~ b E <...Y x k k K H m ",
"L ^ H +.S._.U.Q.Q.( t r L 0...} ] ../ Z m d t t 8 t r r s i e e 9 7 < > > < > < 3 9 7 r y b T j.v.M.<.5.R m U ` E N s s k J k m ",
"P %.L ( k.Q.H.S.Q.i.k 7 b ..o.3.3.] / Z m b d y d k b N K b d a e 7 3 < < < 3 7 y p d d b E i.Z.k.d.5.5.B C _ / N s r s x K N m ",
"P =.%.+.@.S.k.Q.M.M.~ 9 8 ..0.h.3...` W g b k b m E T ) / W N b r r 7 9 9 t d m B U m T T 5.S.U.d.k.j.~ b ) ~ E p a s z z L L T ",
"I =.=.%.{ 0.k.b.i.w.' e 9 Y t.h.0.` ` W m m C R 0.h.t.7.k.7.) T m s s b V E [  .1...[ ~ +.m.P.k.k.p.p.m V _ E N r r p s K K W ~ ",
"%.-.%.=.%.*.*.@.1.w. .K 8 V ] h.a...} ` A W ` 7.L.T.j.c.B.A.a.d.a.*.*.;.D.F.M.k.j.d.' +.5.L.p.k.k.m.E m R ] m s r r r x L ^ R L ",
"%.=.=.=.=.%.x e K *.>.E m / 3.4.t.a.} ..>.0.A.S.U.C.j.0.d.B.M.D.A.C.F.D.F.S.m.i.p.<.' +.i.M.p.;.C.m.L V ) T d a s r z K I %.K b ",
"P -.=.-.%.J e < e L ~ ( E >.v.w...H.c.h.0.c.T._.F.Q.~.M.f.c.L.T.P.F.F.%XP.P.P.p.+.<.1.f.5.i.p.V.p.p.W W R b r x z k H P I P L ( ",
"J =.=.-.=.x 7 2 2 5 z ( 1.w.S.d...d.L.n.d.h.L._.%X~.{._.oX~.~..XOX*X,X=X%XP.C.1.1.1.3.o.1.1.p.p.i.*.~ E L r s H L H J P ^ I ( ^ ",
"v =.%.=.I x 5 & * 2 5 K f._.Q.T.5.a.j.N.k.B.M._.#X=X%XOX=X,X%X=X1X>X,X3XF.;.5.f.w...] >.w.a.1.m.m.;.W ~ k r 7 e L x z K ^ *.+.*.",
"l P I I I z 2 % * > 2 i ;.{.+X_.0.7.a.h.M.B.S.F.$XXXOX X&X%X$X>X=X.XF.i.*.5.f.5.5.' ) >.w.5.5.M.C.y.~ H H r 7 7 N K x H I %.y.u.",
"w H P %.J s * % & & 2 i ( 3X=XoXM.w.h.B.x.A.C.A.C.F.~.~.L.~.~.oXi.M.a.j.9.j.1.>.` ~ ~ >.w.c.A.Q.i.<.~ z z i w r r L L H H %.1.y.",
"u z P P H w & % % & > 5 H =X8XOXB.t.0.7.x.S.L.S.E.A.c.h.j.c.i.1.5.5.w.1.5.<. .' ~ { 1.w.S.T.(.Q.m.%.H x l i u r 9 t k K L P z i ",
"5 w z v l w # # % & & < i .X1X&XC.a.#.c.U.oXU.^.'.!.p.k.b.b.5.o...1.W ~ { o.) @. .a.~ *.C.oX_.I.y.%.r i H l i u : 3 9 d z w < 4 ",
"% & 2 5 j 5 # O # # & > e F.8X=Xk.1.c.&X1X=X].[. X(.S.H.T.k.a.q.7.` Y Y ~ ` [ 5.k.p.W y.].].{.F.+.H i 5 u e 5 w * + > > > > < > ",
"O O # * 4 4 & O # # & > 8 F.8X%X-.G.=X8X5X0X6X4XXX$X=X@X~.T.L.T.j.0.E Y Y _ ~ 5.5.5.1.P.~.#X(.;.K i l 5 2 2 * 4 % # : < < 7 3 a ",
"O O O % & 2 & O O O % : b Q.8X0XrXyXwX0XeXyXaXpXrXeXeX0X8X>XoX{.oX_.+.T T ^ W +.1.f.S.R.#X%Xm.J H w w 4 > * & * O # < 7 a s d z ",
". . . # % * & # . O $ < +.XX1XyXpXaXuXyXyXpXuXaXaXaXqXyXuXrX>X=X,X6X.Xm.%.L S | j.U.Z..X>X.XI H x w * * & & O O O # & < 9 r r a ",
". . . O # & % # . X # s u.=X9X9XyXuXuX9XqXqXqXqXtXtXqXqXqXqX2X2X2X2X2X2X2X:.I -.m.G.G..X;X:.H c l u * & & # O O # # % * 5 5 w u "
};
