/* XPM */
static char *out[] = {
/* columns rows colors chars-per-pixel */
"64 64 208 2 ",
"   c #2B1608",
".  c #4A2415",
"X  c #5C2C1A",
"o  c #68321E",
"O  c #583F2A",
"+  c #763A24",
"@  c #7E3D26",
"#  c #63432F",
"$  c #6E402D",
"%  c #6A4D37",
"&  c #77523D",
"*  c #7F5D46",
"=  c #814A35",
"-  c #8E4B34",
";  c #96523A",
":  c #865540",
">  c #8C5D46",
",  c #9D5943",
"<  c #955F49",
"1  c #A45E45",
"2  c #89664F",
"3  c #9B644E",
"4  c #916A53",
"5  c #9A6F56",
"6  c #AB644A",
"7  c #A16851",
"8  c #AD6D51",
"9  c #A86D58",
"0  c #B36A51",
"q  c #B76F53",
"w  c #A1765D",
"e  c #A7755C",
"r  c #AE755B",
"t  c #B4715D",
"y  c #B97658",
"u  c #A87B63",
"i  c #AE7D64",
"p  c #B77764",
"a  c #BD7564",
"s  c #B27861",
"d  c #B47F64",
"f  c #BB7E63",
"g  c #C1785B",
"h  c #C87E61",
"j  c #C07B6B",
"k  c #AC836B",
"l  c #BE8466",
"z  c #B3876E",
"x  c #BA876A",
"c  c #BF8B6C",
"v  c #B78C72",
"b  c #BC8E72",
"n  c #C38264",
"m  c #CC8566",
"M  c #C78568",
"N  c #C4816F",
"B  c #C48A6C",
"V  c #CC8C6D",
"C  c #CC8C6E",
"Z  c #D18969",
"A  c #D48C6E",
"S  c #D88F6F",
"D  c #C88973",
"F  c #CC8A78",
"G  c #D08B78",
"H  c #D38E7E",
"J  c #C39072",
"K  c #C69677",
"L  c #C89172",
"P  c #CC9475",
"I  c #CA997A",
"U  c #CF9C7E",
"Y  c #D19071",
"T  c #D09072",
"R  c #D29172",
"E  c #D09273",
"W  c #D39273",
"Q  c #D49374",
"!  c #D59475",
"~  c #DA9472",
"^  c #D79778",
"/  c #D1967C",
"(  c #D89778",
")  c #D59A7B",
"_  c #D99878",
"`  c #D9997A",
"'  c #DB9A7A",
"]  c #DA9A7B",
"[  c #DC9B7B",
"{  c #DB9C7D",
"}  c #DA9D7E",
"|  c #DE9D7D",
" . c #DC9D7E",
".. c #DD9D7E",
"X. c #E09E7D",
"o. c #E29F7D",
"O. c #E2A07F",
"+. c #D89380",
"@. c #DD9E80",
"#. c #DE9F80",
"$. c #DF9F80",
"%. c #DD9986",
"&. c #D4A082",
"*. c #DFA081",
"=. c #DCA386",
"-. c #D8A485",
";. c #DCA88A",
":. c #DFAB8E",
">. c #DFAF94",
",. c #E0A081",
"<. c #E3A181",
"1. c #E0A182",
"2. c #E1A283",
"3. c #E3A282",
"4. c #E4A281",
"5. c #E5A382",
"6. c #E4A383",
"7. c #E6A483",
"8. c #E5A484",
"9. c #E6A585",
"0. c #E7A685",
"q. c #E7A686",
"w. c #E8A786",
"e. c #E9A887",
"r. c #E0A58A",
"t. c #E3AC8D",
"y. c #E7AD8F",
"u. c #E8A888",
"i. c #E9A888",
"p. c #E9A989",
"a. c #EAAA8A",
"s. c #EBAA8A",
"d. c #EBAB8B",
"f. c #EBAC8C",
"g. c #EBAE8F",
"h. c #ECAC8C",
"j. c #ECAD8D",
"k. c #EDAE8E",
"l. c #ECAE8F",
"z. c #EDAE8F",
"x. c #EEAF8F",
"c. c #EDAF90",
"v. c #E4B195",
"b. c #E9B193",
"n. c #EDB091",
"m. c #EEB090",
"M. c #EFB090",
"N. c #EDB192",
"B. c #EEB192",
"V. c #EFB192",
"C. c #EFB293",
"Z. c #ECB496",
"A. c #E6B599",
"S. c #EAB79A",
"D. c #EEB899",
"F. c #EEBC9E",
"G. c #F0B293",
"H. c #F0B394",
"J. c #F1B495",
"K. c #F0B496",
"L. c #F1B596",
"P. c #F1B597",
"I. c #F2B596",
"U. c #F2B698",
"Y. c #F2B799",
"T. c #F3B899",
"R. c #F2B89A",
"E. c #F3B89A",
"W. c #F3B99A",
"Q. c #F3B99B",
"!. c #F4B99B",
"~. c #F4BA9C",
"^. c #F4BB9D",
"/. c #F5BB9D",
"(. c #F5BC9E",
"). c #F5BD9E",
"_. c #F1BFA1",
"`. c #F5BEA0",
"'. c #F6C0A1",
"]. c #F6C0A2",
"[. c #F6C1A2",
"{. c #F6C2A3",
"}. c #F7C2A3",
"|. c #F2C4A5",
" X c #F7C4A5",
".X c #F7C5A6",
"XX c #F7C6A7",
"oX c #F7C8A9",
"OX c #F0CBAD",
"+X c #F4CDAE",
"@X c #F8C8A9",
"#X c #F8C9AA",
"$X c #F8CAAB",
"%X c #F8CBAC",
"&X c #F8CCAD",
"*X c #F8CDAE",
"=X c #F9CEAF",
"-X c #F3D1B3",
";X c #F7D1B2",
":X c #F0D4B6",
">X c #FAD3B4",
",X c #FAD7B8",
"<X c #F1D8B9",
"1X c #F7D8BA",
"2X c #F5DBBB",
"3X c #F6DDC0",
"4X c #F9E1C3",
"5X c #FBE5C7",
/* pixels */
";.:.=.&.&.&.&.;.t.v.v.v.v.Z.v.v.:.v.v.v.v.Z.v.Z.v.Z.v.v.t.t.r.t.r.t.=.2.2.9.2.9.} #.) ] ] ] / ] P E P / I I L C D C C W T R T C ",
"=.t.&.U U &.&.=.t.v.v.b.A.A.v.>.>.v.v.v.v.Z.b.b.N.v.v.v.v.:.t.t.t.t.2.2.t.p.p.t.6.#...) #.#.#.#.} ) U I / P E D V V T T ! R Q T ",
"L ;.I I U -.&.;.;.t.;.v.v.Z.t.>.N.v.u.Z.K.D.g.Z.Z.B.p.g.b.N.p.g.N.B.r.f.g.B.p.f.r.9.! ,.O.2.) 2.2.=.I / / / D L D T M Z A R V Z ",
"L &.I I &.&.-.t.Z.b.b.b.`.Y.Z.v.Z.B.b.N.D.J.H.H.Y.J.H.H.Y.Y.N.g.B.B.p.d.m.N.f.u.0.$...| ,.1.#.=.-.=.U L / E B M T M M m R C V m ",
"I -.&.;.r.K.B.Y.D.D.P.!.K.W.Y.W.Y.(.W.(.W.(.Z.Y.J.Y.P.R.Z.K.B.H.g.f.f.j.u.e.p.d...,.X.O. .#.} =.&.=.U / L C D V n M m V m Z V Z ",
"r.t.b.N.K.Y.W.Y.^.~.(.W.(.Y.P.R.^.~.(.P.Y.K.Y.P.R.Y.Y.J.J.H.g.f.f.d.p.p.e.d.p.O.$.$.X.#.-.] }  .1.&.) L C M B M B M M M M M M m ",
"N.K.Z.Y.`.].K.W.^.).K.Y.^.~.Z.Y.!.~.Z.Y.Y.T.Z.K.U.T.g.N.c.c.q.f.s.d.q.p.i.B.2.4.| 3.] } *.2.] } #.} E T B B l n n M l M M m n M ",
"Y.R.P.P.`.(.W.Y.W.Y.U.P.(.W.P.P.~.E.C.K.Y.J.H.H.W.Y.J.H.H.x.p.d.p.s.i.p.x.k.p.O.*...}  .#.@.} ) ,.^ R C D M n n B n n n m M n h ",
"K.Y.Y.!.R.`.Y.R.Z.C.K.Y.K.^.K.K.B.C.K.E.U.Y.K.(.W.(.Y.W.H.V.k.x.9.y.p.x.k.x.p.i.O.@.] | @.$.} #.) ^ T C B M n n f n g n g h g g ",
"K.P.K.Y.!.(.W.Y.P.K.Z.U.U.Y.K.k.x.g.C.P.(.(.(.].{.(.W.Y.Y.m.g.p.f.f.p.u.u.d.p.2.*.}  .@.#.@.#.} } ! R V M M h f f g g g g g h g ",
"t.g.f.U.!.(.K.P.C.B.g.Y.I.H.u.f.p.k.f.U.]. X(.].{.{.Z.K.g.r./ ! E / D D C ) ! ^ #.@.^ #.,.1.] } ] ^ D M M M y y f a q g g g g g ",
"9 l / 9.N.K.K.k.x.f.k.H.Y.B.p.2.p.u.f.K.].{.`.^.~.v.=.I d 3 3 : > < < 3 9 s l n C C C W @.] ^ ^ ] R C M M n y y g a y a n g g g ",
"= 3 f Q #.f.s.z.a.f.z.K.p.u.r.6.1.9.d.J.U.Q.f.=.d 7 - = o X X . X X $ = = < 3 7 7 7 8 f M R ! ! ! R V n l l f f y g y g y g g g ",
", 3 8 y D #.p.d.f.s.d.u.p.2.2.] } #.6.p.y.2.D r > + $ X X . . X # = : : : : > 3 3 , , , 7 8 y n D M n f f y y t t q q q q q y a ",
"B n s f M ^ #.i.y.f.9.p.d.s.( Y Y ^ R ^ ^ M 6 - = + + + $ = : 7 l / L D f s r r 7 3 ; < 3 7 7 9 9 r 7 8 7 7 1 9 8 8 6 6 6 8 6 6 ",
"W n y y C ^ ..5.p.u.0.i.s.0.C n M M M M n t , - = = - ; 7 y D ) r.r.2.2.9.} ] R R B s 7 7 7 3 3 7 7 7 3 3 3 , 3 1 1 1 1 6 6 6 6 ",
",.W y t y T ' s.7.u.5.0.9.p.^ n y f f l t 8 , ; - ; < 8 y T ^ ..^ #.#.1.#.2.#.2...} C n f y 8 7 7 7 3 7 7 3 , 6 1 1 1 6 6 8 6 6 ",
"f f f 8 0 y T [ i.s.9.6.p.6.] M l y y t 6 1 , ; < , , 1 y M C C M n l f f l M C Q ! R R W M f 9 9 7 9 6 9 0 9 6 6 1 6 6 8 8 y q ",
". X + ; 9 t l Y 9.J.u.i.f.u.^ R V n 0 8 1 , ; ; = = - t W 9.9.9.1.#.T V f 8 ; ; 6 l M T T C f f y f 0 y f f 8 0 0 0 8 y g n y g ",
"    . X @ - 8 M O.U.~.B.H.f.1.^ V y 8 3 , ; - + o - 8 f l l c L T C D D D f 9 > = ; f D W T M M M M M M M M y y y y t y n g f g ",
". . O # $ + @ f ' ~..X XW.Y.p...l 8 6 3 - - @ o + , > = o # O X O % : > : > : < = + = f R T M M f n M M M f y t t y y f f M M m ",
"& & : 5 3 : - 0 9.(.=X*X@X~.B.) y 6 6 1 ; ; = + @ @ = = . .         .       . . X X + - 6 8 t M A R ^ R R C V l f f y f f l f f ",
"&.#.F C C T ^ 4.H. X;X1X#X].2.T t 6 0 8 0 V M n M C M C c d 4 : : : : : & : : = + - 6 6 6 t g C ' O.' O.#.[ M y t 9 1 1 9 r 8 0 ",
"R C T R ^ A Z X.].#X;X>X=X(.1.M y q f C Q ..9.4.O.' ' ,.7.,.R C R Y Z n g l g M Y A g 1 8 Y ` ' O.^ R Q  .T M y y 9 6 8 s f f f ",
"A S h h q a ^ ^.{.*X*X;X.XW.#.Z y g m ' 7.0.i.s.4.^ M V V S m m g y a M A ' S Z y 1 - 6 M O.i.s.9.4.' ( T R W R l t 8 s t l d f ",
"8 6 1 1 n t..X$X@X#X@X{.(.f.] A A A S ~ 9.j.x.k.x.x.#.M t 1 6 6 6 6 6 6 1 , ; ; , 8 A O.i.0.0.7.9.4.7.9.0.9.4.' B 8 7 9 t t y d ",
"} } } K. X*XXX@X#X*X{.(.H.O.Y Q ~ O.X.4.i.B.i.f.x.W.H.Y.J.N.} E D l 0 y f M M ) r.H.f.V.H.d.O.X.X.4.| 7.s.s.4.#.D s 3 7 9 r r p ",
".X X.XXX&X$X#X#X;X=X].K.9.~ A S ,.7.i.f.V.V.k.f.K.Z.Y.Y.W.(.(.(. X].~.Y.(.(.~.Y.U.J.x.k.J.x.i.O.[ X.<.7.e.p.9.] T f 8 9 y f l f ",
"].#X$X*X#X;X%X;X;X#X^.V.[ ~ A S ~ X.4.0.9.s.d.k.x.Y.Y.^.H.^.(.).].{.{.{.(.].~.(.H.H.z.x.s.d.p.i.X...' 0.9.7.O.' V l t r t f f n ",
".XXX;X*X#X*X;X1X;X{.U.d.O.~ S Z A m m h g h Z ' f.U.W.^.(.W.(. X X@X@X@X@X{.].~.U.x.k.j.d.s.s.i.i.X.[ 1.4.O.#.] C n t f M M M V ",
"=X;X&X=X#X*X;X1X1X XV.k.i.7.S Z h h h Z h q , 6 M O.f.U.^.{.Q. X#X%X].@X#X@X~.(.W.Y.p.d.V.V.0.9.s.4.^ X.,.O.^ ] T M f n m Z M T ",
"=X=X@X@X@X.X;X1X=X(.H.f.V.k.4.S m M S 4.7.S a , ; 6 n ] k.Y.W.[.@X.X X].@X@X~.~.(.J.z.d.x.k.x.i.s.4.^ (  .^ ! R R n y l Z Z V C ",
"(.`.J.d.f.{.;X>X#X].J.U.J.H.X.S Z S 4.k.p.4.S 0 - - , 8 M 6.x.W.D.(.(.].(.).W.Y.J.H.z.x.p.f.s.s.0.4.} ] / E ^ ^ D D n m Z Q R R ",
"i.{ m g u.@X;X>X*X{.(.(.~...Z M Z ~ 4.| ' Z g 6 1 6 8 6 8 g ! 9.d.H.Y.P.Y.Y.H.k.x.s.j.f.d.s.e.5.7.,.} ^ E L L W C C l M A R ! W ",
"m 6 - s D.,X1X1X1X>X`.Y.#.M 0 8 0 8 , , , , ; 6 y g y g g a t D ] 0.9.f.G.H.p.M.p.h.i.f.d.j.<.2.1.#.W E E P E / W W n M Z A m Z ",
"6 @ ; 1.@X1X5X5X5X>X^.^ f 1 - + @ + + + = - , 1 0 0 q y n h t 8 y V Q X.i.0.4.7.0.9.8.0.p.2.#.] ..^ E C / P / / ^ ^ E R Q Q T Z ",
"@ - T ^.;X1X5X5X>X.X2.y ; @ o @ @ @ + + @ - - ; ; , , 0 q 0 6 1 , 6 f R ^ ' ^ ^ ' O.<.3.....` ] E P L C L E / ) E =. ...W ! V A ",
"@ t t.{.>X>X=X#X].t.n , - + + + + + + + @ @ - - - @ = - , ; - - - - ; 8 V Q ! ^ ^ ^ ~ ' ^ ^ R P P L D D C / ^ L E ] ] ^ ! Z Z V ",
"- L v.{.{.{.Z.g.} f ; - @ + + + @ + @ @ - - - - = @ @ - ; ; - = = = + + , M Q #.` _ ! ! ! ! D R Q C B n C ) E L E } ) ) A Z M Z ",
"1 ) p.r.t.t.#.[ ! t - - , 1 , - - - - - ; - , < - - - - - ; - = = @ + + + - r C } ! T E ! C C R ^ B B l L E / B E B B C V M m m ",
"8 / D f D ! C l r ; = 1 f E l 6 , ; - - - ; ; , ; ; ; ; ; , < 3 ; > : = + @ = 1 l Q Y Q R R ^ ' ^ L M l B E L C B B M C n m V m ",
"t L y 7 y l t 1 , = ; n ! ! R f 8 1 , ; ; , 6 1 1 , ; , 3 6 6 6 7 7 3 - = = = = , f R R ^ ^ ] ' } L B l B L L B L L E B C m V Z ",
"y D 9 1 t l t 8 8 8 M s.x.p.^ Z h y 1 1 6 0 y g y y 0 0 8 q 0 0 0 8 1 , - = + = = 1 n ! _ ,...X.,.} l B B I c B L K L M B ! Z Z ",
"f f 7 3 s f f y M R ] 4.s.d.X.S S m g g m M h h Z Z g y y y y 0 0 0 8 6 3 > = = - , y ! X.$.X...1.) L B L L B B I E L n D C V V ",
"f s 7 7 7 9 t l V T T S Y ~ Z Z m M y q 0 8 0 y a q 1 1 1 6 1 1 ; , , , - ; ; 6 7 8 0 T [ 1.$.2...) B c c L c c K / L n l B M D ",
"y d : = + + - , 6 6 6 0 q q 6 1 , ; ; - - = - - - = @ @ = @ @ @ - = - - - , f M T C y T $.7. .[ [ ^ D J B c c J I L B l B B B B ",
"y l 7 : - - ; , , - - - - - = - - ; ; ; , 1 , , , , ; ; 1 6 1 0 0 q 6 6 y R ..4.i.#.n Q o.O.^ ..' ^ B L c c f L L L c B B C l B ",
"C l l y f l n h j N a t t t f a N N N D F N N j N N a a a a g a g a y m [ k.f.O.2._ n R 1.{ ..! L L J f l l l l f B B B L B B B ",
"! d f C D C F ' ' %.+.+.+.%.+.%.+.+.D F N f a N a t t g g a y 0 8 y n ..V.U.d.1.} R M ' #.6.] E B B n l d l c c d l B B P E E T ",
"2.R l C ) R R R G G T F H G F D F f t r r 7 r 0 9 7 9 t y q q 8 t f ! p.U.B.p.1.} M n ^ 4.O.Q B l n l s f x x s f B L P ) ) ^ / ",
";.f.T C ) ] V m y t 6 9 7 r 7 7 9 9 3 < 7 3 < < 3 3 3 9 r p t y l T #.j.H.x.9.p...n n ] X.,.B B l B s 9 d l s f c K B U &./ L L ",
"&.;.=.T ^ ..W M n 8 7 7 9 8 9 r t 9 7 3 < < > > 3 7 7 9 s y y l T ..g.y.B.g.d.p.^ n C ^ [ Q B M C B s 9 f x d d L K I I U L L B ",
"L -.] ) / 2.} T l t 7 9 7 p f l f y 9 9 3 3 3 3 3 8 r f l M C ^ ^ u.g.B.H.N.f.g.! C ( [ R T B C B B 9 9 f U L c c L K I P ) ) ) ",
"I &.&.U E &.2.W f 0 7 7 8 M E ! ! D f f s 9 s f l L ! ^ #.1.2.2.u.l.N.g.b.p.p.r.#.T ^ C D R T E C l r 9 f s l I c c L L ) =.=.) ",
"c -.U I c L ) ] V f 8 p y ) #.r.1.} L ) } } ) r.9.g.t.g.x.g.r.r.r.p.r.t.u.d.#.#.) ] ! E ) ^ P P L f r e 7 9 9 K L B l L / =.=.8.",
"z I U U c l c E ) V l V Q 9.d.f.f.1.2.t.t.t.t.y.K.K.N.Z.K.t.r.=.r.t.r.r.r.1.#.^ ..] ` Q } ^ E E B d d d d e r f P L B L U -.r.q.",
"w J I &.B e 4 d W ] | 7.} 9.d.z.N.f.N.H.Z.K.N.~._.(.].`.D.p.2.9.#.1...1.) } }  .` @.#.2.} ) / / c i d z e e 9 r s L P P &.-.&.&.",
"w z K K l 3 & 4 5 c u.g.f.9.u.p.l.B.J.Y.`.[.(.{.{.).].^.D.t.1.t.r.1.^ E ^ ^ { @.@.1.9.u.p.2.} I L e d z k i i 7 3 r B P U J i w ",
"5 5 b x r 4 % & : 5 l t.).W.q.u.p.k.g.K.Q.^.L.T.N.U.Z.b.y.n.6.9.1.} T R (  .` #.2.t.2.g.C.n.2.P L d 4 c z z e 5 = 3 9 r 7 5 4 4 ",
"% * 2 4 s 4 # O % & 4 d D. XK.w.i.u.N.m.U.E.n.y.z.y.6.$.5.q.<.X.X.^ ! ^ X.[ #.2.} 1.y.N./.R.t.K c d 3 e e 5 7 3 & & > : > < < 4 ",
"O # % * 4 4 & O O & & < / oX@Xr.=.'.].{.^.!.D.Q.C.Y.n.z.q.q.X.X.! ! Y ! _ @.*.u...2.N.R.W.^.:.I x i k 4 4 > : 4 % # > 3 3 9 7 i ",
"O O O % * 2 : O O O & : L XX=X#X;X=X=X;X>X1X1X;X&X%X#XXX`.~.Q.Q.C.9.Q E ! ! ` @.2.a.C.P.].^.r.K c e w 4 4 * & & O # < 7 r d f x ",
". . . # % * & # . O $ < @.`.#X1X3X4X2X1X1X3X2X4X4X4X1X1X2X,X.X XXX%X_.v.&.P D { g.P.Z.`..XF.U J c w * * & & O O O # & < 9 r r d ",
". . . O # & % # . X # d t.}.-X-X1X2X2X-X:X:X:X:X<X<X:X:X:X:XOXOX+XOXOXOXOX>.U ;.A.S.S.|.|.>.b v k w * & & # O O # # % * 5 5 w u "
};
