/* XPM */
static char *out[] = {
/* columns rows colors chars-per-pixel */
"64 64 229 2 ",
"   c #2B1608",
".  c #4A2415",
"X  c #5C2C1A",
"o  c #68321E",
"O  c #583F2A",
"+  c #763A24",
"@  c #7E3D26",
"#  c #63432F",
"$  c #6E402D",
"%  c #6A4D37",
"&  c #77523D",
"*  c #7F5D46",
"=  c #814A35",
"-  c #8E4B34",
";  c #96523A",
":  c #865540",
">  c #8C5D46",
",  c #9D5943",
"<  c #955F49",
"1  c #A45E45",
"2  c #89664F",
"3  c #9B644E",
"4  c #916A53",
"5  c #9A6F56",
"6  c #AB644A",
"7  c #A16851",
"8  c #AD6D51",
"9  c #A86D58",
"0  c #B36A51",
"q  c #B76F53",
"w  c #A1765D",
"e  c #A7755C",
"r  c #AE755B",
"t  c #B4715D",
"y  c #B97658",
"u  c #A87B63",
"i  c #AE7D64",
"p  c #B77764",
"a  c #BD7564",
"s  c #B27861",
"d  c #B47F64",
"f  c #BB7E63",
"g  c #C1785B",
"h  c #C87E61",
"j  c #C07B6B",
"k  c #AC836B",
"l  c #BE8466",
"z  c #B3876E",
"x  c #BA876A",
"c  c #BF8B6C",
"v  c #BF8470",
"b  c #B78C72",
"n  c #BC8E72",
"m  c #C38264",
"M  c #CC8566",
"N  c #C78568",
"B  c #C4816F",
"V  c #C48A6C",
"C  c #CC8C6D",
"Z  c #CC8C6E",
"A  c #D18969",
"S  c #D48C6E",
"D  c #D88F6F",
"F  c #C88973",
"G  c #CC8A78",
"H  c #D08B78",
"J  c #C39072",
"K  c #C69677",
"L  c #C89172",
"P  c #CC9475",
"I  c #C09379",
"U  c #CA997A",
"Y  c #CF9C7E",
"T  c #D19071",
"R  c #D09072",
"E  c #D29172",
"W  c #D09273",
"Q  c #D39273",
"!  c #D49374",
"~  c #D59475",
"^  c #DA9472",
"/  c #DD9876",
"(  c #D79778",
")  c #D1967C",
"_  c #D89778",
"`  c #D59A7B",
"'  c #D99878",
"]  c #D9997A",
"[  c #DB9A7A",
"{  c #DA9A7B",
"}  c #DC9B7B",
"|  c #DB9C7D",
" . c #DA9D7E",
".. c #DE9D7D",
"X. c #DC9D7E",
"o. c #DD9D7E",
"O. c #E09E7D",
"+. c #E29F7D",
"@. c #E2A07F",
"#. c #DD9E80",
"$. c #DE9F80",
"%. c #DF9F80",
"&. c #D4A082",
"*. c #DFA081",
"=. c #DCA386",
"-. c #D8A485",
";. c #D7A88D",
":. c #DCA88A",
">. c #DFAB8E",
",. c #DBAB91",
"<. c #DFAF94",
"1. c #E0A081",
"2. c #E2A181",
"3. c #E3A181",
"4. c #E0A182",
"5. c #E1A283",
"6. c #E4A281",
"7. c #E4A382",
"8. c #E4A383",
"9. c #E5A383",
"0. c #E5A483",
"q. c #E6A483",
"w. c #E5A484",
"e. c #E6A584",
"r. c #E6A585",
"t. c #E7A686",
"y. c #E8A786",
"u. c #E8A787",
"i. c #E9A887",
"p. c #E0A58A",
"a. c #E3AC8D",
"s. c #E7AD8F",
"d. c #E8A888",
"f. c #E9A888",
"g. c #E9A989",
"h. c #EAAA8A",
"j. c #EBAA8A",
"k. c #EBAB8B",
"l. c #EBAC8C",
"z. c #EBAE8F",
"x. c #ECAC8C",
"c. c #ECAD8D",
"v. c #EDAD8D",
"b. c #EDAE8E",
"n. c #ECAE8F",
"m. c #EEAF8F",
"M. c #EDAF90",
"N. c #EEAF90",
"B. c #E4B195",
"V. c #E9B193",
"C. c #EDB091",
"Z. c #EEB090",
"A. c #EFB090",
"S. c #EEB091",
"D. c #EDB192",
"F. c #EEB192",
"G. c #EFB192",
"H. c #EFB293",
"J. c #ECB496",
"K. c #E1B49A",
"L. c #E6B599",
"P. c #EAB79A",
"I. c #EEB899",
"U. c #EEBC9E",
"Y. c #F0B293",
"T. c #F0B394",
"R. c #F0B495",
"E. c #F1B495",
"W. c #F0B496",
"Q. c #F1B596",
"!. c #F1B597",
"~. c #F2B596",
"^. c #F2B697",
"/. c #F2B698",
"(. c #F2B798",
"). c #F2B799",
"_. c #F3B799",
"`. c #F2B89A",
"'. c #F3B89A",
"]. c #F3B99A",
"[. c #F3B99B",
"{. c #F4B99B",
"}. c #F4BA9C",
"|. c #F4BB9C",
" X c #F4BB9D",
".X c #F5BB9D",
"XX c #F5BC9D",
"oX c #F5BC9E",
"OX c #F5BD9F",
"+X c #F5BE9F",
"@X c #F1BFA1",
"#X c #F5BEA0",
"$X c #F6BEA0",
"%X c #F6BFA0",
"&X c #F6C0A1",
"*X c #F6C0A2",
"=X c #F6C1A2",
"-X c #F6C2A3",
";X c #F7C2A3",
":X c #F6C3A4",
">X c #F7C3A5",
",X c #F2C4A5",
"<X c #F7C4A5",
"1X c #F7C4A6",
"2X c #F7C5A6",
"3X c #F7C6A7",
"4X c #F7C7A8",
"5X c #F7C8A9",
"6X c #F0CBAD",
"7X c #F4CDAE",
"8X c #F8C8A9",
"9X c #F8C9AA",
"0X c #F8CAAB",
"qX c #F8CBAC",
"wX c #F8CCAD",
"eX c #F8CDAE",
"rX c #F9CEAF",
"tX c #F3D1B3",
"yX c #F7D1B2",
"uX c #F0D4B6",
"iX c #F6D4B6",
"pX c #FAD3B4",
"aX c #FAD7B8",
"sX c #F1D8B9",
"dX c #F7D8BA",
"fX c #F5DBBB",
"gX c #FADDBE",
"hX c #F6DDC0",
"jX c #F9E1C3",
/* pixels */
"<.F.q.6.~ V u k w z U U K ,.B.W.L.L.<.<.;.<.<.B.<.L.<.L.B.P.<.<.,.<.,.<.,.L.V.z.p.<.:.>.:.l.p.a.=.p.=.5.$.4. .| ~ ( Q ( Q _ ! ~ ",
">.g.f.0.%.F z k u d K U &.;.L.P.P.B.K.,.,.,.<.<.<.B.B.B.L.L.L.<.<.,.,.<.<.z.L.s.a.>.:.-.a.>.a.p.r.4.$.5.5.4.X. .] ] { [ o.%.[ | ",
"K ..O.3.} Z u u u z I U U a.,.P.B.<.;.,.,.<.,.<.B.L.<.B.L.P.L.<.<.<.;.,.<.P.<.<.<.:.&.:.>.s.:.r.w.w.*.2.t.g.6.w.u.2.| o.w.u._ +.",
"b ^ ^ S R f u u u k J K &.a.<.<.B.<.;.,.,.<.,.,.K.<.<.B.L.L.<.<.<.<.,.,.<.L.<.<.B.:.;.:.a.>.p.>.s.s.d.z.M.n.h.d.h.t.w.8.u.2.+.O.",
"b ^ S S A N u k u k K Y U :.;.<.,.>.,.,.,.<.<.<.<.B.<.L.K.L.B.<.,.<.<.B.<.B.B.P.B.<.a.B.B.P.s.W.z.H.n.C.g.h.d.u.r.t.2.q.O.*...@.",
"n ( D S C V d u u z K Y Y &.:.,.:.,.:.:.<.,.<.>.<.B.B.B.L.L.L.<.<.<.L.B.L.L.U.'.OX`.'.I.!.W.!.W.H.G.M.n.M.g.w.w.r.2.2.O.[ o.@.( ",
"z ] S A S N e u u J K &.:.:.-.:.>.,.:.,.<.B.s.B.I.U.L. X@XOXP.P.U.U.I. X*X2X#X#X#X.XE.).`.).n.H.H.Y.d.c.M.Z.o.6.w.t.%.o.o.6.| O.",
"z ~ A M A N s e u V U &.;.:.=.=.s.t.r.s.H.I.T.W. XOXoXOX>X-X*XU.=X'._.W.'. X#X X.X(.T.H.'.H.G.M.S.c.b.M.H.N.w.w.u.8.%.o.*.8.2.o.",
"k W A A A C r e e K U :.-.:.4.a.p.s.h.G.G.'.'.OX'.OX X$XOX;X#X$X}.'.R.Y.W.#X.X$XW.G.b.M.A.T.G.N.b.G.S.W.l.G.r.g.5.7.$.$.@.e.w.t.",
"z P Z M A N p e d P &.-.p.<.B.>.r.4.4.4.p.a.s.D.'.}.'. X#X#X.XOX.X'.N.l.W.'.OX`.Y.h.d.d.!._.(.W.'._.'.z.Y.H.M.w.5.X.] 2.2.| ] ( ",
"z ~ C A S A y 9 f  .` -.B.B.:.&.V f 9 7 5 5 5 u U a.a.W.'.{.W.'./._.w.g.z.}.Y.~.c.t.%.5.N.'._..X$X$XI.z.z.D.=.` V c d l l l s l ",
"J P M M A A f r l  . .=.p.) f 7 , : = $ # # X # & 3 s V =.l.A.G.G.A.w.2.c.Y.G.z.s.2.%.X.x._..X_._./.H.p.-.K s 3 > : = = > > 3 8 ",
"x U Z C M M f p V 4.4.4.N y 8 r d d d 9 : * & & @ = > 9 f W 2.c.z.m.0.8.5.N.l.g.*.4.| } w.Y.W.G.z. .d 7 > & # X X . . X o & = : ",
"c U P V N N f f ( 2.t. .W N ~ 5.a.s.L.<.&.L l s r 9 6 8 s m W 5.h.u.f.6.g.r.r.p.o.( ( _ O.w.d.o.m 7 : o X X . . . . o $ & = & = ",
"J U L L Z L d f ( t.5.4. .=.| w.d.r.4.w.w. .) ( W W l V N N N | u.g.9.w.d.d.1.2.! T N N ! _ Z f 3 : o o X X X # = < 9 d d e 7 7 ",
"U U K U U K x s Z f.t.5.0.w.2..._ Z ! ` 4.p.*.) ! N f f N Z ! { r.w.q.2.d.6.6.6.R f f f N f f 1 - = $ $ + = > 7 f Z W ~ ` P V l ",
"U Y U &.&.Y l s m r.m.m.u.w.%.C y ` B.#X'._.s.r. .W y 8 8 N ! o.@.t.e.6.2.r.2.8.N y t y y y 6 < = = = = : 3 r f f m m V V W Z W ",
"&.&.Y Y -.-.) a N o.h.l.f._ m 0 ) B.<.Y x u 7 < 7 9 8 6 6 y M ! @.0.u.w.w.2.p.o.C y t t t 7 , ; : = - = = ; 9 8 r 8 9 6 3 , , 9 ",
"&.&.U &.:.a.w.C C _ 4.h.d.( t f Y U < # . .       X o - 6 t y C [ u.w.k.r.g.2.{ R m 0 8 7 3 - = = @ X o - d v V V V p p r 7 : + ",
"&.&.Y Y &.B.#X! M _ 2.w.w.~ f p 5 X .   . %         . o @ ; 8 N _ u.Y.W.A.A.h.*.( m 0 3 , ; = @ + X X = : = $ X . X $ = > : : & ",
"&.&.Y &.Y 4.a.^ g C R N N N 6 - o X O $ % % .     . % = o $ - m ^ j.OX8X#X'.z.c._ f , , ; = + + X X o o . . .                 . ",
":.-.-.-.&.t.m...C T ^ T y ; - 3 s s V v z e < * : > e 3 : = - f r.m.>XrX0X#X'.c.[ t ; ; , = + + X X o = : % O . . . $ O . . X . ",
"a.a.:.,.a.t./ @./ N.A.A. .[ _ | c.N.u.c.l.r.` ` ( E m M m C S 2._.{.2XdXaXrX!.f.R 0 ; , , - , 6 6 f Z ! ( ` l e 7 9 s r 7 7 < - ",
"a.>.-.-.r.2..._ ^ c.N.A.(.A.x...@.0..._ [ _ E A S S A A T M A 6.{. X0XyXdXrX.Xt.A 8 ; , y y m ( o.[ ~ ~  .o.[ T E S M g g g h h ",
":.:.-.-.4.w.f./ A c.b.~.!.OX{.'.f...S S M A A ! A M m h g g _ {.}.>X0XyXrX8X_.t.h q 1 0 m ! ~ +...[ M M M ! S A h g 0 g g A M M ",
"a.p.p.p.t.0.u./ o.m.G.T..X#X#XOX'.r.S M g m h g q 8 1 1 m l.=X>X>X-X9XwXrX>XY.{ m y g m h C 0.0.6.y.f._ m 8 6 6 8 1 6 1 , ; ; - ",
"l.s.p.a.t.5./ S } A.x.W..X>XOX*X-X#Xc.t...A y y y f W D.>XqX>X8X0XrX3XrXpX*Xw.E h h h S / o./ r.q.g.j.G.E.D. .C y t 1 1 9 t y m ",
"l.d.p.4.a.t.D M ..c.N.W.#X#XOX3XrX9XOX X'.!.N.~.XXoX*X2XwX0X5X3XrXyXrX0X0X}.2.C h h A D 6.0.0.6.y.d.c.N.'.[.(.'.$X!.N.c.Y.Y.W.c.",
"w.d.4.4.=.x.D _ 2.Y.G.{..X>X>X0XrXrX2X#X[.'._.{.#X8X3X2X>X0X0XwXrXpXyXrX*XW.o.S h M M M S / _ 2.0.x.x.T.!.{._.}.'.%X_.!.Y._.h.x.",
"w.4.5. .=.x...@.j.N.~.~.OX2X8X0XyXyX8X#X'.(.~.OX8X8X3X#X#X0XyXyXpXgXyX8X#XA.w.^ S M h g y q q y M ..m.!.'._./.OX*X*X;X'._.!.G.j.",
"r.r.o.=.5.c./ @.x.b.G.#X#X3X>XyXaXaX0X*X}.#X'.*X0XwX>X*X-XrX0XyXgXjXyX>X{.W.w.t.6.^ g y y g 8 , , t C f.W.'.~.OX*X>X X$X.X'.N.x.",
"r.5.#.| 5.A.....x.N.!.'.*X*X0XrXaXaXrX3X3X4X=X2X0X5X>X&X#X>X0XrXgXjXyX*X}.A.c.M.H.O.M y h ^ D h 6 - , a *.m.Y.'.OX{.!.~._.E.m.u.",
"#.*. .*.#.A.O.O.+.m.!.(..X>X3XrXrXrX0X0X2X2X>X2X'.T.r.t.m.2X0XyXdXdXrX2X'.!.!.OXj._ m g A O./ S q - - ; 0 E 0.N.A.Y.W.c.x.m.f.i.",
"2. .*.#.2.m.x...O.j.A.G.{. X>X>X3X#XOX'.(.T.A.r...M g ! {.*XrXrXgXdX0X>XOX X#XW._ g y g S D A h 0 , 1 , , 8 M ..r.j.u.f.h.d.t.6.",
"*.%.` | 5.N.m.v.u.t.f.W.'.OXOX#X{./.j.f.w.O.M g 8 6 g z.*X8X0XdXgXjXyXrX0X3XW.o.a 6 , , 1 ; - ; , 8 q q y 0 6 m ! *.O.w.w.@.[ [ ",
" .` ` ~ X.w.j.d.6.6.r.m.}.#X!.!./.r.} ^ S g 6 ; , m W.>XwX0XrXgXjXjXjXyXrX*X| y , = + $ + + + = ; , 1 8 y q 0 6 y N E _ [ ~ R ! ",
"~ ` ~ ` ~ 4.u.f.^ ^ 2.c.N.!.!.A.O.~ M h 8 ; - 6 ! W.8XrX9XyXyXjXjXdXyX3X#Xr.y , + + + + + + + = = - - , 6 8 1 1 , 9 f C T T Z R ",
"! W ~ W ( ~ 2...D A o.0.j.j.j...T g y 1 ; - 6 ` J.*X3XrXyXrXrX5X3X2X!.s.4.m 1 - + + o $ o $ + + @ = = = - ; - - = : < s Z Z C R ",
"R W F L W { ! ( Q A D @.8.f.[ S g q , ; ; 9 N r.OX0X>XrX0X3X'.}.(.D.! m t 6 = + @ @ + + @ @ @ = : = + @ @ - = @ @ + + : s ( C Z ",
"C N V N L ~ _ ( _ M A _ 8.+._ h 8 1 ; ; 6 m ` a.*XI.J.J.W.l.d.d.z.d.( y , ; ; ; ; - = = - = = - < : @ = = = = @ + $ $ $ : r Z C ",
"f x l V V  .o./ _ T M ^ ....C y 1 , ; , y Z W d.p.P f Z _  .( W Z N f 3 - , t m 8 , - ; - - - - = : : : - - - : = & + + + : 8 C ",
"x x V c J  .4.0.u.o.A A ^ _ C y 1 ; ; 8 N V P ` l t 8 y R R N y 6 3 - + - 8 m N m 0 3 ; ; - - ; - ; - ; ; ; , , < - @ $ + + : y ",
"f l l V L ` 4.c.D.d.R m Z ( C f 6 , ; f N l l V y 8 1 t m m y t 8 1 - ; N r.{ ! T N 8 1 , , ; 1 8 6 1 1 1 1 , 3 , > = + $ + + 1 ",
"x x l c L ` w.b.Y.c.[ m l E ! M t 1 1 l N l l s 0 8 8 y m l m y y y 8 g 2.t.0.../ C g 0 0 6 6 0 y g y q 6 1 6 1 , < : + + @ = ; ",
"d J c c c Y p.W.Y.(.w.! f m ! ! m 0 6 Z N s 9 r 0 y t y y m m m m A S T T [ [ ..S A g g q 0 6 8 0 q 6 1 , < ; - @ @ + @ = < ; , ",
"x J K K K U p.R.!.W.A.[ f y ! ~ ) N l N V 8 ; - ; ; ; ; , 8 g h C M M M M M M h g t 8 , , ; - - - = = + + + o X o $ = 3 s f 6 t ",
"P Y Y &.Y Y &.J.W.}.m.w.C f N | | | R W V y 3 ; - = = ; , 8 1 q q y 0 t a y 6 1 6 6 , < ; ; - - - = + = = = = ; , 3 8 Z ( ! 8 f ",
"U Y Y &.&.` ) a.W.R.F.h. .f l _ 5.4.| ! W V f m m f t y m M h B B B B a a a a a a j j a a a t t 0 q 0 6 t 8 6 6 q m ( _ ] C f N ",
"K &.-.-.&.&.Y =.d.z.z.H.4.V y W 2.5.$._ Q C Z R R Q m f m ! ! ~ ~ ~ H H G H H H H v g B a t y g t t t 0 8 0 8 g M o.6.| ~ m m o.",
"U -.&.&.-.&.Y Y &.=.w.l.f.P f m  .2.5._ E T R ! ~ ~ ! m f f V V l l F H v v v v f r 9 9 9 9 t t r 0 8 8 8 8 y m { 2.| ! ! y N ~ ",
"&.:.&.-.&.&.U J x U P 4.4.o.t y R 0.{ ( W | T ! ~ ( R N l f r r 9 r s f f d e r 7 5 < < < 7 7 7 9 9 9 9 8 t f ( 4.w.` ! m y N Z ",
"&.:.-.&.-.Y L 5 e J Y &.) R m f ( 2.%.o.6.{ ~ ! } ' T C m s r r s f f f l d r 9 7 3 > < 3 3 < 7 9 9 9 8 f l W ~ 4. .( M f f C l ",
"U :.-.:.&.U i > > 5 x Y L P ` | ( | 2.2.] { ( ~ ^ } ! T N m m f p f N F l d 9 9 3 < > < > 5 7 9 9 9 r f m W ] 4.#._ M m l N N d ",
"L &.:.-.-.K e > * 4 5 d  .=.h.z.*.| @.o.O.O.o.! ~ ( [ Q W T ( ` ! ( ( W V f r 7 e 7 7 7 e d f f l l m L ~ =.*.p. .C N m N V d y ",
"n &.Y &.Y n w > & > > 5 K s.J.'.l.o.] w.o.` ( ] _ | | X.*.s.4.p. .4.*.p.=.&.J x z x f f l L L ) W W Z ` ` :.&.&.) F l N l l p V ",
"z U Y Y Y x 4 & & > & < z B.U.U.'.4. .5.X._ | 5.r.5.p.r.g.d.s. . . .-.-.:.:.:.:.&.U U L K J P `  .&.P ` ` ` ` P F V V l V V V P ",
"w J U Y K x * % & & & 4 u a.@X1XI.h.4.o.`  .] s.s.s.p.z.a.D.z.s.-.p.a.B.B.B.P.P.&.&.P L l F L ` `  .` P P  .` ) l l s r d F P Y ",
"w z K U n e & # % & > 4 s &.4X>X@Xh.*.%.@.] 5.a.z.s.s.V.'.].U.I.U.V.J.J.P.U. X:.p. .` Z P L ( ` $. .#. .=.` ) V f d e 9 p J c i ",
"5 w b n z w % # # % % > 7 &.3XrX#XH._ *.2.h.T.(.W._.s.!.H.S.z.H.!.B.p.z.M.S.p.4. .| P W ` ` ` 4.a.z.=.=.&.U J z d 7 3 9 s s 5 4 ",
"% & 4 4 k 5 % O # # % : 3 ` 5XeX=Xa.*.u.'.*X*X{.%X(.H.z.A.l.d.5.r.w.5.5.r.4.o.(  .o.( { 4.X.5.f.!.W.=.U x d b i e * & > < > < 4 ",
"O O # * 4 4 * O # # % : <  .4XpX<.a.@X0X3XeX9X2X#X*X X#X^.Q.h.l.g.r.+._ R ~ ~ } [ 2.5.5.{ f.S.|.`.s.U J u 5 2 4 2 % % < < 7 3 r ",
"O O O % * 2 * O O O % : s !.0XaXdXhXiXpXpXdXjXhXdXeXyXeXrX<X+X XOX!.l.W W W ' ( *.r.d.z.Y.+XU.B.Y J e u 4 2 & * % O > 7 r d f x ",
". . . # % * & # . O $ < #.#X9XdXhXjXfXdXdXhXfXjXjXjXiXdXfXaX<X2X3XqX@XB.&.P F *.z.!.J.@X2XU.Y J c w * * & & O O O # & < 9 r r d ",
". . . O # & % # . X # d a.:XrXtXfXfXfXtXuXuXuXuXsXsXuXuXuXuX6X6X7X6X6X6X6X<.Y :.L.P.U.U.,X<.n b x w * & & # O O # # % * 5 5 w u "
};
