/* XPM */
static char *out[] = {
/* columns rows colors chars-per-pixel */
"64 64 204 2 ",
"   c #2B1608",
".  c #4A2415",
"X  c #5C2C1A",
"o  c #68321E",
"O  c #583F2A",
"+  c #763A24",
"@  c #7E3D26",
"#  c #63432F",
"$  c #6E402D",
"%  c #6A4D37",
"&  c #77523D",
"*  c #7F5D46",
"=  c #814A35",
"-  c #8E4B34",
";  c #96523A",
":  c #865540",
">  c #8C5D46",
",  c #9D5943",
"<  c #955F49",
"1  c #A45E45",
"2  c #89664F",
"3  c #9B644E",
"4  c #916A53",
"5  c #9A6F56",
"6  c #AB644A",
"7  c #A16851",
"8  c #AD6D51",
"9  c #A86D58",
"0  c #B36A51",
"q  c #B76F53",
"w  c #A1765D",
"e  c #A7755C",
"r  c #AE755B",
"t  c #B4715D",
"y  c #B97658",
"u  c #A87B63",
"i  c #AE7D64",
"p  c #B77764",
"a  c #BD7564",
"s  c #B27861",
"d  c #B47F64",
"f  c #BB7E63",
"g  c #C1785B",
"h  c #C87E61",
"j  c #C07B6B",
"k  c #AC836B",
"l  c #BE8466",
"z  c #B3876E",
"x  c #BA876A",
"c  c #BF8B6C",
"v  c #B78C72",
"b  c #BC8E72",
"n  c #C38264",
"m  c #CC8566",
"M  c #C78568",
"N  c #C4816F",
"B  c #C48A6C",
"V  c #CC8C6D",
"C  c #CC8C6E",
"Z  c #D18969",
"A  c #D48C6E",
"S  c #C88973",
"D  c #D38E7E",
"F  c #C39072",
"G  c #C69677",
"H  c #C89172",
"J  c #CC9475",
"K  c #CA997A",
"L  c #CF9C7E",
"P  c #D19071",
"I  c #D09072",
"U  c #D29172",
"Y  c #D09273",
"T  c #D39273",
"R  c #D49374",
"E  c #D59475",
"W  c #DA9472",
"Q  c #DD9876",
"!  c #D79778",
"~  c #D1967C",
"^  c #D89778",
"/  c #D59A7B",
"(  c #D99878",
")  c #D9997A",
"_  c #DB9A7A",
"`  c #DA9A7B",
"'  c #DC9B7B",
"]  c #DA9D7E",
"[  c #DE9D7D",
"{  c #DC9D7E",
"}  c #DD9D7E",
"|  c #E09E7D",
" . c #E2A07F",
".. c #D89380",
"X. c #DD9E80",
"o. c #DE9F80",
"O. c #D4A082",
"+. c #DFA081",
"@. c #D8A485",
"#. c #DCA88A",
"$. c #DFAB8E",
"%. c #DBAB91",
"&. c #DFAF94",
"*. c #E0A081",
"=. c #E2A181",
"-. c #E0A182",
";. c #E1A283",
":. c #E3A282",
">. c #E4A281",
",. c #E4A383",
"<. c #E6A483",
"1. c #E5A484",
"2. c #E6A585",
"3. c #E7A685",
"4. c #E7A686",
"5. c #E8A786",
"6. c #E9A887",
"7. c #E0A58A",
"8. c #E3AC8D",
"9. c #E7AD8F",
"0. c #E8A888",
"q. c #E9A888",
"w. c #E9A989",
"e. c #EAA989",
"r. c #EAAA8A",
"t. c #EBAA8A",
"y. c #EBAB8B",
"u. c #EBAC8C",
"i. c #EBAE8F",
"p. c #ECAC8C",
"a. c #ECAD8D",
"s. c #EDAE8E",
"d. c #EEAF8F",
"f. c #EDAF90",
"g. c #EEAF90",
"h. c #E4B195",
"j. c #E9B193",
"k. c #EDB091",
"l. c #EDB192",
"z. c #EEB192",
"x. c #EFB192",
"c. c #EFB293",
"v. c #ECB496",
"b. c #E1B49A",
"n. c #E6B599",
"m. c #EAB79A",
"M. c #EEB899",
"N. c #EEBC9E",
"B. c #F0B495",
"V. c #F0B496",
"C. c #F1B596",
"Z. c #F1B597",
"A. c #F2B697",
"S. c #F2B698",
"D. c #F2B798",
"F. c #F2B799",
"G. c #F3B899",
"H. c #F2B89A",
"J. c #F3B89A",
"K. c #F3B99B",
"L. c #F4B99B",
"P. c #F4BA9C",
"I. c #F4BB9D",
"U. c #F5BB9D",
"Y. c #F5BC9D",
"T. c #F5BC9E",
"R. c #F5BD9F",
"E. c #F5BE9F",
"W. c #F1BFA1",
"Q. c #F5BEA0",
"!. c #F6BEA0",
"~. c #F6C0A1",
"^. c #F6C1A2",
"/. c #F6C2A3",
"(. c #F7C2A3",
"). c #F6C3A4",
"_. c #F7C3A5",
"`. c #F2C4A5",
"'. c #F7C4A5",
"]. c #F7C5A6",
"[. c #F7C6A7",
"{. c #F7C7A8",
"}. c #F0CBAD",
"|. c #F4CDAE",
" X c #F8C8A9",
".X c #F8C9AA",
"XX c #F8CAAB",
"oX c #F8CBAC",
"OX c #F8CCAD",
"+X c #F8CDAE",
"@X c #F9CEAF",
"#X c #EECEB0",
"$X c #F3D1B3",
"%X c #F7D1B2",
"&X c #F0D4B6",
"*X c #F6D4B6",
"=X c #FAD3B4",
"-X c #FAD7B8",
";X c #F1D8B9",
":X c #F7D8BA",
">X c #F5DBBB",
",X c #FADDBE",
"<X c #F6DDC0",
"1X c #F9E1C3",
/* pixels */
"#.z. .X.~ H B F z K #.n.m.m.n.h.h.n.h.h.&.n.m.m.m.N.n.N.N.N.n.m.n.n.8.h.8.9.i.9.7.7.+.+.#.;.+.+.) ` ` X.` ) ^ ! I Y C U I T C I ",
"#.e.*.{ K H B c F @.&.n.K.m.m.m.h.h.b.h.h.h.m.m.n.m.n.N.N.m.n.h.j.h.8.8.8.8.g.8.0.2.7.-.7.1.;.*.+.' { { +.' ) ! E I P P T U I C ",
"O.#.K O.K H z F F #.8.n.P.K.m.m.n.m.%.h.h.m.n.m.m.K.h.K.K.m.&.h.j.c.7.$.9.i.0.8.9.0.,.7.r.8.3.4.=. .( [ +.;._ ' E T V T E ! A A ",
"K @.K K K K F H @.&.&.&.m.m.m.n.n.n.j.h.m.m.m.m.T.K.m.m.K.n.j.C.H.F.c.j.C.x.f.a.x.f.0.r.a.p.0.2.:.) ( _  .} ) ) E P Z Z U P V C ",
"K #.O.@.K K K @.#.h.h.F.v.P.J.F.v.F.F.F.m.K.Q.~.T.~.T.~.K.(.C.A.C.A.c.A.f.x.i.v.i.l.i.r.,.w.4.0.) ' ) ` ! ) ) ' U P Z A Z A m Z ",
"H O.O.O.O.O.@.#.h.n.v.F.T.P.Q.H.Q.~.'.~.~.~.~.~.~.~.~.~.T.P.H.N.H.Z.S.M.M.9.r.r.c.u.e.e.,.4.3.*._ _ { ^ _ ' ) ! T Z Z Z Z m m m ",
"! @./ @.&.n.h.F.P.Q.P.Q.~.~.P.Q.~.~.T.~.(.(.K.Q.~.(.K.N.(.~.x.C.A.J.c.c.x.Z.,.4.a.r.*.:.:.1.3.+.X.*.! ) *.*.T ! I Z M Z m m h h ",
"*.*.7.9.A.H.C.H.~.~.P.Q.~.'.Q.T.!.T.M.H.Q.~.N.R.'.T.H.J.Q.L.J.c.K.A.c.k.c.x.q.u.u.3.,.=.3.q.4.[ -.*.` { *.[ ( I Z m n n m M h g ",
"' <.<.x.f.A.H.S.C.T.P.!.R./.(./.N.H.C.!.H.!.T.^.c.H.F.T.H.K.J.U.c.T.C.S.B.B.k.c.,.w.4.w.3.r.,.3.X.X.{ *.{ { ' ! m M g g g g g g ",
"-.*.X.;.5.2.a.c.T.P.Q.G.~.~.~.R.~.C.c.c.P.Q.~.T.H.x.f.A.Q.~.Q.F.S.Q.H.l.S.c.x.0.-.*.1.;.1.1.=.{ ' / { { } ' { T m n f y g g g a ",
"x r 7 7 5 5 5 z @.m.s.F.J.R.K.T.P.A.0.x.G.~.T.G.j.f.2.k.H.[.Q.~.'.'.c.K.C.j.;./ Y ~ C I S S l V C E I ( ` } E E M n y y f g q y ",
"> = $ o # O O # : r x ~ 9.x.K.H.!.x.r.r.S.H.f.Z.r.r.2.0.J.Q.T.P.~.T.j.8.@.F u 7 3 < < < 3 7 9 s d f y l I R I C M f y y f a y y ",
"r d e 5 & $ $ $ $ = < r B / ;.c.c.x.r.p.s.C.9.a.:.2.2.r.f.A.H.Z.9./ p 3 - + o X X X X o + = = < < 3 , 3 6 y f l f f y g y g y y ",
"9.8.h.8.O.c d r 9 7 1 8 f n ! q.f.w.f.r.u.9.0.2.-.{ { -.2.a.0./ l < = o X X . . . . # $ = = = : > - : : > > < < 7 0 9 0 q 0 q q ",
"9.9.8.9.h.8.O.L ~ I n l l M V *.p.f.3.0.d.x.2.4.E I C T ( [ I y 1 : $ o o # X o = < e x d r 7 7 7 < : : < < > : : < 1 8 8 8 1 6 ",
";.+./ *.0.7.-.{ E M f f V I E ' a.r.4.4.g.t.q.1.C n n n M M y 1 - @ + + = : < t B / ] { { ~ H C B l p 9 7 3 < - : : ; 1 6 6 6 1 ",
"n M -.H.K.Q.F.c.;.` n y 8 n E  .:.p.q.e.e.t.q.4.M y y f f y 6 , - - = - < 9 f M S C S C I ~ I Y Y Y C l f p 7 3 : : ; 7 8 8 6 0 ",
"t #.n.n.9.] ~ I B l l y 8 t M T [ 4.p.3.r.r.q.=.U l y y y 8 , ; - : : = - 1 f M M l y t 8 6 3 1 0 l M B C l y 9 1 7 t 8 q y t q ",
"B &.K w : $ X . . # $ < 6 0 y M ( 4.f.c.a.g.3.<.! C f y 8 7 - - = + X $ 7 B B B B l d l n t < = + - 0 B M l y y f n t t h M g h ",
"C e #     . O         X = - 6 f T  .c.K.P.k.x.q.| V y 8 7 , - @ $ X o > : o X . . . X $ & : : : + o = B R I l y n n g g n g g g ",
"< X   . X O #     . . # o o @ 8 U  .H.oX(.(.H.S.,.M 8 1 < - @ @ X X $ o X   O                     X X 7 B y 0 l n n g n g h h Z ",
"@ : : 7 e 5 4 * % $ & < > = @ - ' q.~.%X%X X~.C.,.y 1 1 1 - - @ o + = ; 7 4 % O X O % % $ # # # X . X = 1 6 M E ' ,.*.Z M n n y ",
"I 9.] 7.0.2.! ~ ~ Y V M m n M ! x.P.Q.:X,X%XK.f.! t , 6 8 , q M S R ~ ` *.*.~ C f f l V l r 1 , , , , 8 1 t M E ) | M 8 8 8 6 q ",
"( [ 3.,.:.:.! U E Z Z Z T E P ! x.Q. X=X:X%XQ.9.E q 1 6 M Z I | 4. .) ( *.-.*.Q E P m h h M m m E U g , 0 T I n y 8 6 t l l l l ",
"c.3._ [ E T P E Z U Z Z h f l q.P.'.oX:X%XoXT.0.Z y 0 y M ` :.r.,.,.Q C M Z m Z h g 0 y m Z Z M q ; @ 6 Z *.[ X.M 0 f l f l f f ",
"G.C.*.Z h h h h g y 0 6 8 M c.[. X.XOX@XOX(.C._ M n h Z Z Q q.r.p.r.f.e.' f 8 1 1 1 1 ; ; - - = - 6 M ' _ E ! | :.) T y s s s s ",
"~.[.A.C.r.( f 0 8 0 q C c.[.[.oXOX@X X@X.XT.,.P m Z Z Q | 4.,.r.r.a.x.H.Q.G.C.9.7.` V C C I Z / 3.p.,.r.,.*.M E *.4.E y f f y s ",
"[.oX'.~.(.!.B.j.C.H.T.[.@XOX.X.XXX%X@XOX.XA.[ Z m Z E [ p.q.r.r.a.p.f.J.Q.T.Z.T.(.(.T.H.T.H.C.x.f.y.3.:.:. .I M _ *.Q l M l l l ",
"'.oX@XoX(.(.H.T.P.'. X.X'._.[.%X@X=X%X@XT.x.' A m Z Z E E Q ) :.<.f.x.A.P.Q.B.(.(.[.Q.R.T.~.K.C.r.q.,.4.4.:.' T I *.{ V M C M V ",
".X%X=XOXoXT.P.A.~. X.X X[.(.%X%X=X,X%X~.J.p.,.E Z m n y g y 0 q h W a.P.Q.P.Z.T. X.X'.(.T.~.!.x.p.q.,.6.<.>.:.) T ) | V C M S V ",
"OX:X%X+X@X'.H.(..X%X[. X[.XX@X=X1X1X@XT.A.f.3.4. .P y y h Z g 6 , 6 n ,.A.P.H.Q.[. XU.[._.[.c.A.a.p.,.3.3.3.| | ! ` ^ U I U M H ",
"OX%X=X%X%X.X(.[.oXOXoX[. X[..XOX,X1XoXT.A.f.f.a.a.Q h g W :.Q A q ; ; 0 ( p.C.T.(.(.T._.~.P.A.c.a.r.4.,.4.w.3. . .) E V I C C C ",
"'.oXoX%X X X~.+X(.[.P.J.c.(..X=X:X:X[.Q.A.H.(.G. .A h Z :.r.:.Q n , ; ; 6 n ' a.f.A.G.J.x.c.x.a.4.q.e.e.1.t.1.4._ E C I C I I Y ",
"(.U.'.'. XT.P.A.f.,.U m r.(..X:X,X=X X~.~.~.P.,.M q y m ( Q Z h q 1 6 6 6 6 n E ,.p.f.g.x.p.q.r.4.y.4.6.w.:.-.;.' T C I I I I C ",
"J.K.c.C.C.x.| ( m 0 1 Z P.oX.X:X1X,X+X.X[.(.2.n 6 1 ; , ; ; - ; , 0 0 y g y 8 y I |  .3.y.y. .,.:.3. .,.,.;./ ` / ! M M C I M C ",
"T.B.x.q.,.E n 8 ; ; n F.@XOX%X,X1X1X1XOX Xf.l 1 - + + + @ + @ - , 1 6 8 y y y 0 t n U ! | ' _ ' | | | } ' _ / ~ / I C V I C C V ",
"y.x.:.) Z g , - ; V v.oX%X=X=X1X1X1X=X XC.C 1 = + + + + + + @ = = ; - , 6 q q 0 6 6 0 M P ! U ! E ( E ^ E ! ~ Y I T Y Y C I Z P ",
"r.*.E h q , - ; C v.'.oX=X%X=X@XOX XK.f./ 8 ; @ + + + + + + @ @ = - = @ ; ; ; - - - - 7 l T ! E T T T C U P C B Y ~ E P I Z C A ",
"<.) h q , - - l 8.Q.'.@X%X%X(.(.~.v.~ l 6 ; @ + @ @ + + + @ @ = - - + + = = = - = = + + - d R ' E E C Y I ~ M f J { I C Z E m Z ",
"' A y 1 ; ; 8 I a.P.K.F.K.c.9.a.c.9.~ 8 , ; , 1 , - - = - : : - 3 ; = = - : - - : + $ + @ : 0 C _ R I T T ! I f ! ~ I Z Z Z Z Z ",
"A M 8 , - 1 M ~ ;.8.C M T  .` ` R ~ y 1 - 8 M J 8 1 ; ; ; - - ; - < - : - - ; < - : & = + + : 7 M U P T T / / B l R I Z m Z m Z ",
"A g 6 ; ; y C B ~ f 8 8 l C M y 8 1 - @ , l U T M y 6 , ; - ; ; , , ; - < , 1 1 1 3 , ; = + + = 3 M P ! | ;.-.B B J T C Z Z Z Z ",
"Z g 6 , , l l x c r 1 6 y l y 0 7 3 - 6 X.x.:._ E P y 6 6 1 , q t y 6 q q 8 1 8 0 6 3 < - = + @ - 0 V ( -.8.X.J B ~ C C A E Z Z ",
"P q 0 1 , l l x l 9 7 8 y f n y t t t C r.f.a.:.| E m g g y y g m m h h g 0 6 6 q 1 1 1 , : + = ; , M ( 7.8.X.F F H Y C P Z Z Z ",
"E y 8 t 1 l l r 7 9 7 0 t y f n M E E ! E '  .:.Q ! Z m g g y y y a y 8 1 6 1 1 , ; : - = = : < 7 1 M | ] X./ H c K Y V M M B S ",
"{ M 0 l f B B 7 ; - - - - ; 6 y M h h n g h M n y 0 0 1 , ; ; - ; ; - @ @ + + + + o o + + - r l V 0 C ` *./ ~ F F K K B M B B B ",
"9.-.y r S S d r 3 - + + @ - ; 1 1 1 1 6 8 0 1 1 , , - ; - - = - ; - @ @ - = @ - - ; - , 1 l ! ` ) f C ` X.! B c F K F B B B M M ",
"j.0.I 0 l C l f p y r 8 t y q 0 q q 0 0 0 0 8 0 t p p p j j j a j p y q y y y y g q 0 q M :.:.[ ^ h E / ` E B x F F F M C V M M ",
"8.9.-.S t J R C l V V P h m Z E U D D D D D D ..D D B B M N j M j j y g g g y y q 0 y A :.x.-.| M V ' -.R B x l x B c I C Y H I ",
"O.0.0./ l p / J M V P T A n C E U C T ! ! E I C D V d s p r r r t 8 7 q a q q 0 0 q M *.f.a.-.( n M ' ) J x f x x c B B ~ ~ J ! ",
"O.@.9.9./ p f T U ( P T U E f f y t 8 s f f r p r r 3 5 3 3 < < 7 7 3 7 r y 8 0 t n E a.x.6.X.E y P T U l d s d f H B H / / J C ",
"O.#.;.9.7.J t f ! ( E ! ) A f t 0 8 6 0 f f f p f r 7 < < < > < < < < 7 r 8 0 y l ! 4.0.a.0.2.C n E I B d p s s c F H K / B B B ",
"K #.@.#.;.O.l t n [ [ Q E P y y 0 y f M M M l B d s r 7 < < > < < 7 9 r r t y M I 0.9.f.2.r.7.M M E U l r f d l F K K / ~ / K / ",
"K O.@.O.L F B B n E ,.Q E E n t f f C 4.;.` _ E I l d r 9 7 7 9 r f M I Y C C I ;.9.9.0.i.0.] n U U V r p B J F F H Y ~ / ] / H ",
"b O.L O.F u e x J ! | 4.[ ' M f f C -.f.x.q.' ) { +.! Y J ~ H / O.8.X.;.-.{ Y { 0.a.+.8.9.i.~ C ! ! l r s r s K B F c H / 0.+.+.",
"z K L K F u 4 4 u Y 4.q.,.| Q P P X.j.f.x.c.:.-.q.8.7.7.7.@.#.#.h.j.9.;.X./ ` -.0.8.7.7.9.w./ ( ! Y f x s 7 e l H G F F ] ] 7.8.",
"w F K K c w & * 4 u O.c.M.q.| 4.[ -.0.J.S.H.V.B.8.x.f.c.j.m.Q.'.m.n.h.8./ ] { -.{ o.X.;.0.9.X.X.~ B x c u e e r x J H K O.O.@./ ",
"w z G K x 5 & & % : u #.N.H.q.*.r.r.9.A.U.T.Q.L.U.D.T.Q.N.N.N.W.c.O.7.9.8.' _ ) X.X.,.4.c.c.0.7./ x x c d i d 5 7 r B H K x u w ",
"5 w v b d 5 # # % * 4 d m.'.p.y.w.w.3.x.B.T.c.S.I.R.j.M.R.~.h.v.j.9.-.7.2.' T ) *.4.8.j.H.K.9.] ~ d w x z k u 3 = 3 9 r 5 5 4 4 ",
"% * 4 5 u 4 # O # % * < O.oX(.f.r.,.1.v.Y.L.Z.B.S.k.0.0.9.r.-.;.2.;.' _ o.' ) { 2.X.8.j.T.S.H.O.F x 5 5 e 5 5 < % + > : > < < 4 ",
"O O # * 4 4 & O # # * > f ~.@Xj.@.v.K.{.[.'.^.~.J.K.B.F.p.0.,.4.( ( T E E ) X.0.2.X.0.c.U.~.v./ x d d 4 > > * 4 # # < < 3 w 7 i ",
"O O O % * 2 & O O O & : B R.%X@X:X-X=X=X=X:X:X-X+X+XXX].~.T.E.I.v.8.~ J R E ( o.2.y.x.S.!.E.8.G F w u 4 4 : & & # # < 7 r d f x ",
". . . # % * & # . O $ < X.Q..X:X<X1X>X:X:X<X>X1X1X1X*X:X>X-X].{.[.oXW.h.O.H S o.i.Z.v.W.].N.L F c w * * & & O O O # & < 9 r r d ",
". . . O # & % # . X # d 8.).+X$X<X<X>X$X&X&X&X&X;X;X&X&X&X&X#X}.|.}.}.#X}.&.L #.n.m.N.N.`.&.b v v w * & & # O O # # % * 5 5 w u "
};
