/* XPM */
static char *out[] = {
/* columns rows colors chars-per-pixel */
"64 64 219 2 ",
"   c #2B1608",
".  c #4A2415",
"X  c #5C2C1A",
"o  c #68321E",
"O  c #583F2A",
"+  c #763A24",
"@  c #7E3D26",
"#  c #63432F",
"$  c #6E402D",
"%  c #6A4D37",
"&  c #77523D",
"*  c #7F5D46",
"=  c #814A35",
"-  c #8E4B34",
";  c #96523A",
":  c #865540",
">  c #8C5D46",
",  c #9D5943",
"<  c #955F49",
"1  c #A45E45",
"2  c #89664F",
"3  c #9B644E",
"4  c #916A53",
"5  c #9A6F56",
"6  c #AB644A",
"7  c #A16851",
"8  c #AD6D51",
"9  c #A86D58",
"0  c #B36A51",
"q  c #B76F53",
"w  c #A1765D",
"e  c #A7755C",
"r  c #AE755B",
"t  c #B4715D",
"y  c #B97658",
"u  c #A87B63",
"i  c #AE7D64",
"p  c #B77764",
"a  c #B27861",
"s  c #B47F64",
"d  c #BB7E63",
"f  c #C1785B",
"g  c #C87E61",
"h  c #AC836B",
"j  c #BE8466",
"k  c #B3876E",
"l  c #BA876A",
"z  c #BF8B6C",
"x  c #B78C72",
"c  c #BC8E72",
"v  c #C38264",
"b  c #CC8566",
"n  c #C78568",
"m  c #C4816F",
"M  c #C48A6C",
"N  c #CC8C6D",
"B  c #CC8C6E",
"V  c #D18969",
"C  c #D48C6E",
"Z  c #D88F6F",
"A  c #C88973",
"S  c #D08B78",
"D  c #C39072",
"F  c #C69677",
"G  c #C89172",
"H  c #CC9475",
"J  c #C09379",
"K  c #CA997A",
"L  c #CF9C7E",
"P  c #D19071",
"I  c #D09072",
"U  c #D29172",
"Y  c #D09273",
"T  c #D39273",
"R  c #D49374",
"E  c #D59475",
"W  c #DA9472",
"Q  c #DD9876",
"!  c #D79778",
"~  c #D1967C",
"^  c #D89778",
"/  c #D59A7B",
"(  c #D99878",
")  c #D9997A",
"_  c #DB9A7A",
"`  c #DA9A7B",
"'  c #DC9B7B",
"]  c #DB9C7D",
"[  c #DA9D7E",
"{  c #DE9D7D",
"}  c #DC9D7E",
"|  c #DD9D7E",
" . c #E09E7D",
".. c #E29F7D",
"X. c #E2A07F",
"o. c #D89982",
"O. c #DD9E80",
"+. c #DE9F80",
"@. c #DF9F80",
"#. c #CFA186",
"$. c #D4A082",
"%. c #DFA081",
"&. c #DCA386",
"*. c #D8A485",
"=. c #D7A88D",
"-. c #DCA88A",
";. c #DFAB8E",
":. c #DBAB91",
">. c #DFAF94",
",. c #E0A081",
"<. c #E2A181",
"1. c #E3A181",
"2. c #E0A182",
"3. c #E1A283",
"4. c #E3A282",
"5. c #E4A281",
"6. c #E5A382",
"7. c #E4A383",
"8. c #E5A483",
"9. c #E6A483",
"0. c #E5A484",
"q. c #E6A584",
"w. c #E6A585",
"e. c #E7A685",
"r. c #E7A686",
"t. c #E8A787",
"y. c #E0A58A",
"u. c #E3AC8D",
"i. c #E7AD8F",
"p. c #E8A888",
"a. c #E9A888",
"s. c #E9A989",
"d. c #EAA989",
"f. c #EAAA8A",
"g. c #EBAA8A",
"h. c #EBAB8B",
"j. c #EBAC8C",
"k. c #EBAE8F",
"l. c #ECAC8C",
"z. c #ECAD8D",
"x. c #EDAD8D",
"c. c #EDAE8E",
"v. c #ECAE8F",
"b. c #EEAF8F",
"n. c #EDAF90",
"m. c #E4B195",
"M. c #E9B193",
"N. c #EDB091",
"B. c #EEB090",
"V. c #EFB090",
"C. c #EEB091",
"Z. c #EDB192",
"A. c #EEB192",
"S. c #EFB192",
"D. c #EFB293",
"F. c #ECB496",
"G. c #E6B599",
"H. c #EAB79A",
"J. c #F0B293",
"K. c #F0B394",
"L. c #F0B495",
"P. c #F1B495",
"I. c #F0B496",
"U. c #F1B596",
"Y. c #F1B597",
"T. c #F2B596",
"R. c #F2B697",
"E. c #F2B799",
"W. c #F3B799",
"Q. c #F2B89A",
"!. c #F3B99A",
"~. c #F3B99B",
"^. c #F4B99B",
"/. c #F4BA9B",
"(. c #F4BA9C",
"). c #F4BB9D",
"_. c #F5BB9D",
"`. c #F5BC9D",
"'. c #F5BC9E",
"]. c #F5BD9E",
"[. c #F5BD9F",
"{. c #F1BFA1",
"}. c #F5BEA0",
"|. c #F6BEA0",
" X c #F6BFA0",
".X c #F6BFA1",
"XX c #F6C0A1",
"oX c #F6C1A2",
"OX c #F6C2A3",
"+X c #F7C2A3",
"@X c #F6C3A4",
"#X c #F7C3A5",
"$X c #F2C4A5",
"%X c #F7C4A5",
"&X c #F7C4A6",
"*X c #F7C5A6",
"=X c #F7C6A7",
"-X c #F7C7A8",
";X c #F7C8A9",
":X c #F0CBAD",
">X c #F4CDAE",
",X c #F8C8A9",
"<X c #F8C9AA",
"1X c #F8CAAB",
"2X c #F8CBAC",
"3X c #F8CCAD",
"4X c #F8CDAE",
"5X c #F9CEAF",
"6X c #F3D1B3",
"7X c #F0D4B6",
"8X c #F6D4B6",
"9X c #FAD3B4",
"0X c #FAD7B8",
"qX c #F1D8B9",
"wX c #F7D8BA",
"eX c #F5DBBB",
"rX c #FADDBE",
"tX c #F6DDC0",
"yX c #F9E1C3",
/* pixels */
">.A.q.1.E M h h w h F L K =.:.F.>.H.>.>.:.>.:.>.:.>.>.m.m.m.>.>.:.:.:.>.u.G.m.m.:.>.-.;.y.s.u.i.3.y.3.y.[ [ ! ! Y Y B R U R Y U ",
";.f.x.9. .M s h u h K L L =.>.Z.m.m.>.:.:.:.>.>.>.>.m.m.m.m.m.>.>.:.;.:.m.m.G.>.u.;.-.-.u.u.;.0.3.[ &.O.3.[ ! Y Y I I P R T Y B ",
"F ..{ X.{ G i i u h J L L >.>.m.m.m.=.=.:.>.:.>.>.m.>.m.G.H.>.>.:.>.-.:.>.G.>.>.>.;.*.;.>.i.&.3.&.&./ &.2.@.) ) ^ ! I R ( ) I R ",
"c E C C n s e 5 w i D K L -.>.>.m.>.=.$.:.>.:.:.>.>.>.m.H.m.>.>.>.>.:.;.>.m.>.>.>.>.-.*.u.;.y.y.y.&.[ &.3.} ] { <.<.{ { <.2. .) ",
"l W V V y r 5 u 5 h D L K -.:.m.>.>.-.=.$.;.:.>.>.m.>.G.m.m.>.>.:.>.:.>.:.m.>.m.>.>.:.:.:.u.y.p.w.j.u.k.t.s.s.s.3.t.1.1...3.{ { ",
"x E V b g s e w u h F K $.=.:.:.:.-.-.-.i.>.G.G.F.F.G.G.m.>.m.>.>.>.:.:.G.G.G.>.G.G.F.F.H.E.P.F.D.i.k.k.c.g.t.w.t.w.4.7. .) { ) ",
"x ) g g v d 9 w w h D L *.:.-.;.i.i.u.I.E.Q.F.).oX&X{.[.#X+X(.}.}.#XE.}.}.#X).#X}.).F.E.~.(.Z.F.Y.J.j.f.x.j.2.<.9.r.' { '  .) ^ ",
"x E b g g p r e u h z ~ -.:.-.r.w.&.[ $.=.&.y.i. X.X}.[.@XoX.X X{.{.Y.Y.).+X}.[.}.^.D.U.^.E.A.k.P.V.k.s.f.r.@.| r.3. .! ] O.` E ",
"k T b g f d r u w k F / $.u.-./ s 9 3 < > < 3 r ~ k.).+X XXX.X+XE.Y.D.^.E.`..X.XU.L.P.L.K.U.c.V.j.c.x.b.s.t.3.9.%.{ ) { ' <.} [ ",
"k P b g v d r e i x / ) y./ s < : = $ o X X O # = r H y.F..X.X[._.P.N.k.P.}..X).K.c.V.c.P.D.C.C.C.k.n.k.C.f.a.0.%.O. .{ @.7.3.] ",
"x R g g g n a r a c / [ ) j 7 i G $.K x 4 = $ & = < 3 d / D.K.^.W.T.p.p.U.oXE.R.D.k.w.k.L./.E.^.E._.D.D.S.C.7.w.2.3.) @.9.s.{ O.",
"z H b g n v l r s z &.8.' Y [ i.(.(.Q.).H.=.F k i 7 7 t I ' r.P.^.C.4.w.L./.Y.L.Z.w.0.8.U.'._.(..X}.P.E.D.k.w.O.[ ! ! ) 3.] ' ! ",
"z Y P N v j s i u D p.j.s.i.i.K.L.).'.@X{.(.G.u.[ H n n n R ^ j.V.C.w.t.f.U.L.Z.w.0.<.t.f.)./. X).).I.k.&.[ G j a a r s s d d v ",
"c ~ R M M j s u u G s.a.h.s.l.f.k.P.E.Y.Y.k.i.y.%.] ) R R U ] t.c.j.h.w.B.k.k.s.0.O.2.O.r.j.P.I.u.~ l 9 < > = $ $ o $ & : - < 9 ",
"D ~ B M z M d u s G r.s.f.d.9.t.X.' / y.p.r.O.' ) U n I ^ ( ) p.x.S.r.t.j.x.w.w.] R B R Q <.{ E d 7 @ o X X . . . . . X $ $ $ = ",
"L K H G G z l d l B f.x.g.8.0.R v ] D.E.).E.k.8.<.E f y v E O.w.c.i.e.e.f.j.g.r.U n n n B B v 8 , = $ X X X . . X o $ = > = $ = ",
"L L K K D D z l s G w.P.x.w.( v Y Q.[.~.i.u.<.<.) R g y 8 n ^ a.t.x.4.w.e.x.t.7.V d y d j d t 3 - @ + + $ @ = > 7 a j Y z d r 9 ",
"$.$.$.K K K K D G B @.c.C.8.I v y.i.G 9 > : = : < 7 t q 0 t n R X.g.x.s.r.w.4.2.I d t y d r 6 ; - = - - ; 7 r s z G Y Y ^ H Y G ",
"$.$.L L $.$.K L / ) ^ 9.l.7.b B ~ 5 . .   . .     X o ; 6 t y N W l.p.x.g.s.8. .U n t r r 1 ; - - - = - - 1 8 y y a 9 8 r a 8 d ",
"$.$.$.L $.L L L Z.@.R ' r.^ n a : .     . # O     . . X @ - 7 g W 8.C.P.S.C.l.2.^ n t 8 7 ; - = = + o + 3 s B ! ! B j d a 7 - = ",
"$.$.L L L L K $.i.2.B N y 8 6 - ; > $ : & % O . . . O # o + = t W 8._.#X}.^.C.x.' n 8 1 , ; = + o . + 7 7 : & $ # $ & > 3 7 < > ",
"-.*.*.*.[ $.L *.k.n.' W Z V v v 8.j.2.[ ! l 7 > : * 4 < = = = , 8.s.}.2X5X#X).C.2.v 1 ; ; = + + X o @ + X   O .         . . . . ",
"u.u.=.-.-.-.L H R ' e.D.W.E.l.8. .t.s.d.x.r.) ) E R v v v n N ( C./.(.9X5X5X).D.) y ; 1 , - = = @ = = > 3 : # . . . . . . . . . ",
"u.y.*.*.-.=.*.r.8.Q X.D.^.Y.P.P.C.e.@._ W E R N V V b V E V b W E.}.<X8XwX5X).j.E 0 , 1 0 6 f I R R R E [ [ F l e 7 3 9 e 3 > - ",
"&.-.*.&.*.-.-.j.t.Q { R.P.[.`._.P.l.R b n V V R V V g f y y b c.).-X4XwX9X1X[.x.V y 1 8 g I B '  .) U R ^ 3.O.Q N n v g f y q g ",
"u.y.;.y.;.-.y.7.0.' l.U.R./. X.X.X).x.W g y y q 0 6 , 1 y O.E.=X=X,X4X4X5X=X~.t.V y q y b Q 1.X.t.s.' N v v g g f y 8 8 y g V N ",
"k.z.y.u.i.u.<.0...X.l.x.R.(.[.oX,X=X(.(.D.r.V v v n I u.{.2X@X,X1X5X<X4X4X#Xf.' V g g V C W X.t.d.l.s.x.2.n 1 1 1 1 , 1 1 1 ; ; ",
"v.p.y.y.i.u.x.A.9.Q t.S./.[.}.#X4X1X,X[.+X].^.E.}.oX.X*X;X1X1X;X4X5X3X1X4X`.x.R b b V W { 1.e.e.d.s.x.D.).^.k.y.o.I v y t 8 8 t ",
"w.r.3.y.&.&.&.E.8. .x._.^..X=X2X3X5X,X=X)._.W._.oX1X,X=XoX1X2X5X5X9X9X4X#X/.r.W b b V Q { d.e.d.a.B.j.^.^./.^._.}.).(.E.D.P.x.x.",
"8.2.3.O.&.$.&.c.g.k.P.^.[.#X=X2X9X9X9X*XoXY.T./.=X-X=X@X@X,X5X5X0XwX5X2X.Xc.r.) C V V g g g g V W 8.P.L.~._.^._..X.XoX_.^.U.U.A.",
"0.9.O.[ 2.&.{ e.d.S.V./.oX<XOX1XwXtX5X5X XXX).oX1X5X@X=X2X5X2X5XtXrXwX,X).S.r.8.X.' g y y q 8 1 1 f R l.^._.Y.oX#X,X[.oX}._.b.P.",
"w.X.| ] e.[ 2.7.a.b.j./.%X*X*X1XwX0X5X2X2X,X=X=X2X1X@X#X=X=X#X5XwXyXwX#X^.S.j.x.D.r.V y f V V g 8 ; 1 v s.^.^.}.=X@X}.[._./.P.l.",
"+.%.[ +.5.3.3.d.a.h.c.^._.+X+X1X;X5X3X1X@X1X@X=X).[.Y.L.j.oX<X5XwXtX2X,X(.P.U.E.C.t.C g g Q 8.X.V 1 = ; 0 E t.P.[..X_._.(.R.b.k.",
"%.{ ..[ 3.7.w.t.l.r.x.j.^._.oXXX+XoXoX^._.^.T.C.t.' g g s.*X4X0XwXwX2XoXoXW.`.^.d.W g f C 6.7.Q b 8 ; - ; 6 n { s.S.K.D.S.S.g.a.",
"3.,.! O.2.y.O.f.g.g.t.c.^.[.^.`._.W.x.c.x.0.E V y 6 1 U ).,X,X0XrXyX6X5X+X+X(.V.U y 1 0 y g q 0 6 1 6 q 0 8 6 v E 8.4.g.s.l.3.0.",
"] ) ) ! +.[ O.<.h.l.1.e.D.W.T.P.E.x.7.' E V y , - 1 E oX<X2X4X8XyXyXyXwX1XoXA.I t ; = + @ + @ = , 6 8 q y y 0 6 t n U ' <.X.' ' ",
"/ ! ! / ~ / ` 7.t.r.{ 5.e.c.l.c.s.8.E V y 6 - - 8 O.(.5X5X5X5XwXrXyXtX9X,XL.I 8 - + $ @ + + + - - ; , 1 6 0 0 6 , 6 y B P R U U ",
"! T / T / / / { X. .Q Q 5.9.w.X.' C g q 1 - ; y y.{.;X5X9X4X5X9X5X,X,XE.E.! 8 - = + + + o o + @ = = - = - , 1 , ; - ; 8 n V N b ",
"I H A G Y ~ Y ( { ^ V R ' 9.' ' C g 0 , - ; 8 ( Z.@X=X4X9X5X{.#XOXE.[ U n r - @ + + o + + + + @ = - @ + @ - = = = = + = 3 n I U ",
"M n M M B G H ^ @.Q C V Q ..Q C n q 1 ; , 8 N ' E.{.(.H.).I.i.j.Y.p.O.f 6 ; - - - = @ @ = @ = = - : @ + = = = = @ $ $ + + < v B ",
"j j j z z M H [  .' E C C ' Q V y 6 ; ; 1 v Y O.c.&.B B ! 2.{ ) U ! B y ; , 8 d r < - - = - = - - > : : = : : : + $ $ + + + ; d ",
"j j j j z M H ) 3.1.{ R V W W b y 6 ; ; 0 A M B E d t r v I B d 0 6 , = @ ; t v j r 1 ; ; - - - - > : : - - ; > > > = + + + + - ",
"l z d z z G B ] w.f.8.O.C C b b f 0 , 1 y M d M j r 6 8 y n d y 6 6 ; - 6 ! ) E B n 0 6 , , - ; , , ; ; , , ; , , < : = $ + + @ ",
"s z l j D G Y ] p.A.c.w.) b v N I d 1 1 j j d j s 8 8 8 d d v f 8 8 8 8 B r.s. .Q V g 0 6 1 ; , 8 8 8 8 8 1 6 1 , , > : + + @ - ",
"s z z z z G Y &.i.R.U.V.<.N f N T I d 0 n M r 9 9 r r y y v v v f g N I I ! '  .Q R g g 0 0 6 8 8 y q 0 1 1 1 1 - - = @ + - < 1 ",
"l D L K G H H [ A.E.E.U.c.U v n ' / U d v v 8 - ; ; ; ; , 1 t g V V V n V V V V b f y 0 6 , , , , , ; - = = = + o $ + = 7 a j 8 ",
"K L L $./ / Y [ n.E.C.Y.L.3.v v ) 3.^ T B b r 7 < - @ - ; 1 1 q y y 0 p p y t t 0 6 , , ; ; = - - - + @ @ @ @ = - < , y U ) V 8 ",
"K L L $.$./ H ~ u.R.D.U.T.s.H d R @.{ ' ) U n d j d s r f v g v n m f p p y 0 0 t 8 t t t 0 8 6 6 1 1 1 6 6 6 q q y g ' X.! N y ",
"H $.*.*.$.[ / / $.u.i.K.n.n.O.n v ) 0.<.) U B I I T I n y v N T I B S S A S A A m m f f p p t y t y t y q y 0 0 t n ' r.) R f n ",
"K *.*.$.$.*.L L L / [ 2.w.w.2.n j B <.7.<.U N A T ! ^ R n d j z z j n B Y n v s s s 9 e 9 9 e t r 8 r 0 t 0 8 t n ) 2.<.) I y B ",
"$.-.#.*.*.*.F G j z H / / ) / R n N U @.<.) N I ( ) I B N v a a r a r l j j a r 9 7 < 3 3 7 3 7 9 9 7 t r p 8 j E w.O.&.) v r I ",
"$.*.*.*.-.$.F i e r $./ H v R ' O.U R  .4.( T I ! ) E B N d d t y a s j M d a 9 7 < < < 3 3 3 7 9 9 7 9 a d v B [ O.2.T n f d n ",
"K *.&.*.*.$.s 5 > 5 D L H I U z.p. .^ <. .` ( E R ' ! R n v j d d d M A j d a 9 7 3 < < < 4 7 9 9 r 9 a y n H / O.3.[ N j z j v ",
"F *.-.*.*.D u > * 2 4 s / 2.t.E.Y.' { ] ) ) } _ E ( ) R T I ! Y I R ! Y M d s 9 9 7 7 5 9 e s l v j j v N / O.&.y.O.I n n d d a ",
"c $.$.$.L c 5 4 & 2 2 4 D i.Z.`./.s.[ 3.) ( T { { { ' ' ) w.2.[ / &.[ y.&.[ D z z l s l l z N H ! Y M G / / K &.[ Y v n M d s j ",
"k K L L L l 4 & & 2 * > i i.~.{.oXj.O.%.! ! ) 2.i.0.r.3.p.u.&./ L / &.&.y.*.*.$.=.$.K G M G H ! +.&.~ ~ ~ / ~ [ ~ z j j M z z G ",
"w D K $.K l * % & & * 4 i u.*X*X_.D.@.O.E / / p.n.Z.y.u.u.k.i.i.$.-.;.>.:.>.H.G.$.L L G j G H [ / / / H H / / ~ z z s s j G H H ",
"w l F L z e & # & % * 4 u -.4X*X).k.0.<.%.) 3.j.k.k.A.i.F.Y.E.F.F.i.M.m.G.E.G.;.$./ ~ H A B ~ ` O.[ $./ / / ~ M j s a r s z z a ",
"5 5 x c l w % # % & % > 7 &.2X1X).D.{ { %.B.K.P.E.R.j.N.N.C.i.Z.F.i.y.i.k.A.3.+.] ( I H Y ~ R @.r.u.&.&.[ K D z s r 3 9 s s 5 4 ",
"% & 2 4 h 5 % # # # % : 3 H ,X2X).w.[ p. X@X}./.[.~.C.v.A.k.p.3.w.O.2.2.w.2.O.) ] ) ! ~ ` [ [ u.K.U.&./ G k l i u > = < < > > > ",
"O O # * 4 4 * O # # % > < E 1X5X;.>.{.=X1X2X5X,X}.oX}..X!.R.A.A.s.p.@.) I R ! +.) %.2.s./ O.u.^.E.Z.K z r 5 < 4 > % % < < 7 3 r ",
"O O O % * 2 * O O O % = a A.1X9XwXwX8X4X5XwXrXeXwX>X9X5X5X*X|.[.`.Y.y.T Y Y ! ` 3.r.k.k.P.).).i.L D i u 4 < & * % O > 7 a s d l ",
". . . # % * & # . O $ < O.}.<XwXtXyXeXwXwXtXeXyXyXyX8XwXeX0X*X*X=X2X{.m.$.H A ] k.Y.A.}.*X{./ D z w * * & & O O O # & < 9 r r a ",
". . . O # & % # . X # s u.@X6X6XwXeXeX6X7X7X7X7XqXqX7X7X7X7X:X:X>X:X:X:X:X>.L -.G.H.H.{.$X>.c x h w * & & # O O # # % * 5 3 w u "
};
