/* XPM */
static char *out[] = {
/* columns rows colors chars-per-pixel */
"64 64 222 2 ",
"   c #2B1608",
".  c #4A2415",
"X  c #5C2C1A",
"o  c #68321E",
"O  c #583F2A",
"+  c #763A24",
"@  c #7E3D26",
"#  c #63432F",
"$  c #6E402D",
"%  c #6A4D37",
"&  c #77523D",
"*  c #7F5D46",
"=  c #814A35",
"-  c #8E4B34",
";  c #96523A",
":  c #865540",
">  c #8C5D46",
",  c #9D5943",
"<  c #955F49",
"1  c #A45E45",
"2  c #89664F",
"3  c #9B644E",
"4  c #916A53",
"5  c #9A6F56",
"6  c #AB644A",
"7  c #A16851",
"8  c #AD6D51",
"9  c #A86D58",
"0  c #B36A51",
"q  c #B76F53",
"w  c #A1765D",
"e  c #A7755C",
"r  c #AE755B",
"t  c #B4715D",
"y  c #B97658",
"u  c #A87B63",
"i  c #AE7D64",
"p  c #B77764",
"a  c #BD7564",
"s  c #B27861",
"d  c #B47F64",
"f  c #BB7E63",
"g  c #C1785B",
"h  c #C87E61",
"j  c #C07B6B",
"k  c #AC836B",
"l  c #BE8466",
"z  c #B3876E",
"x  c #BA876A",
"c  c #BF8B6C",
"v  c #B78C72",
"b  c #BC8E72",
"n  c #C38264",
"m  c #CC8566",
"M  c #C78568",
"N  c #C4816F",
"B  c #C48A6C",
"V  c #CC8C6D",
"C  c #CC8C6E",
"Z  c #D18969",
"A  c #D48C6E",
"S  c #D88F6F",
"D  c #C88973",
"F  c #CC8A78",
"G  c #D08B78",
"H  c #D38E7E",
"J  c #C39072",
"K  c #C69677",
"L  c #C89172",
"P  c #CC9475",
"I  c #CA997A",
"U  c #CF9C7E",
"Y  c #D19071",
"T  c #D09072",
"R  c #D29172",
"E  c #D09273",
"W  c #D39273",
"Q  c #D49374",
"!  c #D59475",
"~  c #DA9472",
"^  c #D79778",
"/  c #D1967C",
"(  c #D89778",
")  c #D59A7B",
"_  c #D99878",
"`  c #D9997A",
"'  c #DB9A7A",
"]  c #DA9A7B",
"[  c #DC9B7B",
"{  c #DB9C7D",
"}  c #DA9D7E",
"|  c #DE9D7D",
" . c #DC9D7E",
".. c #DD9D7E",
"X. c #E09E7D",
"o. c #E29F7D",
"O. c #E2A07F",
"+. c #D89380",
"@. c #D89982",
"#. c #DD9E80",
"$. c #DE9F80",
"%. c #DF9F80",
"&. c #D99E87",
"*. c #D4A082",
"=. c #DFA081",
"-. c #DCA386",
";. c #D8A485",
":. c #DCA88A",
">. c #DFAB8E",
",. c #DFAF94",
"<. c #E0A081",
"1. c #E2A181",
"2. c #E3A181",
"3. c #E0A182",
"4. c #E1A283",
"5. c #E3A282",
"6. c #E4A281",
"7. c #E4A382",
"8. c #E5A382",
"9. c #E4A383",
"0. c #E5A383",
"q. c #E6A483",
"w. c #E5A484",
"e. c #E6A584",
"r. c #E6A585",
"t. c #E7A685",
"y. c #E7A686",
"u. c #E8A786",
"i. c #E8A787",
"p. c #E0A58A",
"a. c #E3AC8D",
"s. c #E7AD8F",
"d. c #E8A888",
"f. c #E9A888",
"g. c #E9A989",
"h. c #EAA989",
"j. c #EAAA8A",
"k. c #EBAA8A",
"l. c #EBAB8B",
"z. c #EBAC8C",
"x. c #EBAE8F",
"c. c #ECAC8C",
"v. c #ECAD8D",
"b. c #EDAD8D",
"n. c #EDAE8E",
"m. c #ECAE8F",
"M. c #EDAE8F",
"N. c #EEAF8F",
"B. c #EDAF90",
"V. c #E4B195",
"C. c #E9B193",
"Z. c #EDB091",
"A. c #EFB090",
"S. c #EEB091",
"D. c #EDB192",
"F. c #EEB192",
"G. c #EFB192",
"H. c #EFB293",
"J. c #ECB496",
"K. c #E6B599",
"L. c #EAB79A",
"P. c #EEB899",
"I. c #EEBC9E",
"U. c #F0B293",
"Y. c #F0B394",
"T. c #F0B495",
"R. c #F1B495",
"E. c #F0B496",
"W. c #F1B596",
"Q. c #F1B597",
"!. c #F2B596",
"~. c #F2B697",
"^. c #F2B698",
"/. c #F2B799",
"(. c #F3B799",
"). c #F3B899",
"_. c #F2B89A",
"`. c #F3B89A",
"'. c #F3B99A",
"]. c #F3B99B",
"[. c #F4B99B",
"{. c #F4BA9B",
"}. c #F4BA9C",
"|. c #F4BB9C",
" X c #F5BB9D",
".X c #F5BC9E",
"XX c #F5BD9E",
"oX c #F5BD9F",
"OX c #F5BE9F",
"+X c #F1BFA1",
"@X c #F5BEA0",
"#X c #F6BFA0",
"$X c #ECC4A7",
"%X c #F6C0A2",
"&X c #F6C1A2",
"*X c #F6C2A3",
"=X c #F7C2A3",
"-X c #F6C3A4",
";X c #F2C4A5",
":X c #F7C4A5",
">X c #F7C5A6",
",X c #F7C6A7",
"<X c #F7C7A8",
"1X c #F7C8A9",
"2X c #F0CBAD",
"3X c #F4CDAE",
"4X c #F8C9AA",
"5X c #F8CBAC",
"6X c #F8CCAD",
"7X c #F8CDAE",
"8X c #F9CEAF",
"9X c #F3D1B3",
"0X c #F7D1B2",
"qX c #F0D4B6",
"wX c #F6D4B6",
"eX c #FAD3B4",
"rX c #FAD7B8",
"tX c #F1D8B9",
"yX c #F7D8BA",
"uX c #F5DBBB",
"iX c #F6DDC0",
"pX c #F9E1C3",
/* pixels */
":.>.) *.*.*.;.a.C.L.V.J.C.J.V.K.V.V.,.V.,.C.,.K.a.s.p.,.>.C.a.a.:.p.-.-.;.4.;.-.) ) ) ` ) ` ! ) E ) / ) / / L E D C C W T Q T C ",
":.*.U U *.*.*.>.V.K.V.V.L.V.K.C.K.,.,.a.V.C.C.x.s.a.>.a.C.s.>.p.p.>.:.p.p.p.w.-.} ] ` ] ] ] ` ) ) P E / / P E T T T Y T ! R W T ",
"*.*.I -.a.>.:.C.C.E.C.J.J.E.V.V.D.D.a.x.J.E.s.C.C.J.p.s.D.J.l.x.z.s.=.y.z.x.p.4.3.3.( [ 4.w.} #.} *.P I I P B L C C m T ! _ T W ",
"*.*.*.s.J.E././.oX X`._.|.Q.J.J.`.Q.Y.D.`.^.Y.S.Q.C.C.x.E.E.Z.Z.x.z.g.g.S.z.4.#.3.%...| 1.4.3.*.*.*.U I / L B M T V m V R T T T ",
":.s.s._.^.`.Q. X/..X].@X]. X_. X_. X/.`.E.Q.Q./.E.Q.Y.E.Z.Y.S.F.s.z.l.x.g.l.7.1.$.O.X.<.[ 3.#.p.*./ P P P P B C M C m V m m Z A ",
"E.Q./._.|. X`./. X X|.|.|./._.'.|.|.`././.E.Q.E./.W.Y.m.D.S.z.z.z.d.g.l.j.1.O.| %.%.X.] ..#.#.$.) I P L E C V M V V V m Z m m Z ",
"/. XE.|.|..XJ./.].oXJ._./.|.J.].`. XJ.].^.`.D./.].Y.g.z.B.B.y.f.k.k.d.g.t.1._ X.O.5.] $.3.4.` | } ` B V T T n M M V M m m Z h m ",
"|./.`._.XX{.Q.J.|.].Q.E.`.Q.Q.Y.].`./.D./.].Q.E.].^.z.x.S.z.u.y.k.j.l.y.t.1.[ { <...'  .4.=.) ) ` E M M C M n n M n n n m m m h ",
"Y.W./.[.Q.Q.R._.J.[.^./.D.D.S.`.F.Q.Q.`.'. X`. XQ./.N.S.g.x.j.Z.d.z.j.N.w.y.#.=.[ $.] |  .=.^ ] Q T M C M V M M l n n M h M h g ",
"s.D./.`.Q.F.R.Y.E.E.E.N.G.D.S.!.'./.].|.&X&X&X|._./.D.z.B.s.x.k.z.d.j.j.N.0.4.#.<. . .%.$.} ` ^ Q M M h V M h h n g g g g g n g ",
") s.x./.{.U.g.D.Y.R.a.z.m.D.d.Y.Q.oX_.@X,X4X@X].!.D.4.$.#.#. .} ` ` E 2.w.t. .%.%.=.` #.4.#.! ^ ! T M n M M y f y a y g g n g g ",
"f E 4.z.Y.M.l.j.R.A.a.y.l.l.y.m.!.].|.|.&X_.a.:.I f 7 7 7 4 9 9 r s l C E E ` } |  ...%.$.{ ! Q E C M f M l f y f y y y n g g g ",
"8 l ! g.g.n.d.v.l.M.l.d.=.w.y.l.z.Q.Y.s./ d 3 : & $ o X X X X + = > 7 r r y y f M } ! { ^ $.^ ! C V n l f l f f t y y f y g g g ",
"p f T #.f.j.k.a.z.z.l.3. .}  .$.w.y.%.l 9 : + o X . . . . X $ + = = : < 3 7 3 1 8 f M Y E E Q T T M l f f f f y g y g y g g y g ",
"f C V ^ w.k.y.f.g.N.y.` T A m T ! ! n 8 ; = o $ $ + $ = < 9 i c d r 3 7 9 3 ; < 3 7 1 7 y l l n M M y f y f q y y y 0 q q y 0 q ",
"t 8 M ! u.f.y.w.k.i.y.! m n M M M n r , ; : = = - 3 r l ) 3.w.p.p.} / T E l s 9 7 7 3 3 7 7 7 8 8 r 9 9 9 8 0 8 0 0 8 6 0 0 6 6 ",
"t 8 y V { h.f.j.w.w.%.{ M n f l f t 6 1 ; ; ; , 9 n V ` ` 4.4.y.9.w.3.4.#.9.#.C s s 9 9 3 7 3 7 3 3 3 7 7 7 1 6 1 1 1 1 1 6 6 6 ",
", 7 8 n R w.N.z.i.5.w.) W C n f t 6 , , , , 1 1 8 y M C W E V m M n V T ! ] $.^ C V n t 9 9 3 7 3 3 3 3 3 6 7 1 1 1 1 1 6 8 8 0 ",
"X $ - 8 M X.m.U.n.M.7.%.^ ! n y 8 1 ; ; ; - = ; f ^ } y.g.g. .E M f 1 1 8 n M T Q Q M n f s 9 8 9 9 7 8 t 8 1 8 8 8 1 6 t r 6 0 ",
"O o X + t _ R.@X%XQ.x.y. .V t 6 6 3 ; - @ o > s B V L ) *.) ) E E M f 9 ; - 7 n Y T C M M M l n f f f f f y 8 0 t 8 8 0 y g g g ",
"> 5 = + - _ R.8X5X-X`.R. .n 6 6 6 ; - = o = , 3 : $ & & % & > 7 7 9 5 9 3 : @ < l ^ ^ ! A n n m m M M l y y y p t y y f y f f n ",
"D M l l C d.].0XwX5X&XS.^ t 6 8 6 , , ; = = = @ = X .         . . . X X o $ $ + 3 f f y y f n M V V V M M n g y y t f y f f n f ",
"! ( W ( %.!.'.wXyX0X_.y.V q 6 q t t V ! Q ! C E T J e > & % o o O X X o X X X = , 1 6 y n m T [ <.6.( ' ' ( f f y f f l n M f n ",
"W h g n r.-X,X0XwX4X_.%.V y q n _ _ ^ 8.k.o.' | $.4.` T V M M n f 8 8 9 8 8 f g t 6 0 M ` X.| | 2.O.X.%.] V 0 8 6 1 6 1 8 8 8 t ",
"8 6 f s.&X>X7X7X1X&Xz. .m M h V ! u.u.l.k.f.^ V n R Z S m m g h h A ~ ( ~ ! y 6 , g R w.6.u.<.| Q _ ! ! m n y 8 3 1 7 r s f l M ",
"E p.@X>X5X5X4X,XoXS.#.A ! A ~ ~ ~ 2.v.v.N.A.G.2.M 1 1 1 6 8 0 q q q 0 6 , , , y ! 2.0.w.u.u.y.q.5.{ ' ' ' ' T f 8 9 r r f f f f ",
"-X4X@X<X8X0X1X&X(.y.A A ! t.O.8.u.f.u.k.A.`.Q.'.J.~.%.! V n 7 6 7 1 , 8 n _ 2.l.N.B.y.u.8.g.1.O.y.u.| 6.7.e.Y f y 9 3 9 9 y t y ",
"7X1X,X1X0X8X4X].S.| A Z _ 2.q.k.N.M.h.k.A.Q.Q.Q.|.|.|.oX&X.XoX_.Q.Y.S.R.|.`.R.D.Q.G.m.t.w.| #.X.e.9.8.8.u.4.! M t 8 6 9 t t y y ",
"7X7X5X0X0X5X&X!.r.{ A S A Q S ' [ 2.0.n.z.Q.Y.|.W.|.(.&XOX-X#X*XoX@X.X@X].|.^./.G.G.N.A.h.o.` X.8.5.u.y.e.e.W B t t 8 r y f f n ",
"0X5X5XyXyX5X].S.h.o.~ S Z h h h g y g Z o.N.R.'. X].[.@X,X-X,X,X>X%X%X@X@X}.G.A.S.A.Y.N.h.0.O.| %.q.u.8.<.$.T n y r t y f l M D ",
"0X8X-X0XuX4XU.G.S.m.1.~ m m h A S m 8 1 8 T #.G./.%X|.&X-X5X-X,X1X7X&X*X&X`.m.M.N.U.h.j.d.c.0.<.| %.%.2.` ^ C M l f t n m V n Z ",
"*X|.,X0XwX,X(.Y.`.R.n._ A m A u.h.0.A q , ; 8 V w.U._.W.<X4X,X>X4X-X>XoX%X`.Y.N.G.G.j.v.A.c.y.%.X.[ { ' ] ! C n n n f M T T V V ",
"W y.4X8X8X<XoX X/.Y.| A Z ~ q.m.u.q.~ h , ; ; 6 t ! w.R.!.&XoX:XOX*X.X&X`.`.[.G.v.A.c.G.t.k.8.q.[ { ! / E E B P f l f m Z Q T E ",
"q g.0X0XwX0X5XoXQ.{ m h m ~ | ~ ~ h y 6 1 6 8 q 0 0 M { l.U._./.].Q.Q.^.!.R.`.Y.N.A.b.c.d.h.0.<.| ^ ` ! E P C B C y n m A W ! W ",
"n -XwXuXpXuX4X|.] f 6 6 1 , - - - - - , q h g g g g q g ! w.t.U.S.Y.d.m.U.Y.z.A.A.G.0.u.f.d.%.%.) ) L E / P C E E M y M Z A m Z ",
"C.5XuXpXpXyX*X .y , @ o + @ + + @ - ; ; 6 q 8 q g g g q q M ! | 7.d.t.w.z.d.k.h.z.c.w.2.0.4.%.{ ) E P P E P L E W C n M Q Q T Z ",
"_.7XwXyX5X&Xp.f ; = + @ @ @ + + @ = @ ; - ; ; 1 0 q 0 6 1 3 0 M ! _ _ %...2.4.w.q.w.%.6.{  .^ ) E T P / T L T ) P T E W R ! V A ",
"-X5X<XoXD.} f , - = + + + + + + @ = = - - = @ = ; ; ; - - : - , f ! Q _ _ ' | ' %.| ' ^ [ ! W P P L / E E P P E ) #.$.} ! W Z V ",
"E.|.s.g.w.^ 6 ; - - = = @ = @ @ = - - - - @ + @ - ; - - : = + @ : s Y ` %.{ W ! _ ' ! ! ^ ( T C C L D / ^ ) L L / p.} #.! W M Z ",
"E C ) Y T n 3 - 6 l l 7 ; ; - - - - ; < ; : : - - ; ; - - @ + + + = 7 n { #.[ W ! ! Y E _ W C V C B C Q ` E B V ) } ! ! Q V m m ",
"r y n f 7 1 - 1 y C V n 8 7 ; ; - - - ; ; ; - - ; ; ; , < < : : + + @ ; t E ! _ T Q Y Q ! ^ ! C l B M ! ! ! C C C E P E M m V m ",
"9 8 y t 6 6 1 E u.O.^ V n t 6 , , ; 1 1 7 1 1 1 , 1 1 6 8 9 7 < : = + + ; r R W T Q ! ! { [ ] C B l B W ^ E B l l c L M C m V Z ",
"9 9 y n f M V 4.m.N.| _ ! m q q 0 0 q g n g q q 8 0 8 q 8 q 6 7 ; : @ = : , y ! Q _ !  .<.4.` P L D l E / P l l c J B D C T m Z ",
"7 r f f Z _ _ ] %.8.w._ ' Z M M M m h h m m m h y q q q g q 0 0 8 < : : - ; 6 V ! ` [ X.w.4.%.E P B B L / B f c K K L n V C V V ",
"> 3 3 r n h g m h m M m g g q 0 1 6 6 0 q q 1 1 , 6 1 6 , , 7 1 1 < ; ; , 1 6 n ! | %.4.X.2.} } L L L / L J f J J I B l l B M D ",
": : @ - ; ; ; , 1 1 1 , , - - = - = = = - - @ @ @ = = = = = = = - = 1 y f n f t ! | O.| %.| ` C L L D P L c f c L K c l B B M B ",
"8 3 7 q 0 0 6 6 6 1 ; ; 1 1 , 1 6 q 6 1 6 1 ; ; , 1 1 6 q 8 6 6 0 y V X.1.w.V n _ 1.| | <.O._ T L P D L B l d c c C c B B C l B ",
"B n n m S ( +.+.@.+.H G +.H G D G F N j N j j j M h g g g g g g Z | g.g.y.w.Y M ! %.%.{ 1.%.^ P L L L B c d s f f x l L L L B B ",
"W E C Z A [ +.+.+.@.+.@.H @.M n j f r y j j j j j j g y q q g R 2.G.G.d.=.w.T C ^ 1.<.1.! E E L B K B c f d l c d d c B L ^ E T ",
"^ ^ ! A T C V D F F n n M f s 7 7 7 7 7 8 9 9 y y t t t y y V { S.S.S.w.y.X.V V X.X.%.^ W B V B B c l d s d l d d c J B U ) ^ / ",
"/ / Q V M r 7 6 7 7 7 7 9 9 7 3 < < > < 3 3 3 7 9 t 9 f p V ! l.M.D.w.m.l.` n V X.%.( ! C C n B D c f r d l d s f J J U *.} L L ",
"P *.) E Q f 9 3 7 7 9 9 r r 9 9 3 3 < < < < 7 9 9 t t y C E 2.m.!.F.M.x.l.Y M R { | ] V T M B V C B s 9 d c f d c J K I *.L L B ",
"K I P ! W M 8 7 7 9 r p f f f r 7 9 < 3 < 7 9 s f M T W ^ =.y.U.D.D.F.E.4.W C _ ] | Y E M C C C B B r 9 s K K c c L K I P ) } ) ",
"J I I E ! T r 6 8 8 y M ) ` T l M l f r l B E ! $.4.w.w.d.d.v.B.D.S.z.y.#.! E W #.] Q C V C E C C l r 9 d i J I c c B L P ) -.) ",
"b *.K K *.) l t t f f ] y.p.T ! E #.) ;.p.s.a.C.J.D.d.x.a.j.w.s.a.x.4.#.] ) E ! #.[ T E Q _ P P L B r s 9 7 9 K J J c L I &.-.w.",
"z I I J I P T M V W A O.M.d.y.y.y.d.a.a.s.J.J.E.P.Q.z.w.a.w.w.p.s.a.=.#.#.} ` ` 3.) ` !  .] E E L d f x f u r l P K L B / ;.p.-.",
"w J I K d f c E ` q.w.v.d.B.Y.F.x.Y.J.`.Q.oXOX-X+XoX+Xs.#.y.d.a.$.p.} ` ) } }  .` #.=.4.} ) / / c d d x i e 9 r d B P P P -.*.U ",
"w x K K i 5 5 c ) w.d.N.v.h.S.M.Y.!.R./.@X&X*X*X-X@XJ.s.x.a.d.a.#.) T Q ( ^ { #.#.=.r.d.y.$.} I L u d b k i i 9 < r l B U J i w ",
"5 5 b x e 4 % 4 i I I Q.oXY.y.d.M.Q.z._.].XXW.T.Q./.y.y.s.H.y.4.} } T ! (  .` $.4.a.4.x.H.D.&.U J i 5 J b z e w = > 7 s 7 4 4 5 ",
"% & 2 5 u 4 % % * 5 i *.<X*Xz.z.g.N.Y.H.^.`.Z.s.M.s.9.%.8.y.%.' ] [ ! ^ ..] $.4. .w.s.U._.`.:.K J d 5 5 u 5 3 7 & % > : > < < 4 ",
"O O # * 4 4 % O % & > 9 :.6X'.4.d.&X%X*X@X X[.{.H.W.Z.M.d.y.X.<.! ! R ! ! #.=.d.=.w.x._.).%X>.U c i k 4 4 > * 4 % # > 3 3 9 7 d ",
"O O O % * 2 * O O O & > E :X8X$X0X8X8X8XeXyXwX8X6X5X7X,X@X].].].H.p.Q E ! ! ` #.4.j.H.Q.%X&X:.K J e w 4 4 * & & # # < 7 r d f x ",
". . . # % * & # . O $ < #.@X1XyXiXpXuXyXyXiXuXpXpXpXwXyXuXrX>X>X,X5X+XC.*.P D { x.Q.J.@X>XI.U J c w * * & & O O O # & < 9 r r d ",
". . . O # & % # . X # d a.=X9X9XyXuXuX9XqXqXqXqXtXtXqXqXqXqX2X2X3X2X2X2X2X,.U :.K.L.L.;X;X,.b v k w * & & # O O # # % * 5 5 w u "
};
