/* XPM */
static char *out[] = {
/* columns rows colors chars-per-pixel */
"64 64 222 2 ",
"   c #2B1608",
".  c #4A2415",
"X  c #5C2C1A",
"o  c #68321E",
"O  c #583F2A",
"+  c #763A24",
"@  c #7E3D26",
"#  c #63432F",
"$  c #6E402D",
"%  c #6A4D37",
"&  c #77523D",
"*  c #7F5D46",
"=  c #814A35",
"-  c #8E4B34",
";  c #96523A",
":  c #865540",
">  c #8C5D46",
",  c #9D5943",
"<  c #955F49",
"1  c #A45E45",
"2  c #89664F",
"3  c #9B644E",
"4  c #916A53",
"5  c #9A6F56",
"6  c #AB644A",
"7  c #A16851",
"8  c #AD6D51",
"9  c #A86D58",
"0  c #B36A51",
"q  c #B76F53",
"w  c #A1765D",
"e  c #A7755C",
"r  c #AE755B",
"t  c #B4715D",
"y  c #B97658",
"u  c #A87B63",
"i  c #AE7D64",
"p  c #B77764",
"a  c #BD7564",
"s  c #B27861",
"d  c #B47F64",
"f  c #BB7E63",
"g  c #C1785B",
"h  c #C87E61",
"j  c #C07B6B",
"k  c #AC836B",
"l  c #BE8466",
"z  c #B3876E",
"x  c #BA876A",
"c  c #BF8B6C",
"v  c #B78C72",
"b  c #BC8E72",
"n  c #C38264",
"m  c #CC8566",
"M  c #C78568",
"N  c #C4816F",
"B  c #C48A6C",
"V  c #CC8C6D",
"C  c #CC8C6E",
"Z  c #D18969",
"A  c #D48C6E",
"S  c #D88F6F",
"D  c #C98270",
"F  c #C88973",
"G  c #CC8A78",
"H  c #D08B78",
"J  c #C39072",
"K  c #C89172",
"L  c #CC9475",
"P  c #CA997A",
"I  c #CF9C7E",
"U  c #D19071",
"Y  c #D09072",
"T  c #D29172",
"R  c #D09273",
"E  c #D39273",
"W  c #D49374",
"Q  c #D59475",
"!  c #DA9472",
"~  c #DD9876",
"^  c #D79778",
"/  c #D1967C",
"(  c #D89778",
")  c #D59A7B",
"_  c #D99878",
"`  c #D9997A",
"'  c #DB9A7A",
"]  c #DA9A7B",
"[  c #DC9B7B",
"{  c #DB9C7D",
"}  c #DA9D7E",
"|  c #DE9D7D",
" . c #DC9D7E",
".. c #DD9D7E",
"X. c #E09E7D",
"o. c #E2A07F",
"O. c #D89380",
"+. c #DD9E80",
"@. c #DE9F80",
"#. c #DF9F80",
"$. c #DD9986",
"%. c #D4A082",
"&. c #DFA081",
"*. c #DCA386",
"=. c #D8A485",
"-. c #DCA88A",
";. c #DFAB8E",
":. c #DFAF94",
">. c #E0A081",
",. c #E2A181",
"<. c #E3A181",
"1. c #E0A182",
"2. c #E1A283",
"3. c #E4A383",
"4. c #E5A383",
"5. c #E5A483",
"6. c #E6A483",
"7. c #E5A484",
"8. c #E6A585",
"9. c #E7A685",
"0. c #E7A686",
"q. c #E8A786",
"w. c #E8A787",
"e. c #E9A887",
"r. c #E0A58A",
"t. c #E3AC8D",
"y. c #E7AD8F",
"u. c #E8A888",
"i. c #E9A888",
"p. c #E9A989",
"a. c #EAA989",
"s. c #EAAA8A",
"d. c #EBAA8A",
"f. c #EBAB8B",
"g. c #EBAC8C",
"h. c #EBAE8F",
"j. c #ECAC8C",
"k. c #ECAD8D",
"l. c #EDAD8D",
"z. c #ECAE8F",
"x. c #EDAE8F",
"c. c #EEAF8F",
"v. c #EEAF90",
"b. c #E4B195",
"n. c #EDB091",
"m. c #EEB090",
"M. c #EEB091",
"N. c #EDB192",
"B. c #EEB192",
"V. c #EFB192",
"C. c #EFB293",
"Z. c #ECB496",
"A. c #E6B599",
"S. c #EAB79A",
"D. c #EEB899",
"F. c #EEBC9E",
"G. c #F0B293",
"H. c #F0B394",
"J. c #F0B495",
"K. c #F1B495",
"L. c #F0B496",
"P. c #F1B596",
"I. c #F1B597",
"U. c #F2B596",
"Y. c #F2B698",
"T. c #F2B798",
"R. c #F3B799",
"E. c #F3B899",
"W. c #F2B89A",
"Q. c #F3B89A",
"!. c #F3B99A",
"~. c #F3B99B",
"^. c #F4B99B",
"/. c #F4BA9B",
"(. c #F4BA9C",
"). c #F4BB9C",
"_. c #F4BB9D",
"`. c #F5BB9D",
"'. c #F5BC9D",
"]. c #F5BC9E",
"[. c #F5BD9F",
"{. c #F5BE9F",
"}. c #F1BFA1",
"|. c #F5BEA0",
" X c #F6BEA0",
".X c #F6BFA0",
"XX c #F6BFA1",
"oX c #F6C0A1",
"OX c #F6C0A2",
"+X c #F6C1A2",
"@X c #F6C1A3",
"#X c #F6C2A3",
"$X c #F7C2A3",
"%X c #F6C3A4",
"&X c #F7C3A5",
"*X c #F2C4A5",
"=X c #F7C4A5",
"-X c #F7C5A6",
";X c #F7C6A7",
":X c #F7C7A8",
">X c #F0CBAD",
",X c #F4CDAE",
"<X c #F8C8A9",
"1X c #F8C9AA",
"2X c #F8CAAB",
"3X c #F8CBAC",
"4X c #F8CCAD",
"5X c #F8CDAE",
"6X c #F9CEAF",
"7X c #EECEB0",
"8X c #F3D1B3",
"9X c #F7D1B2",
"0X c #F0D4B6",
"qX c #F6D4B6",
"wX c #FAD3B4",
"eX c #FAD7B8",
"rX c #F1D8B9",
"tX c #F7D8BA",
"yX c #F5DBBB",
"uX c #FADDBE",
"iX c #F6DDC0",
"pX c #F9E1C3",
/* pixels */
"b.y.5.<.} +.I *.*.;.h.(.(.(.+X{.A.D.W.#X.X+X#X&X{..X{.F..X&X{..XN.W.P.W.P./.P.h.p.y.h.c.t.s.s.s.5.<.} @.] @.] ..W ^ C T U T S Y ",
";.y.2.^ 0.H.R.W.(.(.{..X$X-X-X}.}.{.$X#X:X-X1X1X#X.X.X+XXX{.'.W.I.I.I.H.R.B.Z.n.z.f.s.u.h.e.e.e.&.{ ` ` #.[ [ _ ^ C U Y E T U T ",
"I ,.) @.p.V.p.H.R.OX~.OX+X:X}.+XOX%XW.{.#X2X@X-X[.XXD.{. X[.L.Y.Y.E.g.H.G.P.g.s.f.h.3.p.s.j.<.q.o.] E _ [ ,.] .._ W V Z A S V A ",
"J x p p l x c R y.R.|.{.;X#X@X{.-X.XI.I..X1X@X-X1X`.W.~.+X(.T.L.W.I.C.n.L.V.z.h.g.e.3.3.q.f.e.8.' ' _ ' 2....._ _ U Z Z A U Z Z ",
"< : @ + $ # $ & 9 } y.R.W.{.@XoX+X(.(.R.W.<X#X:X#X(.H._.I.{.P.I.I.{.'.'.R.W.H.G.u.8.q.a.5.s.e.j.@.{ ] ..{ @.+.[ E A Z A Z A m Z ",
"3 9 w 4 & X X O $ > r K *.N.W.(.{.R.H.G.R.$XXX#XR.!.H.N.U.{.{..X+X#X&X+X{.P.P.h.y.u.8.s.f.e.s.e.e.3.+.+.#.@.@.^ E Z Z Z Z m m m ",
"n.I.N.D.;.J 5 > > < < r B %.t.].Q.I.j.c.P.$XW.I.I.P.p.z.I. X'.#X&X-X.X+X/.D.3.0.@.1.} <.<.<.#.5.<.&.{ @.1.3.] ^ E A m h m m h h ",
"R.H.W.{.#XW.b.-.I l s y M R ) s./.P.V.p.P.W.L.N.Z.p.u.p.I.$X{.{.+X/.H.;.-.I x r r r r f l f n C Q ^ )  .>.@.[ ^ W m h g h g g g ",
"p.h.A.I.N.I.h.z.r.3.^ R C E ^ 0.h.H.m.G.c.P.z.k.e.3.@.0.j.R.XXH.r.K r < : = $ $ X o o = : < 9 f f n M E ^ ] ` ` Z m g g g g a g ",
"0.E R @.p.h.h.t.r.) W U ^ ` } <.V.j.c.V.H.M.G.c...W _ ] 3.u.p.Q y < = # o X X . . . X X $ $ = < 3 7 7 9 M E ^ Q M n y g g g g g ",
"n f *..X1X-X/.W.c.3.M f n ^ [ 8.x.c.g.h.n.G.h.c.W M m C E ^ M y , : + o $ o X o $ = : < < > = : : > : > < 8 y M M f t y f g g y ",
"f h.{..X~.P.h.p.p.3.^ n y n W #.c.V.j.g.V.m.h.s.^ g g n V n y 6 ; = + + - > < r l R ` %./ f r r 7 > : : > < < 3 r y y y g a y y ",
"C W.b.I 9 > : > > 9 t f y q h ! #.f.V.c.j.j.j.s.^ M f f f y 8 1 - ; ; ; 7 y M ) } r.3.u.3.@./ / F l r , < 3 < ; : 7 t y q q y q ",
"^ K 4 X . . . .   . X = , 8 y m [ e.P.W.H.N.c.8.` V n f t 6 , ; - ; ; , 7 y M M M n M F U R C ` [ ` C d r 9 < > : - 6 6 6 6 6 0 ",
"d $     . . # .       . + = ; f W 8.R.&X{.'.G.h.,.E f t 8 7 - - - - + - f ) } t.r.] M n t 8 , 8 n W C E C f 3 < > : ; 1 6 8 1 6 ",
"@ + # $ : & % . . . . O $ o + ; ] 3.R.6XwX-X/.H.0.M 8 1 7 < - @ + X > s f f f l K C F B M y 3 = = 7 n B M n y 9 3 < 1 6 8 0 6 6 ",
"f 1.) } ) / x r 4 3 3 w < > : , ..c.&XtXqX6X#XW.@.f 1 6 , - = + X + : : o . # . . . $ : > < < < + + 9 B B F n f 8 f y 0 q t 0 q ",
"X.X.p.e.V.z.r.@.` Q Y V C C _ 3.G.R.:XqXtX3X+Xs.Y 6 , 6 , - ; : + + + $ $ . .               . . . X $ f ^ Y f f M n f g h h h h ",
"q.o.[ ,.[ X.^ ! A S m A ^ _ Z ~ P.+X:XqXqXwXW.0.M 6 , 6 y 8 M ^ Q ^ C C P J w > $ % # O . . . . . . X < t 6 8 f n g t y g g y y ",
"/.P.X.A S S A T ! A m g g q M n.+X:X6X2X6X#XH.} n 8 6 y W _ _ o.8.[ ` [ 8.0.<.U M M M n r 9 3 > = $ : 1 1 n C A W ! Z g n h h h ",
"{.#XW.s.A h y y q 0 6 6 f 3.).:X-X1X3X:X#X/.8.W n y g m Z ..4.e.q.q.^ W C E ! _ Z m g h h Z Z A Z A n 1 1 n W #.5.q._ M n n g n ",
"&X:X:X.X/.V.8._ ^ / r.H.&X:X1X4X6XwX6X:X#Xz._ M m Z ! ^ ^ [ a.s.s.c.V.q.Z 0 6 6 0 0 0 q y g h g q 1 - 1 E _ Y n n n t 8 8 6 6 6 ",
"<XwX3X3X-X-X/.'..X1X#X&X1X2X%X5X6X6X3X-X'.p.A m Z ! ! <.q.e.6.e.j.G.c.P.W.z.` V f 8 , ; ; - = - - 6 n W ] #..._ f 7 t M M M n M ",
"wXwXwX6X3X-X].{.:X<X1X:X3X1X2X6X6XwX1X{.P.3.U m Z A S ~ q.q.q.q.j.j.G.H./.W.R.W.'.R.N.r.3.@.@.<.h.s.s.5.>.S ^ #...M C n B B n n ",
"6XtXwXwX1X$X#X3X:X:X-X3X+X6XwXwXqXqX#XW.c.s.~ S Z m g h h h m ^ #.c.V.T.I.+X].#X.X&X+X{.'..X/.W.n.j.s.s.,.] C ` ,.5.Q d s f s f ",
"tXwXtXqX6X6X3X4X2X3X3X-X3X1XwXtXiXqX#XP.V.j.s.5._ g q y g y 6 1 y [ V.~.]. X&X{.&X+X&X&X{..XR.l.s.e.8.q.q.#.T U ..3.W f s s s s ",
"wXtXtXtXqXqX1X5X6X:X%X#X:X3X3XtXiXwX'.P.W.R.n.c.#.Z q h X.X.m 0 ; 6 V h.OX;XOX-X-X=X+X:X1X#XR.H.d.i.o.8.e.s.] U _ 8.W n n M f f ",
"3X1X6X:X6X5X-X&X&XR.p.u.'.1X6XwXtX6X#XH./.'.R.3.S h h ! j.e.X.A 1 - , n u.P.'.1X2X2X@X+X:X+X/.P.V.w.6.o.5.e.o._ ^ #.^ n M n B M ",
".X+X'..XP.P.s.5.! m h 5.'.1XwXtXqXwX-X+X{.'.3.M y g m X.o.o.S Z 6 , ; 1 y [ V.'.'.-X|. X/.W.R.R.n.n.8.0.5.e.o.#.W [ ` Y M C V Y ",
"{.'.P.j.3.S h 0 ; 1 @..X1X3XwXiXiXiXwX-X+X8.n 6 1 1 1 1 1 1 1 1 6 0 q 0 6 y _ s.H./.R.H.Q.H.V.c.d.w.e.q.s.8.5.<.~ ` ` Y U Y U V ",
"I.K.X.! Z q ; = 6 p.+X:X6XqXiXpXpXpXqX-Xu.y ; @ o + + + + @ - ; q q y g y q q Q 8.V.G.K.H.H.q.f.a.j.3.9.e.4.[ <.} [ E C C R M K ",
"s.[ A g 6 - - y D.-X2XwXiXtXiXpXuX6X#Xp.n ; @ + + @ + + @ = - - 1 1 6 q y g 0 t V [ 8.0.M.s.3.3.8.s.8.5.5.>.[ +.` ^ Y V Y C C V ",
"( Z y 6 - - f h.{.6X6XtXtXqXwX1XW.P.@.B 1 - + + o + o o o @ @ - - ; ; 1 q y y 0 0 n W #...<.#.<.#.i.<.3.@.4.@.+.^ Q Y U Y Y Y R ",
"Z y 6 ; - t +.D.:X#X1X1X#X'..XW.h.E 8 ; - @ @ + @ + + + @ = = - - @ + - , 1 , , , 1 y Y ) ^ ) ) [ +.} ` ` ` { ^ Q R C Y U Y C C ",
"m 0 ; - 6 ^ @.R.W.*.R 1.r.u.,.p.r.E 8 1 8 f 8 1 ; ; = = - - = ; = @ o @ - - - - = = : t ^ [ ^ W W ^ U E ^ } R R R Q M Y C W M V ",
"g 1 ; ; M ) } 8.F t y Y _ U n f t , = ; n } Y t 6 1 - - - ; ; 3 ; : : - - - - @ + $ $ @ r ] #.` ^ U A U ) R B B T E R V Y C V V ",
"0 1 , 8 R C R R t 8 8 n n f 6 7 - = ; M ^ #.~ A f 8 1 ; - ; - ; , ; - - - ; ; : = + $ $ + 8 T @.Q S S Q U R B B Y ` ^ R A U Z A ",
"y 6 1 8 R l C l 8 8 t f M n 8 9 1 y 8./.W.s.,._ A g 0 1 1 1 6 6 6 , , , , 1 1 3 3 < : + + = 9 C ^ E W W _ ) B l ^ ` ^ A C A C A ",
"y t , 9 K K l d 8 y y n V Z f M E ,.u.V.P.V.3.@.~ S h y y h m m m m y 0 6 0 6 8 6 8 ; = @ @ @ 8 C ^ Y ` ..1.B l / ) Y C A A m Z ",
"q f 6 8 / l r r t r t y h Z ^ ~ ~ ` _ [ e.3.X._ _ ! A A W A Z A S A m y y q y 6 6 6 3 ; = @ @ - f T ^ ..3.r.P l R R T Z V Z m Z ",
"0 f f t / f < ; = @ @ ; 0 h m m m Z m C D D g y q 0 6 6 6 0 0 g q 0 6 6 6 6 6 6 1 8 6 3 > = : ; 1 Y _ *.3.t.I J K R Y m m Z m Z ",
"n t U n C l 8 < ; @ ; 1 6 6 6 6 0 0 0 0 q 0 0 6 6 6 1 , 1 1 1 , - - = - - - = @ @ = - - : - , 7 1 B [ *.*.r.I J / R E m Z Z A Z ",
"^ f M R B C n n n n g m h m m D D G A G ) $.O.O.O.H G G G D q q 6 6 ; ; ; ; ; = @ @ + @ , f n M 8 C ` r.*.3.K J J W F Z Z S Z A ",
"j.C f ) ` Q E R W A m m X.#.<.,.5.<.p.u.N.h.t.r.r.$.O.O.H G N N D g a a a a y 0 0 1 1 6 Z X.o._ f W [ &.@.] K J P P B M U C Z Z ",
"V.8.f R ..` Q ] E _ A m ~ <.#.#.5.p.r.u.r.y.;.%.G G G N r g N j q a g a y g q y 0 q f _ e.q.o._ n _ } <.` R J J P I B l M M M C ",
"D.H.R f ] ` T Q _ _ ~ Z Z V n f M F N f f f f f r r 9 3 7 8 8 7 9 r y q q q 0 0 q m #.c.y.| ..M M >.X.` ^ Y c J P P B B M B B B ",
"{.'.u.B B ,.Q Q ~ [ ! Z f t 1 7 8 8 9 9 9 r 9 r 9 9 < < < < < < 3 8 9 r r y 8 t n } h.H.3.@.Y f T 3.@.^ Y l d c K K n B B B n B ",
"V.W.c.@.n Q ,.X.o.[ _ Z n y 8 9 9 y s d f f s r r 9 3 < < < < < 7 9 9 9 y y t f ^ V.n.y.r.1.V y ^ >.] B l d d x c B B B C V M B ",
"%.V.h.h.R f +.q.X.X._ A f f t t y n n B B M f d r 9 3 3 < < 3 8 9 t 0 t y y n Q 8.v.h.t.@.t.M n W ^ U f d d f x d K l C R R E Y ",
"I =.t.h.r.f E 8.5.[ ~ S h g f y M Y T U ^ U M f s r 9 9 9 r y f M F F B M M ) 0.n.h.y.r.h.,.n M ( W M s d d f d c K J R ` / R Q ",
"%.=.` p.y.I M ^ 3.o.! ! h h g M 5.z.3.q.q.<.Q Y n f r f n K R ` ,.5.` ] ` ` @.n.n.h.2.p.z.+.f U W ^ f r s f s f J L R I L J B B ",
"=.=.=.*.y.%./ C q.q.#.X.A h n W f.V.h.s.j.s.0.<.r.%.%.*.y.N.h.h.I.N.p.r.8.@.0.z.V.y.r.0.h.R M U ^ U d 9 f f d x K P I L K K B B ",
"P =.=.=.K J I R X.V.8.5.~ ! U j.z.I.z.z.,.5.y.n.c.H.G.R.H.R.D.D.N.h.1.@.) @.3.N.y.g.y.y.u.U C ( W F r f c I J J J P P ) ` ) P L ",
"P %.=.%.J i r x ` H.G.8.5.q.o.V.G.R.I.H.G.z.H.n./.Z.{.D.{.D.H.D.W.y.&. .2.r.0.r.y.y.y.t.s./ Q ` ` l s d d s J K c J L / } } } L ",
"b %.I =.J w > 4 d h.N.H.0.H.5.e.I. XI./.'.+XI.H.D.#X.X}.-X3X+X'.R.P.@.} u.3.[ r.0.y.*.s.p. .W @._ l r r 7 7 s P R K c I *.t.&.} ",
"z P I P J w * * 5 J G.{.P.f.w.a.n.R.I.E.+X#X+X/.&X+X:X:X4X2X&XG.s.h.s.+.2...` [ ,.u.r.u.h.r.1.} ) f x x f e r l / I K P } r.r.r.",
"w J P P J w & * * 5 I {.'.l.e.G.c.c.D.{.$X+X@X$X+X#X&X-XOXD.D.t.&.y.s.2.' [ ` 2.&.t.;.h.c.y.1.+.R f c z u e e r s C L I I %.%.I ",
"w z P P c 5 % % % * i b.-X/.w.s.n.s.z.V.P.W.|.I.N.p.n.j.h.s.z.t.7.u.&.{ ..( `  .2.8.y.y.R.H.p.} I i x x k k d 3 3 r B P P f w w ",
"5 w v x k 5 # # % * 4 x OX6Xg.f.p.p.s.N.E.].H.J.n.h.u.u.8.s.+.p.2.@.Q _ ' [ ` 3.7.1.r.h.W.~.j.) K x 4 b z k u 7 @ < 9 r 3 5 4 2 ",
"% * 4 5 u 5 # # % % * 3 =.3X.Xh.5.s.(.{.@X+XI.L.H.V.h.u.z.7.#.| ` ^ ^ ( @...&.2.t.Q h.N.). Xh./ c x 5 w w 5 5 3 & + : : > < < 4 ",
"O O # * 4 4 % O # % & < c 1X1Xt.;.@X-X3X-X6X:X:X.XXX(.{.g.m.n.0.3.^ Y Q ^ +.2.p.&.2.N.Q.`.+Xy.P x d x 4 > > 2 2 # % < 3 3 w 7 i ",
"O O O % * 2 & O O O % : B OX9X6XuXeXwXwXwXuXiXeXwXwX6X6X-X_.{.{.Z.N.) L Q Q ] +.5.f.P.^. X{.;.J c w w 4 2 * & & O # < 7 r d f x ",
". . . # % * & # . O $ < +.|.1XtXiXpXyXtXtXiXyXpXpXpXqXtXyXeX-X:X;X3X}.b.%.L F 1.h.I.Z.}.-X}.I J c w * * & & O O O # & < 9 r r d ",
". . . O # & % # . X # d t.%X5X8XiXiXyX8X0X0X0X0XrXrX0X0X0X0X7X>X,X>X>X7X>X:.I -.A.S.F.F.*X:.b v v w * & & # O O # # % * 5 5 w u "
};
