/* XPM */
static char *out[] = {
/* columns rows colors chars-per-pixel */
"64 64 214 2 ",
"   c #2B1608",
".  c #4A2415",
"X  c #5C2C1A",
"o  c #68321E",
"O  c #583F2A",
"+  c #763A24",
"@  c #7E3D26",
"#  c #63432F",
"$  c #6E402D",
"%  c #6A4D37",
"&  c #77523D",
"*  c #7F5D46",
"=  c #814A35",
"-  c #8E4B34",
";  c #96523A",
":  c #865540",
">  c #8C5D46",
",  c #9D5943",
"<  c #955F49",
"1  c #A45E45",
"2  c #89664F",
"3  c #9B644E",
"4  c #916A53",
"5  c #9A6F56",
"6  c #AB644A",
"7  c #A16851",
"8  c #AD6D51",
"9  c #A86D58",
"0  c #B36A51",
"q  c #B76F53",
"w  c #A1765D",
"e  c #A7755C",
"r  c #AE755B",
"t  c #B4715D",
"y  c #B97658",
"u  c #A87B63",
"i  c #AE7D64",
"p  c #B77764",
"a  c #B27861",
"s  c #B47F64",
"d  c #BB7E63",
"f  c #C1785B",
"g  c #C87E61",
"h  c #C07B6B",
"j  c #AC836B",
"k  c #BE8466",
"l  c #B3876E",
"z  c #BA876A",
"x  c #BF8B6C",
"c  c #B78C72",
"v  c #BC8E72",
"b  c #C38264",
"n  c #CC8566",
"m  c #C78568",
"M  c #C4816F",
"N  c #C48A6C",
"B  c #CC8C6D",
"V  c #CC8C6E",
"C  c #D18969",
"Z  c #D48C6E",
"A  c #D88F6F",
"S  c #C88973",
"D  c #D08B78",
"F  c #D38E7E",
"G  c #C39072",
"H  c #C69677",
"J  c #C89172",
"K  c #CC9475",
"L  c #C09379",
"P  c #CA997A",
"I  c #CF9C7E",
"U  c #D19071",
"Y  c #D09072",
"T  c #D09273",
"R  c #D39273",
"E  c #D49374",
"W  c #D59475",
"Q  c #DA9472",
"!  c #D79778",
"~  c #D1967C",
"^  c #D89778",
"/  c #D59A7B",
"(  c #D99878",
")  c #D9997A",
"_  c #DB9A7A",
"`  c #DA9A7B",
"'  c #DC9B7B",
"]  c #DB9C7D",
"[  c #DA9D7E",
"{  c #DE9D7D",
"}  c #DC9D7E",
"|  c #DD9D7E",
" . c #E09E7D",
".. c #E29F7D",
"X. c #E2A07F",
"o. c #DD9E80",
"O. c #DE9F80",
"+. c #DF9F80",
"@. c #CFA186",
"#. c #D4A082",
"$. c #DFA081",
"%. c #DCA386",
"&. c #D8A485",
"*. c #D7A88D",
"=. c #DCA88A",
"-. c #DFAB8E",
";. c #DBAB91",
":. c #DFAF94",
">. c #E0A081",
",. c #E2A181",
"<. c #E3A181",
"1. c #E0A182",
"2. c #E1A283",
"3. c #E3A282",
"4. c #E4A281",
"5. c #E5A382",
"6. c #E4A383",
"7. c #E5A483",
"8. c #E6A483",
"9. c #E5A484",
"0. c #E6A584",
"q. c #E6A585",
"w. c #E7A685",
"e. c #E7A686",
"r. c #E8A786",
"t. c #E8A787",
"y. c #E0A58A",
"u. c #E3AC8D",
"i. c #E7AD8F",
"p. c #E8A888",
"a. c #E9A989",
"s. c #EAA989",
"d. c #EAAA8A",
"f. c #EBAA8A",
"g. c #EBAB8B",
"h. c #EBAC8C",
"j. c #EBAE8F",
"k. c #ECAD8D",
"l. c #EDAD8D",
"z. c #EDAE8E",
"x. c #ECAE8F",
"c. c #EEAF8F",
"v. c #EDAF90",
"b. c #EEAF90",
"n. c #E4B195",
"m. c #E9B193",
"M. c #EDB091",
"N. c #EEB090",
"B. c #EEB091",
"V. c #EDB192",
"C. c #EEB192",
"Z. c #EFB192",
"A. c #EFB293",
"S. c #ECB496",
"D. c #E6B599",
"F. c #EAB79A",
"G. c #EEB899",
"H. c #EEBC9E",
"J. c #F0B293",
"K. c #F0B394",
"L. c #F0B495",
"P. c #F1B495",
"I. c #F1B596",
"U. c #F1B597",
"Y. c #F2B697",
"T. c #F2B799",
"R. c #F3B799",
"E. c #F3B899",
"W. c #F2B89A",
"Q. c #F3B99A",
"!. c #F3B99B",
"~. c #F4B99B",
"^. c #F4BB9D",
"/. c #F5BB9D",
"(. c #F5BC9E",
"). c #F5BD9E",
"_. c #F5BD9F",
"`. c #F1BFA1",
"'. c #F5BEA0",
"]. c #F6BEA0",
"[. c #F6BFA0",
"{. c #F6BFA1",
"}. c #F6C0A1",
"|. c #F6C0A2",
" X c #F6C1A2",
".X c #F7C2A3",
"XX c #F6C3A4",
"oX c #F2C4A5",
"OX c #F7C4A5",
"+X c #F7C4A6",
"@X c #F7C5A6",
"#X c #F7C6A7",
"$X c #F7C7A8",
"%X c #F7C8A9",
"&X c #F0CBAD",
"*X c #F4CDAE",
"=X c #F8C9AA",
"-X c #F8CAAB",
";X c #F8CBAC",
":X c #F8CCAD",
">X c #F8CDAE",
",X c #F9CEAF",
"<X c #F3D1B3",
"1X c #F0D4B6",
"2X c #F6D4B6",
"3X c #FAD3B4",
"4X c #FAD7B8",
"5X c #F1D8B9",
"6X c #F7D8BA",
"7X c #F5DBBB",
"8X c #FADDBE",
"9X c #F6DDC0",
"0X c #F9E1C3",
"qX c #FBE5C7",
/* pixels */
":.C.0.<.W N j j w s H I P *.:.D.:.n.:.:.;.:.;.n.:.:.:.n.n.n.:.:.:.n.;.:.u.D.n.n.:.:.=.-.y.a.u.j.2.y.2.y.%./ ! ! T T V W R E T E ",
"-.d.l.8. .J s j u l P I I =.:.D.n.n.:.;.;.;.:.:.:.:.n.n.n.n.:.:.:.;.;.;.:.n.D.u.-.-.=.=.a.u.-.9.e.o.%.o.1./ ! T T V V U E T T V ",
"H ..{ X.{ J i j u c L I I :.:.n.n.:.*.=.;.:.;.:.:.n.:.F.H.F.:.:.:.:.=.;.n.D.:.m.:.-.&.-.:.m.%.2.%.%.[ %.1.+.E ) ! ! V E ( ) E ^ ",
"v W Z Z Z d e e u s G I I =.:.:.n.:.&.#.;.:.;.;.:.:.:.n.D.n.:.:.:.:.;.;.:.n.:.:.:.:.=.&.i.-.y.2.y.%.o.%.2.} ] +.8.} ] ! 2.{ ' ! ",
"z ! Z C b p e u u c H I I =.;.n.:.:.=.=.#.;.;.:.:.n.:.D.n.n.:.:.;.:.;.:.;.n.:.n.:.:.;.;.;.:.y.e.e.a.h.a.2.e.w.a.2.p.2.<...1.{ ' ",
"c W C C m a e w u z P P #.&.;.;.:.;.;.:.n.n.S.m.m.D.n.n.D.D.n.:.:.:.D.n.n.D.D.D.D.m.D.A.D.D.C.j.C.c.j.j.j.f.p.w.a.q.3.3.{ ) ) ) ",
"z ( n n b d 9 w i c G #.&.;.=.-.u.j.u.S.G.W.S.^..X+X(._.@X.X~._._.XXG.[.}..X(._.[.~.K.G.~./.m.z.U.J.h.d.l.p.{ 2.8.q.' { ' 1.! ^ ",
"c W n g g p e e i c H #.=.;.-.%.o.%.o.%.2.e.j.R.[.}.[._.XX}.}.[._._.Z.^..X.X[._.[.~.A.I.~.V.C.j.P.Z.j.a.g.e.+.| 2.2.( ! ] +.` ! ",
"l R n n f p r u u c H #.#.&.H s 9 7 < < < 7 a %.j.R.^..X[.}.}..XR.R.A.E.(._.[.}.I.I.P.~.K.I.c.Z.j.c.j.c.a.t.2.8.$.} ] { ' 2.} ] ",
"z U n g g d a e i G / #.P r > = = $ o X X O # > d / i.G.[.}.[._./.Z.M.j./.[.}.^.K.a.v.T.K.A.Z.Z.Z.K.c.j.Z.f.p.8.$.{  .' +.8.1.] ",
"v ) g g g b a r a P / K p r r x / P a > & $ $ = > 9 d / j.^.K.~.R.j.p.v.I.}.G.~.l.j.q.j.^.].I.~.(./.Z.A.Z.Z.3.q.1.1.] +.8.a.{ { ",
"H / C m C g p r d #.%.~ K %.i.S.^.(.W.j.&.G i w 7 7 t N } p.A.I.b.a.3.a.I./.R.j.a.e.6.g.I.(././.[.[.I.c.A.a.1./ [ [ } { 1.+.} ! ",
"x / U B b b p r z =.a.h.a.Z.Z.K.S.^.(._.G.D.y./ Y N b S V ) g.Z.h.h.w.h.g.I.j.f.1.2.3.p.A.^./.[.^.G.i.e.[ T k k p k b b d N b S ",
"v P T B N k d r c h.a.w.g.a.g.g.j.P.S.U.j.a.2.o.[ ! T V E ! 3.l.z.l.g.h.N.j.j.2.+.{ 1.8.l.P.Z.e./ x r 9 3 = = + + + > > < 3 8 a ",
"G I V N N N d i x v.e.a.a.a.8.} ! o.%.y.e.e./ / T T Y W ^ +.} p.l.Z.q.e.h.a.q.} E ! R ] 3.a.W d 7 : $ X X . . . . X . o + = = < ",
"#.P K J G x x d N J.Z.l.f.8.U y 1.G.[.R./.Z.p.{ ! b y b E } 3.h.J.j.w.w.d.j.f.U n m m B Y S y ; : $ X X X . . . X o + = = $ + = ",
"I I P P G G x k b q.j.I.p.R d ! S.W.S.m.u.u.%.1.W n q 8 k (  .h.a.p.3.q.w.g.p.T y d d b d y 1 - @ $ + $ $ = > 3 9 z k d 9 7 7 7 ",
"#.#.#.P P P P G J { f.j.f.V b u.i.~ r > > : > < 9 t q 0 q m ! { p.f.p.8.q.q.3.T d t t y y 6 ; - = = = - 1 8 p N T W / T T V N b ",
"#.&.I #.&.%.P 2.W +.{ 8.l.U B T 4 # . . . .     X + - 1 8 d m ! q.Z.p.w.f.j.} E m d 8 8 6 1 - - - - = : , t t y t y t y d b k N ",
"#.#.#.I #.I I u.e.' ! R ! S y = .   . . O O       . X @ - 6 k Z 8.P.S.l.Z.N.1.E S d 8 1 < - = = = o + > p V / T Y b d 8 1 ; - > ",
"#.#.I I I I P j.j.] V y 8 , - 6 7 > : : & O . . . . # o o @ 8 A ..~.+X(.A.v.a.] b 8 1 , ; = + o . $ 7 9 3 > > > > 3 7 r 9 7 > + ",
"=.&.#.&.[ #.I #.v.v.w.( A n B ' j.e.+.) N e 4 > > 4 3 > = = < ' f.(.,X,X}.R.A.+.b , ; ; - + o . X + @ o . O .       . . X O O o ",
";.;.*.=.=.=.I ] ! w.w.A.R./.8.} w.c.a.g.q.o.K ! E V g b m ! ! g.~.+X,X3X,XXXj.( q 1 ; ; = - + o o = : < $ # .     .             ",
"u.y.%.&.=.=.2.w.{ 3.Z.Y.(.R.I.c.w.w.! R ! W B n Z C n C U n W Z.^.:X3X3X3X%Xj.R q 1 , 6 1 y m m Y T T ~ / G e < < > > : : : = $ ",
"%.=.&.%.=.=.a.g.{ p.C.R./.OX(./.f.! n n m C C R n g f y 0 g f..X(.$X,X6X:X.Xj.W q 1 6 b S V ' 3.] ! ! ] +.3.( Z m n m k t t y d ",
"u.y.-.y.-.y.2.' { f.Y.I.}./.[.[.}.c.( b y q y 0 6 , 1 q [ W.#X#X#X:X,X,X-X(.a.R f 0 y g W ..g.a.p.( n k n C Z g f q 0 y b n Z B ",
"j.k.y.u.i.j.3.] ..Z.J.I.(.}.[.#X,X#X^.R.a.( b b n W %.^.,X3X+X%X-X,X-X,X@X~.] B m n n C A f.p.8.a.J.8.! y 6 , 1 1 6 , 6 1 1 , - ",
"x.p.y.y.l.u.j.8.8.l.Z.Z.}.[.+X%X3X-X].~..X).~.~..X@X}.@X%X-X-X%X4X,X:X-XXXZ.! n n Z A { 5.w.w.w.N.Z.A.R.(.j.[ J k y 6 , 1 1 1 8 ",
"q.e.2.y.%.%.a.C...g.P./.R.#X#X:X:X,X$X].^./.R.[.XX-XXX#X}.-X,X,X,X3X,X$X~.f.! C n Z A ..8.p.w.f.p.N.I.E.~.).~.+X~./.A.Z.j.j.f.l.",
"7.1.2.o.%.2.q.f.f.j.I.~.(.XX#X3X3X3X:X@X~.R./.+X:X$X#XXXXX3X,X,X4X6X:X[.~.q.( Z Z n n n n C Z ( p.c.P.L.~./.~.^.+X}.}./.~.I.I.w.",
"9.8.o.O.1.3.] w.a.Z.!..X%X=X#X3X6X6X=XXX[.}..X#X-X,XXX#X%X3X:X3X8X8XXX/.Y.Z...( W B q y q q 1 6 f { p.I.~.U.~.}..X$X_._./.^.c.d.",
"q.X.| ] w.2.1.s.p.c.A./.OX@X@X,X6X4X,X-X,X%X#X#X:X:XXX).#X#X,X,X0X6X@XW.~.Z.j.g.a.Z y y C A f 1 ; 6 n q.~./.~._.#XXX[._.[./.P.l.",
"O.$.[ O.4.t.8.Z.1.g.I.~./..X.X-X%X,X:X-XXX-XXX#X^.P.q.j.I.-X,X4X6X3X+X[.I.I.I.R.8.A f g ( ..{ Z 1 - ; q ! Z.I.(.^..X/.^.~.R.c.j.",
"$.{ ..>.2.6.g.Z.l.e.l.P.~./.}.}..X}./.~.K.Z.f.q.( g g q._.@X,X4X6X,X,X}./.R./.c.( n b C ..5.' Z 0 - - - 8 m +.f.Z.Z.K.A.Z.Z.f.p.",
"2.>.! o.1.y.2.h.f.f.5.z.~.^.~.^./.R.l.w...! g y 1 8 R ~.+X,X,X4X8X4XXXXX.X.XA.( f q 8 f m g q 0 6 1 1 6 1 8 d E 3.a.3.f.f.g.1.3.",
"] ) ) ! O.[ 8.a.g.w.<.w.A.R.R.I.I.w.' Z g 8 , - 1 ) _.@X-X,X4X8XqXqX4X-X%XI.! t 1 - = @ = = - ; 1 0 q q y 0 1 q m E ( { 3.{ { ' ",
"/ ! W / W ) X.6.a...{ 4.w.g.l.Z.{ A g y 1 - - y o._.@X,X#X,X6X0X8X8X,X:XG.) 8 ; + o $ @ + @ @ - ; , 1 8 0 q 6 1 1 y n U U W V E ",
"! R / R / / { } ..{ _ } 4.8.8.( Z f 0 , - - y 2.(.$X%X,X3X,X,X3X,XXX/.K.+.t ; @ + + + o o + @ @ = - - - , 1 , ; - ; 6 k S n m C ",
"Y K S J T ~ T ( ^ Z C Q ' 8.W Z b 0 ; - - t U j.[.:X@X,X,X$XW.(.R.u.T m y , @ + + + o + + + + @ = = + + - - = = + = @ < k T B n ",
"N m N N V K W | { Z Z A { ..U g 0 , ; ; 8 V ` j.(.G.m.S.K.a.e.j.Z.1.N 1 , - - = = = @ @ + = = = - = + @ = : + + $ + o + > p V V ",
"k k k x N V ! r. .( U ! W ' V d 1 , ; 1 b W ) e.[ B b V ) { ! ! E Y y , - 1 y y ; - : : = : : - > : = : = - : = + + $ + + = t B ",
"k k k k N V ) 1.q.1.( ! W Z Z d 1 ; ; 8 m S T J d 8 8 d B V d 8 8 1 = + - 8 b d 8 , , - ; - - - - > : : - ; ; > > = + + + + = t ",
"z x d x x J / q.b.g.} ] U n m b 8 , ; d b N N d t 8 6 t k b y 6 7 , - , T { T V b t , ; ; ; - ; < ; ; ; , , , , , > @ $ $ + + ; ",
"d x z z G K [ 3.U.N.a.+.E b n V b 6 1 b S b k r 8 8 8 y b b k 8 t 8 8 N p.f...( Z b 8 1 1 , , 1 8 8 6 6 1 , 6 , , < - @ + + = - ",
"a x x x x J / a.U.Y.I.Z.( b k W R d 6 B N y 7 9 8 t t y d k b b m V U ! ! { ..{ Z C f f 8 6 6 8 q q 8 6 , , , ; - = @ + = ; < - ",
"k G I H J K / q.T.T.T.I.p.m d B ' T d b b 8 ; - - : : - , 0 f m C n C n C C C m h y 8 1 , , ; , , ; - = = @ + o o o + ; r a 8 1 ",
"P I I #./ / T 2.W.R.B.J.j.[ d B w.2.T T S k 8 1 , > : ; 1 8 6 0 q y q f f y 0 8 6 6 ; ; - - = - - = + @ @ = @ = , , 1 S W / t q ",
"P I #./ / / ~ / m.Y.A.I.I.a.N d 1.9.{ ! W V b b N b y d k m m m S M b y y 0 0 0 y y q q 9 8 8 1 6 1 1 1 6 8 0 0 y d E } ' U t m ",
"K #.&.&.#.[ ~ %.#.v.B.K.h.j.~ k R r.9.{ V B B T R R m d y B V E ! F D D S D S S M d y k y r q y 0 8 q q q y q f m ' ..{ E b d ! ",
"P &.#.#.#.I I #.[ ~ o.%.h.q.} d n } 1...! V B T ! ! R m d d k k k b N N N d a p a 9 7 9 9 9 t t t 8 q 8 t t y m ) +.1.W E y k W ",
"#.=.@.&.&.#.H x d x ~ / / %./ b b T } +.} ) U _ ) ) B m b d t r a a y d k s r 9 3 7 < 3 3 9 7 7 9 t 8 t y d b ! 2.1.] ! m t d V ",
"#.&.&.&.=.I H w 5 s #./ J B ' ^ ` W { 5.3.( E W ! ) Y m b d y t y d d d N s r 7 7 < < < 3 5 7 7 9 9 9 t d b V ! 2.o.) B d d m d ",
"P &.%.&.&.I s 4 > 4 G I K V ` k...' { 2. .` ( W E } ! T N b k d d b N S k p r 9 3 < < 4 4 5 9 r r r a b N T ) o.%.[ U b d N k d ",
"H &.=.&.&.G u * & 2 4 s / 1.h.T.N.' { ] ' ) } _ W ( ' E T E ! T Y E ! T N d r 9 9 7 5 5 e a N N b k N V / %.o.%.2.Y S m n b p p ",
"v #.#.#.I v w 4 & 2 2 4 G j.V./.E.6.{ 2.' ( R } ] { ' ] +.q.y.[ / %.[ y.%.#.G x k k d z z J J / E T V P / %./ / ! m b m N k a N ",
"l P I I I z 4 & & 2 * 2 s G.'.`.XXh.+.+.! ! ) 1.j.9.e.2.e.a.%./ / / %.-.y.=.&.#.#.P J N x J / / O./ ~ ~ / / ~ ~ J N x k S x G ~ ",
"w G P #.P z * % & & * 5 s D.@X@X~.Z.+.{ W / ) a.v.e.y.u.u.v.u.y.%.=.-.i.;.:.D.D.P I J N b J ~ [ / / / K K / / T d k r p N J K / ",
"w z H I x e & # & % * 4 r =.,X@X^.j.9.,.+.] 1.h.j.j.C.J.W.(./.S.K.S.m.n.D.T.F.y./ / ~ K S J ~ o.y.o.[ / / / K k k r r r k J x a ",
"5 5 v v z w % # % & & > 7 %.;X-X^.Z.{ { { N.K.P.P.Y.h.M.M.B.h.V.D.u.y.g.a.Z.2.O.` ' Y T ~ / ! %.e.u.%.%.G P c s r 7 3 9 s s 5 4 ",
"% & 2 4 j 5 % # # # & : 3 / >X;X^.y.%.j.[.XX{.Q.]./.B.x.C.j.p.2.q.o.1.1.1.] ) ) ' ) ! W [ } 2.e.K.I.o.K d c z u w = = > < < > > ",
"O O # * 4 4 * O # # % > < [ -X,X-.m.(.OX-X,X,X%X'. X|.{.Q.Y.C.Z.a.p. .) Y ! ! O.) 1.9.+./ 1.j.~.G.-.G x w 5 > 4 > # = < < w 7 r ",
"O O O % * 2 * O O O % = r T.-X3X6X6X2X,X,X6X8X7X6X*X3X,X,X@X]._.).R.y.R T T ! ` 2.e.j.j.^.{.G.i.H G e u 4 2 & * $ # > 7 a s d z ",
". . . # % * & # . O $ < o.'.=X6X9X0X7X6X6X9X7X0X0X0X2X6X7X4X@X@X#X;X`.n.#.Y S ] j.U.C.'.@X`./ G x w * * & & O O O # & < 9 r r a ",
". . . O # & % # . X # s u.XX<X<X6X7X7X<X1X1X1X1X5X5X1X1X1X1X&X&X*X&X&X&X&X:.I =.D.F.H.`.oX:.v c l w * & & # O O # # % * 5 3 w u "
};
