/* XPM */
static char *out[] = {
/* columns rows colors chars-per-pixel */
"64 64 224 2 ",
"   c #2B1608",
".  c #4A2415",
"X  c #5C2C1A",
"o  c #68321E",
"O  c #583F2A",
"+  c #763A24",
"@  c #7E3D26",
"#  c #63432F",
"$  c #6E402D",
"%  c #6A4D37",
"&  c #77523D",
"*  c #7F5D46",
"=  c #814A35",
"-  c #8E4B34",
";  c #96523A",
":  c #865540",
">  c #8C5D46",
",  c #9D5943",
"<  c #955F49",
"1  c #A45E45",
"2  c #89664F",
"3  c #9B644E",
"4  c #916A53",
"5  c #9A6F56",
"6  c #AB644A",
"7  c #A16851",
"8  c #AD6D51",
"9  c #A86D58",
"0  c #B36A51",
"q  c #B76F53",
"w  c #A1765D",
"e  c #A7755C",
"r  c #AE755B",
"t  c #B4715D",
"y  c #B97658",
"u  c #A87B63",
"i  c #AE7D64",
"p  c #B77764",
"a  c #BD7564",
"s  c #B27861",
"d  c #B47F64",
"f  c #BB7E63",
"g  c #C1785B",
"h  c #C87E61",
"j  c #C07B6B",
"k  c #AC836B",
"l  c #BE8466",
"z  c #B3876E",
"x  c #BA876A",
"c  c #BF8B6C",
"v  c #B78C72",
"b  c #BC8E72",
"n  c #C38264",
"m  c #CC8566",
"M  c #C78568",
"N  c #C48A6C",
"B  c #CC8C6D",
"V  c #CC8C6E",
"C  c #D18969",
"Z  c #D48C6E",
"A  c #D88F6F",
"S  c #C88973",
"D  c #D08B78",
"F  c #D38E7E",
"G  c #C39072",
"H  c #C69677",
"J  c #C89172",
"K  c #CC9475",
"L  c #C09379",
"P  c #CA997A",
"I  c #CF9C7E",
"U  c #D19071",
"Y  c #D09072",
"T  c #D29172",
"R  c #D09273",
"E  c #D39273",
"W  c #D49374",
"Q  c #D59475",
"!  c #DA9472",
"~  c #DD9876",
"^  c #D79778",
"/  c #D1967C",
"(  c #D89778",
")  c #D59A7B",
"_  c #D99878",
"`  c #D9997A",
"'  c #DB9A7A",
"]  c #DA9A7B",
"[  c #DC9B7B",
"{  c #DB9C7D",
"}  c #DA9D7E",
"|  c #DE9D7D",
" . c #DD9D7E",
".. c #E09E7D",
"X. c #E29F7D",
"o. c #E2A07F",
"O. c #CA9E84",
"+. c #D89380",
"@. c #DD9E80",
"#. c #DE9F80",
"$. c #DF9F80",
"%. c #DD9986",
"&. c #D4A082",
"*. c #DFA081",
"=. c #DCA386",
"-. c #D8A485",
";. c #D7A88D",
":. c #DCA88A",
">. c #DFAB8E",
",. c #DBAB91",
"<. c #DFAF94",
"1. c #E0A081",
"2. c #E2A181",
"3. c #E3A181",
"4. c #E0A182",
"5. c #E1A283",
"6. c #E3A282",
"7. c #E4A281",
"8. c #E4A382",
"9. c #E4A383",
"0. c #E5A383",
"q. c #E5A483",
"w. c #E6A483",
"e. c #E5A484",
"r. c #E6A584",
"t. c #E6A585",
"y. c #E7A685",
"u. c #E7A686",
"i. c #E8A787",
"p. c #E9A887",
"a. c #E0A58A",
"s. c #E3AC8D",
"d. c #E7AD8F",
"f. c #E8A888",
"g. c #E9A888",
"h. c #E9A989",
"j. c #EAA989",
"k. c #EAAA8A",
"l. c #EBAA8A",
"z. c #EBAC8C",
"x. c #EBAE8F",
"c. c #ECAC8C",
"v. c #ECAD8D",
"b. c #EDAD8D",
"n. c #EDAE8E",
"m. c #ECAE8F",
"M. c #EDAE8F",
"N. c #EEAF8F",
"B. c #EDAF90",
"V. c #E4B195",
"C. c #E9B193",
"Z. c #EDB091",
"A. c #EFB090",
"S. c #EDB192",
"D. c #EEB192",
"F. c #EFB293",
"G. c #ECB496",
"H. c #E6B599",
"J. c #EAB79A",
"K. c #EEBC9E",
"L. c #F0B293",
"P. c #F0B394",
"I. c #F0B495",
"U. c #F1B495",
"Y. c #F0B496",
"T. c #F1B596",
"R. c #F1B597",
"E. c #F2B596",
"W. c #F2B697",
"Q. c #F2B698",
"!. c #F2B798",
"~. c #F2B799",
"^. c #F3B799",
"/. c #F2B89A",
"(. c #F3B89A",
"). c #F3B99A",
"_. c #F3B99B",
"`. c #F4B99B",
"'. c #F4BA9B",
"]. c #F4BA9C",
"[. c #F4BB9D",
"{. c #F5BB9D",
"}. c #F5BC9E",
"|. c #F5BD9F",
" X c #F5BE9F",
".X c #F1BFA1",
"XX c #F5BEA0",
"oX c #F6BEA0",
"OX c #F6BFA0",
"+X c #F6BFA1",
"@X c #F6C0A1",
"#X c #F6C0A2",
"$X c #F6C1A3",
"%X c #F7C2A3",
"&X c #F6C3A4",
"*X c #F7C3A5",
"=X c #F2C4A5",
"-X c #F7C4A5",
";X c #F7C5A6",
":X c #F7C6A7",
">X c #F7C7A8",
",X c #F7C8A9",
"<X c #F0CBAD",
"1X c #F4CDAE",
"2X c #F8C8A9",
"3X c #F8C9AA",
"4X c #F8CAAB",
"5X c #F8CBAC",
"6X c #F8CCAD",
"7X c #F8CDAE",
"8X c #F9CEAF",
"9X c #F3D1B3",
"0X c #F7D1B2",
"qX c #F0D4B6",
"wX c #F6D4B6",
"eX c #FAD3B4",
"rX c #FAD7B8",
"tX c #F1D8B9",
"yX c #F7D8BA",
"uX c #F5DBBB",
"iX c #FADDBE",
"pX c #F6DDC0",
"aX c #F9E1C3",
"sX c #FBE5C7",
/* pixels */
"<.D.w.y._ N k k w k G I I &.;.V.,.<.<.V.,.V.<.V.V.V.V.K.J.J.H.H.V.V.<.V.s.C.x.D.d.x.a.a.a.d.h.s.*.4.6.e.4.e. . .^ ^ ^ ' _ ' ' Q ",
">.h.N.c.y.R z u u u H P I -.,.<.<.,.V.V.<.<.V.<.V.V.V.H.J.H.H.<.<.V.V.V.C.G.Q.Q.Q.D.x.A.P.D.D.A.M.f.h.i.u.u.5.[ [ ' ' ' ..[ ' W ",
"G | X.r.w.' f k e k L I &.;.-.,.<.<.V.V.<.H.V.<.V.H.<.J.J.K.V.V.J.J.C..XoX}.Q.Q.Y./.M.D.L.P.z.m.n.z.e.u.u.h.7.[ [ ] W [ | o.^ Q ",
"b ! ! ~ ..W f w u x L I -.&.;.,.V.<.<.V.J.J.H.H.K..XK..X;X#X.X@X#XXX'./.XX[.~.U.~.T.S.m.A.k.f.x.B.e.e.o.k.f.[ (  ._ _ _ 6.| _ Q ",
"b ! C Z m m n i i G &.a.-.C.G.K.K.*X$X;X#X*X$X$X.X$X$X;X=X;X$X$X'.}.'.}.R./.R.U.I.R.D.P.k.f.h.v.t.g.o.u.h.i.| | ^ ' ` @.1.| ! A ",
"b ! m m m m h l N ) s.Z.Y.^.[.'.XX@X@X*X$X$X$X}.XX/.#X+X;X;X#X(.}._.{.'.Q.F.A.P.R.L.P.D.n.i.i.f.g.e.0.f.z.f.2. .3.} *.*.5.@.Q Z ",
"L ~ m C C C M N K =.a.d.M.D.D.|.#X*X{.XX%X*X].}.'.'.Y.|.#X;X/.Q.Q.Q.F.'.Y.E.x.(.[.+XF.F.F.D.9.f.g.f.e.b.l.c.*.o.$.4.#.*.5.4.T Z ",
"L ' C C Z T l r i z z d x G 5.D.+XOX'.|.&X$X+X}.'.F.U.'.%X#X'.M.U.Z.I.Y.].oX^.|.*X+XQ.F.U.d.5.*.f.f.6.2.q.6.2.*.*.*.@.@.5.| _ C ",
"G ~ C Z C y , > & & # $ $ & < x &.d.F.(.(.{.'.^.z.b.S.^._.{.D.M.e.f.Z.'.XX$X$X*X{.}.G.C.=.) S N l S M n f V W Q ^ | ` o.#.1.Q C ",
"K ~ C Z m 1 7 r i 7 : $ # O $ = < r J @.F.(.'.U.z.t.h.F.].F.x.e.t.e.h.E.XX@X+X+XG.a.I l 9 < : & @ : > < 3 e f f n f M )  .' ( C ",
"J [ Z A A B / a.s.C.-.O.z w > > - 3 0 M ^ z.b.P.z.i.2.m.z.M.6.5.o.6.3.A.(.{.a./ s < @ $ X X . . . X X + & > > 3 3 7 1 r n Y V B ",
"P | A ' 6...@.o.d.G.G.H.H.a.) n f t r f M #.f.z.b.u.e.f.x.f.o.] ] ' $.u.d.2.n 3 - $ X X . . . X $ & : : : : > > < < ; < 7 7 7 t ",
"J 4.~ f.3...| o.#.6.5.a.=.a.) ^ V n M B M ) *.k.f.k.t.h.f.z.#.Y S U V Q T n 1 - + $ o $ $ @ : 7 f K K c s s s e < < ; < < 3 < < ",
"G -.} d.h._ _ M f ) s.G.G.D.h.#.T f y f Y ^ 6.e.l.q.t.t.i.g._ n n n M M f 8 , = @ @ = - 3 p S ) a.a.6.@.@.) R V B l 8 7 , 3 > - ",
"H &.I a.M.5.n 8 ) '.J.[./.G.5.u.{ Z 8 0 n Q ( e.f.l.o.t.i.h.W g y f y f t 6 - - - ; ; 7 y M n M M Y N V K ` T ) Q R n M f 7 > : ",
"I &.-.6.D.h.M 0 s.H.-.G c i w 5 e r 8 6 q h W ' k.M.f.q.u.e.^ n n y t 8 6 , - - - - = ; 8 M B V M f t 8 8 1 7 p B V V S n s 8 3 ",
"I -.=.a.e.e.M n I i & X . .       X + < 1 y M _ 2.A.A.M.f.f.] V n f 8 7 ; ; - : + + > p B } R K N N n n 0 3 = = < f M S n M f r ",
"&.&.-.6.E Q M 8 & .     . O         . X + ; f Y 6.P.}.Q.P.D.t.U M 0 1 , ; = @ X X > 3 = # O X . . O & : : < : + o > M Z E B n f ",
";.;.I @.f t ; @ + X X $ & & . . . . # $ o + ; ! 6.|.>X$X}._.f._ y 6 , < - @ o X o @ X . . #                   . . X 7 N f y t f ",
"-.&.I ) @.Y f y ] I N N J i 3 4 5 5 w 3 3 < 8 2.A.$X8X8X4XXXd.V 6 , 1 ; - ; = + = - 3 < * % . X # % $ X # # # X . X = , 1 y B T ",
"-.-.&.a.s.M.f.o.Y k.e.d.s.f.*.*.K Z C W Z  .2.D.U.;XrXrX4X#Xe.B 6 1 8 8 1 V Y E Q ' ] *.) / f p p N c s 9 8 7 1 1 8 0 1 6 B Q #.",
":.-.-.-.i.z.A.M.e.o.o.( W C C C Z U Z Z m h ~ (.XX3XrX0X4X}.6.n 6 1 q Y E ^ 3...' ^  .*.q.o.E B Z m h n m C W A B y ; 6 Y E Y n ",
",.s.-.=.e.P.D.Q.'.M.C m m C m C m h q 0 y #./.+X;X0X5X8X;X/.! n y g y C | f.o.f.t.' h n m C n g y y y m C C y 8 ; - 6 B | 5._ E ",
"s.s.-.&.z.P.P.^.;XoXD...C q 6 1 6 6 8 B G.>X:X;X8X4X5X3X%Xf.C M B Z W E ..u.g.h.D.D.e.Y y 6 1 , 1 , , ; - - - - 0 Z o.o. .Q ..| ",
":.:.-.=.h.A.U.|.XX>X$X+X'.P.k.q.6.d.(.4X;X6X3X5X8X8X5X>XQ.o.Z C Z ! ~ q.6.g.l.c.M.Q.P.Q.Q.'.d.5.T B n M B ^ #.z.k.l.h.f..._ Y ' ",
"s.a.a.e.f.U._.oX>X8X2X;X#X+XXX#X*X;X3X3X3X6X6X5X8X8X5X+XF.[ C m Z ( o.q.h.h.h.f.Z.A.U.Q.].'.$X|.#X}.'.(.{.Q.P.A.n.l.f.r.e.o.Q Y ",
"z.d.=.a.x.}.'.*X:X0X5X4X;X*X(.$X:X8X&X:X3X0X0XeXiXeXXX(.z.[ C m C C h m m W A t.b.U.A.~._.*X/.+X;X*X[./.oX_.R.M.h.h.o.i.g.l.' ! ",
"z.d.a.a.P.[.}.{.8XeX8X4X8X+XoX>X6X8X>X%X4X0XrXiXiX4XXXP.z.6._ Y m y y y y 8 1 q ( A.U.T.].}.XX$X2X;X+XXX%X}.^.n.f.t.t.e.h.g.7.' ",
"e.a.4.f.D.}.{.$X>XrXeXeX4X>X>X8X4X8X5X3X;X8XrXaXyX3X(.U.z.M.k.2.m g g A ! C q , , n 2._.(._.+X>X-X;X;X-X}.'.'.U.z.l.u.f.0.i.7.8.",
"e.6.4.*.P.(.{.XX:X8XrXeXeX3X3X2X:X;X#X}.$X,X8XiXiX;X{.U.P.P.D.0.A n C 6.f.6.! 0 - - 8 Y t.P.}.%X2XoXXX@X#X'.Y.A.n.k.f.p.p.t.3.3.",
"t.t. .q.A.`.E.|.-X>X$X;X;X:X'.'.Q.z.( t.XX8X8XiXrX>X}./.'.XX2.Y m m W q.y.y.m q , , ; 1 f o.f.P._.XXE.E.Q.U.f.b.n.A.t.g.p.g.#.3.",
"t.5.@.{ z.U.E.(.$X#X'.U.Q.M.6.( m 0 g A.*X8X0XrXrX6X#XoX$Xz.M 0 0 q y y y 0 6 1 0 q q 6 8 f T 2.A.D.A.A.M.b.u.q.N.k.j.i.f.6.1.o.",
"@.*.} *.f.A.L.].E.U.D.h...W g 1 - t s.;X;X0XiXsXaXrX>X$Xz.V 7 ; = @ + + + - ; 6 0 y y y q 8 y B Q 6.u.z.6.u.q.g.q.p.g.q.*.5.#.*.",
"o.} *.@.i.z.A.U.A.k.o.! m q ; = t s.>X3X8XrXaXsXaXyX8XU.V 1 = o $ + + + @ - - - , , 6 0 g y 0 6 f V [ | ..| ....*.7.#.[  .] @.) ",
"1.5.) } t.z.g.A.f.o.m g 8 - @ p d.;X=X0XrXiXiXiX0X>XG.Q 8 - + + + + o o + = @ - - - - , 8 6 , 1 , 0 n U ( ^ E Q [  .^ _ ^ ` R K ",
"} ) ` ) 4.i.q.i.o.Z y 6 ; - 8 @./.=X4X0XeX8X>X#X/.5.B 8 ; = + + + o $ $ + @ @ = - + + - ; ; - = = = < f ^ ] Q T Q T Z Q _ ^ J N ",
"Q ) Q ) ` 6.[ *._ m 8 , - 1 V s..X;X.X.XG.F.F.'.t.B 1 ; - - = = @ = @ = @ - - ; + + @ = = - = + + + + > f { ^ ' Y W Y E T Q N N ",
"Q W Q E ]  .' [ A g 6 ; - f Q s.d.R S ) *.*.#.*. .M 1 1 0 n y , ; - - = = - ; < - - - = - - = = & + + + : s T ^ Q T U V W ) J l ",
"Y R S K ) ' W ( Z y 1 ; 1 T B @.N r 8 M T B t y 6 - + , f Q B y 8 1 ; - - - - ; ; - = - - < ; < < > @ $ + : 7 V Q Q V ( ] =.N f ",
"N c N N ^ _ ^ W m q 1 ; 6 K M K s 6 6 t n f 8 7 , - 7 Q o.] ( B h 0 , ; , , 1 1 1 , , 1 1 1 1 , 7 < : + + + = 8 Y U W ^ a.a.K l ",
"d x l N T ' { _ g 0 6 , 6 S N N 8 7 8 y f m y t 8 y Q D.D.z.] ( m g q 0 6 q n h y y y q 1 8 0 6 , < - = + + = ; n Y E *.=.a./ N ",
"d f c c R @.2.| M 0 8 6 6 K N f e 8 t y M m C C ! _ | o.f.f.7.! Z m m h n g h m C h a 8 6 6 0 1 1 , ; - = + - ; t U ' *.5.a.P l ",
"f x d c K t.5.f.E t 8 f 0 Q s 7 7 7 , 1 q n m Z W Z C ! ( ( m m n y 0 8 0 8 6 6 6 , - - ; - = @ + + o @ = 1 7 7 t _ ' *.$.=.G G ",
"d l x x K 5.d.d.f.n 8 n n N s < - @ + - , 6 8 6 0 0 y y g y 8 1 , ; - - ; ; ; - - - @ @ @ @ @ + + + @ ; p M T y n ^ ' ' 2./ G G ",
"d c c G G =.d.P.d.#.y N K N f p 8 7 1 q q q q q 0 0 8 8 1 8 0 y y a p a a a q 6 1 1 1 6 1 6 8 0 1 7 7 n ' o.2.M B ] [ *.) K G J ",
"x G P G K } s.x.F.h.N s R Q V V V V B g m W _ +.+.D Z +.%.@.%.+.+.D F D n j j j j a y y y y y q q y Z k.f.1...n ^ #.*.` R c c G ",
"K I I P K I e.m.F.Y.o.n l } T U Y U Z C m [ ! [ %.@.F %.%.*.%.%.D N f j s r 8 0 8 a y q a g 6 0 g ! f.D.h.o.m n | t.{ K N l f N ",
"P I I ) &.P a.d.D.U.d.) f ) ] B Z W W C m n f f n B V j M n j j p 9 3 3 < 3 3 3 3 8 0 0 q 0 6 t Y e.D.d.q.] n n 3.o.R l f f l l ",
"H &.-.-.-.&.&.h.u.S.Z.A.l N @.] T ! T C f y 8 8 7 9 8 r 9 8 e r 9 7 3 < > < > 3 3 7 7 8 8 t p B  .D.M.s.@._ y Y _ ^ N d s l N V ",
"P -.-.&.-.&.&.&.*.&.f.d.Q f  .4.' ^ W m n y y 6 6 8 p y f p r e 7 3 < > > < > 3 3 3 7 6 r f B @.x.x.t.e.5.M f E ^ S s s d l S / ",
"&.>.&.-.-.-.P K l / ) ) ^ f M e.5.o.Z M f f 0 t f n f M B n s r 9 7 < < < 3 3 9 r s 0 s n T  .D.D.m.e.s.] n B ^ W l 9 s f G G K ",
"&.:.-.-.-.&.J r 3 c G K } S M e.t.' ! h g f y M #.*._ ( #.T M f r 9 7 7 9 e s l Y V N B Q 6.d.G.G.x.s.s.R n E Y N s r d S K K N ",
"P :.-.:.-.P d 4 * 4 w G ) @.' z.y.0.( C y n m 2.A.M.h.z.k.6._ T l l l J J / ) 5.*.6.@.] ) e.x.D.h.x.h.} n B Y V d d f N K / K / ",
"J -.:.-.-.b u 2 * : < 5 K t.x.D.t.3.[ Z m Y 2.h.(.d.e.2.e.u.f.u.h.=.s.s.s.s.d.s.e.5.} ) 6.f.h.h.d.x.=.Y m Y V f l G G G K K / / ",
"b &.I &.I b w * * * * > d C.G..Xd.i.o...*.t.h.U.W.Y.e.9.t.A.k.h.d.C.d.C.C.G.d.s.5.*.^ 6.f.d.5.s.d.G.} Q Y Q p s d H G l J I } =.",
"z P I I I x 4 & * * & * w s.+X;X/.8.l.e.t.f.D.Y.[.R.U.D.U.D.A.x./.J..XK./.G.d.=.@.@. .*.t.9.5.s.x.d.} ) ^ N 9 7 r c J c K / 5.s.",
"w G P I H x * % & & & 2 w &.;X4X/.h.3.k.2.f.D._._.XX.XoX(.[..XXX.X|..X.X>.=.u.t.} ^ ) @.#.e.t.x.d.d.} ) c c e 9 9 f N J N I =.=.",
"w z H I b u & % % & * * 5 K >X5X.Xk.3.q.t.f.D.I.I.(.[..X}.XX#XXXG.G.F.d.s.s.t.5.` Q ^ { e.s.A.F.Z.s.&.G c z i e 7 7 s N K I c i ",
"5 w b b x w % # # & % * 4 K :X8XXXF.1.q.M.{.P.!.Y.^.F.A.F.R.f.d.s.d.e.f.t.u.}  .` { ] 4.s.L.S./.I.-.G u c G i u > : 3 r i 7 3 4 ",
"% & 4 4 k 4 % O # # % : 3 K 4X8X}.e.e./.>X#X#X)._.!.F.x.U.M.f.9.9.5.#._ 1.| ` ^ } 6.5.^ A.Y.)./.x.K l 5 w w 4 4 > $ & > > < < 4 ",
"O O # * 4 4 * O # # % : < ) >XeX>.H.#X4X:X7X3X:X}.#X[.{.W.T.x.x.d.u.' Q Y Q ) [ *.u.e.e.F.].oX'.&.c z i 2 4 * 4 & # : 3 3 9 3 i ",
"O O O % * 2 * O O O % : r Z.3XrXwXyXeXeXeXyXaXpXrX7X0X8X2X#X X[.'.Y.e.R R Q _ ] 5.t.x.U.}. XK.&.G d w w 2 > & & # O > 7 r d f x ",
". . . # % * & # . O $ < @.XX3XyXpXaXuXyXyXpXuXaXaXaXwXyXuXrX;X;X:X5X.XV.&.K S *.x.R.G.XX;XK.I G c w * * & & O O O # & < 9 r r d ",
". . . O # & % # . X # d s.&X8X9XuXuXuX9XqXqXqXqXtXtXqXqXqXqX<X<X1X<X<X<X<X<.I :.H.J.K.K.=X<.b v x w * & & # O O # # % * 5 5 w u "
};
