/* XPM */
static char *out[] = {
/* columns rows colors chars-per-pixel */
"64 64 214 2 ",
"   c #2B1608",
".  c #4A2415",
"X  c #5C2C1A",
"o  c #68321E",
"O  c #583F2A",
"+  c #763A24",
"@  c #7E3D26",
"#  c #63432F",
"$  c #6E402D",
"%  c #6A4D37",
"&  c #77523D",
"*  c #7F5D46",
"=  c #814A35",
"-  c #8E4B34",
";  c #96523A",
":  c #865540",
">  c #8C5D46",
",  c #9D5943",
"<  c #955F49",
"1  c #A45E45",
"2  c #89664F",
"3  c #9B644E",
"4  c #916A53",
"5  c #9A6F56",
"6  c #AB644A",
"7  c #A16851",
"8  c #AD6D51",
"9  c #A86D58",
"0  c #B36A51",
"q  c #B76F53",
"w  c #A1765D",
"e  c #A7755C",
"r  c #AE755B",
"t  c #B4715D",
"y  c #B97658",
"u  c #A87B63",
"i  c #AE7D64",
"p  c #B77764",
"a  c #BD7564",
"s  c #B27861",
"d  c #B47F64",
"f  c #BB7E63",
"g  c #C1785B",
"h  c #C87E61",
"j  c #AC836B",
"k  c #BE8466",
"l  c #B3876E",
"z  c #BA876A",
"x  c #BF8B6C",
"c  c #B78C72",
"v  c #BC8E72",
"b  c #C38264",
"n  c #CC8566",
"m  c #C78568",
"M  c #C4816F",
"N  c #C48A6C",
"B  c #CC8C6D",
"V  c #CC8C6E",
"C  c #D18969",
"Z  c #D48C6E",
"A  c #D88F6F",
"S  c #C98270",
"D  c #C88973",
"F  c #CC8A78",
"G  c #C39072",
"H  c #C69677",
"J  c #C89172",
"K  c #CC9475",
"L  c #CA997A",
"P  c #CF9C7E",
"I  c #D19071",
"U  c #D09072",
"Y  c #D29172",
"T  c #D09273",
"R  c #D39273",
"E  c #D49374",
"W  c #D59475",
"Q  c #DA9472",
"!  c #DD9876",
"~  c #D79778",
"^  c #D1967C",
"/  c #D89778",
"(  c #D59A7B",
")  c #D99878",
"_  c #D9997A",
"`  c #DB9A7A",
"'  c #DA9A7B",
"]  c #DC9B7B",
"[  c #DB9C7D",
"{  c #DA9D7E",
"}  c #DE9D7D",
"|  c #DC9D7E",
" . c #DD9D7E",
".. c #E09E7D",
"X. c #E29F7D",
"o. c #E2A07F",
"O. c #DD9E80",
"+. c #DE9F80",
"@. c #DF9F80",
"#. c #DD9986",
"$. c #D99E87",
"%. c #D4A082",
"&. c #DFA081",
"*. c #DCA386",
"=. c #D8A485",
"-. c #DCA88A",
";. c #DFAB8E",
":. c #DBAB91",
">. c #DFAF94",
",. c #E0A081",
"<. c #E2A181",
"1. c #E3A181",
"2. c #E0A182",
"3. c #E1A283",
"4. c #E3A282",
"5. c #E4A281",
"6. c #E5A382",
"7. c #E4A383",
"8. c #E5A383",
"9. c #E6A483",
"0. c #E5A484",
"q. c #E6A584",
"w. c #E6A585",
"e. c #E7A685",
"r. c #E7A686",
"t. c #E8A786",
"y. c #E8A787",
"u. c #E9A887",
"i. c #E0A58A",
"p. c #E3AC8D",
"a. c #E7AD8F",
"s. c #E8A888",
"d. c #E9A888",
"f. c #E9A989",
"g. c #EAA989",
"h. c #EAAA8A",
"j. c #EBAA8A",
"k. c #EBAB8B",
"l. c #EBAC8C",
"z. c #EBAE8F",
"x. c #ECAC8C",
"c. c #EDAD8D",
"v. c #EDAE8E",
"b. c #EEAF8F",
"n. c #EDAF90",
"m. c #E4B195",
"M. c #E9B193",
"N. c #EEB090",
"B. c #EDB192",
"V. c #EEB192",
"C. c #EFB192",
"Z. c #EFB293",
"A. c #ECB496",
"S. c #E6B599",
"D. c #EAB79A",
"F. c #EEB899",
"G. c #EEBC9E",
"H. c #F0B293",
"J. c #F0B394",
"K. c #F1B495",
"L. c #F0B496",
"P. c #F1B596",
"I. c #F1B597",
"U. c #F2B697",
"Y. c #F2B698",
"T. c #F2B799",
"R. c #F3B799",
"E. c #F3B899",
"W. c #F2B89A",
"Q. c #F3B89A",
"!. c #F3B99A",
"~. c #F3B99B",
"^. c #F4B99B",
"/. c #F4BA9B",
"(. c #F4BA9C",
"). c #F4BB9D",
"_. c #F5BB9D",
"`. c #F5BC9E",
"'. c #F5BD9E",
"]. c #F5BD9F",
"[. c #F1BFA1",
"{. c #F5BEA0",
"}. c #F6BEA0",
"|. c #F6C0A2",
" X c #F6C1A2",
".X c #F6C2A3",
"XX c #F7C2A3",
"oX c #F6C3A4",
"OX c #F2C4A5",
"+X c #F7C5A6",
"@X c #F7C6A7",
"#X c #F7C7A8",
"$X c #F7C8A9",
"%X c #F0CBAD",
"&X c #F4CDAE",
"*X c #F8C8A9",
"=X c #F8C9AA",
"-X c #F8CAAB",
";X c #F8CBAC",
":X c #F8CCAD",
">X c #F8CDAE",
",X c #F9CEAF",
"<X c #F3D1B3",
"1X c #F7D1B2",
"2X c #F0D4B6",
"3X c #F6D4B6",
"4X c #FAD3B4",
"5X c #FAD7B8",
"6X c #F1D8B9",
"7X c #F7D8BA",
"8X c #F5DBBB",
"9X c #FADDBE",
"0X c #F6DDC0",
"qX c #F9E1C3",
/* pixels */
">.z.&.*.( P %.-.-.z.m.A.m.D.m.m.>.m.>.m.m.F.A.D.m.m.m.A.M.>.;.a.-.:.i.a.-.-.-.i.*.O.( +.( ' ( ~ T ( ^ ( K ^ K R B Y U R I E U Y ",
"=.s.i.%.P L %.:.m.m.m.m.D.A.A.m.m.>.m.m.D.D.D.A.F.m.M.M.M.a.i.i.i.;.i.i.;.i.w.p.i.*.O.( 2.{ ' } +.O.( | ( L K V U U I U W Y R Y ",
"L -.P H L P %.-.>.m.>.m.M.F.m.m.m.m.>.m.A.W.a.F.M.A.p.M.A.J.p.M.z.M.i.p.a.v.i.p.p.w.+.,.<.0.] 3.3.3._ ( P ' N U V V m B I Z C Z ",
"G P K G H P %.-.>.>.>.>.m.A.M.M.m.m.m.m.A.F.M.M.I.M.M.z.L.C.M.z.C.B.z.l.H.a.h.f.v.7.4.} 2...] } 2.,.O.%.%.T J U V B C C Z C C n ",
"L P P P P =.:.m.>.m.>.m.M.F.M.A.M.A.m.F.A.I.A.I.A.Q.L.T.Y.Y.L.J.a.C.k.N.f.k.h.k.y.s...,.] | ' +.` 3.+.*.^ R V U B Z B C C B n n ",
"P %.P %.=.m.M.m.A.A.M.A./.A./.L.Y.L.A.(.).~.~.W.Y.~.Y.I.T.P.I.N.C.C.v.k.h.h.h.k.u.5.@.}  .O.{ ' &.1.2._ K V V n B B B C n n n h ",
"0.>.i.L.R._.K.L.Y.).L.Y.Q.~.F.).~.].Q.}.XXXXL.W./.Q.B.L.Q.L.l.N.N.H.s.f.g.k.7.k.e.4.' +.} +._ } 3.3.~ ~ T U m m B C h n n C h m ",
"n.H.P.Y.'./.I.T.{.Q.Y.L.Q./.~.T.`.Q.Q.Y.'./.T.L.Q.Y.A.A.Q.F.z.s.N.n.s.y.h.k.h.h.u.| ] O.,.| X.] 2.&./ E E B b b n n h h n m h h ",
"z.P.T./.Y.'./.].I.^.Y.Y.T.^./.'.L.I.I.Q.T./.T.T.L.Y.I.Y.Y.T.N.C.h.f.s.j.w.k.x.N.9.4.+.2.| &.+.<.| | _ ~ V B m h g b b b g h g g ",
"N.Y./.Y.).).).)./.Y.C.C./.'.!.Q.Y.V.L.Y.Q./.Y.I.Y.Q.{././.W.A.C.l.s.r.u.b.v.N.e.r.3.2.{ +.3.O.+.O.| _ R Y m m f a f b g g g f g ",
"a.L.A.I./.'.I.T.T.L.h.L.P.'.F./.C.C.a.n.T.{.~.)./.}.).{.'./.C.v.h.h.0.h.v.c.r.u.r.3._ +.3.i.' O.' ' E U m m k f y k y y f b g g ",
"d ( i.M.I./.Y.I./.C.x.a./.Y.I.L.A.g.r.p.I./.'.'.XX{.oX'./.Y.a.*.+.( ^ ( ^ J V R _ ~ ~ ' +.O.| _ | ' W m m m k y b f y y b g g g ",
"# < 9 N ( p.N.C.a.v.h.n.A.Q.I.A.k.x.7.l.h.'.'.XX}.XX).A.i.( d e 7 3 < 7 7 7 9 f k N m B V W ~ O.( ~ Y U b b f f y g y g y y g b ",
"& @ : 3 k U 2.c.C.a.x.k.N.C.k.x.j.u.0.s.x.J.Q.I.A.-.x 9 < = $ X X X X o + = : < 7 6 9 6 9 r N U ^ R R b b f f g t y q y y y y q ",
"z r 3 6 t N B 0.c.C.r.j.v.c.w.y.3.2.~ O.0.c.h.0.V 9 : + $ o . . . X X + = = = : < < > < < 1 , 8 t p p y p t 8 8 q q 6 0 6 0 1 8 ",
"-.( N k f b B _ u.u.u.r.k.h.t.r.] U V I ( ' _ b 8 - @ $ $ o o $ : < e z U f r r r 9 < < < , , , 7 < 3 3 3 3 , 1 6 6 1 1 6 6 6 1 ",
"*.O.V f y b Y ] +.u.e.s.r.x.f.k.C b b m m B f t , - @ & @ > 3 y N { i.a.w.s.+.| U V m f 9 9 9 7 3 3 3 3 < < ; , < 1 1 8 6 8 8 8 ",
"w.3._ V p 8 b Y } 4.0.4.r.u.f.q.W a y k f f t 1 , - - - 1 t b V ( _ ' ' +.{ O.| O.' ' U T m k r 7 3 3 < < , 1 1 1 6 6 8 8 t t t ",
"d d e p f t 0 b Z 2.4.r.u.u.4.2.~ B p f f t 1 1 , , ; , 1 8 f V U U b b b b t t k B V R ^ U V b p r 9 9 9 8 8 8 8 t 8 y f b f b ",
". . . o = ; 1 t m W 4.z.N.j.e.2.{ Y m f p 8 , ; ; : = @ , f ( 7.z.p.3._ ' U k 8 ; - , f W Y V k N k f b m m f y f y y y g g a g ",
"O       . # + ; t U ,./.Y.I.v.c.,.~ V y 8 1 ; - = $ o < t f f N N N x x k b f f 9 > + - y T ( ~ B m b B m m b f t y f b g n h n ",
"O . . . O % # o @ b ,.U.=XXX).L.N.' f 6 6 1 ; = @ X @ < - $ X X . . . o $ + $ $ & & + $ : k U f g b b B Z B B m m f y y f f y y ",
"5 2 > 2 e r , ; ; m 7.{.:X,X}.).J.' 8 6 6 , - - - + $ @ @ + . .         . .   . . . . X = 1 1 6 f C Y } e.4.) W g t 1 6 8 8 8 t ",
"0.O.T Z Z U Z W ,.u.C.oX7X3X#X{.h.m 6 1 y 6 1 m I B m V T T N i 3 > : > 3 < > 3 < - - 1 t 8 1 b Z W ~ ..7.4.| m t 6 6 8 f k k k ",
"~ I C Z W W Z n n h.).;X4X7X+X~.3.b 6 8 g E U ) u.0._ ] | e.0.2.Z C V W B h y b n U I B 8 , y ,.7.0.~ ~ I I m m f f 8 s s f y d ",
"Z Z I n h q 0 a s.}.XX>X,X;X|.I.| h y g B ] r.y.k.h.7.~ Z B U Z C n g q g n A Q A g 6 - , B } e.4.4.4.o.} ~ ~ ) ~ k 9 9 r s t r ",
"y 0 1 1 6 y ' '.-X=X-X,X,X*XA.9.W Z n I Q ) ,.x.x.v.d.N.r.W t 6 6 6 1 6 8 6 , , ; ; 1 g ,.x.e.0.} 4.] r.u.j.9.e...N r r r s t y ",
"A.w.3.0.A.XX-X+X:X=X=X>X;X{.h.) W Z W } 3.7.e.f.c.v.N.H.'./.C.p.i.( V m m f f m W 3.x.N.U.N.k.0.2.} W 0.r.u.9.e.2.B p t p d f k ",
"XXXXXX@X@X=X@X$X=X3X,X,XoXQ.4.Q C Z Q e.s.v.h.v.c.v.c.P.J./.^._.'.XX}.oX'.}.).}.T./.J.P.k.x.g.x.t.4.~ ,.} u.e.e.O.B f y t f f b ",
"XX}.@X,X,X:X;X:X4X,X3X#X'.N.] Z Z Z Q ] } ..7.e.x.N.J.Q.Q.).Q.^.}.|.@X#X@XoXXX).}.T.C.C.N.k.d.h.c.3...] } 7.4.4.&.V b f f b m N ",
"=X,X-X,X>X;XoX,X4X9X=XXX).v.} Q W Z h h h g q y g Q e.J.Q.).L.'.XX:X X#X+X=X{.oXXX'.N.j.j.x.g.u.j.s.} ..+.<._ o.@.R f b b B b V ",
"4X,X:X=X:X:X@X=X7X9X,X/.Y.C.u.4...n g y n Z h q 1 , t W C.Y./.'.oX=X@X@X=X#XoXXX}.Q.W.b.C.x.k.k.k.d.3.} 2.| ) / ' U f y b m m B ",
":X,X:X:XoXXX}.#X4X7X=X}.J.P.P.C.4.Z g h ! j.e.} h , - 1 f ' z.Q.I.XXXX@XoXXXXX}.Y.Y.C.C.x.C.h.j.e.y.3.7.) +.~ _ R V f b b V V T ",
"}.).Q.N.0.2.Y.#X4X3X=X).'.)./.C...C n Q u.c.x.} A 6 - - , 0 B +.h.J.Q.).'.'.Q.Q.J.N.c.x.N.b.k.g.t.8.,.2.' { ( T T V n f f B V V ",
"A.x.Q n 0 n L.1X7X7XoXXXXXXXT.] C h h Q ..} C h y 6 1 0 q 0 6 f R 7.w.C.Y./.C.x.N.c.7.c.v.b.e.9.3.2.' ' _ ( K ^ K ^ b m V T V V ",
"] n 6 - , w.oX3XqX7X,X=X+X).{ f 0 6 1 , , - - - , 6 q y h g g 0 y m W } j.x.j.e.s.u.e.r.f.s.e.[ +.O.' W ( K K ^ ( K V T ( E U B ",
"h 1 @ - V #X,X9XqXqXqX4X).{ t 1 = + + @ $ + @ - ; 1 6 0 0 y g f 0 8 t V ~ +.,.7.} 4.,.7.7.e.` } W ~ E K N J K ( K K ( *.{ _ B Z ",
"6 - - m W.=X4X7XqX7X4X Xw.f ; @ + + @ + + + @ = = - ; ; , 6 0 8 6 1 , 1 f U W ~ ~ ~ ~ ~ O.] ~ ~ ~ ~ E V D N K ( K J W { _ ( U B ",
"- - 8 3.{.,X:X4X4X@XM.i.b 1 @ + @ + + + + $ + @ = - @ @ @ ; - - ; - = = - r N ~ ) ] U W W W U Y W W V N N N J ( K K K ( ( ^ m C ",
"; ; N w.@X@X@X).'.A.~ t 1 - @ @ + @ + @ = = = - - - @ + = = - - - = + + & + < k _ | W Y ' E U E W ~ N k N x J ^ U N N D T B m n ",
"; 1 K w.*.%.i.0.*.7._ f , , 1 p 1 ; - - - - - ; ; 3 - - - ; ; ; - - = & & + $ : 8 V U E I R E W U ) V N N N J K N N J K V B B n ",
", y T R f p U T m f 8 ; = , k U k 6 1 ; , ; - - ; ; ; - ; ; , ; , , < < > @ + @ = , b Z Y E / W ^ ( T k N x J J J G H K J B B C ",
"1 k N d t r p f y 6 , - 1 W ( ~ V m 0 1 1 , - ; 1 1 , ; 1 1 , 1 0 8 1 1 1 < = @ @ = , b W ~ E  .,.O.T V x H N G G H G K N V B C ",
"1 p N p 9 9 s f p 8 8 8 I N.C.7.} W n t 0 6 1 0 g a q q y y 6 6 y q 6 6 0 1 - @ = = - 8 Y ~ ' ] <.2.( J N G x x G H J H N B B B ",
"1 y f i 7 9 y k k f m ~ ' 7.e.e...) C B h h g h h n n n h g 0 q 0 0 6 8 6 1 < > = - , 1 m ~ ~ 6.O.&.^ K N G x G G K P K k N N D ",
"f k f 3 < 3 , 1 t b U Z C Z Z W A n n g g y q 0 6 0 q 6 , ; ; ; - - = = - - = - 1 9 y 8 f ~ @.+...} ~ J V D x x G P L J N N m N ",
"U k f 7 : @ + @ ; 1 , 1 0 y 0 q 0 6 1 ; - - @ = - - @ @ + @ + @ = - = - - - - 8 V ~ ~ f m ../ ..+.+.U V N N d z G H x G J V k N ",
"+.k f d 9 3 , 1 0 1 , ; , - - - , ; ; , , 1 1 6 0 6 1 1 6 6 8 8 y y q q q q a ) j.3.} B I ' 1.@.O._ V N x k f f x z x J J J V N ",
"{ V p J N x N m C I I W U F F F S S S M M D M S M b f M g h g a y y 0 y g I 7.C.w.<.] B U ,.2.7.W T b x f d p x z f x J N ( ^ U ",
"L ' k N ( V U m Z ] ~ ' ' #.| #.#.W W S S M p r a y q 0 q g g t 8 8 0 y C 7.Y.B.w.&.W b Q ,.3. .J b f f f s f z f f G J ( ( { ^ ",
"P i.( k J ( B B Z B f k N m f M f f 9 9 9 7 < < 3 7 < 3 9 y r t t 0 8 b +.L.z.z.w.s.B f R 2.) T V m d f s r d d f x G P %.{ J V ",
"%.-.*.J N ( ~ W W b t 8 9 9 9 t y r 9 9 7 < < > < < < 7 9 t t t p p k R N.L.z.h.h.0.V b _ ] W V V N f r r f z f x G G H %.K J J ",
"L =.*.%.N J _ ' Z m y 8 8 8 t b f b f r 9 7 < 3 < 3 3 9 9 y p k f N U 0.n.A.z.M.a.p.V B ~ ) V V B N f 9 9 k H L x J J K K %.{ ( ",
"H =.-.%.J N +.~ Z m f 8 r 8 b U R U V b f r 7 7 9 9 p k m V Y R ~ ' +.a.M.M.z.h.p.3.K V ~ E U V T N s 9 r i i G H x N J K ( *.*.",
"v %.%.%.x x J _ W U f g t f B 0.s.3.W I _ ( J T ^ { ' *.w.s.3.3.7.i.&.s.s.N.0.3.7.i.U Y ( ) U R V N r d e 7 7 d K J x x J $.*.p.",
"l L P P H i e N ' ] Q C m I o.r.h.7.{ ] 3.r.i.*.p.a.M.M.M.M.s.3.7.*.i.w.p.s.i.+.3.3._ W 2.' ~ T T z f z z w 9 8 N ^ K N K %.i.*.",
"w G L %.H u 2 i U ' 7.7.~ +.,.u.u.c.h.v.h.v.a.L.L.F.F./.F.W.z.i.| &.O.0.2.,.{ 3.O.&.{ 3.2.2._ _ V z d z i u w r r N N K K *.%.P ",
"w z H P x w & > 5 z *.n.x.q.u.r.V.N.I.J.Q.{.{.{.{.{..XoXXXA.i.i.0.2.+.O./ ~ [ O.O.&.w.f.z.i.*._ L d d G d i i u < 7 d N P G i e ",
"5 5 c v d w # % : 3 i %.W.T.y.s.g.N.j.J.~.'.L.P.I.Y.A.F.M.A.0.d.r.0./ / / | _ +.3.p.3.n.W.L.i.{ L l 4 z v l e u : > 7 9 7 4 4 4 ",
"% & 2 4 u 5 % O % & > e >.$XT.x.f.y.a.C.Y.Q.I.a.v.a.s.w.w.0.0.2.,._ ( ~ | ' +.3.&.{ s.H.W.Y.a.P G z 7 5 u w 4 7 * # : : > < < 4 ",
"O O # * 4 4 & O # # & 3 f :X-Xz.=.~. XoX'./.Y./.C.I.N.c.s.u.,.,.` W Y W W O.&.s.3.+.z.I.E.|.M.P G i c 4 4 > * 4 % # > 3 3 9 7 d ",
"O O O % * 2 * O O O & > N ].,X;X,X7X3X,X4X7X7X,X,X;X>X@X}.{.}.~.T.i.( T W W _ O.3.h.Z.I.XX Xa.J G e w 4 4 * & & # # < 7 r d f z ",
". . . # % * & # . O $ < O.{.=X7X0XqX8X7X7X0X8XqXqX9X3X7X8X5X+X+X@X;X[.M.%.K D [ z.I.A.{.+XG.P G x w * * & & O O O # & < 9 r r d ",
". . . O # & % # . X # d p.XX<X<X7X8X8X<X2X2X2X2X6X6X2X2X2X2X%X%X&X%X%X%X%X>.P -.S.D.D.OXOX>.v c j w * & & # O O # # % * 5 5 w u "
};
