/* XPM */
static char *out[] = {
/* columns rows colors chars-per-pixel */
"64 64 215 2 ",
"   c #2B1608",
".  c #4A2415",
"X  c #5C2C1A",
"o  c #68321E",
"O  c #583F2A",
"+  c #763A24",
"@  c #7E3D26",
"#  c #63432F",
"$  c #6E402D",
"%  c #6A4D37",
"&  c #77523D",
"*  c #7F5D46",
"=  c #814A35",
"-  c #8E4B34",
";  c #96523A",
":  c #865540",
">  c #8C5D46",
",  c #9D5943",
"<  c #955F49",
"1  c #A45E45",
"2  c #89664F",
"3  c #9B644E",
"4  c #916A53",
"5  c #9A6F56",
"6  c #AB644A",
"7  c #A16851",
"8  c #AD6D51",
"9  c #A86D58",
"0  c #B36A51",
"q  c #B76F53",
"w  c #A1765D",
"e  c #A7755C",
"r  c #AE755B",
"t  c #B4715D",
"y  c #B97658",
"u  c #A87B63",
"i  c #AE7D64",
"p  c #B77764",
"a  c #BD7564",
"s  c #B27861",
"d  c #B47F64",
"f  c #BB7E63",
"g  c #C1785B",
"h  c #C87E61",
"j  c #AC836B",
"k  c #BE8466",
"l  c #B3876E",
"z  c #BA876A",
"x  c #BF8B6C",
"c  c #B78C72",
"v  c #BC8E72",
"b  c #C38264",
"n  c #CC8566",
"m  c #C78568",
"M  c #C4816F",
"N  c #C48A6C",
"B  c #CC8C6D",
"V  c #CC8C6E",
"C  c #D18969",
"Z  c #D48C6E",
"A  c #D88F6F",
"S  c #C98270",
"D  c #C88973",
"F  c #CC8A78",
"G  c #D08B78",
"H  c #D38E7E",
"J  c #C39072",
"K  c #C69677",
"L  c #C89172",
"P  c #CC9475",
"I  c #CA997A",
"U  c #CF9C7E",
"Y  c #D19071",
"T  c #D09072",
"R  c #D29172",
"E  c #D09273",
"W  c #D39273",
"Q  c #D49374",
"!  c #D59475",
"~  c #DA9472",
"^  c #DD9876",
"/  c #D79778",
"(  c #D1967C",
")  c #D89778",
"_  c #D59A7B",
"`  c #D9997A",
"'  c #DB9A7A",
"]  c #DA9A7B",
"[  c #DC9B7B",
"{  c #DB9C7D",
"}  c #DA9D7E",
"|  c #DE9D7D",
" . c #DC9D7E",
".. c #DD9D7E",
"X. c #E09E7D",
"o. c #E29F7D",
"O. c #E2A07F",
"+. c #D89380",
"@. c #D89982",
"#. c #DD9E80",
"$. c #DE9F80",
"%. c #DF9F80",
"&. c #D4A082",
"*. c #DFA081",
"=. c #DCA386",
"-. c #D8A485",
";. c #DCA88A",
":. c #DFAB8E",
">. c #DFAF94",
",. c #E2A181",
"<. c #E3A181",
"1. c #E0A182",
"2. c #E1A283",
"3. c #E3A282",
"4. c #E4A281",
"5. c #E4A382",
"6. c #E5A382",
"7. c #E4A383",
"8. c #E6A483",
"9. c #E5A484",
"0. c #E6A584",
"q. c #E6A585",
"w. c #E7A685",
"e. c #E7A686",
"r. c #E8A786",
"t. c #E8A787",
"y. c #E9A887",
"u. c #E0A58A",
"i. c #E3AC8D",
"p. c #E7AD8F",
"a. c #E8A888",
"s. c #E9A888",
"d. c #E9A989",
"f. c #EAA989",
"g. c #EAAA8A",
"h. c #EBAA8A",
"j. c #EBAB8B",
"k. c #EBAE8F",
"l. c #ECAC8C",
"z. c #ECAD8D",
"x. c #EDAD8D",
"c. c #EDAE8E",
"v. c #ECAE8F",
"b. c #EDAF90",
"n. c #EEAF90",
"m. c #E4B195",
"M. c #E9B193",
"N. c #EFB090",
"B. c #EDB192",
"V. c #EEB192",
"C. c #EFB293",
"Z. c #ECB496",
"A. c #E6B599",
"S. c #EAB79A",
"D. c #EEB899",
"F. c #EEBC9E",
"G. c #F0B293",
"H. c #F1B495",
"J. c #F0B496",
"K. c #F1B596",
"L. c #F1B597",
"P. c #F2B697",
"I. c #F2B698",
"U. c #F2B799",
"Y. c #F3B799",
"T. c #F3B899",
"R. c #F2B89A",
"E. c #F3B89A",
"W. c #F3B99A",
"Q. c #F3B99B",
"!. c #F4B99B",
"~. c #F4BA9B",
"^. c #F4BA9C",
"/. c #F4BB9C",
"(. c #F4BB9D",
"). c #F5BB9D",
"_. c #F5BC9D",
"`. c #F5BC9E",
"'. c #F5BD9F",
"]. c #F5BE9F",
"[. c #F1BFA1",
"{. c #F5BEA0",
"}. c #F6BEA0",
"|. c #F6C0A1",
" X c #F6C0A2",
".X c #F6C1A2",
"XX c #F6C1A3",
"oX c #F6C2A3",
"OX c #F7C2A3",
"+X c #F6C3A4",
"@X c #F2C4A5",
"#X c #F7C4A6",
"$X c #F7C5A6",
"%X c #F7C6A7",
"&X c #F0CBAD",
"*X c #F4CDAE",
"=X c #F8C8A9",
"-X c #F8C9AA",
";X c #F8CAAB",
":X c #F8CBAC",
">X c #F8CCAD",
",X c #F8CDAE",
"<X c #F9CEAF",
"1X c #F3D1B3",
"2X c #F7D1B2",
"3X c #F0D4B6",
"4X c #F6D4B6",
"5X c #FAD3B4",
"6X c #FAD7B8",
"7X c #F1D8B9",
"8X c #F7D8BA",
"9X c #F5DBBB",
"0X c #FADDBE",
"qX c #F6DDC0",
"wX c #F9E1C3",
/* pixels */
">.B.0.q./ L z z z L &.m.M.M.>.>.>.>.>.>.>.m.S.S.m.S.S.F.A.S.M.M.p.M.:.i.:.p.i.M.2.u.#.=.2.q.*.2.} ..} [ ` [ ) ) T W T ) Y ! T R ",
"-.g.x.a.2.` J x J I &.m.M.M.m.>.m.>.>.>.>.m.S.S.A.m.S.S.D.S.B.M.B.i.:.i.d.p.p.p.:.a.e.e.g.i.e.1.$.' [ o.4.| O./ ! T W T ! R W R ",
"J 4.O.8.o._ J J L &.:.m.M.D.>.>.>.M.p.m.D.F.M.D.A.D.C.F.^.(.C.L.H.L.g.n.G.H.k.n.l.h.4.d.d.j.,.*.| X.` | o.4.{ ' ! Z C Z T Z C Z ",
"z [ { ) | I L J -.M.C.C.F.D.B.C.D.L.U.D. X{.^.(. X{.F.F.^.W.C.C.P.B.k.k.G.G.b.b.c.a.e.e.l.r.,.| X.^ ] ] ,.O.] ' ) Z C C Z C C C ",
"d X.| *.*.:.:.D.D.(.^.{.^.{.^.{.W.{. X+X{. X(. XR.`.^.(.L.Q.J.U.Z.J.C.C.d.k.p.h.r.a.e.h.s.q.` X.^ ..' 2. . .` / R Z C R n Z n C ",
"L | o.h.G.U.W.W.`.^.^.(.'.R.`.U./.(. X^.(.^.(.R.`.'.`.L.Q.J.L.J.L.L.J.g.h.d.j.e.r.q.r.a.a.4.X.] X.[ ' *.*.| ` W Z B C C n n C C ",
"/ 3.2.l.n.L.H.U./.{.D.'.{.].B.W.W.'.D.'.(.^.C.R./.{.D.Q.R.R.J.R.E.^.B.n.l.j.a.r.a.z.7.l.l.r.' | o.2.`  .2.%.! E Z C h n n C h m ",
"} ,.e.j.G.L.L.U.{.'.`.'.{.^.L.H.R.R.R.(.{.^.H.J.`.(.R.L.~.W.I.F.~.P.J.J.C.b.e.t.f.h.r.f.l.r.o.[ 1.*.#.} 2.#.! Z C n h h n h h h ",
"L U P U } g.C.E.I.!.I.Q.'..XC.L.n.R.W.{.Q.W.B.L.H.`.^.^.'.{.XXXXU.L.K.K.B.v.a.j.a.a.2.q.r.r.5.,. . .#.$.#.*./ Q n b g h g b g g ",
"> : : : 4 z -.p.J.L.U.L.).`.L.B.B.L.J.L.Q.B.k.k.B.J.{.{.+XXX+X+X{.J.M.u.} / Q E Q L N L Q E E Q ` ] %. .*.%.' Z n f b g g g f g ",
"= $ X X O & < i L *.2.B.W.W.c.l.n.H.C.L.L.G.2.h.k.Y.D.(.XX%X{.D.:.-.x e 3 3 > > 3 7 3 9 f b f m m V T [  .$.) R b m y f f b g g ",
"I i 4 & & @ = > 8 k E ,.L.U.c.d.c.l.z.l.n.d.2.2.d.c.C.R.(.M.P s 3 : $ X X X . X o + @ - < 3 1 1 7 7 r b V Q ! V b f y y f g g f ",
"p.M.:.U x d 8 9 8 f m / e.c.l.l.r.v.h.l.i.#.` 1.,.h.j.B.} b 3 : + X X . . X X o @ : @ : : > > > > , , 7 7 8 y f y f a g y y y g ",
"i.i.i.q.u.` Q N N b m V *.g.x.l.h.h.k.d.e.Q V V ! / { / f 1 = + + $ o o & > 7 d L L f r r r 9 < < > ; , 3 3 , ; 3 8 8 t 0 0 q q ",
"D } =.u.i.=.P m f b m ! { e.q.r.r.l.e.f.h.T f b m V b b 8 ; @ @ = - - 9 b P ` e.g.g.*.} } Q D D f 9 7 7 7 3 > > > ; 1 8 8 8 6 6 ",
"p.D.D.B.B.d.*.Q b 8 q B { 4.r.e.r.f.e.q.a.Z f f f m f t 6 ; - - , 6 y m Q { ` ` | { ` `  .*.{ ` Q L k p r < < > > - ; , 6 6 6 1 ",
"p.i.I J z J z x f y 8 g n | 0.j.r.a.8.f.,.Q m b y f 8 6 , ; ; , ; , 6 b V E V N f y t y y b V ! E Q V V f r 9 7 , ; , 8 8 8 8 8 ",
"J 4 # X .   . X @ ; 6 8 b Y o.l.G.c.d.d.q./ V m f t 6 , , ; - = = 8 V } i.p.i.} ` T b r , = ; 8 b T V N N b b y t y t 8 8 8 8 8 ",
"X     . # .     . X + ; y n ! c.`.^.M.C.B.2.T b y 8 , ; - - o + 7 f 9 9 e 7 7 7 7 s r r r 7 @ + , N V Q ! B b f b k y y f b a g ",
"  . . O # .   . . O o X = f Q f.=X=X'.`.^.t.T t 6 6 , = = + X - > + X   .       . . X X X # o X + 9 P V n f b b m m f g g g a y ",
"< < 7 7 4 * % % & 4 > = o ; X.G.:X5X:X%XU.h.m 6 1 6 ; ; - @ o + = > & # .     . . .       . . . X - 6 1 1 y f b m m b b g h g b ",
"h.h.i.q.-.Q _ H V D m k D ! G.U.<X8X2X%XY.{ y 6 6 q 6 y V m m D T Q _ J i 7 > > 4 7 3 < < > - = , 8 1 6 m ) O.,.<.,.O.n f y t q ",
"O.d.*.2.2. .P H E ~ Q ~ ) O.G. X5X6X,X+XL.` t 6 0 n B Z O.r.| ` ` *.*.e.*.~ n Z R Z g f m B Z Q C 8 , g ) ` V T Q ` N t t 8 8 y ",
"f.X.Q C Z R _ C C m y q n C. X+X5X2X-X'.n.) g q h V X.4.r.h.h.O.' m m m Z C g q q y n Z ' C y 1 - , m ^ q.r.| V b y t g k b f f ",
"L.r.Z m q y q t 6 6 y } (.=X%X,X=X=X{.L.*.Z B Z V R ) r.a.c.l.H.k.,.B t 6 6 6 6 1 6 1 , , ; ; 1 g { 4.O.{ O.,.5.` V T ) b f s s ",
"+XXX'.n.*.T B V ! u.{.-X:X:X;X,X;X%X^.e.) Z Q ^ X.O.,.r.c.l.n.N.L.U.Y.L.B.q.#.V m y y f D ! 2.h.c.l.h.4.o.! ` 2.1.,.O.o.m y t r ",
",X,XoX XXX+X^.XX%X:XoX=X:X<X<X5X<X%Xl.| Q Z Z ^ q.c.r.c.n.G.h.H.P.Q.B.U.{.+X'.XXXX'.D.W.W.'.B.G.b.n.0.r.q.,.W [ O.r.o.0.V f t y ",
",X5X:X+X+X XXX%X,X:X%X-X5X5X5X<X:X'.f.) Q C C Z ^ ^ ^ X.q.j.n.l.Y.W.L.P.{.OX|.{.=XXX`.^.'.U.G.n.N.j.r.a.a.,.' ) o.5.*.,.T f f k ",
"%X5X<X<XXXXX-X<X:X:X:X<X<X8X8X2X{.^.h.4.~ Z n n g h y y q g C h.H./.I.Q.(.|.%X=X#X#XXXXX^.(.G.G.e.h.r.f.0.0.X.' | 4.,.9.T b f b ",
"<X8X5X<X=X%X:X:X>X,X:X,X5X8XwX,X{.G.c.y.e.O.C g g C Z m q , , t ) G.^./. X+X-X=X=X#X#X#X'.`.Y.N.x.a.f.a.y.0.q.<.*.' O.%.! m m N ",
",X6X<X2X,X,X+X-X<X:X'.=X:X8X6X-X'.W.b.H.L.h.A b n 4.,.4.) m ; - 1 m ) k.^.OX{.OX%X=XXX X{.W.G.H.n.n.6.s.f.g.o.O.%.| ` %.! V N V ",
"=X>X:X:X=X=XXX`.W.c.B. X<X8X5X%X{.(.C.W.G.^ C n ) r.h.r.X.Z 1 - ; , 8 D q.H.!.Y.{.'.L.U.{.Y.G.G.N.l.r.y.l.f.O.,.8.{ / / ! V V B ",
"`.'.^.(.L.H.a.^ n b e.%X<X8X<X:XXX|.`.Y./ m g h C A C n g q 6 q 0 0 1 8 b | a.G.J.R.G.P.G.H.c.b.z.x.f.f.w.f.q.2.{ ` ) ! V V V E ",
"I.E.G.h.O.Z g 1 , E (.=X8XwX0X5X=XXXC./ y 6 , ; - = = = ; , 6 q g y g q q g Q | a.r.a.h.h.h.j.f.d.f.t.t.2.2.,.7.O./ ) W ! V V V ",
"L.n.X.~ n 0 = - m {.+X<XwXwXwX0X,X[.V 8 ; + o + @ + o = , , , 8 0 q q g y t t b ! X.{ 4.O.0.,.8.t.h.` 1.,.2.' _ _ ` E T ! ` V V ",
"G.q.Z g 8 - = b [.,X<X8XwXwX8X=XXX*.t - + + + o + o + @ = - - ; , , 6 8 0 6 , 1 y n Q ) ^ ` ' { 7.,.` ) | ` Q L P ( P E ` ` ! B ",
",.) b 6 - - f D.oX<X8X5X,X,XF.B._ f , = + + o + + + + @ @ = - = @ = - ; - - = - - 1 m / ! ) Q ) ! [ ' ) ! ` L N N P P ! } ` W R ",
"^ C q , - 6 } F.-X:X,XoXF.U.p.V 8 , = @ @ + @ @ @ @ = = = - - = @ @ = - - = + + @ + > f ` | / T Q R Q Q ! E L N N ( ! ! #.! W B ",
"~ n 1 , ; m } D.D.p.u.2.q.d.,.Q t , 1 f f 1 - ; - - = - ; , : - ; - - - ; > = @ + $ + - y Q E / ! ! B W ` / N k b _ Q ` ' ) C C ",
"Q g 1 ; 8 ( *._ b b E Q E b f , = - 8 T / f 6 , , ; - - - ; < - ; ; - , 1 , ; > > @ + $ - 7 n ! ` W W ) / ! Q N k L E E ! W C n ",
"C y , , 8 Q ( k 9 t k m y 8 6 - - f ` | ) T b q 1 , ; ; , , , , ; , ; 1 1 6 6 7 3 - + + $ = 1 m V E ) / } *.} L f L L ! ! Y n C ",
"! y 6 1 8 T L r 7 8 y f b 8 8 1 b e.L.c.4.^ Z m y 6 6 6 y g g y q q 6 6 0 q 0 1 7 , ; @ + = - 8 V Y ` | u.=.=.J z N L ( ( E Y C ",
"/ m 6 8 8 P d r 9 y y m m b b T ' q.r.c.d.q.~ C C m g g n C n C n g 8 0 q q 8 6 1 8 ; = = - - 1 n ` / [ u.q.U ( z J J I ( _ B C ",
"2.) t 8 8 P r 7 7 9 8 t m C ~ ~ ) ~ ~ ' | ) Z C C h g g h g g y q 6 1 1 1 , ; - - - - = > , 8 6 g { | { e.,._ L x J L I U L V B ",
"2.2.T 8 y L 8 ; = @ @ , 6 y y g g n n m g y 0 6 , , ; ; ; ; ; ; @ @ @ = @ @ + + + = @ ; t m V f y ,.O.,.} %._ P z J I U L N m D ",
"} g.2.y y L s 3 , = - 1 6 1 , , 1 6 1 1 1 1 , , , , , 1 1 1 , , , , , 1 6 6 0 0 6 1 6 m O.,.4.m m | | | o.{ L x x x I U L N N N ",
"U M.d.T t L k b k b g m C C m R F G S S G G M F G H S G S M g M M M y g g g q y y h B a.h.r.X.n E ,.' [ | ! b N z N J J L L b N ",
"I u.p.2.b D / V R Z m h X.,.X.*.2.*.d.2.M.:.@.@.G G M M D M M M g g a a g q 0 q m ' k.G.h.| ) b ` 2.,.{ Q N f f x z x d L L N N ",
"P } a.c./ f Q ` V T Y C ~ ,./ { Q H +.+.! _ G z p p r 8 8 p t 9 0 a y t q a 8 g Q c.H.B.*.*.V b ` 2.%./ N k p f s x z x N L Q T ",
"I -.#.i.*.m f ` ! Y ~ Z b f y y f s r r r r r 7 7 3 3 < 7 7 7 7 7 9 0 y y y f L e.B.C.2.u.*.m b { ' ! V b f s s f f d N P L } _ ",
"&.;.} u.p.} f D ] ` E Z b t 6 6 1 9 7 y t s 9 7 9 7 < < 3 3 < 7 9 r 8 t y b b #.k.n.2.u.p.,.y B { ' m b k f 9 s s f d J P } E L ",
"&.-.-.-.p.u.L s | o.Q Z n y t t t y f b m f y r r 7 3 < 3 7 7 9 f f f k N V ` l.Z.B.d.q.B./ f T ) Q V N f r r d f k x I U &.L N ",
"I -.=.-.&.&.J L / 4.) Q m y y y y V R E V L f p 9 9 9 9 e p k L T / E Q Q { q.G.c.M.p.B.p.V b ! ! ! D k 9 r f I z J L ( ( ( ( } ",
"K -.;.-.-.J u J U 4.,.[ Z g y f B a.h.2.q.| { / P L L L _ } q.p.k.d.d.2. .,.d.p.M.p.i.p.p.V E Y ! ! b r e s z z U J N L P P } =.",
"v &.&.&.U z 4 7 d -.e.q.^ A g n O.H.p.e.2.,.{ q.k.p.u.M.M.B.M.C.b.b.*.#. .e.1.i.p.i.2.w.f._ ! ` ) ` f s r 7 3 8 L L f x L U _ u.",
"l I U U U c 4 * > z p.b.r.^ X.O.f.L.B.n.N.a.f.l.L.B.n.B.[.F.M.M.J.p.}  .%.2.1.2.i.2.2.u.p.#. .{ { L f f z e 7 9 x ( P N L P } =.",
"w J I &.I l > & & > J B.V.j.e.l.h.C.L.W.W.'.W.`.L. XW.[.+X-X+X[.i.i.*.1.#.*.%.2.#.*.2.i.i.i.*.*._ L d z d e w e r k N P L U &.U ",
"w z K U J u & % % & 4 L F.U.j.e.d.i.L.U.{.{.'.{.'.{._.XX X{.{.p.} q.2.2.*.$.{ ) #.*.q.d.B.J.p.#.} L i J d i u i 3 7 s x I I l e ",
"5 5 c v d e % # % * & 5 &.=XD.k.f.g.d.C.Q.R.L.W.B.J.p.Z.R.n.i.M.p.q.*.` { [ W ` 2.q.u.n.L.Q.M.*.&.J 7 d v l u u > : 3 9 r 5 4 4 ",
"% & 2 4 j 5 % O # # & > d oX;XW.j.2.l.W.^.E.H.H.C.n.d.q.d.2.7.O.O.%.` /  .] *.2.a.` 2.G.^.(.I.-.I x e 3 u 5 4 7 : # = > > < < 4 ",
"O O # * 4 4 & O # # & : 9 F.<XD.-.F.oX=X%X$X{.{./.(.C.J.v.g.q.y.' ) W R ! #.[ e.q.*.i.K.T. XU.&.J i c 5 4 * * 4 % O : 3 3 9 5 d ",
"O O O % * 2 * O O O % = f '.<X2X4X8X4X<X5X8X8X6X<X:X,X%X+X{.}.Q.U.p._ E E ! / $.*.g.C.L. X.Xp.L J e e 5 4 : & & # # < 7 r d f z ",
". . . # % * & # . O $ < #.{.-X8XqXwX9X8X8XqX9XwXwXwX4X8X9X6X$X$X%X:X[.M.&.P D { k.L.Z.{.$XF.U J x w * * & & O O O # & < 9 r r d ",
". . . O # & % # . X # d i.+X1X1X8X9X9X1X3X3X3X3X7X7X3X3X3X3X&X&X*X&X&X&X&X>.U ;.A.S.S.@X@X>.v c j w * & & # O O # # % * 5 3 w u "
};
