/* XPM */
static char *out[] = {
/* columns rows colors chars-per-pixel */
"64 64 220 2 ",
"   c #2B1608",
".  c #4A2415",
"X  c #5C2C1A",
"o  c #68321E",
"O  c #583F2A",
"+  c #763A24",
"@  c #7E3D26",
"#  c #63432F",
"$  c #6E402D",
"%  c #6A4D37",
"&  c #77523D",
"*  c #7F5D46",
"=  c #814A35",
"-  c #8E4B34",
";  c #96523A",
":  c #865540",
">  c #8C5D46",
",  c #9D5943",
"<  c #955F49",
"1  c #A45E45",
"2  c #89664F",
"3  c #9B644E",
"4  c #916A53",
"5  c #9A6F56",
"6  c #AB644A",
"7  c #A16851",
"8  c #AD6D51",
"9  c #A86D58",
"0  c #B36A51",
"q  c #B76F53",
"w  c #A1765D",
"e  c #A7755C",
"r  c #AE755B",
"t  c #B4715D",
"y  c #B97658",
"u  c #A87B63",
"i  c #AE7D64",
"p  c #B77764",
"a  c #BD7564",
"s  c #B27861",
"d  c #B47F64",
"f  c #BB7E63",
"g  c #C1785B",
"h  c #C87E61",
"j  c #C07B6B",
"k  c #AC836B",
"l  c #BE8466",
"z  c #B3876E",
"x  c #BA876A",
"c  c #BF8B6C",
"v  c #B78C72",
"b  c #BC8E72",
"n  c #C38264",
"m  c #CC8566",
"M  c #C78568",
"N  c #C4816F",
"B  c #C48A6C",
"V  c #CC8C6D",
"C  c #CC8C6E",
"Z  c #D18969",
"A  c #D48C6E",
"S  c #D88F6F",
"D  c #C88973",
"F  c #CC8A78",
"G  c #D08B78",
"H  c #D38E7E",
"J  c #C39072",
"K  c #C69677",
"L  c #C89172",
"P  c #CC9475",
"I  c #CA997A",
"U  c #CF9C7E",
"Y  c #D19071",
"T  c #D09072",
"R  c #D29172",
"E  c #D09273",
"W  c #D39273",
"Q  c #D49374",
"!  c #D59475",
"~  c #DA9472",
"^  c #D79778",
"/  c #D1967C",
"(  c #D89778",
")  c #D59A7B",
"_  c #D99878",
"`  c #D9997A",
"'  c #DB9A7A",
"]  c #DA9A7B",
"[  c #DC9B7B",
"{  c #DB9C7D",
"}  c #DA9D7E",
"|  c #DE9D7D",
" . c #DC9D7E",
".. c #DD9D7E",
"X. c #E09E7D",
"o. c #E2A07F",
"O. c #D89380",
"+. c #D89982",
"@. c #DD9E80",
"#. c #DE9F80",
"$. c #DF9F80",
"%. c #D99E87",
"&. c #D4A082",
"*. c #DFA081",
"=. c #DCA386",
"-. c #D8A485",
";. c #DCA88A",
":. c #DFAB8E",
">. c #DFAF94",
",. c #E0A081",
"<. c #E2A181",
"1. c #E3A181",
"2. c #E0A182",
"3. c #E1A283",
"4. c #E3A282",
"5. c #E4A281",
"6. c #E4A382",
"7. c #E5A382",
"8. c #E4A383",
"9. c #E5A383",
"0. c #E6A483",
"q. c #E5A484",
"w. c #E6A584",
"e. c #E6A585",
"r. c #E7A686",
"t. c #E8A786",
"y. c #E8A787",
"u. c #E9A887",
"i. c #E0A58A",
"p. c #E3AC8D",
"a. c #E7AD8F",
"s. c #E8A888",
"d. c #E9A888",
"f. c #E9A989",
"g. c #EAA989",
"h. c #EAAA8A",
"j. c #EBAA8A",
"k. c #EBAB8B",
"l. c #EBAC8C",
"z. c #EBAE8F",
"x. c #ECAC8C",
"c. c #ECAD8D",
"v. c #EDAD8D",
"b. c #EDAE8E",
"n. c #EDAE8F",
"m. c #EEAF8F",
"M. c #EDAF90",
"N. c #E4B195",
"B. c #E9B193",
"V. c #EDB091",
"C. c #EFB090",
"Z. c #EEB091",
"A. c #EDB192",
"S. c #EEB192",
"D. c #EFB192",
"F. c #EFB293",
"G. c #ECB496",
"H. c #E6B599",
"J. c #EAB79A",
"K. c #EEB899",
"L. c #EEBC9E",
"P. c #F0B293",
"I. c #F0B394",
"U. c #F0B495",
"Y. c #F1B495",
"T. c #F0B496",
"R. c #F1B596",
"E. c #F1B597",
"W. c #F2B697",
"Q. c #F2B698",
"!. c #F2B798",
"~. c #F2B799",
"^. c #F3B799",
"/. c #F3B899",
"(. c #F2B89A",
"). c #F3B89A",
"_. c #F3B99B",
"`. c #F4B99B",
"'. c #F4BA9B",
"]. c #F4BA9C",
"[. c #F4BB9C",
"{. c #F4BB9D",
"}. c #F5BB9D",
"|. c #F5BC9E",
" X c #F5BD9E",
".X c #F5BD9F",
"XX c #F5BE9F",
"oX c #F1BFA1",
"OX c #F5BEA0",
"+X c #F6BFA0",
"@X c #ECC4A7",
"#X c #F6C0A2",
"$X c #F6C1A2",
"%X c #F6C2A3",
"&X c #F7C2A3",
"*X c #F6C3A4",
"=X c #F2C4A5",
"-X c #F7C4A5",
";X c #F7C5A6",
":X c #F7C6A7",
">X c #F7C8A9",
",X c #F0CBAD",
"<X c #F4CDAE",
"1X c #F8C8A9",
"2X c #F8C9AA",
"3X c #F8CBAC",
"4X c #F8CCAD",
"5X c #F8CDAE",
"6X c #F9CEAF",
"7X c #F3D1B3",
"8X c #F7D1B2",
"9X c #F0D4B6",
"0X c #F6D4B6",
"qX c #FAD3B4",
"wX c #FAD7B8",
"eX c #F1D8B9",
"rX c #F7D8BA",
"tX c #F5DBBB",
"yX c #F6DDC0",
"uX c #F9E1C3",
/* pixels */
";.p.U *.) &.&.;.B.G.N.G.N.G.B.H.H.N.>.N.>.H.>.H.p.a.a.>.:.>.p.p.;.;.=.=.-.;.-.=.) ` ) ` ) ` ! ) E ) / ) E / L E D C C W T Q T C ",
";.&.U U U U &.=.:.a.N.N.J.N.H.B.H.>.>.N.N.B.A.z.A.B.a.p.>.a.:.i.i.:.;.i.i.i.q.=.} ] ` ] ] ] ` ) ) P E / E P E T T T Y T ! R W T ",
"&.;.I =.;.p.;.B.>.T.>.G.B.T.N.N.B.A.p.z.z.T.a.B.B.G.i.B.a.G.h.z.l.a.*.r.l.z.i.q.2.2.( [ 3.q.} @.} &.P I I E B L C C m T ! _ T W ",
"U U &.a.T.T.~.~.XX}.T.~.[.~.G.G.).Q.G.A.).Q.I.Z.Q.B.B.z.T.T.V.V.z.l.f.s.Z.l.f.r.r.$...| <.3.2.2.i.&.U I / P B M T V m m W T T T ",
";.a.a.).Q._.G.}.~.|._.OX_.}.T.}.T.}.~.).T.T.A.~.T.T.I.T.V.I.Z.S.a.A.k.z.f.k.6.<.#.o.X.,.[ 2.@.i.=.=.U &.P P B C M C m V m m Z A ",
"T.Q.~.~._.}.).~.}.}.[.[.}.~.(.~.[.}.).~.~.T.~.T.~.R.Q.n.A.Z.n.z.l.s.j.k.h.<.o.| $.$.X.] ....@.#.*.%.} / E C V M V V V m Z m m Z ",
"~.}.T.[.}.|.G.~._.[.T.(.~.}.G._.).}.G._.Q.).n.~._.].f.c.M.M.q.d.j.j.w.f.l.<._ X.o.4.] #.| $.` | } ` E P T T n M M V M m m Z h m ",
"[.~.).(. X'.E.G.~._.E.T.).T.E.I._.).~.~.~._.A.T._.Q.G.z.Z.l.l.f.j.h.s.r.l.<.[ [ ,...' ( $.*.*.` ` E E C C M n n M n n n m m M h ",
"Y.R.~.`.~.|.'..XT.`.Q.~.Z.I.Z.I.S.E.E.).G.}.~.}.E.~.R.E.z.z.h.V.s.n.h.M.f.t.@.q.[ #.] |  .*.#.] Q T M C M V M M l n n M h M h g ",
"a.E.~.).{.}.Y.T.T.T.T.T.D.I.Z.n._.~.~.E.#X#X$XOX|.~.R.l.M.z.z.j.l.s.h.h.m.z.5.@.,. . .$.#.} ` ) Q W C V V M h h h g g g g g g g ",
"P q.z.~.'.~.A.A.I.Y.A.G.n.I.s.z.~.XX_.OX$X:XOX;XQ.G.3.#.@.#.) } ` ` E @.q.q.@.,.$.*.` @.3.3.! ^ ! T M V M M y f y a y g g n g g ",
"y C } l.I.n.j.h.Y.C.z.r.l.s.r.r.T._.~.[.#XK.H.;.&.L r 3 7 4 < 7 9 9 r n L E E E |  ...$.#.[ ! Q Q C M M M l f y f y y y n g g g ",
"9 f M q.j.b.n.c.r.n.h.z.o.q.3.j.c.Q.I.Y.3.L w < = + o X X X X o + = > 7 8 y p l f C ! { ^ #.^ ! C V n D n l f f t y y f y g g g ",
"p f M ^ d.h.j.v.l.l.h.r.@.[ [ #.q.r.l.^ f 3 : + $ X X . . X o + = = : : < 7 3 1 7 8 f B E E Q T T M n f f f f y g y g y g g y g ",
"f n M ^ q.j.r.d.f.M.r.j.! A m T ! ! C g 1 - + $ $ + $ @ : 3 r c c d 9 9 9 9 ; < < 3 1 7 8 y y f M M y f y f q y y y 0 q q y 0 q ",
"f 8 y T $.d.r.q.j.y.r.r.W M M M M M f 6 , - = = - < 6 f C } q.3.l.i.) ) Q D l r 7 1 3 3 7 7 7 7 8 r 9 6 9 8 0 8 0 0 8 6 0 0 6 6 ",
"f t 8 n W 6.d.h.q.q.r.6.E n f l f f 8 6 , < ; , 7 8 n Q ` <.$.r.8.q.p.p.@.8.@.^ l y 9 8 7 7 3 7 3 3 3 7 , 7 1 6 1 1 1 1 1 6 6 6 ",
"> , 8 t M _ j.c.y.4.q.e.^ C n f f 8 1 , , , 1 1 3 6 f C E E C M M n n M ! ] #.^ ! T M l p 9 7 7 3 3 3 3 3 1 7 1 1 1 1 1 6 8 6 0 ",
". o @ , f Q 6.I.b.n.6.8.$.! M n y 8 , ; ; ; = = 7 B ! r.A.A. .{ E M t 6 6 t l T Q Q C V M f 8 9 9 9 6 8 t 8 1 8 8 8 1 6 t t 6 0 ",
". O o o - n o._.#X~.z.j.j.! n t 8 7 ; - = + $ 7 n c B P &.&.) E E C l y 6 - - 8 V T C M M M l n f f f f n y 8 0 t 8 8 0 f g g g ",
"& 5 > = + 8 6.*X3X>X$X_.j.! t 6 6 3 - - + X = 3 < = $ & % % & 4 7 9 9 9 5 4 : = 9 T ^ ! A Z M m M M M M l f y p t y y f y n f n ",
"D M M l B ^ n.*X0X6X:X_.l.V 0 6 q , , , - @ = @ = @ . .       . . . . . O o $ + = 9 M f f f n M C V V M M n g y y y f y f f n n ",
"! ( W ( _ t.Y.>XrX0X;X~.,.n 6 q g q g ! Q ! C E T H f 5 & % o o O X X X o X X $ ; 1 ; 8 y m T [ ,.5.( ' ' ( M f y f f l n M f n ",
"W m g g m Z.#X8X0X6X#XZ.| h q q A _ ( X.j.w.' ! #.$.#.^ T M n n n p 8 r 8 8 q g n 8 6 y Q ' | | 1.o.X.$.$.Q g 8 6 1 1 1 8 8 8 t ",
"8 6 8 W T.;X5X5X>X;X_.f.! M g m A o.t.j.j.d.e.E n A Z S m m M g g m Z ( ~ ! m q , 1 g | 5.t.,.| Q _ ! ! C M y 8 3 1 7 r s f n M ",
"M ^ A.;X3X3X2X:X1X_.l.[ ! S ~ ~ ~ | c.c.C.C.D.b.| n 6 1 6 8 0 q q q 0 0 1 , , 1 n ' q.q.t.t.r.0.4.| ' ' ' ' W l t r 9 r f f f f ",
"*X3X#X#X>X5X>X1X#XY.' ! ! | | q.t.d.t.j.C.P.I._.G.W.d.3.` C f 8 7 1 , 6 f T ( j.M.M.t.g.g.f.<.o.r.t.| 5.6.w.( M y 9 3 9 9 y t y ",
"5X>X;X>X8X6X5X;XXXf.! Z S ' o.j.M.n.g.j.C.b.Q.~.}.}.T.Q.OX|.XX_.}.I.Z.Y.}.).Y.A.W.D.n.h.C.<.@.X.w.8.7.7.t.u.[ M f 8 6 9 t y y y ",
"5X5X3X3X8X0X>X#XZ.t.~ S A Q S ' [ q.X.b.l.b.I.T.R.}.^.].XX|.+X%XXXOX|.OX_.[.Q.~.D.S.M.C.g.x.$.X.[ 4.t.r.w.w.' B t t t y y f f n ",
"8X8X6X6XrXrX;XQ.D.t.| S Z m m h g g g g Z X.Y.Y.}.}.`.^.*X*X*X:X;X#X#XOXOX].D.C.Z.C.I.C.C.k.d.7.$.q.t.7.w.#.! n p y t y f l M D ",
"8X8X*X8XrX0XXXQ.Z.T.<.o.S m g m S S g 6 1 q Z t.~.#XY.E.;X3X*X:X>X5X$X%X;X%Xn.n.C.P.y.h.n.x.9.$.| $.$.1.8.$.C M l f t n m V n Z ",
"*X_.oX3X0X8X#XI.Y.Y.b.q.~ m m S d.t.| Z q ; , y ! r.P.R.|.>X:X;X2X;X;X:X#X$XI.n.Q.D.h.c.C.x.r.$.X.[ [ ' o.! C D n n f n T T V V ",
"^ ( G.6X5X6X*X}.~._.n.| Z Z ~ d.t.j.X.~ y ; - , 1 g ^ l.Y.~..X-XXX%X|.$X).#X`.).c.C.x.D.x.j.h.q.[ [ ! [ Q E P P B l f m Z Q T E ",
"6 M #X8XrX8X6X;X%XA.! h g M S ~ ~ m g q 6 6 8 q 0 1 t C <.h.T.~._.T._.Q.}.~.).I.Y.C.v.x.C.g.k.,.| ^ ` ! E P C E C n n m A W ! W ",
", a.:XrXuXuX8X:XT.) 8 6 1 , - - = - - , 1 y g g g g q q n ' ,.r.Z.I.l.n.P.I.l.C.C.D.d.v.d.C.w.0.3.) L E / P C E E M y M Z A m Z ",
"D #X8XuXuXuX0XoX) 8 - + + + + @ @ @ - ; , 1 8 q g g g q q t M ! 6.q.w.d.l.g.j.g.l.x.q.q.w.3.$.` ` E P P E P L E ) C n V Q Q T Z ",
"p.5X0XrX0X5XoX@.8 ; @ + + @ + + $ @ @ = - ; ; , 6 q 0 0 1 3 , y M _ _ $...o.3.q.0.y.$.5.{ @.^ ) E P P E P L T ) P ! E ` A ! V A ",
"T.3X:X*XoXB.) t ; = + + + + + + + @ = = - - = @ ; ; ; ; - : : - 6 M Q _ _ ' ( ' $.| ' ^ [ ! ( P P L L E E P P E ) @.#.} ] W Z V ",
"T.K.a.f.c.f.M 1 - - = - = = @ @ = - - - ; - + @ - - - ; : = + @ @ < l ` $.$.W ! _ ' ! ! ^ ( T L D L D ! ^ ) L C / i.} @.Q W M Z ",
") C ) ` ) C y < , y n t 1 ; - - - - ; < 3 ; : - - - ; - - @ + + + + : r ! @.[ Q ! ! Y E _ W C M D B C Q ` E P V ) } ! ! Q V m m ",
"p t n M t 8 ; - 1 n C B t 8 , , - - - ; ; , - - ; ; ; < < < > > + + + = 7 C ! _ A Q Y Q Y ^ ! C M B M ! ! ! C C C E P E n m V m ",
"9 7 t f 8 6 1 8 } q.| W m g 8 1 , ; , 1 7 1 1 < , 1 1 6 8 9 9 7 > = + + = 1 n W T Q E ! [ [ ] P B l B T ) E B l l c L D C m V Z ",
"9 9 t n f f g E f.M.r.$.! A g q 0 0 6 y g g q q q 0 6 q y q 6 8 1 > @ @ : - 1 M Q _ ! [ $.3.` ) J D l E / P l l B J B D C T m Z ",
"7 9 y f M T ( ! _ $.q.X.' Z M M M M h M m m m h y q q q g q 0 0 8 7 ; : - ; ; q ! ] [ ,.5.3.$.) P D B P E P f c K K L l M C V V ",
"< < 3 7 0 h g h M m m m g g q 0 1 6 6 0 6 q 6 1 , 6 1 6 , , , 1 1 < ; ; ; 1 6 0 M | $.3.X.1.$.} L L L E L J f J J I B l l B M D ",
"3 : @ @ ; ; ; ; 1 1 1 , , ; = = - = = = - - @ @ @ = = = = = = = - = - 6 f n M t M | o.| 1.| | ! P L D P L c f c L K c l B B M B ",
"f 9 7 8 q 0 6 6 6 1 ; ; 1 , , 1 6 q 6 6 6 1 , , , 1 1 6 q q 6 6 0 8 q ( <.q._ n C <.| | ,.o._ T P E D L c l d c c L c B L C l B ",
"E D n m S ( O.+.+.H H G O.H G D G F N j N j M j M h g g h g g g M A 5.f.r.d.| M ! $.$.{ <.$.^ P P L L B c f f f c x B L L L B B ",
"M E C V A [ ! { O.+.O.+.H +.H D j D f y j N j j j j g g y q y M A j.D.D.q.q.[ C T <.o.<.o.[ E L B J l c f d l c x d c B L ^ E T ",
"P P ! A T C M D F F D n L D f 9 9 7 7 7 8 9 9 9 y t t t y y g T 6.Z.A.l.r.q.[ m ~ | | $.] T C B B c l d s d l d d c J B U ) } / ",
"&./ Q ! C l 6 6 8 9 7 7 9 9 7 9 7 < > < 3 7 3 7 9 r 9 q p l M @.n.A.s.n.V.D.V n ~ $.( { ! P M B D c f r d l d s f J J U &.} L L ",
"&.&.) E Q n t 7 7 7 7 9 y r 9 9 9 3 < < < < 7 9 9 8 t y M C ! r.G.S.n.z.T.r.M M [ | ] Q T M B V C B s 9 d c f f c J K I &./ L B ",
"K U P ! T M y 8 7 7 9 p f n f f 9 9 < 3 < 7 9 s f M B C T ^ ,.I.Z.Y.I.T.f.q.C Q [ | ' E M D C C B B r 9 s K K c c L K I P ) } ) ",
"K &.I E ! T n t 8 8 8 l ) ` ! C M l f r d l D ! #.<.q.3.f.f.c.M.A.A.G.r.r.#.E E @.] Q C V V E C C l 9 9 d i c I c c B L P ) =.} ",
"b &.I K I ) C n f f y T t.j.@.! P ` ` } =.p.p.B.G.A.s.z.p.h.q.a.a.z.;.s.3.#.E ! @.[ T E Q _ P P P B r s 9 7 9 K P J c L I %.=.p.",
"z I U J L P ) P E ( A [ n.A.r.r.r.f.p.p.a.T.T.T.K.G.G.a.p.q.3.3.a.p.i.@.@.} ` ` $.) ` ! } ] E E L d f x f u r f P K L B / &.i.=.",
"w J I I d d c P ` j.q.c.j.M.I.S.z.c.G.).C.XXXX;XoXXXoXa.#.r.f.i.#.i.} ` ) } }  .` @.#.3.} U ) E c d d x i e 9 r r B P P P =.&.U ",
"w x K K d 5 4 d B =.d.j.c.j.Z.n.n.M.Q.~.#XOX%XOX;XOXoXK.z.r.f.p.q.^ T Q ( ^ { @.@.*.e.s.r.#.=.I L u d b k i i 9 < r l B U J i w ",
"5 5 b x d 4 % > w J I K. X!.r.s.n.M.l.~._. XR.U.E.~.r.r.a.F.r.d.} } T ! (  .` #.3.p.3.z.F.T.%.U J i 5 x b z e w = > 7 s 7 4 4 5 ",
"% & 2 5 u 4 % % & > e K %X#XF.l.f.l.Y.F.Q.).V.a.n.a.8.q.e.r.q.' ] [ ! ^ ..] #.3.@.q.a.P.(.).;.K J d 5 5 u 5 3 7 & % > : > < < 4 ",
"O O # * 4 4 % O % & > 9 ;.4X:Xr.i._.#X%XOX}.`.'.F.R.V.n.s.r.X.,.! ! R ! ! @.*.s.*.q.z.E./.#X:.U c i k 4 4 > * 4 % # > 3 3 9 7 d ",
"O O O % * 2 * O O O & > E -X6X@X8X6X6X6XqXrX0X6X4X3X5X:XOX_._._.F.i.Q E ! ! ` @.3.h.F.E.#X$X;.K J e w 4 4 * & & # # < 7 r d f x ",
". . . # % * & # . O $ < @.OX>XrXyXuXtXrXrXyXtXuXuXuX0XrXtXwX;X;X:X3XoXB.&.P D { z.E.G.OX;XL.U J c w * * & & O O O # & < 9 r r d ",
". . . O # & % # . X # d p.&X7X7XrXtXtX7X9X9X9X9XeXeX9X9X9X9X,X,X<X,X,X,X,X>.U ;.H.J.J.=X=X>.b v k w * & & # O O # # % * 5 5 w u "
};
