/* XPM */
static char *out[] = {
/* columns rows colors chars-per-pixel */
"64 64 222 2 ",
"   c #2B1608",
".  c #4A2415",
"X  c #5C2C1A",
"o  c #68321E",
"O  c #583F2A",
"+  c #763A24",
"@  c #7E3D26",
"#  c #63432F",
"$  c #6E402D",
"%  c #6A4D37",
"&  c #77523D",
"*  c #7F5D46",
"=  c #814A35",
"-  c #8E4B34",
";  c #96523A",
":  c #865540",
">  c #8C5D46",
",  c #9D5943",
"<  c #955F49",
"1  c #A45E45",
"2  c #89664F",
"3  c #9B644E",
"4  c #916A53",
"5  c #9A6F56",
"6  c #AB644A",
"7  c #A16851",
"8  c #AD6D51",
"9  c #A86D58",
"0  c #B36A51",
"q  c #B76F53",
"w  c #A1765D",
"e  c #A7755C",
"r  c #AE755B",
"t  c #B4715D",
"y  c #B97658",
"u  c #A87B63",
"i  c #AE7D64",
"p  c #B77764",
"a  c #BD7564",
"s  c #B27861",
"d  c #B47F64",
"f  c #BB7E63",
"g  c #C1785B",
"h  c #C87E61",
"j  c #C07B6B",
"k  c #AC836B",
"l  c #BE8466",
"z  c #B3876E",
"x  c #BA876A",
"c  c #BF8B6C",
"v  c #B78C72",
"b  c #BC8E72",
"n  c #C38264",
"m  c #CC8566",
"M  c #C78568",
"N  c #C4816F",
"B  c #C48A6C",
"V  c #CC8C6D",
"C  c #CC8C6E",
"Z  c #D18969",
"A  c #D48C6E",
"S  c #D88F6F",
"D  c #C88973",
"F  c #CC8A78",
"G  c #D38E7E",
"H  c #C39072",
"J  c #C69677",
"K  c #C89172",
"L  c #CC9475",
"P  c #CA997A",
"I  c #CF9C7E",
"U  c #D19071",
"Y  c #D09072",
"T  c #D29172",
"R  c #D09273",
"E  c #D39273",
"W  c #D49374",
"Q  c #D59475",
"!  c #DA9472",
"~  c #DD9876",
"^  c #D79778",
"/  c #D1967C",
"(  c #D89778",
")  c #D59A7B",
"_  c #D99878",
"`  c #D9997A",
"'  c #DB9A7A",
"]  c #DA9A7B",
"[  c #DC9B7B",
"{  c #DB9C7D",
"}  c #DA9D7E",
"|  c #DE9D7D",
" . c #DC9D7E",
".. c #DD9D7E",
"X. c #E09E7D",
"o. c #E29F7D",
"O. c #E2A07F",
"+. c #DD9E80",
"@. c #DE9F80",
"#. c #DF9F80",
"$. c #DD9986",
"%. c #CFA186",
"&. c #D4A082",
"*. c #DFA081",
"=. c #DCA386",
"-. c #D8A485",
";. c #DCA88A",
":. c #DFAF94",
">. c #E0A081",
",. c #E2A181",
"<. c #E3A181",
"1. c #E0A182",
"2. c #E1A283",
"3. c #E4A281",
"4. c #E4A382",
"5. c #E5A382",
"6. c #E4A383",
"7. c #E5A483",
"8. c #E6A483",
"9. c #E5A484",
"0. c #E6A584",
"q. c #E6A585",
"w. c #E7A685",
"e. c #E7A686",
"r. c #E8A786",
"t. c #E9A887",
"y. c #E0A58A",
"u. c #E3AC8D",
"i. c #E7AD8F",
"p. c #E8A888",
"a. c #E9A888",
"s. c #E9A989",
"d. c #EAA989",
"f. c #EAAA8A",
"g. c #EBAB8B",
"h. c #EBAC8C",
"j. c #EBAE8F",
"k. c #ECAC8C",
"l. c #ECAD8D",
"z. c #EDAD8D",
"x. c #EDAE8E",
"c. c #EDAE8F",
"v. c #EEAF8F",
"b. c #EDAF90",
"n. c #EEAF90",
"m. c #E4B195",
"M. c #E9B193",
"N. c #EDB091",
"B. c #EEB090",
"V. c #EFB090",
"C. c #EEB091",
"Z. c #EDB192",
"A. c #EFB192",
"S. c #EFB293",
"D. c #ECB496",
"F. c #E6B599",
"G. c #EAB79A",
"H. c #EEB899",
"J. c #EEBC9E",
"K. c #F0B293",
"L. c #F0B394",
"P. c #F1B495",
"I. c #F0B496",
"U. c #F1B596",
"Y. c #F1B597",
"T. c #F2B698",
"R. c #F2B798",
"E. c #F3B799",
"W. c #F3B899",
"Q. c #F2B89A",
"!. c #F3B89A",
"~. c #F4B99B",
"^. c #F4BA9B",
"/. c #F4BA9C",
"(. c #F4BB9C",
"). c #F4BB9D",
"_. c #F5BB9D",
"`. c #F5BC9D",
"'. c #F5BD9E",
"]. c #F5BE9F",
"[. c #F1BFA1",
"{. c #F5BEA0",
"}. c #F6BEA0",
"|. c #F6BFA0",
" X c #F6BFA1",
".X c #F6C0A1",
"XX c #F6C0A2",
"oX c #F6C1A2",
"OX c #F6C1A3",
"+X c #F6C2A3",
"@X c #F7C2A3",
"#X c #F6C3A4",
"$X c #F7C3A5",
"%X c #F2C4A5",
"&X c #F7C4A5",
"*X c #F7C4A6",
"=X c #F7C5A6",
"-X c #F7C6A7",
";X c #F7C7A8",
":X c #F0CBAD",
">X c #F4CDAE",
",X c #F8C8A9",
"<X c #F8C9AA",
"1X c #F8CAAB",
"2X c #F8CBAC",
"3X c #F8CCAD",
"4X c #F8CDAE",
"5X c #F9CEAF",
"6X c #EECEB0",
"7X c #F3D1B3",
"8X c #F7D1B2",
"9X c #F0D4B6",
"0X c #F6D4B6",
"qX c #FAD3B4",
"wX c #FAD7B8",
"eX c #F1D8B9",
"rX c #F7D8BA",
"tX c #F5DBBB",
"yX c #FADDBE",
"uX c #F6DDC0",
"iX c #F9E1C3",
"pX c #FBE5C7",
/* pixels */
":.Z.8.w.] B d d s K } S./.+XoX#X+X=X+X;X{.=X+X;X#X[.#X,X#X;X=X|.). X'.Q.Y.~.U.W.A.C.j.n.l.x.f.f.e.f.4.a.0.e.' .._ ` ( _ _ ^ W W ",
";.e.k.e.e.Y M n C ` 2.e.i.s.^.Q.#X#XOX+X=X*X#X{.{.'.'.#X;X=X#X{.}._.`./.E.E.W.T.P.S.B.B.n.t.d.e.w.9.9.2.w.9.| ( ] ^ _ _ ..[ S E ",
"H ~ ! 9.9.R s r w 7 7 7 w s l i./.{.).+X=X<X#X=X X/.S./.,X1X+X{.W. XU.~.!.~.S.T.T.Q.h.B.B.l.a.0.r.0...,.x.d._ ` ` [ E [ | ~ U A ",
"c Z Z E l 3 = + + $ o X O # $ 3 K =.j.Y.&X+X X X XU.S.Q.,X*X XY.Y.S.I./.~.`.P.Q. X/.P.P.Q.K.q.9.f.0.9.9.g.e... .+.` { ` | ( Z A ",
"c m m g 1 3 7 x H J e * # $ $ & : 9 l } f.^.~. X'.S.B.Q. X+X).R.j.P.Z. X'.@X'.#X{.}.Y.Y.Z.B.r.q.3.f.a.f.0.t.+.1. .+.+.2._ Q Z Z ",
"J A h g M } I./.+X+X{.M.I x s w 7 6 y M ) i.~.Y./.l.x.Y.{./.Z.x.j.f.Z.Y.&XoX+X X X'.Q.Z.y.) R K L / R R ) ` #.+.#.+.*.+.[ A Z m ",
"I 5.| e.B./.S.Q._. XH.~.Q.I.y.=./ V n M R *.f.U.Y.K.p.Y.Y.Q.j.p.f.d.f.Y.{. X~.Q.M.=.c x e < > : : 7 3 7 s n n Y ) >.{ [ +.! m m ",
"} f.z.x.S.n.j.B.P.Z.i.p.j.i.i.y.p.2.) R _  .e.B.D.n.l.B.P.B.h...9.*.9.d.Y.P.2.K r > + $ o X . . X X $ + : 7 8 p l M / `  .Q m h ",
"I s.9.B.r.h.h._ C =.i.S.I.S.j.i.^ U U ) ] 5.t.K.B.Z.l.S.B.K.f.[ A E Q .. .} l 9 - $ X X . X . X X # $ + + : - 3 3 6 y R Q Q m g ",
"I f.e.h.9.d._ y y.[.#X+X+X{.~.P.q.M f n ( ,.d.C.n.n.x.l.K.B.h.C h m V V C l 8 ; = + + + + = : < 7 d s 7 3 < < > : : < 8 n Z n g ",
"=.U.e.B.q._ y ) [.#XJ.Q.Z.M.=.*.+.E y q M [ X.n.x.V.a.l.x.K.9.C n n f N l t , ; = = = > 1 p n ) 2.y...) M n s 7 > > : < 1 8 t g ",
"y.Z.T.S.p.V N u.J.y.d 3 > $ $ & 3 9 q q y m ! 3.P.U.x.B.K.x.,.U M f f y t 6 , ; ; ; , 9 l C Q ^ 2.*.*.*.+.} R K f 7 < < < > < 0 ",
"} 9.B.~.9.M U =.e $ . . O O       X = , 9 n U O.x. XQ.W.B.K.9.) M n y 0 1 , ; ; - - - 9 f V M C n f f l l C E ] R B s 7 > : : 1 ",
"=.| e.B.e.C y : .   . . # .     . . o + = 1 V [ B.+X1X'.}.Y.f.^ M y 8 1 < - - @ + = 8 B ..q.9.+.) C N t 1 , 9 l C C M p 7 < : ; ",
"2.e.C M t , @ - + < > 4 : % X O O % = + + @ 0 5.K.1XqX5X1X+Xj...f 8 , , - = + X $ 9 7 7 4 3 3 7 r f s p r 7 @ = t C l n p 9 > , ",
"p.o.Q Z g 0 M p.2.+.y.=./ K f d f f 9 3 1 r M B.'.1XwXwX5X{.i.A q , 1 - = @ X X @ @ + . . .       . # $ & : = $ = f B M n g t f ",
"=.k.K.P.B.B.[ 5.l.f.a.j.2.,.Q W V C A Q _ 3.t.).{.5XrXwX1X'.e.M 1 , 1 , , 8 , < ; < 3 : % O .                 . X > M C n M M n ",
"i.P.P.P.W.^.Y.B.t.o.[ A A ! _ A A Z Z Z h Z B. X=X5X5X5X,XQ.,.g 6 , 0 y n _ ,...[ ) ^ ) ) K s < > : & $ $ % o . . @ 8 1 t h l n ",
"i.E.l.P./.+XW.'.x._ m h V A m M g y 1 0 V Y.{.=X2X5X1X,X{.K.Q g 0 q y U [ X.o.9._ ( Q o.9.o.A U U E n d r 8 7 7 6 t 1 y C W M M ",
"2.h.K.S./.+X#X+X=XQ.p.Q m t 0 0 0 t Y Z.,X4X<X,X5X2X,X+X).3.Z g h m h Z O.t.0.r.d.[ M y g g g q q q y n W E Z Z h , , y U X.q.O.",
"0.h.P.`.^. X=X4X,X*X}. XU.P.j.Z.Y.+X,X<X<X<X<XqX2X5X1X+Xj.~ h m Z ! ~ ~ O.t.0.x.B.B.B...y 6 1 6 1 6 6 6 1 , ; - = 6 V 3.E n n n ",
"p.P.`.~. X=X5XqXqX5X.X}. X^.~.<X,X2X#X=X1X,X2XqXqX5X=XQ.p.Q m m A ! O.t.t.w.t.t.K.S.Q.W.^.I.y.) M t 8 1 1 6 0 n !  .^ ( o.Z 8 8 ",
"h.).Q.'.#XqX5XwXwXwX#X{./.{.).=X1X1X+X=XqX8XqXrXwX1XY.P.t.[ Z m Z Z m S [ 9.o.x.B.^.B.W. X+X~. X X`.S.B.P.P.d.d.h.h.^ C ( ,.M V ",
"B.W. X*X5X0X5XrXyXwX1X'.*X+X1X,X1X,X*X=XqXqXrXyXrX#XP.x.B.o.[ A h y q q q q g ! P.Y.T.T.`.&X+X+X+X X'.~.'.Q.B.a.B.t.o.E E X.X.C ",
"l.~. X;X2XqXwXpXyXrX2X5X,X5X5X4X,X,X=X1X5XwXrXyXqX+XP.Z.x.K.f.O.m y g Z m y , 8 Z f.Q.'.^.,XoX,X+X+X'.XX/.~.B.e.3.0.3.X.V ` 2.Y ",
"P.~.+X,X5X5XyXrXrXwX5X<X2X<X<X;X=X)./.{.,XqXrXrX5X{.S.P.P.Q.B.[ Z g Z <.O.~ g ; , f e.T. X+X;X*X;X+X`.~. X/.S.d.3.5.3.X._ Q ,.C ",
"T.}.'.5X5X5X5X5XwX5X{.,X=X=XQ.B.>.[ h.+X5XyXrXrX5X=XQ.~. X~.( m h Z ! t.t.O.Z 6 - , t [ P.+X{.&X+X X/.W.W.).f.a.e.9.| | 9._ ^ R ",
"T.`. X+X,X-X=XXX#X'.P.x.d.>.A q 0 ! ).=X5XyXrXwXrX5X+X{./.[ y 0 q y h h m g q 1 1 1 1 q ` B./.W. XU.P.Y.~.K.f.e.k.9.O.<.t.` ^ U ",
"K.^.`..X/. X'. XP.x.3.Q n 8 ; 1 ` #X2X1XqXiXpXpXyXwX,XQ.E t , = @ @ + @ = ; , 8 q g q 0 y ( 9.E.N.Q.P.P.f.B.k.f.3.g.0.0.o.X.^ ( ",
"B.P.P.E.~.)./.B.t.~ Z q ; @ 8 2.#XqX8XqXrXyXyXyXyX5X{.` 8 - + o + @ + + @ - , 1 0 q q q y y U O.c.j.B.d.d.a.a.t.f.t.w.5.3..._ Q ",
"x.K.d.P.P.~.p.>.Q m 8 - - y y.#X5XrXwXyXrXyXqX5X=X).} y ; = $ + + + o + @ = @ - , 1 6 q y y 0 M ` e.o.9.5.0.<.9.9.q...,.2.9.U E ",
"f.x.x.k.S.B.>.Z n 0 - = y 2.[.1X0XwXqX5XqX1X XS.2.M 8 ; = + + $ + + $ + @ @ - - - = ; 1 0 8 1 6 n E _ ^ | .. .@.9.#.|  .*.+.Y C ",
"8.e.r.h.t.t.Q m 8 , - 8 ) j.+X1X[.).J.Q.S./.Q.Z./ 8 ; - ; ; - - @ @ @ = = - - : + + @ - - - - ; ; t R ^ Q _ ` ` ^ ` Q ^ ^ ] R R ",
"w.<.O.O.9.| Z q 1 - , C *.j.Y.=.K K +.2.2.,.2._ M 6 , t E C 0 1 , - - - ; ; 7 - = @ = = - - = @ = = 8 ^ +.[ ^ E Q R Y R / R / C ",
"O.9._ | o.[ g 0 , , y ) ^ i.C f t n C E V f t 1 - @ ; n ~ ..n y 8 , - - - , ; , - - - - ; ; @ + + + @ 9 ) 2.Q E E E M C B ) C Y ",
"X.~ [ [ X.Z y 1 1 6 B K / ) f 8 8 y n l n 0 8 ; - f 2.e.t.o.( Z g 6 , ; , , ; , ; ; ; ; 1 , > = : @ + = 9 R Q U Q E C B B R R R ",
"_  .~ [ A m g 6 , 8 B B B K t t 8 f n C n y y t n e.U.Y.S.e...( m y 6 6 8 y y y 0 8 1 6 1 6 6 7 < : + @ = 0 Y E U ` / R n / ^ Q ",
"_ { [ ~ A n M 0 1 0 R C B d s t f m m Z Z m Q [ ,.2.h.k.S.t.o.( S A m h m V A A A m y q q q 6 6 1 , = @ @ - y W ` .. .R c R / A ",
"Q o.[ | A g n n 8 y R B 8 9 9 8 8 0 0 h A ~ A W Q [ ! _ [ ! Z Z Z m g h h h h Z m g 8 q q y 1 6 8 1 - = : - 1 U +.y.) ) c R C Z ",
"U | o.*._ y n E n f / c 9 ; - @ @ = , 0 y g y g m h h g n q 8 6 6 , ; , 1 6 6 , , ; ; ; ; , ; < 1 < ; = - , , M ,.y.y.) K R C C ",
"M ] *.e.O.M y ) U l C C p 8 , - , q q q q q q q q 0 8 q q t t t 0 0 6 8 6 6 , ; = @ + @ + + o $ + + @ , 8 p 6 V } y.y.} K / Q Z ",
"M _ p.j.B.` f C ..M M C C Z A Z Z m Z ! [ [ $.G $.$.$.} 2.*.*.] ^ G G G C N a y 8 8 1 , 1 , ; - - = , n U E t Y +.} } / K L U Z ",
"c ) 2.D.U.i.n f =.*.Q ` ` ..! ~ Q m Z ,.r.f.*.*.*.p.1.y.i.i.*.) G G N n j N g n a a y g g g q 8 6 q m o.e.*.n _ ..+.R K K / C A ",
"l ) y.C.Q.~./ t R o. .Q ~ ~ ~ ~ | Z m Q ` C C R G R C F R ) M d s s 8 9 s s 0 8 y y q q y q 0 q m [ t.o.5.E M _ { [ E H J L K Z ",
"d / 2.P.I.Q.i.n y ] *._ ( Q Q | ~ Q n y t 0 8 t 0 8 9 9 9 r 9 7 < 3 < < < 3 3 7 9 8 q q 0 8 0 M ` P.f.O.Q M Q 9.*.) B H H J M C ",
"l B =.Z.E.P.Y.] p B 2.|  .~ ~ ~ [ A m f t 0 9 8 t t s s r r 8 7 7 4 > < < < < 3 7 9 8 t t t n _ P.Z.q...U n ..9. .C x x K J B B ",
"P / L y.Q.Q.Z.j.M p ( 9.9.5.` [ [ A g g g y 8 y l M n l l f 8 8 7 7 > < < < 3 7 9 r 8 t y N Q h.S.j.{ *.n M _  .C c d l J K l B ",
"P I L ) B.P.B.S.] 8 M 2.g.e.O.! ~ A g g M g N V U U U V M l s 9 8 3 < < 3 7 8 p f f f f B ^ i.l.B.q.2.( f U Q B l d f x c K M B ",
"P &.-.} 2.N.B.Z.=.d r } e.e...O.( Q n h m C ..h.O.X.X.[ A C l f 8 8 9 r s n C / C V M C ) Z.Z.j.f.i.9.M n _ U l r d f x c K C Y ",
"I -.=.} -.y.j.i.y.M 8 C l.r.0.X.O.Q h h A X.B.P.K.f.a.t.3.X._ B l B K ) } y.e.0.9. .` ` 9.S.N.i.j.i...f U ^ M r s s d l L K / Q ",
"I ;.&.-.-.=.}  .2. .y n h.S.,.9.X.| m Q q.K.B.S.p.f.2.f.S.K.f.i.M.I.k.D.Y.Y.e.i.q.9. .*.N.n.x.i.i.j.M n U Q s s r s d K R L R Y ",
"&.;.=.&.-.I f l y.} R C f.P.q.<.5.X.~ O.U.Y.P.B.Z.p.9.p.D.D.M.j.Y.D.M.j.Y.S.j.y.} } ..q.j.i.i.i.j.2.n M Q n s d d x H K / } K n ",
"P -.-.;.&.H e 5 d K } 9.p.P.t.0.k.x.w.d.U.E.~.^.v.P.K.Y.D.H.D.Y.J.+X).U.D.I.y.=.] 2.q.i.q.i.i.i.i.=.T Q M d x K x H P I L L L / ",
"P &.-.-.I x 5 * > e R f.W.'.S.0.B.K.g.k.B././.`. X).).].].[.#X+X=X1X=X#XH.Y.i.1.3.0.6.2.9.9.u.i.i.` } ^ f s d K P H K I / / } L ",
"b &.I %.I v w * : 4 e y.XX=XI.9.9.V.d.f.B./.I.+X=X$X'.#X=X2X=X#X2X1X=XI.2.j.y.1.,.,...,.2.q.y.u.i.*./ K d e 3 d L H x K R =.*.=.",
"z P I P I v 4 % : > 3 H [.+X[.h.0.z.k.k.B.W.Y.~.,X+X-X=X2X,X=X[.).J.M.2.j.Z.9.] ..~ [ +.q.e.j.Z.i.y.) x c e 7 9 K K H K L } y.e.",
"w H P P K z * % & & 4 x M.1X=XY.0.q.l.K.x.P.U.Q.P.).Q.S.D.Y.D.S.Z.s.p.f.9.p.+.[ ^ ` { 9.p.P.Z.Y.y.-.K c d u e r s / L L K } =.=.",
"w z P I H e & % % & > e I 2X1XY.f.0.t.9.f.T.T.Y.P.A.p.p.j.p.e.p.e.p.*.O.2. .+.` { *.*.e.B.Q.Q.Y.y./ x c x k s e 7 r l K P I v d ",
"5 w v b z e # # % * & > x ,X1XXXj.e.1.S.`. XL.~.Q.L.h.j.l.j.+.#.9.@.Q _  .| ] | 9.t.Q q.Q.'.T.D.=.I e e H k u e : > 7 d d w 4 2 ",
"% * 4 5 k 5 % # % % & < s J.2X=XM.y.Q.#X2X=X)._.].U.K.b.P.j.e.2.2.` R U ^ ( ] *.i.q.^ s.(.}.[.u.I c k 4 e 5 4 5 : $ : > > < < 4 ",
"O O # * 5 4 & O # % & : 8 H.5X[.;.#X=X2X3X5X;X;X{.$X+X}.U.I.C.P.l.0.Q Y Y ) ` 2.0.2.s.!._.oX).=.J i c w > > : 4 % # : 3 3 w 7 i ",
"O O O % & 2 * O O O % : l XXqX8XyXyX8XqXqXrXuXyXrX8X5X5X4X=X].~.).Y.+.L Q Q ^ +.7.g.U.~.}.].M.J H r w 5 4 * & & # O < 7 r d f x ",
". . . # % * & # . O $ < +.{.<XrXuXiXtXrXrXuXtXiXiXiX0XrXtXwX=X;X-X2X[.m.&.L D 1.j.Y.D.[.=X[.I H c w : * & & O O O # & < 9 r r d ",
". . . O # & % # . X # d u.#X4X7XuXuXtX7X9X9X9X9XeXeX9X9X9X9X6X:X>X:X:X6X:X:.I ;.F.G.J.J.%X:.b v v w * & & # O O # # % * 5 3 w u "
};
