/* XPM */
static char *out[] = {
/* columns rows colors chars-per-pixel */
"64 64 220 2 ",
"   c #2B1608",
".  c #4A2415",
"X  c #5C2C1A",
"o  c #68321E",
"O  c #583F2A",
"+  c #763A24",
"@  c #7E3D26",
"#  c #63432F",
"$  c #6E402D",
"%  c #6A4D37",
"&  c #77523D",
"*  c #7F5D46",
"=  c #814A35",
"-  c #8E4B34",
";  c #96523A",
":  c #865540",
">  c #8C5D46",
",  c #9D5943",
"<  c #955F49",
"1  c #A45E45",
"2  c #89664F",
"3  c #9B644E",
"4  c #916A53",
"5  c #9A6F56",
"6  c #AB644A",
"7  c #A16851",
"8  c #AD6D51",
"9  c #A86D58",
"0  c #B36A51",
"q  c #B76F53",
"w  c #A1765D",
"e  c #A7755C",
"r  c #AE755B",
"t  c #B4715D",
"y  c #B97658",
"u  c #A87B63",
"i  c #AE7D64",
"p  c #B77764",
"a  c #BD7564",
"s  c #B27861",
"d  c #B47F64",
"f  c #BB7E63",
"g  c #C1785B",
"h  c #C87E61",
"j  c #AC836B",
"k  c #BE8466",
"l  c #B3876E",
"z  c #BA876A",
"x  c #BF8B6C",
"c  c #B78C72",
"v  c #BC8E72",
"b  c #C38264",
"n  c #CC8566",
"m  c #C78568",
"M  c #C4816F",
"N  c #C48A6C",
"B  c #CC8C6D",
"V  c #CC8C6E",
"C  c #D18969",
"Z  c #D48C6E",
"A  c #D88F6F",
"S  c #C88973",
"D  c #D08B78",
"F  c #D38E7E",
"G  c #C39072",
"H  c #C69677",
"J  c #C89172",
"K  c #CC9475",
"L  c #CA997A",
"P  c #CF9C7E",
"I  c #D19071",
"U  c #D09072",
"Y  c #D29172",
"T  c #D09273",
"R  c #D39273",
"E  c #D49374",
"W  c #D59475",
"Q  c #DA9472",
"!  c #DD9876",
"~  c #D79778",
"^  c #D1967C",
"/  c #D89778",
"(  c #D59A7B",
")  c #D99878",
"_  c #D9997A",
"`  c #DB9A7A",
"'  c #DA9A7B",
"]  c #DC9B7B",
"[  c #DB9C7D",
"{  c #DA9D7E",
"}  c #DE9D7D",
"|  c #DC9D7E",
" . c #DD9D7E",
".. c #E09E7D",
"X. c #E29F7D",
"o. c #E2A07F",
"O. c #D89380",
"+. c #DD9E80",
"@. c #DE9F80",
"#. c #DF9F80",
"$. c #DD9986",
"%. c #CFA186",
"&. c #D4A082",
"*. c #DFA081",
"=. c #DCA386",
"-. c #D8A485",
";. c #DCA88A",
":. c #DFAF94",
">. c #E0A081",
",. c #E2A181",
"<. c #E3A181",
"1. c #E0A182",
"2. c #E1A283",
"3. c #E4A281",
"4. c #E5A382",
"5. c #E4A383",
"6. c #E5A383",
"7. c #E6A483",
"8. c #E5A484",
"9. c #E6A584",
"0. c #E6A585",
"q. c #E7A685",
"w. c #E7A686",
"e. c #E8A786",
"r. c #E9A887",
"t. c #E0A58A",
"y. c #E3AC8D",
"u. c #E7AD8F",
"i. c #E8A888",
"p. c #E9A888",
"a. c #E9A989",
"s. c #EAA989",
"d. c #EAAA8A",
"f. c #EBAA8A",
"g. c #EBAB8B",
"h. c #EBAC8C",
"j. c #EBAE8F",
"k. c #ECAC8C",
"l. c #ECAD8D",
"z. c #EDAD8D",
"x. c #EDAE8E",
"c. c #EEAF8F",
"v. c #EEAF90",
"b. c #E4B195",
"n. c #E9B193",
"m. c #EDB091",
"M. c #EEB090",
"N. c #EFB090",
"B. c #EEB091",
"V. c #EDB192",
"C. c #EEB192",
"Z. c #EFB192",
"A. c #EFB293",
"S. c #ECB496",
"D. c #E6B599",
"F. c #EAB79A",
"G. c #EEB899",
"H. c #EEBC9E",
"J. c #F0B293",
"K. c #F0B394",
"L. c #F1B495",
"P. c #F0B496",
"I. c #F1B596",
"U. c #F1B597",
"Y. c #F2B596",
"T. c #F2B698",
"R. c #F2B799",
"E. c #F3B799",
"W. c #F3B899",
"Q. c #F2B89A",
"!. c #F3B89A",
"~. c #F4B99B",
"^. c #F4BA9B",
"/. c #F4BA9C",
"(. c #F4BB9D",
"). c #F5BB9D",
"_. c #F5BC9D",
"`. c #F5BD9E",
"'. c #F5BE9F",
"]. c #F1BFA1",
"[. c #F5BEA0",
"{. c #F6BEA0",
"}. c #F6BFA1",
"|. c #F6C0A1",
" X c #F6C0A2",
".X c #F6C1A2",
"XX c #F6C1A3",
"oX c #F6C2A3",
"OX c #F7C2A3",
"+X c #F6C3A4",
"@X c #F7C3A5",
"#X c #F2C4A5",
"$X c #F7C4A5",
"%X c #F7C4A6",
"&X c #F7C5A6",
"*X c #F7C6A7",
"=X c #F7C7A8",
"-X c #F0CBAD",
";X c #F4CDAE",
":X c #F8C8A9",
">X c #F8C9AA",
",X c #F8CAAB",
"<X c #F8CBAC",
"1X c #F8CCAD",
"2X c #F8CDAE",
"3X c #F9CEAF",
"4X c #EECEB0",
"5X c #F3D1B3",
"6X c #F7D1B2",
"7X c #F0D4B6",
"8X c #F6D4B6",
"9X c #FAD3B4",
"0X c #FAD7B8",
"qX c #F1D8B9",
"wX c #F7D8BA",
"eX c #F5DBBB",
"rX c #FADDBE",
"tX c #F6DDC0",
"yX c #F9E1C3",
"uX c #FBE5C7",
/* pixels */
":.V.7.q.' N j j e k K ( ;.S.S.H.H.].].].].*XoX].H.].+X$X+X=X&X*X(.}.`.XX/.~.I.W.C.B.j.v.z.x.f.d.w.d.p.p.9.w.3. .) _ / ) ) ~ E E ",
";.w.k.k.w.W m b k U ' w.Y.R.^.Q.~._.XXoX$X%X+XXX[.`._.`.XX&X>X*X{.)._./.`.R.W.T.L.A.c.B.c.B.s.q.q.8.8.3.q.8.6./ ' ~ ) `  .` A Y ",
"G ! Q 8.8.} b N M N f N K K K +.j.[.(.XX&X*X+X$X*XXXA./._.,XXX[.}.}.I.~.!.~.A.C.Z.R.h.B.c.K.p.9.e.9. .,.6.s.,._ _ ] R ] } ! Z Z ",
"x C C ) ] W x e 4 : & = & & & : d =.j.G.$XXX}.}.*X`.K.Y._.%X}.*X`.A.c.C.~._.L.B.Y./.L.B.Q.J.c.p.d.9.o.9.f.w.9.{ +._ [ _ 6./ Y Z ",
"x Z n A A b < : : > > : # X X # $ < s U *.K.~.XX`._.j.B.Z.`.(.`.K.K.C.K.C.OX`._.W.{._.R.V.B.c.k.2.6.p.k.9.r.p.1.{ +.@.2.| | C C ",
"H A h Z n 0 r J ;.S.G.n.L i > : > : < 9 N ' u.U./.~.x.f.Z./._.Y.j.d.f.h.K./.}.}.}.`.}.R.K.y.2.' ( ^ ~ { ( _ @.+.#.+.>.@.*.' Y n ",
"G 4.Z ] Z _ w.Y.).}.~.].].].;.&.K k 8 s m U E z.Y.R.a.u.Z.Q.j.B.f.s.2.a.C.}.R./._.H.;.$.^ v 7 3 3 7 3 r r d f m W W [ @.@.| C n ",
"K 6.o.9.h.v.j.B.K.C.Y.S.R.S.u.y.y.1.W V U Y E 6.c.v.l.c.L.c.h.a.6.o.@.2.z.K.C.u.1.M 3 : & $ X X X X X $ : > < r b b m E | { Z n ",
"v t.8.q.e.h.h.B.>.] +.a.j.A.j.y.>.W I ( Y | | q.p.V.l.A.c.Z.B.c.~ R Y  .| 8.8.F 8 < + $ X X . . . . X o $ $ & > < 6 7 f J W Y n ",
"G t.w.6.p.s.f.2.b E H.XX=X}.~.K.j.@.V b b W 2.6.c.B.x.z.z.z.Z.k.U h B B V E V t < = + o o o o $ + : 3 7 5 < : : : : - < 8 b B g ",
"G u.a.f.h.z.~ b V H.H. XXX}.j.j.y.8.C g y m E 6.f.N.p.l.x.C.f.w.Y b y b m m t 1 ; = + @ : , 7 r x ^ +.+.( N s 9 7 > : - < 7 6 r ",
"L y.u.A.W.h.V g a. Xb.&.k r 3 < 7 r q y y y n A 9.c.x.c.B.x.z.6.W f f y k t 6 , ; ; - ; 7 d b T @.*.@.*.8.*.T J V d 7 < 3 < - > ",
"K y.2.Z.B.h.B V y.L > # . . .     . o - 1 q g Y } c.Q.W.M.Z.B.8.Y B k f 8 6 , ; - ; ; , , r b B m m b m k m V ' W E b p 7 < : > ",
"K 8.| t.Z.a.Y m s o     . . #       . X $ - 6 B ` z.XX`.{.U.L.a._ m g 0 6 , ; - - @ + ; f ^ 8.8.2.~ V b t 7 , 8 b V U V b 7 < : ",
"( q.{ _ B m 6 ; = o X $ & % X . . . . $ + $ + y o.Z. X3X,XoX~.K.o.b 1 1 , ; @ + o o > s d d i k b x k k f r < = = r k m f f 7 < ",
"t.8.E E C 0 , 6 ' +.T ( ^ k e 4 5 4 5 7 : - ; t k.L.=X0X0X<X`.B.| t 1 , , @ @ o X @ : = $ . O . . . O & : : : : $ + s m b f t 9 ",
"=.q.@.L.M.c.k.4.! d.c.j.j.j.8.>.T B m C n E o.f.L.`.>XrX0X<X`.h.n 6 , 1 , ; , ; = - = : : # .                 . . X : V Y m k m ",
"u.K.C.W.W.W.Y.c.r.6.6.} } ! ) Z Z Y C Z W C n 6./.}.3X0X0X<X`.8.b 1 , 6 t t Y  .' ( W W ( K d < & & $ $ X X X . . . o 1 8 p k b ",
"y.j.y.L.L._.W.`.Y.k.Z C B Z C A C n g y q g >.`.XX3X,X2X3X$XB.| h q 1 y Z } W 8.,.} W W 3.q.) I m B m k r r 7 7 ; - , 1 0 b b B ",
"2.6.q.A./._.}.oX$X`.B.,.C g 0 0 8 6 1 t { H.>X:X>X<X>X>X<X`.8.Y h a g h C ` q.e.f.9.W b h n n h g a q q n R C C U m 0 ; t U o.o.",
"9.9.p.Y.L.}.}.2X>X<X$X}.Y.L.q.9.*.8.C.XX=X>X*X<X2X3X2X3XXXL.] C h C Z ! W o.9.p.9.c.z.a.n t , 6 1 6 6 0 0 y 8 6 ; - ; m ` V b m ",
"w.k.Z./.W.`.$X<X9X2X3X{.}.^.~.`.XX<X+X&X$X:X<X>X9X8X3X:X}.a.W n n C ) o.r.q.r.r.p.c.L.W.^.P.t.( m y 1 , ; - ; ; 6 g Y Y o.] b 1 ",
"h.W.Z.`.}.:X=X8X0X0X2X<XXX}.Y.}.,X,XoX$X:X3X:X6X0X0X:X}.W.p.Z n C C n A ] 8.X.9.f.Z.B.W.W.W.Y.}.}._.c.j.u.u.2.s.f.h.o.) U o.E b ",
"c.W.W.}.:X:X3X6XrX0X6X:X%X~.~.=X3X2X%X&X<X6X3X8XrX0X$XW.L.f.o.) A h q q g q y h o.c.B.W._.W.`.oXXX}._.~.`.R.B.c.k.p.9.} Y Y @.*.",
"l.~.XX:X$X<X6X0XrXrX8X3X:X$X:X2X:X<X&X,XXX3X8XrXrX0XXXW.x.Z.d.j.} n q q h h 6 1 8 ) k.`.^.`..X:XoXoX`. X/.~.Y.c.3.9.3.q.] V ` 2.",
"L.~.oX:X*X2X3XwXrXeXeX6X<X2X>X=X<X>X*X[.:X<X3XwXrX6XXXL.L.K.W.Z.,.C g h o.! A y , 1 m k.~.~.:X%X*XXX$X}.}./.~.B.p.9.3...9.W Y | ",
"T.{.`.XX$X<X6X3X0X0X<X:X<X*XXX}.~.B.| z.$X6X3XeXwX3X`.~.W.~.W.p.Z C h A p.z.} A 6 - ; b 8.W.W.$XoX$X/.}.XX/.L.Z.k.p.} 9.8.q.Z _ ",
"T._.~.].$X*X$X*X*X*XXXW./.B.6.! C q g j.:X3XwX0XwX3X*X[.}.`.w.m y q a h A A n g 8 , ; , k o.c.W.}.XXL.Y.R.Y.Z.k.k.p.9.3.r.6.~ Y ",
"Z.^.W.|./.}._.}.`._.Z.k.} C g 6 ; f C.<X>X6XeXuXyXrX6X<X].w.b 6 ; = = - = - ; , 1 0 q 8 1 f ` z.m.W.K.Y.Z.M.k.d.f.f.9.9.o.9.] ~ ",
"M.L.L.B._.`./.W.K.k.o.A h 6 - ; m R.2X9X6X8XrXyXyXyX8X*Xu.f , + o o + + + + - , 1 q q q y 0 f W 9.j.c.B.z.p.p.p.f.r.q.6.6.,.o.] ",
"x.Z.s.B.L.~.Y.c.p.} n g 1 - , W ].<X2XrXeXrXeXrX0X6X].S.B 1 @ + + @ o + + = @ - ; 1 1 0 y y 0 y C @.3.q.6.q.<.6.8.f.3.2.2.8.W E ",
"k.x.x.k.A.M.z.6.! n y 1 - 1 W G.<X2X8X0XeX8X<X*X].j._ b 6 - @ $ + + $ + + + @ = - - - , 0 q 0 6 t m ~ ~ }  .| @.8.9.@.| *.@.' Y ",
"7.w.e.f.w.z.9.` h y 1 ; ; B y. X=X3X>X<X X~.Q._.j._ 8 , - - = = @ @ + + @ - = : = @ + - ; , ; , ; 6 g ~ W ) _ _ ~ ` W ~ ~ ' E T ",
"q.9.9.o.8.q.@.C g 6 , ; g | j.}.G.( &.1.y.,.p.u.y.' f 1 0 b k 1 , - - = - - ; < - @ @ @ - - - = = = , f @.] ~ R W T U T ^ T ^ V ",
"o.8.) } X.3.E n q 1 ; 8 W @.1.1.V b y E ' ~ b b d 7 @ - t { E f t 1 ; ; - - ; , , - - - - ; - = + + o : b 2.| R R R B Y N J V U ",
"..! ] ] } ! C g 6 1 , f E T { N p t t m V b 8 6 , - ; k o.X.) C C q 1 ; ; - ; ; , ; - ; ; ; > : : @ $ + - f E I W Y U Y K N T U ",
") | ! ] W E h g 6 1 1 N N K K f 8 t y b b b 0 t 8 8 V U.A.c. .) Z h 6 6 , 1 8 0 6 1 , 6 , 1 1 7 < < = @ + - f R I E ^ W J b ~ W ",
") [ ` ! ) C m n 0 6 6 V N V N t t t k m C n h b B W 2.z.A.c.p.) ) Z n g g g h n n h g q 6 6 6 6 6 6 ; @ @ @ , b E E ' ~ K b ^ Z ",
"W X.] } ] C y B m 0 6 N U f 9 d d s y h n B Z ! o.] Q ! o.6.! ) W W C C n C h C Z Z g y q y q 8 8 6 , : : : - 8 Y @.( @.( N V C ",
"I } X.>.@.U t m E b p B U 8 , , ; ; ; 1 y g h h n C n C Z n h g g y 6 1 6 8 0 q q 8 1 1 6 6 6 1 6 6 7 ; - : ; 1 Y | t.;.&.G V V ",
"m E *.w.9.` y k ~ Y f V B p 7 - + = , 6 q q q q 6 y y q 8 q 8 8 1 6 1 , , 6 , , = = @ @ @ @ @ @ @ = = - ; 7 8 6 V @.t.t.( J E C ",
"m ) 1.j.M.q.m f E | m m V C b k f f C n C W W F F D D F O.' O.W O.D D D D M a q 8 , , ; ; - - @ + + + - 8 k B t Y @.+.+.K K I C ",
"x ( 2.j.I.Y.~ f b *.W _ _  .Q E A Z h Z o.9.*.*.*.$.$.>.;.j.*.1.$.F D D M M g M h a a g a g q 8 6 1 , y _ 9.` b @.*.T ( J K V Z ",
"k ^ t.B.Q.R.y.b y K @.@.@.! ] ! } ] n C ,.o.E T $.O.F F O.( ^ F N f d d s s y y y y a a y a 0 0 q a n o.p.9.Y m [ ] ~ K H J U C ",
"d K t.L.P.Q.L.{ y b @.o./ W E ! ] } A n f f t t y y r p r r r p 9 3 3 4 < 3 3 7 9 r q q q q 6 8 g W f.h.o.] b W @.| T G x H N V ",
"k N +.j.E.L.Y.u.b t V 2.| ] ! ! ` ] A n f 8 8 8 0 8 s s r r 8 9 7 7 7 < < < < 3 3 9 8 t t t 0 f Y z.Y.w.@.Y b | 8.W N k x K N N ",
"L ^ K t.C.R.B.Y.+.s r +.8.4._ ] ] o.C g g y 8 t t f f b f f 8 s r 7 > 3 < < < 7 3 7 3 9 y p y U w.Y.y.>.o.m b | { J d k x J k N ",
"L P K ( j.L.M.C.j.N 8 V g.w.9.o.! ! C g h g f y m m B B U m f s 9 7 < < < < 3 7 t t r t f g U 2.M.B.t.8.@.g B W K d f j x J m N ",
"L &.-.{ 2.m.C.V.j.( 8 y @.k.q.o.) ] C h g n m Y o...` ] ) Y m f 8 8 9 7 7 9 s k b b k b b ~ q.K.d.B.8.y.B b W E f d f z x J J U ",
"P -.=.{ -.t.j.u.t.+.f 8 Y z.p...o.) Z h h n ) w.Z.d.p.p.f...W V k d f k N J W _ | | _ Y ~ @.m.j.j.u.j.| m Y ) m s s d k K J ^ W ",
"P ;.&.-.-.=.&.*.2.8.N t m A.f.3.3.} A n B o.9.K.C.d.2.d.h.J.8.y.8.1.+.y.j.U.w.h.y.8.| { | j.x.u.j.j.8.U m E m f s s d J K K T U ",
"&.;.=.;.-.P v d t.1.( U Y a.c.<.4.3.! W 2.R.K.B.V.a.8.@.8.j.u.j.j.j.S.u.S.S.j.u.a.+.~ { 8.u.u.y.j.j.{ m E U f d d z G J ^ { K b ",
"L -.-.;.&.G e 5 d J K | _ j.c.9.6.x.q.s.p.K.~.^.c.Y.J.Z.j.G.S.W.b.S.G.H.S.P.j.a.{ @.*.u.y.u.y.u.y.j.{ E U b r J G G L P K K K ( ",
"L &.-.-.-.z 5 * > 7 k 2.a.B.A.6.q.Z.B.k.c.B./._.}.~.(.R.'.].R./.].XX&X}.].U.S.1.@.*.5.2.9.9.8.y.y.y.{ W J s d k L G J L ^ ^ { K ",
"v &.P %.P c w * : 4 e K S.`.P.C.8.N.z.Z.B.K.P.XX&X@X].+X*X$XH.+X=X,X=X>XH.y.t.w.,.,. .,.2.0.+.y.u.y.^ W k r 3 9 J G z J K =.*.=.",
"l L P L P c 4 % : > > j S.oX].R.9.3.k.c.M.L.U.~.XXoX}.=X3X:X&X=X=XH.H.S.t.t.y.2.8.! ` >.0.8.y.j.K.t.( J x d 7 7 k K G J K { 2.w.",
"w G L &.J l * % & & > i -.$X&XXXk.q.9.Z.k.L.I.W.L.(.Q.R.S.U.~.].j.B.j.d.8.a.8.*.W _ [ @.w.k.V.U.j.;.( x d j e r s J K K J { =.=.",
"w l L P G e & % % & > 5 G  X,XXXB.9.a.8.d.C.T.U.L.Z.j.i.j.i.j.i.a.i.8.8.2.2.@.' [ W { 8.y.j.~.U.j.-.G x z j i e 7 r b J L P c d ",
"5 w c v l e # # % * & > e ].,X Xj.w.1.C._.}.C.~.Q.R.h.j.l.h.@.#.2.@.W ) | } _ } @.w.E *.B.Y.T._.a.&.d e G j u e : > 7 d d w 4 2 ",
"% * 4 5 j 5 % # % % & > 7 S.3X&Xj.t.K.+X<X&X(.).'.W.J.Z.L.Z.w.q.2._ Y Y ~ ` ' @.8.a.~ 2.R./.].G.-.x j 4 e 5 5 5 : $ : > > < < 4 ",
"O O # * 5 4 & O # % & > 7 S.3X:X;.H.&X<X1X3X=X=X[.@XXX{.W.P.B.L.l.9.W U U ( _ 2.9.w.t.Z.)..X].y.H i x w > > : 4 % # > 3 3 7 7 i ",
"O O O % & 2 * O O O % : f /.6X8XeXeX8X9X9XeXtXrX0X6X3X3X2X&X'.~.(.W.2.K W W ~ @.2.g.I.~.{.XXn.H G r w 5 4 * & & # # < 7 r d f z ",
". . . # % * & # . O $ < +.[.>XwXtXyXeXwXwXtXeXyXyXyX8XwXeX0X&X=X*X<X].b.&.K S 1.j.U.S.].&X].P G x w : * & & O O O # & < 9 r r d ",
". . . O # & % # . X # d y.+X2X5XtXtXeX5X7X7X7X7XqXqX7X7X7X7X4X-X;X-X-X4X-X:.P ;.D.F.H.H.#X:.v c c w * & & # O O # # % * 5 5 w u "
};
