/* XPM */
static char *out[] = {
/* columns rows colors chars-per-pixel */
"64 64 217 2 ",
"   c #2B1608",
".  c #4A2415",
"X  c #5C2C1A",
"o  c #68321E",
"O  c #583F2A",
"+  c #763A24",
"@  c #7E3D26",
"#  c #63432F",
"$  c #6E402D",
"%  c #6A4D37",
"&  c #77523D",
"*  c #7F5D46",
"=  c #814A35",
"-  c #8E4B34",
";  c #96523A",
":  c #865540",
">  c #8C5D46",
",  c #9D5943",
"<  c #955F49",
"1  c #A45E45",
"2  c #89664F",
"3  c #9B644E",
"4  c #916A53",
"5  c #9A6F56",
"6  c #AB644A",
"7  c #A16851",
"8  c #AD6D51",
"9  c #A86D58",
"0  c #B36A51",
"q  c #B76F53",
"w  c #A1765D",
"e  c #A7755C",
"r  c #AE755B",
"t  c #B4715D",
"y  c #B97658",
"u  c #A87B63",
"i  c #AE7D64",
"p  c #B77764",
"a  c #BD7564",
"s  c #B27861",
"d  c #B47F64",
"f  c #BB7E63",
"g  c #C1785B",
"h  c #C87E61",
"j  c #C07B6B",
"k  c #AC836B",
"l  c #BE8466",
"z  c #B3876E",
"x  c #BA876A",
"c  c #BF8B6C",
"v  c #B78C72",
"b  c #BC8E72",
"n  c #C38264",
"m  c #CC8566",
"M  c #C78568",
"N  c #C4816F",
"B  c #C48A6C",
"V  c #CC8C6D",
"C  c #CC8C6E",
"Z  c #D18969",
"A  c #D48C6E",
"S  c #D88F6F",
"D  c #C88973",
"F  c #CC8A78",
"G  c #D08B78",
"H  c #C39072",
"J  c #C89172",
"K  c #CC9475",
"L  c #CA997A",
"P  c #CF9C7E",
"I  c #D19071",
"U  c #D09072",
"Y  c #D29172",
"T  c #D09273",
"R  c #D39273",
"E  c #D49374",
"W  c #D59475",
"Q  c #DA9472",
"!  c #DD9876",
"~  c #D79778",
"^  c #D1967C",
"/  c #D89778",
"(  c #D59A7B",
")  c #D99878",
"_  c #D9997A",
"`  c #DB9A7A",
"'  c #DA9A7B",
"]  c #DC9B7B",
"[  c #DB9C7D",
"{  c #DA9D7E",
"}  c #DE9D7D",
"|  c #DC9D7E",
" . c #DD9D7E",
".. c #E09E7D",
"X. c #E2A07F",
"o. c #D89380",
"O. c #DD9E80",
"+. c #DE9F80",
"@. c #DF9F80",
"#. c #CFA186",
"$. c #D4A082",
"%. c #DFA081",
"&. c #DCA386",
"*. c #D8A485",
"=. c #DCA88A",
"-. c #DFAB8E",
";. c #DFAF94",
":. c #E0A081",
">. c #E2A181",
",. c #E3A181",
"<. c #E0A182",
"1. c #E1A283",
"2. c #E4A281",
"3. c #E4A382",
"4. c #E4A383",
"5. c #E5A383",
"6. c #E5A483",
"7. c #E6A483",
"8. c #E5A484",
"9. c #E6A585",
"0. c #E7A685",
"q. c #E7A686",
"w. c #E8A786",
"e. c #E9A887",
"r. c #E0A58A",
"t. c #E3AC8D",
"y. c #E7AD8F",
"u. c #E8A888",
"i. c #E9A989",
"p. c #EAA989",
"a. c #EAAA8A",
"s. c #EBAB8B",
"d. c #EBAC8C",
"f. c #EBAE8F",
"g. c #ECAC8C",
"h. c #ECAD8D",
"j. c #EDAD8D",
"k. c #ECAE8F",
"l. c #EDAE8F",
"z. c #EEAF8F",
"x. c #EDAF90",
"c. c #E4B195",
"v. c #EDB091",
"b. c #EFB090",
"n. c #EEB091",
"m. c #EDB192",
"M. c #EEB192",
"N. c #EFB192",
"B. c #EFB293",
"V. c #ECB496",
"C. c #E6B599",
"Z. c #EAB79A",
"A. c #EEB899",
"S. c #EEBC9E",
"D. c #F0B293",
"F. c #F0B394",
"G. c #F0B495",
"H. c #F1B495",
"J. c #F0B496",
"K. c #F1B596",
"L. c #F1B597",
"P. c #F2B596",
"I. c #F2B698",
"U. c #F3B799",
"Y. c #F2B89A",
"T. c #F3B89A",
"R. c #F4B99B",
"E. c #F4BA9B",
"W. c #F4BA9C",
"Q. c #F4BB9C",
"!. c #F4BB9D",
"~. c #F5BB9D",
"^. c #F5BC9D",
"/. c #F5BC9E",
"(. c #F5BD9E",
"). c #F5BE9F",
"_. c #F1BFA1",
"`. c #F5BEA0",
"'. c #F6BEA0",
"]. c #F6BFA0",
"[. c #F6BFA1",
"{. c #F6C0A1",
"}. c #F6C0A2",
"|. c #F6C1A2",
" X c #F6C1A3",
".X c #F6C2A3",
"XX c #F7C2A3",
"oX c #F6C3A4",
"OX c #F7C3A5",
"+X c #F2C4A5",
"@X c #F7C4A6",
"#X c #F7C5A6",
"$X c #F7C6A7",
"%X c #F7C7A8",
"&X c #F0CBAD",
"*X c #F4CDAE",
"=X c #F8C8A9",
"-X c #F8C9AA",
";X c #F8CAAB",
":X c #F8CBAC",
">X c #F8CCAD",
",X c #F8CDAE",
"<X c #F9CEAF",
"1X c #EECEB0",
"2X c #F3D1B3",
"3X c #F7D1B2",
"4X c #F0D4B6",
"5X c #F6D4B6",
"6X c #FAD3B4",
"7X c #FAD7B8",
"8X c #F1D8B9",
"9X c #F7D8BA",
"0X c #F5DBBB",
"qX c #FADDBE",
"wX c #F6DDC0",
"eX c #F9E1C3",
"rX c #FBE5C7",
/* pixels */
"c.m.7.,.' ^ ( t.t.v.J.W.W.oX|.oXoX#X`..X`.%X.X%XoX=XoX|.`.OX).].`.Y.K.T.K.T.K.J.f.b.f.z.u.i.a.a.6.2.3.O.' +.`  ./ _ T Y I ~ S E ",
"=.y.w.X.} } i.l.F.K.(.'.XX#X%X@XoXoX X.XoX#XoX-X:X=X'.{.[.'.Y.`.J.L.T.F.U.T.B.v.k.s.u.u.p.e.9.9.0.3.} _ ' ] } / ' ~ E U R Y S Y ",
"( %.~ E C K U ^ ( 1.9.U.|.%X'.{.@X%X!.).~.{.R.#X=X>XY.(.'.oXR.`.I.T.d.J.T.R.M.v.M.f.4.i.9.i.>.w.w.e.~ ) ] +./ } } ! I I I S V A ",
"C x 7 < : : = : : 3 l 1.Y. X X'.%X@X|.|.'.(.U.#X-XoXoXR.~.W.T.R.Y.L.B.J.R.U.K.K.U.M.i.4.9.5.e.i.a.0.] ` 1. . .' +.! I Z A I Z Z ",
"r , = = & & # . . O $ 7 x { t.R.|.oXW.|.J.M.M.|..X#X`.J.M.K.(.'.R.'.(.^.!.|.F.R.j.g.w.p.6.a.e.g.i.a.>. .[ O.O.<.] / Y A m Z m Z ",
"y l K &.t.&.c 4 & & & = < 9 M +.M.R.~.R.K.m.M.'.'.`.R.M.m.f.M.'.{.{.OX X#X|.J.V.M.u.9.<.1.e.a.e.e.9.O.O.@.O.+.+.%./ I Z Z m m m ",
"i.~.L.!.`.|.Y.V.=.P x s 8 t f C { M.L.U.K.b.g.R.R.!.i.y.l.f.f.R.#X#X].'.Y.A.&.$.K c s f x J n B C ^ T ' <.1.' %.%.! m m m m g h ",
"x.D.J.l.R.'.!.J.J.M.9.} ~ M M V ~ 1.N.K.U.b.l.m.V.M.u.1.9.9.f.M.{.R.M.&.H w < : : $ $ $ $ : < < 9 f l B T / ] ` %./ Z h h h g g ",
"a.f.u.i.1.v.f.k.f.a.>.+.~ ~ ~ ~ ~ X.i.D.j.D.x.h.l.M.>.' / %.>.a.9.1.n 9 > $ $ X . . . . . X $ = = 3 7 r r y C _ E S m h g g a g ",
"q.3.! f ( v.!.Y.!.F.f.<.W n M U +.,.i.N.x.n.D.z.l.l.] m I Y ~ ~ ~ n 7 - @ $ o X X X X o & : : = = = : > < < 7 y M C n g f f g g ",
"0.] t T `.#X|.|.B.M.t.t.} Z t f E >.3.f.v.D.f.l.l.b.W f M M M V n t ; - @ @ + = - 7 9 x ^ &.J f 8 9 < > - > - < 7 8 t y f n g g ",
"0.n l V.oX!.&.^ J f d f M n y y m S ..i.U.K.j.a.l.f./ h n f f f t 1 ; - ; , , 8 n K ( %.i.9.1.<./ K n d 9 < > < < > < 8 f y y y ",
"%.n ~ V.L 9 @ # . . . . $ - 1 q y I ! a.F.U.M.b.l.g.] I n f y 8 1 , ; ; ; , 7 y n U C C V C U T U ( ' ' B s 9 7 > - : , 8 0 0 q ",
">.M U 9 X       O O     . . o - 1 f E >.U.|.!.D.R.b.%.I n y 8 , , ; - - @ - 8 V +.%.1.' C n y 6 6 r n C V B M s 7 < : ; , 1 1 1 ",
"~ y - X . . . O # .   . . . X o + , U ,.!.<X#X|.`.R.9.U y 8 1 , - - + o = s l J $.&.^ ^ T E n f 6 ; @ 7 n B n f y 9 ; ; 1 8 1 6 ",
"6 - , n f r r r 5 : $ # $ : : + @ = I i.`.3X5X>X#X`.9.M 6 1 , ; - + X o < < = # % # O # * 3 7 7 5 3 @ o 7 B M n n y r f f t q q ",
"] ` ~ i.f.v.b.M.&.' ^ U B M n l M W i.U.oX5X9X3XoXK.' g , 1 1 - ; - + + + + $ . .           . . . . O X $ l ~ E n n n M f g g h ",
"F.l.0.,.i.i.9.1.X.) S A S S / ) / ! b.`.>X5X9X<X|.f.Y 0 1 6 t 6 n U V V C U J x 5 & # O # X . . . .     X < y 6 t f f n h h h g ",
"T.U.b.b.3.! I I A / I Q ~ S h g h 9.(.|.<X5X>X=X!.a.M q 6 q M Y Y ,.` ' _ >.{ >.%.W l f n n 8 9 3 < = + = 7 , 8 n V M M h g y g ",
"E.{.`.`.K.>.m g g g y q 0 6 8 C Y.#X#X;X<X>X=X`.K.} m y n h M S 0.0.0.>.} I Z Y Q A m h m n g h m M Z Z h 6 , f E ..>.9.] M m m ",
"K..X%X=XoX|.Y.l./ C n M V &.K.:X#X=X:X<X-X=XoX!.1.A h m Z S S ! w.i.p.b.g.i.C q 1 6 8 8 1 0 y h h h q , @ , I } V n M M y 8 6 8 ",
"OX`.3X<X<X=XoX|.`.`.|.{.OX%X=X-X=X:X<X<X3X>X#Xb.] m m Z ! } ,.7.g.e.l.f.F.K.K.v.1.U n 8 , , ; = - - - 1 g Y ~ / %.I 8 1 8 t t 8 ",
"|.6X>X3X5X3XoX!.'.!.oX=X-X;XoXoX<X3X>X5X3X=XK.i.! Z h Z S ! } e.g.g.e.a.U.R.B.U.T.!.R.R.V.y.' +.1.9.1.a.a.e.~ Y ` 3.C M I M n M ",
"#X3X3X5XqX5X=X!. X`.-X%X:XoX#X#X5X6X3X5X3X`.K.e.,.S m m h g h h m A } g.T.T.U.U.^.'.!. X'.oXR.J.T.b.M.i.b.a.X.Y C ! >.} C f d d ",
":X3X6XqXqX5X>XoXoX%X>X:X>X%X-X<X<X9XqXqX=X!.j.b.0.0.! m y y g g 6 1 0 Q g.~./.(.'.OX|.#X#X#X|.|.Y.F.p.a.w.i.0.,.C Y ..>.C s s r ",
"<X<X9X5X9XqX5X>X;X:X:X-X:X-X:X=X>X3XqX9X>X`.D.x.x.F.0.S g g S ! A g , 1 M i.(.'.OX{.@XoX-X=X=XY.R.K.l.w.9.w.a.0.] C _ %.U f s d ",
"=X3X>X9X5X5X:X<X-X%X!.(.Y.M.M.#X>X9X5X3X>X|.v.T.R.b.S m h Q >.a.X.! q - ; y ' F.!.|.|.#X=X=X~.(.!.R.i.9.e.p.5.i.,./ Y ..W B f n ",
"#X:X`.%X=X%X(.T.U.j.3.Z M Q R.#X3X9X5X<X<X#X`.!.R._ g q h ! ,...! A y , ; , 8 I g.R. X X%X{.Y.R.R.D.p.g.g.e.0.,.e...Y _ ' V B B ",
"]. X^.{.K.K.i.,.A h 6 , n Y.#X=X5X9XqXqX5X>X|.Y.W y 1 1 , 1 6 6 1 6 1 6 0 0 6 0 Z i.v.'.E.R.U.U.v.b.g.j.6.e.w.5.3.,.' / W U V U ",
"'.Y.R.g.i.X.S g 6 - ; V `.:X>X<XwXrXrXqXqX>XR.Y 8 - + o o + + + @ ; 1 8 g g g y y C ,.g.F.F.N.z.l.f.g.p.p.0.5.e.:.>.' / W U I V ",
"U.H.i.0./ A y , - 1 ( `.3X5X3X5XqXeXqX3X>X|.^ 8 - + o + @ + o + - - - , 6 q q g g y n / 3.g.w.s.p.g.4.i.i.g.X.>.5.9.R T C T M J ",
"b.b.,.S m q , @ 6 &.!.=X<X9X9X5X5X<XoXV.y.~ t ; = + + + + + o o @ @ - - ; , 6 y g q 6 f E } 5.} X.X.] 3.i.5.X.+.1.X.~ U E T U I ",
"7.i.A h q 1 - , C v.oX3X<X<X-X|.Y.!.Y.1.f 1 - = + @ + @ + + + @ @ = - @ + + ; , ; , ; , 8 C / ! E ~ ~ X...5.' _ ~ _ W I U U U T ",
",.! m q 6 - ; n ] M.`.c.&.9.t.1.1.y.f.1.M 1 1 8 y , ; - - = = - - ; ; @ + + - - - - = = : 7 T ' ! E T U ~ _ ~ ^ W T U U I U C C ",
"} Q g 6 , , 8 ~ } y.^ l f C W ~ C M y 8 ; ; 1 C _ n 6 1 , ; - : - , ; = : - - - - = + @ $ @ < C %.%.C R E ~ C K B K J U E E M U ",
"! m q 1 1 , M K ^ / y 8 t f M n y 6 1 - - 6 M / ] ~ m t 1 , - - ; ; ; ; ; - ; ; , - = = @ + + , B / W I ~ T U I B M T T ~ E V V ",
"S h q 1 1 1 M B M K t 8 8 f f M y 8 8 1 f g.U.K.0...S m q 6 1 1 6 0 6 1 , , , 1 , 1 , < - @ + = ; M W W Y T T / n B ^ ' U I Z A ",
"Q g g 8 1 6 M B c f r 8 t n m M M f V Y ..i.F.K.l.3.! A m h g g m Z m m h y 0 6 0 0 6 6 , - @ + = , M Y / _ ( ' B M ~ ^ C A C A ",
"! h 8 f 8 8 B B f s 8 r y n g M A } ` ! ] X.] 0.0.X.S Q A A h A Z S Z S A g 0 q y g 6 6 6 , = @ = - 6 C _ <.( %.K B U E A A m Z ",
"X.M 8 n n r T n 7 ; - - - ; 1 y h h h m I Y Z m m g y q q 6 6 8 y y q q 0 8 8 6 8 6 1 6 8 1 > = : ; , M ..1.&.&.L B Y E S Z m Z ",
"3.} y f T M M M 8 , = + @ 1 1 0 8 6 6 0 0 q 6 8 1 6 , 1 , , ; , , , - - @ @ = - @ @ + @ = - - ; , 6 1 M ' t.u.9.K B U ^ m Z m Z ",
"v.g.C y ^ / M M n y y y h Z m m Z h m N F F F G G G G G G F G N j q 6 1 1 ; ; ; ; - @ @ @ @ ; r M V 0 V X.r.1.X.K H K K U Z A Z ",
"B.K.>.n n <./ W W W m A A Z S ! 3.3.' ] +.y.1.t.y.t.' o. .o.G F N N N j g N g g y y 6 1 7 6 n ' ] ..y Y %.4.' ( H J B K Z S Z A ",
"V.Y.M.~ f ^ 1.' ] ~ ~ W ! m Q 2.5.,. .+.1.9.%.r.t.&.U n F N j 8 j j y q j a y y y 0 0 q g I 7.e.9.! f W %.%._ K H H L K I Z Z Z ",
"t.T.R.M.V n } } R E E ) Q A m I M n n C N j f l x l d r 7 7 3 7 7 9 7 9 r y 8 q 8 6 8 g Y x.l.>.' C n >.%.' T H c J L J M M M C ",
"P y.U.Y.t.l T >.' / ! ) ! S h y 8 6 6 8 8 8 8 8 r r r 7 7 < < < < 3 3 7 9 9 r r t 8 g E f.M.i.+._ g Y >.1.^ c n c J J B M B B B ",
"L 1.v.R.M.^ f ..3.0.! ! / S g f y y 8 y y p y f f f 8 9 7 3 > < < 7 < 7 7 9 8 r y n C 9.v.v.&.<.W f E } ' B s d x H f B B B n B ",
"L ( 9.m.U.9.f M w.7.} Q ! A g g g y y l M B M M n d 8 9 7 7 < < 3 7 7 9 s y t f n U 1.y.K.t.%.<.V n W T C d d s c x x B C J M B ",
"L $.&.y.f.v.K f ' 5.,.! S S g n g n M ~ ~ ~ ~ W M l r r 9 7 3 7 7 t f M n B M C V 9.f.m.f.i.t.>.f C W W l r r f r f J C J ~ R U ",
"P *.&.+.y.f.&.f M 3.e.! ..S h g h M ..l.F.i.e.,.~ V n f s s f f M T ~ _ <.] ~ ~ %.f.y.f.f.f.v.U n E E V d r r r i c J T _ ( ^ W ",
"#.=._ r.&.M.>.T V >.e.3.3.,.m h m ] g.b.b.b.a.g.i.9.{ ( K $.( r.u.g.0.i.b.b.X.>.9.f.9.f.v.f.9.M M ~ C n s f r s x K J ( $.K B C ",
"$.*.$.$.$.P c ^ _ } l.i.3.,.S A Q i.f.M.j.i.q.>.v.f.f.f.V.V.L.V.L.m.v.9.4.+.' { 9.y.r.q.f.f.<.V ~ E M r s x d f J J P L K J B n ",
"L *.*.*.$.c 5 x K +.b.K.,...,.....U.P.K.K.M.y.v.z.J.D.U.J.L.V.V.m.L.K.r.{ +.&.i.y.d.9.y.9.f.&./ E ' n 8 f J J L H J L P K ( ^ ^ ",
"L $.*.*.$.i 4 4 u K U.R.g.w.g.w.i.l.L.R.D.U.R.Y.R.R.(.!.).oXoX`.Y.Y.Y.1.1.r.9.r.y.1.4.i.t.y.<./ } _ l d s s i K c c J J ^ &.{ K ",
"b $.P #.P d 4 * < w &.(.R.i.>.g.j.b.L.E.(.'.!.~.{.@X(.oX#X:X=X>X#XV.i.y.>.1.' :.3.9.%.a.f.v.&.+.%._ i x s 7 7 B K J c J ( &.%.&.",
"z L P L P i : % : 4 c V.'.F.X.p.b.j.g.T.{..X XoX=X=X%X#X>X=XoX!.v.r.t.u.f.1.` ' >.9.r.9.f.M.y.&.<.J x x c e r d K P K H $.{ r.t.",
"w H L L J i * % & * w =.oX`.e.a.l.l.g.T.U.~. XXX!.~.Y.#X(.A.V.Y.9.y.a.i.%.| / ' ' 1.4.f.m.R.M.t.$.H c c u u e r s C K P P *.$.$.",
"w z L L H w & % & & 4 c `.oXY.a.f.a.9.N.K.U.U.L.v.u.i.f.f.y.l.u.8.u.%.' +.] _ | 1.9.y.y.U.U.b.9.$.c z H k k d 9 < r n L K H u w ",
"5 w v x k 5 # # % * * 5 =.<X|.F.i.9.<.L.T./.F.G.B.F.9.u.9.9.+.>.1.+.W ) ` } ' 4.8.<.{ f.Y.(.M.&.^ c 4 x H k u w = < 7 r 9 5 4 2 ",
"% * 4 5 u 5 % # % % * < J :X:XB.6.y.(.oX-X|.!.`.`.K.D.x.x.f.e.} _ ~ T Y ] +.%.9.y._ 1.m.Q.'.J.&.J x w 5 w 5 5 5 & $ : > > < < 4 ",
"O O # * 4 4 & O # % & < d oX<Xc.-.oX#X:X>X<X%X%X`.[.W.'.K.J.b.j.1.] C U ~ O.{ i.9.1.m.T.~.|.y.$.H i z 4 > > : 4 # % < 3 3 w 7 i ",
"O O O % * 2 & O O O & : B }.3X5XqX7X6X6X6X9XwX9X6X6X<X<X#X!.).~.R.v.&.K W W ~ O.6.s.K.R.'.).-.L H w w 4 2 * & & # # < 7 r d f x ",
". . . # % * & # . O $ < O.`.-X9XwXeX0X9X9XwX0XeXeXeX5X9X0X7X#X%X$X:X_.c.$.K D <.f.L.V._.#X_.P H c w : * & & O O O # & < 9 r r d ",
". . . O # & % # . X # d t.oX,X2XwXwX0X2X4X4X4X4X8X8X4X4X4X4X1X&X*X&X&X1X&X;.P =.C.Z.S.S.+X;.b v v w * & & # O O # # % * 5 5 w u "
};
