/* XPM */
static char *out[] = {
/* columns rows colors chars-per-pixel */
"64 64 229 2 ",
"   c #2B1608",
".  c #4A2415",
"X  c #5C2C1A",
"o  c #68321E",
"O  c #583F2A",
"+  c #763A24",
"@  c #7E3D26",
"#  c #63432F",
"$  c #6E402D",
"%  c #6A4D37",
"&  c #77523D",
"*  c #7F5D46",
"=  c #814A35",
"-  c #8E4B34",
";  c #96523A",
":  c #865540",
">  c #8C5D46",
",  c #9D5943",
"<  c #955F49",
"1  c #A45E45",
"2  c #89664F",
"3  c #9B644E",
"4  c #916A53",
"5  c #9A6F56",
"6  c #AB644A",
"7  c #A16851",
"8  c #AD6D51",
"9  c #A86D58",
"0  c #B36A51",
"q  c #B76F53",
"w  c #A1765D",
"e  c #AE755B",
"r  c #B4715D",
"t  c #B97658",
"y  c #A87B63",
"u  c #AE7D64",
"i  c #B77764",
"p  c #BD7564",
"a  c #B27861",
"s  c #B47F64",
"d  c #BB7E63",
"f  c #C1785B",
"g  c #C87E61",
"h  c #C07B6B",
"j  c #AC836B",
"k  c #BE8466",
"l  c #B3876E",
"z  c #BA876A",
"x  c #BF8B6C",
"c  c #B78C72",
"v  c #BC8E72",
"b  c #C38264",
"n  c #CC8566",
"m  c #C78568",
"M  c #C4816F",
"N  c #C48A6C",
"B  c #CC8C6D",
"V  c #CC8C6E",
"C  c #D18969",
"Z  c #D48C6E",
"A  c #D88F6F",
"S  c #C98270",
"D  c #C88973",
"F  c #CC8A78",
"G  c #D38E7E",
"H  c #C39072",
"J  c #C69677",
"K  c #C89172",
"L  c #CC9475",
"P  c #C09379",
"I  c #C5987F",
"U  c #CA997A",
"Y  c #CF9C7E",
"T  c #D19071",
"R  c #D09072",
"E  c #D29172",
"W  c #D09273",
"Q  c #D39273",
"!  c #D49374",
"~  c #D59475",
"^  c #DA9472",
"/  c #DD9876",
"(  c #D79778",
")  c #D1967C",
"_  c #D89778",
"`  c #D59A7B",
"'  c #D99878",
"]  c #D9997A",
"[  c #DB9A7A",
"{  c #DA9A7B",
"}  c #DC9B7B",
"|  c #DB9C7D",
" . c #DA9D7E",
".. c #DE9D7D",
"X. c #DC9D7E",
"o. c #DD9D7E",
"O. c #E09E7D",
"+. c #E29F7D",
"@. c #E2A07F",
"#. c #D89380",
"$. c #DD9E80",
"%. c #DE9F80",
"&. c #DF9F80",
"*. c #DD9986",
"=. c #D4A082",
"-. c #DFA081",
";. c #DCA386",
":. c #D8A485",
">. c #D7A88D",
",. c #DCA88A",
"<. c #DFAB8E",
"1. c #DFAF94",
"2. c #E0A081",
"3. c #E2A181",
"4. c #E3A181",
"5. c #E0A182",
"6. c #E1A283",
"7. c #E3A282",
"8. c #E4A281",
"9. c #E4A382",
"0. c #E5A382",
"q. c #E4A383",
"w. c #E5A483",
"e. c #E6A483",
"r. c #E5A484",
"t. c #E6A585",
"y. c #E7A685",
"u. c #E7A686",
"i. c #E8A786",
"p. c #E8A787",
"a. c #E9A887",
"s. c #E0A58A",
"d. c #E3AC8D",
"f. c #E7AD8F",
"g. c #E8A888",
"h. c #E9A888",
"j. c #E9A989",
"k. c #EAA989",
"l. c #EAAA8A",
"z. c #EBAA8A",
"x. c #EBAB8B",
"c. c #EBAC8C",
"v. c #EBAE8F",
"b. c #ECAC8C",
"n. c #ECAD8D",
"m. c #EDAD8D",
"M. c #EDAE8E",
"N. c #EDAE8F",
"B. c #EEAF8F",
"V. c #EEAF90",
"C. c #E9B193",
"Z. c #EDB091",
"A. c #EEB090",
"S. c #EFB090",
"D. c #EEB091",
"F. c #EDB192",
"G. c #EEB192",
"H. c #EFB192",
"J. c #EFB293",
"K. c #E1B49A",
"L. c #EEB899",
"P. c #EEBC9E",
"I. c #F0B293",
"U. c #F0B394",
"Y. c #F0B495",
"T. c #F1B495",
"R. c #F0B496",
"E. c #F1B596",
"W. c #F1B597",
"Q. c #F2B596",
"!. c #F2B697",
"~. c #F2B698",
"^. c #F2B798",
"/. c #F2B799",
"(. c #F3B799",
"). c #F3B899",
"_. c #F2B89A",
"`. c #F3B89A",
"'. c #F3B99A",
"]. c #F3B99B",
"[. c #F4B99B",
"{. c #F4BA9B",
"}. c #F4BA9C",
"|. c #F4BB9C",
" X c #F4BB9D",
".X c #F5BB9D",
"XX c #F5BC9E",
"oX c #F5BD9E",
"OX c #F5BD9F",
"+X c #F5BE9F",
"@X c #F1BFA1",
"#X c #F5BEA0",
"$X c #F6BEA0",
"%X c #F6BFA0",
"&X c #F6BFA1",
"*X c #F6C0A1",
"=X c #F6C0A2",
"-X c #F6C1A2",
";X c #F6C1A3",
":X c #F6C2A3",
">X c #F7C2A3",
",X c #F6C3A4",
"<X c #F7C3A5",
"1X c #F2C4A5",
"2X c #F7C4A5",
"3X c #F7C5A6",
"4X c #F7C6A7",
"5X c #F7C7A8",
"6X c #F7C8A9",
"7X c #F0CBAD",
"8X c #F8C8A9",
"9X c #F8C9AA",
"0X c #F8CAAB",
"qX c #F8CBAC",
"wX c #F8CDAE",
"eX c #F9CEAF",
"rX c #F3D1B3",
"tX c #F7D1B2",
"yX c #F0D4B6",
"uX c #F6D4B6",
"iX c #FAD3B4",
"pX c #FAD7B8",
"aX c #F1D8B9",
"sX c #F7D8BA",
"dX c #F5DBBB",
"fX c #FADDBE",
"gX c #F6DDC0",
"hX c #F9E1C3",
"jX c #FBE5C7",
/* pixels */
"1.G.i.i.' N u j u x ` C.L.@XoX$XXX,X,X8X3X4X8X8X=XXXoX,X3X8X,X3X.X%XXX+X].].^.(.G.E.Z.H.v.c.v.V.t.t.e.t.q.q.[ ..( ] ~ [ ' ( Q ! ",
",.i.m.b.a.~ b d N V W W W K ! q._.$X;X-X4X8X3X3X=X].[.=X4X8X4X%XXX]..X'..X).^.^.).J.G.H.F.j.v.c.h.w.q.0.z.0...} } } O.[ } } _ Q ",
"H O.O.e.w.O.k e < : = = & : & e Y f.C..X,X8X-X3X>X.XF.].4XeX;X+X[.].R.+X.X.XJ.{.~.W.v.J.U.Z.u.p.g.t.o.p.z.u._ } ..} ( o.O.[ T A ",
"x ^ A / / k < & $ $ o X X X X $ > e N %.{.$X%X=X=XJ.F.R.8X4X;X_.T.J.Y.oX,X%X XXX*X{.F.J.^.S.t.t.j.a.y.p.x.u.o.| %.} } O.@.( T Z ",
"z ^ C A f 1 > e x :.:.v 4 * & : > 3 8 V ] n.[.$X_.U.M.{.%X>X.X^.v.Y.U.OX%X>X%X*X%X$X_.E.Z.n.p.u.t.z.e.v.u.t.5.5.o.5.2.7.' ! C Z ",
"v ..C Z f d  .F.oX;X>X,X@XK.=.P N a d V ! { v.(.[.S.B.E..X_.T.v.l.z.H.^.%X=X;X=X;X_.R.f.6.] ( ) 5.5.o.o.6.2.%.$.%.6.6.&.[ ~ Z C ",
"c @.A } ^ v.v.^.{.%X_.oXoX].F.C.v.5.E ! ( | 5.U.J.^.c.J.E.^.c.d.t.x.j.R.[.$Xf.j.` Y k k 9 7 3 9 e k a s m K B Q | 0.-.5.-.} m n ",
"c @.O.0.v.B.B.Z.U.n.c.Z.!.R.v.d.u.w.o.| O.%.6.G.R.S.c.N.T.U.j.( [ o.-.6.v.5.V a 3 = $ o X O X X # = : > 7 e i d B R ! ' %.' C m ",
"c 5.4.z.u.p.b.b.E W s.J.^.oX^.F.6.( B ! ( w.h.H.U.J.n.S.S.!.z.E m R V ~ R m 8 < @ o X X . X . . . o $ = = > , 7 7 9 r T ( ( C m ",
"z ;.0.w.t.h.w.T b f.@X>X>X%X.XR.M.| n d B } u.c.H.S.m.n.A.S.b.B d d b m k 0 , = @ + $ $ $ @ : : 3 7 7 < < < < < - - , 6 t m m f ",
"v s.o.j.z.x.A k 5.+XL.@X].].v.c.u.O.C f f Q ( w.S.!.c.M.S.U.6.R d d t a r 6 - - = = = , e m W o.q.q.( W V k a 7 ; > - > 3 9 9 t ",
"v ,.s.j.I.j.B m Y.L.f.) H d e 9 a t f f b m T ..M.{.{.R.Y.S.q.! V d r 8 1 ; - - ; ; 7 t L ( ] E ! ~ ! W ( ~ W R m e 3 , < > > 3 ",
"v :.s.v.F.B.V E s.J < = $ # O . X o = , 6 t m } t.+X4X,X[.`.n.o.m d 8 1 ; - - - @ ; e L  .c.d.q.W R b t 8 r k Q V N k a 3 > : : ",
"x U 6.s.Z.c.W m w X .     . .     . X o + - 8 ^ x.=XiXeX6X$XR.2.b 6 1 , - = @ X @ 9 x H Y =.:.` ( W V b e , - 6 k K K N e 3 > : ",
"J Y o.R o.( t ; @ o X o $ # . . . O o $ $ $ = { H.3XtXpXeX3Xv.] r 1 , ; = = o . = - = $ $ = $ $ : < 3 7 7 3 < = , H m b k i 7 < ",
"Y Y u.! m r - , ! ' K K K d e 9 e e a 9 e k T n.XX,XiXpXeX=Xj.B 0 1 1 ; ; 8 ; = - - = + X X     . . . . . . X X X 7 V W R k t t ",
"Y =.s.3.! 6.t.0.[ h.c.M.j.p.%.~ Z T Z _ ^ ' } E..X0XeXtX4X%Xu.n 6 1 8 b t T O.%.( { ( { m s 3 : + $ X X . . . . . $ r t 8 f b B ",
"=.=.f.W.(.T.J.z.h.4.4.} _ ~ ^ ~ ^ Z Z g f b v.$X,X6XqX4X-XF.X.b 0 0 q C / [ 0.O.[ ~ _ } &.X.T n m b d 8 7 3 ; = = - 1 , 8 f b b ",
":.=.:.M.!.[.E..X[.n.A n n n g g f q 1 8 ! ].%X3X6X9X,X,XXXt.n b g n m n } j.0.j.x.%.n b f m b b t t t n T ~ C Z n 6 - 8 B ..[ ..",
"=.Y $.p.T.!..X=X8X>X XV.0.T b t d b ! F.6X0X4X8XeXeX3X%XY.{ m b C ^ ^ _ 8.a.y.p.S.I.F.3.W d 8 6 6 6 6 6 0 6 , = = - 8 T [ B m / ",
"=.=. .j.B.!..X4X8XeX,X=XXX$X.X.X.X3X>X0X4X0X6XeXtXiX,XoXp._ n n m A / w.w.a.a.z.m.U.U.^.W.[.^.v.%.W k r 8 0 r f n O.[ ..o.8.B t ",
",.;.6.k.^.[.$X4XeXtXeX3X%XOX.X$X0X9X4X,X3XqXeXtXiXeX%XS.k.} Z C n n n g Z ^ O.y.B.I.(.!.^..X$X{.-X}.[.Q.(.T.R.B.S.n.u...Q ( o.m ",
"<.<.6.b.!.=X+X0XiXsXeX4X>X.X!.>XeXeX3X,X8XiXeXsXgXeX(.S.m.k.' ^ n f 0 t q 0 6 g @.(./.).`..X^.+X=X2X].$XXX].V.V.n.S.t.w.( ~ ( &.",
"d.;.t.U.XX,X8XeXfXfXiX5X3X>X-X6XeXeX3X4XeXeXsXsXhX4X^.S.S.M.B.t./ b t n A b 6 , r ~ j.).XX[.;X=X4X3X=X#XXX(.(.c.c.k.t.8.8.T T 2.",
"6.;.p.(.XX8X0XtXsXhXsXeXwX9XqXeXqXeX3X3X,XeXiXgXtX4X(.(.H.(.H.4.Z g n O.w.t./ q - 1 b 5.F.$X,X8X:X,X;X-X%X.X(.H.t.u.w.w.0.@.T %.",
"d.;.j..X=X0XwXeXsXsXsXiXtXqX0X4X=X^.v.v.-XeXiXsXiX,X&X{.$X].u.n t t Z @.0./ ^ t ; - ; r ' F._.:X>X%X&XOX.X.X_.S.n.i.t.u.k.w.[ _ ",
"c.j.d..X<XeX6XeXiXpX6X8X4X;XR.b.@.Z f u.,XiXiXsXpXtX=X+X].6.k 8 1 6 6 8 0 0 1 1 1 0 6 6 r ' u.U./.$XJ.^.[.!.B.B.z.a.8.u.z.h..._ ",
"V.u.l.XX>X2X,X3X8X,X$XT.V.t.~ f 6 1 C oX6XtXfXhXjXsX0XoXu.f , = o $ + $ + = - , 8 q q t q t T 0.n.!.H.S.E.B.m.x.b.k.u.t.z.e.@.[ ",
"u.t.z..X_.&X%X>X.X.XB.j.( n 0 ; ; m [.0X0XuXgXjXgXiX;Xj.d ; + + + @ + + + = = - ; 6 6 q q q 0 m ( w.p.n.e.j.p.k.i.j.e.h.O.0.@.O.",
"8.8.z.T.`.{.$X{.(.n.@.~ g 6 - ; V L.6XiXiXpXsXuXeXL.f.B , = + + $ $ $ o + @ @ = - - ; 6 q 0 6 8 b ! O.3.@.@.@.@.z.z.t.5.w.4.@.| ",
"u.0.w.S.S.!.U.(.n.4.C b 8 ; - m f.,X4XiXtX0X,X@Xf.! 8 , - @ $ + + + $ + + = + - = @ + - ; , ; - 1 k B ~ ] ..^ ..3.u.o.2.o.q.| O.",
"w.@.@.k.S.S.M.n.4.Z f 8 , - e $.+X4X>X@X].F.F.U.H.W 6 ; , 6 1 - - = = = - - - ; - @ + @ - - - = = ; e R ' ] ! _ X.o.] ( | ..( ( ",
"o.@.@.z.x.M.k.t.E m 0 1 - 1 T j.L.F. .;.6.6.' ~ m 8 - , 0 T m 6 ; ; - - = - ; , : - - - - ; = + $ + : k ~ o._ ( R ~ R ~ ! ~ Q ( ",
"3.o.0.w.h.h.w...n t 6 , ; r ~ j.s.b t b E m t 8 1 = - 8 B ~ A b r 1 ; ; - - ; , , ; ; ; , ; ; - $ + + ; m ..[ Q A R R R ! K K W ",
"4.4.} 8.@.0._ ~ b r , , 1 V R $.V e 8 t V m r 8 6 3 b j.(.H.O.^ Z f 6 6 6 0 t f q q 1 6 6 6 1 3 < = + @ 8 ! ! ~ ^ Q V W ) H k L ",
"+.o.} } @.O.~ B f 8 , ; 8 ! W ( N 8 8 t T Q b k m ~ 5.n.!.H.t.O./ C n n C Z ~ _ [ _ n t q 0 0 0 7 ; = @ - t T R ~ W T ! ( K k W ",
"! / / } ^ } ~ n r 6 1 1 8 V V W s 8 r m T ~ B o.4.8.O.O.O.o.^ Z n g m n b g g Z C C b f q t t q 6 7 - = = , m T R ! ( X.) N x ! ",
"! ! } } / / A f t r 6 6 r m m N e 8 t d m n Z _ ^ C C n n m t 6 6 1 , ; ; , 1 1 1 1 , , 6 0 0 0 0 6 ; = = - t V ~ ~ X.] ` N k Q ",
"V L T ' } ..n t d b 8 6 8 m b d e t r r q f q t f t q q 6 , = = = - = - = = = : = @ + + @ = = ; 6 6 , ; = - 6 V _ &.] 6.:.K d R ",
"N N W { O.' Z q r b t 8 8 m N e e e 1 ; ; - - - < < - - = = : > < w x v v J I P l y < + o X . X = < , , ; , 6 m ..o.;.s.;.N x R ",
"d k R &.4.@.! t 6 b m b r m V t 9 , - = + o o o $ $ = 4 < > y l w v >.>.=.K.,.I l w * $ . .       o = , , 8 8 m ( %.$.;.` K N K ",
"d s K &.u.l.4.m 8 t Q T m N K d e 8 3 - ; - = o $ o $ : : & 4 2 : 2 y 5 2 5 2 & & $ $ o X . .     X = 3 d b b b ] o.o.] ) K H K ",
"d x N $.v.J.u.( t r m ( ! L m B b b d t b B 8 1 - = = 7 < > 5 7 = : = & = = = : : : = = = o . . o > , k ! _ m m O.6.( ~ J J H W ",
"k x N  .Y.(.J.j.m 8 d ` o.| ' ! E ! R Z C C F M h r 8 S F h G G i 7 < 3 9 3 3 8 9 3 3 7 < @ + - 6 8 q ~ 0.o.B V %.%.~ ! K H K W ",
"s N k  .C._.U.R.' r 8 W | X.( _ ~ ] _ / m C ~ X.#.D p p M h M D h h h D D S h F M h r r 6 6 6 t 0 t Z p.@.O.V _ X.-.( W x H K L ",
"z x H ) f.R.).E.v.W r d ] o.[ ! ~ [ ..^ Z b ~ X.3.#.G F #.#.#.#.G G #.#.*.G #.#.#.D h h h p p t q m 5.u.3.' B 3.t.] W N x x K m ",
"L ) H L :.{.F.^..Xd.d e L t.' ..} O.^ / ~ m d b D D F G G G #.*.*.*.D G #.#.D D D M p p q q 6 8 f O.j.q.3.E b ..t.] b d x H x m ",
"U =.) ) ;.F.J.J.^.f.K 8 d o.@.O.4.} _ ~ A n r 8 8 r p M D D F ) *.#.D M D M h p i r r 8 0 8 6 8 Z v.F.6.3.B m X.o.W s s x K N m ",
"J :.=.$.) d.v.F.Z.S.X.a 8 Q t.x.4.O.[ ^ C m b t 6 9 9 9 7 3 3 7 8 9 3 3 > < < 3 < < 6 9 8 8 8 f ] v.d.u.X.b T | W b s z k N K W ",
"Y =.:.=. .` d.j.f.u.t.d 6 k a.z.t.[ [ ^ Z b m b d r e 9 9 7 3 < < > > : : > > > < < 3 3 9 8 t W v.g.g.t._ b _ ] V d d s x K ~ ( ",
"=.,.=.:.=.=.` ` $.u.X.W a t ~ x.h.O.~ Z Z n b b b d a d k k e 9 7 3 > > > > : > < 3 3 9 r k V j.F.C.u.6.B T ( ! m a 9 d K ) Q L ",
"=.:.:.=.:.` K 9 H s.2.' V m ..9.a.4...^ Z C B V _ ] ~ T ~ T x d y w 3 3 3 3 3 9 a t t d m ! u.F.F.C.f.! V _ ~ B d a s x U =.K b ",
"U ,.:.,.=.J y 2 9 J ) ' Q ~ t.u.O.t.....Z _ X.6.c.S.B.j.u.t._ ! x k s d a t k V R ~ R W W 5.f.D.u.F.d.R V ( m d s x x U U U L ) ",
"J :.:.,.:.x 7 * * 4 z  .0.p.v.k.O.j.B.0...x.T.{.[.^.v.t.p.j.j.j.j.6.:.,.d.d.d.d.c.6.6.X.3.j.g.d.f.f. .T ( T k k H H H U ) Y ` ) ",
"v =.=.=.Y x 5 & * 2 4 J j.[.Y.!.q.h.c.A.v.V.Z..X].].F.F.B.^.F.L.].L.f.f.F.R.C.j.u.3.o.u.u.F.5.s.f.f.~ ( ~ N 9 s L K k K ) ` $.;.",
"l U Y Y Y z 2 % * * * w <.XX&X{.c.4.h.x.n.S.J._.-X#X%X+X:XoX].oX,XoXoXoX@XL.F.q.q.-.o.2.u.q.q.d.F.s.( ~ ) s 7 9 N K k H U =.s.d.",
"w H U =.J s * % & & 2 w J %X>X-Xv.u.w.S.m.F.^.oXoX%XoX3X,X3X,X8X@X:X:XoXr.6.f.c.$.o.( %.6.j.j.J.f.s. .~ k k w e a L L J H =.6.s.",
"w z U U H w & % % & * 5 z ].eX%XE.t.t.w.m.J.R.J.^.R.[.L._._.:X@XL.C.J.c.c.j.p.3.' ( ] %.d.v.Y.^.C.:.) H z j y e 9 e k K U U z u ",
"5 w c v l w # # % & & > e @XeX:X^.v.X.t.U.$XW.`.|.).g.v.N.N.u.d.u.b.t.u.p.t.' &.] -.( ;.c.^.R.E.d.=.z u H l y y : 3 9 s z w < 4 ",
"% & 2 5 j 5 # O # # & * 7 d.eX,XE.6.M.%X0X,X X].+X].J.J.!.S.t.6.w.@.' ] ] [ | o.6.g.| $.J.[.XXL.s.J d 5 y w 5 w * $ > > > > < > ",
"O O # * 4 4 & O # # & > 3 f.eX6X>.L.,XeX0XtXqX9X#X-XoX*X_.!.R.F.c.t.! R R ] ' q.q.j.6.f.E.oX].F.U k l 5 2 2 : 4 % # : < < 7 3 a ",
"O O O % & 2 * O O O % : d ^.eXtXsXsXuXtXiXsXhXgXpXeXiXtXeX-X$XXX$XE.6.L W ) ( $.6.l.J.~.=X;XC.U H e w 4 > : & * O # < 7 a s s z ",
". . . # % * & # . O $ < $.#X6XsXgXhXdXsXsXgXdXhXhXhXyXsXdXpX3X,X4XqX@XC.=.L D X.v.W.G.@X3X@X` H x w * * & & O O O # & < 9 e e a ",
". . . O # & % # . X # s d.,XrXrXsXdXdXrXyXyXyXyXaXaXyXyXyXyX7X7X7X7X7X7X7X1.Y ,.C.P.P.@X1X1.v c l w * & & # O O # # % : 5 5 w y "
};
