/* XPM */
static char *out[] = {
/* columns rows colors chars-per-pixel */
"64 64 217 2 ",
"   c #2B1608",
".  c #4A2415",
"X  c #5C2C1A",
"o  c #68321E",
"O  c #583F2A",
"+  c #763A24",
"@  c #7E3D26",
"#  c #63432F",
"$  c #6E402D",
"%  c #6A4D37",
"&  c #77523D",
"*  c #7F5D46",
"=  c #814A35",
"-  c #8E4B34",
";  c #96523A",
":  c #865540",
">  c #8C5D46",
",  c #9D5943",
"<  c #955F49",
"1  c #A45E45",
"2  c #89664F",
"3  c #9B644E",
"4  c #916A53",
"5  c #9A6F56",
"6  c #AB644A",
"7  c #A16851",
"8  c #AD6D51",
"9  c #A86D58",
"0  c #B36A51",
"q  c #B76F53",
"w  c #A1765D",
"e  c #A7755C",
"r  c #AE755B",
"t  c #B4715D",
"y  c #B97658",
"u  c #A87B63",
"i  c #AE7D64",
"p  c #B77764",
"a  c #BD7564",
"s  c #B27861",
"d  c #B47F64",
"f  c #BB7E63",
"g  c #C1785B",
"h  c #C87E61",
"j  c #C07B6B",
"k  c #AC836B",
"l  c #BE8466",
"z  c #B3876E",
"x  c #BA876A",
"c  c #BF8B6C",
"v  c #B78C72",
"b  c #BC8E72",
"n  c #C38264",
"m  c #CC8566",
"M  c #C78568",
"N  c #C4816F",
"B  c #C48A6C",
"V  c #CC8C6D",
"C  c #CC8C6E",
"Z  c #D18969",
"A  c #D48C6E",
"S  c #D88F6F",
"D  c #C98270",
"F  c #C88973",
"G  c #CC8A78",
"H  c #D08B78",
"J  c #D38E7E",
"K  c #C39072",
"L  c #C89172",
"P  c #CC9475",
"I  c #CD917C",
"U  c #CA997A",
"Y  c #CF9C7E",
"T  c #D19071",
"R  c #D09072",
"E  c #D29172",
"W  c #D09273",
"Q  c #D39273",
"!  c #D49374",
"~  c #D59475",
"^  c #D79778",
"/  c #D1967C",
"(  c #D89778",
")  c #D59A7B",
"_  c #D99878",
"`  c #D9997A",
"'  c #DB9A7A",
"]  c #DA9A7B",
"[  c #DC9B7B",
"{  c #DB9C7D",
"}  c #DA9D7E",
"|  c #DE9D7D",
" . c #DC9D7E",
".. c #DD9D7E",
"X. c #E09E7D",
"o. c #E29F7D",
"O. c #E2A07F",
"+. c #D89380",
"@. c #DD9E80",
"#. c #DE9F80",
"$. c #DF9F80",
"%. c #D4A082",
"&. c #DFA081",
"*. c #DCA386",
"=. c #D8A485",
"-. c #DCA88A",
";. c #DFAB8E",
":. c #DBAB91",
">. c #DFAF94",
",. c #E0A081",
"<. c #E2A181",
"1. c #E0A182",
"2. c #E1A283",
"3. c #E4A382",
"4. c #E4A383",
"5. c #E5A383",
"6. c #E5A483",
"7. c #E5A484",
"8. c #E6A585",
"9. c #E7A685",
"0. c #E7A686",
"q. c #E8A786",
"w. c #E8A787",
"e. c #E0A58A",
"r. c #E3AC8D",
"t. c #E7AD8F",
"y. c #E8A888",
"u. c #E9A888",
"i. c #E9A989",
"p. c #EAA989",
"a. c #EAAA8A",
"s. c #EBAA8A",
"d. c #EBAB8B",
"f. c #EBAC8C",
"g. c #EBAE8F",
"h. c #ECAC8C",
"j. c #ECAD8D",
"k. c #EDAE8E",
"l. c #ECAE8F",
"z. c #EDAE8F",
"x. c #EEAF8F",
"c. c #EDAF90",
"v. c #EEAF90",
"b. c #E4B195",
"n. c #E9B193",
"m. c #EDB091",
"M. c #EFB090",
"N. c #EDB192",
"B. c #EFB192",
"V. c #EFB293",
"C. c #ECB496",
"Z. c #E6B599",
"A. c #EAB79A",
"S. c #EEB899",
"D. c #EEBC9E",
"F. c #F0B293",
"G. c #F0B394",
"H. c #F0B495",
"J. c #F1B495",
"K. c #F0B496",
"L. c #F1B597",
"P. c #F2B697",
"I. c #F2B698",
"U. c #F2B798",
"Y. c #F2B799",
"T. c #F3B899",
"R. c #F2B89A",
"E. c #F3B89A",
"W. c #F3B99B",
"Q. c #F4BA9C",
"!. c #F4BB9C",
"~. c #F4BB9D",
"^. c #F5BB9D",
"/. c #F5BC9D",
"(. c #F5BC9E",
"). c #F5BD9E",
"_. c #F5BD9F",
"`. c #F5BE9F",
"'. c #F1BFA1",
"]. c #F5BEA0",
"[. c #F6BEA0",
"{. c #F6BFA0",
"}. c #F6BFA1",
"|. c #F6C0A1",
" X c #F6C0A2",
".X c #F6C1A2",
"XX c #F6C2A3",
"oX c #F7C2A3",
"OX c #F6C3A4",
"+X c #F7C3A5",
"@X c #F2C4A5",
"#X c #F7C4A5",
"$X c #F7C5A6",
"%X c #F7C6A7",
"&X c #F7C7A8",
"*X c #F7C8A9",
"=X c #F0CBAD",
"-X c #F4CDAE",
";X c #F8C8A9",
":X c #F8C9AA",
">X c #F8CAAB",
",X c #F8CBAC",
"<X c #F8CCAD",
"1X c #F8CDAE",
"2X c #F9CEAF",
"3X c #EECEB0",
"4X c #F3D1B3",
"5X c #F7D1B2",
"6X c #F0D4B6",
"7X c #F6D4B6",
"8X c #FAD3B4",
"9X c #FAD7B8",
"0X c #F1D8B9",
"qX c #F7D8BA",
"wX c #F5DBBB",
"eX c #F6DDC0",
"rX c #F9E1C3",
/* pixels */
"-.t.` %.U L c c K :.>.S.t.b.b.b.>.b.b.b.b.A.A.A.A.A.Z.D.A.S.Z.C.t.n.-.e.e.t.t.t.1.2.*.7.&.2.&.2.` ] } @.] ` W W R C C E R E C R ",
"-.;.2.) Y L L %.>.b.C.A.A.b.A.A.C.C.C.A.D.D.].A.D.~.]..X.XL.L.R.I.G.r.r.N.r.G.N.c.e.e.y.a.7.2.$.&.{  . .$.[ ` W E C T T Q E R C ",
"Y :./ 1.1.*.e.C.R..XC.S.Q.~.~._.R.].A.~..XOXD.]._.}.S.D.}._.K.I.I.R.f.N.F.L.f.c.c.c.4.i.a.u...| ' X._ | &.$.~ Q ~ ! V Q ~ ! V A ",
"L 2.7.G.R.Q.~.~..X(.].].%X.X(._.$X#X.XXX&X$XoX].XX XR.~..XQ.U.K.R.S.V.m.K.B.l.g.f.u.5.5.j.6.' ' ' ' _ ' 2...~ R ~ T T Z E T V C ",
"2.G.G.I.I.S.R._.].oX_.$X]. X).|.].+X%X$XXXXX[. X~.|.~.~.L.I.L.L.L.I.V.B.y.h.s.s.y.i.9.p.6.} _ [ _ { _ 2.{ ' ~ E C A Z A V A m Z ",
"f.m.K.K.E.E.!.(. X X[.]. X X].).|.}.OX#X X}..X{.{. XW.I.I.F.L.K.I.L.F.f.s.u.a.w.8.2.p.s.u.| ' ' ' ] { @.$.` ! C R Z Z Z Z m m m ",
"2.7.1.i.I.~.L.(.].oXQ.}.{.|.L.I.|.}.Q.|. XoXK.I.W._.K.I.U.I.N.L.P.I.V.V.g.d.5.0.9.a.8.a.y.6.` @.@.&.{ &.#.[ V R R A m Z m m h h ",
"3 3 4 e Y t.L.I.XX{.Q.[.|. XT.G.W.W._.].XXR.K.I.R.!.E.I.W.L.I.I.W.P.G.c.M.i.y.8.f.s.y.y.f.8.@.| 1.,.#. .,._ T m V m h h m M g g ",
"X X X # & 5 c *.7.G.Q.[._.Q.T.G.G.R.(.).I.I.L.L.V.R.~.W.}. X}..XW.I.K.f.2.8.2.y.8.2.0.y.&.2. .&.{ #.} &. .' ~ Z n h g h g g g g ",
"5 & $ # $ = < 9 c ` f.G.I.I.I.f.B.I.E.W.G.G.V.f.M.L.Q.}.XXoX#XR.~.t.*.U L B B B C n n F W Q ` ^ } {  .{ $._ E m n f f g g g g y ",
"b.>.b k r 9 3 8 f M W y.T.I.x.x.x.L.f.B.N.c.2.8.f.I.I..XR.Q.*.Y c s 4 : = = + = > < < r f n l n C ~ ! ( ] _ m n n f t y f g q y ",
"I.G.t.e.*.^ C n n n C  .B.L.M.x.x.v.f.f.M.2. .2.s.M.N.N.7.B 9 : $ o X . . . . X $ + + : 3 3 3 7 8 y n C ! C M n n f y y g a y y ",
"*.7.4.=.` ~ R R C R ~  .2.z.c.F.i.F.d.V.7.~ E ^ ^ &.&.' f 3 = + X o X . X X # & = : = : : : : > - , 3 8 y f f l y f y g y g y y ",
"R.Q.I.N.f.@.R l f M ` @.6.f.z.f.c.c.x.v.X.M M M C C M f 6 - + + + + + = < 9 f L P c s 9 9 7 < : > ; < < < < 9 8 t t t 0 q 0 q q ",
"~.G.e.e.*.1.W F y t n ( $.f.w.f.f.z.p.d.6.M y n n M t 8 , ; = = - , 6 f C @. .7.7.*./ P / C l p 9 7 , < > > : < 8 8 6 8 6 8 6 6 ",
"x 5 : = : : 7 r y 0 y Z | 6.a.x.j.p.w.0.6.E f y f y 8 1 , ; - ; 7 8 y C W Q R R ^ ^ W W ^ ` ^ P B f r 3 < > = - , 1 1 1 6 6 1 1 ",
".     O     . $ - 7 0 n T O.B.I.c.d.p.p. .Q F n y 0 1 , ; ; : - = , f W ~ ^ C n y t 6 6 8 n R ~ C C n s 6 3 - ; , 6 6 0 8 q 0 0 ",
"  . # O         X + - 6 V ' f..X].v.I.N.a.] M y 8 1 ; - = + o + 9 B L W ) ^ ^ W B M y , - @ 1 l F n l f y t t t 0 8 0 8 q q t q ",
"$ % % # . . . . $ $ o @ f X.w.%X5X*XQ.G.V.X.y 6 1 , - = @ X X < 3 & . # X X # & 4 3 < 3 4 = o 3 c R B M f l f y y y q y g f g h ",
"+.C x 5 4 > * 3 e > = @ t i.B.*XqX7X*XW.B.Q 8 , 6 ; - = + X $ $ o X   .               . . . X o d W n a n n f y n g y g n g g g ",
"w.B.i.7.&.2.` Q Z T C ` O.I.Q.,XqX7X,X].2.M 6 1 8 , , t 8 , 7 s s k e * O O O # . . . . . . . X - 1 , 0 f n n n f g g n h h h m ",
"O._ ' ( ( A A A ~ ~ T T 5.Q.oX<X8X5X*XI.X.f 6 1 g n n ^ 6.6.X...X.1.&.~ B f f l d r 9 7 > - = 1 0 1 n ^ | 6.8.8.~ n n g f y y y ",
"Z T Z A ~ ~ Z m h g t ` ~.%X+X2X7X2X~.c.' g 0 q h | | O.6.9.Q T E ......( Z h Z h M h Z Z ( Z g , 1 f T C ~ E ~ y 0 1 6 8 8 6 t ",
"8.Z y 0 0 0 6 1 6 B t.%X,X>X<X,X2X+XG.O.~ M g m T E O.w.c.s.w.O.~ y 8 0 g y 8 8 t g h M m t , - 6 ~ ` ' ^ f 8 6 8 y t f n l l l ",
"~.~.c.4.` W ~ 7.C.*X%X,X&X2X<X2X>X}.w.( M Z A ' ' X.6.p.s.d.x.I.G.t.W f 8 6 1 , ; ; - - - ; 6 M _ ] ~ X..._ f n n n f f l l f n ",
",X+X}.Q.}.+X,X<X>X+X&X$X,X2X7X2X;XI.X.Z m Z ( X.w.w.w.q.f.h.G.G.P.I.R.~.~.G.f.@.^ C C ^ @.y.B.u.a.O._ E X.2. .#.B s r s s s s s ",
">X2XP.(..X<X>X2X:X*XOX>X5XqX5X*X].B.' A Z A Z ~ o.q.X.s.h.B.d.v.K.Q.K.R..X%X X X XR.N.P.E.E.v.k.k.y...R ! 6.O.9.R f r s f f y s ",
"7X1XOX XoX2X<X%X2X$X>X5XqXrX7X.XR.c.O._ A Z M h h g g h A O.a.x.P.P.P.S.+X$XOXOX X X~.E.~.G.z.y.s.w.o.' Q ^ @.O.^ l f f M n l l ",
"8X2X#X<X>X2X2X<X+X%X<X5XqXrX5X.XG.N.s.5.X.~ g g h h y 6 , 0 E x.F.(._.[.+X%X&X:X$X$X]._.L.G.s.u.5.u.5.0.` Q ' X.^ C n B n B M M ",
"qX8X>X,X<X2X<X<X,X&X>X2XqXqX2X].I.G.J.h.p._ h g A | ' Z 0 , , f X.I.~.Q.oX%X&X%X;X;X%X.XR.G.i.w.s.w.4.6.O._ ~ X.' C C B V F F V ",
"2X,X.X+XoX.Xc.y.f.~.].5XqXqX%X.X~.T.R.V.6.~ h m O.f.o.o.Z 1 - ; 8 R 8.L.~.+X].$X].].I.Q.G.G.p.i.j.h.5.9.5.O.E  .' ~ F R C W M L ",
"}.I.c.f.8._ n g w..X%X7XrX7X*X$XoX).K.@.m g g Z O.q._ Z h 6 , , 1 6 n [ F.I.W.(.R.W.L.c.P.M.x.d.j.a.8.6.6.O.^ ^ ` C M V C C C V ",
"i.6.( m 0 , 6  .~.>X<XqXqXrX7X2XOX X2.f 6 6 1 1 , 1 , , , 1 q g y q 6 n _ s.M.T.B.B.v.x.h.h.s.j.0.u.5.5.<.5.' _ C R V C C R R W ",
"' m y , - ,  .+X2X>X7XrXrXrXrX2X+X&.y ; = $ + $ + $ + - , 6 0 y y y y 0 g ~ O.w.d.d.y.9.s.q.p.a.0.5.O.$.5.#.{ ~ C C C R T R C C ",
"h 0 = = 6 r.~.>X7XqX5XrXrXrX<X%Xt.f - @ $ + + + + + + - ; , , 1 0 q y y 0 f n ( o.q.} o.5.8.$.5.5.X.' ` }  .W W C C M M C R M V ",
"6 ; @ 1 2.].%X<X7X7X2X5X2X+XN.2.B 1 = + + + $ $ + $ + @ - - - = ; 6 6 1 6 1 7 f E ~ ~ ^ [ [ ' ..X.^ ~ ~ ) ~ W E E C C V R C V V ",
"; - , W t.oX*X>X<X*X].].G.t.C t , - @ + + + + + + + = - - = + + @ - ; - - - = > r R ~ _ ! ^ E ^ ~ ( ~ / B C W W R Q V W C C Z A ",
"- ; n ^ N.R.t.*.t.r.8.y.f.7.C 8 , , 8 6 ; ; = = = = - ; < - = = = = - - = + + + = 7 ~ @. .~ E ~ Q Q ! W c B W W ) / C V C A C A ",
"; 0 C ^ i.) s y R ' R C M n , - ; n R C 0 6 ; ; - - - ; ; < - : - - - ; - = + $ + = 3 C ] | R ! ~ ^ R W n l W ` ` ~ V C A A m Z ",
"; f C C ) y 8 6 f n f 8 8 ; + = t Q ^ ~ V a 6 , , - ; ; , , ; - ; ; ; ; , < - = = + + , B ^ E ~ ~ ! ^ ) B l W W ~ R V Z V Z m Z ",
"; f B B B r 6 8 t f g 0 8 3 1 C f.G.8.X.A Z g 0 1 1 1 y q q 6 8 1 1 1 6 6 6 7 < = = + @ , M C ^ ~ ` } *.c l C / W R m Z m Z m Z ",
", s B l x 9 6 8 f n n n n M Q 2.f.B.l.i.O.' ~ h h h h m Z T Z h y 8 8 q q 6 6 1 , = + + - 6 R ~ ' @.&.*.P c W P / C m m Z A A Z ",
"8 f B r r r 7 9 r f f m ( X.( ( _ X.' X..._ Z m h h h h Z A m h y y 6 0 q 8 6 8 1 > + = - , n ~ @.4.$.*.U L K P P R n Z A S Z A ",
"B n C 9 < - = = - , 0 g m g g h m h g g y 0 6 , , ; , 1 6 6 1 ; ; ; ; ; ; ; - - ; - - - 7 7 y ^ @.&.&.&.Y K K L / C M M T Z Z Z ",
"n W B s 7 ; @ = - , , 1 , , , 1 1 1 , , ; ; ; ; - ; ; ; - - = @ + @ = = + + + @ + - 7 f n t f ' @.2. .%.K L K Y P B n F M M M C ",
"0 P B l f t t y n g g g g a g a a a j N D G H H H D j a p q 0 6 6 8 0 0 0 6 6 1 1 y ^ ..&.f M ` $.@.X./ K c L U U B B B M B B B ",
"t B W C C R V T h A ~ '  .2.J +.2.7.&.&.&.` J J J H j N N D a j h h y y y y 0 y M 8.y.O.5.M M ' 2.2.Q C c K c U L C n B B B n B ",
"B f ~ ! C C T ~ C T ....&.&.&. .w.@.&.*.*.I N D D a p j j p q g a y 0 0 0 q y V w.B.4.| ' n ~ &.2.` C c c l c c c K B B C V M M ",
"~ p l ` Q Q ^ ^ A Z M C n n C G j j l c x p e 9 3 3 3 r 7 7 9 r 0 t 0 q 8 t M 8.N.v.&.' V n ' 8.@.W l f s l c x f l C W C W Q R ",
"r.W p R  .' ' _ ^ Z a 0 8 7 7 7 7 7 9 9 7 7 4 < < > > < 3 < 7 7 0 8 r t t n  .c.N.f.1.$.M n ....^ B d s d c f p x B P P ) / W ~ ",
"-.t.B f  .7.| | ( T g t t r 7 t t f r r r r 3 4 < > : < < 7 3 9 r t 8 t n ^ t.N.N.7.@.2.f T E _ Q f r s f f s d c P K ) P P B B ",
"=.*.) B W 1.X.{ ' T g t y t r f B B M f f s 9 7 3 < < < 9 r t y f f l n W 7.c.l.M.t.e.^ n E ~ ~ C f s r d f d x L U Y P L B B B ",
"Y =.=.Y K &.^ &.` ' h y t f f ..8.2.' W M n s r 9 9 9 r f C R ^ Q W E Q } f.l.N.t.g.t.~ n R ~ ( B M r s d Y b K K U Y ) / ) U P ",
"U %.=.Y c P @.6.| o.A n g n T f.G.x.y.&.2.| } ~ L W ) *.e.r.f.f.f.2.&. .2.t.g.t.t.t.t.W V T ~ ! V l r r d d U L K L P / } } ) P ",
"b %.Y Y s k L @.f.x.' ~ A E _ B.I.K.2.2.7.r.8.f.t.C.t.I.n.S.t.C.r.1.~ } 7.r.2.t.y.t.*.W ~  .T ~ C f r r 7 7 d U B K c Y *.r.&.} ",
"z U Y U c u 3 s *.I.y.O.3.y.w.i.I.I.m.c.B.N.N.N.I.I.C.n.D.D.A.F.i.@. .` 2.2.2.2.r.y.e.`  .@._ ~ P f c k u e r c / L c U } e.e.*.",
"w K U U x 5 & 2 i f.t.F.a.s.h.f.B.E.S.U.I..X].R.I..XS.*X X.XI.t.1.e.} @.' @. .2. .e.e.*.7.*. .@.K f c k u e e r d P P Y Y %.%.) ",
"w z U U k 4 & * * s ) K.R.v.w.w.c.B.T.R.}.}.].]..X X].XX~.R.f.*.7.y.2. ._ ' ]  .2.e.t.t.F.t.*.} L e x x k k d 3 7 r B U U x r w ",
"5 w v x k 4 # % & 4 e %. X].f.d.i.i.f.N.I.(.U.R.c.N.n.t.f.N.w.i.a.y.] _ ' [ ^ &.7.f.e.g.R.W.7.) L e 5 b z k u 3 = 3 9 r 3 5 4 4 ",
"% * 4 5 u 4 # # % % > e b.,X~.g.8.4.B.R./.~.K.K.G.t.y.y.y.7.2.2.$.` ~ ^ #.[ &.2.4.@.g.n.!.R.i.U c x 5 w w 5 5 3 & + : : > > < 4 ",
"O O # * 4 4 % O # % * 3 L :X:Xr.e..XXX,X%X+X~.}.R.W.H.Y.f.i.4.0._ Q Q ~ ~ @.2.i.&.2.N.E.^..Xe.U x d k 4 > > 2 2 # % < 3 3 w 7 i ",
"O O O % * 2 & O O O & : C  X5X2XqX9X8X8X8XqXqX9X1X1X>X$X.X~.`.!.C.r.) P ! ~ ] @.6.d.B.I.[.`.r.K c w u 4 4 : & & O # < 7 r d f x ",
". . . # % * & # . O $ < @.].:XqXeXrXwXqXqXeXwXrXrXrX7XqXwX9X$X&X%X,X'.b.%.L F #.g.L.C.'.$XD.Y K c w * * & & O O O # & < 9 r r d ",
". . . O # & % # . X # d r.OX1X4XeXeXwX4X6X6X6X6X0X0X6X6X6X6X3X=X-X=X=X3X=X>.Y -.Z.A.D.D.@X>.b v v w * & & # O O # # % * 5 5 w u "
};
