/* XPM */
static char *out[] = {
/* columns rows colors chars-per-pixel */
"64 64 225 2 ",
"   c #2B1608",
".  c #4A2415",
"X  c #5C2C1A",
"o  c #68321E",
"O  c #583F2A",
"+  c #763A24",
"@  c #7E3D26",
"#  c #63432F",
"$  c #6E402D",
"%  c #6A4D37",
"&  c #77523D",
"*  c #7F5D46",
"=  c #814A35",
"-  c #8E4B34",
";  c #96523A",
":  c #865540",
">  c #8C5D46",
",  c #9D5943",
"<  c #955F49",
"1  c #A45E45",
"2  c #89664F",
"3  c #9B644E",
"4  c #916A53",
"5  c #9A6F56",
"6  c #AB644A",
"7  c #A16851",
"8  c #AD6D51",
"9  c #A86D58",
"0  c #B36A51",
"q  c #B76F53",
"w  c #A1765D",
"e  c #A7755C",
"r  c #AE755B",
"t  c #B4715D",
"y  c #B97658",
"u  c #A87B63",
"i  c #AE7D64",
"p  c #B77764",
"a  c #BD7564",
"s  c #B27861",
"d  c #B47F64",
"f  c #BB7E63",
"g  c #C1785B",
"h  c #C87E61",
"j  c #C07B6B",
"k  c #AC836B",
"l  c #BE8466",
"z  c #B3876E",
"x  c #BA876A",
"c  c #BF8B6C",
"v  c #B78C72",
"b  c #BC8E72",
"n  c #C38264",
"m  c #CC8566",
"M  c #C78568",
"N  c #C4816F",
"B  c #C48A6C",
"V  c #CC8C6D",
"C  c #CC8C6E",
"Z  c #D18969",
"A  c #D48C6E",
"S  c #D88F6F",
"D  c #C98270",
"F  c #C88973",
"G  c #CC8A78",
"H  c #D08B78",
"J  c #C39072",
"K  c #C69677",
"L  c #C89172",
"P  c #CC9475",
"I  c #C09379",
"U  c #CA997A",
"Y  c #CF9C7E",
"T  c #D19071",
"R  c #D09072",
"E  c #D29172",
"W  c #D09273",
"Q  c #D39273",
"!  c #D49374",
"~  c #D59475",
"^  c #DA9472",
"/  c #DD9876",
"(  c #D79778",
")  c #D1967C",
"_  c #D89778",
"`  c #D59A7B",
"'  c #D99878",
"]  c #D9997A",
"[  c #DB9A7A",
"{  c #DA9A7B",
"}  c #DC9B7B",
"|  c #DB9C7D",
" . c #DA9D7E",
".. c #DE9D7D",
"X. c #DC9D7E",
"o. c #DD9D7E",
"O. c #E09E7D",
"+. c #E2A07F",
"@. c #CA9E84",
"#. c #D89380",
"$. c #D89982",
"%. c #DD9E80",
"&. c #DE9F80",
"*. c #DD9986",
"=. c #D99E87",
"-. c #D4A082",
";. c #DFA081",
":. c #DCA386",
">. c #D8A485",
",. c #D7A88D",
"<. c #DCA88A",
"1. c #DFAB8E",
"2. c #DBAB91",
"3. c #DFAF94",
"4. c #E0A081",
"5. c #E3A181",
"6. c #E0A182",
"7. c #E1A283",
"8. c #E3A282",
"9. c #E4A383",
"0. c #E5A383",
"q. c #E5A483",
"w. c #E6A483",
"e. c #E5A484",
"r. c #E6A584",
"t. c #E6A585",
"y. c #E7A685",
"u. c #E7A686",
"i. c #E8A786",
"p. c #E8A787",
"a. c #E9A887",
"s. c #E0A58A",
"d. c #E3AC8D",
"f. c #E7AD8F",
"g. c #E8A888",
"h. c #E9A888",
"j. c #E9A989",
"k. c #EAA989",
"l. c #EAAA8A",
"z. c #EBAA8A",
"x. c #EBAB8B",
"c. c #EBAC8C",
"v. c #EBAE8F",
"b. c #ECAC8C",
"n. c #ECAD8D",
"m. c #EDAD8D",
"M. c #EDAE8E",
"N. c #ECAE8F",
"B. c #EEAF8F",
"V. c #EDAF90",
"C. c #EEAF90",
"Z. c #E4B195",
"A. c #E9B193",
"S. c #EDB091",
"D. c #EDB192",
"F. c #EEB192",
"G. c #EFB192",
"H. c #EFB293",
"J. c #ECB496",
"K. c #E6B599",
"L. c #EAB79A",
"P. c #EEB899",
"I. c #EEBC9E",
"U. c #F0B293",
"Y. c #F0B394",
"T. c #F0B495",
"R. c #F1B495",
"E. c #F0B496",
"W. c #F1B596",
"Q. c #F1B597",
"!. c #F2B596",
"~. c #F2B697",
"^. c #F2B698",
"/. c #F2B799",
"(. c #F3B799",
"). c #F3B899",
"_. c #F2B89A",
"`. c #F3B89A",
"'. c #F3B99B",
"]. c #F4B99B",
"[. c #F4BA9B",
"{. c #F4BA9C",
"}. c #F4BB9C",
"|. c #F4BB9D",
" X c #F5BB9D",
".X c #F5BC9D",
"XX c #F5BC9E",
"oX c #F5BD9E",
"OX c #F1BFA1",
"+X c #F5BEA0",
"@X c #F6BEA0",
"#X c #F6BFA0",
"$X c #F6C0A1",
"%X c #F6C0A2",
"&X c #F6C1A2",
"*X c #F6C1A3",
"=X c #F6C2A3",
"-X c #F7C2A3",
";X c #F6C3A4",
":X c #F7C3A5",
">X c #F2C4A5",
",X c #F7C4A5",
"<X c #F7C4A6",
"1X c #F7C5A6",
"2X c #F7C6A7",
"3X c #F7C7A8",
"4X c #F0CBAD",
"5X c #F4CDAE",
"6X c #F8C8A9",
"7X c #F8C9AA",
"8X c #F8CAAB",
"9X c #F8CBAC",
"0X c #F8CDAE",
"qX c #F9CEAF",
"wX c #F3D1B3",
"eX c #F7D1B2",
"rX c #F0D4B6",
"tX c #F6D4B6",
"yX c #FAD3B4",
"uX c #FAD7B8",
"iX c #F1D8B9",
"pX c #F7D8BA",
"aX c #F5DBBB",
"sX c #F6DDC0",
"dX c #F9E1C3",
/* pixels */
"3.H.k.h.[ L k k w k K Y -.,.<.3.Z.Z.Z.Z.Z.Z.Z.L.K.I.L.I.I.I.I.I.L.I.'._.Q.`.Q.!.S.H.v.G.V.H.G.V.f.j.7.g.t.6.[ | ~ ( ( [ _ _ W E ",
"1.l.m.b.y.~ l k u k U Y -.<.2.3.Z.Z.Z.Z.K.Z.L.L.L.'.I.&X2X;X-X&X&X&X@XXXoX{.{.{.`.Q.R.G.U.V.G.n.n.g.p.9.t.8.+.} [ [ [ [ ..[ _ E ",
"I / ..w.0.[ d k k k J Y -.2.<.K.K.L.K.&X&X&XI.;X8X8X;X8X6X8XoX+X%X*X`.[. XXXR.).Q.H.l.n.f.G.k.l.u.x.6.u.p.9.( } } X.! ..O.} R A ",
"J Z ^ / / A n d J @.<.1.I.I.I.&X6X1X1X1X2X;X&X&X6X6X6X1X0X6X@XoX*XoX).^.{.(.R.!.).U.H.g.j.n.v.w.t.8.w.t.p...[ [ o.[ _ X.O.( E A ",
"B / A ~ ^ ~ V ~ e.T.^.[.P.@X'.*X&X2X;X1X&X*X&X@XoX2X;X6X;X:X X#X{.{.`.^.R.^.Q.`.R.Q.D.H.l.x.u.p.8.w.u.g.8.%.{ %._ O.o.+./ Q R A ",
"K / / ..O.} ' ..t.l.n.B.R. X#X%X-X*X:X*X:X-XoX/.XXXX1X1X2X X).^. XXX].!._.^.[.[.`.!.R.C.M.j.p.r.i.l.l.l.p.0.&...o.;.6.o.~ A Z Z ",
"K 9.S ] W B s i i x i x Y D.Q. X+X,XXX*X;X=XR.!.(.XXXX1X1XXXV.T.Q. X)._.XX#XXX#XXXXXH.V.M.g. .8.u.l.8.8.w.t.] O...e.%.%.~ ~ m m ",
"K +.R r < : & & $ # # # & 5 J =.A.R.|.oX<X=X).v.R.[.#XXX[.R.v.v.G.). X-X:X;X;X+X%X(.s. .P l f p l d d n R W W ~ 7.&.X.%.' Z m h ",
"K ~ 8 < 3 e e e : $ # X # $ : 7 d { e.^.!.[.!.G.g./.[. XH.B.j.n.g.R. X#X@X1X'.A.` J r > = & $ $ + : : 3 r f f M V ' { ;.| Z M n ",
"K C n C e.J.L.J.f.@.d 5 < < ; 1 r n R ;.R.R.`.M.l.v.D.v.D.l.t.t.t.l.^.`./.d.K e : $ X X . . . . X o $ = ; 3 7 7 9 y C ! ' M m g ",
"-.g.4.g.G.^.R.^./.L.f.s.>.{ B n f n n ! g.R.n.V.x.G.u.V.B.t.' o.O.9.6.v.%.l < = o # . X . X X $ < < : : : : : > < 3 1 y B C g g ",
"<.j.9.p.M.v.v.f.v.D.l.u.e.%.] ! R R V ! 7.B.M.l.M.z.x.n.B.] V V T ~ ] W n 3 = + $ o o + : 3 s B ) P f s t 8 3 < > : : < 3 8 f f ",
"<.n.8.t.9.4.C ! :.A.D.R.j.6.T M f V ! { %.l.j.M.t.x.n.V.l.! f B n M M f 6 ; = = + - ; 8 d W  .d.e.g.4. .L R B s 7 3 < < : : , t ",
"d.l.5.O.} y B D.&X&X/.Q.G.f.%.R f y l ( [ t.j.b.x.l.k.k.j.~ y f f f f 8 1 ; ; ; < 1 r n R ~ {  .%.%.:.}  .] ! C M p 9 3 > : - , ",
"D.R.9.{ n f d.I.L.J.:.4.{ ) J M n q 6 M A O.8.b.G.B.q.p.t.} m f f f 6 1 , ; - ; , 1 6 y V R n n n f 8 t y B M R R B f 9 3 > = , ",
"D.R.M.( f ` Z.>.x 5 : $ o X o - 1 6 6 q M Q 8.G.^.G.l.B.j.} Z M n t 1 ; - - = @ = 1 n ' s.f.:.( ~ B t 1 , - < y C C f s r 7 ; 1 ",
"_ g.i.' f -.x : .     . .     . X $ - 6 f ~ O.~.#XXXR.!.V.t.R n 8 1 , - @ + o + 3 l B W l b d d i p t r 7 < + : p M M M f s y y ",
"X._ p.( n 7 X     . . . .     . . X o @ , ~ 8.~.8X8X-X{.].v.R 8 , , ; = + X o - < : # # O . . . . X X O X O # # : B ! M n n n y ",
"%.V t 6 - = & + + : & : $ O O O & = o + - ~ p.[.yXyX6X;X@Xp.f 1 1 1 = - - + o + + + X O .               . .   . X 7 r 8 y n f y ",
"6.V n q t M g.e.g.7.( W C B b l B f s n ' l.^.#XyXyXeX2X[.{ q 1 1 6 , t M n n n V L c e 4 & & & * : & = : : $ + - 6 6 f ~ ] +.} ",
"B.B.R.R.p.o...l.l.M.j.g.%.{ A ~ A ~ ~ } _ B.XX6XyXpXeX2Xv.' t 6 6 h C R ..t.' } ( 4.O.&.W C V V C M p y y n n m M 6 1 M ~ 8.8.w.",
"f.S.H.U.R.G.l.O.O.( A _ ~ A A A Z M g y .. X1X8XqXyX6XXXg.R y 0 y M } O.w.g.w.[ ~ M C A Z m g y y y M A ~ A Z y ; , R W M y y 8 ",
"t.B.l.R.`.XXR.j.~ M y h M h q 8 8 r n v.6X8X&XqXqXeX#XH.} R g m A ~ R w.u.b.p.G.n.%.g 6 1 1 , 1 0 0 1 1 , ; = - t ( ( O.&.C 6 r ",
"4.g.B.R.XX+X%XoX XG.} M g y y f ( T.&X2X8XqX6X8XqX3XXXg.( Z M A ..8.8.8.x.l.g.n.(.^.R.v.d.~ n t 6 1 , 1 6 y R 4.g.O.( T O.&.! C ",
"..l.B.Q.XX1XqX0X&X@X~.[.R.XXXX-X;X2X;X0X7X6X0XqX0X1X!.w.A m m ~ } w.t.p.i.l.l.H.S.).^.{.#X&X&X#X/.^.R.!.G.R.G.M.u.p.] _ Q &.6.] ",
"w.n.R. X*X6XyXqX0X;XXXXX@X&X-X6X8X;X1X6XqXeXyXyX6XXXB.+.~ A m Z m Z Z A } O.m.H.R.!.Q.].oX+X:X*XoX{.(.^.~.B.B.b.g.9.O.[ C _ 8.~ ",
"i.!.R. X8XqXeXyXyXqX*X XXX8X8X8X7X;X#XqXeXpXpXyX1X[.l.p.8.} Z h y g 8 8 8 q m u.H.(.Q.XX#X6X*X*X%X:X).{.Q.).l.g.t.g.+.6.~ ] [ ' ",
"t.R. X XqX0XyXpXpXyX#X@X6XqX7X8X8X1X3X8XyXpXdXyX1X).n.x.l.n.' h g h m m g 1 , y 8.R.~.[.;X-X-X;X1X&X`./.|.W.l.w.g.t.8.+.8._ } ] ",
"l.[. X-X;X9XpXsXpXyX6X6X&XqX8XqX2X6X;X8X9XpXsXeX#X).R.R.~.H.} Z g ~ 8.+./ M , ; 8 ~ l.]. X;X;X2X$X-XXX[.R.B.l.l.t.t.0.w.+.( ~ { ",
"R.~.XX+X8X0XeXtXpXyXqX9X8X6X8X#X[.!.%X6XyXpXpXqX1XXX{.XX{.O.m h m } l.w...Z 6 - - 6 M ;.R.^.oX+X X).^.R.G.n.x.x.z.g.w.0.4.} ] _ ",
"G.{.!.%X2X6X;X7X6X6XXXXX[.!.9.~ Z i.[.8XyXpXtXeX2X:X[.{.e.n 6 0 g m h h g q , 6 0 8 1 f } M.v.).^.{.V.B.G.V.t.p.l.b.8.t.w.8.~ ~ ",
"l.B.R. X*X XXX[.#X~.n.9.O.Z 0 1 ~ ^.-X6XpXdXsXdXyX6XXX4.f 1 - = = @ + @ - ; 1 y y y q q M _ 9.l.B.G.b.x.b.j.i.p.l.p.0.O.8.8.[ T ",
"8.n.B.].{.XX}.[.l.w.~ m 0 , , R /.8X2XyXdXdXdXdXyX6Xe.f , @ o + + + + @ - , , 8 0 y q y y g T 8.w.t.i.w.9.u.t.j.y.i.%.+.} &.[ Q ",
"w.b.n.U.^.!./.l...Z g 1 - , ( [.8XyXyXpXdXdXpXqX1XD.M 1 - + + + + o + @ = = - ; , 1 0 y g q y m _ } } +.O.+.8.8.w.} } ] {  ._ R ",
"7.M.y.a.G.~.w.' m g ; - 1  .'.6XyXpX0XeXtXeXI.T.7.R 1 - = + o + + + o + @ = = = @ - ; , 1 1 , 1 y ! A _ ' [ ~ ] ] ] W ` ` { R R ",
"8.p.y.w.x.p.] M g 1 - ; C f.&X8XqXqX6X'.#X&Xv.( y , - @ = - = @ = + @ = = - = + + @ = - ; - = - - t R ] O./ ~ ~ ~ ! W L W W ! W ",
"] q.q.w.+.O.C g 6 ; - y ( D.&XI.f.D.f.j.g.v.l.w.n 1 1 y n 8 , ; - = = - - , , = - - - - - - + + + = 9 ~ X.X.~ E R ~ W W n L W _ ",
"[ ......O.[ M 0 , ; 8 R ] f.7.n n R ( ~ R M n 8 - - 8 C } n 8 1 , ; ; - ; ; < ; ; - - ; ; : : + + $ + 7 C _ ] R ~ ! W E l L ~ ( ",
"} o.^ _ ] A y 1 1 1 p R !  .y r 8 n M M y 8 , - - y R } ' ] M y 6 1 ; - , , , , ; , ; , , 3 < < = = + = 3 M R T Q ] ( ` l L W T ",
"] _ _ ~ ] m q 1 1 1 f B L L t 8 8 y f n n 8 6 , l n.R.n.t...S m g 0 1 1 q g q 0 0 6 1 6 8 6 1 3 < : + + = 1 n R %.%.=. .C B R R ",
"M T ~ { _ m g 0 1 ; n B n B 8 r t f n V n n B R ] n.S.R.n.t...A m M g g h A Z A m g 0 0 q q 6 6 , ; = + = : y ( ! 7.7.:.C c W ! ",
"B ! ] ] } n y y 1 , B F f s s r y y f m A ' 4.} ] [ ....8.} ~ ^ Z Z Z M m m m M g 0 0 0 y 6 6 6 1 , - = = - 6 R [ 7.e.:.P L W C ",
"M ~ { +.t.R 8 f y 6 B B 9 3 < , ; , 1 g m S m A Z A Z m D h q q 6 1 ; , , 1 , ; - - = - = - @ @ = - @ - 3 8 , ! 4.9.-.=.K K C W ",
"l ! O.w.v.} y y W f B B r 3 - + @ - , 6 0 8 6 q y 0 q 6 6 6 1 1 1 , , , 1 ; - = = = @ @ = + o + + + ; 8 B n 8 ! &.&. .` P L L C ",
"d L =.f.f.l.V t C ` n M n p r 8 r g g g g g g h N D D G G H H H H H G G g g q q 8 8 8 0 8 6 1 1 , 6 M ] ..~ y { [ 4.] P L L L L ",
"x B =.f.R.Y.7.f f ( ! R C C A Z Z n M ( } 8.4.#. .d.<.1.d.*.*.#.H H N a a j j j g g g y y q 0 q g ~ g.O.+.Z n ~ } X.~ K B J K B ",
"K Y L s.R.~.S.` p C ` ~ [ ~ C ( S A M } O.] R $.*.;.W $.$. .B a p f 9 7 t y 6 8 y y 0 0 0 q 6 n ..G.t...( M V 4.6.( B B c L B B ",
"U Y U  .D./.^.f.C r ! ] ~ R T R } ~ M n n p t y f a r r s t r 7 3 3 < < 7 3 3 1 t t 8 0 q 8 f ~ G.v.8.o.R f ~ %.} C d l c J c M ",
"P >.>.=.7.R.Q.^.=.p d ..` } ( ' ~ A M y 8 7 7 9 7 9 9 9 9 9 9 9 3 < < < > < < 3 3 9 9 t 8 f ! D.v.d.=.o.M n ] &.C l f l x B M R ",
"U >.>.>.-.f.T.T.v.P r C 6.&.[ } ~ A h y t 8 8 8 9 p p p s r u 9 3 < < > < 3 3 7 9 9 8 t n ! j.v.D.7.6.o.f M ( W f p d d f C W ` ",
"-.<.-.>.=.=.g.V.M.:.9 t 8.l.&...^ A y y y y r f n V n n l f r 9 7 3 > < 7 e t f f f y n ( D.n.D.f.g.6.C M ] T V p s e d J P W L ",
"-.>.>.:.<.-.%.` 7.s.B 8 W i.8.[ [ Z y y n n R } } ] ! W C l s r r 9 9 e l B W ! ~ R C ! l.H.B.f.v.f. .n R ( C d s d r c Y -.L B ",
"U >.:.>.>.Y x e i =.P B n t.t.+.[ ~ g g g ~ g.V.l.x.u.u.} ] P B l J ` =.:.e.9.p.8.%.{ 7.f.v.d.v.f.j.C n R ~ f f i l B ! P ) U ) ",
"K >.<.>.>.J u > > e x P ' 9.u.+...[ Z m ~ p.R.v.f.9.9.g.j.j.d.s.d.f.f.D.H.f.t.9.8.+.4.e.j.g.j.g.f.7.R V R n s l K J B L P U Y ) ",
"b -.-.-.Y b e > & 4 4 x :.S.G.w...w.~ } l.).V.H.U.V.9.f.S.G.d.v.J.I.J.A.D.T.%.%.;.7.w.u.g.f.e.d.v.:.R ! W s 9 d P U l J L  .=. .",
"z U Y Y Y z 4 & & * * 4 ) T.[.l.g.x.r.O.g.R.^./.'.).R.H.Q.Q.Q.J.&X;X#X'.H.D.7.o.9.6.6.6.8.g.e.g.A.4.] W B e 7 9 l U L c L P :.s.",
"w J U -.U z * % & & * 5 d P.&XXX8.p.z.p.p.[. X#XXX#XXX#X[.@X&X2XI.1XI.s.=.f.d.9.{  .] 6.;.l.f.T.u.=. .K d k w 9 s L L C B Y -.:.",
"w x K Y J e * # % % * > i 1.6X#Xl.9.l.l.B.R./.].{.{..XXX+X;X-XL.L.L.v.t.d.f.8.o.[ `  .&.g.v.R.!.1.>.J J k d u e 7 r l J U U z u ",
"5 5 v b z w % # % & % * 5 >.6X8X{.l.8.w.G.^.H.T.E.].v.n.B.H.d.g.l.n.9.w.9.8.X.] ` %.o.e.M.].Q.).s.>.s u J k u e : < 7 i x w 4 4 ",
"% & 2 4 k 5 & O # # % : 3 ` 8X9X X7.9.D.1X@X}.]. XW.F.N.F.f.8.6.t.+.] ( X.X.[ } q.g.{ e.Q.XXXXJ.>.J i 5 u w 5 7 > $ : > > > > > ",
"O O # * 4 4 * O O # % : < 7.8X8X>.A.OX2X8X9X3X3X+X&XXXXXE.H.G.c.e.4.Q T R ] } t.g.j.&.H.). XXX1.K i x 5 > 4 > 4 & O : 3 3 9 3 i ",
"O O O % * 2 * O O O % = s ^.8XeXyXpXtX0XqXpXsXaXeX5XyX6X6X+X@X}.].T.%.W W ~ ( { ;.t.H.Q.|.&XJ.P J e e 5 4 > & & # # < 7 r d f x ",
". . . # % * & # . O $ < %.+X7XpXsXdXaXpXpXsXaXdXdXdXtXpXaXuX1X1X2X9XOXZ.-.P F | v.Q.J.+X1XOXY J c w * * & & O O O # & < 9 r r s ",
". . . O # & % # . X # d d.;XwXwXpXaXaXwXrXrXrXrXiXiXrXrXrXrX4X4X5X4X4X4X4X3.Y <.K.L.L.OX>X3.b v k w * & & # O O # # % * 5 3 w u "
};
