/* XPM */
static char *out[] = {
/* columns rows colors chars-per-pixel */
"64 64 226 2 ",
"   c #2B1608",
".  c #4A2415",
"X  c #5C2C1A",
"o  c #68321E",
"O  c #583F2A",
"+  c #763A24",
"@  c #7E3D26",
"#  c #63432F",
"$  c #6E402D",
"%  c #6A4D37",
"&  c #77523D",
"*  c #7F5D46",
"=  c #814A35",
"-  c #8E4B34",
";  c #96523A",
":  c #865540",
">  c #8C5D46",
",  c #9D5943",
"<  c #955F49",
"1  c #A45E45",
"2  c #89664F",
"3  c #9B644E",
"4  c #916A53",
"5  c #9A6F56",
"6  c #AB644A",
"7  c #A16851",
"8  c #AD6D51",
"9  c #A86D58",
"0  c #B36A51",
"q  c #B76F53",
"w  c #A1765D",
"e  c #A7755C",
"r  c #AE755B",
"t  c #B4715D",
"y  c #B97658",
"u  c #A87B63",
"i  c #AE7D64",
"p  c #B77764",
"a  c #BD7564",
"s  c #B27861",
"d  c #B47F64",
"f  c #BB7E63",
"g  c #C1785B",
"h  c #C87E61",
"j  c #AC836B",
"k  c #BE8466",
"l  c #B3876E",
"z  c #BA876A",
"x  c #BF8B6C",
"c  c #B78C72",
"v  c #BC8E72",
"b  c #C38264",
"n  c #CC8566",
"m  c #C78568",
"M  c #C4816F",
"N  c #C48A6C",
"B  c #CC8C6D",
"V  c #CC8C6E",
"C  c #D18969",
"Z  c #D48C6E",
"A  c #D88F6F",
"S  c #C98270",
"D  c #C88973",
"F  c #CC8A78",
"G  c #D08B78",
"H  c #C39072",
"J  c #C69677",
"K  c #C89172",
"L  c #CC9475",
"P  c #C5987F",
"I  c #CA997A",
"U  c #CF9C7E",
"Y  c #D19071",
"T  c #D09072",
"R  c #D29172",
"E  c #D09273",
"W  c #D39273",
"Q  c #D49374",
"!  c #D59475",
"~  c #DA9472",
"^  c #D79778",
"/  c #D1967C",
"(  c #D89778",
")  c #D59A7B",
"_  c #D99878",
"`  c #D9997A",
"'  c #DB9A7A",
"]  c #DA9A7B",
"[  c #DC9B7B",
"{  c #DB9C7D",
"}  c #DA9D7E",
"|  c #DE9D7D",
" . c #DC9D7E",
".. c #DD9D7E",
"X. c #E09E7D",
"o. c #E2A07F",
"O. c #D89380",
"+. c #D89982",
"@. c #DD9E80",
"#. c #DE9F80",
"$. c #DF9F80",
"%. c #DD9986",
"&. c #D4A082",
"*. c #DFA081",
"=. c #DCA386",
"-. c #D8A485",
";. c #DCA88A",
":. c #DFAB8E",
">. c #DFAF94",
",. c #E0A081",
"<. c #E2A181",
"1. c #E3A181",
"2. c #E0A182",
"3. c #E1A283",
"4. c #E3A282",
"5. c #E4A281",
"6. c #E4A382",
"7. c #E4A383",
"8. c #E5A383",
"9. c #E5A483",
"0. c #E6A483",
"q. c #E5A484",
"w. c #E6A585",
"e. c #E7A685",
"r. c #E7A686",
"t. c #E8A786",
"y. c #E9A887",
"u. c #E0A58A",
"i. c #E3AC8D",
"p. c #E7AD8F",
"a. c #E8A888",
"s. c #E9A888",
"d. c #E9A989",
"f. c #EAA989",
"g. c #EAAA8A",
"h. c #EBAA8A",
"j. c #EBAB8B",
"k. c #EBAC8C",
"l. c #EBAE8F",
"z. c #ECAC8C",
"x. c #ECAD8D",
"c. c #EDAD8D",
"v. c #EDAE8E",
"b. c #ECAE8F",
"n. c #EDAE8F",
"m. c #EDAF90",
"M. c #E4B195",
"N. c #E9B193",
"B. c #EDB091",
"V. c #EFB090",
"C. c #EEB091",
"Z. c #EDB192",
"A. c #EEB192",
"S. c #EFB192",
"D. c #EFB293",
"F. c #ECB496",
"G. c #E6B599",
"H. c #EAB79A",
"J. c #EEB899",
"K. c #EEBC9E",
"L. c #F0B293",
"P. c #F0B394",
"I. c #F1B495",
"U. c #F0B496",
"Y. c #F1B596",
"T. c #F1B597",
"R. c #F2B596",
"E. c #F2B697",
"W. c #F2B698",
"Q. c #F2B798",
"!. c #F2B799",
"~. c #F3B799",
"^. c #F3B899",
"/. c #F2B89A",
"(. c #F3B89A",
"). c #F3B99A",
"_. c #F3B99B",
"`. c #F4BA9B",
"'. c #F4BA9C",
"]. c #F4BB9C",
"[. c #F4BB9D",
"{. c #F5BB9D",
"}. c #F5BC9D",
"|. c #F5BC9E",
" X c #F5BD9E",
".X c #F5BD9F",
"XX c #F1BFA1",
"oX c #F5BEA0",
"OX c #F6BEA0",
"+X c #F6C0A1",
"@X c #F6C0A2",
"#X c #F6C1A2",
"$X c #F6C1A3",
"%X c #F6C2A3",
"&X c #F7C2A3",
"*X c #F6C3A4",
"=X c #F7C3A5",
"-X c #F2C4A5",
";X c #F7C4A5",
":X c #F7C4A6",
">X c #F7C5A6",
",X c #F7C6A7",
"<X c #F7C7A8",
"1X c #F7C8A9",
"2X c #F0CBAD",
"3X c #F4CDAE",
"4X c #F8C8A9",
"5X c #F8C9AA",
"6X c #F8CAAB",
"7X c #F8CBAC",
"8X c #F8CCAD",
"9X c #F8CDAE",
"0X c #F9CEAF",
"qX c #F3D1B3",
"wX c #F7D1B2",
"eX c #F0D4B6",
"rX c #F6D4B6",
"tX c #FAD3B4",
"yX c #FAD7B8",
"uX c #F1D8B9",
"iX c #F7D8BA",
"pX c #F5DBBB",
"aX c #FADDBE",
"sX c #F6DDC0",
"dX c #F9E1C3",
"fX c #FBE5C7",
/* pixels */
":.p.) ) / L K E &.p.F.F.M.H.M.M.M.H.M.M.M.H.M.J.H./.J.J.F.H.N.N.i.p.u.u.u.p.i.i.3.=.} }  .3.] { / ) ) ) / ) E E V V V T V Y V V ",
"-.i.i.p.F.Q.'.(.!././.'.'.K.K.J.K.H.K.).K.K.K.[.J.K. X XK.).F.D.B.:.u.q.i.i.i.3.q.=.#.#.q.7.2.` ] / / / ) ) / E E T Y Y Q W T T ",
"K / / 7.m.'.F.'.].|.D.U.OX+X_..X#X%XK.$X;X,X[.OX`..X!.[.$X/.D.W.R.Q.i.B.D.R.p.m.m.g.4.g.x.z.$.{ ..$.` =.3.*./ E E W V W ! ^ V E ",
"> : > 7 L p.R.W.OX/.'.OX+XOX{. X*X&X+X$X,X@X|.(.$X|.'.'.$X!.U.R.Q.D.b.l.U.R.b.p.l.f.t.r.z.a.<.' 3.#.} } 7.2.] V E V V B T Y T T ",
"# O O # & u K i.D.].Y.OX[.OX/.).'.+X$X;XOX|.'.}.T._.).!.P.W.I.U.b.L.b.l.k.b.j.k.e.j.r.g.6.q.] ..^  .] 2.} *.] ! V V B B m B C T ",
"i 2 % % = > 7 b =.B.[.[.OX[.'.R.|.+X&X;XOX(._.).!.).T.U.D.T.D.D.P.L.C.k.c.j.s.t.a.a.q.a.w.' ..{ { ] { #.*.^ ] Y V V B B n n n n ",
"[.M.P c i r 8 f Q 7.B.'.OX|.B.D.).&X[.OXOX'.m.!.T.OXD.U.U.!.D.U.R.W.f.a.a.x.8.8.q.a.w.j.w.{ ! ` @. .` #.' ] R D D C m B m m b n ",
"$XK.).p.i.^ m D Q ) r.I.'.Q.m.m.). X X!.[.P.m.B.(._.D.'.}.|.[.P.'.Q.C.d.j.a.4.3.a.w.a.w.a.] ` ) {  .$.` 3._ W N D B m m C B n g ",
"p.B.B.m.i.i. .^ ! ] $.I.D.'.C.D.D.{./.R.n.L.g.D.B.|.'.+X X+X$X+XW.D.B.m.w.j.r.z.r.g.a.z.q.<.}  .{ *.{ *.] ] ! B k b b m h n h b ",
"2.3.3.3.3.3.3.{ { ] *.j.I.U.D.I.I.D.D.k.B.i.i.p.m.W..XOX@X X+X[.F.p.a.<.3.3.r.z.d.a.w.a.a.<.*.} @.`  .` ` ] W m g g g g h h g g ",
"p.x.<.^ ! W V ! { q.$.x.R.~.L.I.D.W.p.m.r.6.| 7.g.R.D.D.p.=.H x H H r r f x N E Q W R ] #.*.] ) } } W ^ { ! B b k f t g g g y a ",
"D.m.t.6.q.! m f V | 6.g.P.D.V.v.L.m.m.j...W R Q $.7.2./ f 7 : $ $ $ O $ $ $ = < 9 8 y b B V R Q '  .! ! ] ! B b k y t t f g g g ",
") ) &.q.7.2.Z b y Y | g.b.D.c.S.V.I.D.V.R m m B V R N t , : + $ o . . . . . . # + : < r r s y f m E ! ^ T V m k y y y f y g f g ",
"* & : > 7 f n b g g Z [ f.m.m.b.j.x.m.j._ b f k m f y 7 - = + + $ o o o o # $ = & + & : > < , , , 8 f b V m b f f y y y y y y g ",
". # w 2 % = - 8 t t f Y $.L.m.L.C.L.t.w._ B f k y f 6 1 , ; - = ; , 7 r f K V K f 9 < < < < = : - , ; , 7 t 0 t y y q y y y q q ",
"O & 5 # O O O $ ; , 8 n [ f.W.R.R.D.j.*.^ V b f t 6 1 ; ; ; , , 8 p b W } 3.3.3.3.] V b f 9 , ; > < < > > > : , 8 0 0 6 0 0 6 6 ",
"% $ # O . . . # $ + @ t ! f.).;X'.Q.C.g._ V f y 6 1 ; ; ; - - - ; 0 b m b b b V V V E ^ ^ ^ V f 9 9 > > : : = : , 1 1 6 1 6 6 6 ",
"f 7 > $ X . O % = + + = [ f.&X0X4X+XW.C.2.b 0 6 6 , - - = o @ , k ! 3.i.q.] B k t 6 , 6 f V E D N f r 3 < - : = ; 1 1 1 6 6 6 6 ",
"z.q.V k r 9 9 s r 7 , f g.R.$XtXtX8X).L.[ y 1 6 1 ; @ + o + < s r r s H L ^ V V b f , = = , s D b b r t 9 9 , 7 6 8 6 8 8 q 6 0 ",
"j.a.<.3.3.] Y B Y Y ( [ D.+X4XtXpX6X[.r.R 0 6 6 , - ; @ o + + + + . . . . X $ : < 3 < < : + > f K m b b f f m f t t q g g g g g ",
"] ] Y ! n Y Y Z C n g _ Q.$X8XtXtX6X[.r.b 8 1 0 8 0 m D t r 9 r 9 * # .           . . . X X X > B ! B b f b f b b f f f f b b b ",
"Q n n n n b g 0 6 t ] |.>X4X0X0X6X;XR.2.b 0 8 y ~ V ] t.w.*.{ ] { +.H w : & $ # O . . X . . . o 7 1 1 8 y f f y y y f g b g b b ",
"OXC.! b 0 0 8 k { |.$X,X,X8X6X<X;XOXq.^ n g y n ! q.o.t.z.a.R W [ 6.| [ Y V b m f r 7 3 < < ; 7 1 1 y m ] <.[ [ A m f g f f 0 a ",
"8X$X|.).'.W.).+X9X5X1X<X0X7X0X4X;XL.[ C n Z A A _ <.t.a.j.x.j.{ m y y b B b y 8 y b m Y _ W b 6 ; 0 B B B ! ] ! b 8 6 0 0 t 0 8 ",
"0X&X@X&X=X4X1X7X;X8X4X8X7X0X0X6X[.f.~ C n ~ X.t.6.t.h.m.g.L.I.Q.g.W y 6 1 6 1 6 8 q q y 6 ; - - 0 ' X.6.V f t 8 8 y f k f N b m ",
"tX,X+XOX4X7X0X8X<X6X0X0XtXtX6X$XD.<.A Z Z A [ q.a.f.j.z.m.m.).I.'.Q.).I.i.Q m t 1 ; - ; , 8 B [ *.[ ! [ 2.W f y m p y p f f f p ",
"tX1X+X6XwXwX6X7X>X8X6XtXsXsX;X'.V.t.R C Z Z n C C ! A 5.z.W.D.'. X[.U.'.;X,X|.'.).I.g.x.I.Q.j.z.a.<.T B X.w.[ | R p 9 r p d r s ",
"pX8X6X0XtX0X1X7X6X6X6XtXdXpX;XR.L.g.<.[ ~ n g y g 0 6 0 n 6.D.W.@X'.'.[.>X$X;X$X;X+X[.).'.L.a.t.a.w.[ T W [ 1.3.[ f r t p p s y ",
"tXtX0X0X6X6X:X$X|.,X8XyXpXtX+X).m.L.m.z._ n g n A A g 6 , t R L._.&X X$X>X4X>X8X;X,X|.OXD.z.t.a.w.a.*.$.V _ o.8.{ N k b f b f b ",
">X$XOX'.I.g.[ W x.$X8XyXpX8X$X).W.R.R.f._ n b A a.a.5.Z 6 - , g 2.D.'.OX5X<X6X6X4X;X$X|.R.m.a.s.e.t.8.3.] Y o.$.{ B N N B B N m ",
"D.V.[ _ n q 1 B '.8X6XpXpXtX+XOX[.$Xj.R h b C | z.g.[ ~ a , - ; 0 R 7.Q.$X1X%X:X>X&X'.).W.D.0.y.f.z.o.6.q.o.! ..| Q B V V V N V ",
"7.! y 6 - - N [.6X6XtXsXdXpX0X4X;XF.Y t 0 q g b n b y 0 8 6 6 6 1 8 m 2.D.). X[.+X XR.D.R.c.z.a.h.s.8.6.q.{ ! ..2.R m m V B B V ",
"n q ; @ ; T K.wX0XtXsXfXfXdXyX6Xp.V 6 ; @ @ + + + + - ; 1 q a g q 0 8 b ] f.m.^.D.L.m.V.j.S.j.x.9.a.q.q.<.3.` @./ V V V V T T E ",
"0 ; @ , { K.6XtXyXyXpXsXsX7X4XF.V 1 - o + + + + + + - ; , 6 0 0 q g a 0 f Y | 7.n.g.a.q.f.f.z.y.g.4.8.3.3.] ) ! Q T Y V T W W ! ",
"; @ ; E F.6X6XyXtXtX,X<X,X[.i.T 8 - + @ @ @ o o + + + @ - ; ; , 0 y 0 0 8 t k ! | <._ X.6.t.w.j.q.q.] $.2.$.L ! W T b m T E B V ",
"- - f  .'.;XK.K.K.F.B.B.D.{ t 1 ; @ + + + + + + + @ + @ ; - @ @ ; , ; , , , , y R Q ! ! [ ] 4.$.,. .^ ^ ] ) E T T B m B T W V V ",
"- 0 / q.j.} N V ) $.2.a.a.] 0 , , 8 7 ; - - @ = = - - - - @ + @ @ - - = @ = = : 9 V ! ` W Q W { ^ ` ! E K R E ! T T D T B R V Z ",
", b E ) T 0 8 y V W m f f 1 - - 8 T Q 0 , , ; ; - ; ; , , = = - = - - = + + $ $ + 7 ( { ] W ! ! ! / K R D N / / / ^ W B V V V V ",
"1 D N K f 8 7 8 f b 0 6 1 - - t V { ~ B g 0 , , - - - ; , ; = - - ; - - : & $ $ $ + , V ] ] B E R ! V Q N N V ) ) { V V T T n Z ",
"1 N N D p 9 7 r b m y 8 8 7 N m.R.f.X.! A g 0 1 1 , 1 1 1 , ; ; , ; , , 7 < > = + + + , m Y V T Q / E / N f K ! { Q B m V B C n ",
"6 N m b r 9 8 f k n b m b Q <.L.C.L.w.[ A C g y 0 0 g g y a q 0 1 1 6 0 6 6 1 ; = + $ = , m ! ! W ) /  .D k K / T Q B b b B C C ",
"f b D 9 , 7 7 1 8 g n ! X._ _ [ <.<.<.[ [ ~ Y C C h h n Z Z C g 0 8 0 q 6 6 6 1 ; + $ = - 9 V W { } } &.K k K / E E B m n n C C ",
"V K N 9 ; - + + - 1 0 y b n n C Z B b h h h q q q 0 8 y h y 6 6 6 8 1 6 6 8 6 7 , : + = ; , k ! { q.=.=.L x x / L / m m B Z C Z ",
"D / m y r 9 , 1 0 0 6 6 6 6 0 q q 6 6 1 6 1 , ; ; ; , , , - - - - - @ @ @ @ @ @ - = - , r 6 f ! <.3.=.=.L x H K / L m m V B T B ",
"s ] T V b m h Z n Z C Y C G F F S S M G S S S S M S y 0 6 6 , , , ; ; , ; - - - - 0 b V V t k |  .3...{ H H H I E L k B b n m m ",
"f T  .Y Y Y R Y n ! | ..,.,.,.r.i.p.p.q.3.] ] G G D M M S f g y a a a y y 0 0 0 g _ q.<.3.g R | *.$.] / x x H I I K x m N b N N ",
"K b W _ W _ B _ Z ~ [ [ / 3.O.%.@.3.+.,.G F S D f g g g 0 q q a y g 0 q 0 y a Z t.L.<.7.| m Y ..$.3.Q V x H x I L N k N H K k m ",
"=.k b ] ! ! ~ _ _ n f f y f f f f f f f s 9 7 7 7 3 7 7 7 7 8 0 y t 8 0 0 g Y t.R.m.[ ] T m [ 6.2.{ K N k x H x H N x N K D N m ",
"i.) p ] { [ _ [ A n y 0 6 7 9 9 9 9 7 r 7 7 3 < > > > < < 5 7 8 8 t 0 r y V q.W.B.q.{ ] b V *.a.{ R k f s z x k d f V T V W K R ",
"i.i.N m | 3.3.[ ~ n g y t 8 t r f y t r r 7 3 < < > > < 3 7 r 9 r t t p B 3.F.B.i.@.7.! y Y #.^ ! k f s d x z f d N L K ) ) Q / ",
"&.i.) N Q f.$.{ _ Z q a y y f m m D k f p r 7 7 < < < 7 r f y f f f f m  .U.p.x.a.i.7.V g _ _ ] R f s r d f t s z K H / ) E N N ",
"&.=.&.V /  .6.<.X.A g y f b V $.2.] E B m f r 9 r 9 r p b E ^ / ! T W ] j.Z.B.a.p.p.q.b B [ ! W V f r 9 f k d f H J I I / D N k ",
"I -.&.=.) { [ f.<.X.n n g B | L.C.g.3.q.{ / V K K ) { q.3.g.f.z.a.<.{ 7.g.F.x.p.p.p.*.b V ~ R W N b 9 9 d K z x K I I &./ ) ) ) ",
"J -.-.&.K ) q.z.z.q.~ A B W z.L.C.r.,.3.8.a.p.p.M.D.D.F.F.F.B.g.2.*.*.3.g.i.w.q.g.i.=.m _ _ Q V W f 9 r f x J L K K J E +.} / / ",
"v &.I I k x K B.D.V.X.4.7.q.a.L.).W.g.j.k.D.p.F.J._.M.K.!.F.p.i.2.=. .a.u.a.*.2.7.i.] T  .3.B E T f e e e 7 f I x x x E &.i.u.=.",
"l I U I H u 5 H b.Q.a.a.m.j.f.m.I.I.R.A.!.T.T.J.XX XK.,X,X+XB.3.3.2.2.*.3.*.#.#.q.3.{ ` 3.) ! / K d z z u 9 9 x L N v K } 3.u.i.",
"w H I &.x w * 5 H D.b.W.j.C.E.D.B.^.(.%XOX#X=X*X$X,X*X6XK.F.} =.7.2.$...W { } 3.$.*.2.r.u.} } ) N f l c u w r d k / K L / =.=.=.",
"w z I L l 5 & * < x i.!.E.j.b.j.m.I.Q.'.OX'.]./.!./.K.D.D.B.3.3.u.3.^ _ ! ` @.@.7.u.d.l.B.u.=.&.K u z c j i i 7 7 p D K I H i e ",
"5 w H z s 5 # # * 5 l M.oX!.r.g.f.j.l.U.U.`.B.k.g.p.7.r.q.l.q.r.2.` T ^ ^ } ` 3.4.g.i.Z.T.T.-.U H e w H l l u < = 7 9 d r 5 4 4 ",
"% & 2 5 u 4 # # % & 4 d XX<XD.r.r.B.'.]. X/.P.D.B.g.r.q.3.7...{ ] _ Q ! | ,.3.3.} 2.p.Z.!.|.i.L H d 5 e u w 5 3 % & > > > < < > ",
"O O # > 4 4 % O # % * 7 } 5X$X-.M.*X<X7X*X:X.X@X/.[.I.D.a.j.8.o.^ R Y ! ! ..=.a.*.7.Z.W._.@Xp.I z i i 4 4 > 2 4 # % > 3 3 w 7 i ",
"O O O % * 2 & O O O & > T %XwX3XiXiXrXwXtXiXiXiX0X0X6X6X>XOXOX{.D.u.) L E / ` #.3.g.D.W.@X$Xq.H H w u 4 > * * & O # < 7 s d f z ",
". . . # % * & # . O $ < @.oX8XiXsXdXpXiXiXsXpXdXdXaXiXiXpXyX>X:X,X7XXXM.&.L D { l.T.A.XX>XXX) H x w * * & & O O O # & < 9 r r s ",
". . . O # & % # . X # d i.*XqXqXiXpXpXqXeXeXeXeXuXuXeXeXeXeX2X2X3X2X2X2X2X>.U ;.G.K.K.XX-X>.H c l w * & & # O O # # % * 5 3 e u "
};
