/* XPM */
static char *out[] = {
/* columns rows colors chars-per-pixel */
"64 64 221 2 ",
"   c #2B1608",
".  c #4A2415",
"X  c #5C2C1A",
"o  c #68321E",
"O  c #583F2A",
"+  c #763A24",
"@  c #7E3D26",
"#  c #63432F",
"$  c #6E402D",
"%  c #6A4D37",
"&  c #77523D",
"*  c #7F5D46",
"=  c #814A35",
"-  c #8E4B34",
";  c #96523A",
":  c #865540",
">  c #8C5D46",
",  c #9D5943",
"<  c #955F49",
"1  c #A45E45",
"2  c #89664F",
"3  c #9B644E",
"4  c #916A53",
"5  c #9A6F56",
"6  c #AB644A",
"7  c #A16851",
"8  c #AD6D51",
"9  c #A86D58",
"0  c #B36A51",
"q  c #B76F53",
"w  c #A1765D",
"e  c #A7755C",
"r  c #AE755B",
"t  c #B4715D",
"y  c #B97658",
"u  c #A87B63",
"i  c #AE7D64",
"p  c #B77764",
"a  c #BD7564",
"s  c #B27861",
"d  c #B47F64",
"f  c #BB7E63",
"g  c #C1785B",
"h  c #C87E61",
"j  c #C07B6B",
"k  c #AC836B",
"l  c #BE8466",
"z  c #B3876E",
"x  c #BA876A",
"c  c #BF8B6C",
"v  c #B78C72",
"b  c #BC8E72",
"n  c #C38264",
"m  c #CC8566",
"M  c #C78568",
"N  c #C4816F",
"B  c #C48A6C",
"V  c #CC8C6D",
"C  c #CC8C6E",
"Z  c #D18969",
"A  c #D48C6E",
"S  c #D88F6F",
"D  c #C88973",
"F  c #CC8A78",
"G  c #D38E7E",
"H  c #C39072",
"J  c #C69677",
"K  c #C89172",
"L  c #CC9475",
"P  c #C09379",
"I  c #CA997A",
"U  c #CF9C7E",
"Y  c #D19071",
"T  c #D09072",
"R  c #D29172",
"E  c #D09273",
"W  c #D39273",
"Q  c #D49374",
"!  c #D59475",
"~  c #DA9472",
"^  c #DD9876",
"/  c #D79778",
"(  c #D1967C",
")  c #D89778",
"_  c #D59A7B",
"`  c #D99878",
"'  c #D9997A",
"]  c #DB9A7A",
"[  c #DA9A7B",
"{  c #DC9B7B",
"}  c #DB9C7D",
"|  c #DA9D7E",
" . c #DE9D7D",
".. c #DC9D7E",
"X. c #DD9D7E",
"o. c #E09E7D",
"O. c #E2A07F",
"+. c #D89380",
"@. c #DD9E80",
"#. c #DE9F80",
"$. c #DF9F80",
"%. c #D4A082",
"&. c #DFA081",
"*. c #DCA386",
"=. c #D8A485",
"-. c #D7A88D",
";. c #DCA88A",
":. c #DFAB8E",
">. c #DBAB91",
",. c #DFAF94",
"<. c #E0A081",
"1. c #E2A181",
"2. c #E3A181",
"3. c #E0A182",
"4. c #E1A283",
"5. c #E5A382",
"6. c #E4A383",
"7. c #E5A383",
"8. c #E5A483",
"9. c #E6A483",
"0. c #E5A484",
"q. c #E6A584",
"w. c #E6A585",
"e. c #E7A685",
"r. c #E7A686",
"t. c #E8A787",
"y. c #E9A887",
"u. c #E0A58A",
"i. c #E3AC8D",
"p. c #E7AD8F",
"a. c #E8A888",
"s. c #E9A888",
"d. c #E9A989",
"f. c #EAA989",
"g. c #EAAA8A",
"h. c #EBAB8B",
"j. c #EBAC8C",
"k. c #EBAE8F",
"l. c #ECAC8C",
"z. c #EDAD8D",
"x. c #EDAE8E",
"c. c #ECAE8F",
"v. c #EDAE8F",
"b. c #EEAF8F",
"n. c #EEAF90",
"m. c #E4B195",
"M. c #E9B193",
"N. c #EDB091",
"B. c #EEB090",
"V. c #EFB090",
"C. c #EEB091",
"Z. c #EDB192",
"A. c #EEB192",
"S. c #EFB192",
"D. c #EFB293",
"F. c #ECB496",
"G. c #E6B599",
"H. c #EAB79A",
"J. c #EEB899",
"K. c #EEBC9E",
"L. c #F0B293",
"P. c #F0B394",
"I. c #F0B495",
"U. c #F1B495",
"Y. c #F0B496",
"T. c #F1B596",
"R. c #F1B597",
"E. c #F2B697",
"W. c #F2B698",
"Q. c #F2B799",
"!. c #F3B799",
"~. c #F3B899",
"^. c #F2B89A",
"/. c #F3B89A",
"(. c #F3B99A",
"). c #F3B99B",
"_. c #F4B99B",
"`. c #F4BA9B",
"'. c #F4BA9C",
"]. c #F4BB9D",
"[. c #F5BB9D",
"{. c #F5BC9D",
"}. c #F5BC9E",
"|. c #F5BD9F",
" X c #F1BFA1",
".X c #F5BEA0",
"XX c #F6BEA0",
"oX c #F6BFA0",
"OX c #F6BFA1",
"+X c #F6C0A2",
"@X c #F6C1A2",
"#X c #F6C2A3",
"$X c #F7C2A3",
"%X c #F6C3A4",
"&X c #F7C3A5",
"*X c #F2C4A5",
"=X c #F7C4A5",
"-X c #F7C4A6",
";X c #F7C5A6",
":X c #F7C6A7",
">X c #F0CBAD",
",X c #F4CDAE",
"<X c #F8C8A9",
"1X c #F8C9AA",
"2X c #F8CAAB",
"3X c #F8CBAC",
"4X c #F8CCAD",
"5X c #F8CDAE",
"6X c #F9CEAF",
"7X c #F3D1B3",
"8X c #F7D1B2",
"9X c #F0D4B6",
"0X c #F6D4B6",
"qX c #FAD3B4",
"wX c #FAD7B8",
"eX c #F1D8B9",
"rX c #F7D8BA",
"tX c #F5DBBB",
"yX c #FADDBE",
"uX c #F6DDC0",
"iX c #F9E1C3",
/* pixels */
",.A.q.s.] K k k w k J U %.-.>.,.-.,.>.G.,.G.>.G.>.,.,.G.G.H.G.G.m.,.>.,.i.,.i.p.u.i.;.u.u.j.j.w.4.u.3.a.u.3.] } ! / / } ) ) E R ",
":.g.z.l.e.! d k u k I U %.-.>.,.>.>.,.,.,.m.,.,.,.,.,.m.m.m.G.,.,.,.,.>.m.m.,.i.i.u.u.*.i.u.u.a.a.4.4.6.w.8.O. .{ ] ] ] X.] ) R ",
"P ^  .9.5.E u i e k H U %.>.;.>.>.>.-.,.,.G.,.,.,.,.>.G.G.H.,.G.m.,.-.>.,.,.;.i.u.i.| *.u.a.*.p.r.j.4.r.t.d.O.o.o. .Q  .o.{ T A ",
"H ^ ~ ^ ^ V i u u k H I =.;.>.>.,.,.>.>.m.m.,.,.m.,.>.m.H.G.,.,.m.,.>.>.m.,.,.*.j.p.w.i.Z.p.k.j.c.j.d.w.g.s.w.o.O.{ ) ^ o./ R A ",
"x ^ ^ o.~ D p u u k K U U >.>.:.>.,.,.,.,.m.,.,.,.,.,.m.m.G.,.G.m.G.>.G.m.G.M.D.M.R.Z.D.x.c.c.j.t.s.r.t.4.4.o.o.) [ ) X.^ / T A ",
"H ^ ^ ^ ~ Z l p d z J U %.=.>.>.,.,.,.,.G.,.,.,.,.,.G.,.G.G.H.H.H.H.H.^.^.R.^.Q.(.D.S.n.x.n.d.q.t.r.8.O.#.X.#. .X.' ] [ ..! Z Z ",
"H O.S ~ ^  .Z l B L K | -.,.>.,.G.H.G.H.H.#XH. XH. XH.).].$X X@X+X@XQ.^./.'.j.S.P.D.j.n.D.L.6.4.r.r.X.O.O.w.O.o.X.&.' @. .! m m ",
"H O.~ ~  .^ Q T E ( | j.P.Q.Q.D.}._.].XX-X#X@X@X@XoX^.(.].[.oX X@X).R.Y.^.R.D.g.A.x.Z.c.P.k.j.a.g.8.#.o.7.s.8.1.4.O...} <.! Z h ",
"z 2.~  .^ ^ ..( E ..4.k.k.S.n.~.W.~.}.+X.X+XoX+X'.Q.D.Q.R.oXXXXX_.P.x.S.D.R.Z.P.k.Q.Q.R.Z.D.k.k.O.4.<.3.8.s.4.4.] } / &.} ) m n ",
"d X.^ ] 2.2.@._ ( E E E ( _ #.a.I.R.W.].oXoX+X/.[._.D.c.S.[.]./.).j.p.a.R.[.Q.Q._._._./.Z.D.k.6.*._ } .._ E E E T W _ } ..' Z g ",
"d 4.~  . .` B l 9 3 : = & * * 4 z *.-.M.R.).D.).).`.w.f.j.}.I.^.D.c.4.u.k.[.).}..XXXW.[.D.k.E B d r 7 r r r 8 f n V V ! ! ) h g ",
"H 4.^ Q A n 6 ; < < : & # # O X $ : 7 f _ a.x.I.R.P.e.e.k.Q.D.k.j.u.#.$.j.Q.Q.^.].R.i._ K i < = + # X $ = : - 3 8 8 8 r B C M f ",
"K u.2.o.A M n B ( ;.-.%.d 3 : = = : > 6 f C [ x.c.n.e.e.6.h.k.b.3.&...2.8.V.I.I.3.K 9 > $ $ X . . . . X o $ $ = = - - , , 8 t y ",
"H =.2.8. ...6.w.a.g.D.c.P.3._ B l s r t f n C #.j.g.z.d.d.t.t.6.#.' ! ^ o.u.a./ l 3 = # X . . . O X $ : 3 < > > > > : - > > < , ",
"P =.8.t.o.s.4.6.w.t.&.a.0.3._ _ ( ! M M M V V ] t.s.8.t.s.d.1.a.} C n m R ! M f 1 = $ # o # $ = < s c K E B s d s r < < < < = > ",
"%._ r.t.t.t.$.O.O.C V / u.a.u.u.#.T n f n C ! ) w.a.s.3.d.s.q.e.! f y f n n y 1 ; = @ @ = - 3 r B ! _ _ &.| _ E / R B y r 7 > : ",
"*...#.x.8.z.2.} y n a.}. XK.Q.P.w.&.V y 8 f C ] o.f.r.g.4.t.q.r.E f t y y y 8 1 - - = - - 7 r f f M n M n B l C T E T C n r 3 , ",
"i.3./ 6.x.x...y y *.G.Q.i.%.K l d d f r 8 0 g C ' 8.e.t.t.t.t.o.W n y y t 8 , ; ; - : : = - 6 t y y y t 8 6 , , , 8 n n n f y 8 ",
"u.a.V ! e.g.T 8 B *.I i > + O . . . X = < 6 8 n E 2.w.n.k.S.u.#.! V y t 8 7 - - = = o X : t C _ _ _ D C M f , : + @ 7 l C C n n ",
"%.&.M T O.a.' f M e + . . . O .       . o @ ; y Z ^ x.).).W.C.t...C y 6 6 < = @ + X X = 3 > : & & = & : < > : = = $ $ s ( E n f ",
"*.Z.} V n M n q , @ . X # # # .     . # $ o + - Z ^ V.<X&XoXQ.D.6.C 8 , , ; @ + X . + @ o . .                     . . : l f y M ",
"i.i.k.! } Q q ; 6 n f l l d r 3 > > > 7 3 - - ; ! f.Q.3XqX;X[.Q.a.n 1 , 1 - = = + o + = > * # . . . . . . . . O O X X @ r f ~ o.",
"u.a.2.w.s.V.O.o.! t.t.t.d.d.] } ) / V Y A Y V o.j.[.).6XqXqXoXI.#.a , , 6 , 1 n M V V / ( _ H f 9 9 9 r 7 3 , 3 , < , t 6 t y f ",
"w.] ~ o.I.W.U.k.j.O.o. .X.! R Z Z Z Z Z A Z h Z x.}.&XqXyXqX&XZ.} y 1 1 g M n ! 8.} ! ! } o. .] ! Z V m m f f n Z Y h 8 1 R ! f ",
"..! A O.I.`.!.XXW.j.) A m m m Z m Z h n y q n k.[.+X=XqX8XqXoXZ.W g 8 0 n !  .2.o.r.! Z h m Z Z n y 0 q g Z Z Z h q - - f ` X.$.",
"i.` ^ x.W.!.'.'..XOXD.o.Z g y q 0 6 1 1 y *.oX<X<X;X<X5X8X<X).u.T g g h A Q 8.t.s.k.h.t.) y 1 1 1 1 1 1 1 , ; - - - 8 G } C E ..",
"k.O. .V.R.`.R.[.<X<XoX[.Q.Z.^ Z m C C a.@X3X=X3X2X4X3X5X6X<Xk.] m m m ~ ^ O.o.r.d.V.k.R.U.'.j.3.T M q 8 8 t y n R 8.2.s.s.] M ) ",
"p.o.2.V.R.E./.XX;X2X2X2X:XoXOX_.[.;X.X-X<X2X3X<X3X5X5X8XqX@Xa.! m m Z ~ 8.9.e.9.t.f.V.k.T./.R._.;XXX/.Q.].W.D.D.Q.x.d.r.t.o.T V ",
"&.^ t.D.P./.[.#X3X3X8X3X@X+XW.[.).;X;X2X@X;X3X8X6XqXqXwX&XQ.2.Q m Z m Z Z ! ~ ^ 2.x.g.V.I.'.'.[._.;X+X+X}.].T.Q.n.x.9.e.O.2.^ ! ",
"&.3.S.D.W.Q.XX#X<X6XqX3X&X).).T.;X3X<X;X&X+X6X8XqXyXrX3X}.D.t. .~ Z h y g q 0 6 y A t.D.T.W._.].+X#X&X#X+XXX).P.V.h.0.7.7.2.o.) ",
"O.9.s.x.T.}.E.+X6XyXqXwX<X;X^.;X-X<X<X<X<X:XoX5XyXuXuX3X[.I.z.f.x. .h y g Z g 0 , 1 y #.D.[.U.}.XX<X.X+XOX#XQ.Q.V.k.2.e.9.t.] } ",
"w.<.s.t.D.[.}.{.<X3X6X6XqX5X<X:X<X<X-XoX&XoX<X<XyXrXqX&X[.Q.V.C.D.8.Z g m ^ ^ A g ; - 6 C 6.x.R.].+X}./.XX_.P.D.D.v.d.q.t.q.$. .",
"#.&.s.r.x.Q.E.XX_.<X&X<X<X2X$X;X].Q.a.6.a.oX3X6XyXrX6X&X).oX[.XXk.^ m g A e.5.^ h 1 - ; , f ! f.k.I.S.Q.B.P.C.B.e.s.9.t.2.e.2.6.",
"&. .t.5.t.R.Q.~._.[.]./.}.Q.D.g.O.m y n c.&X:X6XwXrX6X&X&X&XoXR.! g q g Z Q Z g 0 1 6 6 6 6 y T 2.8.g.z.x.h.l.q.8.5.e.7.r.1.2.X.",
"4.<.e.y.s.S.n./.!.'.C.U.f.8.A n 6 , 6 w.&X2X;XqXrXuXrXqX3X<XI.' q 1 ; ; - - - - , 6 8 0 y g 0 q M ) ' 8.t.f.o.2.<.2.X.4.4.4.! / ",
"} o.e.e.h.d.x.c.U.D.t.o.^ m 0 ; - 6 6.&X3X5X5XyXuXiXiXyX6X@X} t ; + o o + + + - ; , 1 1 0 q q 0 8 y V ! o.^ ! ! ' ..' ..../ Q E ",
"_  .&.9.O.7.t.h.s.8.! A g 6 - - t i.oX6X6XqX8XwXyXyX8X6X}.3.t ; + + + @ + + + @ @ - - - , 8 6 6 , , 6 M C Q T R T ! E ! W E V E ",
"/ / o. .O. .2.2.8.~ m y 6 - - 0 6.).<X<X6XqX8X3X3X<X).a.#.a , = @ + + + + o + @ = = = + = - - - - = = , f T R T C V T R E C l C ",
"T L ! ) ' { ~  .{ T q 6 ; - 1 T a.oX X;X<X<X).Q.).R...n 6 , - @ @ @ + + + + = = - : + + @ = - = = + + $ - f T ! W R V C E E f K ",
"D M R ! ' ^ ^ ^ ^ n 6 ; ; , n W j.c.u.| u.3.&.O.w.w.' f 1 , , 6 1 - - = - - = - , > = = : = : : = $ $ $ $ : r T ! R V V ( ! n B ",
"f l R [ ~ { ^ ! Z f 1 , ; t B E #.( y y M ) Q V f l 8 ; - 1 f K f 6 ; ; - - - - - : - : = ; - ; - : = + + + = t M C C ! ( _ l B ",
"l B E ' 1.2.) m m f 6 , , f l B B r 8 8 y n n t 6 1 - + - y C C V y 8 , ; - ; ; , , < ; , , , , 1 < > = $ + + - t M E / | | B B ",
"x B B @.w.j.] V g n 1 , 1 B f n f 8 7 6 t l f f 6 6 ; 6 / D.e. .Q m q 6 1 1 1 6 y y 0 0 8 6 1 6 1 1 - : = + + @ ; M T ..&.*.B B ",
"d c K *.k.k.g.R y n f 6 t K f s s 8 7 8 l n m n a f f T O.e.0.5.^ A m g g g g y g m h g 0 6 1 6 6 1 < > = = @ : - f ` #.u.@.K B ",
"d c K 3.u.Z.k.8.f f V f t E p 9 , 7 , 7 6 q g m Z W Z A Y Q ! ^ Q m m g q q 0 0 6 0 6 1 ; ; - - @ @ + + + : < 9 , l ' #._ I K K ",
"x B K _ k.P.R.k.T t C C f M f 9 ; = = @ - , 8 q g g g g n n n g q 8 6 , ; - - - ; - = @ + + + + + o + @ > s l B 0 V ..' _ L B K ",
"K U L _ i.Q.D.R.u.f f ! C T M f y r 1 1 q 0 6 0 0 0 6 0 q 0 1 6 8 8 8 0 0 9 1 1 1 1 ; ; ; ; ; 1 1 , , 7 n ' ! R f / ! ) E K c K ",
"I U I ( 3.Z.D.D.W.K r T @.) R T T V V h n Z Z A / G F F F F F F G F F F F F N j n p a p a a y q q q y m t.6.' M M ..' R C c c c ",
"L =.=.=.%.a.k.W.N.u.p f _ #.R R C T ! / n V / [ Q ! G G G ..3.6.+.+.B N n f 9 a g g q g y a q 0 0 n ! j.f...W n C o.( K x c B B ",
"I =.=.=.%.%.k.p.r.0.C 8 B #.] R T ! Q Q m n l l f M F F L B l l B l r 9 9 7 7 7 9 9 8 t t 8 8 t l E a.i.6...C f / [ B d l c B E ",
"%.;.U =.=.U *.%.( | E s r 3.o. .{ $.Q Q m n r 8 8 r r s f f r s e e 3 3 3 7 > 3 3 7 7 9 r y t l E a.a.w.4.} y n ! ( p d f x B K ",
"%.=.=.=.;.%.I d d %._ f 7 E 2.9.2.o.` Z n n y 0 t r y f l l f s r 9 7 3 3 3 < < 3 7 9 9 r s n E w.j.w.w.2.C f C R M r r l H K B ",
"I =.*.=.=.U d 5 4 i c K 8 y ' g.O.O. .A a f f f l K V T V C l l r 9 7 7 < < 3 9 r s s s f B / a.p.p.a.p.[ n V ! V p r p c J L ( ",
"J =.;.=.=.H u > * > 7 d K C } s.8.o. .A n l n M #.j.p.O.4.o.T B f s r 9 9 7 r f B C C B B ! u.p.p.p.j.i.C n C V f d f B L L U ( ",
"b %.%.%.U b e > & 2 > 2 c ;.a.k.6.f.^ ! m m M ..D.W.6.0.&.0...4.*.%.J K K I ( _ _ | ( E ! 6.&.i.i.M.u./ V T M f f C B c K U _ | ",
"z I U U U x 4 & & * & * u *.R.[.t.1.q.^ { ) ..a.).U.N.0.w.0.u.u.i.:.:.>.,.,.>.;.| / E [ 6.3.u.*.i.p.u.E R C p r r B L c B ( _ u.",
"w H I %.I z * % & & & > 5 _ H.;Xk.4.f.a./ &.0.D.E./.N.U.M.Z.p.M.i.G.H.#XG.>.i.i./ ! / ..[ 6.4.u.*.i.*._ L B e 9 9 f B C B U %.*.",
"w x J U H e * # % % * > 5 K @X;X].w.0.t.0.3.c.c.'.'.{.[.oX X X]. XJ.H. Xi.&.a.u.| / ! / | @.a.i.p.;.| ( B d u e 7 9 f c I I z r ",
"5 5 v b z w % # % & % * 4 K <X2XoXD. .8.w.B.x.I.Y.).I.R.D.Q.F.H.F.M.p.x.k.i...#._ ! ! ..6.i.k.P.T.i.U d H c u e < : 7 r d 5 4 4 ",
"% & 2 4 k 5 & O # # % : 3 B ;X3X#Xw.| a.oX@X].(.~.(.A.c.A.p.a.6.w.u.3.<.<.3.] ` } #.] [ x.I.D.I.Z.=.H e u i w 7 > $ = > > > > > ",
"O O # * 4 4 : O O # % : < E ;X6Xm.;. X:X;X3X<X<X.X@X].}.D.E.k.j.0.<./ ! T ` / #.&.0.#.a.D.R.W.}.u.H x i > 4 > 4 & O * 3 3 9 3 i ",
"O O O % * 2 * O O O % = r A.2XqX8XrX0X5X6XrXyXtX8X,XqX<X6XoXXX|.[.R.@.R E ! / [ &.w.k.W.].@XH.%.H i e e 4 > & & # # > 7 r d f x ",
". . . # % * & # . O $ < @..X1XrXuXiXtXrXrXuXtXiXiXiX0XrXtXwX;X;X:X3X Xm.%.L D } k.R.F..X;X X_ H c w * * & & O O O # & < 9 r r s ",
". . . O # & % # . X # d i.%X7X7XrXtXtX7X9X9X9X9XeXeX9X9X9X9X>X>X,X>X>X>X>X,.U ;.G.H.H. X*X,.b v k w * & & # O O # # % * 5 3 w u "
};
