/* XPM */
static char *out[] = {
/* columns rows colors chars-per-pixel */
"64 64 227 2 ",
"   c #2B1608",
".  c #4A2415",
"X  c #5C2C1A",
"o  c #68321E",
"O  c #583F2A",
"+  c #763A24",
"@  c #7E3D26",
"#  c #63432F",
"$  c #6E402D",
"%  c #6A4D37",
"&  c #77523D",
"*  c #7F5D46",
"=  c #814A35",
"-  c #8E4B34",
";  c #96523A",
":  c #865540",
">  c #8C5D46",
",  c #9D5943",
"<  c #955F49",
"1  c #A45E45",
"2  c #89664F",
"3  c #9B644E",
"4  c #916A53",
"5  c #9A6F56",
"6  c #AB644A",
"7  c #A16851",
"8  c #AD6D51",
"9  c #A86D58",
"0  c #B36A51",
"q  c #B76F53",
"w  c #A1765D",
"e  c #A7755C",
"r  c #AE755B",
"t  c #B4715D",
"y  c #B97658",
"u  c #A87B63",
"i  c #AE7D64",
"p  c #BD7564",
"a  c #B27861",
"s  c #B47F64",
"d  c #BB7E63",
"f  c #C1785B",
"g  c #C87E61",
"h  c #C07B6B",
"j  c #AC836B",
"k  c #BE8466",
"l  c #B3876E",
"z  c #BA876A",
"x  c #BF8B6C",
"c  c #B78C72",
"v  c #BC8E72",
"b  c #C38264",
"n  c #CC8566",
"m  c #C78568",
"M  c #C4816F",
"N  c #C48A6C",
"B  c #CC8C6D",
"V  c #CC8C6E",
"C  c #D18969",
"Z  c #D48C6E",
"A  c #D88F6F",
"S  c #C88973",
"D  c #D08B78",
"F  c #C39072",
"G  c #C69677",
"H  c #C89172",
"J  c #CC9475",
"K  c #C09379",
"L  c #CA997A",
"P  c #CF9C7E",
"I  c #D19071",
"U  c #D09072",
"Y  c #D29172",
"T  c #D09273",
"R  c #D39273",
"E  c #D49374",
"W  c #D59475",
"Q  c #DA9472",
"!  c #DD9876",
"~  c #D79778",
"^  c #D1967C",
"/  c #D89778",
"(  c #D59A7B",
")  c #D99878",
"_  c #D9997A",
"`  c #DB9A7A",
"'  c #DA9A7B",
"]  c #DC9B7B",
"[  c #DB9C7D",
"{  c #DA9D7E",
"}  c #DE9D7D",
"|  c #DC9D7E",
" . c #DD9D7E",
".. c #E09E7D",
"X. c #E29F7D",
"o. c #E2A07F",
"O. c #D89380",
"+. c #D89982",
"@. c #DD9E80",
"#. c #DE9F80",
"$. c #DF9F80",
"%. c #DD9986",
"&. c #D99E87",
"*. c #CFA186",
"=. c #D4A082",
"-. c #DFA081",
";. c #DCA386",
":. c #D8A485",
">. c #DCA88A",
",. c #DFAB8E",
"<. c #DFAF94",
"1. c #E0A081",
"2. c #E3A181",
"3. c #E0A182",
"4. c #E1A283",
"5. c #E3A282",
"6. c #E4A281",
"7. c #E5A382",
"8. c #E4A383",
"9. c #E5A483",
"0. c #E6A483",
"q. c #E5A484",
"w. c #E6A585",
"e. c #E7A685",
"r. c #E7A686",
"t. c #E8A786",
"y. c #E8A787",
"u. c #E9A887",
"i. c #E0A58A",
"p. c #E3AC8D",
"a. c #E7AD8F",
"s. c #E8A888",
"d. c #E9A888",
"f. c #E9A989",
"g. c #EAA989",
"h. c #EAAA8A",
"j. c #EBAA8A",
"k. c #EBAB8B",
"l. c #EBAC8C",
"z. c #EBAE8F",
"x. c #ECAC8C",
"c. c #EDAD8D",
"v. c #EDAE8E",
"b. c #ECAE8F",
"n. c #EEAF8F",
"m. c #EEAF90",
"M. c #E4B195",
"N. c #E9B193",
"B. c #EDB091",
"V. c #EEB090",
"C. c #EFB090",
"Z. c #EEB091",
"A. c #EDB192",
"S. c #EEB192",
"D. c #EFB192",
"F. c #EFB293",
"G. c #ECB496",
"H. c #E6B599",
"J. c #EAB79A",
"K. c #EEB899",
"L. c #EEBC9E",
"P. c #F0B293",
"I. c #F0B394",
"U. c #F0B495",
"Y. c #F1B495",
"T. c #F0B496",
"R. c #F1B596",
"E. c #F1B597",
"W. c #F2B596",
"Q. c #F2B697",
"!. c #F2B698",
"~. c #F2B798",
"^. c #F2B799",
"/. c #F3B899",
"(. c #F2B89A",
"). c #F3B89A",
"_. c #F3B99A",
"`. c #F3B99B",
"'. c #F4B99B",
"]. c #F4BA9B",
"[. c #F4BA9C",
"{. c #F4BB9C",
"}. c #F4BB9D",
"|. c #F5BB9D",
" X c #F5BC9E",
".X c #F5BD9F",
"XX c #F5BE9F",
"oX c #F1BFA1",
"OX c #F5BEA0",
"+X c #F6BEA0",
"@X c #F6BFA0",
"#X c #F6BFA1",
"$X c #F6C0A1",
"%X c #F6C0A2",
"&X c #F6C1A2",
"*X c #F6C1A3",
"=X c #F6C2A3",
"-X c #F7C2A3",
";X c #F6C3A4",
":X c #F7C3A5",
">X c #F2C4A5",
",X c #F7C4A5",
"<X c #F7C5A6",
"1X c #F7C6A7",
"2X c #F7C7A8",
"3X c #F7C8A9",
"4X c #F0CBAD",
"5X c #F8C8A9",
"6X c #F8C9AA",
"7X c #F8CAAB",
"8X c #F8CBAC",
"9X c #F8CCAD",
"0X c #F8CDAE",
"qX c #F9CEAF",
"wX c #F3D1B3",
"eX c #F7D1B2",
"rX c #F0D4B6",
"tX c #F6D4B6",
"yX c #FAD3B4",
"uX c #FAD7B8",
"iX c #F1D8B9",
"pX c #F7D8BA",
"aX c #F5DBBB",
"sX c #FADDBE",
"dX c #F6DDC0",
"fX c #F9E1C3",
"gX c #FBE5C7",
/* pixels */
"<.S.t.t.) N j j e l L =.P <.>.M.<.M.<.M.<.M.M.J.M.K.J.L.*X*XL.L.|.OXL.L.E.'.E.~.S.D.Z.D.z.P.V.n.w.d.8.s.8.7.` } ~ _ W ` ) ~ R E ",
">.t.c.x.u.R z s s l P *.>.<.M.M.K.K.L.K.L.L.*XOX<X;X2X,X6X5X%X-X%XOX+X X+X/.|.|./.F.S.D.P.C.D.n.c.d.y.d.h.5.} ] ] ] ..` ] ` / R ",
"F ....0.5.) b M { N.M.K.#X2X#X@X-X%X|.-X7X1X|.:X<X2X*X1X<X1X(.+X%X-XU./.|.|.F.].W.W.l.l.n.m.s.k.s.g.4.y.w.2./ ` } ] ~  .1.` I R ",
"x A Q } } V b S _ #.i.N.+X#X#X#X<X|.+X%X<X%X X'.2X2X;X=X<X%X|.+X*X|.T.P./.~.R.~.'.T.g.f.n.n.r.4.f.w.e.y.r...) [ ]  .] ..$./ W Z ",
"z A A ) d 7 : : : : < d i.J.|.#X#X:X#X2X-X%X[.+X:X<X-X;X.X[.R.+XE.|.U.R.U.R.U.R.K.n.r.n.j.j.w.d.r.j.j.r.] } ]  .` 3.1.5.) E Z Z ",
"F ! n 8 : + # X . . O $ < s ( a.~.+X#X:X#X~.T.T.<X:X<XOX/.A.R.'.+X'.R.U.#X-XR.~.(.I.V.y.c.d.q.w.g.l.c.q.8.@.#.@.#.#.4.$.` Y C C ",
"K ! 0 , 3 a l z 4 & % & : < 0 V 4.~.'.|./.R.V.P.#X2X(.'.R.N.n.~.+X:X|.#X*X<XK.'.'.R.g.g.g.r.o.d.n.n.r.r.q.8._ #.-.w... .) Y m n ",
"K C 8 z i.J.K.~.L.<.L z s r d m ~ 8.U.R.U.D.j.n./.+XU.G.G.c.c.C.+X#X:X+X2X2X+XU.'.A.d.8.d.d.d.d.n.j.r.r.d.8.#.#.i.-.1.` ~ Z g b ",
"c ) W a.N.'.'.|.|.+X~.G.;.~ V R I ' s.R.~.I.l.P.m.F.D.T.w.g.g.n.R.'.|.:X#X|.R.N.i.{ V T V ^ ' ~ R ` _ #.| 1.#.8.#.#.#.#.W U g b ",
"l i.8.8.j.j.n.j.a.s.a.N.N.i.[ ~ W ) 4.C.R.I.Q.P.P.C.D.w.4.-.w.d.A.R.N.i.( z r 9 3 : & : = > 7 9 9 a b m U W ) _ ' | ] _ W C g d ",
"x i.#.r.w.] m ^ #.#.( _ ~ _ T ` ..8.#.A.P.R.N.D.G.D.g.1.W ) W ] 4.r.R d 7 : $ o X . . . . X o $ : > 3 8 a d r d V ^ U ~ I m y d ",
"F >.8.] Y r ' s.K.K.a.s.4.I d b R o.q.c.U.n.n.l.P.C.c.) m m m S I V y , - + o X X . . . X o $ @ = = = - < < < < 9 9 r d m f d f ",
"x :.4.W t T N.H.N.N.s.a.w.! b y y E ..c.c.G.l.n.j.I.n.| f d d m b y 6 ; = + + + + = ; 7 9 z N b 8 7 < 3 > - : ; < < < < < 9 t f ",
"F >.s.n d i.>.x r 3 < 3 s B n f q b R } j.n.C.l.c.c.d.] m b y y y 8 1 ; - : - ; 6 a N R _ #.i.1.#.J V N d r 8 7 7 < > : : : 3 0 ",
"F >.j.T m ( > . . O % O O = 3 0 0 t d Y o.n.A.P.C.P.w.| E m y y 8 1 ; ; ; ; ; < 9 y d m b k y d b S N R ~ _ b k d r < > : : = , ",
"P ;.s.T b : .   . O w & . O $ : < 1 8 m ! g.|.Q.'.R.c.o.~ N y 8 1 ; - - - @ + ; d R -.1.8._ V b y 1 , , r m V V V z r 9 7 < > < ",
"P =.&.) 7 X   . O % % O . . . $ @ @ - 0 W r.+X7X+X#XR.n.~ d 6 1 , ; = = o $ 7 y 9 3 3 3 < 5 w r r r 7 : $ > d H N b d b t 8 r r ",
"=.:.U t ; < : : > : % O . . . # $ $ + @ / j.:XqXqX<X|.A./ r 1 1 , - @ $ X = - @ o . .         . . . O # o X @ d R R n d d b B d ",
":.=.m t 9 ) 4.` #.^ a 5 4 > < r 9 7 7 b r.|.:XuXqXqX~.j.B 0 , 8 , , 1 ; - - : < 3 2 % O . . . . .     . . . . = t 8 , 0 d n y d ",
"=.P 1.i.j...o.d.u.j.4.| _ W U m V E W W c.+X2XuXqX0X'.i.Z 8 1 q b d E ] 1.` ` _ ] { ( z r 9 7 9 9 > : - = + = , 6 6 m / $.8.8.8.",
"=.=.l.I.j.4.o.d.7.] W W C C n Z C n y U P.:X;XuX0X7X'.q.m q 0 f Z ` } q.2.] U W ` q...! C Z C U n n m V U U g 0 ; y m U W ..2.8.",
">.;.s.C.R.D.n...Z Z C C Z n g y 8 8 V K.<X<X6X0X0X+Xn._ m f g n U ..y.u.j.j.8.Z b q y f f q 0 0 f g g f q 1 - ; y ) q.] m y y 0 ",
",.,.1.n.R.{.Q.'.w.Z y 0 6 8 1 6 b N.<X2X6X0X2X7X2X#X-.Z n Z Z ) } o.q.r.j.C.l.C.g.^ t 1 1 1 , ; ; ; = - - 1 y } o.} W | 1.E 0 t ",
"p.;.1.n.E./..X2X<X+XU.r.q.4.i.J.<X7X7X1XqXqXqX7X2XU.] n C Z ! 2.g.g.r.w.c.C.n.R.|.R.~.R.U.a.( ( ^ Z W #.l.c.j.j.n.8.Y U ..8.] ] ",
"i.i.r.P.C. X,X7X2X<X|.#X#X;X;XqX8X8X2X8XqXuXuXqX'.l.) Z n Z A ! ! ....q.d.n.U.R.U.'.R.|.+X%X-X,X|.|.'.'.U.P.C.c.q.u...R U 1.w.j.",
"N.i.g.P.|.:X2XqXyX7X+X|.;X<X8X8X0X5X7XqXqXuXuX<X~.j.o.) W C n f f y q y C 2.C.'.'.U.|.|.<X2X2X<X:X+X'.'.R.n.j.w.c.w.8.1.W / q.w.",
"N.a.g.~.'.1X7XqXuXqX+X#X:XqX8XqX0X7X7XqXsXgXqX*XU.P.q.w.q.W y y f n q 6 , 0 B c.'.'.~.+X2X7X<X2X<X:X(. X+X~.w.r.r.v.6.r.2.` W 4.",
"m.l.c.'.:X,XqXuXuXqX2X2XqXqX0X8XqX2X2XqXsXgXqX+XR.n.n.n.n...b f Z o.} C q ; , y ..c.~.'.:X<X<X:X7X:X#X|.+XW.D.k.D.l.f.q.w.../ ..",
"w.n.A.+X#X2X7XuXsXtXqXqX2XqX2X2X+X#X2XqXuXsX7X*XU.R.~.+X2.A g n } j.g.2.C 1 - ; 1 m 1.U.R.:X<X<X+X#X'.'.~.R.n.v.n.c.g.d.2.o.` } ",
"q.d.n.|.#X:X7X7XqX7X;X<X<X+X~.i.-.n.<X7XuXuX7X:X#X|.+Xa.B f f n ! } ) n f 1 , 1 1 1 f / s.R.'.'.|.'.R.R.n.n.l.g.l.c.g.w.q.7.1.) ",
"r.d.r.|.#X+X'.+X%X+Xn.n.d.} g q n R.:XqXpXsXqX7X2X2XN.B 0 1 , 1 , , - ; , 1 0 y y q 6 y U 8.8.C.P.P.j.j.j.n.w.j.l.c.1.2.2.q.` ~ ",
"q.1.w.P.|.+X~.~.'.n.2.E n 8 ; 0 z.1X2XtXgXgXsXuX2XQ.B 6 - + o $ + + @ = , 1 6 8 0 q q 0 t b R o.g.g.q.8.g.g.q.d.l.w.2.o.2.8.( ) ",
" .o.2.C.P.|.'.'.u.#.C f , - 8 a.OXqXtXsXgXgXsXuXL.` 9 - + + + @ + + + = = ; ; , , 8 q q 8 6 0 m R ] _ o.` 1.8.8.2.o.] 4.' | _ ( ",
"3. ...n.n.n.~.d.! n q , - r s.*XqXuXuXuXsXuX2XL.q.y ; = @ + + $ $ o + + = = = @ @ ; , , , ; ; , d V R R W ) ] ] | ~ _ _ _ ^ ^ ^ ",
"2.2.` g.c.C.q.! n p , - 1 -.K.7XqXuXqX7X2X<Xi.U t , @ + + + $ + + + @ = - ; @ + + = = - - = @ = - r S _ _ / Z W W ) B ) R I I ^ ",
"..[ _ 1.e.2.! U f 6 - ; m s.*X2X2X+XJ.N.~.R.| d 1 ; ; ; , - - = = - = - < , = = = - - - - = + + + + 3 U 2.o.W U E R T T ^ N J ^ ",
"E _ ` 1.) $.W m q , - 0 R a.N.i.^ { #.8._ #.^ d , 6 k R k 6 < , - - - - ; < ; - : - - ; - - = = + + + < d _ ~ W U W W ' ^ b V ] ",
"W ~ ~ ] #.) W d 6 ; , m W -.T t r b R n y r 1 - @ 1 B W U y 0 1 , ; ; - ; ; , ; ; ; , , 1 3 3 3 - + + @ > y Y R W ) ] #.( z V ( ",
"V T V ) ` ) n q 1 , , V V T a 9 8 d d k 0 8 , - t i.8.o.` Z f q 6 1 ; 1 0 q 6 6 6 6 1 6 6 0 1 1 , : + + = ; y R / #.' 4.;.H N ^ ",
"N N S Y ] ` g 0 8 1 1 N S N r 7 8 y d m y r r d ..n.P.j.8.Q C g f q 0 q n C g g n q 6 0 y 0 6 6 6 > @ + = - 1 V } o.i.i.i.H H T ",
"d k k ) _ ` n y 8 1 , z N N r 9 8 y b m b B / #.) 4.2.w.2.` A C g n g f f n g g 0 0 6 6 6 6 1 1 , > : = : < , n ) 4.i.i.#.J F ^ ",
"d k z ^ ..1.Y t y 0 7 b V r r 9 9 9 0 y C W E C C Z Z Z Z g g f q 8 6 6 8 6 6 , ; - - - - = @ + + o @ , 8 y 8 m ] [ | -.#.J F J ",
"d x s ^ q.j._ d 8 d 8 N H 6 - - = = - , 0 q 0 q y f q p q 8 , , ; - - ; , , - - - = = - ; ; = = - < 6 V / ) y B o.4.] ( ' ^ H ^ ",
"k x z J i.z.l.I t y N d S 9 , - = ; 1 1 8 6 1 6 8 8 6 8 t t t y h h h h h y y t 0 0 8 q p y 8 0 8 y W 4.w.2.b W -.#.' _ ^ F J T ",
"s N x ( i.z.n.s.m y S V N b d d y f n C n Z D D D D D O.O.+.O.O.D D h h h g f h p f f f q q 0 f f ..Z.w.../ b ..o.q.) T x F H H ",
"z x G F ;.A.A.N.-.d d _ _ ^ I Z E n g E ] 1.%.O.%.%.+.%.+.+.O.m h h r 9 t t 0 8 p p t 0 8 8 q m 2.A.T.#.` n B o.d.#.R N x x H S ",
"L P J L ( A.n.E.A.( r J | ~ C Z W / g Z _ ^ m V J D h h z z r 9 7 7 < < 3 3 < 7 8 t 0 r r t d ' D.E.f.1.W b B 4.8._ d d d F b N ",
"L =.^ ^ P i.z.G.K.l.b y #.` U I W ) g y y 8 9 9 r 9 9 9 r r 9 7 9 3 < < 3 3 < 3 9 8 8 0 y b / f.T.E.q.1.Y d R _ ) N s s x N N m ",
"G :.=.&.( ;.s.A.B.K.' d V 4.` ] W A b y r 8 9 9 r d d d a a r 9 7 3 > < > 3 3 9 9 8 8 a d ~ s.G.B.z.w.4.m m W ) N a r z z N S T ",
"P =.:.=.{ =.;.f.z.z.z.z d o.q.] _ Z b y y y t y d b m m b d r 9 7 3 < < 3 9 r y d d b m ) a.A.A.z.a.z.) b R ] U d r r r N S W ~ ",
"=.>.*.:.;.:.^ i.{ r.8.V 8 ] q.o.` Z d y y b d S I R n I U N y r 9 9 7 9 d N m U W R V ^ i.~.f.N.a.N.r.m m ..U N a a 9 s H ^ T J ",
"=.:.:.=.:.( L z a { #.W m V d.X...A g f b B ~ d.P.w.o...o.W S z d z N V | 8.8.w.a.4.{ @.G.N.p.w.l.G.~ b R ~ N a s a s x L =.H b ",
"L >.:.>.=.P d w < z H ) W ) l.d...} n g m / j.P.a.d.8.d.-.d.i.i.;.s.N.J.N.G.z.l.w.2.-.w.s.a.s.s.r.N.I V U R y a N x N ^ L L J ^ ",
"G :.>.>.:.F e > * 2 w L 1.q.P.l.4.2.! A ..l.D.Y.A.d.8.w.a.n.s.N.N.N.N.G.G.A.a.#.i.@.4.7.q.i.s.p.a.s.~ R _ m a d L H F G J P ( ^ ",
"v =.=.=.P F w 4 & > 2 w ( T.P.T.w.C...2.g.~.G.R.[.~.a.A.A.U.a.J.~.1XL.L.K.K.;.-.1.d.8.w.s.s.i.i.a.s.W ' W a 7 r x J k v L { @.;.",
"l L P P P x 5 & & * * < F (.#X~.w.j.l.8.d.~.R.~.-XOX+XXX+X'.K.$X2X7X<XK.a.a.i...8.1.#.1.8.q.i.N.E.i._ _ F l 7 7 a L v F J ( ;.p.",
"w F L =.G s 2 % & & & 4 s J.-X&Xd.w.j.j.f.U.'.+X+X*X|.;X%XOX*X;XK.L.G.i.| s.s.w._ ~ ) #.-.l.B.K.G.i.| G s j e e r x H L H P ( i.",
"w z L P F a & % % & & < a <.0X<XR.g.w.u.f.z.T.V.I.U.K.G.~.L.L.N.N.f.f.s.s.w.8.} _ / @.#.r.b.U.~.G.:.P x l l u e 9 9 s H L L G l ",
"5 w c v z w % # % & % : 5 ;.7X2XE.z.@.q.A.|.E.).{./.s.z.b.b.4.4.r.a.]  ...1.) ..| 8.#.i.l.^.T.{.G.=.x w F c u u < > 7 s x r < 4 ",
"% & 2 5 j 5 & O # % & > 3 ^ qX6X[.i.8.(.8X1X$X{.XX_.F.D.~.m.s.8.9.@.) W ] ~ /  .4.s.' ( F./. X(.a.G k 5 e w 5 w 4 % = > < < < > ",
"O O # * 4 4 * O # # % > < ( 6XqX>.>.OX7X7XeX8X6XOX&XXX$X(.Q.A.P.j.8.~ U U W ` 4.8.h.4.N.E.}.`.G.P x s i 2 2 : 4 & # & < < 5 3 w ",
"O O O % & 2 * O O O % : 9 N.6XeXtXpXtXeXyXpXfXdXpXyXeXeX9XL.+X X'.E.4.J T ^ ~ ( 4.h.F.!.%X*XJ.=.F s w w > : & & % O > 7 a s s z ",
". . . # % * & # . O $ < @.OX3XpXdXfXaXpXpXdXaXfXfXfXrXpXaXuX<X2X1X8XoXN.=.J S [ z.E.S.oX<XoX( F x w * * & & O O O # & < 9 r r i ",
". . . O # & % # . X # s p.;XwXwXpXaXaXwXrXrXrXrXiXiXrXrXrXrX4X4X4X4X4X4X4X<.P >.N.L.L.oX>X<.v c l w * & & # O O # # % * 5 3 w u "
};
