/* XPM */
static char *out[] = {
/* columns rows colors chars-per-pixel */
"64 64 200 2 ",
"   c #2B1608",
".  c #4A2415",
"X  c #5C2C1A",
"o  c #68321E",
"O  c #583F2A",
"+  c #763A24",
"@  c #7E3D26",
"#  c #63432F",
"$  c #6E402D",
"%  c #6A4D37",
"&  c #77523D",
"*  c #7F5D46",
"=  c #814A35",
"-  c #8E4B34",
";  c #96523A",
":  c #865540",
">  c #8C5D46",
",  c #9D5943",
"<  c #955F49",
"1  c #A45E45",
"2  c #89664F",
"3  c #9B644E",
"4  c #916A53",
"5  c #9A6F56",
"6  c #AB644A",
"7  c #A16851",
"8  c #AD6D51",
"9  c #A86D58",
"0  c #B36A51",
"q  c #B76F53",
"w  c #A1765D",
"e  c #A7755C",
"r  c #AE755B",
"t  c #B4715D",
"y  c #B97658",
"u  c #A87B63",
"i  c #AE7D64",
"p  c #B77764",
"a  c #B27861",
"s  c #B47F64",
"d  c #BB7E63",
"f  c #C1785B",
"g  c #C87E61",
"h  c #BE8466",
"j  c #B3876E",
"k  c #BA876A",
"l  c #BF8B6C",
"z  c #B78C72",
"x  c #BC8E72",
"c  c #C38264",
"v  c #CC8566",
"b  c #C78568",
"n  c #C48A6C",
"m  c #CC8C6D",
"M  c #CC8C6E",
"N  c #D18969",
"B  c #D48C6E",
"V  c #D88F6F",
"C  c #C88973",
"Z  c #D08B78",
"A  c #D38E7E",
"S  c #C39072",
"D  c #C69677",
"F  c #C89172",
"G  c #CC9475",
"H  c #CA997A",
"J  c #CF9C7E",
"K  c #D19071",
"L  c #D09072",
"P  c #D09273",
"I  c #D39273",
"U  c #D59475",
"Y  c #DA9472",
"T  c #DD9876",
"R  c #D79778",
"E  c #D1967C",
"W  c #D89778",
"Q  c #D59A7B",
"!  c #D99878",
"~  c #D9997A",
"^  c #DB9A7A",
"/  c #DA9A7B",
"(  c #DC9B7B",
")  c #DB9C7D",
"_  c #DA9D7E",
"`  c #DE9D7D",
"'  c #DC9D7E",
"]  c #DD9D7E",
"[  c #E09E7D",
"{  c #E29F7D",
"}  c #E2A07F",
"|  c #D89982",
" . c #DD9E80",
".. c #DE9F80",
"X. c #DD9986",
"o. c #D4A082",
"O. c #DFA081",
"+. c #DCA386",
"@. c #D8A485",
"#. c #DCA88A",
"$. c #DFAF94",
"%. c #E0A081",
"&. c #E2A181",
"*. c #E3A181",
"=. c #E0A182",
"-. c #E1A283",
";. c #E4A281",
":. c #E4A382",
">. c #E5A382",
",. c #E4A383",
"<. c #E6A483",
"1. c #E5A484",
"2. c #E6A584",
"3. c #E6A585",
"4. c #E7A686",
"5. c #E8A786",
"6. c #E9A887",
"7. c #E0A58A",
"8. c #E3AC8D",
"9. c #E7AD8F",
"0. c #E8A888",
"q. c #EAA989",
"w. c #EAAA8A",
"e. c #EBAA8A",
"r. c #EBAB8B",
"t. c #EBAC8C",
"y. c #EBAE8F",
"u. c #ECAC8C",
"i. c #EDAD8D",
"p. c #ECAE8F",
"a. c #EEAF8F",
"s. c #EEAF90",
"d. c #E9B193",
"f. c #EDB091",
"g. c #EFB090",
"h. c #EEB091",
"j. c #EDB192",
"k. c #EEB192",
"l. c #EFB192",
"z. c #EFB293",
"x. c #ECB496",
"c. c #EAB79A",
"v. c #EEB899",
"b. c #EEBC9E",
"n. c #F0B293",
"m. c #F1B495",
"M. c #F0B496",
"N. c #F1B597",
"B. c #F2B596",
"V. c #F2B697",
"C. c #F2B698",
"Z. c #F2B799",
"A. c #F3B799",
"S. c #F3B899",
"D. c #F2B89A",
"F. c #F3B89A",
"G. c #F3B99A",
"H. c #F4B99B",
"J. c #F4BA9B",
"K. c #F4BA9C",
"L. c #F4BB9D",
"P. c #F5BB9D",
"I. c #F5BC9E",
"U. c #F5BD9F",
"Y. c #F5BE9F",
"T. c #F1BFA1",
"R. c #F6BEA0",
"E. c #F6BFA1",
"W. c #F6C0A2",
"Q. c #F6C1A2",
"!. c #F6C2A3",
"~. c #F7C2A3",
"^. c #F6C3A4",
"/. c #F7C3A5",
"(. c #F2C4A5",
"). c #F7C4A6",
"_. c #F7C5A6",
"`. c #F7C6A7",
"'. c #F7C7A8",
"]. c #F7C8A9",
"[. c #F0CBAD",
"{. c #F8C8A9",
"}. c #F8C9AA",
"|. c #F8CAAB",
" X c #F8CBAC",
".X c #F8CCAD",
"XX c #F9CEAF",
"oX c #F3D1B3",
"OX c #F7D1B2",
"+X c #F0D4B6",
"@X c #F6D4B6",
"#X c #FAD3B4",
"$X c #FAD7B8",
"%X c #F1D8B9",
"&X c #F7D8BA",
"*X c #F5DBBB",
"=X c #FADDBE",
"-X c #F6DDC0",
";X c #F9E1C3",
":X c #FBE5C7",
/* pixels */
"$.k.5.q.( F s i i D 8.d.c.b.b.T.T.E.T.!.T.!.T.^.!._.(._.T.^.!.!.T.!.b.T.K.P.C.A.j.n.h.n.h.k.k.k.0.0.1.w.1.-.( ` W ~ U / R R I U ",
"@.5.u.i.5.! v b ~ r.M.Z.P.W.~.`.{.).'.`.{._.).~.)._.{.}. X{._.).~.W.R.P.R.P.P.H.S.m.m.z.m.n.z.p.u.w.1.5.q.2.` ( ( ( ` ~ ` ~ W I ",
"n V T { W b 9 r a a a n +.P.R.`.^.{.E.).|.|.R.Y.E.`.).XX}.{.Y.W.Q.~.Z.A.K.Y.M.K.C.N.y.p.i.B.r.e.0.w...5.6.<.W ^ ( ( R ` ` ^ B V ",
"x v v f 1 = + $ o X X o : S 9.N.W.R.E.`. X{.P.Z.R.~._.`.|.W.K.Z.E.Q.D.z.S.C.N.C.A.C.f.0.t.s.w.3.5.,.2.e.5.` W T ` T ( ` } U K B ",
"l b y 6 , e d l 5 = X X o = 7 n +.Z.P.).~./.F.m.x.~.).|.).R.C.A.Z.R.K.C.m.P.A.P.A.H.n.s.r.p.q.5.;.5.q.a.} { ~ ` / ] %.&.W I N B ",
"S V g K 8.D.R.P.T.$.x 7 3 > ; 1 h Q y.K.W.R.V.y.j.Y._.~.U.M.z.f.D.R.^.R.I.E.~.W.R.A.D.l.g.q.0.3.q.u.i.r.<.`  . .....-...^ K m N ",
"S a.,.j.F.I.F.W.`.].L.d.#.E y d c R R i.H.P.s.0.z.E.L.L.Z.x.0.a.B.E.W.`.].{.^.!.R.P.k.s.i.r.-.6.a.l.q.r.6.4.) O.-.4.O.-.^ L b v ",
"S m.a.a.B.l.h.z.D.Z.z.f.B.9.-.~ U I I O.N.B.n.t.M.N.B.f.k.9.1.0.n.P.W.~.{.`.!.U.T.M.7._ / R Q -.,.%.*.:.6.,.....,.-.-.` ! N v g ",
"x s.q.a.u.` M _ -.9.d.x.9.4.) ( R ( ~ ,.a.B.m.l.9.M.y.z.3.1.:.q.w.m.K.I.M.9.J S d s 9 3 7 9 7 p d d h M m R W =...-.O.-.R B c c ",
"S a.1.5.` t +.W.`._.Q.P.D.m.' b b I { :.i.m.B.y.f.h.n.l.&.W ~ ( %.6.i.1.P a < + o X X . X . X $ : > < r d c n L U ] ' ..W N g f ",
"D A.1.[ c U T.`.^.Q.x.z.p.f.` m y c K :.i.H.a.a.a.k.a.l.` v b m I R I b 8 ; + $ X X . . . . . X $ $ + : < 9 1 9 r M M R U N f f ",
"J G.h.U b 9.b.#.S r 7 < 7 r c c f q f U 3.g.l.a.a.p.i.u.` h d c m b d 8 , - + $ + $ $ + : : 3 9 r < = = > > > > > , 8 d F c f y ",
"H k.B.( b 9.k = . . . O   . o - 1 0 q N T w.m.B.s.p.i.u.~ b f h d h t 1 - - - - - 1 8 c F Q 7.0...P s s e 3 - : = ; ; < 1 r y f ",
"G y.9.U b 7 .     . # &       . $ = 1 d V *.n.P.A.j.B.q.( m b d y 8 1 , ; ; < , 7 8 c P U I R ( =. .o.Q P c d 7 , < > : : : 7 0 ",
"E ` Q M , $ . X $ % % O       . o X o , N ;.h.).'.W.Z.h.-.L d y t 1 ; - - - + = 7 n P _ _ K h d y p p m ~ O.I c y a , > : = : 1 ",
" .M y , ; M m h U F r 4 & % # * : $ $ $ d 6.Z.XX#X{.E.H.l.M r 1 6 , - = = X $ 7 n x n G _ / U L b y , : 1 c M G K n r 7 3 : - ; ",
"@._ ) >.-.*.u.m.l.n.1.+.J J C n d d d b ` n.Y.$X&XXX).I.5.b 1 1 , - @ @ X X : > + X X # . o & 7 9 r 9 7 + @ 9 M m n d p 8 1 1 6 ",
"8.M.B.s.r.} <.e.6.,.,.-.W I U B U I ^ Y i.H.'.@X-X@X/.x.~ q 1 1 1 - , ; @ @ @ @ > o . .         . . X o $ X o a M m m h c m M y ",
"8.h.a.B.Y.P.5.` U I v B U ` K V B g q M Z.`.'.@X$X#Xb.p.I q , 6 y q f ^ ` ( P U P F i 5 % $ X X .         . . + h K y y c b y c ",
"+.i.n.V.W.~.R.5.K d y f f y 0 1 , 8 Q Y.{.}.XXOXOX`.F.6.K q 6 0 v W I ^ 5.*.W T ,.4.0._ K d d h s 7 ; > = X . + 1 , 1 t f c f y ",
"-.u.m.I.R.}.|.).A.j.U c t t t c -.!.|.|.`.XXXXXX}.W.p.' c f f g b Y <.e.6.q.{ I m U T T V N v v c g c d y y y d , 6 I 1.<.<.( U ",
"0.z.S.I.).|.XX{.~.R.E.P.P.R.)._.{.}. X X XOXOXXX].B.-.m v v V U Y T <.6.q.u.n.y.U y 1 6 0 0 6 6 y g N V B g 0 - , m K m U [ <.m ",
"y.H.N.~.|.#XOXOXXX/.F.P.W. X`. X{.|.|.XXOX=XXX X~.n.W v v B V :.q.e.>.q.e.a.a.m.V.B.] F r 1 - ; ; ; = = @ @ = 0 I :.;.W y y 8 1 ",
"s.A.Y.).XX#X&X$X#X`.F.H.{..XXX}.`.{..XOX$X*X#X^.R.e.U v N B B T { 1.5.5.u.a.n.m.Y.P.P.Y.).I.9._ G c d d m ~ 3.6.<.R ! [ ` y 8 b ",
"t.I.^. XOX=X;X=X.X_.Y./.`.#XOX X!.|.XX&X*X;XXXR.m.r.` T B N g g f f y v ^ p.g.D.A.A.D.R.E.`.^.!.L.J.H.D.m.B.s.a.1.` m R ..-.I K ",
"m.P.). X#X;X;X;X#X}.|.}.XXOXOXXX{.}.XX@X;X;XXXP.n.g.6.5.*.N f y g g 8 , 1 g 6.m.J.K.K.R.{.{.}.`.~.R.Y.S.B.i.u.6.6.} R m ( <.0.L ",
"V.W.I.|.@X-X*X;X&X#X`.|.XXXX!.R.T.).'.@X-X;X}.I.M.B.h.B.6.Y y f Y { V g , ; t [ H.W.A.W.|.XX/.{.).{.D.P.B.l.&.4.e.6.` K U 2.>.P ",
"A.Y.Q.`.OXXXXX}.].E.H.F.G.4.B v r.~. X@X;X$X'.R.I.R.L.p.` N g N 5.s.<.T g ; - 6 U h.F.Y.}. X_.{.}.`.Y.K.H.n.6.<.e.q.>.` I [ } P ",
"g.F.E.`.~.~.Y.I.s.i.[ ~ g 6 , U K.{.OX=X*X#X{.{.)./.M.R d f g T ;.5.T V f 1 - ; , b 4.H.Y._.^./.R.E.P.I.M.B.r.u.6.q.<.2.T W ( T ",
"i.B.P.R.E.A.m.6.{ B f , @ ; _ ~. XXX&X;X;X;X&XXX}.k.K 8 1 , 1 1 1 1 6 1 1 6 q q 6 1 c { l.N.P.P.P.H.N.B.n.g.a.e.e.6.5.,.{ W ( W ",
"a.m.s.K.Y.M.` Y v 0 = @ 1 7.Y.OX@X#X*X;X:X:X*XXXM.m 1 - + o o + + + @ ; 1 0 0 y f f 0 c ( w.e.B.B.B.u.i.u.l.q.i.i.u.>.5.} ` R Q ",
"u.s.l.g.n.*.M f 6 = + 8 f.!.|.#X=X&X-X-X-X@X`.M.I 1 = + + @ + + + @ = = - , 1 6 y y y q f I { 5.i.a.3.5.q.6.r.e.r.e.2.&.:.` U I ",
"<.u.e.u.>.I d 6 = + 6 =.L.XX#X$X$X#X.X#X`.L.8.K 6 - @ + + + o $ o + + @ = ; - ; 1 q q 8 8 t m ` %.&.[ ;.} <.6.6.>.>...-... .I U ",
"4.>.<.} ^ c 8 ; @ ; L 1.~.}.'.(.T.x.D.Y.N.-.d , - @ + @ @ + + + + + + = - = @ + - ; , ; , , 1 b U W T W ( ] -.&.' ~ ~ ~ ] / U K ",
"*.:.T T K d , = - c U 9.N. .m o.=.%./ 4.e.7.y 1 , t y 6 , ; = - = - = - ; = + + = - - - - = = ; c ~ I I U Q I R W R P P R ( M L ",
"{ ] ( B m 8 ; = 1 K P +.F t 8 c U L h y y 1 @ @ 8 I R c 8 1 ; ; - = - ; 7 - - - - - - = = + $ + : h ` ` / I M L U P F n P U L M ",
"W T T Y y 1 ; ; 8 G n P r 8 6 y c h 8 1 , = - y P ` ( ! b y 1 , ; - - ; ; , - ; - ; ; ; - = + + $ - c ..~ U L I K K F n F P P U ",
"R ^ W B y 6 , - t C n n r 8 8 y c m t t 8 1 K m.R.n.6.{ T v y 6 1 , 1 6 0 6 , , 1 , 1 , 1 , < = + + : d U U K K U U P h G U ~ I ",
"I ` U V y y 1 ; p P h s r r r c m V c b U [ ) t.N.H.e.6.{ Y v g f f g V N N f f q 0 6 q 8 8 , ; = + + - d I M U R ..P h G ) K M ",
"K / W T d 8 p 1 p P 9 7 r 9 1 8 d g B ` >.` ^ T >.>.>.` ` T V N Y V N B ~ ` Y v f y q f 0 6 6 1 ; + + @ , b L R ` =. .h G P L N ",
"b ~ { :.b 8 b c p Q 9 ; = @ + = , 0 y c f g v N v g f y q 0 6 1 1 6 0 y y f y 0 0 q 0 q 0 8 8 6 < : @ - - d I ` ..-.+.n n U U N ",
"b W :.q.=.p c ) d n s 9 , - ; 8 0 0 6 6 0 q 0 0 1 1 1 , 1 , , ; - - ; - - = @ @ = = = - - = - - - - ; 7 1 t U ] -.7.+.n F U I m ",
"n ) ,.j.n.Q t Q E M b n n M c N N V m I T  .A | | X.A | X.X.A A A K g f y 8 , , , ; ; ; - = + + @ 7 d m c y U %.&.-.E n F Q M N ",
"k Q 9.z.H.p.d c -.) R U W U B g T &.<.6.i.-.=.w.9.f.1.-.9.=.| A A b c c Z Z f f f f f y f 0 1 , t W ( } m c ` [ -.Q P x D E P m ",
"s E 8.F.B.D.o.s Q -.R R R T T N Y <.) Q O... .3.X.7.#.+.A c d c d 7 t d q q q y q q q q 0 q q g %.e.:.1.c U ` &.( U C n S P C b ",
"k n 7.z.P.L.f.n h &.~ U R ! ^ B c y y 8 y d a r 9 r a a r 3 3 < < > 3 3 3 < 9 8 8 0 0 6 6 y N r.A.,.{ K c R &.] Q F l l H F n b ",
"G E P y.K.Y.N.-.p R O.[ [ [ V B h t 8 1 1 7 7 9 9 9 7 9 9 7 < < > > : > > 3 < 7 8 t 6 6 t K 3.m.p.1.I c b 6.=.R m n s l H D h b ",
"H J P _ N.Z.G.h.L p %.*.>.` V N c y t 8 r t t p h d p r r 7 3 < > > : > 2 3 3 7 8 8 8 y L w.m.y.3...I t U -.~ n h s s h l F n b ",
"H @._  .1.z.m.Z.O.r I w.5.{ Y B y y t y y c b M b b h d r r 7 7 > > > 3 9 r a a r y d K 3.B.k.9.=.-.b y U ~ M p a a d l h G M I ",
"J @.@.o.o.3.y.s.6.d h 6.q.` ( B y y d c ..<.` T T U m c d y e 7 7 7 9 p n P U M L M P -.M.k.j.9.9.{ y b ! I c 9 a s a k P F U ~ ",
"o.#.o.+.o.+.+.-.5./ y &.u.3.^ Y f d h ~ N.P.h.u.e.2.U K M n d h h n F Q ,.r.6.<.] ] ~ j.n.m.3.9.p.K y K W M 9 e a s a S P E I P ",
"o.@.@.@.@.o.l h 9.' K :.B.6.} T B v R 0.S.B.w.w.a.6.q.0.9.+._ +.d.d.x.x.Z.h.y.q.0.<.3.9.p.9.9.9.9.c b M K d r a a s S F J o.F n ",
"H #.@.#.o.D e 3 k G ] 3.m.a.` } ~ ^ i.H.N.k.k.4.>.w.p.k.9.z.M.Z.d.x.x.Z.h.9.,.=.] 3.w.y.0.9.9.9._ m M U d r k k s S D H J J G Q ",
"D @.#.#.@.l 7 > 2 u _ i.H.A.[ i.i.2.s.n.I.V.B.m.n.M.V.B.M.M.v.c.T.M.M.M.j.+. . .q.0.w.0.0.9.4.8._ I R L 9 a F G F S D H E J _ E ",
"x @.o.@.J l w & * 4 r y.E.W.<.i.l.q.r.m.Y.Y.S.Y.E.I.Z.P.Y.).b.}.OX}.D.z.y.-./ -.3.5.%.-.0.t.3.9. .~ R n r r 9 h o.n l F E +. .+.",
"j H J J J k 2 % * > 5 J ].`.l.*.l.g.r.k.E.R.W.~.{.`.~._. X}.}.}.XX~. .7.k.3.O.( %.[ %.-.9.9.p.3.1./ P d k 7 < 9 G n l n J o.1.8.",
"w S H o.D j * % & & 4 S U.{.P.u.w.B.5.m.F.P.Y.E.U._.!./.].}.T.T.c.9...9.w.9.-.( ! ( %.6.0.n.m.x.+. .n h j i w r s E G S S o.+.#.",
"u k H H S w & % % & 2 u d.XX~.k.0.t.e.u.B.N.A.G.G.B.y.9.M.z.9.9.f.e.w.1.4.%./ W ~ ) -.3.k.D.L.y.+.J k D j i u r 9 p l G G H z i ",
"5 w x x j w # # % & & 4 H OX}.N.w.0.%.p.D.R.V.F.N.m.4.y.9.9.] -.1.<.~ ) ] { ! ] -.7.) 9.N.R.D.9. .H 5 j x j i u = 3 9 d k w 4 4 ",
"% & 2 3 i 5 # O # # & < d '.XXL.9.+.M.^.].^.L.Z.I.M.p.f.l.w.-... .W I K ( ( ) O.y.-.U 9.L.L.I.3.G l u 5 i w 5 w * + > > > < < 2 ",
"O O # * 3 4 % O # # & > t T.XXv.@.b.).XX|.XX}.}.E.Q.L.R.m.z.k.k.4.O.K M K ~ ) 1.0.,.0.z.D.Q.L.+.S i j 5 2 > * 4 % # : < < 7 3 a ",
"O O O % & 2 & O O O % : h U.XXOX$X&X@XOX#X*X;X-X@XOX#XXX].W.R.L.J.z._ P U U Q ] -.w.z.C.W.Q.d.S S w u 5 2 * & & O # 3 9 a s d k ",
". . . # % * & # . O $ < ] E.}.&X-X;X*X&X&X-X*X;X;X;X+X&X*X$X_._.`. XT.d.o.G m ' y.N.k.T./.T.J S l w * * & & O O O # + < 9 r r s ",
". . . O # & % # . X # s 8.^.oXoX&X*X*XoX+X+X+X+X%X%X+X+X+X+X[.[.[.[.[.[.[.$.J #.d.b.b.T.(.$.S z j u * & & # O O # # % * 5 3 w u "
};
