/* XPM */
static char *out[] = {
/* columns rows colors chars-per-pixel */
"64 64 209 2 ",
"   c #2B1608",
".  c #4A2415",
"X  c #5C2C1A",
"o  c #68321E",
"O  c #583F2A",
"+  c #763A24",
"@  c #7E3D26",
"#  c #63432F",
"$  c #6E402D",
"%  c #6A4D37",
"&  c #77523D",
"*  c #7F5D46",
"=  c #814A35",
"-  c #8E4B34",
";  c #96523A",
":  c #865540",
">  c #8C5D46",
",  c #9D5943",
"<  c #955F49",
"1  c #A45E45",
"2  c #89664F",
"3  c #9B644E",
"4  c #916A53",
"5  c #9A6F56",
"6  c #AB644A",
"7  c #A16851",
"8  c #AD6D51",
"9  c #A86D58",
"0  c #B36A51",
"q  c #B76F53",
"w  c #A1765D",
"e  c #A7755C",
"r  c #AE755B",
"t  c #B4715D",
"y  c #B97658",
"u  c #A87B63",
"i  c #AE7D64",
"p  c #B77764",
"a  c #BD7564",
"s  c #B27861",
"d  c #B47F64",
"f  c #BB7E63",
"g  c #C1785B",
"h  c #C87E61",
"j  c #C07B6B",
"k  c #AC836B",
"l  c #BE8466",
"z  c #B3876E",
"x  c #BA876A",
"c  c #BF8B6C",
"v  c #B78C72",
"b  c #BC8E72",
"n  c #C38264",
"m  c #CC8566",
"M  c #C78568",
"N  c #C4816F",
"B  c #C48A6C",
"V  c #CC8C6D",
"C  c #CC8C6E",
"Z  c #D18969",
"A  c #D48C6E",
"S  c #D88F6F",
"D  c #C88973",
"F  c #C39072",
"G  c #C69677",
"H  c #C89172",
"J  c #CC9475",
"K  c #CA997A",
"L  c #CF9C7E",
"P  c #D19071",
"I  c #D09072",
"U  c #D29172",
"Y  c #D09273",
"T  c #D39273",
"R  c #D49374",
"E  c #D59475",
"W  c #DA9472",
"Q  c #DD9876",
"!  c #D79778",
"~  c #D1967C",
"^  c #D89778",
"/  c #D59A7B",
"(  c #D99878",
")  c #D9997A",
"_  c #DB9A7A",
"`  c #DA9A7B",
"'  c #DC9B7B",
"]  c #DB9C7D",
"[  c #DA9D7E",
"{  c #DE9D7D",
"}  c #DC9D7E",
"|  c #DD9D7E",
" . c #E09E7D",
".. c #E29F7D",
"X. c #E2A07F",
"o. c #DD9E80",
"O. c #DE9F80",
"+. c #DF9F80",
"@. c #D4A082",
"#. c #DFA081",
"$. c #DCA386",
"%. c #D8A485",
"&. c #DCA88A",
"*. c #DFAB8E",
"=. c #DFAF94",
"-. c #E2A181",
";. c #E0A182",
":. c #E1A283",
">. c #E3A282",
",. c #E4A281",
"<. c #E5A382",
"1. c #E4A383",
"2. c #E5A383",
"3. c #E6A483",
"4. c #E5A484",
"5. c #E6A585",
"6. c #E7A685",
"7. c #E7A686",
"8. c #E8A786",
"9. c #E8A787",
"0. c #E9A887",
"q. c #E0A58A",
"w. c #E3AC8D",
"e. c #E7AD8F",
"r. c #E8A888",
"t. c #E9A888",
"y. c #E9A989",
"u. c #EAA989",
"i. c #EAAA8A",
"p. c #EBAA8A",
"a. c #EBAB8B",
"s. c #EBAC8C",
"d. c #EBAE8F",
"f. c #ECAC8C",
"g. c #ECAD8D",
"h. c #EDAD8D",
"j. c #EDAE8E",
"k. c #EDAE8F",
"l. c #EEAF8F",
"z. c #EDAF90",
"x. c #E4B195",
"c. c #E9B193",
"v. c #EDB091",
"b. c #EFB090",
"n. c #EEB091",
"m. c #EDB192",
"M. c #EEB192",
"N. c #EFB192",
"B. c #EFB293",
"V. c #ECB496",
"C. c #E6B599",
"Z. c #EAB79A",
"A. c #EEB899",
"S. c #EEBC9E",
"D. c #F0B293",
"F. c #F0B394",
"G. c #F1B495",
"H. c #F0B496",
"J. c #F1B596",
"K. c #F1B597",
"L. c #F2B596",
"P. c #F2B698",
"I. c #F2B799",
"U. c #F3B799",
"Y. c #F3B899",
"T. c #F2B89A",
"R. c #F3B89A",
"E. c #F3B99A",
"W. c #F3B99B",
"Q. c #F4BA9C",
"!. c #F4BB9D",
"~. c #F5BB9D",
"^. c #F5BD9F",
"/. c #F5BE9F",
"(. c #F1BFA1",
"). c #F5BEA0",
"_. c #E7C0A2",
"`. c #F6C0A1",
"'. c #F6C0A2",
"]. c #F6C1A3",
"[. c #F6C2A3",
"{. c #F7C2A3",
"}. c #F6C3A4",
"|. c #F2C4A5",
" X c #F7C4A5",
".X c #F7C5A6",
"XX c #F7C6A7",
"oX c #F7C7A8",
"OX c #F7C8A9",
"+X c #F0CBAD",
"@X c #F4CDAE",
"#X c #F8C8A9",
"$X c #F8CAAB",
"%X c #F8CBAC",
"&X c #F8CCAD",
"*X c #F8CDAE",
"=X c #F9CEAF",
"-X c #F3D1B3",
";X c #F7D1B2",
":X c #F0D4B6",
">X c #F6D4B6",
",X c #FAD3B4",
"<X c #FAD7B8",
"1X c #F1D8B9",
"2X c #F7D8BA",
"3X c #F5DBBB",
"4X c #FADDBE",
"5X c #F6DDC0",
"6X c #F9E1C3",
/* pixels */
"&.*./ / Y L [ w.e.m.=.x.w.=.*.&.&.&.&.*.&.*.&.&.&.w.q.w.$.o.%.@.! [ ~ [ / [ Y Y J H H V I Y Y Y J Y J / ~ ~ H Y D C C T I T I C ",
"&.L ~ ~ K @.q.e.x.e.x.x.C.C.x.=.=.*.*.w.e.w.*.q.q.q.q.$.q.@.$.@.[ / / / / ~ Y H H H V M M M B l H H H J ~ J Y I I I P I E U T I ",
"L L K L @.%.%.*.=.C.=.x.x.H.x.x.=.x.q.e.e.e.q.$.*.*.%.q.w.q.$.$.$.$./ [ } o.~ E ~ / I Y J J H F F F c B H H l H C I m I E ^ I T ",
"@.@.L L @.L %.&.=.=.=.=.C.x.=.e.e.w.q.q.m.e.w.w.e.w.4.q.w.q.$.4.1.:.o.[ :.o.} [ ;.[ ) ! [ L G G G B c x B l l n M M M V U I I I ",
"%.%.%.[ L %.%.=.*.e.=.c.=.=.*.*.w.w.r.m.d.d.d.s.w.e.y.d.r.w.4.y.r.s.4.4.#.>.| -.| X. .X.[ @.K K F H c c l l l M n M m V m m V I ",
"q.e.e.%.%.*.e.d.m.c.c.x.c.e.e.=.e.c.d.d.e.d.w.w.s.g.F.d.s.y.d.s.s.y.y.6.#. .X.{ +.+. .O.| L K G H B B l l l l l n M M M M n m Z ",
"m.H.e.e.e.H.e.m.m.Y.e.m.I.Q.e.m.m.H.s.K.P.Y.m.H.F.F.d.m.z.z.7.s.a.l.4.X.X. .^  .X.>.`  .#.@.J D H D n B B B f n n M n M M m n M ",
"Q.H.m.m.Y.I.K.m.A.m.K.K.R.Q.K.F.W.R.B.K.I.W.K.m.B.v.s.d.n.s.y.y.n.y.X.{ ..{ ' | #.| [ } } / J B H M n B D M n n M n n n m n n h ",
"F.I.I.H.M.K.B.T.V.B.v.L.H.~.I.R.M.B.m.R.K.Y.H.M.s.n.d.g.y.y.e.d.s.:.{  ._ | o.#.' o.` { / ! Y J n B n B M M n n l n g M h h g g ",
"H.K.H.F.I.M.H.B.K.d.v.d.K.A.Y.H.m.d.B.K.W.Y.Q.M.d.d.s.s.d.e.d.y.s.:.#. .| O.} o.#._ } ~ E Y C B B n n n M M f f f g g g g g g a ",
"P.W.d.v.V.Y.B.K.B.d.w.y.K.~.F.B.F.K.H.A.~.).B.F.L.e.7.y.g.M.y.k.s.y.O.-.#.;.) +.O.o.E E E Y M M M n g f n h y y y a q g g g y y ",
"Y.H.d.s.m.H.H.B.L.e.7.y.K.Y.I.F.W.W.W.).).A.I.m.F.d.y.r.m.d.d.d.l.r.1.O.:.#.| [ | } ! Y T I m M m n y y f y y q y t y y g y y y ",
"n.F.d.d.u.m.H.v.i.y.1.s.y.F.I.).!.).)..X!.W.m.F.s.r.1.s.y.y.r.w.7.r.:.:.] +._ o._ [ E / C I M m n n f f t y t y q y y g q y y g ",
"F.b.k.y.y.e.m.w.s.7.r.:.s.h.Y.!.!.`.'.'.!.m.w./ Y H H H J D D I ! ! ) _ ] ] ] ) ` ! / Y I V M B n l f f f y y a g y g y g g g a ",
"y.n.9.t.p.n.r.t.7.r.} :.r.n.k.H.W.W.q.L c d 3 > : : + = < 7 3 s n M n V C ! I ! / ) C T C C l l n n p f f f q y y y q q q g 0 q ",
"o.r.9.4.a.t.7.4.4.o._ { 1.y.g.s.:.D 9 : @ $ X . X . . X $ & = > 7 9 7 9 8 f n C E R U C V M l f f f y y y y 0 0 0 0 0 0 q 0 0 6 ",
"C ;.4.y.4.u.0.9.) E C R E } o.! f 7 - + $ X X X X X $ = > > = : > < , , , , 7 s y n n B n M f l y t 8 r 8 8 8 8 6 6 6 6 1 6 6 6 ",
"J ( 4.4.q.7.t.5.{ M n M C C C f 6 ; = + @ + & - 3 9 x ~ @.~ B f p s 9 < < , , 3 7 9 7 8 y y s r r 8 6 7 6 1 7 1 1 1 1 1 6 6 8 6 ",
"V { _ >.4.7.-.2.} B t f n n y 8 1 ; - - ; 7 9 l P o.` 4.e.e.:.:.o./ D V y 8 7 3 7 7 < 7 7 9 7 9 9 8 7 6 6 8 1 6 6 8 1 6 8 t 6 6 ",
"y V ) 6.h.7.#.#.] C f y f y t 6 1 ; ; , 1 8 y B Y E I Y _ _ _ / o.o.[ ` ) D f s 8 7 3 3 7 9 7 6 8 r 9 8 t 8 8 6 8 8 8 8 t y q 0 ",
"1 n T r.y.r.7.1._ E D n y t 6 1 , ; ; , ; 1 8 D P E D V n n y y f M P E I R I C y 8 9 8 9 7 8 t t y t t 8 0 t t t y y f y f f n ",
"+ , V +.F.n.y.1.:.! C l t 6 1 ; - - = @ ; f J o.w.q.:.;.[ E n 8 , - , y V C C C n f s y y r y g M n f y y y y t y t f y f f n n ",
"$ + 0 X.'.'.m.n.D.r.M y 8 1 ; - - @ o - r s 3 7 9 i i f l D f p s 7 @ @ 8 C C Y ^ I n n n M n M M m y f y y 8 y n M n M M V n n ",
"9 8 f r.'.$X.X!.Y.1.n 6 6 6 ; - = + $ = - @ X . X   . . o $ $ & : : = $ - r C C M n g n V V V C R C M M n t 8 8 r y y y f f y y ",
"A ^ { K.XX<X*X}.e.} y 0 0 q 1 8 6 , - , , 8 : $ X . . . . . . . . . . X $ ; , 6 8 g h Z A ! ) {  .{ E M t 8 , , ; 3 7 r s l f n ",
"h g 1.!.&X<X=X).n.T y 0 y h g I  . ._ ^ { { <.J f 7 < < 3 7 3 < < - = - , 6 0 8 n m E T ^ _ _ ` { E M M n t 6 7 7 9 r s f l l l ",
"y :.K.oX=X>X.X'.s.T y q g Q { { a.y.{ R T { _  ._ A h m P Z g n M P Z V D g 1 q C <.X.>.^ { T E ^ T M C V f 8 9 7 9 7 r s f s p ",
"!.OXXX$X&X$X.XK.1.R h h T ^ <.p.b.l.s.r.( n y y g h g q y g M Z E m y 6 , 6 m { t.6.2.6.0.,. .{ { { ^ T I f 9 6 9 7 7 7 s t y p ",
"XX$X$X,X}.).W.y.R E S { Q {  .s.a.b.b.Y.H.F.[ n 8 6 6 1 , 1 , , ; ; , 8 M X.r.a.0.9.<.5.,.3.1.4.<.0. .` C f 8 8 7 7 9 r t f f n ",
"&X=X=X&X$X!.g._ R E Q <.0.0.a.h.l.l.F.K.A.E.Y.E.~.m.w.@.! I C C Y [ n.I.L.D.N.a.y.<. . .2.X.5.3.8.3.X.E D f t 8 8 r t s f f M V ",
"=X<X&X=X'.K.{ E E E S { 7.g.r.g.b.D.l.H.Y.~.F.U.^.}.).}.XXXXW.).`.'.F.P.F.G.a.j.l.h.{  . .,.{ <.5.6.` E V n y y y f f n m V D I ",
"=X>X=X).Y.n.X.W E A A S W S S W X.y.h.D.Y.!.Y.P.`.XX[.].&X#XXX'.[.Q.K.M.F.d.h.h.N.s.r...X.{ X.O.>.' ! T C B l f f n n m I I P I ",
"OX<X>X.XF.D.0. .W A n h h M g q 0 g ( n.F.Q.Q.Q.~..X.X$XXX$XXX X/.'.K.F.k.a.d.N.h.a.6.6...{ { ..' _ E J B D n l y f n m Z R P U ",
"OX=X=X~.I.b.g.y.<.S m g A {  .Z q , 6 n ;.g.H.Y.Q.`..XXX#X}.OX].].Q.Y.F.D.k.b.j.d.a.0.6...+.{ _ ! Y J M D D D n f f n m A T E T ",
"XX>X|.W.W.K.F.a.1.W h m 2.b.6.1.W q - ; 6 M ^ y.b.Y.K.).[.`.!.'.Q.Q.d.D.D.F.s.b.y.f.2.0.2.6.^ E E Y B D D J Y D n l f h Z A m Z ",
"OX=XXX).'.!.K.7.^ m m S 7.g.7.Q S q ; ; , 6 8 M ;.7.e.B.!.P.H.D.Y.b.l.n.F.D.p.u.h.6.4.-.2.:.` T U C D B I J E C V M M V R R I Z ",
"OX4X2X=X[.'.y.T g g y h g n g 0 1 1 6 y y g 0 0 f R { r.0.n.a.n.g.a.t.a.y.h.p.p.3.4.-.>.] | ) Y D J H C B Y Y Y T T R T P A V A ",
"4X6X6X>X.Xs.M 8 , - = @ @ + @ = , 1 q y g g g g t q M T { X.1.,.7.1.2.5.9.y.t.2.+.X.+.o.] ! T J J Y Y J H H J Y o.` / ! E Z Z V ",
"<X4X1XOXH.I , - + + @ + + + + - ; , , 1 8 q q g q 8 1 8 M U I ) { { ( | 1.1._ | | } E E E E D J Y Y J J Y J B / $.q./ E I Z M Z ",
"=X=X!.e./ 8 - @ @ + + + + + @ + = - = - - , 1 , , , ; ; , f M I ! ! R E ] ` ! T ) E I Y U C C C Y E Y R J D B ~ [ [ Y V A Z m m ",
"A.m.q.~ 8 ; - @ $ + + @ + @ @ = @ - = @ @ - - - - = @ = + : 9 C E _ ^ ^ R E T ^ P R P C B C M C D R P E C J D C J / M M n m V m ",
"o.[ / I t ; - ; , ; - = - : - - ; ; - = = - - ; - : & & & $ + , l E ! ^ E R U T A P I I D D M D C C Y Y I l l l B C n n C m V Z ",
"B D r 8 , ; , f M r , , ; , - ; ; ; - ; ; ; ; , , < : : : = + + - 8 n Y E ^ A E T R C Y J C B D H J D J J B l B H F f M C R m Z ",
"p y 6 , ; , B Y I l 8 6 6 , , ; 1 1 , ; , , , , 6 6 1 7 7 ; = = = = ; y T Y U T ^ R E E ~ H B B H J J J D c B H H B f n C C V V ",
"t f 8 r r M -.0.{ T M q 6 6 1 6 8 g y 0 8 0 6 8 q q 0 8 6 , - = @ : = , f C R ^ ' +.+.o.~ J D H D Y J H l c F J F l f l l B M D ",
"s l y n T ! ) o.1.{ S h g y g g h h h g g 0 0 0 q q q 8 8 8 7 < : : - ; 6 M ^ )  . .X._ ` J H B H J J F B c F G H l l l B B B B ",
", 1 8 f n h g h Z V h g y q 1 1 6 6 1 1 , , ; , , , ; ; , 1 , ; ; ; ; 7 6 f V ) -.-.{ { ^ Y B C H Y H c x l f l x H c M B C l B ",
"@ @ - , , ; ; , 6 1 ; - - @ @ $ + + + + + $ $ + @ @ @ = - = = - 6 y f M f y P { >.+.| ] _ T D B H G F f l i f f f B B H H B B B ",
"< , 6 6 1 , ; ; = @ @ @ @ = = - = - - - - ; ; , 1 0 0 q 8 0 8 n R  ._ ;.C n T .._  .` ] J T D H B G l f r d c f d l c J J Y Y I ",
"f n n Z C D N N j t t t y t p a p t p p g a p y a a q q g g Z  .n.4.1.;.I M E ) ` / / I C B C B H c f r f l d s f B H J / / ! ~ ",
"C C f M I I D B N D y p p f 9 8 9 9 7 9 r s 8 t y t 0 t f C E y.l.a.+.{ P D T  .{ [ I C M D B B B l r r x l s f c G F L %.~ H H ",
"Y M M n f 8 9 7 9 3 3 3 7 9 3 < < > < < 7 9 9 9 t t t y D E ;.d.d.y.:.[ I M E ` _ E C B M M B V C f r r f l d f H G K K L H H B ",
"J Y V n y 8 3 3 < < 3 9 7 9 7 3 < < > < < 7 9 y s f f B C ) ;.B.v.e.y.q.C C { { E ! C B n B C J B f 9 r f L B c c H G K J / / / ",
"G K ! C n t 9 , < < 7 r f y r r 9 3 , 3 9 9 f n V T R ! ) o.1.y.V.w.s.:.E T ` E R E C B D J Y C C f r s f x K H c c F H / $.$./ ",
"c G L [ J n 6 1 , < < l Y J f f l l f M D ~ ! [ 1.y.:.y.1.d.4.e.w.y.;.o.` / E ! ) ^ V C Y J J J H f r e 7 7 l G c B l H ~ $.$.4.",
"z G F H J D f 8 8 8 t H ;.[ Y H ~ :.$.$.w.w.w.e.K.d.7.4.w.4.5.q.w.w.#.) o.` ` ! | ! I R [ Y Y Y B d l d u e s B J H B H L %.q.7.",
"w F F H c H l D f n l J } y.:.y.y.s.d.A.c.K.A.).(.A.e.e.:.w.o.w.%.;.E ) / [ [ } ) o.O.:.[ / ~ ~ l i d z e e 9 s x H J J @.%.@.@.",
"w z G B r 5 i l I { 1._ s.g.y.y.H.H.G.!.).].[.[.}.S.A.c.d.w.:.:.o./ P Y ! ! ] o.o.;.5.r.w.O.[ K c e z z k i i 3 3 s B J L F i w ",
"5 5 b d 5 2 2 e x [ r.m.s.F.7.r.k.I.d.Y.W.'.J.W.).Y.7.w.e.v.1.r.[ [ I E ^ } ) O.>.w.:.d.B.v./ J c w w c z z e 3 = 3 9 r 7 5 4 4 ",
"% * 2 w e * & * 2 e B C.).M.y.8.y.d.B.B.P.R.v.e.k.e.1.+.<.7.+. .` ! E ! | ` O.:.[ w.e.D.~.Y.$.G c d 3 e e 5 7 3 & & > : > < < 4 ",
"O # % 2 4 4 # % % * 4 d A.OXV.;.r.`.'.[.!.~.A.W.B.I.v.k.r.7. .#.E E P E ( o.#.r.o.y.m.T.Y.!.%.G z i k 4 4 > 2 4 % # > 3 3 9 7 i ",
"O O O % * 2 & O O # & < [ XX$X_.;X=X=X=X,X2X>X;X&X%X$XXX).W.W.W.B.q.R Y E E ) o.:.i.B.K.'.!.&.G c e w 4 4 * & & # # < 7 r d f x ",
". . . # % * & # . O $ < o.).OX2X5X6X3X2X2X5X3X6X6X6X>X2X3X<X.X.XXX%X(.x.@.J D ] d.K.V.)..XS.L F c w * * & & O O O # & < 9 r r d ",
". . . O # & % # . X # d w.{.-X-X2X3X3X-X:X:X:X:X1X1X:X:X:X:X+X+X@X+X+X+X+X=.L &.C.Z.Z.|.|.=.b v k w * & & # O O # # % * 5 5 w u "
};
