/* XPM */
static char *out[] = {
/* columns rows colors chars-per-pixel */
"64 64 210 2 ",
"   c #2B1608",
".  c #4A2415",
"X  c #5C2C1A",
"o  c #68321E",
"O  c #583F2A",
"+  c #763A24",
"@  c #7E3D26",
"#  c #63432F",
"$  c #6E402D",
"%  c #6A4D37",
"&  c #77523D",
"*  c #7F5D46",
"=  c #814A35",
"-  c #8E4B34",
";  c #96523A",
":  c #865540",
">  c #8C5D46",
",  c #9D5943",
"<  c #955F49",
"1  c #A45E45",
"2  c #89664F",
"3  c #9B644E",
"4  c #916A53",
"5  c #9A6F56",
"6  c #AB644A",
"7  c #A16851",
"8  c #AD6D51",
"9  c #A86D58",
"0  c #B36A51",
"q  c #B76F53",
"w  c #A1765D",
"e  c #A7755C",
"r  c #AE755B",
"t  c #B4715D",
"y  c #B97658",
"u  c #A87B63",
"i  c #AE7D64",
"p  c #BD7564",
"a  c #B27861",
"s  c #B47F64",
"d  c #BB7E63",
"f  c #C1785B",
"g  c #C87E61",
"h  c #AC836B",
"j  c #BE8466",
"k  c #B3876E",
"l  c #BA876A",
"z  c #BF8B6C",
"x  c #B78C72",
"c  c #BC8E72",
"v  c #C38264",
"b  c #CC8566",
"n  c #C78568",
"m  c #C48A6C",
"M  c #CC8C6D",
"N  c #CC8C6E",
"B  c #D18969",
"V  c #D48C6E",
"C  c #D88F6F",
"Z  c #C88973",
"A  c #D08B78",
"S  c #D38E7E",
"D  c #C39072",
"F  c #C69677",
"G  c #C89172",
"H  c #CC9475",
"J  c #CA997A",
"K  c #CF9C7E",
"L  c #D19071",
"P  c #D09072",
"I  c #D29172",
"U  c #D09273",
"Y  c #D39273",
"T  c #D49374",
"R  c #D59475",
"E  c #DA9472",
"W  c #DD9876",
"Q  c #D79778",
"!  c #D1967C",
"~  c #D89778",
"^  c #D59A7B",
"/  c #D99878",
"(  c #D9997A",
")  c #DB9A7A",
"_  c #DA9A7B",
"`  c #DC9B7B",
"'  c #DB9C7D",
"]  c #DA9D7E",
"[  c #DE9D7D",
"{  c #DC9D7E",
"}  c #DD9D7E",
"|  c #E09E7D",
" . c #E2A07F",
".. c #D89380",
"X. c #D89982",
"o. c #DD9E80",
"O. c #DE9F80",
"+. c #DF9F80",
"@. c #D4A082",
"#. c #DFA081",
"$. c #DCA386",
"%. c #D8A485",
"&. c #DCA88A",
"*. c #DFAB8E",
"=. c #DBAB91",
"-. c #DFAF94",
";. c #E0A081",
":. c #E2A181",
">. c #E3A181",
",. c #E0A182",
"<. c #E1A283",
"1. c #E3A282",
"2. c #E4A281",
"3. c #E4A382",
"4. c #E4A383",
"5. c #E5A484",
"6. c #E6A584",
"7. c #E7A685",
"8. c #E7A686",
"9. c #E8A787",
"0. c #E0A58A",
"q. c #E3AC8D",
"w. c #E7AD8F",
"e. c #E8A888",
"r. c #E9A888",
"t. c #E9A989",
"y. c #EAA989",
"u. c #EAAA8A",
"i. c #EBAB8B",
"p. c #EBAC8C",
"a. c #EBAE8F",
"s. c #ECAD8D",
"d. c #EDAD8D",
"f. c #EDAE8E",
"g. c #ECAE8F",
"h. c #EDAE8F",
"j. c #EEAF8F",
"k. c #E4B195",
"l. c #E9B193",
"z. c #EDB091",
"x. c #EEB090",
"c. c #EEB091",
"v. c #EDB192",
"b. c #EEB192",
"n. c #EFB192",
"m. c #EFB293",
"M. c #ECB496",
"N. c #E6B599",
"B. c #EAB79A",
"V. c #EEB899",
"C. c #EEBC9E",
"Z. c #F0B394",
"A. c #F1B495",
"S. c #F0B496",
"D. c #F1B596",
"F. c #F1B597",
"G. c #F2B697",
"H. c #F2B799",
"J. c #F3B899",
"K. c #F2B89A",
"L. c #F3B99A",
"P. c #F3B99B",
"I. c #F4B99B",
"U. c #F4BA9B",
"Y. c #F4BA9C",
"T. c #F4BB9C",
"R. c #F4BB9D",
"E. c #F5BB9D",
"W. c #F5BC9D",
"Q. c #F5BC9E",
"!. c #F5BD9E",
"~. c #F5BE9F",
"^. c #F1BFA1",
"/. c #F5BEA0",
"(. c #F6BEA0",
"). c #F6BFA1",
"_. c #F6C0A1",
"`. c #F6C0A2",
"'. c #F6C1A2",
"]. c #F6C1A3",
"[. c #F6C2A3",
"{. c #F7C2A3",
"}. c #F6C3A4",
"|. c #F2C4A5",
" X c #F7C4A5",
".X c #F7C4A6",
"XX c #F7C5A6",
"oX c #F7C6A7",
"OX c #F7C7A8",
"+X c #F7C8A9",
"@X c #F0CBAD",
"#X c #F4CDAE",
"$X c #F8C8A9",
"%X c #F8C9AA",
"&X c #F8CAAB",
"*X c #F8CBAC",
"=X c #F8CCAD",
"-X c #F8CDAE",
";X c #F9CEAF",
":X c #F3D1B3",
">X c #F7D1B2",
",X c #F0D4B6",
"<X c #F6D4B6",
"1X c #FAD3B4",
"2X c #FAD7B8",
"3X c #F1D8B9",
"4X c #F7D8BA",
"5X c #F5DBBB",
"6X c #F6DDC0",
"7X c #F9E1C3",
/* pixels */
"k.c.6.1./ G h h u u c J F %.=.k.k.k.-.k.-.-.k.M.k.l.k.V.k.l.B.B.k.V.B.B.M.S.Z.S.g.g.u.g.w.x.g.w.0.r.4.e.4.,._ ) ~ / ~ / / ~ R Y ",
"%.u.d.y.7.R l h w u c F J @.0.-.-.k.-.-.k.-.l.k.k.k.k.B.B.B.B.v.R.U.V.K.W.K.J.G.S.Z.Z.S.Z.n.Z.h.s.r.8.7.<. .+./ ) ) [ ` | ) T P ",
"D | +.6.9. .n k k h c K @.-.=.k.k.k.*.l.k.V.w.M.V.V.B.R./.}.R././.}.M.U.U.(.S.G.S.S.8.i.j.Z.u.u.u.u.#.+.;. .R ) ` | R | ) ) L B ",
"z V E W } ~ N m ! @.0.0.-.k.B.B.K.P.k.P.~.~.T./.%X)./.R./.]././.}.(.U.S.W.U.K.G.S.r.6.e.s.r.7.4.r.u.3._ ` ` ) ) [ #.` | ) ~ I V ",
"c C C [ W [ ` w.g.G.K.I.K./.}.$X}..X'.!.U.!.R..X}..X}./.U.(.W.(.U.W.S.G.Z.S.Z.G.t.9.8.j.8.8.1.7.9.s.4.:.( +.) ) _ #.} } Y R M V ",
"c W W [  .+.u.g.R.T.U.L.T.]./.}..X}.Q.W.~.T.H.].$X}.}.R.A.K.G.F.K.F.v.G.J.G.G.S.n.Z.i.i.r.4.7.9.s.r.8.O.,.} ( ] O.#.} ~ I B B B ",
"D  .W O.+.7.4.r.x.A.g.H./.Y.U.(.]..XK.).H.T.M.]..X.XU.H.G.J.B.R.U.(.z.U././.S.G.Z.n.e.8.y.8.1.7.h.x.1.5.,.;._ o.#.4./ ~ C B b n ",
"D o.G D D D m j D ^ 0.l.U.I.W.(.]./.P.P.U.Z.Z.R..X(.A.l.A.Z.K.K.}./.U.(.$X}.G.S.S.i.<.] O.0.] { } ] } ( ;.o.} o.#.1.o.R C B v g ",
"z d 3 < : = $ $ $ : 5 F %.k.M.K.J.U.K.U.h.x.z.U.A.Q.g.g.u.g.Z.W.K./.(.]./.(.S.w.H j r r r d s a a d m N U ( ` O.] O._ ~ B b v g ",
"j 8 , 7 9 < % o X X # = 5 d R 0.b.S.G.Z.n.p.z.K.J.g.u.8.8.w.g.P.R.U.W.V.-.F l 9 * $ $ o o $ = : < 7 9 r d d v N R ~ ~ I M n g f ",
"^ R U 0.k.k.@.c 5 > = : ; 9 y N o.s.w.a.g.s.e.n.d.M.#.4.3.8.8.n.K.G.o.n 9 : $ X X X . . X X o + & : = < 3 3 , 9 a n n N n v f f ",
"8.#.<.8.Z.S.G.k.-.K D d y t y v P O.w.i.x.u.u.w.i.r.O.Q ` | #.4.i.~ y < = $ X X X X X # : 7 9 7 < > ; < < ; ; < , 3 7 9 d f y y ",
"#.4.#.4.3.e.8.w.0.0._ ~ G m v M N ` 4.t.9.s.i.h.u.u.R N B L N E P d 1 = + $ + + = < 9 l H %.^ ^ m j d y 9 3 ; , , 3 < < ; 8 q y ",
"5.o.%.N v U 0.l.B.M.e._ m y y b ~ } 9.u.u.8.7.u.s.r.R d v v v v d 6 ; = = = : , y n ~ o.0.0.0.0.<.$.R P U n r 9 9 3 < : = ; 1 6 ",
"i.#.n 8 ^ W.R./.R.K.8.8.) n 6 t M ` | y.i.u.3.7.9.s.R d y d y y t 1 ; ; ; , , 8 d m n m M P M G U U U ( ] R m n v r < > : : ; 1 ",
"x.#.t d B.V.0.^ H D d a d d 8 6 y b C 4.x.g.9.9.u.8.Q n v d t 6 1 , ; - ; - - , y n N n n d y 8 8 3 1 y M N N M n d 8 1 , 3 6 7 ",
"+.<.t H @.l > # . .   . X + > 1 8 d b } h.G.s.x.u.8.( I n d 8 6 ; - - = + @ 7 n U ] ^ R N U N v t 3 = @ - y N N n n d y t d 8 8 ",
"] O.n d : X     . #       . X + = 3 n R h./.U.G.S.s.4.P v 8 6 , - = + X + 3 9 > & $ o o $ = < < < < > & $ ; n R R M f d M v d d ",
"n v 1 @ . . . O # #     . . X o o + 8 E h.=X%X}./.U.9.I q 1 1 ; = @ o X + = $ X   .           . . . . . X $ 3 n d t t f v v y y ",
"N t ; < z a a s a 5 : % & > 7 : = = 6 3.K.=X1X;X$XU.5.n 6 1 1 - ; - @ + @ - 3 2 % O . . O O # X X X X . X o - 1 8 v N R 1.7./ b ",
"0.4.+.) 1.u.w.x.0.<.o.%.! M n n M / 3.A.K.=X4X<X$XU.o.f 1 1 8 1 8 L N U U ^ R ^ ! D a r r d d r 1 1 , , , t y 1 t I / +.| 1.R y ",
"8.x.i.1.W 1.1.` ) ~ I N V V V V V b 4.U.}.>X4X1X%XG.O.y 6 6 v B L [ 9. .~ R ` 4.4.1./ B C B g f v n V C C f , 6 _ / P d y t 6 7 ",
"7.J.A.K.h.| V V V R B C V B f p y R G.(.%X1X;X;X}.S.R f q p g E 4.r.7.u.7.T v b N B g f y y y B V C g y ; - 6 B +.7.} R y 8 y v ",
"d.A.K.W.(.G.O.b f q 8 8 8 1 1 y w..X}..X;X;X%X$XU.8.V g b B B Y 7.s.r.s.A.g.#.n 8 1 1 1 1 6 1 , , - = - 8 B :. .W R | +. .W Y d ",
"r.x.A.]..X.X].W.i.` b n M ~ g.].&X+X.X=X1X;X=X}.w.W b B Y |  .+.3.d.u.u.n.U.K.U.Z.w.o.U n d t t t v P 4.w.x.u.7.) Y N [ 1.9._ d ",
"u.n.U.}.=X;X=X]./.W.U.J.}.&X=X;X&X$X%X1X<X1X%XW.7.V b B E | r.u.u.7.u.s.n.K.U.K.U.(.(.(.]./.H.F.K.G.S.n.x.g.h.3.6.) M Y 3.8.` v ",
"s.U.(.].;X5X=X$X&X/.K.W.-X1X.X$X&X1X%X<X5X1X(.S.3.E b B V C V C C E W r.A.U.K.U.J.}.H.W..X%XW.(.].W.w.x.u.u.3.u.7.3.I L | 7.~ n ",
"G.J.(.oX;X4X1X%X%XW.(..X;X;X%X}.=X1X1X5X4X=XW.x.u.[ C B b f y y 0 6 8 g 4.A.U.U.(.oX~.~.$X$X/./.].J.n.y.y.1.4.7.9.:.` R )  .W m ",
"n.U.}.-X=X4X1X>X.X}.$X1X;X=X%X%X%X1X4X7X<X$XK.A.s.s.r.[ v p v E B f 1 , 8 R i.U.U.(..X.X/.%X}..X(.(.A.Z.8.4. .r.4.7. .} R | ` N ",
"Z.W.].$X1X4X1X>X>X=X=X-X=X;X$X}.%X;X4X7X<X].J.n.Z.A.Z.[ b f V 3.8.| b , - , v _ Z.W.oX'.$X]./.W./.K.A.h.y.i.<.8.u.7.:.<.) ) ) P ",
"n.U.W.$X>X-XoXOX;X=X].]./.G.8.M.$X1X<X5X1X.XG.S.(.(.[ B b B W r.8. .b 6 ; ; ; 8 L i.s.K.W.(.K.d.j.K.u.g.u.y. .9.9.i.}  .} ( I P ",
"s.A.U.(.OX_.].W.(.S.h.3.W v b g.}.;X4X<X1X%XW.(.].e.n q y g g g g y 6 1 q q 8 1 t M | r.A.f.j.s.j.s.7.8.i.6.8.9.u.8. .} o.Q U N ",
"8.h.A.W.U.J.J.n.3.W b y ; 8 0.}..X1X5X7X4X1X$X}.w.n 6 , - = @ @ @ - ; 6 q y y p 8 t v ~  .j.i.j.i.r.y.r.:.8.9.u.#.<.o.#.( ~ I I ",
"8.u.d.x.G.S.s. .B y , = 1 <.$X;X=X4X7X7X7X7X=XM.n 1 = o + + + + @ - - ; 1 6 8 q p y 8 y N ~ 1. .+.[ | } <.8.9.O.) ] Q ^ _ R Y N ",
"#.s.7.n.Z.u.R B y ; @ 6 e.$X%X4X4X5X7X5X<X1XB.U 1 - o + + + o + + @ @ - ; ; , 8 8 8 1 1 8 n P ~ / / I _ o.[ ~ ` ^ _ G N ! R N P ",
"1.2.3.8.r./ g 0 , = 1 o.].=X=X4X4X<X>X.X/.l.R 8 ; @ + o + + o o + + @ = = @ @ - ; ; - : ; < r N ) ) L L R U L I Q L m m R H U U ",
"` | #.1./ B q 1 = , N l.+X=X%X;X}./.R.K.#.v 1 ; = @ + @ @ @ @ @ = - - ; @ + @ = = - = = + @ = 9 L o.` R P P P R U U j G U ( ^ _ ",
"Q ` ` ` E v 6 ; ; y ] B.R.w.0.8.8.5.w.w.#.v 1 , 8 y 8 ; ; - - = - - < , - = = = ; - : @ + + + + 3 n ~ ~ T N L L ! ^ n m R R R L ",
"Y ` R ` B p , ; 6 R ~ w.Q d r U R R n n y , @ 1 m ( v t 6 , - - - - - ; ; ; - ; ; , ; < ; : + + + < y U R R N R ] %.z j U U N L ",
"L / ~ R b 8 , ; y U N P y 8 9 d m d 7 1 - @ ; v ~ ~ I b f 8 , ; ; , 1 , 1 , , , 1 1 1 7 9 3 = @ @ @ - t N U R ] $.0.G j R R P N ",
"n / ~ _ v y 1 , y m j z 9 6 8 y f v 8 8 , t ] Z.h.4./ C b p 0 8 1 q f v y p y 0 1 8 8 6 6 1 ; : $ + = , v ~ ` <.%.0.H D P ^ Y b ",
"j R ) ` v t t , y m j s 9 9 t v n n d f M Q 9.x.n.u. .E V b B g b g b B V V g y 0 0 q 6 6 6 1 > = + : - t R ] <.0.<.H D H H U B ",
"j ^ _ <.N y y 8 y U r 9 9 9 9 y y g g R | ` Y / [ | C C V V f f p y q p y 0 , 1 1 1 ; ; ; ; = = = - < 1 6 / ` 4.<.#.G D H ^ N B ",
"l ! <.8.1.v d m v G 9 ; ; = = = 1 0 f v g g g b b g p q 6 1 ; - - ; ; - - @ + + @ @ + o + + + @ 1 t n d t _ | O.#.! D D K ^ P M ",
"s ! 0.h.u.R y P G n r 7 ; = = 1 1 8 1 6 6 8 8 8 6 6 6 6 3 8 6 6 8 q 8 6 , , ; , ; ; , , , , , 8 M | +.P f ` | #.^ U D D D F m Z ",
"j D 0.n.Z.u.v d ( P n v d d d g b b b B B B A A A ....X.X.S S A A n v v v p y y p y p q q 8 p Y u.3.+.M N ` O._ U D z D J D m m ",
"F K H w.S.G.^ d P 1.P N V E B g C [ W O.O.#...#.4.w.<.#.X.A n A v y p f y y y y y y 8 8 q b R h.s.3.I v ~ 5._ R m z d D D F v m ",
"F K ! ^ g.G.g.N v _ R B R E C b C ( R P o.` X.X.X...S A M y 9 9 7 7 9 7 7 9 8 8 q 8 6 6 v ` x.n.e.` N d | 1.( m j s d l z N m m ",
"F @.@.$.0.Z.S.e.v m ` ) L / ~ L d y t r r y r r 9 9 9 r 7 7 3 < > > > < 3 7 7 9 9 t 8 y L x.A.g.} } v v _ ` N d r d d d m L G P ",
"K @.@.@.@.0.h.w.Q y R #.+.} ~ V f 8 8 1 7 7 9 9 r 9 9 9 9 7 3 < > > > < < 7 9 9 9 t y P 8.A.n.5.0._ d n ~ I j a r a a z H G Q ! ",
"K 0.] $.$.@.%.0.o.d d 3.4.+.C B v y t t t y y d v d r r r 9 < < > > : 3 9 r 9 y y v n t.p.S.e.u.u.I y I R N a a r a d F H ! H U ",
"@.&.$.%.%.@.F j <.R y ~ u.[ R C g y t y Z L P N L M d y a 9 7 3 7 7 9 a n N M n G U #.t.S.Z.w.w.w.n n Y I d r a s d D G K ^ G m ",
"J %.$.&.@.F u 5 D H n R 9.3.W W f p f M } s.7.8.#.+.Y N j d a s d z G _ _ 4.<.<.R o.w.w.w.g.w.g.^ n P R v a d D l D G J H ^ H ! ",
"J %.%.%.K z 5 * 4 u U #.s.9.| ) B v B o.s.h.u.4.1.4.7.<.e.0.^ %.0.i.x.g.w.<.8.O.] 8.w.w.w.w.w.w.R N R N s a d D K D G G H ! ] ^ ",
"c @.K @.K z 5 * * 4 u <.A.Z.[ 8.| E | x.A.A.u.0.8.a.q.a.M.S.0.M.z.l.w.M.g.5._ #.8.q.<.0.8.i.0.w.Q _ R G r 9 7 a ! G j D H $.$.5.",
"k J K K J l 2 % * * 4 D U.(.r.+.p.1.4.h.U.S.G.S.V.M.v.M.K.V.M.R./.R.M.l.h.,.] ' 5.<.<.<.8.w.w.0.$.] Q d l e 5 9 z ! G G G ^ 0.8.",
"w D J K G k * % & & 2 l v.}.S.9.8.S.1.x.K.W.K./.K.).P.].}./.}.%X}.R.0.0.e.u.<.{ _ <.} <.q.w.M.w.@.$.G d s h 5 e a m H H G ^ @.^ ",
"w k F K z e & % & & 2 w @..X}.h.u.i.r.s.W.K.~.[././.`.}./.}./.V.V.0.0.4.e.4.' Q ~ ] O.<.l.G.J.w.%.K j z k i u e 3 9 d G H F k w ",
"5 5 c z l w # # % & & < l .X$XR.t.i.1.u.P.T.D.J.J.U.w.w.S.W.w.w.w.8.O.1.1.{ ( ( o.#.] 8.S.W.K.l.@.J 4 k D k e e : > 7 r r 5 4 4 ",
"% & 2 4 h 5 % O % % & * r V.%X}.n.5.r.K.!.W.K.F.A.S.g.w.x.8.>.| 4.} R Q | ` _ <.w.0.^ 8.E.~./.-.K D u 5 u 5 3 3 * $ = : > < < 4 ",
"O O # * 4 4 & O O % % * 7 M.;X/.@.P.}.%XoX=X].}.R./.F.G.S.n.u.s.4.} L L I o.| e.5.<.e.K.L.}.R.%.z i k 5 4 > : 4 % # > 3 3 9 7 i ",
"O O O % * 2 * O O O % : v K.;X=X<X2X1X>X1X4X5X4X=X-X;X;X}.Y.~.P.F.Z.] U R R ( o.<.u.m.F.`.R.k.F D e w 5 2 * & & O # < 7 r s d l ",
". . . # % * & # . O $ < o./.%X4X6X7X5X4X4X6X5X7X7X7X4X4X5X2XXX XoX*X^.k.@.H Z ' a.F.M./.XXC.K D z w : * & & O O O # & < 9 r r s ",
". . . O # & % # . X # s q.{.:X:X4X5X5X:X,X,X,X,X3X3X,X,X,X,X@X@X#X@X@X@X@X-.K &.N.B.B.R.|.-.c x h w * & & # O O # # % * 5 5 w u "
};
