/* XPM */
static char *out[] = {
/* columns rows colors chars-per-pixel */
"64 64 225 2 ",
"   c #2B1608",
".  c #4A2415",
"X  c #5C2C1A",
"o  c #68321E",
"O  c #583F2A",
"+  c #763A24",
"@  c #7E3D26",
"#  c #63432F",
"$  c #6E402D",
"%  c #6A4D37",
"&  c #77523D",
"*  c #7F5D46",
"=  c #814A35",
"-  c #8E4B34",
";  c #96523A",
":  c #865540",
">  c #8C5D46",
",  c #9D5943",
"<  c #955F49",
"1  c #A45E45",
"2  c #89664F",
"3  c #9B644E",
"4  c #916A53",
"5  c #9A6F56",
"6  c #AB644A",
"7  c #A16851",
"8  c #AD6D51",
"9  c #A86D58",
"0  c #B36A51",
"q  c #B76F53",
"w  c #A1765D",
"e  c #A7755C",
"r  c #AE755B",
"t  c #B4715D",
"y  c #B97658",
"u  c #A87B63",
"i  c #AE7D64",
"p  c #B77764",
"a  c #BD7564",
"s  c #B27861",
"d  c #B47F64",
"f  c #BB7E63",
"g  c #C1785B",
"h  c #C87E61",
"j  c #C07B6B",
"k  c #AC836B",
"l  c #BE8466",
"z  c #B3876E",
"x  c #BA876A",
"c  c #BF8B6C",
"v  c #B78C72",
"b  c #BC8E72",
"n  c #C38264",
"m  c #CC8566",
"M  c #C78568",
"N  c #C4816F",
"B  c #C48A6C",
"V  c #CC8C6D",
"C  c #CC8C6E",
"Z  c #D18969",
"A  c #D48C6E",
"S  c #D88F6F",
"D  c #C88973",
"F  c #CC8A78",
"G  c #D08B78",
"H  c #D38E7E",
"J  c #C39072",
"K  c #C69677",
"L  c #C89172",
"P  c #CC9475",
"I  c #C09379",
"U  c #CA997A",
"Y  c #CF9C7E",
"T  c #D19071",
"R  c #D09072",
"E  c #D29172",
"W  c #D09273",
"Q  c #D39273",
"!  c #D49374",
"~  c #D59475",
"^  c #DA9472",
"/  c #DD9876",
"(  c #D79778",
")  c #D1967C",
"_  c #D89778",
"`  c #D59A7B",
"'  c #D99878",
"]  c #D9997A",
"[  c #DB9A7A",
"{  c #DA9A7B",
"}  c #DC9B7B",
"|  c #DB9C7D",
" . c #DA9D7E",
".. c #DE9D7D",
"X. c #DD9D7E",
"o. c #E09E7D",
"O. c #E29F7D",
"+. c #E2A07F",
"@. c #D89380",
"#. c #D89982",
"$. c #DD9E80",
"%. c #DE9F80",
"&. c #DF9F80",
"*. c #DD9986",
"=. c #D4A082",
"-. c #DFA081",
";. c #DCA386",
":. c #D8A485",
">. c #D7A88D",
",. c #DCA88A",
"<. c #DFAB8E",
"1. c #DBAB91",
"2. c #DFAF94",
"3. c #E0A081",
"4. c #E2A181",
"5. c #E3A181",
"6. c #E0A182",
"7. c #E1A283",
"8. c #E3A282",
"9. c #E4A281",
"0. c #E4A382",
"q. c #E4A383",
"w. c #E5A383",
"e. c #E5A483",
"r. c #E6A483",
"t. c #E5A484",
"y. c #E6A584",
"u. c #E6A585",
"i. c #E7A685",
"p. c #E7A686",
"a. c #E8A787",
"s. c #E9A887",
"d. c #E0A58A",
"f. c #E3AC8D",
"g. c #E7AD8F",
"h. c #E8A888",
"j. c #E9A888",
"k. c #E9A989",
"l. c #EAA989",
"z. c #EAAA8A",
"x. c #EBAA8A",
"c. c #EBAC8C",
"v. c #EBAE8F",
"b. c #ECAC8C",
"n. c #ECAD8D",
"m. c #EDAD8D",
"M. c #EDAE8E",
"N. c #ECAE8F",
"B. c #EDAE8F",
"V. c #EEAF8F",
"C. c #EDAF90",
"Z. c #E4B195",
"A. c #E9B193",
"S. c #EDB091",
"D. c #EFB090",
"F. c #EDB192",
"G. c #EEB192",
"H. c #EFB293",
"J. c #ECB496",
"K. c #E6B599",
"L. c #EAB79A",
"P. c #EEBC9E",
"I. c #F0B293",
"U. c #F0B394",
"Y. c #F0B495",
"T. c #F1B495",
"R. c #F0B496",
"E. c #F1B596",
"W. c #F1B597",
"Q. c #F2B596",
"!. c #F2B697",
"~. c #F2B698",
"^. c #F2B798",
"/. c #F2B799",
"(. c #F3B799",
"). c #F2B89A",
"_. c #F3B89A",
"`. c #F3B99B",
"'. c #F4B99B",
"]. c #F4BA9B",
"[. c #F4BA9C",
"{. c #F4BB9D",
"}. c #F5BB9D",
"|. c #F5BC9E",
" X c #F5BD9F",
".X c #F5BE9F",
"XX c #F1BFA1",
"oX c #F5BEA0",
"OX c #F6BEA0",
"+X c #F6BFA1",
"@X c #F6C0A1",
"#X c #F6C0A2",
"$X c #F6C1A3",
"%X c #F7C2A3",
"&X c #F6C3A4",
"*X c #F7C3A5",
"=X c #F2C4A5",
"-X c #F7C4A5",
";X c #F7C4A6",
":X c #F7C5A6",
">X c #F7C6A7",
",X c #F7C7A8",
"<X c #F7C8A9",
"1X c #F0CBAD",
"2X c #F4CDAE",
"3X c #F8C8A9",
"4X c #F8C9AA",
"5X c #F8CAAB",
"6X c #F8CBAC",
"7X c #F8CCAD",
"8X c #F8CDAE",
"9X c #F9CEAF",
"0X c #F3D1B3",
"qX c #F7D1B2",
"wX c #F0D4B6",
"eX c #F6D4B6",
"rX c #FAD3B4",
"tX c #FAD7B8",
"yX c #F1D8B9",
"uX c #F7D8BA",
"iX c #F5DBBB",
"pX c #FADDBE",
"aX c #F6DDC0",
"sX c #F9E1C3",
"dX c #FBE5C7",
/* pixels */
"2.G.r.i.' B k k w k P Y Y =.>.Z.1.2.2.Z.1.Z.2.Z.Z.Z.Z.P.L.L.K.K.Z.Z.2.Z.f.A.v.G.g.v.d.d.h.h.k.N.h.c.h.p.p.p.X.X.( } ( [ [ ..[ ' ",
"<.k.V.b.i.W z u u u K U Y :.1.2.2.1.Z.Z.2.2.Z.2.Z.Z.Z.K.L.K.K.2.2.Z.Z.L.P.).~.~.~.G.v.S.I.I.G.N.N.h.k.a.p.p.a.+.} [ [ [ o.} [ ' ",
"J ..O.y.r.[ f k e k I Y =.>.:.Z.2.2.Z.Z.L.L.Z.2.L.P.L.L.XX%XL.XXXXXXW.XXOX|.W.~.R.).N.G.I.U.c.N.N.c.t.p.p.k.9.} [ { ! } } +.} ~ ",
"b A ^ / ..A n d k x ) =.,.Z.Z.L.XXXXXXXX;X%XXXXX;XXXXXXX:X3XXXXX#XoX].).oX{./.T./.E.F.N.D.z.a.v.C.t.t.+.z.N.t.[ X.' ' ' 4...' ~ ",
"b S Z A A m n l i J =.Z.S._.L.OXP.%X$X%X#X*X$X$XXXOX).:X=X:X$X$X].|.].|.W.).W.T.Y.W.G.I.z.h.k.n.u.j.+.a.a.a.a...{ [ ] &.&...' ~ ",
"b ^ A A Z m M c L ` f.S.R.I.{.'.oX@X@X%X$X$X$X|.oX).!.).:X;X#X_._.`.}.].~.H.D.U.W.H.U.G.M.S.S.a.j.t.w.a.c.h.a.X.5. .-.-.7.$.} ~ ",
"I / A A Z Z M J b J J P ) =.;.H.}.%X}.oX%X*X[.|.).].S. X#X:X).E.H.~.H.}.'.}.v._.{.+XH.H.H.G.q.a.j.h.t.m.x.b.-.+.&.6.| -.7.6.' ~ ",
"I / A Z A m 8 < > : = = & : < x ,.Z.A.W.).$X+X|.}.H.N.N.%X#X_.N.T.S.h.R.[.OXOX X%X+XW.H.E.h.| ] { ( ` W W W ! ! { } $.$.7.&.| ~ ",
"J / A A m q , < > < : @ o O O $ > r c ;.c.E.'.(.c.N.p.N.`.}.G.N.t.h.d.I.oX$X$X%X}.|.J.,.) l 9 7 < < 3 7 7 r f n n V C ~ ] 3.} / ",
"J / A A / h B ) :.:.=.b w > : = = - 7 f W 7.I.T.c.u.d.z.I.H.v.p.4.&.d.c.E._.+XS.;.c 9 < = # o . . X o $ = > 3 7 8 8 r s M W _ Z ",
"L } A / 9.4.| ;.f.A.h.H.A.,.P l r 8 6 y n W &.c.c.a.7.a.c.B.7.7.} ..' t.N.}.d.C 9 > o o X X . . . X X + = = = > < < - < 7 8 t l ",
"U ..S } a.o.$.+.p.d.7.d.Z.d.;.` W M l f n V ' t.c.z.t.h.v.h.h.! R C R ! | ] n 1 : + X o o X o $ : 7 s r 9 3 < 3 3 < : ; , , , , ",
"L 6./ p.p.o.../ M V ) d.N.Z.d.&.C l y f M W ( 7.a.z.u.k.h.c.t.R g M n M M n 8 ; = + + + @ < 9 l P ;.7.7.~ C M M p r 9 3 , 3 < < ",
"J =. .&.H.p.' n 8 ;.).P.}.S.k.7.7.! f 0 t V ( t.x.e.t.u.a.j.t.W f y f l f 8 , ; - : - < 9 f D ` | | 7.$.$.` ` ~ ] W M f f 9 3 > ",
"K =.Y &.c.c.V 8 C A.Z.,.=.P x x f l q 0 6 f M ( h.z.t.u.a.z.&.! M l t y 8 6 , - - ; ; , 1 s f M M f t y y f y M ~ ( C C V n 9 3 ",
"Y =.:.] h.k.! 0 =.=.k > $ O . . . X + - 1 8 f C 4.B.S.z.N.N.+.( C n t 8 7 < - - - = + - p W | | *.W M l y 6 ; = 1 p V V V n f t ",
"Y :.;.7.| p.&.n l & .     . O         . + - t C ( D.'._.I.E.z.4.V f 8 7 , ; = = o o > p r 9 3 < > < 7 r r r 7 > + = r C C C V n ",
"=.=.:.h.! C f 1 = . . . O # # . .   . O o o - l ' I.;X3X%X}.!.a.R 8 , , , = @ o X = > = X . .         . . . O O # X = l ] ( V l ",
">.>.=.:.P n 1 ; 9 s < e r w > * & : : 5 > : = t 8.I.,XqX7X3XW.a.M 6 , , ; - @ o o + + = $ # .     . . . .     . . . X < f y 8 f ",
":.=.Y :.S.h.t.[ { h.7.7.c.h.( W ) P M M M W [ 4.E.'.9XeXeX3XW.{ f , 1 1 , 8 y 8 l f B D P b w > : : < > > : > = + o = , 1 6 V ( ",
":.:.=.=.;.c.N.N...o.t.h.&.4.[ ~ V A Z A A ~ m a.T.:XqXtXqX#XI.[ q 1 1 g f C &.9.[ [ { -.&.7.( C M A A A M f y g y l M t 6 m M C ",
",.:.:.:.;.c.D.E.!.c.} A A Z Z Z A Z m g 0 t / _.oX4XtXqX5X|.N.! f 0 q M } ..5.p.p.( C V R ! ! V h g q q m A ^ S A y ; - f } +.! ",
"1.f.:.;.t.I.G.!.].%XN.} M y 0 q q 8 , 1 n S.XX3X:XqX6X9X:X!.{ C n M m Z ~ a.9.h.N.I.7.C y 6 , 1 6 0 8 q 0 6 , ; - ; 8 S ../ ' { ",
"f.f.:.=.c.I.U.(.%X3X%X}.}.c.~ V V C ` H.;X,X>X:X9X5X6X4X%Xa.! M V A ^ / o.p.j.k.I.I.I.H.!.h.W f g 6 , ; , , 1 t C o.a.a.a.} C ! ",
",.,.:.;.k.W.T. XoX3X7X7X%X%XXXOX}.%X;X5X:X7X4X6XqX9X6X,X~.p.A Z m ^ / e.8.z.x.b.a.!.U.!.~.].}.OX).}.H.S.N._.E.!.z.x.k.a.t.t.( C ",
"f.d.d.d.h.T._.OX,X7X7X7X7X+XoX}.%X:X4X4X3X7X7X6X9XeX6X+XI.7.A m Z Z A S ^ / +.h.S.D.T.~.[.'.$X X#XOX]._.}.OX}.D.M.x.a.y.t.+.9.! ",
"c.g.;.d.v.}.].*X>XqX6XqXqX*X_.$X>X9X&X>X4XqXqXrXpXrXoX_.E.z.^ A Z h y y y q 8 y A z.D./.`.*X).+X:X*XXX%XOX%XW.E.k.k...a.j.x.7.o.",
"c.g.d.d.U.{.|.}.7XrXeXqX9X3XOX;X7X9X,X%X5XqX7XpXpXeXoXU.E.I.a.9.^ h y g Z m q , 1 g &.E.[.OXoX$X3X:X+X;X%X|.(.M.I.t.u.t.k.j.9.&.",
"t.d.6.p.G.|.}.$X,XtXeXrX5X7X,X9X7X9X6X4XXX3X7XpXuXqX'.}.I.E.I.N./ m g A ..t.S g , - 6 C 4.E.'.OX;X:X%X-X}.].].T.c.x.p.z.w.a.9.0.",
"t.8.6.-.N._.}.oX>X3X3X7X7X4X3X3X>X}.N.a.!.<X9XpXpX7X%XE.U._.E.w.S n h / h.9...Z 6 - - , f { c.E._.OXoX}._.'.R.D.M.z.h.s.s.u.5.5.",
"u.u.X.t.D.'.Q. X-X,X}.OX}.}.c.z.4.A q A _.9X9XpXtXqX|.%X'.oX4.M y g h Z A A g q 1 8 6 6 1 y C d.S._.Q.Q.~.T.h.c.M.D.u.j.s.j.} 5.",
"u.7.$.| z.N.Q._.$X_.E.S.N.t.A h 0 , y N.*X9XeXpXdXpX7X3X$XN.M 6 , - - - = = - ; 6 q y q g 0 t M &.p.z.D.B.m.p.t.a.z.l.a.p.8.&.+.",
"$.-. .-.4.D.I.[.Q.T.z.t.~ m 0 ; - y A.;X3XqXpXdXdXdXeX3Xc.M 1 = o o + + + @ - , , 6 6 q q g q t f R } t.9.a.+.4...s.j.e.-.7.%.-.",
"+. .-.$.a.c.D.T.D.z.} C h 6 ; = f f.,X7X9XtXsXdXpXqX3XH.C 1 = + $ + + + + = @ = - ; ; , 0 y t 6 1 8 B ~ [ ' ' ' ' { &.} X.{ ` ) ",
"3.7.` | t.c.j.D.h.} V g 8 - @ f g.%X=XqXtXpXqX7X;XP.d.~ 8 ; + + + o o o + + + = = = + - ; , ; ; ; ; , l _ ( R W ! ! C ! ( ] P P ",
" .` ] ] 6.9.4.+.+.A y 6 ; - 8 ] ).=X%X3X%XXX).).).| y 1 ; = + + @ + + + + = @ : : @ + + - - - = = @ @ : f { &.' ~ E A R ' ~ L c ",
") ` ~ ` ] [ } -.~ M 8 , - 1 V 4.W.H.;.d.7.d.d.c.u.&.t , , 8 y 1 ; - : - = - - , - : - : = - - : + + + + = r W [ ! ! R Q E ~ W B ",
"~ W ~ Q [ } [ ' S g 6 ; ; y ~ ` ;.n t l ~ ~ C n M 8 - @ , n W l 6 1 ; ; - - - ; , ; ; - - ; ; ; : = = + + = 7 V ~ E T C ' ( ` l ",
"R W D P ` [ ! _ A y 1 , , B B L c r 1 t n n t 6 6 - @ 6 C { ! R n y , , ; - - ; , , - , , , ; , 1 3 : = + + + 1 V ! C ~ { ;.` c ",
"B c B B ( ' [ ! C q 6 , , n M c l 6 6 8 n f f 7 8 3 t 7.!.c.+./ ! m q 6 6 1 8 q q q 8 8 6 1 6 6 6 3 , - = + + = q T ! { d.;.;.L ",
"d x l B W [ +.+.V 0 8 6 , n B B r 8 8 y f M M y g M ! t.G.c.a.t.^ Z m h g g n m h m h g 0 0 0 0 , 3 , , = @ = : , V Q -.;.d.:.B ",
"d x c c W $.a...! 8 8 y 6 M V r e 9 9 t f n Z Z ~ [ ~ ~ [ } [ ^ A m h h h h h g g y q 6 6 6 1 , ; ; - : = = - , , l [ -.7.d.=.J ",
"f x x c P u.7.p.&.n 8 n f V B 7 ; - = = ; 0 g h m m g m Z V g y 8 1 , ; - , ; , ; - + @ + @ + o o o o + = 6 t l 6 V ! -.&.;.J J ",
"d l x x P 7.g.g.H.` 8 f W l l 8 1 - = - , 6 8 6 0 0 0 0 q 8 8 1 8 6 6 1 6 6 1 , , - - - - ; ; - , ; ; ; t ! ( ~ f R [ } 4.| P J ",
"d c c J J ;.g.H.g.h.M y C W V V l f f M m m m Z h G N D F F F H G H F F D D N j a j a a y g a a q q q n [ p.4.[ n [ } -.` P J L ",
"x J U J J  .f.v.H.E.;.d B | | ~ ~ ! R M h ! ' ' } *.#.@.*.$.&.| @.H G N N j j j j a y a y q q 8 q y A 7.h.3...V V %.4.] W c c J ",
"P Y Y U P Y d.N.H.R.c.) d  .} T ! ! A A m A W ! C W F F H F G W G f 9 9 7 7 7 9 8 r 8 q a y 6 0 g ~ h.I.k.o.R n ~ p.| P B l f B ",
"U Y Y ` =.U ;.g.H.T.I.;.f M { ' ' ! ! A m y t 8 6 8 8 9 r 9 9 9 e 9 < 3 < < < 3 7 7 7 8 t y 8 y R t.I.g.t.[ M f } &.W l f f l M ",
"K =.:.:.:.=.=.k.c.F.S.N.P f ` p.[ ..E S h f 8 8 7 7 8 r t s e r 9 9 3 3 > < > 3 < 7 7 8 8 y p V X.I.N.f.$.o.y M ' ~ B d d l B C ",
"U :.:.=.:.=.=.=.-.=.h.g.4.f C t.t...! A h y y t t 8 p f n n l r r 3 3 < > < < 3 7 9 r t f f V &.v.v.u.d.h.! f R ( V d s d l L ) ",
"=.,.=.:.:.:.U P l ) ` ;.7.M f t.h.o.S A m f y f f M M C C R n f r r 3 7 7 7 7 r f M f l M E X.G.G.N.d.f.d.M m ~ ~ l 9 s f J L P ",
"=.,.:.:.:.=.L r 3 k J =. .` C o.u.4.^ A M n l M ] p.t...o.o.! M n s 9 r f f n C ( ` ( ! ( { g.J.J.v.f.f.] n R R B s r d D ) P B ",
"U ,.:.,.:.U d 7 * > w J ` h.p.c.i.z.[ ' M M V | N.N.k.c.a.z.4.p.` ` ) | ;.h.h.Z.&.4.$.{ ` t.v.G.k.v.k.d.M V R V d x f B P ) P ) ",
"L :.,.:.:.b u > * * < 5 P Z.W.G.u.5.t...~ [ 4.k.E.I.N.+.t.p.h.d.h.h.f.f.f.f.g.f.t.7.{ ` 7.h.k.k.g.v.Z.{ m R C f l P J J P P ) ) ",
"b =.Y =.Y J w > * * * * d A.P.XXg.a.z.a.-.u.k.T.!.R.S.S.N.S.a.N.g.A.g.XXW.J.Z.f.7.-.[ t.h.g.7.f.g.J.7.| ~ ~ p r d K c l L Y  .;.",
"z U Y Y Y x 4 & * * & * w f.XX%XW.0.x.t.u.h.G.R.{.W.E.G.T.H.S.v.).L.XXXXXXJ.g.;.d.$.X.&.p.q.7.f.v.g.;.` ( B 9 7 r c L c P ) ;.f.",
"w J U Y K x * % & & & 2 w =.%X5X).k.5.z.4.h.G.`.`.oXXXOX_.%XXXoXXXXXXXXX,.;.p.u.;.| ` $.%.t.u.v.g.g.;.` c c e 9 9 f B L B Y ;.;.",
"w z K Y b u & % % & * * 5 P 3X6XXXz.5.e.u.h.G.Y.Y._.{.XX|.oX#XXXJ.A.A.g.f.f.u.7.] ~ ( | t.f.D.H.S.f.=.J c z i e 7 7 s B P Y c i ",
"5 w b b x w % # # & % * 4 ) >X9XoXH.| e.N.}.U.^.R.(.H.D.H.W.h.g.h.g.t.h.h.p. .X.] | ] 6.f.I.F._.Y.:.J u b J i u : : 3 r i 7 3 4 ",
"% & 4 4 k 4 % O # # % : 3 P 5X9X|.d.t.).,X#X#X'.`.^.H.v.T.c.h.7.q.&...' } ..] (  .8.7.( N.R.).).v.P l 5 w w 4 5 * $ & > > < < 4 ",
"O O # * 4 4 * O # # % : < ` ,XrX<.K.XX5X>X8X4X>X|.#X{.}.!.E.v.H.g.p.[ ~ R ~ ` } +.p.t.t.H.[.OX}.=.c k i 2 > * 4 & # : 3 3 9 3 i ",
"O O O % * 2 * O O O % : r S.4XtXeXpXrXrXrXuXsXaXtX8XqX9X3X#X.X{.'.R.t.W W ~ ' { 7.u.v.E.|..XP.=.J d w w 2 > & & # O > 7 r d f x ",
". . . # % * & # . O $ < $.oX4XuXaXsXiXuXuXaXiXsXsXsXeXuXiXtX:X:X>X6XXXZ.=.P D -.v.W.J.XX:XP.Y J c w * * & & O O O # & < 9 r r d ",
". . . O # & % # . X # d f.&X9X0XiXiXiX0XwXwXwXwXyXyXwXwXwXwX1X1X2X1X1X1X1X2.Y ,.K.L.P.P.=X2.b v x w * & & # O O # # % * 5 5 w u "
};
