/* XPM */
static char *out[] = {
/* columns rows colors chars-per-pixel */
"64 64 222 2 ",
"   c #2B1608",
".  c #4A2415",
"X  c #5C2C1A",
"o  c #68321E",
"O  c #583F2A",
"+  c #763A24",
"@  c #7E3D26",
"#  c #63432F",
"$  c #6E402D",
"%  c #6A4D37",
"&  c #77523D",
"*  c #7F5D46",
"=  c #814A35",
"-  c #8E4B34",
";  c #96523A",
":  c #865540",
">  c #8C5D46",
",  c #9D5943",
"<  c #955F49",
"1  c #A45E45",
"2  c #89664F",
"3  c #9B644E",
"4  c #916A53",
"5  c #9A6F56",
"6  c #AB644A",
"7  c #A16851",
"8  c #AD6D51",
"9  c #A86D58",
"0  c #B36A51",
"q  c #B76F53",
"w  c #A1765D",
"e  c #A7755C",
"r  c #AE755B",
"t  c #B4715D",
"y  c #B97658",
"u  c #A87B63",
"i  c #AE7D64",
"p  c #B77764",
"a  c #BD7564",
"s  c #B27861",
"d  c #B47F64",
"f  c #BB7E63",
"g  c #C1785B",
"h  c #C87E61",
"j  c #C07B6B",
"k  c #AC836B",
"l  c #BE8466",
"z  c #B3876E",
"x  c #BA876A",
"c  c #BF8B6C",
"v  c #B78C72",
"b  c #BC8E72",
"n  c #C38264",
"m  c #CC8566",
"M  c #C78568",
"N  c #C4816F",
"B  c #C48A6C",
"V  c #CC8C6D",
"C  c #CC8C6E",
"Z  c #D18969",
"A  c #D48C6E",
"S  c #C98270",
"D  c #C88973",
"F  c #D08B78",
"G  c #D38E7E",
"H  c #C39072",
"J  c #C69677",
"K  c #C89172",
"L  c #CC9475",
"P  c #CA997A",
"I  c #CF9C7E",
"U  c #D19071",
"Y  c #D09072",
"T  c #D29172",
"R  c #D09273",
"E  c #D39273",
"W  c #D49374",
"Q  c #D59475",
"!  c #DA9472",
"~  c #DD9876",
"^  c #D79778",
"/  c #D1967C",
"(  c #D89778",
")  c #D59A7B",
"_  c #D99878",
"`  c #D9997A",
"'  c #DB9A7A",
"]  c #DA9A7B",
"[  c #DC9B7B",
"{  c #DB9C7D",
"}  c #DA9D7E",
"|  c #DE9D7D",
" . c #DC9D7E",
".. c #DD9D7E",
"X. c #E09E7D",
"o. c #E29F7D",
"O. c #E2A07F",
"+. c #D89380",
"@. c #DD9E80",
"#. c #DE9F80",
"$. c #DF9F80",
"%. c #D4A082",
"&. c #DFA081",
"*. c #DCA386",
"=. c #D8A485",
"-. c #DCA88A",
";. c #DFAB8E",
":. c #DFAF94",
">. c #E0A081",
",. c #E2A181",
"<. c #E3A181",
"1. c #E0A182",
"2. c #E1A283",
"3. c #E3A282",
"4. c #E4A281",
"5. c #E4A382",
"6. c #E5A382",
"7. c #E4A383",
"8. c #E5A483",
"9. c #E6A483",
"0. c #E5A484",
"q. c #E6A584",
"w. c #E6A585",
"e. c #E7A685",
"r. c #E7A686",
"t. c #E8A786",
"y. c #E8A787",
"u. c #E9A887",
"i. c #E0A58A",
"p. c #E3AC8D",
"a. c #E7AD8F",
"s. c #E8A888",
"d. c #E9A888",
"f. c #E9A989",
"g. c #EAA989",
"h. c #EAAA8A",
"j. c #EBAA8A",
"k. c #EBAB8B",
"l. c #EBAC8C",
"z. c #EBAE8F",
"x. c #ECAC8C",
"c. c #ECAD8D",
"v. c #EDAD8D",
"b. c #EDAE8E",
"n. c #ECAE8F",
"m. c #EEAF8F",
"M. c #EDAF90",
"N. c #EEAF90",
"B. c #E4B195",
"V. c #E9B193",
"C. c #EFB090",
"Z. c #EEB091",
"A. c #EDB192",
"S. c #EEB192",
"D. c #EFB192",
"F. c #EFB293",
"G. c #ECB496",
"H. c #E6B599",
"J. c #EAB79A",
"K. c #EEB899",
"L. c #EEBC9E",
"P. c #F0B293",
"I. c #F0B394",
"U. c #F0B495",
"Y. c #F1B495",
"T. c #F0B496",
"R. c #F1B597",
"E. c #F2B697",
"W. c #F2B698",
"Q. c #F2B799",
"!. c #F3B799",
"~. c #F3B899",
"^. c #F2B89A",
"/. c #F3B89A",
"(. c #F3B99A",
"). c #F3B99B",
"_. c #F4B99B",
"`. c #F4BA9B",
"'. c #F4BA9C",
"]. c #F4BB9C",
"[. c #F4BB9D",
"{. c #F5BB9D",
"}. c #F5BC9E",
"|. c #F5BD9F",
" X c #F5BE9F",
".X c #F1BFA1",
"XX c #F5BEA0",
"oX c #F6BEA0",
"OX c #F6BFA1",
"+X c #F6C0A2",
"@X c #F6C1A2",
"#X c #F6C1A3",
"$X c #F6C2A3",
"%X c #F7C2A3",
"&X c #F6C3A4",
"*X c #F7C3A5",
"=X c #F2C4A5",
"-X c #F7C4A6",
";X c #F7C5A6",
":X c #F7C6A7",
">X c #F7C7A8",
",X c #F3C9AA",
"<X c #F0CBAD",
"1X c #F4CDAE",
"2X c #F8C8A9",
"3X c #F8C9AA",
"4X c #F8CAAB",
"5X c #F8CBAC",
"6X c #F8CDAE",
"7X c #F9CEAF",
"8X c #F3D1B3",
"9X c #F7D1B2",
"0X c #F0D4B6",
"qX c #F6D4B6",
"wX c #FAD3B4",
"eX c #FAD7B8",
"rX c #F1D8B9",
"tX c #F7D8BA",
"yX c #F5DBBB",
"uX c #F6DDC0",
"iX c #F9E1C3",
"pX c #FBE5C7",
/* pixels */
":.A.q.0.) L H H %.B.B.:.B.J.B.J.:.:.:.J.:.B.H.J.B.K.J.L.H.G.V.A.a.a.;.p.;.a.p.p.2.i.2.s...w.&.2.` ..} [ ` [ ^ R Y E Y E U Q Y T ",
"=.h.v.*.) L H %.B.z.J.J.J.J.J.G.J.J.H.A.J.J.J.J.K.K.K.K. XQ.Q.I.A.B.a.z.A.S.F.p.l.s.h.f.f.<.<.| #.@.O.O.4.` [ R Y Y E Y Q T E T ",
"L s.8.} ) ) I z.R.G.A.K.Q.K.A.(.(.).V.K.R.|.G.).). XG.[.^.[.F.W.T.R.h.M.D.Y.a.k.x.j.6.>.,.3.[ &.| X.` | ,.4.Y Y C A m A Y A Z A ",
"x [ [ ( ..p.z.(.'.).W.Q.L.XX).^.|. X[. X+XOX).'.+XXXL.R.'.(.Y.F.W.A.a.l.P.F.k.h.b.s.w.X.1.X.[ | X.>.] @.,.( E Y C A Z Z A Z Z Z ",
"K 6.7.x.z.I.T.{.{.+X'.OX).XX'.oX).}. XOX).'.[.).^.}.).[.W.Q.T.Q.G.x.k.h.s.x.e.k.y.b.r.>.[ ..` X.~ ..#.2...` E Y V A V T m A m Z ",
"1.y.b.D.E.Q.^.(.}.'.OX[.(.^.(.Q.].[.(.'.[.'.).^.(.).W.R.Q.T.R.T.R.x.b.l.h.f.e.r.b.k.q.| ..@.X.] X.<.1.&.[ E Q M V V V Z m m Z Z ",
"0.b.3.T.!.{.Y.Q.].OX^.!.(.).A.(.).|.K.[. X'.F.^.].(.A.T.^.}.T.^.G.I.h.M.h.k.2.x.c.c.<.| | #.` | o.3.@.>.[ ` C m V Z h m m Z h M ",
"I } 2.M.(.{.R.Q.oX|.}.T.!.T.A.I.}.[.^.S.).T.!.T.+X[.^.|.OXoXT.^.`.S.y.y.k.d.r.h.b.j.t.8.y.2.o.[ 1.2.@...` E V M Z m h h m h h h ",
": 4 x *.p.G.R.|.R._.W.R.z.Q.(.{.R.R.z.S.S.G.R.XX|.}.'.&X|.{.!.E.h.p.#.&.#.0.2.} ..&.#.....&.#.,. . .@.#.( E V M h n g n g h g g ",
"X X $ > f L 0.z.G.R.A.S.W.E.(.(.W.S.s.h.Z.z.R.|.+X}.oXOX&X(.z.} B d p r s d d s d B V C ^ ^ ] ] ( ] `  .^ Y V n l f n g g g f g ",
"& $ $ = < y B ` s.T.h.A.x.I.S.T.F.S.2.q.l.x.z.(.{.}.z.p.L z 7 < + + o X o = = > < 8 8 y f l f C Q ] Y ( E Y n M f l y f f n g g ",
"%.c r 3 7 t f B ` h.b.d.x.m.b.s.M.x.>...w.2.s.M.(.0.C 9 : + o X . . . . X $ + + = : > < 3 < 3 9 f B K R W C l l n f y y n g g g ",
"p.0.] / B n l B C 2.h.M.r.b.x.x.k.q.( E E [ ` 2.` V 7 ; + $ o X X X $ : < s r 7 < < < < > : > 3 3 7 9 r d l f g y f y f y y y n ",
"*.0.| R V n n C W ..e.x.h.h.z.x.j.,.C M M V C Y M t ; = + + @ - < 8 l / *.*.*.) G K B f r 7 < , 3 7 7 3 3 < < 7 8 q 8 t 0 0 q q ",
"[.(.h.0.] l 8 f W ..&.h.d.x.3.t.d.e.M g n M f n t 8 ; ; - - ; 8 l R Q 0.y.h.2.r.f.y.] } @.R f r r 8 3 < < < > > 1 8 1 6 6 8 1 6 ",
"*.%.) / / m t 0 h Y ` e.x.h.t.r.h.2.Y l l l f t 8 1 ; ; , , 1 t n C Y C C V V V R R ( ] ..^ C C K f 9 < 3 < > > , 1 1 1 6 6 6 1 ",
"& $ # $ : 7 8 q 0 n C <.b.S.h.D.t.2.E C n l t 8 , , ; ; ; - ; t V [ ` ..Q W M y 6 1 1 y M E R E V B f s 8 7 3 7 3 6 6 8 6 8 8 8 ",
"  . .     . $ ; 1 t M ( b.{.W.E.F.0.] C M y 8 1 ; - - + + 3 n F L ) &.#.` / R C l 8 ; @ ; y E R C n n l f f l f t 8 8 8 8 t t t ",
". O .     . . o + ; f W S.5X&X|.!.E.&.Y f t 1 , - - $ X - 9 3 : % & $ % & < 4 7 7 9 < : + : y Q ] ^ M n n V n n f f q y f n a g ",
"& & # O O O % : @ $ 1 ~ I.7X7X2X&X(.y.n 6 6 6 ; ; - + $ = @ + X . .       . .   . . . X X o - l M a y f M M n n f y y t g g a y ",
"Q B p p l c l d r f Z M.T.9X9XeX&X(.] g 1 8 0 , 8 f 1 , 1 t d z 5 > X O O # O . . O X X . $ - 6 1 t g M M W U R C M f n g n g n ",
"s.2.2.] Y A W ! ~ [ 2.E.&X9XqXqX&Xz.E q 6 0 h l C 6.e.1...] ..] @.) B f f l n s 8 8 8 8 t f a 1 6 n Y | 6. .>.,.O.M y 8 8 8 t 0 ",
"[ A Z W ! W Z Z h m y.XX:XqX2X2XXXz.Z a 0 g V o.| e.q.6.` E C ` ..[ A Z Z M g m A [ Q ( A y ; , m e.o.[ ( A V Y M f 6 6 8 t t y ",
"W U Z Z m a 0 6 M M.XX&X9X4X>XXXI.2.Z m Z A Y ` h.b.k.d.m.<.V y 6 8 0 0 0 q y y g y 8 , ; ; y W 6.O.,.O.8.[ M n V C l y l l l l ",
"[ m y q q a M p.|.2X-X5X7X6X>X{.2.( Z Q ~ X.X.1.e.x.h.b.I.(.I.z.` M t t 1 1 , , ; , , y A y.b.b.6.>.[ ,.6.8.8.[ ..X.B d s f s d ",
"XX(.E.).).{.5X2X2X:X4X7X6X9X+XM.[ A A ! 6.e.x.y.k.h.k.b.E.(.'.W.Q.Q.!.E.(.G.z.z.Y.S.I.T.R.R.T.D.b.<.` [ ,.q.h.e.r.,.C y y y t r ",
"&X&X|.+X>X7X,X3X4X5X$X7X9X2XG.q.( A Z A | e.6.e.x.b.h.S.N.|.I.(.}.).(.XX&X2XXX#X#X|.K.(.(.E.F.P.M.y.| ( ] h.e.e.y.6.C y y f t t ",
"9X&X|.}.7X6X4X&X6X9X6X7X5XXXz.e.o.W Z Z Z Z m h h Z ( e.!.(.!.(.}.(.|. X4X2X2X&X2X#X}.z.E.S.x.d.x.k.t.>.X.4.q.6.t.5.Y f y l f l ",
"7X2X>X2X7X3X6X7X>XqXtXeX>X(.z.x.6.X.W Z g h h h q 6 1 g [ S.(.{.).]. X2X&X4X>X2X-X-X+X{.I.x.h.x.t.j.t.g.| X.X.e.o.4.W n t f f n ",
"eX9X7X7X7X6X5X2X6X7XtXqX&XE.S.b.S.P.X.Z h m ~ X.~ h 1 ; 1 n #.z.|.+X:X2X2X2X3X2X2X+X-X(.E.Y.h.h.v.b.g.s.u.X.X.| &.' W n f n M B ",
"qXeX4X4X2X>XG.Q.:X9XqXqX&X{.I.W.(.x.! Z m | 6.x.e.<.h , - , 6 M 2.I.R.|.:X%XXX%X$X$X).}.).I.h.b.N.N.6.d.g.,.` O.$.&.V n n C B C ",
"2X:X).I.x.~ m 2.2X9XqX7X2X|.{.}.I.! h h A o.<.[ ~ Z y 1 1 1 1 1 f W y.S.{.{.T.!.oX(.^.S.R.S.x.k.C.x.t.u.q.3.[ ^ ] Q M f f M M V ",
"W.x.X.W y 1 a !.5XtXtXtX7X7X+XT.Y a 0 0 6 8 6 1 , , , 0 y g g y 0 t V >.h.I.(.F.S.I.b.D.x.D.b.M.e.y.6.6.>.0.^ ` R Q M M n C C R ",
"q.A g , - 1 s.2XqXiXiXpXtX7XG.C 8 ; + + + + + + = ; 1 6 y y a g g y q n ! 6.y.b.r.r.e.e.j.d.k.g.f.3.>.>.2.] ] R ^ ^ D K M C Y C ",
"A g , @ ; *.&X9XtXiXiXiX9X&XR 6 - + $ + @ @ + @ - - - ; 1 6 6 y a q 6 6 t V W ..o.| ] X.3.q.>.9.,.2.^ ] ` ) L / ) / K R C R B C ",
"n 1 = - ` XX7XqXeXeXqX2XXX&.t ; = + + + + + + + = @ - - - - - , 1 , ; ; ; , y C ( [ E Q ' X.` { X.] Q R L L C K / L L R ) E Y V ",
"6 - = f 0.>X7XqX4X>X$Xz.C 8 ; - + + + + + + + = = - - - @ + @ - - ; - = @ = = 9 C [ ( [ Q ( W ( Q ^ W R K B D L L L L } } ` E A ",
"6 - , C z.XXK.G.G.a.z.| g ; - ; , , ; - - - = = - ; 1 ; - - - : ; - - @ + + + + 3 D ....` E E Y W Q W K D l B L L L Q } ` Q Y V ",
"1 ; 6 ^ s.) n Q ] _ C V t ; , l R C 1 1 , < - - - ; ; , - ; - - ; ; ; > : & @ $ + < y E ` ( Y ^ Q Q T E K B f L L L L ) ^ / M Z ",
"1 ; y R R 8 8 l V y 6 1 - = 1 V [ W l t 6 , ; ; , ; ; , , ; ; ; 1 1 , 1 7 3 : + + @ - t W W Y W Q ( ^ ( R c l L / L K D R K M m ",
"1 1 l L f 9 9 y f y 1 1 ; f 0.M.,.[ A Z y 0 1 1 1 q y y 0 0 0 0 1 6 0 0 6 6 , > @ @ @ ; y E W ` ( ` ` 1.L B l L B K K L K D m m ",
"0 1 f C s 9 8 y n f 8 y M | b.I.z.<.~ A Z h g g g g m Z Z m g 0 0 q y 0 0 6 6 , - @ = - 1 V ( ] | ..@.2.) H c H K H J L L V V Z ",
"8 8 t D r 8 9 y l M h Q [ X.( X.1.X.! A A A h h h g g m m g 0 0 0 0 6 6 6 8 1 1 < - = , 6 l W ..>.,.| &.) J c H H J H P K C V Z ",
"f 8 f l 7 3 , , 1 q h m m m m m m h g y q 0 1 1 1 1 1 1 1 ; - - ; - = @ - @ @ = - 1 8 y y t Q [ ,.1...{ / H c c H J K P H V C V ",
"R y f B , - + + @ , 1 1 1 6 6 0 6 0 1 1 , ; - ; - ; , ; - - = - @ - - - - - - ; 6 C Q [ n f | 6...&.] ) K H c H c J P %.x B M D ",
"p.C f L s 9 3 7 t y q q 0 0 0 0 a a a j S S S S S j a a a y t t y g g y q 0 q g W y.y.r.! M ( [ X.| | E K D c c c J P L K B M B ",
"J.0.f K L K n D m A A ` ( ` G ( >.2.G ` [ { +.F S V S S S h a N N g y y a n M | M.D.<.e.W Z ( X.1.1.Y C B B f x H H c H K K n B ",
"B.a.W l ) R Y Y A A | O.8.,.>.0.d.p.&.Q G S S j f j j a y y a a g y q 0 y C #.S.(.s.| ` C C <.X.0.` C B c l f d c x x K K K K B ",
"%.s.2.B K ] W Q W A W Q C G L R F F V l r 8 9 7 9 8 7 7 7 9 r t t y t t n &.I.(.A.,.[ ( n W 1.6.Q R l c f f p l x f d L B K ^ Y ",
"P =.a.L l Q ^ ` Q m y 6 6 9 8 9 9 7 7 7 7 3 < < < < < < 7 7 9 9 r t y n ` S.T.A.0.&.0.Y n W >...{ B f n f s d x f f H J L ) } ) ",
"%.-.} p.K B ] ] ! A t 6 6 8 7 r r s r 8 9 7 < < < < : 3 7 r 9 r y l l R s.T.z.z.z.M.2.V M 1.` [ R l s f p s s d f l H I %.} R K ",
"%.-.=.=.} B ` [ ! Z f 0 y t t f l M n s s r 7 3 3 3 3 9 f l l n C C R #.T.T.z.A.G.a...n C [ Q ( C l f s r r x f l H H P %.L K K ",
"P =.*.=.%.L R <.W Z h t t y l ` Q ) E D n f 8 8 r s f V C ( ` 2.@.1...s.M.T.z.z.l.V.` M E ` T Q D B f r 9 x H P c J K L L / } } ",
"J =.-.=.%.l x #.X.` A g g n ` s.D.0.0.] ] ../ L ) &.0.a.z.A.z.y.z.2.i.s.G.z.z.a.a.2.` C ( W Y C R B s 9 s s s H I c B K L ) *.*.",
"b %.%.%.I z 9 H 0.y.X.A Z ( X.z.z.p.....,.s.w.l.A.G.p.K.K.^.z.p.0.i.1.y.s.h.&.2.a.p.^ / ) } W E Y B r d r 7 3 r K K c c K / @.i.",
"z P I I I z 4 5 H p.A.6.r.q.e.S.T.R.F.Z.C.D.F.I.W.K.Y.K..X^.z.s.0.*.}  .r.3...&.s.2.` ) 1.@.^ R E x s x x w 9 8 B / L B L %.*.*.",
"w H P %.H d > : 5 B h.W.S.S.b.E.A.^.R.(.).}.|.+XOX+X+X2X&X(.p.0.2.p...1.` &...2.@.&.3.s.p.i.` ` C l d x i i w r r l B L L %.%.I ",
"w x J I H w & & & > B p.^.S.k.r.S.I.R.Q.}.XXoXoX|.XX$X|.).G.2.0.s.w.2.] ( ^ { @.@.&.w.f.A.a.i.` L x i H d i i i < 7 s c ) J i e ",
"5 5 v b d w # # % * > z p.2Xz.z.g.h.s.I.).|.R.W.U.S.a.a.l.M.p.d.y.>.( ( (  .( >.2.p.2.z.^.).a.} L z 4 x b z w u > : 3 9 r 4 4 4 ",
"% & 2 4 u 5 % O % % & 4 J 2X.XI.k.y.M.).'./.R.Y.U.a.s.w.f.,.1.O.>.` ` ^  .] 1.2.s.^ s.P.^.[.A.) H x e 3 w 5 4 7 > # = : > < < 4 ",
"O O # * 4 4 & O # # & < s L.7XS.=.).@X2X:X;XXXXX).[.F.T.n.h.w.u.' ( E ^ Q @.[ s.w.&.a.R.~.+XI.I H i v 5 4 > * 4 % O > 3 3 9 5 d ",
"O O O % * 2 * O O O & > f |.7X9XqXtXqX7XwXtXtXeX7X5X6X:X&XXXoX).Q.a.) R Q Q ` @.2.h.F.R.@X@Xa.K H e w 5 4 : & & # # < 7 r d f x ",
". . . # % * & # . O $ < @.XX3XtXuXiXyXtXtXuXyXiXiXiXqXtXyXeX;X;X:X5X.XV.%.L D { z.R.G.XX;XL.I H c w * * & & O O O # & < 9 r r d ",
". . . O # & % # . X # d p.*X8X8XtXyXyX8X0X0X0X0XrXrX0X0X0X0X<X<X1X<X<X<X<X:.I -.H.J.J.=X=X:.b v k w * & & # O O # # % * 5 3 w u "
};
