/* XPM */
static char *out[] = {
/* columns rows colors chars-per-pixel */
"64 64 224 2 ",
"   c #2B1608",
".  c #4A2415",
"X  c #5C2C1A",
"o  c #68321E",
"O  c #583F2A",
"+  c #763A24",
"@  c #7E3D26",
"#  c #63432F",
"$  c #6E402D",
"%  c #6A4D37",
"&  c #77523D",
"*  c #7F5D46",
"=  c #814A35",
"-  c #8E4B34",
";  c #96523A",
":  c #865540",
">  c #8C5D46",
",  c #9D5943",
"<  c #955F49",
"1  c #A45E45",
"2  c #89664F",
"3  c #9B644E",
"4  c #916A53",
"5  c #9A6F56",
"6  c #AB644A",
"7  c #A16851",
"8  c #AD6D51",
"9  c #A86D58",
"0  c #B36A51",
"q  c #B76F53",
"w  c #A1765D",
"e  c #A7755C",
"r  c #AE755B",
"t  c #B4715D",
"y  c #B97658",
"u  c #A87B63",
"i  c #AE7D64",
"p  c #B77764",
"a  c #BD7564",
"s  c #B27861",
"d  c #B47F64",
"f  c #BB7E63",
"g  c #C1785B",
"h  c #C87E61",
"j  c #C07B6B",
"k  c #AC836B",
"l  c #BE8466",
"z  c #B3876E",
"x  c #BA876A",
"c  c #BF8B6C",
"v  c #B78C72",
"b  c #BC8E72",
"n  c #C38264",
"m  c #CC8566",
"M  c #C78568",
"N  c #C4816F",
"B  c #C48A6C",
"V  c #CC8C6D",
"C  c #CC8C6E",
"Z  c #D18969",
"A  c #D48C6E",
"S  c #D88F6F",
"D  c #C88973",
"F  c #C39072",
"G  c #C69677",
"H  c #C89172",
"J  c #CC9475",
"K  c #CA997A",
"L  c #CF9C7E",
"P  c #D19071",
"I  c #D09072",
"U  c #D29172",
"Y  c #D09273",
"T  c #D39273",
"R  c #D49374",
"E  c #D59475",
"W  c #DA9472",
"Q  c #DD9876",
"!  c #D79778",
"~  c #D1967C",
"^  c #D89778",
"/  c #D59A7B",
"(  c #D99878",
")  c #D9997A",
"_  c #DB9A7A",
"`  c #DA9A7B",
"'  c #DC9B7B",
"]  c #DB9C7D",
"[  c #DA9D7E",
"{  c #DE9D7D",
"}  c #DC9D7E",
"|  c #DD9D7E",
" . c #E09E7D",
".. c #E29F7D",
"X. c #E2A07F",
"o. c #D89380",
"O. c #D89982",
"+. c #DD9E80",
"@. c #DE9F80",
"#. c #DF9F80",
"$. c #DD9986",
"%. c #D99E87",
"&. c #D4A082",
"*. c #DFA081",
"=. c #DCA386",
"-. c #D8A485",
";. c #DCA88A",
":. c #DFAB8E",
">. c #DFAF94",
",. c #E0A081",
"<. c #E2A181",
"1. c #E3A181",
"2. c #E0A182",
"3. c #E1A283",
"4. c #E3A282",
"5. c #E4A281",
"6. c #E5A382",
"7. c #E4A383",
"8. c #E5A383",
"9. c #E5A483",
"0. c #E6A483",
"q. c #E5A484",
"w. c #E6A584",
"e. c #E6A585",
"r. c #E7A685",
"t. c #E7A686",
"y. c #E8A786",
"u. c #E8A787",
"i. c #E9A887",
"p. c #E0A58A",
"a. c #E3AC8D",
"s. c #E7AD8F",
"d. c #E8A888",
"f. c #E9A888",
"g. c #E9A989",
"h. c #EAA989",
"j. c #EAAA8A",
"k. c #EBAA8A",
"l. c #EBAB8B",
"z. c #EBAC8C",
"x. c #EBAE8F",
"c. c #ECAC8C",
"v. c #ECAD8D",
"b. c #EDAD8D",
"n. c #EDAE8E",
"m. c #ECAE8F",
"M. c #EDAE8F",
"N. c #EEAF8F",
"B. c #EDAF90",
"V. c #E4B195",
"C. c #E9B193",
"Z. c #EDB091",
"A. c #EEB090",
"S. c #EDB192",
"D. c #EEB192",
"F. c #EFB192",
"G. c #EFB293",
"H. c #ECB496",
"J. c #E6B599",
"K. c #EAB79A",
"L. c #EEBC9E",
"P. c #F0B293",
"I. c #F0B394",
"U. c #F0B495",
"Y. c #F1B495",
"T. c #F0B496",
"R. c #F1B596",
"E. c #F1B597",
"W. c #F2B596",
"Q. c #F2B697",
"!. c #F2B698",
"~. c #F2B798",
"^. c #F3B799",
"/. c #F3B899",
"(. c #F2B89A",
"). c #F3B99B",
"_. c #F4B99B",
"`. c #F4BA9B",
"'. c #F4BA9C",
"]. c #F4BB9C",
"[. c #F4BB9D",
"{. c #F5BB9D",
"}. c #F5BC9D",
"|. c #F5BC9E",
" X c #F5BD9E",
".X c #F1BFA1",
"XX c #F5BEA0",
"oX c #F6BEA0",
"OX c #F6BFA0",
"+X c #F6C0A1",
"@X c #F6C0A2",
"#X c #F6C1A2",
"$X c #F6C1A3",
"%X c #F6C2A3",
"&X c #F7C2A3",
"*X c #F6C3A4",
"=X c #F7C3A5",
"-X c #F2C4A5",
";X c #F7C4A5",
":X c #F7C5A6",
">X c #F7C6A7",
",X c #F7C7A8",
"<X c #F7C8A9",
"1X c #F0CBAD",
"2X c #F4CDAE",
"3X c #F8C8A9",
"4X c #F8C9AA",
"5X c #F8CAAB",
"6X c #F8CBAC",
"7X c #F8CCAD",
"8X c #F8CDAE",
"9X c #F9CEAF",
"0X c #F3D1B3",
"qX c #F7D1B2",
"wX c #F0D4B6",
"eX c #F6D4B6",
"rX c #FAD3B4",
"tX c #FAD7B8",
"yX c #F1D8B9",
"uX c #F7D8BA",
"iX c #F5DBBB",
"pX c #F6DDC0",
"aX c #F9E1C3",
"sX c #FBE5C7",
/* pixels */
">.G.h.f._ H d k w k F J &.&.;.>.>.>.V.V.>.V.>.V.>.J.K.L.J.K.K.L.K.L.s.G.T.x.s.W.e.j.3.a.e.j.e.j.3.d.7.d.q.2._ ] E ! ! ^ ^ ^ R U ",
":.j.b.c.r.E l k u i c G &.;.V.V.V.V.V.V.>.V.J.>.J.J.J.K.K.J.K.K.K.T.G.|. X'.'.'.I.E.Y.F.P.B.I.v.c.d.e.7.e.4.X. ._ _ _ _ { P R U ",
"Y 5.5.0.8.' x z i z x J :.V.V.K.J.K.>.>.J.J.>.K.K.L.J.L.`.XXK.@X@X$XG.).[.|.T.^.E.G.j.c.z.F.h.j.d.y.2.<...5.! ' ` } ^ ^ ^ ^ Z A ",
"F ' ..{ Q W B F G &.-.a.J.G.J.G.(.(.T.K.>X*X+X%X3X<X@X>X>X@XoXoX$X X/.Q.`.^.T.W./.P.d.d.A.b.y.w.e.y...) { { _ _ } { ' ^ ^ P Z m ",
"H  ...5. .' *.x.C.Q.Q.|.).oX&X>X+X>X*X:X+X=X=XoX=X>X*X3X|.+X{.OX'.'.T.!.I.!.E.I.c.l.d.G.y.j.y.y.4.y...} ) } ` } ` #.^ ! Z Z m A ",
"Y w.w.w.w.w.A.T./.(.`.Q.|.|.OX@X&X$X=X|.XX|.XX@X=X+XXX|.|.)./.!.[.T._.Q.(.G.F.x.x.l.c.l.d.5.7.w.j.j.5.) } ) ` { *.+.^ U Z Z m Z ",
"P h...7.h.c.l.F.Y.`.Q.|.XX&X`.[.+X;X|.`./.`.G.XX>X>X|.`.[.^.Q.(.(.`.A.T./.`.A.Y.I.Y.d.d.q.y...y.l.A.+.3.3.*.^  .7...U A Z Z h m ",
"W w.<.+.*.+.[ / =.d.A.(.@X@XXX|.@X@X[.XX`.Q./.|.XX@XOXQ.Y.A.(.Y.`.Q.Q.|.=X*XG.(.E.x.y.<.y.y.y.y.j.e.7.+.*.+.+.| 3.{ E A Z m h h ",
"R ` l r 3 4 > 4 > e H s.G.`./.|./.|./.!.F.Y.Y.XX`.~.T.T.j.A.T./.@X=X|.OX+X@XQ.Q.d.p.[ [ / +.[ E U E E / ) *.#.3.} } W A h h g n ",
"M 8 ; : : $ # X O # & < d J p.x.Q.Q.T.x.P.c.B.`./.B.A.j.h.c.G.`.XX|.XX@XXX(.x.3.H s r w 9 r r 9 r s f n V J / ) } ) U Z h g f g ",
"n y s B J F 5 * $ % $ = < r n / y.F.c.x.M.c.j.B.G.F.d.d.q.c.d.Q.|.XXG.s./ x 9 > = $ o X X $ + = : 3 3 9 9 8 r M U ^ m n h n y f ",
"=.*.7.j.T.G.J.-.G i w 3 7 8 y n I e.c.n.b.c.d.j.n.n.7.+.<.7.y.l.T.j.E r < + o X . . . . . X $ + & = = : > > ; 7 8 p n n f g g a ",
"3.q.4.y.e.s.a.s.e.3.} T M M f M M ` e.n.t.c.h.c.t.B.) R I E / <.+.I t > + # o X X X o + * 5 w 5 < < < 3 : : : < < 3 , 9 8 t y g ",
"<.7.1.E P / [ p.j.e.` P M n M V R ` w.l.d.y.g.c.c.j.E n M M M V M t ; = + $ + + - < r B / } } T H B f f r 3 < < < < > : ; 6 0 0 ",
"3. .M t / K.K.@XXX(.e.*.V p 8 n E  .<.h.h.h.7.y.j.N.P f f n f f t 8 - - = = - , t V I +.7.e.&.3.*.#.T / E D 8 8 7 3 : : - , , 1 ",
"y.P 0 H `.L.(.T.s.a.+./ P n 0 8 n P ' w.A.j.y.w.l.y.^ n f a p t 8 1 - - ; , 1 8 f M D M V B n n M M C T ^ I D n f 9 3 > > ; 7 1 ",
"7.n 0 3.a.-.z w > : = > 3 8 0 0 0 n P 5.A.I.c.l.d.w.^ C n f t 8 , ; - - - - - 8 N / E R D M f t 1 ; ; 8 n C H B p s 9 7 3 8 8 8 ",
"c.C n J e % . . . .     . X = ; 6 y M ) A.(.Q.F.F.e.' C n y 8 , ; = = + + - r C E / / / E J D n t 9 - + : f C M M n f t n a t q ",
"' T s : .   . . . O     . . X o @ 1 n ^ I.3X@X@X/.Y.*.C y 8 , , - @ o X + 9 3 : * * # % & > > > > > : & $ > M / R D f M P V n h ",
"y , @ = $ + : : * % O . O # = $ + + y ' E.9XqX3X=X`.y.M 6 , , - = @ X X @ @ $ X . .         .         . X o 7 p 0 0 a f n f g g ",
"n a f } } E [ &.Y B f j s f p r 8 f E I.^.9XeXuX=X`.#.g , 1 1 ; 1 8 , 1 7 8 r i 4 % X X O # . . . # # X X + ; 1 8 I ^ ..7.7.I M ",
"F.c...^ j.y.e.e.e.+.R I I A A P ^ ^ j.`.XXqXuXqX3XQ.) y 1 1 y y M { 7.+.) } ` +.=.Y l r s d f r 9 8 7 7 8 a t 1 y M T ) { ) n 8 ",
"F._.B.n.7.7.Q A A R Z A P R m m f A A.>X3XuXqX9X=XG.I q 6 q h ) } <.5...W A V ' { ' Z m m n a h m P A W Z q - f | @.D f y 8 8 f ",
"Y.Q.E.[.Q.{ m h V A V m n q 6 8 U `.>X;XqX5X9X=X`.e.V g g h m W 9.h.y.l.l.' n 8 0 0 q q 0 0 q g h n y 1 - - a T } #.{ P a a M l ",
"A.(.`.>X&X@XA.Q n q 6 8 6 y U G.*X>X*X8X4X9X6X@Xj.^ m m Z ^ W ) 5.i.w.i.A.(.F.<.M 8 1 1 , , - - = - - 1 f ..7.7.P R ' w.} } D p ",
"Q.^.|.;X6X9X=X|./.n.n.s.G.@X6X<X3X*X8X9XrX9X8X`.<.A m m ^ { y.y.y.y.j.n.I.Y.`.Q./.W.E.x.a.*.) R ^ } w.l.F.N.j.<.' C I +.7.<.H r ",
"/.+X|.>XqXuX3X=X@X@X^.@X5X9X=X5X3X6X>XqXuXqXXXI. .P h m S {  .y.l.h.w.l.Q.`.Q./.`.XXE.oX=X3X`.&X/.`.c.n.A.B.<.d.y.' M ^ y.d.D f ",
"^.XX&X>XrXtXqX=X@X`.XX>XqX9X3X=X5XqX9XeXeX>X`.c.5.E Z m Z m h h h m Z 5.I./.`.Q.`.|.XX@X=X3X&XXX|.Y.c.l.d.d.w.0.d.<.U P <.7.J l ",
"/.;X&XqXqXuXuX3X|.XX3X7X5X7X>X3X6XqXuXaXeX@XI.A.y.<.Q A g y g g 0 1 , y W F./.|.|.XX@X3X&X6X;X>X+X`.I.A.w.w.w.h.r.<.{ ^ ^ *.J C ",
"/.+X=X9XeXuXtX9X6X6X6X9X9X9X>X>X6XeXuXaXqX`./.n.n.n.j.Q h g Z ^ W m 6 - 1 n d.Q.@X@X=X>X>X=XoX`.|./.`.P.l.w.w.r.k.5.5.Q ^ ` T C ",
"^.=X|.9XeXuX9XqX6XqX3X3X>X@XY.XX3XeXuXuX9X@XI.I./.`.<.W m h W w.w. .n , - , 8 R j./.`.@X=X@XQ.Q.`.Y.c.c.h.b.r.u.j.c.} ' ^ ` I I ",
"/.|.`.XX$X3X>X@X@XXX/.c.7.E ' (.;XqXuXpX9X=X`.(.@XA.V g h Z  .5. .W g 1 , , ; 6 D 7.n.G.`.|.Y.I.N.l.d.i.c.i.y.y.j.9. .) ) R C V ",
"j.`.`._.'.XXY.Q.y...R g 6 q g.3X<XuXuXaX9X6X=X|.A.P 0 0 6 0 0 8 1 1 , 1 q g q 0 6 n ^ y.l.I.A.F.y.r.7.0.6.t.e.i.#.,.+.*.[ E E Y ",
"F.Y.`./.!.B.c.5.A g 1 - 8 s.>X>XqXuXaXaXaXtX9XT.R 8 - + + + + + @ - , 6 0 y g y y 0 y V  .y.j.y.w.7.7.7.h.h.<.7.] ] ' ) ) P U C ",
"d.I.c.Q.F.9.^ m y ; @ 8 x.3X3X9XtXaXsXaXaXeX`./ 8 - X + = = + + @ - - ; , 6 6 a g a 6 8 M ^ ^ { { { ^ } <.h.` ' ) ) Y T E E C I ",
"y.y.j.0.w.R g 8 ; - y a.>X3XqXeXuXuXeX6X3XL.+.t ; @ + + + + + + @ @ @ = - - ; 1 6 1 , , 7 a D T ) E R T ` E ) E E R H J / Y R Y ",
" .9.7.0.P M 0 ; = 8 +.XX>X9XeXqX3X3X@XQ.=.P t , = + + + + + + + @ = - = + + @ - - - = - = - 7 C / } W T I R A U I J l J Y / R U ",
"' { ..Q V q , - 1 C p.XX>XL.K.T.x.F.Y.c.T 6 ; - ; ; ; - = = = = - - ; - @ = = = - - = + + + @ 3 J } } R A I T I E J l H / E U T ",
"' { W ^ h 0 ; ; n ) *.s.Y D H [ +. .) } C 8 - 9 D T 8 1 ; ; - - - ; ; , - ; - - ; ; - = + & $ + < n U ^ U U V U ! / f H [ ! Z P ",
"^ ^ ^ Z g 6 ; 1 Y C / M r 8 p D H f 0 7 - @ - t T ) M y 8 1 ; - - - - ; ; ; ; ; , , , < < : @ + = : t I E R U E +.+.f B / R I Z ",
"R ( R V 0 6 , 8 D B B s 9 8 8 n f y 1 1 - 7 E d.*.{ R Z g 6 1 , ; 1 6 6 1 6 1 1 1 6 6 6 7 , = @ + @ - n I E E ] +.&.l H Y E A P ",
"E ) R m q 0 , 1 B l B e 9 8 t f n f 0 t t T A.(.A.w.{ R Z g q 0 0 g h h m m g 0 8 0 0 1 6 6 , = @ + - 1 I ^ } 3.p.3.B H J Y A Z ",
"J } ( M 0 a 7 1 B B r r 8 r y n m m n E ' { { y.d.y.' Q R I h h m m h Z Z m y 0 0 q 1 1 6 8 , - = = - , n  .} 3.p.-.B F J / V Z ",
"H } w.E t y n 8 C f , ; , , , 1 y h Z A R R R R E A m h h q q 0 0 6 6 6 1 ; ; - - - @ @ @ @ + @ ; 1 8 1 f } { { <./ B c J E C C ",
"l #.e.e.M t C n n n 7 ; + + + ; 1 0 0 q q g g g q 0 1 1 ; - - = - - - - @ @ @ @ @ = @ @ @ = = , p C T y n { +.,.E J c H G J M D ",
"x / c.B.3.n l Y B n f r 8 7 8 q q q q q t t t q t p f f N N j j j p t 0 6 6 0 6 0 q q 6 6 1 8 M ..7. .n C ' *.] / B c H L H B B ",
"G L 3.B.I.*.y D / R D V V C n Z A ( Q ] o.$.o.O.O.<.$.O.o.I D D M N j N N f a g g a 0 0 0 n R j.y.w.T n ) *.) R H B x F G G n B ",
"K L [ p.I.j.J s [ / R C U E Z h ' ..' o.#.$.$.#.3.a.=.o.I D M p p p g q q a t 0 t 0 1 6 n  .A.m.<.' V M <. ./ B n f d x c H B M ",
"J -./ %.j.(.a.l f ` T I I ( ^ Z m P M n M D D n f j f f 9 9 7 3 < 3 , 3 3 r 8 8 8 8 6 y T A.B.h.} ) f V +.+.C l s f l x B H H I ",
"K -.-.[ p.x.G./ s C ' ^ Q ^ W m y 8 7 1 9 9 9 9 9 9 9 w 7 3 > < > > < 3 3 7 9 9 8 8 y D d.I.S.3.q.R y P ` T l s r d d f J H Y / ",
"&.;.&.-.%.a.d.e.l f /  .{  .A m f y 8 9 8 t 8 p p s r 9 9 7 > > > > > < 7 9 7 8 t p D p.G.T.3.3.s.V n ^ R C r r r s r F J L Y H ",
"&.-.-.-.;.&.3./ B t C ....Q R m a t t t n M M M D l p r r 7 3 < < < 3 9 f n f f M C =.n.T.G.s.j.3.n V E Y B r r s f l F L &.H B ",
"K -.=.-.-.L c d c l f  ...' W A g t a n ` 7.+.) / C M f r r 9 9 9 p l Y E ' T T T } s.x.s.j.a.x.T M U R n p s F l l H Y Y ~ K &.",
"G -.;.-.-.F u > w u x +.d. .{ E h f m ' F.B.h.w.d.w.=.[ E D H L &.p.e.e.d.w.<.+.+.+.x.s.g.d.j.s.H C T C f e x c G F B H J J &.=.",
"b &.&.&.L b w > > 4 e &.I.c.Q  .W E Q m.F.F.7.7.7.h.e.x.Z.F.d.>.x.K.c.T.e.p./ +.3.d.3.r.h.z.e.p./ ) T B s r 3 r H F f c H L L p.",
"z K L L L x 4 & & * > x Q.).7.<.c.5.<.c.`.Y.Q.A.I.A.x.G.).E.T.K.L.K.x.K.p.+.` | 7.7.3.2.s.e.g.3.} [ / d x e 7 9 l L H B H J &.p.",
"w F K &.K z * % & & * e -.XXF.y.l.B.y.F.Y.`.|.OX[.`.|.OX`.&XXX>XL.XXa.a.d.3.*.3.` [ +.3.e.x.S.p.[ [ C d d k w e r l B J H L &.L ",
"w x G L F e * # % % * 5 F XX3Xc.y.i.j.j.Q.`.^.|.+X[.}.[.XX=X%XL.T.s.=.e.j.e.7.^ ^ } 2.7.d.T.^.C.=.[ l x d i i e 7 7 r F K K z i ",
"5 5 v b x w % # % & % 4 e J.>X;Xz.j.<.l.A._.G.U.`._.s.v.A.(.a.d.x.z.7.7.7.w.^ ) ] 7.| a.Y._.E.x.-.L e d x z u i : : 3 9 r 5 4 4 ",
"% & 2 4 k 5 & O # # % : 7 :.5X;XS.3.7./.;X+X[.^.{.R.D.m.D.b.7.,.e...) ! } ` _ ] d.3.^ s.).|.[.s.&.c i 3 u w 4 7 : % : > > < > > ",
"O O # * 4 4 * O O # % : 7 s.5X-X-.K.@X3X5X6X,X,XXX#X[.|.T.G.e.z...} T U I ) ' t.e.3.7.F./.@X|.-.G i x 5 4 * > 4 & O : 3 3 9 5 d ",
"O O O % * 2 * O O O % = f E.9XqXeXuXeXqXrXuXpXiXqX9XrX3X3XXXoX]._.U.} Y Y R ! ` *.e.G.E.[.#XH.H F e i 5 4 : & & # # < 7 r d f x ",
". . . # % * & # . O $ < +.XX4XuXpXaXiXuXuXpXiXaXaXaXeXuXiXtX:X:X>X6X.XV.&.J D ] x.E.H.XX:X.XL F c w * * & & O O O # & < 9 r r s ",
". . . O # & % # . X # d a.*X0X0XuXiXiX0XwXwXwXwXyXyXwXwXwXwX1X1X2X1X1X1X1X>.L ;.J.K.K.-X-X>.b v k w * & & # O O # # % * 5 3 w u "
};
