/* XPM */
static char *out[] = {
/* columns rows colors chars-per-pixel */
"64 64 224 2 ",
"   c #2B1608",
".  c #4A2415",
"X  c #5C2C1A",
"o  c #68321E",
"O  c #583F2A",
"+  c #763A24",
"@  c #7E3D26",
"#  c #63432F",
"$  c #6E402D",
"%  c #6A4D37",
"&  c #77523D",
"*  c #7F5D46",
"=  c #814A35",
"-  c #8E4B34",
";  c #96523A",
":  c #865540",
">  c #8C5D46",
",  c #9D5943",
"<  c #955F49",
"1  c #A45E45",
"2  c #89664F",
"3  c #9B644E",
"4  c #916A53",
"5  c #9A6F56",
"6  c #AB644A",
"7  c #A16851",
"8  c #AD6D51",
"9  c #A86D58",
"0  c #B36A51",
"q  c #B76F53",
"w  c #A1765D",
"e  c #A7755C",
"r  c #AE755B",
"t  c #B4715D",
"y  c #B97658",
"u  c #A87B63",
"i  c #AE7D64",
"p  c #B77764",
"a  c #BD7564",
"s  c #B27861",
"d  c #B47F64",
"f  c #BB7E63",
"g  c #C1785B",
"h  c #C87E61",
"j  c #C07B6B",
"k  c #AC836B",
"l  c #BE8466",
"z  c #B3876E",
"x  c #BA876A",
"c  c #BF8B6C",
"v  c #B78C72",
"b  c #BC8E72",
"n  c #C38264",
"m  c #CC8566",
"M  c #C78568",
"N  c #C4816F",
"B  c #C48A6C",
"V  c #CC8C6D",
"C  c #CC8C6E",
"Z  c #D18969",
"A  c #D48C6E",
"S  c #D88F6F",
"D  c #C98270",
"F  c #C88973",
"G  c #CC8A78",
"H  c #D08B78",
"J  c #D38E7E",
"K  c #C39072",
"L  c #C69677",
"P  c #C89172",
"I  c #CC9475",
"U  c #CA997A",
"Y  c #CF9C7E",
"T  c #D19071",
"R  c #D09072",
"E  c #D29172",
"W  c #D09273",
"Q  c #D39273",
"!  c #D49374",
"~  c #D59475",
"^  c #DA9472",
"/  c #DD9876",
"(  c #D79778",
")  c #D1967C",
"_  c #D89778",
"`  c #D59A7B",
"'  c #D99878",
"]  c #D9997A",
"[  c #DB9A7A",
"{  c #DA9A7B",
"}  c #DC9B7B",
"|  c #DB9C7D",
" . c #DA9D7E",
".. c #DE9D7D",
"X. c #DC9D7E",
"o. c #DD9D7E",
"O. c #E09E7D",
"+. c #E29F7D",
"@. c #E2A07F",
"#. c #D89380",
"$. c #D89982",
"%. c #DD9E80",
"&. c #DE9F80",
"*. c #DF9F80",
"=. c #D99E87",
"-. c #D4A082",
";. c #DFA081",
":. c #DCA386",
">. c #D8A485",
",. c #DCA88A",
"<. c #DFAB8E",
"1. c #DFAF94",
"2. c #E0A081",
"3. c #E2A181",
"4. c #E3A181",
"5. c #E0A182",
"6. c #E1A283",
"7. c #E3A282",
"8. c #E4A281",
"9. c #E4A382",
"0. c #E5A382",
"q. c #E4A383",
"w. c #E5A383",
"e. c #E6A483",
"r. c #E5A484",
"t. c #E6A584",
"y. c #E6A585",
"u. c #E7A685",
"i. c #E7A686",
"p. c #E8A786",
"a. c #E8A787",
"s. c #E0A58A",
"d. c #E3AC8D",
"f. c #E7AD8F",
"g. c #E8A888",
"h. c #E9A888",
"j. c #E9A989",
"k. c #EAA989",
"l. c #EAAA8A",
"z. c #EBAA8A",
"x. c #EBAB8B",
"c. c #EBAC8C",
"v. c #EBAE8F",
"b. c #ECAC8C",
"n. c #ECAD8D",
"m. c #EDAD8D",
"M. c #EDAE8E",
"N. c #ECAE8F",
"B. c #EDAE8F",
"V. c #EEAF8F",
"C. c #EDAF90",
"Z. c #E4B195",
"A. c #E9B193",
"S. c #EDB091",
"D. c #EFB090",
"F. c #EEB091",
"G. c #EDB192",
"H. c #EEB192",
"J. c #EFB192",
"K. c #EFB293",
"L. c #ECB496",
"P. c #E6B599",
"I. c #EAB79A",
"U. c #EEB899",
"Y. c #EEBC9E",
"T. c #F0B293",
"R. c #F0B394",
"E. c #F0B495",
"W. c #F1B495",
"Q. c #F0B496",
"!. c #F1B596",
"~. c #F1B597",
"^. c #F2B596",
"/. c #F2B698",
"(. c #F2B798",
"). c #F2B799",
"_. c #F3B799",
"`. c #F3B899",
"'. c #F2B89A",
"]. c #F3B89A",
"[. c #F3B99A",
"{. c #F3B99B",
"}. c #F4B99B",
"|. c #F4BA9B",
" X c #F4BA9C",
".X c #F4BB9C",
"XX c #F5BB9D",
"oX c #F5BC9E",
"OX c #F5BD9E",
"+X c #F5BD9F",
"@X c #F5BE9F",
"#X c #F1BFA1",
"$X c #F5BEA0",
"%X c #F6BFA0",
"&X c #ECC4A7",
"*X c #F6C0A2",
"=X c #F6C1A2",
"-X c #F6C2A3",
";X c #F7C2A3",
":X c #F6C3A4",
">X c #F2C4A5",
",X c #F7C4A5",
"<X c #F7C5A6",
"1X c #F7C6A7",
"2X c #F7C7A8",
"3X c #F7C8A9",
"4X c #F0CBAD",
"5X c #F4CDAE",
"6X c #F8C9AA",
"7X c #F8CBAC",
"8X c #F8CCAD",
"9X c #F8CDAE",
"0X c #F9CEAF",
"qX c #F3D1B3",
"wX c #F7D1B2",
"eX c #F0D4B6",
"rX c #F6D4B6",
"tX c #FAD3B4",
"yX c #FAD7B8",
"uX c #F1D8B9",
"iX c #F7D8BA",
"pX c #F5DBBB",
"aX c #F6DDC0",
"sX c #F9E1C3",
/* pixels */
",.<.` -.-.q.>.d.A.I.P.L.P.L.Z.P.Z.P.1.Z.1.A.1.P.d.f.s.1.<.f.d.d.,.s.:.:.>.5.>.:.` ` ` ] ` ] ~ ` P ` ) ` ) ) P W F C C Q R ! R C ",
",.-.Y Y -.-.-.<.Z.P.Z.Z.I.P.P.A.P.1.f.d.Z.A.f.v.f.d.<.d.A.f.<.s.s.<.,.s.s.s.r. . .{ ] { { { ] ` W I W ) ) I W R R R T R ~ E Q R ",
"-.-.U :.d.<.,.A.A.Q.A.L.L.Q.Z.Z.G.G.d.v.L.Q.f.A.A.L.s.f.G.L.l.v.c.f.;.d.c.v.| 3.5.5._ } 6.r. .` ` Y K U P I B P C C m R ~ ' R Q ",
"-.-.5.f.L.Q.).).+XXX].'..X(.L.L.].~.R.G.]./.R.F.Q.A.S.v.Q.Q.S.S.v.c.j.j.F.q.6.&.5.&.o...3.6.5.-.-.Y L K ) P F F R V m V E R R R ",
",.f.f.'./.].~.XX).oX{.$X{.XX'.XX'.XX).].Q.~.~.).Q.~.R.Q.S.R.F.H.f.c.x.v.j.7...3.&.@.O.2.} 5.%.s.Y Y I ) I I B C M C m V m m Z A ",
"Q.~.).'..XXX].).XXXX.X.X.X).'.[..X.X].).).Q.~.Q.).!.R.v.G.F.v.n.c.g.j.x.l.O.@...*.*.O.{ o.%.%.` ` U I P R C V M V V V m Z m m Z ",
").XXQ..X.XoXL.).{.+XL.'.)..XL.{.].XXL.{./.].G.).{.R.j.n.C.C.i.h.z.V.g.j.@.O.' O.@.7.{ &.5.6.~ ` ) W B V F R n M M V M m m Z h m ",
" X).].'.OX|.~.L. X{.~.Q.].Q.~.R.{.].).G.).{.~.Q.{./.c.v.F.c.i.i.z.V.l.i.u.3.} } 2.o.[  .6.;.` Q W C M n F M n n M n n n m m m h ",
"R.!.).}.~.~.W.'.L.}./.^.S.G.(.].H.~.~.]. XOX].XX~.).V.F.j.v.l.S.g.v.l.i.q.i.%.;.} &.{ ..X.;.( ( C F n M M V M M l n n M h M h g ",
"Q.G.).].~.H.W.R.Q.Q.(.S.J.S.F.^.[.). X.X=X=X=X X'.).S.c.v.f.v.z.c.g.l.l.y.w.6.%.2.X.X.*.&. .~ ! C V M M M M h h n g g g g g n g ",
"d.T.v.S.T.T.j.G.R.W.d.c.v.S.g.R.~.+X'.$X1X6X$X{.^.S.6.&.%.d.X.3.&.5.&.4.r.q.X.*.&.;.] %. .&.~ ! C V f n n h y y y a q g g g y g ",
"R 5.v.c.R.B.l.L.W.D.d.i.l.l.i.N.OX{. X.X=X'.d.,.U x r e r s s s d n F C ( { ]  ...X.( ( &.| E ! R M M n n f t t f t y y f g g g ",
"y W q.j.k.M.g.n.l.B.q.g.;.q.i.x.^.~.R.d.F r < : & $ o X X $ @ : > 7 r d d f n C Q  .~ | ( ( W E M V n n f y t y t y y f y g g g ",
"p B  .k.h.l.z.d.c.c.i.} X. . .&.z.i.~ y < = + X . . . . . X $ + = : < < 7 7 3 7 p F T W Q W R V m n l f f f f y g y g y g g y g ",
"l C W y.z.z.i.h.j.V.' R R A m ~ ~ R t , : @ + X # $ $ = < 9 e e 3 3 < 7 < , ; < 7 9 8 y l n l n M M y f f f q y y y 0 q q y 0 q ",
"t n ! O.z.h.i.r.z.a.} M m M M M M y 6 ; - = = = ; 7 s B | 5.i.s.&.) F M l r 8 < 7 7 7 7 7 7 9 8 t r 9 9 t 8 0 8 0 0 8 6 0 0 0 6 ",
"0 t n ' q.k.h.l.r.q.} R y f n l t 8 1 , ; ; , 8 t M Q &.5.l.l.v.q.r.5.6.%.&.V y 8 8 7 9 3 7 3 7 3 3 3 7 7 7 1 6 1 1 1 1 1 6 6 6 ",
"1 6 y m O.n.V.y.a.7. .T M n f t 8 1 , ; , , 1 1 t n C E Q C V m M C Q ( ;.{  .T M l y 9 9 7 7 7 3 3 3 1 1 1 7 1 1 1 1 1 6 6 8 0 ",
"$ - , f ~ D.N.T.M.B.} ( W V t r 1 , - ; ; - - r C ;.5.d.q.;.Q V f t 1 t n T W ~ ! R f f y r 9 8 9 9 7 8 t 8 1 8 8 8 1 6 t r 8 0 ",
"# # + ; T z.OX$X'.D.i.} T f 0 6 1 ; - @ + = t n D C ` ` -.` ` W C f 8 - - 7 n R W R n n l n f f f f f f f 8 8 0 t 8 8 0 y g g g ",
"w > = @ h n.-X0X$X'.D.i.V 0 6 6 ; - = + o , 3 < $ & & & & > 7 e r r 9 7 : = ; n W ( ( ~ M n M m M M M l y y y p t y y f y f f n ",
"F f d l [ T.2XwX8XOX^.&.n 6 0 6 ; , ; @ @ @ @ = X .         . . . X X # $ $ $ > l M f f y h m m V V V n n y t t y t f y f f n f ",
"S _ ^ ..z.-X1XrXtX2Xl.E y q 0 y 0 V T C M R M F c i > & # # X X . X X # . X + ; 1 1 6 y n Z R _ 2.8._ [ S V y y y l y l n M f n ",
"Z h g Z '.-XwXwXrX-Xd.V g y g S ' ' 8.q.@.[ [ ..q...! M n n n f r 8 9 1 8 q f y 8 8 f C O.O.....4.@.O.' ~ n 0 1 6 1 6 8 t t 8 t ",
"6 0 !  X=XwX9X9XOX^.&.Z f M Z ..8.p.p.x.q.[ V R R E Z m m m g h m A S _ S V 0 6 8 T O.y.8.p.[ ' ! ' ~ E n y 8 7 , 1 1 8 t p f n ",
"{ L.$X<X7X7X6X@X^.q._ A ~ A _ ^ y.z.n.n.V.D.i.T t 1 6 6 8 8 q q y q 0 6 1 , 6 m O.4.w.q.p.p.p.O...| [ [ [ ! M t 8 9 r r f f l l ",
"2X6X$X2X0XwX$X'.l.O.A A ..u.8.0.p.V.p.z.(.].~.[.L.l.W M f r 1 , , 1 , 8 M ..4.D.V.D.i.i.0.j.3.@.i.p...8.9.} M t 8 9 3 9 s y t y ",
"9X3X1X3XwX0X XD.q.! A S 8.4.z.z.V.B.k.z.'.~.~.~. X X.XOX=XoX(.S.L.v.F.W..X].W.G.~.J.N.u.r.8.%.7.t.q.0.0.p.{ V y t 7 7 9 t t y y ",
"9X9X7XwXwX1XT.z./ S A S ^ / ..3.@.p.z.M.^.~.R..X!. X_.=X@X:X%X-X+X$XoX$X{..X/.).J.J.V.D.8.+./ y.0.7.p.i.O.' M f r 8 8 r y f f n ",
"wX7XwXiXwX@XD.i.q._ ^ S Z h h h g g m / V.V.W.[.XX{.}.$X1X:X1X1X<X*X*X$X^.T.J.D.D.D.R.v.k.w.@...p.e.p.0.[ E M f t r t y f f M F ",
"wX8XwXaX8X XT.n.p.p.^ Z h m m A m y 1 8 M q.n.(.).*X X=X2X7X:X1X3X9X=X-X=X].N.B.V.T.k.l.g.b...O.y.y.O.3. .( n l f f t n m V n Z ",
"-X-XwXwX2X X_.R.].n...A m m ..p.k.^ y , , 8 V ;.D. X'.-X2X6X1X<X6X:X$XOX*X].R.v.J.J.l.n.D.b.O.*...} | [ | W n n n n M m R R V V ",
"@.$X6X0X-XOX+X XT.q.A A Z O.k.n.p...Z 1 - ; 1 y V i.v.W.OX=X+X,X@X-XoX X].].v.J.n.D.b.J.u.z.0.e.} } ~ ~ W W B n f l n m Z ! R W ",
"} 2XwXwXrX2X@X+Xy.m h h Z / ..^ Z h 0 1 1 8 8 6 0 n { p.(.'.'.).{.~.'./.^.W.].R.v.D.m.b.g.l.w.2...( ! C W I F F n y n m A Q ~ Q ",
"L.tXiXpXsXtX Xp.M t 6 1 1 , - - - ; ; 6 y h g y y q q C 3.n.n.T.F.R.z.n.T.R.c.D.D.J.w.p.h.g.*.&.{ ` P F F I C W C M y M Z A m Z ",
"1XrXaXsXaX2Xd.y 1 - + o @ @ + @ - ; , 1 0 q y q h g 0 8 n E } q.k.g.u.r.c.g.z.k.c.b.r.4.w.6.*.| ` W I B W I E ( ! M n M ! ! R Z ",
"1XiXiXiX7XL.M 1 - @ + @ @ @ + + @ - - ; ; , 1 q q q 0 6 , 8 n ( ~ O.' *.o.4.z.z.e.r.*.8.| X.( ` W W I ) R W R ` F R C E E ~ V A ",
"8X7X2X'.5.B , - @ + + + + + + @ - = - - - = - ; , ; ; - : : ; f W ~ ( ' ' [ ....*...[ ( ( ~ Q I I W ) W W I I W ~ { &.( ~ Q Z V ",
"Q..Xd.j.{ t - - - - - @ @ = @ = - ; - - @ @ @ - ; ; - = = = + : t ( ' ..[ | Q ~ ' [ ! ~ ~ Q M C C ) R ~ W ` B P ( s. .( ~ Q M Z ",
"W { ` W M 8 - ; t l 8 ; ; ; - - - ; , < - : : - - ; = = & @ + + = 9 M ( | { ! Q ~ ~ T W ' C M V F R W ! ] W B V `  .~ ~ A V m m ",
"r n n r 7 - - t M C f 0 1 ; ; ; - ; ; , ; ; - - ; ; ; , > > : & + = ; p W [ _ _ R ! T ! ~ T R C l R T ~ ~ ~ C C R ` I W M m V m ",
"9 t y 6 1 , f q.p.' V h y 7 1 , ; 1 1 1 , , , 1 , 1 6 6 8 7 < : = @ = - 8 R T Q ! ! ~ ~ | ~ ~ B B C W W ( W B l l c P M C m V Z ",
"9 y y y f M ( z.n.p.S Z m g 0 0 0 q y g g y q q 6 0 8 q 8 8 7 , - = @ - - y V ~ _ ..~ ..2.6.W F B F F W ) I l l c K B F C R m Z ",
"9 s f M T ' ' { i.0...S Z m M M M M g h m m g y y q y q q q 0 7 3 : : - ; 1 M ~ } [ ....q.@.` B K P P P ` B f c L L B n V C V V ",
"> 3 6 f n h g m m C M h y y 8 6 6 6 8 q 0 8 1 1 , 6 6 6 , 6 1 1 ; < ; , , 8 y _ } ..*.6.O.4.( W F P I ) P c f K K U l l l B M F ",
": = ; ; ; ; , 1 1 1 , - - - - = - = = - - @ @ @ @ = = = - = = = - ; t y n l y ! O.O.@...*.[ ~ C P P I P K c f c P K c l B B M B ",
"9 9 t q 0 8 6 6 1 , , , , , , 1 6 6 1 1 , , ; ; , 1 1 6 q 8 1 1 0 m ~ O.3.~ f ' 3.3.....2...W P P I F P B x d x x F c B B C l B ",
"B n m A ' _ #.#.$.#.J H ! G G F H D N j D j j j M h g g g g g M _ z.j.7.i.' M ! 8.*.*.| 3.[ C B P P L B c d s d f x l P P P B B ",
"W W C S _ } #.#.#.$.#.$.J G D D j f a N j j j N a a g y q g M ..n.J.l.3.&.' R [ ..3.2.3.~ W F P B L B x d d l x d d c B P ( W R ",
"( ~ ~ A W C F G G D D n G f s r 9 7 7 r 8 9 t y t t y t y n ( l.F.F.k.q.i.T V [ 7...{ ( Q B n M B c l d s x d r d c K B Y ` ( ) ",
") ` R C f t 7 6 7 7 7 7 9 9 7 3 < < > < 3 7 7 7 r t t f n ~ i.D.V.G.r.N.3.V M } ..O._ T C C l B F c f r d l d s f K K Y -. .P P ",
") ) ` W V y 9 3 7 7 9 9 s e 7 7 3 < < < 7 7 9 9 t t y f T | l.v.^.H.B.v.} M R [ ....W C C n B V C B d 9 d c f d c K L U -.P P B ",
"L U  .{ C f 9 7 7 9 s f f f t r 7 7 , 3 3 9 s f l M R ( ' l.i.T.S.G.H.v.~ C ~ &.} ..E V M B C C B B r e s L K c c P L U I ` ` ` ",
"K U ~ ~ ~ M t 7 8 r M ~ ` P M l l f f d l P W ( &.6.r.q.g.v.n.C.G.F.c.3.~ ~ [ ' ' { ! C F C W C R l r 9 d i K U c c K P I ` :.` ",
"b L B ~ ~ W y t t n C q.i.;.R ~ ~ %.` >.s.f.d.A.L.G.z.v.d.l.r.f.d.v.5.%. .` ~ } ( } R W W W I W P B r s 9 7 r L c K c P ~ =.:.r.",
"z L c K U I V M ! E } v.B.g.i.i.i.g.d.d.f.L.L.Q.U.~.c.r.d.r.r.s.f.d.;.( %.{ ] ] 5.` ] ~  .{ W W P d f x u u r l P L B B Y >.s.:.",
"w K K c d B C ~ ..e...n.g.C.R.H.v.R.L.'.(.OX@X:X#X+XQ.f.%.i.g.d.&.s.~ ] `  . .X.] %.;.6. .` ) ) c d d z u e 9 r d B I I Y :.-.Y ",
"w x L c r 5 e l ` r.g.p.n.n.F.B.R.Q.W.).$X=X-X-X:X$XL.f.v.d.g.d.%.` T W _ ( | %.%.;.y.g.d.&. .U P u z b k i i 9 3 r l P Y K i w ",
"5 5 b z e > & 5 x U ;.~.+XR.i.g.B.~.c.'.{.OX!.E.~.).i.d.f.K.i.6. . .R ! _ X.] &.6.d.6.v.K.S.=.Y K r w c z z e 5 = 3 9 r 7 5 4 4 ",
"% * 2 5 u > % & > 5 i -.1X'.n.p.j.v.R.K./.].S.f.B.f.q.*.0.i.*.[  .( ~ ( o.{ &.6.X.r.f.T.'.].,.L K d 5 5 u 5 3 7 & & > : > < < 4 ",
"O # # * 4 4 % # # & > e f.8XOX5.g.=X*X-X$XXX}.|.K.!.S.B.g.i.O.2.~ ~ E ~ ' %.;.g.;.r.v.'.`.*X<.Y c i k 4 4 > > 4 % # > 3 3 9 7 d ",
"O O O % * 2 & O O O & < W ,X0X&XwX0X0X0XtXiXrX0X8X7X9X1X$X{.{.{.K.s.! W ~ ~ ] %.6.l.K.~.*X=X,.L c e w 4 4 * & & # # < 7 r d f x ",
". . . # % * & # . O $ < %.$X3XiXaXsXpXiXiXaXpXsXsXsXrXiXpXyX<X<X1X7X#XA.-.I F | v.~.L.$X<XY.Y K c w * * & & O O O # & < 9 r r d ",
". . . O # & % # . X # d d.;XqXqXiXpXpXqXeXeXeXeXuXuXeXeXeXeX4X4X5X4X4X4X4X1.Y ,.P.I.I.>X>X1.b v k w * & & # O O # # % * 5 5 w u "
};
