/* XPM */
static char *out[] = {
/* columns rows colors chars-per-pixel */
"64 64 212 2 ",
"   c #2B1608",
".  c #4A2415",
"X  c #5C2C1A",
"o  c #68321E",
"O  c #583F2A",
"+  c #763A24",
"@  c #7E3D26",
"#  c #63432F",
"$  c #6E402D",
"%  c #6A4D37",
"&  c #77523D",
"*  c #7F5D46",
"=  c #814A35",
"-  c #8E4B34",
";  c #96523A",
":  c #865540",
">  c #8C5D46",
",  c #9D5943",
"<  c #955F49",
"1  c #A45E45",
"2  c #89664F",
"3  c #9B644E",
"4  c #916A53",
"5  c #9A6F56",
"6  c #AB644A",
"7  c #A16851",
"8  c #AD6D51",
"9  c #A86D58",
"0  c #B36A51",
"q  c #B76F53",
"w  c #A1765D",
"e  c #A7755C",
"r  c #AE755B",
"t  c #B4715D",
"y  c #B97658",
"u  c #A87B63",
"i  c #AE7D64",
"p  c #B77764",
"a  c #BD7564",
"s  c #B27861",
"d  c #B47F64",
"f  c #BB7E63",
"g  c #C1785B",
"h  c #C87E61",
"j  c #C07B6B",
"k  c #AC836B",
"l  c #BE8466",
"z  c #B3876E",
"x  c #BA876A",
"c  c #BF8B6C",
"v  c #B78C72",
"b  c #BC8E72",
"n  c #C38264",
"m  c #CC8566",
"M  c #C78568",
"N  c #C48A6C",
"B  c #CC8C6D",
"V  c #CC8C6E",
"C  c #D18969",
"Z  c #D48C6E",
"A  c #C98270",
"S  c #C88973",
"D  c #CC8A78",
"F  c #D08B78",
"G  c #D38E7E",
"H  c #C39072",
"J  c #C69677",
"K  c #C89172",
"L  c #CC9475",
"P  c #CA997A",
"I  c #CF9C7E",
"U  c #D19071",
"Y  c #D09072",
"T  c #D29172",
"R  c #D09273",
"E  c #D39273",
"W  c #D49374",
"Q  c #D59475",
"!  c #DA9472",
"~  c #D79778",
"^  c #D1967C",
"/  c #D89778",
"(  c #D59A7B",
")  c #D99878",
"_  c #D9997A",
"`  c #DB9A7A",
"'  c #DA9A7B",
"]  c #DC9B7B",
"[  c #DB9C7D",
"{  c #DA9D7E",
"}  c #DE9D7D",
"|  c #DC9D7E",
" . c #DD9D7E",
".. c #E09E7D",
"X. c #E29F7D",
"o. c #E2A07F",
"O. c #D89380",
"+. c #DD9E80",
"@. c #DE9F80",
"#. c #DF9F80",
"$. c #DD9986",
"%. c #D4A082",
"&. c #DFA081",
"*. c #DCA386",
"=. c #D8A485",
"-. c #D7A88D",
";. c #DCA88A",
":. c #DFAB8E",
">. c #DBAB91",
",. c #DFAF94",
"<. c #E0A081",
"1. c #E2A181",
"2. c #E0A182",
"3. c #E1A283",
"4. c #E3A282",
"5. c #E4A383",
"6. c #E6A483",
"7. c #E5A484",
"8. c #E6A585",
"9. c #E7A685",
"0. c #E7A686",
"q. c #E8A786",
"w. c #E9A887",
"e. c #E0A58A",
"r. c #E3AC8D",
"t. c #E7AD8F",
"y. c #E8A888",
"u. c #E9A888",
"i. c #E9A989",
"p. c #EAA989",
"a. c #EAAA8A",
"s. c #EBAA8A",
"d. c #EBAB8B",
"f. c #EBAC8C",
"g. c #EBAE8F",
"h. c #ECAC8C",
"j. c #ECAD8D",
"k. c #EDAD8D",
"l. c #EDAE8E",
"z. c #ECAE8F",
"x. c #EEAF8F",
"c. c #EDAF90",
"v. c #E4B195",
"b. c #E9B193",
"n. c #EFB090",
"m. c #EEB091",
"M. c #EDB192",
"N. c #EEB192",
"B. c #EFB293",
"V. c #ECB496",
"C. c #E6B599",
"Z. c #EAB79A",
"A. c #EEB899",
"S. c #EEBC9E",
"D. c #F0B293",
"F. c #F0B394",
"G. c #F1B495",
"H. c #F0B496",
"J. c #F1B596",
"K. c #F1B597",
"L. c #F2B596",
"P. c #F2B697",
"I. c #F2B798",
"U. c #F2B799",
"Y. c #F3B799",
"T. c #F2B89A",
"R. c #F3B89A",
"E. c #F3B99A",
"W. c #F3B99B",
"Q. c #F4B99B",
"!. c #F4BA9C",
"~. c #F4BB9C",
"^. c #F4BB9D",
"/. c #F5BB9D",
"(. c #F5BC9D",
"). c #F5BD9E",
"_. c #F5BD9F",
"`. c #F5BE9F",
"'. c #F1BFA1",
"]. c #F5BEA0",
"[. c #F6BFA1",
"{. c #F6C0A1",
"}. c #F6C0A2",
"|. c #F6C1A2",
" X c #F6C1A3",
".X c #F6C2A3",
"XX c #F6C3A4",
"oX c #F7C3A5",
"OX c #F2C4A5",
"+X c #F7C5A6",
"@X c #F7C6A7",
"#X c #F7C7A8",
"$X c #F0CBAD",
"%X c #F4CDAE",
"&X c #F8C8A9",
"*X c #F8C9AA",
"=X c #F8CAAB",
"-X c #F8CBAC",
";X c #F8CCAD",
":X c #F8CDAE",
">X c #F9CEAF",
",X c #F3D1B3",
"<X c #F7D1B2",
"1X c #F0D4B6",
"2X c #F6D4B6",
"3X c #FAD3B4",
"4X c #FAD7B8",
"5X c #F1D8B9",
"6X c #F7D8BA",
"7X c #F5DBBB",
"8X c #F6DDC0",
"9X c #F9E1C3",
/* pixels */
",.N.6.9.) N k k u k J I %.%.:.v.,.,.b.v.,.Z.Z.].Z.].S.].S.].S.Z.b.S.Z.Z.b.Y.L.B.t.g.z.g.i.z.i.z.0.7.2.e.5.3. . .~ ~ ~ ` ) Q W E ",
";.i.x.h.9.R x k u u J I I =.>.v.,.v.v.v.v.Z.Z.A.Z.Z.].].W.^.^.S.}.}.S.T.~.E.~.E.Y.L.B.B.L.j.N.s.u.i.0.0.0.<.} } ] ` ) ] } ] / Y ",
"H } X.9.6.) i k w k b I %.-.=.Z.,.,.v.Z.b.Z.b.A.S.XXW.`.}.XX^.}.}.XXE.T./.~.N.K.K.D.g.N.j.j.f.s.p.h.2.0.0.7.' )  .' Q ..} ] U Z ",
"c C ! Q ! C d w i k b I =.=.-.>.b.Z.Z.S.|.+X].XXoXXX+X#X-X[. X}.XX XS.H.~.H.K.K.E.D.N.w.f.f.9.8.u.8.6.p.0.2.] )  .] )  .#.~ W Z ",
"c Q C Z C C f d i c I >.,.b.b.].`.(.}.+XXX{.|. X].XX+X*X X[.].}.~.}.~.W.B.P.K.E.L.K.N.k.0.d.i.p.0.8.6.k.4.1. .&.( #._ o./ W C Z ",
"b ! C Z Z Z C M ^ r.K.W.!.~.`.|.). XXX}.XX).).S.].].XXXX+X).U.K.W.~.~.K.K.H.B.L.K.B.B.N.x.i.0.d.p.w.h.s.p.<.&.] 3.{ &.&.` Z C C ",
"J ..m C Z ! Z ~ 2.c.s.b.K.~.W.`. XXXE.}.}.XXY.L.W.^.].}.}.|.B.A.E.}.K.~.~.E.E.~.E.~.g.N.N.j.5.u.u.m.8.s.h.7.[ 2.3.2.] +.] Z h m ",
"K ` C Z ` ~ K K P P L P e.N.W.T.[./.~.).XX(./.m.G.J.~.E.}.Y.c.g.N.Y.~.`.XX}.}.}.}.K.c.t.e.{ _ _ +./ ^ ^ _ _ ` _ 3.2.{ }  .C M h ",
"c ..C Z n 7 > : & + + & > d *.t.K.F.K.~.K.~.K.m.d.K.K.E.B.B.h.g.f.B.~.}.}.XX X}.K.b.( c r r 7 7 9 7 7 s l M B Y Y ~ ( o.` Z M h ",
"c ..Z y 1 ; > > = $ o X O $ > 9 c ~ 8.j.G.D.G.j.0.g.K.N.c.s.0.8.0.g.K.~.].~.b.^ d 9 > + $ o X X $ = = > 7 9 r t t f V T ) B h g ",
"b 2.C g f L ^ -.=.P w 2 * : = > 9 l M +.c.N.f.d.i.f.t.f.t.p. .2.4.k.s.L.g.( r > + $ X . . . . X $ = + = : > > , , 3 7 s B B g f ",
"J <. .` 4.0.r.r.K.A.,.=.P l r 9 8 y f V 5.x.h.0.h.0.8.0.0.| ~ ! ` #.&.} Y 9 > + o o X X o $ = 5 d s 7 3 7 7 3 ; ; ; , 3 9 8 t y ",
"K e.8.4.} 8.e.t.e.t.r.e.{ { Y V N M M V ~ 8.h.d.8.0.8.s.8.T M B B Y V M 8 , = + $ $ = > 7 x K e.5.5._ R M N s r 7 3 , , < < , t ",
"c { m.{ &.&.Q M R { t.b.t.2.^ N f f M Q  .4.p.0.8.s.p.i.0.V f f n l n t 1 - = = - < 9 f V _ @.[ &.2.&.+.] _ _ ^ B f s 9 < > > , ",
"J %.f.e.{ W 8 B A.}.S.S.K.N.&.( M q 0 M / 4.3.0.w.h.4.4.8.Q s y f l 8 8 , ; - ; , 1 9 t n M f f f f t f l V L ^ ^ E N f 7 3 - ; ",
"I %.b.f.2.f y t.S.b.*.P P K x f f y 6 q C / 4.k.D.p.4.4.8.) M l f y 8 , , ; - - - - 9 N { &.~ E V l 8 3 ; - , f T R N l f 8 3 , ",
"I =.*.8.) t R ,.K w & O X . . O + ; , 8 f Z ` m.D.h.s.h.8.&.Y M t 8 , ; - - + o = r j j s w 7 9 9 9 r 9 7 < @ = s Y B V N l t t ",
"=.%.=.2.0.N x < X     . #       . . $ = 3 M / h.).).B.B.c.8.T f 8 , ; - = + . + 7 > X . .         . . . X # # O & n ~ ~ B n f n ",
"=.-.I R V s > .   . . O # .     . O o o + 8 ! k.+X>XS.].~.N.V 8 , 1 - = = o X @ $ $ . O .       . .     . . . . . ; 8 8 0 f p n ",
"=.%.I N s ; - r 7 9 r w 5 * % & > 7 < - ; 8 6.g.-X3X>X+X].p.n 1 6 6 ; ; 1 ; - , 9 f d w 4 : & : 5 4 : > < > + + = , , 1 B ] o.4.",
"=.=.%.( Q Q Q t.@.i.f.f.{ { +.( V Y M E ) p.B.W.*X6X3X>XK.&.g 6 1 q q g _ 3.]  . .2.2.0./ V M V Y E M n y g n M M t 1 m C V Z ` ",
"-.=.=.8.m.0.` _ 4.2. .~ E W V Z W W W W Z o.E.}.>X4X3X#XL. .g 6 0 n ` ~ #.6.6./ T Q _ ] / Z m g y y m ! ` ! C q , - f ] 4.] M f ",
">.r.=.e.N.Y.c.h. ./ V V V ! Z Z m n 0 y / ].S.*X3X4X*X].c.` g g n C Z 6.0.g.0.s.&.Z 0 6 8 0 6 0 q y 8 6 1 , = - 0 ` | ) ` 4./ M ",
"p.r.*.2.D.P.~.E.D.#.m y q 0 6 1 1 6 f t.-X*X+X#X3X-XXXA.6.Z m C / ` / 4.k.h.s.z.~.L.0.~ B f t 1 , ; , ; 6 g Z } h.s.6. .Q Q @.2.",
"-.-.*.8.h.Y.~.`.].).H.c.` B M C ~ b.].>X#X-X*X3X;X;X}.m./ C m W ! 8.w.h.h.g.s.D.N.L.K.Y.~./.H.Q.T.N.j.P.B.L.B.B.h.s.p.6.` T Q 6.",
"d.e.r.0.D.Y.}.|.;X+XoX].}.).XX X#X-X*X*X>X;X3X3X>X+X~.8.! C C Z ! ..8.0.p.h.m.D.L.K.Y.L.[.[.|.]. X].~.~.E.Y.L.g.k.s.w.8.8.] E } ",
"m.f.e.r.L.).).+X>X3X.X XXX}.~.#X-X>X}.&X3X3X3X6X-XXXc.6.` W C m m m g g m W ] m.Y.~.L.K.).#X}.[.XX}.E.~.).).k.s.q.q.4.w.p.p.T ] ",
"G.t.e.i.Y.~. X@X3X3X*X X X}.*X*X3X#X}.#X3X6X6X2X-X~.k.w.6...! h g g g q 0 1 0 C f.L.E.~.}.#X-X+X#XXX}.).XXE.D.q.w.6.5.6.p.7. .! ",
"8.0.2.g.K.}.XX>X3X6X>X&X X#X@X>X;X;XXX*X>X4X9X6X+X~.m.D.k.k.o.C g m ! ..Z g ; , q ) c.E.~.}.oX*XXX+XXX+X).Y.D.N.q.s.0.w.6.p.4.} ",
"8.4.2.c.E.~.XX*X>X4X3X>X;X*X#X-X*X*X X}.*X3X9X3X+X~.L.K.L.s...C h Z p.p.6.W 0 - ; 1 M o.D.R.W.`.XX).E.~.Y.D.D.c.g.q.q.w.w.8.5.2.",
"8.8. .h.Y.}._..X*X;X#X-X*X*X~.}.E.g.8.~.-X3X2X3X#X XL.).Y.&.n g m ....o.W m 6 1 1 1 1 f _ s.j.L.).~.N.m.D.n.s.k.D.w.6.w.w.0. ...",
"s.2. .w.Y.J.W.~. X}.).E.E.D.8.` m g 5.).;X6X2X>X;X*X).E.8.g 6 6 6 6 , , , , 1 0 g g q 0 f Z o.8.L.B.s.p.n.x.u.3.h.s.2.1.w.4.#._ ",
"1.2.{ p.h.P.~.E.L.E.c.s...Z g 6 , R A.#X3X9X9X9X2X-X).8.f 1 = + o + o + = , 1 0 q y q g q y M ) &.y.6.y.4.s.5.3.8.w.| 2.2.2. ._ ",
"2. .#.&.k.D.E.L.D.p.4./ m 0 ; - V ].*X>X4X9X9X9X6X#Xt.n , = + + @ + + @ - - - ; , 1 0 y g 0 8 t B / _ ]  . .X.[ 4.&.] ~ [ ( ( ~ ",
"<.5.( 4.d.B.s.D.p.#.C n 6 - - L ].3X>X2X9X9X2X3X#XA.M 1 = + + + + o o + @ = = - = - ; 1 1 1 ; , 9 l V _ | ) Q / Q _ E ~ ( ^ K ~ ",
"{ _ _ o.p.p.w.p...C g 1 ; ; M b.*X>X3X2X3X>X Xb.e.B 6 - = + + o + o + + = = - = @ + = - ; - = = = ; s Q 4.] Q T Q T Y E ) K N T ",
"^ ~ ~ .. .4...o.V g 0 ; - y &.S.XX*X+XXXA.S.Y.t.M 1 ; - - - = = = = = - - ; < = @ = - ; - - + + + + = r T &.` ~ T W Q / ~ L N ^ ",
"~ Q ~ )  . .#.! M y 1 ; , B 5.A.b.e.e.2.5.2.0.&.M 6 6 t B f 1 ; ; ; - - ; ; , ; ; ; ; ; ; ; - = & + + = 7 M ~ Q Q Q / ( [ R l R ",
"Y Y K W ) ` Q Q h 0 , ; f _ +.2.N f l ~ Y M q 8 ; = ; l Q T y q 1 1 ; - ; ; ; , ; , ; , , 1 , 3 > = + + = , l T Q ` Q { &.( l V ",
"N c N W ) ) / V g 6 , , N V ^ l t 8 t n n 0 1 , - , V +.4.` Z h y 6 , ; 1 6 6 1 1 1 1 1 6 6 6 1 3 , = + = - , M Q ] } +.r.( l K ",
"l x l Q / _ ! V t 8 , 1 M N N f 9 8 0 l n g 8 8 8 Y f.L.i.4./ Z g y 0 0 q h n h h g 6 0 q q 6 6 1 3 - = + - ; f Y  .2.r.2.=.N L ",
"l x l E } }  .V t 8 6 1 N K c y 9 8 y n C m l B Q  .o.p.k.8...Z C m m m m m C m m g 0 0 0 6 6 1 1 ; ; = = > , 8 E } } 5.e.{ K K ",
"d x l L &.8.&.Q y t 8 1 N L d r 9 8 8 f n C Z ! ! ! C ! ! ! m n g g 6 0 0 0 6 0 , - - - - - + + + + o - 3 s 8 8 Q 4.} o.4.( c K ",
"x x x K 2.0.i.&.M 8 f f N N 7 < ; - = - 8 t g q g g g g g q 8 1 , ; - - ; ; ; = = + + @ @ + + @ = - ; y Y ) M y _ } _ ] _ L K L ",
"d c c J { g.f.b.) f y R l d 9 , - = - 1 6 0 6 6 6 0 8 8 6 8 8 0 q t t y y q 8 6 6 6 6 6 6 8 8 0 6 8 l 2.4.8.V V ~ 2._ ] L K K L ",
"x c J K { t.g.N.f.V t B L N n d t y g g h m C Z F D G O.) $.O.O.O.G G D j g g g a y g q y q 0 0 g C s.p.<. .m W 4.2. .R K c N N ",
"J ^ J I I t.f.N.B.8.f l { _ B Y E Q h m ! ..~  .O.O.O.$.&.8.O.O.D j f f 9 0 0 8 8 y 0 q q 0 6 g Q m.D.8.&.Q l ] 8.4.L N x c l M ",
"I I I I I 2.g.g.N.c.R s R } V Y Q Q C n Z / V V / T Y F Y A N f r 7 7 < 3 3 3 3 7 9 8 0 0 0 y C f.L.b.&.o.M n } 2.^ l f l c N N ",
"J %.{ { =.*.M.g.g.N.r.K d &.` Q Y ! Z M y y 8 9 8 9 r 8 7 9 7 9 3 4 > < > > < 4 3 7 9 8 8 y M r.g.N.e.5._ n B } ^ K d d d c N Y ",
"I =.*.%.=.{ r.g.t.f.f.~ r L 5. .) Q Q n f t 8 1 7 9 r r r r r 9 7 3 < > > < 3 3 7 7 9 8 y M &.m.D.t.5.0.E n ` ) Y l r s x c ^ _ ",
"%.:.%.=.=.=.I { ^ e.2.+.f l &.8.#._ m n f f t 8 t f y l l l r r 7 7 > > < 7 3 9 r s 8 f M &.f.B.N.m.0.0.M Y ) / M s 9 d d K ^ R ",
"%.;.=.=.=.%.K s d =.( ^ K f ) 0.4.` Z g g g y n ~ Y V V V l f r r 9 3 7 9 s l N V B M V  .g.g.g.N.c.i.E M Q Y B l s r d J I J c ",
"I ;.=.;.=.I i 5 4 i d c T M ! s.8...U h y g M  .f.f.8.8.2./ V M f d f N V ~ _ @.&.&._ ] 8.m.t.m.f.c.2.M M Q V l d x x K J I J ^ ",
"K =.;.=.=.b w 2 * 2 5 c +.] o.8.6.4./ C M M 2.k.D.i.4.4.8.8.0.4.+.+.r.t.r.r.t.r.r.2.{ 2.t.f.j.f.b.b.( V Y Y l d K P N K K I %.^ ",
"b %.I %.I b w * * 2 2 9 ^ m.f.k.s.k.] `  .4.f.B.N.V.4.5.0.m.0.t.r.b.r.t.b.B.e.3. .2.2.w.y.a.e.t.f.b.~ E Q N 9 s d K c c K I { e.",
"z P I I I x 2 % * * * 2 c A.S.~.i.q.q...4.k.B.B.~.I.m.f.B.N.c.t.K.S.].A.A.b.i.+.3.1.2.1.t.5.5.e.N.e.{ ( L x 9 7 r K N c K L *.r.",
"w H P I J x * % % & * 4 i t.].*Xk.8.0.s.4.k.L.].`.|.K.E.A.E.S.].[.+XXXA.+.0.0.0.{ _ _ 4.2.8.t.b.f.e.{ I d x w r 9 N K K K ( %.*.",
"w z J I b u & % % & * < s =.#X-XS.8.4.8.w.g.K.K.[.W.).`.}.].}.].B.A.b.r.r.i.0.#._ ~ _ _ 0.f.B.K.N.e.^ K x k u e 7 7 f K L I c i ",
"5 w b b x w % # % % % * 5 =.@X>XS.d.2.o.k.^.F.I.H.L.N.g.N.l.f.i.t.p.0.i.8.0.]  .`  .) +.f.L.W.~.m.*.c w b x u u > : 7 r d e 4 4 ",
"% * 2 5 k 4 % O # % % * 3 ^ >X;X~.1.2.W.+XXXW.J.W.Y.D.g.n.g.0.} @.4.] Q  .] _ / { <.&.] m.D.[.E.t.K x 5 w 7 3 7 > $ = > > < < 4 ",
"O O # * 4 4 * O # # % > > { >X3X=.r.].=X@X>X*X@X].}.^.~.P.J.d.x.5.6./ T Y _ ( ]  .0.q.8.B.~.^.S.I c k i 2 2 : 4 & # * 3 3 9 5 i ",
"O O O % * 2 * O O O % : r N.*X>X2X3X3X3X3X6X9X8X<X:X3X>X&X X`.~.W.G.2.R L Q ) +.3.5.F.m.].{.S.I H d w w 2 * & & # # > 7 r d f x ",
". . . # % * & # . O $ < +.].*X6X8X9X7X6X6X8X7X9X9X9X2X6X7X4X@X@X@X-X'.v.%.L S [ g.K.V.].@XS.I H x w : * & & O O O # & < 9 r r d ",
". . . O # & % # . X # d r.XX>X,X6X7X7X,X1X1X1X1X5X5X1X1X1X1X$X$X%X$X$X$X$X,.I ;.C.Z.S.S.OX,.b v x w * & & # O O # # % * 5 5 w u "
};
