/* XPM */
static char *out[] = {
/* columns rows colors chars-per-pixel */
"64 64 212 2 ",
"   c #2B1608",
".  c #4A2415",
"X  c #5C2C1A",
"o  c #68321E",
"O  c #583F2A",
"+  c #763A24",
"@  c #7E3D26",
"#  c #63432F",
"$  c #6E402D",
"%  c #6A4D37",
"&  c #77523D",
"*  c #7F5D46",
"=  c #814A35",
"-  c #8E4B34",
";  c #96523A",
":  c #865540",
">  c #8C5D46",
",  c #9D5943",
"<  c #955F49",
"1  c #A45E45",
"2  c #89664F",
"3  c #9B644E",
"4  c #916A53",
"5  c #9A6F56",
"6  c #AB644A",
"7  c #A16851",
"8  c #AD6D51",
"9  c #A86D58",
"0  c #B36A51",
"q  c #B76F53",
"w  c #A1765D",
"e  c #A7755C",
"r  c #AE755B",
"t  c #B4715D",
"y  c #B97658",
"u  c #A87B63",
"i  c #AE7D64",
"p  c #B77764",
"a  c #BD7564",
"s  c #B27861",
"d  c #B47F64",
"f  c #BB7E63",
"g  c #C1785B",
"h  c #C87E61",
"j  c #C07B6B",
"k  c #AC836B",
"l  c #BE8466",
"z  c #B3876E",
"x  c #BA876A",
"c  c #BF8B6C",
"v  c #B78C72",
"b  c #BC8E72",
"n  c #C38264",
"m  c #CC8566",
"M  c #C78568",
"N  c #C48A6C",
"B  c #CC8C6D",
"V  c #CC8C6E",
"C  c #D18969",
"Z  c #D48C6E",
"A  c #D88F6F",
"S  c #C88973",
"D  c #C39072",
"F  c #C69677",
"G  c #C89172",
"H  c #CC9475",
"J  c #CA997A",
"K  c #CF9C7E",
"L  c #D19071",
"P  c #D09072",
"I  c #D29172",
"U  c #D09273",
"Y  c #D39273",
"T  c #D49374",
"R  c #D59475",
"E  c #DA9472",
"W  c #DD9876",
"Q  c #D79778",
"!  c #D1967C",
"~  c #D89778",
"^  c #D59A7B",
"/  c #D99878",
"(  c #D9997A",
")  c #DB9A7A",
"_  c #DA9A7B",
"`  c #DC9B7B",
"'  c #DB9C7D",
"]  c #DA9D7E",
"[  c #DE9D7D",
"{  c #DC9D7E",
"}  c #DD9D7E",
"|  c #E09E7D",
" . c #E29F7D",
".. c #E2A07F",
"X. c #D89380",
"o. c #DD9E80",
"O. c #DE9F80",
"+. c #DF9F80",
"@. c #D4A082",
"#. c #DFA081",
"$. c #DCA386",
"%. c #D8A485",
"&. c #DCA88A",
"*. c #DFAB8E",
"=. c #DBAB91",
"-. c #DFAF94",
";. c #E0A081",
":. c #E2A181",
">. c #E3A181",
",. c #E0A182",
"<. c #E1A283",
"1. c #E3A282",
"2. c #E4A281",
"3. c #E5A382",
"4. c #E4A383",
"5. c #E6A483",
"6. c #E5A484",
"7. c #E6A584",
"8. c #E6A585",
"9. c #E7A685",
"0. c #E7A686",
"q. c #E8A786",
"w. c #E8A787",
"e. c #E9A887",
"r. c #E0A58A",
"t. c #E3AC8D",
"y. c #E7AD8F",
"u. c #E8A888",
"i. c #E9A888",
"p. c #EAA989",
"a. c #EAAA8A",
"s. c #EBAA8A",
"d. c #EBAB8B",
"f. c #EBAC8C",
"g. c #EBAE8F",
"h. c #ECAC8C",
"j. c #ECAD8D",
"k. c #EDAD8D",
"l. c #EDAE8E",
"z. c #ECAE8F",
"x. c #EDAF90",
"c. c #E4B195",
"v. c #E9B193",
"b. c #EFB090",
"n. c #EEB192",
"m. c #EFB192",
"M. c #EFB293",
"N. c #ECB496",
"B. c #E6B599",
"V. c #EAB79A",
"C. c #EEB899",
"Z. c #EEBC9E",
"A. c #F0B293",
"S. c #F0B394",
"D. c #F1B495",
"F. c #F0B496",
"G. c #F1B596",
"H. c #F1B597",
"J. c #F2B697",
"K. c #F2B698",
"L. c #F2B798",
"P. c #F2B799",
"I. c #F3B799",
"U. c #F3B899",
"Y. c #F2B89A",
"T. c #F3B89A",
"R. c #F3B99A",
"E. c #F3B99B",
"W. c #F4B99B",
"Q. c #F4BA9B",
"!. c #F4BA9C",
"~. c #F4BB9D",
"^. c #F5BB9D",
"/. c #F5BC9D",
"(. c #F5BC9E",
"). c #F5BD9E",
"_. c #F5BD9F",
"`. c #F1BFA1",
"'. c #F5BEA0",
"]. c #F6BEA0",
"[. c #F6BFA1",
"{. c #F6C0A1",
"}. c #F6C0A2",
"|. c #F6C1A2",
" X c #F7C2A3",
".X c #F6C3A4",
"XX c #F7C3A5",
"oX c #F2C4A5",
"OX c #F7C4A5",
"+X c #F7C5A6",
"@X c #F7C6A7",
"#X c #F0CBAD",
"$X c #F4CDAE",
"%X c #F8C8A9",
"&X c #F8C9AA",
"*X c #F8CAAB",
"=X c #F8CBAC",
"-X c #F8CCAD",
";X c #F8CDAE",
":X c #F9CEAF",
">X c #F3D1B3",
",X c #F7D1B2",
"<X c #F0D4B6",
"1X c #F6D4B6",
"2X c #FAD3B4",
"3X c #FAD7B8",
"4X c #F1D8B9",
"5X c #F7D8BA",
"6X c #F5DBBB",
"7X c #FADDBE",
"8X c #F6DDC0",
"9X c #F9E1C3",
/* pixels */
"-.M.8.i.) G d k i b J @.%.-.-.-.-.-.-.-.-.c.V.V.c.V.V.Z.B.V.N.v.c.c.v.t.*.y.y.y.u.r.$.$.<.r.#.<.^ } ] ` _ ` Y ~ L Q P ~ L R T I ",
"%.a.k.h.9.R D b D J @.@.=.-.c.-.c.-.-.-.-.c.V.V.B.c.V.V.V.V.c.c.c.t.*.*.t.y.y.y.t.r.r.$.<.,.<.,.O._ ` ) } [ ..| R P L P R I Y I ",
"D 2...5.+.^ N J G @.J &.-.c.-.-.-.c.-.c.c.V.-.c.B.V.-.N.V.V.-.c.v.v.$.t.y.g.r.y.8.y.#.4.8.s.:.r.<.<.( [  .2.' ) ) Q C Z P I C Z ",
"l `  .[ ! D x D F K K &.c.c.-.-.-.-.-.-.-.c.-.-.c.c.-.c.C.c.-.t.v.y.8.8.y.y.r.8.l.y.r.8.a.k.q.u.8.O.' _ :.[ _ ) { Q C L Z C C C ",
"x | W ' H F D F D @.&.=.-.-.-.-.-.-.c.-.-.-.-.c.c.c.c.c.-.c.y.c.y.v.y.g.y.g.a.S.l.n.z.z.i.a.q.q...} ) ` ( { _ { R Z I Y m C m C ",
"x [ +.~ ! F F F K %.&.-.-.-.c.-.-.-.c.-.c.c.-.c.N.c.c.c.N.c.c.v.K.H.H.I.Y.M.M.z.z.d.h.p.i.w.w.7.| ` ' ) { ( ' [ ' L I C m m C C ",
"l 1.) [ ~ K J K &.-.&.c.-.c.-.-.-.c.-.-.c.N.-.c.V._.V.R.'.|.F.R.T.Q.n.F.M.F.u.a.j.j.4.u.6.q...[ ..' R { ' +.~ ..R C h m m C h h ",
"N :.[ ( { $.r.-.c.c.y.c.N.N.c.c.N.N.N.N.W.!.E.).|.[.Y.E.Q.!.K.F.Q.J.F.F.M.x.w.w.l.s.:.>.8.q.q.` :.' ~ Q #.o.o.Q R m h h m h h h ",
"U <.:.8.4.m.M.T.K.W.K.Q.R.|.R.E.T.R.H.Q.R.|.!.'.R.L.F.).R.W.K.W.M.H.G.G.n.z.u.a.u.p.1.8.8.a.s.:.{ { Q O.[ #.[ } Z C m h g n g g ",
"] 4.8.w.l.m.G.H.F.H.W.J.^.^.[.^.K.H.F.b.R.W.'.R.R.F.K.H.!.I.H.M.G.G.G.F.K.m.l.p.u.8.8.8.s.s.s.6.[ ' ~ ` #.+.+.Q C m n g g g f g ",
"$.=.8.l.b.D.l.G.G.T.m.R.R.'.R.W.I.G.h.z.H._.R.^.M.m.h.K.T.).m.G.W._.M.K.R.G.h.a.8.8.:.p.l.l.:.<.[ ~ T ` { O.Q ^ L M g g f g y f ",
"K J G c D G ! 8.P.H.H.H.~.R.P.I.J.S.j.g.R.W.K.F.m.l.s.m.'.T._.W.XXXXR.G.!.n.8.o.+.+.o.Q Q Y Y P R R Q Q ` _ R R P M f y f g g f ",
"< < : = $ & * 5 b K $.g.g.K.H.K.m.z.s.v.D.P.M.z.u.s.s.m.G.|._. X|.|.Q.R.r.^ N f r r r r 9 r f n n M n V U R Y R B n a g y y y g ",
"7 5 > $ # X X o = 3 s G #.a.l.l.m.s.i.s.m.n.z.u.0.:.p.h.K.Q.).T.K.&.K l e : + $ o o $ = : : 3 7 9 7 3 1 t f n M M f y q 0 0 q q ",
"$.8.&.@.x 5 : = : > < y M Q <.h.z.h.6.p.p.p.<.8.#.:.| 8.z.I.z.#.V 7 = $ X X . . . X X $ $ = = > > < > < 3 3 3 3 9 9 1 8 8 8 6 8 ",
"<.8.8.y.y.&.! S n f 8 t f B ( 0.l.p.0.8.8.8.:.` ~ Q R ) <.<.Y y 3 = $ O X X X X $ : 3 7 3 3 < 3 3 < : > < 3 < < < < : ; 1 1 6 1 ",
"| ` Q #.] $.#.Q V V l n n B T 6.8.i.5.p.9.u.8.) M m M V V B f 1 = + $ $ $ = < e M ! ] $.H H S N d d 8 9 9 9 3 < > > - ; , 6 8 8 ",
"M 0 S $.c.N.m.s.` V y t l L ( { w.8...:.8.p.w.R f f f f n y 6 ; - @ = - , 8 l V _ { o.{ #.{ { Q R R V n n y 7 3 < < < 1 0 8 8 6 ",
"8 G y.c.V.c.$.r.^ ! g t 8 f P ` 6.8.4.:.u.i.:.Q l p t p y t 1 ; - ; - , 9 f l M V M l g n M l S L Y S B V M y t 9 7 1 8 r y 8 y ",
"8 ^ &.J e > = $ = > 3 6 8 q f B +.0.w.:.0.w.+.Y V l f y t 1 ; - ; - = @ ; 8 M P V S l f y 6 ; - 1 t M M V M n n f f f g M g a g ",
"t c 3 #     .       . $ - 1 t M Y 0.l.h.6.p..._ V M f t 1 , - = @ o + < f H ! ^ R ! P S j y 3 > + = 9 V U ! P S g n n n y g g n ",
"; + . . . . O       . X o o - f L :.Q.R.m.l.u.[ Y l t 1 < - = + X X : 3 = o # O O $ = : : : : = $ o = f R V f y f n B B M h M n ",
"; 9 < > 3 5 * # O X O : = $ $ , | 8.).%X|.).z.p.R t , , , - + $ X $ o $ X                         X X > 8 8 t P ` :.O.:.Y f 6 0 ",
"R ( 8.8.8.r.! N D N j d d 8 t f h.m.'.:X:X+XR.u.V 1 , 1 , - ; - = - , 8 i 4 & O O # # # # # $ $ o o = , , 6 p M R ` [ ( l t 8 8 ",
":./ ..p.+.#.{ { Y Y Z Z Z R R :.l.I.%X5X2X=XK.:.f 6 1 q 8 t R } _ _ Q ~ } ,.! S y f N n t r 8 8 q n n 6 1 Y ` ( M f g t t f f p ",
"K.l.../ R Z C C C Z m C C g g ..R.'.=X5X5X%XK.` g 1 6 g R ( ` 3.q.Q P Q +.+.o.R m m n n h m Z Z m q ; ; B [ :.<.:.M l n L f t r ",
"U.{.h.) m n y f g a 6 6 6 M t.XXXX=X@X,X:XXXa.( n y q h Q 0.:.0.d.s.R M f a t y q y 0 y n n y 8 - - 1 I 6.:.( ` ..+.Q #.[ M t y ",
").'.[.).R.6.B g t 8 t n 8.@X%X%X-X:X:X=X%XR.6.Z m m C T / 3.q.q.m.m.b.s.#.M r 6 6 1 ; - - - - ; y R 6.s.u.i.Q P Q [ :.:.6.M f l ",
"I.OX=X:X|.|.).R.^.[.'.%X&X%X@X-X-X,X,X;X).z.R C m R ` 3.3.w.p.s.s.b.K.Q.A.W.R.^.m.g.<.#._ 8.w.l.l.m.h.p.5.8...) P [ :.6.O.V f n ",
"[..X;X:X;X+X'._.|.%X=X;X:X@X;X:X,X2X:X+XQ.3.Y m C Y ` 3.w.p.0.s.b.b.D.Q.R.W.).^.[.[.+X).R.I.I.b.l.j.p.u.s.4.:.../ R ..+.O.B M M ",
"'.=X%X2X;X=XQ.'.%X:X%X;X%X=X;X,X5X5X%X|.m.3.C m B C m C C Z C ` s.G.z.I.!.).R.XXXX%X|.'.XX|.D.D.b.l.3.i.p.a.:...1.[ ( +.O.~ M V ",
"_.%X=X,X,X=X|.|.=X=X;X%X&X=X=X5X7X5XXXG.G.w.` Z C h y a h 0 1 6 n [ b.I.).!.W.XX%X@XXXXX%X|.!.D.b.h.:.e.h.p.q.+.5...Q Q Q V V B ",
"K.'..X:X2X:X;X;X+X=X%X*X|.=X=X5X9X2X|.I.z.D.p.0.Y h y h Z Z g 6 ; 6 M 6.z.).).%XXX%X|.|._.W.I.I.j.l.p.p.9.p.8.<.+.;.~ R U V V U ",
"K.T.'.|.=X@X%X+X%X|.E.G.G.).=X5X5X;X).K.H.D.D.h.[ h g Z 3.3.` h ; = ; q P 6.M.P.R.R.T.!.W.I.G.h.h.p.w.w.p.u.9.4...' ) Y R V I V ",
"G.T.D.Q.).T.D.D.l.3.C m <.XX@X7X3X;X).!.R.'.m.| L m h [ w.w.R h 6 ; ; , 6 M R u.b.D.h.z.D.b.h.5.w.s.:.w.p.p.) +.O.) U Q R R V V ",
"m.G.K.D.D.h.( Z m 0 1 h R.%X:X5X5X:X+X'..X).:.n y q a h h g 0 6 6 0 q 0 0 0 a V ..0.w.s.s.p.4.:.4.8.8.6.w.#.' _ ' ! H U R U T B ",
"p.m.h.a.| / n q - - f R.@X;X2X9X9X9X:X=X).8.f 6 - - = @ @ = - , 1 0 q y y y 0 q f Y ` 3.+.:.[ ..[ :.:.<._ ( Q Q U V ! R Q ^ Y I ",
"3.w.q.| I g 6 - - f N.@X:X:X9X9X9X7X5X%X8.f ; @ $ + + + + @ - - ; , 1 6 0 y q 6 1 t M L ( Y Q P / Q ` ( R L Y P G c H ! o.R Y Y ",
"| 3.` Z g 0 - - l N.E.=X5X7X5X7X2X:X'.v.M 1 @ + @ + $ $ + @ + = - - @ - 1 1 ; ; ; ; , p U ( P Q R R B Y I I B I N N U ( ] Q C L ",
"[ ` ~ h y ; - 8 o.E.+X%X:X:X%X+X|.F.#.M 6 - @ + + $ $ $ @ = = = - @ + + - - - - = = + : r V _ R ( Y V V Y R I R M x U U R ! C m ",
"T / C a 6 , 1 S #.E.N.v.v.K.l.G.z.#.f 1 - - = = @ @ @ @ = - - ; : @ @ = = - - - + + + $ $ < l R R U P I L R R ' M f V U U L C L ",
"R ~ m q 6 ; t P { #.n f Y { { Q Q P y ; , 8 f q , ; ; - - - - , , = : - - ; ; : : = = = $ + > 8 S L C L R ~ { ] S d G G ! U L C ",
"P O.h y 6 1 y G H N 1 8 f P n y 8 1 @ @ 6 M P m a 8 ; ; - - - ; ; < - ; ; , , 1 7 7 ; : = + $ - 1 M B Y R :.$.$.G l c D ! ^ B C ",
"G { P 0 8 1 t N B y 7 7 t f f 8 8 ; - r [ [ / Z m y 1 , , ; 1 6 6 1 , , 1 1 6 6 6 6 1 ; : + + + = 8 B R } :.O.,.! D c c H ! V B ",
"l +.| f 8 t 0 N f r 9 9 9 f l g t f N ) h.s.../ C h y y 8 0 y h g n y a 8 0 6 q 6 6 1 6 : : + : ; 1 M ) ~ <.<.+.U D c K F G M S ",
"x ] y.Q y t N f 9 < < 3 1 t n h C R R A ` 3.3.W R C m h n h g a n g a 6 6 1 6 , ; ; - - = = > 7 y 1 M [ [ ] ' ! G N c D K F N M ",
"F $.a.a.V 8 N l 9 < @ + + ; 1 y n m g m C Z m m h a 8 1 , , ; , ; ; = = - - @ @ @ @ @ = - 6 f B Q y M ` [ ..L U V N l D G F l N ",
"J K r.y.+.t f G N r 9 1 1 6 6 1 6 6 1 1 6 6 1 , ; ; - - - - ; ; ; - - - ; ; ; , 6 6 1 6 y R | ..:.f V R :.| L N c x x c c G N M ",
"H %.^ y.8.L r H P B M P m m m C C m g j p t t f f j p j j j p j q a 0 t a a a a 0 q q n ) b.8.:.Z n ! :.[ ~ N l s z x c N U G P ",
"J %.%.$.8.:.N f R V V L ( m R Q / L P Y X.X.X.X.X.V j f n p r t t 0 0 a a y 0 0 6 y M :.G.S.:.] B M [ [ _ S f s r f d x ! G U ^ ",
"@.&.@.@.$.a.! l G R U Q / Z h l f y f n M S j n N f 9 r e 9 3 7 3 3 3 8 r t 0 8 0 M Q D.M.z.( Q f B Q ~ T N r r s s d D H ] U H ",
"@.%.%.%.%.$.] G n R } / [ Z n t t 8 8 8 y f y f s e 3 3 3 < < > 3 3 7 7 r r 8 t n Q a.z.l.r.4.L f B R L S p r r s d l D K @.G N ",
"J %.$.%.@.K D x D U [ 4.E Z n y t y q f f N M M f p 9 9 3 < > < < 7 7 r 8 y q M R v.b.g.8.u.t.B n R R T l r s D x l G U U ! ! ] ",
"F %.&.%.%.D u 5 x ! :.` R E n y f y n Q [ Q R Y n l t e 7 3 3 3 9 p f n M M N R 8.m.g.y.y.y.r.M B R R n r e x c J D N G H H ] $.",
"b @.@.@.K b 5 4 3 i { 8.` ..m g f m R h.s.4.' ` ! ' V S N D l G R o.' o.{ ] U Q y.x.<.9.p.f.! V Q ( V d r r 3 r G F f c G K ^ r.",
"z J K K K v 4 & & 4 D y.h...E Z P ` s.b.b.u.` ] #.4.4.$.%.%.$.$.t.a.u.#.+.^ _ :.u.r.<.r.y.y.{ T ' ] N s c e 7 9 l ! H N G H ] $.",
"w D J @.J z > % & & 3 K n.m.:.9.3.3.u.M.z.M.z.l.:.u.w.y.z.v.V.W.N.v.t.#.~ } +.<.+.#.o.4.8.g.r.#.] ] c d d k w e r l N H G K @.K ",
"w x F K D u * % & % * i y.'.M.w.s.u.l.G.Q.Q.!.K.Q.R./.K.E.'.'.Z.c.Q <.8.8.O.' ~ ~ | +.4.z.F.y.r.] U d x d i u i 3 7 r c J J z e ",
"5 5 v b z e % # % & & 3 G .X'.j.p.a.:.d.R.W.M.R.!.G.y.M.Y.Y.t.g.y.8.#.4.4.` P ( ' 4.{ y.F.W.v.t.@.J 5 d b z u u > : 3 9 r 5 4 4 ",
"% & 2 4 k 5 & O # # & > i V.*XR.s.<.4.b.!.T.D.D.D.n.u.8.y.r.4...8.+.( Q { _ ) ' u.( <.y.!.(.K.r.@.c e 3 u w 4 7 : # = > > < < 4 ",
"O O # * 4 4 * O O # & : 7 v.:XE.$.N.|.%X%X+X'.|.Q.!.G.G.z.a.8.8.) Q Y I R ( ` 0.8.#.u.G.U.}.P.@.F i v 5 4 * * 4 & O : 3 3 9 5 d ",
"O O O % * 2 * O O O % = f H.:X,X1X5X1X,X2X5X5X5X;X:X:X%X+X'.].R.P.y.^ U U R Q O.#.a.M.H.|.|.N.F D e e 5 4 : & & # # < 7 r d f x ",
". . . # % * & # . O $ < o.'.&X5X8X9X6X5X5X8X6X9X9X9X1X5X6X3X+X+X@X=X`.v.@.H S ' g.H.N.'.+X`.K D c w * * & & O O O # & < 9 r r s ",
". . . O # & % # . X # d t..X>X>X5X6X6X>X<X<X<X<X4X4X<X<X<X<X#X#X$X#X#X#X#X-.K &.B.V.V.oXoX-.b v k w * & & # O O # # % * 5 3 w u "
};
