/* XPM */
static char *out[] = {
/* columns rows colors chars-per-pixel */
"64 64 214 2 ",
"   c #2B1608",
".  c #4A2415",
"X  c #5C2C1A",
"o  c #68321E",
"O  c #583F2A",
"+  c #763A24",
"@  c #7E3D26",
"#  c #63432F",
"$  c #6E402D",
"%  c #6A4D37",
"&  c #77523D",
"*  c #7F5D46",
"=  c #814A35",
"-  c #8E4B34",
";  c #96523A",
":  c #865540",
">  c #8C5D46",
",  c #9D5943",
"<  c #955F49",
"1  c #A45E45",
"2  c #89664F",
"3  c #9B644E",
"4  c #916A53",
"5  c #9A6F56",
"6  c #AB644A",
"7  c #A16851",
"8  c #AD6D51",
"9  c #A86D58",
"0  c #B36A51",
"q  c #B76F53",
"w  c #A1765D",
"e  c #A7755C",
"r  c #AE755B",
"t  c #B4715D",
"y  c #B97658",
"u  c #A87B63",
"i  c #AE7D64",
"p  c #B77764",
"a  c #BD7564",
"s  c #B27861",
"d  c #B47F64",
"f  c #BB7E63",
"g  c #C1785B",
"h  c #C87E61",
"j  c #AC836B",
"k  c #BE8466",
"l  c #B3876E",
"z  c #BA876A",
"x  c #BF8B6C",
"c  c #B78C72",
"v  c #BC8E72",
"b  c #C38264",
"n  c #CC8566",
"m  c #C78568",
"M  c #C4816F",
"N  c #C48A6C",
"B  c #CC8C6D",
"V  c #CC8C6E",
"C  c #D18969",
"Z  c #D48C6E",
"A  c #C88973",
"S  c #CC8A78",
"D  c #D08B78",
"F  c #C39072",
"G  c #C69677",
"H  c #C89172",
"J  c #CC9475",
"K  c #CA997A",
"L  c #CF9C7E",
"P  c #D19071",
"I  c #D09072",
"U  c #D29172",
"Y  c #D09273",
"T  c #D39273",
"R  c #D49374",
"E  c #D59475",
"W  c #DA9472",
"Q  c #DD9876",
"!  c #D79778",
"~  c #D1967C",
"^  c #D89778",
"/  c #D59A7B",
"(  c #D99878",
")  c #D9997A",
"_  c #DB9A7A",
"`  c #DA9A7B",
"'  c #DC9B7B",
"]  c #DB9C7D",
"[  c #DA9D7E",
"{  c #DE9D7D",
"}  c #DC9D7E",
"|  c #E09E7D",
" . c #E29F7D",
".. c #E2A07F",
"X. c #D89380",
"o. c #DD9E80",
"O. c #DE9F80",
"+. c #DF9F80",
"@. c #DD9986",
"#. c #D99E87",
"$. c #D4A082",
"%. c #DFA081",
"&. c #DCA386",
"*. c #D8A485",
"=. c #DCA88A",
"-. c #DFAB8E",
";. c #DFAF94",
":. c #E0A081",
">. c #E2A181",
",. c #E3A181",
"<. c #E0A182",
"1. c #E1A283",
"2. c #E3A282",
"3. c #E4A281",
"4. c #E4A383",
"5. c #E5A383",
"6. c #E6A483",
"7. c #E5A484",
"8. c #E6A584",
"9. c #E6A585",
"0. c #E7A685",
"q. c #E7A686",
"w. c #E8A786",
"e. c #E8A787",
"r. c #E9A887",
"t. c #E0A58A",
"y. c #E3AC8D",
"u. c #E7AD8F",
"i. c #E8A888",
"p. c #E9A888",
"a. c #E9A989",
"s. c #EAA989",
"d. c #EAAA8A",
"f. c #EBAB8B",
"g. c #EBAC8C",
"h. c #EBAE8F",
"j. c #ECAC8C",
"k. c #EDAD8D",
"l. c #EDAE8E",
"z. c #ECAE8F",
"x. c #EDAE8F",
"c. c #EDAF90",
"v. c #EEAF90",
"b. c #E4B195",
"n. c #E9B193",
"m. c #EEB090",
"M. c #EDB192",
"N. c #EFB192",
"B. c #EFB293",
"V. c #ECB496",
"C. c #E6B599",
"Z. c #EAB79A",
"A. c #EEB899",
"S. c #EEBC9E",
"D. c #F0B293",
"F. c #F0B394",
"G. c #F0B495",
"H. c #F1B495",
"J. c #F0B496",
"K. c #F1B597",
"L. c #F2B596",
"P. c #F2B697",
"I. c #F2B698",
"U. c #F2B798",
"Y. c #F3B799",
"T. c #F3B899",
"R. c #F2B89A",
"E. c #F4B99B",
"W. c #F4BA9B",
"Q. c #F4BA9C",
"!. c #F4BB9C",
"~. c #F4BB9D",
"^. c #F5BB9D",
"/. c #F5BC9D",
"(. c #F5BC9E",
"). c #F5BD9E",
"_. c #F1BFA1",
"`. c #F5BEA0",
"'. c #F6BEA0",
"]. c #F6BFA0",
"[. c #F6BFA1",
"{. c #F6C0A1",
"}. c #F6C0A2",
"|. c #F6C1A2",
" X c #F6C2A3",
".X c #F7C2A3",
"XX c #F6C3A4",
"oX c #F7C3A5",
"OX c #F2C4A5",
"+X c #F7C4A5",
"@X c #F7C5A6",
"#X c #F7C6A7",
"$X c #F7C8A9",
"%X c #F0CBAD",
"&X c #F4CDAE",
"*X c #F8C8A9",
"=X c #F8C9AA",
"-X c #F8CAAB",
";X c #F8CBAC",
":X c #F8CCAD",
">X c #F8CDAE",
",X c #F9CEAF",
"<X c #F3D1B3",
"1X c #F7D1B2",
"2X c #F0D4B6",
"3X c #F6D4B6",
"4X c #FAD3B4",
"5X c #FAD7B8",
"6X c #F1D8B9",
"7X c #F7D8BA",
"8X c #F5DBBB",
"9X c #FADDBE",
"0X c #F6DDC0",
"qX c #F9E1C3",
/* pixels */
";.B.s.p._ H d j w j F J $.$.;.;.;.C.;.b.;.b.b.C.;.C.Z.S.C.Z.Z.n.b.n.n.y.-.n.u.n.i.u.&.y.9.d.9.i.1.2.' 2.%.' _ ] E ! ! ^ U ^ R U ",
"-.d.k.j.0.E k j j c G G $.=.b.b.b.;.;.b.;.b.b.b.C.C.Z.Z.Z.Z.C.b.b.y.-.-.y.n.u.u.y.i.t.&.u.w.i.i.i.4.+.+.2.2...| _ _ _ ^ E U U U ",
"F 3.w.6.5.' z l c F c J *.-.b.b.b.b.;.b.n.Z.;.b.C.Z.b.b.Z.Z.;.b.n.n.&.y.n.A.u.n.z.z.d.j.v.N.s.d.i.w.) >. .3.' _ _ _ P ^ ^ ^ C Z ",
"F '  .{ Q F z j c F F $.-.b.V.C.Z.C.;.b.Z.C.;.C.A.Z.A.V.A.C.J.V.A.V.A.P.W.Y.J.L.T.D.u.d.m.k.w.i.d.w. .) { { _ _ } { U C Z P C n ",
"z |  .3.) Y J G F $.*.b.y.V.A.Z.C.Z.b.R.C.A.V.E.R.`.Q.`.).{.^.].Y.Q.J.I.F.I.n.F.u.f.i.z.p.d.w.w.w.w._ } ) } ` } ` +.^ U n C n Z ",
"k ' +.| ) _ O.y.n.R.V.P.F.P.E.^.`.).).).`.^.`.}.oXoX`.^.(.[.`.).~.J.E.Y.R.B.D.v.v.f.j.s.p.2.4.8.d...' ) } ) _ { %._ ^ U n n n C ",
"B 2. .4...j.s.N.J.W.J.^.`..XW.oXoX+X).Q.E.W.A.`.[.#XZ.E.~.|.J.^.E.W.m.J.E.^.v.d.i.d.i.i.7.w...w.f.6.o.} ' +.^ ..1.+.C Z C C h h ",
"U ,.,.,.s.v.v.v.Y.E.^.Y.}.[.`.).|.}.~.P.E.P.Y.).|.[.R.P.E.Q.E.J.W.P.J.J.^.Y.B.u.z.d.w.,.w.w.w.w.d.9.O.o.%.o.o.} 1.) C C n h h h ",
"R 1.2.9.4.j.s.v.v.J.Y.).).|.`.|.E.(.E.I.N.E.^.`.^.U.J.J.F.E.J.E.D.P.).|.E.^.P.P.i.s.2.9.9.d.d.d.0.9.+.+.) %.+.2.} ! C Z h h g b ",
"[ E H F x z x F ~ y.D.P.^.^.[.^.^.P.J.h.D.D.E.^.Y.J.m.d.s.Y.^.^.).(.[.}.`.R.Y.z.p.%.' O.t.%.' / _ ! ! ! %.+.+.' } ) U n h g g g ",
"b 9 > > = = $ + = 5 z [ y.P.n.J.Y.Y.j.v.x.J.J.^.B.N.i.i.z.J.Y.|.oXoX`.).).Q.t.$.H x s d z d r s k m b V E +.E / _ E n b h b y f ",
"8 1 3 3 < & # O o $ = < s J O.d.P.F.j.i.k.j.D.J.N.l.2.2.j.v.P.E.[.^.Z.t.$.F r > = + o $ & = : > 7 r 8 r t t b V E U m b f g g a ",
"Y [ %.-.-.$.j w : : > ; 1 f m / 9.z.z.l.q.j.s.z.i.i.%.2.2.s.v.Y.n.t.x 7 : + o X . . . . X $ $ & = > > < ; , , 8 8 k k g g t y g ",
"2.4.i.u.n.n.b.t.[ V m y t y f B } s.v.f.s.9.a.j.j.+.( E _ } 2.t.) f 3 = + o X X X X # & < 3 < > < < < > > - ; < < < 3 9 q q q 0 ",
"1.6.+.+.2.t.O.&.%./ B B B m m I ' i.9.s.s.s.1.9.d.' m B B P V B k 1 = $ $ $ o + > 7 d ~ / [ H k k k r 9 3 3 , 3 3 < : : , 8 6 8 ",
"+.' m y / y.n.n.J.y./ m k y b P | 2.9.0.s.i.w.8.j.( f f m b b y 8 ; = @ = : , 8 b Y ' +.1.2.O./ [ / ~ Y m f r 9 3 < : = > , 7 1 ",
"( b 8 [ Z.|.S.R.n.i.} ) b t 0 m U | 6.s.0.s.0.f.2.( f y y f f 8 1 ; - - ; 3 9 f b m m V A Y V V V E E ! Y V m k 7 3 < ; ; 6 8 8 ",
"_ t f n.n.*.c r 7 < < 9 8 t 0 q m U | s.v.s.i.0.2.E m f f y 8 , ; - - - - = , t m n m b b y t 6 , 1 8 k I B N k f t 9 t b 8 t q ",
"' t m G w & . . .     . o - , 8 y B E p.D.P.p.j.4.} B m f t , , - = @ o + , f X.O.%./ / E Y f t , : o ; k V m B m f y m y b b h ",
") m 7 $ .   . . O       . X o @ , b U 9.|.[.F.D.v.2.I b t 1 , - = @ X X < 7 : & & $ + & > < 3 < < : $ o < I ~ I m f f f b g g g ",
"8 ; @ $ X $ & & % . . . . & $ o + 8 _ d.|.,XoX[.F.z.U 8 , 1 ; = @ o X + @ o . . .         .   .   . . X o r f 8 8 y b b f b h m ",
"g 8 y [ / Y Y J d 9 7 5 r r 3 ; , y d.N.*X1X,XoX^.d.B 1 1 1 ; - ; = @ = ; 1 > & $ . . O O . . . O O X X + ; , 8 B _ 2.6.6.E b y ",
"N.d.E ) z.d.%.i.t.4./ ) C R C U | s.m.^.,X7X1X*X^.,.y 1 1 q 1 t E ) Y ) / _ / [ Y k 9 s d d 9 9 , , , 6 y q , f I I B E E y 6 8 ",
"H.P.p...,.{ E C U Z B C E E C h n 0.Y.+X1X5X,XoX^.' y 1 8 h R E | 6...^ ! ' | | | E C C C b h h C C E n q ; a _ ,.) f t t y y k ",
"v.R.E.P.+.C h n h C C n g g 0 g } [.[.>X,X1X=X}.d.( g q g h ^ 2.3.p.8.6.E n b h h h q q q b n n h h 6 - - g ^ %.' O._ m m I f p ",
"P.Y.(.[.|.D.| h q 6 1 , 6 q E R.*XXX*X,X,X,X*XY.2.I n n I Z E 6.w.w.i.l.F.i.P t 1 1 , , , , ; - = = ; t ( 2...! U ) +.+.6.! d r ",
"T.{.^.#X1X*X^.E.v.i.} 2.V.oXoX-X=X;X#X1X,X1X`.j.E n h R ' 6.| w.f.s.8.j.P.W.J.T.E.u.[ ~ I I m B Y | 2.j.m.N.>...R I E %.9.+.y f ",
").`.[.#X4X,X#X[.}.W.`.*X1X,X*X*X:X,X,X1X3X#XE.2.E n C R | w.w.w.d.d.s.v.Y.T.Y.P.[.|.`.|.oX^.E.P.^.H.j.d.i.p.0.6.+.P U | i.} b k ",
"T.+XoX,X1X7X,X*X^.[.oX:X=X:X#X:X:X1X1X1X=X[.F.,.C C n Z n Z C Z E | w.F.D.E.P.^.(.`.oX*X|.[.^.^.P.N.j.s.6.6.6.2...,.P } +.' m V ",
"[.{.*X:X5X1X,X#X[.oX;X,X,X*X#X#X1X1X9X5X#XW.N.6.' E C h g q q 8 6 8 h ,.F.E.E.^.[.[.oX#X*XoX[.Q.(.J.v.i.6.6.8.0.6.,.) ) +.` B V ",
"^.oX|.,X5X7X,X=X;X,X*X:X:X:XoX:X1X9XqX7XoXE.d.d.j.s.E h y h C C g 1 ; 6 P z.N.^.oX*X|.#XoX|.E.).W.H.j.j.s.d...e.2.9.} ' _ ` I I ",
"[.(.oX*X1X1X,X,X,X,X*X*X=X|.E.oX,X9X7X,X|.E.N.v.Y.m._ h h Z ,.3.| n , - , y E d.P.^.^.).oXE.Q.E.J.N.i.r.j.s.w.w.6.6.| ) ) E V B ",
"D.W.W.oX*X:X*X#X`.|.E.D.4.2.N.*X$X5X1X,X|.).Y.(.J.,.C h h ,.p.0.^ n 1 ; ; , 6 B _ j.v.P.P.E.N.N.j.j.s.d.0.s.9.s.+.:.o.%.U E E Y ",
"N.H.E.T.).).Y.v.d.,.^ h q Z ).#X1X7X5X,X#XoX[.Q.1.b q q h n n g q 6 1 8 q 0 6 8 b ( 0.s.v.D.v.j.s.4.4.w.s.p.0.4...] _ ) ) U U V ",
"j.D.F.P.Y.J.,.| C g , ; m ).#X,X5XqX9X9X1X,XQ.i.b 6 ; - = = + = - , 1 0 y g q a q f m _ 6.s.6.6.6.0.' 2.s.s._ O.) _ Y ! E E V I ",
"d.z.N.v.v.,.^ h 0 ; - b Q.*X,X1XqXqXqXqX9X*Xu.f 1 @ o + @ + + @ - - - , 6 8 q g g 8 6 f E ' _ ( | ' _ ' 2...) E E R Y Y E Y R Y ",
",.j.j.d.| R h 6 = ; m R.#X,X1X9X9XqX9X1X#XA.B 6 = + + @ + + + + @ = - - - ; 1 6 1 , , 1 8 B E ( Z E W T E R U / P Y H E Y / R U ",
"2.6.w...P g 6 - - f u.`.#X,X1X,X,X*XoXV.&.B 6 - = + + o + o + @ = - - = + @ - - - - = = = , b ! ' ( U I I P T I E x x E / E U T ",
"' 6.' ^ m q ; - 8 ) u.oX*X#XS.Q.R.`.u.} y 1 - = @ = @ @ @ + @ - - ; - @ @ = = = ; : @ + + + = f ) } U U U U B U ! m f / [ ! C P ",
"^ ^ ^ Z g 6 ; ; B / n.y.[ / O.%.2.2.%.! y , , 8 f 6 , ; ; - = = - , , = - - = - ; - = + & + $ : t V U I E R U E o.m f Y E ~ I n ",
"R ( Z B q 1 , 8 A ! } b 8 y I E m f y 8 - = 6 B E b q 6 , ; - - - - ; ; - ; ; ; ; , < < > = $ + = 7 b U P E E ] [ V k H Y E C P ",
"E _ E m q 6 , 8 N H N 8 9 8 f f y 6 6 - = 8 U ) ^ C h q 6 , , ; , 1 1 , , , 1 1 1 6 1 1 3 - + + + = 1 m ^ ^ } 2.t.J k H / Y Z C ",
"J } U m 0 q , 8 N N r 9 9 r y b b t 6 1 f t.N.j.,.) n h y q 6 8 q n g g g g 6 6 0 q 1 1 6 , = + + = - f E | _ &.t./ x F J / B C ",
"H } ' B t y 8 8 V f 9 7 8 t y f m f b C _ ..p.j.p...R C C h h h h h n n n g 8 6 0 8 1 1 6 , - = = ; , 1 ! } %.+.2.G x x J ~ V V ",
"k ..9.+.y t b f B 9 , , ; , 1 8 g n Z E C Z R ( E E n h g y q 0 6 8 6 6 ; ; ; ; - = = @ @ @ @ - 9 y t 8 U { ..+.E J x G G J m A ",
"z / u.u.E q k m N r , - @ @ = , 8 q q 0 t t g g t 8 6 , ; - - - ; ; - = = = = = = = @ = = = , f Y ) B y ) ' %.] ~ N x F L H N N ",
"G [ 1.c.w.B 9 B H N s t 8 y 8 q 0 q 6 6 6 6 , 1 1 6 , 6 8 0 8 t 0 q 6 6 6 6 6 8 q g 0 8 0 t m 6.6.8.B b ) +.) R V N z F G G k N ",
"K L [ &.v.+.y k [ / R V U C h n E E R C D D S S X.D D S X.D M m m f g g g a g g g y q 0 h E d.z.2.' b V >.| E H x f d x x H m m ",
"J *./ #.d.N./ f I ` I I P ( C Z _ _ X.( X.@.X.@.X.@.X.D M M k y 8 y 0 0 0 g 0 8 8 8 6 h T m.J.d.} P f _ ..o.V k s d z x N H H I ",
"K *.*.[ t.h.u.V s _ E P ) ^ ^ n m n m b I Y S M M x k s r 9 7 3 3 3 3 3 9 9 0 8 8 8 y A i.F.M.1.[ m y | ` E k s r d d f J H Y / ",
"$.=.$.$.$.y.u.O.f H ) | | | C n t 8 1 9 8 t 8 p t r 7 7 7 3 > > > > > < 7 9 7 8 t y b t.B.Y.1.2.O.b b ^ R V s r r s r F J L Y J ",
"$.*.*.*.*.$.&./ N t E +. .Q E h a t 8 8 8 y y y f s 9 7 7 3 < < < < 3 7 9 r 8 t f V %.z.J.j.4.t./ b B E U k r r s d k F L $.H N ",
"K *.&.*.$.L x d x k m 2. .' ^ n g t q y b N m V m k s r 9 3 < < < 7 r f k k k B B } u.h.u.d.y.h.B m U R b p d F z k H Y Y ~ K $.",
"G *.=.*.*.F u > r j H ,.6.| ^ n g f b P i.1.| ' ) I m k d r r s d x J / [ } ) ! ' i.n.u.u.u.u.&.m V T V f e z x G F N H J J [ &.",
"v $.$.$.L v 5 > > 5 d %.F.w.Q R n n C i.N.N...' ' +.' _ [ [ / &.t.u.t.u.9.t.E ) 1.i.1.0.s.g.9.[ U ) T k s r 3 r H F f x H L [ t.",
"l K L L L c 4 & & * > G P.N.| ) ..' >.N.E.D.d.4.9.4.4.2.u.u.t.n.V.n.n.u.t.%.` } 4.t.1.<.u.u.u.[ } [ Y d x e 7 9 k L J N H J $.&.",
"w F K $.K l > % & & * d -.|.d.0.f.i.,.F.H.W.P.P.z.z.z.z.z.n.Z.#X`.R.y.i.1.1.+.1._ %.o.4.9.h.M.&.[ [ V d d j w e r k N J H L $.L ",
"w z G L F e * % % % * 5 F `.).u.w.j.9.d.Q.W.^.^.{.~./.~.[.`. XS.`.u.[ 9.d.t.' ^ ^ } +.4.z.J.Y.&.&.[ k z d j i e 7 7 r x K K l i ",
"5 5 c v z w % # % & % 4 s S.#XR.g.d.>.f.m.E.B.G.E.E.u.V.R.R.y.n.n.g.%.4.4.8.^ ) ] 4.} u.J.E.K.h.$.L e d c l u i : : 3 9 r 5 4 4 ",
"% & 2 4 j 5 & O # # % : 9 b.-XoXM.1.4.T.Q.E.J.Y.^.v.s.i.u.t.4...9.+.) ! } ` _ ] i.1.} u.Q.(.~.t.$.x i 3 u w 4 7 : % : > > < > > ",
"O O # * 4 4 * O O # % : 7 u.,XOX*.A.|.*X-X;X`.|.`.^.J.Y.z.d.9.w. .} T U E ) ' q.9.,.4.Y.T.}.^.*.G i c 5 4 * > 4 & O : 3 3 9 5 d ",
"O O O % * 2 * O O O % = f K.,X1X3X7X3X1X4X7X0X5X1X,X,X*X*X`.'.!.E.u./ Y Y E ! ` %.9.B.K.[.|.V.G F e i 5 4 : & & # # < 7 r d f z ",
". . . # % * & # . O $ < o.`.=X7X0XqX8X7X7X0X8XqXqXqX3X7X8X5X@X@X#X;X_.n.$.J A ] h.K.V.`.@X_.L F x w * * & & O O O # & < 9 r r s ",
". . . O # & % # . X # d y.XX<X<X7X8X8X<X2X2X2X2X6X6X2X2X2X2X%X%X&X%X%X%X%X;.L =.C.Z.Z.OXOX;.v c j w * & & # O O # # % * 5 3 w u "
};
