/* XPM */
static char *out[] = {
/* columns rows colors chars-per-pixel */
"64 64 222 2 ",
"   c #2B1608",
".  c #4A2415",
"X  c #5C2C1A",
"o  c #68321E",
"O  c #583F2A",
"+  c #763A24",
"@  c #7E3D26",
"#  c #63432F",
"$  c #6E402D",
"%  c #6A4D37",
"&  c #77523D",
"*  c #7F5D46",
"=  c #814A35",
"-  c #8E4B34",
";  c #96523A",
":  c #865540",
">  c #8C5D46",
",  c #9D5943",
"<  c #955F49",
"1  c #A45E45",
"2  c #89664F",
"3  c #9B644E",
"4  c #916A53",
"5  c #9A6F56",
"6  c #AB644A",
"7  c #A16851",
"8  c #AD6D51",
"9  c #A86D58",
"0  c #B36A51",
"q  c #B76F53",
"w  c #A1765D",
"e  c #A7755C",
"r  c #AE755B",
"t  c #B4715D",
"y  c #B97658",
"u  c #A87B63",
"i  c #AE7D64",
"p  c #B77764",
"a  c #BD7564",
"s  c #B27861",
"d  c #B47F64",
"f  c #BB7E63",
"g  c #C1785B",
"h  c #C87E61",
"j  c #C07B6B",
"k  c #AC836B",
"l  c #BE8466",
"z  c #B3876E",
"x  c #BA876A",
"c  c #BF8B6C",
"v  c #B78C72",
"b  c #BC8E72",
"n  c #C38264",
"m  c #CC8566",
"M  c #C78568",
"N  c #C4816F",
"B  c #C48A6C",
"V  c #CC8C6D",
"C  c #CC8C6E",
"Z  c #D18969",
"A  c #D48C6E",
"S  c #D88F6F",
"D  c #C98270",
"F  c #C88973",
"G  c #D38E7E",
"H  c #C39072",
"J  c #C69677",
"K  c #C89172",
"L  c #CC9475",
"P  c #C09379",
"I  c #CA997A",
"U  c #CF9C7E",
"Y  c #D19071",
"T  c #D09072",
"R  c #D09273",
"E  c #D39273",
"W  c #D49374",
"Q  c #D59475",
"!  c #DA9472",
"~  c #DD9876",
"^  c #D79778",
"/  c #D1967C",
"(  c #D89778",
")  c #D59A7B",
"_  c #D99878",
"`  c #D9997A",
"'  c #DB9A7A",
"]  c #DA9A7B",
"[  c #DC9B7B",
"{  c #DB9C7D",
"}  c #DA9D7E",
"|  c #DE9D7D",
" . c #DC9D7E",
".. c #DD9D7E",
"X. c #E09E7D",
"o. c #E29F7D",
"O. c #E2A07F",
"+. c #DD9E80",
"@. c #DE9F80",
"#. c #DF9F80",
"$. c #CFA186",
"%. c #D4A082",
"&. c #DFA081",
"*. c #DCA386",
"=. c #D8A485",
"-. c #D7A88D",
";. c #DCA88A",
":. c #DFAB8E",
">. c #DBAB91",
",. c #DFAF94",
"<. c #E0A081",
"1. c #E2A181",
"2. c #E3A181",
"3. c #E0A182",
"4. c #E1A283",
"5. c #E3A282",
"6. c #E4A281",
"7. c #E4A382",
"8. c #E5A382",
"9. c #E4A383",
"0. c #E5A483",
"q. c #E6A483",
"w. c #E5A484",
"e. c #E6A584",
"r. c #E6A585",
"t. c #E7A685",
"y. c #E7A686",
"u. c #E8A786",
"i. c #E9A887",
"p. c #E0A58A",
"a. c #E3AC8D",
"s. c #E7AD8F",
"d. c #E8A888",
"f. c #E9A888",
"g. c #E9A989",
"h. c #EAA989",
"j. c #EAAA8A",
"k. c #EBAA8A",
"l. c #EBAB8B",
"z. c #EBAC8C",
"x. c #EBAE8F",
"c. c #ECAC8C",
"v. c #ECAD8D",
"b. c #EDAD8D",
"n. c #EDAE8E",
"m. c #ECAE8F",
"M. c #EDAE8F",
"N. c #EEAF8F",
"B. c #EDAF90",
"V. c #EEAF90",
"C. c #E4B195",
"Z. c #E9B193",
"A. c #EDB091",
"S. c #EFB090",
"D. c #EEB091",
"F. c #EDB192",
"G. c #EEB192",
"H. c #EFB192",
"J. c #EFB293",
"K. c #ECB496",
"L. c #E6B599",
"P. c #EAB79A",
"I. c #EEB899",
"U. c #EEBC9E",
"Y. c #F0B293",
"T. c #F0B394",
"R. c #F0B495",
"E. c #F1B495",
"W. c #F0B496",
"Q. c #F1B596",
"!. c #F1B597",
"~. c #F2B596",
"^. c #F2B697",
"/. c #F2B698",
"(. c #F2B799",
"). c #F3B799",
"_. c #F3B899",
"`. c #F2B89A",
"'. c #F3B99A",
"]. c #F3B99B",
"[. c #F4B99B",
"{. c #F4BB9D",
"}. c #F5BB9D",
"|. c #F5BC9E",
" X c #F5BD9E",
".X c #F5BD9F",
"XX c #F1BFA1",
"oX c #F5BEA0",
"OX c #F6BEA0",
"+X c #F6BFA1",
"@X c #F6C0A2",
"#X c #F6C1A2",
"$X c #F6C1A3",
"%X c #F6C2A3",
"&X c #F7C2A3",
"*X c #F6C3A4",
"=X c #F7C3A5",
"-X c #F2C4A5",
";X c #F7C4A5",
":X c #F7C5A6",
">X c #F7C6A7",
",X c #F7C8A9",
"<X c #F0CBAD",
"1X c #F4CDAE",
"2X c #F8C8A9",
"3X c #F8C9AA",
"4X c #F8CAAB",
"5X c #F8CBAC",
"6X c #F8CDAE",
"7X c #F9CEAF",
"8X c #F3D1B3",
"9X c #F7D1B2",
"0X c #F0D4B6",
"qX c #F6D4B6",
"wX c #FAD3B4",
"eX c #FAD7B8",
"rX c #F1D8B9",
"tX c #F7D8BA",
"yX c #F5DBBB",
"uX c #FADDBE",
"iX c #F6DDC0",
"pX c #F9E1C3",
/* pixels */
",.G.e.2.Q B k k e z J U U :.>.,.,.>.,.,.>.,.>.L.,.,.,.L.,.L.,.,.,.L.>.,.a.L.Z.Z.>.,.p.a.a.g.a.m.4.p.4.d.*.j.&. .( ` ' [ ( ` W W ",
":.j.b.q.X.K d k u z I U %.;.,.>.>.>.,.L.XXXXXXXXXXXXXXXXXXXXXXXXXX].I.`.XX].L.W.I.I.W.J.~.E.).F.F.s.x.x.x.j.f.t.t.2.O.o.| [ ` ( ",
"J o.| 2.| K k k u x P U U ,.>.a.L.XXI.XX].OX.X@X&X&X]..X&X=X`.}..X&XXX&X@X&X[.[.[.}.J.^.Q.^.B.D.V.A.d.z.n.N.9.7.1.2...4.8.o.Q ( ",
"b ~ ! ~ Q c d k i x I U U } } *.*.*.) 4.x.^.].].+X=X+XOX&X+X(.(.}..X@XXX;X{.[.(.}._.^.A.~.E.v.N.T.v.r.t.j.g.u.r.w.<.| @.4.| ^ ( ",
"x | _ ~ A B d d i b U U K p 7 3 > < < 7 e U x.}._.+X|.+X.X+X}.!.^.}.&X;XXX}.W._.!.}.^.E.z.!.F.^.J.D.d.g. .u.O.4...@.7.2.' ] ( ` ",
"x [ ~ ! S B l d d P I f < @ $ o X X X X # : r F ` x.(.}.OX+X}.B.T.^.&X|..X XA.A.^.]._.T.A.n.N.E.).V.x.z.e.0.2.O.@. .r.7.} ` ` ` ",
"x X.S ! A m s d c K e > : 7 d b i > $ # & : > 7 f Q 4.^.^.}.T.B.A.^._.@X&X}.g.x.J.].W._._.^.T._.!.Y.z.z.g.d.| 4.2.r.6.9.&.4.`  .",
"x | S A Z M y r K B e x p.W._.{.$XL.*.P b d r r l C ` r.}.E.^.l.A.W._.}.}.W.z.g.n.A.'.}.&X+X}.].E.A.n.g.z.4.@.X.u.r.2.8.r.@.] ] ",
"z ` A A Z M p l Q Q } T.^.}.).|. X).I._.Z.a.` R V Y Q @.z.).R.J.g.x.^._.A.n.r.y.f.D.E.}.}.&X}. XW.A.4.@.) / R ^ ^ ` Q ' ^ ' ^  .",
"x ^ S Z A M f L l.l.z.z.W._.^.]._.W.W.A.x.x.9.@.^ Q ^ ..g.!.E.Y.Y.B.A.n.N.d.4.4.&.g.B.`.}.W.a.%.K l d w 3 3 7 7 r r r p M V Y Q ",
"b ` Z Z Z Z f  .n.g.w.n.N.N.w.g.z.A.d.s.y.d.`  . .o.^ o.g.).l.A.H.E.v.B.A.9.Q ( ' r.r.x.r.R r < = + o X X X . X + = : < r p p f ",
"J ^ Z Z Z m n | j.w.d.g.g.C R p.I.`.K.x.x.9.Y B C Q ` 6.D.~.v.j.V.b.v.g.A.^ m V Y R Q R n 7 : + o X . . . . . . X $ $ @ : > < 3 ",
"c ) Y A m m n 4.g.g.d.8.m B x.+XXX X^.W.a.9.( M t y C | r.S.Y.S.z.z.l.z.z.Q f l f B n f 6 - @ + o o X o o @ = < 3 3 - : : : - - ",
"b I R V C M l 9.Y.z.g.` n 4.}.I.s.*.) } ) ` Q M g 0 f Y | j.E.J.Y.n.l.z.g.Q l t n f f 8 , - @ @ = : < 7 r l L ` { T l r r 9 3 : ",
"K U R R L B p t.A._.u.T M x.p.c 7 > = : : > 7 t y y 8 l Y 2.r.^.W.Y.r.y.9.^ n f f p 6 1 ; - - - < 7 9 f n F M C Q ^ C T T C l p ",
"%.%.U U U K B ` s.Y.g.C R / < X . . . .     . $ ; 1 6 t C ' 8.^. XW.A.M.u.` B f t 8 , - - - = @ = ; 8 n E K f y y 8 8 9 f B C B ",
"U U %.%.U I T 4.| 4.r.Q f - .   . O O #       . X $ @ < f | r. X&X+X].).z.4.B y 6 1 ; - = @ o o 3 l B L L R K F l f 7 3 : : 8 l ",
"%.%.=.=.=.U ` 4.' M y 8 - ; 9 > > : & O . . . O % $ $ + ; o.z.+X7X9X>X X^.r.n 1 , , - @ + X X : < = X O . . . o * < 3 < < @ $ 3 ",
"%.=.U %.=.s.w.4.' C n n m ' 9. .*.^ f w > < < 7 w 7 ; 6 n Y.Y.;XwXtX4X&X^.9.t , , , = = @ o X $ $ +   . .               . O X o ",
"%.%.%.U =.L.W.g.Y.Y.n.V.g.o.q.N.n.z.u. .` R F V m A A ( 4.Y.}.&XtXtX4X&X^.( q , 1 1 - 8 y y 9 t l c i 4 & o O X # . . . . .   . ",
"%.%.U U U *.&.j.B.N.).^.x.z.u.g.r.| Q Q C A m A Z A m h Q _.+X9XwXtX6X;Xn.( q 1 1 n n V | @...| ` @.9.4.L l f f f s 7 3 > : @ + ",
";.=.=.=.} { Q ( n.N.).|.+X}.Y.| S Z C A Q A m h y 0 q Q _.+X>X4X5X7X4X Xx.A y 0 y m ( ^ 4.j.4.Q Y C ^ ' ( A m h h h g g m V M n ",
":.a.=.;.a.y.A ` n.}.E.`.2X5X@XT.8.( y 0 8 8 1 1 t Q N.,X4X,X>X6X7X7X+X^.4.A g h m Z C 2.j.z.i.z.8.R 0 6 8 q 6 0 q g g h n y 1 ; ",
"a.p.;.=.p.w.! 2.Y.^.|.^.>X,X6X%X:XOXN.4.| ( ` a.+X>X3X3X9X,X6X6X7X6X+Xx.| m m Z ( ` ' 2.r.u.r.n.^.}.z.) M y 6 , , ; - = = - - 6 ",
"*.;.=.*.p.Y.o.z.z.T.Y.+X&X6XwX7X@X+X}.}.+X+X&X2X$X:X&X4X,X4X7X7X6X4X Xz.( Z m A W 2.r.g.u.h.g.Y.A.).E.}.+X}.`.A.4.` R ^ ^ @.g.g.",
"a.p.a.p.w.r.| 8.T.Y.^.&X4X7XwX6X5X+X'._.].&X7X,X*X+X&X,X6X7XwXwX7X+X^.q.| Q Z m m m A ! | 8.z.n.J.^.^._.+X*X=X@X+X_.^.E.^.l.n.t.",
"m.v.p.a.a.i.! g.]. X^.>X6XwXtXwX4X>X}.^. X4X5X5X5X2X}.7XtXpXuXtX4X+Xz.l.r.8.S m a g 0 0 0 g m r.Y.}.E.}.+X2X*X:X2X+XT.^.J.Y.2.8.",
"m.d.p.p.x.S.8.n.}.+X+X&X7XwXuXeXwX4X+X+X5X5X5X4X:X:X;X5XwXtXuXtX4X}.S.N.A.j.8.Z g a h m y , , a | A.J.).&X2X;X&X2X+X).J.E.n.t.7.",
"r.9.4.p.w.N.g.Y.^.+X&X9X6XwXtXuXtX7X4X4X:X4X,X6X;X;X X,X6XtXtXtX,X.XY.Y.B.^.u.! n h | 8.' g , - 6 C r._.^. X&X;X+X&X+X}.v.A.q.u.",
"0.4.4.+.9.v.v.Y.OX+X=X2X3X5XwXwXwX7X4X,X,X&X}.T.r.g.].;X6XwXtXwX3X$X_.E.}.n.( h n Z 2.8.| A 0 - - , f ` n.^. X X+X^._.^.T.N.u.t.",
"w.q.+.@.7.g.t.M.).&X].}.&X4X&X,X>X+X^._.A.u.W n h g.].,X7XuXtXtXwX5X}.+X^. .y q y h m m n a 1 1 8 6 , y Q g.g.Y.^.^.z.n.i.k.O.j.",
"r.O... .t.u.j.h.T.^.).}.;X&X+X].}.N.r.( Z q , 1 o.+X&X,XtXuXtXpXpXwX;X`. .y , - - - = = - ; , 0 g y q 8 y C ..r.N.n.g.u.r.t.q.t.",
"@.&.} @.6.u.c.n.i.Y.T.).E. X^.Y.u.o.Z g , - 6 4.+X6X4X7XtXpXpXpXwX6XXX@.r ; + $ o @ + + = ; , 1 6 q q a 0 t n Q ' 8.o.4.` 4.1.u.",
"&.| o.<.4.9.B.j.j.y.x.n.].^.z.4.Q h q ; - 0 a.+X4X9XwXwXtXuXuX7X;X`.r.f , = + + + + + + = = - - ; , 6 q q 8 6 t C Q ^ ( ( ^ ` 2.",
"4.<.^ +.t.l.u.z.6.u.8.n.Y.n.| A h q - - t a.`.7X7XtX6X6XwX7XXXI.9.` f 1 - @ $ $ $ $ X + @ = = = @ = - ; , , - ; 8 M C T Q Q Y Q ",
"{ ` ` ^ @.q.q.X.X.| 2.r.g.| Z n q , - 6 ) N..X,X7X7X;XXXXX XW.@.M 6 , - = @ @ @ @ + + @ = - - @ + + @ - - : @ = = 3 l ^ ..R M C ",
") ^ Q ) ` @.O.| S ~ | 2.| Q h q 1 ; , n ( Y.;X&Xs.Z.a.g.r.z.z.d.T t , 6 t 0 ; ; - - - - - ; < - = : = - : = + + + + > M ^ ^ C C ",
"Q E ) E ) ] | ` Q S _ ( ' V y 1 , ; y R ` r.r.C l B ` ` R V n f 1 - - r ( C 0 1 , ; ; - - ; < ; - ; - - - - = @ @ @ + - f Y Y C ",
"T L F K R ..( ` ( A Z ! Q M 8 1 , 1 f C R ` l y 0 f V K l 8 1 , = - y T ( _ h f 6 1 - - - , ; < < ; - ; , 3 > < - @ $ @ ; n V C ",
"B M B B R ` | ..| S A Z A n 0 1 1 1 l l B K p 8 0 y f n M t 8 1 6 B j.z.u.| Q m g 0 1 , 6 q 6 6 6 1 1 , 6 6 1 1 < = + + = 1 n C ",
"l l l c C 4.t.u.X.( m n M Z y 1 , 6 n l B B r 0 0 g l m Z f f n M ( g.A.d.r.| A h h q q a n h h g a 6 1 0 8 1 8 1 : @ @ = - f Q ",
"x x l l L  .l.g.r.' m f l C l 0 1 6 M B l p r r t f f h m Z ( ' ( ! ^ ..o.| ( A m m h n g y g g y 8 1 1 6 1 , , , - = : < ; t R ",
"x c f c R y.r.F.V.z.Y f f Q V n r 8 B l 9 3 1 7 , 1 1 q m Q C C Z Z h Z Z h q 0 0 1 ; ; , , ; - - = @ = = @ o $ + @ - 9 p 8 y ^ ",
"x l l l / 4.g.E.!.z. .n f C ` Q M t M l 0 1 - @ = - ; 1 q q q 0 q a q 0 0 6 1 6 1 , ; ; , ; - = = = = = - - - - - 1 n Q ^ y V ^ ",
"s c c c K *.x.!.!.^.z.R y n ) @.Q m V V f p r r 9 y g g g n g h j D j j j N j D N N j j y y 0 0 0 0 0 y q 0 8 0 q W X.8.^ n Q  .",
"l c J H K } A.W.(.(.Y. .f y C @...` ^ Q Y C Y T A h g Z Q ( ( G G G G G G G G D N j a t t a a q a a q q 0 6 q h | r.[ ` M m ..` ",
"I U U U / ) a.!.`.).D.y.C l l +.@.4.! R W ^ W ' ( W f M Q Y n F G F j j l l p r 9 9 3 7 9 r 7 0 q t 0 8 6 0 f o.n.g.Q C n |  .^ ",
"I U %.) ) ) *.J.Q.^.T.x.@.M f R 0.q.X.W Q Y Q ( ' Y n y p t 9 9 r 9 7 7 9 9 9 7 7 < > < 3 3 < 7 9 q 8 8 t n ^ x.A.<.Q f n {  .F ",
"L =.=.=.%.} } x.m.B.D.x.r.V p l ' u...| ^ ' ' ' A Z n f t t 6 7 9 r 9 r r 9 9 7 3 < > < < 3 3 7 7 8 8 y f Q r.N.4.X.C t M ' T B ",
"U =.%.%.%.U U p.y.4.d.d.r.C t t T ..q.o.2.| ` ' A Z n f f t r 9 r y f p s s r 9 7 < > < 3 3 w 9 9 8 0 f L 9.Z.d.9.` n f Q T B c ",
"%.;.$.=.=.%.K c K *.) ' 4. .n f T  . .2.i.t.~ ' Q A n n n l f l n M l B l d r 9 7 7 < 7 r r s p f f n T d.Z.a.z.a.T t V Q F f B ",
"%.=.=.=.;.U c 5 d =./ L  .` ^  .' ( 5.9.O.i.[ ( ^ V M n V Q @.@. .` Q C L B p r r r s f F K T C C K T  .Z.a.:.a. .M n V Y B f l ",
"I =.*.=.=.U e 4 > x K } `  .u.v.o.' 6.4.X.' ' | Y Y Q ^  .g.g.z.9.9.g.4.4.*.) ) U ) ) *.} { { ` R )  .a.p.p.y.p.K V M V n B K ) ",
"J =.-.=.=.K w * & 2 e R f.m.E._.z.' j.g.2.` | 2.o.| d.g.J.m.m.j.*.@.s.x.g.a.a.;.a.s.:.@.*.^ ` )  . .p.@.p.*.@.Q T B n M B K U / ",
"b %.%.%.U P w * & 2 2 i 4.{.`.}._.9.4.V.9.O.' 4.a.z.g.n.N.T.A.A.g.x.a.x.A.L.a.L.K.K.*.} U ) ^ 4.3.4.) +.*.*.) R C l p B B / ) *.",
"z I U U U x 2 & & 2 * 3 U %XoXXX_.t.q.g.9.O.@.4.N.B.F.A.^._.A.A.W.W.Z.W.XXXX;XU.p.a.p.} #.] } +.@.+.` p.@.) ` L K l c M F / p.a.",
"w H I %.I x * % & & * w c XX2X>X].v.7.9.9.t.w.G.s.B._.`.{.+XXXXXXXXXI.I.U.@XXXs.} p.4.` ^ Q [  .) *.} } } } K B d s c K H U *.;.",
"w x I U c e & # & % * 5 x Z.6X>X{.x.w.1.t.j.x.G.A.Y.G.W._.J.F.T.`.I.x.j.F.F.x.4.1.*.( ^ ` ` @.p.a.p.} %.) I c i e 9 f F I U x s ",
"5 5 b b x e # # % & & > r L.5X4X{.A.O.4.N.|.T.E.E.^.z.A.A.D.q.g.g.r.&.q.g.z.4.@.] ` T { +.l.x.E.J.a.K b J I x e < > 6 s d e 4 4 ",
"% & 2 4 k 5 % # # # & : 7 a.6X5X{.4.y.W.,X*X+X'.OX}.D.m.`.J.d.4.r.+.` `  . .` ` { 4.w.( @.F.W.(.W.U c e i e 7 7 : $ > > > < < > ",
"O O # * 4 4 * O # # % > 7 z.4X4X=.Z.*X5X4X7X7X2XoX#X@X+X'.^.G.E.M.d.X.Q T Q ^ @.O.d.4.y.S.'..X].*.K d i 2 > : 4 & # > 3 3 w 7 i ",
"O O O % * 2 & O O O % = f (.7XwXtXtXqX9XwXtXuXyXtX7XwX7X7X:XOX.X X).p.E R / ^ ] 4.r.x./.].+X`.U H d w w > > & & # # < 7 s d f x ",
". . . # % * & # . O $ < +.oX3XtXiXpXyXtXtXiXyXpXpXpXqXtXyXeX:X:X>X5XXXC.%.T F { x.!.G.oX:XXXU H c w * * & & O O O # & < 9 r r s ",
". . . O # & % # . X # d a.*X8X8XtXyXyX8X0X0X0X0XrXrX0X0X0X0X<X<X1X<X<X<X<X,.U ;.L.P.U.XX-X,.b v z w * & & # O O # # % * 5 3 w u "
};
