/* XPM */
static char *out[] = {
/* columns rows colors chars-per-pixel */
"64 64 201 2 ",
"   c #2B1608",
".  c #4A2415",
"X  c #5C2C1A",
"o  c #68321E",
"O  c #583F2A",
"+  c #763A24",
"@  c #7E3D26",
"#  c #63432F",
"$  c #6E402D",
"%  c #6A4D37",
"&  c #77523D",
"*  c #7F5D46",
"=  c #814A35",
"-  c #8E4B34",
";  c #96523A",
":  c #865540",
">  c #8C5D46",
",  c #9D5943",
"<  c #955F49",
"1  c #A45E45",
"2  c #89664F",
"3  c #9B644E",
"4  c #916A53",
"5  c #9A6F56",
"6  c #AB644A",
"7  c #A16851",
"8  c #AD6D51",
"9  c #A86D58",
"0  c #B36A51",
"q  c #B76F53",
"w  c #A1765D",
"e  c #A7755C",
"r  c #AE755B",
"t  c #B4715D",
"y  c #B97658",
"u  c #A87B63",
"i  c #AE7D64",
"p  c #B77764",
"a  c #BD7564",
"s  c #B27861",
"d  c #B47F64",
"f  c #BB7E63",
"g  c #C1785B",
"h  c #C87E61",
"j  c #AC836B",
"k  c #BE8466",
"l  c #B3876E",
"z  c #BA876A",
"x  c #BF8B6C",
"c  c #B78C72",
"v  c #BC8E72",
"b  c #C38264",
"n  c #CC8566",
"m  c #C78568",
"M  c #C4816F",
"N  c #C48A6C",
"B  c #CC8C6D",
"V  c #CC8C6E",
"C  c #D18969",
"Z  c #D48C6E",
"A  c #D88F6F",
"S  c #C98270",
"D  c #C88973",
"F  c #CC8A78",
"G  c #D08B78",
"H  c #D38E7E",
"J  c #C39072",
"K  c #C69677",
"L  c #C89172",
"P  c #CC9475",
"I  c #CA997A",
"U  c #CF9C7E",
"Y  c #D19071",
"T  c #D09072",
"R  c #D29172",
"E  c #D09273",
"W  c #D39273",
"Q  c #D49374",
"!  c #D59475",
"~  c #DA9472",
"^  c #DD9876",
"/  c #D79778",
"(  c #D1967C",
")  c #D89778",
"_  c #D59A7B",
"`  c #D99878",
"'  c #D9997A",
"]  c #DB9A7A",
"[  c #DA9A7B",
"{  c #DC9B7B",
"}  c #DB9C7D",
"|  c #DA9D7E",
" . c #DE9D7D",
".. c #DC9D7E",
"X. c #DD9D7E",
"o. c #E09E7D",
"O. c #E29F7D",
"+. c #E2A07F",
"@. c #DD9E80",
"#. c #DE9F80",
"$. c #DF9F80",
"%. c #DD9986",
"&. c #D4A082",
"*. c #DCA386",
"=. c #D8A485",
"-. c #DCA88A",
";. c #DFAB8E",
":. c #DBAB91",
">. c #DFAF94",
",. c #E0A081",
"<. c #E2A181",
"1. c #E3A181",
"2. c #E0A182",
"3. c #E1A283",
"4. c #E3A282",
"5. c #E4A383",
"6. c #E6A483",
"7. c #E6A584",
"8. c #E6A585",
"9. c #E7A685",
"0. c #E7A686",
"q. c #E8A786",
"w. c #E0A58A",
"e. c #E3AC8D",
"r. c #E7AD8F",
"t. c #E8A888",
"y. c #E9A989",
"u. c #EAA989",
"i. c #EAAA8A",
"p. c #EBAB8B",
"a. c #EBAC8C",
"s. c #EBAE8F",
"d. c #ECAC8C",
"f. c #EDAD8D",
"g. c #EDAE8E",
"h. c #ECAE8F",
"j. c #EEAF8F",
"k. c #EDAF90",
"l. c #E4B195",
"z. c #EDB091",
"x. c #EFB090",
"c. c #EEB091",
"v. c #EDB192",
"b. c #EEB192",
"n. c #EFB192",
"m. c #EFB293",
"M. c #ECB496",
"N. c #E6B599",
"B. c #EAB79A",
"V. c #EEBC9E",
"C. c #F0B293",
"Z. c #F0B394",
"A. c #F0B495",
"S. c #F1B495",
"D. c #F1B597",
"F. c #F2B697",
"G. c #F2B799",
"H. c #F3B799",
"J. c #F2B89A",
"K. c #F3B99A",
"L. c #F3B99B",
"P. c #F4B99B",
"I. c #F4BA9C",
"U. c #F4BB9C",
"Y. c #F4BB9D",
"T. c #F5BB9D",
"R. c #F5BC9D",
"E. c #F5BD9E",
"W. c #F5BD9F",
"Q. c #F5BE9F",
"!. c #F1BFA1",
"~. c #F5BEA0",
"^. c #F6BEA0",
"/. c #F6C0A1",
"(. c #F6C0A2",
"). c #F6C1A3",
"_. c #F7C2A3",
"`. c #F7C3A5",
"'. c #F2C4A5",
"]. c #F7C5A6",
"[. c #F7C6A7",
"{. c #F0CBAD",
"}. c #F4CDAE",
"|. c #F8C8A9",
" X c #F8C9AA",
".X c #F8CAAB",
"XX c #F8CBAC",
"oX c #F8CCAD",
"OX c #F8CDAE",
"+X c #F9CEAF",
"@X c #F3D1B3",
"#X c #F7D1B2",
"$X c #F0D4B6",
"%X c #FAD3B4",
"&X c #FAD7B8",
"*X c #F1D8B9",
"=X c #F7D8BA",
"-X c #F5DBBB",
";X c #F6DDC0",
":X c #F9E1C3",
">X c #FBE5C7",
/* pixels */
">.c.7.6.` N u j u d I U =.l.:.l.>.l.>.l.:.>.l.l.>.N.>.M.N.N.l.l.r.>.r.l.e.;.t.r.e.e.w.2.*.r.3.3.......} } } [ ] / ` / ] ) / Q W ",
"=.i.f.d.0.P z j u z I U ;.l.l.>.>.>.>.:.>.>.>.>.>.>.l.l.N.l.l.>.r.>.;.w.r.s.r.e.e.w.w.*.t.w.0.w.8.[ { { ....o.` ] / ! ! ^ Q Q T ",
"P o.O.7. ./ N J J I =.;.l.M.l.:.>.M.:.l.l.l.l.l.N.N.>.l.N.B.z.m.M.M.r.z.z.m.e.s.z.m.8.y.a.h.r.t.3.2.' @.,.0.] ..{ { Y Q ! ! B Z ",
"L ^ ~ ^ ..5.s.l.M.M.M.M.Q.U.J.D.U.D.D.J././.R.U.Q.Q.U.U.Q.U.J.D.U.J.m.x.D.m.x.b.G.k.i.q.d.v.y.8.8.@.{ ..2.#.{ ]  .] / Y ! Y C Z ",
"K { { $.<.f.C.H.D.U.P.R.U.Q.J.R.U.Q.P./././.R.R.J.R.P.P.D.J.D.U.P./.P.P.m.g.i.d.y.y.y.y.8.i.d.q.....[ { ' X.{ ,.{ ] Q Q C C n Z ",
"( [ { $.8.i.z.U.Q.U.Q.U.R.J./.V.P.P.!.R.).Q.U.V.R.U.Q.R.Q.G.H.D.Q.^.G.P.g.i.s.s.i.q.r.t.a.r.0.$.$.{ ..{ #.} ] } ] [ W Z C C C C ",
"f d 9 u k P / a.Z.R.D.R.Q._.R.J.J.R.L./.(.).J.R.P.R.!./.H.U.G.H.P./.D.D.F.D.t.a.i.i.3.y.d.C.5.o.,.@.{ ....3.) @...{ B C C C m n ",
"> : + # $ : 5 P s.M.S.m.R./.Q.m.D.D.J.Q.`./.D.D.D.J.^.R.^.P.F.J.R.L.Z.A.G.m.g.t.g.i.i.y.a.y.q.,.2...[ { 3.#.@.{ ^ Q m n n n b h ",
"s u 3 & X # # > r ( 3.S.m.J.G.D.f.C.D._.U.T.m.H.f.m.^./././.).]././.F.F.M.M.i.i.8.i.y.i.q.y.t.8.....[ @...3.5.@.! Q C n h h h h ",
"3.r.l.U u < : - < r N @.C.S.H.c.y.i.m.J.T.m.k.i.s.s.F.R.).).).`./.U.D.s.*._ ( P ( _ E R ' @.#.@.' ) { { #.@.3.../ Z n h h g g g ",
"y.M.r.M.l.=.N s 8 r p V 3.S.d.C.y.b.M.D.D.Z.8.f.i.d.z.U.).].U.M.;.U N s 3 3 : > < 3 3 9 f N b V R / Q [ @.,./ } ~ Z g g g g y g ",
"8.*.*.w.r.;.*.( P b b m ' t.a.i.i.f.t.s.m.i.q.2.8.i.h.b.J.s._ f 3 : + o X X . . X o + = < 9 9 r f f f V / [ / [ Q n h g g g y g ",
"b b =.M.s.s.=./ V B V E Q ,.q.d.i.d.d.g.i.8.[ ' / @.,.t.3.R r < = $ o X X X X X # & = = = : : < , , , 8 y m B W V m f f y g g g ",
"f e.P.D.D.b.z.3.P f f B ' ,.q.t.y.y.d.g.d.,.B m V V E Q B t < = + $ $ $ + = < 7 z J f 9 7 3 3 3 < < ; , 3 3 9 r f f y y y y y y ",
"( M.w.w.=.=./ [ ' V r y V ..2.t.y.d.,.y.p.3.b f b m b b y 8 ; ; - ; ; 3 d N P *.t.M.w.@./ P M p 8 3 > < 3 3 > ; < < < 8 t q 0 y ",
"I K 5 & & & & * 3 t q 0 b Y { q.x.t.<.$.u.@.B f f b f y t 1 ; ; , 1 r f V ) { { 3.3.2.@.8.*.[ / Q N r 7 3 3 > > > : = ; 1 6 1 1 ",
"7 X       # .   . X - 3 8 m ! t.g.i.q.y.5.,.W V f f r 8 , , ; , , , 1 y b V B V m m m B N Q [ ../ Q L m f r 3 > > : = - , 6 6 1 ",
"X     . O % .     . O + : 8 Y ,.H.D.C.f.g.2./ N b t 8 , ; ; ; - = ; r m *.t.t.@.{ V b t 8 1 8 f B V V V m f 9 7 3 ; ; ; 6 6 6 6 ",
"- & $ = & & O . . O # $ + - m $.U.|.J.J.m.x./ m y 8 , , ; - + o ; f f N I =.( %.Q / V b y 9 = = 6 b m V b b f t r r 9 8 8 t 8 q ",
"3.*.Q _ ( z e 5 e r e 3 ; ; B q.).+XXX`./.c./ t 1 1 , - = @ o @ 7 < = # % # X X & > 3 3 7 7 < + + 7 m V Q V b g b m m f f f g b ",
"<.5.r.x.s.s.w.w.! R Y R ' <.f.J./.&X%XoXP.d.Z 0 1 8 1 ; 1 , @ = = = : O O .       . . . . . X X X + s V b g y m m B b g r y y g ",
"x.3.,.{ ) Q Q Z Q Q Q Q n T d.R.+X%X&XXXH.,.b 0 6 y y t W ' E R E P ( x e & $ X # # O X X X X X X o , 6 6 t m m m m V m b f f b ",
"Q.J.~ n n C C Y C h 0 0 b s.U.`.+X&XXX`.H.@.g 0 0 n Q Q { y.+.$.$.,.2.8...Q f f k x r 7 7 3 ; , 7 8 6 1 8 m Q  .+.8.@...m y 8 r ",
").].Q.s.{ g 6 1 6 6 y [ `.XX|.].+XXX`.U.d.! b g h C ) 5.i.y.i.8.{ Z V / ^ ^ Z n n n b m R C E Y C g , 8 ! ' E Y ! R B m y t r t ",
"/.XXXX|.Q.U.S.z.r.D.Q.XX|.oX X+XXX XP.z.[ Y C Q A ~ ! 8.f.j.j.C.f.4.m t 8 q q q 0 y g h h n g 6 ; - 0 Z <.t.5.8.W b y f b b b m ",
"`.XX+X X]././.[. X|. X|.+XXX#X%XoX).S.,.Q C Q ^  .+.5.8.b.j.C.S.H.S.m.u.@.N y 6 , ; ; - - - ; 1 g Q <.$.,.5.5.+.<.[ Y Y ) f s r ",
"|.%XoX+X.X`./.oX#X%X).].#X%X#X%X|.R.8.^ Z Z C ~ $.y.q.d.C.C.f.S.H.U.m.J.R.).S.H.z.3.} } 2.3.3.j.C.b.8.8.<.{ ! +.3.8. . .o.m t t ",
" X%X#X%X X|. X+X+X+X`.].%X&X&XXX`.H.8.^ A Z C C Q Z Q A  .q.d.C.R.J.J.J./.).).Q.]./.P.R./.^.P.C.S.z.c.q.t.$.! ! <.8.+.5.8.N p p ",
"`.%X&X&X.XoX+X#X+X%X|.XX+X&X-X.XP.D.d.q.^ A n g g g y 0 6 q V d.S.R.U.Q.R.).`.].).].(.].Q.R.S.j.t.d.q.d.q.0. ./ ' 9.,.q.@.B f m ",
"`.+X#X+X+X%X+XXX+X|. X[.XX&X=X XR.C.C.d.d. .C g g Z A C y , , y  .C.Q.U.R.`.].].|.].(.`./.U.J.d.d.t.y.q.d.6.+...{ 4.1. . .m m m ",
"/.|.).].`./.U.J.z.q.t.|.XX=X+X`.P.P.C.H.d.,.C h n +.t.y. .h - - 6 V 2.S.R.]./.].XX|.R.[.Q./.C.C.d.d.5.8.q.p.$. .{ <.[  .{ R m B ",
"P.R.P.D.x.i.{ n y g f.].%X-X#X`.Q.R.U.b.$.C h h ~ y.y.+.{ h , - ; 1 f ) b.J.Q.Q.`./.R.Q.Q.P.S.z.j.d.q.8.i.p.<.$.,.) ) { [ V B V ",
"j.S.t.8.~ n 6 - , 3.).#X=X>X-X#X`.].S.@.g y 0 g h n g g q 0 1 t 0 0 6 g W t.b.U.m.J.C.S.S.C.D.f.i.d.q.d.8.8.5.5.[ ' / [ Q V P P ",
"x.d.,.Z g 1 @ ; ..`.+X&X:X>X>X=X.XS.E t 1 ; = @ @ @ @ = ; 1 0 g g g y 0 y Y ,.i.x.d.f.g.j.d.f.g.s.p.0.0.8.5.5.$.{ / ! R Y B W V ",
"i.3.n g 1 = ; } /.%X#X-X:X>X-X+X`.' 1 - + + $ @ @ + + = ; 1 1 0 q y y g y y b ! 2.d.8.f.y.8.0.p.t.y. .5.8.t.} [ / Q P E V Y m m ",
"o.R g 1 - ; V M.|.%X+X%X&X+X`.P.3.y ; + + + + + + $ + @ = - - ; , 6 q y y 0 6 y Y / { { 8.,.@. .,.,.{ ` X.{ _ P P P / P E Y E B ",
"/ B q , - y *.Q.).].`.).J.P.w.V 8 , = + $ + $ + $ + + @ @ - = = @ ; , , ; , ; , 8 m Q { W ' ! ' ' [ ' _ Q / P P N ( ( P P / W Q ",
"Q b 0 ; 1 V r.z.w.w.8.3.i.y.} y , ; ; ; ; - = = = = = - - - = @ @ = - ; - - = = = 7 m Q [ Q W R / Q Q Q E T N N N R ( P / [ ' Q ",
"! b 1 , t [ ,.V f V T Q m B y , - 1 f E f 1 ; ; ; - = ; < 3 - - - - - ; ; - + + + = > b } ,.W R W Q V Y R R b k k P / _ ..[ R T ",
"Q b 6 1 y _ V t r p b f 8 6 - @ 1 b E ' Y f 9 , , ; - ; ; ; ; - ; ; ; ; ; ; - = = + + : f Q / Y ! Y T V ! ! N N k P / Q _ Y L n ",
"Y m 8 8 t P f r 7 t f f t t 1 t $.C.i.<.) Z g 8 , , ; 1 1 1 , , ; < ; 1 , 1 1 3 - = + + - p Y R Z Q Y ! R { P x d V ( / E Q R C ",
"Q V t 8 f P f 9 8 y b b b m Y [ d.b.z.q.8.{ Z h y 0 0 y h g y y q 0 1 6 0 0 6 1 , - = + = - f B B V ! / @.@./ x f N P ( _ P E n ",
"Q [ b t N P t 3 7 8 8 g C ^ Z ~ ~ $.{ ,.5. .Z C n n g h C C n n h y 6 y y q 6 6 6 , = & = - , b Y ! Q { 3.3.Q N k L N P ( ( V T ",
"I 3.{ f P N 9 - - @ = 1 q g g g h h h g h g y 0 0 6 6 0 y y 0 0 6 6 6 6 0 6 1 1 6 1 ; = - ; , t W / ^ } 3.@.! N N N N L ( P P V ",
"x ;.i.V N Q d 9 3 7 0 0 0 0 6 1 1 0 1 6 1 1 , , ; - - - ; ; - @ @ = = = = @ + = @ = - , 7 8 y t V { ..,.{ [ P L x J L ( P P B m ",
"x @.C.2.N Q Q V B N n C Q Z Z F G F F F G H G F G S S a y 0 1 , , ; , ; ; ; ; ; - - 1 b V Y P y Q { <...{ Q L N N J L K I J N m ",
"K @.s.s.V ! R Y ! ! n ~ $.$.%.} ,.w.%.,.*.3.H %.H H M S S G g h M S g a g g 0 0 q g Q q.5.8.W b ) $.{ { ) ( N x z x x P K J b m ",
"K ( *.s.@.b Q ! ! ~ Q Q $.[ / 2.2.%._ _ =./ M b N f t a S M y y b g y y y 0 0 g Z ,.g.d.5.,.T m { X.' ) ! V k f f f x x J L N N ",
"K &.&.s.i.Y N { ! ' Y m y y t f s s r s s s 9 9 3 3 3 7 7 7 7 8 t t t y t q y C $.C.x.t.{ ] m V ..3.' ( N N f f f z k x x L L T ",
"U =.&.3.t.*.N { <.^ A n g r 7 9 9 8 t 9 r 9 7 3 < > > > < 3 3 7 9 9 t t y p m ..b.z.a.3.@.! b Z @.{ ! N k k s s f d d x L N E ( ",
"U -.&._ *.y.m R 8.<.Z n g p 8 r p b p b f s 9 7 3 < : > 3 7 3 7 8 t 8 y f V ' f.C.z.3.3.3.! f Q ../ N N f d 9 s d s f P ( ( ( P ",
"&.-.&.=.=.&.K m <.$.Z n g y y f E E B m B b r 9 7 3 < < 7 r t p b b f f V ' a.b.M.g.w.8.y.m b Q ) Q m b s r s s s f J J =.U L k ",
"I -.=.-.&.K f ( [ +.! V g g f Q y.d.8.2./ V b f r r r d f N V / W ' E ) ) 3.z.D.s.z.8.b.} b B Q Q ! m f 7 r f k f J K U I I P ( ",
"I =.=.=.&.x w u ( 8.5./ n n m <.x.d.t.<.2...2..._ ( @.=.;.t.t.d.y.8.3.| @.;.s.r.t.a.s.r.[ b Q Y E R N r 9 s J J J N N J I I _ ( ",
"v &.U &.U z 5 4 d ;.g.8.~ { ^ d.b.S.t.t.3.8.w.t.a.M.s.m.M.D.s.z.e.w._ @.w.w.3.3.w.r.3.w.@.Q ! ! ' W f r 9 9 7 f I N d J I &.| *.",
"l I U U U l 2 & 4 x z.C.i.+.8.8.S.m.z.f.P.S.m.c.D.J.M.J.R.P.S.l.i.@.{ ,.3.2.@.@.w.3.3.....[ ....} P d f k e 7 9 x P N N L _ w.;.",
"w J I U K d * % & 4 ( H.b.d.c.f.g.U.J./.R.R.U.R.J.).Q.].`.].M.t.3.3...@.{ ..} ,.} } *.3.5.*.*.@./ L d f d u 7 9 s L L P L _ =.=.",
"w l K U J e & % & * e =.U.z.f.a.f.g.J.J.J.S.Q.R.R.U.W.R.M.D.s.3.8.8.&.../ Q [ [ @.3.t.t.a.t.3..._ x d J d u u e 7 9 f N ( U z d ",
"5 5 v v l e % # % & * r l.].z.i.d.s.r.S.H.U.c.b.a.s.i.;.t.j.e.y.a.3.Q ) ) } [ @.w.t.3.a.b.R.y.=.( x 4 z x l u e : > 7 d d 5 4 4 ",
"% * 2 4 j 5 % O % % & < L  X Xb.t.a.J.J.E.R.J.D.z.c.y.3.8.,.,.@.@.) ! ! o.{ ,.3.5._ r.z.U.U.m._ K d 5 5 u 7 3 7 * % : : > < < 4 ",
"O O # * 4 4 & O O % & > s ).XXM.-./.`. X].oX/.).Y.W.J.K.c.n.y.8...Q T Q / @.3.5.q.4.z.G.G.(.b.I N f d 4 4 > : 4 % # : < 3 9 5 i ",
"O O O % * 2 * O O O & : b /.+X#X=X&X%X%X%X&X=X=X%XOX+X X[.I.Q.R.L.a.| E E ! / @.3.t.Z.J.R._.l.K J e w 4 2 : & & # # < 7 r d f z ",
". . . # % * & # . O $ < @.~. X=X;X:X-X=X=X;X-X:X:X:X=X=X-X&X].|.[.XX!.l.&.P D } s.D.M.~.].V.U J x w : * & & O O O # & < 9 r r d ",
". . . O # & % # . X # d e._.+X@X=X-X-X@X$X$X$X$X*X*X$X$X$X$X{.{.}.{.{.{.{.>.U -.N.B.V.V.'.>.v c l w * & & # O O # # % * 5 5 w u "
};
