/* XPM */
static char *out[] = {
/* columns rows colors chars-per-pixel */
"64 64 203 2 ",
"   c #2B1608",
".  c #4A2415",
"X  c #5C2C1A",
"o  c #68321E",
"O  c #583F2A",
"+  c #763A24",
"@  c #7E3D26",
"#  c #63432F",
"$  c #6E402D",
"%  c #6A4D37",
"&  c #77523D",
"*  c #7F5D46",
"=  c #814A35",
"-  c #8E4B34",
";  c #96523A",
":  c #865540",
">  c #8C5D46",
",  c #9D5943",
"<  c #955F49",
"1  c #A45E45",
"2  c #89664F",
"3  c #9B644E",
"4  c #916A53",
"5  c #9A6F56",
"6  c #AB644A",
"7  c #A16851",
"8  c #AD6D51",
"9  c #A86D58",
"0  c #B36A51",
"q  c #B76F53",
"w  c #A1765D",
"e  c #A7755C",
"r  c #AE755B",
"t  c #B4715D",
"y  c #B97658",
"u  c #A87B63",
"i  c #AE7D64",
"p  c #B77764",
"a  c #BD7564",
"s  c #B27861",
"d  c #B47F64",
"f  c #BB7E63",
"g  c #C1785B",
"h  c #C87E61",
"j  c #C07B6B",
"k  c #BE8466",
"l  c #B3876E",
"z  c #BA876A",
"x  c #BF8B6C",
"c  c #B78C72",
"v  c #BC8E72",
"b  c #C38264",
"n  c #CC8566",
"m  c #C78568",
"M  c #C4816F",
"N  c #C48A6C",
"B  c #CC8C6D",
"V  c #CC8C6E",
"C  c #D18969",
"Z  c #D48C6E",
"A  c #D88F6F",
"S  c #C88973",
"D  c #D08B78",
"F  c #C39072",
"G  c #C69677",
"H  c #C89172",
"J  c #CC9475",
"K  c #CA997A",
"L  c #CF9C7E",
"P  c #D19071",
"I  c #D09072",
"U  c #D29172",
"Y  c #D09273",
"T  c #D39273",
"R  c #D49374",
"E  c #D59475",
"W  c #DA9472",
"Q  c #D79778",
"!  c #D1967C",
"~  c #D89778",
"^  c #D59A7B",
"/  c #D99878",
"(  c #D9997A",
")  c #DB9A7A",
"_  c #DA9A7B",
"`  c #DC9B7B",
"'  c #DB9C7D",
"]  c #DA9D7E",
"[  c #DE9D7D",
"{  c #DC9D7E",
"}  c #DD9D7E",
"|  c #E09E7D",
" . c #E29F7D",
".. c #E2A07F",
"X. c #D89380",
"o. c #DD9E80",
"O. c #DE9F80",
"+. c #D4A082",
"@. c #DFA081",
"#. c #DCA386",
"$. c #D8A485",
"%. c #DCA88A",
"&. c #DFAB8E",
"*. c #DFAF94",
"=. c #E0A081",
"-. c #E2A181",
";. c #E0A182",
":. c #E1A283",
">. c #E3A282",
",. c #E4A383",
"<. c #E5A383",
"1. c #E6A483",
"2. c #E6A585",
"3. c #E7A686",
"4. c #E8A786",
"5. c #E8A787",
"6. c #E9A887",
"7. c #E0A58A",
"8. c #E3AC8D",
"9. c #E7AD8F",
"0. c #E8A888",
"q. c #E9A989",
"w. c #EAA989",
"e. c #EAAA8A",
"r. c #EBAA8A",
"t. c #EBAB8B",
"y. c #EBAC8C",
"u. c #EBAE8F",
"i. c #ECAC8C",
"p. c #ECAD8D",
"a. c #EDAD8D",
"s. c #EDAE8E",
"d. c #ECAE8F",
"f. c #EDAE8F",
"g. c #EDAF90",
"h. c #EEAF90",
"j. c #E4B195",
"k. c #E9B193",
"l. c #EDB091",
"z. c #EFB090",
"x. c #EDB192",
"c. c #EEB192",
"v. c #EFB192",
"b. c #EFB293",
"n. c #ECB496",
"m. c #E6B599",
"M. c #EAB79A",
"N. c #EEB899",
"B. c #EEBC9E",
"V. c #F0B293",
"C. c #F0B394",
"Z. c #F0B496",
"A. c #F1B596",
"S. c #F1B597",
"D. c #F2B596",
"F. c #F2B698",
"G. c #F2B799",
"H. c #F3B899",
"J. c #F2B89A",
"K. c #F3B89A",
"L. c #F3B99B",
"P. c #F4B99B",
"I. c #F4BA9C",
"U. c #F4BB9D",
"Y. c #F5BB9D",
"T. c #F5BC9D",
"R. c #F5BD9E",
"E. c #F5BD9F",
"W. c #F5BE9F",
"Q. c #F1BFA1",
"!. c #F5BEA0",
"~. c #F6BEA0",
"^. c #F6C0A2",
"/. c #F6C1A2",
"(. c #F6C1A3",
"). c #F7C2A3",
"_. c #F6C3A4",
"`. c #F7C3A5",
"'. c #F2C4A5",
"]. c #F7C5A6",
"[. c #F7C6A7",
"{. c #F7C7A8",
"}. c #F7C8A9",
"|. c #F0CBAD",
" X c #F4CDAE",
".X c #F8C8A9",
"XX c #F8C9AA",
"oX c #F8CAAB",
"OX c #F8CBAC",
"+X c #F8CCAD",
"@X c #F8CDAE",
"#X c #F9CEAF",
"$X c #F3D1B3",
"%X c #F0D4B6",
"&X c #F6D4B6",
"*X c #FAD3B4",
"=X c #FAD7B8",
"-X c #F1D8B9",
";X c #F7D8BA",
":X c #F5DBBB",
">X c #FADDBE",
",X c #F6DDC0",
"<X c #F9E1C3",
/* pixels */
"&.e.[ o.] $.+.%.&.j.j.j.*.j.j.j.*.j.*.j.&.k.j.n.*.*.&.*.&.8.7.8.7.8.7.7.:.8.$.#.^ ^ ! ^ ! ! J ! J Y J ! J Y J H B V V I V U V I ",
"&.#.] L ] +.+.#.&.*.j.j.j.*.j.*.*.*.j.&.*.j.k.8.k.&.9.8.8.8.9.7.8.$.#.$.#.#.$.' ^ Q E ! ^ ^ ^ ! ! J H F K J J S S V I I R U T I ",
"+.+.K L #.8.$.#.&.j.&.j.j.j.*.8.8.8.%.&.8.k.8.9.9.9.%.8.q.u.7.q.7.2.:.7.9.8.o.} ` ` R ( O.;._ O.^ L F H H H x N N V m V T R B P ",
"+.L L %.8.u.&.*.M.M.n.n.n.k.j.8.k.8.8.8.k.k.9.9.l.k.8.8.l.9.q.8.q.2.7.q.u.9.7.;.-.} } { :.;.O.o. .+.L K K F x k N m b m V V m n ",
"O.%.#.v.x.Z.k.n.S.Y.K.T.k.n.k.Z.k.x.k.k.k.x.l.C.l.C.k.n.l.J.x.b.u.V.d.l.9.d.<.:.} =.O.-.} ..` o.] ] ! L J H N m b m b m m m n C ",
"f.8.V.S.K.G.I.I.Y.U.K.F.Y.J.G.G.P.K.F.Z.S.G.S.G.K.G.F.S.D.b.f.u.l.z.u.e.r.e.<.| | [ | ` { } ` { $.( Y J J m N m m m m m n n C C ",
"G.I.S.U.U.U.x.K.I.!.x.Z.P.U.Z.K.P.I.Z.G.Z.K.u.S.L.U.l.x.x.x.q.f.f.f.2.e.w.2.) [ [ O.` _ } :.( ] ^ ^ H H S S k b m m b m m n n n ",
"I.K.H.G.E.P.S.Z.I.L.Z.F.T.F.Z.Z.Y.F.G.S.K.C.Z.S.E.L.9.q.l.l.9.q.i.6.q.9.r...[ ) | ` ` _ O.' _ _ ^ Y S m B m b k m b k k m n m h ",
"Z.S.F.I.S.U.Z.K.x.A.S.P.Z.S.G.Z.Z.x.l.Z.x.F.F.T.S.Z.f.f.9.h.q.q.2.y.t.p.2.2.O.o.( { ^ O.{ O.{ ` Y Y S m b m b b k b g h b h b h ",
"S.K.G.I.I.K.C.Z.Z.S.G.K.V.h.x.Z.G.C.Z.x.~.K.!.G.G.G.V.h.h.x.f.9.9.q.f.t.a.2.:.} O._ O.o.@.} o.E T V B m b b h g g g y g g g g g ",
"k.Z.f.G.I.G.h.C.b.G.f.f.x.C.q.V.S.U.x.K.T.{.E.W.I.K.9.u.f.h.2.9.i.h.2.r.i.i.O. .o.;.( O.O.O.Q E R Y b m b b y y y y q q g g y g ",
"H :.q.x.K.V.a.h.C.Z.e.q.f.g.y.9.G.I.I.U._._._.U.U.S.7.o.o.] o.o.} ` _ } ,.-.} ` :.O.' _ ;.' ^ ( T B m k b f y y y y t t a g y g ",
"9 N ' l.f.f.5.h.9.C.d.f.,.q.5.9.h.I.U._.U.U.k.8.] N e 9 3 7 7 r r s y S m Y R ( ( O.' } ( _ Q _ V B m b f f y y t y t y t a g g ",
"9 s H :.i.i.,.5.9.i.i.2.7.:.-.2.f.V.C.l.;.N 9 > = + o X X X X $ : : 3 r s f f f m Y Q E Q E R T V m b k f f f y y y a g y y g y ",
"k f k E q.f.<.w.e.u.2.:._ } R [ :.q.O.V r < + o o X . . X X X + = = = > < 3 , 7 8 y k J Y R m S S m y f f f r y y y 0 q y g 0 q ",
"f f m T 2.q.4.<.r.q.5.O.I B B S R Y m t , : + $ $ $ $ + > 7 i f k 9 3 3 9 7 < < , 3 1 8 y f k f b f t 8 t t 0 8 t 0 0 8 0 0 6 6 ",
"y t k E } q.4.4.<.2.4...m k b m b k t 6 ; = = = : 3 r x ! %.8.8.,.O.Y Y m f 8 7 < < < 7 7 7 9 8 8 8 9 7 7 8 7 6 1 1 1 6 6 6 6 1 ",
"f q q k T :.q.2.2.:.-.` V k f f f y 8 , < ; ; , 6 y B T O.;.2.7.,.;.,.;.O.O.} V y 9 7 7 7 7 7 7 7 7 7 3 7 7 1 1 1 1 1 1 6 6 6 8 ",
"= < 1 t m [ 4.r.2.2.O._ T B f f y 8 , , , , , 6 6 y f B P T m V V I B Y ' :.( Q Y m f y 8 9 7 7 7 9 3 9 9 9 7 6 6 8 6 6 8 t 8 0 ",
". X + - f T 4.h.v.q.7.O./ V b y t 1 ; ; ; ; - - 1 f J ' O.( Y m b f 0 6 q b V I E V m k y t 8 8 8 8 8 8 f y 8 6 8 8 8 t y y y y ",
"O % $ + - m 4.E.K.S.l.i._ B y t 6 1 ; - = + + 7 M D L %.#.,.;.' I B g 8 - ; 6 b S U m m k b f f y k g f y y t y r y y g f b b b ",
"4 5 3 : = f q._.{._.I.V.<.m 6 6 6 < - = + o ; 7 < = : : > 3 r f k f p s 9 ; - , k Y R P B m b n m m m b k f y y y y y y y f f b ",
"T I b m E 2.9.{.@X#XK.V.O.h 1 0 0 , ; ; - @ + + @ X X     . . X o $ $ % & % $ + , b g y y k g b m B m m m m y y g b f b b b f b ",
"Z Z Z P Z 2.I.{.*X#X!.9.R g 0 q g 0 b P B m m S S f 4 $ O X X X X X X X X X X + - 1 1 0 b B R ) [ } ) / ` R k 0 0 8 8 8 t t 0 t ",
"h y q a T K.{.*X@XoXU.i.P g q b C V R <.4.<.` O.( _ ! V f p p k r e 9 9 , 1 8 g t 6 1 h m R Q [ ( ` / ` R m y 8 1 1 7 8 t f k k ",
"1 6 k ,.].}.oX@X@X{.G.-.Z b b m Q ..2.q.a.f._ U P Q / Q E C C n n n m C T R n q 1 6 m } 1.2.<.Q E V V U Y U m y t 8 8 8 y y d d ",
"8.S.U.oXoX@XoX+X(.K.O.E Z E Z / Q 2.1.i.h.Z.9.-.B q 6 0 q q 6 q g g y q q 6 ; , q / ` 2.c.i.=.2...| T ) >.:.V k t 8 7 9 8 r t t ",
"OX.X{.{.oX@X@X].!.q.Q Z E / | | >.4.r.i.h.S.K.V.S.q.! k y 8 1 , , ; ; ; 6 y P -.i.i.,.O.,.<.=.<.4.1.<.2.w.5.R b y 8 9 8 t t t y ",
"@X@X].@XoX#X@X_.V.<.E Z A ` ..r.r.i.i.f.i.Z.S.E.Z.U.K.K.G.~.x.k.7.,.2.x.Z.G.S.K.K.K.i.4.[ [ | 1...1.<.5.1.1.R b q t r t t f f k ",
"*X@X{.@X@X#X].K.h.| E C Z W / [ <.4.r.i.v.C.Z.F.I.P.U.U.!._._._.).!.!.!._.I.S.v.C.h.f.f.e...[ [ >.<.4.2.5.[ U b f y t y k b N m ",
"#X#X).*X>X#XU.Z.i.2.Q Z Z C b h h h g n [ V.h.K.I.U.G.P._.{.!._.{.{._.(.!.G.i.h.f.V.q.i.i.r.) / | 2.:.-.2.` B m k k t b m B m B ",
"*X{._.@X>X#XU.V.h.i.<.) C b g n Z n q 1 0 C ,.Z.E.K.I.U.{.{.{.{.oXoX`.E.(.K.i.q.i.f.i.i.f.q.../ | | | { <.Q J B m m f b I I B V ",
"F.x.U.@X*X@XE.K.h.v.i.-.Z n n ` ..<.Q h , , 0 T :.v.F.!._.OX{.@X_._._.^.!.Y.K.V.i.h.a.f.q.r.2.2./ ) _ _ T T V Y b b g m V Z I I ",
"Z E U.@X#X@X!.I.K.C.2.Q Z Z | q.f.4...Z 0 - ; 1 g T 2.h.I.!._.(.!.E.!.I.K.F.C.V.z.i.a.s.s.i.2...[ Q ~ E Y J J Y V m g b I I R U ",
", ' !.*X&X*X_._.U.l.V h h Z E [ ) Z g q 6 6 1 6 6 q b O.i.F.V.K.S.K.f.Z.V.C.i.i.i.v.1.r.i.h.2.:.} ( V J J J H ! Y m y b V U C C ",
"8 n.OX>X>X<XOX(.q.m 0 6 6 1 , ; ; - ; , 6 y g g g q q k _ ,.4.i.Z.v.9.i.f.5.i.i.h.t.4.4.e.5.-.} ` Y V H E J J Q ^ B m m T P Z B ",
"^ _.*X>X>X>X{.S.b 6 - @ + + + + + = - , 1 q q g g b y q q B Q ..2.r.2.q.4.4.4.i.4.r.4.1.O.;.[ } Y Y H J J J Y ^ Y ! E _ T T C Z ",
"n.{.*X*X*X_.G.Y 6 - + + @ + + + + @ - - ; ; , 6 q y q 0 8 8 y S ( _ } ) [ } ..2.4...=._ { _ ( E T H H ! E J Y J ! [ } ( E P B C ",
"K.{._.E.S.2.b 6 ; - + + + + + + + @ + - - - @ - , , ; ; ; ; ; 7 m Q R E / ` E _ O.' R E / ~ V U J H m Y ^ ! H J ^ :.} o.T U n C ",
"k.8.9.7.q.} y ; - = - - = = = @ = - - - ; = + @ - ; - - : = = = > p I _ } ) T U E R U U E V I N H N S I ` ! H H Q ' ^ Y Y B C n ",
"H f I ! m b 6 - - t b 8 ; ; - - - - ; < , - : - - ; ; ; = = + & + = 9 Y ' O.E Q U E P E U E P B m N m E E E H J N H H J m m n C ",
"r 9 f y 8 6 - - 8 b H k 8 1 , ; ; - ; ; < < ; ; ; ; ; ; ; > : = + + = 3 k E / R U U I P E E R S S m N V Q J k N N N H V B V C n ",
"9 9 8 y 0 8 , y :.q.Q P b t , , ; ; ; 1 1 1 ; , , 1 , 6 8 8 3 < : = + = < k V T R R I Q _ { E J S N k H ! J z x F J H H S I B C ",
"7 9 s f y f m R 7.f.q.) E n q 6 0 0 q g b q 0 0 0 6 0 0 y t 7 7 < : @ = : , f V R Q Q Q } ) _ Y H N N H ^ F x N H K J N S V B V ",
"7 9 r y f V P T T ) [ [ E Z n n h n h n h n h g q q q y q 0 0 0 1 ; = = - ; 6 m U ) _ | { ..[ Q H S N J H x z F F L H N k m b S ",
"< = = - 1 q y y g g g g y q 0 q 0 6 6 6 0 6 6 , , 1 , , , ; ; , 1 < - - ; , 8 g R ) | | ;.[ _ T H N S V F x x x K L H N m N N m ",
"9 > @ - ; - - - , , , , , , - - - - @ = = = + + + @ + @ @ = + = = - ; 8 y f y y T O.) [ } O.T T H J N H F x i z F H x N S S k m ",
"k f r y b y 0 6 0 6 , , 6 1 6 6 0 0 0 6 6 6 , , 6 6 6 0 0 q 0 6 6 0 m ~ ` } R y T O.} { .._ E V H H N b x f d f F x z N J H N N ",
"f V B Z Z / X.X.X.Q X.X.D D M M M M a M M M j M g b g g g g g g b Q q.f.-.q.) m U O.O.>.` _ T J S H N x d f f F f d m N S E Y I ",
"N m Q Z Z E E T X.Q X.D D D M y t 9 9 0 a y q q g y y y y q y n ) 4.l.q.2.2.E m / ` | } ( I S S N N k k d d k f s N H N ! ^ ^ ! ",
"L E T Y C m t 8 r r 9 9 9 9 7 7 7 > > < 3 7 3 9 8 t 8 y y f f Q q.C.q.r.e.7.m m / -.( _ T J k m N N f s s z d s f F N L ] ] J H ",
"+.%.^ Q P k t 7 9 7 7 7 8 9 9 7 3 > > > < 3 7 7 9 8 t y f b H -.u.h.d.d.l.` m B ) [ ( T T m m N H N p 9 s x s s x F K L +.H N k ",
"H +.^ ' R V y 8 7 7 9 9 t y y r 7 7 < < < 3 9 s r f f b b I E <.q.x.V.C.9.O.U R _ } R R B B B H S N r 9 s H z z F K K L K L ! ! ",
"H +.^ ! ( J b t 8 7 9 y V I V m k d s 9 9 s k m Y ! ^ ( ' ' :.q.9.x.x.9.0._ E E O.Q T V B V T J H b 9 9 f z K F N N H H K +.o.! ",
"v +.L H K J N k f y 8 b =.2.O.! V Q E ^ ^ $.] 8.k.l.2.q.0.9.,.q.8.k.2.0.,.} T E O.{ V I T R V J J z r 9 9 9 f K x N z H L #.@.#.",
"l K L K F N H B m B m Q 4.r.<.:.,.-.e.7.q.8.8.k.Z.n.8.8.9.7.7.;.8.8.7.=.,.} ( ^ O.{ E ! { _ ! J H f f d i e r N H H N H ^ $.7.8.",
"w F K L z e d N Y 0.;.r.:.,.q.f.2.9.N.C.l.G.I._.!.!.G.8.o.,.7.8.#.,.{ o.( { ] o.} ' O.O.{ ^ ^ Y N d d f i w 9 s f J H H ! +.] +.",
"w l G L z 5 > e x %.l.S.v.5.h.q.f.C.H.K.!.!._._._.(.E.j.9.9.2.,.2.o.R Y Q R _ { o.:.3.0.0.#.] ! H i x x d u u 9 7 s k H L F d e ",
"5 w v v d 5 % > 5 F ! n.E.S.2.e.i.x.9.Z.K.K.l.K.I.U.k.8.9.s.2.3.o.' I ~ ~ { _ o.7.8.7.9.x.b.] ! F e 5 F z l u 5 = 3 9 d r 5 4 4 ",
"% * 4 5 i 4 # % & > 9 K {._.f.0.2.h.x.x.R.H.v.l.l.t.2.>.2.-.=.{ O.~ Q E { ` @.:.o.,.9.x.U.S.7.J F d 5 e e 7 3 3 & + : : > < 4 4 ",
"O O # > 4 4 % O O % * 9 #.OXE.:.8.!.`._./.U.T.U.Z.H.V.V.q.i.2.=.E E I Q ~ O.;.,.O.>.g.G.G.^.8.K z i d 4 4 > : 4 % % > < 3 9 5 i ",
"O O O % > 2 * O O O & ; Y _.#X].&X=X*X*X*X;X;X#X@X@XoXXX_.I.W.U.Z.7.! Y ! E _ o.:.f.C.J.!.).&.G F e w 4 2 * & % O # < 7 r d f z ",
". . . # % * & # . O $ < o.!.XX;X,X<X:X;X;X,X:X<X<X<X;X;X:X=X]..X[.OXQ.j.+.J S ' u.S.n.!.].B.L F x w : * & & O O O # & < 9 r r d ",
". . . O # & % # . X # d 8._.#X$X;X:X:X$X%X%X%X%X-X-X%X%X%X%X|.|. X|.|.|.|.*.L %.m.M.B.B.'.*.v c l w * & & # O O # # % * 5 5 w u "
};
