/* XPM */
static char *out[] = {
/* columns rows colors chars-per-pixel */
"64 64 202 2 ",
"   c #4A2415",
".  c #5C2C1A",
"X  c #68321E",
"o  c #583F2A",
"O  c #763A24",
"+  c #7E3D26",
"@  c #63432F",
"#  c #6E402D",
"$  c #6A4D37",
"%  c #77523D",
"&  c #7F5D46",
"*  c #814A35",
"=  c #8E4B34",
"-  c #96523A",
";  c #865540",
":  c #8C5D46",
">  c #9D5943",
",  c #955F49",
"<  c #A45E45",
"1  c #89664F",
"2  c #9B644E",
"3  c #916A53",
"4  c #9A6F56",
"5  c #AB644A",
"6  c #A16851",
"7  c #AD6D51",
"8  c #A86D58",
"9  c #B36A51",
"0  c #B76F53",
"q  c #A1765D",
"w  c #A7755C",
"e  c #AE755B",
"r  c #B4715D",
"t  c #B97658",
"y  c #A87B63",
"u  c #AE7D64",
"i  c #B77764",
"p  c #BD7564",
"a  c #B27861",
"s  c #B47F64",
"d  c #BB7E63",
"f  c #C1785B",
"g  c #C87E61",
"h  c #C07B6B",
"j  c #BE8466",
"k  c #B3876E",
"l  c #BA876A",
"z  c #BF8B6C",
"x  c #B78C72",
"c  c #BC8E72",
"v  c #C38264",
"b  c #CC8566",
"n  c #C78568",
"m  c #C4816F",
"M  c #C48A6C",
"N  c #CC8C6D",
"B  c #CC8C6E",
"V  c #D18969",
"C  c #D48C6E",
"Z  c #D88F6F",
"A  c #C88973",
"S  c #D08B78",
"D  c #C39072",
"F  c #C69677",
"G  c #C89172",
"H  c #CC9475",
"J  c #CA997A",
"K  c #CF9C7E",
"L  c #D19071",
"P  c #D09072",
"I  c #D29172",
"U  c #D09273",
"Y  c #D39273",
"T  c #D49374",
"R  c #D59475",
"E  c #DA9472",
"W  c #DD9876",
"Q  c #D79778",
"!  c #D1967C",
"~  c #D89778",
"^  c #D59A7B",
"/  c #D99878",
"(  c #D9997A",
")  c #DB9A7A",
"_  c #DA9A7B",
"`  c #DC9B7B",
"'  c #DB9C7D",
"]  c #DA9D7E",
"[  c #DE9D7D",
"{  c #DC9D7E",
"}  c #DD9D7E",
"|  c #E09E7D",
" . c #E29F7D",
".. c #E2A07F",
"X. c #D89380",
"o. c #DD9E80",
"O. c #DE9F80",
"+. c #DD9986",
"@. c #D4A082",
"#. c #DFA081",
"$. c #DCA386",
"%. c #D8A485",
"&. c #DCA88A",
"*. c #DFAB8E",
"=. c #DFAF94",
"-. c #E0A081",
";. c #E2A181",
":. c #E0A182",
">. c #E1A283",
",. c #E3A282",
"<. c #E5A382",
"1. c #E4A383",
"2. c #E5A383",
"3. c #E6A483",
"4. c #E5A484",
"5. c #E6A585",
"6. c #E7A686",
"7. c #E8A786",
"8. c #E8A787",
"9. c #E9A887",
"0. c #E0A58A",
"q. c #E3AC8D",
"w. c #E7AD8F",
"e. c #E8A888",
"r. c #E9A989",
"t. c #EAA989",
"y. c #EAAA8A",
"u. c #EBAA8A",
"i. c #EBAB8B",
"p. c #EBAC8C",
"a. c #EBAE8F",
"s. c #ECAC8C",
"d. c #EDAD8D",
"f. c #EDAE8E",
"g. c #ECAE8F",
"h. c #EDAE8F",
"j. c #EDAF90",
"k. c #EEAF90",
"l. c #E4B195",
"z. c #E9B193",
"x. c #EDB091",
"c. c #EFB090",
"v. c #EDB192",
"b. c #EEB192",
"n. c #EFB192",
"m. c #EFB293",
"M. c #ECB496",
"N. c #E6B599",
"B. c #EAB79A",
"V. c #EEB899",
"C. c #EEBC9E",
"Z. c #F0B293",
"A. c #F0B394",
"S. c #F0B495",
"D. c #F0B496",
"F. c #F1B597",
"G. c #F2B698",
"H. c #F2B799",
"J. c #F3B799",
"K. c #F3B899",
"L. c #F2B89A",
"P. c #F3B89A",
"I. c #F3B99B",
"U. c #F4B99B",
"Y. c #F4BA9C",
"T. c #F4BB9D",
"R. c #F5BB9D",
"E. c #F5BC9D",
"W. c #F5BD9F",
"Q. c #F5BE9F",
"!. c #F1BFA1",
"~. c #F5BEA0",
"^. c #F6C0A2",
"/. c #F6C1A3",
"(. c #F6C2A3",
"). c #F7C2A3",
"_. c #F6C3A4",
"`. c #F7C3A5",
"'. c #F2C4A5",
"]. c #F7C5A6",
"[. c #F7C6A7",
"{. c #F7C7A8",
"}. c #F7C8A9",
"|. c #F0CBAD",
" X c #F4CDAE",
".X c #F8C9AA",
"XX c #F8CAAB",
"oX c #F8CBAC",
"OX c #F8CCAD",
"+X c #F8CDAE",
"@X c #F9CEAF",
"#X c #F3D1B3",
"$X c #F0D4B6",
"%X c #F6D4B6",
"&X c #FAD3B4",
"*X c #FAD7B8",
"=X c #F1D8B9",
"-X c #F7D8BA",
";X c #F5DBBB",
":X c #FADDBE",
">X c #F6DDC0",
",X c #F9E1C3",
/* pixels */
"*.y.[ O.] %.@.&.*.l.l.l.=.l.l.l.=.l.=.l.*.l.l.l.q.=.*.=.*.q.0.q.$.$.%.&.%.$.%.%.^ ^ R ^ ! ! H ! H U H ! H U H G N B B P B I B P ",
"&.$.] K ] @.@.$.q.=.l.l.l.=.l.=.=.=.l.*.=.l.z.q.q.*.q.q.q.q.q.0.$.$.$.$.$.$.$.] ^ ^ R ! ^ ^ ^ ! ! H G D J H H A A B P P T I I P ",
"K @.J K &.*.%.&.*.l.q.l.l.l.=.q.l.l.&.*.q.z.q.w.w.w.&.q.q.z.4.e.4.5.$.0.e.q.o.o.` ` R ( O.:._ ] ^ K D G G G z M M B n B Y T N P ",
"K K K %.q.&.%.%.l.l.l.l.M.z.l.q.z.q.q.q.z.a.w.w.a.a.q.q.a.a.q.q.e.5.4.4.a.w.4.:.;.[ } { >.:.O.o.$.@.K J J D z j M n v n B B n b ",
"%.&.$.l.l.z.l.M.l.M.M.M.z.m.z.m.z.M.z.z.z.v.x.A.x.A.z.M.x.M.M.m.a.a.g.x.w.p.1.;.[ :.O.;.o...o.$.] ] ! K G G M M v n v n v n b V ",
"q.q.z.F.L.m.m.M.R.H.L.G.M.M.H.H.U.L.G.D.H.H.F.H.L.H.G.F.F.m.m.a.x.c.a.y.u.y.<.| | [ | [ :.[ O.] %.( U H U n M n n n n n b b V V ",
"m.U.F.T.T.T.v.L.Y.~.v.I.U.T.D.P.L.Y.m.H.D.P.a.F.I.T.a.b.b.v.r.h.h.d.5.y.t.5.) [ [ O.` O.:.>.( ] ^ ^ G G A A j v n n v n n b b b ",
"Y.P.K.H.W.U.F.D.Y.I.F.G.I.G.D.D.R.G.H.S.L.m.S.F.L.F.p.r.x.x.p.r.s.9.r.w.u.:.[ W | ` ( _ O.] _ _ ^ U B n B n v v n v j j n b n g ",
"D.F.G.I.U.T.D.P.v.F.F.U.D.F.H.F.m.H.x.S.m.G.G.H.S.D.w.h.w.k.e.e.5.p.i.d.5.5.O.O.( { ^ O.{ O.{ ` U P A N v n v v j v f g v g f g ",
"F.F.J.L.Y.H.m.m.S.F.H.M.m.k.b.S.L.m.m.S.F.P.U.H.H.F.m.j.k.x.i.w.i.e.h.i.t.1.>.o.o._ O.o.#.} o.Q Y B N n v v v f f f t f f f f f ",
"m.m.h.H.U.F.w.A.m.H.a.h.b.A.e.Z.F.T.v.I.E.{.~.Q.U.U.w.a.h.x.e.w.i.j.6.u.i.j.O. .o.:.( O.O.o.Q Q T U v v v v t t t t 0 0 f f t f ",
"0.a.m.b.J.Z.t.k.A.D.m.r.d.j.p.w.F.I.Y.I._._.~.T.T.F.a.q.e.0.0.0.0.:.:.1.t.6.} ` >.O.' _ :.' ( ( Y N n j v d t r t r r r d f t f ",
"d ] e.a.h.h.8.k.w.A.a.a.1.r.8.w.a.Y.T.~.T.(.T.V.q.$.A j s l d l d j s A G U T ( ( O.' } ( _ ~ _ B B n v d d t t r r r t r p f f ",
"8 j R 6.p.i.7.8.w.s.w.e.0.;.;.5.h.m.L.F.a.] M e 6 : + # # X # * : , 6 e s d v v B U ^ R ~ R R Y B n v d d d d t t t p f f t f t ",
"e t j o.r.h.2.t.i.a.1.;.) } T ` e.x.e.) j 6 * O X .           X % * * : , 6 < 6 7 d n P U T n N B n t d d d e t t t 9 0 t f 9 0 ",
"d d n Y 5.t.6.1.u.r.8.O.R P N P Q ( T t 6 ; O # # . . X # * : 4 6 , , , 2 6 , , 2 2 < 7 d v v d v d r 7 r r 7 7 r 9 9 7 9 9 7 5 ",
"r t v R } r.7.7.2.5.7...n j v n v n d 7 - * + + + * , e l H %.0.] U z v d a 6 6 , 2 2 6 6 6 e e 7 7 7 6 6 7 6 5 < < < 5 5 5 5 < ",
"d 0 r b ) ;.t.5.5.:.1.` B j d d d t 7 > - = = - < 7 v Y o.:.4.4.1.:.1.:.O.( R v 8 8 6 6 6 6 6 6 6 6 6 2 < 6 < < < < < < 5 5 7 7 ",
"2 < < d P ;.7.u.5.5.O.( Y N d d t 7 < > > > - < 5 t v P T R P T T R U Q ' ;.) Q B n r t 7 8 6 6 6 8 2 6 8 8 6 5 5 7 5 5 7 r 7 9 ",
"  # * 6 v Q 7.c.b.e.0.o.~ B v t r < > - - - - = < 7 v B Q I N n v d 7 r v P B P R B n d t r 6 7 8 7 8 7 d r 7 7 7 7 7 r t d t d ",
"  . # O > P 7.W.P.F.a.p._ B d r < < - = = * O - d S ] q.q.e.:.] P N d < = > r v A I n v j d t d r d d d t t r t e t t f d v v v ",
"# & ; O O d t.(.{.~.I.m.1.n 9 5 5 , = * O X * 6 8 6 w s l l z z M j d a 6 - = 6 N U T P N n v b b n n v d d t t t t d t d d d v ",
"M A a e t ) w.[.@X@XI.Z.1.b < < 9 > = = + O O * + . .       . % ; ; % : ; * # O 6 N v v d d f v n N v n n n t t d v d v v v d v ",
"C C C R ` e.I.}.%X@X~.w.W f 9 0 0 < r t t 7 7 e e 6 %                   . . . O = < < 9 d v P R [ [ ) / ` T d 9 7 7 7 7 r r 9 r ",
"V b g p b S.(.@X%XXX~.s.P f 9 f g v P 2.<.2.` o.R ) U j e 8 6 4 : , , , = ; > r r 5 < d b T Q ` ( ` / ` T n r 7 < < 6 7 r d j j ",
"9 5 7 B L.}.XXOX+X{.F.;.C v f g Q ....t.d.t._ I R [ [ Q R V V b b v b b Y T b t < 5 n [ 3.7.<.Q R P T I U I B t r 7 7 7 t t s s ",
"P ] w.(.XX+X}.OX}.~.4.( C V g V Q 5.3.w.k.S.p.~ v t 9 f f 0 9 0 f b g b f 0 - > 9 R [ 5.t.s.-.5...| Y ) ,.;.B j r 7 6 8 7 e r r ",
"(.}.[.[.XX+X+X[.~.b.` C R E | W ,.<.i.d.c.F.P.Z.j.) d 7 7 5 < > > - - = > 7 v ` d.d.1.O.1.2.-.<.7.3.<.5.t.<.T v t 7 7 7 r r r t ",
"[.+X[.+XXX@X+X(.J.e.R C Z W ..u.u.s.s.h.p.S.L.W.H.T.L.~.H.M.$.] R Q ( 1.q.H.F.L.m.P.i.7.` [ | 3...3.2.8.3.3.T v r r e r r d d j ",
"@X+X}.+X&X@X[.P.k.| R V C E ..7.t.6.u.s.n.A.F.G.Y.U.T.T.~.(._.~.).~.~.~._.L.F.x.A.k.h.i.y...W [ ,.2.7.5.<.[ I v d r r t j v M n ",
"@X@X[.&X-X%XT.S.p.5.Q C C b g b b b g E 7.Z.c.P.I.T.H.~.(.}.~.}.{.{.~./.~.H.s.d.d.Z.t.s.s.u.) / | 5.>.;.;.) B n j v r v n N n N ",
"&X{._.OX-X@XT.Z.k.p.| R V v f g C b 7 < f R i.S.W.P.Y.T.{.[.{.{.XXXX`.T./.P.i.r.s.h.s.s.h.r.../ [ | O.{ :.Q P N n n d v P P N B ",
"T.V.T.OX%X+XW.H.k.c.i.;.C b g E ..| V f > < d ( ;.n.G.~._.oX{.+X_.}._.^.~.R.P.Z.p.d.d.h.t.u.5.<./ ) ( _ ! Y B U v v d n N P P P ",
"W ~ T.+X@X}.~.U.F.F.a.W C C E <.h.7...C 9 = - < d T 6.k.Y.~._./.~.W.~.T.P.J.L.Z.c.s.d.f.f.t.5.:.[ ~ ~ R ! H U U B n d v P P ! I ",
"5 T ~.@X-X%X_._.T.H.E b b C W <.<.| g f 5 < > < 5 t v o.i.G.m.P.F.P.x.D.Z.A.p.c.i.c.3.u.s.k...:.} ( B H U H G ! R n t v B I V V ",
"< q.oX-X:X-XOX/.H.~ d 7 r 0 9 5 < > > > < 9 f f f 0 0 d ( ;.e.s.S.m.p.i.h.i.j.d.k.i.7.7.y.7.;.o.` U B G R H H ^ ^ N n n Y L C N ",
"U (.&X:X:X-X}.T.R r > = + O O O O + = > < 9 0 f f f t 0 0 b Q ;.6.p.5.t.7.t.7.s.7.t.6.3.O.<.[ } U U G U H H U ^ U ! Q ( I I V C ",
"M.{.&X-X-XOX~.$.t - O O + + O O O + = = - - > 5 0 t t 7 7 7 t T ( ) } ) [ } O.5.7...-._ { _ ( Q Y G G ! ! H U H ! ] } ( R P V V ",
"L.{.}.[.(.V.^ d < = O O O O O O O + + = = = + = > > - - > - - 7 n Q T Q ( ) R _ [ ' T R / ~ B I H G n U ^ ! G G ^ 1.] ] Y I b V ",
"H.M.M.z.z.4.v < = * + = * * * + * = = = - * O * = - = = * * * * 2 i P ) } ) Y I R T I I R B P M G M A P ] ! G G ^ ] ^ U I N b b ",
"! M ] ] R B d > = < d 7 - - = = = = - > > = * = = - - - * * O % O * 7 U ' O.Q R I R P R I R L B n M n ! Q R M P M M G H n b b V ",
"s 8 v v r 7 > = > t G d 7 < > - - = - - , , - - - - - - - : ; * + O * 2 j Q ( T P I P L R R T A A n M B Q G z M M M G G N B V b ",
"e 8 e t 7 7 > < ^ e.Q P v r < > - - - < < < - > > < > < 7 7 2 , ; * O * , j B I T T P Q ~ { R G A M j G ! H l z D H G G A P N V ",
"8 6 a d t d d N 0.h.r.) R g 0 7 7 < 7 0 f 0 7 9 9 5 9 9 t r 6 < , ; + * ; > d B T Q Q Q } ) _ U P M M G ! D z M G J H M A B B B ",
"6 e t d d b P Y Q ;.;.<.R C g b g b g g g b g f 0 0 0 f 0 9 9 9 < - * * = - 5 n I W _ | { :.[ ^ G A M G G z j D D K G M j n v A ",
", = = - < d v d d v n n v f f t f 0 t 9 0 9 0 5 < 5 < 5 < < < < < , = = = - < t T ) | | :.[ _ Y G M A B D z z z J K G M n M M n ",
"6 * O + - = = = > < 5 < > > = = = = + * * * + O O + O + + * O * * = = < 8 r r t B O.) [ } o.Y Y G H M G D z u l D G z M A A j n ",
"d e 6 7 r 9 < < 5 < - = > - - - < > > > < > - - > > > > < 5 < 5 5 < t B R ^ T t B O.[ { .._ R B G G M v z d s d D z l M H G M M ",
"d B N b C / X.X.S Q S S S n h h m h p m h m h m f v f f f f f f f P <.i.;.t.~ n I O.O.,.` _ U P A G M z s d d D d s z M A ! U P ",
"M n R N C R R T X.+.X.S S S A h r a r 7 p t 0 0 f t t f t 0 f b I 7.x.r.5.5.R b / [ | [ ( P A A M z j j s s j d a M G M ! ^ ^ ! ",
"K R Y U b v r t a s e e r r 6 6 6 , , , 2 6 2 8 e r 7 r t d d P <.A.e.e.y.6.b b / ;.( _ Y H j n M M d a a l s a d D M H ] ] H G ",
"K &.^ Q L j r 6 6 6 6 6 7 8 6 6 2 , : , , , 6 6 8 r r r d v n ( a.k.a.a.j.1.n N ) [ ( Y I n n M G M s 8 a z a a z D J K @.G M z ",
"G @.^ ' T B d 7 6 6 8 8 r t t e 6 2 , , , 2 2 8 e d d v v N R 1.e.m.m.A.w.1.I T ) [ T T N N B G A z e 8 a G l l D J J K J K ! ! ",
"G @.! ! ( H v r r 6 8 r B P B n j s a 8 8 e s v U ! ^ ( ] ] >.7.w.v.v.w.e.O.R R [ Q T B B B I P G j 8 8 d z J D M M G G J %.o.! ",
"c @.K G H H M j d t 7 v -.5.O.! B R ! ^ ^ %.] q.z.z.5.e.e.w.4.r.q.z.q.e.1.o.I Q O.{ B P U Q B H H l e 8 8 8 d J z M j G K $.#.$.",
"k J K J D z G N n N n R e.u.1.>.1.;.4.e.e.q.q.z.V.M.z.q.w.e.0.:.q.q.0.-.4.} ( ^ O.{ R ! ] _ ! H G d s s u w e z G M M M ^ %.q.q.",
"q D J K l w s M U e.:.u.>.1.e.a.e.w.S.A.x.F.I.(.~.T.V.m.4.4.0.q.$.0.{ o.( { ] o.] ' o.o.] ^ ! H M d s d u q 8 a d H G G ! %.%.@.",
"q k F K l 4 : w z 0.x.F.c.8.i.r.h.x.L.P.~.~._._._.(.W.M.a.w.5.q.5.o.T I Q T _ ] O.>.e.e.e.$.] ! G u l z s y y 8 6 a z G K D s w ",
"4 q c c s 4 $ & 4 D H M.W.S.5.y.p.b.w.S.L.T.x.L.I.T.a.a.w.f.5.6.1.' P ~ ~ { ( O.1.q.0.w.v.x.] ! D w 4 D l k y 4 * 2 8 s e 4 3 3 ",
"$ & 3 4 u : @ $ % : 8 H {.~.a.e.e.x.b.b.U.K.n.j.x.i.5.,.5.;.-.[ O.~ Q R { ` #.>.o.0.w.v.I.F.0.H D s 4 w w 6 2 2 % # ; ; : , 3 3 ",
"o o @ : 3 3 $ o o $ & 6 $.oX~.>.q.~.`._.T.T.I.U.D.K.m.b.r.s.<.-.R R P Q ~ O.:.1.O.,.j.H.H.^.q.J l u s 3 3 : ; 3 $ $ : , 2 8 4 u ",
"o o o $ : 1 & o o o % - U _.@X].%X&X&X&X&X-X-X@X+X+XXX.X(.Y.Q.L.D.4.! U Q R _ o.>.h.A.L.~.).*.F D w q 3 1 & % $ o @ , 6 e s d l ",
"      @ $ & % @   o # , o.~..X-X>X,X;X-X-X>X;X,X,X,X%X-X;X*X[.[.[.oX!.l.K H A ' a.F.M.~.[.C.K D z q ; & % % o o o @ % , 8 e e s ",
"      o @ % $ @   . @ s q._.@X#X-X;X;X#X$X$X$X$X=X=X$X$X$X$X|.|. X|.|.|.|.=.K &.N.B.C.C.'.=.c x l q & % % @ o o @ @ $ & 4 4 q y "
};
