/* XPM */
static char *out[] = {
/* columns rows colors chars-per-pixel */
"64 64 228 2 ",
"   c #2B1608",
".  c #4A2415",
"X  c #5C2C1A",
"o  c #68321E",
"O  c #583F2A",
"+  c #763A24",
"@  c #7E3D26",
"#  c #63432F",
"$  c #6E402D",
"%  c #6A4D37",
"&  c #77523D",
"*  c #7F5D46",
"=  c #814A35",
"-  c #8E4B34",
";  c #96523A",
":  c #865540",
">  c #8C5D46",
",  c #9D5943",
"<  c #955F49",
"1  c #A45E45",
"2  c #89664F",
"3  c #9B644E",
"4  c #916A53",
"5  c #9A6F56",
"6  c #AB644A",
"7  c #A16851",
"8  c #AD6D51",
"9  c #A86D58",
"0  c #B36A51",
"q  c #B76F53",
"w  c #A1765D",
"e  c #A7755C",
"r  c #AE755B",
"t  c #B4715D",
"y  c #B97658",
"u  c #A87B63",
"i  c #AE7D64",
"p  c #B77764",
"a  c #BD7564",
"s  c #B27861",
"d  c #B47F64",
"f  c #BB7E63",
"g  c #C1785B",
"h  c #C87E61",
"j  c #C07B6B",
"k  c #AC836B",
"l  c #BE8466",
"z  c #B3876E",
"x  c #BA876A",
"c  c #BF8B6C",
"v  c #B78C72",
"b  c #BC8E72",
"n  c #C38264",
"m  c #CC8566",
"M  c #C78568",
"N  c #C4816F",
"B  c #C48A6C",
"V  c #CC8C6D",
"C  c #CC8C6E",
"Z  c #D18969",
"A  c #D48C6E",
"S  c #D88F6F",
"D  c #C88973",
"F  c #CC8A78",
"G  c #D08B78",
"H  c #D38E7E",
"J  c #C39072",
"K  c #C69677",
"L  c #C89172",
"P  c #CC9475",
"I  c #CA997A",
"U  c #CF9C7E",
"Y  c #D19071",
"T  c #D09072",
"R  c #D29172",
"E  c #D09273",
"W  c #D39273",
"Q  c #D49374",
"!  c #D59475",
"~  c #DA9472",
"^  c #DD9876",
"/  c #D79778",
"(  c #D1967C",
")  c #D89778",
"_  c #D59A7B",
"`  c #D99878",
"'  c #D9997A",
"]  c #DB9A7A",
"[  c #DA9A7B",
"{  c #DC9B7B",
"}  c #DB9C7D",
"|  c #DA9D7E",
" . c #DE9D7D",
".. c #DC9D7E",
"X. c #DD9D7E",
"o. c #E09E7D",
"O. c #E2A07F",
"+. c #D89982",
"@. c #DD9E80",
"#. c #DE9F80",
"$. c #DF9F80",
"%. c #D99E87",
"&. c #D4A082",
"*. c #DFA081",
"=. c #DCA386",
"-. c #D8A485",
";. c #DCA88A",
":. c #DFAB8E",
">. c #DFAF94",
",. c #E0A081",
"<. c #E2A181",
"1. c #E3A181",
"2. c #E0A182",
"3. c #E1A283",
"4. c #E3A282",
"5. c #E4A281",
"6. c #E5A382",
"7. c #E4A383",
"8. c #E5A383",
"9. c #E5A483",
"0. c #E6A483",
"q. c #E5A484",
"w. c #E6A584",
"e. c #E6A585",
"r. c #E7A685",
"t. c #E7A686",
"y. c #E8A786",
"u. c #E8A787",
"i. c #E9A887",
"p. c #E0A58A",
"a. c #E3AC8D",
"s. c #E7AD8F",
"d. c #E8A888",
"f. c #E9A888",
"g. c #E9A989",
"h. c #EAA989",
"j. c #EAAA8A",
"k. c #EBAA8A",
"l. c #EBAB8B",
"z. c #EBAC8C",
"x. c #EBAE8F",
"c. c #ECAC8C",
"v. c #ECAD8D",
"b. c #EDAD8D",
"n. c #EDAE8E",
"m. c #ECAE8F",
"M. c #EDAE8F",
"N. c #EEAF8F",
"B. c #EDAF90",
"V. c #EEAF90",
"C. c #E4B195",
"Z. c #E9B193",
"A. c #EDB091",
"S. c #EEB091",
"D. c #EDB192",
"F. c #EEB192",
"G. c #EFB192",
"H. c #EFB293",
"J. c #ECB496",
"K. c #E6B599",
"L. c #EAB79A",
"P. c #EEBC9E",
"I. c #F0B293",
"U. c #F0B394",
"Y. c #F0B495",
"T. c #F1B495",
"R. c #F0B496",
"E. c #F1B596",
"W. c #F1B597",
"Q. c #F2B596",
"!. c #F2B697",
"~. c #F2B698",
"^. c #F2B798",
"/. c #F2B799",
"(. c #F3B799",
"). c #F3B899",
"_. c #F2B89A",
"`. c #F3B89A",
"'. c #F3B99B",
"]. c #F4B99B",
"[. c #F4BA9B",
"{. c #F4BA9C",
"}. c #F4BB9C",
"|. c #F4BB9D",
" X c #F5BB9D",
".X c #F5BC9D",
"XX c #F5BC9E",
"oX c #F5BD9E",
"OX c #F1BFA1",
"+X c #F5BEA0",
"@X c #F6BEA0",
"#X c #F6BFA0",
"$X c #F6C0A1",
"%X c #F6C0A2",
"&X c #F6C1A2",
"*X c #F6C1A3",
"=X c #F6C2A3",
"-X c #F7C2A3",
";X c #F6C3A4",
":X c #F7C3A5",
">X c #F2C4A5",
",X c #F7C4A5",
"<X c #F7C4A6",
"1X c #F7C5A6",
"2X c #F7C6A7",
"3X c #F7C7A8",
"4X c #F7C8A9",
"5X c #F0CBAD",
"6X c #F4CDAE",
"7X c #F8C8A9",
"8X c #F8C9AA",
"9X c #F8CAAB",
"0X c #F8CBAC",
"qX c #F8CCAD",
"wX c #F8CDAE",
"eX c #F9CEAF",
"rX c #F3D1B3",
"tX c #F7D1B2",
"yX c #F0D4B6",
"uX c #F6D4B6",
"iX c #FAD3B4",
"pX c #FAD7B8",
"aX c #F1D8B9",
"sX c #F7D8BA",
"dX c #F5DBBB",
"fX c #FADDBE",
"gX c #F6DDC0",
"hX c #F9E1C3",
/* pixels */
">.H.h.f.] L d k w k J U &.&.;.>.C.C.C.C.C.C.C.C.K.K.L.P.P.+XL.P.L.P.P._.W.`.W.Q.A.H.x.D.B.U.m.B.d.g.7.d.q.2.] } ! / / ] ) ) E R ",
":.j.b.c.r.! l k u k I &.&.;.C.C.C.C.C.C.K.C.K.L.L.L.|.&X$X>X-X&X$X&X$XXXoX{.{.{.`.W.T.G.I.B.G.v.c.d.t.7.e.4.O.[ ] ] ] ]  .] ) R ",
"L ^  .0.8.{ x z z b U &.:.C.C.L.P.P.K.L.|.,X=X;X9X9X;X9X7X9XoX$X%X*X_.'.|.XXR.(.W.H.j.c.z.G.h.j.d.y.2.<.,.5./ { [ ..)  .) ^ T A ",
"J S ~ ^ ^ ~ L U C.L.L.L.=X=X=X=X7X2X,X=X2X;X$X=X7X4X7X2X,X-X@X@X*XoX).~.[.(.R.Q.).I.d.d.G.b.y.0.e.y.i.2.,. .] ] X.] {  .) / R A ",
"c o.^ ` ~ ^ 2.B.Z.(.~.XX'.@X-X2X$X2X;X1X$X,X[.@XoX2X;X7XXX$X X#X{.{.R.~.U.~.W.`.R.W.b.H.y.j.y.y.4.t.j.d. ...[ ..[ $.X./ W W m A ",
"K ^  . .o.^ <.y.j.c.v.W.XX'.#X%X-X*X,X*X=X|.(./.XX$X1X2XXX'.).~.|.|.].W._.XX[.[.`.Q.R.V.n.g.u.w.j.j.j.r.7.@.#. .2.@.2.` Q A Z Z ",
"K 6.W L c d 9 i u d z | Z.-XW.|.$X,XXX*X,X[.B.U.$X2XXX$X|.(.B.U.$X-X].$X-X2XXXXXXX|.g.d.q.3.| 3.t.j.5.3.3.y.) o.7.q.../ ! A m m ",
"P C r < : & % # # O # & e K | s.(.|.|.oX<X(.m.x.XX$X#X(.T.D.x.x.(.-X=X-X7X;X$X_.W.d._ C L l x c l d M C T R ) X.3.<...[ S Z h M ",
"M t , < 3 e 5 : # O o $ + < 9 B | s.U.~.Q.U.z.G.U.^.R.R.j.j.g.G.T.XXXX#X$XP.:.P c 9 : & & + + : > < 7 s f n B Y Q ` [ [ C Z h n ",
"L n E =.s.J.L.:.K i 7 < < , 1 y M W 7.G.I.T.B.n.B.B.B.j.j.7.e.q.j.W.W.D.p.c 3 = $ X . . . . X X $ $ = > 3 1 7 9 f M R Q C M h g ",
":.g.7.m.G.W.J.~./.Z.3.&.Q C f l n C Q j.M.T.j.B.l.G.d.d.q...` X.r.b.2.Q r < + # X X . . X $ + : : : = : < < : > < 9 8 n M n y g ",
"s.g.7.q.g.d.q.7.s.p.3.<.#.! C C T C R <.b.M.m.j.n.m.l.3.Q V C R W ! T t > : $ $ $ $ + > 7 d L E L f 9 9 9 7 > > < < > < 8 y y a ",
"3.q.4.e.R M ! s.R.'.U.m.X.C f f M [ | t.t.c.g.j.t.B.c.t.M n n n n M t 1 - = @ = = 3 9 B E 3.7.a.q...E P C n s 9 < 3 < > : < 1 t ",
"B.<.1.C t | _.+X$X'./.m.d. .M t 0 n ~ o.i.b.g.c.l.j.h.y.M y f f f t 8 , ; ; ; , 6 y V Q _ ......@...../ | ' Q n l e 3 > > : , 6 ",
"R.j.W y C L.J.L.:.=.E E L C f g 0 a n ! <.m.j.b.j.N.r.<.Y M y f y 8 , ; ; ; ; , 1 t l D C M f n f t 8 y M Q C T C n 9 3 > > - , ",
"W.R.A y =.C.L 5 * $ X . X $ = ; 6 0 y V  .j.T.W.~.G.S.2.[ V f t 8 1 ; - ; = + - y _ =.p.p.=.! C M t , - = 1 f V C n f s 9 7 7 8 ",
"7.b.A n L 3 X .     .       . X $ - 6 M A i.XX:X].].T.c.[ V t 8 , ; - = $ o = f N D N x d r i s r r 9 7 : + > B D T M n y l y y ",
") X.W y : .   . . . O       . X # X @ t { i.-XeX9X-X|.R.7.f 6 , , - @ $ X $ 3 - = X X .     . . X . X O $ $ X 3 P P n n n n l n ",
"f y , = - 3 : < 3 3 : & % % % : = + + 1 y.T.-XiXpXiX_.D.[ t , 1 ; - = @ $ @ $ @ + O .         .         . . . $ 8 8 1 y f n f y ",
"C M f f ! g.d.7.p.2._ L E C B n l n Y { W.[.7XpXsXwXXXd.Z 6 , 6 6 6 n n V V V L E L u 4 : : : : : & : : = $ + , 8 6 M Q ,.6.O.Y ",
"N.W.T.j.|  .q.j.r.d. .{ Y Y Y S S ~ Z ,.(.,X9XsXpXeXXXd.M 8 1 q m V ! y. ./ Q { #.7.,.! M M V C n n y f n M Z l , y n C ` o.{ M ",
"z.M.I.I.T.y. .` ! A A W ! A A m g q m G.+X,XeXtXeX,XW.X.M q y g A  .7.9.j.5.[ V M Z C m h a 0 0 g Z ~ A A h 6 - 8 [ $.A f y 8 6 ",
"j.].B.[.+XXX<.A h n y g a 0 1 1 f 3.|.2X7XwX9XeX9X$X7.Q m M h A Y <.5.i.j.c.u.d.W y , , 1 1 1 6 1 6 ; ; - - , V X.#./ o.Q t t n ",
"m.I.W.|.-X2X%XoXB.o.Z a n n V 3.+X7X2X,X9X9XeX9X7XT.{ m m Z S ` 9.<.y.4.l.j.D.U.(.R.g.@.Q n 8 1 1 1 1 t C [ t.t.r.$.T / 7.#.! M ",
"y.T.[.$X-XwXeXqX$X@X[.[.|.:X,X7X;X2X;XwX8XpXeXeXXXz.) m M A ~ <.5.i.r.i.y.G.G.(.T.).~.{.+X$X&X#XG.~.T.Q.G.I.m.n.t.,.Y C  .t.3.n ",
"B.(.XX,XqXeXiXeX7X+XXX|.,X9XqX4X7X;XwXeXiXsXwX,XW.r.) m Z Z m m m A ~ ^ y.G.T.(.[.Q.W.XXoX+X:X*XoX{.(.~.G.N.j.i.r.7.o.C ) <.5.f ",
"U.$X|.2XtXsXiXiX9X-X(. X9XeX9X9X$X9X2XtXsXfX,XXXU.m. .` S Z a y y 0 1 1 g  .c.(.[.XXW.@X,X7X*X-X%X:X).{.B.B.<.d.y.y. . .Q 5.[ n ",
"(.@X-X2XiXpXgXsXwX,X$X2XtXeX8X,X9X9XeXiXhXhX7X].T.B.c.i.r.Z a y A A g 6 , 6 Z j.[.XX(.XX,X7X-X,X,X$X`./.T.M.r.0.d.y.5.O.[ ) X.M ",
"I.,X-X7XwXsXsXfXwXeX7XqX9XqX9X7X-X7XwXpXgXsX,XXXU.).T.(.9.S h h ` r. .~ 0 ; , f | U.(.-X-X-X,X2X$X+XXX(.m.N.j.j.r.i.8.0.} / { E ",
"].$X,X9XeXqXpXeXiX9X9X7X2X,X^.m.(.-XeXpXgXtX7XXX[.XXXXj.A h h A y.r.<.^ f ; - ; t W i.W.XX~.@X[.XX).[.I.G.b.y.r.k.d.0.8.,.! / C ",
"(.[.XX%X2X7X;X8X,X$XW.U.m. .g Z T.7X2XsXgXsX,X,X$X:Xj.C t 0 0 h m M y q 6 6 6 6 6 t M 7.b.W.x.).(.T.c.c.G.b.r.u.j.c.<.2.2.} Q ! ",
"G.(.[.[.*X XXX].T.j.` Z a 1 8 7.,X7XtXgXhXhXgX9X7XB.V 8 , - @ @ @ + @ - , 0 y y y y q M ,.i.b.j.N.b.j.i.c.i.y.y.j.9.o.$.5.[ W Y ",
"j.b.T.].{.[.T.i.^ Z q , - 8 g.7X4XtXsXhXhXhXgXeXW.Y 6 - $ $ + @ + + @ ; , 6 0 q q g y y n ` <.y.5.r.7.0.6.t.e.i.$.,.@.O.| [ ! W ",
"i.c.G.I.~.B.o.~ M 0 ; - y s.2XtXeXiXgXhXhXpXeX,X| 8 - + + + + $ $ + @ @ - ; ; 1 8 a y q 0 f Y ` o.{ { { o.$.5.<.} } ^ ' ' / R V ",
"d.c.r.j.G.9.Z n 8 ; = t Z.7X2XeXpXiXeXtXqX2Xs.| y , @ + + + $ + + $ $ + = = @ @ ; 1 , , 1 1 8 M ) ) R ) ` ] ! { ' ' E E ! [ T T ",
"y.y.r.0.y.A g 8 ; - 6 / _.7X9X9XeX>XP.P.XXd.M 1 ; - @ @ - @ @ @ @ = @ = - @ + + = - - - - - = 3 N [ [ [ [ ! R Y ! Q E B P E Q E ",
"o.9.o.0.^ M 0 , - 1 V 2.R.|.s.s.s.d.y.g.d.j.C 8 , 8 M f 1 , ; ; - - ; , , : = - = - - - @ + $ + > l |  ...Q Y R Y ! W B C ! / ) ",
"{  . . .Q f 6 ; ; n Q | g.C l n _ _ / D n r ; @ ; n | C y 6 , , - - - ; , ; ; ; ; - ; ; : = & + + > f Q [ ) W T ! ! E l L ! ) W ",
"{ #.~ ) Z t , ; 1 Y C T E s 8 r M C f 8 6 ; @ , Y @.{ { Y M 6 1 , ; ; , , 1 ; ; , 1 ; , 1 7 > = + @ = t R R V R / @._ l L / Z A ",
") ) ) ! M t 1 ; 6 C c M c 9 8 t n n l 8 8 1 8 | ].].i.2.o.A g 0 6 6 1 a a q 0 6 8 6 6 6 8 8 1 > = + + - f C Q ! @.@.| B C Q T T ",
"C ` ! [ n y 8 , 1 B l B s 8 8 n f M M n n C Q d.m.B.j.j. .~ Z Z g g h m Z A Z m q 8 0 y 8 8 1 , = @ + = ; M ! } @.p.| L B ! Q Y ",
"C ! ' ' M 0 f 1 6 V B e d t t y y n n A ,.,.[ ` [ ]  . .` S Z Z m h h h M m m q 0 0 0 0 0 6 6 6 ; = @ - ; y / { p.3.=.L P E E C ",
"l _ ` ,.V t f f t Q s , 1 , - ; ; 0 y m Z A m A Z Z h g a a 6 1 ; , ; , , , - = - - @ = = - = - = : ; 1 6 t Q o.q.7._ J J P E E ",
"l { 7.0.| y y E n V l 1 , = @ = , 1 1 6 0 8 0 q a 0 6 6 6 6 1 1 1 , , ; ; - @ = = = @ @ + + + $ = 1 p n l y /  .5.#.E c L K P C ",
"f [ t.B.s.P t L ! n n l f p y f n g g h M m D F N H H H H H H Z G G N a a a q y 0 0 0 y 6 6 , 1 8 W { 6.n M ` ,.] | L L L P L V ",
"x L p.B.R.d.l s | _ Q T C C C M M S ` <.,...+.p.g.a.C.p.p.| H F D N N a N j a g g g g q 0 0 0 g ,.i.5.o.M V ' } } E c B U U B B ",
"K U [ B.U.!._ y B 5.W R ] ! A ) m ` ^ } +.@.Q +.+.+._ +.P N p y t 9 7 t 8 8 8 a 0 q 0 8 0 y l 7.I.j.) R n { #.@.L C x B K K n B ",
"I U I p.T.^.B.C s _ [ C R T A ) A n M y y p t t t 9 9 9 e 9 3 < < 3 < 3 3 3 7 9 t t 8 6 0 n #.m.R.q.} M M o.$.! V x d l c L c M ",
"P -._ %.j.].W.d.f f | { _ ` ) ^ m y 8 8 3 7 7 9 9 9 9 9 9 9 7 3 < > > > > < 3 7 9 8 8 t n ..B.R.d.2.[ n M @.' C s d d x x L M T ",
"I -.-.-.=.D.U.m.E r C <.3.#.] A M f y 8 8 8 r s d p d p r 9 7 3 > > < > < 7 9 9 9 8 t n [ z.D.B.q.3.A y Y / C f s d d d L L E _ ",
"&.;.&.-.%.p.d.B.3.n s o.i.5.~ S m f 0 y y n f l M D l f s r 7 3 < 3 > 7 e f f f f n l [ B.W.v.s.s.d.n M Q / n s r s e B P _ E L ",
"&.-.-.=.;.&.@._ @.P s E b.y.` S m y y y V 2.2.{ X.` C M n s e r r r s f L ! / Q ! Q [ d.R.H.s.j.x.[ n Z ) W f r s r f J U &.L B ",
"I -.=.-.-.U x e c | B B 9.e.^ O.Z g a V { G.M.B.j.l.<.X.{ E B L E &.=.:.d.g.d.u.....2.B.s.j.a.x.d.C M Q C s r f i l L E E ( I ( ",
"K -.;.-.-.J u : 4 u B [ i.j. .^ ~ m m { G.B.R.g.9.9.j.d.g.g.d.s.s.s.R.Z.J.s.r.@.....t.s.g.d.j.s.p.C T Q M e x K J J B L P P U ( ",
"b &.&.&.U b e > * 4 4 K m.(.3.<.t.o.^ m.B.).B.H.m.B.z.D.A.G.d.L._.L.K.R.J.p.' @.3.j.3.r.d.z.q.s.=.[ T Y s r 9 r U J f c L &.| p.",
"z I U U U z 4 & & * * e :.'.D.<.c.l.<.c.].T.~.^.'.).R.H.'.W.R.+X7X;X#XL.J.p.[ X.7.7.3.2.s.d.g.d.p.' ' B x e 7 9 c I B c L P =.p.",
"w J I &.I z * % & & * 5 U +X&XB.<.B.y.u.(.[.XX#X|.#XXX#X-X-X,X2XP.+X:.=.d.z.q.3.[ | @.3.p.B.D.B.=.%.E x d k w e s L L C B U &.| ",
"w x K U J e * # % % * 4 x +X7X(.y.i.j.j.W.U.(.XX$X|..X|.+X,X=XL.L.s.p.e.j.t.7.) [ _ 2.7.d.R.(.Z.=.| J x d d u e 7 r l J I I z i ",
"5 5 v b x w % # % & % 4 9 L.2X,Xz.j.<.0.D.].H.Y.[.].s.v.D.H.a.d.d.z.7.7.7.7./ { } 7.X.q.T.].W.Z.=.U e d J k u e : < 7 r x w 4 4 ",
"% & 2 4 k 5 & O # # % : 7 :.9X,XD.7.7.).,X$X|.(. XE.F.m.F.b.7.,.e.,.' / ..[ ] } d.d./ s.'.XX|.s.&.J i 3 u w 5 7 : % : > > > 4 > ",
"O O # * 4 4 * O O # % : 7 s.9X>X-.L.-X7X9X0X3X3X+X&X|.+XR.H.B.z.q.,.W Y T ' { t.t.g.7.H.).$XXX=.K i x 5 4 * > 4 & O : 3 3 9 3 i ",
"O O O % * 2 * O O O % = f W.eXtXiXsXuXtXiXsXgXdXtXwXiX7X7X+X@X}.].Y.@.E E ! / [ *.e.H.W.|.&XJ.P J u i 5 4 : & & # # < 7 r d f x ",
". . . # % * & # . O $ < @.+X8XsXgXhXdXsXsXgXdXhXhXhXuXsXdXpX1X1X2X0XOXC.&.P D } x.W.J.+X1XOXU J c w * * & & O O O # & < 9 r r s ",
". . . O # & % # . X # d a.;XrXrXsXdXdXrXyXyXyXyXaXaXyXyXyXyX5X5X6X5X5X5X5X>.U ;.K.L.L.>X>X>.b v k w * & & # O O # # % * 5 3 w u "
};
