/* XPM */
static char *out[] = {
/* columns rows colors chars-per-pixel */
"64 64 230 2 ",
"   c #2B1608",
".  c #4A2415",
"X  c #5C2C1A",
"o  c #68321E",
"O  c #583F2A",
"+  c #763A24",
"@  c #7E3D26",
"#  c #63432F",
"$  c #6E402D",
"%  c #6A4D37",
"&  c #77523D",
"*  c #7F5D46",
"=  c #814A35",
"-  c #8E4B34",
";  c #96523A",
":  c #865540",
">  c #8C5D46",
",  c #9D5943",
"<  c #955F49",
"1  c #A45E45",
"2  c #89664F",
"3  c #9B644E",
"4  c #916A53",
"5  c #9A6F56",
"6  c #AB644A",
"7  c #A16851",
"8  c #AD6D51",
"9  c #A86D58",
"0  c #B36A51",
"q  c #B76F53",
"w  c #A1765D",
"e  c #A7755C",
"r  c #AE755B",
"t  c #B4715D",
"y  c #B97658",
"u  c #A87B63",
"i  c #AE7D64",
"p  c #B77764",
"a  c #BD7564",
"s  c #B27861",
"d  c #B47F64",
"f  c #BB7E63",
"g  c #C1785B",
"h  c #C87E61",
"j  c #C07B6B",
"k  c #AC836B",
"l  c #BE8466",
"z  c #B3876E",
"x  c #BA876A",
"c  c #BF8B6C",
"v  c #BF8470",
"b  c #B78C72",
"n  c #BC8E72",
"m  c #C38264",
"M  c #CC8566",
"N  c #C78568",
"B  c #C48A6C",
"V  c #CC8C6D",
"C  c #CC8C6E",
"Z  c #D18969",
"A  c #D48C6E",
"S  c #D88F6F",
"D  c #C98270",
"F  c #C88973",
"G  c #CC8A78",
"H  c #D08B78",
"J  c #D38E7E",
"K  c #C39072",
"L  c #C69677",
"P  c #C89172",
"I  c #CC9475",
"U  c #C09379",
"Y  c #CD917C",
"T  c #CA997A",
"R  c #CF9C7E",
"E  c #D19071",
"W  c #D09072",
"Q  c #D29172",
"!  c #D09273",
"~  c #D39273",
"^  c #D49374",
"/  c #D59475",
"(  c #DA9472",
")  c #DD9876",
"_  c #D79778",
"`  c #D1967C",
"'  c #D89778",
"]  c #D59A7B",
"[  c #D99878",
"{  c #D9997A",
"}  c #DB9A7A",
"|  c #DA9A7B",
" . c #DC9B7B",
".. c #DB9C7D",
"X. c #DA9D7E",
"o. c #DE9D7D",
"O. c #DC9D7E",
"+. c #DD9D7E",
"@. c #E09E7D",
"#. c #E29F7D",
"$. c #E2A07F",
"%. c #DD9E80",
"&. c #DE9F80",
"*. c #DF9F80",
"=. c #D4A082",
"-. c #DFA081",
";. c #DCA386",
":. c #D8A485",
">. c #D7A88D",
",. c #DCA88A",
"<. c #DFAB8E",
"1. c #DBAB91",
"2. c #DFAF94",
"3. c #E0A081",
"4. c #E2A181",
"5. c #E3A181",
"6. c #E0A182",
"7. c #E1A283",
"8. c #E3A282",
"9. c #E4A281",
"0. c #E4A382",
"q. c #E5A382",
"w. c #E4A383",
"e. c #E5A383",
"r. c #E5A483",
"t. c #E6A483",
"y. c #E5A484",
"u. c #E6A584",
"i. c #E6A585",
"p. c #E7A685",
"a. c #E7A686",
"s. c #E8A786",
"d. c #E8A787",
"f. c #E9A887",
"g. c #E0A58A",
"h. c #E3AC8D",
"j. c #E7AD8F",
"k. c #E8A888",
"l. c #E9A888",
"z. c #E9A989",
"x. c #EAA989",
"c. c #EAAA8A",
"v. c #EBAB8B",
"b. c #EBAC8C",
"n. c #EBAE8F",
"m. c #ECAC8C",
"M. c #EDAD8D",
"N. c #ECAE8F",
"B. c #EDAE8F",
"V. c #EEAF8F",
"C. c #EDAF90",
"Z. c #EEAF90",
"A. c #E4B195",
"S. c #E9B193",
"D. c #EDB091",
"F. c #EFB090",
"G. c #EEB091",
"H. c #EDB192",
"J. c #EEB192",
"K. c #EFB192",
"L. c #EFB293",
"P. c #ECB496",
"I. c #E1B49A",
"U. c #E6B599",
"Y. c #EAB79A",
"T. c #EEB899",
"R. c #EEBC9E",
"E. c #F0B293",
"W. c #F0B394",
"Q. c #F0B495",
"!. c #F1B495",
"~. c #F0B496",
"^. c #F1B596",
"/. c #F1B597",
"(. c #F2B596",
"). c #F2B697",
"_. c #F2B698",
"`. c #F2B798",
"'. c #F2B799",
"]. c #F3B799",
"[. c #F2B89A",
"{. c #F3B89A",
"}. c #F3B99A",
"|. c #F3B99B",
" X c #F4B99B",
".X c #F4BA9C",
"XX c #F4BB9C",
"oX c #F4BB9D",
"OX c #F5BB9D",
"+X c #F5BC9D",
"@X c #F5BC9E",
"#X c #F5BD9F",
"$X c #F5BE9F",
"%X c #F1BFA1",
"&X c #F5BEA0",
"*X c #F6BEA0",
"=X c #F6BFA0",
"-X c #F6C0A2",
";X c #F6C1A2",
":X c #F6C2A3",
">X c #F7C2A3",
",X c #F6C3A4",
"<X c #F7C3A5",
"1X c #F2C4A5",
"2X c #F7C4A5",
"3X c #F7C4A6",
"4X c #F7C5A6",
"5X c #F7C6A7",
"6X c #F7C7A8",
"7X c #F7C8A9",
"8X c #F0CBAD",
"9X c #F4CDAE",
"0X c #F8C8A9",
"qX c #F8C9AA",
"wX c #F8CAAB",
"eX c #F8CBAC",
"rX c #F8CCAD",
"tX c #F8CDAE",
"yX c #F9CEAF",
"uX c #F3D1B3",
"iX c #F7D1B2",
"pX c #F0D4B6",
"aX c #F6D4B6",
"sX c #FAD3B4",
"dX c #FAD7B8",
"fX c #F1D8B9",
"gX c #F7D8BA",
"hX c #F5DBBB",
"jX c #F6DDC0",
"kX c #F9E1C3",
/* pixels */
"2.J.t.q./ B k k w z T T L :.1.~.U.T.U.2.>.2.2.A.2.A.2.A.A.U.2.U.2.2.1.2.<.U.S.P.A.2.1.<.<.A.g.h.g.g.;.7.&.6.X.../ ^ ~ ' ~ ' ^ / ",
"<.z.l.r.*.P z k u d L T T >.A.S.Y.A.I.1.1.1.A.2.A.A.A.A.A.U.A.A.U.<.1.2.2.A.U.A.A.<.,.:.<.<.h.g.g.6.&.7.7.6.O.X.4.&.6.6.*.#.4...",
"K o.@.5. .P i i u z U T T >.1.A.Y.2.>.>.>.2.1.2.A.U.2.A.U.Y.2.A.U.2.>.1.2.2.2.2.2.2.=.:.<.2.,.,.,.g.%.a.a.x.9.y.d.k.4.y.y.d.#.#.",
"b ( S S N s w w u k K L R ,.1.2.A.2.>.:.1.2.1.1.I.2.2.A.U.U.2.A.U.2.1.1.2.2.2.2.A.2.>.,.<.<.<.<.j.j.k.k.C.N.c.k.c.a.y.9.d.i.#.@.",
"b ( Z Z g r w w e k K R T :.>.2.1.<.:.:.:.,.1.2.2.A.2.U.I.U.A.U.2.2.2.A.2.A.A.Y.A.U.A.S.A.Y.P.~.n.L.N.D.z.v.c.z.4.q.4.t.@.-.o.#.",
"c / M h g s e w e k K R R =.1.1.,.g.g.g.g.,.<.<.2.A.A.A.U.U.Y.Y.U.A.U.A.Y.[.R.oXoX[.[.[.).~.(.~.L.L.C.N.C.z.k.y.4.7.7.@.&.{ } #.",
"z ( h h g y 7 5 e z b R =.1.:.<.<.k.6.g.g.D.h.A.T.R.Y.oX%X:XR.=X-X:XT.oXoXoXT.=X-X>X!.'.[.'.N.L.L.E.k.M.C.Z.y.0.8.a.#.-.+.+...4.",
"x / M h h y e w u z b R >.,.;.;.j.k.i.c.L.L.E.~.oX.X@X#X<X:X-XR.;X&X@X~.|.(.{.oX>X=XW.L.~.L.L.C.G.M.N.C.L.Z.v.t.d.9.*.+.4.%.4.t.",
"z Q M M g f r e e z K =.:.,.6.h.g.j.i.z.a.v.v.Z.c.L./.*X#X>X&X*X.X*X@X|.C.L.H.*X|.@Xn.C.v.Q.L.(.N.L.G.~.L.L.N.z.7.0.&.&.$.u.y.a.",
"z E M h m f r e i x K ] g.6.g.<.i.=.P l f d x x c I g.Y.[..XOX|.OX X).~.L.n.D.[.[._.V.k.j.c.G.~.|.]..X[.@XL.C.b.7.O.{ ] ....{ ~ ",
"x / M M h l r e d P K X.g.y.X.=.x 7 > > = $ $ % # % * i I g.,.H._.].n.L.M.b.k.(.~.L.7.7.y.c.k._.*X*XT.oXT.H.h.g.] B r r s d r s ",
"K I M h N l i e f P P | g.g.I f 8 7 9 e e < & # # $ $ = < r B _ c.F.M.Z.v.y.i.C.W.i.&.O.7.9.k.G.]._.L.j.<.R K r < : $ $ $ & = : ",
"x T C V l l r e r I I 6.7.i.^ C ^ <.<.S.<.2.R x e 7 7 , ; 6 f B Q x.M.G.7.k.i.z.g.6... .} @.4.M.n.v._ B < : + o X . . . . X $ $ ",
"c T I B m f i u i L I g.k.4.-.7.j.j.j.D.D.j.j.6.=.I C m f y f m W O.l.v.l.i.i.g.i.7._ W E W _ +.&.E r ; + o . . . . . X $ = > : ",
"K T P P c c s f f c P c.v.t...y.z.a./ ^ ^ ^ C _ ~ Q m m m m m W / -.e.l.k.y.3.a.l.y.N m m N m V N 8 - @ $ o X o $ = < 7 l F s s ",
"T T L P K c x d d f ! b.L.c.4.o.-.N t B h.D.j.y.y.| ^ B f 8 t N } &.t.l.k.e.9.e.d.5.m y f f f y 8 , = @ + @ = > 7 s l P ] ] ! C ",
"T R T R L L K K s s ^ j.j.!.a. .l 8 C Y.Y.<.I x r s p f y 0 6 f N { u.c.y.i.7.9.o.+.N y t y t 8 1 - = : = ; ; 7 8 y y y f f f l ",
"=.=.R R =.R R R P y ^ 4.n.V.k.~ 8 s :.L 5 % . .     . o ; 1 6 0 h Z } l.Z.v.g.7.4.^ N f y 8 8 , ; = - = = @ - 1 y m m f y t 7 ; ",
"=.=.T R =.=.T ;.j.W W o.4.c.7.Q 8 9 < X . . . #         X + - 1 y V E z.!.(.a.k.a.O.N l y 8 1 ; - @ $ o o : 7 x l f p p l f r 9 ",
"=.=.R R =.=.=.A.3Xg.Q Q  .E M f 6 : o . X # # O .     . % + o @ , N ~ a.=X-X~.Z.V.y.E y 6 , ; - @ + . . + : o O O .   . O $ $ $ ",
"=.=.R =.R R T a.a.O.N ' / m 0 ; - 8 f l d r 5 < % # % * 5 ; @ + @ f 4.M.=XrX<XoXL.M./ q ; ; - @ + $ . X o o . . .               ",
",.:.:.:.=.R R ] ) ( } d.v.4.' ~ / -.L.Z.D.n.a.{ ] ! C V N f r r y W L.L.7XsXiX5X.Xj.V 1 , , - = - @ + : 3 7 5 > & $ o $ & % $ $ ",
"1.h.:.:.,.<.O.0.S M E m.L. XL.(.M.d.o.a.p.7. .{ ~ / V E Z S A ( / i.(.@XyXgXiXeX#Xv.l 1 , 1 1 1 f W W ^ _ O.| X.! N y m V l 1 8 ",
"h.<.:.:.,.:.&.a.V.) } z.F._.]. XoX].z.' ~ E Z Z S E Z Z V h y q W Z.#X-XsXaXsX7X#Xi.m 6 1 8 g V C }  ./ / / | } } Z h g g g g M ",
":.,.:.g.=.:.l.V.F.) o.m.F. X X#XOX-XL.l.E M y h m h y q 8 8 q / ~.<X:XeXyXsXrX2XW.%.g q 0 g g ~ o.e.t.i.' V y f y g 0 0 0 y y m ",
"h.g.g.g.<.g.x.p.t./ #.M._.].].#X-X;X>X*X].k./ g 0 8 0 8 m 6.;XqX7X:XqXrXyXyXeX&Xk.~ m h M A S ^ 9.s.t.N.!.v._ g 8 1 1 , ; ; - - ",
"b.j.g.h.j.S.t.l. .S 4.F.]..X_.-X:X7X;X0X*X*X(.~.(.!.D.oX6XeX<X0XwXqX5XyXsXsX<X[.6.A h M A +.5.#.t.z.5.v.!. XL.(.~.D.-.O.| ^ V Q ",
"b.k.g.h.j.k.v.C.t.} l.V. XOX#X&XqXqXqX7X0X-X{.(.+X@X-X5XrX5X;X5XyXtXyXiXgXrX=XG.#.A h M S ) #.5.s.k.d.v.L.|.[.].*X X).[.@X[.E.E.",
"y.h.6.k.;.;.k.Z.) #.t.G.Q.OX@X<X5XsXsXsXqX>X[. X_.-X5XeX<X>X=XrXyXsXsXgXiXwX@XV. .^ M M m h h m h Z } M.V. X]..X.X=X#X-X|.].E.E.",
"y.y.7.-.;.-.7.z.) t.V.(.#XOX=X<XqXiXsXsXyX;X.X[.&X0XwX5X*X#X0X7XsXsXjXjXsX-X].M.l.#.[ M y q q q 6 1 8 V p.]._.(.@X-X>X-X#X XOXL.",
"i.i.+.;.7.;.O.s.( p.t.!. X>X*X7XqXdXsXsXyX7X&X-X4XrX<X5X:X>XOX5XiXgXgXkXsX2XB.Z.v.C.a.( h y h A M q - ; f *.k.(.-X<XoX*X=X+XF.L.",
"i.7.%...7.6.7.k.@.q.5.M.].|.@X2XwXrXeXrXyX6X;X=X-X-X+XL.v.a.!.-XyXsXgXjXsX2X!.C.L.L.l.[ M g S @.@.Z 1 - ; 8 V 4.L. X_.(.].!.V.M.",
"%.-.X.-.%.7.k._.a.f.9.v.F. X[.;X&X<X>X5X#X@X(.~.M.i.[ D y } [.5XqXgXgXgXrX5X.XOX_.L._ M y h ( #.S h 6 , ; , 1 m _ a.v.V.m.V.l.f.",
"$.X.-.%.7.7.i.!.F.c.t.l.Z.!.@X X@X.X#X(.Z.l.4.( M y 1 , M (.-X3XyXgXgXgXsXeX5X&X[.{ y 8 8 0 y 0 1 1 1 8 q 0 6 6 f ^ o.p.c.k.a.5.",
"3.7.] ..7.6.4.M.V.M.} p.B.!.L. X X_.z.p.4.[ g q 1 - - F R.eX5XwXsXkXkXkXkXgX3X+X7.f , = @ @ + @ = ; , 8 q y 0 0 6 y m ^ +.4./ _ ",
"X.] { { O.X...k.m.w.[ } l.z.Z.F._.M. .S V y 6 - = , W P.rXtXtXyXsXkXkXjXgXeX-X7.l ; @ $ @ + + + = = - ; , 1 0 0 6 1 1 y ~ / W E ",
"^ ] / ] / ] _ g.i.-.^ [ #.i.t.v.a.*.V h 0 1 - - 1 { P.:XqXsXiXyXqXsXqXwXT.T.g.l , = + + + + $ + + @ = = @ - ; , - ; - ; r C C W ",
"^ ! / ! _ / ] [  ./ Z E  .#.q.5.+.E g 0 1 - - 1 W h.&X5XqXyXyX:XoXoX/.j.+.C y 1 - @ + $ + $ + @ @ = = @ + @ - - = = + @ = r C ~ ",
"W ! F I ! ! C _  .~ h Z / 4.@.o./ M 6 , ; - , m | H.[.R.oXoXj.k.z.M.v.a.W 8 ; ; - - @ = @ = @ = - ; - @ @ = = = = + + + + = 7 C ",
"V N B N P V W ' $.[ E A S ) } [ V y 1 ; ; , y C ] j.g.C C ! _ ^ ' ^ ~ C f 1 ; 1 f f , - ; - = = - ; ; = - : = : : = & + $ $ @ 1 ",
"l x l B l B C O.@.0.} ^ Z / } / M y 1 , , 8 m N ! _ f t 8 l C E l 8 8 7 - @ - y m m y 8 , , - - = - - ; - ; - ; > < > = + + + = ",
"x x l c B B F | w.i.a.} Z V ^ E N y 1 , 1 y l f F l r 8 8 t f f f 6 1 ; - ; N +./ W M f 8 1 , ; , 1 1 , , 1 , 1 , , , ; = + + @ ",
"f l l l F P B O.a.G.v.y.Q V V C E N 1 1 6 B l l l s 1 8 8 f y N N y 1 8 8 F @.d.9.} M h g q 1 1 8 y 0 q q 6 , 6 1 , ; ; - = + = ",
"x x l c P K I ;.D.L.H.H.O.m N ~ _ ~ y 8 t C l s 9 e 8 8 s l l m Z M N Z / ~ / o.#. .Z h M g q q 8 0 q q 0 1 , , ; - = @ = = : ; ",
"d K c c c K K 6.D.`.L.].g.F l C | O.Q l y ! l 9 , ; < , < 1 6 y h Z A Z M V Z A V D g q 0 1 , , ; ; - - @ @ @ @ + $ + = ; 9 y f ",
"x K T L K K T ;././.`.(.D.! l l ^ &.-.^ C N l s 7 , - = - ; 6 0 q q t 0 q y q 0 0 6 1 , , - - - - = @ @ @ @ = @ - ; , 6 m ! ..N ",
"I R R =.R R P =.P.oXL.~.(.g.l m W &.&.%.O.] N N m B f f f f g h N D a a a j y y a v y j p p 9 6 0 6 , 6 6 8 6 0 0 q q A #.@./ m ",
"T R R =.=.] ` ! j.~.J.L.].j.! m W | 6.-.&./ V C E W W W F l N W ! W Y H J G H H / H F j m p t 8 y 0 0 0 y q 6 6 0 y M *.4._ V g ",
"L =.:.:.:.=.R =.T h.n.L.N.L.O.N f ! &.i.&./ C W M ~ ^ ] Q B l B l l F H G H F F v l s 9 7 7 7 7 7 7 8 0 0 0 6 8 q M ..a./ / g m ",
"T :.=.=.:.=.R T ] T 6.7.h.i.g.C m N ] -.6.+._ _ / / Q E E V m s s 9 w s f f s r 9 7 3 < < < > > < < 7 8 8 t 8 8 m / k.&.{ V y N ",
"=.,.=.:.:.:.T K i f I R T ` / _ W C C O.t.9.[ ( / _ W ^ ^ E m l r s 7 s f l s r r e < < > < > > < 3 < 3 8 r 8 l / g.] ;._ m y C ",
"=.,.:.:.,.=.P w 2 5 T T T P ! i.j._ / +.4.@.} [  .[ ^ E W V N l f f y f B B l s r 7 < < < < < < 7 7 9 7 r y m C 6.6.&.] F m m m ",
"T ,.:.,.=.=.i 4 > 2 i K I ] O.D.[.i.O.4.} |  ...'  ./ ^ N W C I F C F F C I m f r 9 5 7 3 5 7 s s p s f f F ] O.%.6.%.C l N N l ",
"P =.,.:.:.L e > * 2 < 5 x =.H.&X:XL.i.i._ ~ {  .o.o.} ~ / O.7.7.7.6.&.&.g.X.X.! x d d d x x c I ! C N l P ] -.%.g.;.! B V B l l ",
"n =.R =.R K w > * * * * w :.P.:X2XoX7.b.-.] ! { &.k.y.O.-.z.6.g.X.X.R ;.g.<.:.>.>.:.R R T I P ` &.X.C ` ] | ` :.g.] B N P B l B ",
"z T R R R x 4 & & > & > 5 R R.%X2XOXz.7.O.X...&.6.7.j.a.z.n.j.<.g.:.,.g.j.j.j.U.U.<.:.T I K I ] X.=.` ! ` ] ] ] X.V B l f l P ! ",
"w K T R L x * % & & & 4 w R %X3X%XOXb.7.] X.{ j.j.j.g.j.j.H.Y.P.<.j.h.P.A.Y.%X%X>.,.:.` F P I ] ] X.] I ] X.] ` B B c d d B I R ",
"w z L T n e & # % & > > 5 I 6XeX%XL.k.r.&.| 7.j.n.j.j.S.(.}.R.%XR.S.P.P.Y.T.oXA.g.X.] ! I P ^ ] &.-.%.X.%.] ` P B f d r p K c i ",
"5 w b n b w % # # % % > 3 K 5XyX&XL.O.-.i.L.W.`.~.].j.F.L.G.k.L.S.k.g.b.C.G.a.z.O...I ! ] ] ] 6.h.n.g.;.=.T K c d e 3 r s s 5 4 ",
"% & 4 4 k 5 % O # # % : 3 c 7XtX;Xh.-.z.=X4X-X X=X`.L.n.Q.b.k.7.w.-.o.@.7.6.+._ X.+._ ..6.O.7.z._.~.;.R K d b i w > & > < > < 4 ",
"O O # * 4 4 * O # # % : < I 6XsX2.U.%XwX5XtXqXrX#X-XoX-X).^.K.W.z.c.#.[ W / /  .| 4.7.7.| 7.G.XX[.j.T K i 5 2 4 2 % % < < 7 3 r ",
"O O O % * 2 * O O O % : r D.wXdXgXjXaXsXsXgXkXjXgXtXiXtXyX2X$XoX#X}.b.! ! ! [ _ -.i.k.S.(.$XR.A.R K e u 4 2 & * % O * 7 r d f x ",
". . . # % * & # . O $ < %.&XqXgXjXkXhXgXgXjXhXkXkXkXaXgXhXdX2X4X5XeX%XA.=.I F -.n./.P.%X4XR.R K c w * * & & O O O # & < 9 r r d ",
". . . O # & % # . X # d h.,XyXuXhXhXhXuXpXpXpXpXfXfXpXpXpXpX8X8X9X8X8X8X8X2.R ,.U.Y.R.R.1X2.n b x w * & & # O O # # % * 5 5 w u "
};
