/* XPM */
static char *out[] = {
/* columns rows colors chars-per-pixel */
"64 64 218 2 ",
"   c #2B1608",
".  c #4A2415",
"X  c #5C2C1A",
"o  c #68321E",
"O  c #583F2A",
"+  c #763A24",
"@  c #7E3D26",
"#  c #63432F",
"$  c #6E402D",
"%  c #6A4D37",
"&  c #77523D",
"*  c #7F5D46",
"=  c #814A35",
"-  c #8E4B34",
";  c #96523A",
":  c #865540",
">  c #8C5D46",
",  c #9D5943",
"<  c #955F49",
"1  c #A45E45",
"2  c #89664F",
"3  c #9B644E",
"4  c #916A53",
"5  c #9A6F56",
"6  c #AB644A",
"7  c #A16851",
"8  c #AD6D51",
"9  c #A86D58",
"0  c #B36A51",
"q  c #B76F53",
"w  c #A1765D",
"e  c #A7755C",
"r  c #AE755B",
"t  c #B4715D",
"y  c #B97658",
"u  c #A87B63",
"i  c #AE7D64",
"p  c #B77764",
"a  c #BD7564",
"s  c #B27861",
"d  c #B47F64",
"f  c #BB7E63",
"g  c #C1785B",
"h  c #C87E61",
"j  c #C07B6B",
"k  c #AC836B",
"l  c #BE8466",
"z  c #B3876E",
"x  c #BA876A",
"c  c #BF8B6C",
"v  c #BF8470",
"b  c #B78C72",
"n  c #BC8E72",
"m  c #C38264",
"M  c #CC8566",
"N  c #C78568",
"B  c #C4816F",
"V  c #C48A6C",
"C  c #CC8C6D",
"Z  c #CC8C6E",
"A  c #D18969",
"S  c #D48C6E",
"D  c #D88F6F",
"F  c #C98270",
"G  c #C88973",
"H  c #CC8A78",
"J  c #D08B78",
"K  c #C39072",
"L  c #C69677",
"P  c #C89172",
"I  c #CC9475",
"U  c #CA997A",
"Y  c #CF9C7E",
"T  c #D19071",
"R  c #D09072",
"E  c #D29172",
"W  c #D09273",
"Q  c #D39273",
"!  c #D49374",
"~  c #D59475",
"^  c #DA9472",
"/  c #DD9876",
"(  c #D79778",
")  c #D1967C",
"_  c #D89778",
"`  c #D59A7B",
"'  c #D99878",
"]  c #D9997A",
"[  c #DB9A7A",
"{  c #DA9A7B",
"}  c #DC9B7B",
"|  c #DB9C7D",
" . c #DA9D7E",
".. c #DE9D7D",
"X. c #DC9D7E",
"o. c #DD9D7E",
"O. c #E09E7D",
"+. c #E29F7D",
"@. c #E2A07F",
"#. c #DD9E80",
"$. c #DE9F80",
"%. c #DF9F80",
"&. c #DD9986",
"*. c #D4A082",
"=. c #DFA081",
"-. c #DCA386",
";. c #D8A485",
":. c #DCA88A",
">. c #DFAB8E",
",. c #DBAB91",
"<. c #DFAF94",
"1. c #E0A081",
"2. c #E2A181",
"3. c #E1A283",
"4. c #E3A282",
"5. c #E4A382",
"6. c #E4A383",
"7. c #E5A383",
"8. c #E5A483",
"9. c #E6A483",
"0. c #E5A484",
"q. c #E6A585",
"w. c #E7A685",
"e. c #E7A686",
"r. c #E8A786",
"t. c #E8A787",
"y. c #E9A887",
"u. c #E0A58A",
"i. c #E3AC8D",
"p. c #E7AD8F",
"a. c #E8A888",
"s. c #E9A888",
"d. c #E9A989",
"f. c #EAA989",
"g. c #EAAA8A",
"h. c #EBAA8A",
"j. c #EBAB8B",
"k. c #EBAC8C",
"l. c #EBAE8F",
"z. c #ECAC8C",
"x. c #ECAD8D",
"c. c #EDAE8E",
"v. c #ECAE8F",
"b. c #EDAE8F",
"n. c #EEAF8F",
"m. c #EDAF90",
"M. c #EEAF90",
"N. c #E4B195",
"B. c #E9B193",
"V. c #EDB091",
"C. c #EFB090",
"Z. c #EDB192",
"A. c #EFB192",
"S. c #EFB293",
"D. c #ECB496",
"F. c #E6B599",
"G. c #EAB79A",
"H. c #EEB899",
"J. c #EEBC9E",
"K. c #F0B293",
"L. c #F0B394",
"P. c #F0B495",
"I. c #F1B495",
"U. c #F0B496",
"Y. c #F1B597",
"T. c #F2B697",
"R. c #F2B698",
"E. c #F2B798",
"W. c #F2B799",
"Q. c #F3B899",
"!. c #F2B89A",
"~. c #F3B89A",
"^. c #F3B99B",
"/. c #F4BA9C",
"(. c #F4BB9C",
"). c #F4BB9D",
"_. c #F5BB9D",
"`. c #F5BC9D",
"'. c #F5BC9E",
"]. c #F5BD9E",
"[. c #F5BD9F",
"{. c #F5BE9F",
"}. c #F1BFA1",
"|. c #F5BEA0",
" X c #F6BEA0",
".X c #F6BFA0",
"XX c #F6BFA1",
"oX c #F6C0A1",
"OX c #F6C0A2",
"+X c #F6C2A3",
"@X c #F7C2A3",
"#X c #F6C3A4",
"$X c #F2C4A5",
"%X c #F7C4A5",
"&X c #F7C5A6",
"*X c #F7C6A7",
"=X c #F7C7A8",
"-X c #F0CBAD",
";X c #F4CDAE",
":X c #F8C8A9",
">X c #F8C9AA",
",X c #F8CAAB",
"<X c #F8CBAC",
"1X c #F8CCAD",
"2X c #F8CDAE",
"3X c #F9CEAF",
"4X c #EECEB0",
"5X c #F3D1B3",
"6X c #F7D1B2",
"7X c #F0D4B6",
"8X c #F6D4B6",
"9X c #FAD3B4",
"0X c #FAD7B8",
"qX c #F1D8B9",
"wX c #F7D8BA",
"eX c #F5DBBB",
"rX c #F6DDC0",
"tX c #F9E1C3",
/* pixels */
":.p.` #.W U c K K ,.D.H.G.|.G.^.G.G.N.N.N.G.G.G.G.G.F.J.G.H.F.D.p.B.:.u.u.p.p.p.3.3.-.=.=.3.=.3.] { | %.{ ] W W R Z Z E R E Z R ",
":.>.` ` Y P V K Y ,.D.G.G.B.G.G.D.D.D.G.J.J.|.G.J.G.F.J.J.Y.Y.S.B.p.i.i.i.i.p.p.i.u.u.a.g.0.3.%.=.| X.X.%.} ] W E Z T T Q E R Z ",
"*.,.U Y U U U ;.p.H.D.H.^.[.G.[.^.[.G.[.OX#XJ.|.[.XXH.J.XX[.U.R.R.D.l.Z.K.Y.z.m.m.m.6.d.g.s.....| O.' ..=.%.! ! ~ ! C Q ~ ! C S ",
"U Y U *.:.:.i.B.).'.^.H.[.XX'.[.&X%XOX+X=X&X@XXX+XOX).(.OX).E.U.!.H.S.V.U.A.v.l.Z.s.7.7.x.8.O.[ ..[ ' [ 3.o.~ R ~ T S A E T C Z ",
"U ;.,.B.B.H.H.[.^.@X[.&XXXOX].oX|.#X*X&X+X+X XOX).oX).).Y.Y.Y.Y.Y.R.S.V.a.z.h.h.a.f.w.f.8.=.' } ' | ' 3.| } ! E Z R A S A S M A ",
"0.V.U.U.~.~.(.'.OXOX X|.OXOX|.].oX.X#X%XOX].OX.X.XOX^.H.Q.K.Y.U.!.Y.K.z.h.s.g.f.q.3.f.h.s...[ [ [ { | $.%.| ! Z R A A A A M M M ",
"M.U.Z.U.R.).Y.'.OX@X/..X.XoXY.R.oXXX[.oXOX@XU.|.^.[.U.R.E.R.S.Y.T.R.S.S.l.j.7.e.w.g.q.g.a.8.' O.#.=.| =.$.} C R R S M A M M h h ",
"f.s.f.h.R.~.Y.XX+X.X/. XoXOXQ.K.^.^.[.oX+XOXU.R.).(.~.Q.^.Y.Q.R.^.T.U.v.C.d.a.q.a.h.s.a.k.q.3...=.1.$.X.1.' T M A M h h M N g g ",
"u s r x W v.E.).Q.'.). X[.+XQ.Q.K.^.'.].@X^.Y.Y.S.!.).^.!.OXXX+X^.Y.U.K.j.j.3.f.q.a.e.d.w.3.$.=.| $...=.X.#.~ A m h g h g g g g ",
"# # # # & 7 K  .i.Z.Y.~.oX].R.S.A.R.~.^.^.L.S.l.C.Y.).XX+X@X%X+X).U.v.u.3.| ` ` ` ~ R R E ~ ] ` | | X.| %.' T M m f f g g g g y ",
": $ # O $ & : 3 f ` =.V.Q.[.n.n.n.Y.Y.^.^.L.a.l.k.R.H.OX+X&X|.G.p.;.I z 9 9 3 4 9 9 3 r f N l G Z ~ ! _ { ' M m m f t y f g q y ",
",.U z 5 5 3 < 3 r m Z #.S.Y.C.n.n.M.S.V.C.d.q.3.h.C.Y.^.^.B.` d 7 > & $ o X . . $ + = : 7 7 8 9 8 y m Z ! R N m m f y y g a y y ",
"B.G.N.;.` ! N f y m m ' 3.b.m.K.S.K.j.S.a.@.` $.4.q.l.A.$.m 3 : $ o X . . . . X # $ $ & = : : > ; , 1 8 t f f l y f y g y g y y ",
"3.3.3.$.| ~ R G C N T ~ %.w.b.M.m.n.n.M.k.~ T T E ~ X.W m 1 : + o o o o $ & : 7 d s 7 3 3 < < : : ; < < < < 7 9 t t t 0 q 0 q q ",
"p.^.G.S.l.3.Z m y N Z _ %.s.t.k.j.b.f.j.j.T g m C Z m f 9 ; @ @ $ = - 3 r G I =.0.-.) P V c s r 7 3 3 < 3 > : < 1 8 6 8 6 8 1 8 ",
"|.U.a.-.-.#.` Z y 0 y T ..8.g.n.x.f.a.e.f.T f y f m y 8 1 ; - - ; 1 8 m W ` ! ` $. .W ` ( ] ` I N f r 3 < > : : , 1 1 1 6 6 1 1 ",
"b 5 & $ # & : 7 8 0 0 m T ..t.K.M.j.f.f.3.' R m y y 8 6 , ; ; < ; ; , f m m m f y t 8 t q m R ~ Z Z m s 9 7 ; ; ; 9 6 0 8 q 0 0 ",
".     . .     . o ; 6 t C T a.Y.I.M.k.g.g.{ T m y 8 1 ; ; - = + = 9 P ` 3.3.3.` E N y 9 ; - ; y G V l f f t 9 y y 8 0 q q q t q ",
"  . . & .     . . o + < f ~ ..Q.%X[.U.L.S.q.Z f 8 9 , - - @ X + 7 r : & & & $ & < 7 < 7 7 > o = f R V G N l f m f y q g h N g h ",
"& & & % O . . . # & X o , ~ @.Q.6X<X|.^./.j.C 6 1 1 ; = @ o X = & o .   .             . . X X . > l I N m g f y m g y g m g g g ",
"V P v s 4 4 4 5 r 9 > - = ~ s.XX6X9X<X%XU.3.m 1 1 1 ; ; - @ + = = 3 > & O . . . . . .   . .   . o 1 7 6 8 g m N m m g m h h h M ",
"l.j.M.3.$.{ I Z Z Z T _ 7.l.I.+X9XeX6X%XU._ t 1 6 0 6 m W Z R ~ { ` =.` c r 7 7 s r 7 < < : + + , 9 1 A ....q.q.} m m g y y y y ",
"q.+.^ ~ ~ ~ A S ~ ~ S A S Q.^.>X9XwX<X%XA._ 0 6 0 M C S 7.w.' ..[ 6.3.q.1.~ A T ~ Z g g h Z M Z m 1 8 N Z T R ~ m 0 1 6 8 t 8 t ",
"~ A M S ~ ~ A M M y 0 m V.OX+X<X3X3X*X^.j.T g 0 h Z ..@.w.h.s.@.~ M m M A M g 8 8 q M S [ S g , - 8 ~ { ..N 8 6 8 y y f m c l l ",
"@.S g y 0 0 8 6 1 y #.OX=X:X<X3X<X3X'.C.} A M S S S ' f.h.j.n.A.g.@.N t 6 6 1 8 6 8 1 , ; - - 1 m { ~ } ..1.N m m m f f d l f f ",
"OX).K.3.' ! `  .B.|.=X&X<X3X1X3X:X<XQ.7.S M Z ^ +.+.@.r.n.z.c.I.T.R.^.Y.d.-.! m y 8 8 t m A @.s.g.q...~ ~ 3.3.$.~ s r s s s s s ",
",X&XT.'.(.@X[.&X>X>X#X<X,X9X6X6X2XOXz.} S S M ~ +.r.8.h.z.A.j.M.U.).U.!.).OXOXOXOX).Z.T.~.~.M.c.c.z.....! ' } w.$.f r y f f y s ",
"9X2X#XOX@X.XOX*X2X&X#X<X3X6X9X9X<X'.f.' S A A A ^ / [ ' 7.f.g.n.T.T.T.H.|.&X#X#XOXOX).~.).Q.b.t.h.s.+.O.O.R ~ @.%.l f m N m l l ",
"9X3X%XOX).>X>X2X<X*X=X6X3XeXeX6XOX^.h.7.[ S M M g g y q 8 g S n.K.'.[. X/.*X=X>X&X&X|.[.Y.Y.h.s.7.s.7.e.+.} T O.X.G c V N N N N ",
"wX9X<X%X=X=X<X2X<X=X,X3X6XeXtX<XXXI.I.z.f.@.~ g g M S h 0 , , f 3.R.)./.@X*X=X*X:X:X*X@X'.I.M.w.h.t.6.y.9...~ ' 2.Z Z C C N G C ",
"wXwX<X2X<X3X@X>X*X=X|.:X3XtXeX<X).Q.n.S.L.f.S h h O.+.+./ g - - 8 ~ 0.Y.).%X[.&X*X=XoX).Q.I.f.c.x.z.7.w.7.7.~ ! %.~ G I Z W N P ",
"6X<X%XOX&X@XQ.n.s.l.XX=X9XeX9X&X@X].U.Q.K.[ M h ^ r.w.7.O.M , ; , 6 m } K.Q.^.'.OX^.Y.E.T.C.n.j.x.g.q.6.8.5.+._ ] E G C Z R C C ",
").).K.Y.s.7.S g g h.XX3X9XwX9X3X#XOX).U.~ m q g M Z A M g 0 6 q 8 6 8 m _ h.C.Q.A.T.M.n.z.z.h.x.e.s.7.7.2.7.=...T R Z Z Z R R W ",
"A.q.+.S M 0 ; 6 u.[.&X6XtXtXtXwX<X*XY.E y 1 ; - - = @ - ; 1 0 y y y y 0 m ~ @.s.j.j.m.w.h.r.f.g.e.7.@.%.7.$.| { E Z Z R R R Z Z ",
"@.^ h 0 ; - 1 a.%X<X#X9XtXtXtXtX3XOXW 8 ; + o + + + $ = ; 1 , 8 0 q q y g y m _ +.r.+.+.7.r.%.7.7.w.{ O. .3.( ` W Z N N Z R N C ",
"T g 6 - - t i.|.6X2X3X6XtXtX9X<X+X3.t - @ + $ + + o + @ - - ; ; , 6 q q t 8 8 f E _ ~ ( } } { } O.O.~ W ` ~ W E ~ W Z C R Z C C ",
"y 6 - - 8 0.^.<X3X9X9X9X6X=XJ.B.{ f ; @ + + + + + + + + @ = = @ @ - , , ; ; ; , 8 R R ' ! ( E ( ~ _ ~ _ R Z P W R Q C W Z Z A S ",
"8 ; - 6 W i.XX&X>X>X%X[.OXH.i.G 8 ; - @ = @ @ + @ + = = - - = + + = - - - = = = = 3 C | X.( ( ~ Q Q ! W P l Z W ` ) Z C Z S Z S ",
", - ; m { V.G.B.p.p.-.u.g.v.=.R 8 1 7 f y 1 - ; - - - ; ; 3 - : - = = - - = + + + = - f { ..( ! ~ ( Z W W m G ! { ~ C Z S S M S ",
"; ; t Z ` u.W f f T ~ E Z m y ; = ; y ~ R y 6 1 , ; - - < ; < - ; ; - - < - : = & + + - y T E ~ ~ ! ! ` ( l P W ~ ! C A S A M A ",
"; ; f V V ` m r 8 f m m 8 8 ; - ; N ` O.~ ~ m 0 1 , ; ; , , , , ; ; ; 1 , 1 7 3 - = + @ : t Z T T ` [ -.` l V P W Q M A M A M A ",
"1 ; f l G V r 8 8 t f m y 8 6 9 ! A.v.f.8.[ S h q 6 1 8 y y q 0 8 8 1 6 q 8 6 6 3 : + + + - y T ! _ =.-.*.P c P W W C M A S S A ",
"7 , r V V l 9 9 r f f M m m C E $.j.s.M.j.7.S S M h g M A S M M M y 6 0 y y 6 8 6 , = = = ; , C _ @.%.u.-.I c P I ) M A S D A S ",
"y 1 s P p 9 9 7 9 r y m S _ ' _ ( ^ ~ } } ^ S M M h g g g g h g 0 q 8 6 0 8 1 6 6 7 - : : , < f { =.=.=.u.I K P ) I C N T S A A ",
"8 f y W 9 ; - - @ - ; 8 q g g h h M h g q q 6 6 ; ; ; ; - , ; - @ - - - @ = @ @ + @ = 1 8 f 9 f _ 3.X.3.` K K P K I m C N N N G ",
"0 m m l y 7 < = = - , 1 1 , , , , , , , , , , , ; ; , 1 1 ; - - - - - ; ; - - ; - ; 8 C _ | f N %.#.O.{ ` P c U U P V V N V V V ",
"y y V N m m r y f m g g M M m F F B f B H H F H J J F B j a g t y y q y y y 0 0 0 g ^ @.7.@.f Z ..3.{ ! P V x U U I m V V V m V ",
"! y l ! W Z T C Z M m ~ =.=.=.| a.a.=.u.p.u.` J E H B g B B g a a p y q y q 0 y M } j.@.%.~ m ~ 3.=._ Z Z l x c K K N V Z C N N ",
"i.Z t P ~ W C Z S S h ^ | X.` | _ &.~ ` ` ` v x f p 7 8 t t 9 8 0 t 8 q 8 0 y M ..M.g.@.' Z m %.#.3.R Z l l x l f l V Z Z W P R ",
"i.@.f s ! ~ R R E S M h m f y f f y r r s r 9 3 3 > > < 3 < < 7 7 9 9 t 0 q m ' Z.k.a.%.=.m m ..#.| m f p z c p x V V I ` ) W ( ",
":.B.W s m { ~ ~ _ _ M f t r 7 9 9 8 7 9 9 s 9 7 3 > : > < 3 < 7 9 t 7 8 y m Z a.Z.l.#.3.$.m m ' _ ! p s s f s d c I V ` ) I V N ",
";.u.;.P f I ` | } ' A f y y 8 8 f f f f m f r 7 3 3 > > 3 3 7 9 t s t p m R q.v.C.v.u.0.$.m T ~ ( Z s r d f s x P U Y U P V V V ",
"U ;.;.:.Z V T @.] _ T M t q t t N W G W Z V f p 9 9 7 7 7 r f m N V G C R =.v.Z.p.l.p.l.! m ~ _ ! Z r s d K c K K U Y ` ) ` U I ",
"U *.;.*.P V ` ! ..+./ S g y f m 3.n.g.q.3...~ Z c l l Z ! ` #.3.3.3.=.X.| 3.l.p.d.p.p.p.W N ~ ! ~ l r r l l U P K P I )  . .` I ",
"n *.Y U x z c I ..n.O./ ~ A g _ Z.U.s.3.%.2.%.3.0.i.u.p.B.H.p.D.Z.a. . .%.d.3.a.a.p.u.i.` W T [ ~ l r r 9 7 d U V K c Y  .i.=. .",
"z U Y U K u 5 s ` v.l.@.5.O.~ @.L.R.V.m.A.d.p.a.Z.v.p.B.J.J.G.K.H.0.| { 3.3.3.3.a.a.u.u.=.#.' { I f l x u e r l I P c U  .u.u.u.",
"w K U U z w & 2 i :.p.K.g.h.z.w.h.~.H.E.R.!.U.^.H.Q.H.J.OX=X[.G.:.u.#.#.} #.X.3.X.u.u.d.i.-.#.#.P f V z u e e r x I I Y Y *.*.` ",
"w z U U x 4 & & * e ` U.^.M.t.t.f.p.Q.^.XXXX|.XX+XOX|.+X&X@XJ.-.#.a.a.3.$.} { ] 3.u.p.p.K.p.u. .I s x b d i d 3 7 r V U U x r w ",
"5 w b n d 4 # % & * e *.OXXXk.j.d.d.d.Z.R.'.E.).U.v.B.R.G.Z.B.a.g.a.{ ' O.} { =.0.p.u.l.!.^.0.` P u w b z k u 3 & 3 9 r 3 5 4 4 ",
"% * 4 5 u 4 # O % % > 9 N.<X).l.q.6.A.^.`.).U.U.L.p.a.a.a.0.3.3.%.{ } [ $.} =.3.0.#.l.B.(.|.d.U L x 5 w w 5 5 3 & + > : > > < 4 ",
"O O # * 4 4 % O # # * 3 P >X>Xi.;.^.+X<X*X#X).XX^.^.P.W.k.d.6.e.' ( Q ~ ~ %.3.d.3.$.Z.~._.OXp.` x d z 4 > > 2 2 # % < 3 3 w 7 i ",
"O O O % * 2 & O O O & : N OX6X3XwX0X9X9X9XwXwX0X2X2X,X&XOX).{.(.D.i.` I ! ~ { $.3.j.A.R. X{.i.L K w u 4 4 : & & # # < 7 r d f x ",
". . . # % * & # . O $ < #.|.>XwXrXtXeXwXwXrXeXtXtXtX8XwXeX0X&X=X*X<X}.N.*.P G $.l.Y.D.}.&XJ.Y K c w * * & & O O O # & < 9 r r d ",
". . . O # & % # . X # d i.#X2X5XrXrXeX5X7X7X7X7XqXqX7X7X7X7X4X-X;X-X-X4X-X<.Y :.F.G.J.J.$X<.n b b w * & & # O O # # % * 5 5 w u "
};
