/* XPM */
static char *out[] = {
/* columns rows colors chars-per-pixel */
"64 64 233 2 ",
"   c #2B1608",
".  c #4A2415",
"X  c #5C2C1A",
"o  c #68321E",
"O  c #583F2A",
"+  c #763A24",
"@  c #7E3D26",
"#  c #63432F",
"$  c #6E402D",
"%  c #6A4D37",
"&  c #77523D",
"*  c #7F5D46",
"=  c #814A35",
"-  c #8E4B34",
";  c #96523A",
":  c #865540",
">  c #8C5D46",
",  c #9D5943",
"<  c #955F49",
"1  c #A45E45",
"2  c #89664F",
"3  c #9B644E",
"4  c #916A53",
"5  c #9A6F56",
"6  c #AB644A",
"7  c #A16851",
"8  c #AD6D51",
"9  c #A86D58",
"0  c #B36A51",
"q  c #B76F53",
"w  c #A1765D",
"e  c #A7755C",
"r  c #AE755B",
"t  c #B4715D",
"y  c #B97658",
"u  c #A87B63",
"i  c #AE7D64",
"p  c #B77764",
"a  c #BD7564",
"s  c #B27861",
"d  c #B47F64",
"f  c #BB7E63",
"g  c #C1785B",
"h  c #C87E61",
"j  c #C07B6B",
"k  c #AC836B",
"l  c #BE8466",
"z  c #B3876E",
"x  c #BA876A",
"c  c #BF8B6C",
"v  c #BF8470",
"b  c #B78C72",
"n  c #BC8E72",
"m  c #C38264",
"M  c #CC8566",
"N  c #C78568",
"B  c #C4816F",
"V  c #C48A6C",
"C  c #CC8C6D",
"Z  c #CC8C6E",
"A  c #D18969",
"S  c #D48C6E",
"D  c #D88F6F",
"F  c #C98270",
"G  c #C88973",
"H  c #CC8A78",
"J  c #D38E7E",
"K  c #C39072",
"L  c #C69677",
"P  c #C89172",
"I  c #CC9475",
"U  c #C09379",
"Y  c #CA997A",
"T  c #CF9C7E",
"R  c #D19071",
"E  c #D09072",
"W  c #D29172",
"Q  c #D09273",
"!  c #D39273",
"~  c #D49374",
"^  c #D59475",
"/  c #DA9472",
"(  c #DD9876",
")  c #D79778",
"_  c #D1967C",
"`  c #D89778",
"'  c #D59A7B",
"]  c #D99878",
"[  c #D9997A",
"{  c #DB9A7A",
"}  c #DA9A7B",
"|  c #DC9B7B",
" . c #DB9C7D",
".. c #DA9D7E",
"X. c #DE9D7D",
"o. c #DC9D7E",
"O. c #DD9D7E",
"+. c #E09E7D",
"@. c #E29F7D",
"#. c #E2A07F",
"$. c #D89380",
"%. c #D89982",
"&. c #DD9E80",
"*. c #DE9F80",
"=. c #DF9F80",
"-. c #DD9986",
";. c #D4A082",
":. c #DFA081",
">. c #DCA386",
",. c #D8A485",
"<. c #DCA88A",
"1. c #DFAB8E",
"2. c #DFAF94",
"3. c #E0A081",
"4. c #E2A181",
"5. c #E3A181",
"6. c #E0A182",
"7. c #E1A283",
"8. c #E3A282",
"9. c #E4A281",
"0. c #E4A382",
"q. c #E5A382",
"w. c #E4A383",
"e. c #E5A483",
"r. c #E6A483",
"t. c #E5A484",
"y. c #E6A585",
"u. c #E7A685",
"i. c #E7A686",
"p. c #E8A786",
"a. c #E8A787",
"s. c #E9A887",
"d. c #E0A58A",
"f. c #E3AC8D",
"g. c #E7AD8F",
"h. c #E8A888",
"j. c #E9A888",
"k. c #E9A989",
"l. c #EAA989",
"z. c #EAAA8A",
"x. c #EBAA8A",
"c. c #EBAB8B",
"v. c #EBAC8C",
"b. c #EBAE8F",
"n. c #ECAC8C",
"m. c #ECAD8D",
"M. c #EDAD8D",
"N. c #EDAE8E",
"B. c #ECAE8F",
"V. c #EDAE8F",
"C. c #EEAF8F",
"Z. c #EDAF90",
"A. c #EEAF90",
"S. c #E9B193",
"D. c #EDB091",
"F. c #EEB090",
"G. c #EFB090",
"H. c #EEB091",
"J. c #EDB192",
"K. c #EEB192",
"L. c #EFB192",
"P. c #EFB293",
"I. c #ECB496",
"U. c #EEB899",
"Y. c #EEBC9E",
"T. c #F0B293",
"R. c #F0B394",
"E. c #F0B495",
"W. c #F1B495",
"Q. c #F0B496",
"!. c #F1B596",
"~. c #F1B597",
"^. c #F2B596",
"/. c #F2B697",
"(. c #F2B698",
"). c #F2B798",
"_. c #F2B799",
"`. c #F3B799",
"'. c #F3B899",
"]. c #F2B89A",
"[. c #F3B89A",
"{. c #F3B99A",
"}. c #F3B99B",
"|. c #F4B99B",
" X c #F4BA9B",
".X c #F4BA9C",
"XX c #F4BB9C",
"oX c #F4BB9D",
"OX c #F5BB9D",
"+X c #F5BC9E",
"@X c #F5BD9E",
"#X c #F5BD9F",
"$X c #F5BE9F",
"%X c #F1BFA1",
"&X c #F5BEA0",
"*X c #F6BEA0",
"=X c #F6BFA0",
"-X c #F6BFA1",
";X c #F6C0A1",
":X c #F6C0A2",
">X c #F6C1A2",
",X c #F6C1A3",
"<X c #F6C2A3",
"1X c #F7C2A3",
"2X c #F6C3A4",
"3X c #F7C3A5",
"4X c #F2C4A5",
"5X c #F7C4A5",
"6X c #F7C4A6",
"7X c #F7C5A6",
"8X c #F7C6A7",
"9X c #F7C7A8",
"0X c #F7C8A9",
"qX c #F0CBAD",
"wX c #F8C8A9",
"eX c #F8C9AA",
"rX c #F8CAAB",
"tX c #F8CBAC",
"yX c #F8CDAE",
"uX c #F9CEAF",
"iX c #F3D1B3",
"pX c #F7D1B2",
"aX c #F0D4B6",
"sX c #F6D4B6",
"dX c #FAD3B4",
"fX c #FAD7B8",
"gX c #F1D8B9",
"hX c #F7D8BA",
"jX c #F5DBBB",
"kX c #FADDBE",
"lX c #F6DDC0",
"zX c #F9E1C3",
"xX c #FBE5C7",
/* pixels */
"2.K.p.p.] V i k u c ' b.U.%X*X*X*X2X2X9X6X8XwXwX:X:X@X2X7XwX2X6XOX*X+X$X}.}.).`.K.!.D.L.b.v.b.A.y.l.r.y.w.w.{ X.) [ ^ { ] ) ! ~ ",
"<.p.M.n.s.^ l f V Z Q Q Q P ~ w.].*X,X>X8XwX7X7X:X.X|.:X8XwX8X=X+X}.OX{.OX'.).(.'.P.K.L.J.k.b.v.j.e.w.q.x.q.X.| | | +.{ | | ` ! ",
"K +.+.r.p.+.l d 7 < = = : : & 7 T g.S.OX2XwX>X6X1XOXJ.}.8XyX,X$X|..XQ.$XOXOXP. X(.|.b.P.T.D.i.v.h.y.O.a.x.i.` | X.| ) O.3.{ R D ",
"c / D ( ( N 7 : $ $ o X X X X $ > r V &.'.*X*X-X:XP.J.Q.9X8X,X].W.P.E.@X2X*XoX+X;X+X^.J.'.H.x.y.k.s.u.a.c.i.O. .&.| | +.#.) R S ",
"x / A D h 1 - 7 d ,.,.n 4 * & : > 3 8 N [ m.|.*X].R.B. X=X1XOX(.Z.E.P.#X=X1X=X;X*X*X'.^.D.M.a.i.y.x.r.b.i.y.6.7.&.6.3.8.] | A S ",
"n X.A S y r ' J.@X,X1X2X%Xg.;.U V s f Z ~ } B.`.|.T.C.!.OX].W.b.z.x.L.).-X:X,X*X:X].I.g.h.o.) ' 6.6.4.O.7.3.*.&.*.7.7.=.4.^ S A ",
"b #.D | / b.b.).|.*X].*X+X+XJ.S.M.7.Q ! )  .6.R.P.).b.P.!.(.v.h.y.c.k.W.|.*Xb.k.,.T l l 9 7 7 9 r l s d N P C !  .q.:.6.:.{ C M ",
"L 3.+.9.b.C.C.D.T.m.v.D.(.I.b.f.v.t.o. .+.*.7.K.Q.W.v.V.W.R.h.) } O.:.w.b.h.Q p 7 : @ o X O X X # = : > 7 r p f Z E ~ [ *.] ~ N ",
"b 6.| x.i.a.n.v.W Q >.P.^.@X).P.7.) C ! ) e.j.T.R.P.m.G.G./.x.W N E Z ^ ^ Z t 1 = o X X . X . . . o $ = = > , 7 7 6 t N ) ) A N ",
"n >.&.e.y.j.e.^ g 7.%X*X1X=XOXT.B.:.M f N | i.M.T.G.M.m.F.G.v.Q f f m N l y 1 - @ + $ $ $ + = > 3 7 7 < < < < < - - , 6 y N N g ",
"n d.&.k.x.c.D l ` $XU.%X}.}.b.v.i.7.A g g E ) e.H./.v.N.H.T.7.^ f l y s t 6 ; - = = = , r N Z O.w.w.` Q Z l t 9 , > - > 3 3 9 y ",
"L <.d.k.T.k.C m k.U.g._ c f e 7 9 y y g m N R X.x. X XW.^.T.w.~ Z f t 8 1 ; - - ; ; < 8 N ) [ W ^ ^ ~ Q ` ^ Q E Q y 7 , < < > 3 ",
"n ,.d.Z.J.C.Z Q d.L < $ o X O . . X + ; 1 0 m ~ 7.$X8X2X|.[.M.4.N f 8 6 , - - - @ = 7 V ..v.f.w.Q E m y 8 t l ! Z V l s 6 > : : ",
"c Y 7.d.D.v.Q N w X .     . .     . . o + - 6 ~ t.'.yXuX0X*X^.u.m 8 1 , ; = @ o + < c K I ;.,.' ) Q Z m r , - , l P P V r 7 < : ",
"L T ..E ..) y , = o X $ $ % X . . O X $ $ $ + S T.7XpXfXuX6Xb.&.l 1 , , = = + . @ - = $ o = $ $ = < 3 7 7 3 < = ; K N m l l 6 < ",
"T T i.Q N y ; , ~ &.Q ' ' c i e s r r 9 r f R s.+X2XdXfXuX:XB.Q y 1 1 ; ; 1 , = - - = + X X     . . . . . . X X X < Z Q E m y y ",
"T ;.d.4.~ w.t.w.{ j.v.N.k.s.*.} E S S ` / ] | v.OXrXuXpX9X*Xi.! 6 1 1 f y R +.*.) ' ) } P d 3 < @ $ X X . . . . . o 8 y 8 g m C ",
";.;.h.~.`.W.P.x.j.5.5.| ` ^ / ^ / S S h g m t.-X2X0XtX8X>XJ.7.N 0 0 q A ( { q.+.{ ^ ` | =.} R M N m f 8 7 3 ; = = - , , 8 g m m ",
",.;.,.b./.|.!.OX|.T.D M M M m h y q 1 0 Z }.:X7XrXyX2X2X+Xv.E m h M N N | s.q.k.c.w.M m g N m m y y y M E ^ C S M 8 - 1 C | { X.",
";.T &.a.W./.OX:XwX1XoXA.k.R m y f m Q J.rXrX8X9XuXuX7X=X.X3.N m A / / ` 9.s.u.a.G.T.Z.7.Q f 8 6 6 6 6 6 0 6 , - = - 1 R { C N ( ",
";.;...l.C./.OX8X0XuX2X6X+X*XOXOXOX7X1XrX8XrX0XuXpXdXrX@XM.` M M N D ( e.e.s.s.x.M.R.R.).~.|.).b.*.Q l t 8 0 8 g N +.{ X.O.9.C y ",
"<.>.w.l.).|.-X8XyXpXyX7X=X#X|.*X9XeX8X2X7XtXuXpXdXyX=X^.l.| S A M M M h S / +.u.C.T.`./.).OX*X X-X-X|.^.`.W.^.C.G.v.i.X.! ) O.N ",
"1.1.7.M./.:X*XrXdXhXyXyX1XOX/.1XyXuX7X2X6XdXpXhXlXdX'.G.M.l.( / A g 0 y q 0 6 h #.P.T.'.[.OX(.$X:X5X}.*X+X}.A.A.m.G.p.w.| ^ ) =.",
"f.>.y.T.+X2XwXyXkXkXdXyX7X1X>X0XuXuX0X8XrXuXpXhXzXyX).G.G.N.C.u.( m y M D N 0 , 0 Z x.'.+X|.,X:X8X7X:X&X+X`.`.M.v.l.y.9.9.R R 3.",
"7.>.7.`.+XwXrXpXhXzXhXhXyXeXtXuXtXyX7X7X2XuXdXlXpX8X`.`.L.`.T.u.S h M +.u.u.( y - 1 y 7.T.*X2XwX<X2X,X>X=X:X`.P.x.i.e.e.q.#.R *.",
"f.>.k.^.:XrXyXuXhXhXhXdXpXtXrX8X:X).b.Z.:XuXdXhXdX2X-X X*X}.v.M y y S #.q.+./ g ; - ; t ! v.].<X1X=X-X#X:X.X].G.M.p.p.i.l.e.{ ` ",
"v.k.7.OX3XuX0XuXdXfX0XwX8X,XW.v.#.S g i.2XpXdXhXpXpX:X-X-XZ.m 8 6 6 0 q 0 0 1 1 1 0 6 6 0 E i.R._.*XP.).|.|.C.C.x.b.9.i.l.j.X.` ",
"A.i.z.(.1X5X2X7XwX2X*XW.A.u.^ g 6 1 C .X0XpXkXzXxXhXrX*Xb.m 1 = + $ + + + = - , 8 q q y q y N o.m./.L.P.!.C.M.c.n.l.i.y.x.r.3.{ ",
"i.y.u.^.].-X=X1XOX}.C.k.` M 0 ; ; N |.rXrXsXlXxXlXhX2XU.m , @ + + @ + + + = = - ; 6 6 q q q 0 N E e.a.M.s.k.a.l.p.k.r.j.w.q.#.+.",
"9.4.x.W.[. X*X X`.m.#.~ h 6 = ; Z U.0XdXdXfXhXsXyX2Xb.Q 1 = + + + $ $ o + @ @ = - - ; 1 q 0 6 8 t Z +.4.#.#.#.#.x.l.y.6.e.5.#. .",
"i.q.e.G.G./.T.`.M.4.A m 8 - - E J.2X8XdXpXrX2X%XI.[ t , - @ + + + + + + + = + - = @ + - - ; - - ; 8 m ^ } | / | 4.i.O.3.&.w. .+.",
"e.#.#.l.G.G.N.x.5.S g 6 ; - g &.$X8X1X%X.XJ.P.R.L.Q 6 ; , 1 1 - - = = = - - - ; - @ + @ - - - = = = < N ] [ ~ ` o.o.[ )  .X.` ) ",
"O.#.#.x.c.N.l.p.W N 0 1 - 6 R Z.U.d.I ..7.7.] ^ N 8 - - 6 R N 6 ; ; - - = - ; , : - - - - ; = + $ + + 1 Z O.` ) E ^ E ^ ~ ^ ! ) ",
"4.O.q.e.l.j.e.X.M y 6 ; ; m ^ k.` y t m W M y 8 1 = = 8 Z ^ D m t 6 ; ; - - ; ; , ; ; - ; , ; - = + + + 9 ^ { ! D E E E ~ P P Q ",
"5.5.| 9.#.q.` ^ m t , , 6 ^ E &.f 8 8 y Z N t 8 6 1 m v.`.T.9.+.S h 6 6 1 0 y g q q 1 6 6 1 1 3 1 < + + = y ~ ^ ~ ! Z Q _ K l I ",
"@.O.| | #.+.^ C g 6 , ; y ~ Q E d 6 8 y R ! m l N ^ 6.l.^.L.p.+.( S M M A S ^ ` { ` M y q 0 q 0 0 1 = @ @ ; l E ^ Q R ~ ) P l Q ",
"! ( ( | / | ^ M t 6 1 1 t Z Z V r 8 t N R ^ C | 5.9.+.+.+.O./ S M h g h m h h S A A m g q y y y 6 8 , : + = 1 Z E ~ ) ....Q c Q ",
"^ ~ { | ( ( D g y t 6 6 t N V f r 8 y f N M S ` / A A M M N y 8 1 , , - ; , , , , , ; , 1 8 0 0 0 8 6 ; = = - g ^ ^ o.:.>.I l ! ",
"Z I R ] | X.M y f m 8 6 y Z f t r y 9 6 6 0 0 0 0 q 6 8 6 , = - = - = - = < - : = @ + + + + + = ; 1 , < - - - t ` =.o.7.,.[ f E ",
"V V Q } +.4.S q t m y 8 y Q V 7 7 7 - = = = = + @ = = = : : > 7 5 u f i d L n e e 5 < : @ X . . . o = - < 1 1 8 S O.>.d.>.Y c E ",
"f l E 3.5.l.| y 6 m N m f I V r 7 , = ; , ; - @ o + : w u u x L k n L P c T L x z u w 7 : X . . . o + > 9 l g t E *.&.>.' P c I ",
"f d P =.l.z.u.N 8 y Q R N V C f f d t l ~ A h 1 , - 3 r e > e k 7 3 9 8 r i i 3 < - : - + o o o = ; ; 0 Z ^ ! m [ O.o.[ _ P K P ",
"f c V >.b.P.i.3.l t N ) ~ [ E Z Z ! M A C +.( | J F a H j p a j a t 8 8 y t 1 6 6 1 , 1 1 , , 1 0 0 6 M 9.u.^ N +.4.) ^ L L K Q ",
"l c P >.I.`.P.h.E 8 f ' &. .] ~ ( { ` S A ` =.=.7.&.$.-.w.$.$.$.$.$.$.$.-.J B v B a q y a y y q y q m 4.l.4.^ Z *.*.o.~ P P P Q ",
"d V K >.S.].R.T.] t 8 Q ..o.) ` ^ [ ` ( N A ^ o.$.$.$.-.%.-.%.-.$.$.$.$.J H j H B j a h q y q 0 0 h =.M.#.+.Z ` 7.t.) Q c K P I ",
"x c K _ b.Q.'.!.T.Q t f } O.{ ~ ^ { X./ S m l l j H J H J J $.%.-.J F F j t a a q 0 q 0 0 0 8 6 q | H.h.4.] m ` y.[ Q V c c K N ",
"I _ K I h. XJ.).OXv.f r N y.] X.| +./ ( M m 8 8 8 s r 8 9 9 3 9 e 9 < > < , < < < 7 7 1 8 q 6 y C b.k.t.4.W g | 3.[ m f d K c N ",
"Y ;._ _ >.J.P.P.).J.I 8 f ` #.+.5.| ` ^ A M y t 8 t 9 9 7 < < > < < : > : > > > > < < 7 9 8 8 m 4.b.h.7.4.C N o.O.Q d d c P V N ",
"L ,.;.&._ f.b.J.D.H.:.s 8 C y.c.5.+.{ / N N m m y y y l d d i e 7 < > > > > > > < < 7 9 8 y m } k.b.f.i.&.m R  .Q m d x l V P Q ",
"T ;.,.;...' f.k.g.i.t.l 6 l 7.x.u.{ { / S m N m N N Z E Q Q V f s 9 < < < < < 7 8 t y y m N o.Z.b.g.h.t.` N ` [ Z s r d c P ^ ) ",
";.<.;.,.;.;.' ' &.i.o.` s y ^ c.s.+.{ S S N N ! o.v.t.4.7.t.^ Q l f r r t s s N Z ! M Z Q &.k.P.J.S.i.w.C R ) ^ f s 9 f P _ ! I ",
";.,.,.;.,.' P 9 K d.3.] [ N X.0.s.l.X.| { ^ } p.W.P.b.b.T.T.l.t.7.[ I ' >.7.d.w.s.u.4.&.&.t.b.Z.J.S.g.~ Z ` ^ l f s d c Y ;.P m ",
"Y <.,.<.;.L u 2 9 L _ ] ` ^ p.i.+.M.l.l.4.x.T..X(.(.Z.k.i.Z.H.(.J.I.U.U.I.U.U.^.b.b.w.7.:.v.g.g.i.J.:.E Z ) l f d c c Y Y Y I _ ",
"L ,.,.<.,.c 7 * * 4 i ..q.a.B.l.+.l.T.H.x.c.W. X-X).}.T.J.W.'.^.}.U.%XI.U.U.I.P.v.7.7.w.h.k.h.f.g.g...E ) Z d l Y K K Y _ T ' _ ",
"n ;.;.;.T c 5 & * 2 4 c k.|.E./.w.j.v.F.b.A.D.|.-X6X%X*X}.:XU.*X2X9X2X9X2X:XS.k.i.4.o.i.i.t.6.d.g.g.^ ` ^ d 9 d I P l P _ ' &.>.",
"z Y T T T x 2 % * * * e 1.+X-X Xv.5.j.c.M.G.P.].>X&X*X$X<X9X2X:X2XrX9X9X%Xg.J.w.w.:.O.3.i.t.d.f.J.d.) ^ K d 7 9 V P l K Y ;.d.f.",
"w K Y ;.L d * % & & 2 w L =X1X>XB.i.e.G.M.J.).|.U.=X*X7X%X6X2XwX%X%X%X@Xt.7.h.h.7.&.) *.:.v.k.P.g.d...P i d w r s I I L K ;.7.d.",
"w x Y Y K w & % % & * 5 x %XyX6X!.y.y.e.M.P.Q.P.).^.H.B.b.Z.I.U.g.k.b.v.k.k.a.4.} ) [ *.f.M.E.).S.,._ n x k u r 9 r l P Y Y x i ",
"5 w b n z w # # % & & > r U.yX<X^.b.&.y.R.*X~.[.XX'.h.b.V.V.7.w.i.k.:.4.:.u.] =.[ :.) >.v.'.Q..Xf.;.x i K z u u : 3 9 d x e < 4 ",
"% & 2 5 k 5 # O # # & * 7 f.uXrX!.7.N.*XrX2XoX}.$X}.P.P./.G.t.7.e.&.{ Q [ {  .O.7.h.o.&.P.'.+XU.d.K d 5 u w 5 w * $ > > > > < > ",
"O O # * 4 4 & O # # & > 3 g.uX0X,.U.2XuXrXpXtXeX&X>X@X;X]./.J.T.v.y.~ E E [ ` 7.w.k.7.H.!.*X}.J.Y l z 5 2 2 : 4 % # : < < 7 3 s ",
"O O O % & 2 * O O O % : f ).uXpXhXhXsXpXdXhXzXlXfXpXdXpXyX>X*X+X*X|.7.I Q _ ) &.7.z.P.(.:X,XS.Y K r w 5 > : & * O # < 7 s d d x ",
". . . # % * & # . O $ < &.&X0XhXlXzXjXhXhXlXjXzXzXzXaXhXjXfX7X2X8XtX%XS.;.I G o.b.~.K.%X7X%X' K c w * * & & O O O # & < 9 r r s ",
". . . O # & % # . X # d f.2XiXiXhXjXjXiXaXaXaXaXgXgXaXaXaXaXqXqXqXqXqXqXqX2.T <.S.Y.Y.%X4X2.n b z w * & & # O O # # % : 5 5 w u "
};
