/* XPM */
static char *out[] = {
/* columns rows colors chars-per-pixel */
"64 64 221 2 ",
"   c #2B1608",
".  c #4A2415",
"X  c #5C2C1A",
"o  c #68321E",
"O  c #583F2A",
"+  c #763A24",
"@  c #7E3D26",
"#  c #63432F",
"$  c #6E402D",
"%  c #6A4D37",
"&  c #77523D",
"*  c #7F5D46",
"=  c #814A35",
"-  c #8E4B34",
";  c #96523A",
":  c #865540",
">  c #8C5D46",
",  c #9D5943",
"<  c #955F49",
"1  c #A45E45",
"2  c #89664F",
"3  c #9B644E",
"4  c #916A53",
"5  c #9A6F56",
"6  c #AB644A",
"7  c #A16851",
"8  c #AD6D51",
"9  c #A86D58",
"0  c #B36A51",
"q  c #B76F53",
"w  c #A1765D",
"e  c #A7755C",
"r  c #AE755B",
"t  c #B4715D",
"y  c #B97658",
"u  c #A87B63",
"i  c #AE7D64",
"p  c #BD7564",
"a  c #B27861",
"s  c #B47F64",
"d  c #BB7E63",
"f  c #C1785B",
"g  c #C87E61",
"h  c #AC836B",
"j  c #BE8466",
"k  c #B3876E",
"l  c #BA876A",
"z  c #BF8B6C",
"x  c #BF8470",
"c  c #B78C72",
"v  c #BC8E72",
"b  c #C38264",
"n  c #CC8566",
"m  c #C78568",
"M  c #C48A6C",
"N  c #CC8C6D",
"B  c #CC8C6E",
"V  c #D18969",
"C  c #D48C6E",
"Z  c #D88F6F",
"A  c #C88973",
"S  c #CC8A78",
"D  c #D08B78",
"F  c #C39072",
"G  c #C69677",
"H  c #C89172",
"J  c #CC9475",
"K  c #CA997A",
"L  c #CF9C7E",
"P  c #D19071",
"I  c #D09072",
"U  c #D29172",
"Y  c #D09273",
"T  c #D39273",
"R  c #D49374",
"E  c #D59475",
"W  c #DA9472",
"Q  c #DD9876",
"!  c #D79778",
"~  c #D1967C",
"^  c #D89778",
"/  c #D59A7B",
"(  c #D99878",
")  c #D9997A",
"_  c #DB9A7A",
"`  c #DA9A7B",
"'  c #DC9B7B",
"]  c #DB9C7D",
"[  c #DA9D7E",
"{  c #DE9D7D",
"}  c #DC9D7E",
"|  c #DD9D7E",
" . c #E09E7D",
".. c #E29F7D",
"X. c #E2A07F",
"o. c #DD9E80",
"O. c #DE9F80",
"+. c #DF9F80",
"@. c #D4A082",
"#. c #DFA081",
"$. c #DCA386",
"%. c #D8A485",
"&. c #D7A88D",
"*. c #DCA88A",
"=. c #DFAB8E",
"-. c #DBAB91",
";. c #DFAF94",
":. c #E0A081",
">. c #E2A181",
",. c #E3A181",
"<. c #E0A182",
"1. c #E1A283",
"2. c #E3A282",
"3. c #E4A281",
"4. c #E4A382",
"5. c #E4A383",
"6. c #E5A383",
"7. c #E5A483",
"8. c #E6A483",
"9. c #E5A484",
"0. c #E6A584",
"q. c #E6A585",
"w. c #E7A686",
"e. c #E8A787",
"r. c #E9A887",
"t. c #E0A58A",
"y. c #E3AC8D",
"u. c #E7AD8F",
"i. c #E8A888",
"p. c #E9A888",
"a. c #E9A989",
"s. c #EAAA8A",
"d. c #EBAA8A",
"f. c #EBAC8C",
"g. c #EBAE8F",
"h. c #ECAC8C",
"j. c #ECAD8D",
"k. c #ECAE8F",
"l. c #EEAF8F",
"z. c #EDAF90",
"x. c #EEAF90",
"c. c #E4B195",
"v. c #E9B193",
"b. c #EDB091",
"n. c #EEB090",
"m. c #EFB090",
"M. c #EEB091",
"N. c #EDB192",
"B. c #EEB192",
"V. c #EFB192",
"C. c #EFB293",
"Z. c #ECB496",
"A. c #E1B49A",
"S. c #E6B599",
"D. c #EAB79A",
"F. c #EEB899",
"G. c #EEBC9E",
"H. c #F0B293",
"J. c #F0B394",
"K. c #F0B495",
"L. c #F1B495",
"P. c #F0B496",
"I. c #F1B596",
"U. c #F1B597",
"Y. c #F2B596",
"T. c #F2B697",
"R. c #F2B698",
"E. c #F2B798",
"W. c #F2B799",
"Q. c #F3B799",
"!. c #F2B89A",
"~. c #F3B89A",
"^. c #F3B99A",
"/. c #F3B99B",
"(. c #F4B99B",
"). c #F4BA9C",
"_. c #F4BB9C",
"`. c #F4BB9D",
"'. c #F5BB9D",
"]. c #F5BC9D",
"[. c #F5BC9E",
"{. c #F5BD9F",
"}. c #F5BE9F",
"|. c #F1BFA1",
" X c #F5BEA0",
".X c #F6BEA0",
"XX c #F6BFA0",
"oX c #F6C0A1",
"OX c #F6C0A2",
"+X c #F6C1A2",
"@X c #F6C2A3",
"#X c #F7C2A3",
"$X c #F6C3A4",
"%X c #F7C3A5",
"&X c #F2C4A5",
"*X c #F7C4A5",
"=X c #F7C5A6",
"-X c #F7C6A7",
";X c #F7C7A8",
":X c #F7C8A9",
">X c #F0CBAD",
",X c #F4CDAE",
"<X c #F8C8A9",
"1X c #F8C9AA",
"2X c #F8CAAB",
"3X c #F8CBAC",
"4X c #F8CCAD",
"5X c #F8CDAE",
"6X c #F9CEAF",
"7X c #F3D1B3",
"8X c #F7D1B2",
"9X c #F0D4B6",
"0X c #F6D4B6",
"qX c #FAD3B4",
"wX c #FAD7B8",
"eX c #F1D8B9",
"rX c #F7D8BA",
"tX c #F5DBBB",
"yX c #FADDBE",
"uX c #F6DDC0",
"iX c #F9E1C3",
/* pixels */
";.B.8.3.E M u h w k K K L -.c.P.S.S.;.;.&.;.;.c.;.S.;.S.c.D.;.;.-.c.-.;.=.S.v.g.t.;.*.=.*.f.f.y.$.t.$.1.O.<.[ } E ! E ! ! ^ R E ",
"=.a.r.7.+.A k h u i G K @.=.S.D.D.c.A.-.-.-.;.;.;.c.c.c.S.c.c.;.;.c.c.;.;.v.c.u.i.=.*.%.y.=.y.t.q.<.O.1.1.<.} [ ) ) ` _ | _ _ U ",
"G {  .,.' B u u u k F K @.y.=.D.c.;.&.-.-.;.-.;.c.S.;.c.S.D.*.;.;.;.&.-.;.D.;.;.;.g.@.*.=.u.*.q.9.9.O.1.w.a.2.9.O.>.] | q.2.^ E ",
"c W W W E z i u u h F L @.y.;.;.c.;.&.-.-.;.-.-.A.;.;.c.S.S.=.;.;.;.-.c.;.S.;.;.c.*.&.*.y.=.t.=.f.u.i.g.z.k.s.i.s.w.9.5.e.>._ E ",
"c _ W W I M i h u k G L @.*.&.;.-.=.-.-.-.;.;.;.;.c.;.S.A.S.c.;.-.;.;.c.;.c.c.D.=.;.y.c.i.g.u.P.g.C.k.b.a.s.i.e.q.w.>.8. .#.! ) ",
"v ! Q W W M s i u F L L @.@.*.-.*.-.*.*.;.-.;.=.;.c.c.c.S.c.=.;.;.;.c.c.c.S.G.!.P.!.!.F.U.P.U.P.C.V.z.g.k.a.5.9.q.>.>. .O.| ) ! ",
"k / W W C I s s j H L @.*.*.%.*.*.=.*.=.;.v.u.c.F.G.S.c.!.}.c.D.G.G.F.`.OX-XZ. X!.'.Z.W.!.W.k.C.C.H.i.j.w.w.O.3.9.w.) ' 1.3.E ^ ",
"k / E Z Z B d e z J L @.&.*.$.$.u.w.*.u.C.F.J.P.`.{.[.{.%X@X!.G.+X~.Q.].%X%X}.`.].E.J.C.~.C.s.z.M.j.k.i.i.w.q.q.e.O.+.:.w.q.) ) ",
"s Y T Z V N d s j L / *.%.*.<.y.t.u.s.~.P.~.~.{.~.{.`..X{.#X X.XP.~.K.~.]. X].~.k.N.k.z.n.J.s.x.k.V.M.P.f.h.w.q.O.4.O.q.X.0.} } ",
"s J C V V N s a H L O.%.=.5.i.w.q.i.g.k.J.~.!.}.~.).~.`. X X].].Z.N.x.Z.].~.{.n.g.f.i.n.U.Q.E.P.~.Q.g.g.J.i.5.5.1.} 6.O.>.2.} ! ",
"k E N V C P y a Y $.$.t.c.c.) R H z k s k F L v.!.}.Z.Z.~.(.P.~.k.f.9.N.~.).J.s.w.w.+.k.~.].Q.'..X.Xi.g.g.i./ ~ Y / H I B J N U ",
"F J T n Z Z d a ~ [ [ $.@.z r < > = $ $ % % & 7 F L $.i.~.!.V.V.V.w.q.g.~.J.s.2.q.>.+.s.~.OX].Q.Q.R.f.*.@.z r 9 5 3 7 3 9 a d d ",
"l K Y E Z Z g j / <./ H r 7 7 7 5 3 = $ # # # & = 7 a J } k.h.j.i.q.q.f.k.k.1.O.{ <.] h.P.J.P.V.} H s 7 > & # # X X $ = = < < 7 ",
"z K L J I T d b O.>.) b d R $.1.y.=.@.z r 7 3 < < , 8 j N ) i.s.s.2.1.3.a.q.2.^ ^ ! { 6.f.s.[ j 7 : o X X . . . . X o $ $ $ & : ",
"F K L / ~ ^ d b :.w.} ) 2.f.5.9.v.N.t.5.9./ M M m j t d m U ) w.e.a.O.q.i.i.) I V P N ^ } ^ t , = $ X X X X X o = 4 4 3 > < : > ",
"K L L L @.I t b i.w.w.2.7.9.>.{ 1.$./ / / R H m b d d m B E _ 2.q.q.2.>.i.3.' b b d d b m y , = + o o o + = < r M R Y H M j a r ",
"K L @.@.@.I y M 5.k.r.q.2.9.E b H / 1.N.v.f.O.! b t 6 d B ^ } r.X.2. .3.>.q.' b 0 t t y t 6 ; = + + + : < a j H I Y J Y Y Y H Y ",
"@.@.L @.t.5.b m 5.k.s.O.O.N y J v.c.c.$./ H j j j t 1 6 b I _ 6.r.q.:.:.9.2.) b t t t 8 6 ; - - : = - - 7 t y 0 r 8 9 6 8 8 s b ",
"@.@.K @.*.k.m N ) k.s.1.I t a *.L s > # X . . X $ ; , 1 t n P :.w.h.9.:.q.2.U N j y 1 1 ; ; - = = + o ; s Y N M j j 8 7 , - + - ",
"@.@.L L c.!.N n { i.s.9.B 8 j s & .   . #       . X + - 6 b B ^ k.J.h.s.m.w.) N d 0 1 ; ; = + $ X $ : > > & $ o $ : > < < < = o ",
"@.@.L L / i.m j N N ! ) b 1 < o . X O % #       . # o o = 9 B ' h.OX].!.J.N.1.I t 1 ; ; = + o X X @ + . . .             . . . X ",
"*.%.%.%.f.J.E m B P b 6 ; = - : > 7 r w 4 & # # & 4 : + + = B :.J.-X4X%X}.J.s.N 8 ; ; - @ + X . o o @ % # .     . # X . . . . . ",
"=.y.*.-.1.w.O.:.k.x.) m b b ^ i.1.w.O.1.@.J z z A m y r t d _ n.Q.8X6X6X-X~.} b 1 , ; - ; 1 ; 1 a M B H H i 4 > 4 r 5 4 4 > @ o ",
"y.=.%.[ W C Z W n.Y.x.m.k.q._ 6.h.7.{ ^ _ U N V C C V V W { i.Y.-X6XwX8X4X~.{ d 1 , 6 8 0 N ^ E | _ { O.1.} P n U C b y f t t p ",
"*.*.%.%.Z W n Q h.Y.J.Y.Y.Y.h.:.Q W C C T C Z C n n g g f E Y.OX-XwXwX8X-X~.' f 1 1 0 N I R { ..U N n T C R N f q q y n n V n n ",
"y.t.t.t.q.q.W 2.n.l.V.!.]. X XV._ m f f m m g f q 8 1 y O.}.+X%X1X4X1X4XOXn.^ b q y f b ' q.2.7.r. .N 0 6 1 8 8 6 6 1 1 1 , ; - ",
"f.u.t.1.w.1.V Q s.m.h.].].%X{.OXY.s.T g q 0 1 6 8 d / !.4X3X%X<X2X6X-X-X].i.N g g n n C Q i.2.q.g.V.d.f.O.B t 8 1 , ; ; , 6 0 I ",
"f.i.t.<.2.Q n  .Y.Y.x.P.OX X-X-X-X].Y.J.k.r.w.g.].[.OX-X4X2X:X-X6X6X6XOX~.} n f N C Q { w.7.7.3.f.n.J.P.~./.E.~.J.f.w.w.J.J.s.g.",
"9.i.<.<.w.:.W h.J.~.~.].'.%X%X2X6X-X~. X/.~.Q.OX].<X-X=X%X2X2X4X6XqX4XOXs._ n n g V W { { 6.2.r.s.V.P.~.U.(.Q.}.~.XXQ.U.J.n.s.w.",
"9.<.1.[ h.h.{ r.Y.Y.Y.].%X%X6X2X8X1XOXY.~.Y.].{.<X<XOX X6X6X8X8XuX4X1X~.h.' C n n f g f y p g W r.n.Y.U.~.Q.].{.OXOX#X~.Q.V.h.:.",
"q.q.| $.q.h.:.q.Y.~.V.]. X-X6X6XwX6X}.~.). X}.-X2X4X}.-X6X8X6XuXyX6X].Y.n.r.Q Q N f q y 0 8 ; 1 g q.n.~.].%X}.OXOX%X`..X'.~.r.h.",
"q.1.o.] s.r.:.q.Y.Y.Y.~.-X1X1X6XwX6XOX].-X;X+X=X1X:X%XoX1X6X8XuXuX4XOXJ.n.n.j.w.W f y n W V 0 ; ; 0 I w.Y.~.].~.{.(.U.Y.Q.L.l.e.",
"o.#.[ #.i.r.Q 6.s.V.U.].OX4X8X6X4X6X2X4X=X=X%X=X!.!.J.].%X6XwXuXrX4X}.Y.J.U.Y.s.Z m f Q  . .C 6 = - , b ) h.J.Y.n.H.P.j.h.l.r.r.",
">.[ #.o.s.l.2.{ r.d.m.!.OX-X1X%X-XOX}.~.E.Y.m.q.Q n 2.].1X6XwXuXwX4XOX].{.`.V.W g f n W Q V f 6 1 , , , y E 1.s.k.d.e.p.s.i.w.2.",
"#.+./ ] w.Y.q.w.e.k.k.J.OX%X}. X(.R.d.p.q. .n p 8 b w.OX1XwXwXrXyX6X%XOXOX~.I y 6 6 1 1 1 1 , 1 0 y 0 8 6 y n { 1.w. .q.q.:. .q.",
"[ / / / w.n.s.:.3.r.g.P.).].U.U.V.q.' P m 0 , ; d Z.%X%X4X6XuXuXiXiX4XOX].^ t ; @ + + $ + = ; , 6 8 0 q y 6 6 d U ^ ^ ^ _ ^ ^ ' ",
"E / E / { i.e.{ W :.w.J.x.Y.U.r.Q E m y , - ; m g.1X<X6X1XwXuXiXiXrX1X}./ 8 - + + + + + + = = - ; , 1 8 0 8 , 1 8 A P E I P B Y ",
"R Y E Y } 6.>.E Z Z 2.f.d.i.2.Z n p 8 ; - , J v.%X4X8X6X8X6X6X:X-X].U.[ y ; = + + + $ $ + + @ = - = - ; ; ; - - - 7 j B B N B B ",
"I Y A H ) O.W C N V Z q.6.2.V g y 0 ; - , M t.!.-X6X4X6X1X-X~.P.i.) b t , = $ + + @ $ + @ @ @ = @ + + = - - + + @ @ ; j ^ ! N n ",
"N m M J } _ ^ V g n Z { 6.Q n t 1 , - ; d ) v.}.-X-XOXP.P.J.J.i.w.M 1 ; ; ; ; - = = = @ = - - - = = @ = : = @ o + $ $ - b E B B ",
"j l z J ) [ } _ m g n Q ' E p 6 , ; ; t B [ Z.Z.t.@.[ 1.1.O._ _ B b , ; 6 d d 7 ; - : - = - - < = = : - - - = = $ $ $ + ; d B N ",
"z j M J O.q.w.1.E m V C ) I y 1 , ; 6 b N ~ 5.Y j t b I E M d y 6 - @ - t m m y 8 , ; - - - - - - - - ; ; ; < > : + $ + @ , b B ",
"j M j H 1.k.h.g.2.U d b ! ) y 1 , , 8 b j J H d 0 8 0 b b b 6 1 , - ; m O.{ B m j 8 , ; ; , , 1 1 6 , , 1 6 , 3 - = $ $ @ = 0 B ",
"l M z H t.f.k.k.J.R b y N U b 6 1 1 d j z H j r 0 8 t y b j 8 6 8 6 b :.g.r.Q P n y 6 1 1 6 0 y y f 6 1 6 6 , , , : $ + = = 6 B ",
"s H H L @.g.V.P.J.5.B d d ! R b 1 8 N M s d r r 8 t y b b n d b b V C ! ) :._ W n n f y q 0 t p y q 6 , , < - - @ + + : , < 8 ! ",
"l z G H @.V.V.K.U.k./ j d I ) I d d I b r 7 7 9 9 6 6 0 y g N C N N n N Z B n g f q 8 1 , , ; , ; = = @ + o X X $ = 7 a j 1 b R ",
"J L J J L g.k.Z.P.).O.m y M R ! B N m b 8 , - = = = = ; 1 q q y y f y p p y 6 1 1 , - ; - - = = = @ + + @ = = ; , t B ^ U t b E ",
"K L L L @.1.V.V.P.K.f.R a y Y { O.) I M b t 9 1 , 1 6 8 y p y t y y 0 0 t 0 0 0 8 8 6 7 9 1 1 , 1 , 1 1 0 8 6 8 d R ! ^ B y Y Y ",
"G @.%.@./ @.t.J.n.g.f.w.b t M 5.>.1.! U I B M I m j t d B R R E B E D D S D D A g p t t 8 y y t t t t t 8 0 y n ^ 2.E U y N [ ! ",
"K %.@.@.%.@.$.i.i.w.9.f.M 8 d ! O.>._ I U P U E E B d d M H Y J Y Y Y D H A x x a r r 9 8 t t 8 8 0 0 8 8 t n _ w.>.U m t I [ M ",
"@.*.@.%.@.@.L J L t./ <.J 0 8 N [ 6.E E E E U ! ) U j d a d r a j z s d d d e 9 7 5 < 3 7 7 7 7 9 t 8 0 y m E 1.<.} N t y E M d ",
"@.*.%.@.%.L H w z *.J M ~ y 8 j { 6.+.) ' _ E R ' U m j d a r r j b d d j a 7 3 3 3 < < 3 7 7 7 9 8 t y m Y [ O.<./ b 8 b M s a ",
"K *.%.*.@.K e > 4 k M H H M j N ! r.:.>.) ` ! E E E B m j b d d b M m b a r 9 7 4 < 4 3 7 9 7 8 8 y d M / [ O.<.o.B y b j d r s ",
"H @.*.%.%.z 5 * * 4 e H / { { O.! 2.X.| O.{ ) R E ! E I Y Y I B U Y H b s r 9 7 7 7 9 r s s d d j b B [ 5.$.t.$.I b m b d a a j ",
"v @.L @.L v w * & * 4 e L v.i.i.2.q.) ) | 6.^ ) ^  .] } t.u.) R [ <./ @.~ M s d k k d z H Y M H J Y / / / t.@.J m A j d d d j H ",
"k K L L L k 4 & * * * 4 H Z.G.G.f.O.[ 1.} O.] O.q.1.i.g.a.i.[ ~ [ [ $.%.@.@.L L @.H H H L J J / [ @.J / $.$./ z M z s d M z M J ",
"w F K L G s * % & & * 5 s P.|.].F.2.<.2./ [ ) 1.u.u.t.Z.v.N.t.t.%.t.y.c.c.c.=.=.@.@.J H M J ~ / ~ / / [ / [ J M j r r j M H Y L ",
"w k G K v e & % % & > 4 s =.;X%X|.f.#.+.X.2.1.1.1.u.Z.].!.^.G.Z.c.v.Z.Z.D.G.=.@.t.[ Y H J H / / O.} o./ $./ M s s 9 e a M H z i ",
"5 w c v k w % # # & % > 7 =.-X6X XC.{ #.>.s.v.E.g.Q.u.P.C.M.g.!.P.v.t.v.z.M.$.<.O.] J Y / / / <.y.g.$.$.J K k s e 4 3 r s a 5 4 ",
"% & 4 4 h 5 % O # % % : 7 / :X5X+Xy.#.e.~.OXOX(.XXE.C.g.m.f.i.1.q.5.1.1.q.<.| ! } | ! ` O.O.1.p.U.P.@.J d k i e w & = > < > < 4 ",
"O O # * 4 4 * O # # % : < t.;XqX*.y.|.2X-X5X1X=X}.OX`. XT.I.f.f.a.q.) ^ I E E ' _ >.1.1.! p.M._.!.t.M F w 5 2 4 * # & 4 < 7 3 r ",
"O O O % * 2 * O O O % : a U.1XwXrXwX0XqXqXrXiXuXrX5X8X5X6X*X}.`.{.U.1.Y Y Y ( ! #.q.i.g.H.}.G.=.J F e u 4 * & * # # > 7 r s d l ",
". . . # % * & # . O $ < o. X1XrXuXiXtXrXrXuXtXiXiXiX0XrXtXwX-X-X-X3X|.c.@.J A O.g.U.Z.|.-XG.L F z w * * & & O O O # & < 9 r r s ",
". . . O # & % # . X # s y.$X6X7XtXtXtX7X9X9X9X9XeXeX9X9X9X9X>X>X,X>X>X>X>X;.L *.S.D.G.G.&X;.v c k w * & & # O O # # % * 5 5 w u "
};
