/* XPM */
static char *out[] = {
/* columns rows colors chars-per-pixel */
"64 64 225 2 ",
"   c #2B1608",
".  c #4A2415",
"X  c #5C2C1A",
"o  c #68321E",
"O  c #583F2A",
"+  c #763A24",
"@  c #7E3D26",
"#  c #63432F",
"$  c #6E402D",
"%  c #6A4D37",
"&  c #77523D",
"*  c #7F5D46",
"=  c #814A35",
"-  c #8E4B34",
";  c #96523A",
":  c #865540",
">  c #8C5D46",
",  c #9D5943",
"<  c #955F49",
"1  c #A45E45",
"2  c #89664F",
"3  c #9B644E",
"4  c #916A53",
"5  c #9A6F56",
"6  c #AB644A",
"7  c #A16851",
"8  c #AD6D51",
"9  c #A86D58",
"0  c #B36A51",
"q  c #B76F53",
"w  c #A1765D",
"e  c #A7755C",
"r  c #AE755B",
"t  c #B4715D",
"y  c #B97658",
"u  c #A87B63",
"i  c #AE7D64",
"p  c #B77764",
"a  c #BD7564",
"s  c #B27861",
"d  c #B47F64",
"f  c #BB7E63",
"g  c #C1785B",
"h  c #C87E61",
"j  c #C07B6B",
"k  c #AC836B",
"l  c #BE8466",
"z  c #B3876E",
"x  c #BA876A",
"c  c #BF8B6C",
"v  c #B78C72",
"b  c #BC8E72",
"n  c #C38264",
"m  c #CC8566",
"M  c #C78568",
"N  c #C4816F",
"B  c #C48A6C",
"V  c #CC8C6D",
"C  c #CC8C6E",
"Z  c #D18969",
"A  c #D48C6E",
"S  c #D88F6F",
"D  c #C98270",
"F  c #C88973",
"G  c #CC8A78",
"H  c #D38E7E",
"J  c #C39072",
"K  c #C69677",
"L  c #C89172",
"P  c #CC9475",
"I  c #C09379",
"U  c #CA997A",
"Y  c #CF9C7E",
"T  c #D19071",
"R  c #D09072",
"E  c #D29172",
"W  c #D09273",
"Q  c #D39273",
"!  c #D49374",
"~  c #D59475",
"^  c #DA9472",
"/  c #DD9876",
"(  c #D79778",
")  c #D1967C",
"_  c #D89778",
"`  c #D59A7B",
"'  c #D99878",
"]  c #D9997A",
"[  c #DB9A7A",
"{  c #DA9A7B",
"}  c #DC9B7B",
"|  c #DB9C7D",
" . c #DA9D7E",
".. c #DE9D7D",
"X. c #DC9D7E",
"o. c #DD9D7E",
"O. c #E09E7D",
"+. c #E2A07F",
"@. c #DD9E80",
"#. c #DE9F80",
"$. c #DF9F80",
"%. c #DD9986",
"&. c #D99E87",
"*. c #D4A082",
"=. c #DFA081",
"-. c #DCA386",
";. c #D8A485",
":. c #D7A88D",
">. c #DCA88A",
",. c #DFAB8E",
"<. c #DBAB91",
"1. c #DFAF94",
"2. c #E0A081",
"3. c #E2A181",
"4. c #E3A181",
"5. c #E0A182",
"6. c #E1A283",
"7. c #E3A282",
"8. c #E5A382",
"9. c #E4A383",
"0. c #E5A383",
"q. c #E5A483",
"w. c #E6A483",
"e. c #E5A484",
"r. c #E6A584",
"t. c #E6A585",
"y. c #E7A685",
"u. c #E7A686",
"i. c #E8A787",
"p. c #E9A887",
"a. c #E0A58A",
"s. c #E3AC8D",
"d. c #E7AD8F",
"f. c #E8A888",
"g. c #E9A888",
"h. c #E9A989",
"j. c #EAA989",
"k. c #EAAA8A",
"l. c #EBAA8A",
"z. c #EBAB8B",
"x. c #EBAC8C",
"c. c #EBAE8F",
"v. c #ECAC8C",
"b. c #EDAD8D",
"n. c #EDAE8E",
"m. c #ECAE8F",
"M. c #EEAF8F",
"N. c #EEAF90",
"B. c #E4B195",
"V. c #E9B193",
"C. c #EDB091",
"Z. c #EEB090",
"A. c #EFB090",
"S. c #EEB091",
"D. c #EDB192",
"F. c #EEB192",
"G. c #EFB192",
"H. c #EFB293",
"J. c #ECB496",
"K. c #E6B599",
"L. c #EAB79A",
"P. c #EEB899",
"I. c #EEBC9E",
"U. c #F0B293",
"Y. c #F0B394",
"T. c #F0B495",
"R. c #F1B495",
"E. c #F0B496",
"W. c #F1B596",
"Q. c #F1B597",
"!. c #F2B698",
"~. c #F2B799",
"^. c #F3B799",
"/. c #F3B899",
"(. c #F2B89A",
"). c #F3B89A",
"_. c #F3B99A",
"`. c #F3B99B",
"'. c #F4B99B",
"]. c #F4BA9B",
"[. c #F4BA9C",
"{. c #F4BB9C",
"}. c #F4BB9D",
"|. c #F5BB9D",
" X c #F5BC9D",
".X c #F5BC9E",
"XX c #F1BFA1",
"oX c #F5BEA0",
"OX c #F6BEA0",
"+X c #F6BFA0",
"@X c #F6BFA1",
"#X c #F6C0A1",
"$X c #F6C0A2",
"%X c #F6C1A2",
"&X c #F6C2A3",
"*X c #F7C2A3",
"=X c #F6C3A4",
"-X c #F7C3A5",
";X c #F2C4A5",
":X c #F7C4A5",
">X c #F7C4A6",
",X c #F7C5A6",
"<X c #F7C6A7",
"1X c #F7C7A8",
"2X c #F0CBAD",
"3X c #F4CDAE",
"4X c #F8C8A9",
"5X c #F8C9AA",
"6X c #F8CAAB",
"7X c #F8CBAC",
"8X c #F8CCAD",
"9X c #F8CDAE",
"0X c #F9CEAF",
"qX c #F3D1B3",
"wX c #F7D1B2",
"eX c #F0D4B6",
"rX c #F6D4B6",
"tX c #FAD3B4",
"yX c #FAD7B8",
"uX c #F1D8B9",
"iX c #F7D8BA",
"pX c #F5DBBB",
"aX c #FADDBE",
"sX c #F6DDC0",
"dX c #F9E1C3",
/* pixels */
"1.F.j.g.[ L k k w k K Y *.:.<.1.1.B.B.B.1.B.<.B.B.B.B.I.K.I.K.B.B.B.<.B.s.V.s.d.s.s.s.h.s.h.h.N.6.j.6.f.a.5.[ | ~ ( ( | _ _ W E ",
",.k.b.v.y.~ l k u k U Y *.:.<.1.<.<.B.1.1.B.1.1.1.1.1.B.B.K.L.1.1.1.1.1.B.s.d.c.d.a.a.t.s.h.h.f.f.6.6.9.t.0.+...[ [ [ [ ..[ _ E ",
"I / ..w.0.W d i e k z Y *.<.*.<.<.<.1.1.1.B.1.1.1.1.<.K.K.L.1.K.B.1.1.<.1.d.>.s.d.s. .s.z.G.j.h.u.z.6.u.i.h.+.O.O...! ..O.} R A ",
"J / ^ / / V i u u k v U ;.*.*.<.1.1.1.<.B.B.1.1.B.B.1.B.L.K.1.1.B.1.B.1.B.1.c.U.'.U.U.D.D.G.c.x.m.x.f.t.k.g.O.] ..[ _ ] O.( E A ",
"v / / O.^ ~ n d u k c Y Y *.<.,.<.1.B.B.1.B.1.1.1.1.B.B.B.L.1.L.K.K.I.{.P.{.W.'.V.W.D.G.n.m.t.x.t.j.u.w.6.6.O.O._ { _ o./ ( R A ",
"J / / / O.[ R l B c U Y *.;.<.<.1.B.K.L.B.L.L.K.I.I.#X%X:X*X*XOX{.P.'.(.(.Q.U.U.D.D.G.N.n.w.7.r.t.7.+...#.0.#...o.] [ { X.~ Z Z ",
"J +.S ^ / ..A R Q ` ` s.V.L.B.L.%X:X.X*X*X&X.XI.OX#XL.%X*X*XI.%X{..XE.(.).W.x.G.G.H.z.G.M.f.6.f.u.u.o.+.+.t.+.O...=.] @...~ m m ",
"J +.^ ^ ../ ' ~ { 6.s.h.'.P.~.'.#XOX}..X>X&X#X%X%X'.U._.*X*X+XXX.XW.W.E.(.D.z.k.W.W.D.m.H.M.z.9.9.q.#.w.l.i.w.3.6.#.X.#.2.~ m h ",
"v +.^ ../ w.7...{ 9.9.j.j.G.N.'.!.OX#X$XoX$X+X$X[.!.D.~.{.+XOXOXN.b.n.G.H.Q.D.Y.W.W.~.Q.D.H.c.f.#.=.2.5.@.=.6.6.[ { { =.| _ m n ",
"d o./ [ y.7.] C B l s e e e l Y c.!.!.}.#X+X*X).|.N.D.m.{.{.}.).z.9.f.c.!.{.#XOX'.'.'.E.D.s.@.R B l l l l l M V R Q ` | X.] Z g ",
"d 6.^ ..~ n 7 < > = $ # # # # & 3 v L a.D.'.U.'.!.D.5.h.!.OXH.M.t.9.5.9.E.|.'..XOX#Xs.-.` J 3 > : = = : < 3 7 r f n l C ] _ h g ",
"J j.[ ! f 6 9 9 d v e > & $ $ $ & : 7 f ` f.n.U.'.l.$.t.E.W.c.t.6...#.5.G.~.~.V.s.L r < : & X . . . . X + & = > < 3 , 8 n M M f ",
"L b.7...A Q  .h.d.K.V.B.Y c e 9 3 3 7 s n C #.n.b.N.w.y.l.z.t.6.] { X.4.t.A.z.` r 3 & $ X . . . . X $ = = = = : = > - ; , 9 8 y ",
"J t.4.q...+.i.t.f.c.H.m.c.5.#.! W M l f M V ` t.z.k.j.j.h.i.i...! W Q Q ] { C t < = # # X X o + > 5 d v d r 9 7 7 < > - > : - , ",
"I t.q.i.O.w.6.9.7.+.{ =.e.6.! ` R C n M M ~ ! 7.i.M.q.i.t.h.3.] M M n m M V t , - = $ + = ; 7 s B *.`  .{ ) B C M f 9 3 3 < = - ",
"*.6.u.j.+.7.$.Q f C s.V.{.P.N.a.#.R y t n Q [ +.b.z.0.6.h.g.r.] n f y f n y 7 - - - = - 7 8 f M ! ) ` ` ` ) ` W ( E B y r < ; : ",
"*. .i.n.w.+.A y C L.I.I.V.d.5.&.) R n t 8 n C [ 0.j.u.k.6.t.r.[ n f t y t 0 1 ; - - - , , 8 t f f y t y t t y n M W R M s 9 < ; ",
"s.] 7.b.z...g y 1.B.-.c e > * $ & : 3 6 6 t M C O.b.M.f.i.t.i._ V n y t 6 , ; - : = @ @ 3 f W ` ) C B l t 1 - = - t n n n f y 8 ",
"a.] V 0.l.0.y B Y z & X . . .     . . + - 6 y V ] M.N.N.c.G.9.#.R l 8 6 7 ; = = + o $ 7 f l s e e 9 e p s r , : + = 8 l C C n n ",
"=.) M R R m f t > .     . O .       . X o @ , m [ b..X'.'.!.S.t.Q y 1 , , - @ $ X o - = o X .       . X O X X O # o > M ) B n f ",
"s.7.! V 0 0 ; @ - = + = & * # O . O % * $ @ + g O.D.,XtX:XOX!.D.R 8 ; , - = @ o X o $ @ X O .     . . .       .   . o 0 t y n R ",
"s.G.c.[ ..V y y #.h.a.=.@.R d d d f d s 9 t n ] M.~.6XrXtX,X|.w.n 1 , 1 - - , ; ; 7 p p d 5 * $ $ & > * = & = & $ o = 7 6 V ..O.",
"a.f.+.t.G.!.j...[ i.t.j.h.h.[ { _ ( V T A ] ~ j.'.*X6XiXrX8XH.5.g 6 ; 0 0 y m [ ....~ ( 5.6.C B n V m m f t 8 y y n n 6 6 n y f ",
"t.[ ^ 0.T.W.R.G.b.7._ ~ A Z m Z A Z Z Z m y Z N.*X1X0XtXtX1XE.{ g 6 1 y ~ ' _ 7.q._ R ~ | ..' Z m g y y m Z Z ~ _ h , ; ~ #.R 0 ",
"X.~ ~ M.T.]..XOX!.z.A m g h m Z h y 0 6 t _ {.,X*X6X0XtX6X*Xc.] g y y h V +.i.j.j.u.{ Z y y y y 0 0 0 y y g y 0 ; @ , M Q ] ..] ",
"9.' 7.n.!.^.#X#XoX@XW.b.[ n 0 6 6 6 y ` I.1X6X4X4X8X8X9X6X'.6.Z m m Z A ~ O.b.i.g.N.W.N.9.V y 0 1 , ; - - - - ; 0 V +.#.~ C { =.",
"c.+.+.N.!.OX.X,X1X0X#X|..X.Xb.D.H.~.'.1X6X7X1X7X6XtX7X9X,XW._ m m Z A +.i.j.w.u.h.N.c.Q.{.[.!.~.W.c.@.=.#.9.+.i.b.M.+.7...~ R $.",
"t...4.N.'.#X*X1XtXtX6X*X*X+X'.'.,X,X1X>X6X6X7X1XtXrX9X,X#Xz.~ m m Z A ^ q.w.y.w.b.M.A.W.{.)..X.X,XOX).~.}.W.U.M.N.y.7.+.i._ R ] ",
"=./ i.H.'.#X*X8X7XrXwX8X#X{.!.|.,X8X,X6X%X8X8XrXrXiX8X*XW.j.' ! m m m h g h g m [ b.G.'.!.[.'.#X#X*X$X$X'.}.W.N.y.7.0.w.+.4.~ _ ",
"7.5.G.!.{..X,X6XrXiXtX7X*X'.'.,X6X6X4X:X-X6X0XrXdXaX6X.XE.b.y.7.^ m g g y q 6 , 6 V i.U.'.!..X#X*X*X-X*X$X'.'.l.l.0.w.0.0.4.+._ ",
"+.w.z.W.'.*X%X6XrXdXtX8X1X,X*X,X6XtX4X4X4X8X8XrXaXdX1X{.U.T.z.N.i.~ y g ~ ..m y ; , t $.G.|.'..X1X4XoX$X@X'.N.b.A.j.7.y.w.i.[ ~ ",
"7.y.g.M.'.|..X,XtXtXtX0X0X8X1X<X4X*X!.U..X,X8XrXdXrX1X{.|.~.W.S.0.A h m 0.w./ A 8 - - 6 C 9.D.!.OX$X.X).'.W.b.M.M.f.0.r.i.r.$.~ ",
"#.t.j.M.U..X{.OX#X4X-X,X#XOX{.'.f.' m ' ~.6X0XiXiXtX:X*X`.+X'.7.m g g A ..O.A m 6 1 , , 1 n ..j.c.T.G.E.Z.M.l.l.y.t.w.i.4.t.#.{ ",
"=.0.b.z.N.Q.~./.'.{.}.U.M.0...m y 1 y f.,X6XtXiXiXtX0X-X*XOXh.f 8 1 1 1 1 , , , 1 0 y q 0 0 n ] 7.y.l.b.M.z.y.r.w.8.y.0.=.3.4._ ",
"6.y.y.p.G.!.W.).^.W.0.+._ Z 0 - - y h.,X6XtXrXdXdXdXiX8X,Xc.n 6 - + $ + @ @ - ; , 6 8 0 y g 0 q M _ ] 0.i.w.O.4.2.4.o.@.6.6.~ ( ",
"| 0.y.w.z.z.N.m.R.w.~ V g 6 - - f c.*X8X0XtXiXdXdXdX0X1X!.B , = + + + + + @ = = - , , 1 0 y q 6 8 y V ~ O./ ~ ~ ] X.] ! X.( ! W ",
"` ..w.w.+.7.j.z.$.~ m y 1 - ; M s.%X6X0X0XrXwXrX8X1XI.E.R 9 - @ + + + o + + + = - - @ - , 1 ; , ; , 8 C C ! R E R ~ W ~ Q W C W ",
"( ( ........4.4.~ h y , - - y @.P.,X1X0X0X1X:X*X{.d.` n 6 - @ + + + + + + @ = - - = + @ = - - = = = = 9 M _ ] R C V R E W B l C ",
"R ) ~ _ ] } ^ ' C g , - - 8 V =.~.#Xc.P.H.M.t.N.D.j.f 1 ; , ; ; - - = = - - - ; ; = + = - - - = + + + $ , M R ~ Q E V C W C f Q ",
"F M E ~ ] [ / A n 6 ; - , M R 5.9.Q n M { { _ W _ V t , 1 g C f 1 , - ; - - - - , : - = - - : : = & $ $ + , f R ~ E W W { R n M ",
"l M W { _ } / Z y 1 ; ; t M B { M y 8 y M C n t 8 , = = 6 V ! L l t 1 , - - - ; ; ; - ; ; , , , < < = + + = ; f m Q C ~ ` ` l R ",
"l B W ] 3.+._ n y 6 ; , y l l C y 9 8 8 y n f 6 6 , ; l t.i.+._ V f 0 6 , , 1 6 6 1 1 1 1 1 6 6 7 < - = + + = , n R _ { -.` B R ",
"M B B @.t.z.~ f y t , , n B f n t 8 7 t l V f t y y n +.G.U.y...~ m y y q y y h h h y y 8 0 0 6 1 1 - = + + = - y ~ ~ 5.s.-.J J ",
"l c L -.c.c.$.n y n 0 6 C C t 8 t 8 8 t l n n V _ ' _ ~ #.y.7...~ A m m m h g h m m y 6 6 6 6 , , < - = = = - , 6 !  .-.a.` L C ",
"d c L -.d.D.c.~ t n V y M M 9 , - - - ; 1 q g Z Z R Z A T ~ V m h g q 0 6 1 1 6 , , - - - - @ @ o o o + = < t t 7 ] ] 5.` U L L ",
"x B ` =.d.Y.W.t.n t ! n M M t 6 ; = = ; 1 1 6 0 0 0 q y y q 0 6 6 1 , , ; ; ; - ; - = @ = = = + @ = = - t M ~ f f _ { ] ` P L L ",
"L Y U ` s.'.D.H.` s n ~ C R M n l n y g m m h m D D p N j N j D G G N D D D q y q 8 1 6 6 q 6 6 6 6 6 n [ +...n M ..~ _ L L c L ",
"U Y U ) 5.D.H.H.d.l r ! @._ E R ~ ~ V g m ' [ ..#.%.~ #.a.9.5.@.%.G G G G j g j j g a p a a y q q y V w.y...~ n ] =.] C c c c c ",
"P ;.;.;.*.h.!.!.C. .r n ` #.E E R _ ~ Z h V Q R V ~ H %.%.~ ` %.G l p p r 9 9 t 6 t y t y a 0 0 y R t.x.+...m n _ ..R B x J B R ",
"U ;.;.;.*.6.d.D.c.e.l 8 W #.[ E ~ ~ Q ! n y t 9 8 p n j f f p s s 7 3 3 < < 3 3 3 9 8 8 t 8 8 t C 5.c.s.6.~ f B ..) l d l l B W ",
"*.>.*.;.&.&.=.a.6.s.W 8 f 5.O.......Z V f y r 8 8 r r p f f r 9 e 7 > < > > > < 3 7 7 9 r y t m 5.G.t.=.@.Q t R _ C r d f x C L ",
"*.;.;.-.>.*.U d L a.` f 7 R 7.w.4.O.' m n f y y f n n M C l f s s 3 < > < < < < 9 9 9 9 r n R 5.c.d.t.t.5.n n Q E d r r l U L B ",
"U ;.-.;.;.Y d 3 3 c J L 8 y ] k.+.+.~ m g n f M ` =.~ ~ ~ C l l r 9 7 7 < 3 7 r f n f l f ~ s.N.d.h.d.d.C n V ~ l p r l J K U ) ",
"K ;.>.;.;.J u > * > 5 l L C | g.q.....V f l C { G.z.h.f.6.O.) C l d r s d l B W ) ` ` R ) 5.G.h.d.d.d.` n V C n f d l J P U Y ) ",
"b *.*.*.Y b e > & 2 > 5 U >.6.c.9.y./ ~ V Q { G.G.N.9.+.=.s.X.5.=.&.K Y &.-.&.-.=.6.) ` 5.h.a.s.s.c.&.C V ! l f f U c J L Y `  .",
"z U Y Y Y z 4 & & * & * d s.!.|.f.3.r./ [ w.c.!.`.H.z.e.t.e.a.a.s.,.,.<.1.1.<.>. .( ] { 6.f.9.-.d.d.` W E C r 9 r U P c B )  .a.",
"w J U *.U z * % & & & > 5 -.%X,Xc.6.l.i.#.h.U.'.{.).U.R.V.N.d.H.V.K.I.%XK.<.s.t.( ~ ( { =.9.5.s.s.s.{ ` R B 7 9 9 f B C B Y *.-.",
"w x K Y J e * # % % * > e Y 1X,XE.t.e.z.l.l.~.'.[.[. X.X+XXXXXI.I.L.I.P.s.@.f.t. .` ~ ( 5.9.f.V.c.-.&.) B d u e 7 9 f c U U z e ",
"5 5 v b z w % # % & % * 4 U 1X6X{.H...9.f.Z.n.T.E.'.T.!.H.~.J.I.c.V.9.f.9.s.X.#.` ~ ~ X.6.D.c.~.H.s.Y d J v u e > : 7 r d 5 4 4 ",
"% & 2 4 k 5 & O # # % : 3 U 6X7X&Xt. .f.+XOX{.'./.W.F.m.F.d.f.9.t.9.5.2.2.5.[ ' | =.{ { c.U.~.'.D.Y J 5 u i 5 7 > $ = > > > > > ",
"O O # * 4 4 * O O # % : < ] 6X0XB.>.XX<X,X7X1X1XoX%X.X.XE.H.z.x.e.2.~ ! R _ ( #.=.j.#.s.H.{..XP.Y c x e > 4 > 4 & O * 3 3 9 3 i ",
"O O O % * 2 * O O O % = s F.6XtX0XiXrX9X0XiXaXpXwX3XtX4X1XOXOX{.'.U.@.W W ~ ( { =.t.c.!.}.%XI.*.J i e e 4 > & & # # > 7 r d f x ",
". . . # % * & # . O $ < @.oX5XiXsXdXpXiXiXsXpXdXdXdXrXiXpXyX,X,X<X7XXXB.*.P F | c.Q.J.oX,XXXY J c w * * & & O O O # & < 9 r r s ",
". . . O # & % # . X # d s.=XqXqXiXpXpXqXeXeXeXeXuXuXeXeXeXeX2X2X3X2X2X2X2X1.Y >.K.L.L.XX;X1.b v k w * & & # O O # # % * 5 3 w u "
};
