/* XPM */
static char *out[] = {
/* columns rows colors chars-per-pixel */
"64 64 209 2 ",
"   c #2B1608",
".  c #4A2415",
"X  c #5C2C1A",
"o  c #68321E",
"O  c #583F2A",
"+  c #763A24",
"@  c #7E3D26",
"#  c #63432F",
"$  c #6E402D",
"%  c #6A4D37",
"&  c #77523D",
"*  c #7F5D46",
"=  c #814A35",
"-  c #8E4B34",
";  c #96523A",
":  c #865540",
">  c #8C5D46",
",  c #9D5943",
"<  c #955F49",
"1  c #A45E45",
"2  c #89664F",
"3  c #9B644E",
"4  c #916A53",
"5  c #9A6F56",
"6  c #AB644A",
"7  c #A16851",
"8  c #AD6D51",
"9  c #A86D58",
"0  c #B36A51",
"q  c #B76F53",
"w  c #A1765D",
"e  c #A7755C",
"r  c #AE755B",
"t  c #B4715D",
"y  c #B97658",
"u  c #A87B63",
"i  c #AE7D64",
"p  c #B77764",
"a  c #BD7564",
"s  c #B27861",
"d  c #B47F64",
"f  c #BB7E63",
"g  c #C1785B",
"h  c #C87E61",
"j  c #C07B6B",
"k  c #AC836B",
"l  c #BE8466",
"z  c #B3876E",
"x  c #BA876A",
"c  c #BF8B6C",
"v  c #B78C72",
"b  c #BC8E72",
"n  c #C38264",
"m  c #CC8566",
"M  c #C78568",
"N  c #C4816F",
"B  c #C48A6C",
"V  c #CC8C6D",
"C  c #CC8C6E",
"Z  c #D18969",
"A  c #D48C6E",
"S  c #D88F6F",
"D  c #C88973",
"F  c #D08B78",
"G  c #D38E7E",
"H  c #C39072",
"J  c #C69677",
"K  c #C89172",
"L  c #CC9475",
"P  c #CA997A",
"I  c #CF9C7E",
"U  c #D19071",
"Y  c #D09072",
"T  c #D29172",
"R  c #D09273",
"E  c #D39273",
"W  c #D49374",
"Q  c #D59475",
"!  c #DA9472",
"~  c #D79778",
"^  c #D1967C",
"/  c #D89778",
"(  c #D59A7B",
")  c #D99878",
"_  c #D9997A",
"`  c #DB9A7A",
"'  c #DA9A7B",
"]  c #DC9B7B",
"[  c #DB9C7D",
"{  c #DA9D7E",
"}  c #DE9D7D",
"|  c #DC9D7E",
" . c #DD9D7E",
".. c #E09E7D",
"X. c #E29F7D",
"o. c #E2A07F",
"O. c #D89380",
"+. c #DD9E80",
"@. c #DF9F80",
"#. c #D4A082",
"$. c #DFA081",
"%. c #DCA386",
"&. c #D8A485",
"*. c #D7A88D",
"=. c #DCA88A",
"-. c #DFAB8E",
";. c #DBAB91",
":. c #DFAF94",
">. c #E0A081",
",. c #E2A181",
"<. c #E3A181",
"1. c #E0A182",
"2. c #E1A283",
"3. c #E3A282",
"4. c #E4A382",
"5. c #E4A383",
"6. c #E6A483",
"7. c #E5A484",
"8. c #E6A585",
"9. c #E7A685",
"0. c #E7A686",
"q. c #E8A786",
"w. c #E8A787",
"e. c #E9A887",
"r. c #E0A58A",
"t. c #E3AC8D",
"y. c #E7AD8F",
"u. c #E9A888",
"i. c #E9A989",
"p. c #EAA989",
"a. c #EAAA8A",
"s. c #EBAA8A",
"d. c #EBAB8B",
"f. c #EBAC8C",
"g. c #EBAE8F",
"h. c #ECAC8C",
"j. c #ECAD8D",
"k. c #EDAD8D",
"l. c #EDAE8E",
"z. c #ECAE8F",
"x. c #EEAF8F",
"c. c #EDAF90",
"v. c #E4B195",
"b. c #E9B193",
"n. c #EFB090",
"m. c #EEB091",
"M. c #EEB192",
"N. c #EFB293",
"B. c #ECB496",
"V. c #E6B599",
"C. c #EAB79A",
"Z. c #EEB899",
"A. c #EEBC9E",
"S. c #F0B293",
"D. c #F0B394",
"F. c #F0B495",
"G. c #F1B495",
"H. c #F0B496",
"J. c #F1B596",
"K. c #F1B597",
"L. c #F2B596",
"P. c #F2B697",
"I. c #F2B798",
"U. c #F3B799",
"Y. c #F2B89A",
"T. c #F3B99A",
"R. c #F3B99B",
"E. c #F4B99B",
"W. c #F4BA9C",
"Q. c #F4BB9C",
"!. c #F4BB9D",
"~. c #F5BB9D",
"^. c #F5BD9E",
"/. c #F5BE9F",
"(. c #F1BFA1",
"). c #F5BEA0",
"_. c #F6BFA1",
"`. c #F6C0A2",
"'. c #F6C1A2",
"]. c #F6C1A3",
"[. c #F6C2A3",
"{. c #F7C2A3",
"}. c #F6C3A4",
"|. c #F7C3A5",
" X c #F2C4A5",
".X c #F7C5A6",
"XX c #F7C6A7",
"oX c #F7C7A8",
"OX c #F0CBAD",
"+X c #F4CDAE",
"@X c #F8C8A9",
"#X c #F8C9AA",
"$X c #F8CAAB",
"%X c #F8CBAC",
"&X c #F8CCAD",
"*X c #F8CDAE",
"=X c #F9CEAF",
"-X c #F3D1B3",
";X c #F0D4B6",
":X c #F6D4B6",
">X c #FAD3B4",
",X c #FAD7B8",
"<X c #F1D8B9",
"1X c #F7D8BA",
"2X c #F5DBBB",
"3X c #FADDBE",
"4X c #F6DDC0",
"5X c #F9E1C3",
"6X c #FBE5C7",
/* pixels */
":.M.6.9.) B k k u k J I #.#.;.v.;.v.v.v.v.v.:.v.v.v.V.).A.).V.V.v.v.v.v.t.g.g.N.y.g.r.r.i.z.i.z.%.7.1.r.5.2. . .~ ~ ~ ` ) Q W E ",
"=.i.x.h.9.R d k w u J P I &.;.v.:.;.v.v.V.v.v.:.v.v.v.V.R.V.V.:.:.:.v.:.t.y.g.g.y.t.y.i.g.j.M.s.g.i.0.0.0.0.2.} ] ` ) ] } ` ~ Y ",
"H } X.9.6.) i k w k c I #.#.&.;.:.:.:.v.V.V.:.:.v.V.:.v.v.C.:.v.:.v.:.v.B.K.N.K.K.U.g.M.U.U.d.l.l.l.2.0.0.p.' ) ~ ' W ..} ] U A ",
"c ! ! ! ! Z d w w k b P I I &.;.:.:.:.v.V.:.v.:.v.v.:.v.C.V.V.V.A.A.!.A.{.!.K.K.U.U.M.m.f.f.h.p.u.8.7.7.0.u.] )  .] )  ...~ T A ",
"c ! Z A Z m f d w d H I I I *.:.;.v.:.V.v.V.v.v.V.A.C._.]..X/._.W._.W._.W.E.K.U.F.K.m.K.h.d.u.l.0.0.6.0.3.w. .$._ @._ o./ ) A A ",
"b ! Z m A h n s i x P #.*.*.t.v.C.A.A.`.{.^.!.A.).).{.{..X.X`.!.R.W.Q.!.U.H.N.m.K.N.F.M.l.p.w.d.u.7.7.7.u.w.$.] @.{ $.$.@.~ A Z ",
"J ` m Z Z m f f n ^ %.b.K.Q.F._.`.}.T._.`.}.U.!.R.!.K.`.`.{.Y.E.E.!.K.E.N.m.d.F.E.E.g.F.M.j.5.u.u.u.8.s.d.d.<.2.@.1.{ +.2.} h m ",
"K ` Z Z Z Z M H P 2.t.y.F.E.R.Y._._.Q.^.}.{._.W.!.K.K.U._.`.W.K.F.g.N.K.W.K.F.E._.W.F.N.K.n.p.8.u.w.8.7.u.7.@.' @.$.{ } 2.' A h ",
"c ..Z A Z / ^ L K L I I I %.t.K.K./.!.!.!.!.`.`.N.m.l.U.!._.W.F.i.d.y.U.U._.].`./.!.K.U.g.i.%._ R Q R C n M D Y Y ~ ( 2.` { U M ",
"H ..A A ! Q f 7 3 < < : : : 7 H %.y.N.K.E.E.!.E.N.p.p.N.!.E.F.d.0.7.i.g./.Q.{./._.E.B.t.( l r 3 < > < 3 7 9 f f f f f D _ ~ C h ",
"L ] Z ! A t ; - - : $ o O O o & < s M @.i.K.F.L.m.d.5.d.U.U.t.u.7.2.2.l.U./.K.K.i.L r 7 > + o X . X X + = > > , , 3 , 9 y V M f ",
"L $.S ` S y 0 l L I c i 4 : = = : ; 9 l Q 2.h.m.n.0.7.0.m.l.8.@.$.@.@.0.F.N.0.C r : $ o X . . . . o $ = : = : : ; > > ; 7 7 9 y ",
"K 2.' 3.} Q ( %.r.y.v.V.;.#.H f t 8 8 f f T @.h.h.p.8.d.5.u.7.[ T / Q [ ' { M 8 : + o o X X o & * i c B s r 9 r 7 < ; , < < , 1 ",
"c { { 5.$.~ [ @.7.0.y.b.y.1.{ ^ C n M n n C ` 0.d.s.p.8.w.d.8.C n M M V C n 8 > = + + + = > 9 f ^ 1.r.+.[ Q R C D n s 9 9 < > > ",
"J #.( r.d.@.~ } ^ Q L { t.5.' _ L n 0 f M ~ ~ 2.u.h.3.3.8.h.2.U f l f n f r , - = = = ; 1 p f C T ^ C R R ^ L ^ _ ( M M f 8 > > ",
"I #.&.y.N.$.Q n t [ y.K./.F.0.2.2.Y y 6 y M Q [ w.u.3.7.0.0.@.Y f y y y t 6 , - - ; - ; 1 8 f n f y 8 8 8 6 7 t n C C D B f 8 3 ",
"I &.%.8.t.5.M 8 M t.t.t.I L c f i f 0 0 6 y V ~ X.h.s.d.5.u.@.Q n n t 0 7 , - - = = + - 9 C ( ( C D N l t 7 ; @ @ 6 l C B l l f ",
"&.#.&.1.t.p.C 6 L I d > $ O . . . X $ - 1 8 n U ..h.F.l.c.l.8._ V n t 6 , ; - @ o X = 3 3 : % O $ % = > < < > = + + 3 B T T M n ",
"*.*.I r.[ 2.C f d = .   . . O         X + - 8 C ` n.A./.!.E.d.<.C f , , , - + o X $ = $ . O             . . . . . X o 8 D l t f ",
"&.#.I I M n 8 ; + . . . O O O . . . . % $ + @ f ` l.{..X.X/.U.d.T 6 ; , ; = @ o X o + = = % . . . . O . . . O X . . X - 7 6 l T ",
"&.&.#.&.C f 6 , r d 3 9 w 7 3 > & : 3 w < > - f 4.F.$X,X*XoXE.8.n 6 , 6 - , 7 1 7 f n C R H s 3 < 7 i d 9 9 7 , > ; 6 0 , t M ` ",
"*.&.&.&.g.0.<.Q T 2.0.2.t.2.^ ( ( Q C D U Q [ w.L.!.=X1X>X@XK.} a 1 1 q t n ) @...] ' @.8.7.@.Q U U U m h n h C A C f ; q ` ` M ",
";.t.&.%.7.h.h.h.7.<...<...{ W A U Q Z U U U n 0.!.oX@X1X>X$Xm.} h 0 6 n ) ..] 4.4.} M T ' @.S A m g q n V A Z m 0 , @ 8 A ../ } ",
"t.t.%.1.0.l.N.E.E.d.~ Z C Z m A Q Z n y 0 f $./..X$X=X=X=X{.h.W h y g h ! 7.u.w.l.p.[ M y 6 6 0 0 8 0 6 6 , - - ; 6 V 2.<.) T ) ",
"*.*.&.%.%.l.L.!./._.l.] h a y q 6 1 , 8 Y Y.#X$X.X&X*X=X|.E.@.W h m A ! ! 7.s.u.p.K.F.U.0.{ M f 0 8 1 , 1 0 y Y ..s.w.d.8.2./ T ",
"t.r.r.%.u.n.L.E._..X|./.E.d.) T V Y %.Y.@X%X%XoX=X*X%X%X.Xn.] Z Z A / <.p.u.p.p.p.l.L.L.U.E.'._.!.E.E.K.L.U.L.g.k.s.w.u.8.7...U ",
"h.y.%.t.d.F.n.!.`.$X[.$X}._.W.!./..X_.@X@X%XoX@X$X3X$X$X_.l.S m m A A } u.h.7.u.l.N.l.U.^.!.W._.}.`.U.!.!.^.F.N.l.q.<.w.u.p...] ",
"y.y.r.{ d.F.U._.oX%X=X$X=X`._.!.|.oX.XoX@X$X=X=X,X,X*X_.W.w.! A A Z h h M h h Z X.h.N.K._.W.!./.oX.X_.^.{._.U.F.n.6.X.7.u.7.7...",
"8.0.1.r.0.F.W.{.{.=X>X>X@XoX!.{..X&X$X#X.X%X=X1X1X3XoX/.N.k.o.} A m y g y q 1 1 8 V 0.U.Q.`.!.{..X.X{..X`.`.U.F.l.s.w.u.4.w.4.4.",
"8.3.1.$.l.L.~./..X*X>X>X%X#XoX$X$X@X%XoX@X@X=X>X3X3X@XW.L.n.h.h.<.A g g S S m 8 ; ; y _ d.F.R./.}.oX|.`.`./.U.c.g.d.q.e.e.8.5.<.",
"8.8. .@.h.E.K.[.$X&XoX=X=X=X{.oX%X%XoX|./..XoX=X3X3X{.!.U.!.n.n.7.! n m <.p.} A 1 - - 1 n @.0.L.!.{.W.E.E.E.d.k.S.h.6.u.e.u.} 4.",
"w.2. .[ p.J.L.E.].`.{.$X=X.X`./.{.E.d.<.m.`.$X>X3X>X@XW.!.E.E.8.A h n S w.X.A h 0 , , , 1 y C @.L.m.F.N.L.x.w.u.h.p.p.w.u.3.@.2.",
",.$.{ $.4.n.n.~.L.U.E._.W.E.m.d...U y h m..X=X3X:X>X%XoX_.`.g.C q 0 0 y 0 8 1 1 , 0 q g 0 0 0 M Q <.6.l.p.s.7.w.4.e.u.8.@.2.{ $.",
"2.} @.$.0.S.n.L.U.F.F.N.l.w.` m 0 , 8 0.{.$X>X5X6X3X,X*X@XN.Y 8 ; @ + + + @ - ; 1 6 0 0 g y y 0 f V _ ] <.2.X.[ <.@.7...] ( ( ~ ",
">.5._ { 8.l.s.S.F.N.w.4...A y , - 6 { {.*X>X:X6X6X6X;X$XK.T 7 = + + + + + @ @ - - ; ; 1 0 y 0 6 1 8 f T | _ U / Q _ E ~ ( { R L ",
"{ ( _ ( 5.w.u.w.l.d.] T m q ; = 0 r._.@X>X1X1X3X3X>X@XY.{ r - @ + + o o + + @ @ - - = @ ; , ; - - - ; 8 R Q Q T Q T T E ) _ Q B ",
"^ ( ^ ( } 3.4.4.8.<.A h 0 , = 8 { !.oX=X>X,X=X%XoXA.r.^ r ; = + + o + + o @ @ = = = @ @ @ - - = + + + = 3 R ' _ T W Q / T Q R D ",
") Q ^ Q  . ...] X.` M t , - , D t.!.|..X.X/.!.Y.E.r.M 6 ; = = = = @ @ = = = - ; , - = = = - - - & + + + + < M Q Q Q / C W ( ( B ",
"Y T C W ) ` W ~ ` S y 6 ; ; r Q 0.Y.{ ^ { 5.{ $.0.2.l 6 , 6 y y 1 ; - - - - = - < , - - - ; - > - = & + + + - f Q ` C T ) { ( C ",
"B c B B ' ) ~ Q ` M q , ; 1 C C { C t r n Q C n n r ; @ - 0 M C n 6 , ; ; - - ; ; , > ; ; ; , < 3 < > = + + @ - f C A ~ 2.%.{ K ",
"l x l B T ' _ ) T f 0 1 ; 0 B B K p 9 8 t n f 8 1 1 = - n { / / M f 6 1 ; ; ; 6 0 8 6 0 1 1 1 6 1 , < - + + + = , n T ..1.0.%.L ",
"l x l B ^ } 2.' W f r 6 , 0 c n M 8 7 6 t f n y 8 6 6 n k.F.d.] A m g 0 0 0 q y h n n a 0 6 6 8 1 1 1 ; : + + - ; t W [ r.0.&.K ",
"d x l c ( 8.2.2.) n 8 0 , t B l f 8 7 8 f n n n f M V ' 7.h.7.7.] A h g h h y y g n y 0 6 6 , ; - - @ @ = = - 1 1 8 R o.@.0.L K ",
"x x x c ^ %.i.0.0.M 8 y t t L y 7 9 7 7 0 t y n Q / A U Q / A V Z n y 0 0 1 1 1 1 , - = - = @ o o o o + - 6 f C f y ' ] 2.@.R L ",
"d c c J L %.i.g.y.{ y f l d L y , ; @ @ @ ; 6 y a g g h n h a q 1 1 , , - - - - - - @ = = - = ; - ; ; , r ~ } 2.f M ' 2.' _ K H ",
"x c I K L #.y.M.N.i.C r n M l p 8 7 ; - 1 6 0 0 0 6 0 0 0 0 0 0 0 0 a a f j j q 0 q t q 0 q 0 y y 0 q n $.8.@.) n T ' _ _ C B B ",
"J ^ J I I %.r.M.N.K.{ l p _ C M B K n m n h h m Z C j D G G D O.Q G D F F D j j N N y a a g y q q n V 0.n.0.) V h 3.2.' C c f M ",
"P I I I I I %.g.M.c.y.L d C { Y Q S A T m h C ~ ~ R Q G ( ~ ( ( ( R N j N j t a j y q a a y 0 0 y Z 4.F.n.2.) n T 2.) C f f f B ",
"J #.{ { &.&.%.g.g.M.g.t.n f ` { U ! A ~ S h n M f f l C N N f l x d r 9 7 7 3 8 9 7 9 8 8 y t y n @.g.N.0.2.W f C ` R n d f l B ",
"P &.%.#.&.{ %.r.5.5.d.y.^ y Y 2.) Q S T Q n y 8 7 1 7 r r r r 9 r 9 3 3 3 < 3 3 7 7 9 9 r t y l _ y.m.0.0.5.V f ~ W B d d x B L ",
"#.-.#.&.&.&.I L K %.( %._ f f 7.2.X.W ~ U M y y t 8 8 f n l r s r r 3 3 3 7 > 3 3 9 7 8 y f n ( y.m.0.0.d.@.n C ) / p r f c K R ",
"#.=.&.&.&.#.K i w P L B ' B f [ p.<.} W A n y y f f n M C C B f p r 7 7 3 3 < 7 r f f f n C _ y.B.g.i.i.t.V M W Q M r s n H J c ",
"P =.&.%.&.P i 5 * w i l R %./ <.8.u.X.X.V g f n n ( 2.<.' 2.~ C f p r s 9 s d B C ^ Q Q T ' 0.g.i.g.i.y.T l C W M f d l K L L ^ ",
"K &.=.&.&.b w 2 * 2 5 i L y.N.y.7.2.4.4.T h M M 2.i.i.0.8.8.2.$.{ Q L L ^ ( %.%.%.$.8.[ ' 2.j.i.b.y.y.%.C V T C n l B B K P #.^ ",
"b #.I #.I b w * * 2 * > c g.V.!.s.4.X.0. ./ T ..M.B.5.5.$.8.@.0.t.r.&.%.r.t.r.i.%.%./ _ 2.a.r.t.y.b.r.{ Q ~ C f d K c c K I { %.",
"z P I I I x 2 % * * * * i :.A._.K.4.q.u.8.$.$.l.W.I.m.d.d.i.d.y.y.t.t.v.Z.b.t.r.[ ( ( { 8.5.7.r.y.g.r.( ( T d 7 r H K c K L %.t.",
"w H P I J x * % % & & 4 i &.).oXK.p.<.p.3.2.r.K.K.W.K.T.Z.F.l.K.C.C.A.|.C.%.0.0.{ ' _ { 1.8.2.i.y.y.%.{ R H s r 9 f K K K ( #.%.",
"w z J I b u & % % & * < w L oX%X!.d.<.8.t.8.y.g.K.E.!./.`.).`.).A.Z.Y.B.t.%.0.7...^ ( _ @.0.i.g.M.t.%.L H c u e 7 7 f K L I c i ",
"5 w b b x w % # % % % * 3 L XX=XA.N.1.X.0.K.D.I.H.U.F.F.N.K.f.m.y.y.0.i.h.0._  ._  .R +.5.g.g.Q.K.r.P d c H u u : : 7 r d e 4 4 ",
"% * 2 5 k 4 % O # % % * 3 L @X%X`.t.2.N..X`.R.J.R.U.N.g.n.g.0.5.5.2.2.$.$.] _ ~ { $.@.{ 0.S.F.E.K.P H w w w 3 7 > % = > > < < 4 ",
"O O # * 4 4 * O # # % > < { oX>X;.t.).$XXX*X#XXX_.`.!.Q.P.J.g.x.5.5.~ T Y Q ( ]  .0.0.@.y.U.!.A.&.H k d 2 2 : 4 & # : 3 3 9 5 i ",
"O O O % * 2 * O O O % = r M.#X=X:X1X>X>X>X1X5X4X,X*X>X*X@X]./.Q.E.G.2.R L Q ) +.2.8.y.m.U._.A.&.H d w w 2 > & & # O > 7 r d f x ",
". . . # % * & # . O $ < +.).#X1X4X5X2X1X1X4X2X5X5X5X:X1X2X,X.X.XXX%X(.v.#.L D $.g.K.B.)..XA.I H c w * * & & O O O # & < 9 r r d ",
". . . O # & % # . X # d t.}.=X-X1X2X2X-X;X;X;X;X<X<X;X;X;X;XOXOX+XOXOXOXOX:.I =.V.C.A.A. X:.b v x w * & & # O O # # % * 5 5 w u "
};
