/* XPM */
static char *out[] = {
/* columns rows colors chars-per-pixel */
"64 64 217 2 ",
"   c #2B1608",
".  c #4A2415",
"X  c #5C2C1A",
"o  c #68321E",
"O  c #583F2A",
"+  c #763A24",
"@  c #7E3D26",
"#  c #63432F",
"$  c #6E402D",
"%  c #6A4D37",
"&  c #77523D",
"*  c #7F5D46",
"=  c #814A35",
"-  c #8E4B34",
";  c #96523A",
":  c #865540",
">  c #8C5D46",
",  c #9D5943",
"<  c #955F49",
"1  c #A45E45",
"2  c #89664F",
"3  c #9B644E",
"4  c #916A53",
"5  c #9A6F56",
"6  c #AB644A",
"7  c #A16851",
"8  c #AD6D51",
"9  c #A86D58",
"0  c #B36A51",
"q  c #B76F53",
"w  c #A1765D",
"e  c #A7755C",
"r  c #AE755B",
"t  c #B4715D",
"y  c #B97658",
"u  c #A87B63",
"i  c #AE7D64",
"p  c #BD7564",
"a  c #B27861",
"s  c #B47F64",
"d  c #BB7E63",
"f  c #C1785B",
"g  c #C87E61",
"h  c #C07B6B",
"j  c #AC836B",
"k  c #BE8466",
"l  c #B3876E",
"z  c #BA876A",
"x  c #BF8B6C",
"c  c #B78C72",
"v  c #BC8E72",
"b  c #C38264",
"n  c #CC8566",
"m  c #C78568",
"M  c #C4816F",
"N  c #C48A6C",
"B  c #CC8C6D",
"V  c #CC8C6E",
"C  c #D18969",
"Z  c #D48C6E",
"A  c #D88F6F",
"S  c #C98270",
"D  c #C88973",
"F  c #D08B78",
"G  c #C39072",
"H  c #C69677",
"J  c #C89172",
"K  c #CC9475",
"L  c #CA997A",
"P  c #CF9C7E",
"I  c #D19071",
"U  c #D09072",
"Y  c #D29172",
"T  c #D09273",
"R  c #D39273",
"E  c #D49374",
"W  c #D59475",
"Q  c #DA9472",
"!  c #DD9876",
"~  c #D79778",
"^  c #D1967C",
"/  c #D89778",
"(  c #D59A7B",
")  c #D99878",
"_  c #D9997A",
"`  c #DB9A7A",
"'  c #DA9A7B",
"]  c #DC9B7B",
"[  c #DB9C7D",
"{  c #DA9D7E",
"}  c #DE9D7D",
"|  c #DC9D7E",
" . c #DD9D7E",
".. c #E09E7D",
"X. c #E29F7D",
"o. c #E2A07F",
"O. c #D89380",
"+. c #DD9E80",
"@. c #DE9F80",
"#. c #DF9F80",
"$. c #D4A082",
"%. c #DFA081",
"&. c #DCA386",
"*. c #D8A485",
"=. c #DCA88A",
"-. c #DFAB8E",
";. c #DFAF94",
":. c #E2A181",
">. c #E3A181",
",. c #E0A182",
"<. c #E1A283",
"1. c #E3A282",
"2. c #E4A281",
"3. c #E4A382",
"4. c #E5A382",
"5. c #E4A383",
"6. c #E6A483",
"7. c #E5A484",
"8. c #E6A584",
"9. c #E6A585",
"0. c #E7A685",
"q. c #E7A686",
"w. c #E8A786",
"e. c #E8A787",
"r. c #E9A887",
"t. c #E0A58A",
"y. c #E3AC8D",
"u. c #E7AD8F",
"i. c #E8A888",
"p. c #E9A888",
"a. c #E9A989",
"s. c #EAA989",
"d. c #EAAA8A",
"f. c #EBAA8A",
"g. c #EBAB8B",
"h. c #EBAE8F",
"j. c #ECAC8C",
"k. c #ECAD8D",
"l. c #EDAD8D",
"z. c #EDAE8E",
"x. c #ECAE8F",
"c. c #EDAF90",
"v. c #E4B195",
"b. c #E9B193",
"n. c #EFB090",
"m. c #EDB192",
"M. c #EEB192",
"N. c #EFB192",
"B. c #EFB293",
"V. c #ECB496",
"C. c #E6B599",
"Z. c #EAB79A",
"A. c #EEB899",
"S. c #EEBC9E",
"D. c #F0B293",
"F. c #F0B394",
"G. c #F0B495",
"H. c #F1B495",
"J. c #F0B496",
"K. c #F1B596",
"L. c #F1B597",
"P. c #F2B697",
"I. c #F2B698",
"U. c #F2B798",
"Y. c #F2B799",
"T. c #F3B799",
"R. c #F3B899",
"E. c #F2B89A",
"W. c #F3B89A",
"Q. c #F3B99A",
"!. c #F3B99B",
"~. c #F4B99B",
"^. c #F4BA9B",
"/. c #F4BA9C",
"(. c #F4BB9C",
"). c #F4BB9D",
"_. c #F5BB9D",
"`. c #F5BC9D",
"'. c #F5BC9E",
"]. c #F5BD9E",
"[. c #F5BD9F",
"{. c #F5BE9F",
"}. c #F1BFA1",
"|. c #F5BEA0",
" X c #F6BEA0",
".X c #F6BFA1",
"XX c #F6C0A1",
"oX c #F6C0A2",
"OX c #F6C1A2",
"+X c #F7C2A3",
"@X c #F6C3A4",
"#X c #F7C3A5",
"$X c #F2C4A5",
"%X c #F7C4A6",
"&X c #F7C5A6",
"*X c #F7C6A7",
"=X c #F0CBAD",
"-X c #F4CDAE",
";X c #F8C8A9",
":X c #F8C9AA",
">X c #F8CAAB",
",X c #F8CBAC",
"<X c #F8CCAD",
"1X c #F8CDAE",
"2X c #F9CEAF",
"3X c #F3D1B3",
"4X c #F7D1B2",
"5X c #F0D4B6",
"6X c #F6D4B6",
"7X c #FAD3B4",
"8X c #FAD7B8",
"9X c #F1D8B9",
"0X c #F7D8BA",
"qX c #F5DBBB",
"wX c #FADDBE",
"eX c #F6DDC0",
"rX c #F9E1C3",
/* pixels */
";.B.8.p.~ J z z z L $.v.b.b.;.;.;.;.;.;.;.v.Z.Z.v.Z.Z.S.C.Z.b.b.v.v.t.y.y.u.u.u.y.t.+.&.<.t.%.<.{  .{ ] ' ] ~ / I R U / I W U Y ",
"*.d.l.j.0._ J J L $.$.v.b.b.v.;.v.;.;.;.;.v.Z.Z.C.v.Z.Z.Z.Z.v.v.v.y.-.&.y.u.u.u.y.&.<.&.<.y.<.,.@.` ] X.3.} o.~ W U R U W Y R Y ",
"G 2.o.6.X.( G L J $.&.v.b.Y.;.;.;.v.;.v.v.Z.;.v.C.Z.;.V.Z.Z.;.v.b.b.&.v.u.h.t.u.l.u.%.t.a.g.:.t.} .._ } X.2.[ ` W Z C Z U Z C Z ",
"k ] X./ ^ G z G H P t.v.v.J.;.;.;.b.;.b.J.v.b.;.J.v.;.b.A.J.G.G.P.D.u.l.D.D.c.c.z.c.q.q.l.l.w.} ..! ' ' :.} ' ` ~ I C C Z C C C ",
"s ..} ] ( L L $.&.b.b.J.V.J.V.J.m.J.v.b.b.J.G.E.E.`.!.(.P.!.J.Y.V.J.G.G.m.h.u.F.c.M.q.x.p.g.w...!  .` ] | | ' ~ I Z C I n Z n C ",
"z } X.| &.t.u.v.Y.J.(.(.E.E.Y.Y.(.(.E.`.`.!.(.E.`.{.`.P.!.J.Y.J.Y.L.J.Y.c.a.g.x.x.g.r.s.p.e...' ..] ` ` | } ' R I B C C n n C C ",
"z 1.<.8.l.P.D.Y.(.XXE.`.XX{.G.E.(.{.Y.(.(.(.G.E.(.[.Z.!.E.E.J.E.W.(.m.c.a.g.i.d.k.k.5.i.l.w.` } X.#._ | <.#.W R I C g n n C g g ",
"K :.q.g.D.P.P.P.(.{.(.E.+X(.P.G.E.E.E.Y.!./.!.J.XX.XE.P.^.J.I.J.^.P.J.J.B.c.q.e.a.f.:.>.l.w.X.] ,.] +.+.%.+.W Z C n g g n g g g ",
"P <.a.D.c.N.B.W.I.~.I.!.E.OXE.`.c.E.J.^.!.+X/.J.G.U.J.`.m.~.I.~.!.L.K.K.m.x.i.g.i.s.a.l.g.d.3.:.| | +.@.+.%.~ W n g f g f b f f ",
"{ P { | <.a.K.L.J.L.Y.Y._._..XV.I.m.J.P.!.~.J.c.m.J.I.J./.`.{.{.`.J.K.J.I.N.r.s.i.9.9.9.f.g.<.+.+.' #.| %.#.` Z C g b f f f d f ",
"5 5 > > 5 s L y.b.W.N.!.Q.XXQ.D.D.K.u.P.L.Y.a.g.u.N.u.{.+X*XXX%XXX{.V.c.y.&.T E ^ ^ N N U W V / W _ W ] | @.~ I n m y d d b f f ",
"= = $ X O $ : 5 x P t.u.).Y.Y.l.c.c.k.J.E.m.a.<.a.z.J.E.{.+X[.XX{.m.+.N s 9 < < 3 3 3 3 r d d k m b N E ] _ W V n d d y d f f d ",
"z z 3 = + + + : < r N { q.l.l.c.q.x.f.m.y.a.<.,.,.a.g.(.K.E.v.$.a 7 * = X X . . X $ + = : < < 7 1 1 3 t d N B B b d p f y y y f ",
"y.y.y.P z e 5 , 1 8 d N _ d.l.z.g.g.p.a.q.<.+.` #.:.s.l.c./ d < = $ X . . . . . # = = = : : > > < > < , 3 3 8 9 r r y t 0 0 q q ",
"t.y.&.t.<.&.K V N b d b R <.<.j.l.j.7.s.s.3.B U R ~ W | E d ; = + + X X X + = 3 s J d r 9 r 7 3 , < ; < 3 3 > < < , 1 8 8 8 6 6 ",
"n U W { y.=.^ D b d b B W | r.q.l.s.q.9.c.9.m k m m m N d 6 - @ + @ = - 9 d J { t.&.<._ | E U N N t 8 7 7 < < > > - ; , 6 6 6 1 ",
"b y.V.`.P.J.y.+.V y 8 b Z } 8.g.9.p.6.s.0.3.m d d d d y 6 1 ; - - ; , t b T ~ ' ~ ' / { / { ' | T J b b t 9 3 < > ; - 1 6 8 8 8 ",
"&.v.y.&.$.P ^ J N y 8 8 k I X.8.e.9.8.:.9.X.V k d d y 8 1 , ; ; ; ; , 6 d B n b d y t r r t b n B U V N b y y 9 7 9 t 8 8 8 8 8 ",
"$.G 5 & % # . O = , 1 6 y n U 3.c.c.5.g.i.<.I B k d 1 1 < ; - = @ @ , b | y.<.+./ E k d 1 ; @ < t N N B V B b d y k t t d b p f ",
"< X .     O     . . o = 1 d B ` D.`.m.c.G.e./ N k 8 1 < ; - + X @ 7 r r r r r r s d a t y 9 ; $ = t K U / U b b m b d f b f p y ",
". . . . O O       . # $ + ; m ` m.>X@X{.Y.D.o.N 8 6 1 ; = @ X X = - + . . .   . . # # # # # # # X - b V y t t b b n b b f g f b ",
"8 3 3 7 5 > & % & : > : @ @ p X.E.4X4X*XXXG.<.f 1 1 1 - - @ o + + = : X O       . .     . . . . . $ , 6 8 m ~ ! >.>.>.W b d y t ",
"' a.#.t.<.| K T T F M b m W X.D.XX8X7X2XOXD.T t 1 0 6 , d m y d B T U J G e < < 3 5 < < < < = - < 8 1 , 8 U R ] ] :.~ m r 8 6 0 ",
"} q.q.,.+.] ( C Z Z I Z / W 8.Y.;X4X7X4X@Xc.B 0 6 0 m b W 3.>.` ` ] } ,.,._ B I W I b d b m C Z C y , d ..X.E m b d t t y y d d ",
"g...` / C I Z W C C g f p W !.%X;X4X2X;X`.a.C y 0 f C ..X.r.r.8.R n b B U C g f q p f C A Z g y ; - q ` >.8.<.3.R d f R B d a a ",
"`.D.` g g f f y 0 1 1 t &.@X>X>X>X<X>X{.G...C g n n U ] c.c.n.n.n.,.U 8 1 , 1 6 6 6 , ; ; - - ; t W 3.,.X.#.:.<.,.] ..X.I y t r ",
"XX%XE.J.y.` b f m T <.{.<X4X*X>X2X,X{.Y.q.W n Z / ..` >.r.q.g.c.P.!.V.Y.J.t.T V k t 8 y b T E g.c.c.8.q.8.] R ] o.q.X.8./ m t y ",
"@X>X;X`.%XXX(.{.*X*X*X>X2X*X<X4X7X2XXXc.X.C C Z ! 8.q.g.c.g.r.c.E.D.c.P.XX+XXX+X+X(.P.P.{.Y.D.G.n.g.8.f.i.3.` I X.3.:.:.+.m d k ",
"+X<X4X2XOX+X(.%X;X<X>X;X<X4X2X4X2X;XE.r.W C n Z A } ] 3...e.s.f.J.(.I.!.D.XX{.;X%X%X%X+X(.(.D.D.q.g.r.s.8.8...` / 3.:.7.W V d b ",
";X4X2X2X;X`.{.;X<X>X,X%X2X7X7X8X4XXXP.r.] A C n n g f p y y n } c.P.(.(.E.~.%X;X;X%X%X%XXX{.T.n.l.q.s.i.r.8.>.>.` ` o.#.` B m N ",
"*X8X4X4X1X<X%X;X2X2X;X1X<X8X8XwX2XXXc.c.8.3.A n f f n n f 6 ; 6 n a.l.T./.+XXX+X;X;XOXXX#XXXD.H.c.z.4.p.s.d.X.o.#.} _ #.` V N V ",
";X<X4X4X7X4X>X>X>X2X%XXX:X,XwX0X;X`.G.n.D.D.>.Z g g / >.} Z 6 - ; t I t.G./.~.%X;X*X#X`.{.Y.D.D.n.j.q.r.j.s.>.>.6.` ~ ~ ~ V V B ",
"I.XX%X2X;X;X%X%X!.m.q.P.OX4X8X7X+XXXP.T.Y.D.} Z g A 3.g...! f , - ; 1 k / c.G.!.J.E.D.P.D.D.c.c.k.l.s.s.0.s.9.<.] _ / W T B U T ",
"I.W.+X(.(.G.c.8.A f C K.;X4XwX7X;X+X].I.(.} n f n A } ! Z g q 1 0 8 6 6 y R 3.g.c.c.n.n.n.g.g.j.a.s.e.e.s.i.0.5.o.~ / R W V V V ",
"K.W.l.l.r...n q , 6 | {.<XwXwXwX8X1X`./.X.b 6 6 1 1 , , ; , , 8 y f q y y t b W X.g.8.l.r.8.<.6.e.f.3.,.X.s.` #.( ` T T W _ V V ",
"D.K.8.} A f , = , ] @X>X8XrXrXrXrX2X(._ d , @ o + + + + = ; , 1 6 0 q y f y 8 r n R ` } >.>.` >.5.8.,./ } ,.' ~ K ^ K T ` _ E B ",
"r.g.` C y , @ , ( XX2X7X8XrXrXwX2X%X<.t - @ o @ @ @ + + @ = - ; ; ; , 0 8 6 1 , 1 y B W W ~ I ~ W ] ` / E _ U K N U ^ W { ( R Y ",
"3.! C p , = ; E `.>X2X8X8X2X;X@XE.t.k , = + + + $ + + + @ @ - - = @ = - ; - - = : : 7 N _ / ~ U R I E E W R J N N U W W +.W R R ",
"../ f 0 ; - d t.@X>X;X,X%X+XJ.y.U t ; - @ + o + @ + $ @ - - : = @ @ @ - - ; = @ + + + - d _ ~ ~ W W B R Y ~ N N b ( E _ ` / C C ",
"/ C y 1 ; 1 V y.`.v.t.y.a.g.a.<.B , - ; 1 1 - - - - = = - ; < - = - - = ; - - = = = $ $ - r B W _ R R U ~ W W N k J T T W R C n ",
"E n 0 , ; k E t.I y k / ~ W V N 8 ; ; y U U 8 1 - ; - - = ; - < - - - ; ; < < < > - + + $ = 1 m V T U ~ E { { K d J J W W I n n ",
"W g 6 1 , b J U r 7 8 d b t 8 , = = 1 n _ W m y 6 , ; ; ; , 1 , , , ; , 1 6 6 7 7 < - = + @ = 1 b I W ~ ..&.&.K z N J ^ ^ I I C ",
"~ C 6 6 6 b b z 9 7 1 t d y 6 1 , y ..l.g.X.U n p 0 , 1 6 y p y y p 6 6 0 y 8 6 1 7 ; = = = = - 8 U R ] t.y.&.^ z G G L ^ ( B C ",
"_ / y 6 8 k N a 9 3 7 y m k y b B / q.l.n.8.) I C g f f g g n n C g q 6 0 q 0 6 6 6 , - : = : < 6 B / ] q.:.@.K x G J L P U V B ",
"^ #.U 8 r J d 9 3 1 , 9 t b n A A A Z ` ` ` W I n g p y 0 0 y p 0 1 , 1 , ; - - = = @ = = 1 8 d 1 m ` <.+.#.( K z G L P H N m D ",
"J &.t.b y U d 3 - @ @ @ - 1 0 y f f f f f p 0 6 6 , - - - - - - - @ @ @ @ @ @ @ @ - - ; t U W _ y V } } X.{ E J x x L P J N N m ",
"H t.a.] t b k t 9 3 ; 1 6 6 , , 1 1 , 1 1 , - ; ; ; - ; ; ; ; , ; ; ; 1 6 0 0 0 0 t 6 f ,.r...} b / ` ] } ` N N z N G G J J k N ",
"L &.u.u.B y T N N N n g n n n M S h p p M h h M S D S D D M M M M p p p f f y q y f m >.n.q.X.R m ~ ,.] ] V z d x z x x J J N N ",
"K { &.u.{ d N _ U U I U n } >.] O.O.O.O.O.( O.O.F F D D h S M p 0 p y t q p 8 0 y C 8.Y.a.3.` B b #.#.,.K N d d a x z x N J E U ",
"L *.*.y.9.U d T W I W W C W ] ~ T R ~ F F F T J d t r 9 9 9 r 8 7 9 0 8 r r 0 q n ,.V.D.a.<.` b B ` } E N d a a d d s N ^ J { ( ",
"$.=.$.$.y.d.N k ' _ T ~ W n y y r y 8 t t a 9 r 9 3 < < 3 3 < < 3 7 3 9 r d t b _ c.u.u.y.y._ f R ` I N k d 9 a a d d G K { T J ",
"$.*.*.*.&.t.( a T X. .) / n t t t 8 8 y d d y r r 7 < < < < < 3 7 9 8 r t d m ~ V.c.a.y.a.t.W b / E V N d r r s d d x L P $.J N ",
"L *.&.*.$.$.G J N #.| ] Z n t y t d k m N N d d 9 9 3 3 < < < 9 r d d N b V E u.u.b.a.h.9.i.n B W W I N 9 r d L z G J ^ ^ ^ ^ { ",
"H *.=.*.*.G u s J { q.] W C d y d B 3...} ~ W N k y t 8 a a d N T ' | { | ` &.y.c.m.h.u.u.&.N I W W B a 9 a z x L G N J K K { &.",
"v $.$.$.P z 5 3 e ^ q.9.! A f f B 3.u.j.g.5.W ] &.,.E ( { t.&.y.c.c.<.+.| { ,.y.u.c.<.0.s.&.J _ / _ k a r 5 3 8 J J d x J P ( t.",
"l L P P $.c 4 * > e &.c.q.! Q ` } q.f.n.n.i.<.<.a.5.y.t.b.b.b.b.J.a.<.| #.<.,.,.y.t.<.t.u.+.| ] [ W d d G e 7 9 N ^ K N J K { &.",
"w G L $.L l > & & * z y.M.g.:.0.3.y.c.B.n.B.c.l.c.m.m.J.V.@X%X~.V.b.,.,./ { #.<.+.%.+.5.9.h.t.%.( E x z s e w e r k N K J P $.P ",
"w z H P G u * % & & 3 x !.E.g.e.a.i.c.P.^.^./.!.^.E.`.{.+X|.|.S.t._ <.9.9.@.[ / ,...#.a.x.J.u.t.{ J s G s i u i 3 7 a x L L l e ",
"5 5 c v z e % # % * & 5 $.;XJ.k.s.d.:.g.!.E.B.Q./.J.u.V.E.E.y.h.u.9.%.5.] ] R _ <.5.t.u.J.!.b.y.$.G 5 s v l u u > : 3 9 r 5 4 4 ",
"% & 2 4 j 5 % O # # & > s @X>XE.g.<.5.n./.W.H.H.V.n.i.9.a.t.5.o.9.#._ ~ | ' ` [ i._ <.u.(.'.I.t.L x e 3 u 5 5 7 : # = > > < < 4 ",
"O O # * 4 4 & O O # & : 9 b.2X!.&.V.OX;X;X&X|.+X(./.K.J.x.d.9.r.` ~ R Y W +.] q.9.%.y.K.R.oXY.$.G i c 5 4 * * 4 & O : 3 3 9 5 s ",
"O O O % * 2 * O O O % = d L.2X4X6X0X6X4X7X0X0X8X2X2X2X*X*X|. X!.Y.u.( T T W ~ @.%.d.B.L.XXOXV.J G e e 5 4 : & & # # < 7 r s d z ",
". . . # % * & # . O $ < +.|.>X0XeXrXqX0X0XeXqXrXrXrX6X0XqX8X&X&X*X,X}.b.$.K D [ h.L.V.|.&X}.P G x w * * & & O O O # & < 9 r r s ",
". . . O # & % # . X # s y.@X3X3X0XqXqX3X5X5X5X5X9X9X5X5X5X5X=X=X-X=X=X=X=X;.P =.C.Z.Z.$X$X;.v c j w * & & # O O # # % * 5 3 w u "
};
