/* XPM */
static char *out[] = {
/* columns rows colors chars-per-pixel */
"64 64 224 2 ",
"   c #2B1608",
".  c #4A2415",
"X  c #5C2C1A",
"o  c #68321E",
"O  c #583F2A",
"+  c #763A24",
"@  c #7E3D26",
"#  c #63432F",
"$  c #6E402D",
"%  c #6A4D37",
"&  c #77523D",
"*  c #7F5D46",
"=  c #814A35",
"-  c #8E4B34",
";  c #96523A",
":  c #865540",
">  c #8C5D46",
",  c #9D5943",
"<  c #955F49",
"1  c #A45E45",
"2  c #89664F",
"3  c #9B644E",
"4  c #916A53",
"5  c #9A6F56",
"6  c #AB644A",
"7  c #A16851",
"8  c #AD6D51",
"9  c #A86D58",
"0  c #B36A51",
"q  c #B76F53",
"w  c #A1765D",
"e  c #A7755C",
"r  c #AE755B",
"t  c #B4715D",
"y  c #B97658",
"u  c #A87B63",
"i  c #AE7D64",
"p  c #B77764",
"a  c #BD7564",
"s  c #B27861",
"d  c #B47F64",
"f  c #BB7E63",
"g  c #C1785B",
"h  c #C87E61",
"j  c #C07B6B",
"k  c #AC836B",
"l  c #BE8466",
"z  c #B3876E",
"x  c #BA876A",
"c  c #BF8B6C",
"v  c #B78C72",
"b  c #BC8E72",
"n  c #C38264",
"m  c #CC8566",
"M  c #C78568",
"N  c #C48A6C",
"B  c #CC8C6D",
"V  c #CC8C6E",
"C  c #D18969",
"Z  c #D48C6E",
"A  c #D88F6F",
"S  c #C88973",
"D  c #CC8A78",
"F  c #D08B78",
"G  c #D38E7E",
"H  c #C39072",
"J  c #C69677",
"K  c #C89172",
"L  c #CC9475",
"P  c #C5987F",
"I  c #CA997A",
"U  c #CF9C7E",
"Y  c #D19071",
"T  c #D09072",
"R  c #D29172",
"E  c #D09273",
"W  c #D39273",
"Q  c #D49374",
"!  c #D59475",
"~  c #DA9472",
"^  c #DD9876",
"/  c #D79778",
"(  c #D1967C",
")  c #D89778",
"_  c #D59A7B",
"`  c #D99878",
"'  c #D9997A",
"]  c #DB9A7A",
"[  c #DA9A7B",
"{  c #DC9B7B",
"}  c #DB9C7D",
"|  c #DA9D7E",
" . c #DE9D7D",
".. c #DC9D7E",
"X. c #DD9D7E",
"o. c #E09E7D",
"O. c #E29F7D",
"+. c #E2A07F",
"@. c #D89982",
"#. c #DD9E80",
"$. c #DE9F80",
"%. c #DF9F80",
"&. c #CFA186",
"*. c #D4A082",
"=. c #DFA081",
"-. c #DCA386",
";. c #D8A485",
":. c #D7A88D",
">. c #DCA88A",
",. c #DFAB8E",
"<. c #DBAB91",
"1. c #DFAF94",
"2. c #E0A081",
"3. c #E2A181",
"4. c #E3A181",
"5. c #E0A182",
"6. c #E1A283",
"7. c #E3A282",
"8. c #E4A281",
"9. c #E4A382",
"0. c #E4A383",
"q. c #E5A483",
"w. c #E6A483",
"e. c #E5A484",
"r. c #E6A584",
"t. c #E6A585",
"y. c #E7A685",
"u. c #E7A686",
"i. c #E8A786",
"p. c #E8A787",
"a. c #E0A58A",
"s. c #E3AC8D",
"d. c #E7AD8F",
"f. c #E8A888",
"g. c #E9A989",
"h. c #EAA989",
"j. c #EAAA8A",
"k. c #EBAB8B",
"l. c #EBAC8C",
"z. c #EBAE8F",
"x. c #ECAC8C",
"c. c #ECAD8D",
"v. c #EDAD8D",
"b. c #EDAE8E",
"n. c #ECAE8F",
"m. c #EDAE8F",
"M. c #EEAF8F",
"N. c #EDAF90",
"B. c #EEAF90",
"V. c #E4B195",
"C. c #E9B193",
"Z. c #EDB091",
"A. c #EEB090",
"S. c #EFB090",
"D. c #EEB091",
"F. c #EDB192",
"G. c #EEB192",
"H. c #EFB192",
"J. c #EFB293",
"K. c #ECB496",
"L. c #E6B599",
"P. c #EAB79A",
"I. c #EEB899",
"U. c #F0B293",
"Y. c #F0B394",
"T. c #F1B495",
"R. c #F1B596",
"E. c #F1B597",
"W. c #F2B596",
"Q. c #F2B697",
"!. c #F2B698",
"~. c #F2B799",
"^. c #F3B799",
"/. c #F3B899",
"(. c #F2B89A",
"). c #F3B89A",
"_. c #F3B99A",
"`. c #F3B99B",
"'. c #F4B99B",
"]. c #F4BA9B",
"[. c #F4BA9C",
"{. c #F4BB9D",
"}. c #F5BB9D",
"|. c #F5BC9D",
" X c #F5BC9E",
".X c #F5BD9E",
"XX c #F5BD9F",
"oX c #F1BFA1",
"OX c #F5BEA0",
"+X c #F6BEA0",
"@X c #F6BFA0",
"#X c #F6BFA1",
"$X c #F6C0A2",
"%X c #F6C1A2",
"&X c #F6C2A3",
"*X c #F7C2A3",
"=X c #F6C3A4",
"-X c #F2C4A5",
";X c #F7C4A6",
":X c #F7C5A6",
">X c #F7C6A7",
",X c #F7C7A8",
"<X c #F7C8A9",
"1X c #F0CBAD",
"2X c #F4CDAE",
"3X c #F8C8A9",
"4X c #F8C9AA",
"5X c #F8CAAB",
"6X c #F8CBAC",
"7X c #F8CCAD",
"8X c #F8CDAE",
"9X c #F9CEAF",
"0X c #F3D1B3",
"qX c #F7D1B2",
"wX c #F0D4B6",
"eX c #F6D4B6",
"rX c #FAD3B4",
"tX c #FAD7B8",
"yX c #F1D8B9",
"uX c #F7D8BA",
"iX c #F5DBBB",
"pX c #FADDBE",
"aX c #F6DDC0",
"sX c #F9E1C3",
/* pixels */
"1.G.r.4.! N k k w z J U I :.<.K.1.1.<.<.:.1.<.1.<.1.1.1.1.1.1.1.<.1.<.1.s.L.V.V.,.d.>.,.a.z.d.d.t.a.5.-.a.5.' } ! ! ) } ) ) E R ",
",.j.v.w.o.N d k u k I U U :.1.C.V.1.,.:.<.<.1.1.1.1.1.V.V.V.<.1.1.<.,.<.V.V.L.d.s.,.s.s.s.s.G.z.x.g.g.g.z.j.f.t.9.=.3. .4. .{ ) ",
"J O. .+. .K i i e x J U U 1.1.V.1.<.*.:.<.1.<.1.L.L.1.L.I.P.1.1.1.L.,.1.C.`.C.K.C.C.V.C.~.~.d.G.G.G.g.z.m.Z.r.i.i.i. .4.9.2.] { ",
"b ! Z Z V d i u w x J U U >.<.1.1.:.:.,.C.L.L.I.{.{.I.I.oX{.I.I.oXoXoXoX=X&XOX XOX X~.!._._.T.S.T.S.z.d.G.z.t.t.j.t.e.5.e.5.) ' ",
"x / Z C M l u k i x P U I ;.-.,.,.C.K._.!. X_..XoX;X$X%X$X%X}.}._. X_.&XoX;XoXoX)._.I.).G.R.J.G.m.S.M.U.f.f.7.e.6.4.o.4.} 6. .' ",
"v _ Z Z R N d i k K _ | #.=.5.a.d.s.s.s.d.C.~.[.$X$X%X#X#XOX X X_.~._._.$X&X&X~._.~.Q.!.U.B.m.M.J.B.z.z.f.r.7.e.7.#.=.%.t.4. .' ",
"z ' C C C N i i x E _ a.a.s.E N S l r s i c ( z. X&XoXOX&X*X[.OX_._.Z.~.$X&X{._.Y.!.G.~.S.U.f.m.U.U.l.Z.v.x.5.3.w.q.{ 7.e.i.] } ",
"v ! C m C n d e f L | -.-.K 7 = & % # o # % = s U ,.K._.OX X#X@X_.Z.z.U. X&X_.G.G.M.z.Z.'.U.G.T.}.R.Z.m.U.k.p.3.q.3.7.7.f.t.3.} ",
"k W C C m n s u f T _ _ d > : < > : % # X # $ : < p K a.M.'.~._.Z.z.t.D._.|._.G.t.g.l.T.~.+X'.+X_./.Z.G.g.j.7.#.} 7.3.q.o.4.0.3.",
"z Z C C m n f s N ) { l 9 f | <.L.V.:.b i w 5 3 3 7 f T #.Z.!.W.S.i.t.Z.~.Q.R.f.e.6.t.M. XOXOX X{.T.z.a.-.( S N N N K c N S V V ",
"v Q C m m B s d E e.~ V =.T.!._.).$X`.oXI.d._ L c n n S E a.x.S.M.k.7.z.K./.f.5.5.3...k.~.].K.Z.-.J u e 7 > & = = : > 3 7 r r p ",
"b L Z h M n n d _ f.g.g.G.U.H.U.[.[.(.I.~.C.s.5.} _ V E ' #.f.c.H.k.g.t.z.k.e.[  .] { =.S.z.' l 9 : o X X . . . . . X $ = : > < ",
"x E Y B n M l l @.v.f.l.g.b.f.u.6.a.5.s.a.a.#.=.E ! ! [ ' %.f.M.l.S.f.v.f.v.7.! B V T ! ) E y < = $ o X . . . . . o $ & $ & & = ",
"c J E K N l f d 5.j.g.f.k.g.) n B s.K.K.z.f.#.) V n l V / %.t.k.b.l.f.g.x.z.e.n f n n M M y 1 - + $ $ o $ + : 3 r x x d 7 3 3 3 ",
"H I K K c N s d 5.M.u.t.q.{ t T `.&XI.I._.G.6.3.) M 8 y T o.} f.G.x.u.p.f.v. .N y f y f y 8 ; - = = = : 3 t p K E } E ( E L n l ",
"U I L K J c d f t.Z.Z.t.4.n l z.`.C._ N d d d d M l y 0 l V ! 7.G.z.j.t.j.g.} B l f t t 6 1 - - - : - ; 7 f l l f p s y n n S B ",
"U U I I H c l c } k.U.T.] f T L.P 3 $ O . . . . # - 1 8 8 n Z o.k.U.m.Z.g.g.} R n l t 8 , ; - - = + $ - 8 N E L l p t 8 ; - - 7 ",
"*.*.*.U I I H c o.} v.x.o.M [ d $       O O       . $ - 1 y Z ] k.~._.G.D.M.t.! n t 8 1 , = = $ X X : 4 > : $ $ $ = 2 5 7 3 - $ ",
"*.*.U U *.*.H K 7.7. .7.4.B 8 $   . . O % O     . . # o + - n ` k.&X&X=X+X_.j.} f 6 ; , ; @ + X . + $ X . O           . . . X $ ",
"*.U *.U *.U U L 6.] B y y , = 1 7 7 7 4 > % O O # & > + @ = 8 q.G.;X7X7X>X XS.} f , ; , = @ + X X o $ & O O     . . . . .     . ",
"*.*.U U U U U d.=.! Z m f l T t.t.j.a.5.L K x c l n f p y V { U.T.4XqXtX8X$Xz.! 8 , , 6 - 6 8 8 8 l N K b c 5 : = 4 7 4 : : = $ ",
">.;.;.;.| *.,.`.z.t.k.B.U.f. . .i.l.f.u.t.#.( C C T C Z A A { T.+X>XqXeX9X%Xv.T q 1 1 g f M  .4. .' } } 5.5.' B S T S n s s f s ",
"1.1.:.>.>.;.L 5.6.f.k.U.^.U.k.k.e.u.{ ! Z Z m Z Z Z m m h m t.}.%X8X8XrX8X Xt.V g q 8 h Q } ! e.7.} m V Q Q C m h f 0 g m Q Z T ",
"s.,.;.:.>.;._ E ! 7.k.M./.OX XQ.M.~ C m C Z m m h q 6 8 E I.%X&X4X8X4X7X5X X5.C m h m h Q 4.r.t.k.k.=.B y 1 1 0 q 8 0 6 6 , ; - ",
"-.>.;.-.;.>.5.^ C t.k.Q.T.+X$X;X XQ.4.Q f g 0 8 1 q V K.&X5X>X>X,X9X8X8X%XG.) m h C Q ) ] q.r.g.t.Z.H.T.j.a.! M y 8 7 1 6 6 6 y ",
"s.a.,.a.,.g.g. . .v.x.R.Q.+X;X4X4X;X#X/.~.x.k.u.z.~.&X:X5X4X5X>X8XqX8X>X Xx.) m m Z ^ q.i.r.f.f.p.M.U.G.~._.+X_.}.~.S.g.z.S.U.x.",
"z.c.a.s.d.C.f.4.o.S.f.Q.Q.&X&X8X9X9X=X#X$X+X~.$X>X7X&X;X4XrX4X9XrXtX4X;X Xv.! A C m h C Q { { 4.h.G.M.!.'. XOXOXOX$XT.!.!.}.M.m.",
"d.f.a.a.C.a.%.^ o.v.M.U.$X;X,X4XrX9X,X X*X X'.$X7X4XOX X4X9X9XqXuXuX>X X}.m.4.~ A m g q y 0 8 q C 7.c.~. X). XOX;X$X}.[.OX^.Y.k.",
"t.u.6.a.;.-.5. .{ M.T.}. X,X4XrXeXrX9X;X_.}.OX,X7X5X=X>X%X9X9XtXpXsX4XOXY.M.u.f.4.A g y g g 6 1 ; y ! H.'.}.OX;X+X&XOX$X[._.R.H.",
"q.5.6.#.-.| g.f.9.G._. X.X,X>XqXuXiXrX8X:X;X4X5X8X7X>X=X=X4X9XtXpXaX7X XY.M.U.B.v.o.h g ~ ^ A h ; - 1 n t.Z.[.}.$X#X$X_.{.Q.M.x.",
"e.w.#.| 5.| q.f.h.H.!.+X;X4X4XrXtXaXqXqX8X7X=X,X>X;X_.R._.:X4XiXiXtX,X$X_.).K.Y.7.Z g h o.r.] Z 8 ; - , t Q 3.H.~.+XY.R.H.U.f.k.",
"t.+.X.} 6.| t.g.9.M.T.}.;X4X:X5XqXtX9X4X6X3XOX_.U.4.Z {  X;X8XeXpXrX7X&X;X/.}.e.m q q g Z Z n q 6 1 1 , 1 t V  .x.m.B.v.x.x.9.e.",
"$.=.| $.$.6.t.k.%.k.b.W.}.*X*X>X&X>X+X}.T.S.9. .g 8 g z. X4XqXpXuXaXeX9X=X$Xg.M 1 ; - - = = - , , 0 q y q 0 8 M Q q.e.k.i.t.4.q.",
"=. .O.| 6.5.u.S.q.t.k.l.'.}.%X$X_.~.S.g.o.Z g 1 ; 8 k.$X5X7XrXuXsXsXsX7X4XG.B 1 - o $ + + + @ ; , , 0 0 y y 0 8 y B )  .7.3. . .",
"6.2./ #.=.a.e.H.k.g.p.k.~._.[.|.T.B.o.` m 0 - - p d.OX8XqXrXeXpXpXiX>X=XI.) 1 = + + $ + + @ + = - - - , 6 q 6 1 1 0 f T ! ) T ! ",
"} ' ! / $.| e.m.k.t.r.y.b.G.Q.M.j.) C g 6 ; - f K.oX>X9XtXeX7X8X>XOXC.t.[ y ; @ + + o o $ + + + = - + + ; ; - - ; - , f T T V V ",
"_ / / _ ( _ 5.k.p.4. .8.y.b.x.i.! m y 6 - ; y 5.I.>X5XrX9X9X$X&X~.f.E f 6 ; = + + + $ + $ @ = - - = + + @ - - - + = + : y T ! R ",
"/ W ! E ( E } 9.t.` ~ ^ 8.w.o.) m g 6 ; - 6 E d.OX,X<X=XoXK.z.x.S.g.T 6 ; ; ; , ; - - - = = - ; < = = = = = = = + + + $ = t R ! ",
"T L S L E ( E  .q.] C Q { } Z Z y 8 ; ; 1 m Q d.OXC._ _ =.=.' ) ' ! p , ; 8 f N 8 7 - ; - - = - ; < - - - : - - : = $ $ $ - 8 V ",
"S M N N K K L ) %.` Z C ^ ^ Z M 8 1 ; , y V T { #.n y y S T n t t 7 = @ ; t n N n y 1 ; , - - ; , < - - ; ; ; , 3 < = + + + = t ",
"l l l c c N E | o.^ Z Z Z ~ C n 6 6 1 1 f B N ( l y 8 t f M l 8 1 1 ; 1 V 6.o.` V M y 1 , , , t 0 6 6 6 1 , 1 6 , 1 - = + + + , ",
"x l l l c N ! [ 6.7.^ C C Z Z l 8 6 , 1 f l l K f 8 8 8 f l M y 8 t y S t.k.j. .^ m h y q 0 y g g h h y 8 1 8 6 3 , < : + + = - ",
"x c f c c K L } t.j.o.Z Z n m m y 6 , 6 n N f f t r 8 p l N M n n T V ! ] %.{ ] ~ Z n h g g 6 0 q y , , , , ; ; - - = = = > ; ; ",
"d c x l H H E } f.d.k.] Q l n V M t 6 6 V n s 9 r 8 8 8 t y f M Z Q C m T V m n n y 6 , , ; ; - ; - @ + + + o o $ o $ = 9 p s 1 ",
"d c c c l H L 5.d.U.R.f.) f g E ! S t 0 N n 6 ; - - = - - 1 0 g y g a g y y q 0 1 1 ; ; - - - - - = + = @ = - - - ; , y E ) B t ",
"x H U K H H L #.Z.~.~.R.=.M f B { ..S y n n t 1 , - - , 8 q y y y y a q q 0 y q n n j j a a y 0 0 y 6 6 8 8 8 8 6 8 f )  .[ M n ",
"I U U *.( ( K @.C.~.D.E.z.E y M } 6.) R V T n l N V n f f m m Z G G D D D G S G G G S S S y t a a y 0 y y y 6 0 q m ' 3.} ! f T ",
"I U U *.;._ L L s.C.J.R.W.=.n f ' %. .{ X.E V V ) ! T M n n V E ( G G G G T S F G D s t t 7 8 8 9 9 0 0 q 0 6 8 N } 6.4.} B p ' ",
"L *.;.;.*.| _ _ -.G.d.Y.N.N.E l S 5.e.7.' R V T Q / ! ! M n f l s s d f d d s s s r 7 7 3 7 3 7 3 7 7 9 8 t 8 n E d.6.} ! f f ) ",
"I ;.;.;.*.;.U U U _ 5.6.d.t.[ f l ~ 3.0.3.` W E W / Q V M f t 8 9 7 9 r s s r e r 7 3 4 < < 3 < 3 3 7 9 r t p K 7.t.5.} E y n ! ",
"*.>.&.;.;.;.J K c c L #.[ 5.' n n B [ o.3.o.! ! ) ' T C B B p s 8 8 9 t f l s r 9 7 < > < < > 3 7 9 3 9 s n N #.a.t.#.} n f K V ",
"*.;.;.;.>.*.J i w r *._ L V ! E E ! ]  .7. .` ) } [ V M M n f p f f l M B n f s r 7 3 < 3 7 9 r p p p f N E 5.a.s.s.) M l M B n ",
"I ;.-.;.;.*.d 5 4 4 H *.L T R f.5.[ } 7.] [ X.X.' } / V M B T T L ( [ ' E ( c d i i e u u f c E L K c L L 5.a.-.-.a.V B n V M f ",
"J ;.>.;.;.H u > * 2 4 d _ ..#.z.G.[ 5.5.' Q  .X.2.o.] Q W / a.a.a.| $.a.6.a.-.U I K K J K L _ | #.E ! ! #.=.-.-.a.! M M N l n l ",
"b *.*.*.U b 5 2 & 2 > 2 x s.d.R..Xa.6.6.' ) W  .%.0.{ } [ t.=.a.| | | 5.s.s.-.>.,.,.*.:.U U J | $.$._ _ _ | _ -.-.E n N N K S K ",
"z I U U U x 4 & & > * : i s.`.oX%Xl.#.=./ / ) 5.6.=.5.6.f.z.z.s.,.-.-.,.d.d.V.L.I.1.;.;._ L L } a.=._ ( -.5.| | _ K n d p l L K ",
"w H I *.I x * % & & * 4 e s.#X:XoXJ.%.#.! _ _ d.g.s.a.s.g.I.K.K.d.C.,.K.V.L.oX&X1.;.| | ! ! L | _ =.@._ | -.| _ L K n d s N L L ",
"w x J U c e * # % % * > e *.,X:X{.z.e.3.=.[ 6.d.z.z.d.d.K.I.~.{.oXI.C.L.L.I.`.K.,.| ' ( ! E ( } 5.a.5.-.a._ _ K H l f s d K c i ",
"5 5 v b z w % # % & % : 3 L >X5X{.J. . .=.A.Y.T.~.Q.z.Z.z.D.d.F.K.d.a.d.z.G.6.t.#.[ T L ' } ' a.u.Z.5.-.U I H c d e 3 9 d i 5 4 ",
"% & 2 4 k 5 & O # # % : 3 S 4X6X&Xt.| f.@X=XOX_.OX_.G.n.G.d.f.6.t.2.5.5.t.5...' } ' } } $.| t.z._.R.-._ c z x e 5 : = < < > > > ",
"O O # * 4 4 : O # # % : < E :X9XV.1.oX>X>X6X9X3XOX%XOX#X_.Q.G.G.g.g.%.' E Q / $.' 5.t.u.[ u.G._.K.,.c c i 5 > 4 : % % < < 7 3 r ",
"O O O % * 2 * O O O % = r G.5XrXuXuXeX8X9XuXpXiXuX2XrX9X9X:X+XXX|.E.g.W E E / [ =.t.z.Z.T.{.{.,.U H e u 4 4 & * % O : 7 s d f x ",
". . . # % * & # . O $ < #.OX4XuXaXsXiXuXuXaXiXsXsXsXeXuXiXtX:X:X>X6XoXV.*.L S } z.E.K.OX:XoX_ H c w * * & & O O O # & < 9 r r s ",
". . . O # & % # . X # d s.=X0X0XuXiXiX0XwXwXwXwXyXyXwXwXwXwX1X1X2X1X1X1X1X1.U >.L.P.P.oX-X1.b v k w * & & # O O # # % * 5 3 w u "
};
