/* XPM */
static char *out[] = {
/* columns rows colors chars-per-pixel */
"64 64 210 2 ",
"   c #2B1608",
".  c #4A2415",
"X  c #5C2C1A",
"o  c #68321E",
"O  c #583F2A",
"+  c #763A24",
"@  c #7E3D26",
"#  c #63432F",
"$  c #6E402D",
"%  c #6A4D37",
"&  c #77523D",
"*  c #7F5D46",
"=  c #814A35",
"-  c #8E4B34",
";  c #96523A",
":  c #865540",
">  c #8C5D46",
",  c #9D5943",
"<  c #955F49",
"1  c #A45E45",
"2  c #89664F",
"3  c #9B644E",
"4  c #916A53",
"5  c #9A6F56",
"6  c #AB644A",
"7  c #A16851",
"8  c #AD6D51",
"9  c #A86D58",
"0  c #B36A51",
"q  c #B76F53",
"w  c #A1765D",
"e  c #A7755C",
"r  c #AE755B",
"t  c #B4715D",
"y  c #B97658",
"u  c #A87B63",
"i  c #AE7D64",
"p  c #B77764",
"a  c #BD7564",
"s  c #B27861",
"d  c #B47F64",
"f  c #BB7E63",
"g  c #C1785B",
"h  c #C87E61",
"j  c #C07B6B",
"k  c #AC836B",
"l  c #BE8466",
"z  c #B3876E",
"x  c #BA876A",
"c  c #BF8B6C",
"v  c #B78C72",
"b  c #BC8E72",
"n  c #C38264",
"m  c #CC8566",
"M  c #C78568",
"N  c #C4816F",
"B  c #C48A6C",
"V  c #CC8C6D",
"C  c #CC8C6E",
"Z  c #D18969",
"A  c #D48C6E",
"S  c #D88F6F",
"D  c #C88973",
"F  c #D38E7E",
"G  c #C39072",
"H  c #C69677",
"J  c #C89172",
"K  c #CC9475",
"L  c #CA997A",
"P  c #CF9C7E",
"I  c #D19071",
"U  c #D09072",
"Y  c #D29172",
"T  c #D09273",
"R  c #D39273",
"E  c #D49374",
"W  c #D59475",
"Q  c #DA9472",
"!  c #DD9876",
"~  c #D79778",
"^  c #D1967C",
"/  c #D89778",
"(  c #D59A7B",
")  c #D99878",
"_  c #D9997A",
"`  c #DB9A7A",
"'  c #DA9A7B",
"]  c #DC9B7B",
"[  c #DB9C7D",
"{  c #DA9D7E",
"}  c #DE9D7D",
"|  c #DC9D7E",
" . c #DD9D7E",
".. c #E09E7D",
"X. c #E29F7D",
"o. c #E2A07F",
"O. c #D89380",
"+. c #DD9E80",
"@. c #DE9F80",
"#. c #DF9F80",
"$. c #D4A082",
"%. c #DFA081",
"&. c #D8A485",
"*. c #DCA88A",
"=. c #DFAB8E",
"-. c #DBAB91",
";. c #DFAF94",
":. c #E0A081",
">. c #E2A181",
",. c #E3A181",
"<. c #E0A182",
"1. c #E1A283",
"2. c #E3A282",
"3. c #E4A281",
"4. c #E4A382",
"5. c #E4A383",
"6. c #E5A383",
"7. c #E6A483",
"8. c #E5A484",
"9. c #E6A584",
"0. c #E6A585",
"q. c #E7A685",
"w. c #E7A686",
"e. c #E8A786",
"r. c #E8A787",
"t. c #E9A887",
"y. c #E0A58A",
"u. c #E3AC8D",
"i. c #E7AD8F",
"p. c #E8A888",
"a. c #E9A888",
"s. c #E9A989",
"d. c #EAA989",
"f. c #EAAA8A",
"g. c #EBAA8A",
"h. c #EBAB8B",
"j. c #EBAC8C",
"k. c #EBAE8F",
"l. c #ECAC8C",
"z. c #ECAD8D",
"x. c #EDAD8D",
"c. c #EDAE8E",
"v. c #ECAE8F",
"b. c #EEAF8F",
"n. c #EEAF90",
"m. c #E4B195",
"M. c #E9B193",
"N. c #EDB091",
"B. c #EDB192",
"V. c #EEB192",
"C. c #EFB192",
"Z. c #EFB293",
"A. c #ECB496",
"S. c #E1B49A",
"D. c #E6B599",
"F. c #EAB79A",
"G. c #EEB899",
"H. c #EEBC9E",
"J. c #F0B495",
"K. c #F1B495",
"L. c #F0B496",
"P. c #F1B597",
"I. c #F2B697",
"U. c #F2B698",
"Y. c #F2B798",
"T. c #F2B799",
"R. c #F3B899",
"E. c #F2B89A",
"W. c #F3B89A",
"Q. c #F3B99B",
"!. c #F4B99B",
"~. c #F4BB9D",
"^. c #F5BB9D",
"/. c #F5BC9D",
"(. c #F5BC9E",
"). c #F5BD9F",
"_. c #F5BE9F",
"`. c #F1BFA1",
"'. c #F5BEA0",
"]. c #F6BEA0",
"[. c #F6C0A1",
"{. c #F6C1A2",
"}. c #F6C2A3",
"|. c #F7C2A3",
" X c #F6C3A4",
".X c #F7C3A5",
"XX c #F2C4A5",
"oX c #F7C4A5",
"OX c #F7C5A6",
"+X c #F7C6A7",
"@X c #F7C7A8",
"#X c #F0CBAD",
"$X c #F4CDAE",
"%X c #F8C9AA",
"&X c #F8CAAB",
"*X c #F8CBAC",
"=X c #F8CDAE",
"-X c #F9CEAF",
";X c #EECEB0",
":X c #F3D1B3",
">X c #F7D1B2",
",X c #F0D4B6",
"<X c #F6D4B6",
"1X c #FAD3B4",
"2X c #FAD7B8",
"3X c #F1D8B9",
"4X c #F7D8BA",
"5X c #F5DBBB",
"6X c #F6DDC0",
"7X c #F9E1C3",
/* pixels */
";.V.7.q._ J z k i z L $.-.m.D.m.m.D.m.m.;.D.m.F.m.H.D.H.H.H.D.F.D.A.u.m.u.Z.k.i.y.y.%.%.*.p.%.%.#.<.| @.' ' / ~ U T C Y U / C U ",
"*.d.l.t.<.~ B k k H L &.m.m.D.F.m.m.S.m.m.m.m.F.D.m.D.H.H.F.D.m.D.m.u.u.u.u.n.u.p.0.y.%.y.8.1.:.%.<.| @.%. .| ~ _ W I W R Y W C ",
"J 3.3.,.| P B G J P P =.m.F.m.F.D.F.-.m.m.m.-.m.m.D.m.D.D.F.;.m.m.u.y.=.i.k.p.u.i.p.{ y.y.u.%.>.>.5. ...%.1.` ] ` ` E R W ~ A A ",
"B X.:.! ^ L G v H P $.-.F.F.F.D.D.D.;.-.m.m.;.m.S.D.;.m.F.D.;.;.m.m.y.y.i.k.i.u.u.p.8.8.z.j.p.0.u.r.1.` .. ._ _ ` ] R A R R Z Z ",
"B X.! ] K L B G H &.*.m.m.D.m.D.m.m.;.m.;.m.;.D.;.m.D.F.m.D.m.m.m.D.u.n.k.Z.k.A.k.B.k.N.s.s.w.p.8.d... .~ _ ~ ] ] ` R A C A m Z ",
"V } X.! ^ H H L $.&.=.-.m.m.D.m.F.m.m.;.m.m.m.;.F.F.F.F.F.D.m.H.R.P.U.G.G.G.J.N.Z.j.d.d.s.w.q.<.8.>.| / ` W _ ~ ` ) R Z C m m m ",
"I 7.! } ` $.^ $.=.u.u.D.F.H.A.F.H.H.m.F.H.H.F.H.[..XQ.H.[.[.!.].).(.Z.Z.Z.P.i.k.z.d.<.8.e.8.} %.t.8.~ ' / ` R ~ _ ' V m m m h m ",
"S 3.o.X...y.y.p.A.A.A.F.R.Q.H.(.].).G.R.[..XH.).oX|.`.R.[.!.W.^.Q.U.J.N.J.N.n.j.j.q.7.>.q.5.} ..d.:.' | ' ' ) | | ~ C M m M h h ",
"Q 7.7.e.3.z.N.U.J.P.U.].).}.|.}.H.}.).].!.].!.{.).'.(.].R.Q.W.^.J.N.n.U.J.J.N.Z.v.s.w.s.1.3.%.q.7.7.| @.| | ` +.' E Z m g h g h ",
" .w.9.1.e.c.J.Z.Z.Z.R.R.[.[.[.).[.).'.{.^.U.R.(.].).).J.P.J.P.T.U.B.J.B.U.R.Q.Z.k.d.8.1.8.8.>.d.w.1.| |  . .| | | R Z h g g g a ",
"3.z.1.t.h.c.8.f.f.N.c.U.].).Q.(.|.|.E.).R.U.n.R.(.).G.N.n.J.j.R.Q.^.Z.Q..X[.J.P.k.i.| | <.1.| ` ~ W C / `  .( ] _ W n n f g q y ",
"3.#.^ c d r e e i d J =.H.Q.Q.E.].!.Q.^.U.n.n.P.^.T.Z.d.j.j.s.Z.[..X(.).OX[.A.i.y.^ B x l l l s s s y l D B M U W W n f f a y y ",
"C f 7 < = = $ # # $ % 3 i G { s.Z.R.P.R.c.s.s.P.U.U.j.d.1.0.p.P.^.].).].J.u.P G e > : = + = : : : < 9 9 6 8 8 l n V n g y g y g ",
"f 6 6 9 r e < & # # # @ : 3 s B | s.J.C.j.6.d.k.J.N.u.%.<.#.8.z.U.Z.k.@.c 3 = $ o . . . . . X $ $ $ = : > > - < 3 7 9 0 q 0 q q ",
"E _ ' y.u.A.*.P z u 7 3 1 1 9 f B | q.c.b.d.8.w.s.d.<.| / ..S 3.h.h.M e > + X . . . . . X & = : : : : : : = = : ; < - ; 7 8 1 6 ",
"1.%.1.%.p.k.u.y.y.| T J C n f y C W :.w.n.g.8.8.j.p.| C I I C C W B 8 - = $ X X o + = < i J J B f s r r 7 3 < > < < : = ; 1 6 1 ",
"<.1.<.W C ' _ 0.{ :.^ U B n l B C / | d.d.g.t.w.5.s.` M f n l n f 8 ; - @ + @ = - 9 f C ( %.( %.T T J K C l s r 3 < : : : 1 6 0 ",
":./ M 8 T A.H.`.G.A.y.%.~ n 0 0 B E ..q.s.p.t.>.8.2.| n y a y y t 1 ; = = = - , 9 s l l f f f y y r f B J B B n s 7 1 < 1 8 t 8 ",
"..C 6 T H.H.m.*.L G u r f f 0 8 y M A 3.z.n.0.7.r.a.~ C n l y 0 1 1 - - - = + - 9 N B C n l y 8 1 - = ; 0 B n l f f 8 t f g t g ",
"<.y t *.u.H 3 $ O .   . O + > 1 8 f M / h.N.s.p.l.8.} A V n r 1 , ; = @ + o : w w e 3 3 5 e r r r 3 = o @ 9 B B D n g n M n g g ",
"<.f f G > O .   . O       . X + = 8 n E 6.P.U.U.N.n.6./ n y 1 3 ; = @ o . = : $ . .         . O . O o O . o f E n n g n y y g f ",
"f y r + . . . . O O     . . # X o @ t Y 7.Q.%X].).U.n.| f 1 , ; - + + . X o o + . .         .       . . . . : 9 6 f V E ..E m n ",
"t ; + 1 9 7 3 5 5 > & & = 4 3 : = = ;  .d..X=X=X+X|.j.~ t , , , - - @ + = 3 r l z w > = : 4 4 > : > = + o + ; 1 0 I ' 1.>.n 6 6 ",
":./ V ~ k.i.0.u.8.{ ( ( R C n N n R ~ j.R.+X-X1X-X].p.m 0 1 1 1 6 n C C <.<.<.<.0.{ C h C R Y n f 8 r r f l 6 1 M n f y 8 8 y f ",
"Z.k.6.} :.w.:.1.` ` I S A Q C S Z A ' U.].*X1X1X%X].0.Z 6 6 6 M n I ..3.W R Y / ~  .A Z m n g g n A A A n 1 - M ' :.M t t l l n ",
"R.U.U.K.7.! S C Z Z A A I Z m g q n k.].OX-X1X-X%XQ.1.M y 0 g M } :.q.d.e...V y 0 8 0 0 0 0 0 y y 0 1 - = , V E Y ' :.' / l s s ",
"R.W.I./.^.8.M g y g 0 y q 6 1 y { ).[..X%X1X&X=X|.J.Q M h M m m ' d.8.w.Z.R.h.1.C y 1 6 1 , - ; - ; ; t / h.1.:.I I W 1.>.B y s ",
"!.P.W.|.%X].J.w.~ n 0 q f B @.H.&X&XoXOX-X-X=X&X].t.C M R Q ! } 3.t.7.9.Z.J.P.J.T.R.J.i.s.p.| | <.h.c.j.n.f.p.<.` V U ..>.C n l ",
"J.(.].*X&X&X.X(.].R.Z.Q.Q..X+X&XOX&X&X-X-X1X=X&XJ.3.Z m m ! X.t.7.t.t.a.h.N.J.I.J.R.Q.).^.[.Q.(.E.R.N.j.w.t.t.q... .C  .| C B V ",
"^.|.OX=X1X-X=X|.|.(.^.[.+X&XOX+X@X&X1X1X4X1X%X[.Z...A m Z Z Z A S Q ! 1.c.n.P.J.P.!.].|.(.[.].].[.U.Z.t.7.3.3.q.6.:.Q _ | Y R V ",
").+X|.=X1X4X%XOX[.(.^.+X&X&X].[.+X1X-X1X6X4X[.!.j.q.S A m h y y y 0 6 y A j.n.R.W.(.^.+X.X+X).oX|.^.c.j.q.t...8.7.8./ R | R B J ",
"].|.OX=X4X4X-X+X|.[..X+X-X*X|.|.%X-X1X4X7X1X|.J.i.h.g.<.Q n y h Z h 0 ; 1 g  .c.!.R.(..X+X}.(.).].U.Z.t.b.s.q.6.7.3.%.W ` C U C ",
"R.[..X1X1X2X2X=X+X+X}.=X%X&XOX.X.X=X-X6X7X1X|.R.c.J.P.Z.! m n ! 3.X.S y - ; 6 C <.Z.R.W.).[.R.P.Z.Z.d.d.8.g.8.w.:.<.<.' C / U T ",
"U.^.(.|.+X=X-X=XOX+X}.|.(.U.n.c.].%X-X4X6X=X.XR.P.P.J.7.S h Z X.t.X.Q n 1 ; ; 1 f Q w.n.C.R.W.J.i.h.w.t.s.d.g.1.:.| %./ U I C C ",
"Z.Q.Z.^.|.+X(.].R.!.j.p.} Z m n.|.*X=X4X4X1X|.|.[.).1.M g n h Z Z m 0 8 6 y 8 8 6 y V :.h.h.f.x.t.q...8.8.f.4.5.| @.~ W E U M C ",
"Z.J.C.I.].!.n.d.8.! m g 6 8 | Q.+X&X1X6X6X4X%XOX.Xn.n 6 1 ; - = - - ; 1 0 y y y y 0 0 n ' } 3.o.1...}  .5.7.#.' ( ' ^ K I E C V ",
"h.N.J.U.Z.j.6.} Z g 1 - , ' |.*X.X=X6X7X7X7X1X+XN.C 1 - + + + + + = - , , 6 6 0 y q 0 8 y A A ~ ~ ~ W / W ` W ' ~ W T T U E Z I ",
"t.t.n.x.d.} A h 0 ; - 1 ' ).&X-X=X-X7X7X7X1X*XQ.~ 6 - + + + + + + @ = = ; - ; 1 8 6 1 1 1 8 M C R R R C C I E T T J K I W W T A ",
"7.7.7.9.' Z y 6 , - 1 @.H.%X&X1X>X1X*X=X+X`.u.{ t ; + + + + o + + @ + = = = + = ; ; - ; - : ; s W ` E T U U M V C B n W ` S m Z ",
"] X.} ' R n 8 ; - 1 C u..X%X&X&X>XOX`.(.P.| n 6 , - + + @ @ + @ = - = - - @ + = = - - @ @ $ + = r E ' R R I C V ~ B l K E Z Z m ",
"A ~ Q ! h q , ; ; f W k.Q.G.F.R.s.s.p.Z.d.| y 1 ; , 1 , ; - - - = - - 3 ; = - - = - = - + = + + $ 7 n R R Q C R ~ B l T C Z I Z ",
"! E / Z n 6 ; ; 8 B W 0.1.C B ( | / W I I l 1 ; 6 n U y 8 , ; ; - - - - ; - ; - - - ; ; > : = + + = 3 l U I ~ ( { K l C W Z Z Z ",
"! / A m g 8 ; , f B l T f s 8 n V M 0 6 6 ; + - f R C C M t 1 , ; ; ; ; , , ; ; , , , 1 1 1 - @ + @ @ , M W W | @.^ l C K S V Z ",
"' / A n f 8 1 ; l l l f r 8 6 y f f 0 6 6 ; 1 U j.q./ A Z g 0 6 1 1 6 8 0 q 6 6 6 1 6 1 6 1 ; = @ @ = = y T ` %.%.P G J H Z C Z ",
"W :./ n t y 6 , f B d s 9 9 9 f f M f t y f C 1.d.j.6.} Z m n h g y y h n M h q 6 0 6 6 , 1 , : @ + - ; 6 E { %.{ L G G K C B D ",
"| 8.>.M t f l 6 B B r 9 9 6 9 y f f n n A E R Q ' ..X.Q S m M n n g 0 0 q 0 1 ; , , ; = = + + @ : < 8 8 9 E .._ ( J G L J B B B ",
"{ i.%.| f f B f n B 1 - : - = - 1 0 g m m m M Z Z Z h g y 8 , ; ; ; - - - = + + + + + + + @ = ; y C C n y ~ R ' T H c L J B l c ",
"' u.i.0.T y B B B n r 3 ; = - , 1 6 6 1 1 6 6 6 6 1 , , ; ; ; ; ; ; ; - - - - - , ; ; , 6 1 1 f / ..` n n W R ~ G c l H L G M M ",
"H %.u.Z.6.n s T T C n n f f s n n m h M h h n N y a a N f N p a f j q q q q 0 y q y q y 0 y m 3.3.>.~ n E <.( B l B x G c T J U ",
"L $.y.k.i.| f f ( K I C A I C h Y E R Y ~ W O.O.F R O.F C N n N s r 0 q a t y t q 0 8 6 y Z 0.z.3./ M f /  .K x f c x B c K K ^ ",
"$.&.P y.Z.Z.T r l / A R Y ~ A Z n M f s l B n C J B f B l s 9 9 3 3 3 7 7 9 8 0 t t 6 8 m t.z.j.<.' y f / _ l f f d x J J ^ K C ",
"$.*.$.$.u.Z.{ B 8 n Q ~ / ` ~ Z n t 8 6 8 r y y f f s s r 9 3 < 3 < > > 7 7 7 7 r 8 t n ..n.0.y.1.W y C W B s d i x G G P ( J B ",
"L *.&.$.P $.$.L y y U 3.` ` Q A y y f t t f f B n n l f e e 7 3 > < < 3 3 7 9 8 9 f B <.0.f.y.p.%.M n E V f s s d G L ( ^ ( L ( ",
"J $.&.$.P d z J J B n :.1.' Q A a t y f V  .` W W U C n s e 9 3 7 3 9 e f l n l B C | s.k.p.p.p.` f V Z n s l G G J T ^ ^ L ( ^ ",
"b $.P $.L u 4 e x J B X.e.1.E ! m f y M :.J.1.<.| %.~ T K J l l B J B K ( | Y W K { %.u.i.k.y.y.I V C B s d s L B G c J P %.%.%.",
"z L P P L u 4 * 3 e J 3.Z.d.! } S m V | Z.Z.u.%.<.| _ | y.&.( P &.&.&.y.y.$.W ^ ( <.y.y.s.s.p.1.~ T C x s e 7 s J H G G L { y.u.",
"w G L P G u * % * * u y.G.J.:.o.3.` Q c.U.W.L.J.u.y.y.y.u.k.u.F.F.H.i.m.*.@.W ' | @.| 1.8.s.p.y.^ ( B c i e 7 r x K J J H $.&.&.",
"w z H L c w & % % & 5 G H.}.j.:.h.t.7.s.^.(.].!.^.Y.I.L.H.H.H.`.`.G.y.{ y.1.@._ ~ W | #.s.Z.Z.y.{ ( c x d i d e 7 r l G L H z w ",
"5 w v b d 5 # # % * * e y.=XR.h.s.s.q.p.J.^.Z.U.~.).A.G.).[.I.A.M.n.%.y.0.p._ _ ~ ' W 0.i.Q.J.i.{ L w x x k u w = 3 9 d s 5 4 4 ",
"% & 4 5 k 4 % O # % & > G OX=XT.f.5.8.J./.!.P.J.U.N.j.p.i.f.p.1.0.1.1.[ @.` ' ~ :.| @.0.P.U.U.u.P G w 5 i w 3 5 = + > > > > < 4 ",
"O O # * 4 4 & O # # & > s [.-XH.&.A.Q.@X+X&X{.|.^.Q.J.T.i.k.8.0.1. .R W W _ ' >.0.8.<.Z.^.|.Q.&.H d d 5 > > * 4 # # > < < w 3 i ",
"O O O % * 2 & O O O & : f ).1X-X4X2X1X1X1X4X4X2X=X=X&XOX+X(._.~.I.u.^ T T W ) @.8.h.C.U.]._.F.H G w u 4 4 : & & # # < 7 r d f x ",
". . . # % * & # . O $ < +.'.%X4X6X7X5X4X4X6X5X7X7X7X<X4X5X2XOX@X+X*X`.m.$.J D @.k.P.A.`.OXH.P G c w * * & & O O O # & < 9 r r d ",
". . . O # & % # . X # d u. X=X:X6X6X5X:X,X,X,X,X3X3X,X,X,X,X;X#X$X#X#X;X#X;.P *.D.F.H.H.XX;.b v v w * & & # O O # # % * 5 5 w u "
};
