/* XPM */
static char *out[] = {
/* columns rows colors chars-per-pixel */
"64 64 225 2 ",
"   c #2B1608",
".  c #4A2415",
"X  c #5C2C1A",
"o  c #68321E",
"O  c #583F2A",
"+  c #763A24",
"@  c #7E3D26",
"#  c #63432F",
"$  c #6E402D",
"%  c #6A4D37",
"&  c #77523D",
"*  c #7F5D46",
"=  c #814A35",
"-  c #8E4B34",
";  c #96523A",
":  c #865540",
">  c #8C5D46",
",  c #9D5943",
"<  c #955F49",
"1  c #A45E45",
"2  c #89664F",
"3  c #9B644E",
"4  c #916A53",
"5  c #9A6F56",
"6  c #AB644A",
"7  c #A16851",
"8  c #AD6D51",
"9  c #A86D58",
"0  c #B36A51",
"q  c #B76F53",
"w  c #A1765D",
"e  c #A7755C",
"r  c #AE755B",
"t  c #B4715D",
"y  c #B97658",
"u  c #A87B63",
"i  c #AE7D64",
"p  c #B77764",
"a  c #BD7564",
"s  c #B27861",
"d  c #B47F64",
"f  c #BB7E63",
"g  c #C1785B",
"h  c #C87E61",
"j  c #C07B6B",
"k  c #AC836B",
"l  c #BE8466",
"z  c #B3876E",
"x  c #BA876A",
"c  c #BF8B6C",
"v  c #B78C72",
"b  c #BC8E72",
"n  c #C38264",
"m  c #CC8566",
"M  c #C78568",
"N  c #C4816F",
"B  c #C48A6C",
"V  c #CC8C6D",
"C  c #CC8C6E",
"Z  c #D18969",
"A  c #D48C6E",
"S  c #D88F6F",
"D  c #C88973",
"F  c #D08B78",
"G  c #C39072",
"H  c #C69677",
"J  c #C89172",
"K  c #CC9475",
"L  c #C09379",
"P  c #CA997A",
"I  c #CF9C7E",
"U  c #D19071",
"Y  c #D09072",
"T  c #D29172",
"R  c #D09273",
"E  c #D39273",
"W  c #D49374",
"Q  c #D59475",
"!  c #DA9472",
"~  c #DD9876",
"^  c #D79778",
"/  c #D1967C",
"(  c #D89778",
")  c #D59A7B",
"_  c #D99878",
"`  c #D9997A",
"'  c #DB9A7A",
"]  c #DA9A7B",
"[  c #DC9B7B",
"{  c #DB9C7D",
"}  c #DA9D7E",
"|  c #DE9D7D",
" . c #DD9D7E",
".. c #E09E7D",
"X. c #E29F7D",
"o. c #E2A07F",
"O. c #D89380",
"+. c #D89982",
"@. c #DD9E80",
"#. c #DE9F80",
"$. c #DF9F80",
"%. c #DD9986",
"&. c #D4A082",
"*. c #DFA081",
"=. c #DCA386",
"-. c #D8A485",
";. c #D7A88D",
":. c #DCA88A",
">. c #DFAB8E",
",. c #DBAB91",
"<. c #DFAF94",
"1. c #E0A081",
"2. c #E2A181",
"3. c #E3A181",
"4. c #E0A182",
"5. c #E1A283",
"6. c #E3A282",
"7. c #E4A281",
"8. c #E4A383",
"9. c #E5A383",
"0. c #E5A483",
"q. c #E6A483",
"w. c #E5A484",
"e. c #E6A584",
"r. c #E6A585",
"t. c #E7A685",
"y. c #E7A686",
"u. c #E8A787",
"i. c #E9A887",
"p. c #E0A58A",
"a. c #E3AC8D",
"s. c #E7AD8F",
"d. c #E8A888",
"f. c #E9A888",
"g. c #E9A989",
"h. c #EAA989",
"j. c #EAAA8A",
"k. c #EBAC8C",
"l. c #EBAE8F",
"z. c #ECAC8C",
"x. c #ECAD8D",
"c. c #EDAE8E",
"v. c #ECAE8F",
"b. c #EDAE8F",
"n. c #EEAF8F",
"m. c #E4B195",
"M. c #E9B193",
"N. c #EDB091",
"B. c #EFB090",
"V. c #EEB091",
"C. c #EDB192",
"Z. c #EEB192",
"A. c #EFB192",
"S. c #EFB293",
"D. c #ECB496",
"F. c #E6B599",
"G. c #EAB79A",
"H. c #EEB899",
"J. c #EEBC9E",
"K. c #F0B293",
"L. c #F0B394",
"P. c #F0B495",
"I. c #F1B495",
"U. c #F0B496",
"Y. c #F1B596",
"T. c #F1B597",
"R. c #F2B596",
"E. c #F2B697",
"W. c #F2B698",
"Q. c #F2B798",
"!. c #F2B799",
"~. c #F3B799",
"^. c #F3B899",
"/. c #F2B89A",
"(. c #F3B89A",
"). c #F3B99A",
"_. c #F3B99B",
"`. c #F4B99B",
"'. c #F4BA9B",
"]. c #F4BA9C",
"[. c #F4BB9C",
"{. c #F4BB9D",
"}. c #F5BB9D",
"|. c #F5BC9E",
" X c #F5BE9F",
".X c #F1BFA1",
"XX c #F5BEA0",
"oX c #F6BEA0",
"OX c #F6C0A1",
"+X c #F6C0A2",
"@X c #F6C1A2",
"#X c #F6C1A3",
"$X c #F6C2A3",
"%X c #F7C2A3",
"&X c #F6C3A4",
"*X c #F7C3A5",
"=X c #F2C4A5",
"-X c #F7C4A5",
";X c #F7C4A6",
":X c #F7C5A6",
">X c #F7C6A7",
",X c #F7C7A8",
"<X c #F7C8A9",
"1X c #F0CBAD",
"2X c #F4CDAE",
"3X c #F8C8A9",
"4X c #F8C9AA",
"5X c #F8CAAB",
"6X c #F8CBAC",
"7X c #F8CCAD",
"8X c #F8CDAE",
"9X c #F9CEAF",
"0X c #F3D1B3",
"qX c #F7D1B2",
"wX c #F0D4B6",
"eX c #F6D4B6",
"rX c #FAD3B4",
"tX c #FAD7B8",
"yX c #F1D8B9",
"uX c #F7D8BA",
"iX c #F5DBBB",
"pX c #FADDBE",
"aX c #F6DDC0",
"sX c #F9E1C3",
"dX c #FBE5C7",
/* pixels */
"<.Z.q.t._ B k k w k P I I ,.,.,.-.<.,.<.,.<.<.m.m.m.<.F.m.G.<.F.m.m.<.m.a.m.m.M.p.a.,.a.d.d.d.a.p.j.d.j.r.g.w.8.{ 1.^ ' [ | ' [ ",
">.g.f.0...E x k u d H P I -.,.-.-.,.,.,.,.,.m.<.m.<.m.m.F.F.F.m.m.m.m.<.<.m.F.m.M.s.s.C.S.A.Z.l.v.c.c.c.c.j.u.0.2.' ' ' ..[ ' [ ",
"G | X.e.o.Q f k i z L I &.,.,.,.,.<.<.<.m.G.F.G.F.F.<.m.F.G.<.F.G.G.m.G.H.J.H.W.'.!.v.I.K.^.l.B.c.k.w.y.y.h.7.2.2.0.W [ [ o.Q [ ",
"b ~ ! ~ Q V n x k x G I -.,.,.<.m.D.D..X:X$XXX.X-X@X.XJ.@X@XXXXX+X-X_./.XX{.!.I.!.T.C.v.I.S.l.c.j.y.0.t.0.6...1.j.6._ _ { { ' ] ",
"b ! Z A m n f l d G P -.:.F.F.^.T.}.'.XX+X*XXX#X.XXX/.oX^.oX{.#XXX%X'.|.T./.E.I.V.S.Z.K.V.S.l.x.r.f.t.u.7.6...h.t.0.` $.} } | #.",
"c ! A A h y t f c P &.-.d.l.Z.Z.Q.'.}.oX*X+X#X+X-XXXXX/.!.T.!.XXXX|.{.U.W.S.T.Z.B.c.B.S.T.V.S.l.z.f.f.0.2.2.u.0.j.8.#.#.} ` #.5.",
"c ~ m m m g 8 f G P P I P P K K &.s.l.}.oX*X].'.XX%X}.oXI.T.c.}.@X%XT.Z.B.S.c.S.I.I.I.!.}.!.j.B.S.n.0.y.6.g.*.h.6.j.{ *.5.4.{ 1.",
"L ~ A m Z h t l K c e 5 5 4 > : > 7 l -.S.!.T.!.}.}.'.T.Z.c.c.[.{.T.S.g.b.l.c.S.oXXX[.{.%X}.S.l.l.y.} } *.#.} ^ } [ ^ ` 5.$.1.' ",
"c ~ A A m h g n t < > > = & + # O # $ < s K @.C.S.E.T.!.l.j.l.!.T.I.l.j.y.d.l.!.}.XX}.OX{._.M.p./ B f d s d d d s f n C U ` [ ' ",
"B ~ A m m h m M y t B P &.P d < & % & & > 7 l K *.c.c.S.j.y.h.l.S.j.5.2.6.0.j.T.}.^.T.S.a.^ c r > = + o o $ : : < 7 r t f l M R ",
"G [ m m Z Z W { ^ } #.s.M.H.M.m.&.G r 8 t 8 t l C 2.5.u.g.h.6.j.j.j.#.[ | 6.2.j.S.S.#.B 7 : $ o . . . . . X o + & : > , 3 7 3 7 ",
"P ( S Z A A @.[ 1.#.5.2.j.l.l.s.s.5.` R K n l n C ^ w.0.l.f.f.y.h.y.[ W ( ^ ) } 5.^ y < = $ X X X X X # & > < > > > > < < , > < ",
"G ) ( Q U ! 5.2.' o.[ ' C ^ } p.@.2.^ C l f l C Y ' o.g.h.f.d.c.t.h.( M n V V Y M f , : + $ o $ + : 7 d B / K M d d t r 7 3 ; 3 ",
"c I ` C Y U r.h.| ` M 8 R C.H.T.!.c.y.#.Y f 8 y Y ` t.h.u.0.w.t.h.f.` y f f l l y 6 ; - @ @ : < 9 x K ^ *.#.*.} ` ` R K V y r 9 ",
"H P K / K / @.j.5.Y 6 J M.H.m.5.} ) G J D n 8 6 f U ( r.u.j.$.e.f.f.E l y y t t 8 6 - - - , ; 7 y n f n n B l M B R K Q Q R B l ",
"I P I I I ) ) w.y.M 8 ) ,.G 7 & # X . . # : , 6 y n U | n.c.f.r.h.t.E M n f 8 6 , ; - - > = - < f V Y C V l t 9 7 , 6 y M C J l ",
"I I &.&.I *.} e.t.C y G 4 X       O       . X = < y M [ h.}.S.B.y.d.[ Y l y 8 1 - - = @ o + , N D B l l f l f f 8 < @ @ < l M B ",
"&.&.-.I &.s.^ C U l 6 = .   . . O O     . . # X o = n Q c.OXXX^.I.c.t.Y f 6 1 ; - @ o X + < > o O .     . . $ + = = = $ $ 3 C Y ",
"&.;.&.&.-.M.K f t ; @ , 3 > < < > : # O # % : & + + 6 | n.3X3X-XXX'.y.U 8 1 , - @ + X X @ $ o . O .       .           . X + r B ",
"-.&.I &.-.s.d.#.#.Q U Y l.d.2.5.#.G c B J l f r s n ( c.}.9XuXqX6X}.*.l 6 1 1 - - ; = = < 7 r r 4 & # # % & & $ # % X X X o , 1 ",
"-.-.&.&.I } } c.c.S.f.` ' e.t.h.f.5.^ Q A A A ( ' ( 6.!._.7XuXuX4XoX..g 1 1 0 8 8 Y ^ ' ` 1.} 5.#.E n l l U M f 8 9 1 7 , 8 8 1 ",
":.-.-.-.=.@.#.f.E.E.Q.I.f.[ ( Y A A A A A Z m n y m S.oX:X9XrXrX4X!.*.g 6 6 g U Q ' 6...' U Q } 2.' A m m h g g m A ( ! Z t ; y ",
",.a.-.-.-.p.#.h.E.oX[.OX^.f.m f g h h g t 0 1 8 E XX%X:X7X9X7X7X%XB.E n y h g U 6.f.0.z.e.' g g g h y y q t y n B m y 1 - - 8 E ",
"a.a.-.-.p.5.5.c.^.^.oX*X:X%XT.j.( h t 8 t g Q H.9X4X3X4XqX6X7X@X{.5.m m Z A Q W 2.f.f.h.E.S.j.E n 8 1 1 1 ; - - - - - ; y [ | ' ",
"-.:.-.=.=.*.0.I.I.|.{.6X5X7X:XoX}.!.T.!._.-X4X6X4X7X:XqXrXqX6X-Xl.[ m m A [ 6.z.u.c.t.z.c.}.}.oX_.}.c.d.} } Q R U Q | z.h.f.8.0.",
"a.p.p.:.a.a.h.B.I.{.-X9XqXrX7X%X}.'.}.%X3X7X7X>X7X9X9XqXuX9X7XoXd.Q m m A ! o.6.0.6.h.z.c.E.'.!.^.oXoXXX+XoX}.'.E.T.B.c.j.c.t.2.",
"k.s.=.a.l.M.y.I.{.%X@XqXuXuX7X7X|.{.T.:X9X7X%X:X9XrX7XuXuXqXXXE.y.[ m m Z m h h h m Z o.B.{.T.}.^.oXXX%X>X*X(.'.'.!.z.u.f.h.7.0.",
"k.d.p.a.s.d.n.Q.XX-X:XqXuXuXqX;X%XOX-X3XqX9X>X:X9XqXrXsXsX4XoXS.c.7.' A m g y y y 6 , 8 ( c.'.).{.oX:X-X:X>XoX{.oX^.n.h.h.6.7.0.",
"w.p.4.d.=.d.n.}.'.:X>XqXrXuXrX9X4X3X-X4X4X3X3X3X:XqXuXsXuX3X^.T.b.c.z.t.Z g h ! Q m 0 ; , n 0.Q.Q.oX%X-X-X:XXXXX'.!.B.S.f.u.7.y.",
"w.6.5.*.=.*.c.^.XX%X4X5XqXrXqX7X7X>X6X:X>X{.T.!.:X9XuXuXrX-X|.I.I.^.I.o.Z g Z o.f.o.A 1 - - 8 Y j.T.XXXX-XXX'.!.^.S.c.c.c.t.t.t.",
"r.r. .6.5.6.0.S.oXOX{.oX%X3XXXXXoX{.S.c.1.A Z S.:XqXrXuXrX4X[.}.oXOX[ m h m A o...! h 8 , , ; 6 n 0.h.R.E.'.S.I.S.B.t.f.i.z.2.3.",
"r.5.@.{ 5.5.h.B.E.(.'.Q.OX{.E.l.j...A g 6 0 ..}.3XqXpXuXuX9X-XXXXXd.g 6 6 8 q 0 8 6 1 1 q y q 8 8 n Q 5.b.B.c.j.d.j.2.6.j.j.y.o.",
"@.*.} *.@.5.h.c.c.I.I.^.I.n.h...m y , - 1 5.-X7X<XuXsXsXdXuX7X%X5.l 1 - + + + + + - ; 6 8 y y y 8 8 y Y [ u.t.h.| 2.5.5.0.j.2.*.",
"o.} *.@.5.5.h.c.B.c.I.n.c.2.! h 8 - @ 1 @.-XqXrXqXuXdXsXsXrX7XC.n , @ + + @ + + @ = - - , 6 6 q y q 6 8 n Q _ ( [ ( ( [ 6.6.) } ",
"1.5.) { 5.r.9.f.h.z.y.t.[ W g 8 - = 9 p.@X9XqXrXrXuXuX9X<X-Xs.C 1 - + + + + o o + + + = - - - 1 1 1 ; ; 1 f V ( W Q C E ^ ` K Q ",
"} ) ` ` } 7.2.2.6.8.2.' A g 1 ; - 6 Q S.5X5XqX9X7X4X:XJ.l.) f 1 - + + o + + + + + @ @ @ @ + @ - - - = = : : 8 J #.` A Y E Q Y R ",
"Q ) Q ) ` { [ [ ' ..[ ! g 8 ; - , J #._.@XXXJ.H.l.S.I.E.5.n , ; - ; - - = = = = = - - > @ @ @ = - : = + + + @ 7 V [ Q E T Q C E ",
"Q R Q R Q Q ' _ [ ' ' m y , - - l E 5.s.} M J } 2.} [ #.^ y ; 1 y C f , ; ; - - - - ; < : - : = ; > : = + + + + , l ( W Q Y U Q ",
"Y R D K R ' W [ [ ( A h 8 , - 1 Y K / R p 8 t V Y V t t 1 = @ 1 n ^ M y 8 , - - - - - ; ; ; - - < , ; < < : + $ @ ; p Y W Q U } ",
"B c B B J E [ | | ' U y t , ; 8 B l B y 8 8 8 y M l 6 7 ; - f *.0.' W m h 0 1 ; , , 1 1 1 , 1 ; 1 1 1 , 3 < + + + = ; n Q ` ` } ",
"l x l B l K ` 6...[ C y t 6 ; 8 n x l r 7 8 t f f n 8 t 8 f 1.I.n.8.Q Q m h q 0 6 y g y y q 0 6 1 8 8 1 1 3 : & + = = y W #.5.a.",
"d x x x B R @.5.8.1.E t y y 1 t J f s r r r f n n m n V Q ~ ~ 2.0.6.[ ! Z m N g g y y h h g q 6 6 8 1 , , , > = @ = - 6 Q #.5.5.",
"f x d x c K } d.l.C.` f y V t y / r ; , 7 1 , 6 y h m Q Q Q A W Q Q h N g g 0 8 0 8 1 1 1 - = - - - + + + + + - , t 9 9 ( 6.#.} ",
"d x f x c J } l.B.Z.h.C y M C f K r 1 - = @ = - 6 8 0 0 y g g g g q 6 6 1 1 ; - ; ; - - = @ @ + @ + + + = = - t C ( n t ' o.) / ",
"d c x G x B } L.M.Q.S.w.l f Q C B B t p t t t g y g g g a a y a y f f N f N f N f a 0 8 8 8 8 8 8 0 q 0 1 8 n | 2.2.M V ( 1.Q K ",
"x G P G c c / d.S.T.Q.l./ t J } Q E C U U C m g Z ! +.O.^ W W ^ } %.^ W C D B N j a g a a q g y y 0 q q g Z 0.t.| E n ' 6.} K c ",
"K I I I P K J } H.}.S.I.d.V p @.[ Q V Q ^ ` Z h m ^ V D R ^ D C F ^ D D N d 9 9 7 r 6 9 8 y 6 q q q 6 g Q n.h.1.' V n #.5.^ l f ",
"P I I &.&.P J ) S.I.Z.S.S.) y B #.W W Q ( ( Y n f t 8 9 r d r r r 9 9 9 9 3 < < < < < < 7 r r 8 y t y A c.T.d.} Q f M [ ` M f f ",
"H &.-.-.&.&.I K P s.N.A.l.z.B l ^ *.( ' Q Q U M y t 7 9 9 9 s s e e 9 r 7 7 < < > > > 4 3 7 9 t t y m 2.l.l.w.#.n y E ` V f x B ",
"P -.-.&.-.&.I P P / @.p.l.y.U t K 2.#.' [ ( A h g y 8 t t p l f d s r 9 9 7 < < < < < 7 9 9 9 t f V #.j.l.d.y.` f n ^ K d f c / ",
"&.:.&.-.-.-.P c d e K =.} p.^ l B 2.| 6.~ [ m n f f y f M Y M M M l e 9 9 9 3 < < 7 7 t f f f f C d.d.l.N.l.5.V n ( K l s x l K ",
"&.:.-.-.:.&.J w 4 > d P } } y.` Q ` 6.o.[ ' V h m n B [ r.2.' ~ R B f r r 9 9 9 s l B B R C K Y 6.l.M.s.c.M.) l C U B p x B K n ",
"P :.-.:.-.&.d 4 > * 5 d G 5.S.I.j.#.e.2.( [ m m C ( #.n.u.h.r.r.*.w.&./ J K K ) ) } } *.) ) ^ *.g.l.g.M.a.@.V Y C V f x M K K ) ",
"J -.:.-.-.P i > * 2 < 4 f a.T.XX'.8.0.j.6.( ( [ 6.j.L.S.c.y.7.w.d.a.a.p.p.a.a.a.s.y.#.) } ) #.y.a.a.s.s.p.J V U C l l G K K ` / ",
"b &.I &.I G w 2 * * * * w :.J.$X-XM.6.B.d.t.} h.B.U.N.N.S.V.d.l.D.D.a.s.H.D.m.M.M.w.] ) } y.5.w.p.a.s.w.} Q V J l l c l J ) } =.",
"z P I I I x 4 & * * & * w I J.-X:XT.6.f.r.2.6.l.}.}.'.H._.S.s.C./.D.S.H.>XJ.s.a.s.@. .` *.2.2.#.p.a.p.@.@./ B s r x J c K / 5.a.",
"w G P I H x * % & & & 2 w P @X5XXX^.y.j.0.6.*.c.C.!..XXX[.+XH.XXH..XH.J._.D.} d.a.5.) ` ` } #.w.p.s.=.p.^ K f r 7 f B J B ) =.=.",
"w z H I b e & # % & * * 5 G 4X6X.XB.d.0.y.6.j.l.C.S.E._.{.).J..XJ.M.D.s.S.d.r.5.5.Q ^ ) } 5.d.d.M.a.&.K G c x e 7 7 s B K K z r ",
"5 w b b x w % # # % % * 4 B >X9XXXS.{ 8.l.}.L.Q.U.~.l.B.S.V.d.s.j.d.p.d.d.y.[  .` { K 4.5.l.c.(.P.a.G d z G i e > : 3 r r 7 3 4 ",
"% & 4 4 k 4 & O # # % : 3 c <X9X@Xp.w.S.,X:X+X`._.Q.S.l.I.k.d.5.8.#.[ _ ' | ' ^ } *.5.^ w.C././.T.) l e w w 4 5 * % = > > < < 4 ",
"O O # * 4 4 * O # # % : < K ,XrX>.F..X5X:X8X4X7XXX+X{.OXE.Y.A.L.l.j.' Q Y Q Q [ 7.y.y.5.S.].XX[.&.G k d 2 4 * 4 & O : 3 3 9 3 i ",
"O O O % * 2 * O O O % : s N.4XtXuXpXuXrXrXuXsXaXuX8XqX9X9X-X X{.oX).j.R R Q _ ] 5.r.A.I.|. XJ.&.G d w e 2 > & & # O > 7 r d f x ",
". . . # % * & # . O $ < @.XX4XuXaXsXiXuXuXaXiXsXsXsXeXuXiXtX:X:X>X6X.Xm.&.K D #.l.T.D..X:XJ.I G c w * * & & O O O # & < 9 r r d ",
". . . O # & % # . X # d a.&X9X0XiXiXiX0XwXwXwXwXyXyXwXwXwXwX1X1X2X1X1X1X1X<.I :.F.G.J.J.=X<.b v x w * & & # O O # # % * 5 5 w u "
};
