/* XPM */
static char *out[] = {
/* columns rows colors chars-per-pixel */
"64 64 209 2 ",
"   c #2B1608",
".  c #4A2415",
"X  c #5C2C1A",
"o  c #68321E",
"O  c #583F2A",
"+  c #763A24",
"@  c #7E3D26",
"#  c #63432F",
"$  c #6E402D",
"%  c #6A4D37",
"&  c #77523D",
"*  c #7F5D46",
"=  c #814A35",
"-  c #8E4B34",
";  c #96523A",
":  c #865540",
">  c #8C5D46",
",  c #9D5943",
"<  c #955F49",
"1  c #A45E45",
"2  c #89664F",
"3  c #9B644E",
"4  c #916A53",
"5  c #9A6F56",
"6  c #AB644A",
"7  c #A16851",
"8  c #AD6D51",
"9  c #A86D58",
"0  c #B36A51",
"q  c #B76F53",
"w  c #A1765D",
"e  c #A7755C",
"r  c #AE755B",
"t  c #B4715D",
"y  c #B97658",
"u  c #A87B63",
"i  c #AE7D64",
"p  c #B77764",
"a  c #BD7564",
"s  c #B27861",
"d  c #B47F64",
"f  c #BB7E63",
"g  c #C1785B",
"h  c #C87E61",
"j  c #C07B6B",
"k  c #AC836B",
"l  c #BE8466",
"z  c #B3876E",
"x  c #BA876A",
"c  c #BF8B6C",
"v  c #B78C72",
"b  c #BC8E72",
"n  c #C38264",
"m  c #CC8566",
"M  c #C78568",
"N  c #C4816F",
"B  c #C48A6C",
"V  c #CC8C6D",
"C  c #CC8C6E",
"Z  c #D18969",
"A  c #D48C6E",
"S  c #D88F6F",
"D  c #C88973",
"F  c #D38E7E",
"G  c #C39072",
"H  c #C69677",
"J  c #C89172",
"K  c #CC9475",
"L  c #C5987F",
"P  c #CA997A",
"I  c #CF9C7E",
"U  c #D19071",
"Y  c #D09072",
"T  c #D29172",
"R  c #D09273",
"E  c #D39273",
"W  c #D49374",
"Q  c #D59475",
"!  c #DA9472",
"~  c #DD9876",
"^  c #D79778",
"/  c #D1967C",
"(  c #D89778",
")  c #D59A7B",
"_  c #D99878",
"`  c #D9997A",
"'  c #DB9A7A",
"]  c #DA9A7B",
"[  c #DC9B7B",
"{  c #DB9C7D",
"}  c #DA9D7E",
"|  c #DE9D7D",
" . c #DC9D7E",
".. c #DD9D7E",
"X. c #E09E7D",
"o. c #E29F7D",
"O. c #E2A07F",
"+. c #DD9E80",
"@. c #DE9F80",
"#. c #DD9986",
"$. c #D4A082",
"%. c #DFA081",
"&. c #D8A485",
"*. c #DCA88A",
"=. c #DFAB8E",
"-. c #DFAF94",
";. c #E0A081",
":. c #E2A181",
">. c #E0A182",
",. c #E1A283",
"<. c #E3A282",
"1. c #E4A382",
"2. c #E4A383",
"3. c #E5A483",
"4. c #E6A483",
"5. c #E5A484",
"6. c #E6A584",
"7. c #E6A585",
"8. c #E7A685",
"9. c #E7A686",
"0. c #E8A787",
"q. c #E9A887",
"w. c #E0A58A",
"e. c #E3AC8D",
"r. c #E7AD8F",
"t. c #E8A888",
"y. c #E9A888",
"u. c #E9A989",
"i. c #EAA989",
"p. c #EAAA8A",
"a. c #EBAB8B",
"s. c #EBAC8C",
"d. c #EBAE8F",
"f. c #ECAC8C",
"g. c #ECAD8D",
"h. c #EDAE8E",
"j. c #EDAE8F",
"k. c #EDAF90",
"l. c #EEAF90",
"z. c #E4B195",
"x. c #E9B193",
"c. c #EFB090",
"v. c #EDB192",
"b. c #EFB192",
"n. c #EFB293",
"m. c #ECB496",
"M. c #E1B49A",
"N. c #E6B599",
"B. c #EAB79A",
"V. c #EEB899",
"C. c #EEBC9E",
"Z. c #F0B394",
"A. c #F0B495",
"S. c #F1B495",
"D. c #F0B496",
"F. c #F1B596",
"G. c #F1B597",
"H. c #F2B697",
"J. c #F2B698",
"K. c #F2B798",
"L. c #F2B799",
"P. c #F2B89A",
"I. c #F3B89A",
"U. c #F3B99B",
"Y. c #F4B99B",
"T. c #F4BA9C",
"R. c #F4BB9C",
"E. c #F4BB9D",
"W. c #F5BB9D",
"Q. c #F5BC9D",
"!. c #F5BC9E",
"~. c #F5BD9E",
"^. c #F5BD9F",
"/. c #F5BE9F",
"(. c #F1BFA1",
"). c #F5BEA0",
"_. c #F6BEA0",
"`. c #F6BFA0",
"'. c #F6C0A1",
"]. c #F6C0A2",
"[. c #F6C2A3",
"{. c #F7C2A3",
"}. c #F6C3A4",
"|. c #F2C4A5",
" X c #F7C5A6",
".X c #F7C6A7",
"XX c #F7C7A8",
"oX c #F0CBAD",
"OX c #F4CDAE",
"+X c #F8C8A9",
"@X c #F8C9AA",
"#X c #F8CAAB",
"$X c #F8CBAC",
"%X c #F8CCAD",
"&X c #F8CDAE",
"*X c #F9CEAF",
"=X c #EECEB0",
"-X c #F3D1B3",
";X c #F7D1B2",
":X c #F0D4B6",
">X c #F6D4B6",
",X c #FAD3B4",
"<X c #FAD7B8",
"1X c #F1D8B9",
"2X c #F7D8BA",
"3X c #F5DBBB",
"4X c #FADDBE",
"5X c #F6DDC0",
"6X c #F9E1C3",
/* pixels */
"*.r.) +./ P c z G $.*.V.B.].N.z.z.N.z.z.z.N.B.V.V.C.N.C.C.V.N.m.r.N.=.e.w.r.r.r.w.w.%.%.@.2.%.,.` ] { @.] ` W E Y C C T Y T C Y ",
"*.=.) ) I J B z P $.-.B.C.V.B.z.z.z.M.z.z.z.B.B.N.B.N.C.C.B.N.r.x.r.e.e.e.e.r.r.e.w.w.t.p.5.,.%.%.{  . .%.[ ` R T C U Y E T Y C ",
"$.*.P I P P c P *.r.e.K.R.E.z.B.N.V.r.m.V.}.C.~.V.C.V.C.U.U.D.m.x.m.e.d.d.S.t.k.k.k.2.u.p.k.| | :.X._ | %.%.W W Q W V E Q W V A ",
"$.*.P P P $.P $.z.m.m.V.~.U.B.V.U.~.V.U.[. XR.`.}.].R.R.'.R.K.V.P.V.n.v.D.b.x.r.c.j.t.i.g.3.X.' | ' _ ' X...Q Y Q U A Z T U V C ",
"P *.$.*.*.x.x.V.I.V.I.E.Y.].~.'.).}.[. X[.[._.].E.'.E.].E.R.F.H.S.H.n.H.j.b.d.k.t.i.8.i.3.%.' [ ( { _ :.{ [ W T C Y Z A Z A m Z ",
") *.x.D.I.I.R.H.].I._.).].'.).~.'.`.}.`.'.~.'.`.`.`.`.).!.K.I.S.P.G.H.c.s.t.p.i.p.8.1.1.t.| ' ' ' ` { @.%.{ W C Y V Z Z Z m m m ",
"p.D.v.D.H.I.D.~.].].T.`.`.'.T.H.'.].R.'.'.[._.).'.{.C.C.K.H.v.F.H.I.n.n.b.a.1.9.8.p.%.p.t.3._ X.+.%. .%.%.[ V Y Y A m Z m m h h ",
"p.j.c.v.D.I.F.H.].`.T._.'.].).D.).Y.V.'.[.].D.H.R.R.I.K.~.H.b.n.U.H.n.j.n.b.t.6.t.8.2.t.s.y.,.| ,.;.%. .;.' U m Z m h h m M g g ",
"/ Q Y ) %.H.K.E.F.!.R._.^.[.[.I.Z.I.R.~.'.[.D.Y.n.P.H.U.P.U.I. XY.E.D.J.s.s.s.i.2.t.9.u.8.i.2.%.{ @.| %. .+.W Z n h g h g g g g ",
"> * & & * u $.e.x.v.D.I.'.~.].D.K.v.I.Y.}.).n.Z.c.c.R.Y._.]. X[.~.D.P.v.r.,.%.+.,.{ Q Q ] Q ` ) { {  .{ %.' U m n f f a g g g y ",
"& $ X X # $ = 7 c ) 5.v.I.^.H.D.H.n.H.Y.I.I.t.r.s.k.m.Y.}. X).].C.m.*.I c x e r r y 9 r d M l V C Q W ( ] ..m M n f t y f g q y ",
"L z 4 * * * = : 1 f C +.v.D.v.j.j.p.n.H.R.v.8.t.p.p.n.S.'.].m.+.B e 3 = & $ o X $ + = : 3 r r r r t n C W W M n n f y y g a y y ",
"x.V.z.*.J B d r 8 y n T  .j.k.v.n.k.p.n.j.c.%.7.<.7.s.b.k.%.x 7 = $ X X . . . . X # $ & @ = : > ; , , 9 t f n l y f y g y g y y ",
"r.x.r.e.=.) / B V M m C ` 8.j.j.k.j.c.s.s.3.Q U ( Q  .,.` y 3 = $ o X X X X $ = 4 e 9 3 < < < : : : > < < < < 9 t t t 0 q 0 q q ",
"Q ,.@.,.%. .C M n M C ( [ 0.0.s.a.j.8.s.j.3.n M M V B B f 1 - @ $ + + = < r l I +.,./ C B c s r 7 3 < < , < : : 1 8 6 8 6 8 1 6 ",
"V.~.R.B.H.t.%.W M y y m | 3.p.t.g.i.t.9.l.:.n y l n n y 8 , - - - ; , t n K Q ) @. .} ( ^ ` / Q Y f r 9 3 > : : < 1 1 1 6 6 1 1 ",
"V.z./ J x x l c f y 8 y m | 0.n.p.a.i.i.i.:.Y n y y y t 6 < ; ; ; < , t f n n f y y t y y n Y W C R M f 9 7 ; ; ; 1 6 0 8 q 0 0 ",
"x = X . .   . X + < 6 8 n U O.s.D.j.s.p.p.:.Q V M y 8 3 , ; ; = @ - 8 B +.,.,.) T M l t , - ; t n B M f f y 9 9 y t 0 q q q t q ",
".     . %         X + ; t Y W 0.R.I.j.n.v.h.Q V n t 1 < - - + X = r 9 5 7 3 > > 7 e 7 r r 3 $ $ 9 B B V M n y l f y q g h M g h ",
". . O # # .     . # X o @ y W :.`.$X).U.T.S.{ n 8 1 , ; - @ X o > @ X   O         . . . X X # X + f Q M f g f y n g g g n g g g ",
"> < 4 4 * % # # & 4 = + $ - [ s.`.,X*X$X].D. .y , 1 , - - @ X $ $ @ = # O . . . . . .     .   . X ; 8 1 8 g n M n n g n h h h Z ",
"r.s.t.,./ K K C C m f t f M j.H. X,X2X;X].s.U 8 1 6 6 , y y t y V Y ) J d 9 3 2 5 9 7 < < : + o = 1 1 y Q | %.8.8.Y n g y y y y ",
"7.s.7.0.:.+.R T Q ! A ' ~ O.j.~.$X2X<X&X~.r.M 6 1 q h n T 8.O.| X.2.{ 3.;.' Z A Q Q h g g n g m m 8 , n C U Y Q C y 1 6 8 t 8 t ",
"o.Q A A Q Q Z T S A n g n 8.I.}.*X*X*X XR.3.M 0 q g V { 8.8.0.1.[ Y m A Q A m g q q g m ' Q m q ; ; n [ :.T y 6 8 t y f n c l l ",
"O.A g g n m h g 0 6 8 m x.+X X*X X&X#X~.j.[ m h h A Z [ 8.a.i.n.p.2.U t 6 6 8 6 6 8 6 8 , ; - - 6 C W [ | ;.' n n n f l d l f f ",
"].b.0.Q h q t t y Y v. X$X+X%X&X+X@X+XH.3.A m A Q ~ ~ O.p.t.h.p.H.b.I.v.e.] Y n y 8 6 6 8 y V X.p.3.:.Q W [ 1.X.[ n r s s s s s ",
"#X XH.~.R.~.H.R.}.@X}.}.#X&X+X$X&X*XR.j.| A m Q ~ 8.3.p.j.s.6.v.D.I.k.P.E.].].].].R.v.H.I.I.j.h.h.f.{ | W W [ 8.7.V r y d f y s ",
"*X&X}.].].`.}.+X&X@X}. X$X&X@X,X,X+XI.8.~ Z Z Z ! ~ O.| 3.i.p.j.H.H.H.V.).R.}.}.'.].E.I.R.K.j.0.s.s.8.X.X.Y Q :.0.Y n n M n l l ",
",X,X&X].R.].+X&X$X#X X#X*X,X,X;X$X].D.p.' Q Z A g m g g y g A <.n.S.H._.T.+X+X@X X X).^.!.Y.n.p.3.y.3.9.o.[ T X. .W c B M M M M ",
"2X,X,X X].+X$X&X$XXX#XXX*X,X6X2X$XR.H.s.i.:.! h g g h h g 1 , t ' j.~.T.E.].[. X+X+X X[.!.I.Z.8.s.0.2.q.4.O.Q W :.Q C V V M D V ",
"2X2X;X&X}.&X].@X*X;X X+X*X2X2X4X@X`.j.n.j.k.O.A h m ' 3.~ A 1 - 1 M  .c.H.T.`. X+X+X'..XI.Y.p.h.g.f.1.8.8.8.Q W %.` B C C R M J ",
"<X2X$X+X*X@X{.].~.H.H.E.*X,X2X,X&X~.H.c.H.S.~ Z m Q 8.s.8.' g ; ; , t U s.n.Z.!.].}.D.K.H.v.j.s.g.p.8.2.3.1.o.( ` T C V C C V V ",
"}.#XR.}.H.I.j.3.V A r. X$X2X,X,X}.].E.).D.^ h g h ! ~ ~ A h 0 6 6 6 1 8 m 3.u.S.b.H.K.j.b.Z.h.g.9.y.i.i.:.3.%.| U Q C C C Y Y R ",
"I.H.j.0.O.Q h 6 6 Q ~.+X,X2X2X2X,X+X[.I.:.y 6 6 1 , , ; ; , 1 8 y y y q q M [ 2.a.a.k.8.s.f.i.p.9.3.8.%.3.<.,.` T C C Y Y Y C C ",
"j.p.! A g 6 - , ) }.}.$X2X6X6X6X4X*XC. .y , + $ $ + $ + - , , 6 0 q q y g y y U X.1.o.8.t.a.O.3.1.8.` X.2.1.^ ) R C M M C Y M V ",
":.! m q , - 1 ] ].&X*X*X6X6X6X2X,X X5.t , + $ + @ + $ + - - - - , 1 6 q g q 8 8 M W Q ^ [ [ [ [ X.X.Q Q { Q / T Q R C V Y C V V ",
"A h 8 ; @ 6 { R.}.*X,X,X;X<X&X Xm.0.f , @ + + + + + + + @ @ = - = - ; , , , ; , , g Y _ W ^ T ^ Q ( Q ( Y C C R Y E V R C C Z A ",
"n q , - , C r. X@XXX*X@X`.].C.5.C t , - + + + + @ + @ = - = : @ + + @ - - - = = = = r T  .^ ^ W E E W R K l C K ) / C V C A Y A ",
"t 6 - ; f { e.~.C.V.x.j.p.j.r.5.C 1 ; , 9 6 - ; - - - - ; < ; = = = = - - - + + + = + 7 C | ^ W Q ^ C R K c f Q ` { m C A A m A ",
"8 , - 1 Y ) e.%.C c Q ` ` T C M t ; , f Q M 6 1 , ; - - ; ; < - ; ; - - < - : = & + + + 3 n T Q Q W W T ^ B l C Q / V Z A Z m Z ",
"1 ; ; f B Y ) f 8 t n V n y 8 , @ - t U Q W m f 6 , ; ; ; ; ; , - ; ; ; , 1 1 3 3 : + @ + < f T A T '  .) K l K R E m Z m Z m Z ",
"6 ; ; f n B c r 8 6 t y l 8 8 , , m j.j.3.' ! Z y 6 1 , 8 q 8 0 8 6 1 1 6 8 6 6 7 ; = + + = ; n W W {  .,.I c K / W V m Z A A Z ",
"q 6 ; f B B d 9 9 8 t f m n t g V :.0.c.p.p.! A Z h q g h A m m m h 0 0 q y 0 8 6 1 - = = : - 8 T [ ` %.7.+.c J K / m Z A S Z A ",
"q 8 , d B d 9 9 9 r y y M M Y ( ^ Q ! [ 3.:.' A Q m m m Z m h h h q 8 6 0 8 1 , 6 1 ; : : : < , C ` %.%.w.) G c / K V M U A Z Z ",
"6 f t f B 9 ; < - - - 1 0 g h m h m Z m h h q q 6 1 , 1 , , , , - - - - - = @ @ + @ = - 3 r t 1 V X. .,.) / G J G K M m M M M D ",
"t y B l M r < = + @ - ; , , , ; , 6 6 6 6 , , ; ; - - - ; - - - @ @ @ @ = @ = - - - ; 8 B Q R y W +.X.] ) K c G P J B B M B B B ",
"B y l C n n r 8 8 t y y g g q y g y 0 0 t y p j j N f N j a q t 0 q 0 0 q y 0 0 0 8 q ' 3.o.Q g W X.[ ` K B x G P K n B B B n B ",
"5.n 8 K / C l M Y Z n m ! ~ %.#.#.@.%.%.5.5.%.#.#.W F N N N N a a p y y g y 0 0 g h ' s.8.| U h { %.{ R C c x c G G M B C V M M ",
"e.^ t x Q R V C V Q m Z ]  .) { ' #.@.%.{ ,.` Y j N j p 9 p t 8 8 t 0 q 8 0 6 q h X.p.c.%.| M Y +.,.Q B l l x l f l B C C R J Y ",
"e.e.C s K ^ C V W A A h M V n n C B N l n l l p 7 7 3 < 3 3 3 < 3 9 9 8 0 q 8 g ( s.n.0.%.' n C +.{ K f d d c x x B B K ) / K ^ ",
"*.x.+.n d ] W Q ( ( Y m g y 7 9 9 9 3 9 9 s 9 9 3 < : > > < < < 3 9 3 8 r t y U 5.D.5.,.7.{ y U ( ' n s s f s d c K B ) / K B M ",
"*.*.e.) l B ) { [ _ Q Z m y t 8 t 8 y f n f r r 9 3 > > > > < 3 9 9 8 t f l V 3.v.j.t.5.g.U n Q ^ C f r d f s x J P I P J B B B ",
"P $.&.*.K B B :.` | ! Q n t t t t M V C M B f d r 9 3 7 < 7 9 d d B M V B Y +.v.r.d.r.d.t.M M ( W U y s d c l G J P I ) / ) P K ",
"P $.&.$.J B R Q | o.~ ! A y y y m 3.p.,.,.| Q C c l s d n c R ) %.,.%. .{ ` 5.r.d.r.r.t.5.M Y W Q B r r l c I J G J K / } } ) K ",
"b $.I $.c z G K | j.X.~ ' Z g m :.H.k.k.,.:.[ ,.5.e.+.,.e.x.r.m.v.x.,.,.]  .,.t.d.r.w.e.,.R U ( Q l r r r 7 d P B G c I } e.%.$.",
"z P I P G u 5 s K j.s.O.1.X.Q W r.H.n.k.b.t.3.t.j.x.x.r.C.C.B.x.V.m.+.` +.,.,.,.t.w.w.w.5.+.( [ ^ f c x u e r l J J G P } w.w.e.",
"w G P P c w & 2 e ) r.m.p.j.i.8.8.I.I.K.H.P.D.A.x.C.V.C.].}.}.~.x.r.+.+.` }  .,. .w.w.e.e.,.+.+.Y f x z u e e r x K J I $.$.$.) ",
"w z P P x 5 & & * e ) D.C.c.0.0.i.r.v.D.R.E.).Y.~.].E.~.'.}.}.x.+.} e.5.+.[ ` ` +.+.2.r.v.e.e.} K s x c d i d 3 7 r B P P x u w ",
"5 w v b d 4 # % & * e $.].].s.a.u.u.3.v.A.!.K.~.D.I.x.U.^.C.x.t.p.t.>.2.X.[ E %.%.5.7.d.P.U.5.} J u w G z k u 3 & 3 9 r 7 5 4 4 ",
"% * 4 5 u 4 # O # % > 9 z.$X].v.p.2.s.D.Q.Y.G.A.Z.r.t.p.r.5.,.,.7.1.[ ' @.[ { ,.5.+.7.x.R.).e.$.H x 5 w w 5 5 3 & + > : > > < 4 ",
"O O # * 4 4 & O # # * 3 B @X*Xe.&.C.[.$X.X}.~.].I.U.A.L.s.t.2.9._ ^ E Q Q ` +.u.7.+.r.I.W.[.x.) x d d 4 > > 2 2 # % < < 3 w 7 i ",
"O O O % * 2 & O O O & : M ].;X*X2X<X,X,X,X2X2X<X&X&X#X X'.!./.R.m.e.) K W Q ] @.5.r.b.J._./.e.H G w u 4 4 : & % # # < 7 r d f x ",
". . . # % * & # . O $ < +.).@X2X5X6X3X2X2X5X3X6X6X6X>X2X3X<X XXX.X$X(.z.$.J D @.d.G.m.(. XC.I G c w * * & & O O O # & < 9 r r d ",
". . . O # & % # . X # d e.}.&X-X5X5X3X-X:X:X:X:X1X1X:X:X:X:X=XoXOXoXoX=XoX-.I *.N.B.C.C.|.-.b v v w * & & # O O # # % * 5 5 w u "
};
