/* XPM */
static char *out[] = {
/* columns rows colors chars-per-pixel */
"64 64 212 2 ",
"   c #2B1608",
".  c #4A2415",
"X  c #5C2C1A",
"o  c #68321E",
"O  c #583F2A",
"+  c #763A24",
"@  c #7E3D26",
"#  c #63432F",
"$  c #6E402D",
"%  c #6A4D37",
"&  c #77523D",
"*  c #7F5D46",
"=  c #814A35",
"-  c #8E4B34",
";  c #96523A",
":  c #865540",
">  c #8C5D46",
",  c #9D5943",
"<  c #955F49",
"1  c #A45E45",
"2  c #89664F",
"3  c #9B644E",
"4  c #916A53",
"5  c #9A6F56",
"6  c #AB644A",
"7  c #A16851",
"8  c #AD6D51",
"9  c #A86D58",
"0  c #B36A51",
"q  c #B76F53",
"w  c #A1765D",
"e  c #A7755C",
"r  c #AE755B",
"t  c #B4715D",
"y  c #B97658",
"u  c #A87B63",
"i  c #AE7D64",
"p  c #B77764",
"a  c #BD7564",
"s  c #B27861",
"d  c #B47F64",
"f  c #BB7E63",
"g  c #C1785B",
"h  c #C87E61",
"j  c #C07B6B",
"k  c #AC836B",
"l  c #BE8466",
"z  c #B3876E",
"x  c #BA876A",
"c  c #BF8B6C",
"v  c #B78C72",
"b  c #BC8E72",
"n  c #C38264",
"m  c #CC8566",
"M  c #C78568",
"N  c #C48A6C",
"B  c #CC8C6D",
"V  c #CC8C6E",
"C  c #D18969",
"Z  c #D48C6E",
"A  c #D88F6F",
"S  c #C88973",
"D  c #D38E7E",
"F  c #C39072",
"G  c #C69677",
"H  c #C89172",
"J  c #CC9475",
"K  c #CA997A",
"L  c #CF9C7E",
"P  c #D19071",
"I  c #D09072",
"U  c #D29172",
"Y  c #D09273",
"T  c #D39273",
"R  c #D49374",
"E  c #D59475",
"W  c #DA9472",
"Q  c #DD9876",
"!  c #D79778",
"~  c #D1967C",
"^  c #D89778",
"/  c #D59A7B",
"(  c #D99878",
")  c #D9997A",
"_  c #DB9A7A",
"`  c #DA9A7B",
"'  c #DC9B7B",
"]  c #DB9C7D",
"[  c #DA9D7E",
"{  c #DE9D7D",
"}  c #DC9D7E",
"|  c #DD9D7E",
" . c #E09E7D",
".. c #E2A07F",
"X. c #D89380",
"o. c #D89982",
"O. c #DD9E80",
"+. c #DE9F80",
"@. c #DF9F80",
"#. c #D4A082",
"$. c #DFA081",
"%. c #DCA386",
"&. c #D8A485",
"*. c #D7A88D",
"=. c #DCA88A",
"-. c #DFAB8E",
";. c #DBAB91",
":. c #DFAF94",
">. c #E0A081",
",. c #E3A181",
"<. c #E0A182",
"1. c #E1A283",
"2. c #E3A282",
"3. c #E4A281",
"4. c #E4A382",
"5. c #E4A383",
"6. c #E5A383",
"7. c #E5A483",
"8. c #E6A483",
"9. c #E5A484",
"0. c #E6A585",
"q. c #E7A685",
"w. c #E7A686",
"e. c #E8A786",
"r. c #E8A787",
"t. c #E0A58A",
"y. c #E3AC8D",
"u. c #E7AD8F",
"i. c #E8A888",
"p. c #E9A888",
"a. c #EAA989",
"s. c #EAAA8A",
"d. c #EBAB8B",
"f. c #EBAC8C",
"g. c #EBAE8F",
"h. c #ECAC8C",
"j. c #ECAD8D",
"k. c #EDAD8D",
"l. c #ECAE8F",
"z. c #EEAF8F",
"x. c #EDAF90",
"c. c #E4B195",
"v. c #E9B193",
"b. c #EDB091",
"n. c #EFB090",
"m. c #EEB091",
"M. c #EDB192",
"N. c #EEB192",
"B. c #EFB192",
"V. c #EFB293",
"C. c #ECB496",
"Z. c #E1B49A",
"A. c #E6B599",
"S. c #EAB79A",
"D. c #EEB899",
"F. c #EEBC9E",
"G. c #F0B495",
"H. c #F1B495",
"J. c #F0B496",
"K. c #F1B597",
"L. c #F2B596",
"P. c #F2B698",
"I. c #F2B798",
"U. c #F3B799",
"Y. c #F3B899",
"T. c #F2B89A",
"R. c #F3B89A",
"E. c #F3B99B",
"W. c #F4B99B",
"Q. c #F4BA9C",
"!. c #F4BB9D",
"~. c #F5BB9D",
"^. c #F5BC9E",
"/. c #F5BD9F",
"(. c #F5BE9F",
"). c #F1BFA1",
"_. c #F5BEA0",
"`. c #F6BEA0",
"'. c #F6BFA1",
"]. c #F6C0A1",
"[. c #F6C1A2",
"{. c #F6C2A3",
"}. c #F7C2A3",
"|. c #F6C3A4",
" X c #F7C3A5",
".X c #F2C4A5",
"XX c #F7C4A5",
"oX c #F7C5A6",
"OX c #F7C6A7",
"+X c #F7C7A8",
"@X c #F7C8A9",
"#X c #F0CBAD",
"$X c #F4CDAE",
"%X c #F8C8A9",
"&X c #F8C9AA",
"*X c #F8CAAB",
"=X c #F8CBAC",
"-X c #F8CCAD",
";X c #F8CDAE",
":X c #F9CEAF",
">X c #EECEB0",
",X c #F3D1B3",
"<X c #F0D4B6",
"1X c #F6D4B6",
"2X c #FAD3B4",
"3X c #FAD7B8",
"4X c #F1D8B9",
"5X c #F7D8BA",
"6X c #F5DBBB",
"7X c #FADDBE",
"8X c #F6DDC0",
"9X c #F9E1C3",
/* pixels */
":.N.8.w.` H u k i k K #.#.;.;.c.;.A.c.c.:.A.c.S.c.F.A.F.F.F.c.S.c.F.A.T.J.Y.J.J.g.V.i.n.l.b.f.l.i.i.9.i.5.<.[ ] E ^ E ! ! ^ R E ",
"-.a.h.h.e.! N k k k G L &.;.;.:.c.c.Z.c.c.c.c.:.A.c.A.F.F.S.c.c.A.D.A.A.T.L.Y.J.J.n.l.n.l.n.n.u.h.9.5.1.i.<.} [ ) ) ` ' { ' E T ",
"G {  .,.3.) l k k k b L #.;.&.c.:.S.:.c.c.c.;.c.c.A.c.F.F.S.:.c.A.A.:.c.M.J.j.M.u.n.<.i.y.V.i.w.9.5.} 1.w.1._ ' ` ' R { | { Z Z ",
"v Z A Q A M i i i k b L &.&.;.:.c.c.:.c.S.c.:.;.Z.:.:.c.A.c.:.:.c.c.:.;.:.g.u.y.l.i.9.9.i.i.y.r.y.r.2.2.r.5.+.| { ' ( } >.) U C ",
"b A Z A T C l k k k b #.#.&.*.:.;.c.:.c.:.c.:.:.:.c.:.A.Z.A.c.c.y.c.:.c.y.u.g.C.g.M.g.M.y.l.u.g.i.a.5.r.9.5._ ' ( _ ` { ' E Z Z ",
"H Q Q Q W Z M l k k H L #.&.=.;.c.c.c.:.:.y.c.:.:.c.c.c.A.c.c.c.c.:.A.D.T.P.T.P.P.C.J.j.j.d.d.g.f.s.5.<.8.@.( ( ` ( ` ( ' I Z m ",
"F @.W W { ( C S N H H L &.=.&.;.c.c.c.c.c.c.c.c.A.A.:.A.F.F.c.S.F.[.P.!.W.!.C.T.J.J.j.j.f.s.<.r.r.9.] 4.8.>.T ! _ ` E ' E Z M m ",
"F { E W  .,.E I Y J L #.=.=.=.:.c.A.c.A.F.c.c.A.F.[._.[.oX X_.).[.).T.P.~.R.J.V.J.b.f.i.d.5.2.3.9.>.{ 1.p.@.( ! } ` ! ^ ( C h M ",
"l  .W {  .w.{ ( _ &.=.c.c.A.v.F.F./.).+X[.oX'.[./._.!.[.oX}.].~.P.T.L.P.G.T.B.V.l.M.l.x.s.i.i.w.{ >. .p.w.6._ O.` } ] } T C m M ",
"F  .{ 1.r.q.6.<.9.g.C.C.W.T.Q.Q.[._._.[.oXXX`.^.T.J.Q.`. X'.`.Y.P.M.J.M.P.G.H.L.H.m.B.l.m.f.i.6.w.6.w.r.i.6.5.+.] } ) ( E C n a ",
"F ,.' p.d.g.9.r.d.V.i.l.P.~.H.^.[.}.T./. XoX^.^.J.J.l.^.[.}.T.n.l.V.f.L.Y.W.b.W./.Q.j.M.l.n.1.<.2.5._ O.+.| / ' ) _ E ( E Z g y ",
"F @.>.i.a.i.[ ~ J H F N H &.c.T./.Q.E.E.].].~.W.V.j.d.L.^.U.M.i.f.s.u.J.[._.Q.Q._.!.M.g.y.<.~ H J J N f n N M S E E T E ( B g y ",
") 8.{ ) V n 7 7 > : & & & : 5 F L =.y.L.L.Y.W.U.u.i.f.L.L.H.i.r.1.9.i.P.~.`.W./.E.J.y.#.b e 7 < : < < 3 3 8 t t r f n P V M y a ",
") 9.] M 0 , , , 3 : % o O O $ : < r N o.i.n.H.V.i.5.s.j.V.d.r.>.4.1.p.V.P.L.H.y./ p 7 > + o X X . X o $ = : : < 3 , , 6 8 t y q ",
"/ s.` Y V I Y &.=.&.b e 4 ; : : < 6 t n P 9.9.z.i.a.9.r.w.s.] _ ' | { i.z.i.T p < & o X . . . . O $ + $ = = = : : > : ; ; < ; 6 ",
"| d.{ ( +.<.1.t.M.M.y.=.[ J N f f y f f V ! 1.9.f.i.r.9.r.w.) V P I T E ] B 8 : = o X X X X o = 4 s p 9 7 7 7 3 < : : : > : = ; ",
"<.z.<.+.>.w.>.<.+.>.+.<.] / T V n N n M B ! >.h.5.9.9.p.p.d.P n g n n M n t , - $ $ o + = 3 t F J [ ) o.H S N N f 9 7 7 < > : - ",
"1.l.5.1.3.>.V y Y t.M.D.F.v.i.) M t 0 f T ) 1.p.5.2.5.9.i.r.! y t g f f t 1 - = @ @ : < 8 s N N l n n M N M H T V N f t 7 3 < < ",
") V.r.r.+.V 0 [ D.F.A.S.A.M.o.! V f 6 8 n W ( 8.r.p. .3.9.w.T f y y t 8 9 1 - - ; - = ; 8 f f f y y 8 1 , ; , t n N f f f t 8 y ",
"B d.d.5.E 8 N y.A.=.H i 7 2 = > 3 3 6 6 y m P  .h.h.9.3.s.9.E M n y 8 1 , ; = = @ o = 7 N D D J H x f t e < + $ < f n M N l M h ",
"M ( 3.a.V y S L d * O . .       . o = ; 1 y M ( i.H.j.j.p.w.) V g t 1 , - = + o . : < > $ O O O X O $ & $ & $ o X 7 I P f n f g ",
"] I T I B M f : .   . . O .       . o o + , N E h.Q.[.T.L.j.5.I t 1 , ; = + o . $ + o .   .                   . . $ 8 8 s n I E ",
"J.1.C n 8 - @ = + : : * & O . . O * : $ + @ y  .n.*X*X{.`.~.5.I 6 1 , - @ @ o X $ : < 2 & % O O % & & % $ & o X X = ; 1 N >.{ ! ",
"d.2. .E f t n <.9.o.o.! H d d d f n t 9 t M ! z.Q.*X2X:X=XY.+.f 1 , 1 ; , 8 8 t S E ! _ [ J p t d N S f t 8 9 8 y f , t M f f t ",
"Z ( r.V.g.d.W >.w.r.1.u.1.3.~ E C Z C ( E W p.W./.-X2X2X+XW.>.g 1 , 0 g f E {  .! ! ! 1.>.@.C C m m h g h T T T f ; 1 ( { M 8 f ",
"W ' h.H.L.T.V.6. .' T C Z A Z C Z C C h g T Y./. X:X2X:X+XW.| g 8 6 a V _ >.w.r. .V n n n n g q 0 6 0 g m g 0 - - 6 M I | 1._ E ",
",. .p.L.^.[.W.L. .C g g h Z m h g 0 6 t ) [.oXoX+X:X*X:X XH.P n g n g M { h.w.h.n.d.E M 8 1 , 6 , , - - - - - 0 E 5._ T I { >.| ",
"W 6.n.H.^._.[.`.].f.' m t 6 1 1 6 0 I D.*X*XoX+X:X:X&X+X/.9.C n C T W ( 8.s.i.w.V.P.H.V.L.u.7.~ E M M N ! <.i.r.r.r.O.( I P | ) ",
"A 8.n.P.L.[.oX:X X XQ.Q.l.i.1.i.g._.*X*XoX=X@X2X:X:X2X+XV.O.C m C ( 6.p.w.a.9.a.h.P.L.L.G.Q.Q.^.T./.U.R.V.L.j.j.w.r.9.3.! V ! | ",
"' w.V.L.^.[.%X:X*X=X XQ.~.~.Q.[.+X*X*X*X*X*X:X2X5X2X=X`.z._ C m C Z ( ' {  .6.p.z.H.L.Y.P.T.`._.[.`.].~.W.H.j.w.6.9.9.3.3.E T _ ",
"s.n.l.Y./.+X[.:X2X2X[./.W.W.W.+X*X%XoXXX:X2X-X5X7X3X`.~.j.<.C C C h y y a y q C r.L.H.W.U.^.[. X X+X].`.~.Y.s.i.8.d.3...9.{ I ! ",
"n.l.n.P. X X+X:X5X:X+XW.~./._.+X:X+X[.oX2X2X2X7X9X:X^.J.V.a.3.( C g y g h y 1 , y ! d.L.^.^.^.[.oX].^.^.~.L.j.p.p.w.8.,.q.>.( E ",
"3.a.z.Q.^.+X:X5X5X2X*X+X[.oX=X-X X X[.oXXX:X2X9X7X:X^.L.n.H.n.a.A h g (  .' m 1 - 6 n <.z.Q.^. X~.^.H.Y.P.H.s.s.w.r.6.e.>.6.( T ",
"w.r.s.H.^._.%X:X2X:X:X+X%X=X+X X XW.L.^.+X:X2X7X5X+X/.H.L.Y.P.8.A h C  .p.>.E 0 - - , t T w.n.H.Y.J.V.j.n.a.s.i.w.8.8.q.3.,.] V ",
"w.6.@.n.P.`.W. X XoX[./.'.}.L.n.1.( W P.+X:X:X7X2X:X^.^./.XX5.C g g m W ( A g 8 6 0 1 1 8 V _ r.j.j.w.h.s.s.4.5.9.r. .>.<.1.! P ",
"p.w.8.s.Y.W.W.U.(.~.n.d.d.3.( h q g w.`.*X:X2X5X7X:X X_.oXM.m 8 1 , ; , ; ; , 1 q y y q q q n E >.w.6.,.6.<.@.@.w.3.{ ( ) { Y B ",
"3.w.r.h.h.P.H.U.V.V.8. .C g 1 ; 8 i.oX=XoX2X7X9X9X9X:X+Xl.I 6 - + + + + + = ; 1 1 8 0 y y q 8 y m ! ( ^ E ' E _ { _ ! ! I R R Y ",
"1.6.<...d.j.p.k.w. .E h 0 ; - 8 y.oX:X:X:X2X9X9X9X5X=XQ.~ 9 = + + + + + + @ @ - ; ; , 6 0 6 1 1 8 n I P V T T T R E E T H S T E ",
"' w.( { 3.s.,.>.( C y 6 ; - y u.[.:X=X2X2X3X2X2X+X Xl.] t ; + + + + $ + + @ + = = @ @ - ; ; - ; ; , t P ( W V V V V M V N N I E ",
"E ! E E  .3. .E C a 1 ; - t O.D.*X:X:X2X:X=X X/.D.| M 0 , - + + + + + + = : = : = + + = - - = + = = : t ! _ Y V V V B H I n P I ",
"S T Z ! (  .' T g 6 ; ; 1 P 5.F. X X{.{.T.J.J.H.t.I 6 , - ; ; ; = - = - = - ; , : = = - = : = = $ + $ = 7 V E T V I B / V l J P ",
"M V ^ ( Q Q ' C q , ; , M ! 9.C.y./ / +.<. .O.} ` M 1 ; 8 N N 8 , - - - - - ; ; - - : - ; ; ; ; : = $ + = 1 N I M B Y / Y n Y C ",
"l Y Y ( W { C m 0 1 ; 8 S I / ) n y t V ! I y t 8 - + - f E V n y 1 ; - - ; ; - ; ; - - , 1 ; 3 , : $ $ + = , m I ! J [ J H B C ",
"x H / |  .W C n y 1 ; t M n H f 0 8 8 f M f 9 6 , - ; N { _ T m n 0 1 , , , 8 6 8 6 6 1 6 1 6 , 1 ; = + = = - y T ) %.%.L F I I ",
"d J [ i.8._ n n f 8 1 f n l l s 9 8 8 y f M 0 8 8 8 N s.s.9.( E m g y y 0 q a h g g g 0 6 8 6 1 , 3 : = + - - 8 I [ %.<.H F H S ",
"x c [ y.b.w.M f S f 8 M N f r 9 9 8 y f M M g f M T T (  .>.{ W Z m h h g y q y g a 1 1 1 1 ; - = @ @ = ; 1 1 8 E { | / H F J N ",
"J ~ L u.V.G.E f n Y y l N t ; ; , , ; 1 0 g n C C Z m C C T m h g y 6 1 1 , ; ; ; - = - - @ o + + + - 8 l N t y E +.E J F H H c ",
"K L ~ t.M.L.i.n l Y N f V t , : = @ = ; 6 q q 0 y y q q y 0 6 1 1 , ; - - - - - - - - - - - - ; , 1 8 S _ O.n n ) _ J N F F M F ",
"G #.o.#.l.T.H.%.f N ! P N B f s t t t m h h h m g a t y 0 q p a p j p j j y 0 8 6 1 6 0 6 q 0 t 0 g T >.` +.n T ! / N F l F H P ",
"K &.#.#.t.l.H.i.H y E _ ! P V I V P h M ! E T E D E X.D X.X./ D S n f f a t a t y y t t y y t a C ' w.{ _ B f E ) I x d N H H ~ ",
"#.=.#.&.#.t.i.i.] f f ] _ W B E Z ) M n n M f l H J M D D D S H l s 9 e 9 9 8 9 8 t 0 t t t y C 6.n.2.>.( n n ! T N s f F c J H ",
"#.=.&.#.&.#.F F t.H 8 V { _ W W ' E M f y t 8 8 f f f l n l d s r 7 4 4 7 3 7 7 7 8 8 8 f n V { h.u.<.O.I f N T n s s f F J H N ",
"K =.&.=.#.H 9 9 H H f f ' w. .{ W E M f t y t f f f l N n N f s 8 8 7 7 3 7 7 8 9 8 8 t f V +.j.j.u.y.+.n M I B r r f b F / J / ",
"H #.=.&.&.l 5 * 5 i H M ] d.q.( _ W n g f f n V E I V I V N f r e 9 7 7 7 9 t f f f f l I <.i.i.y.y.y.C M V m f r s l H J J / ~ ",
"b #.L #.L b 5 * > 4 i ~ o.V.6. .2.{ n f g M B <.g.t.! | } / N N f f f x d l n H J J N N ) g.t.t.y.l.E M V T f f x F x c J L [ <.",
"z K L L L z 4 & 2 * 4 F f.C.V.{ @.{ B n C I >.f.V.t.) } [ [ o./ L ~ H L / #.E J / ~ J Y 5.u.9.1.l.t.I V I N e s H F x c J J %.y.",
"w F K L G k * % & & > d =./.Q.f.' w.{ T ( i.J.G.G.l.t.t.5.y.=.t.=.c.c.c.=.&./ Y H Y ! ! { 5.<.y.u.%./ Y H s 7 9 f J H H c J #.&.",
"w z G K b e & % % & > e #. X+XP.8.>.w.6.9.a.Y.W.~.I.C.J.D.D.D.C.A.D.F.c.%.&.<.) ! I ! E <.9.i.g.y.%./ H l i e 9 9 r l F J K x i ",
"5 w v b z w # # % & & 2 l +X*X_.l.d.5.i.d.V.M.P.!.`.C.D.T.[.D.D.v.C.y.t.<.9.) ) ! Y P | 5.l.n.P.s.&.F x F k e e > 3 7 d d 9 4 4 ",
"% & 4 4 k 5 # O # % & > e S.;X[.P.5.$.i.H.W.L.J.P.I.f.i.m.f.i.1.0.p.1.] +._ | ! } | ! +.j.P.G.C.t.J d 9 x e 9 7 * + > > > > < 4 ",
"O O # * 4 4 & O # # & : 7 v.:XoX&.y.Q.+XOX%X[._._.W.H.I.m.g.s.r.1.{ T E I ] E <.<.9.[ f.B.~.Q.j.J x x 5 4 > > 4 & # > < < 9 3 d ",
"O O O % * 2 & O O O % : f (.&X:X5X3X2X2X2X5X5X3X2X;X*XoX+X/.(.!.T.j.[ Y Y E ( +.$.0.B.P.`.(.C.L F e i 5 4 : & * # # < 7 r d f x ",
". . . # % * & # . O $ < O._.&X5X8X9X6X5X5X8X6X9X9X9X1X5X6X3XoX+XOX=X).c.#.H S +.g.K.C.).oXF.L F c w * * & & O O O # & < 9 r r d ",
". . . O # & % # . X # d y.|.:X,X6X6X6X,X<X<X<X<X4X4X<X<X<X<X>X#X$X#X#X>X#X:.L =.A.S.F.F..X:.b v b w * & & # O O # # % * 5 5 w u "
};
