/* XPM */
static char *out[] = {
/* columns rows colors chars-per-pixel */
"64 64 213 2 ",
"   c #2B1608",
".  c #4A2415",
"X  c #5C2C1A",
"o  c #68321E",
"O  c #583F2A",
"+  c #763A24",
"@  c #7E3D26",
"#  c #63432F",
"$  c #6E402D",
"%  c #6A4D37",
"&  c #77523D",
"*  c #7F5D46",
"=  c #814A35",
"-  c #8E4B34",
";  c #96523A",
":  c #865540",
">  c #8C5D46",
",  c #9D5943",
"<  c #955F49",
"1  c #A45E45",
"2  c #89664F",
"3  c #9B644E",
"4  c #916A53",
"5  c #9A6F56",
"6  c #AB644A",
"7  c #A16851",
"8  c #AD6D51",
"9  c #A86D58",
"0  c #B36A51",
"q  c #B76F53",
"w  c #A1765D",
"e  c #A7755C",
"r  c #AE755B",
"t  c #B4715D",
"y  c #B97658",
"u  c #A87B63",
"i  c #AE7D64",
"p  c #B77764",
"a  c #BD7564",
"s  c #B27861",
"d  c #B47F64",
"f  c #BB7E63",
"g  c #C1785B",
"h  c #C87E61",
"j  c #C07B6B",
"k  c #AC836B",
"l  c #BE8466",
"z  c #B3876E",
"x  c #BA876A",
"c  c #BF8B6C",
"v  c #B78C72",
"b  c #BC8E72",
"n  c #C38264",
"m  c #CC8566",
"M  c #C78568",
"N  c #C48A6C",
"B  c #CC8C6D",
"V  c #CC8C6E",
"C  c #D18969",
"Z  c #D48C6E",
"A  c #D88F6F",
"S  c #C88973",
"D  c #CC8A78",
"F  c #D08B78",
"G  c #C39072",
"H  c #C69677",
"J  c #C89172",
"K  c #CC9475",
"L  c #CA997A",
"P  c #CF9C7E",
"I  c #D19071",
"U  c #D09072",
"Y  c #D29172",
"T  c #D09273",
"R  c #D39273",
"E  c #D49374",
"W  c #D59475",
"Q  c #DA9472",
"!  c #DD9876",
"~  c #D79778",
"^  c #D1967C",
"/  c #D89778",
"(  c #D59A7B",
")  c #D99878",
"_  c #D9997A",
"`  c #DB9A7A",
"'  c #DA9A7B",
"]  c #DC9B7B",
"[  c #DB9C7D",
"{  c #DA9D7E",
"}  c #DE9D7D",
"|  c #DC9D7E",
" . c #DD9D7E",
".. c #E09E7D",
"X. c #E29F7D",
"o. c #E2A07F",
"O. c #D89380",
"+. c #D89982",
"@. c #DD9E80",
"#. c #DE9F80",
"$. c #DF9F80",
"%. c #D4A082",
"&. c #DFA081",
"*. c #DCA386",
"=. c #D8A485",
"-. c #DCA88A",
";. c #DFAB8E",
":. c #DBAB91",
">. c #DFAF94",
",. c #E0A081",
"<. c #E3A181",
"1. c #E0A182",
"2. c #E1A283",
"3. c #E3A282",
"4. c #E4A281",
"5. c #E4A382",
"6. c #E4A383",
"7. c #E6A483",
"8. c #E5A484",
"9. c #E6A584",
"0. c #E6A585",
"q. c #E7A685",
"w. c #E7A686",
"e. c #E8A787",
"r. c #E0A58A",
"t. c #E3AC8D",
"y. c #E7AD8F",
"u. c #E8A888",
"i. c #E9A888",
"p. c #EAA989",
"a. c #EAAA8A",
"s. c #EBAB8B",
"d. c #EBAE8F",
"f. c #ECAC8C",
"g. c #ECAD8D",
"h. c #EDAD8D",
"j. c #EDAE8E",
"k. c #ECAE8F",
"l. c #EDAE8F",
"z. c #EEAF8F",
"x. c #E4B195",
"c. c #E9B193",
"v. c #EDB091",
"b. c #EEB090",
"n. c #EEB091",
"m. c #EEB192",
"M. c #EFB192",
"N. c #EFB293",
"B. c #ECB496",
"V. c #E6B599",
"C. c #EAB79A",
"Z. c #EEB899",
"A. c #EEBC9E",
"S. c #F0B394",
"D. c #F0B495",
"F. c #F1B495",
"G. c #F0B496",
"H. c #F1B596",
"J. c #F1B597",
"K. c #F2B697",
"L. c #F2B799",
"P. c #F3B799",
"I. c #F3B899",
"U. c #F2B89A",
"Y. c #F3B99A",
"T. c #F4B99B",
"R. c #F4BA9B",
"E. c #F4BA9C",
"W. c #F4BB9C",
"Q. c #F4BB9D",
"!. c #F5BB9D",
"~. c #F5BC9D",
"^. c #F5BC9E",
"/. c #F5BD9E",
"(. c #F5BD9F",
"). c #F5BE9F",
"_. c #F1BFA1",
"`. c #F5BEA0",
"'. c #F6BEA0",
"]. c #F6BFA0",
"[. c #F6BFA1",
"{. c #F6C0A1",
"}. c #F6C0A2",
"|. c #F6C1A3",
" X c #F7C2A3",
".X c #F6C3A4",
"XX c #F2C4A5",
"oX c #F7C4A5",
"OX c #F7C4A6",
"+X c #F7C5A6",
"@X c #F7C6A7",
"#X c #F0CBAD",
"$X c #F4CDAE",
"%X c #F8C8A9",
"&X c #F8C9AA",
"*X c #F8CAAB",
"=X c #F8CBAC",
"-X c #F8CCAD",
";X c #F8CDAE",
":X c #F9CEAF",
">X c #F3D1B3",
",X c #F7D1B2",
"<X c #F0D4B6",
"1X c #F6D4B6",
"2X c #FAD3B4",
"3X c #FAD7B8",
"4X c #F1D8B9",
"5X c #F7D8BA",
"6X c #F5DBBB",
"7X c #FADDBE",
"8X c #F6DDC0",
"9X c #F9E1C3",
"0X c #FBE5C7",
/* pixels */
">.n.9.7.) J k k u u b %.P =.:.x.>.x.>.x.>.>.x.V.x.V.x.Z.A.A.V.A.x.Z.V.V.B.G.D.G.d.d.y.k.y.n.k.y.r.u.6.u.7.1.' ` W ) W ` ) / W R ",
"=.a.h.f.q.W x k u u b P %.%.-.>.>.>.x.x.>.>.x.>.x.x.x.C.A.V.x.>.V.x.x.c.H.U.I.K.H.S.N.N.S.m.N.l.h.u.w.7.u.o.$.) ` ` } ] } ` W U ",
"G ..X.9.e.` l z z k b P %.=.%.x.>.V.;.x.x.x.>.x.x.A.;.x.A.A.V.A.A.A.B.U.R.(.D.P.D.D.h.n.z.S.a.a.a.a.1.0.u.4./ ` ] X.W ..X.` I C ",
"c Z Q !  .E n l k k H P =.%.-.>.V.V.x.x.V.V.x.A.A.A.A.Q.}.|.(.`. X`.U.(.!.T.P.D.H.m.d.u.g.h.q.6.u.4.5.a.e.] ` ` } ` ] } X./ Y Z ",
"b A Z Q A A M S J P =.-.-.>.x.A.A.A.`.(.A./.Q.OX XOX X@XQ.(.~.'.R.!.T.!.S.G.D.K.m.N.s.a.w.f.u.6.4.0.a.h.,.} ` ] ' 1. .1.) W B Z ",
"b ! Q A o.` E ' y.B.U.Y.W.Q.`.OXOX.XOXOX).W.(.!.(..X.XOX}.(.!.!.T.!.T.K.D.K.D.G.H.m.m.s.i.u.q.4.e.i.z.u.1. ._ ] #.1.2.} ` I C C ",
"G X.Q #.$.1.) u.z.F.k.T.T.].T.].}.OX`.[.OX}.B.U.!.OX}. X`.T.m.L.T.T.v.D.P.(.D.H.H.!.f.z.p.w.3.q.h.b.a.e.0.0.' @.&.6.| ,.) A m M ",
"G 6.` ] { P T ( } ( | r.D.T.~.(.|.].].]. X`.m.N.U.(.!.(.}.D.h.n.U.!.R.!.(.}. XQ.(.P.d.y.u.r.#.0.u.2. ._ ,.#. .@.&.6.@.1.) C n h ",
"G 4./ M r 5 < > : : : 7 J c.c.L.T.T.U. X`.(.n.z.n.^.L.T.N.N.f.z.d.U.(.|.`.OX X}.B.c.*.^ x x l N x f f J T W W #.] #.@.1.) m n h ",
"G Q g 6 ; = = = o X X X $ < d T 2.y.K.U.!.P.v.u.d.U.U.N.z.y.u.u.s.D.T.`.(.(.V.-.( l 5 = = $ + @ = > 3 9 f f n N J ~ / ] ) m h g ",
"G ,.n f N ^ P ^ d > $ $ @ : - 9 n Y | d.k.D.u.u.d.N.s.d.y.w.} 2.e.D.D.H.m.#.s < = $ X . X . . X o + + = > 3 , 9 9 p M Y E C g g ",
"P t.} | u.c.c.L.U.;.^ d i 9 3 7 y n V 1.b.N.a.y.s.a.u.e.e...' ` 0.r.u.2.V 8 = + X X . . X X X = < > = = > < ; - , < 3 9 f g y y ",
"%.u.1.6.6.u.w.B.c.d.t.t.%.^ N n f n M ] e.s.a.h.a.a.a.s.' I U I U ] E M 6 - + + $ o o = > w x K T J y p s 9 ; > - < < 3 ; 3 8 y ",
"%.u.o.} 6.| T T ' r.u.t.#.U M f n J Y ~ 2.w.u.a.e.a.h.s.` n n n B M n 8 , = @ @ = - 3 y J ( *.r.2.*.{ ~ T B N s 9 7 3 < - : ; 6 ",
"( m.1.1.Y y n y.Q. XQ.U.N.y.V y 0 n B ) 4.a.5.0.e.s.6.u.] f t y n n t 7 ; - = - , 8 t N B U N J W ( T _ { | T Y M n 9 3 > - = ; ",
"*.d.e.E y p -.U.U.c.*.@.' T M n 0 8 y B ] 0.e.e.a.e.0.0.#.M f y f t 1 , ; - - - - , 8 y n f y y y 0 1 6 t n V M U B f r 7 < > , ",
"( 2.6.I 8 T ;.*.l 5 & $ X $ = < 1 6 8 n B o.h.b.a.e.e.e.' T N f 0 8 , ; - - = + @ 9 N W ] #.E Y n f 8 < = = , f M M f n t 9 8 8 ",
"{ ( 2.~ f J w $ .   . .       . o = ; 8 m / f.H.G.f.z.a.6.E n y 8 1 - - = $ X = 7 4 < : : - > 3 9 7 3 3 < $ + , N T U M n n M y ",
"{ Y M B l 3 .     . . O       . X o o = f ` 0. X%X].m.N.n.' y 6 1 , @ @ $ X o - = .   .         . . . . . X X X 9 V y y n n y y ",
"%.Y f 6 - : = = > < > : & O O $ > = + + 6 X.h.OX2X;X XT.F.E 8 , 1 ; = @ + X $ + = $ . .       . .     . X . . X - 6 7 y U ) ) ] ",
"r.y./ B n ` r.#.r.e.@.~ D K S m l f n I ` n.H.;X3X2X%X].6.M 1 1 6 , 1 y 0 t y M l G x u 2 : > 3 < < < 3 , - - , 8 6 y / } 3.o.4.",
"r.a.h.n.u.) } e.e.6.} | ) Z Z Z Z E A C } F.].;X5X3X=X!.6.n 6 1 y n n ) 0.o.] ` ,.2.2.} E C Z I U n g f h m E C 0 1 C C n f f 8 ",
"*.6.a.P.P.D.o.} } W C m m m m m C C y h h.}. X:X3X2XOXP.,.n 6 0 h ` ] 4.q.u.) m B ) ~ Q Z C y y g C C A A C 6 - , B  .} } M 6 t ",
"r.6.z.F.'.}.P.,.E m g h m h g 6 6 8 B L.%X@X=X;X2X=X`.h.` m g n C Z } e.h.n.z.0./ y 1 1 0 0 6 0 0 0 1 , ; - ; q ` ] Y Y o.1.Y Y ",
"*.6.a.H.P.OX}. XN.r.Z g 0 0 8 y U c.OX-XOX:X;X2X&X%XH.2.V m C ) / ! o.a.0.h.n.T.F.y.1.T n y 6 1 ; ; , 7 y C 4.f.7.X.E B I 4.0.,.",
"t.t.f.H.}.@X=X;X@X~.U.I.D.H.!.`.*X%X&X%X=X2X2X2X=X}.d.` C m Q } 7.q.a.0.a.h.F.P.T.F.P.(.|.`.L.J.n.y.n.m.L.D.h.s.a.o.} R B ] 6.' ",
"y.u.h.!.OX=X=X2X;X@XU.(.`. XOX%X*XOX X;X2X5X2X2X%X].2.Q Z C C A / } ! 4.a.h.s.F.I.!.m.(.OX=X~.'.}.~.N.P.P.F.5.a.0.u.X.} Y ` } ` ",
"d.f.H.!.&X=X2X2X2X;X(.P.}. X&X=X=XOX%X,X5X7X2X=XOXH.0.` Q C m h g g y q h A e.D.!.T.H.(.OX@X`.`.|.}.!.H.H.z.0.o.e.0.4.X.} / ! ) ",
"u.h.P.}. X=X2X5X2X;X X X`.=X=X;X=X=X&X2X3X9X7X;X!.H.h.u.4.! m g y m g q , 1 f 1.m.'.U.(.`.&X.XOX'. X`.T.N.z.u.i.7.q.6.4.X.) ] ] ",
"0.s.P.(.OX%X2X3X3X=X=X%X&X=X;X=X%X%X&X;X2X7X9X&X(.D.S.m.m.6.Z g h A o.Q g ; ; 6 U 6.F.P.}.|.OX X}.].].P.D.s.a.w.a.q.0.2.1.` ` ` ",
"e.h.F.(.OX;X=X;X2X2X%X=X=X&X`.(.(.!.(.=X2X7X,X%X].!.H.!.H.X.m g C e.4.X.A 0 - - , y Y a.H.(.P.!.T.P.n.k.n.m.7.e.e.s.X.0.6.0.Y W ",
"0.u.n.U. X{.}. X%XOX].T.(.D.u.) Q f.}.=X2X7X2XOX|.].T.T.6.h g g Q ! Q m h 8 1 1 6 1 8 B 0.j.n.m.F.z.f.w.s.7.w.e.a.6.o.4.6.} T V ",
"6.0.u.F.R.!.P.(.H.H.s.6.` C q 6 U Q. X2X5X7X5X2XOX XT.6.n 0 1 1 , , ; ; ; 1 0 g y 0 8 0 n ] 1.s.a.i.u.i.1.w.e.a.u.2.@.&.} 2.~ Y ",
"4.0.h.b.K.G.T.P.z.6.` m 0 , ; M Q.@X=X2X9X9X0X9X,X}.2.f , = + + + + + @ ; , 0 6 0 y y q 0 y B ~ X.o.}  .2.4.0.0.6.' } ( ' ` ( V ",
"1.2.0.h.F.T.m.a.X.I y , = , B Q.=X2X2X7X0X0X9X3X=XN.f , @ + + @ + + $ @ = ; - , , 6 8 8 8 6 6 n Y ) Y E / } / ] ~ ' Y E K W V U ",
"#.4.5.w.f.h.u./ m y , = , ~ L.%X2X1X,X5X7X3X=X`.B.V 1 - @ + $ o + $ + + = - = @ @ ; ; ; - - - , y B I I W T I Y ~ I Y U J K T T ",
"` ..&.6.X.7.! m q 1 - ; M y.`.;X;X2X,X=XOX}.c.( n 7 - @ + + + + $ + @ = = - @ + + = = - = @ @ @ = 9 U | ) Y U E U E Y E l K ( ~ ",
"~ ] ] ] | } Z g 8 ; - 8 ~ c.}.Q.A.L.m.y.D.D.0.n 1 ; ; ; ; - - = - = - - - < = = - = - - - + + + + @ 3 N ' ~ I I U I T U l J W I ",
"R ] W ` ] ] h q , ; 1 V @.N.{ M N E ~ ` ` ] V f 1 1 t N M 8 , ; - - = - ; ; - : - - - ; - : = = @ + + < f W V I A W ^ ~ l T V I ",
"I ) / W ] ` g 6 , ; y U T { s 9 r n B n y 0 3 = @ 1 n Y W n 0 1 , ; - - ; , ; ; ; , ; , 1 3 3 > = + + @ ; y M B E ' %.( N J U V ",
"M Y / ` ] / g 0 , , f J N J 8 9 9 y g n 6 7 ; - 8 #.r.6./ E h y 1 , ; 1 8 q 0 0 6 6 , 6 6 1 1 3 - @ + + = , M W W #.*.*.N J Y U ",
"l U ` ] 2./ g t 7 , N N N l 9 9 r y f n y y y f | a.N.s.o.) C h g q q y h Z C m g 0 6 7 q 6 1 1 3 : + + - - y E ' *.=.%.J J T C ",
"l T T 2.t.} p y y 6 f N l s 9 9 s f y h M U R ) ] 2.] 6.4.X.C C m m y a g h g g 0 6 , , , ; - - - - + - 3 7 6 W 2.&.{ ( K K V C ",
"x J ( w.d.u.M 0 N f n J 8 < < < < ; 1 y C A m m C C C m m h y q 6 1 ; , 1 , ; = = @ + + + $ $ o + @ - 9 M y 0 ) 1.@.' K H H U B ",
"d G %.d.a.n.#.n y U M N 8 < = @ + = ; 6 6 8 6 q q y q 0 6 1 ; , ; ; ; ; ; ; = @ @ @ = ; ; ; ; ; - 7 n ~ | M n ] ~ | ^ G G H M S ",
"l G %.y.D.D.m.T y N K N f y r 8 8 t y q q q g g y y y j j j m S F S S n f a y q q y q q q 0 6 8 y Y u.X.} n U ` | ' K G G H N N ",
"H P K r.d.K.d.t.N f T T Z V C B B M m A / ! Q O.' 2.~ &.2.#.O.F O.O.n g j j y y g g y y q q 0 h } D.6.} E n E } | ^ l x G H n N ",
"H P ^ ( c.D.k.m.@.p J | T I A U I h m ) @.] +.+.| #.' ` *.*.D j l f r 7 s s 8 0 q q 0 6 0 0 g ) D.n.#./ B n } | W N f x c V N N ",
"H %.%.*.( N.N.N.u.N s ` W W E A E Z n M n n n N n f s f f f i 7 < < < < < 7 3 7 9 r 8 r 8 f W d.n.u.] / f M ] ( N f f f N I V U ",
"P =.%.%.%.r.n.m.n.@.t N 1.@./ Q A I f 8 8 7 7 7 7 9 9 9 9 9 9 3 < < > < < < < 3 9 7 r t y U r.D.d.r.1.I f Y W J s s s d K J ~ ^ ",
"P r.%.*.*.%.*.r.t.r.f t } a.X.) A C p t y t 7 r y f 0 p s s 9 7 3 < : > < 3 3 7 9 r 8 p V r.d.n.y.f.1.M m ` U M r i u G K ^ K K ",
"%.-.%.=.=.%.H s K r.Y y U e.4./ / C t y y f f n J B N N n s r 9 7 7 < < 7 s p f n n n V r.m.y.y.y.d.W n Y W N s i f G J P ( J N ",
"L =.*.-.%.H u 2 u H V V M 5.1.! Q Z g g g n ' w.1.@.' ` M f s s 9 r s s n U W | W E T } y.d.y.k.y.y.N n Y I f n x G J L K ( K ^ ",
"L =.=.=.%.c 5 * 2 4 i K | e.e.} ` A M n B ) a.h.y.6.q.2.1.] ~ V U ( *.2.r.u.w.u.2.} @.6.y.y.y.y.c.*.N V I n s l P G J J K ^ ( ( ",
"b %.P %.P c 5 * * 4 4 x r.S.f.w.X.! C A 6.F.a.n.f.r.| 6.a.y.r.r.y.B.y.B.h.m.*.#.| 6.2.e.w.a.r.y.y.*.U W V i 7 r H J l G K %.*.8.",
"z L P P L x 2 % * * : 7 *.!.T.6.2.a.6.` h.F.H.m.L.m.a.u.N.z.y.c.B.Q.B.c.L.y.1.[ 6.2.2.2.w.y.u.y.y.( ~ T M u 5 9 M ^ J J J ( r.w.",
"w G L P J d * % & & 2 5 H A.`.H.2.s.a.u.a.H.(.`.U.[.H.T.F.U.!.A.A.@XA.c.2.d.r.1.] ] } 2.2.y.y.B.r.*.( J d k w e s N K K J ( %.P ",
"w z H P c e & % & & : 4 d V.&X(.u.6.a.g.n.m.U.!.`.`.(.(.`..X`.Z.A.A.c.r.u.y.r.| / { #.2.r.d.P.D.t.{ J c z i u e 3 7 f J K P d w ",
"5 5 b c d w # # % & & : 5 x.@XOXD.a.6.u.z.P.n.I.I.R.m.y.D.T.B.y.y.d.r.6.6.0._ _ ~ &.{ w.d.L.P.D.t.%.i u G z e e : = 3 r r 5 4 4 ",
"% & 2 4 k 5 % O % % & * 7 ;.&X%XL.6.2.U./.~.U.J.!.G.m.f.b.h.<...6.| | ~ ..] ' ' 2.r.( w.D.P.(.B.%.G i 5 u 5 4 3 2 $ = : > < < 4 ",
"O O # * 4 4 & O O % % : 3 y.;X=X%.>.`.&XOX-XOX XQ.(.P.!.D.M.s.f.1. .I I Y @...2.8.y.6.B.Y.Q.!.>.H i z w 4 > : 4 & # > 3 3 9 7 i ",
"O O O % * 2 * O O O % = y H.:X2X1X3X2X2X2X5X7X5X2X;X:X:X@XE.).!.J.D.{ T W W _ @.2.a.N.J.}.Q.V.H G e w 5 2 * & : O # < 7 r d f x ",
". . . # % * & # . O $ < @.`.&X5X8X9X6X5X5X8X6X9X9X9X5X5X6X3X+XoX@X=X_.x.%.K S [ d.J.B.`.+XA.P G c w : * & & O O O # & < 9 r r d ",
". . . O # & % # . X # d t. X;X>X5X6X6X>X<X<X<X<X4X4X<X<X<X<X#X#X$X#X#X#X#X>.P -.V.C.A.A.XX>.b v k w * & & # O O # # % * 5 5 w u "
};
