/* XPM */
static char *out[] = {
/* columns rows colors chars-per-pixel */
"64 64 227 2 ",
"   c #2B1608",
".  c #4A2415",
"X  c #5C2C1A",
"o  c #68321E",
"O  c #583F2A",
"+  c #763A24",
"@  c #7E3D26",
"#  c #63432F",
"$  c #6E402D",
"%  c #6A4D37",
"&  c #77523D",
"*  c #7F5D46",
"=  c #814A35",
"-  c #8E4B34",
";  c #96523A",
":  c #865540",
">  c #8C5D46",
",  c #9D5943",
"<  c #955F49",
"1  c #A45E45",
"2  c #89664F",
"3  c #9B644E",
"4  c #916A53",
"5  c #9A6F56",
"6  c #AB644A",
"7  c #A16851",
"8  c #AD6D51",
"9  c #A86D58",
"0  c #B36A51",
"q  c #B76F53",
"w  c #A1765D",
"e  c #A7755C",
"r  c #AE755B",
"t  c #B4715D",
"y  c #B97658",
"u  c #A87B63",
"i  c #AE7D64",
"p  c #B77764",
"a  c #BD7564",
"s  c #B27861",
"d  c #B47F64",
"f  c #BB7E63",
"g  c #C1785B",
"h  c #C87E61",
"j  c #C07B6B",
"k  c #AC836B",
"l  c #BE8466",
"z  c #B3876E",
"x  c #BA876A",
"c  c #BF8B6C",
"v  c #B78C72",
"b  c #BC8E72",
"n  c #C38264",
"m  c #CC8566",
"M  c #C78568",
"N  c #C4816F",
"B  c #C48A6C",
"V  c #CC8C6D",
"C  c #CC8C6E",
"Z  c #D18969",
"A  c #D48C6E",
"S  c #D88F6F",
"D  c #C98270",
"F  c #C88973",
"G  c #D08B78",
"H  c #C39072",
"J  c #C89172",
"K  c #CC9475",
"L  c #C09379",
"P  c #CA997A",
"I  c #CF9C7E",
"U  c #D19071",
"Y  c #D09072",
"T  c #D29172",
"R  c #D09273",
"E  c #D39273",
"W  c #D49374",
"Q  c #D59475",
"!  c #DA9472",
"~  c #DD9876",
"^  c #D79778",
"/  c #D1967C",
"(  c #D89778",
")  c #D59A7B",
"_  c #D99878",
"`  c #D9997A",
"'  c #DB9A7A",
"]  c #DA9A7B",
"[  c #DC9B7B",
"{  c #DB9C7D",
"}  c #DA9D7E",
"|  c #DE9D7D",
" . c #DC9D7E",
".. c #DD9D7E",
"X. c #E09E7D",
"o. c #E29F7D",
"O. c #E2A07F",
"+. c #D89380",
"@. c #D89982",
"#. c #DD9E80",
"$. c #DE9F80",
"%. c #DF9F80",
"&. c #D4A082",
"*. c #DFA081",
"=. c #DCA386",
"-. c #D8A485",
";. c #DCA88A",
":. c #DFAB8E",
">. c #DFAF94",
",. c #E0A081",
"<. c #E3A181",
"1. c #E0A182",
"2. c #E1A283",
"3. c #E4A281",
"4. c #E4A383",
"5. c #E5A383",
"6. c #E5A483",
"7. c #E6A483",
"8. c #E5A484",
"9. c #E6A585",
"0. c #E7A685",
"q. c #E7A686",
"w. c #E8A786",
"e. c #E8A787",
"r. c #E9A887",
"t. c #E0A58A",
"y. c #E3AC8D",
"u. c #E7AD8F",
"i. c #E8A888",
"p. c #E9A888",
"a. c #E9A989",
"s. c #EAA989",
"d. c #EAAA8A",
"f. c #EBAA8A",
"g. c #EBAB8B",
"h. c #EBAC8C",
"j. c #EBAE8F",
"k. c #ECAC8C",
"l. c #ECAD8D",
"z. c #EDAD8D",
"x. c #ECAE8F",
"c. c #EDAE8F",
"v. c #EEAF8F",
"b. c #EDAF90",
"n. c #EEAF90",
"m. c #E4B195",
"M. c #E9B193",
"N. c #EDB091",
"B. c #EEB090",
"V. c #EFB090",
"C. c #EEB091",
"Z. c #EDB192",
"A. c #EEB192",
"S. c #EFB192",
"D. c #EFB293",
"F. c #ECB496",
"G. c #E6B599",
"H. c #EAB79A",
"J. c #EEB899",
"K. c #EEBC9E",
"L. c #F0B293",
"P. c #F0B394",
"I. c #F0B495",
"U. c #F1B495",
"Y. c #F0B496",
"T. c #F1B596",
"R. c #F1B597",
"E. c #F2B596",
"W. c #F2B697",
"Q. c #F2B698",
"!. c #F2B798",
"~. c #F2B799",
"^. c #F3B799",
"/. c #F3B899",
"(. c #F2B89A",
"). c #F3B89A",
"_. c #F3B99A",
"`. c #F3B99B",
"'. c #F4B99B",
"]. c #F4BA9C",
"[. c #F4BB9C",
"{. c #F4BB9D",
"}. c #F5BB9D",
"|. c #F5BC9E",
" X c #F5BD9F",
".X c #F5BE9F",
"XX c #F1BFA1",
"oX c #F5BEA0",
"OX c #F6BEA0",
"+X c #F6BFA1",
"@X c #F6C0A1",
"#X c #F6C0A2",
"$X c #F6C1A2",
"%X c #F6C1A3",
"&X c #F6C2A3",
"*X c #F7C2A3",
"=X c #F6C3A4",
"-X c #F7C3A5",
";X c #F2C4A5",
":X c #F7C4A5",
">X c #F7C5A6",
",X c #F7C6A7",
"<X c #F7C7A8",
"1X c #F7C8A9",
"2X c #F0CBAD",
"3X c #F4CDAE",
"4X c #F8C8A9",
"5X c #F8C9AA",
"6X c #F8CAAB",
"7X c #F8CBAC",
"8X c #F8CCAD",
"9X c #F8CDAE",
"0X c #F9CEAF",
"qX c #EECEB0",
"wX c #F3D1B3",
"eX c #F7D1B2",
"rX c #F0D4B6",
"tX c #F6D4B6",
"yX c #FAD3B4",
"uX c #FAD7B8",
"iX c #F1D8B9",
"pX c #F7D8BA",
"aX c #F5DBBB",
"sX c #FADDBE",
"dX c #F6DDC0",
"fX c #F9E1C3",
"gX c #FBE5C7",
/* pixels */
";.u.} ) / P c P I :.j.].].].H.H.G.H.G.H.H.H.H.H.G.H.G.K.H.H.J.H.F.M.u.j.u.j.u.N.u.h.9.t.i.g.9.2.` ] } #.] ` R R Y C C T Y T C Y ",
":.u.2.%.9.j.F.H.].].OXOX*X%X+XXXXXOX*X*X<X>X:X%X*X`.+X+X+X X|.(.R.R.R.U./.A.F.N.x.g.g.i.l.h.r.%.*.{  . .%.[ ` _ T C U U E T Y C ",
"] h.9.B./.].R.OX#X#X`.#X*X<XXXXX#X=XXX<X1X6X%XoX X+XJ.OXOX XY.Q.Q./.h.N.L.T.h.b.g.f.4.a.d.k.3.| ' X._ | *.,.Q E Q W V E Q W V A ",
"#.2.9.g.`.].|.|.$X#XoXOX,X<X%X+XOXOXXX&X6X6X%XoX|.}.(.`.+X].!.Y.(.R.D.N.Y.S.x.j.h.p.5.5.l.g.| ' ' ' _ ' 2...Q Y Q U A Z T U V C ",
"J R Q #.=.h.N.].OX*X#X>X+X:X%X@XR.].].>X&X4XOX#X/.].{.{.R.R.T.R.R.Q.D.S.g.k.g.f.i.9.2.s.p.s.o.[ _ { { *.{ [ Q T C A Z A V A m Z ",
"> > > < 3 r / S./.].OX|.#X#X*X]././.].=X>X*X+X).R._.`.!.E.L.Y.Y.].R.^.U.B.l.d.7.5.2.9.f.g.r.2.' #.] #.#.%.` W C Y Z Z Z Z m m m ",
"= + X X O # & s / 9.j.`.|.@X`.|.).R.F.OX*X*XY.Q.R./.Y.].OXOXR.OX+X}.D.R.U.B.5.q.0.d.9.d.g.k.%.#.#.*.{ ,.$.%.U Y Z A m Z m m h h ",
"I c 5 & % # $ = 3 d C 9.^.`./.P.F.B.S.oX&X).Y.N.F.N.U./.#X*X.X X%X|.P.l.C.a.1.1.i.g.2.2.9.9.#.| 1.,.$. .,._ ( V V m h h m M g g ",
"H.].G.:.L z e 7 3 t n R 1.T././.l.h.B./.Q.R.B.l.9.h.N.#X+X:X+X$X`.F.u.=.K c x c l V n B M R T ^ { $.} *. .] Q C n h g h g g a g ",
"J.J.R.F.F.j.2.^ M n n M ^ i.Q.P.S.k.B.S.P.C.g.9.7.9.h.T.|.`.H.=.c r 9 < = = + $ + : < < 7 d l B V C ^ ^ %._ T M n f y g g g g y ",
"$.i.1.u.h.i.#.] ^ Q M T ] 9.u.S.c.B.h.N.N.x.| [ { ,.| u.S.q.l 7 > + o X X . . . . X o + : < < 7 9 r s V ^ _ M n n f t y f g q y ",
"^ N.F.H.`.T.i.] Y n M ^ 2.9.g.v.v.g.k.h.R.B.Q V U T R Q { M 7 = = # o X X X o o & * > : : : > > < > < 7 s n M n n f y y f a y y ",
"`.+X.X.XF.S.u.9.( M t f Q 3.i.L.f.g.k.v.k.k.A n n M M V f 8 ; = + + @ = : 3 r c K } K x r r 9 < : > > , 3 3 1 t y f y g y g y y ",
"H.:./ c s e r d M M y q m ! 3.h.S.x.g.s.g.9.Q g n f n f 8 1 ; - ; < 7 8 B R } 2.q.i.i.#.^ R C l r 7 < < < : : ; 8 t t 0 q 0 q q ",
"u = . . . .   . $ < 8 8 g C ( r.P.T.h.g.g.9.T V n l t 8 1 , - ; , 7 1 y M C M V J R J R Q ] R { R B r 9 3 > = : , 6 6 8 6 8 6 8 ",
".     . # .     . X + - 8 n T 3._.+X/.N.^.s.[ M M y 8 1 , ; - = = - 1 B 1.2.{ R J n t 8 6 8 f K W C B f r 7 > = ; 1 1 1 6 6 1 1 ",
". X O # # .   . . X X o + 6 T 3.^.8X:X%X/.U.2.C y 0 1 3 - - + o = t x c K / R R C V B f 6 ; - 1 f C B l f s 7 7 7 8 6 0 q q 0 0 ",
"c d d s 5 * % $ $ > : + + = ,.s.+X9X0X<X%X^.9.n 1 1 , - - @ X $ < > + . O . . X $ * < 3 3 3 = $ < B C B M n n B M t y y g g g g ",
"l.U.g.9.9.=.^ R V F y f M T e./.:XpX0X8X:XT.Q q 1 6 , - ; ; + + + + $ . O         .   . . . . X o e C ^ V l f M n g g g n M g h ",
"h.5.| | | ] ( T ! A A T ! | S.OX8XpX0X6X%Xu.M 6 1 8 0 , M T M B C V c x 5 & # # $ # . . . . . . X = r 1 8 y f y f g y y n g g g ",
"o.Q A Q A A A E A A h n f 5.[.<X0XyX7X<X/.2.n 8 1 q Z A Q 5.5.| _ %.,.i.,.T n n l B r 7 7 < = + + 1 , 8 M Q _ %.( m h M n m h m ",
"R.5.Z g y a y q 0 6 8 V F.OX*X8X0XeX4XOXB._ n q y n A | 5.9.s.7.[ C A ! ~ Q A C m n h M V V V A V 6 1 f M T _ 9.#.n y y t t t t ",
"4X:XT.B.%.T n M V $.x.>X6X6X=X9X0X0X{.R.3.Z n m A ! A | p.k.7.v.S.9.V y 8 q 8 8 q a g m m m g 6 - ; n ,.,.T y y t 8 1 8 t t 6 t ",
"yX8X%X+X*X|.|.|.<X4X=X<X7X6X6X0X0X6XOXs._ M m A ~ 3.3.3.v.f.r.c.!.R.U.l.2.C y 6 1 , ; - - - - ; y Q ` _ ,.,.M 8 8 n l B B B l n ",
"0X0X<X*X|.*X&X6X<X4X>X7X<X0XeXyX8X+XT.9.T m m A ! 5.5.s.f.g.s.S.P.^.E.!./.%X|.`.x.i.| [ ^ #.2.k.r.r.{ W U %.1._ Q n s d d l f n ",
"pXyX8X+X+X-X7X8X6X=X*X7X0XeXyXyX8XQ.N.5.~ Z Z m m m Z Z ! o.r.P.T.Q.(.`.|.OX:X.X*X%X|.}.OXR.R.z.d.s.,.{ U T 3.9.2.l r s s s s s ",
"sXpX<X4X6X8X6X9X6X4X=X0XpXsXpXpX<X!.g.r.7.,.Z h a g q q 8 q g 3.U.].Y.[.#X,X#X>X>X:X`.|.OX).g.s.f.p.,.3.[ U Q 9.,.M y f f f s s ",
"sXpX0X<X0X9X8X9X0X4X:X<XyXdXdXyX:XT.l.s.U.g.[ h g g Z A h 6 , 0 _ S.W.[.-X>X=X<X6X6X%X|.}.U.c.i.9.e.7.3.9._ U O.,.C n n M n l l ",
"yXyX0X8X4X0X:X:XT.U.R.<X9XpXpX6X%X`.U./.N.g.~ Z g ! 5.r.~ Z 1 - , M r./.].,X<X5X>X>XoXOXR.`.f.k.7.p.9.q.o.o.E _ { U M B n C M M ",
":X%X|.^.U.l.5.Q m ! /.<X0XpXyX4X:XOXOX_.B.~ h h A | w.9.| A 0 - ; , y [ S.}.%X*X:XOXOX X).P.S.v.f.e.g.w.,.| Q Q %.Q C B V F F V ",
"/.U.r.| Q h 6 , g T.%X6XpXdXpXyX0X8X/.D.T y 6 0 y n g g y q 1 8 q 0 , g ~ v.x.`.oX].U.U.P.P.s.g.s.g.9.0.3.5.[ ^ | Q F Y C R M J ",
"g.,.A g 8 ; - y J.8X6XyXdXgXgXgXsX6Xx.M 8 ; @ + + + + @ - ; 6 q g g q q g ( 5.h.).U.A.s.C.g.r.g.l.d.9.6.6.,.[ ^ ` C V V C C C V ",
"( Z y 1 - , R /.=X0X0XpXdXgXfXsX6XE.M 6 - + o @ + @ + = - , , 8 0 y q a q y A %.7.g.g.r.r.r.9.l.q.p.,.3.3.5.%.( U Y V C C Y Y R ",
"m 0 , @ , ^ ].-X0XeXtXpXpXyX8X%XF.E 8 - @ + @ + + $ + @ @ - - ; , 1 q y g q t n ^ | 3.,.,.,.3.9.q.5.,.,.,.$.{ W C C C Y U Y C C ",
"q 1 - ; F S.%X6XyXyX>X:X:X:Xh._ n 8 - = + + + + + + o @ = - = = = - ; 1 1 6 , 7 f T Q _ ~ { ( | | %.Q ^ } { R R Y C M M C Y M V ",
"6 ; - f #.S.+XH.M.M.i.9.S.Y.h.R t , ; , , ; - = = = @ - - ; - @ @ @ - - ; - = = > s C R _ Q T R ( ^ Q Q _ R R T T C C V Y C V V ",
"; ; 8 ^ { l.$.B f R ^ ^ C R M y , , s ^ V 8 , , ; - - ; ; 7 - - - = - - - = @ + + = r ] #.{ T ^ Q ( Q Q B B C R Y E V R C C Z A ",
", , n R R { f t 8 n M f 8 8 ; @ = 7 C { ~ M t 1 , ; - - ; , , - ; ; - ; ; : = + + $ = 9 R { ( Q E E W Q J l C R ^ / C C C A C A ",
"1 1 B C J J r 8 8 f f n 8 8 ; , C x.i.7.o.~ M y 6 1 - , 1 1 , , ; ; ; 1 1 3 < > > = + = 9 R Y W Q ^ Y / / l B ^ ` Q V C A A m Z ",
"8 , B J K c 8 9 t f n m f f f V h.E.U.l.s.o.Q m g q 8 q m h y t q 8 1 1 0 6 6 7 , = + @ = 8 V Y Q ^ ^ ) } l B R ^ Y V Z V Z m Z ",
"y 7 f R l s r t t f n M V _ %.,.[ 3.9.k.5.3.( ! Z m m Z Z Q A ! m g 0 y y y 6 7 , > + @ = - y U Q { } 1.} l B / R Y M m m Z m Z ",
"n t n R 9 3 3 , ; , 0 g A A C Z Z A A Z Z h M g y q y y g h m g g 0 q q y 8 6 0 8 , > + - - 1 V ^ #.*.=.=.H B R / R M m Z A A Z ",
"y T n B y 3 = @ @ - , 6 0 0 8 q t y 0 t 0 8 1 , ; ; - - , 1 ; - - ; - ; ; ; ; ; , > - : ; 8 , M | 4.%.t.=.K c K K W n Z Z S Z A ",
"t C B f l f r 9 y g y y g g g y y y y a N N N j N a a t 0 1 ; ; ; - = - ; = @ + @ @ - 6 f M 6 n 1.2.$.*.} H H J / C M M U C Z Z ",
"f n ^ R C C V C m m A ~ ~ | ( @.+.2.1.2.@.1.@.+.+.+.G F j D N j a a t a t 0 6 1 , 1 f _ [ | t A _ 2. .) K H H K K K n M M M M C ",
"^ y C { ] Q T Q _ m ! | o.3.%.7.9.q.u.u.:.1.+.G G F N N N j j a a h y a a q 0 0 q A r.3.,.| n W %.,.X./ H c c P P n B B M B B B ",
"u.T f ] _ U V Q ~ ! m ( { T C ^ @.R F R K G r r s r 7 r y r 1 r a a 0 q 0 0 8 g Q B.9.<.5.T n ] i.2.R J c c d P J J n B B B n B ",
"S.2.l n %.Q Q Q [ ( V y y 8 9 9 8 7 7 7 e 9 3 3 3 < < < 3 < < 7 r r 0 0 0 0 f C x.S.9.[ ' M n %.q.,.J c c l x c c B B B C V M M ",
"u.S./ f R 2.%.[ ( ! m f t 9 1 9 8 r r s e r 7 3 < < > < < 3 3 7 7 r 0 t 8 y V i.Z.n.*.$.( n M %.#.R l f d l c x f l C R C R R Y ",
"=.B.i.M M ,.9.~ ~ A M t y t 8 y f f l f d r r 3 3 > > > 3 3 7 7 8 8 r t f M 2.b.N.i.*.2.^ f T ^ ( B d s p x f d x B K R ) / R Q ",
"=.u.=.} B C 3.3.~ ! m a y f t M C A M B f p 9 9 7 3 < 3 9 s s n n B f n M *.u.N.N.j.2.9.M M E _ W B r r s f s d c K H / K H B B ",
"-.=.=.u.] V %.3.o.~ A g f f M %.g.3.| ( Q J l d d s t s B C ^ _ %.] Q R { u.j.x.V.u.t.1.n V Q Q Q l s 9 d f d x J P I K J B B B ",
"I -.-.:.J / ,.0.o.o.Q m g M U k.B.v.p.r.,.9.1.=./ } =.:.:.N.h.v.u.i.1.$.#.h.x.Z.u.h.u.#.n U Q ( M M r s c I H H H P P ) / ) P K ",
"P &.-.} x x / #.7.r.o.~ A A 3.S.U.z.i.*.2.9.h.N.N.F.F.H.J.Z.F.d.d.#.*. .2.u.j.t.u.u.u.^ V Q Q W F l 9 r d s P J H H K / } } ) K ",
"b &.I I x u 5 x { T.s.7.5.9.7.S.R.OXh.N.N.S.d.T.J.].H.XXXXXXu.F.y.1.^ $.i.y.2.2.i.u.=.&.Q  .W W C f r r 7 7 s P B H c I =.y.*.} ",
"z P I P c e * 2 d u.U.g.f.g.e.s.!.R.R./.].`.`.|.:X%X`.<X8X6XH.L.a.9. .#.2.2.1.2.y.i.t.} 2.#._ W K f c k u e r c / J c P } t.t.t.",
"w H P P x 5 & * 5 H :.^.d.z.N.l.v.).J. X*X$X%X*X:X<X%X<X#X#Xu.*.*.u.2.2.' #. .2.*.q.:.u.8.=.{ #.B f c z u e e r f K K I I &.&.&.",
"w z P P d 4 % & & 2 H Y.(.n.e.s.N.N./.(.+X+XoX+X`.T.oX`.F.T.h.=.8.q.*.{ ( ( ]  .2.9.u.u.L.u.=.} K e x x k k d 3 3 r B P P x r w ",
"5 w v x k 4 # % & * 5 I #X:Xh.g.a.a.d.Z./.|.P.I.N.h.i.i.9.g.e.a.2.2.^ _ ' [ ^ ,.8.d.t.j.(.`.8.) J u 5 b z k u 7 = 3 9 e 7 5 4 2 ",
"% * 4 5 u 4 # # % % > 9 :.7X+Xj.9.d.].OX%X`.Y.Y.P.S.u.i.i.8.%.| ,.` ^ ( $.| *.2.$.#.j.M.[.OXa.P c x 5 w w 5 5 3 & + : : > < < 4 ",
"O O # * 4 4 % O # % & 3 c 5X5Xy.:.%X<X7X<X0X<X4X+X+X].~.h.B.s.q._ E E Q ^ #.2.a.*.2.Z.).}.$X:.P x d k 4 > > 2 2 # % < 3 3 w 7 i ",
"O O O % * 2 & O O O & : B #XeX0XsXuXyXyXyXsXdXuXyXyX0X>X>X{..X|.F.y.) K W Q ] #.6.g.T.'.OX.X:.H c w u 4 2 * & & O # < 7 r d f x ",
". . . # % * & # . O $ < #.oX5XpXdXfXaXpXpXdXaXfXfXfXtXpXaXuX>X<X,X7XXXm.&.K F 1.j.R.F.XX>XXXI H c w * * & & O O O # & < 9 r r d ",
". . . O # & % # . X # d y.=X9XwXdXdXaXwXrXrXrXrXiXiXrXrXrXrXqX2X3X2X2XqX2X>.I ;.G.H.K.K.;X>.b v v w * & & # O O # # % * 5 5 w u "
};
