/* XPM */
static char *out[] = {
/* columns rows colors chars-per-pixel */
"64 64 232 2 ",
"   c #2B1608",
".  c #4A2415",
"X  c #5C2C1A",
"o  c #68321E",
"O  c #583F2A",
"+  c #763A24",
"@  c #7E3D26",
"#  c #63432F",
"$  c #6E402D",
"%  c #6A4D37",
"&  c #77523D",
"*  c #7F5D46",
"=  c #814A35",
"-  c #8E4B34",
";  c #96523A",
":  c #865540",
">  c #8C5D46",
",  c #9D5943",
"<  c #955F49",
"1  c #A45E45",
"2  c #89664F",
"3  c #9B644E",
"4  c #916A53",
"5  c #9A6F56",
"6  c #AB644A",
"7  c #A16851",
"8  c #AD6D51",
"9  c #A86D58",
"0  c #B36A51",
"q  c #B76F53",
"w  c #A1765D",
"e  c #A7755C",
"r  c #AE755B",
"t  c #B4715D",
"y  c #B97658",
"u  c #A87B63",
"i  c #AE7D64",
"p  c #B77764",
"a  c #BD7564",
"s  c #B27861",
"d  c #B47F64",
"f  c #BB7E63",
"g  c #C1785B",
"h  c #C87E61",
"j  c #C07B6B",
"k  c #AC836B",
"l  c #BE8466",
"z  c #B3876E",
"x  c #BA876A",
"c  c #BF8B6C",
"v  c #B78C72",
"b  c #BC8E72",
"n  c #C38264",
"m  c #CC8566",
"M  c #C78568",
"N  c #C4816F",
"B  c #C48A6C",
"V  c #CC8C6D",
"C  c #CC8C6E",
"Z  c #D18969",
"A  c #D48C6E",
"S  c #D88F6F",
"D  c #C98270",
"F  c #C88973",
"G  c #CC8A78",
"H  c #D08B78",
"J  c #D38E7E",
"K  c #C39072",
"L  c #C69677",
"P  c #C89172",
"I  c #CC9475",
"U  c #C09379",
"Y  c #CA997A",
"T  c #CF9C7E",
"R  c #D19071",
"E  c #D09072",
"W  c #D29172",
"Q  c #D09273",
"!  c #D39273",
"~  c #D49374",
"^  c #D59475",
"/  c #DA9472",
"(  c #DD9876",
")  c #D79778",
"_  c #D1967C",
"`  c #D89778",
"'  c #D59A7B",
"]  c #D99878",
"[  c #D9997A",
"{  c #DB9A7A",
"}  c #DA9A7B",
"|  c #DC9B7B",
" . c #DB9C7D",
".. c #DA9D7E",
"X. c #DE9D7D",
"o. c #DC9D7E",
"O. c #DD9D7E",
"+. c #E09E7D",
"@. c #E2A07F",
"#. c #D89380",
"$. c #DD9E80",
"%. c #DE9F80",
"&. c #DF9F80",
"*. c #DD9986",
"=. c #D4A082",
"-. c #DFA081",
";. c #DCA386",
":. c #D8A485",
">. c #D7A88D",
",. c #DCA88A",
"<. c #DFAB8E",
"1. c #DFAF94",
"2. c #E0A081",
"3. c #E2A181",
"4. c #E3A181",
"5. c #E0A182",
"6. c #E1A283",
"7. c #E3A282",
"8. c #E4A281",
"9. c #E4A382",
"0. c #E5A382",
"q. c #E4A383",
"w. c #E5A483",
"e. c #E6A483",
"r. c #E5A484",
"t. c #E6A585",
"y. c #E7A685",
"u. c #E7A686",
"i. c #E8A786",
"p. c #E8A787",
"a. c #E9A887",
"s. c #E0A58A",
"d. c #E3AC8D",
"f. c #E7AD8F",
"g. c #E8A888",
"h. c #E9A888",
"j. c #E9A989",
"k. c #EAA989",
"l. c #EAAA8A",
"z. c #EBAA8A",
"x. c #EBAB8B",
"c. c #EBAC8C",
"v. c #EBAE8F",
"b. c #ECAC8C",
"n. c #ECAD8D",
"m. c #EDAD8D",
"M. c #EDAE8E",
"N. c #ECAE8F",
"B. c #EDAE8F",
"V. c #EEAF8F",
"C. c #EEAF90",
"Z. c #E9B193",
"A. c #EDB091",
"S. c #EEB090",
"D. c #EFB090",
"F. c #EEB091",
"G. c #EDB192",
"H. c #EEB192",
"J. c #EFB192",
"K. c #EFB293",
"L. c #ECB496",
"P. c #E6B599",
"I. c #EEB899",
"U. c #EEBC9E",
"Y. c #F0B293",
"T. c #F0B394",
"R. c #F0B495",
"E. c #F1B495",
"W. c #F0B496",
"Q. c #F1B596",
"!. c #F1B597",
"~. c #F2B596",
"^. c #F2B697",
"/. c #F2B698",
"(. c #F2B798",
"). c #F2B799",
"_. c #F3B799",
"`. c #F3B899",
"'. c #F2B89A",
"]. c #F3B89A",
"[. c #F3B99A",
"{. c #F3B99B",
"}. c #F4B99B",
"|. c #F4BA9B",
" X c #F4BA9C",
".X c #F4BB9C",
"XX c #F4BB9D",
"oX c #F5BB9D",
"OX c #F5BC9E",
"+X c #F5BD9E",
"@X c #F5BD9F",
"#X c #F5BE9F",
"$X c #F1BFA1",
"%X c #F5BEA0",
"&X c #F6BEA0",
"*X c #F6BFA0",
"=X c #F6BFA1",
"-X c #F6C0A1",
";X c #F6C0A2",
":X c #F6C1A2",
">X c #F6C1A3",
",X c #F7C2A3",
"<X c #F6C3A4",
"1X c #F7C3A5",
"2X c #F2C4A5",
"3X c #F7C4A5",
"4X c #F7C4A6",
"5X c #F7C5A6",
"6X c #F7C6A7",
"7X c #F7C7A8",
"8X c #F7C8A9",
"9X c #F0CBAD",
"0X c #F8C8A9",
"qX c #F8C9AA",
"wX c #F8CAAB",
"eX c #F8CBAC",
"rX c #F8CCAD",
"tX c #F8CDAE",
"yX c #F9CEAF",
"uX c #F3D1B3",
"iX c #F7D1B2",
"pX c #F0D4B6",
"aX c #F6D4B6",
"sX c #FAD3B4",
"dX c #FAD7B8",
"fX c #F1D8B9",
"gX c #F7D8BA",
"hX c #F5DBBB",
"jX c #FADDBE",
"kX c #F6DDC0",
"lX c #F9E1C3",
"zX c #FBE5C7",
/* pixels */
"1.H.i.i.] B i k u x F B f f l ' c.I.I.-X#X1X-X0X.X+X!.}.#X0X5X4XoX].).#X/./.K.R.H.J.F.J.v.b.j.C.t.k.e.u.q.j.{ X.) [ ^ { ] ) ! ~ ",
",.i.m.b.a.^ l i e > = $ $ # # = 7 b T t.].1X1X5X;X X!.).1X0X6X.X).R.).}.oX`.R.K.E.K.H.J.G.j.v.c.g.q.8.0.l.k.X.| | | +.{ | { ` ! ",
"K +.+.e.8.R 7 = $ $ $ # # o X $ : < 9 B -.].+X-X#XoXc.R.1X7X>X/.!.R.R.}.oXoXK.|..X}.A.K./.C.g.x.g.t.6.p.z.x.X.{ X.| ) O.2.@.R ~ ",
"c / / ( A 6 : < x =.,.>.U w 5 5 e 9 t B } g.!.}.;XE.G.W.-X-X}.L.E.M.M.!.<X5XXXXX-XOX!.R.).F.6.6.j.a.y.p.b.u.8. .$.O.| +.r.X.^ A ",
"x / Z S h 8 c ,.L.+X-X1X$X$XP.d.=.Q C ) ' %.v.&X`.^.N.!.)..XR.K.x.b.M.!..X,X*X-X#X.XG.Z...^ C I Q [ [ [ ) X.5.6.$.5.2.7.+.X.^ R ",
"K X.Z A Z ) Z.L.].)..X$X+X$X.XR.Z.g.-.[ [ O.g.W.}.C.V.!.].G.Z.p.t.t.b.G.}.}.R.d.T x e 9 < : > > > 7 r r s B C R [ -.6.&.6.{ ^ R ",
"U @.S | 8.v.j.K.G.G.c.R.!.R.d.Z.c.j.O.-.-.t.t.F.K.(.c.K.Q.!.c.+.X.+.} r.x.b.^ l 7 = o o X X . . X o $ = > 9 r y n C I O.+.4.~ A ",
"U X.A 8.t.t.j.j.6.) 6.Z./.I.K.G.c.} R R +.8.p.b.].E.c.B.E.T.C.` R ^ R ^ ) E y , : @ o o X X X X o $ = = : : > < 7 7 8 l ^ O.` Z ",
"b { A 6.6.r.r.+.n 6..X-X$X=X.X).M.6.E n M X.r.Y.C.K.b.D.D.K.C.{ f n B V n f 6 ; = @ @ @ @ - < 7 r x f r 3 3 < < - - > 3 8 n ^ Z ",
"b  .~ r.k.7.O.n ) !.}./.L.Z.d.g.p.X.R n f Z X.8.Y.D.J.n.S.D.x.+.n f g f f 8 1 ; - - ; 3 y C ^ ..6.t.6.} Q F l 8 3 - ; ; 7 3 8 y ",
"U 5.R 8.F.x.E n d.'.:.K i e < < 3 t y f g M Z X.j.].).!.C.).g.{ R n y y t 8 ; < < , , 8 n C C E C Q C R [ ..Q ^ C y 3 3 3 3 : < ",
"L s. .X.!.F.! C f.b & X X . X . . X + < 6 t M ^ w.].1X#X#X).J.+.! M t 8 1 , ; - - - ; t ^ 6.t.3.X.I n f y t f ^ ) C l s 9 < > > ",
"b <.' ^ t.M.R C r X   . . . O     . . o + - 6 R 3.!.rXyX1X-X].x.I t 6 6 , ; = @ o < y K K ' =.:.Y ^ C M y 6 < 7 l C C B f 9 > > ",
"K =.T P } O.R 1 @ o X o # % # . . . o $ o o + f b..XyXsXyX1X}.p.M 6 1 1 ; = @ o = 3 < : $ & & % % & > 3 3 7 7 - : s C B f y 7 3 ",
"L =._ Q C n 1 ; t -.B I I c 9 5 5 9 9 9 7 9 f O./.1XrXdXyXwXW.X.g 6 , 6 ; 1 ; - = = = = o X           . . . X o o = l Q R V p r ",
"T T :.6.R R ^ X.+.r.x.c.M.j.6.O.O.Q R R ] +.3.p.+X<XrXyXyX5XJ.~ y 6 1 g n n ` ] ` ^ C I Y c 5 * & o o . . . . . . X 7 B V f f g ",
"T =.,.f.-.b.C.M.6.0.y.r.} [ ^ ^ R ] A ~ m n ) ].oXwXwXrX1X}.r.E y 0 0 n ~ +.+.q.O.{ ` -.+.r.] E m M M s 9 7 < : $ @ ; 1 ; 6 q n ",
"=.=.,.L._.E.E.].}.M.4.R m m R R m n q 6 f s.1X1X1X8XwX6X:XM.` M g n m m ~ 8.j.p.t.3.C m n n m m h g a n Z R A Z Z g 6 ; 8 E ` ~ ",
":.=.T s.A.I.Q.oX1X1XK.G.r.R y 0 0 y f O.-XrX;X5XqXtX<X<XOXm.R n h ~ A X.3.a.q.j.x.A.j.r.E f 6 6 6 0 6 0 0 q 6 , ; - - 8 R R Z +.",
"=.T Y =.M.^./.;X0XwX1X-X-X#X].G././.-X5XqXwX6X7XyXsX5X*XJ.q.m n m A / 3.p.a.y.p.v.Y.C.K.}./.K.j.' n t 6 6 6 1 6 y n A ^ +.8.~ f ",
"=.=.' 2.c.^.oX,X8XyXyXwX-X&X[.1X1XwX6XwX6XwXrXyXiXsX#X].b.8.~ Z M Z Z A A { +.z.m.T.J.(.!.[.^.#X#X+X!./.K.!.J.R.x.J.x.t.^ { +.` ",
",.;.:.6.(.}.=X6XtXsXsXyX7X@X}.-X0XrXwX<X5XeXsXsXgXsX-X~.m.j.8.{ A g y y q 0 0 g ` b.E.^.(.!.oX|.=X=XOX}._.!.].Y.D.c.b.t.{ ~ +.+.",
"<.<...j.`..X#XwXsXgXsXyX0X1X}.5XrXsX5X<XwXsXiXdXkXsX).D.C.S.x.b.X.m 0 n Z Z 0 1 6 m 6.`.].oX`.#X5X7X{.&XOX{.C.D.m.V.i.q.7.] V &.",
"d.;.-.b.OX1X0XtXdXjXgXsXyXwX7X8XyXyXwX6XwXyXiXgXlXyX+XD.R.).J.t.| m g Z p.r.` n 1 ; 0 ) J.).OX-XwX5X=X%X,X#X_.C.V.k.t.p.b.r.^ R ",
"s.;.$.S.OX0XwXiXaXlXgXgXsXyXeXyX5X5X#X#X<XyXsXkXaXwXOX+X!.+XM.R g h h | r.i.| R 1 - - 1 n r.!.#X1X5X>X<X*X;X_.(.M.M.0.c.0.g.X.^ ",
"d.;.s.J.;X6XtXwXsXsXsXsXiXeX5X}.J.X.R 6.;XyXsXdXaXrX7X1X-XK.R 8 1 6 8 y y 0 0 6 1 6 6 1 6 n X.M.}.*X=X@X;X X`.E.m.b.x.u.l.p.p.` ",
"c.f.6.E.=X6X1XrXeXwX-X#X].R.3.R a 6 n !.7XsXgXlXlXlX7X7XR.E 1 - @ + o o + @ @ , 6 y 0 y q 0 y ` t.K.G.`.!.}.V.V.F.M.8.u.c.k.+.@.",
"C.u.q.J.,X3X<X5X6X1X/.M.r.A a ; ; f !.7XyXsXlXlXzXjXyX.X) 6 - o o @ @ @ @ @ - ; ; 1 6 8 q y 0 0 Z X.3.b.Q.F.b.x.b.k.j.r.z.p.r.+.",
"t.t.2.S.!.=X*X,XoX!.p.X.m 0 - - n I.rXiXsXsXgXgXyX7XI.-.8 ; @ + $ + + o o = @ = - - ; , 6 q 0 8 6 y R 3.7.8.8.r.i.j.l.h.q.0.2.0.",
"r.%.q.m.J.|.&X|._.j.X.m 0 - - n L.7XyXgXsXyXyX5X.Xs.C 8 < = + + + + + o + + @ @ - @ + @ ; ; ; ; , ; 8 E ] ) { 2.7.r.k.6.8.0.2.2.",
"u.0.+.D.D.^.K._.m.+.n 0 ; - t 6.-XeX7XrX1X-XL.-XL.[ 1 ; ; ; ; - = = + @ = - = - = @ + @ - - - - @ = = 7 B ) C ^ X.%.' -.$.&. .X.",
"r.2.X.k.D.D.M.x.4.Z y 1 - 7 R c.1XL.s.s.d.t.u.t.t.E 1 ; 8 V V 6 , ; - - - - - ; < - - = = - - = @ + + + 3 C ) ! ` ~ Q ^  .} ` ) ",
"O.@.@.t.x.M.l.i.W n 6 ; ; n } K...B y E  .^ l y 6 - @ ; t ` ~ M t 6 ; ; - - - ; ; - - - - ; ; - = @ + + + 3 E { E R E ^ ~ ^ P I ",
"5.O.+.w.k.k.w.X.m q 1 ; 6 Q ^ 6.l 8 0 p C n t 6 < - 1 } c.j.3.~ Z g 0 1 , , 6 6 6 , ; , , 1 1 1 7 < : @ + @ 7 C ~ E E E ~ Q B B ",
"4.4.{ 8.@.0.` ^ n 0 ; ; f ^ F I t 8 8 y M E y 8 t y R c._./.q.7./ Z g a a n m A m m n a 0 0 0 0 8 6 < - @ @ @ 8 I ! V Q _ ' B B ",
"+. .[ { @.+.` V g 6 , , M R B B t 8 8 y C ! n M [ } -.+.b.x.i.4.X.A Z Z A A Z A { ` A g q y y q 0 8 1 ; @ @ @ - l E Q ~ O...c l ",
"~ ( ) 2./ { ^ m t 8 1 1 n B B f r 8 t n n m Z X.` ] A ~ / ^ Z m h g q q 0 q y a y q 8 8 1 8 0 0 6 0 6 < : = = - 8 ~ ) ....$.P n ",
"^ ) { | ( ( S g f t 6 6 B B f t r 8 6 1 0 g m n a g h h n y 0 , , ; ; - - - , , < - = = - @ = = @ @ = = : = - , 6 R o.$.t.s.Y l ",
"C I R +.{ X.Z g y n 8 6 C Q 7 < < - @ @ - 1 , ; ; , ; 6 6 , < 7 7 7 9 9 7 d d a p e 7 7 < @ + o X X X @ ; r y f 8 ^ ..6.s.<.I l ",
"B B R { t.@./ a 8 f l t I Q t 7 , - - 1 y 0 8 1 6 0 t a j t j N p 8 p 8 7 8 t 6 6 6 3 , ; - - = = - - 1 f ` ] C f ` X.s.s.:.K c ",
"f l E +.q.j.2.M 6 y C M B C l f y f f Z R A ~ ~ Z H J *.J #.#.*.G H G G D G N j a q 0 q q 0 y y q q 6 y ^ j.p.] n %...;.=...K P ",
"f f P &.j.l.c.] y 0 E ^ C ^ R R R ~ R m ~ { 3.8.*.*.#.6.g.p.t.s.*.J #.J G N D N N j a g g y g y 0 0 a ~ b.j.r.^ Z O.o.' ..Y K P ",
"f c B ;.v.K.N.x.F t l ..-.+.^ ^ ` ] ~ Z Z X.X.3.2.-.H *.6.s.*.6.} #.D D N j p j a t t p y a q t 0 n R c.M.p.| M ~ 8.O.} ) L K P ",
"l c P ;.R./.K.J.5.y r Q 6.o.] ~ { } ` A Z ` Q C H H G F B c B B x r 9 7 7 7 7 7 7 7 9 8 t y q 8 y ^ c.R.j.4.^ n X.r.-.~ I K c Q ",
"d B K 6.Z.'./.E.c.F 8 l ..o.~ ` ^ [ ( ( M f y t 8 r 9 9 7 7 7 9 9 9 3 3 < < < 3 < 7 7 9 8 y t y M g.F.K.2.O.V C O.r.) Q c c B C ",
"x c K _ f.W.(.!.I.s.f 8 Q o.{ ` { { { / m g t 6 8 8 r s f d y r e 9 7 < < < < < 3 7 9 8 0 t f M -.G.W.g.t.O.n V 3.} I l f c K F ",
"Y T K I d.|.J.!.[.!.I r g 6.X.2.@.+.^ R m n y y y f l F V C l f f s 7 7 < < > 7 9 d t y f n n O.J.!.j.r.g.} f ~ { [ f f f K c B ",
"Y =._ _ ;.G.K.K.I.K.t.f t Q q.7.r.+.` ^ Z n n y M R R ^ ) ` R n l d 9 7 7 7 9 s B B B B C C ` j.W.v.g.c.j.R n ) ] B d d l B B M ",
"L :.=.$._ d.v.G.A.F.x.B 8 l t.x.4.X.{ / m M n V O.x.t.t.t.j.X.) V l f l f B C ` { 6.O.} ` O.x.L.A.v.c.A.[ M C  .R f r x d B P Q ",
"T =.:.=...=.d.j.v.u.r.^ t y X.z.y.+.{ ` m m E [ M.!.K.G.A.M.M.p.r.} ' ..t.d.Z.A.A.j.g.6.6.6.G.G.v.f.Z.f.V M ` ` n s r r c F ^ ) ",
"=.,.=.:.=.:.' ' ..u.@.5.V y E k.i.y.| ( ` +.3.c.K./.d.j.b.C.j.K.A.K.Z.L..X}.Z.!.v.j.-.-.-.A.j.Z.f.Z.u.} M R ) V f s 9 d P _ Q I ",
"=.:.:.=.:.' P 9 K s.-.-.2.V 8.9.a.k.8.| 3.p.R.).|.K.c.g.M.v.A.A.).J.L.A..XI.L.L.G.6...$.j.Z.d.t.c.d.d.R C ) R f d s d c Y =.P n ",
"Y ,.:.,.=.L u 2 7 L ' ] X.8.u.C.@.b.v.M.3.z.Y. X.X(.].}./././.].}.+X$X7X$X$XI./.s.6.-.t.q.p.6.f.u.L.;.Q E ) n f l c c Y Y Y I _ ",
"L :.,.,.:.c 5 * * 4 i ' b.x.m.J.6.0.Y.F.z.x.E.|.#X|.#X#X+X#X#X-X5X7XwXrXwXU.d.j.t.6.6.6.6.6.6.d.f.f.s.^ ) n d f Y K K L I T ' _ ",
"b =.=.=.T c 5 * * 2 4 x j.}.W.oXx.8.p.E.D.C.b.R.-X4X$X#X1X7X-X5X7X6X$X$XI.s.} j.j.g.} 2.2.6.$.s.f.f...` ^ r 7 r K K l b Y ' $.;.",
"z Y T T T x 2 % * * * w ,.OX=X+XK.4.8.x.m.D.M.A.+X.X}.#X-X-X}.-X5XL.G.c.d.;.g.6.6.} [ { q.r.t.d.G.d.s.^ K d 7 9 l Y b K Y =.s.d.",
"w K Y =.L d * % & & * w K -X,X:XK.x.w.b.j.M.F.J.G.K.G.K.x.M.j.A.d.c.j.b.r.g.-.-.` ` ) %.-.c.A.I.f.d...P i k w e r P P L K T s.s.",
"w x Y Y K w & % % & * 5 d L.tX4XQ.j.t.@.j.K.W.E.J.~.F.N.v.j.g.6.6.6.3.-.+.X.X.X.} ) ..%.u.N.R.(.!.:.L b z k u r 9 r f P Y Y x i ",
"5 w v b d w # # % & & > 9 I.wXqX!.v.$.v.[.&X!.]..X`.g.v.N.N.6.6.-.O.~ ` ] 2.{ &.X.t.) ' c.).W..Xd.=.d w K z u u > < 6 d x e < 4 ",
"% & 2 5 k 5 % O # # & * 7 d.yXqXE.6.M.#XeX6X-X.X#X[.K.J./.C.x.p.w.$.^ R ) ` ` O.6.g.o...K.`.OXI.s.K d 5 u w 4 w < % : > > < < > ",
"O O # * 4 4 * O # # & > 3 d.yX8X:.I.<XyXwXiXeXyX%X:X#X-X'.^.G.!.b.j.) E E [ } 6.q.l.6.J.!.XX{.A.Y x z u 2 2 : 4 & # : < < 7 3 i ",
"O O O % & 2 * O O O % : f (.yXiXgXgXaXiXsXgXlXkXdXsXiXiXrX5X&XOX&X}.6.I Q _ ) $.6.l.K./.;X>XL.Y K i w 5 > : & & O # > 7 s d d x ",
". . . # % * & # . O $ < $.%X8XgXkXlXhXgXgXkXhXlXlXlXpXgXhXdX5X7X6XeX$XZ.=.I F  .v.!.H.$X5X$X' K c w * * & & O O O # & < 9 r r i ",
". . . O # & % # . X # d d.<XuXuXgXhXhXuXpXpXpXpXfXfXpXpXpXpX9X9X9X9X9X9X9X1.T ,.Z.U.U.$X2X1.b v z w * & & # O O # # % * 5 5 w u "
};
