/* XPM */
static char *out[] = {
/* columns rows colors chars-per-pixel */
"64 64 206 2 ",
"   c #2B1608",
".  c #4A2415",
"X  c #5C2C1A",
"o  c #68321E",
"O  c #583F2A",
"+  c #763A24",
"@  c #7E3D26",
"#  c #63432F",
"$  c #6E402D",
"%  c #6A4D37",
"&  c #77523D",
"*  c #7F5D46",
"=  c #814A35",
"-  c #8E4B34",
";  c #96523A",
":  c #865540",
">  c #8C5D46",
",  c #9D5943",
"<  c #955F49",
"1  c #A45E45",
"2  c #89664F",
"3  c #9B644E",
"4  c #916A53",
"5  c #9A6F56",
"6  c #AB644A",
"7  c #A16851",
"8  c #AD6D51",
"9  c #A86D58",
"0  c #B36A51",
"q  c #B76F53",
"w  c #A1765D",
"e  c #A7755C",
"r  c #AE755B",
"t  c #B4715D",
"y  c #B97658",
"u  c #A87B63",
"i  c #AE7D64",
"p  c #B77764",
"a  c #BD7564",
"s  c #B27861",
"d  c #B47F64",
"f  c #BB7E63",
"g  c #C1785B",
"h  c #C87E61",
"j  c #C07B6B",
"k  c #AC836B",
"l  c #BE8466",
"z  c #B3876E",
"x  c #BA876A",
"c  c #BF8B6C",
"v  c #B78C72",
"b  c #BC8E72",
"n  c #C38264",
"m  c #CC8566",
"M  c #C78568",
"N  c #C4816F",
"B  c #C48A6C",
"V  c #CC8C6D",
"C  c #CC8C6E",
"Z  c #D18969",
"A  c #D48C6E",
"S  c #D88F6F",
"D  c #C88973",
"F  c #D08B78",
"G  c #C39072",
"H  c #C69677",
"J  c #C89172",
"K  c #CC9475",
"L  c #CA997A",
"P  c #CF9C7E",
"I  c #D19071",
"U  c #D09072",
"Y  c #D29172",
"T  c #D09273",
"R  c #D39273",
"E  c #D49374",
"W  c #D59475",
"Q  c #DA9472",
"!  c #DD9876",
"~  c #D79778",
"^  c #D1967C",
"/  c #D89778",
"(  c #D59A7B",
")  c #D9997A",
"_  c #DB9A7A",
"`  c #DA9A7B",
"'  c #DC9B7B",
"]  c #DB9C7D",
"[  c #DA9D7E",
"{  c #DE9D7D",
"}  c #DC9D7E",
"|  c #DD9D7E",
" . c #E09E7D",
".. c #E29F7D",
"X. c #E2A07F",
"o. c #DD9E80",
"O. c #DE9F80",
"+. c #DF9F80",
"@. c #DD9986",
"#. c #D4A082",
"$. c #DFA081",
"%. c #DCA386",
"&. c #DCA88A",
"*. c #DFAB8E",
"=. c #DFAF94",
"-. c #E0A081",
";. c #E0A182",
":. c #E1A283",
">. c #E3A282",
",. c #E4A281",
"<. c #E4A383",
"1. c #E5A383",
"2. c #E6A483",
"3. c #E5A484",
"4. c #E6A585",
"5. c #E7A686",
"6. c #E8A786",
"7. c #E8A787",
"8. c #E9A887",
"9. c #E0A58A",
"0. c #E3AC8D",
"q. c #E7AD8F",
"w. c #E8A888",
"e. c #E9A989",
"r. c #EAA989",
"t. c #EAAA8A",
"y. c #EBAA8A",
"u. c #EBAB8B",
"i. c #EBAC8C",
"p. c #EBAE8F",
"a. c #ECAC8C",
"s. c #ECAD8D",
"d. c #EDAD8D",
"f. c #EDAE8E",
"g. c #ECAE8F",
"h. c #EDAE8F",
"j. c #EDAF90",
"k. c #EEAF90",
"l. c #E4B195",
"z. c #E9B193",
"x. c #EDB091",
"c. c #EFB090",
"v. c #EEB192",
"b. c #EFB192",
"n. c #EFB293",
"m. c #ECB496",
"M. c #E6B599",
"N. c #EAB79A",
"B. c #EEB899",
"V. c #EEBC9E",
"C. c #F0B293",
"Z. c #F0B394",
"A. c #F1B495",
"S. c #F0B496",
"D. c #F1B596",
"F. c #F1B597",
"G. c #F2B596",
"H. c #F2B698",
"J. c #F2B798",
"K. c #F2B799",
"L. c #F3B899",
"P. c #F2B89A",
"I. c #F3B89A",
"U. c #F3B99B",
"Y. c #F4B99B",
"T. c #F4BA9C",
"R. c #F4BB9D",
"E. c #F5BB9D",
"W. c #F5BC9D",
"Q. c #F5BD9E",
"!. c #F5BD9F",
"~. c #F5BE9F",
"^. c #F1BFA1",
"/. c #F5BEA0",
"(. c #F6BEA0",
"). c #F6C0A2",
"_. c #F6C1A2",
"`. c #F6C1A3",
"'. c #F7C2A3",
"]. c #F6C3A4",
"[. c #F7C3A5",
"{. c #F2C4A5",
"}. c #F7C5A6",
"|. c #F7C6A7",
" X c #F7C7A8",
".X c #F7C8A9",
"XX c #F0CBAD",
"oX c #F4CDAE",
"OX c #F8C8A9",
"+X c #F8C9AA",
"@X c #F8CAAB",
"#X c #F8CBAC",
"$X c #F8CCAD",
"%X c #F8CDAE",
"&X c #F9CEAF",
"*X c #F3D1B3",
"=X c #F7D1B2",
"-X c #F0D4B6",
";X c #F6D4B6",
":X c #FAD3B4",
">X c #FAD7B8",
",X c #F1D8B9",
"<X c #F7D8BA",
"1X c #F5DBBB",
"2X c #F6DDC0",
"3X c #F9E1C3",
/* pixels */
"l.t.{ o.^ ^ #.&.&.l.l.l.l.N.l.m.=.z.z.N.l.m.m.m.z.M.q.m.q.q.9.0.9.0.9.4.:.w.%.%.O.$.[ ) ) [ ) [ ~ ) ~ ) ( ) T T D C C U C Y C U ",
"*.y.;.O.#.#.%.%.*.*.l.l.z.N.l.=.=.q.l.l.m.m.n.p.z.z.q.z.z.q.q.0.9.*.*.9.9.4.4.:.<.O.} [ ;.o.' ` ` ` ` ~ } ( ^ ^ T C U U E W R U ",
"K ;.` ' %.q.9.*.l.l.*.l.m.F.z.z.x.m.q.n.m.B.z.N.n.n.q.z.x.p.w.p.h.p.:.<.t.h.4.w.w.<.) ` O.;.` O.{ ;.) o.$.#.J B D R V C R E V A ",
"K { ) [ 4.p.m.S.N.N.m.m.!.T.B.m.L.K.m.B.T.L.K.F.!.H.S.S.L.K.Z.F.m.n.h.y.p.k.i.t.g.1.| } >.;.{ o...;.o.} ;.#.K B B D D M C C C m ",
"O.r.4.b.b.T.T.(.F.E.I.W.U.!.P.W.T.E.Y.R.U.T.H.W.U.T.U.U.L.P.n.n.p.C.g.x.q.g.t.8.1.-. .;.` -.' o.{ ;.O.O.} ( T U C C V C Z Z m A ",
"h.Z.Z.S.I.K.T.T.E.!.I.H.E.P.K.K.Y.I.H.E.!.K.K.K.I.K.H.S.G.n.h.p.x.c.p.t.y.t.w.1.-.{  .' } { ' } { o.[ #.( K T C C V V M Z Z A Z ",
"h.H.S.W.T.W.n.I.T.R.n.F.Y.W.n.I.Y.T.n.K.K.I.p.K.U.!.n.L.K.h.y.h.h.h.4.t.r.p.3.1.{  .' ` {  .W [ $.;.) } ^ T M M V M n M M m m m ",
"x.S.L.L.I.Y.H.S.T.U.S.H.W.H.S.S.E.L.K.K.T.I.S.H.!.U.L.K.H.x.p.g.Z.8.r.7.k.h.w.-. .| ' ` ;.[ ` ` ;.[ ) ^ W U D l M n l l M m n h ",
"H z.z.F.F.W.T.I.n.D.F.Y.Y.W.K.S.S.z.K.T.n.W.H.W.F.!.L.Y.A.S.x.b.4.i.u.s.h.x.p.t. .} [ O.} -.} ;.} } W W U U n M l n g h n h h h ",
": d ~ w.S.L.L.A.S.h.K.K.T.I.H.h.z.q.n.L.(._.).)._.~.T./.L.n.h.q.u.t.h.u.d.d.d.8.>.} O.o.$.o.;.o.} W E Y U Z m g g g y g g g g g ",
"= > 9 B w.L.k.Z.n.k.h.H.T.Z.t.C.i.x.p.Y.W. X(.~./.(.m.p.0.%.R ^ ^ [ T T ~ ;.o...o.;.) O.O.4.` o.` o.T R U Z f g y y 8 q g g y g ",
"9 3 3 f T <.d.k.s.a.t.x.C.j.i.4.t.u.t.S./.W.K.S.z.#.J x 9 < < > < 7 7 9 s l B D ^ W W [ ;.[ [ ) [ [ T C C M n a y t t t a g y g ",
"^ l p f n ) 7.k.h.a.g.h.t.f.7.;.o.r.t.b.A.x.o.B 7 : = $ X X X . X o + = : 7 9 r t y f C ^ ` ~ ` W ~ U C M M n f y y y y t a y g ",
"T B c M V T <.7.p.a.a.r.u.8.} W ~ ) O.:.<.E p 3 = + o X X X X X # + & = = : > < 3 7 3 8 y M C T ~ E U D l n f f f f a g y y y y ",
":.T y f M / ` r.t.p.<.t.h.t.U V C U V U V f , : = + $ + @ : > 9 d H x f r 9 7 7 3 < > 1 3 9 6 y n V n n f f r y y y 0 q y g 0 q ",
"( W M q y C ) 2.y.r.7.t.t.6.U g M n n f f 8 ; : : : - , r l K [ q.0.4.9.;.[ ^ D M t 1 3 7 3 3 3 7 9 9 8 r 9 9 8 r 9 0 6 0 0 6 6 ",
"% < 9 q 0 a C -.7.p.6.7.7.>.W M a f f y 8 6 ; ; ; 3 1 y n R ` ;.o.4.<.w.<.w.<.4.O.~ l s r 8 7 3 3 3 < 7 3 3 3 6 1 1 1 6 1 6 6 1 ",
"    X $ < 8 M W y.b.d.8.y.1.` U M f y 8 1 , ; , ; , , 8 n C Y U C M V M C Y W ) [ ~ T C C f t 7 7 3 3 3 < 3 < 1 1 1 1 1 6 6 6 6 ",
"    . X $ : 9 U 4.W.A.x.b.d.) E m n 8 6 1 < - - = = 1 V o.q.w.4.:.| C n y r 6 y M R C T R C f t 8 9 3 9 9 9 7 9 6 8 7 6 8 8 8 0 ",
"O O X % = + + f 4._.].R.W.A.4.R n 8 6 1 ; - @ + @ 8 j B T #.o.[ o.~ W T C y , - ; y M U E M M f n f t y f f y 6 8 8 8 8 t t y a ",
"u u i x 9 3 ; f 7.'.&X%X/.W.r.U 0 6 6 1 - - + o = , > = = > & < 7 r r p r s 9 < = : 8 U E ~ T Z h M M m h m y y r y t y f n n n ",
"O.W Y W Y E | 4.F.].;X:X XL.-.h 0 8 0 , 3 6 ; = = = = $ .         . X X o # # # # $ = f D M f f f M m m m n f f y y t t y f f a ",
"R Q A A A U h 4._.&X:X=X].J.E g q q g t M O.W W ) ~ C J d > o X X o X . X X X X X + = 1 6 8 8 n U ) E ) _ ) U U M n y a n n f n ",
"U m g q 0 g :.(.OX&X&X@X_.b.E g q g A ! | >.2.{ | / {  .;.W l f x l s 9 r 9 , 3 8 y f 6 6 f U ' 1.` ..) >. .' U f 8 1 1 8 7 8 8 ",
"8 8 0 a W Y. X@X|.@XOX].S.4.U m h m A 1.8.h.h.k...A h C Z Q Z Z h g g m m Q Q ! Z g 1 6 h ` >.>.) ~ E / E / U M t 6 , 8 6 t t f ",
"n.n.F./.}..X@X%X%X X_.F.4.! S A ~ Q Q ..d.k.b.A.A.y./ g 6 1 8 0 0 0 y g g g y 6 , ; y ! 2.4.r.4.7.;.| / / ) ~ ~ U y 8 8 y f d d ",
"_.|._.@X@X%X@X$X%X&XK.t.| E A ! >.4.2.4.k.c.u.A.L.T.x.S.n.<.C f 8 6 , , , 6 6 t V ..2.p.v.d.-.4.2.8.{ >.>.6.{ ..E n 8 9 8 r t t ",
"].OX@X@X@X%X%X&X&X'.Z.-.Q A A Q >.8.y.d.k.b.h.Z.L.K.L.K.R.~.(.(.(.J.p.w.p.n.F.J.L.K.b.x.A.d.-.| ..2.1.4.r.7.6...~ n 8 8 t t t t ",
"%X%X%X%X@X&X;X;X].T.h.>.S U Z A A Q Q '  .8.h.A.S.W.H.I.K.(./.].).].(._.W.'.W.T.I.L.k.b.d.d.4.2./ 2.-.7.2.2.3.1.Y M r t t f f l ",
":X&X=X%X%X&X<X:X'.H.x.7...Q Z h h h h g q y m 2.Z.Y.W.L.~.W.'.].'. X X|._.[.T.H.S.k.h.h.t.g.r.4.>.| ..4.7.1.>.X.Y n t t y f n M ",
"&X&X'./. X&X<X@X_.L.u.d.d.4.m h h S Q A h 8 , 8 R p.k.Y.W.'./.].@X%X].@XOX'.Y.L.n.b.4.a.u.b.7.r.7.-./ >.4.2.` ) E V y f n V n m ",
"(.L.7.7.'.&X;X@X_.H.S.Z.Z.>.A m A ..y.r.1.A 6 - , f W 4.F.W.'.].@X@X[.|. X`.~.Y.H.h.h.a.h.c.u.4.7...) } 1.| _ _ Y M f n U U V C ",
"..Z q ~ _.:X;X&X/.W.Y.W.4.Q m A ! 8.y.8.{ Z 0 ; - 1 6 M [ b.H.W.].'.T.).(.E.T.T.F.b.d.d.s.C.u.d.1.4.' [ ` ` ) T D V f n V C K U ",
"q ; 6 p.&X<X3X<X@X'.Y.;.V g g g m m h g y 8 1 1 0 0 6 6 f ' 4.x.H.H.S.S.I.H.Z.C.c.a.d.f.f.a.h.8.1.-./ W { W W T C M n f U U R U ",
"- - T ].;X3X3X3X&X'.[ f 8 1 - = = = + @ - 1 1 q h g q y q g M [ w.k.h.A.S.Z.u.a.a.x.2.y.h.k.2.u.>.;.E W ~ ) J ^ T E n n V Y m m ",
"= f N.%X<X3X<X:X X0.f , = o + + = + + @ - ; , 1 0 q y g h t 8 f T ' 1.4.h.7.6.4.t.u.6.6.t.7.>.,.-.+.E J W K K T ( K M M R I A V ",
", ( /.:X&X&X X~.9.C 1 - + + + + + $ $ @ @ - - ; ; , 6 q 0 6 1 1 6 M R { | ..| >.;.r.7.2.O.;.{ [ ) ) J K J K T ^ T ^ Y T R W Z A ",
"f 9./.]./.K.x.%.n 1 - @ + + + + + @ + @ = - - = = = ; ; ; ; - - - ; f U W W / / ) -.-.` } ` ) W W J J B J K W K ^ T ^ ) [ W R Z ",
"J 4.` [ <.4.O.W f 1 - 1 8 3 - = - : = : - ; - @ @ = = - ; - @ = = = - t T o.W ` ~ | E E W / C Y R J B D K ^ J ^ T ( } o.;.) m U ",
"T K y n T D y 8 ; = ; f T y , ; ; - - - ; 3 ; : - ; = - ; - = + & + + = 9 T } [ ' E Y Y W E U Y W B D l T ^ R J C T ( } ( Y m m ",
"J f 9 t n y 6 6 - 6 U ) W V t 6 , ; - - ; ; , ; ; ; ; ; ; , < > = = + + + 7 n ) Y W R W Y W I Y U B M B C W T J B T J K K K m Z ",
"J r 9 r n f r r y ) p.a.4./ V g 8 1 , ; 1 6 1 , , , ; 1 6 6 8 7 7 > : @ = = ; y Y Y U Y W W ) W / B c l C ^ ~ B l l B C K C Z m ",
"B s 7 s n n y U ~ 1.:.y.w.>.S m g g 8 q g m g y y q 6 6 q q 0 0 6 1 - = = : = ; f E U ~ ' } / ' ( K l c J ^ J c l B l J C U V Z ",
"B 9 < 3 9 f Z E E Q Q Q | ' Q Z Z m m m m m m m m g q 0 y q 0 8 0 8 3 > : = : - 8 V ~ ~ ' ' ;.[ +.^ B B J ^ J B c B B K D C C C ",
"B 9 - @ @ ; 6 0 q g h m g g q q 8 6 , 6 6 8 8 0 1 , 1 6 1 1 1 1 1 6 , , : ; ; 6 6 f Y  .} | { ;.' ^ B B D K B B c H J ^ l M n D ",
"l l 1 , 1 1 1 , , 1 1 , 1 ; ; - - - - - - - - = = @ @ = - = @ @ = = = - , 8 y f l t W  .;.{  .{ ' T D C G J c c B H L J B B B n ",
"M W M n V Z m V U U N N N N j a a a a a a q 8 6 1 6 1 6 0 0 6 6 6 6 1 8 m  ./ O.U n E ..>.O.` ' ) ^ B D B J d x x J c B D D l M ",
"J ` ~ Y A Z E | >.@.o.:.w.9.O.@.^ U F N N N N N N n g a h a g g g y M / k.w.-.4.Y m E } 1.{ ' W W J B n B x d d x c x c K J B B ",
"J C W ( A A W ) ^ W W @.^ ~ W T f p a s 8 N j y y g g g g g q y a A >.Z.Z.r.4.>.C V / >.-.>.) ~ D D B c x d d x x d x B D K T U ",
"P T U ~ W Z M y s s s r r r t r 9 7 7 3 < 7 7 7 8 r r r y q t g m ..x.A.x.4.4.| V V  .;.>.} T D B B l l d d f x f d J J J ( ( ^ ",
"P &.J R ' W f 8 6 3 , 3 9 r 9 9 9 7 > < < 3 < 3 7 9 6 r y f y V o.h.h.k.t.h.:.W n C ) ..} [ V M B B f f s x d d t G B J ^ [ ^ J ",
"#.&.) T [ W M y r 6 7 8 f f y s r 9 3 3 3 3 7 3 9 8 t y f n C W p.k.g.g.Z.p.<.V M R ) ` ) E M B J B f e d d d s x G J L #.^ J l ",
"L %.( K T W C n t y 9 y V J B M f p 9 9 7 9 r s f M C E C W [ 1.t.n.n.n.h.x.;.E V / { ` U U C J D C r 9 r B f x x J H P L L ^ ^ ",
"L #.#.^ J K W U n y y M ) o.` ~ ^ T T K B J ( o.9.q.y.t.y.w.w.t.q.n.z.t.w.9.O.W U ~ | / C C C V T M r 7 s d G G B B J J L ( o.^ ",
"b #.P ( G K ) { ~ m g Q -.x.O.O.[ >.{ w.w.p.q.m.K.B.x.k.w.q.9.9.0.z.4.w.<.9.W W W } ) ) R E U K T c r 9 9 9 i L B B l G L %.$.%.",
"z L P P G B J } 8.{ Y 1.h.H.h.p.h.i.t.d.n.S.n.F.V.R.n.p.p.w.9.;.q.0.9.-.9.} [ W O.} ) ^ } ` ^ T ^ f d d d e 9 x J B B B ^ ( 9.*.",
"w G L P G i 7 G 9.w.t.b.d.Z.S.Y.n.F.B./.H./.).]./.|.T.n.o.<.9.w.%.<.} o.) } [ o.] ] ;.:.} ( ` ( J d d f i w r r d J J J K ( [ #.",
"w z H P c 9 & 4 d [ x.A.x.7.k.b.A.Z.L.I.W././.W.].'.!.l.q.q.5.<.4.o.W W ~ E ` } o.:.5.w.w.%.[ ^ J i x c d u u e 7 s l J ^ H d e ",
"5 w b b d 7 # & > i J p.(.S.4.t.a.x.q.A.I.I.x.x.n.n.:.w.w.f.5.5.o.[ U / / } W o.9.0.9.i.n.n.o.^ J u 4 G x z u 7 = < 7 d d 5 4 4 ",
"% * 4 4 k 4 # O & * 4 l /.].h.w.w.p.J.P.Q.L.b.j.x.u.4.>.4.;.-.} O./ ~ W } ' $.:.o.<.q.n.W.K.9.^ J d w w u 7 3 3 & + : : > < < 4 ",
"O O # > 4 4 % O O % * < ( @X].:.0./.[.+X_.[.W.T.S.L.n.C.e.r.4.-.W W U E / O.;.<.O.>.j.K.K.).0.L x i d 4 4 > : 4 % % > < 3 9 5 i ",
"O O O % > 2 * O O O & : T ].&X&X;X>X:X:X:X<X<X&X&X%X@X+X'.T.~.T.S.4.^ T ^ W ` o.:.h.S.P./.'.*.H G e w 4 2 * & & O # < 7 r d f x ",
". . . # % * & # . O $ < o./.+X<X2X3X1X<X<X2X1X3X3X3X<X<X1X>X}.OX|.#X^.l.#.K D ] p.F.m./.}.V.P G c w : * & & O O O # & < 9 r r d ",
". . . O # & % # . X # d 0.'.&X*X<X1X1X*X-X-X-X-X,X,X-X-X-X-XXXXXoXXXXXXXXX=.P &.M.N.V.V.{.=.b v z w * & & # O O # # % * 5 5 w u "
};
