/* XPM */
static char *out[] = {
/* columns rows colors chars-per-pixel */
"64 64 222 2 ",
"   c #2B1608",
".  c #4A2415",
"X  c #5C2C1A",
"o  c #68321E",
"O  c #583F2A",
"+  c #763A24",
"@  c #7E3D26",
"#  c #63432F",
"$  c #6E402D",
"%  c #6A4D37",
"&  c #77523D",
"*  c #7F5D46",
"=  c #814A35",
"-  c #8E4B34",
";  c #96523A",
":  c #865540",
">  c #8C5D46",
",  c #9D5943",
"<  c #955F49",
"1  c #A45E45",
"2  c #89664F",
"3  c #9B644E",
"4  c #916A53",
"5  c #9A6F56",
"6  c #AB644A",
"7  c #A16851",
"8  c #AD6D51",
"9  c #A86D58",
"0  c #B36A51",
"q  c #B76F53",
"w  c #A1765D",
"e  c #A7755C",
"r  c #AE755B",
"t  c #B4715D",
"y  c #B97658",
"u  c #A87B63",
"i  c #AE7D64",
"p  c #B77764",
"a  c #BD7564",
"s  c #B27861",
"d  c #B47F64",
"f  c #BB7E63",
"g  c #C1785B",
"h  c #C87E61",
"j  c #C07B6B",
"k  c #AC836B",
"l  c #BE8466",
"z  c #B3876E",
"x  c #BA876A",
"c  c #BF8B6C",
"v  c #B78C72",
"b  c #BC8E72",
"n  c #C38264",
"m  c #CC8566",
"M  c #C78568",
"N  c #C48A6C",
"B  c #CC8C6D",
"V  c #CC8C6E",
"C  c #D18969",
"Z  c #D48C6E",
"A  c #D88F6F",
"S  c #C88973",
"D  c #CC8A78",
"F  c #D08B78",
"G  c #D38E7E",
"H  c #C39072",
"J  c #C69677",
"K  c #C89172",
"L  c #CC9475",
"P  c #CA997A",
"I  c #CF9C7E",
"U  c #D19071",
"Y  c #D09072",
"T  c #D29172",
"R  c #D09273",
"E  c #D39273",
"W  c #D49374",
"Q  c #D59475",
"!  c #DA9472",
"~  c #DD9876",
"^  c #D79778",
"/  c #D1967C",
"(  c #D89778",
")  c #D59A7B",
"_  c #D99878",
"`  c #D9997A",
"'  c #DB9A7A",
"]  c #DA9A7B",
"[  c #DC9B7B",
"{  c #DB9C7D",
"}  c #DA9D7E",
"|  c #DE9D7D",
" . c #DC9D7E",
".. c #DD9D7E",
"X. c #E09E7D",
"o. c #E29F7D",
"O. c #E2A07F",
"+. c #DD9E80",
"@. c #DE9F80",
"#. c #DF9F80",
"$. c #CFA186",
"%. c #D4A082",
"&. c #DFA081",
"*. c #DCA386",
"=. c #D8A485",
"-. c #D7A88D",
";. c #DCA88A",
":. c #DFAB8E",
">. c #DBAB91",
",. c #DFAF94",
"<. c #E0A081",
"1. c #E2A181",
"2. c #E3A181",
"3. c #E0A182",
"4. c #E1A283",
"5. c #E3A282",
"6. c #E4A281",
"7. c #E4A382",
"8. c #E4A383",
"9. c #E5A483",
"0. c #E6A483",
"q. c #E5A484",
"w. c #E6A584",
"e. c #E6A585",
"r. c #E7A685",
"t. c #E7A686",
"y. c #E8A786",
"u. c #E8A787",
"i. c #E0A58A",
"p. c #E3AC8D",
"a. c #E7AD8F",
"s. c #E8A888",
"d. c #E9A888",
"f. c #E9A989",
"g. c #EAA989",
"h. c #EAAA8A",
"j. c #EBAB8B",
"k. c #EBAC8C",
"l. c #EBAE8F",
"z. c #ECAC8C",
"x. c #ECAD8D",
"c. c #EDAD8D",
"v. c #EDAE8E",
"b. c #ECAE8F",
"n. c #EDAE8F",
"m. c #EEAF8F",
"M. c #EDAF90",
"N. c #EEAF90",
"B. c #E4B195",
"V. c #E9B193",
"C. c #EDB091",
"Z. c #EEB090",
"A. c #EFB090",
"S. c #EEB091",
"D. c #EDB192",
"F. c #EEB192",
"G. c #EFB192",
"H. c #EFB293",
"J. c #ECB496",
"K. c #E6B599",
"L. c #EAB79A",
"P. c #EEB899",
"I. c #EEBC9E",
"U. c #F0B293",
"Y. c #F0B394",
"T. c #F1B495",
"R. c #F1B596",
"E. c #F1B597",
"W. c #F2B596",
"Q. c #F2B697",
"!. c #F2B698",
"~. c #F2B799",
"^. c #F3B799",
"/. c #F3B899",
"(. c #F2B89A",
"). c #F3B89A",
"_. c #F3B99A",
"`. c #F3B99B",
"'. c #F4B99B",
"]. c #F4BA9B",
"[. c #F4BA9C",
"{. c #F4BB9D",
"}. c #F5BB9D",
"|. c #F5BC9D",
" X c #F5BD9E",
".X c #F5BD9F",
"XX c #F1BFA1",
"oX c #F5BEA0",
"OX c #F6BEA0",
"+X c #F6BFA0",
"@X c #F6BFA1",
"#X c #F6C0A2",
"$X c #F6C1A2",
"%X c #F6C2A3",
"&X c #F7C2A3",
"*X c #F6C3A4",
"=X c #F2C4A5",
"-X c #F7C4A6",
";X c #F7C5A6",
":X c #F7C6A7",
">X c #F7C7A8",
",X c #F7C8A9",
"<X c #F0CBAD",
"1X c #F4CDAE",
"2X c #F8C8A9",
"3X c #F8C9AA",
"4X c #F8CAAB",
"5X c #F8CBAC",
"6X c #F8CDAE",
"7X c #F9CEAF",
"8X c #F3D1B3",
"9X c #F7D1B2",
"0X c #F0D4B6",
"qX c #F6D4B6",
"wX c #FAD3B4",
"eX c #FAD7B8",
"rX c #F1D8B9",
"tX c #F7D8BA",
"yX c #F5DBBB",
"uX c #FADDBE",
"iX c #F6DDC0",
"pX c #F9E1C3",
/* pixels */
",.F.w.2.Q N k k w z J I P -.>.J.,.L.B.,.>.,.>.B.:.,.,.B.B.B.,.,.>.>.>.,.p.K.B.B.>.,.;.:.i.f.p.a.4.i.4.i.4.4.` { Q Q ( { _ _ R T ",
":.h.c.0.X.N d k u k P I I -.,.D.B.B.:.>.>.>.,.,.,.,.B.B.B.B.:.,.,.>.:.>.B.B.K.a.p.:.;.;.p.p.:.q.j.h.h.i.i.h.f.w.7.1.1.| 1.| [ ( ",
"J o.| O.| K i i e x K I I ,.,.B.B.:.%.-.>.,.>.,.K.K.B.K.P.L.,.,.B.,.;.>.V.K.,.,.,.V.:.C.V.~.B.G.G.G.h.x.n.N.w.y.y.y.| 1.7.<.' [ ",
"b Q Z Z M d i u w x L I I ;.,.,.:.*.-.:.C.K.K.J.{.{.P.P.XX{.P.P.XXXXXXXX*X*XOXOXOX}.~.!._._.J.N.R.S.l.k.G.l.k.w.h.t.7.1.8.<.X.` ",
"x ^ Z C M l u k i x L I P ;.*.p.p.V.J._.!.}.P. XXX-XXX$X$X$XI.}.~.}.}.{.XX;XXXXX).}.P.).P.R.H.G.n.S.N.U.l.f.7.q.4.u.e.2.{ 4.| ` ",
"v ) Z Z B N k k k x ) %.+.;.p.i.4.p.p.i.i.p.C.[. X#X$X@X@X%X%X@X#XXX_._.#X*X%X@X~.!.{.!.P.N.n.V.H.N.l.l.v.w.7.q.u.e.5.#.X.1.| ` ",
"z ` C C C N i u i c R +.=.p.R N f d e 7 7 e d +.S. XXXOX%X&X[.oXoX XN.~.[.%X{._.Y.!.J.~.Y.Y.f.n.U.U.k.N.c.k.3.1.0.t.[ ..q.y.` { ",
"v Q C m C n d e i l R I *.K 7 = & $ # O O O # = i K *.a.OX}.@X+X_.C.n.U. X&XoX~.G.n.n.C.'.G.F.l.}.R.l.n.U.j.u.1.t.1.X.7.f.w.1.{ ",
"k E C C m n s u i n Q ) n 3 : 7 e i 2 $ # $ $ & : 7 s R i.'.!.}.~.x.t.S.Y.|._.!.t.h.k.G.Y.OX'.OX_./.W.W.G.h.4.1.{ 5.1.q.w.y.8.1.",
"z U C C m M f e i Y | R p f %.B.J.P.P.:.P x i e 7 7 s M Q e.!.W.N.y.4.f.~.^.R.n.4.4.t.h.T.[.OX{.{.[.Y.n.p.&.` / L ) ) ) / / Q R ",
"v W C m m B s d s +.1.{ &.R.!._.).{.{.XXXXP.p.*./ V l N R ` @.S.N.j.7.y.k./.f.p.1.1. .t.~.].^._.V.p.L K c i 7 7 3 7 7 r r s f l ",
"c L C h M n n f x i.f.f.N.Y.G.Y.[.[.(.XX~.C.p.1.i.) Q R ` { 4.x.G.S.f.e.l.U.h.1.| ` [ 1.x.^.h.) N 7 = = $ # X X X X o = : < 7 e ",
"x R U B n M l l l p.s.k.f.v.a.t.4.i.4.p.4.i.+.+.R Q Q ] ` #.7.N.k.S.f.u.f.n.h.| B V Y Q ^ +.V r < = o X . . . . . . X $ $ $ = = ",
"c K W K N l l d x h.f.d.j.f.q.B B *.J.J.J.n.4.+.Q M l M ^ #.t.8.v.k.j.f.k.l.k._ n n n M M l t ; = + o o X X o $ = < 3 3 < : : : ",
"H P K K c N f d c N.t.l.h.7.M l a.*XP.[.[.N.4.1.#.Z t q n _ { s.c.G.t.u.f.c.e.Q l f y f f t , - = = + = - 3 7 d V ) R L K l s s ",
"I P L K K c c f Y h.N.c.S.W p  .{.V.) N d r e r l l y 0 t n Q | h.a.h.r.h.f.1.W M f t t 8 1 , - - : - ; 7 y l n N N N N L Y S B ",
"I I P P H c c c R q.e.T.j.V l p.%.e $ O . .   . X = , 8 8 f M ^ w.x.n.N.r.f.7.^ n l y 8 1 ; - - - = + @ ; r l n s 8 8 8 7 1 6 f ",
"%.%.%.I P P K l / { w.x.n.W Y B =       . #       . o @ - 6 M A 1.G._.S.S.N.h.{ V f 8 1 , - - @ $ X + 7 r s r e r e s y r 7 - + ",
"%.%.I I %.%.P K { 7.| | w.Q t - X . . O # #       . # o + = 6 _ 1._.*X*XOX}.h.e.Y t ; , ; - + $ . $ = = . . .     . . # $ = & = ",
"%.I %.I %.I I L 4.#.Q n t 6 - 1 n 8 e 7 7 = # O # & < = @ = - [ j._.6X6X:X XR.t.V 6 ; , - @ $ X X o o o O . .                 . ",
"%.%.I I I I I i.p.4.^ A Y V Y { t.h.p.p. ./ c K n n f p y M W x.R.$X9XqX6X:X~.4.f 1 , 6 - ; , ; - 1 p x k i 2 $ # $ & & # # O O ",
";.=.=.=.} %.%.B.P.M.j.N.U.x.7.| y.k.S.t.4.+./ C C Y C Z A A Q x.OX>X9XqXqX$X~. .g 6 1 8 y y W | | ` { { 1.1.` B n M S n s 9 7 3 ",
"p.p.-.;.;.;.L ) 4.f.5.H.^.U.z.G.f.t.[ Q Z A m Z Z Z m m h h _ }.$X6X6XwX6X;XN.] h q 6 g W ( ^ q.1.{ m V ( { A Z m m g g n C C Y ",
"p.:.=.=.;.-.=. .Q [ 5.h./.E._.'.'.7.C m C Z m m h y 6 6 h t.$X$X4X6X3X7X4X}.h.W m g g h C { w.y.x.j.1.B f 6 6 0 q 0 0 0 q q t 1 ",
"*.;.=.*.=.;.;.q.A | j.S.T.OX|.#X*X Xf.[ M g 0 8 6 q l p.{.4X>X:X>X6X6X6X$XOX4.Z h C C ( Q #.w.f.w.f.G.R.h.+.M t 7 1 ; ; ; ; ; , ",
"p.i.:.i.:.;.h.h.1.q.z.R.Q.OX;X@X4X:X@X/.~.x.j.t.C.~.*X;X4X3X4X:X6X9X6X6X;XR.#.C m m A | y.w.2.f.u.f.l.U.~.}.OX}.R.C.w.+.+.4.f.y.",
"l.x.i.p.a.V.h.u.u.f.f.v.Q.*X*X6X9X7X*X@X#XOX~.W.>X4X*X%X3X5X*X6X4XqX3X6XOXY.| A C m h C [ u.[ u.g.z.f.!.'.{.R.OXOX$XR.!.!.}.N.n.",
"b.s.i.i.V.p.#.f.X.7.N.G.'..X>X4X6X7X>X%X&X X'.^.4X3X;XOX,X4X4X9XtXtX7XOX}.n.1.W A m g y y y y g C 7.x.H. X).~.'.@X#X[.[.[.^.Y.S.",
"e.t.4.i.*.*.1.x.[ f.R.}.'.>X>X5XqXwX7X6X_.}.^.>X4X4X*X:X$X6X5X7XuXpXwXOXY.N.t.f.1.A g y y g 6 1 ; y Q G.'.}.).}.OX%X[.#X[._.R.G.",
"9.3.4.+.*.%.f.N.7.l.T.'. X>X:X9XtXtXwX6X;X X>X4X6X4X6X*X*X2X7X7XuXiX9XOXY.n.G.N.n.X.m g m A A h 1 - 1 n 4.G.[.}.@X@X$X%X{.{.[.F.",
"q.0.+.} 3.} | n.g.G.!.OXOX4X%X9XtXiX9X9X6X:X*X>X4X7X_.R._.;X#X6XtXuX>X$X X).Y.Y.f.[ h h A w.[ Q g , - ; t W 1.G._.OXY.R.G.G.h.j.",
"e.O...{ 4.} 3.f.7.m.!.U.;X$X;X4X9XeX7X7X5X2X:X_._.h.A Q l.*X6XqXuXiX4X*X-X/.}.U.( g q g Z ! C h y 1 , , 1 8 M | x.n.N.x./.x.7.q.",
"@.&.} @.@.4.} e.#.j.v.W.}.&X&X4X,X:XOX}.R.Y.7.| m q 0 [ {.$X9XuXtXiXqX7X*X#XXX{ t 1 ; , ; , ; , , 6 q y q 0 8 M W 4.q.j.y.w.7.q.",
"&.| o.} 4.4.t.h.j.h.k.k.'.}.$X#X&X_.G.f.y.( h 0 ; , ^ $X4X4X9XtXpXpXpXqX6XOX .t ; + $ + + + @ - , , 0 0 y y q 8 y B ^ | 1.1.| | ",
"4.<.^ +.3.i.+.G.S.f.u.k.G.}.[.|.}.N.#._ C g ; - 6 *.P.6X9X9XqXuXuXpX4X*X*Xh.y ; @ + $ + + @ + = - - ; , 6 q 0 6 1 0 f Y Q _ Y Q ",
"{ ` Q ^ @.} +.n.j.f.w.r.v.U.W.T.h.| C h y ; - 8 p.XX;X6XqXqX6X6X9X*XP.C.h.M , - + + o o $ + + + = - @ @ ; , ; ; ; ; , y Y Y V V ",
") ^ ^ ) / ) ] j.u.7.| 6.r.v.z.y.Q m g 0 ; ; 8  .~.>X4X7X7X7X;X$X~.J.+.M t 1 - + + + $ + $ + = = = = + + @ - - - + = + : 8 Y Q T ",
"^ E ) E ) / ) 7.q._ Q ~ 6.0.e.( C g 0 , ; 1 B 4.OX>X,X*XXXV.x.n.Y.C. .y , ; ; , , - - - = = - - < - = = = = - = + + + $ = 9 R Q ",
"Y L S K R / R | 7.^ C W [ 0.Q Z n q , , , l R i.}.P.%.) &.&.` ` ` { M 8 ; 1 y N p 7 - ; - - = - ; < - - - : - - : = $ $ $ = 7 M ",
"N M N N K K L ^ #._ Z C ~ o.Q M t 6 , , 8 V Y [ 4.N t y N R B f 8 8 ; @ - 6 n N N p 6 ; , - - - , < - - ; ; ; , 3 < : + + + = 7 ",
"l l l c c N L } X.| Q Z Z ' Z n 8 6 1 1 y B N / N y 8 t f M l y 1 6 ; ; f 4.1._ C M t 8 , , , 6 0 6 6 6 1 1 1 6 , 1 > = + + + - ",
"x l l l c N L ] 4.2.| C C Z C l t 6 , , f S l K f 8 8 8 f l M n 8 t 8 f +.j.h.7.( m h y q q y y g h h g q 6 8 0 3 , < : + + = @ ",
"x c f c c K N { e.h.X.! C C m m f 8 , 1 n N f f r r 6 p l N M M n Y V Q ^ #.[ 1.[ A n h g g q y y y 0 8 0 6 , , , , - : = = - ; ",
"d c x l H H R ) s.k.v.#.W l n Y Y y 6 6 V N s 9 r 8 8 8 t y f M Z W m m Y V m m m a q 6 6 , , ; , ; = @ = @ @ o $ o $ + - 7 8 8 ",
"d c c c l H H ) a.Y.R.A.( l g R Q R f 0 N N r , - - = - - 1 0 y y g a a y y q 0 1 1 ; ; - - - - - = + @ @ @ = = = - - 1 p Y Y l ",
"x H I K H H H ) F.~.~.R.t.M f M [  .R l l n p 8 , , , , 8 q y q y y a q q 0 q q p a j j a a a 0 0 8 6 6 6 8 8 8 6 6 0 M | ] ` f ",
"P I I %.) / K ) a.~.S.E.n.` y M { 4.( ^ E Y n l N V n l f m m Z G G D D D G S G G G S S S l t a a y 0 y y y 6 0 q g m 1.X.` B n ",
"P I I %.%.) L R ;.V.H.R.W.f.N f W #.| [ ..T Y V ( Q Y M n n V R / G G G G Y S F G D f d f 8 8 8 t 9 0 0 q 0 6 6 y C 4.5.<.^ n M ",
"L %.=.=.%.} ) ) ) p.a.Y.M.M.` M n ` q.w.` E V Y R ^ Q R M n f l s s d f d d s s s s 7 7 3 7 3 7 3 7 7 9 8 t 8 t l #.4.4.] Y f Y ",
"P =.=.=.%.=.I I I ) } 4.p.e.@.N l M 1.8.1._ E R E ^ W C M f t 8 e 7 7 r s s r r r 7 3 4 3 < < < 3 3 7 7 8 t t l ^ t.4.<.{ n y Y ",
"%.;.$.=.=.=.J K c c L ) { 1.` R n B R X.1.X.Q Q _ ` R C B B p s 8 8 8 t f l s r 9 e < < < 3 > < 3 7 3 9 t t f R i.e.+.@.R n f Y ",
"%.=.=.=.;.%.J i e r %.) L Y ^ [ ` / ` | 5.| _ ( { ] Q M M n f p f l l n B n f s r 7 3 < 3 3 3 7 e r 8 t f n ) i.p.p.@.Y M M B N ",
"P =.*.=.=.%.d 5 2 3 H %.L Y W t.t.4.{ 1.' ] ....` ..^ C M B Y Y K / / ` R / c d i i e e e i d N N N l n n ^ *.*.*.p.` B l c M l ",
"J =.;.=.=.H u > * 2 4 d )  .#.l.!.4.5.1.` W ....<.#.` W E ^ i.4.@.} @.i.4.i.*.I P K K K K S R ) ) R K Y ` ) +.*.i. .Y M M l n l ",
"b %.%.%.I b 5 4 & 2 2 2 x p.h.R. Xl.4.4.` _ E | #.8.[ [ ] i.&.i.} *.} i.p.p.*.;.:.:.%.*.I I K ) @.@.R ) ) } ) *.*.) n M N N N K ",
"z P I I I x 4 & & 2 * : i a.`.XX$Xk.+.&.^ ^ ` 3.4.+.t.4.s.p.C.p.*.*.*.p.a.a.B.K.P.:.=.*.) L L { i.&.) / ) ) } } ) K n l d l L K ",
"w H P %.P x * % & & * 4 e p.@X;XXXH.#.+.Q ) ) s.M.p.i.i.i.~.J.J.a.V.:.J.B.K.XXXXB.=.=.%.) / / } ) &.) ) ) *.} ) Y K n d s N L L ",
"w x J I c e : # % % * 2 e %.>X;X{.l.q.1.&.] 4.k.l.l.a.a.J.P.~.{.XXP.V.B.K.~.'.B.;.) ` / Q / / ] +.i.%.*.*.) ) K K l f s d K c i ",
"5 5 v b z w % # % & % : 3 L 5X4X{.H.| | &.Z.Y.T.~.Q.l.C.l.S.a.D.J.a.i.a.l.F.4.w.+.] Y L ) { ^ @.t.C.4.*.*.P H c d e 3 9 d s 5 4 ",
"% & 2 4 k 5 & # # # % : 3 N 2X5X*Xe.} s.+X*XoX]..X`.S.b.F.h.s.4.e.<.3.3.e.3. .` { ` { { @.} 4.p.Y.R.*.) K z x e e : = < < > > > ",
"O O # * 4 4 : # # # % > < Y ;X7XB.,.XX:X4X5X7X2XoX$XoX@X_.Q.F.F.f.s.#.` Y W ^ @.` &.3.t.{ t.G.'.~.D.P c i 5 < 4 2 % % < < 7 3 r ",
"O O O % * 2 * O O O % = r F.4XwXtXtXqX6X7XtXuXyXtX1XwX7X7X;XOX.X|.E.h.E R R ^ ] 4.t.l.l.T.{.{.V.I H e u 4 4 & * % O > 7 s d f x ",
". . . # % * & # . O $ < +.oX3XtXiXpXyXtXtXiXyXpXpXpXqXtXyXeX;X;X:X5XXXB.%.L S { l.E.F.oX;XXX) H c w * * & & O O O # & < 9 r r s ",
". . . O # & % # . X # d p.*X8X8XtXyXyX8X0X0X0X0XrXrX0X0X0X0X<X<X1X<X<X<X<X,.I ;.K.L.L.XX=X,.b v k w * & & # O O # # % * 5 3 w u "
};
