/* XPM */
static char *out[] = {
/* columns rows colors chars-per-pixel */
"64 64 221 2 ",
"   c #2B1608",
".  c #4A2415",
"X  c #5C2C1A",
"o  c #68321E",
"O  c #583F2A",
"+  c #763A24",
"@  c #7E3D26",
"#  c #63432F",
"$  c #6E402D",
"%  c #6A4D37",
"&  c #77523D",
"*  c #7F5D46",
"=  c #814A35",
"-  c #8E4B34",
";  c #96523A",
":  c #865540",
">  c #8C5D46",
",  c #9D5943",
"<  c #955F49",
"1  c #A45E45",
"2  c #89664F",
"3  c #9B644E",
"4  c #916A53",
"5  c #9A6F56",
"6  c #AB644A",
"7  c #A16851",
"8  c #AD6D51",
"9  c #A86D58",
"0  c #B36A51",
"q  c #B76F53",
"w  c #A1765D",
"e  c #A7755C",
"r  c #AE755B",
"t  c #B4715D",
"y  c #B97658",
"u  c #A87B63",
"i  c #AE7D64",
"p  c #B77764",
"a  c #BD7564",
"s  c #B27861",
"d  c #B47F64",
"f  c #BB7E63",
"g  c #C1785B",
"h  c #C87E61",
"j  c #C07B6B",
"k  c #AC836B",
"l  c #BE8466",
"z  c #B3876E",
"x  c #BA876A",
"c  c #BF8B6C",
"v  c #B78C72",
"b  c #BC8E72",
"n  c #C38264",
"m  c #CC8566",
"M  c #C78568",
"N  c #C4816F",
"B  c #C48A6C",
"V  c #CC8C6D",
"C  c #CC8C6E",
"Z  c #D18969",
"A  c #D48C6E",
"S  c #C98270",
"D  c #C88973",
"F  c #CC8A78",
"G  c #D08B78",
"H  c #D38E7E",
"J  c #C39072",
"K  c #C69677",
"L  c #C89172",
"P  c #CC9475",
"I  c #CA997A",
"U  c #CF9C7E",
"Y  c #D19071",
"T  c #D09072",
"R  c #D29172",
"E  c #D09273",
"W  c #D39273",
"Q  c #D49374",
"!  c #D59475",
"~  c #DA9472",
"^  c #D79778",
"/  c #D1967C",
"(  c #D89778",
")  c #D59A7B",
"_  c #D99878",
"`  c #D9997A",
"'  c #DB9A7A",
"]  c #DA9A7B",
"[  c #DC9B7B",
"{  c #DB9C7D",
"}  c #DA9D7E",
"|  c #DE9D7D",
" . c #DC9D7E",
".. c #DD9D7E",
"X. c #E09E7D",
"o. c #E2A07F",
"O. c #D89380",
"+. c #DD9E80",
"@. c #DE9F80",
"#. c #DF9F80",
"$. c #DD9986",
"%. c #D4A082",
"&. c #DFA081",
"*. c #DCA386",
"=. c #D8A485",
"-. c #DCA88A",
";. c #DFAB8E",
":. c #DFAF94",
">. c #E0A081",
",. c #E2A181",
"<. c #E3A181",
"1. c #E0A182",
"2. c #E1A283",
"3. c #E3A282",
"4. c #E5A382",
"5. c #E4A383",
"6. c #E5A383",
"7. c #E5A483",
"8. c #E6A483",
"9. c #E5A484",
"0. c #E6A585",
"q. c #E7A685",
"w. c #E7A686",
"e. c #E8A786",
"r. c #E9A887",
"t. c #E0A58A",
"y. c #E3AC8D",
"u. c #E7AD8F",
"i. c #E8A888",
"p. c #E9A888",
"a. c #E9A989",
"s. c #EAA989",
"d. c #EAAA8A",
"f. c #EBAA8A",
"g. c #EBAB8B",
"h. c #EBAC8C",
"j. c #EBAE8F",
"k. c #ECAC8C",
"l. c #ECAD8D",
"z. c #EDAD8D",
"x. c #EDAE8E",
"c. c #ECAE8F",
"v. c #EEAF8F",
"b. c #EDAF90",
"n. c #EEAF90",
"m. c #E4B195",
"M. c #E9B193",
"N. c #EDB091",
"B. c #EEB090",
"V. c #EFB090",
"C. c #EEB091",
"Z. c #EDB192",
"A. c #EEB192",
"S. c #EFB192",
"D. c #EFB293",
"F. c #ECB496",
"G. c #E6B599",
"H. c #EEB899",
"J. c #EEBC9E",
"K. c #F0B293",
"L. c #F0B394",
"P. c #F0B495",
"I. c #F1B495",
"U. c #F0B496",
"Y. c #F1B596",
"T. c #F1B597",
"R. c #F2B596",
"E. c #F2B697",
"W. c #F2B698",
"Q. c #F2B799",
"!. c #F3B799",
"~. c #F2B89A",
"^. c #F3B89A",
"/. c #F3B99A",
"(. c #F3B99B",
"). c #F4B99B",
"_. c #F4BA9B",
"`. c #F4BA9C",
"'. c #F4BB9D",
"]. c #F5BB9D",
"[. c #F5BC9D",
"{. c #F5BC9E",
"}. c #F5BD9E",
"|. c #F5BD9F",
" X c #F1BFA1",
".X c #F5BEA0",
"XX c #F6BEA0",
"oX c #F6C0A1",
"OX c #F6C0A2",
"+X c #F6C1A2",
"@X c #F6C1A3",
"#X c #F6C2A3",
"$X c #F7C2A3",
"%X c #F6C3A4",
"&X c #F7C3A5",
"*X c #F2C4A5",
"=X c #F7C4A6",
"-X c #F7C5A6",
";X c #F7C6A7",
":X c #F7C7A8",
">X c #F7C8A9",
",X c #F0CBAD",
"<X c #F8C9AA",
"1X c #F8CAAB",
"2X c #F8CBAC",
"3X c #F8CCAD",
"4X c #F8CDAE",
"5X c #F9CEAF",
"6X c #F3D1B3",
"7X c #F7D1B2",
"8X c #F0D4B6",
"9X c #F6D4B6",
"0X c #FAD3B4",
"qX c #FAD7B8",
"wX c #F1D8B9",
"eX c #F7D8BA",
"rX c #F5DBBB",
"tX c #FADDBE",
"yX c #F6DDC0",
"uX c #F9E1C3",
"iX c #FBE5C7",
/* pixels */
"*.t.*.u.y.F.U.|.Q.U.U.].).{.`..X|.`.U.H.m.F.m.H.F.~.H.~.F.F.Z.Z.y.y.t.y.t.u.i.i.9.i.&.&.&.1.]  .( ' ^ ) / ) / E C C C T L Y C C ",
"I ) i.v.L.~.`./.Q.~.~.U.}.|.oXoXoX.X.X|.OX.X.X|.oX'.'.~.`.).(.U.P.z.Z.b.S.S.B.i.i.i.0.2.2.<.>. .| ..+.) +.) / E P Y Y Y Q W T T ",
": 5 x *.U.`.U._.T.{.F.Q.`.].`.|.+X#XH.'.'.$XW.{.`.|.F.U.Q.~.D.T.j.L.i.k.A.S.0.i.w.d.3.2.4.4.' | ..#.] @.3. .Q E ! W V C ! ^ C E ",
"# # & r I t.Z.W._.~.W.S.~.R.`.}.=X'.'.W.oX).Q.~.`.W.U.D.).R.U.L.U.S.i.i.b.j.d.0.a.s.e.o.3.| [ ' [ |  .+.,.) / T E C C V T C V C ",
"$ & = > 9 B  .U.U.|.Y.~.A.Q.~.oXoX+X`././.Q.`.[.W./.U.Q.L.W.U.U.b.d.i.l.w.a.0.w.0.k.q.o.' +.] ..' &.@.1.[ ) E E C C V A M Z Z V ",
"K d s 9 r f R 0.Q.U.H.L.U.A.`.|.oX'.~.A.U.Q.E./.`./.W.U.`.U.R.U.L.h.k.a.i.4.w.8.g.k.q.|  .]  .{ | @.1.@. ._ E T C V V V C Z Z Z ",
"F.u.) T V D T ] j./.n.L.L.!.U.|.oX'.u.U.F.`.U.|.|.|.U.`..X`.F.U.S.L.q.i.i.a.5.p.k.n.o.#.1.1.] | +.9.| @. .` L D C Z M V V V n M ",
"j.u.t.&.+.! ^ ) w.U.S.D.L.W.~.~.Q.U.Z.Z.U.L.W./.+XoX'.'.[._.U.L.R.k.d.s.g.i.r.s.v.g.q.| 1.] ) ) @.1.#.) | Q D B D M M h Z V h n ",
" . . .#.] +._ >.2.V.z.R.L.W.D.~.A.Z.u.d.j.L.R.oX'.'.`.oX'.'.W.F.u.0.+.2.0.d.s.k.r.s.3.>. .|  .+.{ | ] ] ) Q C C l n n n h m h n ",
"q.[ R C C ] X.3.q.v.S.S.I.U.I.U.V.i.&.&.r.k.L.W.Q.Z.t.U L c B c d d n D ^  . ._ >.#.+.#.>.+.+. . .`  .` ` E C n n f g h m h g g ",
"S.v.[ W M M C >.0.V.g.S.L.!.l.R.S.0.C Q [ &.&.i.3.T r 3 : = $ + $ $ + = < r r p M T C !  .&.] ) } +.W ^ ^ E n l l n y n f n y a ",
"t.&.3._ Y h n W 4.k.v.v.L.S.v.x.K.3.m M T T R R V 8 , = + $ X . . . . . X + = > 9 p f n T T R ]  . .Q T Q T B l l f y f n n g g ",
"5 f L ! Z m y M Q 3.k.L.k.v.z.S.h.3.C M l V V M t 1 ; = + @ $ $ o o X # $ $ + & = < 3 9 9 8 r B D R ! ! C D n l y f a f y g g h ",
"4 5 5 7 r g y f V _ q.S.L.S.g.g.g.o.T M M f n y 0 1 , - - - - < 7 r s l J c r 3 < < < > < ; < 1 8 r f n B n l s f y p y y y a a ",
"w 5 2 * > < , 6 g Q [ V./.Q.d.v.g.3.T C n l t 8 6 1 ; ; 1 7 9 f C ^ ^ t.i.d. .! B x 9 < ; < ; < 3 3 > < 7 9 8 t t t 8 q 0 q 0 y ",
"O . . . $ & = = , M ~ v.+X$XH.L.S.q.Q l n y 6 , , ; ; ; ; < 1 f T Q T T R ! ^ _  .! T D n 9 1 3 3 < > : > : > 1 8 8 1 1 0 0 0 6 ",
"& X . . X $ + $ + , X.D.=X7X=XoXL.v.Q f 8 8 1 , - - = @ - r P  .2.i.&.! M n y t t n C ^ T B l p 9 3 > > : : - < , 1 1 6 1 6 6 6 ",
"f 7 : & < 9 7 - < t s.L.<X9X9X:X).d.Y 0 6 6 1 - = @ o $ 8 n x D U *.t.&. .Q V f 9 ; ; r M C C B l r 9 3 < < ; , 1 1 1 1 6 6 0 8 ",
"3.+.P R Z A m Z ] g.Z.'.4XtX7X:XQ.3.g 8 6 t , ; ; - + @ - : = + 4 w 7 d d x p p r 9 @ @ 7 B B n n n y f r r 8 8 6 8 6 8 q t 8 q ",
"! W Z Z ! Y Y Z Z o._.#X5X7X4X$XW.] y 6 6 y 8 g Q V g 6 7 7 > X .       . # $ $ + $ = o o 7 L R R M g f B m g t t y q y g f g g ",
"m W Z Z h g q h ] |.oX4X4X4X:X|.d.! y 0 0 m Y Q X.s.q.3.#.+.[ K r : X . . .       . . . . @ r t 8 t f n h M g y q y t y g g g g ",
"Q n y q q h ] ~.>X1X<X<X5X%XoXL.3.A m g h m _ 3.4.r.s.X._ ! | X.| Y f 9 9 3 3 > > > : = : 1 , ; 8 n Z m m M n f t y f f n g n g ",
"oX|.S.L.`.=X%X;X1X4X:X7X2X<XU.0.! A m W ~ ~ ! 4.V.b.g.n.0.X.f n m Z h g y y y n m T Z ! Z q ; 1 n R ! 4.4.8.| C g y t y y y t f ",
":X+X%X>X5X1X;X;X4X5X5X0X4X=Xv.[ ! Z Z ~ 8.8.8.q.v.z.f.v.!.W.0.V 8 6 1 6 6 t y y n g 8 , ; ; 8 ' o.o.T m Y W C y 8 6 6 6 t 8 8 8 ",
"$X$X=X5X5X3X<X2X4X7X7X7X%X`.h.| Z Z Z ~ | k.r.k.r.k.f.L.W.`.`.{.~.h.! n r 6 , ; - ; ; 6 n [ _ | [ 4.o.! g y t y y y y f f l l l ",
":X4X:X1X5X2X>X<X4X7XeX4X%XE.d.X.! Z Y Z Z Y W ! | q.g.L.E.`.!.`.'.`..X#X$X'.U.u.h.h.h.v.K.v.g.o.[ ! [ &. .V M R M p p s f l p s ",
"5X7X:X5X7X7X=X4X7XeXeX4X|.Q.d.g.4.[ m h y h y 0 0 g Z d.Q.'.~.`.|.oX'.-X<X1X|.oX'.'.S.L.V.K.0.s.o.! T | 4.r.| X.C y 9 r p p r t ",
"4X4X<X<X<X$X'.:X5XeXeX-X+XS.V.V.V.q.Z y g Z ! m y 1 6 g 0.`./.W..X+XoX$X1X<X=X&XoX'.U.v.S.g.i.r.q.| T R 8.r.q.6.Q n r t p p s y ",
"|.oX~.L.o.#.v.<X4XtXeX:X|./.~._.v.[ Z h m | r.q._ m , ; 8 ! h./.`.$X:X<X-X<X-X:X.X@X`.L.s.r.s.k.q.8.| ! X.q.q.r.R n f l f l f n ",
"r.| Z y 0 ! '.<XeXeX7X:X=X'.|.Q.| m g m ~ 8.g.4.| Z 6 - - , f _ S./.=X:X<X<X$X$X$X'.).D.D.r.r.s.g.4.3.~ ' [ o.3.Q M l f n n B M ",
"Z y ; - M '.<X7XiXiXuXeX5X=Xv.! f q 6 0 y h g g y q 1 1 0 6 , q Q g.j./.|._.U.~.`.|.L.S.x.D.8.r.s.z.X.7.[ o.^ | ! C l M V C D C ",
"1 = - B oX5X5XtXiXiXiXeX4X~.T 8 ; = + + @ + + = ; ; 6 y g g y 0 y T >.s.W.W.W.R.W.U.V.V.S.z.k.i.f.p.6.X.6.X.]  .[ D M M C V C C ",
"= ; D '.;XeXeXeXeXeX4X:XH.] 6 - + + o = @ @ @ = - , 1 q q y g g q q M [ 3.v.S.S.s.k.r.V.g.S.g.l.7.6.>.1. . .`  .T V n C C T T E ",
"- n u.=X7XeX7X4X:XoXF.*.! t ; = @ + + + + + @ = = = - , 1 6 q y y 0 6 y T | 4.q.q.4.4.8.v.v.g.r.q.3.| +. .] ) ` E n M C T W W W ",
"8 +.Z.=X=X=XH.L.U.U.>.n 1 ; = = @ @ + + @ @ + = = - - = = - , 1 1 1 ; < 8 C T [ ^ ] Q X.8.g.3.#.+.#.] ^ }  .P ^ T M f M T E V C ",
"T &.j.+./ ]  . .2.0.+.n 6 1 6 t 8 ; - = = = - - - ; - @ @ = - - ; - @ = - 1 n R ! ! ^ Q o.#.+._ ^ ^ E / / ) ) W Q D M V ! W C C ",
"! +.! f t M T T l g 8 ; = 1 B _ n 8 1 ; - - = ; ; 3 ; - - - - ; - - + + + $ - n !  .! ~ ~ ! ! ^ Q ! E T D ^ ^ ) W Q E T V W C A ",
"! ) l 9 8 p M g 8 6 ; = 6 C _ _ ! M y 1 , ; - - ; , < - , - ; ; ; - = @ + + + - l ^  .^ Q Q R Q ! ^ P B B / ) / ) Q V V T C C Y ",
"P R s 9 9 f l V y y 6 y 3.`.g.8.| ~ h q 6 1 ; 1 6 6 1 , , , ; , 1 1 < < : = + + ; y C Q T W Y R R ! D n l ) W ) ) / n M C A m Z ",
"! n r 9 p n M m M Z ! [ r.S.v.s.q.' Z h g q 0 y m h y y y 0 1 6 0 0 6 1 1 > + @ = - r V Q W ! T !  .! l n E ! ! W C l n C Z Z m ",
"P p 9 9 8 t y M m ~ ! ! ~ X.o.#.~ ! Z Z m m m m h Z Z Z m g q q q q 6 0 8 1 : = = = ; f T ! ^ >.@.#.) B l L P / D D n n n V Z Z ",
"B 8 ; - = = , 0 y y y g m m m m n y y 0 6 6 q q y y y 0 0 0 0 0 0 0 1 8 8 1 ; = = - - 1 T ! [ o.2.t.) B B P / / / D l l M m Z Z ",
"P p 1 ; ; 1 6 0 0 6 1 6 6 0 6 6 6 6 , , , , , , , , = = = - - ; - - @ - ; ; - - - < 1 6 m [ [ 3.2.i.) J J / L L P / l n m A Z A ",
") L l l n m A m Y Y Y S F S S F H G G F G S N f y 0 6 1 1 1 , - ; - = = = - - 1 l n M 6 m ' X.>.3.3.^ B L J J I U P l n C V T V ",
"^ @.T ^ Y W A ' | 4.>.+.$.$.>.0. .&.O.O.H H N S N N S N j N g j g g y 0 6 0 g _ o.4.[ f C | X.3. .@.! P B c L U L L l n n m M M ",
"M  .Q A ^ ( Z ~ 3.#.+.] $.$.$.+.>.O.S N S N y g m n g y N a y a f y q y g Z 8.g.i.q.3.V Z [ +.| >.^ P L c c J U I c B M B n B B ",
"l ) ! R _ [ A m M n y l n f y f N f 9 7 7 7 < 8 t t 7 r y y 8 y y q 0 h ! V.j.j.9.3.W M ^ 2.@.| [ ) M B c J c J c J l B J L l M ",
"R M #.[ | | _ n f 8 1 7 8 9 9 7 9 9 7 3 5 3 3 < 7 3 7 9 r r y p p y f R u.U.Z.t.1.[ C n o.0.>.[ ^ C l f l f c x l f n B L D B M ",
"+.B [ i.o.[ ~ Z y q 6 8 9 p p f r r 7 7 < < < < < 3 7 9 r t t y y l D q.F.U.u.i.+.[ n V #.7.&.} B l d f s l c x d d l L P W W E ",
"=.T C 8.8.o.[ m y t t t f n M n l y r 9 7 < < < 3 7 r r l f l l n B +.M.D.Z.u.t.r.R f m | | ' W l l l d d l d d s l P L E ) ` / ",
"%.*.B ! q.3.[ Y g y 8 y Q  .Q R V n r 8 9 9 7 9 s l l C Q Q B C T ] i.j.U.U.y.u.r.V y Q [ >.Q B l l f r d l t s f J J E /  .L B ",
"%.*.L T q.3.| ! m n f n >.V.r.3.3./ V n n l n D ^ )  .&.d.0.#.] ] 4.i.u.U.Z.y.i.q.n M !  ._ C B B n p 7 f l d d c L L I %.U B l ",
"I -.) ) &.r.4.o.W Z m ! o.I.s.i.X.3.2.i.3.t.y.F.Z.H.F.~.Z.u.2.t.&.0.d.j.M.j.y.u.^ T C E R ( M B C B 9 9 d L l c B P P %.I U ) ) ",
"K =.&.U I +.y.q.3.X.~ 3.V.I.I.v.i.t.t.i.h.u.F.F.F.H.~.F.U.u.t.+.1.q.0.i.y.t.0.t.+.E ! ) ] Q C R W B 9 9 d c I U L L L L ) +.) / ",
"b %.%.%.c J I t.b.S.3.z.S.E.Z._.Q.~.j.L.L.W.F.`.oX3X|..XJ.U.] 2.1.9.&.t.1.2.] 1.+.) W ) +.} C ^ E B r r e 7 s P L c x L ) *.t.*.",
"z I U U L d w d t.U.v.g.K.b.A.Q.}..X{.}.oXoX-X=X<X<X:X|.|.u.2.i.i.1.] ) ]  .@.@. .} ] +.#.) ! / E d x x d 9 7 d P J b J ) } t.y.",
"w J I %.c u * 5 x *.Z.W.V.V.S.`.Q.W.~.$X$X+XoX<X.X:X|.Z.u.+.t.j.+.+.! ` W ` ] 2.1.&.0.k.t.+.*.) L x d k k e r r l E L P P } *.t.",
"w x I I x w & * 2 w U F.'.S.j.L.R.U.P././.`.~.Z.Z.Z.u.t.u.y.i.2.+.` ^ ! ( ` +.+.5.t.a.j.Z.y.t.%.P r x c k i u e 7 s l L U I x i ",
"5 w J x k 5 # % & 2 w I oX'.0.l.a.g.j.U.Q.`.N.N.d.u.&.3.0.r.X.#.` ` ! ^ | | +.2.2.d.t.Z.~.T.*.U K s w L x z u 5 = 3 9 d d 9 < 4 ",
"% & 2 5 k 5 # O % % * 3 y.2X`.d.w.D..X`.'.~.L.I.~.C.v.q.a.5.| ^ ^ Q Q ! | >.2.t. .&.u.Z.(.{.y.P J x 5 u u w 5 5 & + > > > < < > ",
"O O # * 4 4 % # # % * < L <X:X;.m.%X:X2X2X=X'.%XH.OX/.^.c.C.a.w.^ ^ Y Q Q ..+.i.&.i.Z.W.(.OXu.U x d d 4 > : 2 4 % # > < 3 w 7 d ",
"O O O % * 2 & O O O & : D .X7X7XeXeX9X7X0XeXyXeX7X0X4X<X-X$XXX(.).u.) P E / ` @.2.d.D.W.OX@X;.J J e u 4 > * & & O # < 7 s d d x ",
". . . # % * & # . O $ < +..X>XeXyXuXrXeXeXyXrXuXuXtXeXeXrXqX-X=X;X2X Xm.%.P D { j.T.A. X-X X) J c w * * & & O O O # & < 9 r r i ",
". . . O # & % # . X # d y.%X6X6XeXrXrX6X8X8X8X8XwXwX8X8X8X8X,X,X,X,X,X,X,X:.U -.G.J.J. X*X:.J v z w * & & # O O # # % * 5 3 e u "
};
