/* XPM */
static char *out[] = {
/* columns rows colors chars-per-pixel */
"64 64 209 2 ",
"   c #2B1608",
".  c #4A2415",
"X  c #5C2C1A",
"o  c #68321E",
"O  c #583F2A",
"+  c #763A24",
"@  c #7E3D26",
"#  c #63432F",
"$  c #6E402D",
"%  c #6A4D37",
"&  c #77523D",
"*  c #7F5D46",
"=  c #814A35",
"-  c #8E4B34",
";  c #96523A",
":  c #865540",
">  c #8C5D46",
",  c #9D5943",
"<  c #955F49",
"1  c #A45E45",
"2  c #89664F",
"3  c #9B644E",
"4  c #916A53",
"5  c #9A6F56",
"6  c #AB644A",
"7  c #A16851",
"8  c #AD6D51",
"9  c #A86D58",
"0  c #B36A51",
"q  c #B76F53",
"w  c #A1765D",
"e  c #A7755C",
"r  c #AE755B",
"t  c #B4715D",
"y  c #B97658",
"u  c #A87B63",
"i  c #AE7D64",
"p  c #B77764",
"a  c #BD7564",
"s  c #B27861",
"d  c #B47F64",
"f  c #BB7E63",
"g  c #C1785B",
"h  c #C87E61",
"j  c #C07B6B",
"k  c #AC836B",
"l  c #BE8466",
"z  c #B3876E",
"x  c #BA876A",
"c  c #BF8B6C",
"v  c #B78C72",
"b  c #BC8E72",
"n  c #C38264",
"m  c #CC8566",
"M  c #C78568",
"N  c #C4816F",
"B  c #C48A6C",
"V  c #CC8C6D",
"C  c #CC8C6E",
"Z  c #D18969",
"A  c #D48C6E",
"S  c #D88F6F",
"D  c #C88973",
"F  c #CC8A78",
"G  c #D38E7E",
"H  c #C39072",
"J  c #C69677",
"K  c #C89172",
"L  c #CC9475",
"P  c #CA997A",
"I  c #CF9C7E",
"U  c #D19071",
"Y  c #D09072",
"T  c #D29172",
"R  c #D09273",
"E  c #D39273",
"W  c #D49374",
"Q  c #D59475",
"!  c #DA9472",
"~  c #DD9876",
"^  c #D79778",
"/  c #D1967C",
"(  c #D89778",
")  c #D59A7B",
"_  c #D99878",
"`  c #D9997A",
"'  c #DB9A7A",
"]  c #DA9A7B",
"[  c #DC9B7B",
"{  c #DB9C7D",
"}  c #DA9D7E",
"|  c #DE9D7D",
" . c #DC9D7E",
".. c #DD9D7E",
"X. c #E09E7D",
"o. c #E29F7D",
"O. c #E2A07F",
"+. c #DD9E80",
"@. c #DE9F80",
"#. c #D4A082",
"$. c #DFA081",
"%. c #DCA386",
"&. c #D8A485",
"*. c #DCA88A",
"=. c #DFAB8E",
"-. c #DFAF94",
";. c #E0A081",
":. c #E2A181",
">. c #E0A182",
",. c #E1A283",
"<. c #E3A282",
"1. c #E4A281",
"2. c #E4A382",
"3. c #E4A383",
"4. c #E6A483",
"5. c #E5A484",
"6. c #E6A584",
"7. c #E6A585",
"8. c #E7A685",
"9. c #E7A686",
"0. c #E8A787",
"q. c #E9A887",
"w. c #E0A58A",
"e. c #E3AC8D",
"r. c #E7AD8F",
"t. c #E8A888",
"y. c #E9A888",
"u. c #E9A989",
"i. c #EAA989",
"p. c #EAAA8A",
"a. c #EBAA8A",
"s. c #EBAB8B",
"d. c #EBAC8C",
"f. c #EBAE8F",
"g. c #ECAC8C",
"h. c #ECAD8D",
"j. c #EDAE8E",
"k. c #EDAF90",
"l. c #EEAF90",
"z. c #E4B195",
"x. c #E9B193",
"c. c #EDB091",
"v. c #EFB090",
"b. c #EDB192",
"n. c #EFB192",
"m. c #EFB293",
"M. c #ECB496",
"N. c #E1B49A",
"B. c #E6B599",
"V. c #EAB79A",
"C. c #EEB899",
"Z. c #EEBC9E",
"A. c #F0B394",
"S. c #F0B495",
"D. c #F1B495",
"F. c #F0B496",
"G. c #F1B596",
"H. c #F1B597",
"J. c #F2B697",
"K. c #F2B698",
"L. c #F2B798",
"P. c #F2B799",
"I. c #F3B899",
"U. c #F2B89A",
"Y. c #F3B89A",
"T. c #F3B99B",
"R. c #F4B99B",
"E. c #F4BA9C",
"W. c #F4BB9D",
"Q. c #F5BB9D",
"!. c #F5BC9D",
"~. c #F5BC9E",
"^. c #F5BD9F",
"/. c #F5BE9F",
"(. c #F1BFA1",
"). c #F5BEA0",
"_. c #F6BEA0",
"`. c #F6C0A1",
"'. c #F6C2A3",
"]. c #F7C2A3",
"[. c #F6C3A4",
"{. c #F7C3A5",
"}. c #F2C4A5",
"|. c #F7C4A5",
" X c #F7C5A6",
".X c #F7C6A7",
"XX c #F7C7A8",
"oX c #F0CBAD",
"OX c #F4CDAE",
"+X c #F8C8A9",
"@X c #F8C9AA",
"#X c #F8CAAB",
"$X c #F8CBAC",
"%X c #F8CCAD",
"&X c #F8CDAE",
"*X c #F9CEAF",
"=X c #EECEB0",
"-X c #F3D1B3",
";X c #F7D1B2",
":X c #F0D4B6",
">X c #F6D4B6",
",X c #FAD3B4",
"<X c #FAD7B8",
"1X c #F1D8B9",
"2X c #F7D8BA",
"3X c #F5DBBB",
"4X c #FADDBE",
"5X c #F6DDC0",
"6X c #F9E1C3",
/* pixels */
"*.r.O.+./ P B c H #.*.z.V.V.B.z.z.B.z.z.-.B.V.V.V.Z.B.Z.Z.Z.B.M.r.B.=.e.w.r.r.r.w.w.$.$.@.3.$.,.` ] { @.] ` ( E Y R C T Y T C Y ",
"*.=.$. .I K B c P #.-.V.T.C.V.z.z.z.N.z.z.z.V.V.B.V.B.Z.Z.V.B.r.x.r.e.e.e.e.r.r.e.w.w.,.w.5.,.$.$.[  . .$.[ ` ^ Q Y U Y E T Y C ",
"#.*.P I P P c P #.r.e.L.T.W.z.V.B.C.r.M.C.V.B.V.C.C.z.T.T.T.r.M.x.M.e.f.f.D.t.k.k.k.3.u.p.k.8.X.:.O._ | $.,.Q E Q E V E Q ^ A A ",
"#.*.P J P P I #.z.M.D.C.W.T.V.C.T.W.C.T.'._.W.R.W.T.V.V.`.W.L.C.U.C.M.k.D.n.f.f.v.j.t.i.h.d.6.' | ' _ ' X...` Y Q U Z Z T U V C ",
"P *.#.#.I *.=.M.M.C.R.W.R.W.L.`.).[.'. X'.'._.`.W.`.W.`.W.W.G.L.D.C.m.L.j.n.f.k.0.i.8.i.8.u.X.' ` [ _ ] ^ ` ` T T Y Z A Z A m Z ",
"K #.#.w.e.r.M.L.C.R._.).~.`.).W.`.`.[.'.`.).`.).`.).).).~.L.U.D.U.H.K.v.d.s.p.i.s.8.2.2.t.9.X.' ' ` { @.$.[ ` E E Z Z Z Z m m m ",
"^ =.w.D.C.R.D.P.W.'.E.`.`.`.E.).`.`.W.`.`.'._.).`.].T.Z.L.C.k.G.J.Y.A.M.n.s.2.9.8.p.;.<.t.s._ $.+.;.^ $.$.;.E Y Y A m Z m m h h ",
"$.j.v.j.L.U.G.U.`.`.E._.`.|.).W.).R.C.`.'.`.Z.^.W.W.U.L._.D.n.A.T.J.m.c.m.n.t.6.d.8.3.t.d.y.,.X.,.;.`  .;.X._ Y Z m n n m M h g ",
",.i.i.v.j.J.L.W.G.~.W._.^.'.'.'.A.R.G._.`.'.~.R.m.U.L.T.U.T.Y.Q.R.W.D.K.S.A.s.i.3.u.9.u.8.i.3.8.{ @. .;. .+.Q T m M g g g g g g ",
"/ H K B L I e.A.R.R.W.I.`.).`.^.L.n.m.R.[.).W.A.v.v.v.R._.'._.'._._.U.b.D.f.7.+.,.,.:.{ ` { ` ^ { )  .{ @.[ ^ A m n f y g g g a ",
"> * $ $ & & > z I w.7.x.Y.^.T.~.A.A.t.R.`.`.x.f.d.k.d.R.[. X).`.'._.m.x.=.#.l f d f s f d l l V C Q Y ^ ] ..Q V M n t y f g q y ",
"< : $ o o O $ & < r x / r.D.T.D.n.s.p.D.W.L.k.t.s.p.d.D.`.).~.L.x.%.c d 9 > + + $ + = : > 7 9 r r t y n Y E Y n M f y y f a y y ",
"#.#.J d 3 < > > ; 7 8 B T 7.k.D.m.k.p.A.j.v.0.7.<.7.7.n.k.L.e.) r > + $ X X . . . X X + + = = > > , , 6 9 f l l f f y g y g y y ",
"r.f.V.e.=.` / B l f y n M ` 0.v.k.k.v.p.d.r.3.` ^  . .,.7.+.M 7 : + o X X . X X $ * < > > : > : > : > < < < < 9 t 0 t 0 q 0 q q ",
" .,.@.,.,.,.Q Q / Y n V R ` { d.s.j.7.t.j.v.' V M T C E T M 6 ; = + $ $ + = ; 9 c I / L l f s r 7 < : < , < : : , 6 1 8 8 0 1 6 ",
"M $.r.V.T.D.7.{ Q n y f Q { 2.t.h.i.0.9.l.a.X.n l n n n n r , - - @ = - 8 f B E @.,.} +.+.` / C R M r 9 7 > : : : ; 1 1 6 6 1 1 ",
"w.T.C.C.M.k.w.,.E C t 0 f Q X.t.s.s.i.i.i.a.:.C y y y f r 6 , - - ; ; 7 8 l n M y y y n n M Y ^ R R M l t 9 3 ; : , 6 0 8 8 6 0 ",
"z.*.P r 7 > * : 3 7 r 8 q n Q :.j.v.d.s.p.i.$.T M l t 0 6 , ; : - : = ; y Y ` ^ T M l t 8 , < 1 f l M B f y y 9 r t 0 8 q q t q ",
"P 3 . . . O     . X $ < 6 f M _ t.R.j.m.A.j.@.Q M l 8 6 1 ; = = $ o > s f f r s r s s d s r : + + s B B M V y l f y q g h M g h ",
"$       O %         . o = - f E 0.).).T.E.D.s._ n 8 1 1 , - + o X : : $ . O       . X $ $ $ $ $ o : f K W M f y n g g g n g g g ",
"X X o & & % . . . . & = o @ ; ' 6.'.*X$X`.W.n.+.y 1 1 1 - @ + X X o o $ . O                     . X < f 8 8 y l n h g n g h h Z ",
"/ c J K c r 3 3 3 9 s 7 < 3 t 7.n.[.2X;X@X_.f.R 0 1 1 1 - , , - - 7 r d d 4 : & & : > & & & + o X o ; , t T ^ :.8.X.M g g y n y ",
"7.n.7.d.t.7.` +._ R V A T o.o.A.W.*X<X2X*X`.7.M 0 6 6 q 8 Y ^ | X.3.{ @.;.,.Z M V ! V n g 9 1 8 t g t , t V Y Q ' M 1 6 8 8 6 r ",
"o.2.o.! _ Q Z T S Z Z Z E Z ~ D. X*X<X,X*X_.7.M q 6 q Y ' _ :.2.o.^ T _ ;.>.^ A Z h y g Z A Q ! A q - y ` _ n q 8 8 r f n n l l ",
"i.~ m A Z E A Q Z h y q q  .W.'. X*X#X*X`.L.X.M q y g A | s.i.i.8.3.T h g g y g q 0 q g m g q 1 - - q Q | ;.X.M y n f l f l f f ",
"`.n.;.Z g q 0 0 1 , 6 M x.XX%XXX+X@X%X@XW.u.Q m M A Q S X.t.j.p.g.n.v.i.^ f t 0 1 1 ; - - - ; 1 h _ 2.[ Q Q 2.X.| T r y s s s s ",
"#X XJ.D.v.0.Q E ) w.x.[.#X*XXX$X%X*XXX XL.,.m m A ~ ~ 2.8.d.6.i.j.L.k.U.W.).C.R.C.f.@.,.3.s.r.j.j.g.3.,.X.Q T ,.7. .y y d f y s ",
"*X*X[.`.[._.W.W. X@X[. X*X%X@X@X,X;X@XW.v.~ Z Z S ~ o.2.s.i.p.p.h.L.L.C.).W.W.~.`.].W.U.~.L.G.v.v.s.8.<.2._ C ` 0.$.l n M n l l ",
",X,X*X$X`.].U.[.XX#X X#X X,X,X;X2X,X[.W.8.~ Z A m Z Z Q m A Q <.d.D.L._.E.).).'. X X).^.~.R.A.v.u.y.3.9.o.o.Q E  .;.V C M C M M ",
",X,X,X%X`.W.).XX#XXX#XXX#X,X<X2X4X*X_.D.i.:._ A m g g y g 0 1 q Z 0.L.E.W.E.'. X+X@X X'.~.R.A.v.d.0.3.q.4.1.:.Q _ $.T C C M D V ",
"2X2X;X&X X|.`.@X*X;X X+XXX,X*X4X4X*XL.C.v.k.8.X.Z g g A ! A 0 , 1 f Q v.L.E.W. X@X+X`..X{.R.D.j.h.g.2.8.8.8.X.^ ^ ,.B T Y R M K ",
"<X2X,X;X;X@X].XX#XXX`.W.XX%X,X4X4X@XW.v.J.D.k.,.S h Z o.i.<.S 0 ; ; 1 M ,.A.A.~.`.[.~.L._.R.v.d.h.p.7.3.9.2.o.O.` ^ M C Y C C C ",
"[.#X$X@X'.+X'._.v.0.~ j.`.*X,X2X,X+XW.).J.`.t.Q h h S 8.<.X.Z y , , , 1 t ^ u.D.n.J.L.Y.n.A.j.h.9.y.i.i.:.2.:.X.R Q C Y C Y Y R ",
"`.Q.W.L.D.n.s.~ h 0 M A. X*X2X2X,X+X'._._.v.Y q 0 q y y y q 0 1 0 q y q 0 y T 3.s.s.k.l.n.g.i.p.9.s.8.q.2.<.,.` ^ E C Y Y Y Y C ",
"Y.T.t.0.o.Q g 1 ; f e.[.#X<X2X4X4X2X[.`.D.Q 6 ; = @ + + + - ; 1 0 q q y g y 8 M _ 2.o.8.t.s.$.3.2.8.o.o.3.2.) ] R T M M C Y M C ",
"D.0.| S m 0 - = y M.XX#X*X2X4X4X6X4X#XC.T 8 - + + + + + @ - - - , 1 6 0 y y r 6 y C T ^ o.[ ' [ X.X.| / { ` / / ) R C V Y C C V ",
"2.~ Z g 6 - - n r. X*X,X;X<X4X2X*X#XT.+.8 - + + + + + + + @ @ - - - - , 1 6 1 , , 6 l _ U ^ T ^ Q _ Q ( Q ^ K R R E R R C Y Z A ",
"_ m y 1 - - y 7.).XX*X,X,X;XXX XC.e.) y , = + + + + + + @ = = = = @ + = ; - - = = = - s Q ' ^ Q E E E C T U B B R / ^ U Y Z C A ",
"A g 1 ; - 8 R f. X*X[. X).R.M.C.w.M 1 , - = @ = @ = @ = - - : > = = + = - - = + + = + = r ) ^ [ Q ^ C R Y / f M ` { Y Y Z S m A ",
"m 8 ; - 1 M ^ f.C.e.%.,.7.,.,.7.,.M 6 , 6 f y 1 , ; - = - - : , ; : = = - - - = & + + + @ 9 M E Q W Y T ^ ^ l l ^ / Y Z Z Z Z Z ",
"y 1 ; ; q R / w.M t y R T R l l r ; = , f Q R f 8 , ; ; - - - ; ; - - ; ; , , , - > & + + = , M A T U ` ` ,.K B C E Y Z m Z m Z ",
"q 1 ; ; n B C K r 6 8 y l f 8 7 ; @ ; f ) ' ! Z g 0 6 , , , 6 6 1 , , , 1 1 6 6 7 3 ; = + + = , M Y Q  .w.%.P B / L E C Z A Z Z ",
"q 0 ; , n B l x 9 9 1 t f M 6 8 7 8 C v.D.n.| ' Z h y q 0 y g h g h y q q 0 0 8 6 6 , - = = + - 8 Y Q $.7.e.P c B / C C A S Z Z ",
"q q , , n c l s 9 7 7 y M M y g Z ! ! :.p.i.2.| ! A m m Z m h h Z m g q 0 0 6 6 6 8 7 < : = : ; 1 B _ $.w.w.P c H L C M U Z Z Z ",
"q 8 y 6 f B 9 7 7 7 7 8 t g h A A A Z A Q Q Z Z h g 0 8 1 6 6 0 1 , ; , - ; - - = = = = = > 7 t 1 B  .,.} +.H K H P M V M M B D ",
"M 8 l l f B 9 - = @ @ = - 1 0 0 q 0 q q 0 0 1 1 , ; - = = - - = = + + + @ + + + + = = - 7 g K T t T X.] ) / H H P P B B M B B B ",
" .n t C D l r 8 3 - - , 1 6 , , 1 1 ; , , , ; , , 6 , 1 8 0 6 6 1 , ; , , 6 1 1 6 6 1 0 T o.{ ] l Q Q ` ^ ^ l c P P n B B B M M ",
"x.+.l n / C l n l l l g m m Z Z A N N N D F F F G G G F G N N a m p y y g y y y g q y A j.<.| Y M ^ { ` / c l x H H H M C V M M ",
"e.r.E y B #.W C V C A Z m _ | { _ G G ` { ,.$.$.G G G D g g j g q 0 0 y q y q 0 0 g Q v.j.2._ M M ,.$.) l l x l x B c Y Y R K Y ",
"*.e.t.B d L / C M V A A A R ` Q R Q ^ L R Q R C N s r r 9 9 9 9 7 7 8 0 0 q 8 0 t Y u.v.j.$.' f M { [ C l d f x d B B L ) / L ^ ",
"#.r.r.*.c f C E T ^ Y E T n y t 8 t 8 9 r s 9 r 9 7 > < < < < < 3 7 3 7 r t 8 0 M 3.s.f.7.q.^ g Y ' Y n s d s d l K B ) ) L B C ",
"*.%.e.r.} f n E ' _ Q ^ S f t t 0 8 8 r f f f r r 7 > > > > > < < < 7 7 r r y n ,.j.j.t.h.u.T f ^ Q C r d p s s P H I P K B B B ",
"P #.&.r.,.#.s M ` X.! Q Z g t t 0 y n M M B l d r 9 3 3 > < < 3 9 s s l f l M +.r.f.r.f.7.p.M M T ^ M r r f l H H P / ) / ) P ) ",
"P #.&.#.#.P B B X.o.~ ! Q h t y f R 8.,.,.] ^ K l d r r 9 r s f C / ` ^ { ` ^ 7.f.r.r.t.f.w.n C Q T f r l B L H H K L / } } ) L ",
"b #.I #.H d d c Q 2.X.~ | S y f V t.k.k.u.,.Q `  .$.^ / #.*.} e.r.f.,.,.,. .{ e.f.r.w.e.r.,.B Q Q R r r s 9 s P B H c K } e.$.#.",
"z P I P H u 4 3 c } d.s.2.X.Q U X.k.x.k.n.t.3.>.t.e.w.w.r.r.V.M.C.M.7.{ @. .,.,.e.w.w.w.r.w.) ^ ^ M f x s 7 e l K J H P } w.w.e.",
"w H P P c w & > 3 l w.D.i.i.i.8.$.s.v.L.K.U.F.S.f.f.f.M.C.'.'.[.V.r.7.$.` }  .,. .w.w.e.e.r.+.+./ l x c u e e r x L K P #.#.#.) ",
"w z J P x 5 & & & 3 J D.Z.v.0.0.i.7.n.L.Q.W.).R.Q.L.W.`.`.'. X(.e.} e.7.7.[ ` ` +.+.3.f.A.m.e.} ) d x c d i d 5 7 r B P P x u w ",
"5 w v b d 5 # # & * 3 P `.|.d.s.u.u.8.n.S.~.L.T.W.R.x.T.^.T.z.M.u.u.>.3.+.[ E ` ;.8.7.f.U.T.r.} I d w x z k u 3 & 3 9 r 7 5 4 4 ",
"% * 4 5 u 4 # O # % * 3 *.$X`.k.p.3.d.D.!.R.H.S.A.f.u.t.r.8.,.,.7.2.[ ' @.[ ` { 7.+.7.x.W.).U.#.J x 5 w w 5 5 3 & + > : > < < 4 ",
"O O # * 4 4 & O # # * 3 l @X*XM.&.T.'.#X.X[._.`.Y.T.S.P.g.u.3.9._ ^ E Q Q ` +.u.7.+.r.R.Q.'.M.) x d d 4 > > * 4 # # < < 3 w 7 i ",
"O O O % * 2 & O O O & : M `.;X*X2X<X,X,X,X2X2X<X&X&X#X X`.~./.W.M.e.) L ^ Q _ @.7.s.n.K._./.e.J H w u 4 4 : & & # # < 7 r d f x ",
". . . # % * & # . O $ < +.).@X2X5X6X3X2X2X5X3X6X6X6X>X2X3X<X XXX.X$X(.z.#.K D @.f.H.M.(. XZ.I H c w * * & & O O O # & < 9 r r d ",
". . . O # & % # . X # d e.[.&X-X5X5X3X-X:X:X:X:X1X1X:X:X:X:X=XoXOXoXoX=XoX-.I *.B.V.Z.Z.}.-.b v v w * & & # O O # # % * 5 5 w u "
};
