/* XPM */
static char *out[] = {
/* columns rows colors chars-per-pixel */
"64 64 220 2 ",
"   c #2B1608",
".  c #4A2415",
"X  c #5C2C1A",
"o  c #68321E",
"O  c #583F2A",
"+  c #763A24",
"@  c #7E3D26",
"#  c #63432F",
"$  c #6E402D",
"%  c #6A4D37",
"&  c #77523D",
"*  c #7F5D46",
"=  c #814A35",
"-  c #8E4B34",
";  c #96523A",
":  c #865540",
">  c #8C5D46",
",  c #9D5943",
"<  c #955F49",
"1  c #A45E45",
"2  c #89664F",
"3  c #9B644E",
"4  c #916A53",
"5  c #9A6F56",
"6  c #AB644A",
"7  c #A16851",
"8  c #AD6D51",
"9  c #A86D58",
"0  c #B36A51",
"q  c #B76F53",
"w  c #A1765D",
"e  c #A7755C",
"r  c #AE755B",
"t  c #B4715D",
"y  c #B97658",
"u  c #A87B63",
"i  c #AE7D64",
"p  c #B77764",
"a  c #BD7564",
"s  c #B27861",
"d  c #B47F64",
"f  c #BB7E63",
"g  c #C1785B",
"h  c #C87E61",
"j  c #C07B6B",
"k  c #AC836B",
"l  c #BE8466",
"z  c #B3876E",
"x  c #BA876A",
"c  c #BF8B6C",
"v  c #B78C72",
"b  c #BC8E72",
"n  c #C38264",
"m  c #CC8566",
"M  c #C78568",
"N  c #C48A6C",
"B  c #CC8C6D",
"V  c #CC8C6E",
"C  c #D18969",
"Z  c #D48C6E",
"A  c #D88F6F",
"S  c #C88973",
"D  c #CC8A78",
"F  c #D38E7E",
"G  c #C39072",
"H  c #C69677",
"J  c #C89172",
"K  c #CC9475",
"L  c #C09379",
"P  c #CA997A",
"I  c #CF9C7E",
"U  c #D19071",
"Y  c #D09072",
"T  c #D29172",
"R  c #D09273",
"E  c #D39273",
"W  c #D49374",
"Q  c #D59475",
"!  c #DA9472",
"~  c #DD9876",
"^  c #D79778",
"/  c #D1967C",
"(  c #D89778",
")  c #D59A7B",
"_  c #D9997A",
"`  c #DB9A7A",
"'  c #DA9A7B",
"]  c #DC9B7B",
"[  c #DB9C7D",
"{  c #DA9D7E",
"}  c #DE9D7D",
"|  c #DC9D7E",
" . c #DD9D7E",
".. c #E09E7D",
"X. c #E29F7D",
"o. c #E2A07F",
"O. c #DD9E80",
"+. c #DE9F80",
"@. c #DF9F80",
"#. c #CFA186",
"$. c #D4A082",
"%. c #DFA081",
"&. c #DCA386",
"*. c #D8A485",
"=. c #D7A88D",
"-. c #DCA88A",
";. c #DFAB8E",
":. c #DBAB91",
">. c #DFAF94",
",. c #E0A081",
"<. c #E2A181",
"1. c #E3A181",
"2. c #E1A283",
"3. c #E3A282",
"4. c #E4A281",
"5. c #E4A382",
"6. c #E5A382",
"7. c #E4A383",
"8. c #E5A483",
"9. c #E6A483",
"0. c #E5A484",
"q. c #E6A584",
"w. c #E6A585",
"e. c #E7A685",
"r. c #E7A686",
"t. c #E8A786",
"y. c #E8A787",
"u. c #E9A887",
"i. c #E0A58A",
"p. c #E3AC8D",
"a. c #E7AD8F",
"s. c #E8A888",
"d. c #E9A888",
"f. c #E9A989",
"g. c #EAA989",
"h. c #EAAA8A",
"j. c #EBAB8B",
"k. c #EBAC8C",
"l. c #EBAE8F",
"z. c #ECAC8C",
"x. c #ECAD8D",
"c. c #EDAD8D",
"v. c #EDAE8E",
"b. c #ECAE8F",
"n. c #EDAE8F",
"m. c #EEAF8F",
"M. c #EDAF90",
"N. c #EEAF90",
"B. c #E4B195",
"V. c #E9B193",
"C. c #EDB091",
"Z. c #EEB090",
"A. c #EFB090",
"S. c #EEB091",
"D. c #EDB192",
"F. c #EEB192",
"G. c #EFB192",
"H. c #EFB293",
"J. c #ECB496",
"K. c #E6B599",
"L. c #EAB79A",
"P. c #EEBC9E",
"I. c #F0B293",
"U. c #F0B394",
"Y. c #F0B495",
"T. c #F1B495",
"R. c #F0B496",
"E. c #F1B596",
"W. c #F1B597",
"Q. c #F2B697",
"!. c #F2B799",
"~. c #F3B799",
"^. c #F3B899",
"/. c #F2B89A",
"(. c #F3B99A",
"). c #F3B99B",
"_. c #F4B99B",
"`. c #F4BB9D",
"'. c #F5BB9D",
"]. c #F5BC9E",
"[. c #F5BD9E",
"{. c #F5BD9F",
"}. c #F1BFA1",
"|. c #F5BEA0",
" X c #F6BEA0",
".X c #F6BFA1",
"XX c #F6C0A1",
"oX c #F6C0A2",
"OX c #F6C1A2",
"+X c #F6C1A3",
"@X c #F7C2A3",
"#X c #F6C3A4",
"$X c #F7C3A5",
"%X c #F2C4A5",
"&X c #F7C4A5",
"*X c #F7C5A6",
"=X c #F7C6A7",
"-X c #F7C7A8",
";X c #F7C8A9",
":X c #F0CBAD",
">X c #F4CDAE",
",X c #F8C8A9",
"<X c #F8C9AA",
"1X c #F8CAAB",
"2X c #F8CBAC",
"3X c #F8CCAD",
"4X c #F8CDAE",
"5X c #F9CEAF",
"6X c #F3D1B3",
"7X c #F0D4B6",
"8X c #F6D4B6",
"9X c #FAD3B4",
"0X c #FAD7B8",
"qX c #F1D8B9",
"wX c #F7D8BA",
"eX c #F5DBBB",
"rX c #FADDBE",
"tX c #F6DDC0",
"yX c #F9E1C3",
"uX c #FBE5C7",
/* pixels */
">.F.q.1.Q N k k e z H I I =.B.J.>.B.>.>.:.>.:.B.>.>.>.B.B.B.>.>.>.B.:.>.p.K.B.B.&.>.-.;.i.f.p.b.2.i.2.i.&.2.^ ( K _ Q ] ( _ W W ",
";.h.c.9...J d k u z P I $.-.>.L.B.:.B.-.:.:.>.>.>.>.B.B.B.>.>.>.>.:.-.:.>.B.K.p.;.;.-.i.h.p.;.0.r.0.r.0.h.h.d.o...] ] X.} ] _ ( ",
"H X.} o.} J k k u x L I I >.>.>.>.>.=.:.B.L.B.L.P.P.B.L.P.L.>.>.>.>.>.B.B.J.>.B.>.B.&.;.>.V.p.S.N.C.s.j.v.m.7.j.y.y. .o.4.7.Q ( ",
"b ~ ! Z Q f i k i x P I I -.>.>.B.L.P.P.@X@X}. X&X$X.X X@XXX!.!.[.{.P.P.&X}._.!.'.P.W.J.`.T.D.m.I.v.v.h.h.k.r.w.f.0.7.%.2.} ^ ( ",
"x } Z A Z N i d i b I I I &.&.p.p./.J.W.D.!.!.`. X.X]..X{..X'.'.Q.'.[.&X&X@X[. XW.'.Q.T.Y.W.D.F.H.S.k.f.0.r.e.e. .%.2.1.o.' ( _ ",
"x ] ~ ! C l i i d c P $.{ W K J S b c N K i.J.`. XXXXX'. X X`./.!.Q._.XX=X[.`./.!.!.!.I.C.v.F.v.F.N.l.0.q.2.1.o.@. .] 5.2._ _ _ ",
"x ` m C Z n s i i J P $.c 7 : = = % # + & > f &.D.[./.[. X@X_.!.!.!.Y. XXX@XY.Y.H._.Z.G.Z.G.h.v.W.I.k.h.4.s.} 2. ...' 7.e.2.W ( ",
"x Q m Z C M e r x H H s > = : < > % O X O # = < f / i.W. XXX'.Y.C.V.F.`.@X@XW.f.v.C.F.Z.G.D.F.Y.T.G.v.f.j.r.@. .2.2.1.6.w.%.' ' ",
"z T Z Z m n p e l H x 9 i I p.J.V.=.c 5 > < > < 3 f Q 0.Y.~._.H.f.f.k.^.[.`.I.v.d.k.T._.'.'.[.[.J.W.v.F.f.y.2.7.%.0.0.y.7.2. .[ ",
"x Z C h m f i e J W K [ Z.^. X_.[.}.}.L.B.$.H f f f V W 0.W._.I.0.0.C.!.`.Y.l.r.0.h.M.!.XXXX@X@X_.Y.l.r.0.@. .{ %.....] o...' ' ",
"b _ C h C n f f { f.0.v.m._.Z.W._.[.J.W.!.I.0.| W K B W { Z.j.C.j.f.f.M.F.Y.0.2.2.0.r.W. X XW.L.B.;.I J l x s f f n d l M V M R ",
"H ^ C C C h n n h.k.f.f.F.v.f.k.Z.G.J.l.k.h.0.2.2.' _ ( %.f.x.h.N.f.x.f.Z.h.%.' @.2.7.h.W.v.) x 9 < > + $ $ # $ = : > < 9 f d l ",
"c ) U B m n n J f.f.f.k.h.y.( ( { k.p.v.p.0.( W K W (  .@.y.k.A.k.k.j.k.k.f.Q A C ( ( 2.[ B 9 > $ o X . . . . . X o $ = : < < 3 ",
"b P R B V M l V I.k.f.f.e.U f { /.[.[.W.l.h.2.T n f M W } h.v.H.v.e.j.k.Z.y.V n M M V M l 9 - @ $ X X X X X X # = : = = = = : - ",
"J I R R K N f R C.!.Z.f.! f R /.}.L.&.&.&.i.) E m y 8 M ( 0.y.v.v.j.w.r.k.f.n f f l f y 8 , = @ @ @ $ @ - 7 7 f J J p 9 9 7 > : ",
"$.$.I J P H N V a.I.W.7.B M i.p.I w > = = = < 9 y q 8 t V ` 4.k.I.v.e.e.h.%.B f f p t 8 7 , - - = ; , 6 f N J E ' ( W K K N f f ",
"I I $.$.P P c Y } j.Z.e.M E / w O .   . .     O @ ; , 8 f U ..k.Z.G.h.k.e.%.U M f t 9 , ; ; - - - - - 7 t f t t 8 8 8 p f V R E ",
"$.$.$.$.*.$.P U o...j.7.B n > .     . # #       . X $ - 9 M W y._.'.Y.F.Z.w.( M y 6 3 ; - = = + o = 7 n ) ) ) V N f t < ; ; 7 r ",
"$.*.I $.*.&.&.2.` Y n t 9 ; - = + + $ % O .   . O # X o @ n ( f.[.<X`./.Q.Z.( n 6 , ; - = @ X X - 9 < : > & = & > 7 3 5 3 : o @ ",
"$.$.$.I $.$.Y.Y...Y M y 8 g @.0.[ / n e > & % % > < + @ - t f.v.&X5X1X&X[.Z.' t , , ; @ @ $ X o = $ X   O           . . O X X X ",
"$.$.I I I I ;.l.r.m.Z.Y.v.4.` j.Z.G.v.r.) ) W Z n l f M Q 4.I.'.=XwX9X5X XZ.Y 8 , 1 ; - ; = + = = 3 < & % . . . . .           . ",
"-.*.*.*.{ $.{ 0.r.Z.~.Y.Y.G.h.e.e.2.@.' ( Z Z C C C Z C C ..!.XX2XwXwX5X Xh.B 0 1 6 q 8 M E E Q ( ) ^ $.K s 5 < 3 3 < > > = $ o ",
":.:.=.-.p.r.` T ..G.Z./._.'.G.f.` ( m C C Z m C C m y q m W.`.3X5XwX5X3X XZ.M q 6 q m R E 7.` ( ! ` ! o.%.` m m C B g f y y f g ",
"p.i.&.*.-.0.2.! e.Z.G.Q.[. X@X`.v.T g q n g q 8 6 1 t ' @X;X&X-X9X3X3X@X_.0.M g g h n Q w.t.w.e.o.V y y g h y q q 6 q h Z C m t ",
"&.-.*.&.-.k.f...4.v.F.!.!.&X=X-XoX_.f.! n y t f M 0.'.1X-X3X-X5X3X-X=XXXv.` m m m A Z ( 4.g.f.I.F.v. .n 6 , , 1 1 1 , , ; - - - ",
"p.i.;.i.;.w.o.! f.G.Q._.XX&X5X4X2X.X(._._.!.'.[.#X&X=X-X4X<X5X9X3X3X-X'.h.Q C m Z ! o.4.y.y.j.v.Z.Y.Q._.W.f.[ K n q 6 1 0 t n Q ",
"b.x.i.p.p.V...` v.!.I.[.&X5X<X9X5X=X'._.'. X`.&X2X,X X=X5X9X5X9X9X5XXXW.e.` m m C ! ! o.y.k.e.Z.G.I.T.!.!.XX`. X[..XI.Q.H.I.j.k.",
"b.s.i.i.l.G.f.e.Z.!.!.XX-X3X5X0X9X1X X_._.[.&X<X5X*X X=X9X9X9XwXwX-X'.m.f.] Z C m h g g m m Q e.Z.G.H.~.[.[. X@X&X.X~.H._.v.j.e.",
"w.r.2.i.&.f.f.F.v._.'.&X=X3X9XrXwX5X-X X`.&X;X5X&X&X&X=X4X9XwXuXwX-X'.I.j.0...! n y y g 6 1 1 g ! Z.Y.^._.[.@X&X.X@X[.[.W.Y.k.t.",
"8.2.2.O.&.2.x.I.G.!.XX@X<X2X9X9XrX9X5X=X-X<X<X5X3X-X=X&X5X9XwXuXwX+X_.T.Z.v.v.4.C g h A A g 1 - 6 B f.Y._.'.&X&X=XXXXX'.!.m.j.e.",
"0.9.O.+.2.7.e.e.Z.'.).@X<X<X<X9XwXwX<X<X<X5X@X@X_.W.f.`.<X9XwXrX9X5XW.Y.Q._.v.o.Z h m o.4...h , - ; 8 ( h.W.!.XX@X XW.!.I.Y.y.h.",
"w.o. .[ e.2.k.g.Z.Q.~.'.&X@X.X=X5X-X X XXX'.Z.2.T h o.[.3X9XwXrX9X=X[./. X[.7.m h g C ..4.A h 1 ; ; ; 8 V 7.k.Z._.!.G.Z.G.h.9.e.",
"+.%.{ +.4.y.z.G.u.j.U.~.'.[. XXX[./.Z.h.o.` h q 1 Z W.=X-XwXrXyX9X5XXX@X[.v.M t 1 8 0 q 8 8 1 1 6 q 6 6 6 M ] f.y.v.h.j.r.y.<.y.",
"%.} X.,.2.7.k.G.h.r.l.I._.'.`./.I.y.o.A h 8 ; , U [.&X=X5XrXrXuXuXwX3X XV.B 9 - + + + $ + = , 1 0 q q q q 8 g Y ] o.4.o.4.o.o.4.",
"2.,.^ O.2.i.2.k.j.j.6.v.!.`.Y.v.4.! n q , - 1 ) `.3X>X4X9XyXrXyXrX9X@XD.K 8 @ + + @ $ + @ - - ; , 1 1 q y q 1 8 n E V W ( ] W { ",
"[ _ _ ^ +.{ 9.f.e.} 1.e.Z.G.f.] T n 8 ; - 8 %./.<X5XwX9X9X9XwX>X-X/.l.E 8 ; @ + + $ o $ @ @ @ - - - - , 1 1 , ; , y m Y R R B V ",
") ^ Q ) _ +.o.7.] ~ } 4.0.0.` B g 8 ; - 1 W V.@X<X9X9X5X=XXX[.W.i.W n 8 - @ + + $ + $ + + @ @ = @ + @ - = - = = + - 9 U U ^ V V ",
"Q E ) E ) ' } _ Q A ` ..4.` C g 0 , ; , M { D.@X@X}./.l.V.h.v.k.2.f , ; - - - = = = @ @ = = - = @ @ @ = = = @ $ $ @ + 9 E U U V ",
"Y K S J R  .( _ ( Z C ! ] Q n q , , ; y R %.k.k.^ K R  .] ' R ( R f ; ; 8 n t , ; ; - = - - - < = : = = - : + + @ @ o @ 9 V B V ",
"N M N N R _ }  .} Z Z A ` C y 1 1 , 1 l U W ' n y 8 f S Y f 8 6 3 @ @ ; f V n t 9 , ; - - - - ; ; - - - < , > > : + + + = 6 n V ",
"l l l c N ' @.t...( m Z Z B g 8 , , 8 S N N N p 8 8 8 n f f 6 1 ; - 8 ^ @.' T m y 6 , ; - , 7 1 , 1 , , , 1 1 7 > = $ + + = t B ",
"x l l l K ' 0.h.w.` T m m M M 0 1 , t N l S l r 9 8 t f n n q 8 8 t ( f.v.r.( Z h q 8 1 6 0 g g y g 0 1 6 8 6 , 3 > + + + = 1 B ",
"x c f c R 2.w.Z.N.k.( B f M B n t 6 t J n f r r 8 y t n m B n V R ( A ] 7.0.` A m h y q y g y g g q 6 1 1 8 , , , > @ @ = < ; M ",
"x l x x b { f.V.W.Z.h.R f n E Q V t f V f 1 , 7 7 1 1 6 f n C A A C C C T C h g g 0 6 1 1 , , 1 , - = = - @ + $ + + = > 9 8 1 V ",
"s c c c J { l.W.W.Q.Y.4.n y V +.Q m n V y 7 ; = @ = - , 1 q q y q g y p q q 6 6 , ; - - - - - = + @ + + @ @ @ @ = ; t J U f t Q ",
"l c I H J H h.R.!.!.!.Z.R y N +.%._ R S n y r 8 8 9 8 q y y y y p p y 0 0 0 p j j j a p t 0 6 6 6 1 1 1 0 6 1 1 8 f ] ' @.n M E ",
"P I I $./ ) { F./.~.S.I.{ N l O.e.2.] R W Y M K ( C f n C U B S F U S D D U S D S S j j p j q q q g 8 q q 0 6 y C 0...] W n U ^ ",
"P I $.) ) ) I ;.E.Q.F.I.v.U f V 8.0...W Q U E ( ( Y n n K R V J W K D S S D S S n d r 7 9 r 9 7 8 q 8 6 6 6 0 m 0.y.] Q n M { ^ ",
"K *.*.*.$.{ / &.i.M.S.I.k.^ f l ` t.0.} Y R Q ` E E M f t d r r r p p r 8 y r r 7 < < < < 3 3 7 7 8 9 8 6 t n 2.f.i.( R t U ' R ",
"I *.$.$.$.I I $.{ { s.s.k.{ f t U ..2.X.] ( _ ` Z C n f y 8 8 9 9 9 s s s s r 9 7 < > < < < < 3 7 8 8 8 t n ^ p.0.@.^ l y Y W c ",
"$.-.#.*.*.$.J c l H ) @. .2.n f Y [ | e.0.o.~ ` Q Z n n f f t s t p y f l d 9 9 3 < > > < < < 7 9 9 9 t n ^ 2.r.i.2.n y M E f f ",
"$.*.*.*.-.I c 5 w J / { ^ W ^ ( ' ( 3.7.f.o.] ( ^ B n n n f n l N M M n N d r 7 7 < < < 3 9 r r p y f n [ i.;.p.i.R y f U N p d ",
"P *.&.*.*.I i 4 > e H { _ ( ' x.X.' ' 2...' ` } U U M V Y W / %.^ ' [ ' V N f s r r r i d n S J n N S ) i.i.r.i.) B n V M N f J ",
"H *.=.*.*.J w * & 2 e c { r.k.!.Z.] 7.f.1._ ` ` Q E Y ^ f.b.f.i.2.+.&.2.i.&.I P P K H J / ^ ( ) W E ^ [ i.&.i.&.K M B M M n J / ",
"b $.$.$.I b w 2 & 2 2 5 P W.D.'.^.7.2.N.7.o.E ^ o.%.] i.Z.G.i.{ [ &.{ i.;.;.&.=.-.p.I I I ) ^ ) { [ ) { i.&.) R B V n n N / W &.",
"z P I I I x 2 & & 2 * 2 b !.|.}.&Xk.9.0.7.o.+.' 7.0.r.C.Q.!.l.i.p.0.i.;.B.B.B.D.;.-.{ / H / { O.+.O.) / ) ) _ K J l c M S J ) i.",
"w G P $.P x * % & & * 5 x J.,X=X_.I.5.7.%.2.) f.0.p.p.Y.Y.`./.!.;.l.B.D.L.}.}.J.&.-.$._ K Q ( { ) &.{ { { { J J f s f J G J ) &.",
"w x H I c e & # & % * 5 x B.4X&X`.l.0.<.0.2.2.k.l.l.F.I./.[.[.J.P.J.l.B.!.!.L.i.<.{ ( K R _ { { i.i.{ $.) P c f s 9 p S P I x s ",
"5 5 b b x w % # % & & > 7 p.2X1X`.C.o.2.0.Z.U.T.T.Q.k.C.C.S.k.D.V.p.i.p.h.k.2.+.' _ K R ) 2.2.p.D.p.) H H P x f 3 > 3 s d e 4 4 ",
"% & 2 4 k 5 % # # # & : 7 &.4X2X`.i.&.v.[.#X.X(. X'.S.b.F.H.s.2.w.O._ _ 2. ._ _ ' ' [ [ ) r.l.!./.$.J i i x e 7 > % = > > < > > ",
"O O # * 4 4 * O # # % > < 2.1X9X;.V.#X&X1X5X5X,X|.OXoX.X(.Q.F.G.n.s...Q Y Q ^ +.o.s.0.@.i.Y._._.p.H d x 2 > : 4 & # > 3 < w 7 i ",
"O O O % * 2 & O O O % = f !.5X9XwXwX8X5X9XwXrXeXwX>X9X5X5X*X X{.[.~.i.E R / ^ ' 2.r.l.l.`..X!.&.H d w e > 2 & & # # < 7 s d f x ",
". . . # % * & # . O $ < O.|.<XwXtXyXeXwXwXtXeXyXyXyX8XwXeX0X*X*X=X2X}.B.$.Y S [ l.W.F.|.*X}.I G c w * * & & O O O # & < 9 r r s ",
". . . O # & % # . X # d p.#X6X6XwXeXeX6X7X7X7X7XqXqX7X7X7X7X:X:X>X:X:X:X:X>.I -.K.L.P.}.%X>.b v z w * & & # O O # # % * 5 3 w u "
};
