/* XPM */
static char *out[] = {
/* columns rows colors chars-per-pixel */
"64 64 217 2 ",
"   c #2B1608",
".  c #4A2415",
"X  c #5C2C1A",
"o  c #68321E",
"O  c #583F2A",
"+  c #763A24",
"@  c #7E3D26",
"#  c #63432F",
"$  c #6E402D",
"%  c #6A4D37",
"&  c #77523D",
"*  c #7F5D46",
"=  c #814A35",
"-  c #8E4B34",
";  c #96523A",
":  c #865540",
">  c #8C5D46",
",  c #9D5943",
"<  c #955F49",
"1  c #A45E45",
"2  c #89664F",
"3  c #9B644E",
"4  c #916A53",
"5  c #9A6F56",
"6  c #AB644A",
"7  c #A16851",
"8  c #AD6D51",
"9  c #A86D58",
"0  c #B36A51",
"q  c #B76F53",
"w  c #A1765D",
"e  c #A7755C",
"r  c #AE755B",
"t  c #B4715D",
"y  c #B97658",
"u  c #A87B63",
"i  c #AE7D64",
"p  c #B77764",
"a  c #BD7564",
"s  c #B27861",
"d  c #B47F64",
"f  c #BB7E63",
"g  c #C1785B",
"h  c #C87E61",
"j  c #AC836B",
"k  c #BE8466",
"l  c #B3876E",
"z  c #BA876A",
"x  c #BF8B6C",
"c  c #B78C72",
"v  c #BC8E72",
"b  c #C38264",
"n  c #CC8566",
"m  c #C78568",
"M  c #C4816F",
"N  c #C48A6C",
"B  c #CC8C6D",
"V  c #CC8C6E",
"C  c #D18969",
"Z  c #D48C6E",
"A  c #D88F6F",
"S  c #C88973",
"D  c #CC8A78",
"F  c #D08B78",
"G  c #D38E7E",
"H  c #C39072",
"J  c #C69677",
"K  c #C89172",
"L  c #CC9475",
"P  c #CA997A",
"I  c #CF9C7E",
"U  c #D19071",
"Y  c #D09072",
"T  c #D29172",
"R  c #D09273",
"E  c #D39273",
"W  c #D49374",
"Q  c #D59475",
"!  c #DA9472",
"~  c #DD9876",
"^  c #D79778",
"/  c #D1967C",
"(  c #D89778",
")  c #D59A7B",
"_  c #D99878",
"`  c #D9997A",
"'  c #DB9A7A",
"]  c #DA9A7B",
"[  c #DC9B7B",
"{  c #DB9C7D",
"}  c #DA9D7E",
"|  c #DE9D7D",
" . c #DC9D7E",
".. c #DD9D7E",
"X. c #E09E7D",
"o. c #E29F7D",
"O. c #E2A07F",
"+. c #D89380",
"@. c #DD9E80",
"#. c #DE9F80",
"$. c #DF9F80",
"%. c #DD9986",
"&. c #D99E87",
"*. c #D4A082",
"=. c #DFA081",
"-. c #DCA386",
";. c #D8A485",
":. c #DCA88A",
">. c #DFAB8E",
",. c #DFAF94",
"<. c #E0A081",
"1. c #E2A181",
"2. c #E3A181",
"3. c #E0A182",
"4. c #E1A283",
"5. c #E3A282",
"6. c #E4A281",
"7. c #E5A382",
"8. c #E4A383",
"9. c #E5A383",
"0. c #E6A483",
"q. c #E5A484",
"w. c #E6A584",
"e. c #E6A585",
"r. c #E7A685",
"t. c #E7A686",
"y. c #E8A786",
"u. c #E8A787",
"i. c #E0A58A",
"p. c #E3AC8D",
"a. c #E7AD8F",
"s. c #E8A888",
"d. c #E9A888",
"f. c #E9A989",
"g. c #EAA989",
"h. c #EAAA8A",
"j. c #EBAA8A",
"k. c #EBAB8B",
"l. c #EBAC8C",
"z. c #EBAE8F",
"x. c #ECAC8C",
"c. c #ECAD8D",
"v. c #EDAD8D",
"b. c #EDAE8E",
"n. c #EEAF8F",
"m. c #EDAF90",
"M. c #E4B195",
"N. c #E9B193",
"B. c #EDB192",
"V. c #EEB192",
"C. c #EFB192",
"Z. c #EFB293",
"A. c #ECB496",
"S. c #E6B599",
"D. c #EAB79A",
"F. c #EEB899",
"G. c #EEBC9E",
"H. c #F0B293",
"J. c #F0B394",
"K. c #F1B495",
"L. c #F0B496",
"P. c #F1B596",
"I. c #F1B597",
"U. c #F2B697",
"Y. c #F2B698",
"T. c #F2B799",
"R. c #F3B799",
"E. c #F3B899",
"W. c #F2B89A",
"Q. c #F3B89A",
"!. c #F3B99A",
"~. c #F3B99B",
"^. c #F4B99B",
"/. c #F4BA9C",
"(. c #F4BB9C",
"). c #F4BB9D",
"_. c #F5BB9D",
"`. c #F5BC9E",
"'. c #F5BD9E",
"]. c #F5BD9F",
"[. c #F5BE9F",
"{. c #F1BFA1",
"}. c #F5BEA0",
"|. c #F6BEA0",
" X c #F6BFA1",
".X c #F6C0A2",
"XX c #F6C1A2",
"oX c #F6C2A3",
"OX c #F7C2A3",
"+X c #F6C3A4",
"@X c #F2C4A5",
"#X c #F7C4A6",
"$X c #F7C5A6",
"%X c #F7C6A7",
"&X c #F7C7A8",
"*X c #F3C9AA",
"=X c #F7C8A9",
"-X c #F0CBAD",
";X c #F4CDAE",
":X c #F8C8A9",
">X c #F8C9AA",
",X c #F8CAAB",
"<X c #F8CBAC",
"1X c #F8CDAE",
"2X c #F9CEAF",
"3X c #F3D1B3",
"4X c #F7D1B2",
"5X c #F0D4B6",
"6X c #F6D4B6",
"7X c #FAD3B4",
"8X c #FAD7B8",
"9X c #F1D8B9",
"0X c #F7D8BA",
"qX c #F5DBBB",
"wX c #FADDBE",
"eX c #F6DDC0",
"rX c #F9E1C3",
/* pixels */
",.B.=.=.) I J ;.;.,.M.A.M.D.A.M.M.M.,.M.,.M.M.D.M.W.M.A.S.A.>.a.>.a.>.a.>.a.p.p.4.i.4.#.@.<. . .` ` Q ) L Q L E Y T Y E U W Y T ",
";.h.i.*.J K J *.>.>.M.,.D.A.A.M.D.,.M.M.D.D.D.A.F.N.F.m.A.N.N.>.a.>.a.>.>.>.a.p.l.s.8.=.=.2.2.| #.@.<. .) ` L R Y Y U Y Q T E T ",
"L a.I J H H H i.,.M.>.M.A.F.,.M.M.M.,.A.F.W.a.F.N.A.A.Y.A.H.a.m.L.I.h.m.C.K.a.h.x.j.4.<.1.8.[ $.| 4.` | } ] Y Y V V m C Y Z C Z ",
"H [ L P J I >.A.F.L.M.M.G.Q.W.Q.F.P.,.m.F.F.N.N.P.T.P.L./.~.K.Z.Y.B.a.l.H.l.h.f.b.g.1.| 3.X.[ | =.<.@.@. .( E Y V B C C Z C C n ",
"K }  .i.;.N.L._.).)./.Q.F.F.P.|.T.`.[.F.~./.).~.W.Q.L.T.Y.T.L.J.a.H.k.C.f.k.r.k.u.t.X.O.[  .] X.' 4.#.4.Q R V V B Z B C C C n C ",
" .4.t.a.U.T.~.!.`./. X).).W.Q.'.}.).}./.).~.~.W.Q.~.Y.I.T.P.I.m.z.k.b.k.h.w.r.k.c.6.$.| ..@. .] =.2.3.` L V V n B B B C n n n C ",
"q.z.l.L.R._.K.}.(. XP.T.Q.~.F.).~.].P.Q.)./.Z.W.Q.Q.B.L.Q.L.l.m.m.H.f.f.g.k.4.k.c.t.] | | #.` | 4.e. .^ E Y m n B C h n n C h m ",
"m.H.P.T.~.).I.T.}.].L.L.Q.~.~.T.`.Q.T.T.~.).T.L.~.Y.W.A.Q.F.L.H.L.m.f.u.h.k.f.h.n.j.<.@.<. .o.[ 3.=.( W W V B m n n h h n m h h ",
"m.P.T.~.Y.'.L.].I.^.Y.Y.T.^.~.'.L.I.m.Q.V.).T.T.P.`.).+X]._.T.Y.h.f.4.e.e.k.l.h.0.t.#.4. .=.#.1. . .` Q V V m h g b b b g h g g ",
";.a.A.Q.).).).F.~.P.B.V.J.U.!.Q.Y.V.H.m.Q.).'.].XX}.}.}.+XW.L.H.l.t.t.f.n.f.f.w.t.4.=.| #.4.@.#.@. .` W T B m f y f b g g g f g ",
"* u H &.N.F.F.T.T.L.h.l.P.~.V.L.Z.V.4.m.T.}.~.XXOX&X).}.~.~.a.>.} Q V L Q V N Y E Q Y ( | 8.] | ] ] W W Y Y k f y k y y f b g g ",
"O $ : 7 N } t.m.H.C.h.f.n.T.P.l.m.g.t.a.P.~.}.}.OX}.F.N.,.*.k 7 7 > = : < 3 3 9 f b b N V R Q `  .] Q R Y m k y b f y y b g g g ",
": = = < 8 k Y 8.l.c.k.m.e.b.x.x.k.w.8.l.h.H.T.~.A.>.N 9 > = $ X X . . X o + + : < 7 7 9 7 8 f b V E T Y b b f g y g y g y y g b ",
"I x d 9 r y b ^ f.l.h.k.h.h.k.l.j.] |  .O.w.h.f.( y 3 = $ X X . X X X $ = : = : > < < < < < , 1 8 r s s s r t r t q q t y y y q ",
"&.&.V V b b b T =.l.t.f.d.c.e.u.4.W n Y Y Q R V y 1 = $ $ $ o + : < e N L L p s s s 7 < < < - , 1 7 > < 3 3 < 6 8 8 6 6 6 8 1 8 ",
"a.e.} V b y b R =.t.t.t.k.h.y.t.w.B b b n B b t 8 - = @ = - < 9 m Q ] i.a.t.=.] @.Q Y S f 9 7 7 7 < < < 3 > ; ; 3 1 1 1 6 6 6 1 ",
"h.f.=.] m y r m T O.w.k.t.c.f.k.| B y k f k f 8 , ; ; ; , 8 y B Y } ^ ] ] =.}  .`  .] | Q V b f r 7 3 3 3 3 ; < < 1 1 8 6 8 8 8 ",
"e e 9 r y t 0 t n Q w.g.l.h.f.w.t.T m k f y 8 , , ; ; , , , t b V V V m m b y t y f V Y E R R N k r 9 7 9 7 9 8 6 6 6 8 8 t t t ",
".     . $ ; , 8 f V ' m.Q.H.f.l.6.] B b f t 1 , ; ; = @ - r m #.t.l.4.=. .W k t 1 - - 8 N Y V N N b f y f k y t 8 t 8 y f b f b ",
"O .     . X $ @ 3 b ^ z.OX}.F.H.m.#.V f r 6 3 ; - @ o + 7 f s r k x k k V S k s s 7 = @ 7 V Y R Y B f b m m b y f y y y g b a g ",
"O . . . . # $ $ o 6 ~ C.&X2XOX).H.f.V 0 1 7 ; - @ + X - - = X X . . . X $ & $ + & & $ $ $ r N N f f y b b m b f t y f b g m m n ",
"r 4 < > 7 r 9 < < t f.U.2X6X<XOX(.e.b 6 6 6 ; , , = @ = - - & O .     . .       . . . X o - 1 1 y B ! ' ~  .( T m f y y f f y y ",
"8.#.Q ) Q Y C Q  .w.h.}.1XwX1X&X~.] q 6 0 g 1 b ] ( V E ` ] K K f 7 > < 3 3 : < 3 > = < 8 t 1 8 h Q T | O.6.' Q b t 1 6 8 r t y ",
"^ U Z Z ! Q Z C n | Q.+X2X6X&X}.J.^ y 0 y Z ^ ^ w.t.X.Q ' | X.| | Z B Z Q m b b m V Z Z h 1 6 Z 6.4.^ Y W Y V b f t 8 r f k k k ",
"n Z C C b g 0 g ^ ).#X<X2X1X$X~.4.Q b h h W | g.y.k.g.6.V m m C m m g g y b C A n n y , ; 6 n O.9.w.6.1.' Z m V V N s s s f y d ",
"g 8 6 1 6 8 B m.=X%X,X1X2X<X.Xk. .Z C Z _ ^ | u.k.h.k.H.L.8.m 6 1 , , 1 1 , , ; ; - ; 8 V 6.f.w.X.| 6.O.w.w.6.r.O.V s r r s t r ",
"~.H.4.l.A.}.*X>X,X<X,X2X2X:XA.0.Q Z C ~ y.n.w.c.x.b.d.C.Y.'.H.Q.m.>.E T V V m V E =.t.H.~.P.k.c.O.~ W O.f.h.0.r.u.` y r r s t y ",
"&X$X].OX2X1X,X$X1X4X7X1X<X}.h.' Q Z Q | f.n.h.f.n.d.c.H.R.Q.F.T.OX}.}.}.OX}.).}.}.^.P.z.U.C.k.d.x.| Q ' t.t.0.7.y.Q k t p d f k ",
"OXOX&X2X1X2X=X=X2X6X2X2XXXQ.O.! C Z Z A ! ' ~ X.6.n.n.P.J.(.^._.~.}.OX:X+X,X}.}.).).Q.P.k.x.g.x.y.j.O.| | 6.w.r.@.( b y t f f b ",
"<X&X1X2X2X1X<X:X6X0X6X&X'.n.w.| ! Z n m h g g y y h _ n.Q.).T.^.]..X%X&X&X&X$X:X}..X(.C.C.k.d.h.v.b.g.O.| | X.| =.( m f f b m N ",
"6X8X,X2X1X<X}.&X6XwX6XOX).P.t.t.6.' h g h Z C b 8 , , b  .T.P.}.OXOX}.&X$X,X}.OXOXOXP.P.C.H.g.c.n.n.7.O.| 1.` O.$.] m b b V b V ",
"6X2X2X<X<XOX~.OX2XwX7XOXXXH.n.m.n.| n h C 6.6.| ! q - ; 8 m | l.).}.&XOX<X&XOXOX|.Q.W.n.I.C.k.k.k.d.y.6.w. ._ ( ] Q b y b m m B ",
"OXOX).P.t.=.4.&X,X0X7XOX).P.P.~.6.Z n Z ~ h.f.w.A h , ; ; 1 t W 8.H.T.).).(.T.Q.C.J.k.C.x.C.b.m.t.u.0.0.<.#.^ ` E Q m b b V V R ",
"H.f.| C q q f.&X7X6X<XOXOX).).w.B g g n ! ' Z h y 6 1 8 y 0 8 0 m ] f.n.T.T.T.P.c.n.f.d.n.n.k.g.y.9.<.<.4.} ` Q E W n b m V V V ",
"X.C 8 - - Y ~.4X0XrX6X2X2XOXt.m 8 1 ; ; ; ; = - ; 1 6 y b h g y 0 f n | t.n.f.n.w.l.6.y.n.n.w.0.4.4. .] ` ) L / L / b N V R V V ",
"n 0 = @ k ~.1X6XrXrXrX6X$Xa.f 1 - + o + + + + - ; ; , 6 0 q g g y 8 8 y W X.X.X.6.6.O.O.f.w.O.{ X. .( Q ) L L / ) L Y R ) W Y B ",
"6 ; @ y a.&X2XwXrXrX6X&XN.m , - + + + @ + + + = @ - - ; ; 1 6 0 1 1 , , 8 m T Q ! [ ( [  .O.' | Q ^ W L N K L ) L L L } } ` V Z ",
", @ , ^ W.=X2X2X2X&X).t.R 1 - @ + + + o + + + @ = - - = @ = - ; - - = = = ; f R ^ ' ( ^ Q E ^ ^ ^ Q W V S N L ) L K Q } ` Q Y B ",
"; - t 4.}.OX).).F.T.| f , ; @ + @ = + + @ = = - - , = @ @ = = - ; - + = $ + + 9 R 4.^ Q Q Q Y T Q Q V N N N K ) L L L ) ) / m C ",
"; ; N t.>.) =.| O.=.^ t ; ; 1 r 8 , - - - - = - ; , - = ; - - - ; - = + & + $ + 7 m Q Q ] W Y W Q ( L N N x K Q Q L N S R B m n ",
"; 7 L  .f p V Q b f 9 ; @ , k E m r 1 , ; ; - - ; ; , ; ; ; ; 1 , , < < > : + + + < f W U E W _ ^ _ ` L N N K L N K K L V B n n ",
", 6 K x r 7 f b t 6 1 - 7 R  .( W b y 8 1 , , , 1 1 1 , 1 , 1 1 1 6 7 1 7 < - @ + @ ; f T W ( ] | ..@.K N x K K K H J L K V B C ",
"1 8 N d 9 9 r f y t 8 t ( H.l.f.| ! h g q q 8 0 h h q g g y 6 0 q q 1 6 8 1 ; = @ = @ , n ^ W ..<.4.) / x J x H H J H L N V n C ",
"6 t N r 9 9 s f b b N Q O.4.8.6.6.' C C C m m h m m m n m y 0 0 y q 6 6 0 6 , - - = - , f ^ ] [ 1.3...L K H x x H J K J N B V B ",
"8 y f 7 < 3 , 8 8 m m n m C C W C n h h q 0 6 6 6 0 0 6 ; ; , 1 , ; - - - - = - ; 7 r y 8 Y | 7.@.=.' L N H x H H L I L k N N S ",
"f t N 7 - + + @ , 1 1 1 1 6 0 6 6 1 , , ; - = = - - - = = @ @ = = - = = - - ; 7 b Y ^ Y y T $.X.X.| ^ V V S x x H I P K N N m N ",
"W k f d 7 3 < 7 0 8 , 1 1 1 ; ; 1 6 , 6 8 0 8 0 0 0 1 1 1 6 8 0 q y 0 y q y q Z t.g.2.~ m _ ( X. .| Y V N N d z H J x H K K k N ",
"N.V f V N b n m C C Z Q Z F G F +.+.G F G +.F S S M M b b g y b b g q q g C | V.C.4.| U n ] 2.$.@.` V N x k f f x z N K K K V N ",
";.#.N K L R Y Z C ' ] %.Q %.| | %.| +.G M S M f y b f t t g g a 0 y 0 y n 6.H.!.e.1.[ C b <.3.4.Q R b x f d p x z f x K N ^ Q Y ",
"P >.) N Q Q ^ W Z T V R R Y L D S D S f r r 9 7 7 7 7 7 9 r t t r 8 t b  .C.L.B.e.=.] b m #.4...K b f f f s f z f f H K I ) } ) ",
"I :.) N K @.^ ^ Z b 8 6 8 8 7 9 r r 7 9 9 7 < < < < < 3 7 r r t t y y T s.L.l.z.e.a.T f T 3._ Q V m d f s r d d f x H I *.} K V ",
"*.;.;.K K ) | [ Q b 8 8 8 9 9 t y y s 9 7 7 < > < < < 7 9 t t y b b V #.L.L.z.k.l.a.V b ] [ Q V V N f r r f z f x H H J *.L K K ",
"P ;.-.&.N L @.O.W b r 8 8 r t b f b f p 9 7 3 3 < 3 3 s f m n V Y E  .z.m.L.z.z.a.a.V B ^ _ W V B N f 9 9 k J P x K K L L *.} ) ",
"J ;.:.*.K N } #.' n y t r t b ( ] ( W n b p s r d k S Q ] #.8.O.8.4.i.a.N.N.z.8.a.4.L V ^ W Y V R N s 9 r s s H J x N K L ) -.-.",
"v *.*.*.x i x L | X.m g y f W f.w.p.Q ^ ` #.Q ] i.a.a.F.F.W.t.t.8.i.=.t.s.k.#.4.8.4.Y T ) ' Y E V N r d e 7 7 d L K x x K &.&.a.",
"l P I I J i 4 i ] t.| C C ' O.t.L.h.8.6.f.t.i.>.P.F.L.F.{.W.m.a.8.=.i.1.e.5.| $.4.4.` ) 3. .^ R R z f z z w 9 8 N / L N L *.i.-.",
"w H P *.J u * 4 d ] a.h.X.w.t.z.P.H.H.P.H.P.H.~.A.F.}.:X+XW.p.i.4.=...3. .<. .4.@.=.} s.p.i.` ` V z d z i u w r r k N L L *.*.I ",
"w z J I x w & = * e } m.H.w.d.t.V.J.I.~.}.}.}.}.}.}.oX+XOXA.i.i.s.e.#.^ ( ^ { @.@.=.e.f.H.>.;.` P d f H d i i u < 7 d N I J i e ",
"5 5 c v d w # # & > 9 J W.'.u.f.g.n.k.J.~.'.L.P.l.Q.A.A.l.m.e.d.u.<.( ( (  .` #.4.p.4.m.W.~.i.} P l 4 z v l e u : > 7 9 7 4 4 4 ",
"% & 2 4 u 5 % O # & * 7 ;.=XQ.l.f.u.C.W./.Q.I.l.J.a.s.e.e.1.3.<.<.` ` ^  .] #.4.=.^ s.H.W.Q.a.I H z 7 7 u w 4 7 * # : : > < < 4 ",
"O O # * 4 4 & O # # & > f +X,Xz.;.~.XX:X$X$X}.}.~.(.Z.L.g.h.u.O.' Q T Q Q @.=.s.e.#.z.I.E..XA.I H i c 4 4 > * 4 % # > 3 3 9 7 d ",
"O O O % * 2 * O O O & > N ].2X<X6X0X6X2X7X0X0X6X2X<X1X%X+X}.|.~.T.i.) R Q Q ` @.4.h.Z.I.XXXXa.K H e w 4 4 * & & # # < 7 r d f z ",
". . . # % * & # . O $ < @.}.>X0XeXrXqX0X0XeXqXrXrXwX6X0XqX8X$X$X%X<X{.N.*.L S { z.I.A.}.$XG.I H x w * * & & O O O # & < 9 r r d ",
". . . O # & % # . X # d p.+X3X3X0XqXqX3X5X5X5X5X9X9X5X5X5X5X-X-X;X-X-X-X-X,.I :.S.D.D.@X@X,.v c j w * & & # O O # # % * 5 5 w u "
};
