/* XPM */
static char *out[] = {
/* columns rows colors chars-per-pixel */
"64 64 210 2 ",
"   c #2B1608",
".  c #4A2415",
"X  c #5C2C1A",
"o  c #68321E",
"O  c #583F2A",
"+  c #763A24",
"@  c #7E3D26",
"#  c #63432F",
"$  c #6E402D",
"%  c #6A4D37",
"&  c #77523D",
"*  c #7F5D46",
"=  c #814A35",
"-  c #8E4B34",
";  c #96523A",
":  c #865540",
">  c #8C5D46",
",  c #9D5943",
"<  c #955F49",
"1  c #A45E45",
"2  c #89664F",
"3  c #9B644E",
"4  c #916A53",
"5  c #9A6F56",
"6  c #AB644A",
"7  c #A16851",
"8  c #AD6D51",
"9  c #A86D58",
"0  c #B36A51",
"q  c #B76F53",
"w  c #A1765D",
"e  c #A7755C",
"r  c #AE755B",
"t  c #B4715D",
"y  c #B97658",
"u  c #A87B63",
"i  c #AE7D64",
"p  c #B77764",
"a  c #BD7564",
"s  c #B27861",
"d  c #B47F64",
"f  c #BB7E63",
"g  c #C1785B",
"h  c #C87E61",
"j  c #AC836B",
"k  c #BE8466",
"l  c #B3876E",
"z  c #BA876A",
"x  c #BF8B6C",
"c  c #B78C72",
"v  c #BC8E72",
"b  c #C38264",
"n  c #CC8566",
"m  c #C78568",
"M  c #C4816F",
"N  c #C48A6C",
"B  c #CC8C6D",
"V  c #CC8C6E",
"C  c #D18969",
"Z  c #D48C6E",
"A  c #D88F6F",
"S  c #C88973",
"D  c #CC8A78",
"F  c #D08B78",
"G  c #D38E7E",
"H  c #C39072",
"J  c #C69677",
"K  c #C89172",
"L  c #CC9475",
"P  c #CA997A",
"I  c #CF9C7E",
"U  c #D19071",
"Y  c #D09072",
"T  c #D29172",
"R  c #D09273",
"E  c #D39273",
"W  c #D49374",
"Q  c #D59475",
"!  c #DA9472",
"~  c #D79778",
"^  c #D1967C",
"/  c #D89778",
"(  c #D59A7B",
")  c #D99878",
"_  c #D9997A",
"`  c #DB9A7A",
"'  c #DA9A7B",
"]  c #DC9B7B",
"[  c #DB9C7D",
"{  c #DA9D7E",
"}  c #DE9D7D",
"|  c #DC9D7E",
" . c #DD9D7E",
".. c #E09E7D",
"X. c #E2A07F",
"o. c #D89380",
"O. c #DD9E80",
"+. c #DE9F80",
"@. c #DF9F80",
"#. c #DD9986",
"$. c #D4A082",
"%. c #DFA081",
"&. c #DCA386",
"*. c #D8A485",
"=. c #DCA88A",
"-. c #DFAB8E",
";. c #DBAB91",
":. c #DFAF94",
">. c #E0A081",
",. c #E2A181",
"<. c #E3A181",
"1. c #E0A182",
"2. c #E1A283",
"3. c #E3A282",
"4. c #E4A281",
"5. c #E4A383",
"6. c #E5A484",
"7. c #E6A584",
"8. c #E6A585",
"9. c #E7A686",
"0. c #E0A58A",
"q. c #E3AC8D",
"w. c #E7AD8F",
"e. c #E8A888",
"r. c #E9A888",
"t. c #E9A989",
"y. c #EAA989",
"u. c #EAAA8A",
"i. c #EBAA8A",
"p. c #EBAB8B",
"a. c #EBAC8C",
"s. c #EBAE8F",
"d. c #ECAD8D",
"f. c #EDAD8D",
"g. c #EDAE8E",
"h. c #EDAE8F",
"j. c #EEAF8F",
"k. c #E4B195",
"l. c #E9B193",
"z. c #EDB091",
"x. c #EEB091",
"c. c #EDB192",
"v. c #EEB192",
"b. c #EFB293",
"n. c #ECB496",
"m. c #E6B599",
"M. c #EAB79A",
"N. c #EEB899",
"B. c #EEBC9E",
"V. c #F0B293",
"C. c #F0B394",
"Z. c #F1B495",
"A. c #F0B496",
"S. c #F1B596",
"D. c #F1B597",
"F. c #F2B596",
"G. c #F2B697",
"H. c #F2B698",
"J. c #F2B799",
"K. c #F3B899",
"L. c #F2B89A",
"P. c #F3B89A",
"I. c #F3B99A",
"U. c #F3B99B",
"Y. c #F4B99B",
"T. c #F4BA9C",
"R. c #F4BB9C",
"E. c #F4BB9D",
"W. c #F5BB9D",
"Q. c #F5BC9D",
"!. c #F5BC9E",
"~. c #F5BD9E",
"^. c #F5BE9F",
"/. c #F1BFA1",
"(. c #F5BEA0",
"). c #F6BFA1",
"_. c #F6C0A1",
"`. c #F6C0A2",
"'. c #F6C1A2",
"]. c #F6C2A3",
"[. c #F7C2A3",
"{. c #F6C3A4",
"}. c #F2C4A5",
"|. c #F7C4A5",
" X c #F7C4A6",
".X c #F7C5A6",
"XX c #F7C6A7",
"oX c #F7C7A8",
"OX c #F7C8A9",
"+X c #F0CBAD",
"@X c #F4CDAE",
"#X c #F8C8A9",
"$X c #F8C9AA",
"%X c #F8CAAB",
"&X c #F8CBAC",
"*X c #F8CCAD",
"=X c #F8CDAE",
"-X c #F9CEAF",
";X c #F3D1B3",
":X c #F7D1B2",
">X c #F0D4B6",
",X c #FAD3B4",
"<X c #FAD7B8",
"1X c #F1D8B9",
"2X c #F7D8BA",
"3X c #F5DBBB",
"4X c #FADDBE",
"5X c #F6DDC0",
"6X c #F9E1C3",
"7X c #FBE5C7",
/* pixels */
"k.x.7.3.$.( z z z H $.k.;.k.;.k.k.k.k.k.k.l.k.n.k.l.k.M.k.l.w.M.w.q.0.-.q.w.w.w.0.6.&.0.0.e.6.5._ [ _ +.O.1.' ` T T V E Y Y Y W ",
"*.u.f.y.2.I H K H I ;.k.m.;.k.:.:.k.k.k.k.l.l.k.k.k.k.k.M.M.M.c.c.w.w.w.c.c.b.z.a.e.t.t.s.t.9.+.@.| @.>.2.,.@.` Q B U U Q T W Y ",
"K 9.@.7.2.( H P I q.0.k.w.M.;.k.k.k.-.l.k.N.w.n.n.L.k.M.J.Q.b.A.D.L.w.w.b.G.t.a.a.r.9.p.j.y.' ....} ' @.>.7.[ ` Q Y m B Z T C C ",
"x [ ' ) } ( ^ ( w.l.l.l.D.J.M.M.L.U.U.U.^.^.R.I.'.).U.Q.'.Q.L.D.L.c.w.p.c.z.a.e.f.r.7.e.f.1.] _ >.[ ` ' 6.4.` ) ~ Y n C C C C n ",
"x { | 5.0.w.c.J.N.Q.L.Y.L.I.J.^.Y.Q.'.~.R.~.Q.).Q.^.^.L.n.A.v.Y.b.G.a.d.e.j.t.u.t.9.9.j.9.,.] | _ } | ,.@.@.` ` B V n B n C B C ",
"R +.6.f.A.J.I.J.E.R.^.I.R.J.D.L.E.R.!.Q.^.R.J.D.Q.J.L.Z.Z.b.G.D.L.D.c.t.f.p.e.e.7.9.p.p.y.4.{ | 1.$.>.+.1.} _ T V C C C C n C C ",
"O.9.4.f.V.G.A.I.E.~.N.J.^.T.n.J.Y.T.L.).J.R.n.L.Q.^.s.J.D.R.M.D.L.Q.z.s.s.f.5.e.a.V.e.f.y.9.~ { +.5.| 6.1.>.E Z n C h m m n b m ",
"&.O.O.6.f.Z.I.J.R.Q.Q.^.{.Y.D.D.T.P.U.U.^.Y.C.A.I.Y.Z.J.Q.'.).L.Q.L.Z.s.j.t.t.u.f.p.t.t.f.2.{ | 5.1.| @.>.O.Q Z C b b h n m b h ",
"e u r z H q.s.L.n.R.A.Q.L.E.n.L.v.L.Y.Y.H.V.z.Z.Z.!.Q.'.^. X{.'.L.U.s.t.O.O.O.&.( ~ R ~ ~ >.{ +.[ >.' 1.>.@.Q Z h h g g g h b g ",
"+ + $ $ = 5 x ( e.j.n.D.H.J.z.s.v.D.D.Z.Z.a.z.a.V.Q.^.{.{.'.{.U.c.0.N d r 9 7 9 9 7 7 y b S Y Y Y W _ ~ O.} Q V m b g g g g h g ",
"5 : o X $ = : 9 N [ >.z.F.J.t.t.z.D.w.s.s.f.2.t.f.Y.N.Q.^.L.I z e < + $ # X X X + = = < 7 8 8 8 0 k N Q ' [ U B b k y f g b g g ",
";.I z 5 < > : , r k V 2.j.v.z.y.z.s.w.p.p.6.>.4.f.z.Z.w.&.k 3 = + X . . . X X X + = = = > < < , , < 7 8 f m m f f f y f b g y y ",
"w.k.;.*.^ H f d t f m ~ 2.f.a.e.9.f.p.t.>.' Q ' [ 6.5._ y 3 = + o X X # $ = > d z d 5 7 7 7 , ; - ; < 3 3 7 7 8 8 y y g y y y y ",
"~ O.*.*.O.R K m m k B R 2.t.p.r.r.e.f.y.Q B B B T Y Y g 7 - @ + @ = - 7 s K { 0.0.1.' ~ G N f r 8 3 3 < < < < > < 3 6 0 6 6 q 0 ",
"[ c.c.D.c.e.Q b y f m ~ ,.i.7.t.y.p.6.y.} B y b m m y 8 1 ; = : ; 7 0 m ~ +.` 2.6.e.O.1.>.+._ ~ S y 9 9 7 < > > - ; ; 1 1 0 , 6 ",
"A.z.t.0.9.2.` V f 6 t m ` 9.9.r.u.9.2.5.@.m y y g f 8 6 , ; ; , 7 6 y m T T m m B B b m V E W Q Q Y N f t 7 3 < < ; , 1 6 6 6 6 ",
"{ K e 3 > < 3 e 8 8 6 f B } 9.Z.y.p.9.9.' R B b y 8 1 , ; ; ; - = , f Q ' [ ~ R m f t 6 ; 7 t m N Y N m f y 8 9 1 7 6 8 6 8 8 8 ",
": X . . .     . $ : 1 8 m T r.G.Z.a.a.e.2.~ V f t 7 , - - - + + 7 k F ~ &.*.( _ T N k s 9 ; @ , f S B m S m b b b f t 8 y t f y ",
"      . % .     . X o : t Q } U.{.'.c.Z.s.>.b t 6 6 ; - = + o ; 9 7 + = & $ % : < 3 > > < < = + 3 V R Q Z B b B B B y y f g y y ",
"X # $ % % O . . # = $ o @ m ,.L.:X%X^.^.J.1.f 1 6 1 - - = o + = @ + .   .       . .     . . . X + 6 b y y b b m B b y y y g h h ",
"k k k z r 5 3 9 e r 7 < - B t.{.:X,X%X{.w.) 8 1 6 6 , 8 6 , , 1 8 r u : # O O # # # O X $ $ o o @ 1 6 6 b ) ) } ` } T b y b y y ",
"9.p.p.6.>._ ~ R T V T Q } 9.J.XX<X2X-X'.t.B 0 6 y f y Q 5.5.@.` @.} +.( K d s d k f r 8 r 8 8 g b 8 6 y m T Q _ ' @.Y y 8 8 8 8 ",
"} 6.~ Q W ! Z Z ) W C h n Z.Q.%X2X,X%X^.e.B 0 q b ] X...5.y.) V V / ~ ] ) W b n n m h Z ) ] Z g 1 , b ,.9.9.Y m b f t f y f y f ",
"f.T Y C Z Z V n g q 6 b b.'.XX*X,X-X'.c.2.C g b V ! ,.y.z.j.y.2.) g 6 6 g y q 0 y g g g y 6 ; - 1 n ] 4.9.9.,.] B f m Y k f f y ",
"U.a.! n y q 6 6 6 f O.{.XX=X%X:X%XOXG.9.W T Z ) ! ) ,.j.f.j.f.G.Z.f.' m 8 q 6 , ; ; ; , ; 7 y _ 8.p.7.5._ +.4.9.,.] ] } k t r r ",
" X{.).Y.b.t.9.w.M.'.XX%X*X%X:X-X%X^.p.) Z Z ) } 9.9.y.f.j.f.V.Z.J.D.L.U.^.Y.n.w.w.0.0.t.c.G.J.D.V.f.y.5.@.~ ] 5.7.9.7.[ S t y r ",
"OX-X'.{.XXXX).#X%X=X'.%X=X,X,X,X%XQ.,.A Z E Z ] 4.j.9.f.j.V.f.H.L.Q.b.L.).XX).{.'.{.J.Q.'.^.j.j.j.f.6.e.9.,.W } 7.y.4.>.V b t p ",
"=X:X-XXX{.'.{.$X:XOXXX*X<X2X<X*X'.Z.,.A A Z Z C Z Z C Z ] 4.j.Z.R.Q.G.J.).{.XXXXOXXX^.^.'.L.j.y.p.y.y.y.y.7.] ) 9.,.,.@.W f f k ",
"%X,X,X=X{.XX&X,X:X%XOX,X,X4X<X*XJ.Z.y.4.! A h b g b y q 6 q n p.Z.Q.Y.Q.Q.oXXX*XXXOXXX XQ.^.V.f.9.u.y.f.9.5.X.} ] ,.,.2.Y b k V ",
",X<X,X=X%X=X%X,X:X-X*X=X,X4X3X{.Y.Z.s.f.y.] n g h A ) C y , ; 0 ~ p.G.Q.'.XXoXXXOX[.XX'.).L.Z.s.f.y.9.y.y.7.2...@.] ,.>.E m m B ",
"%X:X*X-X:X=XXXoXXX{.U.OX,X4X-X'.Q.L.Z.J.f.} C h ) f.7.4.! g - - 6 b ) a.G.Q.^. X X[.Y.^.^.J.j.f.j.j.5.9.y.y.,.@...| ) ] R C m S ",
" XXX#XXXoX_.Y.z.9.` s.oX,X3X-X'.{.Q.^.z.] C h C } e.7.] A g ; ; 1 1 0 V 6.s.Z.T.!.R.b.b.Z.g.j.f.j.f.9.9.p.7.,.@.@.( ~ Q T S B V ",
"L.Y.Z.D.f.y._ n 0 B J.*X2X4X:X-X{.'.Y.@.g q q b g g y q 6 6 6 y y y 0 0 m @.9.Z.v.V.h.j.t.j.p.j.p.j.y.y.,.9.1.>.~ ~ R Q S V B T ",
"D.D.f.7.) n 0 - 8 s.{.:X7X7X7X2X-XL.[ y 6 - = @ + + + @ ; , 0 y y y y y q g E ` 6.9.y.9.p.i.9.y.p.9.4.| 2.,.2.' ` ~ ~ R R V B B ",
"V.f.! Z g 1 = 6 &. XXX4X7X7X5X2XXX&.8 ; @ + + @ @ + + = ; , ; 6 6 y y g y t 8 b W } ~ ] ,.,.<.3.9.2./ ' O.} L ^ _ _ L V [ O.V Y ",
"e.4.Z y 1 = 6 1. X:X,X2X4X3X*X'.w.f ; @ @ + + + + + + @ = - - - ; , 6 6 6 1 , , y B T W _ ` Q )  ._ Q W ~ R K K ~ _ R Y O.' Y C ",
"` A g 6 - , Q U.OX:X:X,XOXXXn.&.b 6 - + o + + + + + + = = - = @ + - - ; - : = = = 7 m ' )  ._ Q Y / Y Q Y Y N N R _ ^  ._ _ B Z ",
"~ C q , - y &.).OX(.'.M.M.c.&.f , - = - - = = = = = = - ; ; - = = - = - - = @ + + + < k Q [ ` T Q W T Q W Y N k ^ ( ' ~ ( ~ C B ",
"W n 6 ; 1 Y 0.s.&.&.*.1.' 2.~ f , ; 8 m f 7 - - ; ; = = ; 7 - - ; ; - ; ; > = = = = + : r Q W Q W / Y K Q Q N k R ( L W R R m C ",
"U b 1 ; 0 ~ [ S y f V Y b y 7 - = , f R R f 6 1 , ; - - ; ; , ; ; , ; , 1 3 < < > = + @ = 7 m Y ~ ~ / Q ' [ K f K L R V Q m n n ",
"m f 1 1 0 ^ K b 7 r f b 8 6 , - 6 _ +.4.~ Y g q 1 ; , , 6 6 6 6 1 1 , 6 6 6 6 8 , : @ @ @ = 6 n Y Q / +.O.+.L x N L L ^ Y n B n ",
"Y b 8 1 t K N r 7 t y g y 0 0 y ~ a.Z.a.9.` Z n y 6 0 q b n n b b y 0 6 y y 6 6 7 , : @ = : ; y W Q ] +.0.&.^ x x K L R L B B C ",
"` S 6 8 0 L y 8 9 s y f b m B ~ >.9.5.9.y.9.E Z C n g h n U n n b y 0 q 0 0 , 6 6 7 : : = < ; 0 T _ ~ +.6.2.K N x K K ^ L Y C C ",
"2.^ y 0 f S 9 < 7 7 7 0 b Z Z Z A Z Z Z ! C h g g y q q y y 0 1 , ; - - - - = @ = @ = - 7 8 0 8 Y | | [ >.' Y N x K P P S V B B ",
"0.2.Y t f V 7 ; @ + + ; 1 0 0 y y m b y 0 8 , ; - - = - - - - = @ @ + = = = @ @ = - , f m ~ B y T ..@.,._ ~ S x x P I ^ k N m S ",
"$.t.0.g y K d 7 3 ; 1 6 6 6 6 1 6 6 6 1 6 6 7 0 t t t t t 0 6 6 6 6 0 q y 0 q 6 8 8 n 4.9.,.| b ) ] @.} _ Y x x x K P H N N N N ",
"{ s.t.W d R B k k N g n Y ! Z ! A o.F G o.o.F G G G S S k S b n b b y g g y 0 y b E 5.V.6.5.T n } 5._ ' R V d k x K z H N V b N ",
"P q.a.2.K k ( ~ W T S h _ >.#.+.@.>.#.@.q.0.~ F S S M y b h a a g a y q t 0 8 y W e.b.y.,.] B B 2.@.] Y N k d d k x f N K V N N ",
"K $.a.z.{ k E ( Y Q E C E #.U Y F F S D S F S y 9 9 7 7 7 r 9 7 7 r 0 t t t y V 2.Z.s.e.>.~ b U @.} Q K f d s f k f N L N Y ~ Y ",
"P $.&.w.w.V d R ~ W Q C f 8 7 7 8 8 7 9 9 7 9 7 < < > < 3 7 3 7 7 9 8 t y f B @.V.Z.t.2.9.W g Y ] _ Y k s s s d f f K L L ( ~ ^ ",
"$.0.{ 0.M.q.k b O.} U U b t 6 7 9 8 9 t s y 9 9 3 < > > < 3 3 7 9 t 8 y g V ~ t.b.z.2.t.a.Y b ~ ` ~ m d r r s f f x N I $.^ K K ",
"$.=.&.*.k.q.E y ' ,.W V n t 8 8 t f f b S k y e 9 7 < < 3 7 8 s b m m m R ~ e.b.Z.s.t.t.9.m V W ~ L m r r s d d x H P P I K K N ",
"P *.&.=.$.{ ^ k V 2.) W h y y y b _ [ ` Q T m k r 9 r r t f k ~ _ } / @.' 5.a.G.w.a.w.w.[ m U Q T R f 9 9 x ^ H x K K P L ( ( R ",
"P *.*.$.I x z H L } +.] Z b y b T t.f.9.y.@.} _ ~ R Y ^ *.0.e.f.f.p.e.2.&.2.t.s.t.q.w.0.{ V ~ Q ~ V s 9 r r d P K x K K ( &.&.^ ",
"x $.I $.I d 5 5 z 2.y.y.] W b E 9.Z.t.t.2.6.+.0.f.s.q.s.n.Z.k.n.z.t.{ [ 6.t.2.e.9.q.2.6.&.~ _ } ~ V e s r 7 3 f ^ K k K ^ { &.6.",
"l P I I P z 2 & 5 x s.Z.9.X.,.@.a.b.Z.s.s.q.a.w.N.n.c.n.^.N.n.M.L.t.O.O.0.1.5.[ 6.2.2.2.2.{ [ ' ~ k d d l e 9 r L L K K I &.0.9.",
"w H P $.K d : & & < P U.c.p.p.h.9.A.D.Q.L.Q.L.T.L.).U.).{.%X{.n.+.9.O.1.( @.{ | [ 2.2.e.q.q.&.O.^ x d z i e 5 e s N L L ^ *.$.( ",
"w l J P x e & % & : e *.'.Z.e.t.e.v.Z.J.Q.'.^.].).(.`.{._.L.Y.0.6.0.2.1.} ~ [ O.O.1.8.e.c.w.q.O.^ z d x j i d e < e f L I H u w ",
"5 5 v x d 5 # % % & : d M.XXs.e.t.y.9.A.U.R.S.K.c.z.w.w.w.z.e.w.w.9.W ~ / | _ +.2.q.2.s.D.L.w.*.P z 4 z l l e e = > 7 r 9 5 4 4 ",
"% & 2 4 i 5 # O % % : 3 P %X{.c.r.e.c.Y.~.P.Y.D.Z.w.t.6.9.9.<...[ ~ Q ~ ..] +.2.6.~ 0.c.W.^.n.I H d 7 w e 5 3 3 & % > : > < < 4 ",
"O O # * 4 4 & O O % & < d '.-Xk.&.U.{.%XXX*X{.'.Q.J.D.G.w.a.9.9.] Q U Q ) O.%.e.6.2.t.L.I.E.w.P x i j 4 4 > : 4 % # > 3 3 9 7 i ",
"O O O % * 2 * O O O & : b L.-X*X,X<X,X:X,X2X2X2X*X=X:XXX{.T.^.U.D.f.W R Q Q _ O.2.u.b.D.`.E.k.J x e w 4 2 * & & O # < 7 r d f z ",
". . . # % * & # . O $ < O.(.$X2X5X6X3X2X2X5X3X6X6X6X2X2X3X<X.X|.XX&X/.k.$.L S [ s.D.n.(..XB.I H x w : * & & O O O # & < 9 r r d ",
". . . O # & % # . X # d q.[.;X;X2X3X3X;X>X>X>X>X1X1X>X>X>X>X+X+X@X+X+X+X+X:.I =.m.M.M.}.}.:.v c j w * & & # O O # # % * 5 5 w u "
};
