/* XPM */
static char *out[] = {
/* columns rows colors chars-per-pixel */
"64 64 222 2 ",
"   c #2B1608",
".  c #4A2415",
"X  c #5C2C1A",
"o  c #68321E",
"O  c #583F2A",
"+  c #763A24",
"@  c #7E3D26",
"#  c #63432F",
"$  c #6E402D",
"%  c #6A4D37",
"&  c #77523D",
"*  c #7F5D46",
"=  c #814A35",
"-  c #8E4B34",
";  c #96523A",
":  c #865540",
">  c #8C5D46",
",  c #9D5943",
"<  c #955F49",
"1  c #A45E45",
"2  c #89664F",
"3  c #9B644E",
"4  c #916A53",
"5  c #9A6F56",
"6  c #AB644A",
"7  c #A16851",
"8  c #AD6D51",
"9  c #A86D58",
"0  c #B36A51",
"q  c #B76F53",
"w  c #A1765D",
"e  c #A7755C",
"r  c #AE755B",
"t  c #B4715D",
"y  c #B97658",
"u  c #A87B63",
"i  c #AE7D64",
"p  c #B77764",
"a  c #BD7564",
"s  c #B27861",
"d  c #B47F64",
"f  c #BB7E63",
"g  c #C1785B",
"h  c #C87E61",
"j  c #C07B6B",
"k  c #AC836B",
"l  c #BE8466",
"z  c #B3876E",
"x  c #BA876A",
"c  c #BF8B6C",
"v  c #B78C72",
"b  c #BC8E72",
"n  c #C38264",
"m  c #CC8566",
"M  c #C78568",
"N  c #C4816F",
"B  c #C48A6C",
"V  c #CC8C6D",
"C  c #CC8C6E",
"Z  c #D18969",
"A  c #D48C6E",
"S  c #D88F6F",
"D  c #C98270",
"F  c #C88973",
"G  c #CC8A78",
"H  c #D08B78",
"J  c #D38E7E",
"K  c #C39072",
"L  c #C69677",
"P  c #C89172",
"I  c #CC9475",
"U  c #C09379",
"Y  c #CA997A",
"T  c #CF9C7E",
"R  c #D19071",
"E  c #D09072",
"W  c #D29172",
"Q  c #D09273",
"!  c #D39273",
"~  c #D49374",
"^  c #D59475",
"/  c #DA9472",
"(  c #DD9876",
")  c #D79778",
"_  c #D1967C",
"`  c #D89778",
"'  c #D59A7B",
"]  c #D99878",
"[  c #D9997A",
"{  c #DB9A7A",
"}  c #DA9A7B",
"|  c #DC9B7B",
" . c #DB9C7D",
".. c #DA9D7E",
"X. c #DE9D7D",
"o. c #DC9D7E",
"O. c #DD9D7E",
"+. c #E09E7D",
"@. c #E29F7D",
"#. c #E2A07F",
"$. c #D89982",
"%. c #DD9E80",
"&. c #DE9F80",
"*. c #DF9F80",
"=. c #D4A082",
"-. c #DFA081",
";. c #DCA386",
":. c #D8A485",
">. c #D7A88D",
",. c #DCA88A",
"<. c #DFAB8E",
"1. c #DBAB91",
"2. c #DFAF94",
"3. c #E0A081",
"4. c #E2A181",
"5. c #E3A181",
"6. c #E0A182",
"7. c #E1A283",
"8. c #E3A282",
"9. c #E4A281",
"0. c #E4A382",
"q. c #E4A383",
"w. c #E5A383",
"e. c #E6A483",
"r. c #E5A484",
"t. c #E6A584",
"y. c #E6A585",
"u. c #E7A685",
"i. c #E7A686",
"p. c #E8A787",
"a. c #E9A887",
"s. c #E0A58A",
"d. c #E3AC8D",
"f. c #E7AD8F",
"g. c #E8A888",
"h. c #E9A888",
"j. c #E9A989",
"k. c #EAA989",
"l. c #EAAA8A",
"z. c #EBAA8A",
"x. c #EBAB8B",
"c. c #EBAC8C",
"v. c #EBAE8F",
"b. c #ECAC8C",
"n. c #ECAD8D",
"m. c #EDAD8D",
"M. c #EDAE8E",
"N. c #ECAE8F",
"B. c #EEAF8F",
"V. c #EDAF90",
"C. c #E4B195",
"Z. c #E9B193",
"A. c #EDB091",
"S. c #EFB090",
"D. c #EEB091",
"F. c #EDB192",
"G. c #EEB192",
"H. c #EFB293",
"J. c #ECB496",
"K. c #E6B599",
"L. c #EAB79A",
"P. c #EEB899",
"I. c #EEBC9E",
"U. c #F0B293",
"Y. c #F0B394",
"T. c #F0B495",
"R. c #F1B495",
"E. c #F0B496",
"W. c #F1B596",
"Q. c #F1B597",
"!. c #F2B596",
"~. c #F2B697",
"^. c #F2B798",
"/. c #F2B799",
"(. c #F3B799",
"). c #F2B89A",
"_. c #F3B99A",
"`. c #F3B99B",
"'. c #F4B99B",
"]. c #F4BA9B",
"[. c #F4BA9C",
"{. c #F4BB9C",
"}. c #F4BB9D",
"|. c #F5BB9D",
" X c #F5BC9E",
".X c #F5BD9F",
"XX c #F5BE9F",
"oX c #F1BFA1",
"OX c #F5BEA0",
"+X c #F6BFA0",
"@X c #F6BFA1",
"#X c #F6C0A1",
"$X c #F6C0A2",
"%X c #F6C1A3",
"&X c #F7C2A3",
"*X c #F6C3A4",
"=X c #F2C4A5",
"-X c #F7C4A5",
";X c #F7C5A6",
":X c #F7C6A7",
">X c #F7C7A8",
",X c #F7C8A9",
"<X c #F0CBAD",
"1X c #F4CDAE",
"2X c #F8C8A9",
"3X c #F8C9AA",
"4X c #F8CAAB",
"5X c #F8CBAC",
"6X c #F8CCAD",
"7X c #F8CDAE",
"8X c #F9CEAF",
"9X c #F3D1B3",
"0X c #F0D4B6",
"qX c #F6D4B6",
"wX c #FAD3B4",
"eX c #FAD7B8",
"rX c #F1D8B9",
"tX c #F7D8BA",
"yX c #F5DBBB",
"uX c #FADDBE",
"iX c #F6DDC0",
"pX c #F9E1C3",
/* pixels */
"2.G.e.u.] B k k u k K T T =.>.2.1.2.2.C.1.C.2.C.C.C.C.L.L.L.K.K.C.C.2.C.d.Z.v.G.f.v.s.s.;.j.j.d.-.6...7.6.7.O.O.) ) ) | ] { ! ^ ",
"<.j.B.b.u.Q d u u u L Y T :.1.2.2.1.C.2.2.2.C.2.C.C.C.C.K.K.K.2.2.2.C.2.d.f.F.v.f.d.v.j.v.G.G.j.v.h.j.p.i.i.7.| | | { | +.| } ~ ",
"K X.@.t.e.] f k e k U T =.>.:.1.2.2.C.2.2.2.<.2.C.C.2.C.C.L.2.C.L.L.J.C.J..XE.(.E.(.j.G.U.Y.c.N.M.M.r.i.i.j.9.| | } ~ | X.#.) ^ ",
"b / / ( ] A f w u k U T :.=.>.1.2.2.2.C.K.2.C.2.J.C.2.C.OX#XOX#X#XOX`.L.OX}./.Y./.W.F.N.W.D.c.v.V.x.r.r.l.g.| ` O.] ] ] +.X.] ^ ",
"b / Z A m m n i w x K =.;.<.2.J.L.L.oXoXL.oXL.oXoX&X&X;X=X;X&X&X[. X[. XQ.).Q.).T.Q.G.E.v.h.j.n.i.h.5.i.j.p.X.X.)  .[ %.3.X./ ! ",
"b / m m m m n f l Q d.A.E.(.}.`.OX#X#XoXOXoXoX XOX#X#X#X;X-XOX.X X`.{.`.`.U.P.R.Q.U.Y.G.M.p.p.h.h.r.w.i.z.g.5.o.5... .%.-.%.^ A ",
"U ( m Z Z Z n n H -.r.G.Y. XE..XOX&X|.OX&X-X[.oX`.OXE..X$X-X`._.'.(.Q.`.E.!.v.Y.}.R.v.H.G.b.q.h.h.h.r.i.z.b.3.#.*.6. .%.7.6.W A ",
"U { Z Z A A K K Q =.=.T =.r.G.).OX+X.X.X*X%X@X.X`.E.R.`.&X$X`.R.Y.A.T.E.[.W.(..X.X#XF.H.Q.S.j.r.g.g.h.j.c.z.7.8.r.*.%.%.7.X.] Z ",
"K ( Z A Z M 9 3 : : : & * 3 n <.v.L.G._..X&X$X(.G.S.F.(.`.@XG.Y.v.A.A.`.OX&X&X.X XoXQ.^.j.r...) ! ) ^ Q C ^ ~ [ ) X.[ 7.%.3.^ Z ",
"I ( A A h 1 ; - > : $ X O o + : r c %.v.A.(.`.R.F.j.j.H.[.`.v.i.y.r.j.!.OX#X@XOX.XJ.d.=.K s 9 3 < 3 7 7 9 p l n F C C ^ O.| ` Z ",
"P | A S m g l Y =.=.K w > & + = - 7 y E 7.(.v.Y.z.p.8.N.~.A.8.7.#.p.5.S.}.`.G.d.I i 4 : & $ o X X o o = : < < 7 7 9 7 f Q ) C V ",
"Y X.S / +.+.%.7.v.A.J.2.<.I d 9 7 6 r f Q %.j.v.v.i.r.d.v.M.y.} } } *.i.W.v.! s > + o X X . . . X o + $ = : : > < < ; < 7 8 r f ",
"P 6.( +.5.+.X.i.y.v.v.d.<.;...) F n f n M ) &.M.b.j.y.j.q.c.%.~ F R ~ 7.} R 8 < + o o X X X # = 4 s i e 3 3 3 3 > - ; < < 3 < , ",
"K =...r.j.) 5.+.R Q ..;.d.-.-.Q F f n M E ` O.y.z.7.k.y.p.h.) n n n M M M t , = + $ + + : 3 s B %.r.i.%._ I P f p r 7 3 , < > - ",
"L =.T y.v.7.E f f d.L.}.OX}.v.i. .l 8 t M ^ ` r.g.z.7.8.p.j.~ g y f y f t 6 - - = - - , r B M Q _  .^ [ [ [ Q ) ^ ! p d y 7 > : ",
"T =.:.%.G.j.F 0 %._.E.d.d.;.=._ H M q 6 y m ~ } l.j.8.3.i.i.^ n f y t 8 6 , - - ; ; ; ; 8 f f f p t t 8 r r f M Q C C F n s 7 < ",
"T :.;.;.r.j.n p ;.=.c 3 : & # # $ - , 6 8 g M ( 7.S.j.i.8.r. .C n f 8 7 ; ; - : = o + 7 B ..%...Q C n p 1 ; = - 6 B M F n l y r ",
"=.=.:.8.7.p.) f e $ . .   .         X + ; 8 n E 8.G.E.A.R.j.y.R M t 1 , ; - = o X + 7 3 3 : = : : 4 7 7 7 7 < + + 7 M F C C n f ",
">.>.T 6.m M 8 , o . . . O # .     . . o o = 8 ^ 8..X#X&X.X`.j.) f 1 ; < - @ o X o = $ X . #           . . . . X X $ r R E n t f ",
":.=.T ' C p , - 7 3 < 3 e 4 & # # $ : : = @ ; } j.&X8X-X&XOXV.^ 8 , , ; - @ + X $ + = = # O     . . .   . . . . . X = 7 6 8 n M ",
":.:.=.,.d.%.+.)  .j.r.j.d.%._ I I E n M n E ^ G.R.;XeXwX;X#Xi.V 6 1 6 1 , t 8 8 y B F _ I c 7 < < 7 9 < > 4 > = + = , 1 1 V | 9.",
",.:.:.:.p.c.S.#.) #.#.X.X.[ [ A A R A A ! A ( G.OX3XeXtXwXOX8.n 6 1 q n n ` 5.X.[ ) O.7.r.7.! V A A A n y f g M V M 8 , n m M n ",
"1.d.,.;.i.G.z.R.R.r./ / A m h Z A A m g y M i.#X;XwX5XeX3X.X} n y 0 y ! X.7.#.9.} ! M A ` ( A m g y y Z A ` A m 0 ; - n X.7.] C ",
"d.d.:.=.d.M.R.(.[.R.} m h g g g y 8 1 6 E _.:XOX8X5X5X3X&XA.~ M n m M m +.i.h.j.G.z./ y 1 1 6 6 0 q 8 6 1 , - - ; q A ( X.| +.X.",
",.,.:.;.z.S.R..XOX&XOXR.7.! y y y n ^ J.;X6X3X5X2X8X5X8X(.i.A Z Z / ( X.#.h.z.b.z.U.R.(.i.[ M f 8 1 , 1 , 8 y ! #.z.j.h.+.~ ! +.",
"d.s.s.d.j.G.`.[.&X2X2X;X&X#XOX`.`.OX3X3X3X6X6X5X8X8X5X#XG.| Z m A ` 5.r.j.j.j.h.A.S.R.~.[.`.&X.X}.!.v.A.(.(.R.S.M.z.j.t.r.| A E ",
"c.f.;.<.v.).Y. X:XwX5X4X-X-X/. X:X:X*X:X3X8X3XwXwXwXOX_.z.| Z m Z A A / ( 5.r.z.m.R.S./.`. X).@X&X.X}.).OX`.Q.S.j.j.y.p.h.z.} R ",
"c.f.s.s.M.}.R.|.-XwX8X5X8X#X(..X6X5X2X&X5XwXeXeXtX8XOXR.v.X.A m m g y y y q y V z.S.S.W.[.[.OX&X2X;X@XOX&X X(.M.M.u.y.r.j.h.9.} ",
"y.s.6.s.G..X|.-X-X8XwXwX5X&XXX:X;X8X5X3X;X8XeXpXtX3X`.R.c.u.5.| h g g m h y 1 1 t [ R.`.'.`.OX-X-X;X&X-X#X$X].R.z.z.i.p.w.p.9.0.",
"r.7.6.-.v.Y.|.OX:X8XeXwXwX3X3X2X:XwX8X:X2X,X8XuXuX;X}.R.Y.B.S.w.~ n h ( 7.( m , - 1 n 7.G.].`.&X2X:XOX#X+X`.E.S.M.l.j.a.a.y.5.5.",
"r.y.O.&.l.'.!..X-X8X8XwX8X:X&X2X&X.Xv.v.OX:X8XyXeX:XoX).R.OXc.| Z m Z 8.u.u.A q ; - ; q R j.v..X`.OX!.!.'.R.z.v.M.S.u.h.a.h.7.5.",
"i.7.%. .h.R.!.'.%X$X`.}.OX_.G.v.8.V g X.&X8X8XtXeX6X+X_.[.'.^ g y g A / / m y 1 1 6 1 1 8 F X.i.!.^.S.S.S.v.i.z.B.z.k.p.m.8.3.5.",
"%.-...-.7.S.U.[.!.|.G.R.z.7./ h 1 1 M }.3XwXyXuXtX8X*X-X_. .p 1 , ; ; ; - ; ; 6 8 y y y q 8 n ] +.l.i.z.8.i.y.h.t.a.h.p.+.7.%.q.",
"#...*.%.p.z.S.R.E.S.j.#.` m q - - M oX3X8XeXpXpXpXtX8XoX%.t , @ $ $ $ + + = ; , 1 1 6 q g y 0 t M ^ | X.+.X.+.5.9.9.+.| X.} %.) ",
"3.7.) ..y.M.h.S.U.j.^ Z g 1 @ ; C }.=XwXeXuXpXpXuXwXoXd.f < + $ + = + o + = @ - ; ; ; 6 q q 1 1 1 n M R ` ) ! ^ | +.) ] ) [ Q I ",
"..' [ ' 6.p.h.p.i.( m y 1 - - C L.=X;XwXwXeXeX6X:XL.r.n 1 - + $ + o $ $ + @ @ = - @ + = ; ; - = : > 9 M ) ^ W W ^ W ! ^ ] ) P B ",
"^ ' ^ [ [ 8.| t.( A t 1 = - f d.oX;X3X8X;X&X.X`.y.C t 1 - @ + + + @ + + + - = : + @ + = = - = + + + + < M  .) ^ E ~ E ! W ^ B B ",
"! ~ ^ ! } O.} | / M 8 ; - 8 ~ d..XG.d.d.j.d.j.v.r.M 1 ; , 1 1 ; - = = = = - ; < - = = = - - = = + + + + < l ^ ) ^ W R C ~ ^ P l ",
"E Q F I ) { ~ ` A g 1 ; , C R %.[ l t C ) ^ n F n 6 - , f ^ n 6 1 , - - - - - ; ; - = - ; < - - : : + $ + ; r C ^ ^ C W [ -.P f ",
"B c B F ) ] ) ~ Z q 1 ; 6 Q C I f 6 6 f F f 8 1 ; @ - 8 E ^ C n y 1 ; ; ; ; , , 1 ; ; ; , 1 1 , 3 < = + + + - t R R ~ `  .;.I l ",
"d x l B R }  .] n 8 1 , 1 P B P 9 7 6 y n n 8 8 , , n v.j.8.} W h y 6 1 , 8 y g q q 0 6 1 8 8 6 , < - = + + = < n E ! %.-.<._ B ",
"d f c c Q %.4.X.M 0 8 , 6 F B l 9 7 8 t M m f y n C X.j.!.S.9./ A g g g h g h m Z h a 8 6 6 0 6 1 , ; = + + : ; t R | #.7.s.Y l ",
"f x f c I 7.7.7.~ t 8 8 8 ^ d e 9 9 7 q n m m A ( ` R / X.X./ A Z m y g g y q y y 8 ; ; , , - - = = @ @ = - , 1 8 ` ^ -.*.-.K K ",
"f l x l I 7.i.i.8.f 8 n f I y < - - = - 1 0 g h h h h m C h g 0 8 1 ; - ; ; ; - - - @ + @ @ $ o o $ $ = 7 y B y y ) [ } 4._ K K ",
"d c c K K -.i.v.f.^ y M B B f 9 < - = , 1 6 6 6 6 6 6 8 6 6 1 1 , 1 6 6 6 1 1 1 ; ; ; ; - , , , , , , t !  .5.M n } | -.^ I K P ",
"x K Y K I ..d.v.H.j.n t Q E C M n f n g h h h m C C N D D G H G H H J H H N j j j a y y y y y q q y M +.j.3.+.n E +.-.[ Q c c K ",
"I T T Y I T ;.N.H.E.^ p B ..W R E R C h Z | / | X.%.J } ;.-.} } } J F G n a a j y a y y a g 6 0 y A #.G.z.#.E n X.r. .I B l f B ",
"Y T T ' =.Y ;.v.G.Y.f.I f [ } C R ~ ~ Z m ~ ^ C H $.^ J _ _ _ _ G p t t 9 7 8 9 9 8 0 0 q 8 6 0 Z r.G.G.r.} M n 5.r.! l f f l l ",
"L =.:.:.:.=.=.j.i.F.A.y.d C %.} ! / W A f t 8 8 9 s s s 9 r t r 9 7 < < > < > 3 < 7 7 8 8 t r h X.G.Y.d.%.) y E ] [ M d s l B C ",
"Y :.:.=.:.=.T =.-.=.g.f.C f } 6.} ` ~ m n y 8 6 6 7 9 r s r r e 7 3 < > > < > 3 3 3 7 8 r t n ) v.v.y.r.7.C f ~ ] F d s d l P _ ",
"=.<.=.:.:.:.Y I l _ ' [ ) f M r.7.#.A M f f t t 0 t t f l l s r 9 7 < < < < > 3 9 e 9 t f B ^ j.v.N.r.d.r.n V ) ~ l 9 s f c K I ",
"=.,.:.:.:.=.P r 3 K K I ..F B 7.y.| / h g f y f E E C V R F l s r 9 3 < 3 3 9 r n l f l C  .v.v.J.v.d.d.Q n ! E B s r d P I I B ",
"Y ,.:.,.:.Y d 4 * 4 w K _ %.^ v.u.w.` Z y n n ^ y.A.j.r.8.} F B p r r d d n P ) [  .^ } ) r.v.F.j.v.j...n m E F d d f P I _ I _ ",
"P :.,.:.:.b u 2 * : < e I y.v.f.y.5.| A m m } j.A.A.r.j.r.i.r.i.%._ =.;.<.d.<.d.d.-...) 8.r.v.j.Z.v.;.E m E C f l K K K I I _ _ ",
"b =.T =.T b w * * > * > d C.J.oXz.p.#.+.( X.j.E.~.E.8.q.y.j.d.j.d.d.;.,.v.J.s.d.7.-.) 7.7.j.7.d.f.F...! E ^ p s d L K l P T ..-.",
"z Y T T T x 4 % * * & * w d.I.@XQ.0.z.r.y.z.G.E.}.Q.V.c.N.v.d.v.J.L.L.C.K.J.f.;.%.%.O.-.y.q.7.d.v.f...' ) B 9 7 r c P c P _ ..d.",
"w K Y T L x * % % & & 2 w =.OX:X).g.5.j.8.h.v.`.`.OX~._.T.}.L.OXJ..XoXoX<.-.i.y...) ) %.%.r.-.v.v.f...) c c e e 9 f B P P _ =.;.",
"w z L T b u & % % & * > 5 I >X5XoXl.5.8.y.j.G.T.T.`.}.oX#XOX#XOXI.P.L.v.d.r.y.7.[ ^ )  .6.d.G.Y.A.d.=.K c d i e 7 7 s B I T c i ",
"5 w b b x w % # # % % * 4 I :X8XOXH.3.#.v.U.Y.^.E.(.H.W.H.Q.J.F.f.f.d.p.l.i...O.[  .} 6.d.U.F.E.T.,.K u x K i u > : 3 r i 7 4 4 ",
"% & 4 4 k 4 % O # # % : 3 P 4X5X&Xg.-.Y.%X$X_._.`.^.H.v.D.v.i.q.q.7.X.( 3.X.[ ) ..6.7.) j.E._.).v.I l 5 w w 4 4 > $ & > > < < 4 ",
"O O # * 4 4 * O # # % : < _ >XwX<.d.OX4X:X7X3X:XXX$X}.{.~.W.v.v.q.i.} ^ R ^ ' | O.i.r.r.v.[.`..X=.c f i 2 4 * 4 & # : 3 3 9 3 i ",
"O O O % * 2 * O O O % : r A.3XeXqXtXwXwXwXtXpXiXeX7XwX7X2XOXXX}.`.E.r.Q Q ^ ] } 7.y.v.A.^.XXI.=.K d w 7 2 > & & # O > 7 r d f x ",
". . . # % * & # . O $ < %.OX3XtXiXpXyXtXtXiXyXpXpXpXqXtXyXeX;X;X:X5XoXC.=.I F %.v.Q.J.OX;XI.T K c w * * & & O O O # & < 9 r r d ",
". . . O # & % # . X # d d.*X8X9XyXyXyX9X0X0X0X0XrXrX0X0X0X0X<X<X1X<X<X<X<X2.T ,.K.L.I.I.=X2.b v x w * & & # O O # # % * 5 5 w u "
};
