/* XPM */
static char *out[] = {
/* columns rows colors chars-per-pixel */
"64 64 226 2 ",
"   c #2B1608",
".  c #4A2415",
"X  c #5C2C1A",
"o  c #68321E",
"O  c #583F2A",
"+  c #763A24",
"@  c #7E3D26",
"#  c #63432F",
"$  c #6E402D",
"%  c #6A4D37",
"&  c #77523D",
"*  c #7F5D46",
"=  c #814A35",
"-  c #8E4B34",
";  c #96523A",
":  c #865540",
">  c #8C5D46",
",  c #9D5943",
"<  c #955F49",
"1  c #A45E45",
"2  c #89664F",
"3  c #9B644E",
"4  c #916A53",
"5  c #9A6F56",
"6  c #AB644A",
"7  c #A16851",
"8  c #AD6D51",
"9  c #A86D58",
"0  c #B36A51",
"q  c #B76F53",
"w  c #A1765D",
"e  c #A7755C",
"r  c #AE755B",
"t  c #B4715D",
"y  c #B97658",
"u  c #A87B63",
"i  c #AE7D64",
"p  c #B77764",
"a  c #BD7564",
"s  c #B27861",
"d  c #B47F64",
"f  c #BB7E63",
"g  c #C1785B",
"h  c #C87E61",
"j  c #C07B6B",
"k  c #AC836B",
"l  c #BE8466",
"z  c #B3876E",
"x  c #BA876A",
"c  c #BF8B6C",
"v  c #B78C72",
"b  c #BC8E72",
"n  c #C38264",
"m  c #CC8566",
"M  c #C78568",
"N  c #C4816F",
"B  c #C48A6C",
"V  c #CC8C6D",
"C  c #CC8C6E",
"Z  c #D18969",
"A  c #D48C6E",
"S  c #D88F6F",
"D  c #C88973",
"F  c #D08B78",
"G  c #D38E7E",
"H  c #C39072",
"J  c #C69677",
"K  c #C89172",
"L  c #CC9475",
"P  c #CA997A",
"I  c #CF9C7E",
"U  c #D19071",
"Y  c #D09072",
"T  c #D29172",
"R  c #D09273",
"E  c #D39273",
"W  c #D49374",
"Q  c #D59475",
"!  c #DD9876",
"~  c #D79778",
"^  c #D1967C",
"/  c #D89778",
"(  c #D59A7B",
")  c #D99878",
"_  c #D9997A",
"`  c #DB9A7A",
"'  c #DA9A7B",
"]  c #DC9B7B",
"[  c #DB9C7D",
"{  c #DA9D7E",
"}  c #DE9D7D",
"|  c #DC9D7E",
" . c #DD9D7E",
".. c #E09E7D",
"X. c #E29F7D",
"o. c #E2A07F",
"O. c #D89380",
"+. c #D89982",
"@. c #DD9E80",
"#. c #DE9F80",
"$. c #DF9F80",
"%. c #DD9986",
"&. c #D99E87",
"*. c #D4A082",
"=. c #DFA081",
"-. c #DCA386",
";. c #D8A485",
":. c #DCA88A",
">. c #DFAB8E",
",. c #DBAB91",
"<. c #DFAF94",
"1. c #E0A081",
"2. c #E2A181",
"3. c #E3A181",
"4. c #E0A182",
"5. c #E1A283",
"6. c #E4A383",
"7. c #E5A383",
"8. c #E5A483",
"9. c #E6A483",
"0. c #E5A484",
"q. c #E6A585",
"w. c #E7A685",
"e. c #E7A686",
"r. c #E8A786",
"t. c #E8A787",
"y. c #E0A58A",
"u. c #E3AC8D",
"i. c #E7AD8F",
"p. c #E8A888",
"a. c #E9A888",
"s. c #E9A989",
"d. c #EAA989",
"f. c #EAAA8A",
"g. c #EBAA8A",
"h. c #EBAB8B",
"j. c #EBAC8C",
"k. c #EBAE8F",
"l. c #ECAC8C",
"z. c #ECAD8D",
"x. c #EDAD8D",
"c. c #EDAE8E",
"v. c #ECAE8F",
"b. c #EDAE8F",
"n. c #EEAF8F",
"m. c #EDAF90",
"M. c #EEAF90",
"N. c #E4B195",
"B. c #E9B193",
"V. c #EDB091",
"C. c #EFB090",
"Z. c #EEB091",
"A. c #EDB192",
"S. c #EEB192",
"D. c #EFB192",
"F. c #EFB293",
"G. c #ECB496",
"H. c #E6B599",
"J. c #EAB79A",
"K. c #EEB899",
"L. c #EEBC9E",
"P. c #F0B293",
"I. c #F0B394",
"U. c #F0B495",
"Y. c #F1B495",
"T. c #F0B496",
"R. c #F1B597",
"E. c #F2B596",
"W. c #F2B697",
"Q. c #F2B698",
"!. c #F2B798",
"~. c #F2B799",
"^. c #F3B799",
"/. c #F3B899",
"(. c #F2B89A",
"). c #F3B89A",
"_. c #F3B99B",
"`. c #F4B99B",
"'. c #F4BA9C",
"]. c #F4BB9C",
"[. c #F4BB9D",
"{. c #F5BB9D",
"}. c #F5BC9D",
"|. c #F5BC9E",
" X c #F5BD9E",
".X c #F5BD9F",
"XX c #F5BE9F",
"oX c #F1BFA1",
"OX c #F5BEA0",
"+X c #F6BEA0",
"@X c #F6BFA0",
"#X c #F6BFA1",
"$X c #F6C0A1",
"%X c #F6C0A2",
"&X c #F6C1A2",
"*X c #F6C1A3",
"=X c #F6C2A3",
"-X c #F7C2A3",
";X c #F6C3A4",
":X c #F7C3A5",
">X c #F2C4A5",
",X c #F7C5A6",
"<X c #F7C6A7",
"1X c #F7C7A8",
"2X c #F7C8A9",
"3X c #F0CBAD",
"4X c #F4CDAE",
"5X c #F8C8A9",
"6X c #F8C9AA",
"7X c #F8CAAB",
"8X c #F8CBAC",
"9X c #F8CCAD",
"0X c #F8CDAE",
"qX c #F9CEAF",
"wX c #EECEB0",
"eX c #F3D1B3",
"rX c #F7D1B2",
"tX c #F0D4B6",
"yX c #F6D4B6",
"uX c #FAD3B4",
"iX c #FAD7B8",
"pX c #F1D8B9",
"aX c #F7D8BA",
"sX c #F5DBBB",
"dX c #F6DDC0",
"fX c #F9E1C3",
/* pixels */
":.i.&.( P L c J I ,.<.K.i.N.N.N.<.N.N.N.N.J.J.J.B.J.H.L.J.K.K.G.i.B.:.y.y.i.i.i.4.5.-.y.5.5.1.5._ ' { @.' _ R R Y C C T Y T C Y ",
">.i.5.( I ~ I ;.B.K.).).).K.K.J.G.K.G.J.L.L.K.J.L.L.OX%X&X.X|.(.Q.I.S.B.A.S.I.B.m.f.g.p.f.0.5.$.=.[ | | $.] _ R T C U U E T Y C ",
"I @.~ =.i.B.B.K.%X%XL.%X;X;XoXoX%X;XoX,X2X2XL.OX.X#XK.L.#X.XT.Q.Q.).j.Z.P.R.j.m.f.g.6.s.f.a. .} ` ..) } =.$.Q E Q W V E Q W V A ",
"E 5.f.E.(.'.'.|.&X%XOX%X<X&X%X.X,X;X,X=X8X,X-XOX=X%X(.].&X'.!.T.(.K.F.V.T.D.v.k.j.a.7.7.z.8.` ` ` ` ) ` 5. .Q Y Q U A Z T U V C ",
"5.I.I.Q.E.`.(.%X+X-X%X,X+X%X X$XOX:X<X,X=X=X+X%X[.$X[.[.R.Q.R.R.R.Q.F.D.p.l.g.g.p.s.w.d.8.{ ) ] ) [ [ =.[ ` Q T C A Z A V A m Z ",
"9.a.j.b.).).].|.%X%X+X*X%X%XOX).$X#X;X;X,X#X].).).%X_.^.E.P.T.T.E.R.P.j.g.a.f.9.9.5.d.g.a.} ` ` ` ' =.@.$._ W C Y Z Z Z Z m m m ",
"f l d H [ S.R.|.OX-X'.#X@X$XR.Q.).#X.X;X%X-XT.Q._..XT.Q.!.Q.A.R.W.].F.F.k.S.7.e.w.f.r.f.p.9._ @.@.=.[ =.#.] V Y Y A m Z m m h h ",
"$ # # % * d ( >.T.).).+X$X%X/.I._._..XOX=X).T.Z.(.].).|.%X|.%X.X_.W.I.m.Z.s.p.q.j.g.p.p.j.q.@.} 4.1.#.| 1.) U m V m h h m M g g ",
"* # X # # = < d B =.b.'.^.]./.I.x.(..X XQ.T.Z.b.j.(.[.%X#X;X#X&X_.^.i.i.5.=.[ =.@.5.[ =.=.5.| =.[ #.{ =.| ` Q Z n h g h g g a g ",
";.J u 2 > : > 3 s M ~ f.E.^.Q.j.D.Q.).T.I.Z.f.j.C.R.'.#X=X-X.XL.B.>.I c f f d d f f f n D C E ~ { [ | [ $.) T M n f f g g g g y ",
"K.K.>.>.*.L f y f M M [ S.^.n.x.b.T.j.b.Z.b.5.q.j.I.S.).(.S.L f 9 < = $ $ $ X $ = > : 3 s f y f n Y W / ' ) M n n f t y f g q y ",
"j.p.5.y.-.1.~ Y Y C C / d.S.C.n.n.M.j.j.C.5.| ` 5.9.a.d.[ f 3 = $ o X . . . . X X $ + = > < 3 7 7 9 s n E C M n n f y y g a y y ",
"y.B.B.A.a.1.M n n Y Q | 5.b.m.P.g.P.h.F.9.Q Z ~ T / ~ ~ f 3 = + X X X X X # + : < 3 > : > > : > > , 3 7 8 f f l y f y g y g y y ",
"oXL.^.S.i.y.[ Z y y C @.9.j.x.j.j.m.n.M.r.m g n C M M f 6 - @ + @ = = > 9 f K ( =.W B d s t 7 < > ; < < < < 7 8 t t t 0 q 0 q q ",
">.( c c B D M D y t t Y [ g.t.j.j.b.r.h.8.T y n n M t 8 , ; - - ; 7 8 n E @.@.y.0.p.[ ` ~ ~ D B s 9 , < > > : < 8 8 6 8 6 8 6 6 ",
"& O . . . . o = 3 0 0 g Q 9.f.S.I.x.t.e.9.T M n f y 8 1 , ; - ; 7 7 t M E C M n D C D C E _ ~ L C n t 3 < > = - , 1 1 1 6 6 1 1 ",
"    . %       . X = , y M ` a.^.E.I.x.Z.r./ D n y 0 1 , ; ; = @ = 7 D [ =.5.` T n y 6 1 , 8 n Q C C n s 6 3 < ; , 8 6 0 8 q 0 0 ",
"X O # O     . . X X + - n ` j.%X,X].T.A.Z.' M t 8 1 ; - = + X = e f d f c C H C B M y 8 3 @ - s D n n f y t t t 0 8 0 8 q q t q ",
"9 e 4 * % O O $ : = o + , 3.t.<XrXqX%X|.^.9.y 1 1 , - = @ X X > : + . O . . . # & : : > 4 : o : c E Y M f l f y y y q g n f g h ",
"j.p.5.F H K B B n t 9 t C S.D.2XaXrX2X_.D.E 8 , 8 , - - = + $ $ @ + X .                 . . . X 7 C n a n n f y n g y g n g g g ",
"t.g.s.0.=.~ A E A / ! o.3.^.].8XaXyX8X.X5.n 1 1 8 8 1 M M n n Y C L c u * & $ & $ O . X X . . X - 1 , 0 f n n n f g g n n h h m ",
"! A A / / A A A Q Z h h 7.'.-X9XuXrX2XQ.5.f 6 1 y A A ~ 8.8.}  .1.=.5.3.~ M n C D f 9 7 3 < < 8 t 1 f ~ } 8.q.q.Q n n g f y y y ",
"Z h a n m Z g q 0 0 n j.*X<X;XqXrXqX[.m.` n 0 q h A ` 9.a.w.} ~ C T Q  ./ Z g n h M m A / / A g ; 1 f C C Y T Q y 0 1 6 8 8 6 t ",
"|.x./ n y q 8 y Y B.;X<X8X7X9X8XqX:XI.} Q M m A / T 1.a.b.g.x.b.9.m 8 1 6 8 8 8 q y g g a 8 - - 6 C _ ` ` n 8 6 r y t f n n l l ",
";X%X|.'.^.`.'.;X2X2X,X8X2XqXrXqX,X#Xa./ M Z A ` } 9.8.d.g.h.n.).I.^.i.@.M f 8 , ; ; - - - , q Q } 1.Q ` o.} M n n n f f l l f n ",
"8X:X#X|.#X:X8X9X7X;X2X8X8XrXyXqX;XQ...A m Z / } r.r.r.r.j.l.I.I.W.Q.(.'.|.+X|.T.j.5.=.5.j.b.D.x.f.o.! T / 5.3.#.Y s r s s s s s ",
"rXqXW.|.&X9X7XqX6X2X;XqXrXaXrX2X+XZ.` A Z A Z Z A A Z ! o.D.h.M.T.'.T.].%X<X%X,X%X%XA.].).).M.c.g.a. ./ W } 3.w.Y f r s f f y s ",
"rX0X;X%X8XqX9X<XqX,X7XrXaXfXyX%X(.b.r./ ` Z M y a g 0 6 q m r.n.].).W.].:X,X;X;X2X%X[.).[.I.b.p.g.t.X.` E ~ @.o.~ n f f M n l l ",
"uXqXqX9X7XqXrX9X;X<X9XrXaXfXrX%XU.A.f.Z.r.! g g h Q A g , 1 q ` P.|.].+X:X<X1X6X,X,XOX.XR.I.g.9.7.a.7.e._ E ` 5.~ D n B n B M M ",
"aXrX7X8X9X,X;X|.`..X7XqXaXaXqX.X^.I.Y.I.d.! h g ! r.r.o.Z , - 1 M 9.E.'.-X<X1X<X5X5X<X.X).I.d.t.g.t.6.r.3.~ Q ..` C C B V D D V ",
",X;X`.'.E.Z./ A } |.%XrXaXaX,X&X[.%X).F./ Z h A 9.g.X.X.A 0 - ; 1 f Q j.).:XOX%XOXOXQ.'.I.I.d.a.d.l.7.w.3.o.T | ` Q D Y C R M K ",
"^.x.3.! A y 1 f j.&X<XyXfXyXrX,X,X XT.T y q q g m h g y q 6 1 0 8 6 q Y f.I.I.^.)._.S.m.Z.C.n.h.z.f.q.8.8.o.~ ~ _ C M V C C C V ",
"o.! h q ; - r S.;X7XrXfXfXfXfXqX;XE.T 8 ; - @ @ @ @ + - , 0 q g y y 6 y M 3.d.S.D.D.j.n.a.l.g.z.e.a.7.7.2.7.` / C Y V C C Y Y R ",
"A y 1 - - f S.:XqXrXyXfXfXfXfXqX].E 8 - + $ + @ + $ @ - ; , 6 q y y y y q M / 1.a.a.r.w.g.r.d.f.e.7.o.1.=.#.[ Q C C C Y U Y C C ",
"q 1 @ - D ).*X7XyXaXrXrXaXrX%XK.~ 8 - @ + + + + + + + = - ; - , 1 q y y 0 8 q A ` o.{ X.7.q.$.7.7...` ~ { [ E R Y C M M C Y M V ",
"1 - - p f.OX<X9XyXqX,X;X;XT.[ M 8 ; @ + + + $ $ + $ + @ - - - @ - , ; ; ; ; > 8 M Q Q ~ ] ] `  ...~ Q Q ( Q R T T C C V Y C V V ",
"- - 8 ~ i.;XoXL.K.A.f.S.I.f.T 8 ; - - ; = - = = @ = - - ; - @ + @ = ; - - = @ = < n Q ) W ~ T ~ Q / Q ^ B C L R Y E V R C C Z A ",
"- 1 C ~ a.p.Y n E ` ` ` ` / n 1 , t C M 7 , ; ; - = - ; , , = = - = - - = + + + + > B @.| Q T Q E E W K c B R R ( ^ C C C A C A ",
"; y C L [ n 8 8 n T n y r 7 = @ 1 M Y / n y , , ; - - - ; < - - - - - ; - : + $ + @ - f ' } Y W Q ~ Y ~ B l R ~ _ Q V C A A m Z ",
"; n B n L y 8 6 f n f 8 8 , - t 5.d.o.Q ! m q 1 1 ; , , 1 , ; ; , ; ; , 1 3 < : = + @ - y ~ T Q Q W ~ ( B l R R Q Y V Z C Z m Z ",
"; f B B B r 6 8 t f n f t y n 1.x.).x.9.` Q h a 0 0 0 g a g y y 6 1 1 6 0 6 7 , = = + @ - y C ~ Q _ { -.K l C ^ R Y M m m Z m Z ",
", s K f s r r t f n M m Z ` } [ o.9.v.9.o.` Q A Z Z m m A A A h y 8 8 q q 6 6 1 , = + + - , M Q ` @.=.-.L c R L ^ C M m Z A A Z ",
"y f K r , 7 < , , 8 q m / Q Z A A / Z Z Z m g a y a q y g g q 0 0 0 6 8 6 6 6 6 1 > = = , , f Q @.6.$.-.P H H L L Y n Z A S Z A ",
"B n C r 3 - + + = ; 1 1 8 6 8 q y q 8 1 6 1 , - - - ; , , ; - = = = = = = @ @ @ = - - , 8 8 y ~ @.5.=.=.I H H K ^ C M M U Z Z Z ",
"n R B n r 8 , 7 t q q 0 6 8 8 1 1 1 1 8 6 8 8 t 8 8 8 6 , , - - = - - ; = = = = = , f C T f f ` @.5.| ( H H H I L B n D M M M C ",
"0 L T C M n M M M M A / / O.G G O.O.+.O.%.%.+.O.O.G C g g f a t q q y q 0 0 0 6 0 n }  .9.M M _ $.@...^ H c K P P B B B M B B B ",
"t D / C C Y V Q Z A / 1.| 5.O.%.5.0.5.y.[ +.G G G M g N N n a j g h y y y y 0 g Q j.r.3.7.M M ` 5.5.E K c H c P K K n B B B n B ",
"Y f W W C C Y Q A A E ~ ~ ~ ~ | %.@.~ -.+.M f f f 8 8 y y 0 8 t a y 0 0 0 q f E b.D.9.} ` n Q =.p._ C c c l c c c H B B C V M M ",
"@.n f ~ T T Q / A m n f r y p p r r t p s r 7 3 < < < 7 3 7 9 r 0 t 0 q 8 t T x.A.M.=.` V M ` q.@.R l f d l c x f l C R C R T Y ",
"u.R p Y =.` ` ! ~ Z a 0 8 7 7 8 8 9 r 9 9 7 3 < < > > < 3 < 7 7 0 8 r t f M y.m.Z.p.=.$.M n  . ./ B d s f c f d x B L L ( ^ R Q ",
":.i.B f =.0.} } / A y y t r 7 p f n p d r r 3 4 > > : < < 7 7 9 r t 8 f M =.i.A.b.y.[ } f U T ) E f r s f f s d c L H ( L L B B ",
";.-.( B ( =...[ ! U g q y y p M Q Y M f f s 9 7 3 3 3 3 r f n n M M l D [ f.B.v.C.i.y.~ n T Q Q C f s r d f d x K P I L K B B B ",
"I ;.;.I H [ ~ =._ ` h y y f M 9.g.a.3.~ M n s r r s f B M ~ ~ =.[ ` W ` @.j.v.A.i.k.i.Q n Y Q / B M r s d I H H H P I ( ^ ( P L ",
"P *.;.I c L @.8.9.X.A m n n / j.I.x.p.=.5.=.=.[ ~ &.>.i.B.A.j.f.f.5.=.| 5.i.k.y.i.i.i.R V U Q W D l r r d d P K H K L ^ { { ( L ",
"b *.I I s k H @.f.E.` Q ! ` } D.Q.T.5.5.0.j.f.j.B.B.i.K.K.K.i.Z.u.4.Q =.5.u.5.5.p.i.-.E Q | U Q C f r r 7 7 d P B H c I -.u.=.{ ",
"z P I P c u 3 s -.E.p.o.g.r.t.d.^.).V.m.D.S.A.A.Q.K.G.K.L.L.T.P.s.@.| @.5.5.5.5.u.p.y.~ @.@.) W L f c k u e r c ^ K c P { y.y.-.",
"w H P P x 5 & 2 i i.j.P.f.x.b.x.A.).K..X].&X.X*X.X*XoX2X%X%Xi.=.=.5.{ 5.` @.| 5.=.p.y.5.0.-.[ @.B f c k u e e r f L L I I *.*.*.",
"w z P P k 4 & * 2 s ( T.(.M.t.t.b.S./.(.#X#XOX%X*X%XOX*XoXL.j.-.0.p.=.[ / / ' | 5.y.i.i.P.i.-.{ K e x x k k d 3 7 r B P P x r w ",
"5 w v x k 4 # % & 2 e &.%XOXj.h.s.s.f.A.Q.|.U.U.b.A.p.B.i.S.t.s.f.3.' ) ` ] ~ =.0.f.y.k.(._.0.( K u 5 b z k u 3 = 3 9 e 3 5 4 2 ",
"% * 4 5 u 4 # # % % > e N.8X].k.q.f.'.(.}.[.T.T.I.i.p.p.p.0.5.[ $._ Q / #.] =.5.6.@.k.B.].(.s.P c x 5 w w 5 5 3 & + : : > > < 4 ",
"O O # * 4 4 % O # % * 3 K 6X6Xu.>.*X=X8X<X2X[.#X(._.U.~.j.s.6.e.) E E Q Q @.5.s.=.5.A.).{.&X>.P x d k 4 > > 2 2 # % < 3 3 w 7 i ",
"O O O % * 2 & O O O & : C %XrXqXaXiXuXuXuXaXaXiX0X0X7X,X;X[.XX].G.u.( L W Q ' @.8.h.E.`.+XXX>.H c w u 4 2 : & & O # < 7 r d f x ",
". . . # % * & # . O $ < @.OX6XaXdXfXsXaXaXdXsXfXfXfXyXaXsXiX,X1X<X8XoXN.*.K D #.k.R.G.oX,XL.I H c w * * & & O O O # & < 9 r r d ",
". . . O # & % # . X # d u.;X0XeXdXdXsXeXtXtXtXtXpXpXtXtXtXtXwX3X4X3X3XwX3X<.I :.H.J.L.L.>X<.b v v w * & & # O O # # % * 5 5 w u "
};
