/* XPM */
static char *out[] = {
/* columns rows colors chars-per-pixel */
"64 64 226 2 ",
"   c #2B1608",
".  c #4A2415",
"X  c #5C2C1A",
"o  c #68321E",
"O  c #583F2A",
"+  c #763A24",
"@  c #7E3D26",
"#  c #63432F",
"$  c #6E402D",
"%  c #6A4D37",
"&  c #77523D",
"*  c #7F5D46",
"=  c #814A35",
"-  c #8E4B34",
";  c #96523A",
":  c #865540",
">  c #8C5D46",
",  c #9D5943",
"<  c #955F49",
"1  c #A45E45",
"2  c #89664F",
"3  c #9B644E",
"4  c #916A53",
"5  c #9A6F56",
"6  c #AB644A",
"7  c #A16851",
"8  c #AD6D51",
"9  c #A86D58",
"0  c #B36A51",
"q  c #B76F53",
"w  c #A1765D",
"e  c #A7755C",
"r  c #AE755B",
"t  c #B4715D",
"y  c #B97658",
"u  c #A87B63",
"i  c #AE7D64",
"p  c #B77764",
"a  c #BD7564",
"s  c #B27861",
"d  c #B47F64",
"f  c #BB7E63",
"g  c #C1785B",
"h  c #C87E61",
"j  c #C07B6B",
"k  c #AC836B",
"l  c #BE8466",
"z  c #B3876E",
"x  c #BA876A",
"c  c #BF8B6C",
"v  c #B78C72",
"b  c #BC8E72",
"n  c #C38264",
"m  c #CC8566",
"M  c #C78568",
"N  c #C4816F",
"B  c #C48A6C",
"V  c #CC8C6D",
"C  c #CC8C6E",
"Z  c #D18969",
"A  c #D48C6E",
"S  c #D88F6F",
"D  c #C88973",
"F  c #D38E7E",
"G  c #C39072",
"H  c #C69677",
"J  c #C89172",
"K  c #CC9475",
"L  c #CA997A",
"P  c #CF9C7E",
"I  c #D19071",
"U  c #D09072",
"Y  c #D29172",
"T  c #D09273",
"R  c #D39273",
"E  c #D49374",
"W  c #D59475",
"Q  c #DA9472",
"!  c #DD9876",
"~  c #D79778",
"^  c #D1967C",
"/  c #D89778",
"(  c #D59A7B",
")  c #D99878",
"_  c #D9997A",
"`  c #DB9A7A",
"'  c #DC9B7B",
"]  c #DB9C7D",
"[  c #DA9D7E",
"{  c #DE9D7D",
"}  c #DC9D7E",
"|  c #DD9D7E",
" . c #E09E7D",
".. c #E29F7D",
"X. c #E2A07F",
"o. c #D89380",
"O. c #DD9E80",
"+. c #DE9F80",
"@. c #DF9F80",
"#. c #CFA186",
"$. c #D4A082",
"%. c #DFA081",
"&. c #DCA386",
"*. c #D8A485",
"=. c #D7A88D",
"-. c #DCA88A",
";. c #DFAB8E",
":. c #DBAB91",
">. c #DFAF94",
",. c #E0A081",
"<. c #E2A181",
"1. c #E3A181",
"2. c #E0A182",
"3. c #E1A283",
"4. c #E4A281",
"5. c #E4A382",
"6. c #E4A383",
"7. c #E5A483",
"8. c #E6A483",
"9. c #E5A484",
"0. c #E6A584",
"q. c #E6A585",
"w. c #E7A685",
"e. c #E7A686",
"r. c #E8A786",
"t. c #E8A787",
"y. c #E9A887",
"u. c #E0A58A",
"i. c #E3AC8D",
"p. c #E7AD8F",
"a. c #E8A888",
"s. c #E9A888",
"d. c #E9A989",
"f. c #EAA989",
"g. c #EAAA8A",
"h. c #EBAA8A",
"j. c #EBAB8B",
"k. c #EBAC8C",
"l. c #EBAE8F",
"z. c #ECAC8C",
"x. c #ECAD8D",
"c. c #EDAD8D",
"v. c #EDAE8E",
"b. c #ECAE8F",
"n. c #EDAE8F",
"m. c #EEAF8F",
"M. c #EDAF90",
"N. c #EEAF90",
"B. c #E4B195",
"V. c #E9B193",
"C. c #EDB091",
"Z. c #EFB090",
"A. c #EEB091",
"S. c #EDB192",
"D. c #EEB192",
"F. c #EFB192",
"G. c #EFB293",
"H. c #ECB496",
"J. c #E6B599",
"K. c #EAB79A",
"L. c #EEB899",
"P. c #EEBC9E",
"I. c #F0B293",
"U. c #F0B394",
"Y. c #F0B495",
"T. c #F1B495",
"R. c #F0B496",
"E. c #F1B596",
"W. c #F1B597",
"Q. c #F2B596",
"!. c #F2B697",
"~. c #F2B698",
"^. c #F2B798",
"/. c #F2B799",
"(. c #F3B799",
"). c #F3B899",
"_. c #F2B89A",
"`. c #F3B89A",
"'. c #F3B99A",
"]. c #F3B99B",
"[. c #F4B99B",
"{. c #F4BA9B",
"}. c #F4BA9C",
"|. c #F4BB9D",
" X c #F5BB9D",
".X c #F5BC9E",
"XX c #F5BD9E",
"oX c #F5BD9F",
"OX c #F5BE9F",
"+X c #F1BFA1",
"@X c #F5BEA0",
"#X c #F6BEA0",
"$X c #F6BFA0",
"%X c #F6C0A2",
"&X c #F6C1A2",
"*X c #F6C2A3",
"=X c #F7C2A3",
"-X c #F6C3A4",
";X c #F7C3A5",
":X c #F2C4A5",
">X c #F7C4A6",
",X c #F7C5A6",
"<X c #F7C6A7",
"1X c #F7C8A9",
"2X c #F0CBAD",
"3X c #F4CDAE",
"4X c #F8C8A9",
"5X c #F8C9AA",
"6X c #F8CAAB",
"7X c #F8CBAC",
"8X c #F8CCAD",
"9X c #F8CDAE",
"0X c #F9CEAF",
"qX c #F3D1B3",
"wX c #F7D1B2",
"eX c #F0D4B6",
"rX c #F6D4B6",
"tX c #FAD3B4",
"yX c #FAD7B8",
"uX c #F1D8B9",
"iX c #F7D8BA",
"pX c #F5DBBB",
"aX c #FADDBE",
"sX c #F6DDC0",
"dX c #F9E1C3",
"fX c #FBE5C7",
/* pixels */
">.D.0.q._ B k k e u H L P =.:.>.;.B.B.B.L.].+X].B.B.].*XP.*X+X+X].].H.+X].$XH.U.l.C.S.U.I.C.l.l.9.q.6.a.6.6.` | ~ ) E ` / W E R ",
";.g.c.z.w.E d k u f L *.L.@X@X+XoX$X*X@X;X,X,X,X;X,X*X@X;X*X,X,X;X$X$X$X%X$X$X{.^.E.E.U.E.U.U.i.k.q.e.q.s.6.X...' ' { ` { ' W A ",
"H ..X.0.5.` f f f l j C T L J ( i.'.'.$X$X,XoX,X*X*XE.oX$X;X*X1X<X*X'.$X%X*X'.{.U.U.k.l.E.I.d.k.f.d.2.w.t.s. ..._ | R | { { Y A ",
"c ! ! ..4.) c f e > = = = = = = 3 J &.V.oX$X@X$X*X@X^.E. X>X$X;X1X X[.E.@X|.E.U._.T.U.C.U.F.x.6.a.k.6.<.8.4.6...| ) ~ /  ./ R A ",
"x ! S Q S C r : $ = & $ O O X O # : 9 B ( S.'.$X%X.X_.E.U.'.$X,X@X XU.'.Y._.U.E.b.U.E.F.U.E.a.g.e.e.6.9. .3.e.8.` ' { X.) S A A ",
"G ' S Q S y < < x *.B.B.$.u 2 < < 3 3 r M _ k.'.'..XE.v.N.%X*X@X[.^.U.N.U.F.{.^..XT.oX$X'.'.U.z.a.3.<.@.0.7.e.8.2.` [ { [ ~ Z Z ",
"G  .S Q m y D i.L.].L.@X*X,Xp.*.( ^ f l D ~ ~ V.`.(.v.z.b.{.|._.U.U.a.k.F.{.^.%X*X,XoX@X^.^.k.w.0.6.' ..s.a.<.e.e.%._ | @._ Z Z ",
"G { S ) ) { b.S.'.^.].oX,X*X+XH.L.k.2.W / / / 3.Q.E.U.g.I.E.'.U.F.v.q.q.z.^..X X$X.X'.L.R.b.3.[ ( _ ~ { @.} } ] 2.+.%.{ @._ Z h ",
"b [ S e.s.N.!.U.z.A.N.^.U.L.S.H.l.a.6.6.{ @.@.s.n.U.N.I.A.U.I.U.a.q.@.q.s.I.[.'.'.i.( J B f e 3 3 7 7 d f f l D D R W { [ { A m ",
"x [ ! y.b.g.j.j.j.W W q.H.L.H.l.3.[ ~ ~ _ 2.q.q.z.v.I.M.I.A.U.I.q.W W W { 3.l.q.W s < = $ $ o X X X X $ : < 3 r f l M J ` _ W n ",
"b *.} d.x.z.t.s.M M p.+X@X;XL.S.q.@.V n n ~ { s.z.U.j.M.l.U.z.A.<.C n V I / C D 8 < + o o X . . . . . X $ $ $ : < 7 3 9 p T C n ",
"H -.s.4.b.f...I n a.].].L.V.k.i.q.<.E g y f A } s.z.d.h.U.n.b.g.s.M y f M M l 8 1 - + o $ o o $ + = : < 3 : = = : : : - 3 7 r p ",
"c *.u.g.S.E.) h C ^.H.$.d 3 < 9 r n M h y 0 n E } k.I.U.h.z.g.S.<.C f f f f t 6 ; ; = = = > 3 s l T ( [ T M s r 7 < - - : ; : < ",
"c J *.q.'.U.' M O.*.w # . . O . . . $ < 6 8 y M ) 8.I.E.E.x.v.g.@.I n f y 0 7 , ; - ; ; < 9 f J ( ^ W _ } ~ ~ T C n p 7 < > - : ",
"J L ( } b.U.R C T :       O & &       X @ ; 3 f I 4.z.oX$X'.A.N.8.~ n f t 6 ; - - - @ @ = 7 s B C B y y t s t n T ~ D l d 9 > - ",
"$.$.*./ @.3.~ t ; o . X o # $ .       . $ o + , A ..v.,X0X,XoXE.v._ f 6 6 1 ; = = o X = d B B J W C D n l t , ; , p n M J f 9 < ",
"P $.+._ n y 6 ; , D f f r 7 : # . X X : = $ + @ y s.N.6XtXtX<XoXl.) t , , , - @ o X + < : $ O # . . o > 3 9 3 3 = $ 3 B B l y y ",
"$.$.i./ ' ! ) ) { e.j.a.N.3.~ f u 9 r s r 9 8 n } U.'.8XaXiX0XoXa.M 7 ; 6 - = - $ o $ $ $ o . .           . . O o X o 9 T C D f ",
"$.$.&.k.'.{.A.j.q.<.8.z.g.N.8.2.~ E M Z E E ~ { s..X X8XiXiX6X Xq.M , ; 6 6 1 n f y t f f x u 2 # . . . .           . $ B l 8 n ",
"$.( 3.a.!.E.U.U.{.A.8. ...) A A E E A Z E m g m U.&X;X1XtXtX1XE.8.h 6 1 y A C I 4.6.{ } 2.@.2.( C p 9 r r < : : + o X + 1 1 y h ",
"( $.@.<.j.I.F.{. X$XN.' m m m Z Z m g q 6 0 C L.*X4X1XyX8X<X*XN./ h y g n A ' 8.8.s. .W C ~ ! ' Q Z m Z h n n h n f y y , y U @.",
"&.*.O...v./.`.[.,X1X<X{.v.) h 0 0 6 6 y T H.,X1X1X7X8X0X9X1XE.<.A m m Z A Z ) 8.s.a.z.a._ f 6 6 0 q 0 0 0 y h m h y 1 - 8 C W M ",
"u.i.6.6.Q.{.|.*X1X8X<X8X*X@XA.N.l.U.S.@X1X8X@X1X8XtX8X0X1X;Xv.{ Z Z m Q  .8. .0.s.j.j.A.^.E.} C f 8 , , ; ; - = = - , n U ' _ W ",
"i.u.<.j.E.E..X$X7X8X0X8X8X*XoX{.$X*X,X1X<X,X,X1X0X0X0X1X4X{.g.! A m m A  .0.t.f.m.z.j.v.^.E.^.E. X'.S.u.O.T C R [ q.q.e.e.W I / ",
"&.3.<.I.E.$X&X1X1X8X0XtX8X<XoX[.E.,X1X5X>X,X8X0X8XrXrX8X.X'.j.4.Q A m m h m m Z S 8.z.Q.U.{.^..X^..X.X$X$X$X{. XE.v.g.j.e.@.V ~ ",
"i.u.<.N.#X>X5X7X0XrXiXiX0X1X.X$X>X,X8X,X1X,X0X0XtXiXaX6X'.'.I.v.g...Z g y y y 6 1 0 A g.^..X.X{. X$X*X,X,X*XoX{.U.z.6.a.a.8.W I ",
"E.v.<.N.#X4X1X9XyXiXrXiXrX0X1X1X6X8X<X8X6X8X<XtXyXdXrX8X X{.A.U.I.v.Q n g A S Z q , , n a.XX.X@X@X*XoX,X<X1X X XE.I...<.e.s. .I ",
"b.a.s.I.=X,X1X9X0XiXiXrXiXtX8X6X0X6X;XoX*X*X<X0XrXiX0X,X*X^.E.^. X4.A h m  .s.8.! y - - y } b.^.%X*X,X*X,X,X$X'.'.I.4.6.g.a.4._ ",
"q.a.U..XXX4X1X0X,XtXtX0X6X4X*X*X{.^.6.! ) ^.<X8XaXiX0X1X$X$X{.$Xa.A g h Z 4.4.4.S m , - ; 6 M q.A. X*X,X{.XXQ.{.A.N.j.j.e.s.8. .",
"e.4.I.v.oX{.4X1X,X,X;X*XoXE.v...Q h 0 0 @.$X*XtXaXaXiX0X1X*XoXN.C 8 6 6 0 0 0 0 6 6 6 0 0 1 1 n } z.U.E.E.U.!.m.Z.h.0.9.s.a.<.{ ",
"e.s.a.z.U.'.}..X$X*X'.U.z.6.Z g 6 ; 1 q.;X7X,XpXdXfXdXfX0X1Xk.M 6 ; + $ + + $ + ; 1 6 y y y 6 0 g /  .g.v.N.e.j.s.h.6.s.a.g.<.4.",
"h.s.f.j.v..X}. XXXE.g.<./ Z 0 ; - y i.,X0X8X0XiXfXdXaXrX8XL.D 1 - $ $ + + + + = - - ; 1 0 0 y q 0 y M ~ 4.8.<.{ 6...8.0.q.4.@._ ",
"4.e.s.m.z.v.I. XA.e.) Z g 6 - - f V.@X6XrXiXrXiXrXtX<X@XH.[ 8 - + + $ + + + $ + + = - - ; 6 0 0 6 6 1 f A _ ! ' ) { { e.,.4.] } ",
"4.{ h.z.g.z.g.z.a.~ m y 6 ; - f u.^.6X9XtXyX0X1X1X$XV._ M 8 ; = + o $ + + $ + + @ = = @ + - ; ; ; - - ; t C R R R A W _ _ ` _ W ",
"2.w.' 5.f.e.4.8.' Z y 6 , ; 8 W S.<X+X;X,X+XS.b.^.U.k./ 0 , ; ; , ; = = = - @ - - ; = + + = = - - = + @ = 9 C Q _ E V C W ~ J T ",
".._ ..{  .{  .` E l 0 , ; 1 M _ b.L.3.J ^ 2.} } { @.W f 1 , t C C 8 ; ; ; ; - - ; 3 - = - = - - - = $ $ $ @ 3 U @.W V Z W T c C ",
"/ ' ! ) E Q ) ) m y 6 , ; f W ~ 2.~ f y p T I V y y 7 - + , f W W V y 6 , ; - ; - ; ; ; - ; - ; ; - = = + + + 3 M ~ U R C R D C ",
") _ { ) Q ) ! A m t 6 , , n J D ^ f 0 8 t l n f 8 6 1 - t 2.q...{ Q Z g 6 1 ; ; , , , , ; , , ; 1 1 3 < = + $ @ 1 M U U U W I C ",
"C ~ E ) W ! S m M y 6 , 1 M l n B y 9 8 y f n M y y 0 y _ U.N.z.8. .Z m g y 6 0 g n q y q 0 1 6 6 8 6 3 > = + + = 8 C T W } U A ",
"C R ` ' { ! Z n h n 8 , 6 B l l f t 8 r n n M m D Z ~ ! @.{ q.6.6. .Q A S Z m h m Z m m h y 6 0 q 0 6 6 3 : + + = , M ( O.O.W Z ",
"l R _ 3. .4.Q n y M y 8 6 T B r 9 r 6 9 8 0 g m Z Q E E A E ~ Q Z m h m n g g g q y y 0 1 6 1 6 , , ; 1 > - = : ; ; n }  .3.E U ",
"l Y ] 3.8.e.' f t D C f f C D 7 ; - - @ = ; 6 q y y y g m N n y q 6 6 1 , ; , ; , ; ; - = = = @ @ + + + + @ ; 9 t 1 n } 3.2.T Z ",
"c ^ [ d.D.E.8.M t M T M f M n y 9 , = ; 8 0 6 q q q 0 y j j a j N D j N N N y a q 6 , , 1 , ; ; ; - = - - 1 f W W y D { &.[ C Z ",
"x C ( n._.I.U.~ p y W _ C D C M V V n h m m m Z ! o.o.F ] 2.[ 6.2.%.o.F o.F D j N j j a a a q q a 0 6 6 y A  .<.! n R _ } K T V ",
"f G $.V.H./.E.v.l 8 D 2._ ~ ~ / W / ~ / m n E  .} [ ] %.o.%.] %.[ ] F N a l r 8 y t 0 a y a y y 0 0 0 g E z.<.4.V V } 3.^ K D m ",
"x c O.C.G.!.W.E._ t f _ @.@.) I W W ' ! S M M C C l D D n l f f f f d 7 3 3 3 < 3 3 3 8 q 8 8 8 0 8 h ! N.l.2.) n R 6.[ H G B B ",
"L P K d./._.I.E.l.C t D @.6.W W ~ ) E ! Q m y t 8 8 7 9 r 9 7 9 r e 3 3 3 < > > 2 < < 7 9 r 8 t 8 n W z.^.a._ C f ' } T J J l B ",
"L P K [ D.!.G.U.E.O.p y _ 6.{ } ..{ / Q E h y t y 8 6 9 p p y t p s 9 3 3 < < > < < < 3 7 9 8 8 n I e.b.V.3._ y n _ W l c C B M ",
"K *.$.] 6.U.D.E.b.g.f 8 n 4.8.s.....) ) A h f f y t 8 y l D n n f s 9 7 3 3 > < < 7 7 r 8 t s l C 3.l.S.q.k.E f C ~ M l x K J R ",
"P *.$.$.*.i.S.l.l.q.l 8 y / r.s.a. .{ Q S h n f f f V C W W ~ C n p r 9 7 7 3 3 9 d l l n n M W k.l.b.V.V.q.n M ) C d f J D ^ ( ",
"#.-.#.*.%.&._ [ 6.3.T t f W { s.4...~ ! Q m g h M ) q.z.v.z.8.} W J f d l f d B J ~ R ~ ~ _ W @.F.b.9.p.V.~ n I W l r l J ^ T K ",
"$.*.$.*.$.P f l u._ ( M C { 0.8.s.4.) ) ! Z m A  .q.z.k.A.a.s.q.a.q.O.( [ u.u.i.V.i.6.3.3.[ ~ q.H.l.a.a.u.m M C M s d c ( P B l ",
"L *.&.*.P H w 4 d J [ _ W j.v.q...a...{ Q ) { a.x.b.A.e.e.q.s.l.l.b.k.V.i.p.i.V.p.k.O.O.~ q.3.V.i.V.i.i./ I C M s l n L K L K ( ",
"H *.=.*.*.x 5 & 2 w T 2.0.z.U. .4.z.g.4.4.<.e.C.{.'.'.U.k.q.b.S.S.b.H.H.H.B.H.H.q.%.] _ 2.e.p.3.i.i.k.u.^ Y D f c J H L ^ ( [ ^ ",
"b $.P $.P b 5 & 2 4 u u.U.!.R.z.<.N.v.g.s.z.<.T.!. XH.].].C.p.^.].+XL.1X<X;XH.V.u.O.( O.2.a.[ 3.i.p.&.2.( C d x H c c J T &.u.&.",
"z L P P P x 2 % 2 2 3 J oX$X@X^.6...h.s.a.g.a.N.|..X X.X*X@XoX+X;X*X%X@X1XH.( 3.l.[ [ [ q.2.[ u.i.i.u.O.L d 9 9 J J b c ( [ u.i.",
"w G L $.L d & % & & 4 x B.,X*X[.l.7.s.a.g.x.z.U.U.@X{.}.+X|.*X-X+X@XH.oXH.l.O.a.2.` / _ [ 2.2.a.a.p.&.L x d 9 s f ^ K J K [ &.-.",
"w x L P c w & % & & 4 r u.7X,XoXx.6.f.<.s.n.).U.E.E.[.b.I.v.U.S.l.S.l.p.e.a.9.3.` W / / q.a.n.S.i.u.L G x k u 9 7 p B J L P x i ",
"5 w b x d 5 # # % & * 3 J 0X1X@XU.a.X.e.H..XU.T.T.`.k.C.C.A.u.q.2.x.6.e.6.6._ ` [ +.[ [ q.!.U._.u.P u f c z u 9 = 3 9 d d w 4 4 ",
"% & 2 5 u 5 # # # % & > f ;X9X@Xb.3.d.|.1X>X].'. X!.A.b.R.k.4.1.2.] W W | { _ ` 0.e._ ~ T..X XH.$.c u 5 u w 3 5 & & > > > < 2 > ",
"O O # * 4 4 % O # # & > t $X6X+X*.K.>X7X6X0X1X1X@X&X X.XI.R.D.F.v.g._ U U _ ` 6.q.a.3.C.U.%X|.u.G d z 4 4 * 2 4 % # > 3 3 7 7 i ",
"O O O % * 2 & O O O & - l OX0XtXiXiXrXwXtXiXaXpXwX0XtX0X5X%X#XoX`.R.%.K T ^ ~ +.3.g.G.~.%X&XV.H G u u 3 > * & & O # < 7 s d f x ",
". . . # % * & # . O $ < O.@X6XiXsXdXpXiXiXsXpXdXdXdXrXiXpXyX,X,X<X7X+XB.$.K D ] l.W.D.+X,X+X( G c w * * & & O O O # & < 9 r r s ",
". . . O # & % # . X # d i.-XqXqXiXpXpXqXeXeXeXeXuXuXeXeXeXeX2X2X3X2X2X2X2X>.P -.J.P.P.+X:X>.b v z w * & & # O O # # % * 5 3 w u "
};
