/* XPM */
static char *out[] = {
/* columns rows colors chars-per-pixel */
"64 64 218 2 ",
"   c #2B1608",
".  c #4A2415",
"X  c #5C2C1A",
"o  c #68321E",
"O  c #583F2A",
"+  c #763A24",
"@  c #7E3D26",
"#  c #63432F",
"$  c #6E402D",
"%  c #6A4D37",
"&  c #77523D",
"*  c #7F5D46",
"=  c #814A35",
"-  c #8E4B34",
";  c #96523A",
":  c #865540",
">  c #8C5D46",
",  c #9D5943",
"<  c #955F49",
"1  c #A45E45",
"2  c #89664F",
"3  c #9B644E",
"4  c #916A53",
"5  c #9A6F56",
"6  c #AB644A",
"7  c #A16851",
"8  c #AD6D51",
"9  c #A86D58",
"0  c #B36A51",
"q  c #B76F53",
"w  c #A1765D",
"e  c #A7755C",
"r  c #AE755B",
"t  c #B4715D",
"y  c #B97658",
"u  c #A87B63",
"i  c #AE7D64",
"p  c #B77764",
"a  c #BD7564",
"s  c #B27861",
"d  c #B47F64",
"f  c #BB7E63",
"g  c #C1785B",
"h  c #C87E61",
"j  c #C07B6B",
"k  c #AC836B",
"l  c #BE8466",
"z  c #B3876E",
"x  c #BA876A",
"c  c #BF8B6C",
"v  c #B78C72",
"b  c #BC8E72",
"n  c #C38264",
"m  c #CC8566",
"M  c #C78568",
"N  c #C4816F",
"B  c #C48A6C",
"V  c #CC8C6D",
"C  c #CC8C6E",
"Z  c #D18969",
"A  c #D48C6E",
"S  c #D88F6F",
"D  c #C98270",
"F  c #C88973",
"G  c #CC8A78",
"H  c #D08B78",
"J  c #D38E7E",
"K  c #C39072",
"L  c #C69677",
"P  c #C89172",
"I  c #CC9475",
"U  c #CA997A",
"Y  c #CF9C7E",
"T  c #D19071",
"R  c #D09072",
"E  c #D29172",
"W  c #D09273",
"Q  c #D39273",
"!  c #D49374",
"~  c #D59475",
"^  c #DA9472",
"/  c #DD9876",
"(  c #D79778",
")  c #D1967C",
"_  c #D89778",
"`  c #D59A7B",
"'  c #D99878",
"]  c #D9997A",
"[  c #DB9A7A",
"{  c #DA9A7B",
"}  c #DC9B7B",
"|  c #DB9C7D",
" . c #DA9D7E",
".. c #DE9D7D",
"X. c #DC9D7E",
"o. c #DD9D7E",
"O. c #E09E7D",
"+. c #E29F7D",
"@. c #E2A07F",
"#. c #D89380",
"$. c #DD9E80",
"%. c #DE9F80",
"&. c #DF9F80",
"*. c #D4A082",
"=. c #DFA081",
"-. c #DCA386",
";. c #D8A485",
":. c #DCA88A",
">. c #DFAB8E",
",. c #DBAB91",
"<. c #DFAF94",
"1. c #E2A181",
"2. c #E3A181",
"3. c #E0A182",
"4. c #E1A283",
"5. c #E3A282",
"6. c #E4A281",
"7. c #E5A382",
"8. c #E4A383",
"9. c #E5A383",
"0. c #E6A483",
"q. c #E5A484",
"w. c #E6A585",
"e. c #E7A685",
"r. c #E7A686",
"t. c #E8A786",
"y. c #E9A887",
"u. c #E0A58A",
"i. c #E3AC8D",
"p. c #E7AD8F",
"a. c #E8A888",
"s. c #E9A888",
"d. c #E9A989",
"f. c #EAA989",
"g. c #EAAA8A",
"h. c #EBAA8A",
"j. c #EBAB8B",
"k. c #EBAC8C",
"l. c #EBAE8F",
"z. c #ECAC8C",
"x. c #ECAD8D",
"c. c #EDAD8D",
"v. c #EDAE8E",
"b. c #ECAE8F",
"n. c #EDAE8F",
"m. c #EEAF8F",
"M. c #EDAF90",
"N. c #E4B195",
"B. c #E9B193",
"V. c #EDB091",
"C. c #EEB090",
"Z. c #EFB090",
"A. c #EEB091",
"S. c #EDB192",
"D. c #EEB192",
"F. c #EFB192",
"G. c #EFB293",
"H. c #ECB496",
"J. c #E6B599",
"K. c #EAB79A",
"L. c #EEB899",
"P. c #EEBC9E",
"I. c #F0B293",
"U. c #F0B394",
"Y. c #F1B495",
"T. c #F0B496",
"R. c #F1B596",
"E. c #F1B597",
"W. c #F2B596",
"Q. c #F2B698",
"!. c #F2B799",
"~. c #F3B799",
"^. c #F3B899",
"/. c #F2B89A",
"(. c #F3B89A",
"). c #F3B99A",
"_. c #F3B99B",
"`. c #F4B99B",
"'. c #F4BA9C",
"]. c #F4BB9D",
"[. c #F5BB9D",
"{. c #F5BD9E",
"}. c #F5BD9F",
"|. c #F1BFA1",
" X c #F5BEA0",
".X c #E7C0A2",
"XX c #F6C0A1",
"oX c #F6C0A2",
"OX c #F6C1A2",
"+X c #F6C2A3",
"@X c #F7C2A3",
"#X c #F6C3A4",
"$X c #F2C4A5",
"%X c #F7C4A5",
"&X c #F7C5A6",
"*X c #F7C6A7",
"=X c #F7C8A9",
"-X c #F0CBAD",
";X c #F4CDAE",
":X c #F8C8A9",
">X c #F8C9AA",
",X c #F8CAAB",
"<X c #F8CBAC",
"1X c #F8CCAD",
"2X c #F8CDAE",
"3X c #F9CEAF",
"4X c #F3D1B3",
"5X c #F7D1B2",
"6X c #F0D4B6",
"7X c #F6D4B6",
"8X c #FAD3B4",
"9X c #FAD7B8",
"0X c #F1D8B9",
"qX c #F7D8BA",
"wX c #F5DBBB",
"eX c #FADDBE",
"rX c #F6DDC0",
"tX c #F9E1C3",
/* pixels */
":.>.` ` *.*.Y u.p.K.<.N.B.<.>.B.>.,.:.>.:.>.p.B.>.i.u.>.-.>.u.u.%.-.-.-.` -.;.$.` ` W ) W R W W I W I ) ) ) P P F C C Q R R R C ",
":.-.) Y ;.*.*.p.N.<.N.B.J.J.N.<.<.>.>.i.i.i.B.B.>.u.-.-.B.>.p.>.u.-.4.-.4.-.3.X.X.` ` ` *.` ` W W P P I ) I W R R R T R ~ E ! R ",
"Y Y U ;.u.;.;.<.<.N.<.N.N.K.N.<.<.p.u.i.p.p.u.l.p.>.u.u.B.S.a.l.a.a.3.r.a.a.&.$.&.$.~ &.@.4.` *.Y U B P L P l P F R m R E ! V Z ",
"*.*.Y Y ;.*.;.,.<.B.B.B.H.N.<.B.H.i.B.l.S.B.i.i.S.l.i.u.p.S.C.B.B.d.d.p.C.d.4.&.$.&.....u.3.%.*.;.Y L P L l B n M M M m E C V m ",
";.;.u.B.u.>.>.<.B./.E.`.H.`.S.H.S.H.S.S.l.H.H.!.E.!.E./.H.!.G.G.l.k.x.x.a.y.o.1.o.@.O.@.X.%.$.-.Y Y L ) P F l B n M m V m A V R ",
"u.p.B.S.E.S.p.l.].'.!.E./.!.E./.].'.!.E./.!.!.E./.!.U.H.Y.S.B.k.k.d.d.d.y.7.@...&.&.O.%.;.%.$.X.*.U W P C B B M B M B M M M m m ",
"S.T.H.`./.`.S.`.].{.E.`.].'.H.!.`.].H.H.G.^.p.T.U.^.l.S.M.M.r.k.j.m.r.x.y.O._ } ..5.{ O.=.4.{ *.` U B F B B l n n M l M M m n M ",
"`./.E.E.!.!.S.S.!.`.S.E.(./.E.E.`.(.G.T.!._.E.H.`.G.k.l.A.x.d.p.j.j.p.d.d...} o.=.X. .X.%.$.X.` ` P n B F M n n B n n n m M M h ",
"U.!.H.`./.E.G./.H.G.T.W.T.].!.(.D.G.S.(.E.!.T.{.H.V.l.x.d.G.p.j.r.p.d.C.r.7.$.=.} $.{ ..$.&.| ] P C B B B M n n f n g n g h g g ",
"T.E.T.!.`.D.T.G.E.H.H.l.Q.G./.T.!.E.G.E._.^.{.E./.E.S.k.C.C.l.d.k.d.n.a.a.e.4.$.=.| X.$.%.$.X.~ E B B n M M h f f g g g g g g a ",
"Q.`.S.E.`.^.p.E.G.`.l.V.W.Y.a.G.U.{.H.!.].{.].{./.`.l.d.l.D.d.b.k.d.r.p.j.j.&.&.%.$.` $.&.3.~ ~ E C l f n h y f y a q g g g g g ",
"C.T.G.E.S.T.l.G.W.Y.n.d.n.p.d.l.E./._.]. X&X X].'.H.d.3.%.$.X.X.{ ~ ' %.4.%.X. .o.X.( { $.X._ ! E V n f n f y f a y y y n g g g ",
"` a.l.Y.f.S.j.n.g.Y.n.k.d.a.u.x.G. X X&X]._.!.U.-.U d r 9 7 7 9 9 r t B B C W ~ ~  .| X.] | ~ ~ C V n n f f f f y g y g y n g g ",
"t P %.d.d.p.d.j.k.j.n.a.4.4.4.a.C.E.!.H.p.W d 7 > = $ X X X X $ = : , 9 r t t t f F ` ` _ ~ E E F M n f f f y a g y g y g g g a ",
"9 f M 4.h.Z.a.s.p.x.e.3.| &._ 3.d.S.u.` f 7 = $ # X . . X X X $ = : = : > 3 < 3 7 8 t l R C B V m B p f f f q y y y q q q y 0 q ",
"p f B _ j.y.r.7.a.a.r.o.~ E C R ' { R t 3 : + $ $ o o $ : 3 e x c r 9 9 8 9 3 ; , 3 3 7 8 r r t y t 8 8 t 0 0 0 0 8 6 6 0 6 6 6 ",
"8 t V _ &.d.y.j.0.y.7.3.M M M V M B f 6 - - = = = ; 9 l P %.u.p.4.4.{ ` W C f t 3 3 3 7 3 7 7 7 7 7 3 7 6 6 8 6 , 6 1 6 1 6 6 6 ",
"t 6 f V O.r.s.j.6.7.e.&.V f l f l y 8 , ; ; ; ; 6 t B ! X.X.3.%.3.%.4.3.4.3.%.Q n f r 8 7 3 7 3 3 3 3 , 6 1 9 6 6 1 6 6 8 8 0 6 ",
"9 8 6 f R 7.@.j.0.0.&.$.Q M y g t 8 , , , , < 3 6 t f V R R M M m B f V ! ] ~ ' ~ E n f t 9 7 9 9 9 7 6 8 8 1 9 6 8 6 6 0 t 0 q ",
"o = < 6 M _ j.x.x.r.4...] P B a t 6 ; ; ; ; - - 9 B ` 4.n.a.] Q R n 0 , , 6 f B E C B n f f t y 0 y t y y t 8 8 t 8 t t n n g g ",
". X $ = 6 R 7.`./.G.l.d.| E l t 6 3 ; - - + + < j n n L P P W W C B f t , - = 8 B E R E F M n M f n f n y g t t t y y f g f f n ",
"# & @ $ + g 0.{.:X{.E.G.r.R q 6 6 , ; = @ X = , ; + X # . X $ : > < < < < : @ = r W ~ C M n n g M m B n n a y t f f f n M M m m ",
"s f 9 7 8 R y.%X8X3X].E.r.V 6 6 0 , ; ; - + + + = + . .       . . . . . X X X $ ; 6 6 8 q h n C ~ _ R E R Z y y t t 6 0 0 y 8 8 ",
"E C R _ &.y.E.&XqX8XOXC.X.g 0 0 y 6 f V V n M R C P s < : $ $ = : : : : = + + - 1 1 6 a V _ ] ' @.@.X.| X.V t 6 1 3 3 1 8 t 0 t ",
"A S Z m m p. X3X3X<XOXC.! g 0 q h V R 2.0.e.] | O.2.&._ V V m R m M y f g M C R y 6 q Z ^ 2.] _ ! o.~ _ R n t 8 7 7 8 s t l l B ",
"a 0 6 g p. X&X,X:X:X'.r.Q g g g ~ +.7.y.n.x.@.R R R ~ ^ S m m g h m A _ ..S a 1 , q ~ @.j.e.e.&...! ' ~ ' ~ M y 8 9 7 9 t t y d ",
"8 l ` '.&X<X*X:X<XOXa...! Z m ! E @.0.x.G.G.G.n.[ n 6 6 0 q 8 0 q q 6 6 , , ; 0 A 6.@.e.y.j.@.0.7.e...0.7.@.M f r 9 3 7 9 r r p ",
"].OXOX*X1X,X<X:X%XE.&.~ Q _ } ..@.0.y.y.C.C.Y.E.`.H.4.] ~ M f t 8 6 6 8 n ~ 0.C.E.C.d.0.7.6.O.2.7.e.2.0.y.@.P f t r 7 7 r t t f ",
"*X>X,X2X>X3X<X<X].n.] ~ A ^ +.j.j.Z.Z.G.l.I.H.].E.!.E.].{.].].{././.E.{.E./.H.!.G.Y.n.w.6.0.' @.O.0.e.e.2.0.P l t t t r t f f n ",
"8X*X=X2X3X8X8XOX!.e./ A A ^ ' @.0.e.y.y.n.C.E.).[.{.`.].{.OX%X%X%XOXOX{.{.I.F.j.G.C.x.x.j.0.@.} ..0.e.4.7.{ C f t r t f B B M V ",
"3X5X1X3XqXeX&X].Y.a.^ ^ A Z h m m h y h ! y.n.~.}.#XE.{.@X%X_. XXX<X{.{. X].x.v.m.c.j.x.x.j...} } 7.@.O.&.{ M n l f f m m Z B R ",
"3X3X:X<XeXeX&X/.H.x.e...^ m g h S Z g 6 6 t E y.E./.E.`.&X:X+XOX:X:X%XOXOX`.G.c.F.p.n.j.n.y.7.3.O.} ( _ X.~ B B B n h m m Z V C ",
"=XOX X;X8X9X%XE.C.C.n.x.} Z m A O.y...S 0 ; , f ! r.C.`.].,X*X,X&X&X%XOX{.{.Y.F.j.j.n.C.d.x.e.+.} [ ~ { ) W C W B n n m Z ! E E ",
"y.| B.,X8X3X&X].E.!.H.7.^ Z S @.j.y.7...h , - ; 6 f ! a.Y.'. X].OX'.{.E./.E.Y.v.l.j.x.e.j.j.y.7.O.{ Q R W P P Q C f g M A E ~ Q ",
"y g C.=X9X9X%XOXOX{.4.C M m A } .._ m g 0 6 6 0 0 8 0 C @.C.C.Y.E.'.l.I.I.U.k.Z.C.z.9.y.j.x.2.4.{ ` B W W I P ) Q M f M Z A m Z ",
"; B  X8XtXtXqX&X Xa.M 0 0 6 6 , , - - ; 1 8 y a g g q 0 n _ &.e.C.Z.n.y.n.I.h.f.c.x.q.1.e.4.&.{ | W P P ) I P ) _ R V V ! ! R Z ",
"8 B.<XeXtXtXqX:Xp.n 1 - @ + + @ + @ = ; , 6 0 0 y g g g 0 y M ~ ..0.7.0.&.0.7.h.7.y.2.5.| o.] | W I P ) Q W P ` E X.X.{ Q ~ V A ",
"%. X8XwXtXqX:XH.R 1 - + + + + + + + = = - ; ; , 6 q t 0 6 1 1 t V ~ ' ' ' ' ..O.&.@.@.] | ( Q I I P W W ` ) I P ` { { ( ~ Z Z V ",
"B.:X<X;X3XOX>.Q 8 ; + + + + + $ $ + @ @ - - = = - , ; ; ; ; - - 1 n C ~ ' ' ! ] ] ' ~ ~ ~ ~ F C P C B I | ` B P ` u.` ~ R Z M Z ",
"!.{.{./.E.a.) 8 ; = @ + = @ + + = = - - ; - @ + = - - - - = @ @ @ : t ~ 3.O.( ! ~ ~ R W ~ C C M P B B ! | W B B W ) W C V Z m m ",
"-.$.X.4.| &.C r - ; 8 y 1 ; ; ; - - - ; , < - - - = ; ; - : = & $ + = 9 M ] | _ T ! T ! E ~ ~ C B B B ~ ) W F B n B M C n m V m ",
"B t l C n t 6 - = 1 l B f 7 3 ; ; - - ; ; , ; ; ; ; ; , 3 < < > : @ + = < p E ! A R E E ~ ' { C P B B W ) P l l B P F B C m V Z ",
"f 9 8 f t 8 1 ; 0 %.{ ~ V n 8 1 ; < - , 1 6 , , , , , 6 8 8 7 7 ; : @ @ - ; 8 R ~ ! ! ~ ' $.` W C B n W W P l B P L B M C ~ m Z ",
"r 7 8 f f t 0 y _ n.C.2.} Z g q 8 6 6 q n n y q y 6 1 0 y y 8 8 9 , - @ : - ; y ! ] ' ~ O.&.O.) P B c P U B B K U W B n C C V V ",
"9 9 r f f g M Q ~ &.@.e.} ^ Z m m m h m m m m m g q 0 y q q 0 0 8 9 > - = - ; 6 m ] } $.| 2.&.` P P B L B c c U L U n n l B M F ",
"7 < , < 6 t M n m m m m m h g g y q q 8 8 8 0 1 , ; , , ; ; ; - ; ; - ; < , 6 6 l ' @.O.&.$.X.Q P P F K B c c K U L B l B B B B ",
"9 : + + = ; - ; , 6 6 6 1 , - ; - - + @ = = @ + + + + @ = - @ - - - - 6 n V M y n &.....+.@._ ! P W B P c c f P B P c B B C l B ",
"d 3 - , 8 6 , ; , ; - = - - - - ; ; ; , 1 1 , ; , 1 8 8 0 q q q q 0 y ! 7.@.X.V V ' o.| 3.| ~ C P C K f l l x x f B B B P B B B ",
"r d f l M A G H G D D j p j f p p j p j a N j j y n g g g g y g g Z @.C.r.e.e.E V &.@.2.&.| E P B B B l d l c c d l B P I W W R ",
"f n P B M E ! E H H #.H J H G j p t t 8 p a p 0 a a y y y q q a F &.C.B.d.4.$.m R ..%.&.$.W F B B c n s f x x s f B P I ` ` ( ) ",
"{ M n C m m n g y f f p p f 8 7 7 < > < 7 7 3 7 9 r 9 t y p t n ] j.p.x.x.x.~ M Q 2.] | ) W B B B B s 9 d l s f c L B Y ;.) P P ",
"-.` n R ~ m n 9 9 9 7 7 r r 9 9 7 < : > < < 3 7 9 r 9 r y g l R r.d.l.p.G.l.~ M _ &.| ~ Q B B V C l r 9 f x d l P L U U Y P P B ",
"K ;.R ` { ~ n 0 7 7 7 r t p t p 9 9 < < > 3 3 9 r y y l l B C | r.b.H.H.l.p.~ E ~ 3._ ] V B C I B f 9 9 f Y P B c P L U I ` ` ` ",
"K U U W %.{ B t r 7 9 r F R C F n f p r r 9 s f C Q ! ( { ] | 4.a.b.C.B.B.u.{ ~ @.{ ~ C F E W W C f r s f d L P c c P P ` -.-.` ",
"c ;.P P *.*.C l y f 8 p ` 4.%.` P W W ` ` $.` u.l.B.4.r.8.l.u.p.i.B.u.a.a.3.~ ( O.3.~ Q W ` I I P f r e 7 9 s L c B l P ) -.-.q.",
"z U Y P P P W V V V n E %.r.r.4.4.3.3.u.i.i.i.p.T.H.S.l.i.4.w.-.i.i.u.u.u.{ { ( %.X.] !  .` W W B d x d u e r B I P B P Y ;.u.r.",
"w K U L d e d F ! 2...0.$.r.4.n.4.k.B.L.B.T.L. X|. X]./.l.p.4.u.%.3.%.3.`  . .X.] $.%.4. .` ) ) l i d z e e 9 s f P I I *.;.*.*.",
"w z L L d 3 4 e c -.a.l.r.e.a.d.b.D.Y.]. XOX+X+X#X{.OX].H.i.3.4.u.3.` W ( ( | $.$.3.w.a.i.%. .U P e c z k i i 7 3 s B I Y K i w ",
"5 5 b x r 4 & > 5 B ) H.{.U.r.a.h.!.l.^._.OXR.^. X XS.B.p.V.8.a.3. .R ~ _ X.] %.5.i.4.l.G.V.` I P w w c z z e 5 = 3 9 r 7 5 4 4 ",
"% * 2 5 s 4 # & & > 9 U :X%Xd.t.y.a.G.C.Q.(.V.p.n.p.8.&.7.r.2.O.O.( ~ ( O.{ %.4. .i.p.I.[./.-.L c d 3 e e 5 7 3 & & > : > < < 4 ",
"O # % * 4 4 & # % & * 7 u.=X X3.-.XXoX+X].`.L._.G.!.V.n.r.r.O.O.~ ~ T ~ ' $.=.a.X.4.S./.^.].>.U x i k 4 4 > 2 4 % # > 3 3 9 7 i ",
"O O O % * 2 & O O # & : Q *X3X.X5X3X3X3X8XqX7X5X1X<X>X*X X_._._.G.u.! W ~ ~ ] $.4.g.G.E.oX].u.L c e w 4 4 * & & # # < 7 r d f x ",
". . . # % * & # . O $ < $. X=XqXrXtXwXqXqXrXwXtXtXtXqXqXwX9X&X%X*X<X|.N.*.I F | l.E.H. X&XP.Y K c w * * & & O O O # & < 9 r r d ",
". . . O # & % # . X # d i.@X4X4XqXwXwX4X6X6X6X6X0X0X6X6X6X6X-X-X;X-X-X-X-X<.Y :.J.K.K.$X$X<.b v k w * & & # O O # # % * 5 5 w u "
};
