/* XPM */
static char *out[] = {
/* columns rows colors chars-per-pixel */
"64 64 229 2 ",
"   c #2B1608",
".  c #4A2415",
"X  c #5C2C1A",
"o  c #68321E",
"O  c #583F2A",
"+  c #763A24",
"@  c #7E3D26",
"#  c #63432F",
"$  c #6E402D",
"%  c #6A4D37",
"&  c #77523D",
"*  c #7F5D46",
"=  c #814A35",
"-  c #8E4B34",
";  c #96523A",
":  c #865540",
">  c #8C5D46",
",  c #9D5943",
"<  c #955F49",
"1  c #A45E45",
"2  c #89664F",
"3  c #9B644E",
"4  c #916A53",
"5  c #9A6F56",
"6  c #AB644A",
"7  c #A16851",
"8  c #AD6D51",
"9  c #A86D58",
"0  c #B36A51",
"q  c #B76F53",
"w  c #A1765D",
"e  c #A7755C",
"r  c #AE755B",
"t  c #B4715D",
"y  c #B97658",
"u  c #A87B63",
"i  c #AE7D64",
"p  c #B77764",
"a  c #BD7564",
"s  c #B27861",
"d  c #B47F64",
"f  c #BB7E63",
"g  c #C1785B",
"h  c #C87E61",
"j  c #C07B6B",
"k  c #AC836B",
"l  c #BE8466",
"z  c #B3876E",
"x  c #BA876A",
"c  c #BF8B6C",
"v  c #B78C72",
"b  c #BC8E72",
"n  c #C38264",
"m  c #CC8566",
"M  c #C78568",
"N  c #C4816F",
"B  c #C48A6C",
"V  c #CC8C6D",
"C  c #CC8C6E",
"Z  c #D18969",
"A  c #D48C6E",
"S  c #D88F6F",
"D  c #C88973",
"F  c #CC8A78",
"G  c #D08B78",
"H  c #D38E7E",
"J  c #C39072",
"K  c #C69677",
"L  c #C89172",
"P  c #CC9475",
"I  c #C09379",
"U  c #CA997A",
"Y  c #CF9C7E",
"T  c #D19071",
"R  c #D09072",
"E  c #D29172",
"W  c #D09273",
"Q  c #D39273",
"!  c #D49374",
"~  c #D59475",
"^  c #DA9472",
"/  c #DD9876",
"(  c #D79778",
")  c #D1967C",
"_  c #D89778",
"`  c #D59A7B",
"'  c #D99878",
"]  c #D9997A",
"[  c #DB9A7A",
"{  c #DA9A7B",
"}  c #DC9B7B",
"|  c #DB9C7D",
" . c #DA9D7E",
".. c #DE9D7D",
"X. c #DD9D7E",
"o. c #E09E7D",
"O. c #E29F7D",
"+. c #E2A07F",
"@. c #D89380",
"#. c #D89982",
"$. c #DD9E80",
"%. c #DE9F80",
"&. c #DF9F80",
"*. c #DD9986",
"=. c #D99E87",
"-. c #D4A082",
";. c #DFA081",
":. c #DCA386",
">. c #D8A485",
",. c #D7A88D",
"<. c #DCA88A",
"1. c #DFAB8E",
"2. c #DBAB91",
"3. c #DFAF94",
"4. c #E0A081",
"5. c #E2A181",
"6. c #E3A181",
"7. c #E0A182",
"8. c #E1A283",
"9. c #E3A282",
"0. c #E4A281",
"q. c #E4A382",
"w. c #E4A383",
"e. c #E5A383",
"r. c #E5A483",
"t. c #E6A483",
"y. c #E5A484",
"u. c #E6A584",
"i. c #E6A585",
"p. c #E7A685",
"a. c #E7A686",
"s. c #E8A787",
"d. c #E9A887",
"f. c #E0A58A",
"g. c #E3AC8D",
"h. c #E7AD8F",
"j. c #E8A888",
"k. c #E9A888",
"l. c #E9A989",
"z. c #EAA989",
"x. c #EAAA8A",
"c. c #EBAA8A",
"v. c #EBAC8C",
"b. c #EBAE8F",
"n. c #ECAC8C",
"m. c #ECAD8D",
"M. c #EDAD8D",
"N. c #EDAE8E",
"B. c #ECAE8F",
"V. c #EDAE8F",
"C. c #EEAF8F",
"Z. c #EDAF90",
"A. c #E4B195",
"S. c #E9B193",
"D. c #EDB091",
"F. c #EFB090",
"G. c #EEB091",
"H. c #EDB192",
"J. c #EEB192",
"K. c #EFB192",
"L. c #EFB293",
"P. c #ECB496",
"I. c #E6B599",
"U. c #EAB79A",
"Y. c #EEB899",
"T. c #EEBC9E",
"R. c #F0B293",
"E. c #F0B394",
"W. c #F0B495",
"Q. c #F1B495",
"!. c #F0B496",
"~. c #F1B596",
"^. c #F1B597",
"/. c #F2B596",
"(. c #F2B697",
"). c #F2B698",
"_. c #F2B798",
"`. c #F2B799",
"'. c #F3B799",
"]. c #F2B89A",
"[. c #F3B89A",
"{. c #F3B99B",
"}. c #F4B99B",
"|. c #F4BA9B",
" X c #F4BA9C",
".X c #F4BB9D",
"XX c #F5BB9D",
"oX c #F5BC9E",
"OX c #F5BD9F",
"+X c #F5BE9F",
"@X c #F1BFA1",
"#X c #F5BEA0",
"$X c #F6BEA0",
"%X c #F6BFA1",
"&X c #F6C0A1",
"*X c #F6C0A2",
"=X c #F6C1A3",
"-X c #F6C2A3",
";X c #F7C2A3",
":X c #F6C3A4",
">X c #F7C3A5",
",X c #F2C4A5",
"<X c #F7C4A5",
"1X c #F7C4A6",
"2X c #F7C5A6",
"3X c #F7C6A7",
"4X c #F7C7A8",
"5X c #F0CBAD",
"6X c #F4CDAE",
"7X c #F8C8A9",
"8X c #F8C9AA",
"9X c #F8CAAB",
"0X c #F8CBAC",
"qX c #F8CCAD",
"wX c #F8CDAE",
"eX c #F9CEAF",
"rX c #F3D1B3",
"tX c #F7D1B2",
"yX c #F0D4B6",
"uX c #F6D4B6",
"iX c #FAD3B4",
"pX c #FAD7B8",
"aX c #F1D8B9",
"sX c #F7D8BA",
"dX c #F5DBBB",
"fX c #FADDBE",
"gX c #F6DDC0",
"hX c #F9E1C3",
"jX c #FBE5C7",
/* pixels */
"3.J.t.p.' B k k w k J Y Y -.,.A.2.A.3.A.2.A.3.A.A.A.A.A.U.U.I.I.A.A.3.A.g.A.b.J.h.b.j.b.j.j.l.D.j.x.j.x.i.x.y.8.( } ( [ [ ..[ [ ",
"1.l.C.n.p.W z u u u K U Y >.2.3.3.2.A.A.3.A.A.3.A.A.A.A.U.I.I.3.I.A.I.U.T.].).^.^.!.!.!.'.K.J.D.B.j.l.s.a.a.s.+.} [ [ [ o.} [ ' ",
"J ..O.u.t.[ f k e z I Y -.,.>.A.A.A.A.I.U..XI.I.I.T.I..X@X-X#X-X@X@XY.@X#X*XY.).!.^.B.^.R.E.v.x.B.v.y.a.p.l.0.} [ { ! } } +.} } ",
"b ^ ^ / ..A n d k x ) -.1.I.I.U.@X@X@X@X2X-X#X@X>X#X@X@X2X9X2X#X*X#X{.].#X.X`.Q.`.~.H.B.!.L.s.w.Z.a.y.+.y.k.k.&.X.' ' ' 5.8.' ~ ",
"b S S A A m n l d J -.g.D.[.Y.oX.X;X=X;X*X>X#X=X@X#X].oX.X2X=X=X|.oX|.oX^.].K.Q.G.^.J.R.G.L.l.m.i.k.+.s.0.s.k.e.{ [ ] &.&.8...~ ",
"b ^ A A Z m M c L U %.f.h.b.K.{.#X&X&X;X>X*X=X*X#X].^.].oX*X*X[.[.!.!.!.).L.D.K.^.'.[.'.^.G.L.s.k.y.e.s.v.j.s.0.6. .;.%.8.;.} ~ ",
"I / A A Z m M J z z d z z b b :.!.oXXX#X;X>X XoX#X|.D.L.oX2X]..XL.L.x.K.{.oX/.[..X%X{.'.^.J.x.s.k.j.p.i.c.k.;.+.&.7.| ;.8.7.' } ",
"I / A Z A M 8 < : = & $ $ $ % > d Y g.S.{.'.[.oXXXL.b.C.{.*X[.L.C.j.j.x. X#X#XOX;X#X#XL.~.j.;.] ! ! C E W D M D Q ! ( $.8.&.| [ ",
"J / A A A g 1 1 9 i e < & # O $ + < e B ` x.K.'.L.B.a.D.K.XXL.B.w.w.f.x.K.=X=X;XXXoXj.<.) l 9 < : : : 3 7 7 9 f f f n C E 4.} [ ",
"J / A A [ A R -.f.g.g.1.-.z 7 < : : , 8 n E 8.b.K.C.w.x.K.L.b.a.5.&.w.8.K.[.'.S.:.c 9 < = # X . . . X o & & : < 3 3 7 7 r l T Z ",
"L } A / 0.5.| :.g.n.j.!.S.S.:.( C f 8 y f M C w.x.C.8.s.b.C.8.;.} [ ! } a.K.f.! y < $ o X X . . . X X + = = & : : < - ; < 7 3 r ",
"U ..S ^ s.o.$.4.4.} } ` f.f.%. .( C M f n D C [ v.x.y.a.b.k.j.8.R m R V ( [ C r < + o o o X o $ : 7 d B c s 7 7 7 3 : ; , , , , ",
"L 7./ | k.w.../ C y C f.!.^.S.L.i.! f y p C ( } 8.x.i.l.j.v.j.y.n f n M n n t 3 = + $ + @ ; 9 l B $.f.j.8.| E T B n p 9 , 3 < < ",
"J -. .( x.b.&.E 8 M Y.T.XX^.S.x.8. .T t 6 y R ( 0.x.y.i.s.k.y.&.M y f y f y 6 ; - : - ; 3 r l C ( ! ( ( ` ` ` ~ ] ( Q B f y 7 < ",
"K -.Y ) 8.G.} l t f.A.1.-.J e w w e 9 0 6 0 y V ..x.a.i.s.x.&.$.E B t y 8 8 , ; - ; - ; ; 9 f M M n t y t 8 6 8 l P C C D n 8 9 ",
"Y -.-.] %.l.8.f l -.k > # . . .     X $ ; 1 8 n ^ 0.D.G.B.B.k.$.( D f r 8 , - - - + o = r D ! ! | E D n l y 9 - = , y D V n f y ",
"Y >.-.8.| ;.8.V l > .     . O .       . o + - y V O.L.*XY.~.L.x.( M 8 6 1 < = = o X + 9 < & % # O # & < < 7 3 3 : $ = l C T V n ",
"-.-.>.f.;.C M 8 = o . o $ & & O . . . O & o + = D ..'.7X9X*X#X!.0.n , , 3 ; @ + X o = + o   .               . . . X X : D P D l ",
",.,.-.>.=.D y 3 9 C f l J J d i e w 3 s 9 3 ; 1 ( L.{.tXsXeX#X!...y , , , - = = o + = < 7 > O . . . . O . . . . . . . o , 6 1 q ",
">.-.Y -.g.b.C.a.{ [ 8.8.b.j.8.$.| P M M A W [ ..C.}.*XsXfXtX*Xb.E 8 , 1 6 6 n C T T ( ( %.:.) d e 7 r i r 7 3 < : = = , 6 1 f ( ",
">.>.-.-.Y g.B.b.n.o...p.&.[ A V V A Z A A A h R Q.#X7XpXtXeX#Xb.V 0 1 0 M C T 0...[ ( [ &.8.8.[ V R A A m n n M M m n t , y V C ",
"<.>.>.>.:.k.F.^.(./.k.' A Z Z R A Z m g 0 6 D S.#X8XeXtXtX>X[.y.m y q g V ..6.a.n.p.' V h M m V h g q q g m A A M q ; - q ( 4...",
"2.g.>.:.y.n.n.(.*X>X[.C...m 0 q 0 8 , 1 n h.#X7X2XtX0XeX0X*Xi.( m M m Z A ..0.j.B.K.n.j.Q y , , , 1 , 1 , , - - - ; 0 S } [ T { ",
"g.g.>.:.f.n.E.'.;X2X;X>XoX.Xn.8.&.| ;.L.>X4X3X2XeXtX0X8X9X'.O.V V A ^ / a.a.k.l.x.K.L.L.(.'.D.&.( M y t t y l C | y.s.a.k.} E C ",
"<.<.>.:.:./.Q.OX#X7X0X0X*X;X*X$XXX#X1X9X2X0X8X0X9XiX0XeX*XL...Z M m S O.9.x.c.n.s.b.E.(.Y.|.XXoX{.XXoX.X^.[.!.(.L.C.l.n.p.e...T ",
"g.f.f.<.j.Q.[.$X4XqXeXeXqX7X#XXX;X2X8X8X7X2XqX0XeXuX0X#XoXn...A Z Z m m A A ^ ' e.n.Q.). X}.{.OX*X$X2X#X*X$XXXF.N.c.s.u.x.y.0.} ",
"v.h.:.g.b.'.|.>X3XtXtXtXtX0X[.oX3XeX9X3X8XeX0XiXiXfX7X#X/.K.0...^ m y y g q 8 6 y S p.`.oX.X].%X2X2X#X;X7X>X[./.K.l.&.s.k.c.0.o.",
"v.h.f.f.G..XoX#XqXiXuXtXsX9X2X1X9XeX9X2X9X7XeXtXfXhX0X.X~.G.C.n.p.^ g y Z S h 0 , , f .. X'.[.=X7X2X2X>X7X>XoX/.R.D.i.y.l.k.0.O.",
"y.f.7.a.j.oXXX=X4XeXuXsXiXeX4XeX7XeX0X8X#X*X7XiXsXfX9XXXR.^.R./.k.' h M ^ y.0.^ 0 - - 8 C w.L.*X1X2X;X<XXXoX|.Q.G.C.n.x.e.s.0.q.",
"y.9.7.;.j.'.XX#X3X2X0X9X9X8X7X>X>X[.B.0.x.{.7XtXfXsX9X#X{.'.oXD.S M M A e.k...S g , ; ; 1 f  .C.[.[.#XXX[./.!.F.N.x.j.d.d.i.p.6.",
"i.i.X.y.a.K.K.OX<X4XXX$XXXoXn.x.5.^ q g a.*X>XsXfXfX9X;X*X>XC.! y 8 0 n M h 0 6 1 8 0 q 0 6 q ( j.K.b./.L.Q.j.v.n.F.i.k.d.k.&.6.",
"i.8.$.| 8.C.C.[.[.[.^.G.B.e.A h 0 , 1  .>X>XeXfXhXhXfXeX9X{.! 8 , - @ @ @ @ = - , 0 y q g y 0 q T [ 8.k.V.M.a.y.j.x.z.s.a.w.&.+.",
"$.;. .;.0.x.b././.Q.x.e.[ A y , - 1 %.1X7XtXfXjXjXjXfXiX.X} 8 ; o o + @ + @ = ; - , , 6 0 g g q 0 f R ..0.s.&.0...4.8.8.;.8.$.;.",
"+. .;.$.8.a.F.b.F.x.} A h 0 ; = 6 f..XqXsXpXfXfXfXtX>X#Xi.y ; @ $ + + + o + @ @ = - - - 1 6 6 6 1 1 8 M [ ' ' ' ' ( &.} X.{ ` ) ",
"4.8.` | p.v.e.k.k.e.m g 8 , @ 6 $..X,XtXsXsXtXeX2XT.f.~ f , @ + + o o o + + + = = = + + - ; ; ; - - = 3 B ( R W ! ! C ! ( ] P P ",
" .` ] ] 7.0.5.+.+.A n 6 , - , D h.,X>X2X2X#X].].].n.M 6 , - = @ = = + + + = = = ; - + + = - - = = @ @ + ; l &.| [ E A R ' ~ T c ",
") ` ~ ` ] | } &.[ A g 6 - ; y } x.!.:.)  .i.w.i.i.i.E 8 , 8 f f 3 , ; - = - - ; , < = : = - - - = + + + $ - t [ ( ! ! Q E ~ ! C ",
"~ W ~ Q [ } [ ' [ M 0 , ; 1 R Q w.D t 8 D ! C n f t , @ - t W C f 6 1 ; ; - - ; ; ; ; ; - ; ; ; < : : + + + = 8 T E T ! ' } | C ",
"R W D P ( [ ! _ ^ l 6 , , t B D P p 7 8 f n y 8 6 1 @ ; n { ! ( A M 0 1 , , ; , 6 7 , , 1 , , , 1 1 < = + + + = 8 R C ~ { :.` P ",
"B c B B ( ' } ! ! y 8 , , t M c B r 6 8 f f n t 8 6 7 C (./.k.O.[ V n q 0 6 6 q M n g y y 1 6 0 6 3 1 < : + + = ; f ! { f.:.:.U ",
"d x l B W [ 4.4.! y 8 8 , y C B f r 8 y f m M n f M C ..e.v.k.p.} A m m g g n m M m h M 0 0 0 0 1 3 , 1 : = = - - 7 Q ;.:.f.f.Y ",
"d x c c W $.p.8.&.n 8 f 8 p P y 9 9 9 8 r y n Z ~ ( ~ ~ [ [ ' ^ A m h g n y y q y q 0 1 , , ; - = = = = = = - < 7 1 T ;.8.f.8.U ",
"f x x c P a.8.b.x.Q 8 n B l P r ; ; = @ = , 6 g n n g M M V g q 6 1 ; ; - - - ; - - + + @ @ + o + o o + = 3 t l f 8 R ;.&.:.) U ",
"d l x x P 8.h.b.K.w.l y W B D p 9 1 - - 1 6 8 6 0 6 0 0 q 8 6 6 8 8 8 8 q t t 6 6 1 , , 1 , , 1 1 1 , ; 8 R ( } C y Q } 5.| P J ",
"d c c J J :.b.L.S.L.) y n ` V D l B n M m m m m m G N D F H H ( G H F F D C N M a j n a g g a a q q y n ^ a.5.y.D M } ;.` ( J L ",
"x J U J J  .D.b.L.^.h.B f  .| ( ~ ! T C h m ' ' ..*.#.@.*.$.&.w. .H G N N j t j j a y a y q q 8 q y m ..b.j...( n ! 0.;.( c c B ",
"P Y Y -.U Y :.!.Y.{.b.:.d C [ ( ! ( A ^ A m V ! B M F F V M l M G f 9 9 7 7 < 9 8 r 7 t a y 6 0 q m ..K.L.i.( V l $.| ` D l f B ",
"U Y Y ` -.U ` h.L.Q.K.n.P l {  .' ! ! A A h t 8 9 7 9 9 r 9 9 9 e 9 3 3 < < < 3 7 7 7 7 t y 8 y h [ K.D.x.4.} n M &.( C f f l n ",
"K -.>.>.>.-.-.f.n.H.D.K.$.f C a.&...E S V f y t 8 7 8 r t s s r e 9 3 3 > < > 3 < 7 7 8 9 t p n ! a.C.g.8.f.! y M ~ C n d l B C ",
"U >.>.-.>.-.-.-.;.%.f.h.k.n f y.y...} S A n f t r 8 p f n n f f r r 3 < 3 < < 3 7 9 r r y p V ( b.b.D.f.j.8.M n ( ! n s d f L ) ",
"-.<.-.>.>.>.U P l b ` :.8.! f [ j.k.S ' A n y f f M M C C R M n f r 9 9 7 7 7 r f M n D M D Q x.J.B.j.g.D.( f ~ ~ C r s f J L P ",
"-.<.>.>.<.-.L r 3 5 J -. .| ( [ i.a.} ' A h l M E i.w.8.e...[ C D f d r f n D C ( &. .[ | { 8.P.P.b.g.h.f.D n R ! l r d D U P B ",
"U <.>.<.>.-.d 7 > > w J ` j.x.v.p.x.&...A m m ..i.C.b.n.s.k.;.a.;.;.-.:.:.g.j.h.h.j.i.;.` w.x.J.l.b.l.h.U V R T n x f B P ) P ) ",
"L >.<.>.>.U u > * * < 5 B A.^.{.x.8.k.e.} ( 5.l.~.R.B.j.y.a.k.j.j.g.g.1.g.g.D.h.h.8.%.` 8.a.j.l.g.g.h.:.! R E B l B J J P P ) ) ",
"b -.Y -.Y J w > * * * * d S.T.-X!.s.x.x.e.p.8.!.(.!.D.D.D.G.s.B.S.!.h.@XY.P.A.S.8.;.[ y.k.h.8.8.h.P.h.%.~ ~ c d d K c l L Y  .:.",
"z U Y Y Y x 4 & * * & * w <.@X;X*Xj.c.x.i.j.b.!.oX.X{.Y.{.L.!.!.]..X@X-X2XY.<.g.f.$.X.&.a.w.8.g.b.h.:.%.( B e 7 r B L c C ) :.g.",
"w J U Y K x * % & & & 2 w -.;X0X].D.6.x.k.j.b.{.{.#X@X$X.X*X@X2X@X@X@X@XS.:.8.h.:.} ` $.%.y.a.b.h.h.:.:.c c e e 9 f B L B Y :.:.",
"w z K Y b u & % % & * * 5 P 9X0X@Xx.6.r.i.n.J.W.W.[..X{.oX{.*X@XP.S.D.h.h.g.i.8.] ~ ( | %.g.F.L.!.g.-.J c z i e 7 7 s B P Y c i ",
"5 w b b x w % # # & % * 4 J 3XeX#XL.| e.L.XXE._.!.'.L.F.L.G.j.h.x.h.f.j.j.a. .X.] | ] 7.g.R.H.[.W.>.J e b J i u > : 3 r i 7 3 4 ",
"% & 4 4 k 4 & O # # % : 3 P 9XeX.Xf.y.].4X2X*X}.{._.L.b.Q.v.j.8.w.&...' [ ..] (  .9.8.( B.!.].].b.U l 5 w w 4 5 * $ & > > < < 4 ",
"O O # * 4 4 * O # # % : < ` 4XiX1.I.@X9X3XwX8X9XoX*X.X#X(.~.K.L.x.a.[ ~ R ~ ` } +.a.8.8.L. X#X.X-.c k i 2 > * 4 & # : 3 3 9 3 i ",
"O O O % * 2 * O O O % : s D.8XpXsXfXiXiXiXsXhXgXpXwXtXeXeX2X+X.X}.{.y.W W ~ ' { 8.i.K.!.oX+XY.-.J d w w 2 > & & # O > 7 r d f x ",
". . . # % * & # . O $ < $.#X8XsXgXhXdXsXsXgXdXhXhXhXuXsXdXpX2X2X3X0X@XA.-.P D ;.b.^.P.@X2XT.Y J c w * * & & O O O # & < 9 r r d ",
". . . O # & % # . X # d g.:XeXrXdXdXdXrXyXyXyXyXaXaXyXyXyXyX5X5X6X5X5X5X5X3.Y <.I.U.T.T.,X3.b v x w * & & # O O # # % * 5 5 w u "
};
