/* XPM */
static char *out[] = {
/* columns rows colors chars-per-pixel */
"64 64 218 2 ",
"   c #2B1608",
".  c #4A2415",
"X  c #5C2C1A",
"o  c #68321E",
"O  c #583F2A",
"+  c #763A24",
"@  c #7E3D26",
"#  c #63432F",
"$  c #6E402D",
"%  c #6A4D37",
"&  c #77523D",
"*  c #7F5D46",
"=  c #814A35",
"-  c #8E4B34",
";  c #96523A",
":  c #865540",
">  c #8C5D46",
",  c #9D5943",
"<  c #955F49",
"1  c #A45E45",
"2  c #89664F",
"3  c #9B644E",
"4  c #916A53",
"5  c #9A6F56",
"6  c #AB644A",
"7  c #A16851",
"8  c #AD6D51",
"9  c #A86D58",
"0  c #B36A51",
"q  c #B76F53",
"w  c #A1765D",
"e  c #A7755C",
"r  c #AE755B",
"t  c #B4715D",
"y  c #B97658",
"u  c #A87B63",
"i  c #AE7D64",
"p  c #B77764",
"a  c #BD7564",
"s  c #B27861",
"d  c #B47F64",
"f  c #BB7E63",
"g  c #C1785B",
"h  c #C87E61",
"j  c #C07B6B",
"k  c #AC836B",
"l  c #BE8466",
"z  c #B3876E",
"x  c #BA876A",
"c  c #BF8B6C",
"v  c #B78C72",
"b  c #BC8E72",
"n  c #C38264",
"m  c #CC8566",
"M  c #C78568",
"N  c #C4816F",
"B  c #C48A6C",
"V  c #CC8C6D",
"C  c #CC8C6E",
"Z  c #D18969",
"A  c #D48C6E",
"S  c #D88F6F",
"D  c #C88973",
"F  c #CC8A78",
"G  c #D38E7E",
"H  c #C39072",
"J  c #C69677",
"K  c #C89172",
"L  c #CC9475",
"P  c #C09379",
"I  c #CA997A",
"U  c #CF9C7E",
"Y  c #D19071",
"T  c #D09072",
"R  c #D29172",
"E  c #D09273",
"W  c #D39273",
"Q  c #D49374",
"!  c #D59475",
"~  c #DA9472",
"^  c #DD9876",
"/  c #D79778",
"(  c #D1967C",
")  c #D89778",
"_  c #D59A7B",
"`  c #D9997A",
"'  c #DA9A7B",
"]  c #DC9B7B",
"[  c #DB9C7D",
"{  c #DA9D7E",
"}  c #DE9D7D",
"|  c #DC9D7E",
" . c #DD9D7E",
".. c #E09E7D",
"X. c #E29F7D",
"o. c #E2A07F",
"O. c #D89380",
"+. c #DD9E80",
"@. c #DE9F80",
"#. c #DF9F80",
"$. c #D4A082",
"%. c #DFA081",
"&. c #DCA386",
"*. c #D8A485",
"=. c #DCA88A",
"-. c #DFAB8E",
";. c #DBAB91",
":. c #DFAF94",
">. c #E0A081",
",. c #E2A181",
"<. c #E3A181",
"1. c #E0A182",
"2. c #E1A283",
"3. c #E5A382",
"4. c #E4A383",
"5. c #E5A383",
"6. c #E6A483",
"7. c #E5A484",
"8. c #E6A584",
"9. c #E6A585",
"0. c #E7A685",
"q. c #E7A686",
"w. c #E8A787",
"e. c #E9A887",
"r. c #E0A58A",
"t. c #E3AC8D",
"y. c #E7AD8F",
"u. c #E8A888",
"i. c #E9A888",
"p. c #E9A989",
"a. c #EAAA8A",
"s. c #EBAB8B",
"d. c #EBAC8C",
"f. c #EBAE8F",
"g. c #ECAC8C",
"h. c #ECAD8D",
"j. c #EDAD8D",
"k. c #EDAE8E",
"l. c #ECAE8F",
"z. c #EDAE8F",
"x. c #EEAF8F",
"c. c #EEAF90",
"v. c #E4B195",
"b. c #E9B193",
"n. c #EDB091",
"m. c #EEB090",
"M. c #EFB090",
"N. c #EEB091",
"B. c #EDB192",
"V. c #EEB192",
"C. c #EFB192",
"Z. c #EFB293",
"A. c #ECB496",
"S. c #E6B599",
"D. c #EAB79A",
"F. c #EEB899",
"G. c #EEBC9E",
"H. c #F0B293",
"J. c #F0B394",
"K. c #F0B495",
"L. c #F1B495",
"P. c #F0B496",
"I. c #F1B596",
"U. c #F1B597",
"Y. c #F2B697",
"T. c #F2B698",
"R. c #F2B799",
"E. c #F3B799",
"W. c #F3B899",
"Q. c #F2B89A",
"!. c #F3B89A",
"~. c #F3B99A",
"^. c #F4B99B",
"/. c #F4BA9B",
"(. c #F4BA9C",
"). c #F4BB9D",
"_. c #F5BB9D",
"`. c #F5BC9D",
"'. c #F5BC9E",
"]. c #F5BD9F",
"[. c #F1BFA1",
"{. c #F5BEA0",
"}. c #F6BEA0",
"|. c #F6BFA0",
" X c #F6BFA1",
".X c #F6C0A2",
"XX c #F6C1A2",
"oX c #F6C1A3",
"OX c #F6C2A3",
"+X c #F7C2A3",
"@X c #F6C3A4",
"#X c #F7C3A5",
"$X c #F2C4A5",
"%X c #F7C4A5",
"&X c #F7C4A6",
"*X c #F7C5A6",
"=X c #F7C6A7",
"-X c #F0CBAD",
";X c #F4CDAE",
":X c #F8C8A9",
">X c #F8C9AA",
",X c #F8CAAB",
"<X c #F8CBAC",
"1X c #F8CCAD",
"2X c #F8CDAE",
"3X c #F9CEAF",
"4X c #F3D1B3",
"5X c #F7D1B2",
"6X c #F0D4B6",
"7X c #F6D4B6",
"8X c #FAD3B4",
"9X c #FAD7B8",
"0X c #F1D8B9",
"qX c #F7D8BA",
"wX c #F5DBBB",
"eX c #FADDBE",
"rX c #F6DDC0",
"tX c #F9E1C3",
/* pixels */
":.V.8.i.! B k k w z J U $.;.;.:.=.:.;.S.:.S.;.S.;.:.:.S.:.D.:.S.v.:.;.:.t.:.t.y.r.t.=.&.7.9.7.9.2.r.1.&.r.1.' [ / / / [ ) ) E R ",
"-.a.j.g.0.T d k u k I U $.;.:.:.;.;.:.:.:.v.:.:.:.:.:.v.v.v.S.:.:.:.:.;.v.v.:.t.t.r.r.&.t.r.r.2.&.2.2.2.7.2.>.} ] ' ] ]  .] ) R ",
"P X.} 6.3.Q u i e x P U *.;.=.;.;.;.;.:.:.S.:.:.:.:.:.S.S.D.:.S.v.:.=.;.:.:.=.t.r.t.{ &.=.t.&.y.q.s.2.q.w.p.>..... .Q } ..] T A ",
"b ^ ~ ^ ^ M i u u z I U *.=.;.;.:.:.;.;.v.v.:.:.v.:.;.v.D.S.:.:.v.:.;.;.v.:.:.&.t.y.9.t.C.y.k.f.f.f.p.9.a.i.9...o.] ) ` ../ R A ",
"x } ^ ..~ D d u e x J U U ;.;.-.;.:.:.:.:.v.:.:.:.:.:.v.v.S.:.S.v.S.:.:.v.S.b.Z.b.I.C.Z.k.f.M.f.w.i.q.w.2.2.>.7.| ' )  .` / T A ",
"H ] ^ ^ ~ Z l i u c J U $.*.;.;.:.:.:.:.S.:.S.:.:.:.S.:.S.S.D.D.D.D.D.Q.Q.U.Q.R.~.C.C.c.k.c.p.8.2.q.6.5.@. .%.7. .` [ [ | ! Z Z ",
"z #.S ~ ^ A M l x L _ { *.:.;.:.S.D.S.D.D.OXD.[.D.[.D.).).+X[..X.XOXR.Q.!.(.f.C.J.Z.s.c.Z.H.2.2.q.q. .o.#.0.<.,. .%.` +.] [ V m ",
"H o.~ ~ ] A A D C ( { 9.J.b.b.Z.).^.).}.&XOX.X.XOX{.Q.~.).'.W.[.OX).I.P.Q.I.Z.a.V.n.N.f.J.k.s.i.a.6.@...5.i.7.,.2.+.+.[ >.] Z M ",
"x <.~ } ] ] ! ! E ( 2.f.k.C.c.W.T.W.[..X{..X X.X(.{.^.R.I.T.}.}.^.J.c.C.c.I.C.J.s.c.Y.(.L.Z.f.f.q.2.>.1.>.i.2.2.[ [ / %.[  .T n ",
"x  .^ ^ ^ ^ +._ ( E Q L K B K L +.f.T.)..X.X.X!.).^.R.f.C.C.).!.!.C.y.i.f.C.T.R.^.^.^.!.}.C.Z.y.&.) ! ! ` Q R V T R ! [ } ` A g ",
"c 2.~ ] } ) D x 9 7 > = & = % % * e K &.b.Q.Z./././.c.a.d.f.J.Q.Q.f.2.7.9.N.J.'.{.}.T.^.R.C.*.( B r 7 7 9 e 7 r f n f V Q ) V n ",
"K 2.^ ] A m t 7 < 7 7 5 > $ O X # $ = 7 l E %.f.T.J.m.0.p.s.Z.L.C.7.@.#.2.s.J.Q.).R.y.r.U c r > + $ X X $ + = : 3 7 9 7 r l M l ",
"B r.s.3.) T M D ( =.;.b.;.J u 3 > : > , 1 y V [ 7.c.k.a.4.s.f.x.e.%.[ } } w.k.C.s.%.c 9 = + X X . . . . X $ $ + = : : : < , 9 t ",
"H *.c.` 6.3.2.9.u.a.b.b.J.y.;.+.( B l s y f n T  .a.j.p.p.q.w.7.w.` ' ! )  .2.2.! s , + $ o X X X X o : 3 7 3 > > > > : : > > ; ",
"P *.y. .a.i.2.7.w.w.%.%.7.2._ { ! E C M M V n T ' i.6.w.i.p.,.i.p.! n m V T M M y 1 @ + o # $ + ; 7 s L { ( B x x d 9 7 < 7 > > ",
"U *.q.%.c.w.#.3.8.A n C 7.y.b.y.t.%.T f y y B ) %.i.i.q.p.i.8.0.i.T y y l n l y 1 - = = @ - < 1 y D E _ %.{ E E / E B l f r > : ",
"U *. .%.j.j.<.2.V y E Q.[.G.T.J.9.%.` T y 8 y T ) <.q.a.2.w.8.q.,.T t y y y t 8 , - - - - ; 1 t f M n M n B l M B E T E V l 9 , ",
"$.t.2.) k.k.2.Q 8 B S.b.t.( x e 9 3 7 9 8 0 0 g V ) 0.k.k.w.q.8.%.T n y y y 1 , ; - = : = = ; 6 y f f y y 8 6 , ; 1 t f f f f t ",
"$.t.} T  .a.#.V y E U x > # . .       X + , 1 t n Q  .c.Z.C.7.f.2.Q l f t 8 , ; - = $ X + > s E _ _ D C L l t 7 : o + 8 M D n n ",
"$.%.! M ! <.` V M f : . . . . O .       . o + ; g A ] N.}.T.N.N.y.` l 0 6 1 , = @ + X X > < & = $ # O $ * > > = * + o = B Q C f ",
"2.C.s.^ T n 8 0 1 - + X $ & & % . . . . # & o + ; ^ ..T.#X:X).W.C.7.n 6 , , - = + X . + o $   O                   . . X 3 n y l ",
"t.t.k.<.] A m 8 1 t / _ ` E K d 3 > > 3 9 7 < , 8 <.a.).8X5X,X}.T.%.y , 1 , = - = + o + > > * # . . . O # . . O # X . X : 8 y R ",
"r.@.<.<.i.I.a.j.3.} / i.p.p.%.2.%.[ Y Y A Y V ) 0.J.J.#X8XqX2X.XJ.[ 8 , 1 6 ; 0 M V V ) / [ ( ( l 9 7 r s 9 , 3 , , ; 9 t 6 8 y ",
"9.[ ~ ^ j.T.L.Z.L.a.] ]  .! Z Z Z A Z Z A Z m M ) L.(.=X9XqX2X.XJ.! 0 1 8 g m M ) [ ^ Q ^ ..} } ] T m m m f y f m Y m n 1 8 ! T ",
" .~ A A s./.E.}.T.W.s.^ M m m m Z Z M n y q q T Z..X%X<X5X8X3X}.t.T q 0 q h ! 3.} q.0. .V m M Z M n y q q n m Z h g 1 = ; T  .#.",
"t...] #.T.E.(.(.{. X.XJ.7.Z y q 6 6 1 1 6 n y.%X:XOX:X2X5X2X=XI.%.V g h A Z ^ <.i.q.s.N.f.) y 1 1 1 1 1 1 , ; - = = , y [ ! V ) ",
"f.h.} 6.c./.I.'.{.:X X#X}.T.a.} Q C C %.I.1X%X<X,X1X,X2X8X8X).f.! m h A ] ..] q.p.q.6.c.L.(.J.N.2.! n l f y y n V ] <.i.i.<.V T ",
"y.q.6.0.J.Y.!.}.:X,X,X,X=X}. X^.).(.{.&X:X,X&X:X<X2X2X5X8X,X/.7.Q m m A } 6.0.6.w.a.w.k.I.!.R.^.'.}.!.R.).T.J.Z.J.k.p.q.w.5.) V ",
"%.q.w.i.J.!.).OX#X1X5X8X<X.XT.).I.!.#X,X,X=XOX5X2X8X8X9X,X=XJ.7.A Z m Z Z A A ~ ] 3.a.N.N.(.(.).^.OX.X.X'.).I.T.c.k.6.0.o.<.<.^ ",
"%.1.C.s.T.R.}.OX:X5X8X8X2X#X/.I.^..X:X1X,X.X:X5X8X8XqX9X:X).J.q...~ Z h y y y 6 6 q A q.I.T.^.)..XOX#XOX.X}.).J.N.s.7.5.5.,.<.o.",
"7.6.i.a.I.'.Y..X=X5X8X9X5X=XQ.).&X:X:X:X:X=XOX2X5XrXrXqX#X}.j.k.k.s.~ M y g M h 0 1 ; y ..L.L.'.}.:X{..X XOXR.T.N.L.<.0.6.w.o.#.",
"9.>.i.<.J.Q.Y.`.:X,X,X5X8X2X:X=X:X:X&X.X#X}.}.:X5XqXrX5X=X/.N.N.R.k.#.m g m ] ] ~ g - - 8 V %.k.)..X'.!.}.^.J.Z.Z.z.p.8.w.8.#.} ",
"@.%.i.q.7.W.Y.}.^.{.:X:X:X,X+X#X).R.Z.7. .j.}.:X5XqXqX5X#X}./.}.Q.i.Q m g ~ 3.<.~ n , ; ; 1 y ) 0.c.C.T.m.J.N.m.0.i.6.w.<.6.<.4.",
"%.} w.3.w.k.I.W.^.^.).!.'._.E.a.7.^ h y m J.=X:X9XqXqX2X,X#X}. XC.V g q g Z Z h y 8 1 1 8 1 6 t R ..a.j.k.s.g.8.6.3.0.5.q.,.<. .",
"2.>.' e.i.C.c.!.E.(.N.L.C.s.^ A g 6 ; f J.,X=X2XqXrXqXrX9X2X[.Z.R t ; ; - - = - - , 1 q y g 0 6 q V A #.w.i...<.>.<. .2.2.2.! / ",
"[ ` ..q.s.p.q.c.L.Z.g.6.>.A g 1 ; ; f Z.,X2X2X5XrXtXtXtXrX2XT.R 8 - o o + + + + ; ; ; 1 8 q q 0 y 6 y M ) ^ ! ! ` [ ` )  ./ Q E ",
"_ / %.6.#.5.<.s.i.s...Q m g 1 - ; D b.=X:X8X5X9X9XrX5X5X=X}.` 0 - + + + + + o + @ = - - - , 6 6 , , ; 8 n Q T R V T E R ! E V D ",
"/ W ! } o.} ] <.3.>.T n q , - ; f f..X:X5X8X5X1X,X:X.XT.y. .y , = + + + + o + @ = = = @ + = - - - = = = , f R Q Q T T V T C C l ",
"T L Q ) ` ] ~ ^ ] ) n q 1 - - t Q N.[.=X:X:XQ.Q.Q.).y. .f 6 ; - @ @ + + + + + = - ; @ + + = @ = - = + $ + > r ! [ ' V T C Y M B ",
"D M R ! ` / ^ ^ ^ Z y 1 , ; 1 n [ N.f.{ { 2.%.%.7.q.6.! y , ; 1 0 1 - - - - = - ; < : = : = : : ; = $ + $ $ = 9 T R V V E E D f ",
"f l B ' ] ] ^ ^ A m q 1 ; , y M T 2.B y t B Q R l l y 7 - @ 1 l B y 1 , - ; - - - - - : = ; ; ; ; > : = + + + = 7 M B T T ( L c ",
"l l B ` ,.<. .A m n t 1 , 1 l l B l 8 8 8 y l f 0 1 , = @ , f T R M y 7 1 , ; ; ; , , ; , 1 , 1 1 3 3 > = + + @ = 8 M R { { ( B ",
"x c l +.q.s...R g n y 6 1 8 f n l d 7 7 8 y t f y 6 6 1 0 %.0.q.[ Q n y 8 1 1 1 0 y 0 q q 0 1 6 6 1 , < : + o + = , l ) %.&.E B ",
"d c c _ f.f.a.] n y M t 8 y B f s p 7 8 r f f M n y f n ) %.7.3.5.^ m M g g g g g n M h n 0 1 6 6 1 < , ; = @ + < ; n )  .+.( B ",
"d c c U r.B.f.a.B y V V t f D y , , , , , 7 8 g n A Z A Y Q Q ^ ) A Z g q q 0 0 8 0 0 8 ; , - - @ + + + o @ : 7 9 , n [ _ _ K K ",
"x c L K &.J.I.f.[ f n Q V y B f 9 ; = @ @ @ , 6 y g g g n n n g g q 8 1 , - - - ; ; - @ + + + + + o + + = 1 d B C 8 T [ / L B c ",
"L U L J $.B.N.P.f.L t C ! T M M n y 9 9 8 q 0 q y y q 0 q q 8 6 8 8 1 8 0 9 1 1 1 1 ; ; ; ; ; 1 1 1 ; 1 0 T / [ T l T ) ` K x c ",
"I U U ( $.t.Z.Z.T.+.d l +.) A ` / R V V M n Z A / ) F F F F F F G F F F F N N j f p a p a a y q q 0 q g ] 7.^ ) M B ` ! L c f c ",
"L *.*.*.$.&.f.T.n.V.L r D #.) R m T V / A M n ! Q Q G O.G O.O.O.O.O.F N n f 9 t g g 0 y y a q 0 6 t M  .a.0.] A g Q { ( x c x B ",
"I *.*.*.$.U 9.y.q.7.%.d f #.@.! T Q Q ! ~ m f y f f l L L B l l l x d 9 7 7 3 7 9 9 7 t t 8 0 8 t n  .t.k.2. .n f ! R l l f c K ",
"$.=.U *.*.U ( +.( { _ x 1 T ..6.] #.Q ~ A m f y 8 r 8 r f f r s r r 7 3 3 7 > < 3 7 7 9 9 t 8 t n ! ,.7.2.,.T y M ! l d s x B K ",
"$.*.*.*.=.$.J x e U L B 9 f [ 6.w...] / A n y y t t y f M l f s r 9 7 7 7 3 < > 3 7 9 7 r s p l ` 2.7.9.y.+.n g R C r r p K B B ",
"I *.&.*.*.U d 5 > e x U l f T a.w.e.#...m f y y f B V T V C l l r 9 7 7 < < 3 3 7 i r s y n M %.y.y.t.y.7.R n V V l p p c J L ( ",
"J *.=.*.*.H u > * > 4 u K C [ i.6.p.6.3.T n n n Q 7.y.7.2...! E l d r 9 9 7 r r x B C B B K / y.y.y.t.q.) n M V M d f c L L U ( ",
"b $.$.$.U b e > & 2 > 2 x =.y.f.6.a.,.#.) T m Q i.T.y.7.%.7.[ 2.2.$.J K J ( ( _ _ { ( / ! { %.t.t.b.r._ V V M B l l c c K U _ { ",
"z I U U U x 4 & & * & * 9 *.T.G.f.,.8.<.] ) [ i.Z.L.n.7.9.7.r.7.t.-.-.;.:.:.;.=.{ ( K ( +.%.@.&.t.y.r.( R C c r r B L c B ( { r.",
"w H I $.I z * % & & & < 5 ( D.*XA.2.#.i.) %.7.Z.Y.!.n.L.b.N.y.b.t.S.D.OXG.;.=.t.$.! L / _ +.2.r.&.t.&._ L B d 9 9 x K C B U $.&.",
"w x J U H e * # % % * > 5 c OX*X).q.7.i.7.1.7.N.(.(.`.). X[.[.).[.F.D.[.b.%.y.4.{ / E E { +.%.t.y.=.{ U K c u e 7 9 f c I U z i ",
"5 5 v b z w % # % & % * 4 c [.,XoXZ.} } 9.m.k.J.P.).J.T.Z.Q.A.D.A.b.y.k.f.a.+..._ ! T / +.t.q.J.I.y.U c x c i e < > 7 r d 5 4 4 ",
"% & 2 4 k 5 & O # # % : 3 D #X<XOX9.{ u.|..X).~.W.~.V.l.V.y.u.4.9.7.1.>.>.1.| ` [ ' [ ' 7.f.Z.K.~.*.I e e i w 7 > $ = > > > > > ",
"O O # * 4 4 : O O # % : < E *X3Xv.=.[.=X&X<X:X:X{.XX).'.J.Y.s.c.7.>.) Q T Q / @.%.7.9.%.y.I.T.[.=.K x x > 4 > 4 & O * 3 3 9 3 d ",
"O O O % * 2 * O O O % = r V.,X8X5XqX7X2X3XqXeXwX5X;X8X:X3X}.}.].).U.+.W E E / ' %.9.f.T.).).D.$.L d e e 4 > & & # # : 7 r d f x ",
". . . # % * & # . O $ < +.{.>XqXrXtXwXqXqXrXwXtXtXtX7XqXwX9X*X*X=X<X[.v.$.L D [ f.U.A.{.*X[.U H c w * * & & O O O # & < 9 r r s ",
". . . O # & % # . X # d t.@X4X4XqXwXwX4X6X6X6X6X0X0X6X6X6X6X-X-X;X-X-X-X-X:.U =.S.D.D.[.$X:.b v k w * & & # O O # # % * 5 4 w u "
};
