/* XPM */
static char *out[] = {
/* columns rows colors chars-per-pixel */
"64 64 212 2 ",
"   c #2B1608",
".  c #4A2415",
"X  c #5C2C1A",
"o  c #68321E",
"O  c #583F2A",
"+  c #763A24",
"@  c #7E3D26",
"#  c #63432F",
"$  c #6E402D",
"%  c #6A4D37",
"&  c #77523D",
"*  c #7F5D46",
"=  c #814A35",
"-  c #8E4B34",
";  c #96523A",
":  c #865540",
">  c #8C5D46",
",  c #9D5943",
"<  c #955F49",
"1  c #A45E45",
"2  c #89664F",
"3  c #9B644E",
"4  c #916A53",
"5  c #9A6F56",
"6  c #AB644A",
"7  c #A16851",
"8  c #AD6D51",
"9  c #A86D58",
"0  c #B36A51",
"q  c #B76F53",
"w  c #A1765D",
"e  c #A7755C",
"r  c #AE755B",
"t  c #B4715D",
"y  c #B97658",
"u  c #A87B63",
"i  c #AE7D64",
"p  c #BD7564",
"a  c #B27861",
"s  c #B47F64",
"d  c #BB7E63",
"f  c #C1785B",
"g  c #C87E61",
"h  c #C07B6B",
"j  c #AC836B",
"k  c #BE8466",
"l  c #B3876E",
"z  c #BA876A",
"x  c #BF8B6C",
"c  c #B78C72",
"v  c #BC8E72",
"b  c #C38264",
"n  c #CC8566",
"m  c #C78568",
"M  c #C48A6C",
"N  c #CC8C6D",
"B  c #CC8C6E",
"V  c #D18969",
"C  c #D48C6E",
"Z  c #D88F6F",
"A  c #C88973",
"S  c #D08B78",
"D  c #C39072",
"F  c #C69677",
"G  c #C89172",
"H  c #CC9475",
"J  c #CA997A",
"K  c #CF9C7E",
"L  c #D19071",
"P  c #D09072",
"I  c #D29172",
"U  c #D09273",
"Y  c #D39273",
"T  c #D49374",
"R  c #D59475",
"E  c #DA9472",
"W  c #D79778",
"Q  c #D1967C",
"!  c #D89778",
"~  c #D59A7B",
"^  c #D99878",
"/  c #D9997A",
"(  c #DB9A7A",
")  c #DA9A7B",
"_  c #DC9B7B",
"`  c #DB9C7D",
"'  c #DA9D7E",
"]  c #DE9D7D",
"[  c #DC9D7E",
"{  c #DD9D7E",
"}  c #E09E7D",
"|  c #E29F7D",
" . c #E2A07F",
".. c #D89380",
"X. c #DD9E80",
"o. c #DE9F80",
"O. c #DF9F80",
"+. c #DD9986",
"@. c #D99E87",
"#. c #CFA186",
"$. c #D4A082",
"%. c #DFA081",
"&. c #DCA386",
"*. c #D8A485",
"=. c #DCA88A",
"-. c #DFAB8E",
";. c #DFAF94",
":. c #E0A081",
">. c #E3A181",
",. c #E0A182",
"<. c #E1A283",
"1. c #E3A282",
"2. c #E5A382",
"3. c #E4A383",
"4. c #E5A484",
"5. c #E6A584",
"6. c #E6A585",
"7. c #E7A685",
"8. c #E7A686",
"9. c #E8A786",
"0. c #E8A787",
"q. c #E9A887",
"w. c #E0A58A",
"e. c #E3AC8D",
"r. c #E7AD8F",
"t. c #E8A888",
"y. c #E9A888",
"u. c #E9A989",
"i. c #EAA989",
"p. c #EAAA8A",
"a. c #EBAA8A",
"s. c #EBAB8B",
"d. c #EBAC8C",
"f. c #EBAE8F",
"g. c #ECAC8C",
"h. c #ECAD8D",
"j. c #EDAD8D",
"k. c #ECAE8F",
"l. c #EEAF8F",
"z. c #EEAF90",
"x. c #E4B195",
"c. c #E9B193",
"v. c #EDB091",
"b. c #EFB090",
"n. c #EDB192",
"m. c #EEB192",
"M. c #EFB192",
"N. c #EFB293",
"B. c #ECB496",
"V. c #E6B599",
"C. c #EAB79A",
"Z. c #EEBC9E",
"A. c #F0B293",
"S. c #F0B394",
"D. c #F0B495",
"F. c #F1B495",
"G. c #F0B496",
"H. c #F1B596",
"J. c #F1B597",
"K. c #F2B596",
"L. c #F2B698",
"P. c #F2B798",
"I. c #F2B799",
"U. c #F2B89A",
"Y. c #F3B89A",
"T. c #F3B99B",
"R. c #F4B99B",
"E. c #F4BA9C",
"W. c #F4BB9C",
"Q. c #F4BB9D",
"!. c #F5BB9D",
"~. c #F5BC9E",
"^. c #F5BD9E",
"/. c #F5BE9F",
"(. c #F1BFA1",
"). c #F5BEA0",
"_. c #F6BEA0",
"`. c #F6BFA0",
"'. c #F6BFA1",
"]. c #F6C0A2",
"[. c #F6C1A2",
"{. c #F6C1A3",
"}. c #F6C2A3",
"|. c #F6C3A4",
" X c #F7C3A5",
".X c #F2C4A5",
"XX c #F7C4A5",
"oX c #F7C5A6",
"OX c #F7C6A7",
"+X c #F7C7A8",
"@X c #F7C8A9",
"#X c #F0CBAD",
"$X c #F8C8A9",
"%X c #F8C9AA",
"&X c #F8CAAB",
"*X c #F8CBAC",
"=X c #F8CCAD",
"-X c #F8CDAE",
";X c #F9CEAF",
":X c #F3D1B3",
">X c #F7D1B2",
",X c #F0D4B6",
"<X c #F6D4B6",
"1X c #FAD3B4",
"2X c #FAD7B8",
"3X c #F1D8B9",
"4X c #F7D8BA",
"5X c #F5DBBB",
"6X c #FADDBE",
"7X c #F6DDC0",
"8X c #F9E1C3",
"9X c #FBE5C7",
/* pixels */
";.m.9.8.^ M i e w w J $.K -.;.x.;.V.;.x.-.x.x.C.x.x.C.Z.V.V.x.x.x.x.r.r.w.t.w.r.w.w.w.%.%.w.&.<.! ( ! ] / ` W W L T L T L W T T ",
"=.a.j.4.) G s i s s J $.w.;.x.x.x.;.x.x.;.x.V.V.V.;.V.C.Z.V.m.f.v.r.r.r.t.t.r.r.e.w.8.4.8.d.8.<.] ` X.` 4.1.] _ R L L L T T T Y ",
"D 4.} ( 1.f.w.w.f.D.D.R.`.`.V.C.Z.Z.C.U.Z.[.C.(.Z.Z.C.Z.[._.D.D.J.L.r.B.m.F.r.m.v.K.d.t.z.J.4.2.| ] W ] %.>.] :.] ! N B C T V C ",
"x L B A ~ w.r.m.Y.Y.J.L._.'.Y.J.^.[._.U.OX].~.[.$XOX X}.oX]._.J.Y.W.J.G.Y.P.J.f.D.m.f.p.l.l.g.2.| _ / ^ ,.} O.` ( R V N C V V n ",
"r 7 < < > 5 s &.s.L.L.R.L.`.!.'.J.R.R.^.[.[.E._.R.`.^. XT._.J.R.J.R.S.H.S.k.s.H.d.l.h.t.7.p.6.y.( ` ( ` _ } _ { W L N C V C V C ",
"& # O X X O # 2 x $.f.I.R.R.^.E.J.R.Y.Y.[.[.`.I.R.W.`.Y.Y.Y.J.F.Y.I.G.D.k.s.s.v.s.u.t.7.0.a.4.( ] ) ) ] ] X.o.^ W L N V V V V V ",
"e s w : % % % : 3 d P t.R.`.F.J.F.R.m.`.`.[.Y.D.J.^.L.R.H.R.v.L.K.R.v.K.v.l.2.M.k.s.2.q.p.z.:.X.X.<.! o.o.<./ o.W L n n n V m n ",
"w.t.x.;.J s e 7 9 a M Q v.L.F.M.M.M.m.`.[.[.L.f.D.m.S.R.^.W.I.E.].^.L.D.D.l.8.0.a.0.t.3.j.t.<.X.X.` ` X.<.,.( R T V g g n n g b ",
"r.z.D.D.J.v.&.~ m m B W X.L.F.F.j.z.J.^.W.W.J.v.s.z.k.`.`.OX X]._.^.!.L.f.l.8.p.7.u.8.l.8.g.<.<.` X.~ %.[ %.! ! V V g g g g f b ",
"t.t.s.z.m.S.f.w.` L L U ` t.F.M.M.l.F.b.S.S.m.t.t.p.M.Y.`.`.[.`.^.Y.F.D.v.s.w.<.8.4.4.4.8.4.4.<.X.] ` ` <.` ( W C n h d d f f f ",
"( / ^ %.4.w.` %.} %.~ ( O.t.z.M.M.h.j.v.A.F.8.<.>.t.t.J.^.^.m.r.w.&.Q H x k d x G U m G W X.R ( ` X.W X.o.%./ W N n f d d b y p ",
"b d W X.<.` I N P B R / 8.0.k.l.M.u.h.h.F.M.} W W ( %.8.A.<.B r < : & $ $ + $ + : < 3 7 a b b B R T T R ( / W T B m d d b b d f ",
"t ( t.k.t.t.^ T b d b L X.8.l.z.a.g.z.j.j.g.E V m P L W L b 7 < @ o X . . . . . X # + : > 7 8 r y y y B G P A P m b p b y g y f ",
"m t.w.$.~ / W ! C b p d T :.p.j.z.u.h.u.p.p.R d b b b m d 6 ; - + o o X X X X o + : = = = : > < < < 3 7 9 8 8 9 r y t q q q q q ",
"U $.s 9 < e a m m n f y b T ^ s.z.m.7.t.t.a.L b d b y d 0 6 - - = = @ - < 8 a x U U d 9 7 7 < ; ; ; ; < < < ; < > < ; 6 6 0 1 6 ",
"s : O O # : : > < 7 q 0 y m T :.M.M.p.t.a.2.U m b d y 8 6 1 ; - ; , 1 8 b B U ! <.X.` W R B m s a 9 3 3 3 3 : : : - - ; 1 6 1 1 ",
": . . . % i w & % + = ; , y N _ 0.Y.M.M.p.7./ I b d 8 6 ; ; - ; - - - 6 y N m b y t t b b N P W B m d d r 9 3 < > ; - 3 6 8 6 8 ",
"= X X $ % % . . . . o $ @ - p W t.W.`.I.I.k.4.B d 6 6 1 ; - - = o - 9 A X.t.t.t./ N b 0 6 ; , 8 m m M M b d a 9 9 8 d t 0 0 q 0 ",
"a M e 7 > & X . . X o + $ + - _ j. XOX[.].^.8.B 8 1 , , - = + X = 9 7 7 7 9 7 7 e a r a r 7 = o - s b M N B b d d m y y f g f b ",
"8.0.w.o.W s < > : < 9 7 3 8 m 0.Y.OX>X;X&X^.4.b 6 1 6 ; ; - + X @ + + o . . .     . . X o o # o X + a B W m y d h b p d d p y y ",
"2.>.k.l.4.4.` ` L B m n C _ } L.R.$X1X4XXXR.` b 1 6 q 6 y m y t 8 t 9 i 2 & . . . . . .     . . . . = 8 , 1 8 h b m m m f b g n ",
"F.g.| _ / T L Z C C V V n g ^ W. X&X4X>X$XL.O.f 0 0 n L T ] 7.<.X.` X.] ` U s 7 7 3 7 < > : : = + - 6 1 1 b } 2.7.7.<.>.N h f y ",
"Y.`.M.( n g g n n f 6 6 y <.U. X&X;X&X+X[.m.L b f b g ^ 0.a.2.t.>.R m ^ O.] V V V N f b b m m V L N 1 ; b L m B C W L L t 6 6 0 ",
"^. X XR.m.W d 8 8 8 d ~ `.&XOXOX;X&X%XOXI.<.V g C R C T 0.j.t.s.z.i.R y 6 6 q 0 0 0 0 f n g g q , - ; f _ >.:.T n t 0 8 y y d d ",
"R. X&X;X}. X^.L.m.W.`.&XOX=X&X;X;X*X$X[.a.^ V C T ] :.7.2.j.a.y.j.Y.J.l.) m t 6 , , ; ; - ; - ; 1 n _ >._ / ( >.( N b L R m a s ",
"[.$X;X;X$X X X[.$X}.$X X&X%X=X;X-X$X%XY.0.T C V T ] 0.a.j.j.g.p.z.F.I.I.^.[.R.R.v.w.%./ W ` 8.s.z.a.a.7.2._ L T ] O.>.:.<.m a r ",
" X;X;X1X=X&X^.[.$X;X X$X;X;X=X1X1X1XR.v.4.^ V V V Z n C E | ] l.M.A.m.W.W.R.^.OXOX].E. X[.[.E.I.k.l.2.h.u.7.E N R | } 4.8.P a y ",
"OX;X>X4X;X;X&X=X;X;XOX+X;X;X1X6X4XOXL.z.a.>.E C n f y f y 8 0 n 2.F.J.W.W.`.E. X$XOX`.XX X`.I.M.M.p.7.s.s.8.8.( T _ } >.t.L d d ",
" X&X4X6X1X;X&X=X=X;X;X;XOX;X;X6X4XOXF.M.s.z.t.] g f g Z T f 1 , 8 R j.Y.R.`.^.&XOX=X X$XXX`.I.R.m.a.0.a.8.q.5.2.E ^ | >.:.P b b ",
"OX&X;X;X>X;X$X&X$X&X`.I.^.OX;X6X1X XL.L.J.F.z._ V g C 2.t.| C 6 - , d ( l.I.`. X&X$XOXXX$X^.[.J.z.k.a.a.a.l.g.2.>.( O.} <.L m m ",
"`.`.[.`.OX[.J.Y.m.0.L W U.&X=X4X;X&XR.`.^.W.^ N g C _ 0.a.2.C q ; ; - 6 m >.s.L.`. XY.Y.^._.L.I.z.A.p.a.a.l.8.4.2.| ! ] o.^ b N ",
"W.W.W.K.!.z.| E g 6 6 ]  X&X>X6X>X$X`.`.[.<.h 8 q f n g g y 0 1 6 8 6 1 6 d E 2.F.J.F.F.I.K.F.l.b.z.s.u.b.z.7.<.4.O.( ! ( B N B ",
"F.L.b.l.2.^ g 0 - ; I `.&X4X6X9X6X1X$X[.O.d 1 ; = = @ @ @ - ; 1 0 y q f q q q L ( t.s.M.k.a.p.h.q.q.a.u.q.8.2.3.>. ._ ( I B A B ",
"M.k.p.>.W b 1 = - G [.;X1X6X9X9X6X;X X4.d ; = + o $ + + + - - - , 6 6 0 y y q 8 d P _ <.7.7.7.%.2.t.0.t.5.>.<.<.o.W / ^ R L L B ",
"8.s.^ C b 6 = ; H Z.OX>X4X6X4X4XOX`.w.b 1 - + + + + X o + = @ - - ; - 1 0 0 6 1 1 0 b W ` ] W ( ] <.` >.X.<.W ' R ^ U U ~ ) U L ",
"} | C b 0 ; - b f. X&X;X1X$X%XZ.v.! d , - @ + + + o o + @ = = - - @ + = ; ; - - - - ; d ~ W T T W W T R ( ! R U G H U U ! W R L ",
"^ _ V p 1 - 8 ) v.[.C.C.v.m.c.B.4.m 1 ; - ; - - @ = = = = - - ; = + + = = - - = + + + : r T _ ^ T T L R U R R H x D U ~ / ' / C ",
"_ E g 0 , ; m ! f.! b B ! ( ^ ! U y , , d B y , ; ; - - - ; ; 3 ; = - = - : : = + + + $ @ 9 P _ ( T Y T R T L G x x U ~ ` W R V ",
"_ / d 8 , 6 N U Q d 6 d B N t 8 6 - = 6 B W m y 8 1 ; ; - - - ; < - - ; ; , - ; < : = + $ = ; b W W V P R W U Q x x U ! U L N V ",
"( T f 8 6 6 G M x 8 7 0 b b 0 6 7 ; d <.s.| T V g q 1 , , , 1 , 6 1 ; , 1 1 1 1 6 3 < = + @ = ; b L L L ) ( ` ~ G k P U U U n n ",
"T ^ g t 6 6 M G r 7 7 y d n h y y m ` F.F.l.| ! n f q 0 6 q f f f y q 0 6 8 0 0 6 6 < ; + + = - , m L W ( w.&.&.M k M Q U H n V ",
"R W V 0 y 8 A x r 7 8 y b n N P ( _ / >.t.a.7._ C V n g n n n n V n f 0 q q 0 0 6 6 6 1 : = = - ; t T ^ %.8.w.%.H x D H U I V V ",
"P :.T b t b d d 3 < - ; , y g C V L n L E E V V g g 0 q y f 0 y q 8 ; ; 1 1 ; - - - = - - : - 1 6 8 N _ 0.8.&.X.G D x G U Q n C ",
"M <.<.L y m A a 7 - @ @ - 1 6 6 6 0 q y f y q 6 1 , - - ; ; ; ; ; - = = - = @ @ @ + = = - 9 d b b 6 B ] 4.O.] ~ H D D G ~ U N N ",
"d &.k.t.m d R m r 0 8 d f f y f q f q y 0 0 t p q p d d p h y 0 6 6 6 8 6 6 6 0 0 6 1 6 y W X.7.R d R <.] %./ U G M M J Q G m G ",
"x G f.r.` d U W L B P n n L ^ _ X.W W ` <.w.%.` +.( R I S m h h m b y f f f f y p q y g 2.j.<.:.W m ! } O.^ R G M x D J F M G A ",
"J K ` m.m.~ x ` W R C W V W ^ ` X.<...` %.w.%.+.R S h m m t 0 y f q 0 y q q 0 q 0 g V t.m.z./ ] V L } <.<.( M x x M d D D G b M ",
"J $.Q w.f.t.m U ] L L Y T V P A n I S S S S M m h r 9 7 3 3 3 7 7 7 7 0 r 0 8 8 f V 4.D.R.t.` W m T <.<.( B d s d s k x x H M m ",
"F *.$.@.t.f.` A ( ( W E L b t 8 7 8 8 9 9 9 7 9 7 3 < < > < > < < < 7 8 9 r y y b O.m.F.r.8.:.L p T _ } P m a s a k s d D H H U ",
"K $.*.$.&.w.t.A U <.] ^ C b y 8 6 6 8 9 a r a r 9 7 3 > < > > > < 3 7 8 r a d m ) k.m.f.p.t.t.n m W W T x s r s s d s M H A R ~ ",
"$.=.#.*.&.w.w.~ m :.} ( C m t t t y y d b M d s r r 3 < < < > 3 8 a d b m B m / s.L.t.k.f.I.X.h L ^ B A k a 9 a a s d H G Q U H ",
"$.*.*.$.*.&.$.G U W :._ E n y y b N ^ R W L L b b r 9 7 8 9 r y N I ! ! ! ( ^ w.J.z.s.s.m.f.L b ^ W C A d r a s s s M G $.$.G b ",
"J =.*.=.$.J d d H T 7.2.E N f b n :.k.l.8.7.| ! B A d k x H U %.w.f.t.d.4.<.:.r.r.s.s.v.t.r.m L T W B x 8 9 k D d D H J J J H ~ ",
"F *.=.=.*.D e 5 e M j.a.:.W n n _ k.m.k.t.:.<.4.s.8.p.w.r.m.D.D.J.D.B.w.%.%.w.j.r.8.d.r.r.w.P R / ! G r r r x M G G D F H K ~ Q ",
"v $.$.$.K D w 2 2 w ~ A.r.>.] ] 7.L.m.N.M.k.<.f.v.l.r.n.n.S.x.C.I.C.8.%.>.&.>.8.t.t.<.6.t.t.Q ) [ %.x r r e 7 r Q D s v J $.X.&.",
"l J K K K x 4 & : 2 i r.L.t.t.8.t.a.I.F.R.P.Y.D.E.J.G.J.(. X XZ.W.m.r.X.<.,.o.o.3.<.o.w.t.e.&.` &.~ x s x e 7 9 x U v D G ~ &.e.",
"w D J $.F x : % & & < J Y.M.t.l.y.g.m.W.I.^.[._.(.{.T.|.].XXOX[.w.%.t.w.<.<.( O.` %.%.j.r.m.w.&.~ ~ x s s i 7 e r G G J D K $.w.",
"w z J J D e & % % & 2 i ;.`.z.a.l.p.s.F.R.R.^.^.^.W.U.[.}.D.J.v.w.8.3.t.>./ ^ ] <.<.t.k.J.F.D.&.~ G s x s i u e 9 9 s G G J D i ",
"5 w c v z e % # % & & 5 G &XZ.k.t.f.4.p.J.E.J.R.m.s.s.p.k.v.<.t.y.s.] { ] :.^ o.<.3.w.r.J.(.G.w.$.G 3 s D s u e : > 7 s s 9 < 4 ",
"% & 2 5 j 5 & O # % & 2 s [.;XR.8.w.z.U.}.^.Y.U.E.v.l.p.t.8.:.} ] X.! R } ( } 4.t.~ &.m.W.Y.~.&.J D e 5 j w 5 w : $ = > > < < > ",
"O O # * 4 4 & O # # % > 9 Z.;XC.&.Z.).&X&X*X X&X).[./.Y.F.v.s.s.` W P R T ` X.<.3.<.r.L.J.Q.T.$.D s k 5 2 : : 4 % # : < < w < s ",
"O O O % & 2 * O O O % : b L.%X>X>X4X<X>X1X4X6X4X>X;X;X%XOX^._.~.R.v.~ H U Q W o.<.p.N.L.].{.x.G D w e 5 > : & & O % < 7 a s s z ",
". . . # % * & # . O $ < X.).@X4X7X8X5X4X4X7X5X8X8X6X,X4X5X2XOXOXOX*X(.x.$.H A ` f.J.m.(.OX(.~ D x w * * & & O O O # & < 9 r r i ",
". . . O # & % # . X # s e.|.:X:X4X5X5X:X,X,X,X,X3X3X,X,X,X,X#X#X#X#X#X#X#X;.K =.V.Z.Z.(..X;.v c l w * & & # O O # # % * 5 3 w u "
};
