/* XPM */
static char *out[] = {
/* columns rows colors chars-per-pixel */
"64 64 211 2 ",
"   c #2B1608",
".  c #4A2415",
"X  c #5C2C1A",
"o  c #68321E",
"O  c #583F2A",
"+  c #763A24",
"@  c #7E3D26",
"#  c #63432F",
"$  c #6E402D",
"%  c #6A4D37",
"&  c #77523D",
"*  c #7F5D46",
"=  c #814A35",
"-  c #8E4B34",
";  c #96523A",
":  c #865540",
">  c #8C5D46",
",  c #9D5943",
"<  c #955F49",
"1  c #A45E45",
"2  c #89664F",
"3  c #9B644E",
"4  c #916A53",
"5  c #9A6F56",
"6  c #AB644A",
"7  c #A16851",
"8  c #AD6D51",
"9  c #A86D58",
"0  c #B36A51",
"q  c #B76F53",
"w  c #A1765D",
"e  c #A7755C",
"r  c #AE755B",
"t  c #B4715D",
"y  c #B97658",
"u  c #A87B63",
"i  c #AE7D64",
"p  c #B77764",
"a  c #BD7564",
"s  c #B27861",
"d  c #B47F64",
"f  c #BB7E63",
"g  c #C1785B",
"h  c #C87E61",
"j  c #AC836B",
"k  c #BE8466",
"l  c #B3876E",
"z  c #BA876A",
"x  c #BF8B6C",
"c  c #B78C72",
"v  c #BC8E72",
"b  c #C38264",
"n  c #CC8566",
"m  c #C78568",
"M  c #C4816F",
"N  c #C48A6C",
"B  c #CC8C6D",
"V  c #CC8C6E",
"C  c #D18969",
"Z  c #D48C6E",
"A  c #C98270",
"S  c #C88973",
"D  c #CC8A78",
"F  c #D08B78",
"G  c #D38E7E",
"H  c #C39072",
"J  c #C69677",
"K  c #C89172",
"L  c #CC9475",
"P  c #CA997A",
"I  c #CF9C7E",
"U  c #D19071",
"Y  c #D09072",
"T  c #D29172",
"R  c #D09273",
"E  c #D39273",
"W  c #D49374",
"Q  c #D59475",
"!  c #DA9472",
"~  c #DD9876",
"^  c #D79778",
"/  c #D1967C",
"(  c #D89778",
")  c #D59A7B",
"_  c #D99878",
"`  c #D9997A",
"'  c #DB9A7A",
"]  c #DA9A7B",
"[  c #DC9B7B",
"{  c #DB9C7D",
"}  c #DA9D7E",
"|  c #DE9D7D",
" . c #DC9D7E",
".. c #DD9D7E",
"X. c #E09E7D",
"o. c #E29F7D",
"O. c #E2A07F",
"+. c #D89982",
"@. c #DD9E80",
"#. c #DE9F80",
"$. c #DF9F80",
"%. c #DD9986",
"&. c #D4A082",
"*. c #DFA081",
"=. c #DCA386",
"-. c #D8A485",
";. c #DCA88A",
":. c #DFAB8E",
">. c #DBAB91",
",. c #DFAF94",
"<. c #E0A081",
"1. c #E2A181",
"2. c #E3A181",
"3. c #E0A182",
"4. c #E1A283",
"5. c #E3A282",
"6. c #E4A281",
"7. c #E4A383",
"8. c #E5A483",
"9. c #E6A483",
"0. c #E6A584",
"q. c #E6A585",
"w. c #E7A685",
"e. c #E7A686",
"r. c #E8A786",
"t. c #E9A887",
"y. c #E0A58A",
"u. c #E3AC8D",
"i. c #E7AD8F",
"p. c #E8A888",
"a. c #E9A888",
"s. c #E9A989",
"d. c #EAAA8A",
"f. c #EBAA8A",
"g. c #EBAB8B",
"h. c #EBAC8C",
"j. c #EBAE8F",
"k. c #ECAC8C",
"l. c #EDAD8D",
"z. c #EDAE8E",
"x. c #ECAE8F",
"c. c #EEAF8F",
"v. c #EDAF90",
"b. c #EEAF90",
"n. c #E4B195",
"m. c #E9B193",
"M. c #EDB091",
"N. c #EFB090",
"B. c #EEB091",
"V. c #EEB192",
"C. c #EFB192",
"Z. c #EFB293",
"A. c #ECB496",
"S. c #E6B599",
"D. c #EAB79A",
"F. c #EEB899",
"G. c #EEBC9E",
"H. c #F0B293",
"J. c #F0B394",
"K. c #F1B495",
"L. c #F0B496",
"P. c #F1B596",
"I. c #F1B597",
"U. c #F2B698",
"Y. c #F2B799",
"T. c #F3B799",
"R. c #F2B89A",
"E. c #F3B89A",
"W. c #F3B99B",
"Q. c #F4B99B",
"!. c #F4BA9C",
"~. c #F4BB9C",
"^. c #F4BB9D",
"/. c #F5BB9D",
"(. c #F5BC9D",
"). c #F5BD9E",
"_. c #F5BD9F",
"`. c #F5BE9F",
"'. c #F1BFA1",
"]. c #F5BEA0",
"[. c #F6BEA0",
"{. c #F6C0A1",
"}. c #F6C0A2",
"|. c #F6C1A3",
" X c #F7C2A3",
".X c #F7C3A5",
"XX c #F2C4A5",
"oX c #F7C4A6",
"OX c #F7C5A6",
"+X c #F7C6A7",
"@X c #F7C8A9",
"#X c #F0CBAD",
"$X c #F4CDAE",
"%X c #F8C8A9",
"&X c #F8C9AA",
"*X c #F8CAAB",
"=X c #F8CBAC",
"-X c #F8CCAD",
";X c #F8CDAE",
":X c #F9CEAF",
">X c #F3D1B3",
",X c #F7D1B2",
"<X c #F0D4B6",
"1X c #F6D4B6",
"2X c #FAD3B4",
"3X c #FAD7B8",
"4X c #F1D8B9",
"5X c #F7D8BA",
"6X c #F5DBBB",
"7X c #F6DDC0",
"8X c #F9E1C3",
/* pixels */
",.B.0.9._ K d j d K &.;.,.,.,.,.,.,.,.,.>.,.n.n.n.S.,.A.i.S.i.m.:.:.4.y.4.e.y.e.*.*.*.*.*.*.@.] ^ } ^ { ^ ` R R K V V Y V ^ V E ",
":.d.r.r.1.Y x x P &.:.,.n.,.n.,.,.,.,.n.,.,.,.,.n.,.n.m.m.L.m.m.i.:.:.y.i.j.i.u.4.y.y.=.p.4.4.[ ' ] ] [  . .X._ R V Y V Q Q W Y ",
"L X.o.O.| ^ L ) ;.n.,.n.A.A.n.i.n.A.,.A.n.F.,.A.F.G.i.A.U.E.m.L.A.V.i.V.M.U.m.j.v.i.q.s.h.x.[ $.X.3.` @.*.4.'  .[ T n V T Q B Z ",
"K ~ X.1.j.m.j.L./._.A.A._.~.F.A._.G.A.F.].].(.G._._.W.G._./.W.I./.R.Z.M.U.Z.N.i.j.s.s.r.g.q.X.' $.X.'  .3.*.[ ' | T S m V U C n ",
"K 1.6.f.g.H.H.T.I./.E.(.W._.R./._./.Q.{.W.].(.(.W.].W.W.U.R.I.W.J.H.j.M.i.j.d.k.s.a.s.s.8.O.' [  .[ ' *.` *.[ *.Q T B V C C n Z ",
"P ] 6.f.H.T.W._./._./.~./.R.U.T.Q.|.|./._.F.~./.(./.U.P.P.Y.U.P.P.V.j.s.j.d.a.8.d.r.i.p.4.| [ } $.[ ' ' *.{ ' { ' Y B Z C C C C ",
"4 w r / j.U.Z.E./.(.W.(._.W.v.E.[..XW.].E.E.Z.E.W._.Z.E.T./.Y.U.Q.T.j.M.b.j.q.h.d.d.a.s.6.1.( X.*.@._  .*.4.( ( Q T b m n C g n ",
"@ # O * k =.i.Z./.W./._.(.V.V.L./.].R.P.P.V.V.I._.W.T.U.[.]./.R.[.W.J.M.b.s.r.a.z.s.d.s.r.1.] ] 3.[  .[ 4.*.^ T E B f k m n b h ",
"4 % O # & 7 x @.i.P.P.W.J.H.V.L.U./.U.Z.v.Z.Z.T.U._.[.].].{.|._.A.U.j.z.a.i.d.d.r.s.s.d.6.4. .*. . . .@. .@.` ! B S b n b h g h ",
",.P w > : : 9 k ( e.M.J.H.k.j.L.W.A.Z.k.j.j.v.Z.E.[.].].|.|.|.U.m.*.) / / / } ^ / R _ @.*.@.#.@. .( [  .#.@.] Q C h g g g g g g ",
"A.A.;.) k r 9 s m ` 4.b.C.J.e.H.V.V.e.i.s.j.q.m.E.[.T./.F.,.K N d 7 : > > < 7 7 9 s f N K Q T ^ `  .E ] *.*.^ T B n y q y g y g ",
"*.4.=.@.@.R m b N Y @.a.H.v.h.d.d.j.p.1.q.4.q.s.P.P.s.` k 7 = + o X . . . X o + : : 7 9 s f s f V E ( ^  .] ^ V B b f t f g y g ",
"@.m.m.e.^ V b S V ^ [ a.f.z.r.k.d.k.q. .Q _ ] *.*.e.R p > : + $ o X . X X o + = = = : > > , , 1 7 f m Y T _ R E b b f f y g q g ",
"v.j.m.k.e.^ b t b Q @.r.g.t.r.a.z.z.r.V m n V V T V y , - @ + + + @ : < 7 d H x s 7 7 7 7 > > 3 < , 7 8 y b b b f f y y y y y y ",
"&.I H L I / b y t m T 1.a.f.3.r.s.k.<.S f b b b b f 6 , ; - : < 7 y k / =.i.e.i.p.@.K Y N r 3 , , 3 , < 3 3 , 7 7 9 8 q t q 0 q ",
"@ O O O O & , 6 8 t n ( f.z.f.r.a.p.6.V b k f f f 0 1 , , , 1 8 f S T ' 4.*.*.4.4.4.4.@.*.` V p r 9 3 , 3 3 > > > > , 1 0 0 1 1 ",
"    . O     . $ : 1 y Y | H.v.z.8.d.@.Q B m f y 6 3 , , < 7 1 6 8 f S V B V B V m Y L ^ ` *.] R b k y 9 3 3 < > > : : , , 6 6 1 ",
". O # O     . X o + < m ' P._.P.C.j.6._ R b f 8 1 , ; ; ; = - 8 b ) 4.e.y.@.Q m f 8 6 8 k V E T Y V b y 8 9 7 < < ; ; 1 6 6 6 6 ",
"= < & # O . X % & $ o 0 [ /.oX+X~.U.f.$.V f 6 6 1 ; = = + - 9 x N K L &.*.-./ R S f 1 - = 1 y S V B f f f y 8 8 8 r 3 6 8 t 8 0 ",
"@.] H s 7 7 e d 9 < - 8 a.W.;X:X;X_.P.$.h 1 1 1 , - = $ + , 7 > @ o % # % * < 9 9 9 7 7 > @ > k T V m n m k b b b y 8 8 t t y f ",
"v.v.i.e.*.@.T V T ( | a.H.].:X5X;X|.M.' q 6 0 0 ; 8 1 - = @ @ : $ X .       . . . . X # # $ o 3 S T m b f n m m k b f y r y y b ",
"6.[ _ Q T W W Z W V V 6._.+X2X3X;X_.s.C q 6 q g t T | _ E V E T K e < $ # X O X . . O X X . $ = 6 6 6 q f b m m m k f y y f f b ",
"! C h n Z Z g y q b ' [..X:X;X2X@X[.X.m q q g Q _ [ O.r.6.$.^ $.e.e.E B f k d d 9 7 3 , ; , , 8 8 1 t B ' $.( | O.X.Y b t y 6 r ",
"|.a.V t 6 6 6 0 T F.+XoX;X*X%XOX|.z.( n h h C ! f.t.t.f.g.X.Z V ' ' ! ^ V n m h n C C Z T C g 6 1 g V T Q _ [ ' $.' V t 8 1 7 8 ",
"*X.X/.W.L.A.A.|.+X*X*X=X+X-X@X|.M.*.Z Z Z ' ! | O.f.g.z.l.J.e.Q y 8 0 t 0 q q g b h g g 8 , ; , b 1.6.q.4. .Q T V V b b y y f m ",
":X=X.X].OX@X*X+X+X@X*X%X;X=X.X/.q.Q C Z | O.r.r.t.f.g.k.C.T.W.K.M.@.S y 0 1 , ; ; - - - , q T | 6.O.1.$.*.6.7.' Q Q _ U k y p y ",
"1X2X|.|.*X2X;X-X+X2X@X:X:X:XW.b.[ ! n Z ' 8.r.g.z.H.r.k.V./.U.E.E./.W.W.(.F.y.4.*.4.{ e.V.L.z.z.g.t._ _ 6.r.O.8.8.O.| T b r t t ",
"5X2X*X+X2X2X&X*X*X:X2X3X2X|.P.g.$.Z C C Q ! ! _ | O.8.k.T.U.W.W./.W./.]..X|.|.].].{.Q.T.W.P.C.z.z.g.1.( ' $.8.8.f.q.O.Q b t t p ",
"3X5X;X;X*X2X;X,X+X2X5X8X;X_.C.b.8.X.Z C b b g b q q y Q a.U.E.]././.~.+X|.|..X.X|..X/.W.b.C.j.b.s.g.r.6.' ' | r.6.w.<.' k f f k ",
"2X3X,X2X:X;X@X|.+X%X5X5X=X/.H.v.z.k.6.C g g C Z C g 1 1 y [ V./._./.[.+XoX.XOXOX%XOX|.W.U.j.s.k.a.z.s.r.8._ [ O.8.5.2.Q b y f m ",
"+X%X].]./.U.4.q._.;X:X2X=X_.C.J.Q.V.| Z h C | t.r.1.b , ; 6 m 4.H.[./.oX*X;X|.OX*X%X(._.U.C.r.g.z.k.7.r.r.O.Q | 6.O.] T b f f n ",
"[.(.b.8._ h 0 _ .X:X:X;X;X|./._.E.X.Z m Z ' r.g.r.| C , ; ; , y ' k.L./.@X|.`.]..X{./.U.E.C.g.k.c.g.r.q.r.O.' ' $.( ( V m n B V ",
"b.8._ h 1 ; 0 F.+X3X7X5X:X;X.XW.' b q y g C Z C h g 8 1 6 0 8 8 t T 4.H.U././._.P.E.Z.K.z.H.g.l.a.f.r.r.q.r.| _ E ( ^ V b n L T ",
"6.Z y , = 6 n.*X1X7X8X8X8X;XA.E t , ; = = = = @ = - ; 6 g b g g q q S $.i.C.J.H.N.k.l.z.z.k.l.z.j.r.e.6.q.7. .^ T ^ T B b m E V ",
"Z g ; @ 1 e.oX1X5X8X7X5X2X|.V 6 - + o + @ @ $ @ = ; , 1 0 g q g b y 8 g ^ q.e.k.j.k.6.f.s.b.s.g.a.a.| 7.4.1.E / Q W K V n n m n ",
"h 6 = ; Q G.@X:X3X2X:X|.W.] 8 ; @ + + + + + + + = = = - , , 6 q g q 8 6 y B ( | 8.8.$.1.6.r.q.6.<.$.[ _ ..[ L L L L ^ V R U R B ",
"q , - y 4._.|.+X|.G.F.i.m 8 ; - + $ $ + $ + $ + @ = - - = = - , , , , , , 1 f Q ( ^ W ' ' 8.X.@.] ] ^ ^ W R L K R / / R R ^ T W ",
"0 ; 1 S e.i.@.=.y.y.e.[ f , ; ; , ; - = = = = = = - ; - @ + = - ; ; - = = = > p R _ _ Q ( W E T ^ W W W R N N N I ` / R ] ] ` C ",
"q 1 6 E *.N y V ^ V f y 1 = , b E b , , ; ; = - ; , , ; - - - - ; ; - = @ @ + = r ( [ | { ( V T E Q V Y N N b N ` ] K / *.*.T Y ",
"y 6 8 / K t 8 f m p 6 ; = ; y E [ T y 6 1 , ; - ; ; , < ; ; ; - ; < ; : : & + + : 9 S _ [ E Y T Q U Y Y K N k N ` ) K K ) / K n ",
"f 8 8 L f 9 8 y f t 6 6 6 ' b.C.$._ C g 8 1 , , , 1 , 1 ; , , , , 1 , 1 , , = @ + = 7 S T Q U T Z E U Q K N k x L L K V N E B C ",
"n t t K f 9 8 y m f f B ' q.b.C.g.O.( C h y 0 0 y b b y y 0 0 6 8 8 8 6 0 1 < : @ @ = 1 n T Q Q ( ^ Q ^ / N k x L L N N L L C n ",
"W f t N r 9 7 0 y b n ! _ _ _ 6.6.$.Q Z C C g n n n g h C n y 0 0 y 0 8 8 8 , ; = & = - t T Z Q (  .` ] ` L k N K L N L / / V Y ",
"*.N t N 9 - = = ; 8 q y g g b h h h q q q 8 8 0 q 0 q q y 0 6 0 0 8 6 1 0 6 6 < > = - ; 6 b Q _ $.1. .[ ' N k N K N N K / L B V ",
"e.4.f K s 7 ; 1 6 q 0 0 6 1 6 1 1 6 , 1 1 , ; ; ; - ; - = = = - @ - = = = - - - - < 6 9 8 y Q | [ O.X.1.R N x K x H K P L N b S ",
"m.j.^ N L b b V B Z Z Q T V V D F D D T F S F S S g q 8 1 , , , , ; , ; ; ; ; ; 9 m V Y m y ( | $.[ [ _ L x x x N H I I I H m b ",
"=.H.*.b T E C U Z X.| $.$.4.%.{ 4.y.%.+.+.+.G S b S M A A n g h b g q a q q 0 b | k.[ 6.V n T [ X.$.( E K N N x z x H K P H b m ",
"J :.s.V V ( W Q _ ! @. .@.*.@.+.*.@.] S b b M p f b b a g g g g g y y 0 y h Q e.H.s.X.[ V B ( [ *...` V N x k f f x x x L K N N ",
"J &.i.X.b ' [ ' T m t r r f p r r s r 9 9 9 9 9 3 r 8 8 8 p y y t t t q b ' z.E.m.4.[ _ m T 4.4.[ ^ x x k N d f f x k x x K K Y ",
"I -.;.4.T B 1.$.^ m 0 7 7 9 9 9 9 8 t 7 7 7 7 3 < , 3 7 9 9 t t y t t f Q j.U.L.i.*.[ V f ! 8.X.@.V k k k d s d f d d K K N ) / ",
"I ;.&.4.=.R [ 4.[ C 0 8 8 p t f f k p r 9 9 > > < < > 7 9 r 8 t y f f V q.U.j.z.e.4.[ n f Q [ ' R N f N f d 9 d d d N K / / / L ",
"&.;.&.-.y./ ( [ _ C q 8 t f b B S m f y s 9 7 3 7 3 7 8 f f k f b N Y ] J.H.h.i.s.e.' f S ' ' W B N k k s r s s s x H P &.I K k ",
"P ;.-.;.&.J Q ' T Q f f t B *.e.*.| T B k d r s r f k S V Q T ^ T _ ` s.b.L.M.i.e.e.[ n B ( ( W S S m f 7 r f d f H J I P P L / ",
"P -.-.-.&.x x } 6.| Z m n | k.z.e.8.O.1.3.[ ) ) *.y.:.i.j.e.a.4.y.*.4.e.m.e.j.q.p.4.] B T Q W T R S k r 9 d H H H N N K P P ) / ",
"v &.I &.I z e K e.z.| Q ! z.k.L.M.i.@.e.i.v.y.M.F.F.i.Z.A.A.4.y.*.@.@.a.e.i.@.@.y.4.^ T ^ ` Q Q L K r 9 9 9 7 H P N d H P &.*.=.",
"l P I I I l 2 4 H s.b.8.a.b.j.Z.K.P.M.l.Q.L.Z.F.G.F.G.F._.Q.s.*.*.@.*.<.4.4.*.*.y.*.` Q @.]  .E E N d d k e 7 e K L N N K ) y.:.",
"w H P I J d * * 4 K L.W.g.H.M.W.U.W.F.].(.].]..X].|.|.OXG.j.*.p.@.$. .@.]  .{ <.{ {  .4.7.=.] ) K x d f d u 7 9 s K K L K ) &.@.",
"w l J I H e & % & 4 P L.W.b.g.h.L.J.E.E./.].].(.(.~._.n.A.i.e.4.e. .` Q ^ W ] ] @.4.e.p.h.p.4.} ) k d H d u u e 7 9 f N / I z e ",
"5 5 v v l e % # % * 4 N W._.s.d.k.j.i.K.T.E.B.M.h.j.4.e.p.z.e.e.@. .Q ( ( { ` @.4.p.4.h.A.A.e.@./ d 4 z x l u e = > 7 d d 5 4 4 ",
"% * 2 4 j 5 # O % % * 7 =.@X[.m.e.h.U.R.).U.C.v.M.B.s.4.q.<.<.@.@.( Q Q X.[ *.4.*. .i.Z.E.~.:.) K d w w u 7 3 7 * % : : > < < 4 ",
"O O # * 4 4 & O O % & > k |.=X,.:.]..X&XOX|.|.|.^._.R.H.s.C.e.1. .W Y W ^  .4.7.*.5.v.Y.Y.}.m.P x f d 4 4 > : 4 % # > < 3 9 5 i ",
"O O O % * 2 * O O O & : N ].:X;X1X3X2X2X2X3X5X5X2X;X:X&X+X!.`.(.W.i.} R R Q [ @.4.j.L.R.]. X:.J H e w 4 2 : & & O # < 7 r d f z ",
". . . # % * & # . O $ < @.].&X5X7X8X6X5X5X7X6X8X8X8X5X5X6X3XOX%X+X=X'.n.&.L S { j.I.A.].OXG.I H x w : * & & O O O # & < 9 r r d ",
". . . O # & % # . X # d u. X:X>X5X6X6X>X<X<X<X<X4X4X<X<X<X<X#X#X$X#X#X#X#X,.I ;.S.D.G.G.XX,.v c l w * & & # O O # # % * 5 5 w u "
};
