/* XPM */
static char *out[] = {
/* columns rows colors chars-per-pixel */
"64 64 213 2 ",
"   c #2B1608",
".  c #4A2415",
"X  c #5C2C1A",
"o  c #68321E",
"O  c #583F2A",
"+  c #763A24",
"@  c #7E3D26",
"#  c #63432F",
"$  c #6E402D",
"%  c #6A4D37",
"&  c #77523D",
"*  c #7F5D46",
"=  c #814A35",
"-  c #8E4B34",
";  c #96523A",
":  c #865540",
">  c #8C5D46",
",  c #9D5943",
"<  c #955F49",
"1  c #A45E45",
"2  c #89664F",
"3  c #9B644E",
"4  c #916A53",
"5  c #9A6F56",
"6  c #AB644A",
"7  c #A16851",
"8  c #AD6D51",
"9  c #A86D58",
"0  c #B36A51",
"q  c #B76F53",
"w  c #A1765D",
"e  c #A7755C",
"r  c #AE755B",
"t  c #B4715D",
"y  c #B97658",
"u  c #A87B63",
"i  c #AE7D64",
"p  c #B77764",
"a  c #BD7564",
"s  c #B27861",
"d  c #B47F64",
"f  c #BB7E63",
"g  c #C1785B",
"h  c #C87E61",
"j  c #C07B6B",
"k  c #AC836B",
"l  c #BE8466",
"z  c #B3876E",
"x  c #BA876A",
"c  c #BF8B6C",
"v  c #B78C72",
"b  c #BC8E72",
"n  c #C38264",
"m  c #CC8566",
"M  c #C78568",
"N  c #C4816F",
"B  c #C48A6C",
"V  c #CC8C6D",
"C  c #CC8C6E",
"Z  c #D18969",
"A  c #D48C6E",
"S  c #D88F6F",
"D  c #C88973",
"F  c #C39072",
"G  c #C69677",
"H  c #C89172",
"J  c #CC9475",
"K  c #CA997A",
"L  c #CF9C7E",
"P  c #D19071",
"I  c #D09072",
"U  c #D29172",
"Y  c #D09273",
"T  c #D39273",
"R  c #D49374",
"E  c #D59475",
"W  c #DA9472",
"Q  c #DD9876",
"!  c #D79778",
"~  c #D1967C",
"^  c #D89778",
"/  c #D59A7B",
"(  c #D99878",
")  c #D9997A",
"_  c #DB9A7A",
"`  c #DA9A7B",
"'  c #DC9B7B",
"]  c #DB9C7D",
"[  c #DA9D7E",
"{  c #DE9D7D",
"}  c #DC9D7E",
"|  c #DD9D7E",
" . c #E09E7D",
".. c #E29F7D",
"X. c #E2A07F",
"o. c #DD9E80",
"O. c #DE9F80",
"+. c #DF9F80",
"@. c #D4A082",
"#. c #DFA081",
"$. c #DCA386",
"%. c #D8A485",
"&. c #DCA88A",
"*. c #DFAB8E",
"=. c #DBAB91",
"-. c #DFAF94",
";. c #E0A081",
":. c #E2A181",
">. c #E3A181",
",. c #E0A182",
"<. c #E1A283",
"1. c #E3A282",
"2. c #E4A281",
"3. c #E5A382",
"4. c #E4A383",
"5. c #E5A383",
"6. c #E6A483",
"7. c #E5A484",
"8. c #E6A585",
"9. c #E7A685",
"0. c #E7A686",
"q. c #E8A786",
"w. c #E8A787",
"e. c #E9A887",
"r. c #E0A58A",
"t. c #E3AC8D",
"y. c #E7AD8F",
"u. c #E8A888",
"i. c #E9A888",
"p. c #E9A989",
"a. c #EAA989",
"s. c #EAAA8A",
"d. c #EBAA8A",
"f. c #EBAB8B",
"g. c #EBAC8C",
"h. c #EBAE8F",
"j. c #ECAC8C",
"k. c #ECAD8D",
"l. c #EDAD8D",
"z. c #EDAE8E",
"x. c #ECAE8F",
"c. c #EDAE8F",
"v. c #EEAF8F",
"b. c #EDAF90",
"n. c #E4B195",
"m. c #E9B193",
"M. c #EDB091",
"N. c #EFB090",
"B. c #EEB091",
"V. c #EDB192",
"C. c #EEB192",
"Z. c #EFB192",
"A. c #EFB293",
"S. c #ECB496",
"D. c #E6B599",
"F. c #EAB79A",
"G. c #EEB899",
"H. c #EEBC9E",
"J. c #F0B293",
"K. c #F0B394",
"L. c #F1B495",
"P. c #F0B496",
"I. c #F1B596",
"U. c #F1B597",
"Y. c #F2B596",
"T. c #F2B698",
"R. c #F2B799",
"E. c #F3B799",
"W. c #F3B899",
"Q. c #F2B89A",
"!. c #F3B89A",
"~. c #F3B99A",
"^. c #F3B99B",
"/. c #F4BA9C",
"(. c #F4BB9D",
"). c #F5BB9D",
"_. c #F5BD9F",
"`. c #F5BE9F",
"'. c #F1BFA1",
"]. c #F5BEA0",
"[. c #F6BEA0",
"{. c #E7C0A2",
"}. c #F6C0A1",
"|. c #F6C0A2",
" X c #F6C1A3",
".X c #F6C2A3",
"XX c #F7C2A3",
"oX c #F6C3A4",
"OX c #F2C4A5",
"+X c #F7C5A6",
"@X c #F7C6A7",
"#X c #F3C9AA",
"$X c #F7C8A9",
"%X c #F0CBAD",
"&X c #F4CDAE",
"*X c #F8C8A9",
"=X c #F8C9AA",
"-X c #F8CAAB",
";X c #F8CBAC",
":X c #F8CCAD",
">X c #F8CDAE",
",X c #F9CEAF",
"<X c #F3D1B3",
"1X c #F7D1B2",
"2X c #F0D4B6",
"3X c #F6D4B6",
"4X c #FAD3B4",
"5X c #FAD7B8",
"6X c #F1D8B9",
"7X c #F7D8BA",
"8X c #F5DBBB",
"9X c #F6DDC0",
"0X c #F9E1C3",
/* pixels */
"&.$./ / Y L %.t.y.F.-.n.t.-.*.=.&.=.&.*.&.*.&.=.&.t.,.t.$.O.L @.K K ~ [ / [ Y Y J H H V M I Y Y J Y J / ~ ~ H Y D C C T I I I C ",
"&.L ~ ~ K @.r.y.n.-.n.n.D.D.n.-.-.*.*.t.t.t.*.r.r.r.%.$.,.@.@.@.[ / / / / ~ Y H H H V M M M B l H H H J ~ J Y I I I P I E U T I ",
"L L K L @.%.%.-.-.n.-.n.n.F.n.-.-.y.r.t.y.y.r.$.$.*.%.r.t.r.$.$.%.$./ [ } o.~ E ~ ~ I Y J J B F F F c B H H l H C I m I E ^ I T ",
"@.@.L L @.@.=.=.-.-.-.-.n.n.-.=.y.t.r.r.V.y.t.t.y.t.t.r.y.r.,.%.4.,.o.[ <.o.} [ o.[ ) / [ L K G G B c x B l l n M M M V U I I I ",
"%.%.@.[ L %.%.-.*.-.-.n.-.-.*.*.t.y.u.S.h.t.y.h.t.y.y.h.u.t.7.p.u.g.8.7.#.1.| :.| X. .X./ @.K K F F c c l l l B n M m V m m V I ",
"r.y.r.%.%.*.y.h.S.m.m.n.m.y.y.-.y.t.h.h.y.t.t.t.h.h.K.h.y.y.d.g.g.p.p.9.#. .X.{ +.+. .O.%.L K G H F B l l l l l n M M M M n m Z ",
"V.P.t.t.y.P.y.S.V.A.y.S.A./.y.A.A.A.h.S.A.W.y.P.K.W.h.V.b.b.0.g.f.v.7.X.X. .^  .X.1.`  .#.@.J H H D n B B B f n n M n M M m n M ",
"P.A.V.S.W.R.A.V.Q.V.A.U.!.].U.U.^.!.A.P.R.^.U.S.A.A.g.h.B.g.p.y.B.p.X.{ ..{ ' | #.O.[ } } / J B H M n B D M n n B n n n m M n h ",
"K.R.P.P.C.U.A.Q.S.A.P.Y.P.).R.!.C.A.S.!.Y.Q.P.C.h.M.h.k.p.p.y.h.g.<.|  .` | o.#.' o.` { / / Y J n B n B B M n n f n g M g h g g ",
"P.U.P.K.R.C.P.A.U.h.M.h.T.Q.W.P.V.h.A.T.^.W.Y.g.h.h.g.g.j.e.h.p.g.<.#. .| O.} o.#.[ } ~ E Y C B B n n n M M f f f g g g g g g a ",
"T.^.h.M.S.W.A.U.A.h.t.M.Y.).K.A.K.P.P.Q.).[.A.K.C.y.8.p.h.C.p.x.g.p.O.:.;.,.` +.O.o.E E E Y M M M n g f n h y y y a q g g g y y ",
"W.P.A.g.V.P.P.A.Y.y.0.p.P.Q.R.A.U.Q.^.(.].G.R.V.K.h.p.u.V.C.h.h.v.u.4.O.<.#.| [ | } ! Y T I D M m n y y f y y y g t y y g y y y ",
"P.U.h.h.a.V.P.P.s.y.4.g.p.K.R.[.Q.].].+X(.^.P.K.y.u.4.g.y.p.8.y.9.e.<.<.] +._ o._ [ E / C I M m n n f f t y t y q y y y q y y g ",
"J.N.c.p.p.y.V.M.g.0.8.u.h.l.Q.(. X}. X].(.V.t./ Y H H H J D D I ! ! ) ` ] ] ] ) [ ! / Y I V M B n f f f f y y a g y g y g g g a ",
"g.C.e.i.d.N.u.i.y.u.} ,.u.N.c.W.^.^.r.@.F c 7 > > : + = < 7 3 s n M n V C ! I ! / ) C T I C l l n n p f f f q y y y q q q g 0 q ",
"o.u.w.7.f.i.0.7.u.o._ | 4.p.h.h.y.~ i < = $ X . X . . X $ & = : 7 7 7 7 8 s n C E R I I V M l f f f y y y t 0 0 0 q 0 0 q 0 0 6 ",
"C <.9.e.7.a.e.d.o.E C E E } o.| M 9 : + + o X X X X o = > > = : > < , , < , 7 9 y n n B l M f l y t 8 r 8 8 8 8 6 6 6 6 1 6 6 6 ",
"J ^ 7.7.r.0.i.d.2.m n M C C C f 0 ; = + @ + + = > 7 f ~ @.~ B f p s 9 < < , , 3 7 9 7 8 y y s r r 8 6 7 6 1 7 1 1 1 1 1 6 6 8 6 ",
"n { _ 1.7.0.;.4.} I t f n n y y 1 ; - - ; , 9 f P o.` 7.y.y.<.<.o./ D V y 8 7 7 7 7 , 7 7 9 7 9 9 8 7 6 6 8 1 6 6 8 1 6 8 t 6 6 ",
"y V ) 9.l.0.#.;.] C f f f f t 6 1 ; ; , 1 8 y B Y E I Y _ _ _ / o.o.[ ` ) I n s 8 7 3 3 7 7 7 6 0 r 9 8 t 8 8 6 8 8 8 8 t y q y ",
"1 n T >.p.u.6.4._ E M n y t 6 1 , ; ; , ; 1 0 D P E I V n n y f f M M E I R I C f t 9 8 9 8 8 t t y t t 8 0 8 t t y y f y f f n ",
"+ ; M ` J.C.d.4.<.! C M t 6 1 ; - - = @ ; s J / t.y.8.,.[ E M y , - ; 8 M C C C n f s y y r y g M n f y y y y t y t f y f f n n ",
"$ + , ( Y.XXA.C.J.u.I y 8 1 ; ; - @ o = 9 s 3 3 9 w 9 r f l f p s 9 = @ , B C Y ^ I n n n M n M M m y f y y 8 y n M n M M V n n ",
"9 7 8 ..Q.;X+X(.W.g.I 6 6 6 , - = + $ @ - @ X . X   . . X # $ $ $ & & $ + , l M n n g n V V V C R E M M n t 8 8 r y y y f f y y ",
"A ^ ! M.(.1X>XoXP.4.M 0 0 y 1 6 6 1 ; , 1 9 3 & # . . . . . . . . X . X $ - , 1 6 y h Z A ! ) 2. .| E M t 8 , , ; 3 8 s s l l n ",
"m g E (.@X5X5X-XQ.| M 0 y n g M ;..._ ^ | { 3./ D s 7 7 9 9 7 3 7 3 ; ; 6 0 0 6 n m E T ^ ` ' ` { E I M n t 6 7 7 9 r s p f f l ",
"8 I M.XX,X5X@XXXP.| g q g W { { 4.d.{ R T ^ _  ._ W h m P Z g n M A Z V D g 1 q A 2.X.9.>.{ T E ^ T M C V f 8 9 7 9 7 9 s f s p ",
"t. X X@X:X-X+X(.h.( m h T ^ ` d.N.v.g.e.;.m y y g h y q y g m Z E m y 1 , 6 m { i.6.5.6.e.2...{ 4.{ ' T I f 9 6 9 7 7 7 s t y p ",
"@X=X-X>X=X@XQ.N.' E S ` Q | ..g.f.N.N.W.P.J.8.I y 6 6 1 , 1 , , ; ; , y A e.e.f.e.w.2.8.2.6.4.7.3.6...` C f 8 8 7 7 9 r t f f n ",
"=X@X$X>X=X[.P.;.W E Q 3.e.e.f.j.v.v.K.P.G.~.W.~.).A.h.y.r.,.[ / [ O.M.R.Y.J.Z.f.d.3. . .9.6.8.6.q.6.X.E D f t 8 8 r t s f f M V ",
",X1X:X,X$X[.9.' E E S { 6.v.u.k.N.J.v.Y.Q.).K.E._.oX].oXXX@X^.].}.|.K.T.K.L.j.z.v.l.;. . .2.{ 9.8.9.` E V n y y y f f n m V M I ",
",X3X3X;XXXB.X.W E A A A W E A W ' 4.l.J.W.(.W.T.}.@XXX X:X*X.X X X[.P.C.K.h.l.l.Z.y.9...X.{ X.O.1.' ! T C B l f f n n m I I P I ",
"$X1X3X&XP.J.e.6.W W m h h m g q 6 y V p.K./././.(.+X+X-X@X-X@X-X`.|.W.J.j.f.d.Z.d.f.9.9...{ { ..' _ E J B D n l s f n m Z R P U ",
"'.;X5X-XW.N.v.d.e. .m g m {  .W h 1 , 0 T u.P.W./.}.+X@X*XoX$X$X X/.W.J.J.c.N.z.h.f.e.9.....{ ) ! Y J M D D D n f f n m A T E T ",
"W.,X.X$X^.Y.K.Y.v. .Z m W j.9.e. .m ; - , f V 4.N.W.P.].XX}.(.|.[./.h.J.J.K.g.N.d.j.5.e.5.6.^ E E Y B D D J Y D n f f h Z A m Z ",
"'.,X-X@X|.(.W.J.2.A m S 9.j.0...W g , ; , 6 6 g ( 8.g.A.(.T.Y.J.W.N.v.B.K.J.d.a.l.9.7.:.5.<.` T I C D B I J ! C V C M V R R I Z ",
".X3X7X,X.X[.Q.4.M g y h g n y 0 1 1 1 y y g 0 0 y I { e.e.B.f.N.j.f.i.f.d.l.d.d.6.e.>.1.| | ) Y D J H C B Y Y Y T ! T T P A V A ",
"&X0X0X8X>XQ.` y 1 ; = = @ + + @ - 1 6 y g y g g y q f V ! X.4.2.9.6.5.8.w.d.i.2.+.;.+.o.] ! T J J Y Y J J H J Y o.` / ! E Z Z V ",
"5X0X9X&X.Xr.8 ; = + + @ @ + + = ; , , 1 1 0 q g q 8 1 7 f U I ) ' { ( | 4.4._ | | o.E E E E D J Y Y J J Y J B / $.r./ E I Z M Z ",
"1X&X#XQ.y.M , @ @ + + + + + + + = - = - - ; , 1 , , ; ; ; 6 n I ! ! R E ] ` ! T ( E I Y I C C C Y E Y R J D B ~ [ [ Y V C Z m m ",
"'.(.h.<.f 1 - @ $ + + + + @ @ = = - - = + - - - - = @ = = = > p E _ ^ ! R E T ^ P R P C B C M C D R P E C J D C H J M M n m V m ",
"8.,.o.~ f ; - ; , ; - = - = - - ; ; ; = = - - ; ; = = & & $ + = 9 M ! ! E R U T A I I I D D M D C C Y Y I l l l B C n n C m V Z ",
"B I f t 1 ; - t M y , , ; ; - ; ; < - ; ; ; ; , , , : > < > + + = < t Y E ! A E E R C Y J C B D H J D J J B l B H F f M C E m Z ",
"p y 6 , ; ; f M I l t 6 1 , , ; , 1 , ; , , , , 6 6 1 7 7 < = = = = - 6 I Y U T ^ R E E ~ H B B H J J J D c B F K B f n C C V V ",
"8 f 0 6 6 f :.e.{ E M g 6 6 1 6 6 g y y 8 q 6 8 q q 0 8 6 6 < = @ : = ; 0 C E ^ ' +.+.o.~ J D H D Y J H x c F K F l f l l B M D ",
"s l y f M T ) o.4.| E h g y g g h h h g g y 0 0 q q q 8 8 8 7 , : : - ; , g ^ )  . .X._ ` J H B H J J F B c F F F B l l B B B B ",
", 1 8 f n n g n m V h h y y 6 1 6 6 1 1 , , - , , , ; ; , , , ; ; ; ; 1 1 t M ! :.:.{ { ..) B C H Y H c x c f l x H c B B C l B ",
"@ @ = , , ; ; , 6 1 , - - @ @ $ + + + + + $ $ + @ @ @ = - = = - 1 y f l M y n { 1.+.| ] ` T D B H G F f l i f f f B B H H B B B ",
"- - , 1 , , ; - = @ @ @ @ = = - = - - - - ; ; , 1 0 0 q 8 0 0 g C  .` ,.) n m ..` ..` ] E T D H B G x f r d c f d l B J J Y Y I ",
"r s n Z C D N j j t 0 t y t p a p t p p j a p y a a y q y g Z  .B.d.4.;.' M I ) [ / / ~ C B H B H c f r f x d s f B H J / / ! ~ ",
"D C f M I I D B N D f p p f 9 8 9 9 7 8 r s 8 t y t 0 t f M E p.J.f.+.;.) M V  .{ [ I C M D B B B c r r x l s f c G F L %.~ H H ",
"B J M M n t 8 9 9 3 7 3 7 7 3 < < > < < 7 7 9 9 t t t y D E ;.h.x.p.<.o.! M E ` ' E C B B M B V C f r 9 f x d f H G K K L H H B ",
"F [ J n y t 3 3 < < 3 9 7 7 7 3 < < > < < 7 9 y s f f B V ) O.j.g.x.p.4.! C ! | E ! C B l B C J B f 9 r f L B c c H G K J / / / ",
"F K ! C n f 9 , , < 3 r f y t 9 7 7 , 3 9 9 s n C T R ! ) o.4.p.S.x.g.,.[ T ` E R E C B D J Y C C f r s f x K H c c F H / $.$./ ",
"c G L [ J D t 1 , < > p Y J f f l l f M D ~ T [ 4.y.<.8.4.h.7.y.t.y.,.o.` / E ! ) ^ m C Y J J J H f r e 7 9 x G c B l H ~ $.$.7.",
"z G F H J D f 8 8 8 t H O.[ Y H ~ ,.,.$.t.t.t.y.P.h.0.7.t.7.8.r.t.t.#.) o.` ` ! | ! I R [ Y Y Y B d x d u e s B J H B H L %.r.0.",
"w F F F c c l D f n l J } y.<.p.4.g.x.G.m.P.G.].'.G.y.y.<.<.o.r.O.,.E ) / [ [ } ) o.O.<.[ / ~ ~ l i d z e e 9 s x H J J @.%.@.@.",
"w z G F r 3 w i I ! 4.` 8.k.u.p.x.C.L.(.]. X.X.XoXH.G.m.S.t.,.,.o./ P Y ! ! ] o.o.,.8.u.t.O.[ K c e z z k i i 3 3 s B J L F i w ",
"5 5 b d 5 2 * 5 x [ t.P.h.K.0.u.d.R.h.W.^.XXI.W.].].t.t.y.M.4.u.,.[ I E ^ } ) O.1.t.<.h.A.M./ J c w w c z z e 3 = 3 9 r 7 5 4 4 ",
"% * 2 w w * # & 2 e B D.].C.p.q.p.h.A.A.T.!.M.y.c.y.4.+.3.0.>. .` ! E ! | ` O.<.[ t.y.J.).W.$.G c d 3 e e 5 7 3 & & > : > < < 4 ",
"O # % 2 4 4 # # % * 4 d G.$XS.,.u.}.|..X(.).G.^.A.R.M.c.u.0. .#.E E P E ( o.#.u.o.y.V.Q.W.(.%.K z i k 4 4 > 2 4 % # > 3 3 9 7 i ",
"O O O % * 2 & O O # & < [ @X$X{.1X,X,X,X4X7X3X1X:X;X=X@X].^.^.^.A.r.R Y E E ) o.<.s.A.U.|.(.&.G c e w 4 4 * & & # # < 7 r d f x ",
". . . # % * & # . O $ < o.].$X7X9X0X8X7X7X9X8X0X0X0X3X7X8X5X+X+X@X;X'.n.@.J D ] h.U.S.].+XH.L F c w * * & & O O O # & < 9 r r d ",
". . . O # & % # . X # d t.XX<X<X7X8X8X<X2X2X2X2X6X6X2X2X2X2X%X%X&X%X%X%X%X-.L &.D.F.F.OXOX-.b v k w * & & # O O # # % * 5 5 w u "
};
