/* XPM */
static char *out[] = {
/* columns rows colors chars-per-pixel */
"64 64 205 2 ",
"   c #2B1608",
".  c #4A2415",
"X  c #5C2C1A",
"o  c #68321E",
"O  c #583F2A",
"+  c #763A24",
"@  c #7E3D26",
"#  c #63432F",
"$  c #6E402D",
"%  c #6A4D37",
"&  c #77523D",
"*  c #7F5D46",
"=  c #814A35",
"-  c #8E4B34",
";  c #96523A",
":  c #865540",
">  c #8C5D46",
",  c #9D5943",
"<  c #955F49",
"1  c #A45E45",
"2  c #89664F",
"3  c #9B644E",
"4  c #916A53",
"5  c #9A6F56",
"6  c #AB644A",
"7  c #A16851",
"8  c #AD6D51",
"9  c #A86D58",
"0  c #B36A51",
"q  c #B76F53",
"w  c #A1765D",
"e  c #A7755C",
"r  c #AE755B",
"t  c #B4715D",
"y  c #B97658",
"u  c #A87B63",
"i  c #AE7D64",
"p  c #BD7564",
"a  c #B27861",
"s  c #B47F64",
"d  c #BB7E63",
"f  c #C1785B",
"g  c #C87E61",
"h  c #AC836B",
"j  c #BE8466",
"k  c #B3876E",
"l  c #BA876A",
"z  c #BF8B6C",
"x  c #B78C72",
"c  c #BC8E72",
"v  c #C38264",
"b  c #CC8566",
"n  c #C78568",
"m  c #C4816F",
"M  c #C48A6C",
"N  c #CC8C6D",
"B  c #CC8C6E",
"V  c #D18969",
"C  c #D48C6E",
"Z  c #D88F6F",
"A  c #C88973",
"S  c #CC8A78",
"D  c #C39072",
"F  c #C69677",
"G  c #C89172",
"H  c #CC9475",
"J  c #CA997A",
"K  c #CF9C7E",
"L  c #D19071",
"P  c #D09072",
"I  c #D29172",
"U  c #D09273",
"Y  c #D39273",
"T  c #D49374",
"R  c #D59475",
"E  c #DA9472",
"W  c #DD9876",
"Q  c #D79778",
"!  c #D1967C",
"~  c #D89778",
"^  c #D59A7B",
"/  c #D99878",
"(  c #D9997A",
")  c #DA9A7B",
"_  c #DC9B7B",
"`  c #DB9C7D",
"'  c #DA9D7E",
"]  c #DE9D7D",
"[  c #DC9D7E",
"{  c #DD9D7E",
"}  c #E09E7D",
"|  c #E29F7D",
" . c #E2A07F",
".. c #DD9E80",
"X. c #DE9F80",
"o. c #DF9F80",
"O. c #DD9986",
"+. c #D4A082",
"@. c #DFA081",
"#. c #DCA386",
"$. c #D8A485",
"%. c #DCA88A",
"&. c #DFAB8E",
"*. c #DFAF94",
"=. c #E0A081",
"-. c #E2A181",
";. c #E3A181",
":. c #E0A182",
">. c #E1A283",
",. c #E3A282",
"<. c #E5A382",
"1. c #E4A383",
"2. c #E5A383",
"3. c #E5A484",
"4. c #E6A585",
"5. c #E7A685",
"6. c #E7A686",
"7. c #E8A787",
"8. c #E9A887",
"9. c #E0A58A",
"0. c #E3AC8D",
"q. c #E7AD8F",
"w. c #E8A888",
"e. c #E9A989",
"r. c #EAA989",
"t. c #EAAA8A",
"y. c #EBAA8A",
"u. c #EBAB8B",
"i. c #EBAC8C",
"p. c #EBAE8F",
"a. c #ECAC8C",
"s. c #EDAD8D",
"d. c #EDAE8E",
"f. c #ECAE8F",
"g. c #EDAE8F",
"h. c #EEAF8F",
"j. c #EDAF90",
"k. c #E4B195",
"l. c #E9B193",
"z. c #EDB091",
"x. c #EEB090",
"c. c #EFB090",
"v. c #EDB192",
"b. c #EEB192",
"n. c #EFB293",
"m. c #ECB496",
"M. c #E6B599",
"N. c #EAB79A",
"B. c #EEB899",
"V. c #EEBC9E",
"C. c #F0B293",
"Z. c #F0B394",
"A. c #F0B495",
"S. c #F0B496",
"D. c #F1B596",
"F. c #F1B597",
"G. c #F2B596",
"H. c #F2B698",
"J. c #F2B798",
"K. c #F2B799",
"L. c #F3B899",
"P. c #F2B89A",
"I. c #F3B89A",
"U. c #F3B99A",
"Y. c #F3B99B",
"T. c #F4B99B",
"R. c #F4BA9C",
"E. c #F4BB9D",
"W. c #F5BB9D",
"Q. c #F5BC9D",
"!. c #F5BD9E",
"~. c #F5BD9F",
"^. c #F5BE9F",
"/. c #F1BFA1",
"(. c #F5BEA0",
"). c #F6C0A1",
"_. c #F6C0A2",
"`. c #F6C1A2",
"'. c #F6C2A3",
"]. c #F7C2A3",
"[. c #F6C3A4",
"{. c #F7C3A5",
"}. c #F2C4A5",
"|. c #F7C6A7",
" X c #F7C8A9",
".X c #F0CBAD",
"XX c #F4CDAE",
"oX c #F8C8A9",
"OX c #F8C9AA",
"+X c #F8CAAB",
"@X c #F8CBAC",
"#X c #F8CCAD",
"$X c #F8CDAE",
"%X c #F9CEAF",
"&X c #F3D1B3",
"*X c #F0D4B6",
"=X c #F6D4B6",
"-X c #FAD3B4",
";X c #FAD7B8",
":X c #F1D8B9",
">X c #F7D8BA",
",X c #F5DBBB",
"<X c #F6DDC0",
"1X c #F9E1C3",
"2X c #FBE5C7",
/* pixels */
"*.b.3.5./ M h h u h c K +.&.*.k.*.*.*.k.k.N.k.k.N.l.N.B.B.N.k.l.l.q.w.q.w.b.p.q.q.p.w.w.4.p.w.w...X...=...-.{ { Q Q L T T R I Y ",
"%.e.h.s.-.U l h u h F +.&.k.N.k.*.k.k.k.N.N.N.B.B.B.^.W.Y.^.I.K.Z.J.J.p.T.S.S.Z.C.h.u.u.p.p.t.3.o...=.` ;. .{ ] _ Q L P T I I P ",
"G  .} 5.3.[ A c G +.$.N.P.Y.m.l.I.B.k.I.'.'.^.^.(.R.Y.^.^.'.n.K.Z.T.i.n.Z.n.i.f.f.s.3.6.e.h.3.<.} =.R ] =.3.) { { ) B L P C V C ",
"c / _ W } ..>.0.P.W.H.K.^.^.Q.Y.^.(.Y.^.`.(.Y.Q.[.R.K.H.W.R.H.K.I.J.f.f.n.f.e.e.a.7.1.8.i.s.4.] ] o./ / -.:._ { { Q U B T C V C ",
"j _ _  .9.x.m.D.R.W.Y.~.Y.~.Q.(.Q.Q.Y.~.^.).K.R.K.!.Y.I.D.I.D.I.G.J.J.z.q.i.w.h.7.w.4.u.q.i.<.#.' } { :.` @.{ @.) / L L V V b C ",
"G } } ;.i.s.C.P.!.).^.Y.R.^.^.K.!.Y.!.Y.'.^.F.I.P.K.Q.F.G.U.K.H.T.Y.^.D.h.s.s.t.u.s.u.w.h.t.3...@.{ :.>.>.} @.{ / R I V V N V V ",
"H -.) @.1.i.w.P.R.^.K.Y.Y.^.S.I.I.'.B.^.'.'.p.F.Y.E.B.^.Y.R.S.^.I.T.D.I.f.b.4.u.s.x.8.i.h.s.>.X.:.1.` @.:.1.` { Q R B b N b g b ",
"l l u e s c ^ w.Z.Y.F.Y.Y.Q.T.S.D.W.H.S.Q.Q.A.p.D.D.K.U.`.'.^.).[.^.D.l.i.w._ ( >.@.) ^ @.{ ] =.3.;.....>.>.@.) _ T N g V n n g ",
"> : = + $ $ > s H 1.w.Z.Z.T.D.F.s.Z.J.T.D.J.p.b.i.b.Z._.[.|.'.'.^.I.q.[ z j a a r s a a d N B U L ) ^ @.X.] @.@.U L b n v g f g ",
"e e 3 & $ o $ = < a B >.b.p.D.S.i.p.b.J.J.C.u.w.t.t.b.(.(.Y.m.&.H a 7 > = $ o X $ + : : 3 9 a y d d n U ( ) } _ Q B n v n v v f ",
"$.&.$.+.l e < > ; 9 y n >.b.p.c.p.v.8.i.h.b.3.>.-.i.w.Z.J.q.B 9 : + o X X X . . X $ $ + : > > , 3 7 , 8 d B n U U B d j n v f d ",
"#.4.p.k.q.&.K M d y y j Q 3.e.s.g.s.t.i.s.4.Q R / ( ` @.>.M 9 : = o X X X o $ & 5 r w 3 3 < 3 , , ; ; , 7 9 7 9 s j d d v v f d ",
"( ^ ( >.9.1.#.( G n n B I ..4.s.e.s.6.b.i.1.P N n B A L v 8 > : + @ @ = > e l ! #.1.>.( B H M a 8 7 3 1 , 7 3 3 > 3 3 9 t y t y ",
"d B q.B.D.l.p...! j y v Q } e.i.u.8.s.w.t. .n f v n n d y 1 ; - - - 7 9 j U _ @.w.>.1.>.>.>...` ) N d t r 7 3 < > > > ; 7 8 0 8 ",
"M Z.C.Z.k.1.#.#.` L y a n Q ) w.r.s.2.i.t.3.b d v d y t 8 6 - ; , 7 8 y v B n N M n v n N L U _ ( ) B B N j 7 7 3 < > > ; 1 1 1 ",
"! w.+.h 5 > * * 3 9 8 0 y n R ;.D.b.>.8.i.-.R n n d y 6 7 , ; ; > - , y ( >.>...( L v y 8 1 , r n P U B A n d t t 8 7 7 9 8 6 6 ",
"G s $ .   . .     X + ; 1 d V { h.I.b.b.p.w._ T v y 8 1 ; ; - = + ; j B A ! G G v z l j y r ; @ - d B R B I n n d d d j 8 t 8 8 ",
"4 .     . & .       . o + - v / C.'.'.Y.I.b.4.V y 6 7 , ; - + X : 9 , + O # . . . . # $ & : : & o = j ! { R n g v v v n v d y y ",
"$ . . O % & O . . . O + + + ; ] Z.+X+X[.'.^.4.b 6 6 1 ; - - + + - @ o $ . O                   . X X - d y t 8 y f v y v v f 8 y ",
"7 a r l l u 5 < 5 5 9 8 9 1 y 8.Q.%X-X+X|.I.` y 1 6 6 ; 8 y 7 3 7 r a s s 2 % $ $ + & $ + & $ o o + ; 1 1 f B R ] _ _ { { n v v ",
"_ ( w.i.p.p.9.4.' I B U / @.8.J.Q.%X;X%X'.Z.T y 6 0 v g B <.w.-.{ ;. .1.>...N n M B B N f a t y d n y , 6 v B _ Q =.;. ._ n t y ",
"w._ #.:.` R R I T R R C V b ;.I.|.+X-X%X'.i.I y 0 y L { 6.{ 4.3.] T R ) } _ R P g v v n V Z / C g 6 - 0 R ;. .T V n n v d y 8 6 ",
"J.J._ C V C V C V g q 0 f >.I.'.%X-X+X|.T.3.b n b V N { s.h.8.h.s.4.N f 0 t 8 q 0 y y f y y , ; - 1 g / ;.4.} ;. ._ v y n I j d ",
"^.^.I.w.E f 6 6 1 6 t U I. X X+X%X+X[.T.p.R V C / } _ ] i.s.s.s.Z.J.J.q.>.H d t 8 1 ; ; ; ; 1 g } 3.8.i.4.} _ ] <.<.} / -.{ n a ",
"J.W.'.'.^.T.b.i.w.l.Q.@X|.@X%X@X+X%X'.J.{ Z V E / 5.u.s.i.h.t.s.S.D.D.J.J.Q.^.^.D.I.b.p.p.Y.I.T.b.b.i.i.4.3./ _ { 3.<.3.4.8.L d ",
"I.|.+X|.].(.].'.|.+X+X+X@X-X%X-X%X|.^.i.] Z V Z / ] <.<.h.s.s.m.I.K.K.Z._.!.).Q.^.'.'.K.).^.T.b.x.s.s.s.s.8.;./ / 3.5.3.t.8.R d ",
"Q.|.[.%X%X|.).|.+X#X'.|.%X=X%X;X%X'.Z.t. .E V C V V g g g b I 8.C.!.Z.~.].^.).[.'.|.Y.W.'.'.I.D.h.f.<.5.i.s.<.<._  .} 4.8.i.L d ",
").|.%X-X-X X'.|.%X%X+X[.%X-X>X<X%X^.C.i.t.<./ V f y f f f 6 1 y T s.D.^.^.].'.|.+X|.[.'.+X[.T.D.b.s.e.6.s.8.8.4.8.]  .;.w.3.R d ",
"Q.+X-X>X#X%X$X%X+X%X|.+X+X%X>X1X+X^.C.C.b.b.<./ g g Z <.] Z 0 ; , d } b.J.^.'.oX|.|.|._.'.'.I.J.b.p.u.s.3.i.w.t.-.,._ ;.;.<.T v ",
"^.|.%X>X-X%X#X+X X|.[.^.'.+X>X>X+X^.C.D.I.b.{ C N C <.s.t. .C 1 - - 6 n >.C.Q.^.oX|.[.^.W.I.Q.D.h.a.u.t.t.3.8.8.8.o.=.|  .;.R v ",
"Q.|.[.%X%X#X~.'.Q.p.{ 4.[.-X-X-X%X|.I.T.Y.;.g f b _ ] ;._ C f 6 1 6 1 6 v ` 4.D.I.(.P.W.I.I.s.g.b.p.5.8.y.8.<.w.8.8.) } _ } A n ",
"I.^.[.^.^.D.s.-.R y 0 q.+X;X>X;X-X+X).J.-.f 6 1 6 6 1 , , , , 1 y g f y y d I -.p.C.G.b.J.c.s.u.s.u.t.5.7.8.-.-.4.-.) Q ` ) N v ",
"h.I.S.I.s.4.C f , ; B '.+X1X1X1X<X%X^.{ y , = + o + + + @ - 1 6 0 y q f f y y b / 4.q.g.u.s.s.i.6.w.t.w.>.3.:...` ..Q ^ ( ^ A N ",
"b.C.b.s.-.V y ; = v ^.%X;X2X1X<X;X'.w.y , @ + + @ @ + + - - - ; , 1 6 q f v q 8 f B _  .<.<.3.7.-.3.=.X.;.@.| ` ) ^ T / ` Q L B ",
"s.s.4.} C f ; = j B.+X;X1X<X%X+X^.l.v , - + + + o + o o @ - = - - - - 1 6 6 , 1 1 8 v R o.} R ) } ..Q ) } ` Q ! U ! U ! ( ^ U Q ",
"3.;. .C g 6 - 6 &.'.+X-X-X+X^.k.' f 1 - @ + + + + + + + = - - = = + @ - ; ; - = - - , j ) @.) / / R T R ^ / R H H G U ! / R ) / ",
"] } / V 0 ; ; H k.+X'.!.m.Z.p.p.B 8 ; ; 1 6 ; ; - - - - - - , ; = = = - - ; : = + = + : r Q }  .Q Q R Q I R I U M M U ( Q ` ' ( ",
") / Z g 6 ; t ( q.q.' ..#.( ^ U d , ; 8 L L r 1 ; ; ; - - ; , , ; ; ; - ; ; ; - : = + + = 9 B Q ~ R R R R R Q ! M M U ^ ` ^ ( U ",
"Q / V y 6 , d @.{ v t n I v 8 1 - = 1 n / ( n f 0 1 ; ; - ; - , , ; ; ; , , ; 7 3 < = + @ : , n Q Q L Q ) ) ! ( G z A Q ( ^ B V ",
"L T N t 6 1 j ! j 8 8 d n y 6 7 , t 1.h.8.;./ C g q 6 , 1 6 q 6 0 6 1 1 6 6 6 6 8 7 ; = = + = 1 N I I ! { [ _ ' H j M H Q ! B b ",
"N T N f 1 6 j G r 9 7 d v v t d j Q t.J.p.s.-./ V g f y f g b V n b f q 0 y q q 6 6 , ; = = = - 8 B T _ X.#.>.1.H j M U U ! B V ",
"n T I v 8 0 y M a 9 r v n V V / { ) ) <.t.3.;./ C V V V C V V V V g f y y y 0 8 6 6 7 ; : = = ; 1 n R ) 9.4.4.#.H M M H ! U I b ",
"M ^ T n 8 y y z r 7 7 8 t g n V V C V Z Z Z g v g y 6 6 6 0 6 0 6 , - ; , , - - - - = : : ; ; 8 8 v I :.3.4.@.' H D z G K ^ N V ",
"l / ` Q d y B a 7 - @ @ - 1 6 1 6 6 0 0 q 0 6 1 1 , - - ; , ; - - = @ @ = = @ + @ @ = = , y j B n d / ] >.;._ T H D M G K H N B ",
"s ! o.1.B d B n 9 7 ; 1 6 0 6 0 6 0 8 0 6 0 q y y p p m p v y q 0 0 0 0 8 0 8 8 8 6 1 8 n @.{ 4.N n { -._ @./ ! A D M J K F M A ",
"l M +.q.1.B B ^ G v v g V b R / ` ) ) @.>.1.>.1.>._ Q R S m m m b v f f f f p y p y g R i.t.<.@.L L ] | ` ( Q M z z M G F G M n ",
"F ! H i.p.( v H ! Y N C V } ) ] ;.<.O.o.>.q.>.>.R S S S p p p p y y y p f f 0 0 y V / h.C.i._ _ N / { -.{ ) M z l z j M z A j n ",
"K K H #.b.i.U M Q L C R Z / / R ! Q U B I S B m j t 9 9 7 7 7 7 7 7 0 q a y 8 t v / p.C.Z.1.{ L n ) <.@.) B j s l s z l z G M M ",
"F $.+.+.w.b.w.B U Q R / C v t 8 9 r 9 9 9 9 9 9 7 7 < < > < > 4 < 7 7 r 8 y y d L t.Z.J.w.>.>.B f ` { ) I n s s a l l s M H B P ",
"K $.#.+.$.p.p.! M ) ) / R v y 8 7 7 9 r a r r 9 9 7 < > < > < < 3 7 7 9 a d v B >.p.C.p.w.w.>.v n Q / L N s a a s s s M U H ! ( ",
"+.&.+.$.$.$.4.>.M / } _ Z n t t t y a d j j d a r 9 < < < < < 7 r j f j B B B >.n.D.q.t.b.Z.Q v R _ L B n a e s a a s F H ' ! G ",
"+.%.$.+.$.+.+.! G n } { E n y y f n U U R U M d d r 9 9 9 9 a j B ! ( ( [ ` { q.m.Z.q.w.b.i.N v Q T I B j r a a s s D J +.K G z ",
"K %.$.%.K K l l M M / ;.E V y d v ` i.s.<.4.} Q B n j M n U ( >.>.p.p.p.>.1.>.z.w.p.w.q.4.>.n I R T B M r r l D s D G K J K ! ! ",
"G $.%.$.$.c e < w l ` 4.{ E n v R p.b.p.1.>.>.-.8.8.9.0.q.l.Z.C.D.b.p.1.>.#.q.q.l.w.w.w.w.@.H Q ` ^ B a r s l J F M M G F K ' ! ",
"c +.K $.K c w * > 5 G p.i.<./ / 4.K.b.h.p.i.1.e.z.m.q.m.S.B.p.m.I.I.1.>.>.i.1.w.4.q.:.8.w.9.Q _ ' ..M r r 9 7 s J M d z G K ' 9.",
"k J K K K l 2 & * * w 1.I.t.8.e.t.b.I.b.T.n.D.Z.B.J.B.B.'.|.'.Y.^.D.4...4.3.o...>.-.:.-.i.:.#...@.( l s j e 9 r G H G z G H #.0.",
"w D J K F l * % % & < G J.J.w.Z.s.t.K.Q.Y.^.^.(.^.'.(.[.}.|.[.Y.>.w.w.w.1.[ ` ..' -.-.w.i.h.1.' ' ! j k h u w r r M G G G ^ +.$.",
"w k F K c u & % % & 2 r k.'.Z.t.g.s.i.b.!.(.Q.W.^.Y.~.^.'.B.B.l.4.w.w.>.>._ ( ' X.>.w.w.z.b.p.#.( G i l s u u e 7 9 d G U K l e ",
"5 w c c l w % # % & & 4 H +X^.C.i.s.4.s.I.E.Z.J.q.v.w.p.i.d.4.6.i.t._ { { [ _ X.>.w.9.0.I.Q.l.9.^ G 5 l c l u u : > 7 r s 7 4 4 ",
"% * 2 5 h 5 % # # % & * s ).|.Y.w.7.q.T.!.L.Y.D.S.h.u.6.e.-.@.] X.~ Q R { _ { 3.3./ 1.v.Y.^.m.+.G z w 5 u 7 3 7 > $ = > > < > 4 ",
"O O # * 4 5 & O # # & > 8 I.%XY.$.(.{.+X|.|.^.].^.^.G.Z.s.D.u.s.;.Q P I R _ :.1.4.,.j.K.K.'.m.K D i k 5 2 > : 4 % # > 3 3 9 5 i ",
"O O O % * 2 * O O O % : j !.%X%X=X-X-X-X-X>X>X=X$X$X+X+X+XR.^.I.S.p.( U Q R / ..>.g.Z.P.(.).q.G D e w 4 2 * & & O # < 7 r s d l ",
". . . # % * & # . O $ < ..(.OX>X<X1X,X>X>X<X,X1X1X1X=X>X,X;X|.|.|.@X/.k.+.H A ` p.F.m.(.|.V.K D l w : * & & O O O # & < 9 r r s ",
". . . O # & % # . X # s 0.[.%X&X>X,X,X&X*X*X*X*X:X:X*X*X*X*X.X.XXX.X.X.X.X*.K %.M.N.V.V.}.*.c x l w * & & # O O # # % * 5 5 w u "
};
