/* XPM */
static char *out[] = {
/* columns rows colors chars-per-pixel */
"64 64 209 2 ",
"   c #2B1608",
".  c #4A2415",
"X  c #5C2C1A",
"o  c #68321E",
"O  c #583F2A",
"+  c #763A24",
"@  c #7E3D26",
"#  c #63432F",
"$  c #6E402D",
"%  c #6A4D37",
"&  c #77523D",
"*  c #7F5D46",
"=  c #814A35",
"-  c #8E4B34",
";  c #96523A",
":  c #865540",
">  c #8C5D46",
",  c #9D5943",
"<  c #955F49",
"1  c #A45E45",
"2  c #89664F",
"3  c #9B644E",
"4  c #916A53",
"5  c #9A6F56",
"6  c #AB644A",
"7  c #A16851",
"8  c #AD6D51",
"9  c #A86D58",
"0  c #B36A51",
"q  c #B76F53",
"w  c #A1765D",
"e  c #A7755C",
"r  c #AE755B",
"t  c #B4715D",
"y  c #B97658",
"u  c #A87B63",
"i  c #AE7D64",
"p  c #B77764",
"a  c #BD7564",
"s  c #B27861",
"d  c #B47F64",
"f  c #BB7E63",
"g  c #C1785B",
"h  c #C87E61",
"j  c #AC836B",
"k  c #BE8466",
"l  c #B3876E",
"z  c #BA876A",
"x  c #BF8B6C",
"c  c #B78C72",
"v  c #BC8E72",
"b  c #C38264",
"n  c #CC8566",
"m  c #C78568",
"M  c #C48A6C",
"N  c #CC8C6D",
"B  c #CC8C6E",
"V  c #D18969",
"C  c #D48C6E",
"Z  c #D88F6F",
"A  c #C88973",
"S  c #CC8A78",
"D  c #D08B78",
"F  c #D38E7E",
"G  c #C39072",
"H  c #C69677",
"J  c #C89172",
"K  c #CC9475",
"L  c #C09379",
"P  c #CA997A",
"I  c #CF9C7E",
"U  c #D19071",
"Y  c #D09072",
"T  c #D29172",
"R  c #D09273",
"E  c #D39273",
"W  c #D49374",
"Q  c #D59475",
"!  c #DA9472",
"~  c #DD9876",
"^  c #D79778",
"/  c #D1967C",
"(  c #D89778",
")  c #D59A7B",
"_  c #D99878",
"`  c #D9997A",
"'  c #DB9A7A",
"]  c #DA9A7B",
"[  c #DC9B7B",
"{  c #DB9C7D",
"}  c #DA9D7E",
"|  c #DE9D7D",
" . c #DD9D7E",
".. c #E09E7D",
"X. c #E29F7D",
"o. c #E2A07F",
"O. c #D89380",
"+. c #DD9E80",
"@. c #DE9F80",
"#. c #DF9F80",
"$. c #D4A082",
"%. c #DFA081",
"&. c #DCA386",
"*. c #D8A485",
"=. c #DCA88A",
"-. c #DFAB8E",
";. c #DBAB91",
":. c #DFAF94",
">. c #E0A081",
",. c #E2A181",
"<. c #E3A181",
"1. c #E0A182",
"2. c #E1A283",
"3. c #E3A282",
"4. c #E5A382",
"5. c #E4A383",
"6. c #E5A383",
"7. c #E6A483",
"8. c #E5A484",
"9. c #E6A584",
"0. c #E6A585",
"q. c #E7A685",
"w. c #E7A686",
"e. c #E8A787",
"r. c #E9A887",
"t. c #E0A58A",
"y. c #E3AC8D",
"u. c #E7AD8F",
"i. c #E8A888",
"p. c #E9A989",
"a. c #EAA989",
"s. c #EAAA8A",
"d. c #EBAB8B",
"f. c #EBAC8C",
"g. c #EBAE8F",
"h. c #ECAC8C",
"j. c #ECAD8D",
"k. c #EDAD8D",
"l. c #ECAE8F",
"z. c #EEAF8F",
"x. c #EDAF90",
"c. c #E4B195",
"v. c #E9B193",
"b. c #EEB090",
"n. c #EEB091",
"m. c #EDB192",
"M. c #EEB192",
"N. c #EFB192",
"B. c #EFB293",
"V. c #ECB496",
"C. c #E6B599",
"Z. c #EAB79A",
"A. c #EEBC9E",
"S. c #F0B293",
"D. c #F0B394",
"F. c #F0B495",
"G. c #F1B495",
"H. c #F0B496",
"J. c #F1B597",
"K. c #F2B596",
"L. c #F2B697",
"P. c #F2B798",
"I. c #F2B799",
"U. c #F3B799",
"Y. c #F2B89A",
"T. c #F3B99A",
"R. c #F3B99B",
"E. c #F4B99B",
"W. c #F4BA9B",
"Q. c #F4BA9C",
"!. c #F4BB9D",
"~. c #F5BB9D",
"^. c #F5BC9D",
"/. c #F5BD9E",
"(. c #F5BD9F",
"). c #F5BE9F",
"_. c #F1BFA1",
"`. c #F5BEA0",
"'. c #F6BEA0",
"]. c #F6C0A1",
"[. c #F6C0A2",
"{. c #F6C1A3",
"}. c #F7C2A3",
"|. c #F7C3A5",
" X c #F2C4A5",
".X c #F7C5A6",
"XX c #F7C6A7",
"oX c #F7C7A8",
"OX c #F7C8A9",
"+X c #F0CBAD",
"@X c #F4CDAE",
"#X c #F8C8A9",
"$X c #F8C9AA",
"%X c #F8CAAB",
"&X c #F8CBAC",
"*X c #F8CCAD",
"=X c #F8CDAE",
"-X c #F9CEAF",
";X c #F3D1B3",
":X c #F7D1B2",
">X c #F0D4B6",
",X c #FAD3B4",
"<X c #FAD7B8",
"1X c #F1D8B9",
"2X c #F7D8BA",
"3X c #F5DBBB",
"4X c #FADDBE",
"5X c #F6DDC0",
"6X c #F9E1C3",
/* pixels */
":.n.9.7._ M i j u l H I I ;.;.c.:.c.:.c.;.:.c.c.:.C.:.Z.C.C.c.c.c.:.=.c.y.l.i.u.y.y.t.y.8.u.y.y.t.t.2.i.2.5.] ' ^ _ ^ ' ( ^ W E ",
"*.s.k.h.w.Q z j u u I I $.=.=.:.:.:.:.;.:.:.:.:.:.:.c.c.C.c.c.:.C.:.y.t.y.v.u.y.y.t.t.&.i.t.w.t.0.2.0.7.i.5..._ ' ' | { | ' W Y ",
"G ..X.9.4.^ f l i j G I $.;.;.;.:.C.;.c.c.c.c.c.C.C.:.c.C.Z.:.c.C.C.=.y.v.B.y.v.y.y.&.p.f.l.u.u.u.p.1.0.i.w.' ' [ [ Q | ..' U C ",
"x Z ! ~ ~ Y d i u l G I *.;.;.;.:.C.-.;.c.:.:.;.:.C.:.c.Z.C.:.:.C.c.y.y.D.D.n.n.I.x.n.n.D.m.g.j.l.f.i.w.e.@.| ' | ' [ | ..( T C ",
"z Z V C C Z b k l G $.$.$.;.;.C.C.C.:.c.:.:.:.C.C.Z.Z.A.Z.C.J.E.R.[.E.R.D.Y.J.E.G.B.n.D.u.l.d.g.i.p.i.w.o. .` { ^ ' +.>._ Q C C ",
"G ~ Z ! ~ ~ B R t.C.C.C.C.Z.Z.A.{._._.A.A.Z.R.A.{..XXX}.'.I._.'._.'.I.I.Y.L.F.H.B.z.u.i.f.u.w.0.w.q.d.w.@.{ ' { ' ] 2. .` U V V ",
"G ..Z ! | [ ^ 0.D.Y.J.^.'.}.'.}..XXXR.[.[.[.I.^.]..X_.[.'.'.I._.E.[.J.J.L.J.g.J.M.D.2.p.f.g.5...i.a.i.a.o.2.( +.%.2.] >._ W m m ",
"G ..Q ~ ^ R ^ ) &.i.p.D.^.].'.]..X}.].).|.E.L.J.`.[.'.^.'.E.L.Y.Y.R.D.F.I.I.J.D.Y.B.x.p.f.s.w.0.d.d.d.w.r.@.+.+.%.2.+.+.^ Y h b ",
"G [ C b 9 5 3 3 < 5 r / f.Y.I.'.E.[.^.}.~.~.B.L.E.[.'.[.J.L.n.Y.B.E.L.L.~.[.'.^.J.L.z.d.w.p.i.d.i.p.i.s.6.2.5.2.@.3.+.1.Q V h h ",
"z W y , > : = # X X # = 7 K =.n.D.I.).'.~.B.x.m.J.E.L.K.B.z.B.D.Y.~.'.~..XXX[.'.D.n.5.@.+. .@.+.` _ ) { @.{ 2.2.2.%.+.+.! n h g ",
"z +.m m R *.H l > & o $ = < 9 J %.S.V.J.J.D.w.l.I.^.x.n.z.x.0.f.I.^.^.}..X#XZ.C.y.I d r r 9 7 r s s y b B Q ( { @.%.` { Q n g g ",
"L &.| @.n.D.I.Z.C.H r 3 3 < 7 y B ^ 0.g.D.d.7.p.L.J.l.i.i.w.0.i.J.^.I.I.Z.=.G r 3 : $ o o X X $ : : < 9 f k b b W ^ ^ W V h g g ",
"H t. .7.i.g.n.D.C.v.t.} J b s f k B +.z.d.z.w.d.d.x.p.i. .@.+.w.d.L.g.@.f 3 = $ o X . . . . . o o + = > - , , 3 8 f m W m g y g ",
"H y.%... .^ ^ +.+.2.&.^ Y Y M M N Y { 0.f.g.s.a.d.d.i.+.^ ! ^ ^ ` &.^ y < & $ o X X X X o & 4 5 5 < : > > > > > , , 3 6 8 0 8 q ",
"H y.@.W f f ' v.I.^.x.p.^ b y f A _ ^ 5.d.g.3.a.g.n.w._ m N m m V B y 3 : = + + + : > 9 z I I ) R J s r s 7 > ; < < - > : ; , 1 ",
"$.t.7.b 8 *.Y.A.Z.v.i.&.%.( b 8 t N _ o.a.i.w.w.d.w.w.^ h g f k b y 6 ; - - - : 3 8 f B ) &.%.&.%.&.} Q R J b 8 9 7 < > : = ; , ",
"$.&.%.m k c.=.I i e 5 5 3 r t q 6 y n ' 5.d.a.d.4.i.5.{ k b f f t 0 1 ; ; ; ; 3 1 y m N M m B Y Y B J ^ ^ ] Q J b y 7 3 : : - 6 ",
"*.) ^ m M l : o . . .     . o - , 6 f Y ..z.S.d.d.w.5.^ B m f t 8 , ; - - ; - - - 9 f k b f f y 8 1 1 1 f M B N m f t 8 9 3 6 t ",
"*.R m M 9 X   . . . .       . X + - 6 m _ n.I.L.n.z.6.{ W m t 8 1 ; = = = + + < p D R @.%.+.R J f t ; = @ 3 f J N B k b f m m f ",
"$./ y ; = = $ $ & & % . . . . % o o + y ' n.[.[.'.P.n.2.W y 6 3 1 - = + X + > 3 > : & & : < 5 e s 7 < : = + 3 M E Q N b m m b b ",
"*.5.{ Y m i.$.K Q G l r 7 7 9 e > = = y 5.D.XX,X$X}.I.g.m 6 , 1 - = @ o . @ @ $ . . .       . . . . . . . . o 8 m b 8 t f m m m ",
"&.2.n.d._  .g.u.u.u.5.) ^ Y N N N R ' i.J.^.-X<X,X.XE.%.g 1 1 1 - ; , - = = < 3 : & . . . . . . . . . . . . X - 8 6 m ! 3.7.0._ ",
"y.g.n.L.n.a._  ._ ! V C Q ! W W U Q C 7.'.XX&X2X<X$Xn._ y 1 , t q g R ] ` +.R E ] ] f 7 4 5 < < > 3 > ; - ; ; 8 1 t b Y ( _ Y y ",
"y.g.D.I.[.L.o.n n n V Z U V h y y y ` R..X&X:X,X:X}.g.U y 6 6 h ~ ` | 7.5.^ ( _ 5.2.{ Z T T R m b g y h C V h , 8 T ' W m 0 8 t ",
"t.x.S.L.'.$X}.n.( g 0 0 1 1 1 8 m x..XXXXX:X-X-X{.Y.2.Y y y g n U 3.w.d.i.7.Y m b V n h g g y h n Q Z C g 1 = 6 n ' ..<.^ m b E ",
"u.n.L.E..X:X-XXX'.I.d.+.} ) i.^.XX#X$X$X-X-X,X$X'.f.( m m V ! ! ! 5.d.a.z.S.n.%.b 1 , 1 1 1 6 6 1 ; ; - - ; g o.2.W Y ` 3.[ ,.^ ",
"f.K.K.[.%X,X-X-X.X}.I.(.[.$X.X&X#X$X}.%X,X4XOX#XL.5.n n V ~ ~ 7.5.a.3.a.n.I.L.I.I.P.+.Q N f 7 1 1 8 0 m | z.d.f.2...m Y ..w.<.' ",
"g.K.^.}.$X:X,X-X-X[.J.~.XX&X&X.X&X#X-X&X<X<X-X'.n.| n h C ( | 7.i.a.i.a.S.L.L.J.E.E.E.^.].'.I.S.L.L.n.n.K.F.g.i.a.o.( m [ 2.5...",
"i.K.^.}.%X<X<X:XXX}.'.|..X:X&X%X.X:X,X<X<X,X}.'.a.| V V n n n n n C C <.d.L.K.^.J.^.[..X}.|.].}.E.^.K.B.d.w.5.i.3.q.o.` Y ....+.",
"a.K.^.'.XX,X<X,X-X#X$XXX&X&X%X$X$X-X,X<X6X-X{.D.n.w.| Z n g y g g 6 1 6 V i.J.^.^.~.[..XXX|..X.X}.~.~.n.d.7.o.4.d.3.<.| W ` { ( ",
"e.D.L.'..X:X&X<X:X-X.XoX&X-X{.[..X-X-X4X6X-XI.K.n.n.a.i.C h y V | Z q ; ; y W x.~.[.^.XX%XoX_.[.}.{.D.S.z.d.o.a.i.d.3.| ' ' E ' ",
"0.g.n.L.}.{.}..X#X}.'.~.~.D.0.3.).$X:X<X<X#X^.S.L.P.x.o.Z h h ~ a.7.! y ; - 1 m 5.K.^.'.XX{.'.`.[.E.K.n.S.d.w.w.a.5.o.2.o.` W Q ",
"2.p.i.J.~.).~.[.D.n.w.3.C g y o._.%X:X2X<X&X[.'.E.E.5.C g n V 7.o.~ C g , ; ; 1 y ` p.L.K.^.J.E.F.B.B.d.f.f.i.a.3.5...2.@.] ( ( ",
"2.5.a.K.L.E.E.g.w.! h 0 ; ; T [.%X-X<X2X4X:XXX}.'.i.m q 0 q y g q 0 6 1 6 q q 6 6 y T 2.z.S.K.j.g.d.w.w.h.d.r.0.7.o.@.| ,.^ ( W ",
"1.2.5.z.L.P.7.{ C y ; @ ; ^ R.-X-X<X2X6X6X6X#X}.g.m 1 - = = + + + = - , 0 y y y y q 0 m { 0.w.d.i.q.o.5.0.i.w.5.5.2.^ ..) { W Y ",
".. .5.w.S.i.( h y ; @ , { [.%X-X,X<X6X6X6X<X#Xx.M 1 @ o + @ + o + = = - , 1 6 0 y g 8 0 b Y ( | <.' _ _  .<.%.[ %.{ ) R / ) R U ",
"^ ' ' 5.X.~ n y ; = ; W D.XX&X,X<X,X<X<X.X_.v.Y 1 - + @ + + o + $ + @ - - = - , 1 6 1 1 , t b W T T W R U ^ ^ ^ E Q K B K R W W ",
"( Q ( [ [ Z g 1 - ; m 2.^.XX.XXX.X[.[.'.D./ b 1 - @ + + + + + + + = = - @ + + = - - - = - = 3 f Q W E W R Y U K W T B b M R ` W ",
"E ' Y Q _ C 0 ; - t Y 0.n.2./ &.t.y.5.m.u.T 1 ; ; 1 - - - - = = = - - ; = @ + = - : = = + + + : f ' _ _ T T N Y W E N k J ] Y Y ",
"Y ( ^ W ! h 6 ; 1 m Y { Y y 8 b ^ ^ N N N q ; ; y Y m 6 , ; ; - - - ; ; ; = - = : : = = + $ $ $ : t Y ( ( Q Y Y T T B d M Q J B ",
"M E ' { Q g 6 , 1 M b B s 9 9 f b b 8 8 1 = - 8 m ^ Y b q 1 ; ; - ; - ; ; - ; - - ; ; < ; > = + + = 6 B Y T B Y K W / k b W T n ",
"b K ^ ' W y t 1 1 k k b r 7 9 y f b 0 6 1 ; b u.f...E V h q 6 1 , 1 1 , 1 1 , , 1 1 1 1 7 3 > = + + = 6 N Y ( ( ) ) ) k M K R n ",
"k R / 5...b 8 0 7 M f s 9 8 8 f k m y y m T  .n.n.g._ Q V h y q q y g g h b y 0 6 8 6 6 6 6 ; = + + = - f W W ' &.%.R x G / B Y ",
"z H *.i.p.Y t f y M s ; 3 , ; 1 q h n Q | ' ( ( 3.,.~ Q U C n h n h h n n h y 0 0 0 6 6 1 6 , : = = - ; 9 T Q { 2.@./ x G R K B ",
"d H &.B.z.2.f f B k t , - @ + = ; 0 g h h h V C V C h h g y 0 6 6 8 6 0 1 , - ; - ; - = @ @ + @ = , 9 0 3 R ' 2.{ } K G M R K J ",
"k M =.g.D.x.R y K m f r 0 7 7 0 q q 0 6 0 0 0 q 0 0 8 1 1 1 , , , 1 , ; - = - = - = @ @ = = = - t b ^ b t W { ..{ R G G H G M A ",
"H I K g.D.Y.0.b b @.M N Y Y m n V Q V Z Q C n S D D S D D D A S S m a a q q 0 0 q q 0 6 0 8 6 b { 5.{ m m ' ^ { ' R x M H G b M ",
"H I / ) n.I.l.+.b ! W Y W ! Y h ! 3.{ ' @.#.] 5.f.y.t.2.O.D A m b s y b g y y q g y 0 0 q g Y w.d. .` b Y  .] W B x f k x J M M ",
"H $.$.*.2.x.n.g.K b ^ ^ Y E C C n U M M A D D D A D F D f p s 8 < 7 9 8 7 0 8 q q 0 6 0 g ' n.B.%.` N b ^ 5.( R f d f x k J J Y ",
"I *.$.} *.&.l.g.<.b B +. .` ! C g 8 8 7 9 0 8 8 9 7 9 9 9 3 3 < > > > < 3 7 9 8 8 6 8 y Y z.L.y.+.` b b ..} Q b s d d d B J R / ",
"I =.$.&.&.*.*.&.%.N f  .5...Z V g y 8 9 8 s 8 y 0 s 9 9 7 7 < > > > > < 3 7 7 7 8 t t J u.L.u.2.@._ t N _ ` b s r s r K R I / K ",
"$.=.$.*.*.$.H f / } k E a.| ( V g y t y f k b b M k f r 9 7 < > > > > 3 9 8 0 0 t f Y 0.n.n.u.i.0.N f T ' Y s s s s f G I I J k ",
"P =.*.=.$.H u 4 u / M B 2.,._ W g y g k T 2.{ Q R Y m d r 9 7 7 7 7 9 d k m b m m W 0.n.g.n.s.g.%.k m ( Y b r z s z G K K I K / ",
"P *.*.*.$.x w * > e x ) i.7.~ ( n g m ( p.n.s.w.i.2.] W J f d x G H ^ } +.+.+.^ ` +.g.u.g.u.y.g.R b C R m s d G G M M G K P ) / ",
"v $.I $.I x 5 * * 4 5 H B.n._ o.! W ( g.D.K.5.2.%.w.2.0.t.u.&.t.y.c.y.f.t.t.` ^ @.u.2.t.u.u.t.y.Y E Q U f 9 9 9 G J d G J $.} &.",
"l P I I I l 2 % * * > u C.I.7.7.a.o...g.E.D.D.n.n.u.f.i.x.n.y.c.C.C.v.v.u.+.^ ^ 2.2.2.2.w.y.y.t.{ Q / x z e 5 9 x J M x J ) t.t.",
"w G P I G d * % & & > u *.[.n.g.n.j.o.n.I.^.~.^.Y.U.m.J.D.J.R.[.{.{.y.t.t.+.{ { { @. .2.5.f.u.t.) ) R f d u w 9 9 x J K J ) *.*.",
"w l H I G e & % & & * 5 G _.[.f.i.z.d.j.I.G.'.^.'.^.(.^.[.[._._._.v.$.2.u.2.] ] ] {  .%.g.D.K.y.*.) G x l u u e 7 7 d M / I z u ",
"5 5 v v l e % # % & & > r A.XXY.x.g.,.i.m.~.n.I.Y.W.d.x.I.T.y.u.f.u.&.2.2.2.E ^ ^ 2.` i.D.^.J.v.*.) r i x l u e > = < r i 5 4 4 ",
"% * 2 4 j 5 % O % % & : 5 y.$X.XB.2.%.J./.^.Y.J.R.n.p.f.b.i.@.2.0...+.` ..[ ] ^ 5.+.] u.R.^.'.y.$.G r 5 u 7 7 7 : % = : > < < 4 ",
"O O # * 4 4 * O O % % : < t.&X%X=.y.'.$X.X*X{.{.!.(.U.T.n.N.d.i.{ ' Y E T ^ ` 5.i.3.2.I.I.[.'.t.G f z e 4 > : 4 & # : < 3 9 5 i ",
"O O O % * 2 * O O O % : s J.-X:X-X<X,X,X,X<X6X2X,X=X-X$XXXQ.).^.R.D.} R R Q ^ +.2.i.D.Y.^.}.C.I G e w 5 2 : & * # # < 7 r d f z ",
". . . # % * & # . O $ < +.`.$X2X5X6X3X2X2X5X3X6X6X6X2X2X3X<X.XXXXX&X_.c.$.K A { g.J.V.`..XA.I G x w : * & & O O O # & < 9 r r d ",
". . . O # & % # . X # d y.}.-X;X2X3X3X;X>X>X>X>X1X1X>X>X>X>X+X+X@X+X+X+X+X:.I =.C.Z.A.A. X:.v c l w * & & # O O # # % * 5 5 w u "
};
