/* XPM */
static char *out[] = {
/* columns rows colors chars-per-pixel */
"64 64 215 2 ",
"   c #2B1608",
".  c #4A2415",
"X  c #5C2C1A",
"o  c #68321E",
"O  c #583F2A",
"+  c #763A24",
"@  c #7E3D26",
"#  c #63432F",
"$  c #6E402D",
"%  c #6A4D37",
"&  c #77523D",
"*  c #7F5D46",
"=  c #814A35",
"-  c #8E4B34",
";  c #96523A",
":  c #865540",
">  c #8C5D46",
",  c #9D5943",
"<  c #955F49",
"1  c #A45E45",
"2  c #89664F",
"3  c #9B644E",
"4  c #916A53",
"5  c #9A6F56",
"6  c #AB644A",
"7  c #A16851",
"8  c #AD6D51",
"9  c #A86D58",
"0  c #B36A51",
"q  c #B76F53",
"w  c #A1765D",
"e  c #A7755C",
"r  c #AE755B",
"t  c #B4715D",
"y  c #B97658",
"u  c #A87B63",
"i  c #AE7D64",
"p  c #B77764",
"a  c #BD7564",
"s  c #B27861",
"d  c #B47F64",
"f  c #BB7E63",
"g  c #C1785B",
"h  c #C87E61",
"j  c #C07B6B",
"k  c #AC836B",
"l  c #BE8466",
"z  c #B3876E",
"x  c #BA876A",
"c  c #BF8B6C",
"v  c #B78C72",
"b  c #BC8E72",
"n  c #C38264",
"m  c #CC8566",
"M  c #C78568",
"N  c #C4816F",
"B  c #C48A6C",
"V  c #CC8C6D",
"C  c #CC8C6E",
"Z  c #D18969",
"A  c #D48C6E",
"S  c #D88F6F",
"D  c #C88973",
"F  c #C39072",
"G  c #C69677",
"H  c #C89172",
"J  c #CC9475",
"K  c #CA997A",
"L  c #CF9C7E",
"P  c #D19071",
"I  c #D09072",
"U  c #D29172",
"Y  c #D09273",
"T  c #D39273",
"R  c #D49374",
"E  c #D59475",
"W  c #DA9472",
"Q  c #DD9876",
"!  c #D79778",
"~  c #D1967C",
"^  c #D89778",
"/  c #D59A7B",
"(  c #D99878",
")  c #D9997A",
"_  c #DB9A7A",
"`  c #DA9A7B",
"'  c #DC9B7B",
"]  c #DB9C7D",
"[  c #DA9D7E",
"{  c #DE9D7D",
"}  c #DC9D7E",
"|  c #DD9D7E",
" . c #E09E7D",
".. c #E2A07F",
"X. c #D89380",
"o. c #D89982",
"O. c #DD9E80",
"+. c #DE9F80",
"@. c #DF9F80",
"#. c #CFA186",
"$. c #D4A082",
"%. c #DFA081",
"&. c #DCA386",
"*. c #D8A485",
"=. c #DCA88A",
"-. c #DFAB8E",
";. c #DFAF94",
":. c #E0A081",
">. c #E2A181",
",. c #E0A182",
"<. c #E1A283",
"1. c #E3A282",
"2. c #E4A281",
"3. c #E4A382",
"4. c #E4A383",
"5. c #E5A483",
"6. c #E6A483",
"7. c #E5A484",
"8. c #E6A584",
"9. c #E6A585",
"0. c #E7A685",
"q. c #E7A686",
"w. c #E8A786",
"e. c #E8A787",
"r. c #E0A58A",
"t. c #E3AC8D",
"y. c #E7AD8F",
"u. c #E8A888",
"i. c #E9A888",
"p. c #E9A989",
"a. c #EAA989",
"s. c #EAAA8A",
"d. c #EBAA8A",
"f. c #EBAB8B",
"g. c #EBAC8C",
"h. c #EBAE8F",
"j. c #ECAC8C",
"k. c #ECAD8D",
"l. c #EDAD8D",
"z. c #EDAE8E",
"x. c #ECAE8F",
"c. c #EDAF90",
"v. c #E4B195",
"b. c #E9B193",
"n. c #EFB090",
"m. c #EEB091",
"M. c #EDB192",
"N. c #EEB192",
"B. c #EFB293",
"V. c #ECB496",
"C. c #E6B599",
"Z. c #EAB79A",
"A. c #EEB899",
"S. c #EEBC9E",
"D. c #F0B293",
"F. c #F0B394",
"G. c #F1B495",
"H. c #F0B496",
"J. c #F1B597",
"K. c #F2B596",
"L. c #F2B697",
"P. c #F2B698",
"I. c #F2B798",
"U. c #F2B799",
"Y. c #F3B799",
"T. c #F2B89A",
"R. c #F3B99A",
"E. c #F3B99B",
"W. c #F4B99B",
"Q. c #F4BA9B",
"!. c #F4BA9C",
"~. c #F4BB9C",
"^. c #F4BB9D",
"/. c #F5BB9D",
"(. c #F5BC9D",
"). c #F5BC9E",
"_. c #F5BD9E",
"`. c #F1BFA1",
"'. c #F5BEA0",
"]. c #F6BEA0",
"[. c #F6BFA1",
"{. c #F6C0A2",
"}. c #F6C1A2",
"|. c #F6C1A3",
" X c #F6C2A3",
".X c #F7C2A3",
"XX c #F6C3A4",
"oX c #F7C3A5",
"OX c #F2C4A5",
"+X c #F7C4A5",
"@X c #F7C4A6",
"#X c #F7C5A6",
"$X c #F7C6A7",
"%X c #F7C7A8",
"&X c #F7C8A9",
"*X c #F0CBAD",
"=X c #F4CDAE",
"-X c #F8C8A9",
";X c #F8C9AA",
":X c #F8CAAB",
">X c #F8CBAC",
",X c #F8CCAD",
"<X c #F8CDAE",
"1X c #F9CEAF",
"2X c #F3D1B3",
"3X c #F7D1B2",
"4X c #F0D4B6",
"5X c #F6D4B6",
"6X c #FAD3B4",
"7X c #FAD7B8",
"8X c #F1D8B9",
"9X c #F7D8BA",
"0X c #F5DBBB",
"qX c #F6DDC0",
"wX c #F9E1C3",
/* pixels */
"t.N.2.{ ! t.F.R.H.U.A.].[.+X.X+X'.{.A.{.^..X+X+X^.'.^.A.S.'.S.U.H.F.h.h.h.D.h.u.r.t.r.y.r.u.<.r.O.<.^ } ^ / ! E I U R E T E A I ",
"*.+.Y n B J T E r.m.T.].{.{.+X.X.X{.{.{.+X.X$X+X-X$X_._.{.{.{.'.R.F.L.H.R./.R.m.M.y.y.h.m.k.a.a.p.r.+.O.+.O..._ ' _ ( P R T R A ",
"f 7 : & & & % & < B ] N.'.{.E.{.}.+XU.^.'.+X.X:X+X.XU.S.{.{.!.P.H.I.m.H.R.K.y.n.z.c.u.s.k.k.8.i.0.6.' _ { %.( ' ) { C T U E A Y ",
"> = & * & O O X $ = 7 c *.N./.].XX{.U.H./.'.oX X-X).!.!.{.[.R.K.R.F.N.B.R.K.h.h.h.a.w.q.k.u.<.6.a.2.( ( { { ` } { _ A V I A Z Z ",
"r Y $.r.*.H w 4 < < < 8 l ` h.[.!.{.U.(.F.(. XoX.X{.K.U.K.(.R./.x.D.K.U.F.K.c.g.0.f.a.s.3.4.<.q.e.} _ { ! { ) O.' _ T V M Z Z A ",
"h.B.].!.[.'.H.t.*.H n f M T O.N.).R.H.H.F.U.{.{.'.R.J.H.F.J.(.R./.R.[.(.R.Y.K.k.k.a.7.<...2.0.a.a...] _ { ` O._ ' P D V m m Z Z ",
"m.H.B.^./.(.b.H.F.h.+.E R _ ! u.R.^.F.F.F.(.S.^.(.H.y.h.m.].R.].+XoX].{.R./.h.z.c.h.<.8.9.j.6.a.s.0.) { _ <._ O.' A M M M M n m ",
"l.k.p.i.y.y.u.r.h.u.u.7.4.<.O.7.R.K.N.c.K.Y.H.F.U.h.u.r.z.K.^.[.+X{.{.'.].F.y.p.y.9.<.e.k.k.p.6.a.0.@.) <.%.} { _ T h g m h h n ",
">.! C _ %.s.u.<.! E ! +.O.4.r.j.h.F.D.K.N.U.F.F.u.u.<.7.a.N.R.].P.F.t.$.$.*.Y B f c D / ! ] ` %.] %.] +.O.<.O.<.E A M h g n g g ",
"( y R m.F.F.N.s.2.Q Z M A { a.j.c.H.B.F.K.H.G.F.e.! E ! O.r.M.h.Y f 9 - = = & $ $ = = < 9 r y l D D I E +.` +.] ( Z h g g g g y ",
"M M r.N.D.y.$.7.u.e.E m n Z _ e.k.P.h.h.c.L.z.D.0.I n D I ! E C t 3 = $ X X . . . . . X + : : 7 r p p n C E E ! E C y g g y y a ",
"g E r.H i 4 > > 7 d V m h n m _ a.c.n.c.K.H.z.k.a.M f n V C l t 1 - $ $ $ # X X . X X o $ $ $ = > < < 3 9 r n C C M g y f g g g ",
"f ~ 7 # X O $ 5 $ @ - 6 q y g C ! a.B.Y.n.z.k.m.>.T l f n g y 8 ; - = @ = - - 3 7 r d x d 7 > : : > > - - ; 3 9 8 f y g y g y g ",
"n < X . . # w #.* # % = > , 8 f T ..F.(.Y.z.c.h.%.T C f y 8 6 1 , ; ; , 3 8 f C ! O.<.7.r./ B f s 9 , - - - - ; > > 7 r q q y q ",
"6 = X X & * % % . . . O $ = = 1 m ..h.{.{.'.N.c.7._ n g t 8 ; ; ; , - ; ; 8 t B C C n M I ! I E E E n p 6 7 > > : : - 1 6 0 1 6 ",
", f B 9 w > & # . . . . $ $ + @ 8 2.z.$X3X$X(.H.c.! f 8 8 1 ; - - = + = 8 C ] r.s.%.C f g 8 6 6 f T I D n f 7 3 > : = - 6 1 1 1 ",
" ._ 4.u.{ E l 7 = + $ : < : @ - 6 j.c.,X9X5X$X{.k.R 8 1 1 , - = + o + 9 d f d c c H C C M n 8 , @ - r B B M f r 7 < ; 1 1 6 6 6 ",
"j.2.2.j.l.z.z.%.E H D M n n V _ 4.D.^.:XqX9X<X^.7.n 1 1 8 - - - + o = - @ $ . . . . X $ < 3 7 3 > + @ r C B n l y r y f t q y 0 ",
"K.N.0.q.e.>._ ] R T M Z A T Z m _ /.^.<X0X9X$XR.%.n 1 1 q 6 8 n t 1 - 3 3 7 # O .         . . . . # X @ D ` P n y n n n n h n l ",
"W./.R.4.^ T P A R A m h h y q C U.{.$X1X5X1X+XN.{ g 6 6 n P V E i.2.' ] +.] H i < & $ # # X . . . . . . 3 q 6 8 g f g g g g g g ",
"/.'.$X(.7.E g y q y 8 1 , n t.$XoX:X,X3X:X+XR.u.T n y g h _ 2.<.2.i._ E E 4.0...T C n D M s 7 3 > = $ @ ; , 8 n C T T P h m n m ",
"{.+X-X:X+X(.c. .T P T ) h.[.-X-X-X:X,X>X:X{.k.! A h m Z A P 2.i.i.k.c.4.P g n h Z h g q y g g M P C Z h 1 , g C _ ' 0...M g g g ",
"$X3X>X3X,X-X(.].[..X|.$X-X:X X%X-X1X-X1X,X[.<.E A Z E ( 2.0.>.i.a.j.k.K.N.%.q 1 , 1 , 6 q y y n g 8 ; = , P _ ! n g f q 6 6 1 1 ",
",X1X3X3X3X-X(.'.+X$X&X:X-X+X$X:X3X3X3X,X-XY...P S Z A ( j.a.f.a.z.k.c.F.(.Y.U.F.h.E y 1 1 - = = - - , g { _ ` ..{ n 1 8 l n f n ",
"-X3X5X9X5X,X'.[.'.,X:X1XoX1X1X6X5X0X9X:X/.D.2.' Z A Z Z Z E W  .>.k.D.L.H./.W.[.(.[.'.[.H.c.s.u.7.k.k.j.e.>.T ! ] ` P T n B n B ",
":X3X9X9X0X>X:X,X>X-X<X<X:X-X:X3X9XwX9X.X/.D.k.6. .T g g g h q 8 y Z a.G.!.(.].].[..X{.+X+X.X].[.F.z.k.e.z.6.' C T } 6.! f p d p ",
":X5X9XwX0X9X>X>X-X1X,X-X:X-X$X3X9XwX<X.X/.K.k.D.k. .n y h W Z y , 1 y <.R.].^.(.oX:X'.$X:XoX].(.R.m.4.i.e.j. ._ P _ ..{ l y r s ",
"1X,X,X1X6X1X&X-X:X+XU.m.F.(.$X3X9X0X:X{.^.K.Y.Y.j.Q m g S e.6.Q m 1 ; 8 _ F.R.(.+X-X$X+X,X-X.X].R.m.4.8.i.p.6..._ E ' _ D n n n ",
"@X$XoX$X'.'.U.L.f...Z h _ '.$X3X9X9X<X$X(././.H.T m n Z { k.a.2.S q - - 1 M <.R.'.:X$X-X{.+X{.W.K.N.j.j.8.a. .0.{ E ) O.V D B D ",
"[.|.].L.F.e.' m g 6 , n R.+X,X9XqXqX9X1X-X{.K.E y 8 8 y h h h g q 1 1 1 , , g ' z.R.{.[.'.!.Y.L.D.n.j.j.j.6.a.6.2._ ! ] V I V C ",
"W.].z.k.4.T y 1 - ; B {.>X6X:XqXwXwXwX9X<XU.D 8 ; - + + + + + - , 1 0 g y q 1 y E j.c.R.U.R.l.m.l.N.q.j.a.j...6.2.<.E ] R E B C ",
"/.D.2.E m q ; @ 1 ` R.<X6X5X5XqXwXwX9X:X{.! 8 - + $ $ + @ + @ - ; , 1 8 y y q 0 g P { 0.c.l.j.i.d.i.i.e.k.a.0.6.<.) ^ R E V V C ",
"a.2.P h 0 , @ 1 ` ^.:X3X9X9X9X9X1X,XS.S.` y ; = + @ + + + + @ @ @ - ; 1 1 q y g 8 t n ( ..6.6.2.5.<.7.j.0.q.4.4.O.%.T U C I I Y ",
"i.W h 0 , - , C u.+X,X:X5X>X-X{.].F.<.M 8 ; = + + $ $ + + $ + @ = = - = - , 1 1 1 , 1 y R _ _ ! _ ! O.<.<.O.<.O.' ! I C I T T T ",
"..Z q 1 - , n ] N.'.r.&.y.h.r.k.D.N.` y , , ; 1 ; - @ = = = = - - - + + + - - ; - - = - r T U ^ E E P ) ` _ E ! ! R V T I Y V C ",
"Q M 8 ; - r T R u.J t r C } R C P C t , ; 8 J E t , ; ; ; - - - , ; = = = = = - = + + + = 7 J { { T T C E / Y H J T C V I T C C ",
"A g 1 , ; M H H J p 8 8 f M n y 6 1 = @ ; f E ..P g 8 1 ; - - - - , - - - - - ; - = $ + + + 3 I _ ' P Y H U I C l E Y R R U A A ",
"Z y 6 , , B n B B r 9 9 y y n t 8 1 ; t r.F.j.2.' E h 0 1 , - ; , , , ; , ; ; ; , < - = + + + , M E S P R T R J n J ! ! T C A A ",
"A y q 1 , B n C l r 7 y g M n g g l n O.L./.z.a.2.Q m g q 8 1 q n g 0 0 0 6 , 1 6 8 1 , - @ $ @ 3 B V T E ! E E l Y Y E I I m A ",
"E q t 8 1 H B r r r 9 r y n n C _  .{ _ <.e.i.a.0.Q A A A Z m h A A A Z h 0 6 q q 6 6 6 3 - @ + = 6 M R ' _ O./ n C I Z C V Z m ",
"E y q M 8 J C 1 ; ; - = - 6 g m m Z Z E T E E E m h h h g n g n g m g y 0 0 0 0 6 6 6 8 1 ; = = - ; f E } r.r.&.B B I T V Z Z Z ",
"4.V t J H D D r 3 - @ @ - 1 1 6 6 8 q g g g a q 6 6 1 1 , ; , , , ; ; - - ; - - - = - - - - - - 1 , y E <.7.t.*.F c Y I m m Z Z ",
"c.4.y n ] C n n g f r M M m g n n h a N N N j N N N j N N N a t 6 1 ; ; ; - @ - = @ $ + + - , f M t q _ 4.u.+.$.F H H I V A Z A ",
"U.K.Y t ! ] R I H T A m Z E W { 2.2.o.>.i.7.u.t.r.r.o.o.o.I D N N N j q a q t q t 6 1 , 1 q I ' <.n M { <. ._ H F H H H C V I V ",
"H./.u.C n <.' ! T _ E ( h S { 2.' +.,.u.r.t.r.-.r.X.D D D N t j j a q a a a a y q 0 0 q h { 0.0...M P +.` { ! F B J Y J n m M M ",
"Z.U.U.r.l J +.P E E _ ( A m I I n B D D D M c n n y 9 9 9 7 3 9 8 7 9 t y 8 q q 8 6 y Z 0.c.0.{ ! n ` %.' _ F B B L ~ M B n B B ",
"t.U.F.N.~ l R _ ( ' E _ T M t 8 8 8 9 7 7 9 7 9 9 r 3 < 3 < > > < 3 3 7 9 r 9 r 8 t M 7.R.N.` ( V D <.6.` J f x c J c B F H l B ",
"/ t.m.F.y.l C %.<.) ^ _ W n y t r 9 9 8 y f t r s r 7 < 3 > > > 4 < < 3 7 9 8 y y V ..h.K.t.+.! n P +.O.T n d d c B B B H D B B ",
"J +.y.F.h./ l ` 6.2.W Q S M g g 8 t y g n B n n y r 9 7 3 < > < 3 7 7 r 8 y p f n +.z.D.y.r.r.( y E ( ( n f s l x f f H C T H T ",
"L *.r.y.m.r.l M 8.6.Q E ( h g y f n I P T E E B n s 9 7 7 3 3 7 r s n M M M D C O.c.c.c.u.y.u.V n ! R C s s l f d B C H Y Y E ~ ",
"#.*./ r.h.h.B f ] a.' Q  .A y n n { u.z.k.k. .( I n r s d f p l Y ` ! O.' ] R ' z.N.u.h.m.F.%.n A E C l r d t s x H F Y / ~ Y J ",
"$.*.$.*.t.} E H E q.6.....S h h ! f.j.f.n.j.a.7.u.<./ Y $.&.r.r.h.h.e.i.j.7.<.<.N.c.u.u.h.h.R h ! E D s d d d f F H K ~ / J B l ",
"K *.*.&.J f c Y Y a.j.k.....E ( >.K.N.Y.u.4.<.p.p.m.c.M.b.Z.B.A.B.H.z.a.&.+.{ u.y.y.t.p.u.h.T I U E l r d H B c H K K $.~ / Y / ",
"G *.*.$.H i 5 u H r.K.N.2.2.0.>.k.K.H.n.K.m.p.N.N.N.H.V.V.V.Z.Z.U.H.c.O.O.O.9.r.p.y.u.u.u.y.R ! ] Y r 9 l c G J H H G Y ` [ ~ ~ ",
"b $.K *.H u * * w $.m.(.c.a.a.p.j.Y.F.R.(.(.F.Y.A.S.Z.S.'.:X+XS.U.(.y.+.+.<.+.4.4.u.<.p.y.h.! O.' T s e 7 7 s K c c c Y $.r.r.&.",
"z K L K J u & * 4 u &.{.{.j.a.c.z.z.K.!.'.{.].[..X.XoX X:X:X-X$XR.u.s.7.r.+.+.+.4.<.<.7.F.y.%.O.%.B x x u 9 9 c ~ B b H [ <.r.t.",
"w F K $.c w & & & * x S..XK.i.B.m.c.m.!.R.}.oXXX{..XXX:X+XoXS.H.<.%.u.u.%.<.! ` +.%.4.h.h.U.t.,.Y l l v i w r d l ~ H J ~ &.$.&.",
"w x K J z w % % & * w *.$X{.s.f.z.k.m.N.L.K.~.T.U.b.h.B.N.c.M.y.k.i.7.4.+.) } _ +.<.p.h.L.R.F.&.` f x v k i i 7 7 p B H K c i w ",
"5 w c x x 5 # # % * > i '.3XN.s.p.j.0.H.H.Q.K.G.c.h.4.u.7.u.+.q.r.<.! ! ' [ ) <.1.r.t.M.R.].N.$.J i 5 F x z u 3 = 7 9 d 5 4 4 4 ",
"% & 2 5 u 5 # # % % * 3 &.<X.Xm.4.u.!.{.@X'./.R.(.H.m.c.z.4.6.} ` ( T E { :.O.<.u.~ r.M.(.).F.$.c d w e u w 5 3 & & > > > < < > ",
"O O # * 4 4 % O # % & < B ;X:X-.-.XX%X>X:X3X-X:X'.{.^.(.D.F.j.f...! P E E | &.u.7.4.h.P.E.{.N.K x i i 4 4 * 2 4 # % > 3 3 7 7 i ",
"O O O % * 2 & O O O & > C '.3X3X9X9X5X3X6X9XqX0X5X1X3X3X-X^.]././.h./ J Y ~ ) +.<.s.B.P.'.|.t.F F w u 4 > * * & O # < 7 s d f x ",
". . . # % * & # . O $ < O.'.:X9XqXwX0X9X9XqX0XwXwXwX9X9X0X7X#X@X$X>X`.v.$.J D ] h.J.N.`.#X`./ F c w * * & & O O O # & < 9 r r s ",
". . . O # & % # . X # d t.XX2X2X9X0X0X2X4X4X4X4X8X8X4X4X4X4X*X*X=X*X*X*X*X;.L =.C.S.S.`.OX;.F v z w * & & # O O # # % * 5 3 e u "
};
