/* XPM */
static char *out[] = {
/* columns rows colors chars-per-pixel */
"64 64 213 2 ",
"   c #2B1608",
".  c #4A2415",
"X  c #5C2C1A",
"o  c #68321E",
"O  c #583F2A",
"+  c #763A24",
"@  c #7E3D26",
"#  c #63432F",
"$  c #6E402D",
"%  c #6A4D37",
"&  c #77523D",
"*  c #7F5D46",
"=  c #814A35",
"-  c #8E4B34",
";  c #96523A",
":  c #865540",
">  c #8C5D46",
",  c #9D5943",
"<  c #955F49",
"1  c #A45E45",
"2  c #89664F",
"3  c #9B644E",
"4  c #916A53",
"5  c #9A6F56",
"6  c #AB644A",
"7  c #A16851",
"8  c #AD6D51",
"9  c #A86D58",
"0  c #B36A51",
"q  c #B76F53",
"w  c #A1765D",
"e  c #A7755C",
"r  c #AE755B",
"t  c #B4715D",
"y  c #B97658",
"u  c #A87B63",
"i  c #AE7D64",
"p  c #B77764",
"a  c #BD7564",
"s  c #B27861",
"d  c #B47F64",
"f  c #BB7E63",
"g  c #C1785B",
"h  c #C87E61",
"j  c #C07B6B",
"k  c #AC836B",
"l  c #BE8466",
"z  c #B3876E",
"x  c #BA876A",
"c  c #BF8B6C",
"v  c #B78C72",
"b  c #BC8E72",
"n  c #C38264",
"m  c #CC8566",
"M  c #C78568",
"N  c #C4816F",
"B  c #C48A6C",
"V  c #CC8C6D",
"C  c #CC8C6E",
"Z  c #D18969",
"A  c #D48C6E",
"S  c #C88973",
"D  c #C39072",
"F  c #C69677",
"G  c #C89172",
"H  c #CC9475",
"J  c #CA997A",
"K  c #CF9C7E",
"L  c #D19071",
"P  c #D09072",
"I  c #D29172",
"U  c #D09273",
"Y  c #D39273",
"T  c #D49374",
"R  c #D59475",
"E  c #D79778",
"W  c #D1967C",
"Q  c #D89778",
"!  c #D59A7B",
"~  c #D99878",
"^  c #D9997A",
"/  c #DB9A7A",
"(  c #DA9A7B",
")  c #DC9B7B",
"_  c #DB9C7D",
"`  c #DA9D7E",
"'  c #DE9D7D",
"]  c #DC9D7E",
"[  c #DD9D7E",
"{  c #E09E7D",
"}  c #E29F7D",
"|  c #E2A07F",
" . c #D89380",
".. c #DD9E80",
"X. c #DE9F80",
"o. c #DF9F80",
"O. c #D99E87",
"+. c #D4A082",
"@. c #DFA081",
"#. c #DCA386",
"$. c #D8A485",
"%. c #DCA88A",
"&. c #DFAB8E",
"*. c #DFAF94",
"=. c #E0A081",
"-. c #E2A181",
";. c #E3A181",
":. c #E0A182",
">. c #E1A283",
",. c #E3A282",
"<. c #E5A382",
"1. c #E4A383",
"2. c #E5A383",
"3. c #E6A483",
"4. c #E5A484",
"5. c #E6A584",
"6. c #E6A585",
"7. c #E7A686",
"8. c #E8A786",
"9. c #E8A787",
"0. c #E9A887",
"q. c #E0A58A",
"w. c #E3AC8D",
"e. c #E7AD8F",
"r. c #E8A888",
"t. c #E9A888",
"y. c #E9A989",
"u. c #EAA989",
"i. c #EAAA8A",
"p. c #EBAA8A",
"a. c #EBAB8B",
"s. c #EBAC8C",
"d. c #EBAE8F",
"f. c #ECAC8C",
"g. c #ECAD8D",
"h. c #EDAD8D",
"j. c #EDAE8E",
"k. c #EEAF8F",
"l. c #EDAF90",
"z. c #E4B195",
"x. c #E9B193",
"c. c #EDB091",
"v. c #EEB090",
"b. c #EFB090",
"n. c #EDB192",
"m. c #EEB192",
"M. c #EFB192",
"N. c #EFB293",
"B. c #ECB496",
"V. c #E6B599",
"C. c #EAB79A",
"Z. c #EEB899",
"A. c #EEBC9E",
"S. c #F0B293",
"D. c #F0B394",
"F. c #F0B495",
"G. c #F0B496",
"H. c #F1B596",
"J. c #F1B597",
"K. c #F2B697",
"L. c #F2B698",
"P. c #F2B798",
"I. c #F2B799",
"U. c #F3B799",
"Y. c #F3B899",
"T. c #F2B89A",
"R. c #F3B89A",
"E. c #F3B99B",
"W. c #F4B99B",
"Q. c #F4BA9B",
"!. c #F4BA9C",
"~. c #F4BB9C",
"^. c #F4BB9D",
"/. c #F5BB9D",
"(. c #F5BC9E",
"). c #F5BD9E",
"_. c #F5BD9F",
"`. c #F1BFA1",
"'. c #F5BEA0",
"]. c #F6BEA0",
"[. c #F6BFA0",
"{. c #ECC4A7",
"}. c #F6C0A2",
"|. c #F6C1A2",
" X c #F6C2A3",
".X c #F7C2A3",
"XX c #F6C3A4",
"oX c #F2C4A5",
"OX c #F7C4A5",
"+X c #F7C5A6",
"@X c #F7C6A7",
"#X c #F7C8A9",
"$X c #F0CBAD",
"%X c #F4CDAE",
"&X c #F8C8A9",
"*X c #F8C9AA",
"=X c #F8CAAB",
"-X c #F8CBAC",
";X c #F8CCAD",
":X c #F8CDAE",
">X c #F9CEAF",
",X c #F3D1B3",
"<X c #F7D1B2",
"1X c #F0D4B6",
"2X c #F6D4B6",
"3X c #FAD3B4",
"4X c #FAD7B8",
"5X c #F1D8B9",
"6X c #F7D8BA",
"7X c #F5DBBB",
"8X c #FADDBE",
"9X c #F6DDC0",
"0X c #F9E1C3",
/* pixels */
"*.d.@.@.! +.+.%.&.B.z.B.z.B.*.*.&.z.*.z.*.V.*.V.w.e.e.*.&.*.w.&.%.%.#.#.$.%.$.#.! ` ! ^ U ! R ! C U U ! W W G U S C C Y P T P C ",
"$.q.+.K K +.+.#.&.e.z.z.C.z.z.*.*.*.*.z.z.z.n.d.n.z.e.w.*.e.&.q.q.&.%.q.q.q.4.#.` ( ( ( ( ( ( E E H H W K H U G P P L P R I Y P ",
"F %.J F +.+.+.%.*.z.*.B.x.G.z.z.x.z.*.d.d.B.e.x.x.B.q.x.e.G.i.d.e.e.@.7.d.d.q.4.:.:.Q ) >.4.` ..` +.H J J F B G C C m P R ~ V Y ",
"H K H K %.*.&.w.B.B.G.R.~.I.G.n.B.G.d.d.G.n.D.m.x.x.x.d.G.G.c.c.d.s.i.r.d.s.y.7.7.>.[ ' :.>.:.:.q.+.K J J H B M S V M M Y A m V ",
"K +.+.*.B.E.G.~.I.(.E.'.E.~.G.R.G.~.I.R.G.L.n.I.G.K.D.G.c.D.x.m.e.M.a.d.y.a.y.7.X.;.{ =.) :...q.#.#.K +.H H B M M C m V M m Z A ",
"&.z.n.I.E.~.R.I.(.~.~.~.~.I.T.E.~.E.R.I.I.G.L.G.I.H.L.J.n.b.d.d.M.r.j.a.i.i.5.;.o.{ { [ [ [ ..X.@.O.` W W C V m V V V m Z m m Z ",
"D.(.G.~.~.(.G.I.E.~.B.T.I.E.B.E.R.(.B.E.L.R.d.I.E.!.n.m.d.b.4.l.i.i.5.y.s.a.{ { ;.,.( X.' o.^ ' o...U H P P n M M V h m m Z h m ",
"~.I.R.T.).Q.J.B.I.E.J.G.R.W.J.D.E.R.I.L.I.E.n.G.E.L.G.d.n.s.s.s.v.i.r.7.m.a.<.=.=.[ / Q o.@.@.) :.! U C C V n n M n n h m M m h ",
"G.H.I.W.I.(.Q._.G.W.L.I.I.W.m.D.m.J.J.R.D.G.I.I.J.I.H.J.d.d.i.c.r.y.i.b.y.b.4.3.) X.( ' ] @.X.-.^ E C C V V M M h n n h h h h g ",
"J.J.I.I.^./.^.G.G.G.G.G.E.D.m.j.m.m.J.J.I.E.|.'.(.E.H.G.J.d.d.i.s.r.i.i.k.d.i.6.=.] ] X.X.:...X.E Y C V V M h h h g g g g g h g ",
"w.*.d.I.Q.).m.m.N.G.m.B.E.D.r.d.j.c.m.'.|.+X'.+X X].B.J.m.r.>.>.1.4.( @.5.i.>.>.o.@.^ ..>.>.( ..( E V V M M y f y a y g g n g g ",
"r c ` s.D.E.S.i.b.b.d.G.D.r.7.7.s.d.N.~.|.|.|. X|.B.&.! D l f d l f d f G U U U ' ] [ [ X.o._ ^ X.T V M M l y y f y y y n g g g ",
"> 6 B ^ 1.j.b.s.7.j.i.d.r.7.>.1.7.s.D.~.E.R.m.#.D d 7 > + + $ o + = > 3 9 s y l f M C _ E X._ ..E R V S n l f f y y y g y g g g ",
"7 6 t n ~ i.i.h.s.i.i.7.r.>.[ X.4.7.s.N.d.^ l 7 : $ o . . . . . o $ + = : > 3 7 7 7 8 f V U E E W Y V n n f f y g y g y g g y g ",
"B n y l U @.7.g.u.y.7.i.7.>.C T Q _ E ] U f ; = + $ o X o o $ = < 9 7 3 < 3 , , , 3 ; 3 7 y y f B C l l f f q y q q 0 q q y q q ",
"c d y l T ^ 7.y.i.9.7.7.a.~ M M V S V B f 1 - @ @ + @ = 3 8 f H #.q.! U U S l r 8 1 3 3 3 7 7 7 8 r 9 8 9 8 0 8 t 0 8 6 0 0 6 6 ",
"T M 8 t M ( @.i.4.1.7.r.<.( n l f n l f 8 1 ; > - ; 1 y M E o.7.1.4.7.r.4.1.X.;.T B r 8 7 9 3 7 3 3 3 3 , 7 1 6 1 1 1 1 1 6 6 6 ",
"s y 8 8 f V / 3.9.,.3.6.5.( C f f f y 0 6 , ; , 3 6 8 f C U _ T U P U U E ( X.X.( P C V n t 7 3 3 3 3 < < , 1 1 1 6 6 6 8 8 6 0 ",
"O + : , 8 M C o.j.b.<.1.9.o.P V l f 6 1 1 , ; ; ; ; 1 B ^ q.] _ E C l f t t y M T ( C P C B 8 9 7 9 3 7 8 8 1 8 8 8 1 8 t t 8 t ",
". . . $ - 1 M R I.I.d.s.i.>.T V n t 6 , ; - = + = 9 B U #.w.q.o.=.! U V l 6 - - 8 C C C T M l y f f y f n y 8 0 t 8 8 y n g g g ",
". . % $ o + 8 / G.#X|.E.G.i.( M 8 6 1 , - = + o 3 r 7 3 7 w 5 e r f f f s r 3 : + 7 S Q T U m n n C M n l f y p t y y f g n f n ",
"= 2 e 7 > = 1 } E.<X:X X~.M.X.f 6 6 1 ; - = o + = + o . .       . O o # $ $ $ + @ @ 7 M M f n f M M V M M n g y y y y n M M n M ",
"K Q V C P ~ / d.'.2X<X-X[.m.C q 0 t 1 1 f n 6 8 8 t 7 < & . . . . . . . . . . . o = , , 1 y y m R ) Q / / Q V n y f t t y y 8 t ",
"Y T V Z R Z / I.#X<X2X-X'.4.M q q g M n / 5.<.[ X.' E E U f r 7 9 9 8 r 8 7 , 3 8 y t 1 t V Q ~ ;.<.{ { 1.[ I y 9 1 1 1 8 8 r t ",
"C m g q q Z G.+X#X>X>X*XI.<.m f y m / ;.{ u.6.' C A Q =.) Q Z A Z m h n h R Q Q m y , q A o.} { T R R ( ! U n f 8 9 8 r s f l n ",
"6 1 1 f 4.'.*X+X&X-X+X'.d.^ A m A A Q 5.b.b.b.j.5.P f t y g g q q q h A T m g 1 , , g ) 7.7.7.3.,./ / / / R ~ C f r 9 8 r r t f ",
">.r.n.|.*X:X+X&X=X=XZ.d.o.Q A / } { Q 5.b.S.i.G.I.K.r.( B f 6 6 1 1 ; ; ; , , 8 M <.;.u.u.y.;.4.7.8.) <.;.5.) Y l s 3 9 9 r 8 y ",
"#X*X+X#X*X=X:X:X:X+XG.>.~ A A ) 7.u.u.u.b.j.f.b.J.~.G.K.'.(.G.d.e.#.! E #.1.s.D.K.M.b.i.b.9...{ 5.1.<.<.7.0.) P M y 8 8 t r y y ",
"#X:X-X-X@X*X<X<X&X|.j.' A T A / ) 7.u.j.i.j.i.G.H.H.U.!.I.(.[. X~.'.(.'.E.~.L.I.M.m.b.b.u.f.<.{ ~ ,.8.7.5.5./ R n y t y t f f n ",
"<X<X>X*X:X<X2X:X|.K.r.[ Q A A A Y A A A Q { u.G.K.K.W.U.R.!.[.[.+X}.|.'.'.!.!.b.S.b.S.b.b.a.t.<.X.) ' <.5.X.R C n y t y M n M S ",
"<X<X=X=X:X2X7X:X(.G.u.7.' R m h h m g g q q g / b.P.J.J.(.|.!.+X#X:X|. X+X XI.R.b.S.9.i.b.f.2.0.<.o./ ;.1.-.T C V M t n m V M Z ",
"<X>X+X X;X<X7X+X'.G.j.i.j.} A g h Q ) R m 8 , 1 h ' S.H.(./.'.+X*X*X+X@X=X|.E.U.L.M.i.s.b.f.7.3.7.{ ~ ) :._ R P V M f n P V V V ",
"~.K.4.d.XX<X2X=XI.E.G.I.a.{ A Z A <.u.u.' A 1 - ; 8 n X.d.I._.OX+X X(.|. X XW.R.j.b.f.M.f.m.i.g.<.| ( ) ~ E H R B M f m Z T C U ",
"/ M y >.*X<X3X+X XW.H.b.} Z m Z ) <.u.} Q m 8 ; , 1 1 y T i.G.I.E.G.E.G.~.I.R.S.H.b.h.f.b.u.a.u.7.o.^ ^ U Y U Y C S n n V T R Y ",
"6 ; y ~.<X0X7X2X&X XD.X.M y q g g g 8 8 8 6 , q g h q q y C / 7.m.D.s.D.S.D.s.b.b.M.u.h.b.b.5.3.>.:.U E W H H W U C y n C U C C ",
"= , w.#X7X0X0X6X<X~.T t 1 ; = @ @ + + @ - 1 8 q g g g g y q f V ) <.5.u.s.u.p.u.j.f.a.7.5.>.o.-.>.! H H U H H W ! C C V T T P Z ",
"= H A.<X7X0X0X2X X#.8 ; + o + = @ + + = - , , 6 6 8 q g g y 8 8 f P ~ { [ >.>.5.3.9.9.@._ ] ' =.! E H H H G W ! H R ! ! A R V A ",
"y *.#X<X<X:X+XA.q.f , = + + + + + + + @ = = - - ; ; 1 6 1 , , > ; 8 M ~ ~ / Q / { =./ } ) Q Q R U G G C H H K W ! ..X.` ! Y Z V ",
"U Z.A. X(.Z.&.! t , = @ + + + + + + + = = - = = @ @ = ; ; , @ = = = > f Q ^ Y R ~ / R ~ ! Q P G U G B G H E G H W q.` ..! A M Z ",
"! &.! ^ 1.o.] C 8 - - ; 1 ; - = - - = - - ; ; = = - = - ; - = + + + + = y R / ~ ~ R L L ~ Y P V U B l l T U H V ! ` R R T V m m ",
"G B t n U V l y ; = 1 B G t , , - ; - - ; , , - - - - ; ; ; > - + + + + @ 7 n ~ A T L T L R R T P B l c H H G C c B G U C m V m ",
"B 8 7 t l t 6 , - 1 M Y T S t 1 , ; ; ; , 1 1 , ; ; , , 1 1 6 7 3 > = + + = ; y L R U P Y T R R R S B l H U H B B H F H C V V Z ",
"f 9 3 9 l f 8 6 8 R 7.u.>.R n g 0 1 , 1 8 g q q q q 6 6 0 q 6 8 6 7 - = & = = ; g P V R } >.^ ` ! H l l H H l D D F D H B P m Z ",
"f 7 7 r n n y M ~ o.<.s.s.;.R m h g q g h m m m m h y q g g q 0 8 8 1 > - = - - 1 M P R ) >.{ o.O.H B l K H c c F F G B B C V V ",
"s 7 3 9 8 s M A C Y Y / Q Q A m g h g g y g g h y q 0 q 6 6 6 1 6 q 6 7 ; = ; , 1 f U >./ ;.' <...W G B H D c D D J W B l B M S ",
"l > = @ @ - 1 6 0 q q y g 0 6 1 , ; ; - - ; ; ; - = = = = = @ + @ @ = = ; 1 r f l t T } ;.' { { / G S B B c c c D J H B B B M B ",
"l 9 ; ; ; , ; ; ; ; - ; ; ; - - - - - - - - - - - - @ = - ; ; , , , ; 1 y Q U X.V l Y ) =.-.~ { ( R B S c B d x D F c B G C l B ",
"B S s y M m h g M j a t y a j a a N N j N j a j M h g g h g g g g g g m 7.u.<.5.R m T ~ :.o.) / R G c B c l f f c x B G G G B B ",
"l G C C V Y Q _  . . .>. . . . .C C S S j N V N j j g g g g y g y h T s.D.j.5.7.P M T ;.>.4.' R V B l c f d d c x f c B G R U P ",
"H M R H Y C Q ) ~ U  . . .U R C N t t t 8 t a t 8 t y t y y q q f C 7.m.D.f.7.X.Z m [ o.1.o.E V B n l f d d l x d c D B K ! ` W ",
"+.K S R E Y M n y y 9 r r e 7 7 7 7 < 3 3 7 3 7 3 9 7 q t y t f C >.r.j.c.c.7.( M V Q o.;.( S B S V f r r l d d f c D K +.` G G ",
"+.+.H U ( E P f t 7 7 8 r 9 9 8 9 9 < < < < > < 7 9 7 9 y f n V X.m.j.d.G.n.7.U M P R [ / R B V C B f 9 r c x f c D F F +.W G G ",
"J +.H R ^ _ P n t 8 9 8 s y y f t 9 9 3 > 3 < 3 7 s y l n S U ~ >.D.D.G.x.G.q.~ V Q / / P T C C V B s 9 s c F F c G F H H +.` ! ",
"F +.+.F R ^ Y n t 8 8 8 n U C C S l f r 9 r d f S U E ( @.X.;.>.r.n.D.d.e.q.#.E P R [ R I S U C U B r 9 d i d J D c B G H ! #.#.",
"b +.J F K ! C M f t 8 s U i.X.` ( Y G Y ! ! +.q.e.n.r.d.w.i.4.>.e.d.%.r.r.7.( R E [ ( U Q ~ C Y C B r s e 7 9 c H D c c J O.#.w.",
"z J K D c D G H V M f m <.s.7.7.:.] ` >.7.q.&.w.F.B.B.e.x.4.>.>.e.w.q.6.7.>.] ^ o.! ! T ^ ( E U U l f x x u 9 r B K G B W +.q.#.",
"w D J J d d d c B ) / } ;.7.u.m.d.g.s.m.b.G.F.Z.A.'.A.E.d.7.#.q.@.q.>.o.! o.` ] ^ X.#.1.:.o.^ ! C d d x i u 9 r r B H H H #.+.K ",
"w x F F d 5 2 5 d ! 1.s.s.<.0.d.d.b.K.R.~.'. X'.+X'. XZ.d.7.r.w.4.@.E E Q E _ X...@.6.r.d.7.#.^ D u d b k i i e < 9 d B K D i w ",
"5 5 b x d 5 # & 4 d B r.).P.7.r.u.g.s.R.E.).H.F.J.T.d.d.e.N.7.t.7.` P Q Q ] ^ X.>.w.>.d.N.G.O.K D i 4 x b z e w = > 7 r 7 4 4 5 ",
"% & 2 4 u 5 % # & * 5 l  X#XN.s.y.s.D.N.L.R.c.e.g.e.1.4.6.7.4.=.} ) ! E [ ( X.>.X.4.e.S.T.E.w.K D d 5 5 u 5 3 7 & # > : > < < 4 ",
"O O # * 4 4 % O # % * 7 K ;X@Xw.q.E.}. X'.~.W.Q.N.H.c.j.r.7.{ =.R R I R R ..@.r.@.X.d.J.Y.}.&.K D i k 4 4 > * 4 % # > 3 3 9 7 d ",
"O O O % * 2 * O O O & > C OX>X{.<X<X<X>X3X6X2X>X;X-X:X@X'.E.E.E.N.q.T U R R ^ ..>.i.N.J.|.|.%.F D e w 4 4 * & & # # < 7 r d f x ",
". . . # % * & # . O $ < ..'.*X6X9X0X7X6X6X9X7X0X0X8X2X6X7X4X+X+X@X-X`.x.+.H S _ d.J.B.'.+XA.K D c w * * & & O O O # & < 9 r r d ",
". . . O # & % # . X # d w..X,X,X6X7X7X,X1X1X1X1X5X5X1X1X1X1X$X$X%X$X$X$X$X*.K %.V.C.C.oXoX*.b v k w * & & # O O # # % * 5 5 w u "
};
