/* XPM */
static char *out[] = {
/* columns rows colors chars-per-pixel */
"64 64 209 2 ",
"   c #2B1608",
".  c #4A2415",
"X  c #5C2C1A",
"o  c #68321E",
"O  c #583F2A",
"+  c #763A24",
"@  c #7E3D26",
"#  c #63432F",
"$  c #6E402D",
"%  c #6A4D37",
"&  c #77523D",
"*  c #7F5D46",
"=  c #814A35",
"-  c #8E4B34",
";  c #96523A",
":  c #865540",
">  c #8C5D46",
",  c #9D5943",
"<  c #955F49",
"1  c #A45E45",
"2  c #89664F",
"3  c #9B644E",
"4  c #916A53",
"5  c #9A6F56",
"6  c #AB644A",
"7  c #A16851",
"8  c #AD6D51",
"9  c #A86D58",
"0  c #B36A51",
"q  c #B76F53",
"w  c #A1765D",
"e  c #A7755C",
"r  c #AE755B",
"t  c #B4715D",
"y  c #B97658",
"u  c #A87B63",
"i  c #AE7D64",
"p  c #B77764",
"a  c #BD7564",
"s  c #B27861",
"d  c #B47F64",
"f  c #BB7E63",
"g  c #C1785B",
"h  c #C87E61",
"j  c #C07B6B",
"k  c #AC836B",
"l  c #BE8466",
"z  c #B3876E",
"x  c #BA876A",
"c  c #BF8B6C",
"v  c #B78C72",
"b  c #BC8E72",
"n  c #C38264",
"m  c #CC8566",
"M  c #C78568",
"N  c #C4816F",
"B  c #C48A6C",
"V  c #CC8C6D",
"C  c #CC8C6E",
"Z  c #D18969",
"A  c #D48C6E",
"S  c #D88F6F",
"D  c #C88973",
"F  c #CC8A78",
"G  c #D08B78",
"H  c #C39072",
"J  c #C69677",
"K  c #C89172",
"L  c #CC9475",
"P  c #CA997A",
"I  c #CF9C7E",
"U  c #D19071",
"Y  c #D09072",
"T  c #D29172",
"R  c #D09273",
"E  c #D39273",
"W  c #D49374",
"Q  c #D59475",
"!  c #DA9472",
"~  c #DD9876",
"^  c #D79778",
"/  c #D1967C",
"(  c #D89778",
")  c #D59A7B",
"_  c #D99878",
"`  c #D9997A",
"'  c #DA9A7B",
"]  c #DC9B7B",
"[  c #DB9C7D",
"{  c #DA9D7E",
"}  c #DE9D7D",
"|  c #DC9D7E",
" . c #DD9D7E",
".. c #E09E7D",
"X. c #E29F7D",
"o. c #E2A07F",
"O. c #DD9E80",
"+. c #DE9F80",
"@. c #DF9F80",
"#. c #DD9986",
"$. c #D4A082",
"%. c #DFA081",
"&. c #DCA386",
"*. c #D8A485",
"=. c #DCA88A",
"-. c #DFAB8E",
";. c #DFAF94",
":. c #E0A081",
">. c #E2A181",
",. c #E3A181",
"<. c #E0A182",
"1. c #E1A283",
"2. c #E3A282",
"3. c #E5A382",
"4. c #E4A383",
"5. c #E6A483",
"6. c #E5A484",
"7. c #E6A585",
"8. c #E7A685",
"9. c #E7A686",
"0. c #E8A786",
"q. c #E8A787",
"w. c #E9A887",
"e. c #E0A58A",
"r. c #E3AC8D",
"t. c #E7AD8F",
"y. c #E8A888",
"u. c #E9A888",
"i. c #E9A989",
"p. c #EAA989",
"a. c #EAAA8A",
"s. c #EBAA8A",
"d. c #EBAB8B",
"f. c #EBAC8C",
"g. c #EBAE8F",
"h. c #ECAC8C",
"j. c #ECAD8D",
"k. c #EDAD8D",
"l. c #EDAE8E",
"z. c #ECAE8F",
"x. c #EDAE8F",
"c. c #EEAF8F",
"v. c #E4B195",
"b. c #E9B193",
"n. c #EDB091",
"m. c #EFB090",
"M. c #EDB192",
"N. c #EEB192",
"B. c #EFB293",
"V. c #ECB496",
"C. c #E6B599",
"Z. c #EAB79A",
"A. c #EEB899",
"S. c #EEBC9E",
"D. c #F0B293",
"F. c #F0B394",
"G. c #F1B495",
"H. c #F0B496",
"J. c #F1B596",
"K. c #F1B597",
"L. c #F2B596",
"P. c #F2B697",
"I. c #F2B698",
"U. c #F2B798",
"Y. c #F2B799",
"T. c #F2B89A",
"R. c #F3B89A",
"E. c #F3B99A",
"W. c #F3B99B",
"Q. c #F4B99B",
"!. c #F4BA9C",
"~. c #F4BB9D",
"^. c #F5BB9D",
"/. c #F5BC9D",
"(. c #F5BD9E",
"). c #F5BD9F",
"_. c #F5BE9F",
"`. c #F1BFA1",
"'. c #F5BEA0",
"]. c #F6BFA1",
"[. c #F6C0A1",
"{. c #F6C1A2",
"}. c #F6C2A3",
"|. c #F6C3A4",
" X c #F7C3A5",
".X c #F2C4A5",
"XX c #F7C5A6",
"oX c #F7C6A7",
"OX c #F0CBAD",
"+X c #F4CDAE",
"@X c #F8C8A9",
"#X c #F8C9AA",
"$X c #F8CAAB",
"%X c #F8CBAC",
"&X c #F8CCAD",
"*X c #F8CDAE",
"=X c #F9CEAF",
"-X c #F3D1B3",
";X c #F7D1B2",
":X c #F0D4B6",
">X c #F6D4B6",
",X c #FAD3B4",
"<X c #FAD7B8",
"1X c #F1D8B9",
"2X c #F7D8BA",
"3X c #F5DBBB",
"4X c #F6DDC0",
"5X c #F9E1C3",
"6X c #FBE5C7",
/* pixels */
";.N.5.8._ B k k u k b I $.$.-.v.;.;.;.v.-.-.v.v.Z.Z.Z.A.Z.Z.Z.Z.b.B.b.Z.B.N.b.B.t.g.z.g.i.z.i.z.u.6.<.e.+.1. . .^ ^ ^ ] _ Q W E ",
"=.i.c.d.8.R x k u u J / $.&.-.v.;.v.v.v.v.Z.Z.A.Z.A.Z.A.W.~.~.~.Q.H.H.T.^.Q.H.F.D.c.d.d.z.j.a.s.u.6.:.[ >.:.} } ] ] _ ] } ] T Y ",
"H } X.8.5.| l d d H J *.-.v.b.Z.v.A.v.Z.~.}.~.XX_. XW._.{. X~.Y.F.W.B.T.^.^.f.z.z.D.6.a.j.j.4.s.u.5.Q } >.6.'  . .' W _ } ] U A ",
"c A ! ~ ! ! R *.M.Z.H.Y._._.~.W._.'.W.W.{.XXXXXX X X~.~. X].^.H.R.U.H.H.^.H.i.i.h.c.6.1.f.a.8.s.u.@._ _ } <.]  .>.] _ _ } ^ W A ",
"c Q A ~ ~ >.r.J.H.^.W.).W.).~.'._./.W.).~.[.{. XY.(.W.].^.].J.R.L.U.G.W.G.P.M.m.q.c.7.9.9.d.p.z.9.8. .<.[ >. .%.>.+.' ] W W m A ",
"K ~ ~ o.4.4.d.j.P.W._.W.!.~._.{.(.W.W.W.W._. X{._.Y.P.K.~.E.Y.I.W.^.^.^.Q.H.B.m.d.k.9.u.c.d.h.d.p.4.<.1.1.:.%.>.1.| ] ^ W A Z Z ",
"L >.L R L / L { i.T.Y.W.].{.W._.{._.M.P.W.}.W.].W.~.g.H.W.{.W._.~.{._.].^.^.z.d.c.s.1.f.9.j.4.u.u.6.| %.<.6.[ >.1.<._ Q W U h m ",
"H x 5 3 < > > < d { r.M.W.W.W.T.].^.g.m.T./.^.Q.G.J.c.g.T.^._.{.|.XXXX_.~.B.e.` ^ L C C Y C V T ` ^ _ } 1.<.%.>.1.+.` W W Z M h ",
"e ; = : + # X X $ > e L { t.H.K.H.F.j.m.T.~.P.W.d.a.r.M.B._. X{.~.].Z.t.$.H e 3 > > : 3 < 5 7 d f n B Y T +.%.%.| :.) Q Y V M h ",
"c l c H x 3 & % + @ : 7 n / 6.m.D.D.d.j.G.D.G.j.p.4.6.u.c.W.W.W.b.$.d < = $ X X . . . X $ = = < 3 7 8 9 r n Y / ) | ^ T C V n g ",
"*.<.%.t.Z.Z.$.J d 9 3 7 p B C 8.j.M.u.c.m.N.a.d.1.+.^ >.p.m.c.<.M 7 = $ o X . . X X X + : * = : > < ; ; , 7 7 t f C C C V n g f ",
"&.:.} e.D.D.t.r.e.{ C M B l B ' x.c.a.a.k.c.h.9._ U Y T ` | ^ n 7 > + $ o o $ + > 3 d B / x r r r 7 ; ; , , 3 3 7 7 7 r n n g f ",
") ) / C ) e.e.t.1.+.Y n l C Y | :.j.9.u.9.d.h.d.W n B V V C f 0 ; : @ = = ; 7 f L { 1.b.i.r.%.) Y C V f 7 7 3 7 3 3 > < 3 7 t p ",
"%.C y Y H.T.W.T.B.r.+.M t t C ^ >.u.k.y.a.u.u.9.Q f f f n f t 1 ; - ; ; 1 8 l Y ' ] | | | ' +.[ %.<.%./ B f p 8 7 < > > : ; 7 8 ",
"&.M f B.T.Z.&.&.&.<.R V f 0 t C | p.p.a.d.d.1.9.| V y f f y 6 1 , , ; , 1 7 t V / Y n l p y 9 y l Y T / ^ Q B n r 9 3 < > ; - 3 ",
"r.V V -.I e > & # # = < 7 8 8 g U } c.G.D.j.a.1.+.U M f y 8 , ; ; ; = = 3 n / 1.t.e.` R L M y 1 ; ; 1 f / R B n n f r 7 7 7 3 1 ",
"*.^ H e X .   . .     . X = ; t n Q u.].^.W.G.m.1.Q n y 8 1 ; - = + o 3 p d 9 e 3 < 3 e r r 9 9 7 > + < n T Y T B B f f y f 8 8 ",
"*.B > .     . O .       . X o @ t U 0. X=XXX{.W.M.T y 6 1 1 ; = + X = ; > + . . .       . . . . X # X o < C ) U n n n M C n y y ",
"H 7 o o # % & * % O . X = > + o = Q 5.|.2X,X X~.z.W 1 1 8 , - ; - + o @ : < # O .     . . .   . . . . X + 8 1 6 6 y y n M M p y ",
"K 8 f / { { L H x d d d M n y y M i.G.@X4X2X#XT.9.n 1 1 y 6 t V Y V M Y ' / J d e < > < e 4 > < < - + = 1 8 1 q U ] ]  .4.1._ M ",
"e.t.| ) i.t.t.t.+.+.^ R U W ^ } ] G.W.=X2X,XoXW.} n 6 8 g C V >.5.>.^ ] ` 1.6.1.Q C C ^ V C f n l M C W y , 8 V U Q _ :.] :._ n ",
"y.m.c.9.o.} ] T W W W A Z m n n >.^. X=X,X&X XB.| M y y V  .5.5.d.p.4.^ V M V Y Z M y q q h A A W M 0 ; - 8 ^ 4.4.} T n l y p 0 ",
"a.P.G.P.1.A h M Z m g y 8 0 l r.oX@X@X=X=X@XB.1.W Z M A U ] o.p.k.D.d.D.9.U 8 1 1 6 1 6 8 0 , ; ; - ; 0 ! 9...>.o.8.| _ M f n V ",
"p.m.R.~.{.P.4.Z h t t y C 1.{. X=X$X&X&X#X Xt._ A A W } 5.>.8.s.m.c.m.G.W.T.B.z.e.^ M p y t t h Q +.u.u.m.c.9.} ] _ ..>.1.} +.' ",
"9.G.W.}.@X@X]._.H.H.H.].XX%X@X%X$X&X&X=X@X_.8.! m A Q X.0.c.s.k.9.c.c.U.P.W.T._.^._.~._.~.^.H.Q.T.T.j.P.c.c.p.p. .^ Q 6.5.0.0.5.",
"d.G.~.@X=X=X@X{._.]. X$X&X#X#X&X=X;X,X#XoXP.4.S Z Z A Q ~ } X.X.5.d.m.G.W.(.W./.].{.].{.].].{.^.^.D.k.h.d.h.d.u.5.} W ] 8.0.s.8.",
"M.^.Q.@X=X2X&XXX{. X}.&X=X&XoX;X,X3X&X@X].P.4.X.Q U h h h g q 0 q m | D.^. XT.^. X@X].oX@X@X].].^.P.p.a.d.j.3.s.0.0._ Q >.p.5.8.",
"G.~._.@X,X2X;XoX@X@X#X&X=X@X#X=X2X4X,X X^.H.c.u.u.~ h y m Z m g 6 , 8 U m.^.^._. X@X|.}.@X#X X].].Q.m.s.k.w.0.0.w.5.o.} :.6.4.1.",
"j.^.].&X,X2X,X=X@X=X=X@X@X@XoX=X,X4X;X XH.H.D.P.j.X.m h m 0.o.} m 1 - , f +.h.W._.oXoX#X}.{. X{.W.W.B.D.d.d.y.s.0.2.9.,.] +.4.4.",
"D.^.{.#X,X,X,X=X=X&X#XoX{.P._.@X2X3X=X{.R.H.W.T.4.A m m } s.u.o.~ y ; ; ; 6 V 1.H.T.]._.^.R.W._.Q.H.D.j.c.d.w.9.w.0.0.X.o.] 4.>.",
"c.^.^. X@X&X).}.~._.j.4._ :.^.=X3X3X&X@X].].H.9.m g y h A A m g y 6 1 q 0 0 6 n | j.a.^.W.W.j.P.c.G.d.m.s.m.1.0.w.w.5.>.>.:.^ _ ",
"s.G.W._._.J.W.G.d.~ M 6 0 i. X=X4X3X2X&X&X].6.n 6 , - - - = = - , 1 q y g f y 0 g W +.9.G.m.k.s.k.d.a.p.m.c.u.1.7.1.<.>.<.' ^ Q ",
">.p.m.G.W.P.j.o.m 0 - , ^ oX&X4X4X6X5X2XXXi.f , @ o o + @ + + - ; 1 1 8 0 y y g q y n ` 1.s.8.p.0.y.5.y.0.s.4.1.| :.| ) ` ) ^ ' ",
">.0.N.G.P.s.} m 8 - ; / oX=X,X4X5X4X>XoXA.V 1 = + + + + + + = = = - ; ; , 6 q y 0 6 6 y R ] } } ] | :.+.>.%.X.[ ' ) W ^ [ ^ U R ",
":.4.8.j.d.X.M 0 ; ; Y _.;X4X>X,X=X@XZ.t.R t - + o + o o + + + @ = - = = @ ; ; ; ; ; - ; 8 Y Q _ ..] ^ ` | :.Q ^ Q / B L ) { R ^ ",
"{ ,.o.X.>.A y , ; n t.XX;X>X&X].{.H.| f 6 ; = @ = = + @ = @ = = - ; = + @ = - ; - = @ = = , B _ :.] W Q ` _ Q T Q C l B ` Q ' ^ ",
"/ ..] X.Q h 6 ; 1 ) Z.(.W._.g.g.c.g.1.n 1 1 8 n 0 , ; ; - - - ; ; 3 - - - - : ; - - + + + + : l ^ >.' ^ T Q W ^ T W l C ^ [ { ` ",
"^ _ | _ A y 1 ; l +.g.{ C L ) R T V p ; = , M _ Y 0 6 , , ; - - ; ; , - ; ; ; ; , ; > = = + + : r Q ' ^ Q Q ^ / ) Q B B [ ` ) R ",
"U _ W W m q , 1 C 1.^ f t n n n t 8 ; = 1 Y Q ` _ Y f 0 1 ; - , , 1 , ; ; , ; 7 6 6 3 3 > = + @ - t U W W ' / ) %.$.l B ` ) C Z ",
"U W Q W C 0 , 1 Y / B 8 8 y l f t 8 1 1 ) G.P.u.5._ Z g y 6 6 6 g g y q q q 6 6 q 0 1 1 1 ; = + = ; t C ^ | ] { 6.{ B l ^ / C m ",
"n W ^ Q M y 6 6 B B f t 8 f n V g f n Q >.k.D.m.0.} A A M h h Z M m m A m g q q q q 6 8 6 7 : = + - , V Q +.1.e.<.&.B B L / / Y ",
"M W T _ Y t y 6 n l s 0 y f n m m W ] _ } } ,.o.} W Z A A Z Z M n h g g y 0 8 8 6 1 , 1 1 1 ; : - ; 1 y _ } e.e.4.{ K c / L T m ",
"B R W +.` f t y f B 7 3 7 1 1 y m A h m Z S A m h y 6 6 6 1 ; ; , , - - - - = = = = o o + @ + ; 8 f y 8 _ 7.%.1.+.$.c K J ) Y Z ",
"x L [ 1.i.C y M M f 7 - @ + - , 6 6 1 6 q y 0 6 8 1 1 1 6 6 1 1 8 6 ; ; ; ; ; ; ; , ; ; ; ; 1 h Q ' Y y } >.<.| ) / B K / L L C ",
"d L $.t.a.%.n M L l y r 1 0 y y y g g n j N N F F G R L G G G G M N h N g j g j g g y q 8 y C 7.5.0.Q C ] :.} +.^ R B H J I B D ",
"x B { i.M.t.W l ) R V V Z m M W } >.1.%.#.4.1.6.b.e.| Q G G N j N n m g g g a y a y q q h Q c.d.4.X.Y U :.:.| ` R c B H J J B M ",
"J / L 9.c.H.1.Y L { V A ! Q h Q ,.4.^ @.#.#.^ ^ %.{ F j a a 8 7 y y 6 8 g g 0 0 t 0 6 n | H.m.r.>._ M _ 9.9.^ C B c l B H D l M ",
"I I L ) M.P.g.+.B ^ A V S ^ A M V M f n M f p r p s r 9 7 7 < < 7 7 3 7 s y 8 t p t g Q B.T.M.1.1.Y n %.9.} T n x d l x c K B B ",
"J $.{ { &.N.M.g.R C ) _ A ] A f 9 6 , 1 1 9 9 9 7 9 9 7 7 3 > < > < < 7 7 9 0 y t f Y u.B.H.r.r.%.M l ' ' ^ V d r d x d B L C Y ",
"I *.&.$.*.&.t.g.1.c ' %.+._ U l y 8 7 7 r r p y s r r 9 7 7 > < < < 3 7 r r y p l Z <.g.H.m.t.r.%.n Y ~ ` U l r d d d l L L / ` ",
"$.-.$.*.*.*.&.1.%.H B 6.1.} Z h y t 8 y l l M B l f r 9 9 7 < < 7 e r n C C B C T +.i.B.m.F.a.z.Q M U ` Q Y r s s s s J L / / K ",
"$.=.*.&.*.$./ x K / B  .0.} W h g y f T 4.+.^ R T V f p s r s r l B T ` 4.1.| ' %.i.B.M.N.g.g.1.C V T C W l r s s d c P $.I K c ",
"I =.*.=.*.I d 5 e K B | 4.>.! m y f U d.j.c.u.p.4.+.' / M H ` 1.1.g.g.g.a.d.1.+.+.g.y.a.7.M.t.| M W ^ Q M r d H d x K I P I / / ",
"K *.=.*.*.b e > > 4 d | s.1.~ ! V C 6.z.D.j.9.1.9.w.g.r.t.t.F.D.H.T.P.M.r.%.| | r.i.t.r.i.a.j.{ / ) ) C d r x H J B B K K I $./ ",
"b $.I $.I b w * * < 4 B D.D.} 5.} 4.d.P.G.H.4.i.h.V.t.V.H.T.g.W.W.A.B.m.1.>.' 1.7.t.<.w.y.a.e.&.{ %.^ B r r 7 r P H f c K I { e.",
"z P I I I x 2 % * * > e b.W.0.i.p.0.0.B.T.T.B.B.A.U.A.A.~.~.{.oX@X~.t.g.7.1.+.O.1.>.<.>.t.r.t.O.+.` / d l e 9 7 c L B c K L &.r.",
"w H P I J x * % % & > e $. XB.d.k.a.9.H.W._._.'._.{.'.|..XoX{.@X].y.` c.6.u.+.O.{ >.>.r.f.m.D.r.$.{ L z d u w r r B K K K ) $.*.",
"w z J I b u & % % & > 5 K {. Xa.s.d.a.N.W.W./.^.].W.T._.}.].Z.M.B.y.y.r.r.1.` ^ +.{ y.y.n.W.T.r.<./ x x d u u e 7 9 f K L I c e ",
"5 w b b x w % # % & & > d {.oXT.f.d.1.j.R.~.F.U.H.M.y.g.B.l.1.i.p.p.] +. .%.] +.+.6.<.r.A./.W.t.{ L e d b x u u > > 7 r d e 4 4 ",
"% * 2 5 k 4 % O # % & * e Z.=X{.D.>.t.W.XX{.W.J.W.c.B.z.m.0.%.} +.( ^ Q  .]  .+.6.:.) t.W._.].-.$.c u 5 u 7 3 7 > $ = > > < > 4 ",
"O O # * 4 4 & O # # & > 7 b.=XXX*.A. X$XoX&X#XoX_. X~.~.P.J.d.c.>.| Y T Q ` ) 4.9.2.0.Y.Y.}.~.*.H i z e 2 > : 4 & # > 3 3 9 5 i ",
"O O O % * 2 * O O O % : f (.=X=X>X,X,X,X,X2X4X4X;X*X;X=X@X{._.~.W.G.` R ^ Q _ O.1.x.F.T.'.[.t.K H e w 4 2 * & & O # < 7 r d f x ",
". . . # % * & # . O $ < O.'.#X2X4X5X3X2X2X4X3X5X5X5X>X2X3X<XoXoXoX%X`.v.$.L D [ g.K.V.'.oXS.I H x w : * & & O O O # & < 9 r r d ",
". . . O # & % # . X # d r.|.=X-X2X3X3X-X:X:X:X:X1X1X:X:X:X:XOXOX+XOXOXOXOX;.I =.C.Z.S.S..X;.b v x w * & & # O O # # % * 5 5 w u "
};
