/* XPM */
static char *out[] = {
/* columns rows colors chars-per-pixel */
"64 64 217 2 ",
"   c #4A2415",
".  c #5C2C1A",
"X  c #68321E",
"o  c #583F2A",
"O  c #763A24",
"+  c #7E3D26",
"@  c #63432F",
"#  c #6E402D",
"$  c #6A4D37",
"%  c #77523D",
"&  c #7F5D46",
"*  c #814A35",
"=  c #8E4B34",
"-  c #96523A",
";  c #865540",
":  c #8C5D46",
">  c #9D5943",
",  c #955F49",
"<  c #A45E45",
"1  c #89664F",
"2  c #9B644E",
"3  c #916A53",
"4  c #9A6F56",
"5  c #AB644A",
"6  c #A16851",
"7  c #AD6D51",
"8  c #A86D58",
"9  c #B36A51",
"0  c #B76F53",
"q  c #A1765D",
"w  c #A7755C",
"e  c #AE755B",
"r  c #B4715D",
"t  c #B97658",
"y  c #A87B63",
"u  c #AE7D64",
"i  c #B77764",
"p  c #BD7564",
"a  c #B27861",
"s  c #B47F64",
"d  c #BB7E63",
"f  c #C1785B",
"g  c #C87E61",
"h  c #C07B6B",
"j  c #AC836B",
"k  c #BE8466",
"l  c #B3876E",
"z  c #BA876A",
"x  c #BF8B6C",
"c  c #B78C72",
"v  c #BC8E72",
"b  c #C38264",
"n  c #CC8566",
"m  c #C78568",
"M  c #C4816F",
"N  c #C48A6C",
"B  c #CC8C6D",
"V  c #CC8C6E",
"C  c #D18969",
"Z  c #D48C6E",
"A  c #D88F6F",
"S  c #C88973",
"D  c #CC8A78",
"F  c #D08B78",
"G  c #C39072",
"H  c #C69677",
"J  c #C89172",
"K  c #CC9475",
"L  c #CA997A",
"P  c #CF9C7E",
"I  c #D19071",
"U  c #D09072",
"Y  c #D29172",
"T  c #D09273",
"R  c #D39273",
"E  c #D49374",
"W  c #D59475",
"Q  c #DA9472",
"!  c #DD9876",
"~  c #D79778",
"^  c #D1967C",
"/  c #D89778",
"(  c #D59A7B",
")  c #D99878",
"_  c #D9997A",
"`  c #DB9A7A",
"'  c #DA9A7B",
"]  c #DC9B7B",
"[  c #DB9C7D",
"{  c #DA9D7E",
"}  c #DE9D7D",
"|  c #DC9D7E",
" . c #DD9D7E",
".. c #E09E7D",
"X. c #E29F7D",
"o. c #E2A07F",
"O. c #D89380",
"+. c #DD9E80",
"@. c #DE9F80",
"#. c #DF9F80",
"$. c #D4A082",
"%. c #DFA081",
"&. c #DCA386",
"*. c #D8A485",
"=. c #DCA88A",
"-. c #DFAB8E",
";. c #DFAF94",
":. c #E0A081",
">. c #E2A181",
",. c #E3A181",
"<. c #E0A182",
"1. c #E1A283",
"2. c #E3A282",
"3. c #E4A281",
"4. c #E5A382",
"5. c #E4A383",
"6. c #E5A383",
"7. c #E6A483",
"8. c #E5A484",
"9. c #E6A585",
"0. c #E7A685",
"q. c #E7A686",
"w. c #E8A786",
"e. c #E8A787",
"r. c #E9A887",
"t. c #E0A58A",
"y. c #E3AC8D",
"u. c #E7AD8F",
"i. c #E8A888",
"p. c #E9A888",
"a. c #E9A989",
"s. c #EAA989",
"d. c #EAAA8A",
"f. c #EBAA8A",
"g. c #EBAB8B",
"h. c #EBAC8C",
"j. c #EBAE8F",
"k. c #ECAC8C",
"l. c #ECAD8D",
"z. c #EDAE8E",
"x. c #EDAE8F",
"c. c #EEAF8F",
"v. c #EDAF90",
"b. c #E4B195",
"n. c #E9B193",
"m. c #EDB091",
"M. c #EFB090",
"N. c #EEB091",
"B. c #EDB192",
"V. c #EEB192",
"C. c #EFB192",
"Z. c #EFB293",
"A. c #ECB496",
"S. c #E6B599",
"D. c #EAB79A",
"F. c #EEB899",
"G. c #EEBC9E",
"H. c #F0B293",
"J. c #F0B394",
"K. c #F1B495",
"L. c #F0B496",
"P. c #F1B596",
"I. c #F1B597",
"U. c #F2B596",
"Y. c #F2B698",
"T. c #F2B799",
"R. c #F3B799",
"E. c #F3B899",
"W. c #F2B89A",
"Q. c #F3B89A",
"!. c #F3B99A",
"~. c #F3B99B",
"^. c #F4B99B",
"/. c #F4BA9C",
"(. c #F4BB9C",
"). c #F4BB9D",
"_. c #F5BB9D",
"`. c #F5BC9E",
"'. c #F5BD9E",
"]. c #F5BD9F",
"[. c #F5BE9F",
"{. c #F1BFA1",
"}. c #F5BEA0",
"|. c #F6BEA0",
" X c #E7C0A2",
".X c #F6C0A2",
"XX c #F6C1A2",
"oX c #F6C1A3",
"OX c #F6C2A3",
"+X c #F7C2A3",
"@X c #F6C3A4",
"#X c #F2C4A5",
"$X c #F7C4A5",
"%X c #F7C5A6",
"&X c #F7C6A7",
"*X c #F7C7A8",
"=X c #F7C8A9",
"-X c #F0CBAD",
";X c #F4CDAE",
":X c #F8C8A9",
">X c #F8C9AA",
",X c #F8CAAB",
"<X c #F8CBAC",
"1X c #F8CCAD",
"2X c #F8CDAE",
"3X c #F9CEAF",
"4X c #F3D1B3",
"5X c #F7D1B2",
"6X c #F0D4B6",
"7X c #F6D4B6",
"8X c #FAD3B4",
"9X c #FAD7B8",
"0X c #F1D8B9",
"qX c #F7D8BA",
"wX c #F5DBBB",
"eX c #F6DDC0",
"rX c #F9E1C3",
/* pixels */
"=.-.( { T { *.y.b.D.b.A.b.A.b.S.b.b.;.b.;.n.;.-.=.-.t.;.y.t.*.1.{ t.&.&.*.&.{ ( K T J V U U T T K T ^ ( ^ ^ J T S V V R U E U V ",
"=.P ( K L $.$.-.b.S.b.b.D.S.S.n.S.;.u.y.b.n.u.y.t.y.-.y.t.t.*.{ -.<.%.{ &.$.{ ( T K T K T K T J J J J T ^ K T U U U I U W Y R U ",
"L P L *.$.=.*.-.;.L.;.b.A.L.b.b.y.A.t.j.L.u.t.-.-.-.t.t.i.h.*.*.9.y.<.*.1.9. .| ' { W ] { { K K H H x N J J N J V V n U W / I R ",
"$.$.P *.*.-.;.T.T.T.u.Z.I.T.;.y.u.A.j.h.B.u.y.-.u.n.i.j.y.h.i.t.j.h.1.1.i.5.1. .<.@. .} >.{ $.L L H x x N x x b S B n B Y U U U ",
"=.u.n.A.u.A.I._.T.T.~.T.A.Y.A.B.B.B.j.V.j.I.u.T.B.I.J.T.m.L.h.V.u.h.g.9.#.2. .>. .o...o.{ <.{ P H H J J x N N S B V n B n n C Z ",
"L.I.T.W.(.L.Q.T._._.(.(._.T.W.!.(._.Q.T.T.L.I.L.T.L.J.j.B.N.j.h.h.i.a.0.%...o.} #.#...@. .@.+.T T J N N N b b b B B B n C n n C ",
"T._.L.(._.`.A.T.~.].A.W.T._.A.T.Q._.A.Z.Y.E.B.T.J.J.a.h.v.v.q.p.g.c.5.o.o.../ ..o.2.' ..%.1.K T J V b b N N b m m B b n n C g m ",
"/.T.Q.W.T.T.I.A./.~.A.B.Q.L.I.J.~.Q.L.B.T.~.I.B.Z.m.h.j.N.h.q.q.M.j.o.} X. .]  .:. .` |  .{ K K J N b b S m b b m b b b n n n g ",
"J.T.T.^.V.I.L.W.A.J.m.U.m._.T.Q.V.T.V.Q.~.'.Q.V.h.J.j.N.a.a.d.m.h.j.%...`  .+.%.] +.' } W _ T K b b b b b m b m k b f m g g g f ",
"L.T.T.J.T.V.L.J.L.L.m.j.B.T.T.L.!.T.~.(.oXE._.V.V.j.m.h.j.u.j.a.h.i.%... .@.| +.:.| | _ ` E K V V b b b m m d g b f f f f f f p ",
"Y.J.j.m.A.E.m.I.Z.K.y.a.j._.J.!.|._.W.}._.}.!.~.U.V.&.a.j.V.g.c.h.a.@.>.8.5. .#.@.%.W W W / V B m m t d b g t t t p 0 f f f t f ",
"T.L.j.h.z.T.L.J.U.h.y.a.d.T.T.~.oX|.}.(.oXW.T.A.h.9.1.i.h.h.t.9.c.i.5.@.2.#. .{  .| ~ ~ W W V n n b t t d t r r t r t t d t t t ",
"a.H.j.j.s.J.L.m.d.h.5.h.a.H.T.}.}.}.}.}.B.u.*.J k k d b k b k m U W W  .| #. .+.' { W [ Y I B B b b t t r t r t r t t d t t p f ",
" .p.c.a.h.a.g.y.h.9.<.1.i.h.T.T.L.j.*.x a 8 , % O O X O ; : 2 8 d d b N V V W _ | ~ W T E S m N b b d d d t t p f t f t f f t p ",
"E 5.e.p.f.s.5.p.a.2./ ` @.5.5.a.@.N 6 ; O X .           X O % ; , 2 6 6 7 e t K W W V Y V V k b m b i d d d 0 t t t 0 0 0 p 9 0 ",
"Y  .e.9.g.p.q.8.f.W V S E W W Y b < ; O O X . . X X O & 6 6 : = , 2 2 , 2 > > 8 a k m N B m k d d d t t t t 9 9 9 9 9 9 9 9 9 5 ",
"m | 9.a.8.s.a.e.8.V b N b V n k 7 - * * + * * , 6 u N @.<.%.T N d d e 6 > > > 2 > 6 8 a t d t d e 8 7 e 7 7 7 7 5 5 5 < < 5 5 5 ",
"t B ..7.p.e.p.9.7.V d t b b d 7 < - = = = > r k V W +.5.a.h.i.1.@.~ W K b e 6 6 6 6 6 6 8 e 7 7 7 6 5 6 < < 6 < < < < < 5 5 7 5 ",
"7 b I 2.c.h.o.g.| W b b d b 7 5 < > - > 2 8 e b I W V E ` @./ | +.%.{ +. .U d d r 8 > 2 6 8 6 6 8 7 6 6 5 7 < 5 7 7 < 5 7 e 7 5 ",
", r n #.Y.H.p.e.1./ V b d t 6 > > - - - - > r N T W I B V b d t d b S Y _ W U S N r 6 6 8 8 6 5 9 e 7 7 r 7 7 5 7 7 7 7 t t 0 t ",
"O * d 2.T.).L.V.e.%.U b r 7 < > - = + O = d K { -.h.1.1.| W m t < - > t b U U V b d t t r t t t t k t r 7 9 r r r t t d t d d b ",
"* O > #._.:XoXE.J.e.V 0 5 5 > = * + O * 8 e 8 a d G G V K S N d d 6 = * 2 N U V C m b b b b g b m b d t t t e r t r d t d d b b ",
"b B Y h.oX3X&X@XE.i.m 7 5 7 - = = * X * * * X   . . . # ; : : , 3 2 : ; + 6 b Y I C b b n C n m n n t d t t 7 t b m b m n B b n ",
"/ / #.Y.&X3X3X@XE.{ f 7 0 t < r m d 9 e r e 6 % .                   . . O * > < e t g g E W W / } / V B b r 7 7 e e r t d d t t ",
"0 g i.oX&XqX2X@Xj.W f 0 0 C m U } 0.#. .' ` ( W k e > , : , % % % * O * > e 5 7 7 b n E / #. .2...} W n t 7 > 2 > > 6 e r d d b ",
"B A.oX%X=X<X>X}.h.U b p g ! 7.o.g.g.7./ I E ` } / C n C C n d d b m n B n 7 < t E } 6. .' ` ` ' } W V B m d 9 7 6 8 e a d b x k ",
"oX>X}.*X3X5X_.j...E n C E ! 3.h.g.c.w.m.#.B 7 0 p t 7 9 0 b g C E n 0 < > 9 b ! 7.s.o.2.r.7./ ` } ..E ` Y b 7 7 5 8 2 e a d a t ",
"2X=X&X,X5X@XH.#. .E Z ) 0.1.2.f.M.c.c.c.E.Y.5.N t 7 < > < < > - - = > 9 E 9.g.g.p.9.7.>.8.3.5.4.0.0.o.' E d 7 6 6 2 6 6 a r t i ",
"&X2X2X5X@X}.e. .E W / 2.9.c.0.h.g.M.M.T.L.!.T._.P._.y.-.{ K V W ( %.i.H.Z.(.M.V.p.e.} 9.3.7.5.0.4.r...{ V d e 7 6 6 7 e t d d b ",
"1X3X3X1X}.V.2.E E W Q } 2.9.9.a.c.c.J.Y.E.!.E.!._.~.}.@X@X@X}.~.}..XT.T.U.H.C.M.M.p.2...o.o.9.7.w.7.0.W S d r 7 7 e r t d d m S ",
",XqX1X@XE.c...! E E C n n n f g Z 7.c.L.E._.J.R.].@X}.@X&X<X~.}.oX@XJ.Y.J.K.e.z.c.H.2.....o.} ..9.0.' E S b t t t d d b n B N J ",
"3XqXqXT.~.c.i.....Q n f n n g 9 5 0 n 9.E._.E.Y.oX&XoXoX1X:X&X%X>X@XL.V.J.j.z.c.C.C.d.7.o.} ` @.2.] [ E V N k d d b m n U U B B ",
"oX3X:X_.J.H.c.c.7.! n g A 0.2.! f > > t W h.H._._.&X@X1X@X&X@X$X[.OX`./.Z.H.j.C.l.M.k.s.0.o.} X.] ` W K m S b b t d b n C E I T ",
":X*X&X_.T.E.}.c...E C Z e.c.h.X.A 9 = = < d W 9.H.Y.}.oX:X@X@XoXoXY.E.L.U.K.M.z.j.g.r.0.i.#.} ` / T K m S S S b t t b n Z R W R ",
"3X7X@X@XoXoXJ.| n g g / 7.9./ C f 7 - > > 5 7 B ..c.V.Y._.}.T.~.~.J.f.H.H.J.h.M.M.k.6.r.7.p./ W W T N S S K T V m b d n C Z n C ",
"qXrXqX3X&X).W t 0 9 7 7 7 < > - > > 9 p f t e 7 b W #.i.H.Y.L.V.H.H.c.c.J.H.f.s.h.0.8.,.6.1.' R Y V S N V K W U B m b C E E U C ",
"rXrXqX3X~.{ e > * O O + O O + = - < 9 t 0 f t f 0 t m ` o.a.g.g.p.g.p.g.g.c.f.f.7.8.#.2.[  .E Y V T K V N T T Y V V V R I Z B Z ",
"qXqX3XT.<.r - + O O O + O O + * * - > > < 7 t t e 5 5 t I W } ..2.#.7.9.e.g.p...#.} #. .| W R K K T ^ K J K K T _ ' { ~ W C C B ",
"@X(.q.{ d > * O O O O O O O O * = = * * = > > > > > - - 7 m S W / ~ /  .#.5.`  . .' W W W R S K T T K W T K N T %.t.W W U C m n ",
"j.i.{ N < = * * * * + + * * = = = = * + * * ; = - = * * * - a U ` ' E W [ ' R R W W U T Y V N V T W T W K S N T { { W S Z B n n ",
"I Y b d > = - r t > = - = = = - - > = = = = = = = * + % O O * 8 V | / / E W E / I E I V N V m V S E I W V K S V T ( S m b n B n ",
"b r < - = = e x N e < > - - = = - , - = - - = - - - ; ; ; * O + > k E / W E I R Z E W U S S N S V V T T U x k d k x b b V n B C ",
"t t < < 5 b <.#.W m r 5 < > - - < > - > > > - < 5 < > 6 2 = * + + - 7 B W / I W E  .W T K V N S J T S T K N k k N G d m V U n C ",
"d d e t B ..e.g.0.Z g p 9 5 < 5 p p 9 9 9 9 5 5 0 0 9 7 5 > = * * * ; 7 V E I W  .' / W T J N N J K K K S x N J J b t b V V B B ",
"e d b Y W / ! 2...` Z C b b b g b n g n f f 9 9 0 p 9 9 5 5 > ; * * = > t W W } ] #.#.@.W K S J S T K J k x G K G d d k k N m S ",
"* - 7 t f f b g b g f 0 t 0 9 7 7 5 9 9 5 < < 5 5 < < > < < > : : = > < 7 B / _ ....o.` ' K J N J K K G N x G H x k k k N N N N ",
"* = = - - - - > < > - - = = + * * = * * O O O + * * O + * * + = < 7 7 t 0 B Y } >.>. .} / T N V J T J x k z d d z J x N N V k N ",
"t b f 0 r 9 < > > - - - - > > > 5 5 > > > > > > < < < < 5 5 < e V ' E W d B /  .2.#. .[ / V S N J H G d k u d d d z S J J N N N ",
"T V Z ) W O.O.O.F F D D h h h h h g h M f h h h p f f t p f n 5.l.7.8.<.m I ..X.` ' ' ` K V S J N H x d a s x d s k x K T T T U ",
"~ V n Q T Y W W W F F D b i h e 8 r r 0 r p f t p p 9 r f B #.M.N.7.5.` B U #.} | / W U V N V N J x d e d x s e d N G K P ( ~ ^ ",
"^ V d d i a q e a e 6 8 8 8 2 , , 2 , 2 8 a 7 r t r r f m | g.M.c.g.#.E B / | ..} _ N V N S N N N x e e d k s d x G G P $.{ J J ",
"T W m t e 6 2 2 6 6 6 6 8 6 , , , : , , 6 8 8 8 r r t b I 9.j.j.J.H.5.Y V / ` ' ` E V N N N N B V d e e d x d s G H K L $.J J N ",
"K %./ m e 6 2 2 6 8 a t a e 6 2 , , > 2 6 a a d k b N U ~ 1.i.Z.m.j.5./ V / } #.W ~ V m b N V T N d 8 a d H G x x J H L K ( ( ( ",
"G { +.V d 8 6 > 6 e b S V k a e e e 8 e a b T K W / _  .@.5.h.j.A.y.5._ W W ' W / W V N S K T V V d e a s d L J x x G J ( &.&.( ",
"v H N J N d 7 7 r d V { q.( b S K ( E { *.-.y.i.y.J.1.a.j.j.8.u.y.a.<.' { ( W / _ ] B V T K K T J d e q 6 6 d H G N x J ( &.&.8.",
"l H G x K S d b b S { 1.i.i.| | i.i.y.y.j.A.A.L.F.I.q.<.y.8.9.t.y.y.%._ +.' ' _  .( U E { T T T N s k z y w a N K J N J P *.t.q.",
"q G G x x J V / Y / } %.a.v.1.a.j.J.A.W.T.).T.@X{.T.u.5.+.q.i.y.$.<.W _ ( { { | _ +.@.1.{ ( ^ ^ x u s l w w 8 a d J K K P &.$.P ",
"q l H x w w k K ` 8.1.@.h.l.a.a.L.L.K.).}.oXOXOX@XG.n.u.j.y.i.y.+.( I T / ~ [ +.+.<.9.i.y.@.{ L x w l l j u u 6 2 a N K P G u q ",
"4 4 v u q 3 3 u N { i.I.A.J.q.i.x.T.j.T.~.'.P.L.I.T.q.y.u.m.>.1.{ { U E / | _ @.2.y.1.j.Z.m.{ K x q q x l l w 6 * 2 8 e 6 4 3 3 ",
"$ & 1 q w & % & 1 w N b.}.V.k.w.a.j.J.Z.Y.Q.m.u.x.u.5.#.4.q.#.` { ~ W ~  .' @.1.{ 8.u.H._.E.&.H x s 4 w w 4 2 6 % % : ; : , , 3 ",
"o @ $ 1 3 3 @ $ $ & 3 d T.1XL.<.i.oX.XOX}._.^.~.Z.T.m.x.i.q...o.W W I W ) +.%.i.%.8.j.W.E..X-.P l u j 3 3 : : 3 $ @ : 2 2 8 6 u ",
"o o o $ & 1 % o o @ % , ( &X3X X5X3X3X3X8XqX7X5X1X<X2X&X}.~.~.~.Z.t.E T W W _ +.5.d.Z.I..XXX=.H x w q 3 3 & % % @ @ , 6 e s d z ",
"      @ $ & % @   o # , +.}.=XqXeXrXwXqXqXeXwXrXrXrX7XqXwX9X%X%X&X<X{.n.$.K S [ j.I.A.}.%XG.P G x q & & % % o o o @ % , 8 e e s ",
"      o @ % $ @   . @ s y.+X4X4XqXwXwX4X6X6X6X6X0X0X6X6X6X6X-X-X;X-X-X-X-X;.P =.S.D.D.#X#X;.v c j q & % % @ o o @ @ $ & 4 4 q y "
};
