/* XPM */
static char *out[] = {
/* columns rows colors chars-per-pixel */
"64 64 231 2 ",
"   c #2B1608",
".  c #4A2415",
"X  c #5C2C1A",
"o  c #68321E",
"O  c #583F2A",
"+  c #763A24",
"@  c #7E3D26",
"#  c #63432F",
"$  c #6E402D",
"%  c #6A4D37",
"&  c #77523D",
"*  c #7F5D46",
"=  c #814A35",
"-  c #8E4B34",
";  c #96523A",
":  c #865540",
">  c #8C5D46",
",  c #9D5943",
"<  c #955F49",
"1  c #A45E45",
"2  c #89664F",
"3  c #9B644E",
"4  c #916A53",
"5  c #9A6F56",
"6  c #AB644A",
"7  c #A16851",
"8  c #AD6D51",
"9  c #A86D58",
"0  c #B36A51",
"q  c #B76F53",
"w  c #A1765D",
"e  c #A7755C",
"r  c #AE755B",
"t  c #B4715D",
"y  c #B97658",
"u  c #A87B63",
"i  c #AE7D64",
"p  c #B77764",
"a  c #BD7564",
"s  c #B27861",
"d  c #B47F64",
"f  c #BB7E63",
"g  c #C1785B",
"h  c #C87E61",
"j  c #C07B6B",
"k  c #AC836B",
"l  c #BE8466",
"z  c #B3876E",
"x  c #BA876A",
"c  c #BF8B6C",
"v  c #BF8470",
"b  c #B78C72",
"n  c #BC8E72",
"m  c #C38264",
"M  c #CC8566",
"N  c #C78568",
"B  c #C4816F",
"V  c #C48A6C",
"C  c #CC8C6D",
"Z  c #CC8C6E",
"A  c #D18969",
"S  c #D48C6E",
"D  c #D88F6F",
"F  c #C98270",
"G  c #C88973",
"H  c #CC8A78",
"J  c #D38E7E",
"K  c #C39072",
"L  c #C69677",
"P  c #C89172",
"I  c #CC9475",
"U  c #CD917C",
"Y  c #CA997A",
"T  c #CF9C7E",
"R  c #D19071",
"E  c #D09072",
"W  c #D29172",
"Q  c #D09273",
"!  c #D39273",
"~  c #D49374",
"^  c #D59475",
"/  c #DA9472",
"(  c #DD9876",
")  c #D79778",
"_  c #D1967C",
"`  c #D89778",
"'  c #D59A7B",
"]  c #D99878",
"[  c #D9997A",
"{  c #DB9A7A",
"}  c #DA9A7B",
"|  c #DC9B7B",
" . c #DB9C7D",
".. c #DA9D7E",
"X. c #DE9D7D",
"o. c #DC9D7E",
"O. c #DD9D7E",
"+. c #E09E7D",
"@. c #E29F7D",
"#. c #E2A07F",
"$. c #D89380",
"%. c #D89982",
"&. c #DD9E80",
"*. c #DE9F80",
"=. c #DF9F80",
"-. c #DD9986",
";. c #D99E87",
":. c #D4A082",
">. c #DFA081",
",. c #DCA386",
"<. c #D8A485",
"1. c #DCA88A",
"2. c #DFAB8E",
"3. c #DFAF94",
"4. c #E0A081",
"5. c #E2A181",
"6. c #E3A181",
"7. c #E0A182",
"8. c #E1A283",
"9. c #E3A282",
"0. c #E4A281",
"q. c #E4A382",
"w. c #E5A382",
"e. c #E4A383",
"r. c #E5A383",
"t. c #E6A483",
"y. c #E5A484",
"u. c #E6A584",
"i. c #E6A585",
"p. c #E7A685",
"a. c #E7A686",
"s. c #E8A786",
"d. c #E9A887",
"f. c #E0A58A",
"g. c #E3AC8D",
"h. c #E7AD8F",
"j. c #E8A888",
"k. c #E9A888",
"l. c #E9A989",
"z. c #EAA989",
"x. c #EAAA8A",
"c. c #EBAA8A",
"v. c #EBAB8B",
"b. c #EBAC8C",
"n. c #EBAE8F",
"m. c #ECAC8C",
"M. c #ECAD8D",
"N. c #EDAD8D",
"B. c #EDAE8E",
"V. c #ECAE8F",
"C. c #EDAE8F",
"Z. c #EEAF8F",
"A. c #EDAF90",
"S. c #EEAF90",
"D. c #E4B195",
"F. c #E9B193",
"G. c #EDB091",
"H. c #EFB090",
"J. c #EEB091",
"K. c #EDB192",
"L. c #EEB192",
"P. c #EFB192",
"I. c #EFB293",
"U. c #E1B49A",
"Y. c #EAB79A",
"T. c #EEB899",
"R. c #EEBC9E",
"E. c #F0B293",
"W. c #F0B394",
"Q. c #F1B495",
"!. c #F0B496",
"~. c #F1B596",
"^. c #F1B597",
"/. c #F2B596",
"(. c #F2B697",
"). c #F2B698",
"_. c #F2B799",
"`. c #F3B799",
"'. c #F3B899",
"]. c #F2B89A",
"[. c #F3B89A",
"{. c #F3B99A",
"}. c #F3B99B",
"|. c #F4B99B",
" X c #F4BA9B",
".X c #F4BA9C",
"XX c #F4BB9C",
"oX c #F4BB9D",
"OX c #F5BB9D",
"+X c #F5BC9E",
"@X c #F5BD9E",
"#X c #F5BD9F",
"$X c #F5BE9F",
"%X c #E4BBA0",
"&X c #F1BFA1",
"*X c #F5BEA0",
"=X c #F6BEA0",
"-X c #F6BFA1",
";X c #F6C0A1",
":X c #F6C0A2",
">X c #F6C1A2",
",X c #F6C1A3",
"<X c #F6C2A3",
"1X c #F7C2A3",
"2X c #F6C3A4",
"3X c #F7C3A5",
"4X c #F2C4A5",
"5X c #F7C4A6",
"6X c #F7C5A6",
"7X c #F7C6A7",
"8X c #F7C8A9",
"9X c #F0CBAD",
"0X c #F8C8A9",
"qX c #F8C9AA",
"wX c #F8CAAB",
"eX c #F8CBAC",
"rX c #F8CCAD",
"tX c #F8CDAE",
"yX c #F9CEAF",
"uX c #F3D1B3",
"iX c #F7D1B2",
"pX c #F0D4B6",
"aX c #F6D4B6",
"sX c #FAD3B4",
"dX c #FAD7B8",
"fX c #F1D8B9",
"gX c #F7D8BA",
"hX c #F5DBBB",
"jX c #FADDBE",
"kX c #F6DDC0",
"lX c #F9E1C3",
/* pixels */
"3.L.s.z.{ V p f f v l K o.R.-X3X&X3X&XqX3X<X&X2X,X6X4X7X&X5X<X<X&X<X).&X!.OX).`.L.E.A.M.J.L.L.L.j.j.y.x.i.8.{ X.` [ ^ { ) ) ! ^ ",
"1.s.m.r.~ r > = # o # $ > n h.F.$X$X$X7X0X6XXX).XX6X0XqX1X}.).XX1XXX).!.).). X|.'.H.l.v.!.l.v.V.m.x.y.s.z.u.X.| | | +.{ | [ ` ! ",
"V D / N 1 ; : : + # X # $ : 9 G 8.!.).$XwX3XW.W.}.7X5X3X3XXXE.'.>X1XG.!. X$X!. X).^.l.C.C.(.9.s.j.x.*.s.d.t.` { | | ) X.X.{ W D ",
"c M h y f I f.F.D.n 5 4 3 3 1 t Q ..G.XX3XXXE.H.'.1X6XXXXX!.H._.-X>X$X$X:X1X@X).`.).G.j.b.l.y.i.s.e.i.c.s.X.` ( +.| | X.#.^ ! S ",
"c N h ^ f.W.}.-X$X1XY.h.:.P m N Z ) >.~.~.}.W.Q.I.1X$X}.H.H.M.`._.=X$X7X1X7X1XOX`.|.M.S.v.V.l.M.l.s.z.p.#.+.{ | } O.4.5.` ! A S ",
"n ( ] l.E.].'.OX&X@X$X!.G.g.8.) ) ' o.B.).).(.n.K.~.~.H.l.y.k.G.].=X2X=X+X-XY.F.h.8...) [ >.e.i.y.k.k.p.t.X.&.&.*.*.8.*.{ R C A ",
"I Z.l.L.!.W.l.G.).XXG.G.I.M.=.o.o.>.o.C.W. XH.H.I.'.G.M.9.9.X.y.B.).W.l._ c e 9 7 < : 4 7 r f m m Z Z ) | +. .>.8.a.>.8.{ E N M ",
"K H.Z.A.M.| ) y.W._.I.L./.r.! W [ +.9.a.^./.E.b.!.^.L.k./ W ! ) >.9.' f 7 > + o # X . . X o + : 3 7 f m Z ~ ) ..e.8.8.X.] A N h ",
"n A.z.Z.| N f.@XXX$XT.}.W.G.` C f S X.v.Z./.Q.P.h.!.n.l.M h N Z G C y 1 - & o o X . . . . X o $ + = > 7 8 y f Z ] 8.>.8.) S m m ",
"K C.y.+.N e.XX;X}.).).OX].Q.9.S h m ^ X.N.Q./.n.G.M.M.p.Z g m m l t 6 ; - + + $ $ + = > > 7 e 9 > = : : > < 3 7 f R ' *.` A h g ",
"L `.y.) Z G.F.G.y.8...y.>.=.~ Z m m h ^ r.|.'.XXZ.L.C.r.! N f f t 8 , ; ; - - ; 7 p l Q =.g.>.o.Z f 8 9 < : = ; ; 8 l ) ^ A g g ",
"T {.J.^ ) h._ e 7 7 e e e 8 8 0 g q f M #.H.-X3X-X'.N.a.` C g 8 6 , ; ; ; , 6 t Z | o.+.>.=.>.=.>.' ^ C l 8 < > > ; < r N m g y ",
"Y I.H.| Q d # . . X X . . X o @ = - , N ( x.7XsXtX3XXXH.] N 8 8 1 ; - - - - 1 f Z +.>.=.~ R N C l V Z ] ' ^ p 9 3 ; : > < r y g ",
"I s.y.C , + . . . X . .     . X o X + ; p.H.eXdXsX7X1XW.] 0 1 1 , - = + $ 1 m ^ 8.y.y.>.o.) Z N f 8 1 t V G C m f 7 > : : : 7 8 ",
"_ ] f 1 , Z V s s e > : : : : 3 < 3 8 R H.$X7XjXjXeX_.g.N 6 , 6 - ; = $ = 9 r G ) >.+.>.o._ V V m f 1 - ; l V C V l 7 < : = - 1 ",
"..Z m N ] ] r.s.k.e.o.I ! Z N C S / | r.'.1XeXdXsX0X'.o.g 1 1 8 1 t y 1 ; = @ = 7 d K K n v d s e e 3 > @ > l V N l p 9 < - - ; ",
"<...s.v.s.k.r.r.] ^ S ^ ^ / ^ / M m N B.@XeXtXdX7X1XG.[ y 6 6 m N Z | k.#.| m 7 + o X X o + $ $ o o X # o o 7 I ! C f f t 8 7 6 ",
"g.!./.S.'.).M./ N m N M M g y 6 0 A Y.7XeXtXtXeX:XW.e.C m y g N / X.+.9.y.+.| ~ C f 7 - + o X X . X . .   X = p f 0 y m M V Z t ",
"2.J.Z./.#XqX$X'.B.o.g t q y y Z F.7X1XqXeXdXeX7X@XM.C h N S M A S #.9.s.M.l.` Z M M m m f y 6 8 8 8 3 1 ; , , ; ; 1 8 y l N y m ",
",.N.E.(.1XeXtX:X1X$XXXXX$X@X$XqXeXqX5XqXyXyXyX3X'.+.M h A / ] X.+.9.s.p.B.W.W.y.C y 8 q q 8 0 y h A A A A g 1 - 8 R ) R M m g y ",
"8.m.Q.+X=XqXwXeX3X+XXX:X1X7XeXeX5XqXwXwXyXyX7X@XM.| M M M ^ ( s.k.k.t.c.d.H.~.'.!.W...C t 6 1 , ; ; - - @ @ - y W W C X.t.t.{ ^ ",
"j.I.'.+X5XyXdX0XqX=X-XOXqXeXtX6X0XqXsXsXjXiX:XW.M.+.D A A M A S / | p.d.B.m.E.~.}.'.@X$X-X'.g.' Q N N N C ~ | ] #.>.| N N ] t.A ",
"n.|.^.1XwXsXjXiXyX3X X1XeXyX7X7X0XyXtXjXlXdX}.W.B.B.X.| S h q y y q 0 M +.W.Z.Q.(.+XQ.$X1X7XXX$X:X$X!.).E.H.p.r.] X.+.| f y 8 1 ",
"S.`.#X5XyXsXlXgXiXtX7X7XeXrXyXeX7X0XrXsXjXtXXXE.H.H.H.s.( h y m S M 0 , q ) M.Q.#XOXOX#X5X7X@XXX3X-X'.W.H.v.s.r.t.W ! +.X.y 8 N ",
"b.+X2XeXyXjXlXjXrXtXeXtX7X7X@X$X1XwXyXgXhXqX$X'.!.).E.i.S h M ( 9.#.^ g , 6 C H.`.`.].3X-X7X2X<XoX X|.].B.v.s.Z.i.| C ) *.8.! R ",
"Q.OX5XeXsXjXjXyXqX$X'.!.W.r./ =.1XqXyXaXdXeX3XOX-X'.>.N g g S #.s.#.( M 6 - , m e.W..X=X0X0XqX7X1X=X$XW./.v.l.d.d.6.) C { t.l.E ",
"(.:X+XwXaXyX7X1X'.B.( S g 6 0 M.3XtXsXjXkXjX7X7X@X9.y 6 6 8 8 y y y q 6 6 6 , 1 y +.v.}.3X7X}.$X$X,XW.H.H.P.5.a.c.d.X.R ~ u.w.I ",
"`.#X>X7XiX7X}.B.r.S y 1 - 7 y.1XeXyXjXlXlXlXyX=X>.y ; @ + $ + $ + @ - ; 0 y y q 0 f ] l.'.@X}.W.XX!.v.v.B.B.d.t.m.z.0.X.! +.#.Q ",
"H. X-X7X<X}.v.+.M q , - 1 f.@XyXyXsXlXlXdXyX:Xg.f ; + $ + @ + + $ - - ; , 0 q y q q g | y.H.H.'.H.H.B.B.l.v.v.m.d.z.t.u.( ` | ( ",
"N./.OX=X-Xv.] M y ; - 8 8.$XtXsXjXdXyX7X@XF...m 1 = + + + o o + + @ @ - ; , 1 8 y g q g / 9.l.v.v.s.p.k.p.s.k.c.c.d.s.e.@.` { ` ",
"Z.Q.S. XB.X.M y 1 - , W !.tXeXiXqX7X@X-Xl.N 6 ; - @ $ + + + $ + + @ + - - = @ ; 8 q 8 6 y W ) 9.s.p.+.9.m.l.=.k.e.m.w.s.#.X.) [ ",
"m.H.P.H.p.S g 6 ; - f =.}.,XY.B.v.y.k.v.B.Z 6 ; 1 0 6 ; ; = = @ = - = - - + + @ ; ; ; ; , 8 C ~ X.] ] X.r.r.r.+.9.9.t.6.q.X.~ ! ",
"t.m.c.m.( M q 1 - , C e.l.) G ) ^ R N m t ; = , t W W t 1 ; ; - = - ; 3 > = = - - - - - = - 8 C ~ ] / ] ] t.=.o.) e.*.8.*.&.! ! ",
"a.t.t.#./ g 8 , - 0 W o.) f f C C f 8 8 , - , l ^ ) ) M f 6 , ; - = ; ; , ; ; - - - - = = = - 8 ^ ` ` / / ] [ ) ) ) [ | O.} ^ E ",
"6.6.( ( W f 1 , , C V _ v t t C ~ ! t y t f o.).).v.] / S h 6 1 , 1 1 6 6 1 ; , ; , - : - + + : y [ W ) ~ [ Z ) ` ) I Q ` | Z E ",
"@.O.| S M t 1 , 6 C V G p t f Z ~ ! N N | 9.g.M.).E.r.| / A h y g m A A M h y 0 6 1 1 , < : = + ; C ) ^ ` ! Z E ^ Q V V Q ^ E Z ",
"` ( ( / g q 6 1 1 I V V r 8 f Z C R ^ r.9.X.| =.=.9.X.+./ / ^ ^ ^ / ^ ] ] ] S m q 0 0 0 6 , = + = 8 Z ` W ^ E ! R E P V P Q Q ^ ",
"` { ` S m y 0 6 8 C V f 8 r f f m M A W S M M M M M g y y q q q q y g j M h g y y y g q 6 , ; + = ; f E R R R R ~ ^ P l I _ [ ! ",
"! X.^ D m f y 0 8 G l 8 8 f 8 7 8 a q q y g y g a q 1 1 , , - - - - - , , ; ; , 6 0 0 q 6 8 ; = = - 6 C ! ! Z ^ ) *.P l I  .! Z ",
"R | ` ( M 0 N f s P V r r 7 ; - - = = - < 1 3 , > = + $ = = = + + + + + + + + + = - - , 6 8 1 ; - - , y ~ ~ ) ) +.>._ l I ! E A ",
"N { @.q.Z t m Q m Z G f 8 7 ; - o . . X o $ & & $ % # & & 4 5 5 * * * & $ $ X X . . . o = , 1 1 ; - ; 8 C ` [ | *.8.' V V ^ ^ A ",
"N ` q.z.>.m f ^ Q Z Q V f y t 3 = X X X X o # O O # # # % & * & # O O . . . .           . o ; 1 , ; 1 8 C ~ o.O.8.>.:.V P ^ Q M ",
"V | e.K.E...y P =.) Q ~ Z C N y f y - + & * : * * % # # # % O O X X X X o o X X .       . o = ; 7 y t t N | | >.5.o.I V P ' Z A ",
"x ' h.I.|.V.N f 8. .) ' ] ^ S h M S a 8 3 y K c n d 5 > * * & = & & = = : : = + o X . . X = ; 6 V R Z g C +.{ ....' I n L _ ! C ",
"d _ g.[./.].:.d Z 8.o.o.^ ( ^ S h ^ C a 1 9 l $.3.D.%XU._ _ _ U v v s t r 9 7 3 + o X + > t 0 f | 6.| C Z | { +.) I V V P Q G C ",
"x V f.I.OXoXG.P l 5.+.^ ` ) ( / A S #.^ M t t B %.,.D.3.3.;.f.3.f.f.J H J H B j 3 ; , q f g m ] a.i.@.C ^ ` | [ ^ P c c Y P c N ",
"I _ I n. X$X^.8.f ) #.+.| +.D / S A 9.s.i.-.J %.-.-.J $.J J $.%.,.e.$.%.$.J j a q j a j j h S l.V.y.` C ` d.) ` V V d c Y L l N ",
"Y T Q ..^._.{.I.E l 4.0.0.+.( D S M / X.s.k.-.-.8.8.-.$.9.$.$.-.-.e.-.$.$.$.B j M h a y y N >.n.i.>.! N +.8.) V l d d l c P V N ",
"Y <...&.y.I.Q._.>.r ! x.r.@.| ( M h g N N $.-.-.-.=.=.g.f.p.=.g.-.=.J J J J B j y q 6 0 y [ I.).7.| N C [ >.Z f s s d c l I Z Q ",
"T <.<.:.:.i.n.C.d.f N d.z.+.| / M m y 0 8 t m H ! J %.,.f.8.;.-.$.H F F j t t 0 q 8 6 8 l y.K.h.8.| N N ] ~ f 8 r d p x I P ^ ) ",
":.1.:.,.<.,.,.8.i.{ f 5.m.i./ / M N y t y r 8 r 7 7 3 e d d 7 9 7 7 3 7 7 3 7 7 0 0 8 y ) !.G.a.a.| f W ` Z 9 e r d s P I _ ! I ",
":.<.<.<.<.:.c l h.o.R q.v.+.X.( M m f f f t r r y 9 7 7 7 4 < > < > > > 3 3 3 7 0 t y Z l.!.l.h.l.W N W R l r s s f K P T :.P V ",
"Y 1.<.1.:.L e 3 x I O.i.Q.s.X.#.A m f m C ) Q C l V p s 9 7 7 7 < < < 3 3 3 9 r t m Z l.I.!.h.h.>.N Z ^ f r x x d K L Y T Y I ' ",
"L <.1.1.<.c 7 > 2 u ..A.|.L.+.+./ M M S 9.H.C.e.=.o.Q V l p e 9 9 7 9 s f V C C Z ~ x.L.G.h.a.g.~ N W E r s P I P K L Y _ T ' _ ",
"n <.:.<.T c w & * 4 r F.-X'.| k.s.+.+.Q.(.~.b.l.y.v.s.n.g...P I [ .._ >.e.y.8.8.o.y.a.F.G.b.i.h.' ~ W V r r 9 l :.c c P _ ,.&.,.",
"z Y T T T x 2 % * > 5 T 8X7Xl.#.P.p.a.L.-X}._.W.!.L.G.L.~.W.h.h.Y.Y.F.Y.I.a.g.| a.g.h.g.h.b.h.8...) Q f x 7 < 9 I V c V T :.y.g.",
"w K Y :.L d * % & & 4 K #X0XW.m.x./.s.Q.[. X#X-X#X@X}.$X}.*X}.7XeX8X&XT.F.l.8.8.8.e.4.d.a.M.F.g...&.V x z i 7 r f _ I K K :.8.1.",
"u x Y Y K w & % % & 2 u F.yX<XL.l.m.c.m./.^.-X:X,X3X1X3X7X7X7X7X7X}.i.y.L.h.y.X.+. .8.i.b.I.!.h.8.Y v L z i u r 9 f c I I Y b i ",
"5 w n n z w # # % & & 4 Y iX8X^.x.j.#.V._.=X(.[.XX$Xn.I.}.7XF.F.!.L.a.a.i.i.] ` | >. .h.^.=X].n.<.Y 5 z n z i u = 3 9 f x w < 4 ",
"% & 2 3 k 5 # O # # & > f 8XyX}.h.8.M.@X8X2XoX}.+X!.V.b.I.x.8.#.v.6.....| {  .' a.8.o.h.oXoX+Xi._ c u 5 u e 5 w * + > > > > < > ",
"O O # * 4 4 % O # # & > t &XyXT.<.R.5XyXwXyX3XqX*X>XoX}.!.n.v.l.+.| E ~ ) [  .i.j.e.>.!.].,X}.,.K i z 5 2 > * 4 % # : < 3 7 3 s ",
"O O O % & 2 & O O O % : l #XyXiXgXgXaXiXsXhXlXkXaXiXsXyX8X;X=XoX Xn.' I _ _ [ X.8.x.I.).,X,XF.P K w w 4 > * & & O # < 7 s d f x ",
". . . # % * & # . O $ < O.*XqXgXkXlXhXgXgXkXhXlXlXlXpXgXhXdX6X6X7XeX&XF.:.I G o.n.^.L.&X3X&XT P c w * * & & O O O # & < 9 r r d ",
". . . O # & % # . . # d g.2XuXuXgXhXhXuXpXpXpXpXfXfXpXpXpXpX9X9X9X9X9X9X9X3.T 1.F.R.R.&X4X3.K b z u * & & # O O # # % * 5 3 w u "
};
