/* XPM */
static char *out[] = {
/* columns rows colors chars-per-pixel */
"64 64 219 2 ",
"   c #2B1608",
".  c #4A2415",
"X  c #5C2C1A",
"o  c #68321E",
"O  c #583F2A",
"+  c #763A24",
"@  c #7E3D26",
"#  c #63432F",
"$  c #6E402D",
"%  c #6A4D37",
"&  c #77523D",
"*  c #7F5D46",
"=  c #814A35",
"-  c #8E4B34",
";  c #96523A",
":  c #865540",
">  c #8C5D46",
",  c #9D5943",
"<  c #955F49",
"1  c #A45E45",
"2  c #89664F",
"3  c #9B644E",
"4  c #916A53",
"5  c #9A6F56",
"6  c #AB644A",
"7  c #A16851",
"8  c #AD6D51",
"9  c #A86D58",
"0  c #B36A51",
"q  c #B76F53",
"w  c #A1765D",
"e  c #A7755C",
"r  c #AE755B",
"t  c #B4715D",
"y  c #B97658",
"u  c #A87B63",
"i  c #AE7D64",
"p  c #B77764",
"a  c #BD7564",
"s  c #B27861",
"d  c #B47F64",
"f  c #BB7E63",
"g  c #C1785B",
"h  c #C87E61",
"j  c #C07B6B",
"k  c #AC836B",
"l  c #BE8466",
"z  c #B3876E",
"x  c #BA876A",
"c  c #BF8B6C",
"v  c #BF8470",
"b  c #B78C72",
"n  c #BC8E72",
"m  c #C38264",
"M  c #CC8566",
"N  c #C78568",
"B  c #C4816F",
"V  c #C48A6C",
"C  c #CC8C6D",
"Z  c #CC8C6E",
"A  c #D18969",
"S  c #D48C6E",
"D  c #D88F6F",
"F  c #C98270",
"G  c #C88973",
"H  c #CC8A78",
"J  c #D08B78",
"K  c #D38E7E",
"L  c #C39072",
"P  c #C69677",
"I  c #C89172",
"U  c #CC9475",
"Y  c #CA997A",
"T  c #CF9C7E",
"R  c #D19071",
"E  c #D09072",
"W  c #D29172",
"Q  c #D09273",
"!  c #D39273",
"~  c #D49374",
"^  c #D59475",
"/  c #DA9472",
"(  c #DD9876",
")  c #D79778",
"_  c #D1967C",
"`  c #D89778",
"'  c #D59A7B",
"]  c #D99878",
"[  c #D9997A",
"{  c #DB9A7A",
"}  c #DA9A7B",
"|  c #DC9B7B",
" . c #DB9C7D",
".. c #DA9D7E",
"X. c #DE9D7D",
"o. c #DC9D7E",
"O. c #DD9D7E",
"+. c #E09E7D",
"@. c #E29F7D",
"#. c #E2A07F",
"$. c #D89380",
"%. c #D89982",
"&. c #DD9E80",
"*. c #DE9F80",
"=. c #DD9986",
"-. c #D4A082",
";. c #DFA081",
":. c #DCA386",
">. c #D8A485",
",. c #DCA88A",
"<. c #DFAB8E",
"1. c #DFAF94",
"2. c #E0A081",
"3. c #E2A181",
"4. c #E3A181",
"5. c #E0A182",
"6. c #E1A283",
"7. c #E4A281",
"8. c #E4A382",
"9. c #E5A382",
"0. c #E4A383",
"q. c #E6A483",
"w. c #E5A484",
"e. c #E6A584",
"r. c #E6A585",
"t. c #E7A686",
"y. c #E8A786",
"u. c #E8A787",
"i. c #E9A887",
"p. c #E0A58A",
"a. c #E3AC8D",
"s. c #E7AD8F",
"d. c #E8A888",
"f. c #E9A888",
"g. c #E9A989",
"h. c #EAA989",
"j. c #EAAA8A",
"k. c #EBAA8A",
"l. c #EBAB8B",
"z. c #EBAC8C",
"x. c #EBAE8F",
"c. c #ECAC8C",
"v. c #EDAD8D",
"b. c #ECAE8F",
"n. c #EDAE8F",
"m. c #EEAF8F",
"M. c #EDAF90",
"N. c #EEAF90",
"B. c #E9B193",
"V. c #EDB091",
"C. c #EFB090",
"Z. c #EEB091",
"A. c #EDB192",
"S. c #EEB192",
"D. c #EFB192",
"F. c #EFB293",
"G. c #ECB496",
"H. c #EAB79A",
"J. c #EEB899",
"K. c #EEBC9E",
"L. c #F0B293",
"P. c #F1B495",
"I. c #F0B496",
"U. c #F1B597",
"Y. c #F2B596",
"T. c #F2B697",
"R. c #F2B698",
"E. c #F2B799",
"W. c #F3B799",
"Q. c #F3B899",
"!. c #F2B89A",
"~. c #F3B89A",
"^. c #F3B99A",
"/. c #F3B99B",
"(. c #F4B99B",
"). c #F4BA9B",
"_. c #F4BA9C",
"`. c #F4BB9D",
"'. c #F5BB9D",
"]. c #F5BC9E",
"[. c #F5BD9F",
"{. c #F5BE9F",
"}. c #F1BFA1",
"|. c #F5BEA0",
" X c #F6BEA0",
".X c #F6BFA1",
"XX c #F6C0A1",
"oX c #F6C0A2",
"OX c #F6C1A2",
"+X c #F6C1A3",
"@X c #F6C2A3",
"#X c #F7C2A3",
"$X c #F6C3A4",
"%X c #F7C3A5",
"&X c #F2C4A5",
"*X c #F7C4A6",
"=X c #F7C5A6",
"-X c #F7C6A7",
";X c #F7C7A8",
":X c #F7C8A9",
">X c #F0CBAD",
",X c #F8C8A9",
"<X c #F8C9AA",
"1X c #F8CAAB",
"2X c #F8CBAC",
"3X c #F8CCAD",
"4X c #F9CEAF",
"5X c #F3D1B3",
"6X c #F7D1B2",
"7X c #F0D4B6",
"8X c #F6D4B6",
"9X c #FAD3B4",
"0X c #FAD7B8",
"qX c #F1D8B9",
"wX c #F7D8BA",
"eX c #F5DBBB",
"rX c #FADDBE",
"tX c #F6DDC0",
"yX c #F9E1C3",
/* pixels */
"1.S.y.h.{ I d k i P <.J.H.K.K.}.}.*X}.@X}.@X}.$X+X=X&X-X}.*X@X@X}.@X}.}.).'.R.W.S.L.M.L.Z.S.S.S.d.d.w.j.r.6.{ X.` [ ^ { ) ) ! ^ ",
",.y.c.v.y.` N N [ l.s.z.I.oX#X-X,X*X;X-X,X=X*X#X*X=X,X<X2X,X=X*X#X#X X'. X'.).(.Q.P.P.F.I.L.F.b.c.j.w.y.h.e.X.| | | +.{ | [ ` ! ",
"V D ( @.` N 9 9 9 7 < 4 x B./.-X*X,X|.-X1X1X X[..X-X*X4X%X,X[.oXOX#XE.W.).{.I.).R.U.x.n.n.T.l.k.d.j.*.y.i.q.` { | | ) X.X.{ W D ",
"c M M g 1 = + $ # X X O $ < c ..I. X.X+X2X,X'.E. X#X=X-X*XoX_.E..XOX!.F.Q.R.U.R.W.R.V.d.z.C.j.r.y.0.r.k.y.X.` ( +.| | X.#.^ ! S ",
"c N y 6 , 9 c P x 4 & $ $ = < r Z t.'.*X+X%X~.P.F.#X*X1X]. XR.W.E. X).R.P.'./.'.W.(.L.N.l.b.g.y.4.y.h.m.#.+.{ | } O.2.3.` ! A S ",
"L D m R a.!. X'.}.}.<.P x r 9 8 V ' t.T.oX XT.x.A.{.=X}.[.I.F.V.!. X$X X]..X#X#X XW.!.D.M.h.d.r.h.c.v.c.q.X.&.&.*.*.6.*.{ R C A ",
"L m.r.S.~.].~.oX-X:X/./.F.t.Q V Z ) ) n.(.).C.d.F..X`.T.S.G.d.n.Y..X#X-X:X,X$X@X X'.l.s.t.l.6.i.n.D.h.l.i.t. .;.6.t.;.6.{ E N M ",
"L P.m.M.Y.D.Z.x.!.E.F.S.Y.s.6...[ ` ` t.U.Y.L.z.I.U.S.B.z.r.w.d.L.'.]./.].J.<.:.,.' c l V U ) 6.0.2.4.8.t.0.*.*.0.6.6.X.] A N h ",
"n M.h.m.c.X.Z 6.s.J.J.G.s.t.` ` ` | [ 0.m.Y.P.D.s.I.x.F.X.| | 4.6.C.S.t._ f 3 : = & $ $ & = > r r f l Z C ) ` 5.*.6.;.6.) S m m ",
"L n.w.r.X.m s.XX-X=X#X'.!.P.o.N h Z @.8.v.P.Y.x.V.Z.L.D.` A ! Q ` [ | f 9 > + X X . . . . . X $ : > < r f m V E ^ O.o.*.` A h g ",
"P W.w.#.m ;.}.+X$X|.G.F.x.V.X.Z y m A 8.v.(.n.n.m.S.n.l.^ h f N N V y 6 ; = + $ X X . X X $ + & = & + : < 7 1 9 r Z Z ) ^ A g g ",
"T ^.Z.^ N s.I.,._ c f d x V m m g q m ^ r.C.D.m.m.M.v.t.` l g m l y 8 , ; - + + = - , 9 f I U I r 3 - - > > > > > , 8 f V m g y ",
"Y F.Y.| N ,.s * # # # # . # = < 1 0 g A ( j.P.].C.b.n.f.^ N m f 0 8 1 ; - - - ; 6 f I ' ..t.p.u.*.U m d 7 3 - : = ; ; < 1 r y g ",
"U x.z.^ N > .     . . .     . X $ = 1 f D 4./.-X%X/.I.h.{ C f 0 6 , ; - ; ; ; , 8 l E U Z C E _ ` ' -.' U I s 7 < < > : : : 7 8 ",
"_ { ' N ; = X X # % O . . .   . O X o ; D g./.6X6X2XE.T.6.C 8 6 1 , - - = @ + 9 U ;.t.z.t.| N y 0 0 8 l [ [ V m p s < > : = - 1 ",
"..Z t , , ` ~ N ^ I s 5 < > * > : = - ; +.P.%XwXwX,X.X(.r.f , , , - @ + X $ 7 f V Q ..,.t.;._ E m s < : 6 f Z U ! V r 3 < - - ; ",
">... .0.6.4.c.P.t.g.r.:._ ! G V m E ` 4.C.].:X0XwX4X*XS.E 8 1 6 ; - @ @ o @ @ - + $ : : : < 7 r 7 r 7 < + = f Z V V f p 8 6 1 6 ",
"a.I.Y.N.l.#.r.k.+.` ^ ^ S ! ` S ^ A N / T.(.6X8XwX2X].g.C 6 1 8 1 6 m f y 8 1 < = # X       . . . . X O O X : V Z C C m m V Z t ",
"<.Z.m.Y.[.).y.` A M h S ^ D h g q t Z T.-X2X2X8X2X-XF.6.N q 1 y C N E q.r.4.` | | _ s 5 = $ X . . .   .   . . 3 Z E y y l N y m ",
":.v.L.T.#X#X Xx.r.S q 8 6 6 6 6 C B.*X:X,X:X4X6X6X].t.Q N y g m S +.| 4.y.4.` ~ X.+.` ! C N m y 7 3 ; = + # + - 1 , 1 t g m g y ",
"6.c.P.]. X<X1X*XW.].P.S.t.s.x.|.*X:X1X1X-X4X4X4X+XI.| A m A A S A +.q.k.i.C.r.! g g g h g g y h m S A Z C M f 8 ; 8 ! 7.q.q.{ ^ ",
"d.F.Q.].*X1X4X,X#X X.X'.'. X*X=X,X<X2X2X2X6X6X*X].g.D h M ! ( +.q.r.l.i.h.c.L.T.s.~ t 6 6 1 6 6 8 q q q 6 , - - 8 C W C ^ +.q.A ",
"x.(.U.#X1X9X4X6X4X%X).'.oX2X-X2X,X1X1X4XwXrX:X#XT.t.S M M S D +.h.k.7.h.k.m.m.P.T.].P.I.6.E r 1 ; - = = - , 6 h ( 8.4.` f y 8 1 ",
"N.W.[.*X4X9XwXwX6X-X~.|.,X3X4X2X-X,X3X6XyXeX*XT.S.k.^ S S M h m N M S +.c.m.L.P.[.'.'.[.*X].].]./.F.s.g.C.l.r.d.q.) ] +.X.y 8 N ",
"z.].$X2X4XrXyXrX3X=X*X:X-X9X6X2X@X1X4XwXeXyX%X/.z.l.r.r.D h y y g q 1 6 M g.C.!.W.W.!. X.X-X$X@X`.).(.!.P.Y.C.m.r.| C ) *.6.! R ",
"P.'.*X2X9XyXyXyX9X<X1X<X4X2X2X*X#X<X4X8XyXwX%X'.L.C.P.C.4.A g h D D M 1 , y X.P.)._._. X,X,X<X-X#X X{.Q.Y.v.c.i.i.4.) C { q.g.E ",
"T.oX].1X8XtXeXwX6X-X].+X|./.r.6.F.*X;X8XtX6X|.].I.Y.n.g./ A h D t.l.+.A 6 ; 1 E S.oXW.#X1X4X%X,X-X+X/.'.Y.D.3.t.k.i.X.R ~ e.9.U ",
"W.[.OX-X6X4X4X1X|.P.t.+.( N 0 M /.@X2X8XyXwX:X X*X Xs.C g g M ( y.4.( A y ; - , N t.~.{.<X2X=X,X<X-X{.P.(.L.i.q.c.h.7.X.! +.#.Q ",
"C.)..X-X@X#X[.].t.+.M y , - y J.#X,X6XyXeXyXwX,X*Xz.m 6 , , , 1 1 6 6 1 , 1 6 1 , l 6.(.{.|.$X%X X.XT.T.I.Y.l.c.i.h.q.e.( ` | ( ",
"v.Y.'. X.XW.P.6.` m 6 - - f I.:X2X4XwXyXyXyXwX%Xz.m , = o o o + + + - ; 6 q y q q 8 m +.z.U.'.).P.S.C.C.L.C.m.k.k.i.y.0.@.` { ` ",
"m.P.N.).{.I.X.S g 1 = - N I.[.6X8X9XeXwXwX6X}.x.N 1 @ + + @ + + + @ - - ; 6 1 0 g g 8 m | r.t.C.C.C.r.c.c.D.h.v.c.c.9.y.#.X.) [ ",
"c.C.D.C.L.4.Z g 6 = - f B.+X1X9XrX6X2X:X#XI...l 6 - + + + + o o o @ @ = - ; ; , q y y 8 g ! +.y.t.r.r.y.h.i.l.k.c.k.q.4.8.X.~ ! ",
"q.c.k.c.9.! f 6 - - 6 | F.:X:X:X}.J.J.#XS.| 0 , - = @ @ + @ o + + @ + = = = + - ; , , 1 , t C X.| | ( 7.#.q.g.i.7.0.*.6.*.&.! ! ",
"t.q.q.#.{ m q , = ; C ..T.S.:.;.;.| +.q.r.` t , , 0 f 1 , = = = = = - - - @ @ + - - - - - - 6 C ^ ` ` ` | O.6.6.o.[ [ | O.} ^ E ",
"4.4.( ( W f 1 - - y V ..;.c 0 m ~ ! f y t , @ = 6 C E y 6 , ; - = - = ; ; - = - - - - = - = = 9 Q [ A ! ~ [ ! ) ` ) U Q ` | Z E ",
"@.O.| S M 8 , ; 1 C U _ I t 8 t N l t 8 6 - , N ;.+.) S m 0 , ; - = - ; , ; - - ; ; - = = + $ + 9 ` X.^ ` ! Z E ^ Q I V Q ^ E Z ",
"` ( ( / y 1 ; ; 1 U V _ f 8 6 y m ! m f r t ! P.T.S.q.+.A h 0 1 , 1 8 q 6 6 , , , ; , < - = $ + = f ` ` ! ^ E ! R E I V I Q Q ^ ",
"` { ` S y 6 , - 8 G V V s 7 8 y C ! A M ` | 6.f.S.L.i.@.( A M m g m A S A M N y 6 1 6 6 1 , : + + ; f E ^ ^ R R ~ ^ Q l U _ [ ! ",
"! X.^ D y y 1 ; 0 Q l l r 8 8 y m C A ( +.+.! ` | +.^ ^ S S h M A A h D A D M m q 0 0 q 6 6 - @ + - , N ! ! Z ^ ) *._ l U  .! Z ",
"R | ` ( f 0 f 1 s Q l r r r 8 8 0 y m N M h m h N m y 8 8 6 1 , 1 1 1 6 t 0 6 6 0 0 q q 6 1 , = = + - 8 S ~ E ) +.;.&.l U ! E A ",
"N { @.8.N 8 N m s ' f r 7 7 ; - - ; , 1 1 6 9 8 , , - - = : - = + @ @ = @ @ + @ = - ; 1 1 8 6 < = = - 1 N ` ! | *.6.:.V V ^ ^ A ",
"N ` 8.h.;.f m  .f c N y 7 3 - = = - @ + o o $ = : : > < 5 w z z u w w 4 & $ X . X . X o - < 1 , - - ; , f ~ X.O.6.p.6.V I ^ Q M ",
"V | 0.A.L.' t ' _ Z N V f f r 6 y m 6 - + $ o $ & % % * * 4 u u 4 4 > * & = $ X .       . o + ; - 7 1 6 y ` ^ ;.3.6._ V I ' Z A ",
"x ' s.F.(.b.f m 6. .) ~ Q C C h M S M j 3 & = & > * * * * & : = & = : & & : $ X . . . . X + = ; t l N y g [ { +.6.' U n P _ ! C ",
"d _ a.~.Y.!.-.d ' 6.` ) ^ ( ^ A N ^ ^ ` B 9 3 7 9 r v I x p f f r r 7 < < < : = X X o - 1 8 6 0 S 4.| C l | { 3.| ^ V V I Q G C ",
"x V p.F.'.`.V.V l 3.[ ^ ` ^ ^ / A M #.+.6.$.G B B j F K H a G F H G j a j 0 7 1 , 1 8 y y 0 t E t.r.@.C Z ` 3.O.[ I c c Y I c N ",
"U _ U x.).{.U.6.f ) #.+.` +.D / S A | r.r.f.K $.=.=.K J K J $.%.%.$.J G G F y q a j a y y g M g.b.w.` C ` i.5.` V V d c Y P l N ",
"Y T Q ..U.E.^.F.E p 2.7.7.+.D D S M M ~ [ [ =.=.6.6.=.$.$.$.$.=.=.$.H G $.E a j g y q 8 y N 6.x.r.;.! l X.6.[ V l d d l c I V N ",
"Y >...&.w.F.P.E.;.r ! j.y.@.| ( A h t y y m J K J $.$.$.$.$.K $.J F a B j y y y 8 0 6 0 y [ F.s.5.X.N m ^ { Z p s s d c l U Z Q ",
"T >.>.-.-.r.x.n.i.f l i.h.+.| / A m f 8 8 8 r s p p f x I v B f p r r r 9 3 7 9 8 8 6 8 C z.A.s.6.| y N ] ~ f 8 r d p x U I ^ ) ",
"-.,.-.:.>.:.:.6.r.{ y 3.c.r.{ / M f y t y r 8 r r 7 3 7 5 7 < > > < : > > < < 7 9 0 8 m ;.I.t.t.t.| y W ` Z 9 e r d s I U _ ! U ",
"-.>.>.>.>.-.c l s.o.R 8.Y.i.#.( S m f y m m f f m f r r 7 4 < > > : > > 3 3 3 7 0 t l [ b.I.g.s.g.C N Z R l r s s f L I T -.I V ",
"Y ,.>.,.-.P e 3 x U O.r.P.m.X.#.A m f m ! r.4.| E E m f r 7 7 7 < < < 7 7 r r f f N ' F.F.I.s.s.;.C Z ^ f r x x d L P Y T Y U ' ",
"P >.,.,.>.c 7 > 2 u ..M.(.S.+.+./ M M S f.C.n.f.t.#.` ! I f s r s r f x E ` [ ` ` [ j.S.t.s.t.a.~ Z ` E 8 s I U I L P Y _ T ' _ ",
"n >.-.>.T c w & * 4 r B..X+Xq.f.t.+.+.P.T.T.z.l.t.l.t.x.B.t...:.,.B.6.B.x.l.6.6.X.t.t.B.d.z.r.s.' [ ` V r r 9 l -.c c I _ :.&.:.",
"z Y T T T x 2 % * > 5 T :X-XD.#.D.l.t.S..X/.E.F.I.S.S.S.T.P.I.J./.J.J.J.F.t.;.| t.t.s.t.s.z.s.6...{ Q f x 7 < 9 U V c V T -.w.a.",
"w L Y -.P d * % & & 4 L [.,X).c.j.Y.y.P.~.).[..X[.]./.|./.|./.-X2X:X}.J.j.g.6.6.6.r.2.i.t.z.B.t.:.&.V x z i 7 r f _ U L L -.6.,.",
"u x Y Y L w & % % & 2 u B.4X@XS.g.c.k.c.Y.U.W.+X+X#X#X%X-X-X-X-X-X/.r.w.S.z.r.X.[  .6.r.z.F.I.x.6.Y x P z i u r 9 f c U U Y b i ",
"5 w n n z w # # % & & 4 Y 6X:XU.j.d.#.b.E. XT.~.].].x.F./.|.F.B.I.S.t.t.r.r.] ` | p. .s.U. X!.x.>.Y 5 z n z i u = 3 9 f x w < 4 ",
"% & 2 3 k 5 # O # # & > f :X4X/.s.6.I.$X:X$X`./.].I.b.z.F.j.6.#.r.4.| ~ | {  .;.t.6...s.`.`.].r.U c u 5 u w 5 w * + > > > > < > ",
"O O # * 4 4 % O # # & > t }.4XJ.>.K.*X4X1X4X<X<X|.OX`./.I.x.l.g.+.| E Z ! [  .r.d.0.;.I.!.+X/.:.L i z 5 2 > * 4 % # : < 3 7 3 s ",
"O O O % & 2 & O O O % : l [.4X6XwXwX8X6X9XeXyXtX8X6X9X4X:XXX X`.).x...U _ _ [ X.6.j.F.R.+X+XB.I L w w 4 > * & & O # < 7 s d f x ",
". . . # % * & # . O $ < O.|.<XwXtXyXeXwXwXtXeXyXyXyX7XwXeX0X=X=X-X2X}.B.-.U G o.x.U.S.}.%X}.T I c w * * & & O O O # & < 9 r r d ",
". . . O # & % # . . # d a.$X5X5XwXeXeX5X7X7X7X7XqXqX7X7X7X7X>X>X>X>X>X>X>X1.T ,.B.K.K.}.&X1.L b z u * & & # O O # # % * 5 3 w u "
};
