/* XPM */
static char *out[] = {
/* columns rows colors chars-per-pixel */
"64 64 217 2 ",
"   c #2B1608",
".  c #4A2415",
"X  c #5C2C1A",
"o  c #68321E",
"O  c #583F2A",
"+  c #763A24",
"@  c #7E3D26",
"#  c #63432F",
"$  c #6E402D",
"%  c #6A4D37",
"&  c #77523D",
"*  c #7F5D46",
"=  c #814A35",
"-  c #8E4B34",
";  c #96523A",
":  c #865540",
">  c #8C5D46",
",  c #9D5943",
"<  c #955F49",
"1  c #A45E45",
"2  c #89664F",
"3  c #9B644E",
"4  c #916A53",
"5  c #9A6F56",
"6  c #AB644A",
"7  c #A16851",
"8  c #AD6D51",
"9  c #A86D58",
"0  c #B36A51",
"q  c #B76F53",
"w  c #A1765D",
"e  c #A7755C",
"r  c #AE755B",
"t  c #B4715D",
"y  c #B97658",
"u  c #A87B63",
"i  c #AE7D64",
"p  c #B77764",
"a  c #BD7564",
"s  c #B27861",
"d  c #B47F64",
"f  c #BB7E63",
"g  c #C1785B",
"h  c #C87E61",
"j  c #C07B6B",
"k  c #AC836B",
"l  c #BE8466",
"z  c #B3876E",
"x  c #BA876A",
"c  c #BF8B6C",
"v  c #B78C72",
"b  c #BC8E72",
"n  c #C38264",
"m  c #CC8566",
"M  c #C78568",
"N  c #C4816F",
"B  c #C48A6C",
"V  c #CC8C6D",
"C  c #CC8C6E",
"Z  c #D18969",
"A  c #D48C6E",
"S  c #D88F6F",
"D  c #C98270",
"F  c #C88973",
"G  c #CC8A78",
"H  c #D08B78",
"J  c #D38E7E",
"K  c #C39072",
"L  c #C69677",
"P  c #C89172",
"I  c #CC9475",
"U  c #CA997A",
"Y  c #CF9C7E",
"T  c #D19071",
"R  c #D09072",
"E  c #D29172",
"W  c #D09273",
"Q  c #D39273",
"!  c #D49374",
"~  c #D59475",
"^  c #DA9472",
"/  c #DD9876",
"(  c #D79778",
")  c #D1967C",
"_  c #D89778",
"`  c #D59A7B",
"'  c #D99878",
"]  c #D9997A",
"[  c #DB9A7A",
"{  c #DA9A7B",
"}  c #DC9B7B",
"|  c #DB9C7D",
" . c #DA9D7E",
".. c #DE9D7D",
"X. c #DC9D7E",
"o. c #DD9D7E",
"O. c #E09E7D",
"+. c #E29F7D",
"@. c #E2A07F",
"#. c #D89380",
"$. c #DD9E80",
"%. c #DE9F80",
"&. c #DF9F80",
"*. c #D4A082",
"=. c #DFA081",
"-. c #DCA386",
";. c #D8A485",
":. c #DCA88A",
">. c #DFAB8E",
",. c #DFAF94",
"<. c #E2A181",
"1. c #E0A182",
"2. c #E1A283",
"3. c #E3A282",
"4. c #E4A281",
"5. c #E4A382",
"6. c #E5A382",
"7. c #E4A383",
"8. c #E6A483",
"9. c #E5A484",
"0. c #E6A584",
"q. c #E6A585",
"w. c #E7A685",
"e. c #E7A686",
"r. c #E8A786",
"t. c #E8A787",
"y. c #E9A887",
"u. c #E0A58A",
"i. c #E3AC8D",
"p. c #E7AD8F",
"a. c #E8A888",
"s. c #E9A888",
"d. c #E9A989",
"f. c #EAA989",
"g. c #EAAA8A",
"h. c #EBAA8A",
"j. c #EBAB8B",
"k. c #EBAC8C",
"l. c #EBAE8F",
"z. c #ECAC8C",
"x. c #ECAD8D",
"c. c #EDAD8D",
"v. c #EDAE8E",
"b. c #ECAE8F",
"n. c #EEAF8F",
"m. c #EDAF90",
"M. c #EEAF90",
"N. c #E4B195",
"B. c #E9B193",
"V. c #EFB090",
"C. c #EEB091",
"Z. c #EDB192",
"A. c #EEB192",
"S. c #EFB293",
"D. c #ECB496",
"F. c #E6B599",
"G. c #EAB79A",
"H. c #EEB899",
"J. c #EEBC9E",
"K. c #F0B293",
"L. c #F0B495",
"P. c #F1B495",
"I. c #F0B496",
"U. c #F1B597",
"Y. c #F2B697",
"T. c #F2B698",
"R. c #F2B799",
"E. c #F3B799",
"W. c #F3B899",
"Q. c #F2B89A",
"!. c #F3B89A",
"~. c #F3B99A",
"^. c #F3B99B",
"/. c #F4B99B",
"(. c #F4BA9B",
"). c #F4BA9C",
"_. c #F4BB9C",
"`. c #F4BB9D",
"'. c #F5BB9D",
"]. c #F5BC9D",
"[. c #F5BC9E",
"{. c #F5BD9F",
"}. c #F1BFA1",
"|. c #F5BEA0",
" X c #F6BEA0",
".X c #F6C0A1",
"XX c #F6C0A2",
"oX c #F6C1A2",
"OX c #F6C1A3",
"+X c #F6C2A3",
"@X c #F7C2A3",
"#X c #F6C3A4",
"$X c #F7C3A5",
"%X c #F2C4A5",
"&X c #F7C4A6",
"*X c #F7C5A6",
"=X c #F7C6A7",
"-X c #F0CBAD",
";X c #F4CDAE",
":X c #F8C8A9",
">X c #F8C9AA",
",X c #F8CAAB",
"<X c #F8CBAC",
"1X c #F8CCAD",
"2X c #F8CDAE",
"3X c #F9CEAF",
"4X c #F3D1B3",
"5X c #F7D1B2",
"6X c #F0D4B6",
"7X c #F6D4B6",
"8X c #FAD3B4",
"9X c #FAD7B8",
"0X c #F1D8B9",
"qX c #F7D8BA",
"wX c #F5DBBB",
"eX c #F6DDC0",
"rX c #F9E1C3",
/* pixels */
",.Z.0.9.{ I x x i x *.,.,.,.:.,.,.,.,.,.,.N.F.G.N.G.G.J.F.G.B.B.p.B.>.i.>.p.i.l.2.u.$.-.2.q.=.2.] o. .} ] } _ _ R Q R _ T ~ R E ",
";.g.c.a.2.) K B K Y ,.,.B.,.N.,.N.,.F.,.F.N.G.G.F.H.Q.G.H.Q.Q.B.Z.i.p.i.S.S.S.p.>.a.q.d.d.i.e.1.%.$.@.@.4...] ( ! R Q R ~ E Q E ",
"K 4.9.8.2.` K L ` p.p.N.F.H.,.L.L.H.B.H.H.Q.F.F.^.[.L.J.Q.`.S.U.P.U.g.M.S.P.p.M.z.h.4.a.d.j.<.=...O.] ..+.4.| _ ~ A m A R A Z A ",
"x } } _ o.` ` -.l.P.S.S.J.Q.Q.Q.[.[.[.[.XX|.).`.XX|.J.J.).~.S.S.Y.Z.l.k.K.S.m.m.v.a.q.e.z.r.} ..O./ { $.<.@.{ [ _ A Z Z A A Z Z ",
"x O.O.9.a.S.H.[.H.`.).|.).|.). X^.[.oX$X|.XX`.XXQ.[.^.`.U.^.I.R.D.I.p.a.a.l.p.j.r.a.e.j.s.@.] O./ o.$.2.X.X.] ( R A V E m A m Z ",
"~ 2.a.h.K.R.Q.~.[.).^.`.{.Q.[.R._.`. X).`.).^.Q.[.{.[.U.^.I.U.U.U.U.I.g.h.d.j.r.r.9.r.a.a.$.O.{ O.} [ =.1.] ! E A V V Z m m Z Z ",
" .3.2.z.M.U.P.R._.|.Q.{.|. XL.~.^.{.H.[.`.).S.Q._.|.H.^.Q.Q.I.Q.!.).C.M.z.j.a.r.a.x.a.j.z.r.] ..+.2.$.@.2.&.! E C Z h m m Z h M ",
"Y Y I ) q.U.U.R. X{.[.{.|.).U.L.Q.Q.Q.[.|.).P.I.[.`.Q.U.(. X[.Q.(.Y.I.l.P.m.e.t.f.h.r.f.z.r.+.} 1.1.$.o.2.] ~ R Z m h h m h h h ",
"* > > 4 i  .i.!.T./.T.^.{.^.S.U.M.Q.~. XL.L.C.U.P.[.). X{.|.oXOXR.U.l.i.1.1.1.2.X.` ( o.o.=.O.<.X.X.$.%.$.=.E A h n g h g h g g ",
"$ o X O # < s F  .d.S.U.'.P.n.Z.Z.U.I.U.C.Z.l.l.Z.I. X|.$XOX$XQ.B.:.I x d s r r r r t n M C W ! _ { ] X.=.] ! V h f n g g g f g ",
"x 5 & # $ = : 6 n ~ X.Z.P.~.v.z.S.P.d.k.p.j.2.h.l.E.H.`.^.U.Y x r 3 & $ $ o o $ = : : 3 r t t y p F R ~ X.] V M n l y f f n g g ",
"F.,.Y x s 7 3 7 t l C 1.U.n.v.a.v.z.x.9.q.4.2.2.d.v.S.p.=.f 3 = $ X . . . . . o + + @ = < 3 3 , 3 7 8 y M C M l n f y y h g g g ",
"p.B.:.2.` ( F B l n M ( e.v.z.z.r.b.h.j.o._ E ( ] 1.2.( t 3 = + + X X X # $ > e r 9 < < < < > > > , 3 7 7 9 9 t t f y g y y y g ",
"_ ` q.q.u.] R B B V W ' $.g.c.r.h.h.l.d.] M M C C R V f 1 - @ + @ = : 3 s B ` 2.2. .I C F p t 7 3 , 3 3 3 < < < 3 8 8 t 0 0 q q ",
"p.^.H.Q.S.l.( M t f M ~ @.k.q.r.a.z.r.f.] n f n M M t 8 , ; - : ; 7 t M ( 2.1.e.d.k.1. . .=.! E n y 9 7 3 < > > : 3 1 6 6 8 1 6 ",
"H.B.:. .:. .~ C l 8 q V | 4.r.e.r.f.e.q.o.M f f l f 8 6 , ; ; , 6 t f M ! E V V W C M V ! ( ~ ! ! F B p r 3 < > > ; , 1 6 6 6 1 ",
"Y i > = $ & : 9 8 8 8 l m ..j.S.r.a.8.f.] ! M n y t , , ; ; ; - - 9 n { =.O.~ E n y 8 6 , 8 l R R ! F M f r 9 3 , 1 6 8 8 8 8 8 ",
"$ .   O .     . o : , t M T a.U.S.k.d.d.q.( C f 8 7 , - - = + = t G #. .i.-.=.~ W M n t 6 = : 8 C C C B M n l f n y 8 8 8 8 t t ",
"      O #       . X o = f _ @. X$X XL.P.C.2.f 8 6 7 - = = $ o 3 9 3 & > > * : < 7 7 3 3 7 < + @ 9 ( E ! C V n M n l t y f f a g ",
"# $ & & % O O O $ = $ $ - A q.oX5X:X{.^.).X.q 1 6 , - - = $ @ @ @ $ . .         . .     . X X X = t M t y n n n M l t t y g a y ",
"P ( W K d i i f d s 8 t t 4.n.=X5X8X<X Xi.C 8 6 8 1 1 y 8 , 7 8 9 t w 2 O X X O X . . O O X . o = 1 1 8 f V V ~ C E M n g g f n ",
"a.h.i.9.2.X.E A ~ A ^ [ O.S.^.<XqXqX5X^.2.l 6 6 a n n ] 9.@.o.{ $.=.1.) n p s d f t t 9 9 6 8 y n 6 1 g R X.@.<.@.<.' g t 8 t q ",
"4.d._ ~ ^ ^ Z A W ^ h h _ [.[.3X5X9XoXU.O.h 8 0 m @.} 4.r.r.! C R { _ } _ A h m h m m A ^ } Z a 1 ; g O.@.] C R C E y t t t t y ",
"f.^ Z Z A A m g a 8 y o.=X$X=X>X8X>X[.a.[ m h h A ! 4.j.n.h.h.9.[ g 8 8 y q 0 0 a g g g g 6 - - 6 V X.@.9.9...R n y n M l l x n ",
"U.j._ M q 0 8 t y ( H.<X=X:X>X2X:XoXn.X.Z A ^ [ } O.4.n.a.v.z.P.S.l.( M t t 6 1 ; ; - ; ; 8 f [ 9.a.4.@.} @.4.5.] ] O._ n f s d ",
"#XOX{.^.^.L.H.Q.oX=X>X>X>X>X3X2X,XQ.q.~ A A [ @.j.j.j.r.v.z.M.V.U.R.E.U. X[.Q.B.l.i.q.d.U.U.U.S.v.z.h.4.' ~ o.4.9.<.@._ n y t r ",
">X3XoXXXOX$XoX>X<X<X+X:X<XqX3X<XoXS.[ A A A A [ 9.9.r.a.M.K.h.P.Y.^.Z.R. X$X{.OXOX{.H.~.~.{.S.K.m.M.q.r.9.} Q 9.r.r.@.] n f t t ",
"2X5X<X#X$XXX>X=X2X<X=X>X8XqX8X=X[.n.O.A ~ Z Z m m h h h ~ 4.M.Q.E.~.U.Y.|.@X.X|.:XOX[.).{.R.K.j.V.j.r.r.a.4.[ X.r.5.=.] V l f l ",
"3X8X3X<XOX>X>X3X<X>X>X3XqXrXqXoXU.n.h.4.^ A h g h h y 0 , 0 V h.P._.T.^.`..X=X:X&X&XOXOX).`.K.K.r.h.r.f.9.0.O.[ ..4.<. .M n f n ",
"qXqX8X3X:X=X<X3X1X2X<X2X8XqX5X[.U.K.v.j.e.^ h g A O.} Z q , ; t _ S.P._.XX$X>X:X:X=X&X&X{.[.E.V.c.r.f.a.y.9.9.@.=.[ @.( C M M B ",
"3X9X3X5X2X>X#X$X X[.{.:XqXqX>X[.{.~.m.P.9._ h m @.j.<.4._ 0 - - 1 M _ l.).@X|.@X=X:X^.XX|.~.K.P.M.M.6.s.f.g.@.@.&...] { C C B C ",
":X=XoX XoX Xn.O.A O.[.>XqXqX>X[.|.`. X9.~ h h A @.r.O.A m 0 , 1 6 1 8 F q.P./.E. X[.Q.U.U.E.K.K.V.z.r.y.z.f.@.@.8.| ( ( F M M V ",
"^.{.S.n.O.^ g 6 0 k.oX5XqXqX3X>XoX Xi.C t 0 0 q 8 8 6 6 1 6 0 g y y 8 8 n ..a.S.I.P.K.S.k.P.v.m.x.c.f.f.w.f.q.2.| ] _ ~ B C C W ",
"T.n.@.~ h 6 - ; 1.$X<XqXrXrXrX8X:X9.n 1 - = + + $ $ + - , 6 0 q y y g q q g ! ..q.r.a.h.h.h.j.f.d.f.t.@.2.=.1.` ( ( _ Q C C R C ",
"j.4.m g 1 = - ( $X5X5XrXrXrXqX>XQ.M , = $ + + @ @ + + - - , , 1 6 q q y y 8 6 n ~ $.{ O.4.0.@.8.t.9.] { <. .I ) ` ] W W W ( B C ",
"4.A a 1 - - W Q.3XqX3XqXrX3X$XH.( 9 - + + + + $ + o + @ - - - - - , 1 , 1 ; - ; t m ! ~ [ ] ] | 7.{ _ ' $.( C P ) ) I W ` ( R V ",
"A h 6 - = f i.=X>X3X>X=XoXH. .n 9 ; @ $ + + + + + @ @ - - - - + @ = - ; = = @ = = 1 M } ' _ ! _ ~ _ ! _ ! E F B I ` I ~  .] Q A ",
"Z y , = 1 E C.oXQ.H.l.d.k.q.W 1 - - ; , - - = - - = - - ; ; - = = - - - - = + + @ + > n ] o.{ R ! E ! ! ~ W B x L ) ~ ~ $.~ C V ",
"h q - - y $.9.~ F ' _ { _ ' f , ; 8 n R t 1 ; ; - - = - ; 1 - - ; - - ; ; > = = = $ $ : t ! E ( ~ ~ E Q _ ( n l I X.! ~ ( _ Z Z ",
"h 8 ; ; F ) C t t n V f t 8 ; @ ; f ! ! A g 6 , , ; - ; , , < - ; ; ; , 1 1 3 < > @ + @ - 8 M R _ E ( _  .` C f C ~ W C ~ Q Z m ",
"f 0 1 1 F C f 8 7 t l t 6 8 ; 6 ! n.a..._ R n q 1 , , 6 0 q 0 0 6 6 1 6 0 0 6 6 , - + + @ - 8 C C W _ o. .=.I x n P P ~ ~ T m m ",
"M t 1 1 F B p 9 9 t l f y f l E a.S.C.r.4.} A h g y y g Z Z V m h q 6 q y q 6 6 6 , = @ = - ; n _ _ ] $.u.-.) n c K L I ) W V Z ",
"W y 1 8 B F r 7 8 f y M M _ ( ' [ O.X.4.@.} A Z m M g g m Z h h y y 6 0 0 6 1 1 6 , - = = 3 , t _ ] ( =.u.q.L B x L K U ) ! V Z ",
"o.M 6 8 F x 3 , , ; ; t h Z m h m Z m h h g q 8 6 1 1 , 6 6 1 - - - - - - @ + + = = = ; 9 r t 8 _ @...| 9.$.I B c K P U ) P V V ",
"2.X.y t B s , - + + @ , 1 1 1 6 6 0 8 6 1 1 ; ; - - ; ; - - - - @ = - - - - - - - ; 6 M E ] V y _ 1.@.<.O.( P B x K U Y L B M F ",
":.p._ y I f 9 9 1 1 t q 0 q 0 0 q t t t p a j N N N N j a p t q t q q y a y q 0 0 y R q.r.@.( M ] $.....+.W P c c c U I F B M B ",
"-.B.=.n F I n F V Z h A ^ [ ^ _ | =.1.1.| | #.#.#.J D D D G j N N j y g g y q y m @.j.n.r.r.C m O.<.[ } ~ R n x x K K K P P n B ",
"Y p.p.! n ( ( _ _ ' Z A 9.<.O.=.1.a.=.2.p.-.W G H N p p N a q 0 g g q 0 q 0 q h X.C.U.d.@...M C 9.2. .W C M f f c c c c P P V B ",
"I -.n.r.B F ! ~ C ^ ~ ~ [ { R ~ R J G G C F d r 9 7 3 7 7 7 7 9 9 t t t t t f ] p.P.l.i.=.[ n E O.2.( C f l p f x c d P B P ! R ",
"U ;.r.d.` f I ] ~ ^ ^ m y 8 9 8 9 7 7 7 9 9 9 3 < < < < < 3 7 7 7 9 r t y g W q.U.Z.9.2.u.A g E | ! C n d f s x f s x I I P  .` ",
"*.:. .u.p.I f ` $.@.W m y t 6 7 9 r r t p s 7 7 3 < : < < 3 3 7 9 t 8 f n ! $.l.l.M.2.i.p.C l ' | _ M f p d 9 d f d c L I  .W P ",
"*.;.;.;.p. .n C r.+.~ m h t t 8 p n f n n f s 9 9 3 < 3 7 9 s f M V M F ! =.C.B.D.C.d.q.q.n R _ _ ! B s r r s d f c K U Y *.P B ",
"U ;.-.;.*.I L K O.4._ A g y y g R @.~ ( C C n p r r r s f F C { $.1.o.=.X.r.l.S.k.B.p.C.' M E ~ ! ~ n r 9 d c U c K P I I ) )  .",
"L ;.:.;.;.c i I o.4.<.^ V g y M 9.k.h.2.9.o.| ~ I W )  .2.d.S.S.l.d.i.2.2.i.l.p.B.p.i.p.( C _ ! ~ F f r e s s x Y K B P I I  .-.",
"b *.*.*.Y x 5 i K r.9.q._ S m ] p.P.9.q.1.<.1.p.p.B.p.H.B.Q.l.P.m.d.` $.2.q.9.i.p.i.2.w.` ` ! ] _ F r d r 7 < r P P n c P ) ` u.",
"z U Y Y Y v 4 2 5 K p.m.r.@.O.a.U.U.S.C.V.S.S.z.U.Z.M.B.}.Q.H.B.I.d. .X.9.2.1.=.a.2.2. .1.$.X.| ] c s x x e 7 9 c ) I B P I  .-.",
"w K U *.U z > & * 5 ) Z.A.j.e.z.h.Q.U.~.~. XQ.[.U.oX~.}.#X>XQ.l.2.i. .1.$.=.=.2.$.=.1.i.i.i.=.=.` K d x i i w e r l B I L  .*.Y ",
"w x L Y K u & % % * 9 ) Q.R.j.e.d.n.U.R.[.|. X X{.|.].OXoX|.S.2.a.q.2.2.X.( | $.$.=.q.d.Z.p.p.$. .c i K d i i i 3 7 s c U U z e ",
"5 5 v b d e % # % * * e :.:XH.l.f.g.a.L.^.Q.U.~.L.I.p.D.C.M.i.l.i.q._ ( X.X.] 1.2.i.2.l.Q.^.d.-.*.K 7 d b z u u > : 3 9 r 5 4 4 ",
"% & 2 4 i 5 % O # % & > x +X,X~.j.2.k.~.).!.U.P.L.C.a.q.d.4.7.@.@.] ] ( X.{ =.2.a.( 2.K.Q.`.T.;.U x e 3 i 5 4 7 > # = : > < < 4 ",
"O O # * 4 4 & O # # & : r J.3XH.;.^.oX:X=X*X|.|.^.`.S.I.b.g.q.y.[ _ Q ~ ~ $.} d.q.=.i.U.W.XXR.*.K i v 5 4 > * 4 % O > 3 3 9 5 d ",
"O O O % * 2 * O O O % : f {.3X5X7XqX7X3X8XqXqX9X3X<X2X=X#X|. X^.R.p.` W W ~ { $.=.g.S.U.oXoXp.P K e w 5 4 : & & # # < 7 r d f x ",
". . . # % * & # . O $ < $.|.>XqXeXrXwXqXqXeXwXrXrXrX7XqXwX9X*X*X=X<X}.B.*.I F | l.U.D.|.*XJ.Y K c w * * & & O O O # & < 9 r r d ",
". . . O # & % # . X # d i.$X4X4XqXwXwX4X6X6X6X6X0X0X6X6X6X6X-X-X;X-X-X-X-X,.Y :.F.G.G.%X%X,.b v k w * & & # O O # # % * 5 3 w u "
};
