/* XPM */
static char *out[] = {
/* columns rows colors chars-per-pixel */
"64 64 234 2 ",
"   c #2B1608",
".  c #4A2415",
"X  c #5C2C1A",
"o  c #68321E",
"O  c #583F2A",
"+  c #763A24",
"@  c #7E3D26",
"#  c #63432F",
"$  c #6E402D",
"%  c #6A4D37",
"&  c #77523D",
"*  c #7F5D46",
"=  c #814A35",
"-  c #8E4B34",
";  c #96523A",
":  c #865540",
">  c #8C5D46",
",  c #9D5943",
"<  c #955F49",
"1  c #A45E45",
"2  c #89664F",
"3  c #9B644E",
"4  c #916A53",
"5  c #9A6F56",
"6  c #AB644A",
"7  c #A16851",
"8  c #AD6D51",
"9  c #A86D58",
"0  c #B36A51",
"q  c #B76F53",
"w  c #A1765D",
"e  c #A7755C",
"r  c #AE755B",
"t  c #B4715D",
"y  c #B97658",
"u  c #A87B63",
"i  c #AE7D64",
"p  c #B77764",
"a  c #BD7564",
"s  c #B27861",
"d  c #B47F64",
"f  c #BB7E63",
"g  c #C1785B",
"h  c #C87E61",
"j  c #C07B6B",
"k  c #AC836B",
"l  c #BE8466",
"z  c #B3876E",
"x  c #BA876A",
"c  c #BF8B6C",
"v  c #B78C72",
"b  c #BC8E72",
"n  c #C38264",
"m  c #CC8566",
"M  c #C78568",
"N  c #C4816F",
"B  c #C48A6C",
"V  c #CC8C6D",
"C  c #CC8C6E",
"Z  c #D18969",
"A  c #D48C6E",
"S  c #D88F6F",
"D  c #C98270",
"F  c #C88973",
"G  c #CC8A78",
"H  c #D08B78",
"J  c #C39072",
"K  c #C69677",
"L  c #C89172",
"P  c #CC9475",
"I  c #C09379",
"U  c #C5987F",
"Y  c #CA997A",
"T  c #CF9C7E",
"R  c #D19071",
"E  c #D09072",
"W  c #D29172",
"Q  c #D09273",
"!  c #D39273",
"~  c #D49374",
"^  c #D59475",
"/  c #DA9472",
"(  c #DD9876",
")  c #D79778",
"_  c #D1967C",
"`  c #D89778",
"'  c #D59A7B",
"]  c #D99878",
"[  c #D9997A",
"{  c #DB9A7A",
"}  c #DA9A7B",
"|  c #DC9B7B",
" . c #DB9C7D",
".. c #DA9D7E",
"X. c #DE9D7D",
"o. c #DC9D7E",
"O. c #DD9D7E",
"+. c #E09E7D",
"@. c #E2A07F",
"#. c #D89380",
"$. c #D89982",
"%. c #DD9E80",
"&. c #DE9F80",
"*. c #DF9F80",
"=. c #DD9986",
"-. c #D4A082",
";. c #DFA081",
":. c #DCA386",
">. c #D8A485",
",. c #DCA88A",
"<. c #DFAB8E",
"1. c #DBAB91",
"2. c #DFAF94",
"3. c #E0A081",
"4. c #E2A181",
"5. c #E3A181",
"6. c #E0A182",
"7. c #E1A283",
"8. c #E3A282",
"9. c #E4A281",
"0. c #E4A382",
"q. c #E5A382",
"w. c #E4A383",
"e. c #E5A483",
"r. c #E6A483",
"t. c #E5A484",
"y. c #E6A585",
"u. c #E7A685",
"i. c #E7A686",
"p. c #E8A786",
"a. c #E8A787",
"s. c #E9A887",
"d. c #E0A58A",
"f. c #E3AC8D",
"g. c #E7AD8F",
"h. c #E8A888",
"j. c #E9A888",
"k. c #E9A989",
"l. c #EAA989",
"z. c #EAAA8A",
"x. c #EBAA8A",
"c. c #EBAB8B",
"v. c #EBAC8C",
"b. c #EBAE8F",
"n. c #ECAC8C",
"m. c #ECAD8D",
"M. c #EDAD8D",
"N. c #EDAE8E",
"B. c #ECAE8F",
"V. c #EDAE8F",
"C. c #EEAF8F",
"Z. c #EDAF90",
"A. c #EEAF90",
"S. c #E9B193",
"D. c #EDB091",
"F. c #EEB090",
"G. c #EFB090",
"H. c #EEB091",
"J. c #EDB192",
"K. c #EEB192",
"L. c #EFB192",
"P. c #EFB293",
"I. c #ECB496",
"U. c #EAB79A",
"Y. c #EEB899",
"T. c #EEBC9E",
"R. c #F0B293",
"E. c #F0B394",
"W. c #F0B495",
"Q. c #F1B495",
"!. c #F0B496",
"~. c #F1B596",
"^. c #F1B597",
"/. c #F2B596",
"(. c #F2B697",
"). c #F2B698",
"_. c #F2B798",
"`. c #F2B799",
"'. c #F3B799",
"]. c #F3B899",
"[. c #F2B89A",
"{. c #F3B89A",
"}. c #F3B99A",
"|. c #F3B99B",
" X c #F4B99B",
".X c #F4BA9B",
"XX c #F4BA9C",
"oX c #F4BB9C",
"OX c #F4BB9D",
"+X c #F5BB9D",
"@X c #F5BC9E",
"#X c #F5BD9F",
"$X c #F5BE9F",
"%X c #F1BFA1",
"&X c #F5BEA0",
"*X c #F6BEA0",
"=X c #F6BFA0",
"-X c #F6BFA1",
";X c #F6C0A1",
":X c #F6C0A2",
">X c #F6C1A2",
",X c #F6C1A3",
"<X c #F6C2A3",
"1X c #F7C2A3",
"2X c #F6C3A4",
"3X c #F7C3A5",
"4X c #F2C4A5",
"5X c #F7C4A5",
"6X c #F7C4A6",
"7X c #F7C5A6",
"8X c #F7C6A7",
"9X c #F7C7A8",
"0X c #F7C8A9",
"qX c #F0CBAD",
"wX c #F8C8A9",
"eX c #F8C9AA",
"rX c #F8CAAB",
"tX c #F8CBAC",
"yX c #F8CCAD",
"uX c #F8CDAE",
"iX c #F9CEAF",
"pX c #F3D1B3",
"aX c #F7D1B2",
"sX c #F0D4B6",
"dX c #F6D4B6",
"fX c #FAD3B4",
"gX c #FAD7B8",
"hX c #F1D8B9",
"jX c #F7D8BA",
"kX c #F5DBBB",
"lX c #FADDBE",
"zX c #F6DDC0",
"xX c #F9E1C3",
"cX c #FBE5C7",
/* pixels */
"2.K.p.p.] B i k u B ^ <.<.g.g.!.OX3X2X9X6X8XwXwX:X:X$X3X7XwX2X6X+X*XOX$X|.|._.'.K.^.H.L.b.A.b.A.y.l.r.i.w.k.{ X.) [ ^ { ] ) ! ~ ",
",.p.M.n.s.^ l f l d r 9 9 7 7 l i.!.OX>X;XwX7X7X:XXX}.].8XwX8X=X@X|.`.}.+X]._.).Q.P.K.P.J.k.b.v.k.w.q.q.z.l.X.| | | +.{ | | ` ! ",
"J +.+.r.p.+.f 3 : & o o # # X # > l Q g.OX;X>X6X3X+XJ.!.8XuX,X$X XXXW.].+X+XP..X). Xb.P.R.A.h.z.h.y.+.a.x.n.X.| X.| ) O.3.@.R ~ ",
"c / / ( ( g < & = > w < & # # & : < 9 n 6.P.*X-X:XQ.J.!.;X8X,X].Q.P.I.^.2X*XOXOX;X@X^.J.`.H.z.u.k.s.u.a.n.i.+. .%.| | +.t.X.^ A ",
"x / Z S h 7 7 B :.U.U.T.1.U d i e 9 8 n R &.b.*X].(.B.^.;X1X+X).Z.W.P.].;X1X=X;X*X*X].^.D.M.a.h.y.x.t.b.i.y.6.7.%.6.3.8.+.X.^ ~ ",
"J X.Z A h n <.I.@X,X1X2X2X%XT.g.<.' C V ~ ) h.!. XA.C.^.+X[.Q.b.z.z.L._.-X:X,X*X:XU.g.<.-.L V J P ) ^ Q ^ ] ] %.&.7.7.*.7.{ ^ A ",
"J @.S | 8.b.b._. X*XI.*X$XOXS.S.A.g.} ] )  .O.H.P._.v.P.~.^.v.h.y.a.y.M.P.*Xb.%.L i 7 < > : = = : 7 7 9 r n l V ~ X.] 6.+.5.~ A ",
"I X.A 9.n.z.A.H.B.y.7.f.^.I.b.f.v.t.] ] +.&.7.n.!.Q.v.V.Q.E.A.X.^ ~ ] } 7.7.C r 7 = o o X . . . . o $ = > 7 9 r f f n R &.O.` Z ",
"J { A x.u.a.v.n.M V g.;X%X-X}.].k.8.R V M X.k.R.A.P.n.G.G.(.A.3.M V M V E M t 3 = @ o o . X X X o $ = = = : : < < , 3 t n ) ~ Z ",
"c  .~ t.l.8.w.R f b.%X*X1X=X+X^.P.a.] n f Z X.t.R.G.M.m.F.G.n.3.n f g f l y 1 - = + + @ = - 3 r x B B d r 7 7 < - - ; ; 7 9 f M ",
"I 6.R u.H.c.^ n ` [.Y.I.<.:.T L P ) m n g M Z X.k.(.v.N.A.R.h.{ Z n y y t 8 ; - = - - 1 p E C %.%.w.X.&.' Q n f t 7 ; > 3 3 < 7 ",
"K d. .7.^.H.! n g.g.J 3 * $ # X o = ; 6 y y M ^ e.P..X!.^.`.k.3.! M t 8 1 , ; - ; - ; 7 l Q ^ W R F n n F M Q ^ ) M r 9 7 < > > ",
"b <.' o.g.R.` R _ 4 X .   . O     . . o @ ; 0 A ] ^.8XaX;X{.L.z.~ n 8 6 , ; - - @ = 9 J ' :.f.g.O.X.C M y 9 1 p M C C M s 7 > > ",
"J -.T ^ 6.z.X.n ; . . . . . . .   . . o o o @ t e.Q.iXfX0X@X Xn.~ 0 1 1 , = @ o o 3 r i e w i e e i d f f r 7 - 3 l L B f s 7 3 ",
"K -._ Q ^ C 8 ; , 9 < 7 7 5 * & & & = < : : - f M.*XyXgXiXtX!.w.M 6 , 1 - - = o + = o o . . .     . . # + $ & : $ < l M n B p r ",
"T T d.;.M l y f ] k.u.d.b.7.) P ) Q M n C ~ } a.].2XyXgXiX8XP.} g 1 1 6 1 y n f f y p r 9 > # . . . . . .     . X X 7 Q ) n f g ",
"T -.d.g.X.n.A.z.X.q.u.n.y.8.} [ E A A ~ ~ Z Z z.+XrXiXfX9X3XB.` q 6 1 g m V +.w.X.{ X.;.+.&.J f 7 7 7 3 : : = $ . X @ 8 , 6 q n ",
"-.-.f.H.'.Q.Q.R.H.b.5.| ` ^ / ^ / Z h y y n i.@X3X0XtX8X>XQ.7.M y y q h ~ { +.@.3.^ Z E ` ` ^ m h M h g n n g g y 8 6 ; 6 n Z M ",
">.-.T d.(.Y.~.+X X}.k.| A m y y 0 0 1 y &.2X:X7XeXuX2X2X@XM.E n h Z Z A ~ s.w.k.c.n.+.R y 0 6 q q 0 6 y h m g g 8 ; = ; y A ~ +.",
"-.T _ ;.Q.(._.:XwX8XOXY.;XP.8.) o.7.g.Y.eXrX8X9XiXiX7X=X].w.Z n m A / 8.9.s.u.a.b.R.A.!.!.i.^ n y 8 , ; ; - - - ; , 0 M +.o.m m ",
"-.-.' 3.C.(.+X1X0XyXrX6X@X*X}.+X+X7X8XrX8XrX0XiXaXfXrX:Xn.X.V Z M Z ~ +.e.s.s.x.M.E.R._.^.}.(.;XOX].b.f.X.o...6.8.k.@.3.^ 8.+.V ",
",.:.w.t._. X-X8XuXaXfXrX=X#X X*XwXeXtX2X7XtXiXaXfXfX3X/.M.5.X.A m m h g g g m ~ k.R.Q.(._.^.+X.X-X-X@X X'.Y.^.R.G.v.z.9.| ~ +.+.",
"<.<.7.M.].:X*XrXfXjXfXyXwX+X(.3XyXfX2X2X6XfXaXgXzXfX`.G.A.F.t.t.^ h 0 q g y 1 1 g +.L.].{.+X].$X:X5X|.*X@X|.A.G.M.C.p.w.8.) V *.",
"f.:.t.n.@X3XwXuXgXlXlXaXyX:X>X0XiXiXrX8XrXiXaXjXxXiX_.G.G.N.C.z.| m y h | | Z 6 , 6 Z g.*X+X@X;X8X7X-X&X1X$X'.A.C.l.y.q.k.3.V Q ",
"d.:.%.F.@XwXrXaXdXxXjXlXuXiXtXiXtXiX7X8X2XiXaXzXdXrX@X'.L.'.R.u.Z h h | u.p.| A 1 - ; f } P.OXwX<X2X,X2X=X:X'._.z.i.q.t.q.t.X.~ ",
"f.:.d./.:X8XuXiXfXjXjXfXaXtXrXwX:Xg.+.7.:XiXfXgXdXwX-X.X@X|.i.n q q h A ] ~ Z g 1 , ; , 0 A k.!.].=X-X#X:XXX].Q.M.p.p.i.z.e.3.` ",
"v.g.7.Q.-X8X0XiXtXiX0XwX;XOXM.8.~ y 0 t.2XfXaXjXlXgXtX-X$Xh.f 1 - - @ = - ; ; , , 0 0 0 6 0 n 6.b.].P.].^. XC.C.H.b.9.i.l.l.3.@.",
"A.i.w.L.1X5X2X7X8X3X].Q.A.3.m 0 , 1 X..X0XaXlXxXcXlXaX*Xi.y ; @ X + + + + @ - ; 1 0 0 y q q 0 g ` 8.k.b.~.H.n.c.n.l.i.u.x.r.t.+.",
"i.t.3.F.^.-X=X1X+X|.u.y.A g 1 - , 7.;XaXrXfXzXcXzXaX2X!.f , @ + $ @ + + o = = = - ; , 6 0 q 0 8 q M ` 8.8.k.q.l.p.k.z.j.w.q.3.q.",
"t.&.w.M.L..X*X.X'.b.X.Z a , - 1 o.%X0XfXfXdXjXtX;XY.i.M 1 - + + + + + o + + + @ - - = - , 1 1 , , 1 l R ] X.| 3.8.l.l.7.q.q.3.3.",
"i.q.+.G.G.(.R.'.M.+.m g 6 - , ) ].tX8XyXeX2XT.%XI.[ 8 , - = + @ @ + + + + = + - = @ + @ - - - - = = : s E ) C ^ X.&.' ;.%.*. .X.",
"t.3.X.l.G.G.N.z.5.A g 6 ; - l ..$X;XU.U.I.i.i.g.L.} t ; , y y , ; - - = - - - ; ; = @ = - - - @ @ + + = s [ ~ ! ` ~ ~ ~  .} ` ) ",
"O.@.@.y.c.N.z.p.W n 0 , - 8 R g.g.' n E  .O.V n y , @ = 1 V ~ f 6 , ; ; = - - ; ; - - : = ; - : $ @ + + = f { X.E Q E ^ ~ ^ L P ",
"6.O.+.e.l.l.e.X.m q 1 ; ; n ^ 7.C y 0 p C n t 6 1 - - l &.8.} ~ m y 1 ; ; ; , , 1 ; ; ; ; , , < < - = $ + : l ` ~ E E E ~ L B B ",
"5.5.| 9.@.q.` ^ n q ; ; 6 ^ F ' f 8 8 y M E y 8 t 8 l v.'.].w.8./ Z y q 0 q y m h g 0 8 6 8 6 0 8 7 - @ @ @ ; n ~ ! V Q _ ' f c ",
"+. .} | @.+./ V g 6 , ; y ~ F B d 8 8 y C ! n l ~ } 6.t.b.L.p.5.X.A Z Z A A Z ~ { ` A g q q y q 0 1 1 - @ @ = 7 V A Q ~ O.' c l ",
"~ ( ] 3./ | ^ m t 8 1 1 0 V B B r 8 r M m A V X.o.+.] ` / ^ Z m h g q q 0 q y a n a 0 0 0 q q y 6 0 6 < = @ = ; n ~ ) ....%.B n ",
"^ ) { | ( ( S g y t 6 1 y M n f r t t 0 q g m Z m m h h n g 0 1 , ; - - - - ; ; ; - = = - - - ; ; , 1 , ; = - ; g ^ o.%.:...B l ",
"C P R +.| X.Z g y n 8 6 y Q f 7 7 7 - = ; 1 , ; ; , ; < > > < 7 7 e r r r l f s 7 e < < > @ + o X X X @ ; , 7 8 y | o.7.d.<.B B ",
"B B R } y.@./ g 8 l l t y Q l 7 , - = = ; - @ + + : > < < < d F c B Y L B K P F f d u e < @ o X X X $ : 7 n M f f ` X.d.d.:.J B ",
"f l E +.w.l.3.M 6 y C M f C B p 9 9 7 n Z a 0 1 , 9 p #.B e G F e e j i r N p p p 9 3 3 ; = = = = , 1 8 n } | Z n &.%.:.-.T c L ",
"f f L *.g.z.v.] y 0 E ) B V C M M V Z m ~ ^ ` H G D D H #.j F N N j N N G G j a j t 8 0 0 6 y y 0 0 0 h 9.@.t.Z Z O.o.' ..Y J L ",
"f c B :.b.P.B.g.F t f ..{ [ ^ ^ ] ` Z Z Z | X.X.3.=.H =.7.=.=.=.#.#.H H #.H N G N j t a a a y y 0 q g *.F.l.| M ~ 4.) } ) K J L ",
"l c L :.W.^.P.L.6.y r Q 7.o.] ~ | } ` A Z ` *.*.7.7.#.=.k.7.=.7.=.#.G #.G N N N j a a a a y q 8 y n } v.k.5.^ n w.t.o.~ L J B Q ",
"d B J ..S.[.^.Q.v.F 8 l ..o.~ ` ^ [ ( ( M Z C C F #.#.=.#.#.$.&.#.D j j t t t y 9 8 0 t 0 0 0 0 y ^ H.P.3.o.Z C 7.t.) Q c c B C ",
"x c J _ g.!._.^.Y.d.f 9 Q o.{ ] | { X./ m g t 6 8 p p s e 7 e r e 7 < < < < < < < 7 7 8 0 t 0 q V k.!.h.6.` n V y.' L l f c J F ",
"Y T J P f..XJ.^.}.^.P 9 g y.X.3.@.+.^ ( m n 0 0 8 r 7 9 9 e 7 7 9 7 < < > < : < < 3 7 9 8 t 8 M 7.^.g.t.k.} f ~ { ] n f f J c M ",
"Y -._ _ :.J.R.P.Y.J.6.f t Q w.8.t.+.` ^ Z n n f f f l n M n d s e 5 < < < > > < 7 9 8 r f f M o.!.b.h.7.h.R n ) ] B d d l B B M ",
"K >.-.%._ f.b.J.D.H.h.B 8 l y.c.5.X.{ / m M n n n C Q ^ Q Q F n p r 9 7 < 7 9 s s l l n n F o.I.S.b.f.D.6.M C  .Q f r x d B L Q ",
"T -.>.-...-.f.k.b.i.t.^ 8 y X.x.u.{ { / Z m M C o.k.k.3.8.3.` E B f p s s f M Q ] } ] Q ) } k.Q.b.g.h.g.~ M ` ` M s r r c F ^ ) ",
"-.,.-.>.-.>.' ' ..i.@.6.M y E l.p.u.| ( A A ~ %.P.!.F.F.P.A.u.t.&.' E ..7.b.f.b.b.i.&.%.;.t.k.P.g.I.i.7.m R ) L f s 9 d L _ Q P ",
"-.>.>.-.>.' L 9 J d.;.;.3.V X.0.s.l.9.| | k.b.B..XP.v.h.v.b.n.z.B.P.I.I.T.Y.I.I.P.g.a.%.t.a.b.f.J.S.f.R C ) R f d s d c Y -.L n ",
"Y ,.>.,.-.K u 2 7 K ' ] X.X.i.A.@.n.b.l.4.x.R.XX^._.P.A.h.B.A.(.J.I.Y.Y.I.Y.Y.`.b.7.;.7.w.v.g.g.i.I.:.Q E ) n f f c c Y Y Y P _ ",
"K >.>.,.>.c 5 * * 4 i ' n.n.M.L.5.q.R.H.x.c.Q..X$X.X|.`.(.Q.`.OX[.Y.%X;X2XT.I.P.i.7.7.7.l.t.7.f.g.g.:.^ ) F d f _ J J K P T ' _ ",
"b -.-.-.T c 5 & * 2 4 x g.}.!.+Xz.k.a.Q.G.A.H.}.;X6X%X$X;X;X[.$X2X8X8XtX2X[.g.k.i.6.o.3.3.i.%.d.g.g...] ^ d 7 r J J l b Y ' %.:.",
"z Y T T T x 2 % * * * w ,.@X-X%XP.5.q.c.M.G.P.[.>X&X*X$X8X9X2XwXtXeX8XT.g.:.h.z.k.;.' { w.t.d.f.J.f...^ J d 7 9 l Y b J Y -.d.f.",
"w J Y -.K d * % & & * w J ;X1X>XB.p.e.G.M.J.H.]._.].}.$XU.@X;XwXY.U.U.b.t.h.h.h.X.' ) &.;.v.k.Y.g.f...L i k w 9 r L L K B T 7.d.",
"w x Y Y J w & % % & * 5 d T.uX6X~.k.u.@.k.P.!.Q._./.H.B.b.Z.b.g.g.g.b.h.z.y.8.O.} ) } &.i.B.W._.S.>.K b z k u r 9 r l L Y Y x i ",
"5 w v b d w # # % & & > w Y.yXeX^.b.%.b.}.*X^.{.oX].h.b.B.B.7.7.;.t.{ O.;.3.] *.X.;.) %.v.`.!.+Xf.-.d w J z u u : < 6 d x e < 4 ",
"% & 2 5 k 5 % O # # & * 7 f.iXeXQ.7.N.$XtX8X;X[.$X}.P.R.^.A.t.7.e.%.^ ! ) { ] O.7.h.o...P.].@XY.d.J d 5 u w 4 w * % : > > < < > ",
"O O # * 4 4 & O # # & > 3 f.iX0X>.Y.2XiXrXaXtXeX&X>X$X;X[.(.J.R.n.k.) E E [ } 7.w.z.7.L.^.OX|.g.Y x z u 2 2 : 4 & # : < < 7 3 i ",
"O O O % & 2 * O O O % : f _.iXaXjXjXdXaXfXjXxXzXgXfXaXaXyX>X*X@X*X[.7.P Q _ ) %.7.z.P.).:X,XS.Y J i w 5 > : & & O # > 7 s d d x ",
". . . # % * & # . O $ < %.&X0XjXzXxXkXjXjXzXkXxXxXxXsXjXkXgX7X2X8XtX%XS.-.P F  .b.^.K.%X7X%X' J c w * * & & O O O # & < 9 r r i ",
". . . O # & % # . X # d f.2XpXpXjXkXkXpXsXsXsXsXhXhXsXsXsXsXqXqXqXqXqXqXqX2.T ,.S.T.T.%X4X2.b v z w * & & # O O # # % * 5 5 w u "
};
