/* XPM */
static char *out[] = {
/* columns rows colors chars-per-pixel */
"64 64 224 2 ",
"   c #2B1608",
".  c #4A2415",
"X  c #5C2C1A",
"o  c #68321E",
"O  c #583F2A",
"+  c #763A24",
"@  c #7E3D26",
"#  c #63432F",
"$  c #6E402D",
"%  c #6A4D37",
"&  c #77523D",
"*  c #7F5D46",
"=  c #814A35",
"-  c #8E4B34",
";  c #96523A",
":  c #865540",
">  c #8C5D46",
",  c #9D5943",
"<  c #955F49",
"1  c #A45E45",
"2  c #89664F",
"3  c #9B644E",
"4  c #916A53",
"5  c #9A6F56",
"6  c #AB644A",
"7  c #A16851",
"8  c #AD6D51",
"9  c #A86D58",
"0  c #B36A51",
"q  c #B76F53",
"w  c #A1765D",
"e  c #A7755C",
"r  c #AE755B",
"t  c #B4715D",
"y  c #B97658",
"u  c #A87B63",
"i  c #AE7D64",
"p  c #B77764",
"a  c #B27861",
"s  c #B47F64",
"d  c #BB7E63",
"f  c #C1785B",
"g  c #C87E61",
"h  c #C07B6B",
"j  c #AC836B",
"k  c #BE8466",
"l  c #B3876E",
"z  c #BA876A",
"x  c #BF8B6C",
"c  c #BF8470",
"v  c #B78C72",
"b  c #BC8E72",
"n  c #C38264",
"m  c #CC8566",
"M  c #C78568",
"N  c #C48A6C",
"B  c #CC8C6D",
"V  c #CC8C6E",
"C  c #D18969",
"Z  c #D48C6E",
"A  c #D88F6F",
"S  c #C88973",
"D  c #CC8A78",
"F  c #D08B78",
"G  c #D38E7E",
"H  c #C39072",
"J  c #C69677",
"K  c #C89172",
"L  c #CC9475",
"P  c #C09379",
"I  c #CD917C",
"U  c #CA997A",
"Y  c #CF9C7E",
"T  c #D19071",
"R  c #D09072",
"E  c #D29172",
"W  c #D09273",
"Q  c #D39273",
"!  c #D49374",
"~  c #D59475",
"^  c #DA9472",
"/  c #DD9876",
"(  c #D79778",
")  c #D1967C",
"_  c #D89778",
"`  c #D59A7B",
"'  c #D99878",
"]  c #D9997A",
"[  c #DB9A7A",
"{  c #DA9A7B",
"}  c #DC9B7B",
"|  c #DB9C7D",
" . c #DA9D7E",
".. c #DE9D7D",
"X. c #DC9D7E",
"o. c #DD9D7E",
"O. c #E09E7D",
"+. c #E29F7D",
"@. c #E2A07F",
"#. c #DD9E80",
"$. c #DE9F80",
"%. c #DF9F80",
"&. c #D4A082",
"*. c #DFA081",
"=. c #DCA386",
"-. c #D8A485",
";. c #D7A88D",
":. c #DCA88A",
">. c #DFAB8E",
",. c #DBAB91",
"<. c #DFAF94",
"1. c #E0A081",
"2. c #E2A181",
"3. c #E3A181",
"4. c #E0A182",
"5. c #E1A283",
"6. c #E3A282",
"7. c #E4A281",
"8. c #E4A382",
"9. c #E5A382",
"0. c #E4A383",
"q. c #E5A383",
"w. c #E5A483",
"e. c #E6A483",
"r. c #E5A484",
"t. c #E6A584",
"y. c #E6A585",
"u. c #E7A685",
"i. c #E7A686",
"p. c #E8A786",
"a. c #E8A787",
"s. c #E9A887",
"d. c #E0A58A",
"f. c #E3AC8D",
"g. c #E7AD8F",
"h. c #E8A888",
"j. c #E9A888",
"k. c #E9A989",
"l. c #EAA989",
"z. c #EAAA8A",
"x. c #EBAA8A",
"c. c #EBAB8B",
"v. c #EBAC8C",
"b. c #EBAE8F",
"n. c #ECAC8C",
"m. c #EDAD8D",
"M. c #EDAE8E",
"N. c #ECAE8F",
"B. c #EDAE8F",
"V. c #EEAF8F",
"C. c #EDAF90",
"Z. c #E4B195",
"A. c #E9B193",
"S. c #EDB091",
"D. c #EFB090",
"F. c #EEB091",
"G. c #EDB192",
"H. c #EEB192",
"J. c #EFB192",
"K. c #EFB293",
"L. c #ECB496",
"P. c #E6B599",
"I. c #EAB79A",
"U. c #EEB899",
"Y. c #EEBC9E",
"T. c #F0B293",
"R. c #F0B394",
"E. c #F0B495",
"W. c #F1B495",
"Q. c #F0B496",
"!. c #F1B596",
"~. c #F1B597",
"^. c #F2B596",
"/. c #F2B697",
"(. c #F2B698",
"). c #F2B798",
"_. c #F2B799",
"`. c #F3B799",
"'. c #F2B89A",
"]. c #F3B89A",
"[. c #F3B99A",
"{. c #F4B99B",
"}. c #F4BA9C",
"|. c #F4BB9C",
" X c #F4BB9D",
".X c #F5BB9D",
"XX c #F5BC9D",
"oX c #F5BC9E",
"OX c #F5BD9F",
"+X c #F5BE9F",
"@X c #F1BFA1",
"#X c #F5BEA0",
"$X c #F6BEA0",
"%X c #F6C0A2",
"&X c #F6C1A2",
"*X c #F6C2A3",
"=X c #F7C2A3",
"-X c #F6C3A4",
";X c #F2C4A5",
":X c #F7C4A5",
">X c #F7C5A6",
",X c #F7C6A7",
"<X c #F7C7A8",
"1X c #F7C8A9",
"2X c #F0CBAD",
"3X c #F4CDAE",
"4X c #F8C8A9",
"5X c #F8C9AA",
"6X c #F8CAAB",
"7X c #F8CBAC",
"8X c #F8CCAD",
"9X c #F8CDAE",
"0X c #F9CEAF",
"qX c #F3D1B3",
"wX c #F7D1B2",
"eX c #F0D4B6",
"rX c #F6D4B6",
"tX c #FAD3B4",
"yX c #FAD7B8",
"uX c #F1D8B9",
"iX c #F7D8BA",
"pX c #F5DBBB",
"aX c #F6DDC0",
"sX c #F9E1C3",
/* pixels */
"<.H.e.9.~ N j j w l U U J -.,.U.P.U.P.<.,.<.<.Z.<.Z.<.Z.Z.Z.<.P.<.<.,.<.f.P.A.L.Z.f.,.>.>.Z.d.f.d.d.=.5.#.5. .| ~ ( Q ` Q ~ ! ~ ",
">.k.j.w.%.V l j u s J U U ;.Z.A.P.Z.Z.,.,.,.Z.<.Z.Z.Z.Z.Z.P.Z.Z.Z.,.,.<.<.Z.P.Z.Z.>.:.-.d.>.f.d.d.4.*.5.5.5.X. .2.$.*.*.%.+.2.| ",
"H ..O.3.} K i j u l P U U ,.,.Z.Z.<.,.;.:.<.,.<.Z.P.<.Z.P.I.<.Z.Z.<.,.,.Z.P.<.<.<.<.&.:.,.<.d.:.d.d.#.i.i.l.7.h.a.k.2.q.e.a.+.+.",
"v ^ A A M a w w u j H J Y :.,.<.Z.<.;.&.,.<.,.,.Z.<.<.Z.P.P.<.Z.Z.<.,.,.P.<.<.<.Z.<.;.:.Z.Z.>.>.f.v.h.z.C.N.k.h.z.i.q.q.a.y.+.+.",
"v ^ C C f r w w e j H Y U -.;.<.,.>.,.-.-.,.,.<.<.Z.<.P.P.P.<.P.<.<.<.Z.<.Z.<.L.Z.P.Z.A.A.K.L.Q.b.K.N.C.k.c.h.k.u.9.2.e. .*...+.",
"x ~ m g f a e 7 e j H Y Y &.,.,.,.d.d.4.d.:.>.>.<.Z.Z.Z.P.P.I.I.P.Z.P.I.I.'.Y.Y. X'.'.U././.^.E.K.F.C.N.C.h.k.r.2.5.5.+.*.] [ +.",
"x ^ g g f y 7 5 e l v Y &.,.-.>.>.g.4.d.f.A.f.L.U.Y.P. X@X*XY..X%XOXU.Y.XX XU.#X&X=XW._.U._.N.F.K.T.k.m.C.F.r.8.6.p.+.*.....| 9.",
"z ~ m g g y e w u l v Y :.:.,.>.g.h.y.h.K.F.T._. X}.oXOX:X*X*XY.&X#X(.Q.{./.]. X=X#XF.K.Q.K.N.C.F.C.N.C.K.N.c.e.a.q.%.} 2.#.e.e.",
"l E m m f d r e e l H &.-.:.,.Z.>.g.4.k.i.c.c.F.z.F.~.$XOX=X#X$X}.$XXXE.C.K.K.$X}.XXm.C.c.E.C./.N.T.F.^.N.T.N.k.5.8.$.$.@.t.y.p.",
"l T m g n d r e i z H ` d.d.d.>.y.&.x d i r a a s H d.G.'.}..X{..X{./.W.v.m.F.'.'./.m.k.g.m.F.}.{.`.}.'.}.K.C.v.5.| ] ` | | ] Q ",
"z ~ m m g k r e s K H | d.d.` ` s 7 > > & $ $ $ # % & r H =.d.G.(.`.m.F.m.v.h.'.E.K.$.5.r.k.k./.$X$XU.XXU.L.y.d.` N r r a s r a ",
"H L m g M z i e z K R | d.5.L d 8 9 a s s 5 * # # $ $ & , r N ] V.D.m.F.c.y.i.C.N.d.$.$.5.5.k.F.`.(.A.g.y.Y z r < : $ $ $ & : : ",
"z U R B k k r e e K L 5.5.y.! W ] A.A.A.Z.<.&.H i 9 7 , ; 6 d N Q l.n.F.5.h.y.k.d.5.| } [ +.5.m.m.c.( c < : $ o X . . . . X $ $ ",
"x U L N n d i e r z W d.f.5.*.5.g.y.g.g.g.g.g.d.&.W V n n y d n R | k.a.j.y.y.d.y.5.( R E R ( } *.V 8 > + o . . . . O X % > > : ",
"H U K K x x a s d x K k.c.e.| r.k.i.~ W ! ` R ( Q Q n n d n n R ~ *.q.j.k.j.1.p.k.q.M n n M n B M 8 - @ $ o X o $ : < r k K a a ",
"U U J K H x z s s a W v.C.y.5...*.M t N >.A.g.d.X.| ~ N d 8 t M ] *.e.k.k.q.p.q.a.3.n y d d d y 8 , = @ + @ = > 7 a k R ` ` R R ",
"U Y U Y J H H K z a ~ V.g.N.i.} k 8 V L.<.&.z s 5 9 r a y 0 6 d M ] t.t.r.y.5.q.....M y t y t 8 1 - = : = ; ; 7 8 y y y d d d k ",
"&.&.Y Y &.Y Y Y W y ! 5.i.V.k.Q 8 a Y v > O . .     . X : 1 6 0 n C ] j.x.y.d.5.5.( M d y 8 8 , ; = = = = @ - 1 y n n d y t 7 ; ",
"&.&.U Y &.&.U &.g.| T ..] 2.5.W 8 9 > X   . . #         X + - 1 y B T k.W./.y.h.i.| N d y 8 1 ; - @ $ o o : 9 z d s 9 a d d r 9 ",
"&.&.Y &.&.&.&.:.:XL.E E } T n 8 6 : o X O $ % O .     . & + o @ , N Q i.:X#XU.F.z.q.T y 6 , ; - @ + . . & : O O O .   . O $ $ $ ",
"&.&.Y &.Y Y U ` X.g.M ( ~ M 0 , ; t H R N d 9 4 & & & > 5 > @ + @ d 3.c.#X8X:X XK.m.~ q ; ; - @ + $ . X o o . . .               ",
":.-.-.-.&.Y Y ` [ ^ [ a.F.i.*.q.3.*.V.k.F.m.y.] ` ! R B M n y d n ( T.W.1XtXwX:X}.g.B 6 , , - = - @ + : 3 9 w 4 & $ $ % & % $ $ ",
",.f.-.-.:.-.X.8.A m T n.K.{.T.^.F.a...p.y.5.} ] Q ~ B T B A Z ^ ~ p.^.XX0XiXwX8X#Xc.k 1 , 1 1 1 d T R ~ ( ..{ | W N y k B k 1 8 ",
"f.>.-.-.:.-.=.i.V./ [ n.D.(.`.{. X`.k.[ ! Z C C A T C C B g y q R F.OX=XyXrXwX1X#Xy.n 6 1 8 f B T [ } ~ ~ ~ } / } C g f f f f m ",
"-.:.-.d.&.-.4.V.D.+...n.D.{.{.:X.X%X`.m.^ m y y y y 0 0 6 8 d #.XX=X>X8X0XtX8X:XK.#.f q 0 f f ! ..q.e.y.( B y d y f 0 0 0 y y f ",
"f.d.d.d.>.d.l.z.z.~ [ m.(.(.`.OX%X&X=X$X`.T.*.m f y y y W g.&X6X1X:X6X8X0X0X8X#Xc.! n g m Z A ! a.p.q.N.W.c.( f 8 1 1 , ; ; - - ",
"v.g.d.f.g.A.v.m.i.A [ D.(.}..X%X4X1X&X4X$X$X^.}.^.W.F.XX1X8X1X4X6X0X,X0XtX0X:X'.5.Z g m Z ..3.+.e.k.3.c.`.{.K./.F.F.*.| ] ~ B E ",
"v.h.d.f.g.h.c.C.F.[ 3.N.{..XOX#X6X6X0X1X4X%X].^.XX%X*X>X8X4X&X1X0X9X0XwXtX8X=XF.+.Z g m A [ +.3.p.j.a.c.W.`.'.`.$X{./.'.}.'.T.T.",
"r.f.4.h.=.d.h.N.2.+.q.F.E..XXX1X6XtXtXtX6X=X'.{.'.=X6X4X:X=X=X8X0XtXtXyXwX6XXXm.} A m m g g y n g C [ m.m.{.`.}.}.%XOX=X{.`.T.T.",
"r.r.5.*.=.*.5.k.q.q.y.^.OX.X:X6X6XwXtX0X0X&X}.'.#X4X6X,X$X%X4X1XyXwXsXsXtX&X'.m.k.+.' m y q q q 6 1 8 B y.{././.XX=X=X%XOX{..XK.",
"y.y.o.=.5.-.| p.+.3.3.W.{.=X$X1X6XyXtXtX7X1X#X:X>X8X:X>X*X=X.X6XwXtXpXsXtX:XB.F.F.C.y.^ g y g Z m q - ; y %.k./.=X=X X$X{.XXD.m.",
"y.5.#.| 5.4.5.h.z.9.3.n.`.}.*X:X6X8X0X8X8X:X&X$X=X.XXXm.c.p.W.&X0XwXiXpXtX:XK.C.K.W.k.' m g A O...C 1 - ; 8 B 5.F.{.W./.(.W.V.n.",
"#.*. .*.#.5.5.M.W.s.9.n.D.{.oX&X#X:X=X:X`.`.D.K.m.y.' m y [ '.1X6XiXpXpX8X1X}..X'.K.( m y g ^ +.A g 6 , ; , 1 n ( i.c.V.n.V.j.s.",
"@. .*.#.5.5.y.m.D.z.p.j.m.{.oX{.OX}.#XW.F.k.3.^ m y 1 , m /.4X:X0XaXiXiXtX8X=X#X'.] y 6 8 6 0 6 1 1 1 8 q 0 6 6 d ! ..t.z.h.i.3.",
"1.5.` | 5.y.$.y.V.m.} *.B.W.K.{.{.^.k.i...' f q , - - S Y.8X4X6XtXsXsXsXsXtX:XXX5.d , = @ @ + @ = ; , 8 q y 0 0 6 y n ~ ..3.~ ( ",
" .` ] ] X. .| 2.n.0.' / j.k.D.D.T.m.} A C y 6 - = 1 R K.8X9X9X0XtXsXsXpXpX8X=X#.d ; @ $ @ + + + = = - ; , 6 0 0 6 1 1 y Q ~ R T ",
"! ` ~ ` ` ` ( 2.5.*.A ' +.y.p.n.p.%.B g 0 1 = - 6 ] L.&X6XtXwX0X6XwX6X6XU.U.d.k , = + + + $ $ + + @ = = @ - ; , - ; - ; r V V R ",
"! W ~ W ( ~ ` ' } ~ ~ T } O.9.3...A f 0 1 - - 1 R g.#X6X0X0X0X&X X`.U.g.| V y , - @ + $ $ $ + @ @ = = @ + @ - - = = @ @ = 9 R Q ",
"R W S L W W V ( } _ B C ~ 9.' ..~ m 6 , ; - , n ] F.L.Y.L.A.g.h.k.m.c.y.R 8 ; ; ; ; = = @ = + = - ; - @ @ = = = = @ + + + = 3 S ",
"B M N M K B R ( @.' ( Z A / ..' C y 1 ; ; , y V ` g.d.V N V ( ! [ ! Q V d 1 ; 1 d d , - ; - = = - ; ; = - : = : : = & + $ $ @ , ",
"k z k N k N N ` O.8.$.] C ~ [ ~ m y 1 , , 8 n k V ( d t 8 d V T k 8 8 7 - @ ; y n n y 8 , , - - = - - ; - ; - ; > < > = + + + = ",
"z z k x N N K ! 0.y.z.q.! B C C M y 1 , 1 y k d x k r 8 8 t d d d 6 1 ; - 1 W ..~ R m d 8 1 , ; 1 1 1 , , 1 , 1 , , , ; = + + @ ",
"d k k k V K N ` i.F.c.C.[ B n M T M 8 1 6 N n k k a 9 8 8 d y M M y 8 t y R %.a.5.] m g f q 1 6 8 y 0 q q 6 , 6 1 , ; ; - = + = ",
"z z k x K H K ` k.K.K.G.g.V k M ( Q k 8 t R k a 9 e 8 8 a k k n C m M Z ~ ! ~ ..+.} Z g m f q q 8 0 q q 0 1 , , ; - = @ = = : ; ",
"s H x x x H H ` f.).K.`.b.` k n ~ X.E M y W k 9 , ; ; ; ; 1 6 y g C Z C g B C Z C m f q 6 , , , ; ; - - @ @ @ @ $ $ + = ; 9 y d ",
"z H U J H H K Y A.~.).^.(.d.N k R | *.~ V M k a 7 , ; - - ; 6 0 q q t 0 q q q 0 0 6 1 , , - - - - = @ @ @ @ = = - ; , 6 N W | N ",
"L Y Y Y Y Y K ) >. XK.Q.Q.F.W d V *.$.#.$.` M M n V n d d d f g M D n h p h p f h c f h p p 9 6 0 6 1 6 6 8 6 0 0 q q Z +.| ~ n ",
"U Y Y &.&.` ) W &.b.H.K.`.F.*.M M ] 5.*.$.~ B V Q T E R S k M R Q R I F G G F R ~ R S h n p t 8 q 0 0 0 y q 6 6 0 y m %.5.( B f ",
"J &.-.-.-.&.Y &.U d.y.K.N.K.h.~ d B $.y.*.~ V R m Q Q ` Q N k N k s S D D S S S c k a 9 7 7 7 7 7 7 8 0 0 0 6 8 q m | y.~ ~ f n ",
"U -.&.&.-.&.Y U K H ` #.f.y.y.` n k ` *.*.} ( ( ~ ~ E T T B n a a 9 w a a a a r 9 7 3 < < < > > < < 7 8 8 t 8 8 n ~ 4.=.] B y M ",
"&.:.&.-.-.-.U H r i L Y U ) ~ =.( V V X.e.e.' ^ ~ ( R Q ! T n k t a 7 a d k a r r e < < > < > > < 3 < 3 8 r 8 k ~ d.`  .( n y V ",
"&.:.-.-.:.&.K w 2 2 H U U L W y.K.+.~ | 5.*.} ' } ' Q T R B M k d d y d N N k a r 7 3 < 3 < < < 7 9 9 7 a y n W 4.5.*.` S n M M ",
"U :.-.:.&.&.s 4 > * w z x ` 5.(.U.g.| 2.} { } | ~ } ~ ! M R V L S V S S R L B d r 9 7 7 3 7 9 a a p a d d S ` ` #.4.#.R k M N k ",
"K &.:.-.-.U e > * 2 < 4 i &.~.#X*XK.y.y.( Q ] } ....{ Q ~ #.5.5.5.5.d.d.d.=.=.W H s z z z z N L W V M k V #.*.#.d.=.~ N B N k d ",
"b &.Y &.Y H w > * * * * 5 &.Y.*X:X}.5.v.*.` W ] $.h.5.X.*.k.4.*. . .Y =.d.>.-.;.;.-.Y Y U L K ) $. .K ) ` ] ) =.:.` N M K N k N ",
"l U Y Y Y z 4 & & > & * 5 Y Y.@X:X.Xk.5.X. .| =.*.4.f.y.k.K.g.d.d.d.d.d.g.g.g.P.P.>.-.U U H L `  .&.) W ) ` ` `  .B N k d x K L ",
"w H U Y J z * % & & & 4 w Y @X6X@X.Xv.5.`  .] g.g.g.d.g.g.{.L.L.>.g.g.L.Z.I.@X@X;.-.-.) V K L ` `  .Y L ` $.` ) N N x s s N L Y ",
"w l J U b e & # % & > > 5 H 6X7X@XK.h.w.$.] 5.g.g.g.g.A.K.[.Y.@XY.A.L.L.L.U.Y.Z.5. .` L L L ` ` *.*.#. .#.` ) K N d s a p K x i ",
"5 w v b v w % # # % % > 3 H ,X0X#XK.X.*.y.K.R.).Q.`.g.D.K.F.h.K.A.h.d.v.C.F.5.4.*.| L W ` ` ` d.g.b.4.=.&.U H x s r 3 r a a 5 4 ",
"% & 4 4 j 5 % O # # % : 3 x 1X9X&Xy.*.k.#X>X%X{.OX).K.b.E.v.h.5.0.*.....5...| (  .` ( | X.| 5.g.(.U.d.Y H s v i e > & > < > < 4 ",
"O O # * 4 4 * O # # % : < L <XtX>.P.@X6X,X9X5X8XOX%X X%X/.!.J.R.C.z.+.' R ~ ~ } { 2.y.5.] d.F.|.'.g.J H i 5 2 4 2 % % < < 7 3 r ",
"O O O % * 2 * O O O % : r S.6XyXiXaXrXtXtXiXsXaXiX9XwX9X0X:X+X XOX[.v.W W W ' ] *.y.k.A.^.+XY.g.Y H e i 4 2 & * % O & 7 r s d z ",
". . . # % * & # . O $ < #.#X5XiXaXsXpXiXiXaXpXsXsXsXrXiXpXyX:X>X,X7X@XZ.&.L S *.b.~.L.@X>XY.Y H x w * * & & O O O # & < 9 r r s ",
". . . O # & % # . X # s f.-X0XqXpXpXpXqXeXeXeXeXuXuXeXeXeXeX2X2X3X2X2X2X2X<.Y :.P.I.Y.Y.;X<.b v z w * & & # O O # # % * 5 5 w u "
};
