/* XPM */
static char *out[] = {
/* columns rows colors chars-per-pixel */
"64 64 206 2 ",
"   c #2B1608",
".  c #4A2415",
"X  c #5C2C1A",
"o  c #68321E",
"O  c #583F2A",
"+  c #763A24",
"@  c #7E3D26",
"#  c #63432F",
"$  c #6E402D",
"%  c #6A4D37",
"&  c #77523D",
"*  c #7F5D46",
"=  c #814A35",
"-  c #8E4B34",
";  c #96523A",
":  c #865540",
">  c #8C5D46",
",  c #9D5943",
"<  c #955F49",
"1  c #A45E45",
"2  c #89664F",
"3  c #9B644E",
"4  c #916A53",
"5  c #9A6F56",
"6  c #AB644A",
"7  c #A16851",
"8  c #AD6D51",
"9  c #A86D58",
"0  c #B36A51",
"q  c #B76F53",
"w  c #A1765D",
"e  c #A7755C",
"r  c #AE755B",
"t  c #B4715D",
"y  c #B97658",
"u  c #A87B63",
"i  c #AE7D64",
"p  c #B77764",
"a  c #B27861",
"s  c #B47F64",
"d  c #BB7E63",
"f  c #C1785B",
"g  c #C87E61",
"h  c #AC836B",
"j  c #BE8466",
"k  c #B3876E",
"l  c #BA876A",
"z  c #BF8B6C",
"x  c #B78C72",
"c  c #BC8E72",
"v  c #C38264",
"b  c #CC8566",
"n  c #C78568",
"m  c #C4816F",
"M  c #C48A6C",
"N  c #CC8C6D",
"B  c #CC8C6E",
"V  c #D18969",
"C  c #D48C6E",
"Z  c #D88F6F",
"A  c #C88973",
"S  c #D08B78",
"D  c #C39072",
"F  c #C69677",
"G  c #C89172",
"H  c #CC9475",
"J  c #CA997A",
"K  c #CF9C7E",
"L  c #D19071",
"P  c #D09072",
"I  c #D29172",
"U  c #D09273",
"Y  c #D39273",
"T  c #D49374",
"R  c #D59475",
"E  c #DA9472",
"W  c #DD9876",
"Q  c #D79778",
"!  c #D1967C",
"~  c #D89778",
"^  c #D59A7B",
"/  c #D99878",
"(  c #D9997A",
")  c #DB9A7A",
"_  c #DA9A7B",
"`  c #DC9B7B",
"'  c #DB9C7D",
"]  c #DA9D7E",
"[  c #DE9D7D",
"{  c #DC9D7E",
"}  c #E09E7D",
"|  c #E29F7D",
" . c #E2A07F",
".. c #D89380",
"X. c #D89982",
"o. c #DD9E80",
"O. c #DE9F80",
"+. c #DF9F80",
"@. c #DD9986",
"#. c #D4A082",
"$. c #DFA081",
"%. c #DCA386",
"&. c #D8A485",
"*. c #DCA88A",
"=. c #DFAB8E",
"-. c #DFAF94",
";. c #E0A081",
":. c #E2A181",
">. c #E0A182",
",. c #E1A283",
"<. c #E3A282",
"1. c #E4A281",
"2. c #E4A383",
"3. c #E5A483",
"4. c #E6A483",
"5. c #E5A484",
"6. c #E6A585",
"7. c #E7A686",
"8. c #E8A786",
"9. c #E9A887",
"0. c #E0A58A",
"q. c #E3AC8D",
"w. c #E7AD8F",
"e. c #E8A888",
"r. c #E9A888",
"t. c #E9A989",
"y. c #EAAA8A",
"u. c #EBAA8A",
"i. c #EBAB8B",
"p. c #EBAC8C",
"a. c #EBAE8F",
"s. c #ECAC8C",
"d. c #ECAD8D",
"f. c #EDAD8D",
"g. c #EDAE8E",
"h. c #ECAE8F",
"j. c #EEAF8F",
"k. c #EDAF90",
"l. c #EEAF90",
"z. c #E4B195",
"x. c #E9B193",
"c. c #EDB091",
"v. c #EFB090",
"b. c #EEB091",
"n. c #EEB192",
"m. c #EFB192",
"M. c #EFB293",
"N. c #ECB496",
"B. c #E6B599",
"V. c #EAB79A",
"C. c #EEB899",
"Z. c #EEBC9E",
"A. c #F0B293",
"S. c #F0B394",
"D. c #F1B495",
"F. c #F0B496",
"G. c #F1B596",
"H. c #F1B597",
"J. c #F2B596",
"K. c #F2B698",
"L. c #F2B799",
"P. c #F3B799",
"I. c #F2B89A",
"U. c #F3B89A",
"Y. c #F3B99B",
"T. c #F4B99B",
"R. c #F4BA9C",
"E. c #F4BB9C",
"W. c #F4BB9D",
"Q. c #F5BB9D",
"!. c #F5BC9D",
"~. c #F5BD9E",
"^. c #F5BD9F",
"/. c #F5BE9F",
"(. c #F1BFA1",
"). c #F5BEA0",
"_. c #F6BEA0",
"`. c #F6C0A2",
"'. c #F6C1A3",
"]. c #F7C2A3",
"[. c #F7C3A5",
"{. c #F2C4A5",
"}. c #F7C4A6",
"|. c #F7C5A6",
" X c #F7C6A7",
".X c #F7C8A9",
"XX c #F0CBAD",
"oX c #F4CDAE",
"OX c #F8C8A9",
"+X c #F8C9AA",
"@X c #F8CAAB",
"#X c #F8CBAC",
"$X c #F8CCAD",
"%X c #F8CDAE",
"&X c #F9CEAF",
"*X c #F3D1B3",
"=X c #F7D1B2",
"-X c #F0D4B6",
";X c #F6D4B6",
":X c #FAD3B4",
">X c #FAD7B8",
",X c #F1D8B9",
"<X c #F7D8BA",
"1X c #F5DBBB",
"2X c #F6DDC0",
"3X c #F9E1C3",
/* pixels */
"-.b.[ 4./ ! z D J #.#.*.-.-.-.-.-.-.-.-.x.-.z.z.z.B.w.N.w.B.w.x.0.q.0.6.,.7.%.6.O.$.O.$.Q { ( _ Q ( Q Q ^ ( U U A B B P B I B P ",
"=.y.8.O._ J J #.=.=.=.=.z.-.z.-.-.-.-.z.-.x.-.-.z.a.z.x.x.F.x.x.w.=.=.0.w.6.w.q.<.O.0.%.[ [ ` _ _ _ _ Q { { _ T U B P B Y R Y P ",
"H 8._ ` ^ ] #.=.x.z.=.z.N.H.z.x.z.N.-.N.z.C.x.N.C.M.w.N.K.U.x.F.N.n.w.x.c.K.6.a.6.w.>.,.O.>._ O.[ >.( o.$.<.Q T U I N B I R N C ",
"U [ } ;.6.w.a.F.W.^.N.N.^.E.C.N.^.H.N.C.).).W.Z.^.W.F.Z.^.R.Y.H.R.I.M.c.K.M.p.p.h.t.t.{ <.>.[ ) +.[ O.[ >.$.` U U A B n B B B b ",
"O.y.s.m.m.A.W./.H.Q.U.!.Y.^.I.Q.R.Q.T.W.Y.).!.!.Y.).Y.Y.K.I.H.Y.S.A.h.c.w.h.y.s.t.r.t.<._  .` ` { >.O.O.{ $.Q ^ B B B B V V b C ",
"%.d.S.F.U.L.Y.W.Q.^.U.L.Q.I.L.L.T.U.L.Q.^.C.E.Q.U.L.K.F.J.L.K.a.x.v.a.w.a.y.e.y.y.8.| ` _ [ ` ] +.` <.[ O.' ) B B N N C V V C V ",
"D 0.w.W.W.K.M.U.Q.W.F.F.U.Y.F.U._.R.F.L.L.U.F.H.Y.^.M.U.L.R.a.h.h.S.a.y.y.a.5.p.y.y.` _ [ [ R { $.o.[ { [ [ P B B n v n n V b b ",
"& 7 ^ q.U.R.H.F.Q.Y.F.a.H.H.F.F.Q.J.x.x.G.U.F.H.^.Y.U.K._.R.Q.h.S.v.e.8.l.t.e.e.g.t.>._ ;.{ _ _ >.;.{ _ ;.Q I B n j j j n b v g ",
"X # < l ] a.M.U.M.G.d.S.S.W.L.F.F.x.h.S.M.W.H.W.H.^._.).).W.H.m.w.p.p.d.e.w.y.w.8.w.>.O.[ ;.{ >.{ { { o.Q ~ P B j v v g v g g g ",
": = = < s U e.d.F.v.e.e.A.U.R.F.x.w.p.p.F.R.`.`.`./.).).'.R.F.w.0.%.>.,.6.>.,.<.<.<.O.o.$.o.O.o.{ ` _ ` _ R P V v f y f f f f f ",
"#.l 3 7 8 n P e.M.v.,.e.v.S.x.A.p.p.7.w.M.W.R./.`._.F.a.q.%.j a r e 7 a s l s A U T U ( O.O._ O._ { Y _ _ Q N b j y 8 q y f y f ",
"=.,.! v j j n _ d.s.y.y.A.k.p.y.y.5.<.:.m.F.L.F.G.O.l 7 < : + $ o X X $ & : < 7 d j j n P R Q ( _ _ R Q Q I B v j t t t d f y f ",
"0.O.T B v B B ( <.s.h.r.y.g.8.s.{ [ _ { <.y.h.6.A e < & + o X . . . . o $ + + : < 3 7 8 6 t n Y ^ Q ^ ( B B b v y y y y t f y f ",
"a.h.>.B d d P ( <.s.s.8.i.9.s.r.Q B P B Y T R n q < : + $ $ $ $ + = > 7 r 7 3 < 3 7 3 , , < 7 0 d N P U P v d d d d y f y y y y ",
"#.0.( Q n t t P [ d.5.y.r.y.>.8.( b j A N B d t 1 ; - = : < 3 a M ! ^ q.q.0.U A M j 9 7 , < ; , , 8 6 r d l r r y y 0 q y f 0 q ",
"& : : 3 y y 8 j R <.e.y.y.8.4.<.` v d d v j y 8 1 < ; , 6 t v P [ ,.6.0.w.w.5.,.,._ U B d 7 3 3 7 3 3 < < 3 < < 7 9 8 6 0 0 6 6 ",
"O .   . $ ; 7 t g ~ 8.v.8.y.y.5.R B v j d y 8 1 , 3 , 6 6 y v B B R I R ~ ` _ O.{ >.,.>.U j d a 9 7 , < < < < < > , 1 6 1 6 6 1 ",
"# .   . . o = ; y P 5.F.J.h.h.5._ Y n j y 9 7 , ; ; ; ; ; 8 v P R Y B n v d y d n B U R Q R Y M d 7 7 , < < < < ; ; 1 1 6 6 6 6 ",
"# O . . O % $ + - B ` W. XQ.m.v.<.R v y 0 8 ; ; - = $ ; t S ! 6.q.p.;.O._ Y y 6 , , 8 v Y ^ B A j y 8 9 9 9 7 9 6 6 7 6 8 8 8 0 ",
"s > & : 3 u < = - f 5.W.=X@X/.L.a.Y t 6 8 1 ; = = o = 7 t e 4 7 i s l M B n j t r ; = , v P B n A v j y d j v y t 8 8 8 t t y d ",
"6.>.%.%.H L N B P 5.m. X=X:X[.W.6.B 6 6 6 , ; ; = + - - + @ . O . . . # : : : < > < = + ; M Y ( I V n b g b v n y y t y r y v v ",
"( R I R I T T C T 8./.OX>X:X XM.` v 0 0 y 6 q N v y r r 8 r > $ . . . . . . . . . . O o + 1 y y y d f v b v n n v j y t y d d y ",
"C E C C b v q y ( /.`.=X:X=XW.m.~ g 6 0 V L N [ y.8.` [ O.+.Q P s 3 : > : & % : : + o + , 8 1 6 v B B ( ) ( ~ ~ ( I d y d v d v ",
"g 0 1 , 1 6 f e.OX X X}.%X@XL.e.R g y v E <.4.5.y.9.[ R [ } [ [ ) R P B B v y y y d v n n 8 6 d B ` _ ( <.[ ` _ ( v 0 1 8 7 8 8 ",
"F.w.{ %.0.N.`.@X X@XOX#X X/.p.[ C b C E C | y.v.s.u.i.<.V v f g g f y t f b C ~ E C v 6 ; , v <.4.5.O.~ E ~ E I n d 8 8 6 8 r d ",
"[.W.[.).|..X@X X X.X@XOX[.S.;.C C E W | <. .8.s.h.u.F.F.m.<.v 0 1 1 1 1 6 1 1 1 , ; , 1 g [ <.5.1. .:.+.<.( R I R Y n y y y s s ",
"OX X'.@X@X:X[.$X&X=X.X XW.s.R C C E ~ 5.m.v.8.i.s.A.m.F.W.Q.K.U.w.0.U n j d y v v P ' 7.n.J.g.5.<.;./ <.<.8.[ | [ ` n y 0 r t t ",
"&XOX@XOX=X@X+X=X:X&X XW.L.4.E C C C E W 5.8.8.s.m.m.m.H.W./.Y.Y.[.`.Q.).[.'.H.).).F.T.P.Y.J.v.e.4._ ~ [ 5.y.8.4.4.[ A y t t t t ",
"&X&X%X%X@X@X%X=X<X<X[.U.d.e.` C V V g b v v f V W v.m.U.L.K.U.).`.[. X X'.'.[.[.U.L.J.Y.l.m.s.l.t.4._ [ ` 4.5.8.1.{ B j y y d j ",
":X&X=X=X&X X.X&X<X=X`.J.v.s.8.| Z g f g V g q 1 6 b <.L./.W.W.Q.[.OX@X X X[.|.`.`.U.v.h.y.h.t.s.r.8.| ` [ 4.<. .3._ N d y d v n ",
"OXOX).).Q.K.W.@X>X%XU.J.S.F.p.4.W V f C 8.4.Z g 1 , 8 I p.U.L./.[.&X[.}.OX&X'.|.`.W.s.s.s.m.8.y.8.s.2.[ [ ;._ [ { ( n j y v v b ",
"_.m.<.Z b <.`.@X:X&XW.L.W.'.y.E C V C | v.s.<.C y - - 1 v ( y.F.`.@X[. X.X'./.).[.R.S.s.h.v.i.e.j.i.8.O.[ [ ) ) +.R n v n b N B ",
"| V q 1 y U.@X>X<X=X X[.W.M.Y g f v C <.[ W C g 6 1 , 1 1 y I e.d.U.R.`.K.Q.R.R.H.U.M.D.d.A.i.f.r.4.<.<._ _ Q ( Y H v v v B H P ",
"b 1 - , x.&X<X3X3X2X&X[.p.B y 6 1 , ; ; , ; , 1 1 0 y f f q y N ;.y.F.F.U.m.S.A.v.s.f.g.g.s.f.8.a.8.<.[ [ _ ^ U T B v d v P Y B ",
"6 = - ^ .X<X<X3X3X<X Xx.n 1 - + o + + + + = - 1 6 q q y f g q q v R { y.S.S.7.s.s.h.4.u.w.v.5.i.r.r._ _ Q ( B ! R T j v N I n b ",
"- = M H.=X>X>X&X=X`.F.B 6 - + $ + + + + + = = = ; , 1 6 y f f q 8 q n R 5.y.8.8.y.y.8.8.y.8.<.1.;.+.` / R H H H ^ H n n A L C N ",
"= 8 ] W. X&X'./.L.,.j 8 - + $ + $ $ $ + $ + @ - - - - ; 1 6 1 1 , 1 1 v B ( ` [ ` ;.;.4.O.>.[ [ _ _ Q U G H B T U Q I U Y Q I C ",
", v 6.x.7.w.6.%.0.U 6 - - = = = = @ + + = = - - = = + @ - ; - - - = = ; y B ~ ( ( / / _ ` _ ( Q Q T T M A M H U ! U ! _ _ ( I V ",
"1 P _ A M Q I P P v , - 1 v d 1 ; ; = : - ; - , ; = = - - - - - = = + + = r B O.>.[ R Y R ~ B I Y R M j M M G ! U U ^ O.>.O.B P ",
"6 H M 9 t v j 9 8 ; @ ; v T U y 6 1 ; ; ; - ; < 3 ; ; ; ; ; ; - : = + + + = 7 A ;.;.~ P R T P I R L A j M M Y ^ U H ^ ] ,.^ G b ",
"1 H s 7 9 y y 8 6 , 6 O.w.8._ R f 8 1 , ; ; , , , ; ; ; ; , , , , < : : + + = 3 j R Y R I R L I C Y B M j M U Q H H B H H H b V ",
"0 A a 7 8 d v y y d Q s.J.S.e.[ Z v 0 6 1 6 y y 0 6 6 1 1 6 6 6 6 1 1 ; : = = = ; y P I R R ( R ~ Q U j M M H H M v M M H B V b ",
"y G 9 6 r y y b C [ R [ e.d.4.<.` C b g b V f b b b f y 0 q 0 0 0 6 1 , ; : + = = , d B E { ~ ` [ O.U A M M G H j M j G ! P N V ",
"y M 6 - - - , q b g v b C C b g g g f f v v f f v f q 0 y q 0 0 0 8 6 1 7 ; : = : ; 6 b _ ( ` [ +.:.^ H M M G M M M M H ! B B B ",
"j M r < - - ; 1 1 1 1 0 0 t 6 6 1 6 , ; ; ; ; ; ; ; - - - ; ; , ; ; , , ; ; - ; , 8 6 v R ` [ <.`  .^ H v M M M z D G ! M n v A ",
"R j M d y v v v v f f t y t t t y t t t t t 0 1 , ; - - - - - - = = = = = ; 7 a j n j y ~ [ ;.[ +.` T B M z z z M D J K M M M v ",
"%.B n U I C V ~ [ 5...( <.,.@.' ] { ....X.S n v v v y y f f t t q q 6 0 0 f C O.[ 4.v n _ O._ ` } +.B A M G s l l G G G M A j n ",
"q._ n ~ ` ~ T { <.4.o.{ e.6.6.0.$...S B N v m v N v f g b f f f f y y g ~ e.d.8.4.| b b _ [ ` ` $.^ H v M l s s l z l z H G M M ",
"^ 6.Y ^ _ ) R C b B n B M j M D j a 9 9 9 9 r d y r y v y v y y q y b [ p.U.h.<.[ _ n N ` <.;.,.U A z z l s s l d s s z A H U P ",
"K &.{ P [ O.( b 8 6 7 7 7 7 9 9 9 7 7 3 < 7 7 7 7 7 e r y y d t y v T p.H.F.p.,.O.R f B <.5.O.R A M j j s s d l d r z G G P ^ ! ",
"K *.` U ` 6.` V y 9 3 7 8 p t d a r 7 7 3 3 < 3 7 9 6 r y d y d v R <.x.F.K.,.6.;.I t L <.4.I B M M d d a s s s a s M G ! ! ! H ",
"#.*.#.^ _ O.~ B j 0 8 8 d n v v v y r 7 7 7 7 3 9 8 t y d d j N R >.h.h.S.F.p.6.>.n v T O.( P M G M j e r s s a d l G J #.K G j ",
"J *.&.#.U R R Y v y t y j [ ` ( P n j s r r r a d n B T B ^ T Q { p.F.M.l.F.w.w.{ N b _ ( ~ B B A B d 9 7 l d s d G F K J J ! ! ",
"J &.&.#.M H _ ~ Z g f n ( e.s.<.;._ O._ ! U ^ O.$.w.=.w.s.7.e.,.w.p.x.x.w.6.a.6.O.B B ~ ( B B N U A s 7 r s D D M M H G J ! ^ ! ",
"c #.K #.D z ! [ 7.[ n R ;.d.s.y.,.<.[ 7.w.a.w.c.H.C.m.M.N.w.,.0.w.p.6.r.7.w.o.{ [ Q B ~ ` T B H U M r 9 9 9 u J G M s D J #.$.%.",
"k J K K J s u M >.y.;.4.r.U.a.M.D.p.c.f.T.F.M.H.Z.W.Z.C.F.6.0.>.q.q.0.;.,.,.$._ O.Q ( R { _ ^ U T d s s s e 9 s G A M M ! ^ 0.=.",
"w D J K F i * w G e.F.Y.i.W.F.Y.K.R.C.).W.).`.[./. X[.W.a.0.>.e.o.+.{ o._ { ' ;.' ' { ,.2.%._ ^ G s s d u w 7 r s G G H U ^ #.^ ",
"w k F K z e & * 4 z q.F.Y.l.m.m.F.S.U.U.Q.).).!.!.E.^.z.N.w.7.,.6.{ T R Q T _ _ o.,.7.e.p.%.] ! G a l z s u u e 7 9 l M ! J s e ",
"5 w c c k 7 # % & 4 s 0.Y.F.t.y.s.a.w.D.U.U.b.c.p.a.,.7.e.g.7.7.[ { P ~ ~ ' ( o.,.w.0.p.F.H.O.! G s 4 D l k u 7 = < 7 s s 5 4 4 ",
"% * 4 4 h 5 # O % % > e x..XF.e.y.a.H.I.~.L.m.k.c.b.t.<.6.;.;.o.o.~ R R } ` $.,.[ { w.M.U.E.q.! G s w w u 7 3 3 & + : : > < < 4 ",
"O O # * 4 4 % O O % & < G @X[.,.q.).[.+X|.[.'.'.F.H.M.A.t.y.7.;.E T P T ~ O.>.2.O.<.k.L.L.`.x.J l i s 4 4 > : 4 % # > < 3 9 5 i ",
"O O O % : 2 * O O O & : M ).=X%X;X>X:X:X:X<X<X=X:X%X&X+X XR./.!.Y.w.! U ^ R _ o.,.a.F.I.).].=.F D e w 4 2 * & & O # < 7 r s d l ",
". . . # % * & # . O $ < o.).+X<X2X3X1X<X<X2X1X3X3X3X<X<X1X>X|.OX X#X(.z.#.H A ' a.H.N.).|.Z.K D z w : * & & O O O # & < 9 r r s ",
". . . O # & % # . X # s q.].&X*X<X1X1X*X-X-X-X-X,X,X-X-X-X-XXXXXoXXXXXXXXX-.K *.B.V.Z.Z.{.-.c x k w * & & # O O # # % * 5 5 w u "
};
