/* XPM */
static char *out[] = {
/* columns rows colors chars-per-pixel */
"64 64 216 2 ",
"   c #2B1608",
".  c #4A2415",
"X  c #5C2C1A",
"o  c #68321E",
"O  c #583F2A",
"+  c #763A24",
"@  c #7E3D26",
"#  c #63432F",
"$  c #6E402D",
"%  c #6A4D37",
"&  c #77523D",
"*  c #7F5D46",
"=  c #814A35",
"-  c #8E4B34",
";  c #96523A",
":  c #865540",
">  c #8C5D46",
",  c #9D5943",
"<  c #955F49",
"1  c #A45E45",
"2  c #89664F",
"3  c #9B644E",
"4  c #916A53",
"5  c #9A6F56",
"6  c #AB644A",
"7  c #A16851",
"8  c #AD6D51",
"9  c #A86D58",
"0  c #B36A51",
"q  c #B76F53",
"w  c #A1765D",
"e  c #A7755C",
"r  c #AE755B",
"t  c #B4715D",
"y  c #B97658",
"u  c #A87B63",
"i  c #AE7D64",
"p  c #B77764",
"a  c #BD7564",
"s  c #B27861",
"d  c #B47F64",
"f  c #BB7E63",
"g  c #C1785B",
"h  c #C87E61",
"j  c #C07B6B",
"k  c #AC836B",
"l  c #BE8466",
"z  c #B3876E",
"x  c #BA876A",
"c  c #BF8B6C",
"v  c #BF8470",
"b  c #B78C72",
"n  c #BC8E72",
"m  c #C38264",
"M  c #CC8566",
"N  c #C78568",
"B  c #C4816F",
"V  c #C48A6C",
"C  c #CC8C6D",
"Z  c #CC8C6E",
"A  c #D18969",
"S  c #D48C6E",
"D  c #D88F6F",
"F  c #C98270",
"G  c #C88973",
"H  c #CC8A78",
"J  c #D08B78",
"K  c #D38E7E",
"L  c #C39072",
"P  c #C69677",
"I  c #C89172",
"U  c #CC9475",
"Y  c #CA997A",
"T  c #CF9C7E",
"R  c #D19071",
"E  c #D09072",
"W  c #D29172",
"Q  c #D09273",
"!  c #D39273",
"~  c #D49374",
"^  c #D59475",
"/  c #DA9472",
"(  c #DD9876",
")  c #D79778",
"_  c #D1967C",
"`  c #D89778",
"'  c #D59A7B",
"]  c #D99878",
"[  c #D9997A",
"{  c #DB9A7A",
"}  c #DA9A7B",
"|  c #DC9B7B",
" . c #DB9C7D",
".. c #DA9D7E",
"X. c #DE9D7D",
"o. c #DC9D7E",
"O. c #DD9D7E",
"+. c #E09E7D",
"@. c #E29F7D",
"#. c #E2A07F",
"$. c #D89380",
"%. c #D89982",
"&. c #DD9E80",
"*. c #DE9F80",
"=. c #DD9986",
"-. c #D4A082",
";. c #DFA081",
":. c #DCA386",
">. c #D8A485",
",. c #DCA88A",
"<. c #DFAB8E",
"1. c #DFAF94",
"2. c #E0A081",
"3. c #E2A181",
"4. c #E3A181",
"5. c #E0A182",
"6. c #E1A283",
"7. c #E4A281",
"8. c #E4A382",
"9. c #E5A382",
"0. c #E4A383",
"q. c #E6A483",
"w. c #E5A484",
"e. c #E6A584",
"r. c #E6A585",
"t. c #E7A686",
"y. c #E8A786",
"u. c #E8A787",
"i. c #E9A887",
"p. c #E0A58A",
"a. c #E3AC8D",
"s. c #E7AD8F",
"d. c #E8A888",
"f. c #E9A989",
"g. c #EAA989",
"h. c #EAAA8A",
"j. c #EBAA8A",
"k. c #EBAB8B",
"l. c #EBAC8C",
"z. c #EBAE8F",
"x. c #ECAC8C",
"c. c #EDAD8D",
"v. c #ECAE8F",
"b. c #EDAE8F",
"n. c #EEAF8F",
"m. c #EDAF90",
"M. c #EEAF90",
"N. c #E9B193",
"B. c #EDB091",
"V. c #EFB090",
"C. c #EEB091",
"Z. c #EDB192",
"A. c #EEB192",
"S. c #EFB192",
"D. c #EFB293",
"F. c #ECB496",
"G. c #EAB79A",
"H. c #EEB899",
"J. c #EEBC9E",
"K. c #F0B293",
"L. c #F1B495",
"P. c #F0B496",
"I. c #F1B597",
"U. c #F2B596",
"Y. c #F2B697",
"T. c #F2B698",
"R. c #F2B799",
"E. c #F3B799",
"W. c #F3B899",
"Q. c #F2B89A",
"!. c #F3B89A",
"~. c #F3B99A",
"^. c #F4B99B",
"/. c #F4BA9B",
"(. c #F4BA9C",
"). c #F4BB9D",
"_. c #F5BB9D",
"`. c #F5BC9E",
"'. c #F5BD9F",
"]. c #F5BE9F",
"[. c #F1BFA1",
"{. c #F6BEA0",
"}. c #F6BFA1",
"|. c #F6C0A1",
" X c #F6C0A2",
".X c #F6C1A2",
"XX c #F6C2A3",
"oX c #F7C2A3",
"OX c #F6C3A4",
"+X c #F7C3A5",
"@X c #F2C4A5",
"#X c #F7C4A6",
"$X c #F7C5A6",
"%X c #F7C6A7",
"&X c #F7C7A8",
"*X c #F7C8A9",
"=X c #F0CBAD",
"-X c #F8C8A9",
";X c #F8C9AA",
":X c #F8CAAB",
">X c #F8CBAC",
",X c #F8CCAD",
"<X c #F9CEAF",
"1X c #F3D1B3",
"2X c #F7D1B2",
"3X c #F0D4B6",
"4X c #F6D4B6",
"5X c #FAD3B4",
"6X c #FAD7B8",
"7X c #F1D8B9",
"8X c #F7D8BA",
"9X c #F5DBBB",
"0X c #FADDBE",
"qX c #F6DDC0",
"wX c #F9E1C3",
"eX c #FBE5C7",
/* pixels */
"1.A.y.g.{ I d k i P <.N.G.J.J.[.[.|.[.XX[.XX[.OXXX$X@X$X[.OXXXXX[.XXJ.[./._.T.E.Z.K.m.K.C.A.A.A.d.d.w.h.r.6.{ X.` [ ^ { ) ) ! ^ ",
",.y.x.c.y.` M M [ k.P.R._. XoX%X-X#X&X%X-X$X#XoX#X$X-X;X>X-X$X#XoX X{._.{._./.^.W.L.L.D.P.K.D.v.x.h.w.y.g.e.X.| | | X.{ | [ ` ! ",
"V / ( @.` N 9 9 s s s V ,._.{.%XOX-X|.%X:X:X{.'.}.%X#X<X;X-X'. X.XoXR.E./.].P./.T.I.z.b.b.P.k.j.d.h.*.y.i.q.` { | | ) X.X.{ W D ",
"c M M g 1 = + $ o X X o : L s.I. X{.}.%X>X-X_.R.{.oX$X%X:X X(.R.}..XQ.D.W.T.I.T.E.T.B.d.l.M.h.r.y.0.w.j.y.X.` ( X.{ | X.#.^ R S ",
"c N y 6 , 9 f c 5 = X X o = 7 V :.R._.#XoX+X!.L.F.oX#X:X#X{.T.E.R.{./.T.L._.E._.E.^.K.M.k.v.g.y.7.y.g.n.#.+.{ | } O.2.3.` ! A S ",
"L D h R a.Q.{._.[.1.n 7 3 < ; 1 l ' z.(. X{.Y.z.Z.].$XoX'.P.D.B.Q.{.OX{.`.}.oX X{.E.Q.S.m.g.d.r.g.x.c.x.q.X.&.&.*.*.6.*.{ R C A ",
"L n.r.Z.!.`.!. X%X*X).N.,._ y f m ) ) b.^./.M.d.D.}.).).R.F.d.b.U.}. X%X*X-XOXXX{._.A.m.c.k.6.i.b.S.g.k.i.r. .;.6.t.;.6.{ E N M ",
"L L.n.m.U.S.C.D.Q.R.D.B.U.s.6.[ ~ ! ! ;.I.U.K.l.P.I.R.N.A.s.w.d.K._. XoX-X%XXX'.[.P.p...} ) ) 6.0.2.4.8.i.0.*.*.0.6.6.X.] A M h ",
"n m.g.n.x.X.Z ..6.s.N.F.s.t. .{ ` | [ 0.n.U.L.S.s.P.z.D.r.r.8.g.h.L./.'.P.s.T L f d 7 3 3 9 7 p f f l Z C ) ` 5.*.6.;.6.) S m m ",
"L b.w.y.X.t :.|.%X$X.X_.Q.L.o.N N ! @.8.c.L.U.z.B.C.K.S.6.` [ | 2.u.c.w.Q s < + o X X . X . X $ : > < r f m V E ^ O.o.*.` A h g ",
"P E.w.+.m ^ [.%XOX|.F.D.b.B.X.C y m W 8.c.^.b.b.n.A.b.S.X.A N C W ` ! N 8 ; + $ X X . . . . . X $ $ + : < 7 1 9 r Z Z ) ^ A g g ",
"T ~.C.^ N s.J.,.L r 3 < 7 t m m g q g ^ r.V.S.n.n.m.c.x.+.l g m C N f 8 , - + $ + $ $ + : : 3 9 r < = = > > > > > , 8 f V m g y ",
"Y A.U.| N s.x = . . . O   . o - 1 0 q A ( h.L.U.M.v.b.x.[ N g f f f t 1 - - - - - 7 8 l I ' p.u.*.U d d e 3 - : = ; ; < 1 r y g ",
"U z.s.^ N 7 .     . # &       . $ = 1 f D 4.K._.E.Z.P.g.{ C N f y 8 1 , ; ; < , 7 8 m U ^ ! ` ..5...-.' U m f 9 < < > : : : 7 0 ",
"_ { ' Z , $ . X $ % % O       . X X o , A 7.C.#X%X XR.C.6.E f y 0 1 ; - - - + = 3 V Q ....W f f y f p G [ ;.! m p s < > : = - 1 ",
"..Z t , ; Z G l ^ I r 4 & % # * : $ $ $ f i.R.<X5X-X}.^.S.Z t 1 6 , - = = o $ 7 V c V U ..' _ E N s , : 1 l Z U ! V r 7 < - - ; ",
">... .0.6.4.x.L.S.K.r.:.T T G V f f f N X.K.'.6X8X<X#X`.y.N 1 1 1 - @ @ o X : > + X X # . o & 7 9 r 9 3 + @ 9 Z V V f p 8 1 1 6 ",
"a.P.U.M.k.#.q.j.u.0.0.6.` ! ^ S ^ ! { / c.^.&X4XqX4X+XF.[ q 1 1 1 - , ; @ @ @ @ > o . .         . . X o $ X o r Z C C m m V Z t ",
"a.C.n.U.'./.y.X.^ ! M S ^ X.W D S h q Z R.%X&X4X6X5XJ.v.! q , 6 y q g { X.| Q ^ Q I k 5 % $ X X .         . . $ l R y y l N y m ",
":.c.K.Y. XoX{.r.R f q g g y 0 1 , 8 [ ].-X;X<X2X2X%X!.i.R q 6 0 M ` ! { y.4.` ( 0.t.d...R f f l d 7 ; > = X . + 1 , 1 t g m g y ",
"6.x.L.`.{.;X:X#XE.m.^ m t t t m 6.|.:X:X%X<X<X<X;X Xb.o.m g g h M / q.j.i.g.@.! C ^ ( ( D A M M m N m g y y y f , 6 ! 7.q.q.{ ^ ",
"d.D.W.`.#X:X<X-XoX{.}._._.{.#X$X-X;X>X>X>X2X2X<X*XU.6.C M M D / / ( q.i.g.x.K.z.^ y 1 6 0 8 6 6 y h A D S h 8 - , C W C ^ +.q.A ",
"z.^.I.oX:X5X<X2X<X+X/._. X>X%X>X-X:X:X<X2X0X<X>XoXK.` M M S D 8.g.j.7.g.j.n.n.L.Y.U...G r 1 - ; ; ; = = @ @ = 8 ! 8.7.` y y 8 1 ",
"M.E.'.#X<X5X8X6X5X%X!.^.-X,X<X;X%X-X,X2X6X9X5XOX{.j.^ M A S S ( @.w.y.y.x.n.K.L.'._._.'.#X`.s...U m f f C [ r.d.q.) ] +.X.y 8 N ",
"l.`.OX>X<X0XwX0X,X$X].+X%X5X2X>XXX:X<X8X9XwX<X{.L.k.X.( S A h m g g y M { v.V.Q.E.E.Q.{.}.%XOXXX)./.^.Q.L.U.M.n.w.| C ) *.6.! R ",
"L._.#X>X5XwXwXwX5X;X:X;X<X2X2X<X-X;X<X4XwXwX<X_.K.V.i.y.4.A g y h h 0 , 1 h i.L./.(.(.{.-X-X;X%XoX{.].W.U.c.x.i.i.#.) C { q.d.E ",
"Y. X`.:X4XqX9XwX8X5X%X:X<X<XXX|.[.#X&X4XqXwX;X`.P.U.b.U.i./ y m / @.D h 1 ; t +.^. XE. X:X<X+X-X%X-XQ._.U.S.3.u.j.i.X.R ^ e.9.U ",
"E.'..X%X2X<X<X:X*X}./.!.~.u.W M k.XX>X4XwX6X*X{.`.{.).b.X.A h A y.M.q.( h ; - 6 ^ C.!.].;X>X$X-X;X%X].(.^.K.i.q.x.g.7.X.! +.;.Q ",
"V./.}.%XXXoX'.`.m.c.+.[ h 6 , ^ /.-X2X0X9X5X-X-X#X+XP.) f g h ( 7.y.( D g 1 - ; , N u.^.].$XOX+X{.}._.`.P.U.k.x.i.g.q.e.( ` | ( ",
"c.U._.{.}.E.L.i.@.S g , @ ; ..|.>X<X8XwXwXwX8X<X;XA.R 8 1 , 1 1 1 1 6 1 1 6 q q 6 1 m @.S.I._./._.^.I.U.K.V.n.j.j.i.y.0.@.` { ` ",
"n.L.M./.].P.X./ M 0 = @ 1 p.'.2X4X5X9XwXeXeX9X<XP.C , - + o o + + + @ ; 1 0 0 y g g 8 m | h.j.U.U.U.x.x.x.S.g.c.x.x.9.y.#.X.) [ ",
"x.M.S.V.K.4.Z g 6 = @ 8 N.XX:X5X0X8XqXqXqX4X*XP.! 1 = + + @ + + + @ = = - , 1 6 q y y q g ! @.y.c.n.r.y.g.i.k.j.x.j.e.3.8.X.^ ! ",
"q.x.j.x.9.! f 6 = + 6 ;.).<X<X6X6X5X,X5X%XP.;.N 1 - @ + + + o $ o + + @ = ; - ; 1 q q 8 8 t C X.2.3.+.7.#.q.i.i.7.0.*.6.*.&.! ! ",
"t.9.q.#.{ m 8 ; @ ; E w.oX;X&X@X[.F.Q.].I.6.f , - = + @ @ + + + + + + = - = @ + - ; , ; , , 1 N ^ ` ` ` | O.6.6.o.[ [ | O.} ^ R ",
"4.8.( ( W f , = - g _ f.I.&.G -.6.#.} t.j.r.y 1 , t y 6 , ; = - = - = - ; = + + = - - - - = = ; l [ ! ! ^ [ ! ) ` ) U Q ` | Z E ",
"@.O.| S C 8 ; = 1 W U :.I t 8 m ^ E l y y 1 @ @ 8 ! ) m 0 1 ; ; - = - ; 7 - - - - - - = = + $ + : l X.+.} ! Z E ^ ! I V Q ^ E Z ",
"` ( ( / y 1 ; ; 0 U V Q r 8 6 y m l 8 1 , = - y Q | { ] M y 1 , ; - - ; ; , - ; - ; ; ; - = + + $ - f *.[ ^ E ! R E I V I Q Q ^ ",
"` { ` S y 6 , - t G V V r 8 8 y m C t t 8 1 V P.{.K.i.@.( M y 6 1 1 0 q 0 6 1 , 1 1 1 , 1 , < = + + - f ^ ^ R R ^ ^ Q l U _ [ ! ",
"! X.^ D y y 1 ; p Q l d r r t m C D m N ^ +. .l.I.^.j.i.@./ M h g g h D A W M m q 0 6 q 0 8 , ; = + + - g ! Z ^ ) *._ l U  .! Z ",
"R } ` ( f 0 f 1 p Q 9 3 r 9 1 8 f h S X.7.X./ ( 7.7.7.X.` D A A D D A A =.` W M g y q g 0 6 6 1 ; + + @ , N E ) +.;.&.l U ! E A ",
"N { @.8.V 8 N m s ' 9 ; = @ + = , 0 y h g N h A M N g a 6 8 1 1 ; , , 0 0 0 1 1 1 8 6 8 8 8 8 6 < : @ - - f ! | *.6.>.V V ^ ^ A ",
"N ` 8.g.6.f m  .f V d 9 , - - 8 0 0 6 1 , , 1 , , ; - = = = - = @ = - = @ + o o o + @ @ = = - - - - ; 7 1 0 ^ O.6.p.:.V I ^ E C ",
"V { 0.Z.K.' t ' _ Z N V V Z l A A D C N g g t 1 ; 1 ; = = - - - = - < < - @ o o o + @ @ + @ + + @ 7 f G f y ^ ;.3.6._ V I ' Z A ",
"x ' f.D.^.v.f m 6. .) ^ ` ^ S h ( 3.q.6.2.%.%.K K K F B v j p p p j a 8 6 1 , , 1 6 0 6 6 1 , , t ` | #.C m { +.6.' U n P _ Q C ",
"d _ a.!.U.Q.-.d ' 6.` ) ^ ( ( A / q. .r.;.2.$.r.r.p.%.=.K $.$.K K J j j j B a m g m g g q q q N #.j.8.w.l ^ { 3.| ^ V V I Q G N ",
"x V p.D._.).B.V l 3.[ ^ ` ] { S m g M ! &.2.0.6.u.s.<.6.&.K K J H j j j F a a g g q q 0 0 y A k.E.0.@.R m ` 3.O.[ I c c Y I V N ",
"U _ U z./.].I.6.f ) ;.+.+.+.D S l t 0 y j J K $.K =.%...K B a j p r t p q 0 0 q t q 6 6 0 A r.L.v.w.! l N i.5.` V V d c Y P l N ",
"Y T Q ..I.R.~.C.E p 2.7.7.X.D A g y t 7 3 9 9 7 7 9 9 r r 7 3 < 3 < 3 < < < 8 8 0 8 8 8 m w.L.z.r.;.! t ^ 6.[ V l d d l c I V N ",
"Y >...&.w.D.L.R.;.r ! h.y.@./ R y y t t 8 9 r r r s 8 9 7 7 < > : : : > > < 3 9 8 0 0 m { U.A.s.5.6.N y ^ { Z p s s f c l U Z W ",
"T >.>.-.-.r.z.b.i.f l i.g.X.| S y y f y f f m m m l f s r 7 3 > > : > > 3 7 7 9 8 0 g ) P.A.Z.f.s.@.y N ] ~ f 8 r d p x U I ^ ) ",
"-.,.-.:.>.:.:.6.y.{ y 3.x.r.{ / g f l Z { +.W U R Z m f s r 3 3 < < > 7 r f f f m N Z f.D.P.r.s.v.R y W ` Z 9 e r d s I U _ ! U ",
"-.>.>.>.>.-.c l s.o.R 8.U.i.#.( S M ) d.W.U.h.7.7.| R N m p r 9 8 8 r l ! { [ ~ ` ` ;.s.v.s.f.s.f.m N Z R f r s s d L I T -.I V ",
"Y ,.>.,.-.P e 3 x U O.r.L.n.X.#.{ { c.^.I.D.A.b.u.f.w.w...Q V U ) ..>.d.t.f.0.r.O.r.h.z.d.d.s.s...C Z ^ f r x x d L P Y T Y U ' ",
"P >.,.,.>.c 7 > 2 u ..m.^.E.+.c.c.e.M.K.`.m.b.d.t.d.m.b.P.s.N.s.N.P.P.P.Z.u.&.&.;.w.h.d.d.s.t.a...! ` E 8 s I U I L P Y _ T .._ ",
"n >.-.>.T c w & * 4 r N.}. Xq.c.S.g.k.L.'.'.D.P.I.I.m.P.R.R.N.H.[.R.N.D.z.6.} 6.r.y.;.6.d.l.r.s.&.[ ` V r r 9 l -.V c I _ :.&.:.",
"z Y T T T x 2 % * > 5 T *X%XS.4.S.V.k.A.}.{.R.XXXXXX/./.XXXX[.;X<XoXH.N.A.r.;.| 2.+.2.6.f.s.v.r.w.{ Q f x 7 < 9 U V c V T -.w.a.",
"w L Y -.P z * % & & 4 L '.-X/.x.h.U.y.L.!./.'.}.'.$XXX+X*X;X|.*XXXH.*.s.h.f.6.| ` | 2.i.d.K.L.F.>.&.V l z i w r f _ U L L -.:.,.",
"u x Y Y L w & % % & 2 u N.<XXXA.d.x.j.x.U.I.E.~.~.U.F.F.|.%XH.s.B.j.r.w.t.2.{ ` [  .6.r.A.Q.).z.:.Y x P z i u r 9 f c U U Y b i ",
"5 w n n z w # # % & & 3 Y 2X*XI.h.d.#.v.R.{.Y.!.I.L.t.z.s.s.6.6.w.q.;.#.X.@.] O.6.p. .d.I.{.Q.s.>.Y 5 z n z i u = 3 9 f x w < 4 ",
"% & 2 3 k 5 # O # # & > f *X<X).f.:.P.OX*XOX)./.`.P.v.B.D.h.6.*.&.{ ! ~ | {  .;.z.6._ s.).).`.r.U c u 5 i w 5 w * + > > > > < > ",
"O O # * 3 4 % O # # & > t [.<XH.>.J.#X<X:X<X;X;XXX.X).{.P.P.D.A.t.;.R Z ! [  .r.d.0.d.P.Q..X).>.L i z 5 2 > * 4 % # : < < 7 3 s ",
"O O O % & 2 & O O O % : l '.<X2X6X8X4X2X5X9XwXqX4X2X5X<X*X|.{.)./.D...E ^ _ [ O.6.h.D.T. X.XN.I L w u 5 > * & & O # 3 7 s d f x ",
". . . # % * & # . O $ < O.|.;X8XqXwX9X8X8XqX9XwXwXwX3X8X9X6X$X$X%X>X[.N.-.U G o.z.I.A.[.+X[.T I c w * * & & O O O # + < 9 r r d ",
". . . O # & % # . X # d a.OX1X1X8X9X9X1X3X3X3X3X7X7X3X3X3X3X=X=X=X=X=X=X=X1.T ,.N.J.J.[.@X1.L b z u * & & # O O # # % * 5 3 w u "
};
