/* XPM */
static char *out[] = {
/* columns rows colors chars-per-pixel */
"64 64 223 2 ",
"   c #2B1608",
".  c #4A2415",
"X  c #5C2C1A",
"o  c #68321E",
"O  c #583F2A",
"+  c #763A24",
"@  c #7E3D26",
"#  c #63432F",
"$  c #6E402D",
"%  c #6A4D37",
"&  c #77523D",
"*  c #7F5D46",
"=  c #814A35",
"-  c #8E4B34",
";  c #96523A",
":  c #865540",
">  c #8C5D46",
",  c #9D5943",
"<  c #955F49",
"1  c #A45E45",
"2  c #89664F",
"3  c #9B644E",
"4  c #916A53",
"5  c #9A6F56",
"6  c #AB644A",
"7  c #A16851",
"8  c #AD6D51",
"9  c #A86D58",
"0  c #B36A51",
"q  c #B76F53",
"w  c #A1765D",
"e  c #A7755C",
"r  c #AE755B",
"t  c #B4715D",
"y  c #B97658",
"u  c #A87B63",
"i  c #AE7D64",
"p  c #B77764",
"a  c #BD7564",
"s  c #B27861",
"d  c #B47F64",
"f  c #BB7E63",
"g  c #C1785B",
"h  c #C87E61",
"j  c #C07B6B",
"k  c #AC836B",
"l  c #BE8466",
"z  c #B3876E",
"x  c #BA876A",
"c  c #BF8B6C",
"v  c #B78C72",
"b  c #BC8E72",
"n  c #C38264",
"m  c #CC8566",
"M  c #C78568",
"N  c #C4816F",
"B  c #C48A6C",
"V  c #CC8C6D",
"C  c #CC8C6E",
"Z  c #D18969",
"A  c #D48C6E",
"S  c #D88F6F",
"D  c #C88973",
"F  c #CC8A78",
"G  c #D08B78",
"H  c #D38E7E",
"J  c #C39072",
"K  c #C69677",
"L  c #C89172",
"P  c #CC9475",
"I  c #C09379",
"U  c #CA997A",
"Y  c #CF9C7E",
"T  c #D19071",
"R  c #D09072",
"E  c #D29172",
"W  c #D09273",
"Q  c #D39273",
"!  c #D49374",
"~  c #D59475",
"^  c #DA9472",
"/  c #DD9876",
"(  c #D79778",
")  c #D1967C",
"_  c #D89778",
"`  c #D59A7B",
"'  c #D99878",
"]  c #D9997A",
"[  c #DB9A7A",
"{  c #DA9A7B",
"}  c #DC9B7B",
"|  c #DB9C7D",
" . c #DA9D7E",
".. c #DE9D7D",
"X. c #DC9D7E",
"o. c #DD9D7E",
"O. c #E09E7D",
"+. c #E29F7D",
"@. c #E2A07F",
"#. c #D89380",
"$. c #D89982",
"%. c #DD9E80",
"&. c #DE9F80",
"*. c #DF9F80",
"=. c #D4A082",
"-. c #DFA081",
";. c #DCA386",
":. c #D8A485",
">. c #D7A88D",
",. c #DCA88A",
"<. c #DFAB8E",
"1. c #DBAB91",
"2. c #DFAF94",
"3. c #E0A081",
"4. c #E2A181",
"5. c #E3A181",
"6. c #E0A182",
"7. c #E1A283",
"8. c #E3A282",
"9. c #E4A281",
"0. c #E4A382",
"q. c #E4A383",
"w. c #E5A383",
"e. c #E6A483",
"r. c #E5A484",
"t. c #E6A584",
"y. c #E6A585",
"u. c #E7A685",
"i. c #E7A686",
"p. c #E8A787",
"a. c #E9A887",
"s. c #E0A58A",
"d. c #E3AC8D",
"f. c #E7AD8F",
"g. c #E8A888",
"h. c #E9A888",
"j. c #E9A989",
"k. c #EAA989",
"l. c #EAAA8A",
"z. c #EBAA8A",
"x. c #EBAB8B",
"c. c #EBAC8C",
"v. c #EBAE8F",
"b. c #ECAC8C",
"n. c #ECAD8D",
"m. c #EDAD8D",
"M. c #EDAE8E",
"N. c #ECAE8F",
"B. c #EEAF8F",
"V. c #EDAF90",
"C. c #E4B195",
"Z. c #E9B193",
"A. c #EDB091",
"S. c #EFB090",
"D. c #EEB091",
"F. c #EDB192",
"G. c #EEB192",
"H. c #EFB293",
"J. c #ECB496",
"K. c #E6B599",
"L. c #EAB79A",
"P. c #EEB899",
"I. c #EEBC9E",
"U. c #F0B293",
"Y. c #F0B394",
"T. c #F0B495",
"R. c #F1B495",
"E. c #F0B496",
"W. c #F1B596",
"Q. c #F1B597",
"!. c #F2B596",
"~. c #F2B697",
"^. c #F2B798",
"/. c #F2B799",
"(. c #F3B799",
"). c #F3B899",
"_. c #F2B89A",
"`. c #F3B99B",
"'. c #F4B99B",
"]. c #F4BA9B",
"[. c #F4BA9C",
"{. c #F4BB9C",
"}. c #F4BB9D",
"|. c #F5BB9D",
" X c #F5BC9E",
".X c #F5BD9E",
"XX c #F5BD9F",
"oX c #F5BE9F",
"OX c #F1BFA1",
"+X c #F5BEA0",
"@X c #F6BFA0",
"#X c #F6BFA1",
"$X c #F6C0A1",
"%X c #F6C0A2",
"&X c #F6C1A3",
"*X c #F7C2A3",
"=X c #F6C3A4",
"-X c #F2C4A5",
";X c #F7C4A5",
":X c #F7C5A6",
">X c #F7C6A7",
",X c #F7C7A8",
"<X c #F7C8A9",
"1X c #F0CBAD",
"2X c #F4CDAE",
"3X c #F8C8A9",
"4X c #F8C9AA",
"5X c #F8CAAB",
"6X c #F8CBAC",
"7X c #F8CCAD",
"8X c #F8CDAE",
"9X c #F9CEAF",
"0X c #F3D1B3",
"qX c #F0D4B6",
"wX c #F6D4B6",
"eX c #FAD3B4",
"rX c #FAD7B8",
"tX c #F1D8B9",
"yX c #F7D8BA",
"uX c #F5DBBB",
"iX c #FADDBE",
"pX c #F6DDC0",
"aX c #F9E1C3",
/* pixels */
"2.G.e.u.' B k k u k K Y Y =.>.C.1.2.C.C.1.C.2.C.C.C.C.L.L.L.K.K.C.C.2.C.d.Z.v.F.f.v.s.s.;.g.j.g.-.6. .7.6.7.o.o.( ( ( } ' [ ! ~ ",
"<.j.B.b.u.W d u u u K U Y :.1.2.2.1.C.2.C.C.C.2.C.C.C.C.K.K.K.2.2.2.C.2.d.f.F.v.f.d.s.s.s.g.g.g.s.h.j.p.i.i.7.3.} } [ } O.} { ! ",
"J ..+.t.e.' f k e k I Y =.>.:.1.2.2.C.C.C.C.<.2.C.C.2.C.C.L.2.C.2.C.<.C.C.C.v.J.F.U.l.F.U.Y.c.N.M.M.r.i.i.k.9.4.} { ! } ..@.( ~ ",
"b ^ ^ / ' Z d w e k I Y :.=.>.1.2.2.C.C.K.2.C.2.C.C.2.C.L.K.C.C.C.J.L._.@X X/.Y./.W.F.N.W.D.c.n.V.x.r.r.l.g.r.O.o.' ' ' O...' ~ ",
"b ^ Z A m h y i w x U =.Y =.>.2.1.C.C.K.C.K.C.C.C.L.L.OXOX+XOXOX[. X[. XQ._.Q._.T.Q.U.W.v.h.j.n.i.h.t.i.9.p.w...( | ] | 3...' _ ",
"b ^ Z m m g f s i J =.:.,.,.C.L.L.OXOXOX+XOXOX X@X@X@X@X>X;XOXXX X`.{.I.[.U.P.R.Q.U.Y.G.M.p.p.h.h.r.w.9.c.g.u.X.}  .| { -.%.' A ",
"I / h Z Z h g n M ~ 6.d.Y. XE.XX*X*X|.#X*X;X[.OX_.OXE.XX%X;X/.'.'.+XQ.].E.~.v.Y.T.R.v.H.G.b.q.h.h.h.3.h.j.b.3.@.*.6.] &.7.6.E A ",
"I [ A Z Z m V J W  .r.g.W.Y.Q._.@X@X{.XX=X&X#XXX_.~.R.].*X%X'.R.Y.S.T.Q.[.W.N.R.XX~.F.H.Q.S.k.y.g.g.h.j.c.l.i.7.r.*.%.%.-...' A ",
"J / A A Z A ~ ! x J J J J =.p.Y.Q.XX{.#XXX*X%X%XU.S.F.).`.#X@XY.v.D.A.R.W.`._.@X XOXQ.^.J.Y.i.7.7.q.4.3.{ o.} { ( ..( 5.%.3.{ S ",
"J / A A A C y 3 > : : = & = 3 c =.d.F.E.XX#X'.'.F.g.l.H.[.'.R.c.i.r.j.v.@X*X#X#XXX_.[.v.d. .P B l f f s s f M M D Q _ | o.} X.Z ",
"L ..A S ^ y ; ; > < @ $ X # X $ < s B  .N.~.Q.Y.S.p.7.N.~.[.l.j.y.p.7.S. X*X{.XX_.v.U J e < = & $ & @ : > 3 9 r r t r f W ( T V ",
"U ..S ^ O.m f B ` =.U x 5 > = = : , 9 f E p.A.Y.R.r.r.p.Y.M.i.7.9.3.*.y.W.`.F.;.J 9 = $ X X . . . . X o = : : > < < , 1 8 y f n ",
"L 6./ O.3.' ( 6.;.v.J.L.d.:.P l s r 0 f f E &.M.b.j.y.j.q.c.7.%.^ ' } 7.p.r.T y > @ o X . . . X X & > < : > > 3 > ; ; ; < 3 , 7 ",
"J =.{ } j.( ' O.7.i.g.g.d.s. .Q E M n l M C o.y.z.z.k.y.p.h.y.T V D R T Q D t > = $ o X o $ = < d K ` P B f f r 8 7 < 3 1 < > > ",
"K =.` %.v.7.( ~ C C ) %.s.d. .) P l r f M ~ ' r.g.l.8.8.p.l.7.M n M n n l t , - = @ + = < r f Q  .r.%.7.6.] E Q ( W p r r 7 > > ",
"Y =.:.%.F.j.Q y y s.E.~.XXQ.g.6.-.C q 6 y A ! { l.j.8.3.i.r.%.V g y t y y 8 , - - - ; , r n M J C M M V C C D R ] ( C D B t 7 , ",
"Y :.;.%.r.l.C 8 M C.f.,.P J d d e s q 8 8 g M ~ 3.g.7.u.w.r.%.~ n f t t 6 , ; ; - - - - , l C R n f t t 1 , , 1 t B M R n l y 8 ",
"=.=.:.;.7.p.' 0 ) K e & # . .   . . $ - , 8 f T O.c.N.h.t.l.y.{ V n r 6 1 ; - = @ $ + 3 N C C J c l l n p r , = @ 7 n D B M n f ",
">.>.Y 6.( 6.~ n s $     . . O         X $ - 8 R ' U.R.~.R.U.q.3.V f 1 1 , - + + X $ < 3 $ $ . . . X $ = : : = = $ $ 3 C W Q M M ",
":.=.Y ` C n 8 ; + . . O # # O . . . . $ $ $ @ M } S.*X;X*XXXV.r.C 6 , , ; @ + X o = + o . O                     . . X r D t 0 y ",
":.:.=.,.` n t 8 B c 9 s s e 5 2 : 2 3 7 < ; - M w.E.6XeX:X$X`.7.f 1 , 1 - - - @ @ - < 9 4 > O O . # $ $ # $ $ $ X X $ , 3 q T 9.",
",.:.:.:.p.c.h.' ( p.l.i.v.r.] ~ ~ T A m D Q 3.h.R.XXeXyXeX=XY.( y 1 1 0 1 y D V Q ' o.] ;. .D s r f B l s 9 6 , 1 7 t 6 1 t M V ",
"1.d.,.;.;.b.z.Y.c.r.O.9.} ' R Z A A Z A A Z m c.XX4X6XrXeX3Xv.Q y 0 6 h C E } 9.} ' ! { 3.7.^ T V A m m h m m ! ! Z 6 ; f 7.' C ",
"d.d.:.=.g.M.x.U.[.l.^ m C Z m Z ~ m n q 0 h p.@X>X6X6XeX9XXXp.C f q y m O.9.h.j.j.O.m y g n n g g q 0 q m m n g 6 - - y ~ } O...",
",.,.:.;.p.S.R.XX@X*XU.} m y q 0 6 1 , r ~ OX4X6X3X9X6X9X*X~.} Z h Z Z A ^ h.z.b.p.U.l.3.n 8 1 1 , , , ; - - - ; , n } h.O.{ ! { ",
"d.s.s.d.l.S.`.[.*X3X3X|.XXS.| ~ ! ~ i.OX4X8X6X6X9X9X6X7X*Xc.^ m Z A ' O.9.j.c.h.z.S.R.~.[.~.v.7.] R M M V ( 6.p.M.l.j.t.r.3.( R ",
"c.f.;.d.s._.Y. XXX6X6X5X;X;X/. X@X>X=X>X4X9X6X6XeXeX5X>X Xj.Z m Z ^ ' u.h.b.r.l.m.Y.S./.`. X_.#X X@XT._._.`.Q.T.F.S.y.p.h.k.O.~ ",
"c.f.s.s.M.~.R.|.;XeX9X6X9X;X#XXX;X6X3X*X6X5X9X5XyX9X8XXX~.9.A m Z Z m Z ^ ^ ' t.z.S.S.W.[.[.XX*X3X:X#X.X*X X(.M.M.u.y.r.h.h.9.{ ",
"r.s.6.s.l.~.|.;X;X9XeXeX6X*XoX>X>X9X6X4X:X9XeXrXyXeX;X Xc.u.' ^ m h g g q 0 6 q m u.R.`.'.`.XX;X;X:X*X;X$X%X].R.c.z.i.p.w.p.9.0.",
"r.8.6.-.M.Y.|.@X>X9XrXeXeX4X&X3X>XeX9X>X3X<X9XyXaXeX=XR.Y.B.p.w.! n g h ! m y , , r ~ b._.].`.*X3X>X3X;X@X'.oXS.M.l.j.a.a.y.q.5.",
"i.y.o.&.l.'.W.XX;X9X9XeX9X9X;X3X<XeX*X*XXX>X6XrXiXeXOX_.R.Y.c.M.} m g ^ u.u.S n , - ; f } S.U.XX;X3X XOX'.'.Y.R.M.S.u.h.a.h.5.5.",
"i.7.%.| h.R.~.'.&X%X*X*X>X=XXX X@XY.w.O.~.>X9XyXiX8X@X'.[.'.W.3.A h m O.c.w.^ h 1 ; ; , 8 V 7.c.!.^.'.^.~.!.S.z.B.l.k.p.m.g.3.5.",
"%.-. .-.7.S.U.[.!.|.'. X/.R.c.h.^ h 0 ^ /.4XrXaXyX9X=X;X#X X7.M t q g Z m h q 0 1 0 q q 6 0 M ' *.l.n.U.N.S.x.h.t.a.h.p.w.i.7.q.",
"@.| *.%.p.z.S.U.E.T.S.c.h.} Z g , ; M /.4X9XyXaXiXyX9X=X#Xp.M 6 , - = @ @ = - , 6 0 q q y q 0 f Z } 9.r.j.p.t.5.9.9.y.i.3.7.%. .",
"3.7.(  .3.M.h.S.U.S.9.} ^ m 1 - - N F.>X9XrXaXaXaXaX9X>Xv.M , @ $ + + + + = - ; , 6 , 0 y g q 6 0 n C ' *.9.Q } { O.( ' @.3.( ( ",
" .` ] ` 6.p.h.p.m.r.~ m g 1 = - C L.3X9XeXyXyXaXyXeX>XJ.R 1 = $ + + + $ + @ @ @ - - - ; 6 6 1 , , 1 r M ! ~ E E ~ E ! ! ' ( ! B ",
"~ ` ~ ] ] 8.0.t.y.O.m y 1 - - n d.*X3XrX9XeX9X6X+XL.7.C 1 - @ + $ + + $ o + @ = @ @ + @ = - - - = = - 9 M | ' ( E ! R Q E ~ W B ",
"Q E ~ Q ( o.O.} +.! n 6 ; - 8 ] E.;X*X*XXX/.'._.Y.{ y 1 - = = + @ @ + + @ = = - - + + @ - - = @ + + + + , B { ( ~ E T C ! E W l ",
"R W D P W [ ! ' [ Z 0 , ; 1 M | N.g.C ~ 6.7.| r.r.] r , , r t 6 ; ; - = - - - ; ; - - - = - = - = + $ $ + ; y C ~ ~ C E ! { W f ",
"B c B c ( ' ( ! ! n 6 , ; t C P ` f 6 t Q E M f y 1 @ + , n C f 8 1 , - - - - - < - - - ; ; ; ; ; : = + $ + - t T C A A | ]  .l ",
"d x l B Q { | ' Z g 6 , ; l D D f 8 6 0 f n y 6 1 - = 8 E } Q E f t 1 , ; ; , , , 1 , 1 , 1 1 1 , 3 ; = + + = ; f T Q } { %.%.B ",
"d x c c W ] 4...R 0 t 6 , f n l s 7 7 r l l n 8 8 1 t -.~.S.9.^ A n y 6 1 1 q a a a a 0 6 6 0 6 1 , , - @ + = = 1 D ~ } 7.s.=.J ",
"f x l c P 7.7.7.' y 6 8 1 n B n r 9 3 q l m m f M T T 3.h.S.9.O.^ A g g a n g h m m q q 6 0 1 1 , , ; - = = - , , V ~ -.*.i.U J ",
"x x x c L 7.i.i.p.M 0 f t n B 7 , 7 , , 0 g n m ^ ^ T A ^ ^ ^ Z m n a q q q 6 6 0 1 ; - ; - = + + $ X $ = , 8 y 6 V { { 4.6.W J ",
"d c J K J ;.i.A.f.} y f M B B 9 ; = @ @ ; 1 0 n g g n h n n a q 6 1 , , - - - ; - = @ + + + + + + = = - 9 M E T r Q } -.{ ] J L ",
"x J Y K U  .d.v.H.l.D t B n M p 9 6 1 6 q q 0 0 8 0 q 0 0 6 0 0 6 0 q 0 q 0 0 6 1 1 1 1 1 1 6 1 6 6 6 y ] 3.O.T f ~ -.] } R B B ",
"K ) Y =.Y ` ;.N.H.W. .f f  .E T R T M h m A Z T H ! M G H G D H ~ H D D D N p a N N a a a g q y y g m 7.M.u...V Z r.| ] R B f B ",
"U Y Y ` =.Y ;.d.G.Y.f.( f W { E T ! ! C m ! ' ( ] $.#.#.| | | | $.H D N F a a a j g a a a y q 0 g A u.R.M.3.^ f ' r.%.C f n f l ",
"K =.:.:.:.:.=.d.i.F.A.A.n B %.{ C E E ^ m m n n y N D D D M M D c f r r 9 7 9 8 9 8 0 a y q 0 a m u.Y.Y.w.7.C f ' -.W n s f l B ",
"U :.:.=.:.=.Y =. .=.g.f.( f { 6.{ ( ! E m y 8 6 6 7 9 r s r r r 7 7 3 < 3 3 3 3 7 7 9 8 r t y n 3.v.N.r.7.| f M ' W n s d d l P ",
"=.,.=.:.:.:.U K f ) ` ;.' f n r.7.@.! A h f y t 0 r 9 s l l s r r 9 < < 3 4 > 3 9 9 9 8 t f n o.v.N.r.g.r.T f ( ! ^ s s s B B J ",
"=.,.:.:.:.=.L s 3 x U L W D l 7.y.5.^ Z g f y y f n B C E D l s r 9 7 3 3 3 3 9 s f f f M R -.c.J.v.g.i.-.M V ~ ! l r s l J B B ",
"U ,.:.,.:.U d 5 * 4 d l P ;.( r.u.w.@.^ g f g M ( r.o.-.o.( D B p r 9 r 9 r s c D Q C T T %.v.F.j.v.j.g.M l T ! n f r l B W P ) ",
"L :.,.:.:.b w 2 * : < 5 J i.v.f.p.5.O.' m n V { S.S.M.j.r.r. .! ~ C J P ) )  .o.;.6. .( } r.v.j.Z.v.f.( V C T n f l l J J P ` ) ",
"b =.Y =.Y b w * * > * > d C.L.}.z.p.@.O.' _ %.v.~.W.7.q.-.l.&.s.g.d.=.,.d.d.s.d.7.-.~ ( 7.c.7.d.f.F. .~ T ~ V s f K J c L P ` ;.",
"z U Y Y Y x 4 % * * & & w ,.I.#XQ.0.p.r.y.3.v.E.I.Q.V.c.N.v.d.s.d.C.C.C.K.J.f.;.%.` o.-.y.q.7.i.v.f. .` ( E s 9 r B L c J L  .d.",
"w J U Y K x * % % & & 2 w U +X>X_.g.5.l.8.h.v.[. X@X~./.T.E.F.E.L.L.OXOXC.;.i.i. .( W %.%.r.7.v.v.f. . .W c e e 9 f B L D P =.;.",
"w z K Y b e & % % & * > 5 K ,X6X}.l.5.7.i.r.F.T.T.].}.OX%X+X+X+XI.P.P.C.i.r.p.7.*.~ Q ~ 6.i.c.Y.A.d.;.) J d i e 7 7 s B P Y c i ",
"5 w b b x w % # # % % * 4 c >X9X+XH.3.@.i.U.Y.^.E.(.H.W.H.Q.J.F.f.f.d.p.l.i. .o.] ( W 6.i.U.F.W.T.,.U d x J i e > : 3 r d 7 4 4 ",
"% & 4 5 k 4 % O # # % : 3 c 5X6X*Xg.-.Y.&X%X`._.`.^.H.v.D.v.i.q.q.7.7.*.3.} ] (  .6.7. .g.N._._.J.` J 5 w u w 7 > $ & > > < < 4 ",
"O O # * 4 4 * O # # % : < W ,XeX<.d.&X5X>X8X4X>XoX%X}.{.~.W.v.n.q.q.{ ~ T ~ ` } o.i.i.%.v.[.`.XX:.K i d 2 4 > 4 & # : 3 3 9 5 i ",
"O O O % * 2 * O O O % = r A.4XrXwXyXeXeXeXyXaXpXyX8XeX8X3X&XoX{.].R.r.W W ~ ' { 7.y.v.A.^.oXI.=.J d w e 2 > & & # O > 7 r d f x ",
". . . # % * & # . O $ < %.+X4XyXpXaXuXyXyXpXuXaXaXaXwXyXuXrX:X:X>X6XOXC.=.P D %.v.Q.J.&X:XI.Y J c w * * & & O O O # & < 9 r r d ",
". . . O # & % # . X # d d.=X9X0XiXuXuX0XqXqXqXqXtXtXqXqXqXqX1X1X2X1X1X1X1X2.Y ,.K.L.I.I.-X2.b v x w * & & # O O # # % * 5 5 w u "
};
