/* XPM */
static char *out[] = {
/* columns rows colors chars-per-pixel */
"64 64 219 2 ",
"   c #2B1608",
".  c #4A2415",
"X  c #5C2C1A",
"o  c #68321E",
"O  c #583F2A",
"+  c #763A24",
"@  c #7E3D26",
"#  c #63432F",
"$  c #6E402D",
"%  c #6A4D37",
"&  c #77523D",
"*  c #7F5D46",
"=  c #814A35",
"-  c #8E4B34",
";  c #96523A",
":  c #865540",
">  c #8C5D46",
",  c #9D5943",
"<  c #955F49",
"1  c #A45E45",
"2  c #89664F",
"3  c #9B644E",
"4  c #916A53",
"5  c #9A6F56",
"6  c #AB644A",
"7  c #A16851",
"8  c #AD6D51",
"9  c #A86D58",
"0  c #B36A51",
"q  c #B76F53",
"w  c #A1765D",
"e  c #A7755C",
"r  c #AE755B",
"t  c #B4715D",
"y  c #B97658",
"u  c #A87B63",
"i  c #AE7D64",
"p  c #B77764",
"a  c #BD7564",
"s  c #B27861",
"d  c #B47F64",
"f  c #BB7E63",
"g  c #C1785B",
"h  c #C87E61",
"j  c #C07B6B",
"k  c #AC836B",
"l  c #BE8466",
"z  c #B3876E",
"x  c #BA876A",
"c  c #BF8B6C",
"v  c #B78C72",
"b  c #BC8E72",
"n  c #C38264",
"m  c #CC8566",
"M  c #C78568",
"N  c #C4816F",
"B  c #C48A6C",
"V  c #CC8C6D",
"C  c #CC8C6E",
"Z  c #D18969",
"A  c #D48C6E",
"S  c #D88F6F",
"D  c #C88973",
"F  c #CC8A78",
"G  c #D08B78",
"H  c #D38E7E",
"J  c #C39072",
"K  c #C69677",
"L  c #C89172",
"P  c #CC9475",
"I  c #CA997A",
"U  c #CF9C7E",
"Y  c #D19071",
"T  c #D09072",
"R  c #D29172",
"E  c #D09273",
"W  c #D39273",
"Q  c #D49374",
"!  c #D59475",
"~  c #DA9472",
"^  c #DD9876",
"/  c #D79778",
"(  c #D1967C",
")  c #D89778",
"_  c #D59A7B",
"`  c #D99878",
"'  c #D9997A",
"]  c #DB9A7A",
"[  c #DA9A7B",
"{  c #DC9B7B",
"}  c #DB9C7D",
"|  c #DA9D7E",
" . c #DE9D7D",
".. c #DC9D7E",
"X. c #DD9D7E",
"o. c #E09E7D",
"O. c #E2A07F",
"+. c #D89380",
"@. c #DD9E80",
"#. c #DE9F80",
"$. c #DF9F80",
"%. c #DD9986",
"&. c #D4A082",
"*. c #DFA081",
"=. c #DCA386",
"-. c #D8A485",
";. c #DCA88A",
":. c #DFAB8E",
">. c #DFAF94",
",. c #E0A081",
"<. c #E3A181",
"1. c #E0A182",
"2. c #E1A283",
"3. c #E3A282",
"4. c #E4A281",
"5. c #E5A382",
"6. c #E4A383",
"7. c #E5A483",
"8. c #E6A483",
"9. c #E5A484",
"0. c #E6A585",
"q. c #E7A685",
"w. c #E7A686",
"e. c #E8A786",
"r. c #E9A887",
"t. c #E0A58A",
"y. c #E3AC8D",
"u. c #E7AD8F",
"i. c #E8A888",
"p. c #E9A888",
"a. c #E9A989",
"s. c #EAA989",
"d. c #EAAA8A",
"f. c #EBAA8A",
"g. c #EBAB8B",
"h. c #EBAC8C",
"j. c #EBAE8F",
"k. c #ECAC8C",
"l. c #ECAD8D",
"z. c #EDAD8D",
"x. c #EDAE8E",
"c. c #ECAE8F",
"v. c #EDAE8F",
"b. c #EEAF8F",
"n. c #E4B195",
"m. c #E9B193",
"M. c #EDB091",
"N. c #EFB090",
"B. c #EDB192",
"V. c #EEB192",
"C. c #EFB192",
"Z. c #EFB293",
"A. c #ECB496",
"S. c #E6B599",
"D. c #EAB79A",
"F. c #EEB899",
"G. c #EEBC9E",
"H. c #F0B293",
"J. c #F0B394",
"K. c #F1B495",
"L. c #F0B496",
"P. c #F1B596",
"I. c #F1B597",
"U. c #F2B697",
"Y. c #F2B698",
"T. c #F2B799",
"R. c #F3B799",
"E. c #F3B899",
"W. c #F2B89A",
"Q. c #F3B89A",
"!. c #F3B99A",
"~. c #F3B99B",
"^. c #F4B99B",
"/. c #F4BA9B",
"(. c #F4BA9C",
"). c #F4BB9C",
"_. c #F4BB9D",
"`. c #F5BB9D",
"'. c #F5BC9D",
"]. c #F5BC9E",
"[. c #F5BD9E",
"{. c #F5BD9F",
"}. c #F1BFA1",
"|. c #F5BEA0",
" X c #F6BEA0",
".X c #F6C0A1",
"XX c #F6C0A2",
"oX c #F6C1A2",
"OX c #F6C1A3",
"+X c #F6C2A3",
"@X c #F7C2A3",
"#X c #F6C3A4",
"$X c #F7C3A5",
"%X c #F2C4A5",
"&X c #F7C4A6",
"*X c #F7C5A6",
"=X c #F7C6A7",
"-X c #F7C7A8",
";X c #F7C8A9",
":X c #F0CBAD",
">X c #F4CDAE",
",X c #F8C9AA",
"<X c #F8CAAB",
"1X c #F8CBAC",
"2X c #F8CCAD",
"3X c #F8CDAE",
"4X c #F9CEAF",
"5X c #F3D1B3",
"6X c #F7D1B2",
"7X c #F0D4B6",
"8X c #F6D4B6",
"9X c #FAD3B4",
"0X c #FAD7B8",
"qX c #F1D8B9",
"wX c #F7D8BA",
"eX c #F5DBBB",
"rX c #FADDBE",
"tX c #F6DDC0",
"yX c #F9E1C3",
/* pixels */
":.:._ _ ( P L t.j.L.A.A.n.D.n.D.n.D.n.n.n.D.n.F.D.W.F.F.A.D.m.m.y.y.t.t.t.t.t.=.| =.| | [ o.[ [ E _ _ _ ( _ E E C C C T C Y C C ",
"-.-.| t.u.m.(.Q.T.W.W.L.[.{.G.F.A.D.D.n.D.D.A.A.F.G.F.D.L.A.A.n.u.:.t.t.y.t.y.2.=.=.#.#.,. .} ' ! ( ( ( _ _ ( E E Y Y Y Q W T T ",
"t.y.y.Z.T.(.A.(.).].Z.T./.XX~.{.oX+XF.F.].{.D.T./.{.A.).T.W.m.m.c.j.=.y.u.N.w.i.w.d.3.9.5.2.]  .X.$.( | | I J E E W C W ! / C E ",
"p T 6.c./.T.U.Y./.W.I.U.W.`.`.[.#X$XXX X.XXX].Q.`.`.(.).^.T.L.Z.L.C.c.j.L.V.c.0.j.s.e.w.3.6.{ ] 6.#.| | =.( L D E C C V T Y T T ",
"# : e | y.Z.K.L.L.).P.T.V.T.W.|..XXX~.`.!.].(.'.I.~.Q.T.J.Y.K.L.c.H.c.j.h.c.j.h.q.k.w.w.] @.[ X.} *.#.1._ _ E E C C V V M V Z T ",
"X # & 5 c _ d.K.T.(.Q.U.K.V.(.{.XX XW.T.~.Q.~.!.T.!.I.L.Z.I.I.N.J.h.k.h.z.h.p.p.k.p.q.o. .] | }  .#.1.#.} Q T V V V C M M n m Z ",
"> > : > 7 l E c.~.{.I.Z.J.R.A.{.|.$XA.Z.T.(.L.T.I.I.c.L.L.T.j.L.c.d.9.s.i.s.6.9.k.N.O. . .1.Q ' @.t. .#.] ( C D C Z M V M M n m ",
":.I f s s f T 3.T.U.K.c.H.V.W.XXOX].I.B.I.J.I.~.Q.~.K.L.'.].K.J.I.c.d.a.h.i.3.<.b.d.O.] 1.[ _ _ #.1.$._ [ E D B D V M M Z V n g ",
"u.a.,./ M T E ,.i.I.Z.H.k.Y.T.XX~.`.m.Z.v.H.T.XX~.Q.~.XX X_.Y.T.c.j.s.d.0.d.w.k.w.d.,.1.|  .| ..} ,.[ [ Q Q V n l n n M h m h n ",
"1.2.2.2.| [ ] ..w.j.Z.C.N.L.T.U.K.V.c.h.c.V.Q.`. X].{. XXX X~.L.c.u.i.w.d.d.k.k.a.9.6.$.,.@.#.| | ' [ ' ! R C n g g g h m n g g ",
"} } Y / ] ,.' | w.N.d.H.U.R.l.K.C.c.1.0.d.H.V.`.`. XQ.`. X).m.u.y.2.! @.t.d.3.w.p.p.O.3.#.*.[ _ | | W / _ E n f f f t g g g y y ",
"i.*.Y M M T ' $.i.z.c.b.J.Z.N.x.H.i.| / 6.w.d.V.Q.V.1.( J c x d s e s f P / ( E [ / / ' ,...| [ ] ..Q T Q V l f f y t t f g g g ",
"s.s.,.R n f M  .9.N.j.V.c.v.z.C.N.9.Y Q Y ! _ 6.| T r 3 : = + $ X o $ + = 7 9 r s M M R R / _ | _ ..! ! V D l l y y y f y g f g ",
"x C [ W M g y Z  .w.v.H.k.d.d.c.g.,.M M M M C C M 8 , : + o X . X . . . X $ & : 3 9 s f l f V T ( ! Q Y C l l f f y f y y g g g ",
"& 5 7 y n g q g Y o.w.N.N.k.6.w.d.<.M l n n f l t 1 - = @ = $ $ $ + o $ $ & = = : > : < , , 1 t f n n V B n y y y g q y y y q g ",
"k 5 > : < 7 6 8 n Q O.z.H.d.i.q.q.` C l l l y 8 6 , ; - - - ; , 8 p f B ( P f 3 3 > < ; ; ; ; < 3 3 3 7 9 r 8 8 t 0 0 0 q 0 q q ",
"% O O # # = - , 8 Z ` Z.I.T.c.j.2.' T M f y t 8 1 , ; , , 3 8 n M [ [ 2.6.i.6._ B l r 9 , < < < < < > > : > , 7 1 1 1 6 1 6 6 6 ",
"X . . . O $ $ + = y ` s.XX$X~.L.d.o.Y n f t 8 ; ; - - - - ; 8 f C T V n n V E M T E Q E C r 8 9 3 > : : : - ; , 1 1 1 1 6 6 6 6 ",
"3 = X o $ & = + + , O.d.-X9X+X].T.z.T y 6 6 1 ; - - + + = f C | y.j.#.` Y M t 6 6 8 y M T E l l s 9 < < < < ; 1 6 8 6 1 8 8 6 0 ",
"_ B f s x f 9 9 f Y h.Z.<X9X4X=X].c.V 8 8 6 , = = + X $ 9 s 9 e x J P H E T l f 8 - @ , l C B n l p r 9 t s 8 6 0 8 8 8 t t y q ",
"] [ E Z Z Y Y ~ ` w.U.$X2X0X4X2XT.6.n 6 1 8 ; , ; - + @ + @ o . O # O $ & > 3 3 < 3 & $ > l C Y V n f n f f t y q y y f f n g n ",
"Q Y R A Z m h g m s.OX$X4X0X4X$X~.1.g 6 6 y t n ! Y M f f r e & # .         . . . . . . X , n n l y f g l f y t y t f g g g g g ",
"g g y y 0 8 0 T Z.-XOX<X4X9X<X{.V. .y q q M ! W 3.i.O.$.$. .' } L e : $ $ O . . . X . . X = ; ; 1 f g M V Y n g f M g n M M n M ",
"j.) M M E #.A.=X3X,X;X-X4X2X).V.9.Y h g m A ] q.p.z.f.O.` Y ] `  .~ m M V f r 8 7 7 1 3 8 t , 1 n O.o. .8.6.` g f y t t t t 0 8 ",
"$X$XXX$X$X2X;X2X-X2X<X6X<X&X`.d.W Z Z ~ ~  .` 9.r.k.f.J.d.' g g g g y q 0 y g m Y S A A g ; , n C C M V Y R n 8 1 1 7 t t f y f ",
"|.[.-X<X4X2X=X2X-X<X4X4X2X=XT.,.A m Y ) 9.p.i.s.i.s.k.H.U.T.N.! y 1 1 1 1 6 8 6 6 1 ; - ; 8 V ` 2.,.{ M y 8 y y t t y p l l f l ",
"&X;X=X4X6X6X-X2X6X9X6X9X<XXXk. .Z Z m S ^ s.8.i.k.k.w.H.T.].T.(.).Q.| E n y 7 1 6 8 0 M ,.k.<. .) ] ` o.Y V C V t r 9 r p p t t ",
"4X2X<X6X9X2X;X2X4X0XwX6XXX~.s. .) Z Z M Z Z Z A  .8.s.H./.~.E.Y.XX]..XXX=XOX].T.].Q.H.b.C.g.i.O.^ T T o.8.9.<.Y y r 9 t p p s y ",
"2X2X2X4X<X<X&X<X4XeXtX4X).H.k.k.O.^ Z g y h q 0 1 q R z.H.~.Q.{.~.@X=X,X*X-X*XXX X~.V.Z.s.z.p.q.O.` V  .o.q.9./ f y r f f f f n ",
"&XOX[.{.~.Z.].#X6XwX0X$X~.H.H.H.N.w.A g g m ~ Z y , 1 y $.H.).].{. X<X=X,X-X#X@XOX).H.k.s.q.r.p.q.O.R ) 3.2.9.! l p f f n n B M ",
"H.H.o.~ m ] L.-X9XtX6X#X|.~.j.U.H.4.Z h m 4.8.8.` M - - 6 T ,.Z.[.=X#X-X<X;X+X&XXX$XH.H.i.d.8.r.s.q.` !  .O.} Q M l l l n C n C ",
"~ h 8 ; y d.#X2X0XeX6X;X=XXX~.I.6.h y g S 8.s.<.` Z 1 ; ; 1 y Q j.Q.`.OX&X$X[.].|.`.I.j.C.z.k.i.f.p.O.]  .o.[ Q V n M M C V V C ",
"6 ; @ r u.=X4X6XtXyXyX0X-X=X].| y 8 6 q g M h h 8 8 1 6 q 0 1 t V 6.j.T.I.(.Q.E.Z.H.z.N.g.C.k.l.7.9.,.o.` ..' Q n B n C C T T E ",
"@ @ f n.<X4X9XwXyXyXtXeX6X{.[ t , = + + + + + = - ; 6 y g g g 0 q M ] i.V.H.H.N.v.d.k.k.b.b.k.r.q.3. ...| [ _ E M n M C T W W Y ",
"= n t.#X6XwX9X0XeXeX>X=X].#.8 - $ + o @ @ @ + = ; , ; 1 0 q y g q 8 y Z ,.d.9.p.w.w.O.9.z.H.q.q.9.9.[ [ | | P T n n n M T E V C ",
"t 1.Z.#X2X<X-X#X=X}.m.t./ y ; @ @ + $ + + + + @ @ = - - , , 8 0 q 6 1 8 M / ]  .O. . . .i.s.3.$.,.../ ( [ _ E C B M M V T W C C ",
"B 6.T.A.:.u.i.i.c.N.w.M 3 ; = @ + + + @ + + + @ @ - = = + - ; , ; ; - ; ; f T ( R ! ! ] ' o.} } / / E C P / E T V T V T V R C A ",
"! #.| l y C / / ] ,. .l 1 , 1 1 , - - @ = = = = - ; = @ @ = = - = = @ @ = = t E ` / W W Q W ! Q ! E L c L ( ( ( ! T V V C C C V ",
"P E f 9 8 n M n y f 1 - = 6 l Y n 8 , ; ; - = - ; , - - - - = - - = + + + + @ 8 Q ,.! Q R W V E R ! c l B ( W _ _ C n C C R m Z ",
"L B r 7 8 y n f 8 6 - = 8 T ! ~ W M 8 , , ; - - , , ; - ; ; ; ; , < : $ & + + = 9 C ! ! Q Y C T Q ( c f L ( ! ! W n l M C V Z m ",
"B c 9 7 7 y l M t t 8 f #.T.z.9.~ R g q 1 , ; 1 6 6 1 1 , 1 1 1 1 1 , < > = + @ = 3 n R T ! ! ! ! _ B f x ( _ ( D l l n n V Z Z ",
"B 8 9 9 r y n M M Z / ] 9.j.V.p. .~ A g g q q y m m g g y 0 6 6 0 8 1 1 3 ; = @ = = 3 M T ! ` ` ' | B d B P I ( C B n M m m Z Z ",
"c , - - - ; 1 g M W m Z Q ` ) ) S V M h n g g g h m h h h g 6 0 q q 1 6 8 7 = = = - - 0 Q [ ) 3.2.=.L f J E L ( P C f n V A Z A ",
"c 9 ; - @ = ; 1 6 6 6 0 g g g q q 0 6 , , , ; 1 6 6 6 1 , 1 1 1 , , ; , 1 , - = : - , 1 Y ] o.,.6.2.I x J K P I ( L l M C V T V ",
"E n y f r g g g q 0 0 8 6 , 1 6 , , ; , ; ; ; ; ; ; - - + @ @ = @ @ + @ @ = - ; 7 0 y 8 n  .o.2...#.P B x J J I E B l n n M M M ",
"} Q Q Y T m Z A ) $.~ G G F F F G G G F G F F j a y y 8 6 1 1 , 6 6 6 1 , , 6 n / ] ` t C { @. .| / L B c c K I I c c c B n B B ",
"' } C Y ) S h ~ O.$.~ { X.2.+.%.,.%.F H G G j j N N j a a j a a y g q y q g W s.i.s.T M / O.]  .{ _ B B c J J I J J l B J L l M ",
"n [ Y T / ` Z V R Y F H %.H G H %.G j s l j r y h y t 0 a y t y q 0 q y A <.B.h.1.o.C n O.,. .{ / P B f l c J c l B c B L D B M ",
"n R { [ ) { Z n t t 6 t r 9 9 r 9 e 7 7 3 3 3 7 9 7 3 9 r r t t 8 0 q A 6.L.K.i.#.{ M M $.s.*.| B B l f s x c x d f C Y C W C R ",
"( M ..,. . .~ M y 8 7 7 9 t t t 9 9 3 3 3 < < < 3 3 3 7 9 r r t t t l o.Z.K.u.t.=.` f M 3.6.#.W n l l d d c x f d l P L ( _ Q ( ",
"| _ Q 6.3. .R m y y 8 8 t n f l p r 7 7 3 < > < 3 3 3 9 8 t t t f n T j.L.L.2.y.p.! t V { ,.Q B l l s r d f t s x J J P I ( B B ",
"&.=.( ..9. .S M g y r t B T Q C M f r 9 9 7 3 3 7 9 r p n l n n V Y 1.u.L.B.y.i.i.Y f ! ..` C B B n r 9 f l d d J K I I &.D B l ",
"I -.( _ s.w. .A g g f f Y d.s.6.$.E M f p p s f f B C / [ $.! | / | y.Z.m.j.y.u.=.C M / ! ! B B C n 9 9 d L f c L P I &.( _ _ _ ",
"K -._ _ 2.w.q. .Z m m C 9.p.k.p.3.$.,.2.| #.[ =.:.u.m.A.j.u.2...1.w.u.m.u.t.0.t.t.Y T Y ! Q M L W f 9 9 f c I I L L K P / | _ ( ",
"b &.I I K | 2.s.q. .Z 3.V.H.i.V.h.w.1.h.h.Z.d.D.F.~.n.L.j.y.[ | 1.6.2.i.t.t.#.1.#._ Q R ..| V E T f e e e 7 s I c c c L _ t.t.=.",
"z I U I J c I t.c.d.o.s.H.U.V.Z.K.K.V.V.T.I.I.F.}.}.G.F.I.u.2.2.2.1.1.,.1.,.#.#...| [ ' ,._ ! ( L d x x i 9 9 c P L b J _ | t.y.",
"w J I &.c u 4 x #.Z.V.Y.s.E.U.(.T.E.Q.+X@XoX$X#X|.=X#X+Xm.t.| i.| @...o.W | | 2.| *.1.d.2.| _ _ B f d k e e r f l E L P ( | =.=.",
"w x I I x 5 & 4 e I y.T.U.V.c.J.K.K.T.(. X(.).T.F.F.G.m.j.i.i.2.t.} / R Q ' @.#.6.t.a.j.V.t.=.&.P r x x k i i 9 7 s n L I I x i ",
"5 w J x i 5 # & * w x n.|.T.w.j.k.V.j.L.T./.M.h.d.u.6.2.w.j.9.w.1.' W / / | [ 2.3.d.t.B.I.I.-.U J e w J x z u 5 = 7 9 d s 5 < 4 ",
"% & 2 5 i 5 # # % & 4 d }.#XZ.w.w.c.(.).`.W.J.Z.c.d.0.,.2.6. . .[ ` Q !  .,.2.2.| 1.u.B.T.].y.P J d 5 e u w 5 5 & + > > > < < > ",
"O O # * 4 4 % O # % * 3 | ,X=X-.n.#X-X1X#X&X{.XXQ.`.K.L.c.d.9.O./ R Y Q Q X.=.i.*.6.B.Y.~.XXu.I x i i 4 4 : 2 4 % # > 3 3 w 7 i ",
"O O O % * 2 & O O O & > D +X6X>XwXwX8X6X9XwX0XwX6X2X<X<X*X]. X`.A.t._ P E ( ' #.2.d.Z.Y.XXOX:.J J e u 4 > * & & O # < 7 s d f x ",
". . . # % * & # . O $ < @.|.2XwXtXyXeXwXwXtXeXyXyXrXwXwXeX0X*X&X=X1X}.n.&.P D } j.I.V.}.*X}._ J c w * * & & O O O # & < 9 r r i ",
". . . O # & % # . X # d y.#X5X5XwXeXeX5X7X7X7X7XqXqX7X7X7X7X:X:X>X:X:X:X:X>.U ;.S.G.G.}.%X>.J v z w * & & # O O # # % * 5 3 e u "
};
