/* XPM */
static char *out[] = {
/* columns rows colors chars-per-pixel */
"64 64 218 2 ",
"   c #2B1608",
".  c #4A2415",
"X  c #5C2C1A",
"o  c #68321E",
"O  c #583F2A",
"+  c #763A24",
"@  c #7E3D26",
"#  c #63432F",
"$  c #6E402D",
"%  c #6A4D37",
"&  c #77523D",
"*  c #7F5D46",
"=  c #814A35",
"-  c #8E4B34",
";  c #96523A",
":  c #865540",
">  c #8C5D46",
",  c #9D5943",
"<  c #955F49",
"1  c #A45E45",
"2  c #89664F",
"3  c #9B644E",
"4  c #916A53",
"5  c #9A6F56",
"6  c #AB644A",
"7  c #A16851",
"8  c #AD6D51",
"9  c #A86D58",
"0  c #B36A51",
"q  c #B76F53",
"w  c #A1765D",
"e  c #A7755C",
"r  c #AE755B",
"t  c #B4715D",
"y  c #B97658",
"u  c #A87B63",
"i  c #AE7D64",
"p  c #B77764",
"a  c #BD7564",
"s  c #B27861",
"d  c #B47F64",
"f  c #BB7E63",
"g  c #C1785B",
"h  c #C87E61",
"j  c #C07B6B",
"k  c #AC836B",
"l  c #BE8466",
"z  c #B3876E",
"x  c #BA876A",
"c  c #BF8B6C",
"v  c #B78C72",
"b  c #BC8E72",
"n  c #C38264",
"m  c #CC8566",
"M  c #C78568",
"N  c #C4816F",
"B  c #C48A6C",
"V  c #CC8C6D",
"C  c #CC8C6E",
"Z  c #D18969",
"A  c #D48C6E",
"S  c #D88F6F",
"D  c #C88973",
"F  c #D08B78",
"G  c #D38E7E",
"H  c #C39072",
"J  c #C69677",
"K  c #C89172",
"L  c #CC9475",
"P  c #CA997A",
"I  c #CF9C7E",
"U  c #D19071",
"Y  c #D09072",
"T  c #D29172",
"R  c #D09273",
"E  c #D39273",
"W  c #D49374",
"Q  c #D59475",
"!  c #DA9472",
"~  c #D79778",
"^  c #D1967C",
"/  c #D89778",
"(  c #D59A7B",
")  c #D99878",
"_  c #D9997A",
"`  c #DB9A7A",
"'  c #DA9A7B",
"]  c #DC9B7B",
"[  c #DB9C7D",
"{  c #DA9D7E",
"}  c #DE9D7D",
"|  c #DC9D7E",
" . c #DD9D7E",
".. c #E09E7D",
"X. c #E2A07F",
"o. c #D89380",
"O. c #D89982",
"+. c #DD9E80",
"@. c #DE9F80",
"#. c #DF9F80",
"$. c #D4A082",
"%. c #DFA081",
"&. c #DCA386",
"*. c #D8A485",
"=. c #DCA88A",
"-. c #DFAB8E",
";. c #DFAF94",
":. c #E0A081",
">. c #E2A181",
",. c #E0A182",
"<. c #E1A283",
"1. c #E3A282",
"2. c #E4A281",
"3. c #E4A382",
"4. c #E4A383",
"5. c #E5A383",
"6. c #E5A483",
"7. c #E5A484",
"8. c #E6A584",
"9. c #E6A585",
"0. c #E7A685",
"q. c #E7A686",
"w. c #E8A786",
"e. c #E8A787",
"r. c #E0A58A",
"t. c #E3AC8D",
"y. c #E7AD8F",
"u. c #E8A888",
"i. c #E9A888",
"p. c #E9A989",
"a. c #EAA989",
"s. c #EAAA8A",
"d. c #EBAA8A",
"f. c #EBAB8B",
"g. c #EBAC8C",
"h. c #EBAE8F",
"j. c #ECAC8C",
"k. c #ECAD8D",
"l. c #EDAD8D",
"z. c #EDAE8E",
"x. c #ECAE8F",
"c. c #EDAF90",
"v. c #E4B195",
"b. c #E9B193",
"n. c #EDB091",
"m. c #EFB090",
"M. c #EEB091",
"N. c #EDB192",
"B. c #EEB192",
"V. c #EFB192",
"C. c #EFB293",
"Z. c #ECB496",
"A. c #E6B599",
"S. c #EAB79A",
"D. c #EEB899",
"F. c #EEBC9E",
"G. c #F0B293",
"H. c #F0B394",
"J. c #F1B495",
"K. c #F0B496",
"L. c #F1B597",
"P. c #F2B596",
"I. c #F2B697",
"U. c #F2B698",
"Y. c #F2B798",
"T. c #F2B799",
"R. c #F2B89A",
"E. c #F3B89A",
"W. c #F3B99A",
"Q. c #F3B99B",
"!. c #F4B99B",
"~. c #F4BA9B",
"^. c #F4BA9C",
"/. c #F4BB9C",
"(. c #F4BB9D",
"). c #F5BB9D",
"_. c #F5BC9D",
"`. c #F5BC9E",
"'. c #F5BD9E",
"]. c #F5BD9F",
"[. c #F1BFA1",
"{. c #F5BEA0",
"}. c #F6BEA0",
"|. c #F6C0A1",
" X c #F6C0A2",
".X c #F6C1A2",
"XX c #F6C1A3",
"oX c #F6C2A3",
"OX c #F6C3A4",
"+X c #F7C3A5",
"@X c #F2C4A5",
"#X c #F7C4A5",
"$X c #F7C4A6",
"%X c #F7C5A6",
"&X c #F7C6A7",
"*X c #F7C7A8",
"=X c #F7C8A9",
"-X c #F0CBAD",
";X c #F4CDAE",
":X c #F8C8A9",
">X c #F8C9AA",
",X c #F8CAAB",
"<X c #F8CBAC",
"1X c #F8CCAD",
"2X c #F8CDAE",
"3X c #F9CEAF",
"4X c #F3D1B3",
"5X c #F7D1B2",
"6X c #F0D4B6",
"7X c #F6D4B6",
"8X c #FAD3B4",
"9X c #FAD7B8",
"0X c #F1D8B9",
"qX c #F7D8BA",
"wX c #F5DBBB",
"eX c #FADDBE",
"rX c #F6DDC0",
"tX c #F9E1C3",
/* pixels */
"-.N.2.| @.y.y.y.b.T.D.!.T.F.F.F.D.S.D.D.S.D.D.D.S.S.C.D.S.S.b.b.t.b.y.b.r.y.-.y.r.&.r.r.+.<.<.r.+.| / | / ( ~ ~ U T C Y T Q A Y ",
"*.@.R R @.r.y.N.T.R.R.^.^.oX+XoX+X X X X+XoX&X+XoXF.'.'. X X XD.!.C.I.K.!.C.N.N.N.y.p.q.7.4.p.p.p.......@.....` / Q U U W E W S ",
"s 7 > > 2 4 5 x r.J.C.K.{.|.Q.]..XoXT.XX$X<X+X}.oX].T.(. X+X^.U.K.Y.N.K.C.P.y.m.l.m.1.s.k.j.8.i.q.#.W ` } %._ } _ / C E T S C R ",
"= + $ X X O O + 3 c I y. X X).'.OX^.T.).&X$X+XoX X`.^.^. XT.K.P.Y.J.G.C.K.P.x.y.h.a.w.q.j.u.<.8.<.| / _ } } ' | } W A V Y A Z Z ",
"r x c i > & & = : 3 s ^ u.'.R.{.^.!.T.).}.:XoX+XL.Q.T.T.^.U.J.K.x.G.I.T.g.x.j.g.0.f.q.s.3.4.i.q.} | ` } ~ } _ ..~ E V V M Z Z Z ",
"b.C.'.^.N.*.H x f r p C ' N.^.'.`.J.K.K.}.oX+X XT.W.L.K.^.L.G.C.H.!.T.C.I.f.i.p.u.i.7.<.X.2.f.4.[ ' [ ` } ' } _ / U V V m m Z m ",
"N.K.C.'.).'.b.u.+.^ M Q | e.c.C.W.T.f.C.'.$X^.T.L.K.y.K.^.'.^.'. X+XK.K.!.!.p.c.e.u.<.8.9.j.8.8.+.| _ ' ` <.` / E U M n n M n m ",
"l.f.p.y.N.N.b.y.b.u.' ~ | <.c.J.!.T.G.T.^.{.I.n.N.b.l.N._. X(.{.+XoX^.I.T.J.y.p.u.9.u.e.u.f.p.8.8.| #._ <.<.| Q E V h g m h h g ",
"~ ~ ~ @.+.@.| <.+.<.+.@...4.M.G.C.).G.P.K.T.C.G.p.p.i.N.I. XXX{.U.D.n.c.y.r.+.' ~ +.@.8.7.q.q.q.[ %.[ @.+.<.@._ Z m n h g g g g ",
"f +.y.N.C.f.<._ C Y W ` q.p.C.J.K.K.C.G.I.K.J.q.@.+.<.p.C.'.N.r.R f r r r 7 3 7 r r l B B V E E ~ ~ _ +.@.' ..~ A m h g g g g g ",
"W K.y.C.G.I.e.r./ Z g n ..j.f.J.J.U.p.c.K.I.l...T Q C _ ,.p.C f 7 : o o X X X X X o + > 3 9 s l n C C ~ [ @.~ ~ Z m y g g g y a ",
"y.b.L c x x H ^ @.S g y Z ..i.z.G.c.m.f.I.K.m._ M M n V R C y , : + o X . . . . . . X o = : > 7 8 r r p C Q ^ T C n g t f g g g ",
"I 5 & # $ & = : 8 n g g g Z _ p.m.J.C.m.m.m.f.| n n n M n f 6 ; = @ @ @ $ $ + = = > > > = = = : : < > , 7 t f B n f y g y g y g ",
"> . . O & x i & & > 6 8 8 f Y | f.K.c.f.m.c.4.` Y n n f y 8 1 ; ; ; ; ; 7 s l C ~ +.<.R f 9 3 3 < - - - ; ; ; , 9 8 y y q q y q ",
"+ . O # & 2 % O O # = : ; 6 f ! e.).K.K.G.C.<._ T M y y 8 1 ; ; ; , , 7 t M K ~ ' ,.| <.@.~ M N p 8 ; ; ; < : : : < 7 0 0 0 1 6 ",
"r 3 3 = & # O . . X o $ = = 6 ! e.).+X{.'.I.f._ C f t 6 6 ; - - ; = - , f R W C M f f f n n C ^ ' R f 8 8 3 : : : : ; 1 6 1 1 1 ",
"..4.R B s < = # X # + = + + @ A 8.Y.3X<X X XI.4.n 8 1 6 ; - = = o @ 9 M R ,.y.y.@.~ C f 6 , ; 8 n C B B f r 3 < : - ; 1 1 6 6 6 ",
"..i.c.f.l.| H i 9 r f r 9 7 n } G.{.8X8X5X$X^.| y 1 1 1 - - @ X o ; 3 3 : * 2 3 9 s f f f 8 ; @ = 9 B B n f p 8 7 7 8 8 8 q 0 0 ",
"j.7.q.q.e.f.| | W S m Z A | ` m.'.<X5XqX8X:Xy.U 0 6 1 1 ; 6 ; - @ @ + + X . .     . . $ + = = = o $ s C T C f y y M y q y g y g ",
"!.u._ Q / U Y A U A m Z Z n A I.$X,X3X3X3X+Xb.V 0 1 6 g y A ` ~ C M l l i 2 # . . .           . . . + n C n y f M f f g g g g g ",
" X Xp.Q h h h m h g 8 8 t _ ^.&X+X,X<X5X$X^.4.V q 0 y S / ` 2.i.2...` <.4.<.K f 7 3 > = $ X o X . . o , ; 1 8 n n n f g g g n n ",
":X<X:X).c.` n q q t n _ D.:X:X:X,X:X<X<X'.p.~ m h h m Z } 8.i.i.p...T Y ` } _ A Z V V n f p y 9 7 7 s 6 1 M } X.8.i.X.m n h m m ",
"3X5X<X:X+XoXK.K.!.`.XX&X&X1XoX*X3X3X:X:X!.4.m m Z _ S / ..u.q.p.N.I.q.T y 8 8 y y q 6 g Z S Z S V n , - n A n V Q | f 8 6 6 1 6 ",
"1X8X5X<X:X+XW.{.2X>X=X*X:X<X3X:X5X5X<X XG.` Z m S / X.i.j.l.f.p.c.J.K.J.c.~ f 8 6 1 1 , , , ; - - - , f } 2.' n t 6 1 t n f f f ",
"3XqX8X8X+XoX{.<X#X1X:X&X+X3X3X8X8X5XoX!.p.} Z Z Z S / 2.8.G.p.c.s.K.G.I.K.).!.!.u.' n p 6 6 6 t n ` 4.<.` / ..4.M y n M n B n B ",
"8XqXqX8X:X<X3X1X<X,X3X+X:X8X,XqXeX<X'.G.j.X.` A m h g h h h A ..j.m.W.J.^.'.'.'. X X X^.).!.'.I.J.c.j.e.<.E W ..4.| Q p f p p p ",
"8XeXqXqX5X5X<X<X5X3X,X:X<X5X3XqXeX3XT.C.m.l.8.X.Z g q g h q 1 8 m p.c.^.#XoX`.$X+X:X{. X X+XI.G.u.m.4.i.e.X.V T X.i./ p s s r s ",
"3X1X8X3X8X3X=X<X,X,X'.^.+X<X5XqXqX&X!.C.J.K.m.q.! g y A ..! g 1 , y / C.'.XX#X+X#X:X&X&X+XoX!.G.m.9.8.8.p.p._ V ` <.| f l f f f ",
"$X&X+X&X{. XT.I.f.X.U e.{.<X8XeXqX&X{.^.I.).j.} m m m 8.j.e.` g ; - 1 C e.).'.1X#X:X&X:XoX+X^.!.c.u.%.j.8.p...` E <._ C n n B V ",
"{.XX}.I.f.X.] m y 6 n K.&X<XqXqX8X3X&X{. XK.~ f g g ! 2.2.} A g 1 ; ; , y ` m.!.+X#X X X'.^.T.I.G.m.j.l.j.e.X.#.Q ` +.C V V V V ",
"!.m.q.<.! h 6 ; ; M K.&X<X8XqXtXtXeX<X+XK.~ 8 1 1 6 1 6 6 8 1 1 6 q 0 6 6 y A p.I.).^.W.T.I.l.m.l.j.q.j.e.j.X. .| } _ C C Q B C ",
"G.2.! m y , @ ; ^ F.<X3X8XwXtXtXtXqX<XT.~ 8 - + + $ $ $ @ = - , 0 y g y y 0 q V <.f.l.C.P.l.j.u.d.i.i.e.c.p.q. .<._ / C C V V C ",
"..S h q ; = 1 ' D.<X5XqXqXqXqXqX3X<XF.| 8 ; + + + @ + + + - - ; ; 6 6 0 y g 0 q n ~ X.j.f.V.q.k.6.p.7.j.>.q.4.+.~ _ C T C Y Y R ",
"! h 0 , - , C b.$X<X<X5X8X<X:XoXS.r.R t ; = @ + + $ $ + + + @ - - - - , 0 q q 6 6 y U } X.X.X.@.<.1.5.<.<...@.+.' U T C Y E E Q ",
"m y , - , C | K.&X{.S.F.K.(.C.I.p.C 1 - - = @ @ + + + + @ = @ - - @ + - ; , ; ; ; ; 6 C ~ _ T / | ..' _ ' #.~ ~ ~ ^ M M Y R V C ",
"h 0 ; - y ~ +.y.,.M B _ <.| X.2.@.M 6 , t n 8 ; - - = @ - - - ; = @ + @ - - - @ @ = = 3 C ' ~ U T E E W ' ( R K ^ R C V Y E C C ",
"q 1 ; 1 M R ^ ~ y 8 y C C M y y 7 - @ 1 n } V q 6 , ; - = - ; 3 ; - - = - - = = $ + $ + < C } [ E U Y R K T B K Y ~ R E V T A A ",
"y 6 , 1 Y B K B 8 6 8 f n y 6 7 ; - 9 U } ` ~ Z g 6 , ; - - - ; ; - - - ; ; ; : = = + + + ; l Q Q T S U T E C l ^ ~ ~ E C C A A ",
"y y , 1 C B l p 8 r 8 f n M 8 t 8 l r.T.I.j.` ! Z g 6 1 1 6 6 6 6 1 , , , 1 , 1 3 3 = + + @ : f T Q V W Q | K f R [ R C Y Y m A ",
"q y 6 , K H f r r r y n V V n A ` ....l.J.c.2.` S m h g g g m h m h g 0 6 0 6 6 6 7 ; = @ @ @ ; n A Y W | ,.^ f R W T Z C V Z m ",
"q y f 8 C K 7 9 7 3 1 8 y Z S ` S ! ! } } <._ ! A Z h m h h m Z Z Z g y 0 y y 0 1 8 1 ; = = = - 1 V E | | r.' B B R U Z V Z Z Z ",
"n 8 K n K K 7 ; @ + + - 1 q y g g n m m m h a q q 6 1 1 6 8 q q 0 1 , 1 1 1 1 1 , 1 1 ; : = - ; , n ~ | e.r.*.c H R R C m m Z Z ",
"` f f ^ B K y 8 3 , , q q y 8 0 0 0 6 6 8 0 6 6 6 6 , , 1 6 , - - - @ = @ = @ + + + $ + - , 7 y 1 n Q ..4.u.I c H R C Y V A Z A ",
"j.C y R ~ U C M K M m m A S ! / ` F G F O.O.G G G G F G G N a y q 6 1 1 1 1 1 , , ; - - 8 V Y U q M ` } <...L c H R K M C V Y V ",
"N.i.f K | ` ~ ~ E E Z m S X.} 2.<.+.,.p.r.u.r.-.o.o.G C j N N N n j j g a a a y q 0 0 g _ q.q.} f T  .@.' ~ H H H L K V n m M M ",
"S.T.| f ^ @.E U ! Q ` Z A | ` U ' ' O.O.| O.O.F n N N p r p a y 8 q a y y q q 6 8 y Z >.l.<.X.E n Q ' ..` R H x P I K M B n B B ",
"D.'.p.R l @.W Q / | ! A h f t t p j s s s p t s 9 7 3 3 3 7 3 3 3 9 9 8 8 y 6 6 y S >.J.f.4.Q n V <.<.' R B f x L L l B H K l M ",
"-.G.N.r.l C } _ } _ / Z h t 6 7 9 9 9 8 t 8 9 9 9 3 > > > > > > 3 7 7 9 t y 8 y V <.G.b.u...W y W 4.@.W B l f x c B B B K D B M ",
"L -.N.I.~ f | q.} } ! A g g y 8 9 p y f f f s s 9 3 > < > > > 3 3 7 7 r 8 y p V ` c.c.y.,.r.V y T | ` M f f s l x f B K C E K T ",
"I *.y.y.r.l R e.8.` ! A h g g y y n V V C M l s r 7 3 < < 3 3 9 r t p p f n K | c.c.c.r.u.4.M h ~ ~ Y p s s x f d B K K R R W ^ ",
"$.*.( r.c.R l ` 8.} ! ! h g g n ~ e.} } | / n f s r 7 7 r s p l M Q C Y T Q ~ y.G.N.4.-.N.<.y A / Q n r r i t s x K H R ( ^ R R ",
"$.&.$.*.y.| C C p.q.} ! Z n h V e.f.j.f.m.q.| Q T B l B R ^ ~ ,.p.e.e.<.<.| <.b.y.y.7.y.b.W n E / Q l 9 f f d f H L P ^ ^ L B l ",
"P *.$.&.L H ^ R >.m.4.X.! Z V @.l.J.y.7.| 4.q.p.p.p.-.N.b.S.C.D.C.N.u.4._ @.8.c.y.y.y.p.u.C V Q T C s r d K l c K P P $.^ ( L ( ",
"J *.*.$.K i r x ,.G.m.X.2.} _ p.I.I.K.m.f.u.p.y.N.C.S.Z.Z.Z.S.S.K.y.r.+.+.<.9.7.p.t.u.u.u.R Q / ' l 9 s l c J L K K J R _ { ^ ^ ",
"b $.P *.K s 2 5 c m.N.j.4.G.u.p.W.'.I.!.!.'.y.J.D.Q.S.F.{.:XF.F.!.c.| @.r.u.@.<.4.u.<.p.u.<.~ +.| l e e 7 7 f P c c c R $.t.r.&.",
"z P I P L u & * 5 I J.K.m.j.a.c.J.J.P.^.oX X'.'.[.'.+XoX:X:X:XF.N.y.,.%.<.%.@.@.4.<.e.r.l.r.+.+.~ d x x u 9 9 c L B b K { <.r.t.",
"w H P $.c w & & > r *. XK.M.i.C.j.m.E.^.)..X+XOX X&XOX,X$X+XF.p.~ p.u.p.<.[ _ ' #.%.,.y.y.y.r.,.R l l v i w r d l ^ K L ^ &.&.&.",
"w x P L z 5 % & & > x T.$XI.f.f.l.j.l.G.I.^./.R.T.b.K.C.C.b.N.y.r.<.4.| ` _ | +.4.r.p.h.I.G.y.$.R i x v k i i 7 7 p B K P H i r ",
"5 w c x x 5 # # % * 4 L :X:Xp.s.p.j.e.K.K.~.n.J.s.y.4.q.7.e.7.q.,.<._ ~ | { _ <.1.s.t.N.T.{.y.+.L i 5 H x z u 3 = 7 9 d 5 4 4 4 ",
"% & 2 5 u 5 # # % % * 9 b.3XF.N.q.n.^./.$X XH.C.).K.N.7.c.4. .| ' ) W Q } :.<.<.y.^ y.N.T.`.b.I H d 5 e u w 5 3 % & > > > < < > ",
"O O # > 4 4 % O # % & < R >X<X-.-.OX*X<XOX<X:X XR.(.J.C.G.I.j.f...~ U Q Q  .&.u.%.4.N.U.Q. Xy.P x i i 4 4 > 2 4 # % > 3 3 7 7 i ",
"O O O % * 2 & O O O & > C oX5X;XqXqX7X5X8XqXeXqX3X3X,X,X%X}.}.).C.b.( L R ^ _ @.<.s.C.U. XXXr.H H w u 4 > * * & O # < 7 s d f x ",
". . . # % * & # . O $ < +.{.1XqXrXtXwXqXqXrXwXtXtXeXqXqXwX9X%X$X&X<X[.v.$.L D [ h.L.B.[.%X[.( H c w * * & & O O O # & < 9 r r s ",
". . . O # & % # . X # d t.OX4X4XqXwXwX4X6X6X6X6X0X0X6X6X6X6X-X-X;X-X-X-X-X;.I =.A.F.F.[.@X;.H v z w * & & # O O # # % * 5 3 e u "
};
