/* XPM */
static char *out[] = {
/* columns rows colors chars-per-pixel */
"64 64 229 2 ",
"   c #2B1608",
".  c #4A2415",
"X  c #5C2C1A",
"o  c #68321E",
"O  c #583F2A",
"+  c #763A24",
"@  c #7E3D26",
"#  c #63432F",
"$  c #6E402D",
"%  c #6A4D37",
"&  c #77523D",
"*  c #7F5D46",
"=  c #814A35",
"-  c #8E4B34",
";  c #96523A",
":  c #865540",
">  c #8C5D46",
",  c #9D5943",
"<  c #955F49",
"1  c #A45E45",
"2  c #89664F",
"3  c #9B644E",
"4  c #916A53",
"5  c #9A6F56",
"6  c #AB644A",
"7  c #A16851",
"8  c #AD6D51",
"9  c #A86D58",
"0  c #B36A51",
"q  c #B76F53",
"w  c #A1765D",
"e  c #A7755C",
"r  c #AE755B",
"t  c #B4715D",
"y  c #B97658",
"u  c #A87B63",
"i  c #AE7D64",
"p  c #B77764",
"a  c #BD7564",
"s  c #B27861",
"d  c #B47F64",
"f  c #BB7E63",
"g  c #C1785B",
"h  c #C87E61",
"j  c #C07B6B",
"k  c #AC836B",
"l  c #BE8466",
"z  c #B3876E",
"x  c #BA876A",
"c  c #BF8B6C",
"v  c #B78C72",
"b  c #BC8E72",
"n  c #C38264",
"m  c #CC8566",
"M  c #C78568",
"N  c #C4816F",
"B  c #C48A6C",
"V  c #CC8C6D",
"C  c #CC8C6E",
"Z  c #D18969",
"A  c #D48C6E",
"S  c #D88F6F",
"D  c #C98270",
"F  c #C88973",
"G  c #CC8A78",
"H  c #D38E7E",
"J  c #C39072",
"K  c #C89172",
"L  c #CC9475",
"P  c #C09379",
"I  c #CA997A",
"U  c #CF9C7E",
"Y  c #D19071",
"T  c #D09072",
"R  c #D29172",
"E  c #D09273",
"W  c #D39273",
"Q  c #D49374",
"!  c #D59475",
"~  c #DA9472",
"^  c #DD9876",
"/  c #D79778",
"(  c #D1967C",
")  c #D89778",
"_  c #D59A7B",
"`  c #D99878",
"'  c #D9997A",
"]  c #DB9A7A",
"[  c #DA9A7B",
"{  c #DC9B7B",
"}  c #DB9C7D",
"|  c #DA9D7E",
" . c #DE9D7D",
".. c #DC9D7E",
"X. c #DD9D7E",
"o. c #E09E7D",
"O. c #E29F7D",
"+. c #E2A07F",
"@. c #D89380",
"#. c #D89982",
"$. c #DD9E80",
"%. c #DE9F80",
"&. c #DF9F80",
"*. c #DD9986",
"=. c #D4A082",
"-. c #DFA081",
";. c #DCA386",
":. c #D8A485",
">. c #DCA88A",
",. c #DFAB8E",
"<. c #DFAF94",
"1. c #E0A081",
"2. c #E2A181",
"3. c #E3A181",
"4. c #E0A182",
"5. c #E1A283",
"6. c #E4A281",
"7. c #E4A383",
"8. c #E5A383",
"9. c #E5A483",
"0. c #E6A483",
"q. c #E5A484",
"w. c #E6A585",
"e. c #E7A685",
"r. c #E7A686",
"t. c #E8A786",
"y. c #E8A787",
"u. c #E0A58A",
"i. c #E3AC8D",
"p. c #E7AD8F",
"a. c #E8A888",
"s. c #E9A888",
"d. c #E9A989",
"f. c #EAA989",
"g. c #EAAA8A",
"h. c #EBAA8A",
"j. c #EBAB8B",
"k. c #EBAC8C",
"l. c #EBAE8F",
"z. c #ECAC8C",
"x. c #ECAD8D",
"c. c #EDAD8D",
"v. c #EDAE8E",
"b. c #ECAE8F",
"n. c #EDAE8F",
"m. c #EEAF8F",
"M. c #EDAF90",
"N. c #EEAF90",
"B. c #E4B195",
"V. c #E9B193",
"C. c #EDB091",
"Z. c #EFB090",
"A. c #EEB091",
"S. c #EDB192",
"D. c #EEB192",
"F. c #EFB192",
"G. c #EFB293",
"H. c #ECB496",
"J. c #E6B599",
"K. c #EAB79A",
"L. c #EEB899",
"P. c #EEBC9E",
"I. c #F0B293",
"U. c #F0B394",
"Y. c #F0B495",
"T. c #F1B495",
"R. c #F0B496",
"E. c #F1B597",
"W. c #F2B596",
"Q. c #F2B697",
"!. c #F2B698",
"~. c #F2B798",
"^. c #F2B799",
"/. c #F3B799",
"(. c #F3B899",
"). c #F2B89A",
"_. c #F3B89A",
"`. c #F3B99A",
"'. c #F3B99B",
"]. c #F4B99B",
"[. c #F4BA9C",
"{. c #F4BB9C",
"}. c #F4BB9D",
"|. c #F5BB9D",
" X c #F5BC9D",
".X c #F5BC9E",
"XX c #F5BD9E",
"oX c #F5BD9F",
"OX c #F5BE9F",
"+X c #F1BFA1",
"@X c #F5BEA0",
"#X c #F6BEA0",
"$X c #F6BFA0",
"%X c #F6BFA1",
"&X c #F6C0A1",
"*X c #F6C0A2",
"=X c #F6C1A2",
"-X c #F6C1A3",
";X c #F6C2A3",
":X c #F7C2A3",
">X c #F6C3A4",
",X c #F7C3A5",
"<X c #F2C4A5",
"1X c #F7C4A5",
"2X c #F7C5A6",
"3X c #F7C6A7",
"4X c #F7C7A8",
"5X c #F7C8A9",
"6X c #F0CBAD",
"7X c #F4CDAE",
"8X c #F8C8A9",
"9X c #F8C9AA",
"0X c #F8CAAB",
"qX c #F8CBAC",
"wX c #F8CCAD",
"eX c #F8CDAE",
"rX c #F9CEAF",
"tX c #EECEB0",
"yX c #F3D1B3",
"uX c #F7D1B2",
"iX c #F0D4B6",
"pX c #F6D4B6",
"aX c #FAD3B4",
"sX c #FAD7B8",
"dX c #F1D8B9",
"fX c #F7D8BA",
"gX c #F5DBBB",
"hX c #F6DDC0",
"jX c #F9E1C3",
/* pixels */
">.p.| _ ( I c I U B.H.L.L.L.B.B.<.B.B.B.B.K.K.K.V.K.J.P.K.L.L.H.p.V.>.u.u.p.p.p.4.5.O.u.5.j.1.5.' [ | $.[ ' E E T C C R T R C T ",
",.p.5._ | 4.u.B.V.L._.`.`.`.L.K.OXL.H.K.P.P.L.'.P.P.@X*X;XoX.X).!.U.D.V.S.D.U.C.M.j.j.a.g.q.5.&.-.} ....&.{ ' E R C Y Y W R T C ",
"U $./ r.H.'.~.OX*X*X'.*X>X>X+X+X*X>X+X2X5X5XP.@XoX%XL.OX%XoXR.!.!.`.k.C.I.E.k.M.j.h.7.d.g.s.X. .] o.`  .-.&.! W ! Q V W ! Q V A ",
"W 5.j.W.).[.[..X=X*X@X*X3X=X;XOX2X>X2X;XqX2X;X@X;X*X).{.=X[.~.R.).L.G.C.R.F.b.l.k.s.8.8.x.9.O.] ] ] ` ] 5.X.! T ! Y A Z R Y V C ",
" .j.j.C.C.].).*X#X:X*X2X#X*XXX&X@X,X3X2X;X;X#X*X}.&X}.}.E.!.E.E.E.!.G.F.a.z.h.h.a.d.e.f.s.8.` { ` } } -.} ] ! R C A Z A V A m Z ",
"C L L L 4.b.{..X*X*X#X-X*X*X@X_.&X%X>X>X2X%X{._._.`.'.~.W.I.R.R.W.E.I.k.h.s.g.0.e.5.f.h.s.6. .] ] [ -.$.&.' Q C T Z Z Z Z m m m ",
"= = = & > l | C.'.:X[.%X$X&X`.!._.%XOX>X*X:XR.!.'.oXR.'.~.!.S.OXQ.{.G.G.l.D.8.r.e.g.e.g.a.0.' $.$.-.} -.%.{ Y T Z A m Z m m h h ",
"= $ X X # $ < d U u.C.~.&X*X(.U.'.'.oX@X;X_.R.A.U.{._..X*X.XOXoX;XQ.U.M.A.d.a.w.j.h.a.a.k.w.$. .4.1.%...1.` Y m V m h h m M g g ",
"=.P 5 & & = = < 9 n / j.W.{.(.U.c.).oXXX!.R.C.C.k.U.}.*X%X>X%X=X'.~.p.p.| / ( ( ( / Y / ` } [ -.} %.| -...[ ! Z n h g h g g a g ",
"L.L.B.:.K x r 6 9 p M / b./.!.U.F.!._.R.U.A.j.k.j.b.[.%X;X:XoXB.:.( x r 3 < > > 7 7 9 8 f B C T Q / / / &.` R M n f f g g g g y ",
"C.U.,.p.j.r./ E M M M Y 5./.m.c.n.R.k.C.C.b.5.w.8.j.D._.).r.c r > & $ o X X . . X $ = : 3 r 9 t p l V Q [ ` M n n f t y f g q y ",
"/ 4.5.u.p.&./ T T C T Q 6.D.Z.m.m.N.C.k.Z.5.! Q }  .4.5.} f 3 = $ # X . . . . . $ $ $ $ = : > ; , , 7 y M C M n n f y y g a y y ",
"'.;XOXOXH.C.5.Y f g V  . .n.M.I.h.I.j.G.j.{ m V V Y T Y f 1 - = + + o $ $ = > 9 d d 9 3 < < > > = : < , 3 8 p l y f y g y g y y ",
"+XL.B.p.p.w. .E M 0 y V [ 8.c.k.k.M.m.N.j.{ g g M M M f 8 ; - = = = < 6 p B | u.r.u.| C B f s 7 3 ; < < < : ; 7 t t t 0 q 0 q q ",
"I w : & & : < 9 y t 8 g V  .y.U.U.n.e.j.j. .M n n l t 8 1 ; - ; , 7 8 n W / E / 4.a.} [ [ } E E l t 7 3 < > = : 1 8 6 8 6 8 6 6 ",
"X     . .     . $ - 1 8 M ! O.D.`.U.C.C.j.{ V M f y 8 1 , ; - ; ; ; 1 l W E M f g f t f l T / L Q C f r 7 > : = ; 1 1 1 6 6 1 1 ",
"    . # O         X + ; t Y  ./.OX;X`.`.C.e.E n y 0 1 , - - = + = t F 4.p.C.u. .C V y 6 ; ; 9 M V C n f r 7 < ; , 8 6 0 8 q 0 0 ",
"& = & & # . . . X $ o o - V O.W.eXeX1XOX`.j.W t 8 1 , - = @ X $ 7 9 > : > < 9 r d p p r 9 : + < l B n f n p t p f 8 0 0 q q t q ",
"( =.L c d e 7 7 r 7 : = = n y.~.uXfX8X;X/.b.M 6 1 6 - = @ + X @ + + .   O       . O # $ & : $ o 7 W T T M l f M y g a g n M g h ",
"k.r.s.5.5.[ Y Y T V V W 6.D.F.OXfXaXaX1X'.&.a 1 1 8 ; 1 6 ; = - ; , : X .                     . $ s n q n n f y n g y g n g g g ",
"O.4.~ S Z A A W A ) ^ A V b.{.qXeXpXqX8XC.` 0 1 1 a 0 M  .8.{  .[ } U =.x w : > > > & $ $ $ . X + 1 , 8 p V V Y M n g M n m h m ",
"` A A A ) A A m h a 0 f 8.[.:XwXaXuX8XOXj.T y 8 0 M ` / 8.9.6.X.1.-.5.4.O.S V C E V g t t 8 8 y g 6 8 M  .8.w.w. .n n g g y y y ",
"U.6.M a q q 6 6 6 f E `.8X3X>XeXuXrX}.M.&.Z g h m Z A 0.s.b.8.e.` C M m Z Z g y q h m A ) ^ m a ; 1 M ` C n n M y 8 1 6 8 8 6 t ",
"8XOX`.b.w. ./ | H.;X>X3XqX8XwXqXrX,XU.5.! M m A ^ ` ^ s.n.h.c.n.~.w.T 8 6 1 6 6 8 8 6 1 1 ; - - 6 M '  .e.E t 1 8 y g f B B l n ",
"eX*X.X;X/.;X;XeX5X5X2XqX5XrXuXrX2X%XC. .m m Z ] O.0.9.f.h.j.m._.U.~.W.~.j.&.V f 8 1 , 1 , 0 M  .8.1.} Q } w.Q V V n f f l l f n ",
"aX8X%X.X%X,XqXwX0X>X5XqXqXuXaXrX>X!.s.` Z Z Z A ^  .O.t.k.z.U.U.Q.!.).[..X#X1XOX'.~.U.U.~.~.F.c.g.+.O.R T  .8.%.} s r s s s s s ",
"uXrXOX.X=XwX8XeX9X5X>XrXfXfXfXeX#X~.6.O.~ S M h h h y g m ^ j.N.R.[.R.{.*X3X*X2X*X*X`.{._._.N.v.h.s.X.{ Q /  .e.4.f r s f f y s ",
"fXeX>X8XqXeXwXeXrX2X0XuXfXjXjX8X).W.t.s.s. .M y g g g 0 1 6 n 6.{._.Q.{.,X2X>X>X5X*X}._.}.U.n.a.h.y.O.6.O.Y ^ +.4.n f f M n l l ",
"aXaXrXwX8XrXeXwX>X3X1XuXeXjXfXeX`.S.g.A.C.e.Z g g ~ O.^ g 1 ; t ! U.{.#X,X3X4X9X2X2X@XoXE.U.h.0.8.s.8.r.O.[ W 5.} F n B n B M M ",
"eX8X0X1X1XOX'.b.s.U.;XrXfXfXaX8XOXU.T.`.f.^ h h A e.t.+. .g - - 1 M 6.W.:X3X4X3X8X8X3XoX_.U.f.y.h.y.7.t.3. .! [ &.C C B V F F V ",
"OXOXb.b.s.O.n y Z .X;XuXfXfXeX8X1X*X`.G.) n y M ^ 8.O.~ m y ; , ; 1 f  .C.'.L.OX@X@X!.[.U.U.f.s.f.z.8.e.6.+.Q ` ] ! F T C E M K ",
"/.s. .Z h 1 ; f L.=X3XaXjXjXfXaXeX1XR.Y y 1 , , 1 , ; , , , 6 q y 0 6 g } j.b./._.'.D.M.A.Z.m.j.x.g.w.9.9.+.{ / ' C M V C C C V ",
"^ S g 8 - - f `.>X0XuXjXjXjXjXfX>XW.M 1 - + o + o @ + @ ; 1 8 g y y q a a Q O.D.j.F.j.m.s.z.h.x.r.s.8.8.2.8.} ) T T V C C T T E ",
"m y 1 @ ; Y '.,XrXuXpXjXjXjXaX8X'.W 8 - + + @ @ + $ @ - - ; , 1 8 0 y y q q m ! 4.s.t.e.h.t.f.g.r.8.+.1.4.%.} Q C C C T Y T C C ",
"q 1 @ ; F _.;X0XaXfXuXaXaX8XL.p./ 8 - @ + + + + + + o @ @ - = - ; 6 8 0 0 8 1 f Y [ ! ` ^ 4.&.8.8. .E / | } E E T C M M C T M V ",
"1 - - g 5.`.3X8XeX1X'.L.>XR.} f 1 ; @ + @ + + + + + @ @ - - - + @ - ; ; ; ; - ; r C ! E ` ! ` ` o./ ! ! _ ! E R R C C V T C V V ",
"; ; t / 4.L.p.| | w.4.w.r.g.4.l , , 8 p 1 ; - - = = - - ; ; @ @ @ = - - - = @ = = 7 L &.` / R / ! ) ! ! B C C E T W V E C C Z A ",
"; 1 C E [ } g 8 f / E V n f 8 - - 9 C } l 8 , ; ; - - ; , 3 ; - - - - - - = + + + $ 7 Y ..} R ! W W Q ! C l C E _ ( C C C A C A ",
", y C B L n 8 8 t M f y 6 7 = = t E / ^ ! M 8 1 , ; - - ; , ; - ; ; - ; ; < = = & @ @ 3 V  .T Q ! / T / K l B / ' ! V C A A m Z ",
"1 y B n L y 8 6 t f n f 8 8 1 l j.W.C.6.O.^ M 0 6 1 , 6 8 8 1 , 1 1 1 1 1 6 1 , : @ + @ , M R T ! ` / _ ( l K E ! T V Z V Z m Z ",
", r B B l s 9 t y M n M f M Y 1.w.C.c.j.8.{ A m a y y M m Z h h q 8 6 8 0 8 6 6 ; = + @ @ 1 V / ! } | 4.( l B ( E T M m m Z m Z ",
"8 8 L d 9 r 8 9 0 q h m ! O. .! ^ ^ O.O.+.] S A Z Z m m A S A m g 0 8 q y 8 6 8 1 ; = + - - f ! ] $.-.;.=.c E L ( C M m Z A A Z ",
"n f K p , ; = @ @ ; 1 g M m h m Z A h h h h q 0 0 8 6 8 q q 8 6 1 1 , 1 1 1 ; , , > - - ; , 6 Y  .7.&.u.:.J c L L Q n Z Z S Z A ",
"B C B f r , - = ; , 1 1 1 1 1 8 y 8 8 6 6 1 1 , ; ; ; , , ; - = = = = @ = + + + @ @ - 1 t y 6 T 4.5.-.-.=.J J K ( C M M Y Z Z Z ",
"p E B B f f f g n m h h a n g j a a N G G G F F D D j a q 0 1 1 1 1 , 1 1 , ; ; ; , f Q R V 0 ! $.5..._ L J J U L B n F M M M C ",
"f B [ W L V Z Z m m ~  .O.} &.} w.r.p.p.r.4.&.@.@.H G N N N j a a h y a a q 0 8 q V 6.6.6.Q n Q &.$.o.( J c J I I n B B M B B B ",
"T f E / E T V ! ~ A ) 1...5.@.*.5.q.5.u.u.#.G F F D q a j a 0 a g g y y q q 0 g ! k.t.3.8.Y n [ 5.5.E K c c c I K K n B B B n B ",
"r.B l  .E C T ! ^ A V V V f B F V N l n F d 9 9 8 7 3 9 9 7 3 9 a y 0 0 0 8 f W C.F.0.{ ] M V -.r.[ C c c l x c c B B B C V M M ",
"p.| p C ` / ! ^ ! A f t 9 6 1 9 7 7 7 9 9 r 7 3 < < > < < < 3 7 9 8 0 t 8 f V b.S.N.-.] Y n Y w.$.E l f d l c x f l C E C E E T ",
"i.r.K f / 4.&.^ ^ S M y t 8 7 8 8 t p r s r 7 < < > > > 3 3 7 7 9 8 r t f M 4.M.C.r.-.&.Y f /  .) B d s p c f d x B L L _ ( E ! ",
">.p.| c B q.6.O.^ ~ h a t r 9 p l M l f f p 9 7 3 < : < 3 r 9 t s p y f M -.p.C.C.u.} w.M M W ` Q B r r s f s d c L J _ L J B B ",
":.;.u.( K ( 8.6.O.^ M a f f p Y [ ` ! T B f r 9 9 9 7 9 d n M T Q C B F } p.C.b.Z.p.u.4.n V ! ! ! l s r d f d x K I U L K B B B ",
"U :.:.:.K ( 4.e.O.O.Z h g f n 0.h.b.s.5.[ / B B l n B ( / 4.4.s.5.4.} [ $.k.b.S.p.l.p.&.n T ! ) M M r s d U J J J I I _ ( _ I L ",
"I =.:.U x J $.9.0.s.^ A m M ) k.U.c.a.-.5.r.j.p.p.p.H.L.L.S.U.g.g.5.-...5.p.l.u.p.p.p./ V ! ! Q F l 9 r d s I K J J L ( | | _ L ",
"b =.U U d k d K g.W.O.O.8.]  .F.!.R.j.j.w.k.g.k.L.'.B.L.L.L.p.b.i.4./ 4.5.i.5.5.a.p.;.=.! ..Q Q C f r r 7 7 d I B J c U ;.i.-.| ",
"z I U I c u > 7 ( W.b.+.h.t.y.f.~._.C.M.OX`.`.S.!.L.'.OX;XP.R.I.d.$...$.5.5.5.5.i.a.u.| $.$.` Q L f c k u e r c ( K c I | u.u.u.",
"w J I I x 5 & > i u.k.I.g.c.n.C.S._.L.oX{.=XoX-XoX1X+X5X*X*Xp.-.-.5.| 5.] $...5.-.r.u.5.q.;.} $.B f c z u e e r f L L U U =.=.=.",
"w z I I d 4 & & > w _ R.).N.y.y.C.D.(.).%X%X@X*X-X*X@X'.+XP.k.;.q.r.-.} ) ) [ ..5.u.p.p.I.p.;.| ( e x x k k d 3 7 r B I I x r w ",
"5 w v x k 4 # % & 2 9 U *X@Xk.j.d.d.g.S.!..XU.Y.C.S.a.V.p.D.y.d.g.4.! ` ] { / -.q.g.u.l.).'.q._ K u 5 b z k u 3 = 3 9 e 7 5 4 2 ",
"% * 4 5 u 4 # # % % > 9 B.qX{.l.w.g.[.). X}.R.R.U.p.a.a.a.q.&. .&.' / ) %.{ -.5.7.$.l.V.{.).d.I c x 5 w w 5 5 3 & + : : > > < 4 ",
"O O # * 4 4 % O # % * 3 K 9X9Xi.,.;X;XqX3X5X}.%X).'.Y.^.k.d.7.r.` W W ! / $.5.d.-.5.S._.|.=X,.I x d k 4 > > 2 2 # % < 3 3 w 7 i ",
"O O O % * 2 & O O O & : B *XuXrXfXsXaXaXaXfXfXsXeXeX0X2X>X}.OX{.H.i._ L Q ! [ $.9.j.W.].#XOX,.J c w u 4 2 : & & O # < 7 r d f x ",
". . . # % * & # . O $ < $.@X9XfXhXjXgXfXfXhXgXjXjXjXpXfXgXsX2X4X3XqX+XB.=.K F %.l.E.H.+X2XP.U J c w * * & & O O O # & < 9 r r d ",
". . . O # & % # . X # d i.>XeXyXhXhXgXyXiXiXiXiXdXdXiXiXiXiXtX6X7X6X6XtX6X<.U >.J.K.P.P.<X<.b v v w * & & # O O # # % * 5 5 w u "
};
