/* XPM */
static char *out[] = {
/* columns rows colors chars-per-pixel */
"64 64 215 2 ",
"   c #2B1608",
".  c #4A2415",
"X  c #5C2C1A",
"o  c #68321E",
"O  c #583F2A",
"+  c #763A24",
"@  c #7E3D26",
"#  c #63432F",
"$  c #6E402D",
"%  c #6A4D37",
"&  c #77523D",
"*  c #7F5D46",
"=  c #814A35",
"-  c #8E4B34",
";  c #96523A",
":  c #865540",
">  c #8C5D46",
",  c #9D5943",
"<  c #955F49",
"1  c #A45E45",
"2  c #89664F",
"3  c #9B644E",
"4  c #916A53",
"5  c #9A6F56",
"6  c #AB644A",
"7  c #A16851",
"8  c #AD6D51",
"9  c #A86D58",
"0  c #B36A51",
"q  c #B76F53",
"w  c #A1765D",
"e  c #A7755C",
"r  c #AE755B",
"t  c #B4715D",
"y  c #B97658",
"u  c #A87B63",
"i  c #AE7D64",
"p  c #B77764",
"a  c #BD7564",
"s  c #B27861",
"d  c #B47F64",
"f  c #BB7E63",
"g  c #C1785B",
"h  c #C87E61",
"j  c #C07B6B",
"k  c #AC836B",
"l  c #BE8466",
"z  c #B3876E",
"x  c #BA876A",
"c  c #BF8B6C",
"v  c #B78C72",
"b  c #BC8E72",
"n  c #C38264",
"m  c #CC8566",
"M  c #C78568",
"N  c #C4816F",
"B  c #C48A6C",
"V  c #CC8C6D",
"C  c #CC8C6E",
"Z  c #D18969",
"A  c #D48C6E",
"S  c #D88F6F",
"D  c #C88973",
"F  c #CC8A78",
"G  c #D38E7E",
"H  c #C39072",
"J  c #C69677",
"K  c #C89172",
"L  c #CC9475",
"P  c #C09379",
"I  c #CA997A",
"U  c #CF9C7E",
"Y  c #D19071",
"T  c #D09072",
"R  c #D29172",
"E  c #D09273",
"W  c #D39273",
"Q  c #D49374",
"!  c #D59475",
"~  c #DA9472",
"^  c #DD9876",
"/  c #D79778",
"(  c #D1967C",
")  c #D89778",
"_  c #D59A7B",
"`  c #D99878",
"'  c #D9997A",
"]  c #DB9A7A",
"[  c #DA9A7B",
"{  c #DC9B7B",
"}  c #DB9C7D",
"|  c #DA9D7E",
" . c #DE9D7D",
".. c #DD9D7E",
"X. c #E09E7D",
"o. c #E29F7D",
"O. c #E2A07F",
"+. c #D89380",
"@. c #DD9E80",
"#. c #DE9F80",
"$. c #DF9F80",
"%. c #D4A082",
"&. c #DFA081",
"*. c #DCA386",
"=. c #D8A485",
"-. c #D7A88D",
";. c #DCA88A",
":. c #DBAB91",
">. c #DFAF94",
",. c #E0A081",
"<. c #E2A181",
"1. c #E3A181",
"2. c #E0A182",
"3. c #E1A283",
"4. c #E3A282",
"5. c #E4A281",
"6. c #E4A382",
"7. c #E4A383",
"8. c #E5A383",
"9. c #E6A483",
"0. c #E5A484",
"q. c #E6A584",
"w. c #E6A585",
"e. c #E7A685",
"r. c #E7A686",
"t. c #E8A787",
"y. c #E9A887",
"u. c #E0A58A",
"i. c #E3AC8D",
"p. c #E7AD8F",
"a. c #E8A888",
"s. c #E9A888",
"d. c #E9A989",
"f. c #EAA989",
"g. c #EAAA8A",
"h. c #EBAA8A",
"j. c #EBAB8B",
"k. c #EBAC8C",
"l. c #EBAE8F",
"z. c #ECAC8C",
"x. c #ECAD8D",
"c. c #EDAD8D",
"v. c #EDAE8E",
"b. c #EEAF8F",
"n. c #EDAF90",
"m. c #E4B195",
"M. c #E9B193",
"N. c #EDB091",
"B. c #EFB090",
"V. c #EEB091",
"C. c #EDB192",
"Z. c #EEB192",
"A. c #EFB293",
"S. c #ECB496",
"D. c #E6B599",
"F. c #EAB79A",
"G. c #EEB899",
"H. c #EEBC9E",
"J. c #F0B293",
"K. c #F0B394",
"L. c #F0B495",
"P. c #F1B495",
"I. c #F0B496",
"U. c #F1B596",
"Y. c #F1B597",
"T. c #F2B596",
"R. c #F2B697",
"E. c #F2B798",
"W. c #F3B799",
"Q. c #F3B899",
"!. c #F2B89A",
"~. c #F3B89A",
"^. c #F3B99B",
"/. c #F4B99B",
"(. c #F4BA9B",
"). c #F4BA9C",
"_. c #F4BB9C",
"`. c #F4BB9D",
"'. c #F5BC9E",
"]. c #F5BD9E",
"[. c #F5BD9F",
"{. c #F5BE9F",
"}. c #F1BFA1",
"|. c #F5BEA0",
" X c #F6BFA1",
".X c #F6C0A1",
"XX c #F6C0A2",
"oX c #F6C1A3",
"OX c #F7C2A3",
"+X c #F6C3A4",
"@X c #F2C4A5",
"#X c #F7C4A5",
"$X c #F7C5A6",
"%X c #F7C6A7",
"&X c #F7C7A8",
"*X c #F0CBAD",
"=X c #F4CDAE",
"-X c #F8C8A9",
";X c #F8C9AA",
":X c #F8CAAB",
">X c #F8CBAC",
",X c #F8CDAE",
"<X c #F9CEAF",
"1X c #F3D1B3",
"2X c #F7D1B2",
"3X c #F0D4B6",
"4X c #F6D4B6",
"5X c #FAD3B4",
"6X c #FAD7B8",
"7X c #F1D8B9",
"8X c #F7D8BA",
"9X c #F5DBBB",
"0X c #FADDBE",
"qX c #F6DDC0",
"wX c #F9E1C3",
/* pixels */
">.Z.9.e.` B k k u k J U %.-.-.m.:.>.-.>.:.m.>.m.>.m.m.F.F.F.D.D.m.m.>.m.i.M.l.p.p.l.u.u.*.u.d.a.&.2.| 2.2.3...../ / / { ` ] Q Q ",
":.d.b.z.e.E d u u u J I U =.:.>.>.:.:.>.m.m.m.>.>.m.m.m.D.D.D.>.>.>.:.>.i.p.p.l.p.i.u.u.u.u.a.u.u.2.2.5.r.r.3.$.{ { ] { X.{ / ! ",
"H  .o.q.9.W i k w k P U %.-.-.:.>.>.-.m.D.D.>.>.>.m.>.m.m.F.>.m.>.m.-.:.S.m.r.p.d.k.3.r.u.i.u.a.i.v.0.r.r.f.5.<. .[ Q {  .O.) ! ",
"b ~ ~ ^ A M d w w k P U =.=.-.:.>.>.:.m.D.>.m.>.m.m.>.m.F.D.m.m.F.>.>.:.D.m.u.l.p.p.a.i.N.V.k.x.n.j.g.0.g.s.0.5.../ ` / X. ./ ! ",
"b ~ Z A Z h y i w d I =.U -.-.>.:.m.>.D.m.D.m.m.>.m.m.D.m.F.m.F.m.D.>.m.m.S.M.!.L.Y.J.U.l.C.x.x.r.k.q.r.5.t.5.0.' } ' { )  ./ ) ",
"b ~ Z Z m g f s i x I %.U =.-.:.>.>.D.m.D.D.D.m.m.m.D.>.m.S.F.F.F.F._.(.(.G.G.P.Y.J.K.Z.v.x.t.0.s.s.0.0.1.1.w.1.{ | } } &.@.` A ",
"P ] A Z Z m g f l D J =.=.-.%.:.>.m.>.F.F.H.m.F.F.H.F.H.XXOX{.|.|.|.Y.(.(._.N.K.P.P.l.A.Z.J.7.1.s.s.,.1.q.r.r.O.$.2.' #.2.2.R A ",
"P ] A Z Z m h B C C U =.m.m.m.S.'.H._.H.+XoX X'.oX{.(.(. XXX.X[.[.Q.U.Y.).U.n.x.E.E.C.A.Y.B.f.w.a.a.1.0.k.j.r.3.0.$.@.@.&. .` A ",
"c ] A A Z Z m T K L U u.n.A.P.!.Y.[._.oX[.OXXXXX(.(.C.Q.S. X{..XP.l.N.P.U.(.K.P.x.E.Y.E.C.K.x.g.3.0.<.a.r.k.r.r.$. ./ 1.$.$.] ` ",
"b ^ A A A Z A C I L =.u.i.k.C.J.S.!._.'.oX|.|..X'.Q.V.A.P./.[.Q.J.k.d.l.U._.E.U.(.(.(.U.K.N.N.r.&./ [ | | ! T T W W ) {  .[ ` R ",
"L  .A ~ A ^ C L I J b L I P b L i.Q.U.(.E.{.E.(.~.K.s.g.n.Q.S.U.K.w.2.w.N.(._..XoXoXS.!.U.C.| L l d 7 9 r 9 7 p l n n M E / Y R ",
"I  .S Z S Z f r r 5 < > : = & & < i L =.p.K.N.K.P.n.0.0.s.B.C.N.s.0.$.2.j.K.(.G.{.|.S.u.U c 7 : = o X o = : : < 7 7 7 1 8 t f n ",
"K 2.~ S A Y y 6 , , < < = $ # O o & > 7 l R #.x.z.V.w.d.7.k.d.d.3.@.{ 3.1.N.K.E.k.=.f 3 = $ X X . . . X o + $ : : ; - - ; 3 , 1 ",
"c %.] A ! / C n f D %.%.U b w > : : : , 8 n D } j.h.f.w.t.r.w.3.3.[ ! ! / 2.g.0.T r > + X X X . X X $ > w 7 3 3 7 3 < ; ; < , > ",
"J %.L Q ! $.L E / &.&.a.p.F.;.U L M p t y f f C 2.g.4.4.q.g.3.q.&.W n V A ! T V r < + o o o o = < r c | | [ M M B B p 9 8 8 3 > ",
"U %.=.! ! 2.} ! @. . .2.r.u.&.| _ C n y y n B C { 5.4.,.r.0.q.0.&.M f f n B f 8 , = = + = - < 9 c T ! / | | ! ! ! / C M B n 8 7 ",
"U =.*.*._ 2.#.} ! C n E | u.i.a.| / C y 8 0 n ! ) ,.3.r.$.0.q.0.{ n t y y f r 6 ; - - : ; 7 6 y y f t t t t 8 y y B M T C B f t ",
"=.%.=.*.| 3.w.[ n 8 M m.S.G.M.u.| E M n 8 1 8 n A  .q.s.q.0.w.1.[ M f y t r 6 , ; : = - = = 7 j E E M n n y 8 ; = = , f B B M f ",
"-.-.U =.| } ,.` r 8 L ;.=.I e 4 : & & : , 6 1 g h )  .s.g.s.0.3./ T f f t 8 , ; - = $ o = e i i 7 5 < 3 9 9 7 7 < = o > l E D V ",
"=.%.U =.*.C { [ l p H e = O . .         X + - 1 f C { x._.K.n.j.0.! n t 6 , ; = @ o . $ > $ . . .       . . . . O X X X 1 E C y ",
"=.=.%.=.U f B V y s > X . . . O .     . . $ o @ 1 T { E.$X.X(.E.k.,.n 6 , , - @ + X X + o # . O       . . . . . . . . . + 8 q n ",
";.=.=.=.*./ C y , - - + $ & : : & # O $ : < = @ = R 1.E.<X-X#X_.E.,.a , 1 , - - = $ + : 7 r w 5 * & & > w < < < < = = = 1 , , y ",
":.i.;.*.*.z.$.` ! V W &.W / E L D M l c M n f M / k.x.'.5X8X%XoXU.) 8 , 1 0 ; y C R E [ [ 3.$.} ! C n R ! C g y f h h C y , n  .",
"i.i.;.*.*.<.j.K.J.2./ 5.s.&.{ ! ! A m Z A A Z Z A k.Q.oX8X8X<X|.K.R 8 1 8 n M C $.5./ R ! [ { { ` A h y y h M ! ` ! h ; - t )  .",
";.;.=.*.=.3.c.T.T.Q.x.{ ~ ! M m m Z m Z M h y g { oX{.<X5X5X<X|.x.A q 0 y M ) r.r.c.0.{ m n g g g q 0 q q y y q , ; - 1 A ,.! R ",
"i.u.u.i.u.r.N.J.E._._.x.{ h g y g y y 8 1 6 n p.#X#X>X>X5X<X-X(.5.m g h Z Z ! 5.f.s.c.N.N.&.n t 8 1 , ; ; ; ; , 1 f ! q.c.r. .T ",
"k.p.*.i.u.s.g.P.E..X[.#X#XQ. .Z y t 8 y W M.{.>X:X:X%X<X<X5X|.C.{ Z h S { 5.` r.c.c.s.N.(.'.K.(.'.S.u.l.a.i.0.x.J.V.r.t.s.f.X.{ ",
"x.p.u.3.u.0.j.P._..X$X>X<XXX X!.E.K.U.'.>X:X-X:X<X<X,X<X2X<X{.r.! Z m A X.r.r.q.g.s.s.x._.).E.~..X$X X].OX'.W.E.J.x.r.0.s.s.5.O.",
"0.r.2.u.&.s.B._.(..X%X5X>X&X{.'.T.[.oX;X$X%X#X2X2X5X8X5X<X-XK.5.A A m A Z A A ~ ` 5.x.B.K.(.Q.'.{.$XOX#X.XXX(.E.J.V.r.0.8.t.5.6.",
"0.4.2.&.3.d.K.(.'.|.:X5X5X;XoXQ.(.|.%X<X-XoX%X>X5X5X0X5X>X{.J.8.{ A A h g g y 0 8 q Z r.U.(.^.{.#X%X%X#X#XoX{.Q.P.V.x.y.y.w.7.1.",
"r.w...#.3.V.n.U.[.#X&X5X5X<XoX.XoX>X$X>X:X%XoX<X5XqXqX8XOX`.k.g.s.s.~ h g h m h q , ; y ) B.K.T.'.-X|..XoX{.K.P.E.B.r.s.y.s.1.1.",
"r.3.@.} <.s.B.K.oXXXOX:X5X5X:X%X>X-X#X-X>X$X'.$X5X0X0X5X#X/.U.P.P.J. .h h Z  .{ ` g - - , n { s.T.E.E.E.{.T.V.B.B.x.f.t.c.s.0.1.",
"$.&.| &.$.j.c.T.T.(./.%X-X-X-X$X|.|.{.(.x.x.E.-X-X8X8X5X X'.K.(.E.x.` Z h ` r.5.! h 1 ; ; 1 0 Z $.g.x.J.n.V.j.k.q.y.s.s.8.r.3.8.",
"O.} $.$.3.k.B.c.J.L.!.(.'.Q.Q.(.J.s.{ A h ! (.#X5X8X6X,X-X.X|.|.U.! g y h Z Z f q 6 6 q y q 0 8 n ) 5.0.s.s.q.1.5.5.3.r.s.3. .| ",
",.7./ | ,.g.s.c.J.Q.B.P.P.E.s.&.! M 1 , y C.'.-X5XqX8X8X2X>X|.!.[ y , ; ; - @ - - , , q y y q q 0 y n ` $.5.{ { { ' ` ,.0.,.` / ",
"| _ ' _ 2.t.s.t.c.B.V.x.x.5.~ M q ; = 6 p.%X%X>X0XwXwXwXqX>X!.{ y ; + $ + + @ @ - - - , 6 6 0 q 0 1 1 y W ! R R ! R R W ` / E L ",
"! _ ! ' ' 4.6.q.w.j.s.0.{ A g 6 - - t i.|.<X<X8X8XwXqX8X<X$X2.y ; + + + o + $ @ @ = = - - ; , , ; ; ; , 8 M E ! R Q T Q R ! E E ",
"W R ! W ! ..X.{ o.1.0.{ Z y 1 - - r 3.{.$X<X5X5X5X<X%XoX!.3.n , - + + + $ $ $ + @ = = @ + @ = - = = = + = < n / | ! R C Q R E E ",
"T E D L E ] Q ~ ] 1.` Z f 8 - - 8 [ i.|.%X<X$X%X#XoXS.2.C y , - @ + $ + + + + = - ; - @ @ = = - - : + $ + $ - y ! ] C R Q W E _ ",
"B c B c L ` / Q ] ` A g y , - ; M [ M.!.m.a.u.0.i.k.g.[ f , - - , ; - = - - - = - ; < : - - = ; ; : = & & + $ = 9 C A A ` ' | | ",
"f x l B B [ } ` ~ S M g 6 , ; r K _ 3.E y n R ` T C M l 1 ; ; t f f 1 , ; ; - - - ; - ; - < ; , ; 3 < < = + + @ @ 1 M ! R &.*.=.",
"l x c c C ' <. . .` h t 6 , , f B D D 8 8 8 n n f 8 1 ; = = 1 n M m y 6 1 , ; ; ; , , , , , , , 1 1 , , < = + @ @ - y R { &.u.3.",
"f x l c L | } 3.0.$.g t 8 1 ; f l B s 7 8 t y n f 8 1 , , f / s.{ A g y q 6 , , 6 y y q y 0 1 6 8 6 ; , , : = @ - ; , C $.r.| | ",
"x x x c L / 2.r.l.0.C 8 y 6 , l l l r 7 9 y f f M y 8 q n { &.0.1.^ V h g y q q g g g g g 0 1 1 1 ; - = = @ @ = 1 6 1 T <.2.' E ",
"d c H J H _ 3.N.p.l.$.f y n 8 M l 9 7 9 7 8 0 y g M V A A A A S ~ ! Z M g q 8 8 6 6 6 1 ; - - - @ $ o $ + = 1 f C f 8 [ [ ' E K ",
"x H U I I L u.l.A.N.C.T t n n f n 7 ; = = = - 1 8 g h h h h h h h g q 6 , ; ; - - ; ; - = = - - = = ; , , 8 C {  .n n ' { ! L B ",
"J ( U =.U U _ i.A.U.d.&.p f D M M f 7 < ; , , 6 8 0 6 0 y y 0 0 8 8 1 1 6 6 1 6 8 6 1 1 6 6 6 0 q y q q h { 3.1.$.M M  ._ E f l ",
"I U U %.=.U U *.Z.n.p.r.T y D ! ! C n V V h g h m Z V C M N N j N N N N F N j j j g a a a y y y q q y m ,.x.5.! E n ]  ./ l f l ",
"J %.=.;.=.=.%.=.r.C.N.N.3.l f @.! C V E Q A n V Y ! T +.G G +.+.+.G +.C j a s 8 9 r 8 8 y g t t 8 y m ,.C.J.{ { f n / / M f l B ",
"I =.=.=.=.%.U %.| | u.p.d.M s E  .T T R ! Q m f f f p n C E C M c l l s 9 3 3 3 7 7 3 8 r t y t y h { l.C.3.3.R y M / C d d l c ",
"%.;.%.=.=.=.U H f L _ *.| E 8 f 3.O.Q ! ) Q n f t 8 8 r f l y s r r 7 7 7 7 > < 3 3 7 9 8 y t f M [ r.x.g.a.} n n ~ T B s f d H ",
"%.;.=.=.=.%.K e 3 l I L C / n y { 1. .] ] V n y f y 8 r f f l f d r 9 7 3 3 < < 3 7 7 9 t f f M $.l.d.d.k.u.R n ! Q M s d l B B ",
"I ;.=.;.=.I d 5 * 4 u l L / [ W / s.o.o.) V g n y p f n n C C V l p r 9 3 3 < 7 7 r s l f B M | d.l.d.p.r.[ f M Y C p d l L L ( ",
"K =.;.=.=.b w 2 * 2 4 7 H u.C.p.2.1.6.5.{ m n n n M [ [ { [ | ! D l i 9 9 9 e i l D E ! W ! ) d.M.p.p.i./ B B C T d f l H L _ ( ",
"b %.U %.U b w * * > * > r i.F.`.h. .o.g.5.) M R ! 3.a.7.&.#.#.3.*.*.E L C L H [ | | ! / } #.} i.p.m.u.*.! Y C M l B l c K L _ *.",
"z I U U U x 4 % * * & & w ;.H.|.Y.6.<.s.w. ./ { r.l.n.u.0.,.3.u.i.;.;.;.:.;.;.u.*._ E ! } 7.,.3.u.p.u._ / R C d r d L c D L | i.",
"w H I U J x * % % & & 4 w I |.%X!.a.1.g.4.2.#.r.l.U.C.N.g.x.a.M.i.m.F.{.H.m.*.r.| / E / / &.2.3.3.p.*.| E H l e 7 f B K D _ %.*.",
"w z J U b e & % % & * > w H &X>X`.g.1.3.r.0.0.i.Y.(.`.{.XX(.H.H.H.G.G.G.S.*.*.3.$.! W ! / &.3.i.N.i.*.L H c i e 7 7 s B L U c i ",
"5 w b b x w % # # % % * 4 c %X<X|.A.,.O.r.J.K.E.I.W.A.L.A.Y.A.!.p.p.a.N.g.r.| ..' / E ' #.i.i.U.Y.p.I c c H i e < : 3 r d 7 4 4 ",
"% & 4 5 k 4 % O # # % > 3 c -X>XOXa.&.k.oXXX^.U.^.E.A.l.V.l.r.7.7.3.3.$.,.{ ' / | | | | 3.l.L.!.(.=.J u w i w 7 > $ & > > < < 4 ",
"O O # * 4 4 * O # # % > < E &X5Xm.i.oX:X%X,X;X%X{.XX`._.R.U.l.x.7.7.[ ! Y ! _ { ..r.r.3.3.U.(.|.p.J f d 2 4 : 4 & # : 3 3 9 5 i ",
"O O O % * 2 * O O O % = r N.;X<X4X8X5X5X5X8XwXqX6X,X5X,X-XoX{._.(.P.0.E E ! ` [ 3.w.l.N.E.{.H.:.H b w e 2 > & & # O > 7 r d f x ",
". . . # % * & # . O $ < @.|.;X8XqXwX9X8X8XqX9XwXwXwX4X8X9X6X$X$X%X>X}.m.%.L D &.l.Y.S.oX$XH.U H c w * * & & O O O # & < 9 r r d ",
". . . O # & % # . X # d i.+X<X1XqX9X9X1X3X3X3X3X7X7X3X3X3X3X*X*X=X*X*X*X*X>.U ;.D.F.H.H.@X>.b v x w * & & # O O # # % * 5 5 w u "
};
