/* XPM */
static char *out[] = {
/* columns rows colors chars-per-pixel */
"64 64 215 2 ",
"   c #2B1608",
".  c #4A2415",
"X  c #5C2C1A",
"o  c #68321E",
"O  c #583F2A",
"+  c #763A24",
"@  c #7E3D26",
"#  c #63432F",
"$  c #6E402D",
"%  c #6A4D37",
"&  c #77523D",
"*  c #7F5D46",
"=  c #814A35",
"-  c #8E4B34",
";  c #96523A",
":  c #865540",
">  c #8C5D46",
",  c #9D5943",
"<  c #955F49",
"1  c #A45E45",
"2  c #89664F",
"3  c #9B644E",
"4  c #916A53",
"5  c #9A6F56",
"6  c #AB644A",
"7  c #A16851",
"8  c #AD6D51",
"9  c #A86D58",
"0  c #B36A51",
"q  c #B76F53",
"w  c #A1765D",
"e  c #A7755C",
"r  c #AE755B",
"t  c #B4715D",
"y  c #B97658",
"u  c #A87B63",
"i  c #AE7D64",
"p  c #B77764",
"a  c #BD7564",
"s  c #B27861",
"d  c #B47F64",
"f  c #BB7E63",
"g  c #C1785B",
"h  c #C87E61",
"j  c #AC836B",
"k  c #BE8466",
"l  c #B3876E",
"z  c #BA876A",
"x  c #BF8B6C",
"c  c #B78C72",
"v  c #BC8E72",
"b  c #C38264",
"n  c #CC8566",
"m  c #C78568",
"M  c #C4816F",
"N  c #C48A6C",
"B  c #CC8C6D",
"V  c #CC8C6E",
"C  c #D18969",
"Z  c #D48C6E",
"A  c #C98270",
"S  c #C88973",
"D  c #CC8A78",
"F  c #D08B78",
"G  c #D38E7E",
"H  c #C39072",
"J  c #C69677",
"K  c #C89172",
"L  c #CC9475",
"P  c #C09379",
"I  c #CD917C",
"U  c #CA997A",
"Y  c #CF9C7E",
"T  c #D19071",
"R  c #D09072",
"E  c #D29172",
"W  c #D09273",
"Q  c #D39273",
"!  c #D49374",
"~  c #D59475",
"^  c #DA9472",
"/  c #DD9876",
"(  c #D79778",
")  c #D1967C",
"_  c #D89778",
"`  c #D59A7B",
"'  c #D99878",
"]  c #D9997A",
"[  c #DB9A7A",
"{  c #DA9A7B",
"}  c #DC9B7B",
"|  c #DB9C7D",
" . c #DA9D7E",
".. c #DE9D7D",
"X. c #DC9D7E",
"o. c #DD9D7E",
"O. c #E09E7D",
"+. c #E29F7D",
"@. c #E2A07F",
"#. c #DD9E80",
"$. c #DE9F80",
"%. c #D4A082",
"&. c #DFA081",
"*. c #DCA386",
"=. c #D8A485",
"-. c #D7A88D",
";. c #DCA88A",
":. c #DFAB8E",
">. c #DBAB91",
",. c #DFAF94",
"<. c #E0A081",
"1. c #E2A181",
"2. c #E3A181",
"3. c #E0A182",
"4. c #E1A283",
"5. c #E3A282",
"6. c #E4A281",
"7. c #E4A382",
"8. c #E4A383",
"9. c #E5A483",
"0. c #E6A483",
"q. c #E5A484",
"w. c #E6A584",
"e. c #E6A585",
"r. c #E7A685",
"t. c #E7A686",
"y. c #E8A787",
"u. c #E9A887",
"i. c #E0A58A",
"p. c #E3AC8D",
"a. c #E7AD8F",
"s. c #E8A888",
"d. c #E9A888",
"f. c #E9A989",
"g. c #EAA989",
"h. c #EAAA8A",
"j. c #EBAA8A",
"k. c #EBAC8C",
"l. c #EBAE8F",
"z. c #ECAC8C",
"x. c #EDAD8D",
"c. c #EDAE8E",
"v. c #EDAE8F",
"b. c #EDAF90",
"n. c #E4B195",
"m. c #E9B193",
"M. c #EDB091",
"N. c #EFB090",
"B. c #EEB091",
"V. c #EDB192",
"C. c #EEB192",
"Z. c #EFB192",
"A. c #EFB293",
"S. c #ECB496",
"D. c #E6B599",
"F. c #EAB79A",
"G. c #EEB899",
"H. c #EEBC9E",
"J. c #F0B394",
"K. c #F1B495",
"L. c #F0B496",
"P. c #F1B596",
"I. c #F1B597",
"U. c #F2B697",
"Y. c #F2B798",
"T. c #F2B799",
"R. c #F3B799",
"E. c #F2B89A",
"W. c #F3B89A",
"Q. c #F3B99A",
"!. c #F3B99B",
"~. c #F4B99B",
"^. c #F4BA9B",
"/. c #F4BA9C",
"(. c #F4BB9C",
"). c #F4BB9D",
"_. c #F5BB9D",
"`. c #F5BC9E",
"'. c #F5BE9F",
"]. c #F1BFA1",
"[. c #F5BEA0",
"{. c #F6BEA0",
"}. c #F6C0A2",
"|. c #F6C2A3",
" X c #F7C2A3",
".X c #F6C3A4",
"XX c #F7C3A5",
"oX c #F2C4A5",
"OX c #F7C4A5",
"+X c #F7C5A6",
"@X c #F7C6A7",
"#X c #F7C7A8",
"$X c #F7C8A9",
"%X c #F0CBAD",
"&X c #F4CDAE",
"*X c #F8C8A9",
"=X c #F8C9AA",
"-X c #F8CAAB",
";X c #F8CBAC",
":X c #F8CCAD",
">X c #F8CDAE",
",X c #F9CEAF",
"<X c #F3D1B3",
"1X c #F7D1B2",
"2X c #F0D4B6",
"3X c #F6D4B6",
"4X c #FAD3B4",
"5X c #FAD7B8",
"6X c #F1D8B9",
"7X c #F7D8BA",
"8X c #F5DBBB",
"9X c #FADDBE",
"0X c #F6DDC0",
"qX c #F9E1C3",
"wX c #FBE5C7",
/* pixels */
",.C.0.7.~ N j j w l U Y Y -.>.L.D.G.n.,.>.,.,.n.n.n.,.n.n.F.,.D.,.n.,.n.p.D.n.m.i.p.>.:.=.s.i.p.i.i.*.4.&.1. .X.~ ( Q [ } ..~ ~ ",
":.f.d.9.O.K l j u d J U Y -.n.m.D.n.n.>.n.>.n.,.n.,.n.n.n.D.n.n.n.n.n.,.,.n.D.n.:.>.-.=.i.:.:.i.i.*.&.1.4.4.y.9.1.$.$.[ <.} [ ' ",
"H ..+.2.[ K u j u l P U Y >.>.n.n.,.-.-.>.,.>.,.D.D.,.n.D.F.,.n.,.,.-.F.n.D.,.,.,.,.%.-.>.,.i.i.i.k.q.t.t.g.6.s.u.9.| @.2.@.| } ",
"v ' Z Z B d e u u j H Y Y >.>.,.n.,.-.%.>.,.>.>.n.,.,.n.D.D.,.>.n.,.,.n.n.n.n.n.n.,.-.a.n.n.l.v.K.V.v.f.b.v.f.s.j.5.w.O.1.e.] ~ ",
"l ^ C C f p e e e j U Y Y =.-.n.>.>.>.>.>.,.n.D.,.D.m.G.n.n.,.D.,.D.n.D.G.E.U.H.L.A.C.W.B.A.D.L.l.A.v.V.f.f.O.g.r.9.] |  .1.] ' ",
"x ~ n h g s e w e j U Y %.-.>.>.>.,.:.m.m.m.L.L.G.[.[.E.].].U.~.{.`./.].|.|.|.H.].H.~.G.U.B.B.l.z.A.v.9.s.1.<.4.4...[ ] 1.1.] ( ",
"x ^ h h b y 7 5 e l H Y %.>.=.:.:.a.i.A.L./.A.^.[.|./.].].|.H._.}.{.L.H.~.|.L././.`.K.T.U.T.h.B.A.v.f.x.b.s.X.7.5.2.[ &.4.t.| | ",
"x ~ n h h p e w u x Y Y -.-.>.:.a.s.e.l.A.T.I.T.{./.`.{.OX|.|.H.).U.A.L.}.}.W.L./.A.A.A.L.A.v.b.L.A.v.l.A.s.w.w.1.@.2.1.s.w.$.[ ",
"l E n n g f r e e K Y %.=.,.>.>.` ) L H H Y #.V.A.L.I.{.{.OX].{.I.K.l.K.W.}.W.T.k.k.k.K.K.W.m.U.L.R.B.L.v.f.s.4.X.7.$.$.@.w.1.&.",
"l R n h g f r 9 r Q %.%.i.%.N e 3 < : & & & > r ` i.a.V.R./.`.~.A.h.4.k.U.~.U.x.s.e.s.x.W.`.{./.~.R.L.l.v.e.&.` ` ) ! Q L V Q Q ",
"x ~ n n h k r 8 d #. . .K t , , 3 < @ $ # # o $ - 7 s L s.L.v.V.A.j.X.f.U.~.f.h.4.e.$.k./.|./.`.{.{.:.:.*.H r e w w 7 9 8 t p k ",
"H L n h m f s r H :.4.| L b L  .i.%.U l e > : : : ; 7 f R $.d.v.l.e.&.t.A.A.e.4.4.$.$.e.U.~.U.V.i.K s w < = $ o o o $ @ - < 3 7 ",
"H ` V B k k s s H n.i.4. .*.i.f.f.l.m.m.=. .L N p t t f b R $.c.w.g.w.f.e.s.4.X.~ [ ..t.s.b.$.K 7 : $ o X . . . . X o $ + = = : ",
"x U L N b f i e H :.s.e.4.1.&.1.4.&.#.X. .! E B m m m b B V ] r.g.s.u.u.u.e.e.~ R V E ! ] ~ f 3 : $ o X X X X o + : 3 3 < < < < ",
"H U H K x x d s k :.k.k.w.w./ C B ` *.l.A.k.` ( B f 0 b E ] ' w.d.d.$.u.u.j.<.B b m b N B f 1 - @ + $ + + : < r N ` L K b k r s ",
"U U U H H x z k k *.k.k.e.E f 0 *.D.a.i. .L B N B f 6 6 b ~ ] e.g.r.7.7.s.7.$.m f y y p f 6 ; - - @ = - 7 s k V ` ` ` L ` L K B ",
"Y Y Y Y U U U %.N ` 4.s.X.m 8 L ` H 3 & X X . O + > 1 6 8 n ~ 2.t.s.w.w.w.w.` V p y t y 8 1 ; - - - - ; 3 r f y t t q y t f b V ",
"%.%.%.Y %.Y %.i.` | 4.e.e.m y H 5 X     O #       . + ; 6 y C ^ u.v.f.s.j.e. .B m y 0 7 , ; - - = + + ; r B ) ! C b f 8 7 - - , ",
"%.-.Y %.%.%.%.:. .( V m E B 8 > . . . O # #       . X $ : 8 b E u.^.V.A.K.V.$.E m y 6 1 ; - @ + X $ < r e e 3 5 5 8 9 r r 7 = + ",
"%.%.Y %.%.%.%.m.$.R E f 8 ; - - : < 5 5 3 & # O O $ * $ + = y E j._.}.H.~.R.s.~ f 1 , , - @ $ X X - + X . O         X O o # # # ",
"%.%.%.%.Y Y U *.X.e.d.<.V B n | e.4.4.s.[ K d f f f r 3 - - 8 1.x.|.,X,X}.W.x.' 8 , , ; = + $ X X $ @ + O O       . .         . ",
";.=.=.=.*.Y ` ` ..t.B.L.B.x.w.] 1.j.w.1.1.X.~ R V Z B B ~ ] <.B.L.@X4X4X;X`.f.B 8 , 1 ; - , , ; 7 s f k j 3 * & & > : & & & + X ",
">.p.=.=.-.i.X.7.~ 7.s.K.W.~.A.b.7.2.~ Z n Z n Z Z Z B Z B n @.W. X,X,X5X>X}.7.m 6 1 1 0 0 R ~ [ ..$.] 1.4.| m b m V m f 8 8 8 8 ",
"p.:.=.=.i.4.4.O.O.u.v.A.`.|.{.~.K...h h B Z B n n g 0 6 y ../.|.@X,X,X>X>X`.e.m q 6 q n ~ ( <.2.[ E ~ ( O.[ Z h b y q g n Z ^ Z ",
"=.;.=.*.=.&.1...2.x.x.K.W.{.+XOX_.U.t./ b q 6 6 1 6 t  .L.=X;X=X;X,X,X;X].U...m y g b n ~ u.u.x.s.@.n y 0 q q q 6 0 0 y y y 8 , ",
"p.i.i.i.:.i.g.2.7.s.B.L.{.{.OX|.>X}._.{.R.s.1.1.e.l.].|.=X,X;X=X,X,X=X@X{.s.~ n m C ~ ~ [ j.j.j.B.B.b.4.V f 8 6 , ; - - - - ; 6 ",
"k.a.i.p.a.m.k.t.O.x.b.~.{.OX@X;X1X>X`.{.{.{.L./.OX;X|.|.@X,X=X,X,X,X@XOXU.7.B h n ~ / 2.u.j.2.u.v.K.V.L.R.XXA.V.f.e.! ( X.4.6.9.",
"k.s.i.p.a.s.v.w.u.v.K.W.|.@X;X>X>X,XOX{./.~.W.OX,X;X|.|.,X4X,X,X5X>X@X/.A...Z n C Z Z / 2.w.1.u.v.A.L.L.~.R.{.{.{.~.R.R./.W.B.j.",
"q.i.3.s.*.i.s.u.w.B.L.{.{.@X;X4X5X4XOX}.R./.{.*X+X;X}.@X;X4X4X4X9X4X|./.j.<.~ Z n h g g q y b ~ u.K.K.`.U.~.{.[.^.}.{./.~.R.x.w.",
"q.5.4.&.*.&.4.1.u.A.~./.|.@X;X4X9X4X;X+X@X|.@X;X>X@XOX@X;X>X4X0XqX,X}.K.v.u.w.O.C g y y y 0 , 1 h $.K.W.{.{.|.|.@X}.}./.~.K.v.r.",
"e.e.o.*.4.7.$.u.w.A.L.{. X*X@X,X5X5X=X;X;X=X{.|.+XOXU./.|.1X1X0X0X1X/.U.B.A.v.j.^ h y C / ^ y , ; 0 V s.U.^./.|.|.|.`.{.~.R.j.x.",
"e.4.#.| 4.4.4.N.w.j.A.~.}.OX|.OX;X>XOX{.|.{.W.B.s./ [ K.@X;X4X0X9X;X`.U.~.U.K.7.^ h h / u.O.Z 8 - - , f X.N.k.U./.~.K.A.L.K.u.w.",
"#.&. .&.#.4.g.c.w.u.v.K./.{.`.|.]./.A.B.u.4.^ n 0 0 ' `.|.1X5X9X4X;X{.`.`.{.e.R g g n / / Z b 0 , 1 , 1 y ~ t.x.x.x.f.b.x.h.1.u.",
"@. .&.#.4.4.4.x.N.w.j.v.K.W.`.~.K.j.7.[ C g 6 - , ( ~.{.=X4X0X0X9X4X=X}.}.b.B 0 6 , 1 , , , , 1 q q q 8 6 t B ' 1.e.w.w.5.5.t.2.",
"<.4.` | 4.e.X.d.g.7.2.u.v.R.L.B.w.O.n g 6 ; @ 1 ) }.}.@X$X0XqXwXqX0X=XOXb.R 6 - + + $ + + - - , 6 0 6 q q 8 6 f R ] ' [ ..2.~ [ ",
" .` ] ] X. .| 1.u.8.O.1.x.x.j.<.~ h q 1 - - 8 &.}.=X;X;X4X9X0X0X5X=X@XV.V 6 = o + + $ o + = @ = ; ; , 6 0 8 1 , 8 m R R Q ~ R W ",
"! ` ~ ` ) ` ] 1.[ ] } 2.@.w.O.Z g q , - = 8 ` G.}.>X4X1X1X4X;X@XG.m.i.R 6 - + + $ $ o $ + + @ = = = = ; ; ; - - : , f Q E R V R ",
"~ W ~ W ( ~ [ ' } ~ [ O.@.| ~ m 0 1 ; - 6 V 4.G.@XOX@X|.H.G./.U.s.B t 1 ; @ + + + $ + + = @ = = = + + = - - @ + + + : s ~ ! Q B ",
"R W S L W L V } } _ Z ..$./ n y 6 , - , m ` *.l.f.*. .4.4.w.1.s.j.R 6 , , 8 , - - : = = - - - - = = + - : : @ + $ + + = t R B V ",
"B B N N K B V ' @.' ( / O.Z h 8 1 ; ; y V V #.B f t f Q ] R b f f 1 - - 8 m f 7 , ; - - - - : ; - - - = ; - : = & + $ + - 8 N B ",
"k z k b k N V #.O.7.[ ] ^ C m t 1 , , b b k K f 8 8 8 m b f 8 6 , = = t m R B b 8 1 ; ; = - : ; ; - ; ; ; , , 3 > = + + + - 0 V ",
"z z k b N b L  .8.e.4.| ] b m f 6 , 7 b b b b 8 7 8 0 f b f 8 6 7 ; y 4.x.@.' B b 8 1 , , , 6 7 1 1 1 , , 6 1 , , - @ + + = , m ",
"f k k k x H N &.v.V.f.e.[ m f m f 6 8 B k f r 8 t y t b m n t t f m R 1.x.j./ ~ n h q 0 0 q q q q y 1 , 6 6 , , , < = + = > - f ",
"d z k z x H K #.A.A.f.V.f.b k V ~ f t K f , , 3 7 7 6 t b m m Z ^ ~ V E ..[ ~ Z B b a q y 0 6 q q 6 , ; , ; - = = @ @ - , 6 , b ",
"d H H H z H H i.V.Y.A.W.l.Q k V ~ R b B y 7 ; - = = - 1 6 b h h h h n C h M f q 6 1 ; ; - ; - ; = @ + + + + o $ + : , p b m 8 B ",
"z H U H H H K ` A.I.Y.K.L.#.k k |  .~ T N y s 8 8 8 8 0 q y q q t q t q 8 0 6 6 8 7 1 , 1 ; - - - - - - ; , 1 1 7 0 R ] $.B f E ",
"L Y Y Y ` ` K U :./.A.L.L.B.N f ! t.O.~ R E N R E B y h B Z n D F D b S A D A A A A f a y y 6 6 q y q t t y 0 y m ..$.[ ] m m | ",
"U Y Y %.%.U ! ) %.l.C.A.A.B.#.f Q &.1.~ E E R Q ] E m b Q ! R R ! G I F G G F D D b a y a a y 8 a a y 0 0 0 q h ..s.O.~ V f ~ [ ",
"J %.=.=.%.%.Y  .U %.s.A.v.A.s.B f ) $.$.~ ~ V ] Q Q m b s f s s b A A b p f f f 9 7 7 7 7 7 9 t 0 y 8 y 8 y h $.k.t.] ~ f m ] ' ",
"U =.%.%.=.%.Y U K H ` #.l.e.e.R f k $.$.} ^ ' ( ~ V m f t t 8 7 7 8 r s s s r 9 5 3 < < 3 3 7 7 9 0 t t y b ( s.s.&.( m t V ] N ",
"%.;.%.=.=.=.U x w w L %.Y )  .| N N ! 5.w.1.] ' ~ Z b b b f t r s p y k f d 9 w 5 3 : < 3 7 7 7 8 t 8 y b ( 4.s.4.4.L f b ~ k d ",
"%.;.=.=.-.%.K w 4 > l U U L *.e.k.] ~ @.s.7.$.' ( B f f m f b b N N m m b d 9 7 7 < < < 7 9 t 8 p y f m ] 4.s.e.4.T f f C N f s ",
"U ;.=.;.%.%.d 4 > * 5 i H 4.A.L.G.s.X.1.7.2.O.[ E E m B R ! ` X.] | [ ` V b s r 9 9 9 s s k b b k N B [ 4.#.4.i. .B k B m b f H ",
"K %.;.=.=.U u > * 2 < 4 u %.I.].|.A.w.e.5.$.$.| ~ ~ Q X.c.l.f.4.4.p.p.i.i. .U H H K K K L ` ` L L V | &.i.#.&.#.E N C N B m H L ",
"v %.Y %.Y H w 2 * * * * w %.H.|.OX/.7.B.1.` Q ] $.1.] e.l.A.4.&. .i.#.i.i.:.%.-.-.q.{ L L ` L ) `  .`  . .*.` K V R x d K L U *.",
"l U Y Y Y z 4 & * > & * 5 U H.OXOX{.f.4.e. .| ` *.e.k.b.~.A.a.i.i.i.i.i.a.a.a.D.>.-.X.L U !  .| #. .) ` #. .` V L B d s N K ` p.",
"w H U Y J z * % & & & 2 w U ].-X].W.t.7.$. .| c.i.a.i.L.A.~.G.D.:.l.a.D.H.}.].n.-.*. .L K Q `  .`  .` #.` #.L K z s s x b V ` *.",
"w l J Y v e & # % & * * 5 H =X;X].A.s.9.$.$.4.l.i.k.l.!.).Q.H.].H.m.S.a.V.H.D.4.4.#.( K L !  .#.&.&.#. .#.) x z i 9 r k V L l i ",
"5 w v v z w % # # % % * 4 N @X,X[.A.X.8.e.A.J.Y.L.R.l.N.A.B.s.A.m.s.i.s.b.v.4.o.] | L Q `  .| 4.x.l.%.` H U z l 5 < < r f e 3 4 ",
"% & 4 4 j 5 & O # # % : 3 x $X>X}.i.q.A.#X+X}.~.!.Y.A.l.K.k.s.4.8.$.X.$.1...[ (  .| [ | X.4.f.b.U.:.Y x u l e w 3 & & > > < < 4 ",
"O O # * 4 4 * O # # % : < L #X4X:.D.].-X@X>X=X:X{.}.).}.U.P.Z.J.b.h.<.~ R ~ ~ } | 1.e.4.| B.B.(.A.%.z k 5 5 > 4 * O * 3 3 9 3 r ",
"O O O % * 2 * O O O % : r M.;X5X7X9X7X4X4X7XqX0X7X>X1X>X,XOX'.).{.Q.k.W W ~ ' { 4.e.B.K.`.'.H.:.H k w e 2 > & * # O > 7 r d f z ",
". . . # % * & # . O $ < #.[.=X7X0XqX8X7X7X0X8XqXqXqX3X7X8X5X+X+X@X;X].n.%.L S &.l.I.S.].+XH.Y H x w * * & & O O O # & < 9 r r d ",
". . . O # & % # . X # d p..X,X<X8X8X8X<X2X2X2X2X6X6X2X2X2X2X%X%X&X%X%X%X%X,.Y ;.D.F.H.H.oX,.v c z w * & & # O O # # % * 5 5 w u "
};
