/* XPM */
static char *out[] = {
/* columns rows colors chars-per-pixel */
"64 64 222 2 ",
"   c #2B1608",
".  c #4A2415",
"X  c #5C2C1A",
"o  c #68321E",
"O  c #583F2A",
"+  c #763A24",
"@  c #7E3D26",
"#  c #63432F",
"$  c #6E402D",
"%  c #6A4D37",
"&  c #77523D",
"*  c #7F5D46",
"=  c #814A35",
"-  c #8E4B34",
";  c #96523A",
":  c #865540",
">  c #8C5D46",
",  c #9D5943",
"<  c #955F49",
"1  c #A45E45",
"2  c #89664F",
"3  c #9B644E",
"4  c #916A53",
"5  c #9A6F56",
"6  c #AB644A",
"7  c #A16851",
"8  c #AD6D51",
"9  c #A86D58",
"0  c #B36A51",
"q  c #B76F53",
"w  c #A1765D",
"e  c #A7755C",
"r  c #AE755B",
"t  c #B4715D",
"y  c #B97658",
"u  c #A87B63",
"i  c #AE7D64",
"p  c #B77764",
"a  c #BD7564",
"s  c #B27861",
"d  c #B47F64",
"f  c #BB7E63",
"g  c #C1785B",
"h  c #C87E61",
"j  c #AC836B",
"k  c #BE8466",
"l  c #B3876E",
"z  c #BA876A",
"x  c #BF8B6C",
"c  c #B78C72",
"v  c #BC8E72",
"b  c #C38264",
"n  c #CC8566",
"m  c #C78568",
"M  c #C4816F",
"N  c #C48A6C",
"B  c #CC8C6D",
"V  c #CC8C6E",
"C  c #D18969",
"Z  c #D48C6E",
"A  c #D88F6F",
"S  c #C88973",
"D  c #CC8A78",
"F  c #D08B78",
"G  c #D38E7E",
"H  c #C39072",
"J  c #C69677",
"K  c #C89172",
"L  c #CC9475",
"P  c #CA997A",
"I  c #CF9C7E",
"U  c #D19071",
"Y  c #D09072",
"T  c #D29172",
"R  c #D09273",
"E  c #D39273",
"W  c #D49374",
"Q  c #D59475",
"!  c #DA9472",
"~  c #DD9876",
"^  c #D79778",
"/  c #D1967C",
"(  c #D89778",
")  c #D59A7B",
"_  c #D99878",
"`  c #D9997A",
"'  c #DB9A7A",
"]  c #DA9A7B",
"[  c #DC9B7B",
"{  c #DB9C7D",
"}  c #DA9D7E",
"|  c #DE9D7D",
" . c #DC9D7E",
".. c #DD9D7E",
"X. c #E09E7D",
"o. c #E29F7D",
"O. c #E2A07F",
"+. c #D89380",
"@. c #DD9E80",
"#. c #DE9F80",
"$. c #DF9F80",
"%. c #DD9986",
"&. c #CFA186",
"*. c #D4A082",
"=. c #DFA081",
"-. c #DCA386",
";. c #D8A485",
":. c #D7A88D",
">. c #DCA88A",
",. c #DFAB8E",
"<. c #DFAF94",
"1. c #E0A081",
"2. c #E2A181",
"3. c #E3A181",
"4. c #E0A182",
"5. c #E1A283",
"6. c #E3A282",
"7. c #E4A281",
"8. c #E4A382",
"9. c #E4A383",
"0. c #E5A383",
"q. c #E5A483",
"w. c #E6A483",
"e. c #E5A484",
"r. c #E6A584",
"t. c #E6A585",
"y. c #E7A685",
"u. c #E7A686",
"i. c #E8A786",
"p. c #E8A787",
"a. c #E9A887",
"s. c #E0A58A",
"d. c #E3AC8D",
"f. c #E7AD8F",
"g. c #E8A888",
"h. c #E9A888",
"j. c #E9A989",
"k. c #EAA989",
"l. c #EAAA8A",
"z. c #EBAA8A",
"x. c #EBAB8B",
"c. c #EBAC8C",
"v. c #EBAE8F",
"b. c #ECAC8C",
"n. c #ECAD8D",
"m. c #EDAD8D",
"M. c #EDAE8E",
"N. c #ECAE8F",
"B. c #EDAE8F",
"V. c #EDAF90",
"C. c #EEAF90",
"Z. c #E4B195",
"A. c #E9B193",
"S. c #EDB091",
"D. c #EFB090",
"F. c #EEB091",
"G. c #EDB192",
"H. c #EEB192",
"J. c #EFB192",
"K. c #EFB293",
"L. c #ECB496",
"P. c #E6B599",
"I. c #EAB79A",
"U. c #EEB899",
"Y. c #EEBC9E",
"T. c #F0B293",
"R. c #F0B394",
"E. c #F0B495",
"W. c #F1B495",
"Q. c #F0B496",
"!. c #F1B596",
"~. c #F1B597",
"^. c #F2B596",
"/. c #F2B697",
"(. c #F2B698",
"). c #F2B799",
"_. c #F3B799",
"`. c #F3B899",
"'. c #F2B89A",
"]. c #F3B99A",
"[. c #F3B99B",
"{. c #F4B99B",
"}. c #F4BB9D",
"|. c #F5BB9D",
" X c #F5BC9E",
".X c #F5BD9E",
"XX c #F5BD9F",
"oX c #F1BFA1",
"OX c #F5BEA0",
"+X c #F6BEA0",
"@X c #F6BFA1",
"#X c #F6C0A2",
"$X c #F6C1A2",
"%X c #F6C1A3",
"&X c #F6C2A3",
"*X c #F7C2A3",
"=X c #F6C3A4",
"-X c #F7C3A5",
";X c #F2C4A5",
":X c #F7C5A6",
">X c #F7C6A7",
",X c #F7C8A9",
"<X c #F0CBAD",
"1X c #F4CDAE",
"2X c #F8C8A9",
"3X c #F8C9AA",
"4X c #F8CAAB",
"5X c #F8CBAC",
"6X c #F8CDAE",
"7X c #F9CEAF",
"8X c #F3D1B3",
"9X c #F7D1B2",
"0X c #F0D4B6",
"qX c #F6D4B6",
"wX c #FAD3B4",
"eX c #FAD7B8",
"rX c #F1D8B9",
"tX c #F7D8BA",
"yX c #F5DBBB",
"uX c #FADDBE",
"iX c #F6DDC0",
"pX c #F9E1C3",
/* pixels */
"<.H.r.3.Q N j j e l J I I ,.d.<.<.P.d.P.P.P.P.Y.I.I.I.Y.I.I.P.Y.I.Y.P.I.U.'.L.'.E.E.S.T.J.W.J.N.f.f.g.M.g.l.=.6. .| ' [ ( ` W W ",
",.l.m.w.X.K d j u l P I *.>.<.P.XX#XoXXX*X:X:X:X=X-X%X@X-X&X*XoX#X=X:X:X:X#X+X|.XX|.].K.^.W._.G.G.f.v.v.v.l.h.y.y.2.O.` | [ ` ( ",
"J o.| r.| K j j u z K I I } R Q E E K #.K.+XXX#X*X*X].XX*X-X_. XXX*XoX:X#X*X{.{.{.|.K._.!./.V.F.C.V.u.y.p.V.9.8.2.3.| ` | | Q ( ",
"v ~ ! ~ Q x d j d x P x p 7 ; : > : : < x s.L.|.@X-X@X+X*X@X).).|.XX#XoX=X}.{.).|.].V.S.^.W.n.V.K.n.t.y.l.l.X.X.e.1.w.( | ( ^ ( ",
"z | _ ~ Z K d z k P z > $ $ o X . X X # & 3 k ) e._. X@XXX@XQ.~./.%X*X:XoXXXW._.~.|./.W.c.~.G./.K.F.g.l.9.a.O.t.X.w.8.3._ ] ( ` ",
"z [ ~ ! A N k x K k < : 4 l J v w : = : > < 9 f R e.).|.+X].V.V.K.@X=X XXXK.G.G._._.XX_._.|.|.W._.C.F.c.r.q.3.O.a.a.y.8.} ` ` ` ",
"z X.A ! A n y k V f s I L.Y.I.=XoXP.I J K x p b Y  .5././.|.x.V.V.@XoX#X'.L.j.M.K.@XoX&X$X-X[.`.~.T.u.x.5.g.3.y.u.c.7.9.=.5.`  .",
"z | A Z C n y b ^ ) v.Q.|.|.@X}.%X=XY.L.v.y.^ R ] ] ` j.|.W.V.x.).~._.W.K.l.e.j.M.].].|.=XoX X|.W.v.5.) ` ` ` X...{ { `  .] ] ] ",
"l ` Z Z C B m ^ u.D.V.K.B.W._. X_._.U.'.A.M.a.9. .O.1.M.D._.E.K.N.W.n.c.a.9.5.u.h.F.W._.L.A.;.L x k 9 7 7 9 9 f p y f m m U ^ ..",
"z ^ A C A C U y.x.x.c.c.c.j.f.d.A.G.v.f.v.e.9.#.=.5.y.j.~.~.W.T.T.V.F.V.9.` Q ` =.e.V.e.R p < = $ o X X X X X $ : : 3 9 f k m N ",
"v ` C C A Z U a.y.l.e.y.Q R e.U.'._.g.f.u.5.V V Y 1.O.x.W._.x.V.J.W.n.V.X.V n S Y ^ Y m 8 > @ $ X X . . . . . X $ = $ - > 7 3 7 ",
"J ^ C C C n Y y.l.e.8.U b v.XXXX#X'.L.v.D.9.U b g n ` 7.F.^.n.l.C.m.n.j.1.b k k m m f 8 < = + o $ $ o $ & & > < 3 > = : : : - - ",
"x ) U Z C n R D.V.l.' b ` XX'.U.-.} ) *.` { A n t y V | w.D.T.D.c.c.x.c.' b f f b f 8 6 - - @ = : < 7 s k R ) { Q K y t 9 3 - - ",
"x P ) Y V m U M.T.c.Q m d.A.K 7 = $ o O $ > 9 y g y m Q ..l.W.K.T.M.x.u.` C k t y 8 1 , ; ; ; ; 7 r m V Q ^ Q ` { ` Q Y V N p 1 ",
"K *.R R L N V y.F.K.R Y ) 5 . . . O & .   . X @ > 1 t m _ a.G.oXXX{.n.u.@.U f y 8 6 ; - - - @ @ - 7 y N m k s t t y t k Y Q N k ",
"*.*.I I I K V ` f.j.R f < .   . . O #       . X + + - t _ w.W.:X5X%X/.B.a.Y y 6 1 < - = = o o : p N K R E V m b k 8 , ; 1 f N N ",
"I *.*.*.I P ` Q V b t ; ; < > > & & O .   . O & o $ + - _ a.'.9X7X5X@X_.x.Y 6 , , ; @ @ o X = < : o # O . # & < 7 9 7 7 = + 7 k ",
"*.*.;.;.;.s.e.Q n y 0 y { C.e.s.R k 7 : * : 4 5 < : ; 1 y.W.@X9XuX9X2X_.y.b 1 , 1 - @ @ o X + o + . . .           . . X # X o 9 ",
"*.;.I *.;.L.e.5.l.T.u.2.' b.l.W.K.M.1.} } / m B Z E Q 3.T.*XoXwXwXtX#X~.#.y , , 6 , , t 8 8 8 s d l 4 & X . . . .     . . . . $ ",
"*.*.*.*.;.Y.v.D.{.W.^.C.W.x.w.8.8.| ! A ( A A A ! Z n ! ~.=X2X7XtX9X=XK.@.g 1 1 y n m Q y.5.'  .X.X...R k s r s 9 > : = = o X = ",
"*.*.*.I ) -.=.l.V.~._.+X_.W.1.A Z A A ' ! Z n h q q n W.%X:X6X9X5X5X@XD.Q g 0 y g U X.w.8.w.Q U m _ ..{ A Z C C b m k m b k b y ",
">.;.;.;.} { Q 8.T./._. X@X-X|.w.A g q 0 0 6 6 6 b s.=X2X2X2X7X5X5X:X].5.V h h n C C | k.k.l.x.8.U y 8 6 q q 0 6 0 g g g g 0 1 - ",
",.d.;.>.s.u.Z y.`.|.W.*X2X5X#X X XW.| ! Q ^ { L.:X7X2X2X5X7X5X7X7X:XM.[ n n n ! | w.X.a.l.c.a.~.~.V.Q b t 6 , , , ; - = = - , y ",
"d.s.>.;.s.e.O.M.`._. X@X5X9X5X&X:X+X|.|.@X:X:X2X2X2X3X3X9XwX6X5X5XoXj._ Z n Z A X.t.w.y.D.a.a.M. X|.~._.*X_.d.-.) R U Q 1.w.w.8.",
"-.>.;.-.s.T.y.T./. X@X7X7XtXwX7X#X@X|. X@X4X5X2X%X:X5X9XqXuXtX9XoX_.a.| A C n n h C C ! ~ k.F.T.)._.W.|.@X:XoX*X].].W._.n.D.l.l.",
"d.s.d.s.e.y.y.T.|.@X2X5X9XtXtX6X5X@X].XX2X3X7X:X=X2X6XwXtXpXpX3X XW.z.w.y.| C y g q 6 1 0 h 1.M.K././._.@X=X-X#X@X_._.W.D.x.a.y.",
"N.n.s.d.u.a.9._.@X2X:X7XwXpXtXwX4X:X|.:X5XwX5X5X5X2X:X7XtXpXuX3X XW.c.x.T.c.A g y n n h 1 , 8 U T.|.W.|.@X2X=X:X2X@XT./.K.W.3.9.",
"N.g.s.s.v.D.M.`.*X2X2X3XtXuXuXeXwX4X2X2X5X5X5X:X:X:X2X5XuXpXtX2X@XW.D.~.|.l.! h h _ 2.| ! 0 - , m 5.K._.*X2X:X*X2X@X_.K.W.M.y.8.",
"t.9.5.s.e._.B._. X:X:X9X5XwXtXuX9X5X5X5X:X*X~.j.y.|.:X9XeXpX9X5X XXX[.XXV.! h g C 7.y.8.A g ; ; ; t U l.W..X#X@X].]./.~.n.D.w.i.",
"q.5.5.@.9.n.n.T.+X@X-X2X3X5X:X2X@X X|.D.l._ h g X.XX2X9XtXuXwX6X3X%X#XW.Q y 8 8 y g g g 0 6 6 8 6 1 8 B e.V.~.~.~.G.D.V.M.i.i.y.",
"e.w.@.#.8.F.y.B._.*X[.|.*X*X~._.T.x._ C g 1 , Q @X5X2XwXpXpXpXpXwX5XK.Q t , @ + + + + @ ; 1 0 y y g 6 8 m o.3.b.C.D.9.t.a.z.O.l.",
"t.O...@.y.B.l.k.W.~._.|.|.].V.y.8.Z g 1 - , / #X9X7X7XtXpXpXpXtX9X#X` t ; + o + + + + - ; ; , 1 0 q y 8 0 g U [ 8.y.| X.w.y.w.y.",
"#.=.} #.7.W.b.M.a.T.W._.W.D.O._ n y ; - 1 #.Y.9XeXeXwXtXtXuX7X#XI.s.y ; @ + + + o o + @ @ - - ; ; 6 0 0 6 1 8 m Q ^ Q } ` 5.2.a.",
"=.| o.1.5.b.V.l.l.u.M.M.M.3.A h 0 ; = 1 .. X3X9XeX9XwX7X5X*XL.} Y t , @ @ + + + + o + + @ = - @ @ - ; ; ; ; ; < f V Y Y Q ^ ` Q ",
"5.1.^ @.y.x.a.0.7.i.8.y.3.A g 0 , - ; V j.*X3X7X7X5XI.'.oXXXu.Y 6 , - = - = @ @ @ @ @ - - ; @ + @ = = - - = + = - p V Q Q Q K L ",
"{ ` ` ^ #.w.w.X.X.| 5.1.! n q 1 ; ; f ^ V.oXXXd.A.d.9.8.x.c.5.R y 1 8 k b 1 , ; - - - ; , 3 ; = - - - - - @ + + + = p ^ | R m V ",
") ^ Q ) ` #.O.| A ~ | | C g 1 , ; 8 Y { u.f.R k b Q Q U b k t , - ; t E B f 8 1 ; ; - - ; ; < - ; ; - ; ; : = & + + = t Y T Y L ",
"Q E / E ` ] | ! Q A _ A m 0 1 , 1 b R R } R f 8 y b N k 8 1 3 - ; b Q _ ( C b q 1 , ; ; , ; 1 ; ; ; , , , 7 < - $ @ $ = 8 B U Y ",
"Y L S K R ..( Q ( Z C C b 8 1 1 1 N x m R k 8 6 8 b k b 8 8 1 6 B T.n.a.| _ n g q 0 1 6 y y 0 0 0 0 1 6 6 8 3 , - @ + @ - b B ^ ",
"N m N N R 1.| ! ` A n m m t 1 , 6 N k k N y 8 8 y b n n b b b Z $.y.l.c.a._ C n n h g g n n n b g 0 0 0 0 6 6 3 < = + @ = 6 V ^ ",
"k k k x K 5.y.y.X.Z g y m b 8 1 1 N m k p p 8 t q g h n C _ [ | A ^ _ .._ Q C C h h g g y g h y 6 6 1 6 1 1 1 3 - - @ - , 1 U =.",
"z k k k R 5.x.a.y.Q b 8 N V k t t K m 9 3 7 3 , , 1 8 y n C n n n n n h g g 0 6 1 , , , 6 1 ; - = = = = @ @ + + + @ < 6 6 1 R #.",
"z x d x R u.f.G.C.9.b 8 b ] Y f p K k 8 1 ; + @ - , 1 8 q q 8 0 q y 6 6 0 y 0 0 0 8 6 0 8 6 ; ; ; - @ - - - = - - 6 b Y m t Q ..",
"z k k k R u.R.W.~.c.Q y f ` @.U m B m y p t 8 8 y g g h Z C D D G G D ` %.( F F G D M b M g a y y 6 0 8 0 6 6 1 y Q | X.m b ` ^ ",
"s x x x K s.v.~.~.T.9.m 8 N { #.Q ^ Y U B U U U h h Z %.%.%.+.%.^ @.+.#.-.%.G D b M g y y y t y y y y y 6 0 q b { l.X...b Y ` / ",
"k x J H K -.V.Q.).).T.R r y E #.=.` ^ Q ~ ~ | Q Z h n U Q B V G G G D M D M f r 9 7 3 7 8 7 1 8 0 8 8 6 6 q n O.D.y.[ B b =.5.R ",
"P *.R I K *.j.~.'._.F.u.m f k @.#.5.! R A | ! ' ! C y t t t 6 s t s 9 7 9 9 7 3 3 3 > > < 3 < 7 9 t 0 6 8 m ' K.M.9.Q f m 9.Q K ",
"P I I ) ) ) u.K.!./.W.v.R p f V q.w.X.~ | | ~ _ ! n y y t 9 8 8 p s s r r 9 9 7 7 < > > 3 3 < 7 7 8 8 8 b ` f.v.u.1.V q R { B k ",
"L ;.;.;.*.} } v.N.V.F.v.} p t k ' i.0.w.o.O.' ' Z g y f t t 8 y y f f k p s 9 7 < < > < < 7 7 9 7 8 8 b E v.V.f.5.X.f b ! Q k k ",
"I ;.*.*.*.I I s.u.u.g.g.u.k 8 t ` 3.w.8.3.| ` ' Z h b f f f m Y N V m N k s r 9 7 < > 3 9 s f f p p b E x.S.A.g.d.R y B Q k k K ",
"*.>.&.;.;.*.L x K -.) -.5.R y b Y 8.3.3.a.y.~ ' ! n b b Y [ 6.y...{ Q E N m s s s s 9 d m K Y V V Y Y u.W.A.d.c.#.m b A N k k L ",
"*.;.;.;.>.I x 5 l ;./ R e.#.^ ' [ 8.6.9.O.a.[ ! E U m U j.D.x.t.g.w.s.#.5.} R R ) / / ` 5.5.@.] ] ` 5.v.A.d.,.s.Y m m N k k x k ",
"P ;.-.;.;.I e 4 4 z J *.1.w.u.n.o.w.7.5.X.8.` _ | 3.y.T.V.W.j.u.9.9.j.n.d.d.u.d.u.d.d.s.} { { ` / #.d.d.s.s.u.` m B m k f K L ) ",
"J ;.:.;.;.J 5 * & 2 e R h.N.W._.7.1.l.l.3.2.| ' y.j.)._.K.N.N.l.j.u.f.v.A.d.d.>.d.f.,.#.) ^ ` } #.5.s.#.s.-.#.Q Y N b K L R } / ",
"v *.*.*.I v w * & 2 2 d d.}.'.|.f.9.b.C.9.O.2.5.d.c.c.|.|.}.S.`.K.W.A.U.Y.#XI.Y.L.L.-.} ` ` } 5.4.5.` @.s.-.R R V k p K K ) #.-.",
"l P I I I z 2 % & 2 * w ;.&XOXoX`.y.w.j.9.O.#.u.V.V.G._.&X#XXXoXXX=XoXoX,X:X:XY.s.d.s.} $.] } @.#.@.` s.g./ R k k x x x K } s.d.",
"w H P *.P d * % & & * w x =X2X:X'.n.8.c.9.y.e.H.f.V.G.'.}.@XoX=XoX:XI.U.Y.#XoXv.} s.5.` ^ ] [ @.) #.} s.} *.x r r L K K H *.-.>.",
"w z P I x e & # & % * 5 z Y.6X:X}.v.e.2.y.l.c.H.V.T.H.G.S.K.G.v.'.U.v.l.G.G.v.5.2.' ( ^ ` 4.e.s.d.s.} *.P P x e 7 r k J P I z s ",
"5 5 v v l 5 # # % & & 2 r P.5X5X}.D.O.5.V. XR.W.W./.c.S.S.F.w.5.5.t.=.w.9.2.( ] ] #.] { @.x.v.W.K.;.k l J H d e : 3 9 d d w 4 4 ",
"% & 2 4 j 5 % # # % & > 7 d.6X5X}.5.u.~.,X=X@X].+X|.F.N._.K.g.5.t.@.` E ( ^ ` ` { 5.e.( s.G.W.).d.P d 5 u w 5 5 : $ > > > < 2 > ",
"O O # * 4 4 & O # # % > 7 c.4X5X;.A.=X5X4X7X7X2XOX$X#X@X].~.H.W.B.g.X.Y Y Q ^ #.O.g.5.u.D.].XXU.I z l w 2 * : 4 % # > 3 3 w 7 i ",
"O O O % * 2 & O O O % = f ).7XwXtXtXqX9XwXtXuXyXtX7XwX7X7X:X+XXX.X_.s.E R / ^ ] 5.s.v.(. X@X_.*.H d w 5 > * & & # # < 7 s d f z ",
". . . # % * & # . O $ < @.OX3XtXiXpXyXtXtXiXyXpXpXpXqXtXyXeX:X:X>X5XoXZ.*.Y S { v.~.H.OX:XoXI H x w * * & & O O O # & < 9 r r s ",
". . . O # & % # . X # d d.=X8X8XtXyXyX8X0X0X0X0XrXrX0X0X0X0X<X<X1X<X<X<X<X<.I >.P.I.Y.oX;X<.v c l w * & & # O O # # % * 5 3 w u "
};
