/* XPM */
static char *out[] = {
/* columns rows colors chars-per-pixel */
"64 64 217 2 ",
"   c #2B1608",
".  c #4A2415",
"X  c #5C2C1A",
"o  c #68321E",
"O  c #583F2A",
"+  c #763A24",
"@  c #7E3D26",
"#  c #63432F",
"$  c #6E402D",
"%  c #6A4D37",
"&  c #77523D",
"*  c #7F5D46",
"=  c #814A35",
"-  c #8E4B34",
";  c #96523A",
":  c #865540",
">  c #8C5D46",
",  c #9D5943",
"<  c #955F49",
"1  c #A45E45",
"2  c #89664F",
"3  c #9B644E",
"4  c #916A53",
"5  c #9A6F56",
"6  c #AB644A",
"7  c #A16851",
"8  c #AD6D51",
"9  c #A86D58",
"0  c #B36A51",
"q  c #B76F53",
"w  c #A1765D",
"e  c #A7755C",
"r  c #AE755B",
"t  c #B4715D",
"y  c #B97658",
"u  c #A87B63",
"i  c #AE7D64",
"p  c #B77764",
"a  c #BD7564",
"s  c #B27861",
"d  c #B47F64",
"f  c #BB7E63",
"g  c #C1785B",
"h  c #C87E61",
"j  c #C07B6B",
"k  c #AC836B",
"l  c #BE8466",
"z  c #B3876E",
"x  c #BA876A",
"c  c #BF8B6C",
"v  c #B78C72",
"b  c #BC8E72",
"n  c #C38264",
"m  c #CC8566",
"M  c #C78568",
"N  c #C4816F",
"B  c #C48A6C",
"V  c #CC8C6D",
"C  c #CC8C6E",
"Z  c #D18969",
"A  c #D48C6E",
"S  c #C98270",
"D  c #C88973",
"F  c #D08B78",
"G  c #C39072",
"H  c #C69677",
"J  c #C89172",
"K  c #CC9475",
"L  c #CA997A",
"P  c #CF9C7E",
"I  c #D19071",
"U  c #D09072",
"Y  c #D29172",
"T  c #D09273",
"R  c #D39273",
"E  c #D49374",
"W  c #D59475",
"Q  c #DA9472",
"!  c #D79778",
"~  c #D1967C",
"^  c #D89778",
"/  c #D59A7B",
"(  c #D99878",
")  c #D9997A",
"_  c #DB9A7A",
"`  c #DA9A7B",
"'  c #DC9B7B",
"]  c #DB9C7D",
"[  c #DA9D7E",
"{  c #DE9D7D",
"}  c #DC9D7E",
"|  c #DD9D7E",
" . c #E09E7D",
".. c #E29F7D",
"X. c #E2A07F",
"o. c #D89380",
"O. c #DD9E80",
"+. c #DE9F80",
"@. c #DF9F80",
"#. c #D99E87",
"$. c #D4A082",
"%. c #DFA081",
"&. c #DCA386",
"*. c #D8A485",
"=. c #DCA88A",
"-. c #DFAB8E",
";. c #DFAF94",
":. c #E0A081",
">. c #E2A181",
",. c #E3A181",
"<. c #E0A182",
"1. c #E1A283",
"2. c #E3A282",
"3. c #E5A382",
"4. c #E4A383",
"5. c #E5A383",
"6. c #E6A483",
"7. c #E5A484",
"8. c #E6A584",
"9. c #E6A585",
"0. c #E7A686",
"q. c #E8A786",
"w. c #E8A787",
"e. c #E9A887",
"r. c #E0A58A",
"t. c #E3AC8D",
"y. c #E7AD8F",
"u. c #E8A888",
"i. c #E9A888",
"p. c #E9A989",
"a. c #EAA989",
"s. c #EAAA8A",
"d. c #EBAA8A",
"f. c #EBAB8B",
"g. c #EBAC8C",
"h. c #EBAE8F",
"j. c #ECAC8C",
"k. c #ECAD8D",
"l. c #EDAD8D",
"z. c #EDAE8E",
"x. c #EEAF8F",
"c. c #EDAF90",
"v. c #E4B195",
"b. c #E9B193",
"n. c #EDB091",
"m. c #EEB090",
"M. c #EFB090",
"N. c #EDB192",
"B. c #EEB192",
"V. c #EFB192",
"C. c #EFB293",
"Z. c #ECB496",
"A. c #E6B599",
"S. c #EAB79A",
"D. c #EEB899",
"F. c #EEBC9E",
"G. c #F0B293",
"H. c #F0B394",
"J. c #F0B495",
"K. c #F0B496",
"L. c #F1B596",
"P. c #F1B597",
"I. c #F2B698",
"U. c #F2B798",
"Y. c #F2B799",
"T. c #F3B799",
"R. c #F3B899",
"E. c #F2B89A",
"W. c #F3B89A",
"Q. c #F3B99A",
"!. c #F3B99B",
"~. c #F4B99B",
"^. c #F4BA9B",
"/. c #F4BA9C",
"(. c #F4BB9C",
"). c #F4BB9D",
"_. c #F5BB9D",
"`. c #F5BC9E",
"'. c #F5BD9E",
"]. c #F5BD9F",
"[. c #F1BFA1",
"{. c #F5BEA0",
"}. c #F6BEA0",
"|. c #F6BFA0",
" X c #ECC4A7",
".X c #F6C0A1",
"XX c #F6C0A2",
"oX c #F6C1A2",
"OX c #F6C2A3",
"+X c #F7C2A3",
"@X c #F6C3A4",
"#X c #F2C4A5",
"$X c #F7C4A5",
"%X c #F7C5A6",
"&X c #F7C6A7",
"*X c #F7C8A9",
"=X c #F0CBAD",
"-X c #F4CDAE",
";X c #F8C8A9",
":X c #F8C9AA",
">X c #F8CBAC",
",X c #F8CCAD",
"<X c #F8CDAE",
"1X c #F9CEAF",
"2X c #F3D1B3",
"3X c #F7D1B2",
"4X c #F0D4B6",
"5X c #F6D4B6",
"6X c #FAD3B4",
"7X c #FAD7B8",
"8X c #F1D8B9",
"9X c #F7D8BA",
"0X c #F5DBBB",
"qX c #FADDBE",
"wX c #F6DDC0",
"eX c #F9E1C3",
"rX c #FBE5C7",
/* pixels */
";.h.%.+./ $./ =.=.h.v.b.Z.Z.-.;.-.-.-.v.;.A.;.A.v.A.y.;.-.;.-.-.=.r.&.&.*.=.*.&./ [ / ) T ~ W / C T T / ~ ~ J R D C C R U E U C ",
"*.u.r.P P $.&.&.v.y.v.v.S.Z.Z.;.;.;.;.v.S.S.A.Z.Z.v.y.y.;.r.r.r.r.-.&.#.&.r.&.&.[ ` ` ` ` / ` ! / K K ~ ~ K T C U U I U W Y R U ",
"H =.L H $.*.P =.;.v.;.Z.b.L.v.v.b.v.;.v.A.A.y.b.b.Z.y.b.y.y.r.y.y.y.<.&.t.y.&.r.<.<.^ ' +.7.[ O.[ $.K L L H B J C C m U W ( V E ",
"G P K H L P $.=.;.;.;.b.L.Z.;.;.Z.v.;.y.A.b.y.y.b.b.b.h.y.y.n.n.n.g.s.s.n.g.p.0.0.1.} { <.1.<.<.r.$.P L L G B M C V M M V V m V ",
"H P L P &.y.y.b.;.;.Z.I.y.J.b.Z.h.Z.b.Z.Z.I.Z.I.J.Z.h.N.n.J.b.b.y.V.f.y.p.f.p.f. .,. .:.' <.O.r.&.&.P [ K K B M M C m V M m Z A ",
"P &.P t.J.I.E.E.E.(.(.(.(.E.E.Z.(.(.E.E.E.L.I.L.I.L.I.P.N.M.P.h.V.V.z.f.s.s.s.,.@. . .{ | O.O.+.%.#.[ ~ ~ C V m V V V m Z m m Z ",
"r.b.y.~.(.(.J.I.~.(.Z.E.E.(.Z.I.P.(.Z.I.I.W.K.E.!./.N.K.n.K.g.c.c.G.u.p.a.f.4. .,.2.` +.{ @.) { @.O.T K U U n M M V h m m Z h m ",
"Z.I.E.E.'.^.P.Z.E.E.P.K.W.~.P.P.`.W.W.I.'.^.Y.K.!.I.K.Z.M.g.s.s.m.s.u.0.s.f.5.:.:.} _ ^ @.} ..' <./ T C C D n n M n n h m M m h ",
"h.L.Y.~.I.'.^.].P.~.I.I.E.~.~.I.K.P.P.W.Y.^.Y.Y.P.I.L.P.n.h.s.n.u.p.u.d.p.M.0.6.' O.` { } %.+.>.) ! C C V V M M h n n n h h h g ",
"P.P.~.I.)._.).K.K.L.V.L.!.~.Q.Z.I.B.P.P.~.K.I.L.I.W.L.L.P.h.h.V.g.u.0.s.x.h.s.9.:.} | ' +.<.O.+.! R C V V M h h h g g g g g h g ",
"P./.Z.E.^.'.P.Y.C.K.s.Z.I._.b.h.C.n.J.I.Y.|.E.).~.}.Z.P.I.!.y.n.p.s.7.s.c.V.0.0.1.1.) O.1.1.` O.` ! V V M M y f y a y a g n g g ",
"r.t.h.K._.!.P.M.J.M.h.J.~.P.n.y.Z.h.C.P.oXOXoX'.;X|.P.P.Z.u.O./ 1.&.^ / O.:.O.] { } | { +.>.] ) } R V M M l y y f y y y n g g g ",
"7 l P t.h.z.L.V.g.z.n.I.C.h.y.u.0.s.z.(.(.OX{.OX{.D.t.&.l d r r r s r s y B D C T W ^ } } +.] O.! W V D n f y f y y y g y g g n ",
"= < f T 1.s.V.l.g.s.z.N.M.y.0.7.7.0.g.C._.L.b.&.c r 3 : $ $ o X o $ = : < 9 r s y y n C ! ! ! ! ~ R V n n f y y y y g y g g y g ",
"3 7 8 l R p.0.k.k.p.0.d.z.0.^ `  .0.1.h.n.1.l 8 > + o X . . . . X $ + = - > > , 3 3 , 9 f M n B J C n l f f q y q q 0 q q y 0 q ",
"c d y f C ) 0.p.k.w.0.0.f.5.Y C W W W ` ] n 7 - & + o X o $ + : e d d e 9 7 7 7 3 , ; , 3 9 7 9 r r 8 8 r 8 0 8 t 0 8 6 0 0 6 6 ",
"B f r f C ` <.s.7.u.0.u.0.q.m M n m D D n t ; : + @ @ - < s l / O.t.1.+./ W U B s 8 < 3 3 7 3 7 3 3 3 < , 7 6 6 1 1 1 6 1 6 6 6 ",
"! l t 8 n I @.6.w.2.6.9.a.:.C f f f l f t 6 ; - - - 1 8 n T ] O.<.<.+.<.1.1.+.+.] U l y t 8 7 3 3 3 3 < < , 1 1 1 6 6 6 8 8 8 0 ",
"9 8 8 8 8 M C @.0.w.] 4.w.5.U M l f t t 8 6 ; ; , 1 , 9 n I D D B C l n D T C W ' ` C U C l 8 9 7 7 3 7 7 7 6 8 8 8 6 8 t y 8 t ",
". X $ - 6 y M W s.n.u.9.s.1.) V D f q 1 7 , ; - - = , f ` r.r.O.:.^ C l y 1 , 9 n C C C E M l y f y t t f y 8 0 t 8 8 y n g g g ",
"  . . o + - y U 5.(.L.Z.g.s.` E n y 8 7 , - = @ $ , f D l H ~ W ~ T C D f r , = - t D T U R m n n M l n l f y p t y y f g n f m ",
". . # & + $ @ M 5.|.;XOX(.V.1.T y 6 1 1 - = @ o = , > $ X # X # $ * < < < 3 < > @ @ s W T m n f n n n n M n g y y f y n M M m m ",
"3 e r t 9 3 , V g.;X1X>X|.W.0.V 0 6 1 , - - @ $ + @ + o . .       . . . . . . . o $ : 8 1 8 8 g m Z C W W W V n g f q t y t 8 t ",
"/ E V Z W '  .0.E.>X6X>X;XE. .f q 0 q 1 t M n t n n l l u 4 & $ $ & & & & : + o $ = , , 8 f U ( ,.,. . .4.O.Y y t 6 1 7 8 8 r t ",
"C E C A Z Z Z n.|.1X1X6XOXL._ f 0 q h V V ,.9.5._ { { :.1.[ Z M n C m n y f y n n n y 6 q C ( ` C W W ` ^ W n y 8 9 8 r s f f n ",
"A m g 0 0 h s.|.;X>X1X>XOXh.W f y y A  .5.9.z.0._ Y C W ` _ W m h g g m E _ { A g , ; y _ 0.0.6.2.` R U T W ( C f 8 9 8 r r t r ",
"0 8 6 f +.OX%X;X>X>XOXOXE.1.A M m C Z ( M.V.s.j.z.u.C g 8 q 6 0 0 0 8 q q 0 , ; ; 8 m 5.s.p.0.7.0.q.'  .5.9.' ^ l s 3 9 9 r 8 y ",
"h.b.Z.oX>X>X&X%X1X1XOXE.g.( A A { { {  .M.z.j.s.P.K.J.z.s./ M f t 8 1 1 6 8 t V 5.V.z.s.M.w.O. .8.4.3.3.0.e.6.W M y 8 8 t r y y ",
"OX;X>X>X&X>X&X6X;X,X|.V.' E A Q ' 0.g.z.s.z.s.z.L.L.T./.~.P.|.OX(.|.J.Z.Z.(.I.E.V.~.J.L.f.j.3. .( 2.q.0.8.e.,.^ n y t y t f f n ",
"OX>X1X1X;X,X>X,X6X%X~.0._ A A A _  .w.9.0.z.f.j.V.P.~.T.W./.|.|.%XXX{.{.|./././.U.M.G.V.M.f.i.3. .' { 3.8.3.{ W n y t y M n M D ",
"6X3X>X1X<X6X6X9X6XOXz.0. .W Z Z Z m g h g h A 0.L.U.P.P.W._./.OX:X,XoXOX%XOX~.W.I.G.w.s.z.j.5.e.5.@.( { 4.>.W W V M t n m V M Z ",
"6X1X1X>X,X>X9X5X>X(.K.s.0.@.E h h h m m g 8 1 y ( s.G.L.`._.{.%X:X:X%X&X>X&X{.T.I.V.s.a.V.j.f.6.f. .( ` <.] W U U M f n U V V V ",
",X1X>XOX@X>X6X6XoX`.K.V.f.z.' Z g Z  .5.{ A 8 ; , f ( s.W..X].$X%X:X%X&XOX;X~.}.I.M.j.V.j.V.s.k.3.X.` ' ( ! ! W M M f n Z E C T ",
"(.J.0.1.E.>X6X7XOX~.L.M.E.0.^ Z A _ s.s.3.{ h ; - ; 6 n ] s.~._.{.&XOX{.OX|.E.W.L.M.l.j.M.x.f.a.0.@.` ) ` R T R C D n n V E W E ",
" .Z 6 M oX6X,X3X;X|.C.I.V.W g h A  .{ _ A h 8 1 1 8 1 6 f W 6.V.V./.K._.I.~.V.K.V.V.a.l.M.x.8.6.0.<.R ! ~ K K ~ T C y n C T C C ",
"y ; ; &.1X9X9X9X1X%X_.s.C q 6 6 8 1 ; - ; , , 8 g g g y y y M W 5.M.V.M.L.z.d.a.z.j.f.f.z.a.3.>.1./ K K T K K ~ / R C V E E U Z ",
"- - B oX6X9X0XrX7X>Xh.M 1 - + $ + + + @ @ ; , 6 0 q q g g y 0 y C { { 5.9.s.4.w.6.w.w.j.4.9.{ :.] W K K B J ~ / K O./ +./ W V A ",
"- y y.;X9X9XrX9X>X(.U 1 - + $ @ @ + + + = = - - , , 6 y y 0 6 7 8 y C ( ' ^  .{ X.:.4.:.' ^ ^ ! ` T J C K K ~ ~ / O.+.[ / R Z V ",
", / D.1X3X6X%XoXZ./ 8 - @ + + + + + $ + = = = - - - - , , , : - - ; 6 D ( ` R W ( _ W ( ` ^ U W T J n B K W J K ~ r.[ O./ I m Z ",
"t 1.(.OX%X'.Z.s.R 6 - @ = @ @ @ = @ @ = - - - = @ @ @ - - - = + = = + ; n W ^ ( _ W I I ( R U R T B l l T T K V K / W W W V m m ",
"n 1.+.[ 1.9.1.1.V 8 - , 8 t , - - - - - - , , - - - - - - ; - - @ @ + + = r C O.! ( I E I W E W U B l c D K J C c B J T C m V m ",
"J T f f T R M y 9 - - 6 D C y 1 , ; ; - - ; , , - - - ; ; , , < > > & + + = 3 f I W T U R E W W W C B l B T K B B K H K C V V Z ",
"C B 8 8 l n 8 8 , ; t ^ { W n y 0 1 ; ; ; 1 , 1 , , ; , 1 8 6 8 8 7 - = & = = ; t U V W ( _ E [ ` K l l G K B G G H G K B U m Z ",
"B l 7 9 n n y 8 t y ] s.L.,.W m h q 6 1 6 y g q q q 0 6 0 q q 0 8 8 1 < - = = - , n U W ' _  .` #.K B l B K c c H H J B B C V V ",
"l d 7 r y n y n C ` ' 9.u.3._ E m m h h h m m Z h m g y q y q q 0 q 6 7 ; - = - ; 8 V ( ( ' { 3.O.~ J B c G c G G L ~ B l B M D ",
"l r 3 9 7 7 t m V m Z Z E W A h h h g y y 0 0 0 y 6 1 1 6 1 , , , , , , ; - - , 6 8 m ( ,.{  . .` J C B B D c c G L K J B B M B ",
"l f : + @ = - 1 1 1 6 q q q 1 , , ; - = - - = - = @ + @ @ @ + @ @ = @ - - 6 y n V f n ' :.>.(  .` W M V c B d x G H c B J C l B ",
"f B 9 ; ; 1 1 , , ; ; - - - - - - ; ; ; , , , , , ; ; ; 1 1 6 0 q q 6 6 a W @.( @.m m ( <.@.} _ W J c B c l f f c x B J J J B B ",
"n M l l l D A E Y F F F N D S N j j a N j N j N j a g g g g g a y g g Z @.z.s.0. .Z C ,.,.7.{ W V B l c f d d c x f c B J ! ~ U ",
"O.M B K R m A ' ( o.o.] O.o.o.o.F N j j a t a y q t y g y g g q q g Z ,.J.j.0.8.` m E @. .@.( V B n l f d d l x d l G B P / [ ~ ",
"r.&.n K ( R M Z B B f M D N y a t r 7 3 3 7 3 7 7 9 7 q q y q q y m ^ z.n.n.0.7.E m U @.,.] C V C m f r r l d d f c G P $.[ J C ",
"$.=.K B / ^ U M f r 9 8 r 9 9 8 9 9 3 < < < > < 7 9 7 9 q t t y n R 0.h.K.K.g.5.Y M W '  .W B V C B f 9 r c x f c G H H $.~ J J ",
"L $.K B T ] ` V y 8 9 8 8 y y f t r 9 9 3 3 < 3 < 8 r s y f l n C +.h.Z.b.Z.h.0.U R ` ^ U R C C V B s 9 s c H H c J H K K $.[ / ",
"H $.$.H J ` ^ C n 8 8 8 r B C C D n d r 9 7 9 r s n C C R R T R :.9.z.h.b.b.s.:.^ W ( C Y R C C T B r 9 d i d L G c B J K / &.&.",
"b $.L H c ~ ~ U m f 8 8 y ] O.[ ` R J R T T J P &.t.1.t.t.s.O.1.4.u.%.u.y.h.+.1.[ ] W T ^ ( C R C B r s e 7 9 c K B c c L #.&.t.",
"z L P G d c J K U M y y T 5.9.<.<.| [ 1.t.O.1.y.J.Z.y.y.b.b.s.1.4.t.r.9.y.1.r.] @./ / R <.` ! T T l f x x u 9 r B ~ J B ~ $.r.&.",
"w G L L d r e l B ' I I T :.1.w.e.k.g.V.M.n.J.I.'.oXD.!.E.Z.1.r.] %.O.0.<.@.[ 1.` ] [ 1.<.<.) ) C d d x i u e r r B K K K &.$.P ",
"w x H H d 5 * 3 u ~ 9.5.w.9.e.9.u.M.E.H.(.`./.{.%X{.OX@X~.Z.r.t.7.<.+.^ ^ ! ] O.O.%.9.p.h.r.&.) G u d b k i i e < 9 d B P G i e ",
"5 5 b x d 5 # & 4 d B s.'.U.9.u.a.k.g.H.!.'.L.J.P.E.D.D.b.C.7.i.0.u.^ ^ ^ } ) +.1.t.1.c.C.K.#.P G i 4 x b z e e = > 7 r 7 4 4 5 ",
"% & 2 4 u 5 % # & * 5 l oX*XC.g.p.0.g.C.I.W.n.y.k.y.u.9.9.0.3.:.O.' / ! } ` +.1.%.O.u.G.E.W.y.P G d 5 5 u 5 3 7 & # > : > < < 4 ",
"O O # * 4 4 % O # % * 3 P ,X&Xt.*.!.XXOX{._.~.^.C.L.n.z.u.0. .:.W W Y W W O.%.u.@.+.h.P.R.XXb.P G i k 4 4 > * 4 # # > 3 3 9 7 d ",
"O O O % * 2 * O O O & > C $X1X X3X3X>X1X6X9X9X1X,X>X<X&X|.(.!.!.C.r.E T W W ) O.1.s.C.P.oXoXy.H G e w 4 4 * & & # # < 7 r d f x ",
". . . # % * & # . O $ < O.{.:X9XwXeX0X9X9XwX0XeXeXqX5X9X0X7X%X%X&X>X[.b.$.K D ] h.P.Z.{.%XF.P G c w * * & & O O O # & < 9 r r d ",
". . . O # & % # . X # d t.+X2X2X9X0X0X2X4X4X4X4X8X8X4X4X4X4X=X=X-X=X=X=X=X;.P =.A.S.S.#X#X;.b v k w * & & # O O # # % * 5 5 w u "
};
