/* XPM */
static char *out[] = {
/* columns rows colors chars-per-pixel */
"64 64 218 2 ",
"   c #2B1608",
".  c #4A2415",
"X  c #5C2C1A",
"o  c #68321E",
"O  c #583F2A",
"+  c #763A24",
"@  c #7E3D26",
"#  c #63432F",
"$  c #6E402D",
"%  c #6A4D37",
"&  c #77523D",
"*  c #7F5D46",
"=  c #814A35",
"-  c #8E4B34",
";  c #96523A",
":  c #865540",
">  c #8C5D46",
",  c #9D5943",
"<  c #955F49",
"1  c #A45E45",
"2  c #89664F",
"3  c #9B644E",
"4  c #916A53",
"5  c #9A6F56",
"6  c #AB644A",
"7  c #A16851",
"8  c #AD6D51",
"9  c #A86D58",
"0  c #B36A51",
"q  c #B76F53",
"w  c #A1765D",
"e  c #A7755C",
"r  c #AE755B",
"t  c #B4715D",
"y  c #B97658",
"u  c #A87B63",
"i  c #AE7D64",
"p  c #B77764",
"a  c #BD7564",
"s  c #B27861",
"d  c #B47F64",
"f  c #BB7E63",
"g  c #C1785B",
"h  c #C87E61",
"j  c #C07B6B",
"k  c #AC836B",
"l  c #BE8466",
"z  c #B3876E",
"x  c #BA876A",
"c  c #BF8B6C",
"v  c #B78C72",
"b  c #BC8E72",
"n  c #C38264",
"m  c #CC8566",
"M  c #C78568",
"N  c #C4816F",
"B  c #C48A6C",
"V  c #CC8C6D",
"C  c #CC8C6E",
"Z  c #D18969",
"A  c #D48C6E",
"S  c #C98270",
"D  c #C88973",
"F  c #CC8A78",
"G  c #D08B78",
"H  c #C39072",
"J  c #C69677",
"K  c #C89172",
"L  c #CC9475",
"P  c #CA997A",
"I  c #CF9C7E",
"U  c #D19071",
"Y  c #D09072",
"T  c #D29172",
"R  c #D09273",
"E  c #D39273",
"W  c #D49374",
"Q  c #D59475",
"!  c #DA9472",
"~  c #DD9876",
"^  c #D79778",
"/  c #D1967C",
"(  c #D89778",
")  c #D59A7B",
"_  c #D99878",
"`  c #D9997A",
"'  c #DB9A7A",
"]  c #DA9A7B",
"[  c #DC9B7B",
"{  c #DB9C7D",
"}  c #DA9D7E",
"|  c #DE9D7D",
" . c #DC9D7E",
".. c #DD9D7E",
"X. c #E09E7D",
"o. c #E29F7D",
"O. c #E2A07F",
"+. c #D89380",
"@. c #DD9E80",
"#. c #DE9F80",
"$. c #DF9F80",
"%. c #D4A082",
"&. c #DFA081",
"*. c #DCA386",
"=. c #D8A485",
"-. c #DCA88A",
";. c #DFAF94",
":. c #E0A081",
">. c #E2A181",
",. c #E3A181",
"<. c #E0A182",
"1. c #E1A283",
"2. c #E3A282",
"3. c #E4A281",
"4. c #E4A382",
"5. c #E4A383",
"6. c #E5A484",
"7. c #E6A584",
"8. c #E6A585",
"9. c #E7A685",
"0. c #E7A686",
"q. c #E8A786",
"w. c #E8A787",
"e. c #E9A887",
"r. c #E0A58A",
"t. c #E3AC8D",
"y. c #E7AD8F",
"u. c #E8A888",
"i. c #E9A989",
"p. c #EAA989",
"a. c #EAAA8A",
"s. c #EBAA8A",
"d. c #EBAB8B",
"f. c #EBAC8C",
"g. c #EBAE8F",
"h. c #ECAC8C",
"j. c #ECAD8D",
"k. c #EDAD8D",
"l. c #EDAE8E",
"z. c #ECAE8F",
"x. c #EEAF8F",
"c. c #EDAF90",
"v. c #EEAF90",
"b. c #E4B195",
"n. c #E9B193",
"m. c #EDB091",
"M. c #EEB090",
"N. c #EFB090",
"B. c #EEB091",
"V. c #EDB192",
"C. c #EEB192",
"Z. c #EFB192",
"A. c #EFB293",
"S. c #ECB496",
"D. c #E6B599",
"F. c #EEB899",
"G. c #EEBC9E",
"H. c #F0B293",
"J. c #F0B394",
"K. c #F0B495",
"L. c #F1B495",
"P. c #F0B496",
"I. c #F1B596",
"U. c #F1B597",
"Y. c #F2B596",
"T. c #F2B698",
"R. c #F2B799",
"E. c #F2B89A",
"W. c #F3B89A",
"Q. c #F3B99A",
"!. c #F3B99B",
"~. c #F4B99B",
"^. c #F4BA9B",
"/. c #F4BA9C",
"(. c #F4BB9C",
"). c #F4BB9D",
"_. c #F5BB9D",
"`. c #F5BC9E",
"'. c #F5BD9E",
"]. c #F5BD9F",
"[. c #F1BFA1",
"{. c #F5BEA0",
"}. c #F6BEA0",
"|. c #F6BFA0",
" X c #F6BFA1",
".X c #F6C0A2",
"XX c #F6C1A3",
"oX c #F6C2A3",
"OX c #F6C3A4",
"+X c #F7C3A5",
"@X c #F2C4A5",
"#X c #F7C4A5",
"$X c #F7C4A6",
"%X c #F7C5A6",
"&X c #F7C6A7",
"*X c #F7C7A8",
"=X c #F7C8A9",
"-X c #F0CBAD",
";X c #F8C8A9",
":X c #F8C9AA",
">X c #F8CAAB",
",X c #F8CBAC",
"<X c #F8CCAD",
"1X c #F8CDAE",
"2X c #F9CEAF",
"3X c #F3D1B3",
"4X c #F7D1B2",
"5X c #F0D4B6",
"6X c #F6D4B6",
"7X c #FAD3B4",
"8X c #FAD7B8",
"9X c #F1D8B9",
"0X c #F7D8BA",
"qX c #F5DBBB",
"wX c #FADDBE",
"eX c #F6DDC0",
"rX c #F9E1C3",
"tX c #FBE5C7",
/* pixels */
";.C.<.u.g.F.F.^.R.E.R._.^.`.^.OX].XX].XX].XX]..XE.].E.G.E.E.n.T.V.V.g.V.g.V.M.M.u.r.8.u.8.i.*.5.( ] ( | ] { ^ ^ U E U W U ^ U W ",
"P P E @.y.J.T.^.R.E.E.).'.G.`.E.G.{.$X'..X{..X'.G.G.{.'.G.~.^.P.P.S.J.g.Z.Z.M.g.l.u.8.w.d.w.0.<.| ..@.$.5.2.| ^ Q U U U W E W E ",
"3 < > > d =.i.F.~.`.S.Q.{. XS.!.G.oX)..XoX%X).`.{..XF.E.^.{.A.U.S.E.y.M.C.L.f.h.h.p.5.u.p.w.o.....| ^ | 5.,.| ( Q E V C A W Z A ",
"$ O X X % < d / g.E.^.).}.`.E.U.`.XXXXXXXX^.R.E..X{.P.P.~.Y.R.Y.E.U.c.i.M.B.g.u.p.p.q.a.w...o.' | ] ` @.>.X.^ W Q C Z Z A Z Z m ",
"e 4 & & = > 3 p R u.I.`.E.^.P.~.U..X{.oX^.R.F.E.^.|.^.R.K.E.R.~.U.I.M.g.8.z.d.w.8.u.p.l.5.@.] ..' ..] <...>.[ ^ C C V A Z Z Z A ",
"n.n.-.P x s s f M ] g.R.!.Y.U.C.U.XX{..XE.V.V.V.^.(.|.~.E.`.`.^.W.R.P.i.j.d.7.8.w.d.l.d.w.#...{ | ] >.| #.@.~ U C V V Z Z Z Z Z ",
"P._.S.S.y.*.C C R ] #.I.^.R.g.M.^.OXR.Y.P.V.y.g.U.`.`.OXOX&X{.'.^.~.B.l.C.x.5.u.h.M.7.p.a.7.] | @.<.@.#.1.>.Q U C Z M m m Z M m ",
"S.V.y.u.g.y.5.] ] ] @.h.~.Y.J.V.R.Y.P.g.g.i.5.i.A.`.`.{.$X$X^.!.E.V.u.5.*.5.w.w.a.p.u.p.k.5.#.@.@.{ $.@.1.] E C C m h h m m h n ",
"#.5.@.@.] ] @.<.] #.>.h.h.T.A.A.h.J.g.M.5.5.6.i.i.Y.R.P.8.=.H H c l r d f c C / C R ^ @.] >.#.1.{ @.) &. .&.( A m h g h g h g n ",
"u.1.8.7.>.Q Z V E @.7.y.P.P.L.N.N.z.L.f.' Q ` ] #.a.7.R f 7 : + + o X # $ + > 3 5 9 p n V U Q ` | | ....<.{ Q A m g g g g g g g ",
"h.V.y.V.V.u.U n n A ( p.l.R.j.N.Z.H.k.i.A V m C E E n t , > $ o X X . . . . X $ = - < 9 s f p n M Q E ^ #.&.C V M n y g f n y a ",
") H H R *.6.( V h n U o.h.Y.J.l.Z.B.j.8.R n M n V n t 1 ; = + + + o X o $ $ = : : = = > < 3 3 , 7 r f M E Y c n n f g f h n f g ",
": & = < w f n M n y M Q >.z.J.v.p.h.i.7.E V g l f f 8 1 ; ; - - - 3 9 d l C P ) n r 7 7 3 > - > < 3 , 3 9 r p n y f a g y g y g ",
"X O * i e w 3 3 9 8 a m _ w.T.R.Y.M.j.3.) C n f y 8 6 , , , , , 8 f Y ` #.<.5.8.r.} R K l r 9 , , < ; , , > < 3 7 t t q q 0 q q ",
". % * e & % $ = - < ; y Q 7.V.XX].^.h.u.] R f y 8 6 ; ; , ; - ; 1 f M U R C n n V R C E ) ) V n t r 7 < < > : : > 7 1 6 6 0 1 6 ",
"& $ $ # .   . X + + @ - Q 7.^.,X4XXX^.M.5.M t 8 8 1 - - - + + 3 c / *.u.g.:.Q M l t 1 1 t M E C C V f 9 3 < : : > ; , , 6 1 1 1 ",
"f s < < $ # O $ = = + - U M.`.7X7X,X).Y.] g 1 6 1 ; = = + + 3 r 9 r d J R E Y C n n r , = - r C D D n f s r 7 7 , 1 6 8 6 8 8 8 ",
"u.8.} K d i r d f f M Q l.~.%X4X0X<X.Xu.A q 6 8 1 ; , - @ @ = @ + . . . . . X $ : : > > : + + 8 D M C C n f f n l t 8 8 q q q q ",
"u.u.` ] ] Q M C A Q Z U h.OXOX7X4X,XF.*.m q 6 q y t m E V g t f s < & O                 . X X o f R n y f n n M n f y g h h g n ",
"~ ^ A A Q U V m m g g :..X&X,X%X,X%XV...m y 0 g Q Q ( 3.p.7.o.....) / d < > = = $ $ $ # # X X o ; , ; 6 q g f n n f t q g a g y ",
"4.A h g y y q 0 8 Y V.&XXX:X,X<X.X^.5.Q M h h Z U >.w.d.w.i.^ Q Q @.] ' A Z V Z n n g p r y t f 6 , 6 V ( o.X.>.' ^ M M h n h h ",
"XX{.R.u.` E ^ <.R.$X:X,XOX,X1X&XXXM...A Z A ! ( ' o.h.l.M.M.l.>.V y q y h g q q g m A A A h q , - 8 Q Q U A ~ ..7.Q g t f y q q ",
"1X,X.X&XOXOXOX&X,X,X%X:X,X7X,X%X`.l.Q Z U ~ ( 7.8.l.d.M.M.Z.V.R.~.y.C f 9 1 , , , 1 ; ; ; - - 1 m ' @.7.8.W g g f t 6 6 6 8 1 8 ",
"4X<X$XXX#X$X&X&X,X*X,X1X4X7X<X.X^.7.Q m A Z ~ o.p.d.p.u.l.M.J.J.R.E.E.E.`.V.*.R M n f n Z ` 3.7.p.7.^ ' >.,.Q y y n g f n n l n ",
"7X7X%X$XoX1X1X<X,X,X,X0X0X0X&X`.l.8.~ ( Z Z M Z h Z A ~ p.J.T.`.S.~.Y.`.{.%X$XOX]._.^._.R.~.M.M.u.q.@.Q T o.5.,.Q ..C f f f f f ",
"0X8X2X,X4X4X7X2X,X,X:X4XwX8X$XR.M.p.4.o.( h g y g y 8 8 g ~ M.R.).^.R.`.{.%X:X%X{.).`.`.`.U.J.M.v.s.7.X.Q E 3.3.7.$.U s d y s r ",
"8XqX1X2X4X7X,X,X:X1XoX1XqX0X.XE.V.J.d.h.O.A g h ~ ..m y 1 6 g 5.R._.C.`.%X1X&X%X$XOX/.{.{.^.h.p.i.x.5.7.5.^ ( 7.5.w.R f y y r y ",
"8X7X1X,X4X1X{.T.P._.&X4XqX4XXX~.R.Y.P.3.~ Z h Q p.d.3.~ g ; ; 8 Q d.Y.!.oX:X$X+X;X&X|..X+XE.N.u.d.p.9.8.d.<.( o.4.3.^ n n f f f ",
"$X$XXX`.l.i.! h U ^.1X0X0X7X$X$X~..Xu.U g h Z o.7.8.X.~ h 1 ; ; 1 n #.J.Q.OX+X:X&XXX{.#X^.T.V.A.a.s.h.s.3.w.o.~ #.5.` M f M n n ",
"~.E.d.~ Z y ; q g.$X7XqXtXwX7X$X.Xu.m 8 6 6 8 8 q 8 8 6 6 1 0 q 0 6 g ~ u.R.~.^.`._.^.~.R.J.l.l.v.h.s.p.s.w.7...$.<.$.m n m M M ",
"J.w.A g 1 - 1 u.:X7X0XtXtXtX7X$Xy.n 1 - + + o + + + @ - 1 y q g g g 0 y U q.d.E.~.^.M.M.l.N.p.B.v.H.8.s.s.w.o.o...o.( C V C n Z ",
"3.U g , = 8 *.$X0XqXqXqXwX0X$Xg.M 1 = o + = + + + = - - ; 1 6 8 y y g q q M Q 5.l.d.p.w.d.p.h.x.N.w.5.5.a.7.#...>.' Q M M C D C ",
"A g 1 = 6 r.XX4X0X0X1X1X$X].u.Y 6 ; + + + + + + o + = = = ; ; , 1 q q q 6 6 t C ' 5.5.w.3.p.7.j.e.w.6.<.3.3.@.] ] ( W Y M U R E ",
"h 6 - ; R F.,X1X:X%X].F.J.) y 1 ; @ + + @ + + + + + = @ - - = @ - ; ; ; ; ; ; 6 n W ] ` ] o.:.&.7.o.....<.] ) ) ) ) ` R D V E C ",
"y 1 - t *.].F.y.u.u.@.7.h.<.y 1 , 8 8 1 ; ; = - - - - - ; - + + = - - - - = + = , f E ^ ( | Q ' | ] ^ ( ) ) K ^ Q ) R R Y E V C ",
"q ; ; V w.8.M f R ) C M M y - - 6 C ( n 8 1 , ; - - ; , 7 ; - : - - - - - = + + + = f ` #...W W ^ ^ W Q E H c K } ^ W R ' E E C ",
"6 , 6 ) ) R r 8 l D f 8 1 - = 8 M ] ] ] n g 6 1 ; - ; ; , , - ; - ; ; , ; : @ = + + - y U #.Q ' W Q W Q T K l C L ) ) #.) } Y A ",
"8 1 8 E R l 8 8 f n n t 8 , r <.R.J.d.X.Q m y 6 1 1 6 8 8 6 , , 1 1 1 1 1 3 3 > = + + - 8 C Q Q W W ` Q Q C l B ) ) ) ) ] C U Z ",
"8 6 6 R K f 9 t h V m g n C Q 8.J.^.i.5...Q h h g g g m m h y y y q 6 q 0 8 1 , > = + + - r m U ^ ..) } { / f M ) } R R / R V Z ",
"8 8 1 C K f r y n h m A o.o.~ ' 5.u.3.o.o.( Z A Q U Z Z A A Z h g q q q q 6 6 6 6 : + + - ; f C Q ..} } 1./ f l E R C C W C m m ",
"t t 0 C l 7 , , ; 1 y Z Z A Z Q U A m m g h g q 0 0 q q q y 0 6 1 6 6 6 1 6 6 8 , ; - = - , 8 R Q #.<.<.@.} c M K R K / R V m Z ",
"M t M M f 3 - + + - 6 8 6 0 y g g y y q q 0 0 6 1 1 1 1 1 , ; - - - - - - = = = = = ; , 8 y 8 V ] ..<.5.8.I H H H J L / R V Z Z ",
"] g n R B f 9 9 q h y g h m N S S S N G R E G G G F N N a y 8 6 8 1 ; 1 1 , - > ; 1 t C E E 8 V X.5.' <.#.) H H c J H / / U m A ",
"y.U g Q / C M m Z Z Q :.8.i.:.1.g.u.u.u.u.*.+.+.+.G S S G F N h h g y g g y q q g Z 3.3.u.` f Q 5.>...| ..R H H c J J / C V V V ",
"y.w.M ( ^ / C A A Z ' 7.>.1.5.8.*.1.5.y.@.G S F N j a S h a a g g g a g g y a M ( M.M.w.7.( n ' @.5.@...E R c K c J P I n M M K ",
";.J.} n Q E C Q ' Z U Y M n N N j f f f f r 9 7 7 7 7 9 9 9 9 y a a y a y q M ..J.T.g.:.o.U m ..7.5.$.Q H H c c B J P H B B B D ",
"r.E.y.C K X.R Q ^ Q y 8 6 7 7 7 9 9 7 w 9 9 3 3 7 3 3 3 3 7 7 9 y a t f y n Q g.^.P.*.#.' m n 5.8.8.^ C c c f f l B c H H K n M ",
"I t.J...V @.@.` ^ A y t t 8 1 9 p f y t p r 7 7 7 4 < 3 5 9 9 8 y y y f n Q w.J.T.y.5.>.' g C >.5.>.C f l f s s x c f M K K B M ",
"J =.g.g.C R 8.5.( A g t t t t f f n n n s s r 9 3 < < 7 7 f f M n l n M U 8.J.T.g.p.t.8.C f E >.' Q n f s p r x x x d K B L E R ",
"I %.*.g.) n >.w.#.A h y g g M R U R U M n f s 9 8 9 9 p n R ^ ] Q E E E <.V.P.g.g.g.u.>.n h ] ] ^ C f f s s r d f s B K L L ) ) ",
"%.-.I *.8.Q Y w.3.~ h g g m Q d.u.8...) ' E f f n H H / 5.h.w.g.d.p.^ ] d.Y.t.S.y.g.y.Q M A Q ' ( K f f 9 s r s s c H R / ) R C ",
"%.=.=.%.t.*.R X.w.3.A h h A 3.l.M.u.7.5.d.8.<.*.t.y.g.n.R.~.P.V.V.u.5.#.g.g.g.g.y.y.8.Q V U ' Q R V l r r r s d x B J P %.%.K n ",
"P -.=.=.%.J J 5.u.l.o.' Z ~ w.T.f.c.6.w.8.V.V.V.V.P.S.E.R.R.S.g.5.5.] 1.r.y.t.y.5.y.r.) V ( ' ` C V f r 8 f J P c L L P P P / ) ",
"J =.-.=.I d s P h.Y.l.o.3.l.l.Y.I.A.B.V.V.J.T.P.E.E.).).).S.K.K.i.#.<.8.i.8.w.<.8.8.8.Q ^ ) ) ( E D s 9 r d x P P K H J L I ) / ",
"b %.%.%.P d 4 e H V.P.l.w.T.p.J.Y.{.C.`.`.].F.].XX%X$X1X,X$XF.S.g.5.} @.<.5.] <.5.u.1.) @.<.] ] ^ K r s r 7 7 d P H d b P %.@.*.",
"z P I I I x 4 * 5 H P.E.Z.u.w.l.R.{.`.{.%X:X%X$X:XoX,X%X,X).r.r.y.y.1.@.] ] #.#.5.1.*.#.u.*.*.} ) l d d c e 7 9 H I b H J ) r.t.",
"w H P %.J d * & * 4 J F.J.N.u.Y.V.R.E.(.{. X.X&X{.*X#XE.E.R.r.i.y.u.@.) E ` ] @.<.5.8.i.y.y.=.*./ B d d k e 7 e d K K L H I *.r.",
"w x P P H e & % % > w I ).Y.j.a.x.M.C.A.Q.E.~.V.g.g.g.u.u.g.g.u.r.@.^ Q ( ` ....5.r.y.g.P.V.r.I ) d d c k i u r 7 8 n K K P c i ",
"5 w v b x e % # % * : e ;.>XV.h.w.p.i.C.R./.Y.M.h.f.5.>.5.5.#.<...) Q ` | :.@.5.1.5.r.V.R.[.t.} J d 3 x x d u e : ; 9 d d 9 < 4 ",
"% & 2 5 k 5 % O # % & 2 J :XOXJ.0.u.{.$XoX{.R.E.E.B.x.a.i.5.&.^ | ` W Q X.' #.5.i.) 8.V.^.`.y./ H l 5 5 i w 5 w : $ > > > < < > ",
"O O # * 4 4 & O # # & > r oX<Xn.-.OX*X>X&X,XOXOX{..XQ.W.z.B.i.w...^ U W Q ..@.u.5.1.y.T.^..Xg.%.H d x 5 > : : 4 & # > < 3 w 7 d ",
"O O O % & 2 * O O O & : l ).4X4X0X0X6X4X7X0XwX0X4X2X1X:X%X).}.!.~.m.) L R / ] #.1.a.A.T..XXXt.J H e e 4 > : & & O # < 7 s d d x ",
". . . # % * & # . O $ < @.{.=X0XeXrXqX0X0XeXqXrXrXwX5X0XqX8X%X$X&X,X[.b.%.L D { g.U.C.[.%X[.) H c w * * & & O O O # & < 9 r r i ",
". . . O # & % # . X # d t.OX3X3X0XqXqX3X5X5X5X5X9X9X5X5X5X5X-X-X-X-X-X-X-X;.I -.D.G.G.[.@X;.b v z w * & & # O O # # % * 5 3 w u "
};
