/* XPM */
static char *out[] = {
/* columns rows colors chars-per-pixel */
"64 64 220 2 ",
"   c #2B1608",
".  c #4A2415",
"X  c #5C2C1A",
"o  c #68321E",
"O  c #583F2A",
"+  c #763A24",
"@  c #7E3D26",
"#  c #63432F",
"$  c #6E402D",
"%  c #6A4D37",
"&  c #77523D",
"*  c #7F5D46",
"=  c #814A35",
"-  c #8E4B34",
";  c #96523A",
":  c #865540",
">  c #8C5D46",
",  c #9D5943",
"<  c #955F49",
"1  c #A45E45",
"2  c #89664F",
"3  c #9B644E",
"4  c #916A53",
"5  c #9A6F56",
"6  c #AB644A",
"7  c #A16851",
"8  c #AD6D51",
"9  c #A86D58",
"0  c #B36A51",
"q  c #B76F53",
"w  c #A1765D",
"e  c #A7755C",
"r  c #AE755B",
"t  c #B4715D",
"y  c #B97658",
"u  c #A87B63",
"i  c #AE7D64",
"p  c #B77764",
"a  c #BD7564",
"s  c #B27861",
"d  c #B47F64",
"f  c #BB7E63",
"g  c #C1785B",
"h  c #C87E61",
"j  c #C07B6B",
"k  c #AC836B",
"l  c #BE8466",
"z  c #B3876E",
"x  c #BA876A",
"c  c #BF8B6C",
"v  c #B78C72",
"b  c #BC8E72",
"n  c #C38264",
"m  c #CC8566",
"M  c #C78568",
"N  c #C4816F",
"B  c #C48A6C",
"V  c #CC8C6D",
"C  c #CC8C6E",
"Z  c #D18969",
"A  c #D48C6E",
"S  c #D88F6F",
"D  c #C98270",
"F  c #C88973",
"G  c #CC8A78",
"H  c #D08B78",
"J  c #C39072",
"K  c #C89172",
"L  c #CC9475",
"P  c #C09379",
"I  c #CA997A",
"U  c #CF9C7E",
"Y  c #D19071",
"T  c #D09072",
"R  c #D29172",
"E  c #D09273",
"W  c #D39273",
"Q  c #D49374",
"!  c #D59475",
"~  c #DA9472",
"^  c #DD9876",
"/  c #D79778",
"(  c #D1967C",
")  c #D89778",
"_  c #D59A7B",
"`  c #D99878",
"'  c #D9997A",
"]  c #DB9A7A",
"[  c #DA9A7B",
"{  c #DC9B7B",
"}  c #DB9C7D",
"|  c #DA9D7E",
" . c #DE9D7D",
".. c #DC9D7E",
"X. c #DD9D7E",
"o. c #E09E7D",
"O. c #E2A07F",
"+. c #D89380",
"@. c #DD9E80",
"#. c #DE9F80",
"$. c #DF9F80",
"%. c #CFA186",
"&. c #D4A082",
"*. c #DFA081",
"=. c #DCA386",
"-. c #D8A485",
";. c #DCA88A",
":. c #DFAB8E",
">. c #DFAF94",
",. c #E0A081",
"<. c #E2A181",
"1. c #E3A181",
"2. c #E0A182",
"3. c #E1A283",
"4. c #E4A281",
"5. c #E4A383",
"6. c #E5A383",
"7. c #E5A483",
"8. c #E6A483",
"9. c #E5A484",
"0. c #E6A585",
"q. c #E7A685",
"w. c #E7A686",
"e. c #E8A786",
"r. c #E9A887",
"t. c #E0A58A",
"y. c #E3AC8D",
"u. c #E7AD8F",
"i. c #E8A888",
"p. c #E9A989",
"a. c #EAA989",
"s. c #EAAA8A",
"d. c #EBAB8B",
"f. c #EBAC8C",
"g. c #EBAE8F",
"h. c #ECAC8C",
"j. c #ECAD8D",
"k. c #EDAD8D",
"l. c #ECAE8F",
"z. c #EDAE8F",
"x. c #EEAF8F",
"c. c #EDAF90",
"v. c #E4B195",
"b. c #EDB091",
"n. c #EEB090",
"m. c #EFB090",
"M. c #EEB091",
"N. c #EDB192",
"B. c #EFB192",
"V. c #EFB293",
"C. c #ECB496",
"Z. c #E6B599",
"A. c #EAB79A",
"S. c #EEB899",
"D. c #EEBC9E",
"F. c #F0B293",
"G. c #F0B394",
"H. c #F0B495",
"J. c #F1B495",
"K. c #F0B496",
"L. c #F1B596",
"P. c #F1B597",
"I. c #F2B596",
"U. c #F2B698",
"Y. c #F3B799",
"T. c #F2B89A",
"R. c #F3B89A",
"E. c #F3B99A",
"W. c #F3B99B",
"Q. c #F4B99B",
"!. c #F4BA9B",
"~. c #F4BA9C",
"^. c #F4BB9C",
"/. c #F4BB9D",
"(. c #F5BB9D",
"). c #F5BC9D",
"_. c #F5BC9E",
"`. c #F5BD9E",
"'. c #F5BE9F",
"]. c #F1BFA1",
"[. c #F5BEA0",
"{. c #F6BEA0",
"}. c #F6BFA0",
"|. c #F6BFA1",
" X c #F6C0A1",
".X c #F6C0A2",
"XX c #F6C1A2",
"oX c #F6C1A3",
"OX c #F6C2A3",
"+X c #F7C2A3",
"@X c #F6C3A4",
"#X c #F7C3A5",
"$X c #F2C4A5",
"%X c #F7C4A6",
"&X c #F7C5A6",
"*X c #F7C6A7",
"=X c #F7C7A8",
"-X c #F0CBAD",
";X c #F4CDAE",
":X c #F8C8A9",
">X c #F8C9AA",
",X c #F8CAAB",
"<X c #F8CBAC",
"1X c #F8CCAD",
"2X c #F8CDAE",
"3X c #F9CEAF",
"4X c #EECEB0",
"5X c #F3D1B3",
"6X c #F7D1B2",
"7X c #F0D4B6",
"8X c #F6D4B6",
"9X c #FAD3B4",
"0X c #FAD7B8",
"qX c #F1D8B9",
"wX c #F7D8BA",
"eX c #F5DBBB",
"rX c #FADDBE",
"tX c #F6DDC0",
"yX c #F9E1C3",
"uX c #FBE5C7",
/* pixels */
"v.N.8.4.[ | =.y.y.b.K.~.~.@XXX@X X`.{.OX{.=XOX=X'. X`.@X}.#X'.}.{.T.L.R.L.R.L.K.g.m.g.x.i.p.s.s.7.4.| @.[ #.] X.Q / C R Y R S T ",
";.u.e./  .k.Y.R.~.(.`.{.+X&X=X%X@X'.oXOX@X&X=X>X<XoX{. X|.{.T.T.K.P.R.G.Y.R.V.b.l.d.i.i.a.r.e.0.q.} ' ' $.{ { ) / C Y T W R Y R ",
"_ *.C M E / ( _ 0.V.V..XXX=X{. X%X=XR.'.(. XoX&X>X%XT.`.{.@XT.U.U.R.f.K.R.Q.V.b.a.g.5.p.0.a.<.e.e.[ W ` { <.[ o.` ^ V Z A S V A ",
"d 5 < : : : = : 5 B 0.P. XoXoX{.=X%X`.P.{.`.oX&X>X@XT.K.(.~.R.K.T.P.V.K.Q.Y.I.g.f.r.5.5.0.6.r.a.e.] ) ] 3.X.X.` ` Y Z Z A Y Z Z ",
"- = = = $ O X . O & 7 C @.b.R. XXX@X~.Y.K.Y.{.=XOX~.K.K.K.(.`.{.P.{.`.).R.R.G.F.k.h.e.a.7.s.e.h.8.4.[ X.} @.@.] W A Z A Z A m Z ",
"f K -.;.%.z > & $ = : 3 s C 5.F.{.Q.(.V.b.N.|.{.{.E.V.b.N.K.(.{. X X#XoX(.L.K.g.u.i.0.0.d.e.s.e.e.<.@.@.$.@.#.[ ) Z Z Z Z m m m ",
"b.(.P.(.`.oXv.-.P x 9 8 s C C 3.I.(.P.c.k.P.R.Q.Q.V.p.u.z.Y.(.OX#X&X}.{.T.S.t.&.L E C E _ [ T ^ ..*.} ,.2.3.[ @.` A m h m m h h ",
"c.F.K.R.OX{.{.K.K.y.[ T C M C ! k.L.B.c.F.m.K.N.C.p.i.0.k.F.Y.(. XT.0.L c d 9 < : : = > 7 8 9 y V C T ! ,.#...] ] Y h g h n g g ",
"a.g.i.p.u.b.g.l.t.3...o./ ) / ..,.k.n.F.k.F.c.j.z.5.[ ,.,.a.z.G.0.K r < $ $ X X . . . X o = : < 9 r s f n [ ' ' ! Z g g g g a g ",
"w.O.M E u.T.`.T.V.5.] Y M T | 1.0.k.x.B.c.M.F.x.z.] Y Y ) [ ,.[ B 6 > & $ X X . X . X o $ $ & = : - < , 7 s B T A M n g g g g g ",
"] f B T.=X&XT.T.V.V.<.! n g M ^ 6.x.f.g.b.F.g.z.z.[ g M V C M n r ; = + + @ + = - 7 9 x B f 7 < < < : : - , 3 9 f f t y f n g g ",
"C M N.`.W.v.=.| _ L E C M y y m ] q.h.m.m.n.k.s.z.` g f n n f r 6 ; - = ; , 6 s C _ 3.0.p.3.( B n s 3 > > < > < < 7 y y g a y y ",
"n @.V.%.9 : $ $ . X $ > 7 q q n Y O.z.Y.F.F.k.m.8.] M n f y 8 6 ; ; ; , 3 8 f C T ! ! [ [ @.( | / _ C f 7 3 < ; : : 1 y q q 0 q ",
"V ( e O .     O .     . X - 1 8 M ! e.T.`.Y.K.F.a.] Y n f 8 7 ; - ; ; ; ; 6 B ! ) E M f f y y f M E ! C B f 9 < > : ; 1 6 6 6 0 ",
"n , X   . . . O .     . . o o = r [ o.`.<X%XT.T.V.0.M f 8 8 ; - - - + = t E _ y.N.k.[ ! E n 8 , - 7 p C C V s 9 3 > - , 6 8 1 6 ",
"- , r 7 7 7 4 : & O . X & & o + = ` 8.`.6X6X=X X`.0.n 1 7 6 - = @ X o 7 r 7 > < 3 3 7 s f f s 9 < + - f M n n p s 9 8 8 8 0 8 6 ",
"Y ] k.F.k.b.5._ B B d d f s 7 s f 0.m.%X8XwX3X%Xm.[ q 6 1 6 - - = o + + + o . . .     . X # $ & = = X < B ( C n y n f y q g y q ",
"h.o.O.r.p.a.0.6.O.` ~ A ~ ~ ` ` O.z.(.=XwXwX3X{.u.V 6 , 8 6 1 f f 8 3 9 s e : # . . . . .         . . X s C f f M n f n h h m m ",
"R.Y.q.1.{ [ Y Y A A A A / A h n [ (.`.<X8X8X=X`.0.M 1 1 q Z n / 4.8.] ..,.<.| ( d 9 < 3 3 : $ $ # X X o ; , 1 f n n g g g g y y ",
"!. XT.0.~ m g M m m g q 0 6 n t. X=X%X,X3X3X{.c...M q q n A ` ^ q.q.] ! ) o.O.O.~ A Z m m n r 8 s r 8 y q 6 C [ q.q.4.A m h m m ",
"`.OX=X%XT.V.` m q 0 8 y n 5. X<X&X>X<X3X>X%XY.6.C m m M Z A o.r.e.h.a.a.! n y y g g q q q m m ~ ~ A g 1 - n Y M V ) ) M q q r y ",
"#X=X6X6X=X X(.Y.R.V.T. X#X=X=X>X>X<X3X3X>XoXc.` m M ~ ~ `  .1.8.h.a.z.F.F.i.E f q 6 6 1 1 , , ; ; = - ; g ` ,.) M r 6 8 8 8 8 8 ",
":X9X<X8X3X<XT.`.{.=X@X>X>X,X@X2X3X8X3X6X%X`.4.~ m Z m ~ 1.r.8.r.h.k.a.L.Y.(.V.Y.R.m.| C n t 6 r f m ~ 4.4.$.E O.] n t M M M n M ",
"9X9X9X8X8X=X_.R.oX:X>X=X<X@X=X6X8X9X8X>X XI.6.^ A A m m A A A ` 4.k.h.G.R.R.Y.Y.).{.{.oX{.(.Y.K.R.m.a.h.p.,.T T 6.,.! n B B n n ",
"<X6X9XtX8X3XOX@X=X=X<X<XXX=X>X8X8XtX8X=XR.F.k.q.] A g g y g q 0 q Z e.Y.R.(._.`.{.#XXX@X).{.Q.Q.b.z.a.s.e.8.] C ! 7.4.B s f s d ",
"3X3XwX8XwX3X<X1X,X<X<X>X<X>X<X3X8XtX8X XT.F.F.c.c. .m y g A A g 1 , g O.Y.{.`.{.#X X%X@X>X}. XT.F.h.0.e.0.e.<.T T ..3.B s s s s ",
"<X6X6XwX8X8X<X3X>X=X X`.{. XoX3X8XtX>X XY.Y.b.R.h.^ m g A e.<.o.m 1 - 8 [ Y.Y. X&X>X X=X=X>X(.`.F.c.O.0.r.a.6.o.! ) ] C n B f f ",
"<X<X>X=X>X=X`.R.Y.k.[ Z o.T.=X6XwXwX<XoX X`.`.N.` h g m  .r.e.o.~ 0 - - 6 C e.I.%X,XoXoX=X XT.I.F.F.a.0.k.r.q.1. .! / C M V B B ",
"}.oX). XL.L.4.^ m q 1 n z.>X>XwX8XwX8X3X X%XP.) y 8 6 y n m g g q 6 1 6 1 6 M 5.N.`.`.{.!.Q.Y.Y.b.N.k.k.7.r.e.6.^ ! ' [ M V V T ",
"{.T.I.h.4.S h 0 - - M T.=X<X8XtXtXuXuX8X<XY.E 6 ; = + + + + @ - ; 1 q g g q 0 M <.k.Y.G.R.G.B.x.z.k.h.a.a.q.6.,.,.' ' ! T T Y V ",
"Y.J.6.^ Z g ; = ; / P.>X6X8X6XyXuXyX8X6X X[ 7 - + + + + @ + + - , 6 6 q y g q q M ^ ,.k.z.G.e.d.a.h.5.a.a.h.{ <.6.{ W C C E M K ",
"m.8.A n y , @ , | {.=X6XwXwX8XwXwX3X@XC.*.t - + + + + + + + + @ - - ; , 8 q g y q f Z ] q.q.6.5.e.6.0.e.a.6.O.@.3.! T V T C C C ",
"8.] m y 1 - ; E b.=X>X6X3X3X>X<XR.K./ n 8 ; = + o + + + o + @ @ @ - = @ - 6 6 0 1 1 8 M ! ] ) ^ ^ ..,.5.o.6.#.@./ ! T Y T T T E ",
"4.Z y 1 ; - M @.P.@XC.v.C.V.b.g.I.c.` 8 ; ; , ; - = @ + @ = = - - = + + @ - ; ; - - - 1 n ) _ / ! ! ) ] ] ' } ! ! E C T Y T C C ",
"~ M 6 , ; y ! 3.m.=.f n / 3.! ) ! W y 1 6 f C C 8 1 - ; - - - ; 1 ; + = - - - - = @ + @ < B / o.! / V W / | E C ( ! M T C Q M V ",
"A y , ; 1 C E _ _ f 8 8 V C n 8 r , = @ 6 M ] ) M y 1 ; ; - - - ; , : ; ; - ; ; : @ $ + & : n ' [ Y Y Y / E B B V W E E T C V V ",
"m q 1 , 6 C B E n t 8 8 f n f r 8 , ; M i.h.5.1.~ Z q 6 , ; ; 1 , 1 ; ; , ; , 1 , < - = + @ - p ! S S ! Y E E B B / ) [ T Y Z A ",
"m y 8 1 8 C B B d 8 8 q n M Z y f f V 0.T.R.F.e.o.~ m g q 8 q g n g q 8 8 6 1 6 6 6 6 ; @ @ @ - f W Q Q ) ) _ l V ' / A C A C A ",
"m g y 6 8 ( l f s y 8 f M m m A ^ <.] <.6.B.a.e.<. .A ~ A A m A ~ ~ Z m g q 6 q q 8 6 1 - @ + @ ; M T ' X.2._ B B / T C A A m Z ",
"Y q n y y ( p 3 7 7 , ; 6 q h A ~ A A Y ~ ` A m m m h n h h n g m m m y y q y q q 6 8 6 1 : @ = ; 8 E X.5.t.=.J C E R Z V Z m Z ",
"A y f C f / f 7 - @ + @ - 6 8 0 8 q q g g y 0 8 1 1 , , ; , , 1 , , - ; ; , ; ; ; ; , 3 ; > - ; , 6 C =.5.y.i.( B E T C m Z m Z ",
"4.M t E C l M y r 6 1 g h g g y y y y y q 0 y j j a j a g y y 8 1 - = = - - = @ + + + + + - 8 s y 6 ! o.0.t.3.K B E E Y Z Z A Z ",
"V.5.y n | / C C C Z M m A ~ ~ ^ X.o.A +.,.5.3.=.=.@.+.+.X.+.D N N D y y y y 0 0 8 1 ; ; , n ! ] ! y T o.0.5.( J J Q F Z Z S Z A ",
"S.m.T s ' 3.] E Q ! ! m A 6.4.4.6.1.X.t.u.0.0.t.t.+.C C H N j N D j g a h a y y y 0 0 q Z e.8.4.[ n ) *.,.[ L J I I I M Y Z Z Z ",
"S.R.i.B n <.) ! W ~ ^ ` m ` ` ! C [ +.[ E E ( U G n s s r 9 9 a 8 r 8 a y y y y 8 0 f ) e.c.1.<.C M | 3.' [ J J c U K l M M M C ",
"S.R.Y.o.n E O.! ` ` ^ ` Z f y 8 8 8 8 7 8 7 9 8 r 7 7 3 < < < 3 7 7 9 r q q 0 0 0 g ~ z.K.i.X.! n T 6.3.! C c B J I B B M B B B ",
"y.(.P.K.T n [ o.O.{ ~ ] A M r r 8 8 9 r s p r r r r 3 3 < < < < 3 7 3 9 r s 8 r y T 6.G.b.i.[ Y f [ #. .C l s x J K n B B B n B ",
"&.g.x.N.0.f E 3.e.8.` ~ A n g g y y f n M B f d f r 7 3 3 < < < 7 7 9 9 r y t f C 3.m.u.g.*.*.M f / [ E l d d x c x B B C V M B ",
"I =.g.m.g.C n <.q.6.` ^ A n g n g n C T Y E M n s r 7 7 3 < 3 9 9 t f M f n n C ..c.g.N.i.p.O.n M / ! B d d f x d J l C E E W T ",
"U -.3.g.m.| f C e.6.^ ^ ~ g n n M ..e.<.,.o.! C n p s r s r s f C E / ] ! E / o.b.g.u.g.g.g.! f E Q C s d d f d c K J E ' ( ( ! ",
"%.-.' t.u.i.M n 5.a.] ^ ~ m g M ! l.h.m.m.m.3.<.| ( x B L | _ t.i.h.5.p.i.0.[ 0.g.g.i.p.b.g.n M Q / n r s f s f J L ( U L J B B ",
"&.-.&.&.&.L ( C [ c.a. .6.~ m A 6.B.g.s.k.p.w.p.b.g.g.g.C.C.P.C.P.N.i.0.5.#.@.0.B.u.t.w.g.=.M V / Y p 9 f f d x K I U I K K B B ",
"I -.-.-.K d c ( _ m.m.h.^ <.~ o.p.Y.I.I.g.p.u.b.x.K.F.Y.K.P.C.C.N.P.i.t._ #.0.p.u.f.0.p.i.t.C ) Q T r s c U K J J I I _ [ _ I L ",
"I &.-.-.I i 5 e B p.Y.F.7.e.z.e.F.P.P.G.F.K.P.Y.R.T.`.`.'.@X`.S.T.Y.g.3.3.t.0.t.u.3.5.p.p.t.! ' ' V s d d s J ( c J L ( | =.| L ",
"b &.U %.I d > > 5 ( N.`.c.p.k.h.k.Y.P.!.`.{.P.(. X%X`.].&X<X>X@XR.C.p.3.<.5.{ ,.6.0.@.s.u.0._ #.` C d f w 7 r I ( K c ( =.y.*.=.",
"z I U I U d * & 5 w -.`.{.d.e.a.m.k.P.R. XOXoXoX>X<X=X>X1X,X@XC.=.t.u.i.0.3.] { 3.0.t.0.g.p.*.=.) f x x d e r f ( U K I | t.t.i.",
"w J I I J e & * & > x S.@XR.r.F.z.z.K.R.Y.(.oX+X`.(.#X&X`.S.C.V.0.p.s.p.*...) [ *.3.5.g.N.V.i.@.( c c z u e e r s C L U U -.&.&.",
"w z I I c 5 % % & : 5 U &X@Xc.s.g.s.l.B.L.Y.Y.P.b.i.p.h.g.u.z.i.9.i.*.[ X.) ' ..3.0.u.u.Y.Y.m.| ( d z J k k d 7 3 r B I I x d w ",
"5 w v x k 5 # # % * : r S.3XS.d.p.0.k.P.R._.G.H.V.g.0.i.0.e.@.<.3.#.! ` ] @.[ 5.9.2.t.g.T.`.h.-.K x 4 b z k u w & < 9 r 3 5 4 2 ",
"% * 4 5 u 5 # # % % * 3 ( <X<XV.7.u.`.@X>XXX{.T.{.I.F.c.c.9.$. .' / / ) #.X.*.0.y.! i.N.^.{.K.( c x w 5 w 5 5 5 & + : : > < < 4 ",
"O O # * 4 4 & O # % & < f @X3Xv.:.@X&X<X>X3X=X=X}.|.~.{.K.K.m.k.3.) C ! / @.3.p.5.3.N.R.(.XXu.I x d z 4 > > > 2 # % < 3 3 w 7 i ",
"O O O % * 2 & O O O & : B .X6X8XrX0X9X9X9XwXtXwX9X9X3X3X&X/.'.(.Q.b._ L ! ! [ @.7.d.L.Q.{.'.:.J c w w 4 2 * & & O # < 7 r d f x ",
". . . # % * & # . O $ < @.[.>XwXtXyXeXwXwXtXeXyXyXyX8XwXeX0X&X=X*X<X].v.&.L F 2.g.P.C.].&X].U J c w : * & & O O O # & < 9 r r d ",
". . . O # & % # . X # d y.@X2X5XtXtXeX5X7X7X7X7XqXqX7X7X7X7X4X-X;X-X-X4X-X>.U ;.Z.A.D.D.$X>.b v v w * & & # O O # # % * 5 5 w u "
};
