/* XPM */
static char *out[] = {
/* columns rows colors chars-per-pixel */
"64 64 208 2 ",
"   c #2B1608",
".  c #4A2415",
"X  c #5C2C1A",
"o  c #68321E",
"O  c #583F2A",
"+  c #763A24",
"@  c #7E3D26",
"#  c #63432F",
"$  c #6E402D",
"%  c #6A4D37",
"&  c #77523D",
"*  c #7F5D46",
"=  c #814A35",
"-  c #8E4B34",
";  c #96523A",
":  c #865540",
">  c #8C5D46",
",  c #9D5943",
"<  c #955F49",
"1  c #A45E45",
"2  c #89664F",
"3  c #9B644E",
"4  c #916A53",
"5  c #9A6F56",
"6  c #AB644A",
"7  c #A16851",
"8  c #AD6D51",
"9  c #A86D58",
"0  c #B36A51",
"q  c #B76F53",
"w  c #A1765D",
"e  c #A7755C",
"r  c #AE755B",
"t  c #B4715D",
"y  c #B97658",
"u  c #A87B63",
"i  c #AE7D64",
"p  c #B77764",
"a  c #BD7564",
"s  c #B27861",
"d  c #B47F64",
"f  c #BB7E63",
"g  c #C1785B",
"h  c #C87E61",
"j  c #C07B6B",
"k  c #BE8466",
"l  c #B3876E",
"z  c #BA876A",
"x  c #BF8B6C",
"c  c #B78C72",
"v  c #BC8E72",
"b  c #C38264",
"n  c #CC8566",
"m  c #C78568",
"M  c #C4816F",
"N  c #C48A6C",
"B  c #CC8C6D",
"V  c #CC8C6E",
"C  c #D18969",
"Z  c #D48C6E",
"A  c #C88973",
"S  c #CC8A78",
"D  c #D08B78",
"F  c #D38E7E",
"G  c #C39072",
"H  c #C69677",
"J  c #C89172",
"K  c #CC9475",
"L  c #CA997A",
"P  c #CF9C7E",
"I  c #D19071",
"U  c #D09072",
"Y  c #D29172",
"T  c #D09273",
"R  c #D39273",
"E  c #D49374",
"W  c #D59475",
"Q  c #DD9876",
"!  c #D79778",
"~  c #D1967C",
"^  c #D89778",
"/  c #D59A7B",
"(  c #D99878",
")  c #D9997A",
"_  c #DA9A7B",
"`  c #DC9B7B",
"'  c #DB9C7D",
"]  c #DA9D7E",
"[  c #DE9D7D",
"{  c #DC9D7E",
"}  c #DD9D7E",
"|  c #E09E7D",
" . c #E29F7D",
".. c #E2A07F",
"X. c #D89380",
"o. c #DD9E80",
"O. c #DE9F80",
"+. c #DF9F80",
"@. c #D99E87",
"#. c #D4A082",
"$. c #DFA081",
"%. c #DCA386",
"&. c #D8A485",
"*. c #DCA88A",
"=. c #DFAB8E",
"-. c #DFAF94",
";. c #E0A081",
":. c #E2A181",
">. c #E0A182",
",. c #E1A283",
"<. c #E3A282",
"1. c #E4A281",
"2. c #E5A382",
"3. c #E4A383",
"4. c #E6A483",
"5. c #E5A484",
"6. c #E6A585",
"7. c #E7A685",
"8. c #E7A686",
"9. c #E8A786",
"0. c #E8A787",
"q. c #E9A887",
"w. c #E0A58A",
"e. c #E3AC8D",
"r. c #E7AD8F",
"t. c #E8A888",
"y. c #E9A989",
"u. c #EAA989",
"i. c #EAAA8A",
"p. c #EBAA8A",
"a. c #EBAB8B",
"s. c #EBAC8C",
"d. c #EBAE8F",
"f. c #ECAC8C",
"g. c #ECAD8D",
"h. c #EDAD8D",
"j. c #EDAE8E",
"k. c #ECAE8F",
"l. c #EDAE8F",
"z. c #EDAF90",
"x. c #EEAF90",
"c. c #E4B195",
"v. c #E9B193",
"b. c #EDB091",
"n. c #EFB090",
"m. c #EEB091",
"M. c #EDB192",
"N. c #EEB192",
"B. c #EFB192",
"V. c #EFB293",
"C. c #ECB496",
"Z. c #E6B599",
"A. c #EAB79A",
"S. c #EEB899",
"D. c #EEBC9E",
"F. c #F0B293",
"G. c #F0B394",
"H. c #F0B495",
"J. c #F0B496",
"K. c #F1B597",
"L. c #F2B698",
"P. c #F2B798",
"I. c #F2B799",
"U. c #F3B899",
"Y. c #F2B89A",
"T. c #F3B89A",
"R. c #F3B99B",
"E. c #F4B99B",
"W. c #F4BA9C",
"Q. c #F4BB9D",
"!. c #F5BB9D",
"~. c #F5BC9D",
"^. c #F5BD9F",
"/. c #F5BE9F",
"(. c #F1BFA1",
"). c #F5BEA0",
"_. c #F6BEA0",
"`. c #F6C0A2",
"'. c #F6C1A2",
"]. c #F6C2A3",
"[. c #F7C2A3",
"{. c #F6C3A4",
"}. c #F7C3A5",
"|. c #F2C4A5",
" X c #F7C4A6",
".X c #F7C6A7",
"XX c #F7C7A8",
"oX c #F0CBAD",
"OX c #F4CDAE",
"+X c #F8C8A9",
"@X c #F8C9AA",
"#X c #F8CAAB",
"$X c #F8CBAC",
"%X c #F8CCAD",
"&X c #F8CDAE",
"*X c #F9CEAF",
"=X c #F3D1B3",
"-X c #F7D1B2",
";X c #F0D4B6",
":X c #F6D4B6",
">X c #FAD3B4",
",X c #FAD7B8",
"<X c #F1D8B9",
"1X c #F7D8BA",
"2X c #F5DBBB",
"3X c #FADDBE",
"4X c #F6DDC0",
"5X c #F9E1C3",
/* pixels */
"c.n.7.7./ P J L P =.e.A.c.c.c.c.-.c.-.c.c.A.A.S.A.S.A.S.c.A.b.b.e.r.e.r.e.e.e.w.w.w.,.$.` +.' ' ^ / / / ~ ^ W E B R V R V W V R ",
"*.t.l.0.' L J L &.=.c.c.c.c.A.A.A.c.c.c.A.A.A.S.Y.C.C.C.J.G.b.r.r.r.l.l.G.r.s.s.s.y.5.$.:.,.:.+.+.+.;.' ' ' ^ U U V U U E Y Y U ",
"J ..;.o.#.P J *.c.C.w.A.Y.W.C.L.Y.S.c.A.A.(.A.Y.Y.W.C.L.Y.W.G.Y.G.J.s.G.G.G.s.l.l.f.5.;.O.7.` ] +.:._ +.:.+.T T I V n C U Z B U ",
"z Q [ ~ ' &.&.A.Y.S.Y.C.^.).~.W.^.R.W.R.'.).~.~.W.W.R.L.~.W.L.Y.C.G.l.l.d.r.y.6.f.0.:.{ ,.>.O.o.%.+.[ o.,.' W U Z V B C V V C n ",
"z ;.5.t.w.J.C.~.W.W.R.^.R.^.~.).~.~.R.^.R.'.Y.W.Y.J.v.C.b.C.C.V.r.d.k.b.r.s.t.u.0.t.O.:.o...o.%.] &.;.$.' / T U B I C Z C I n C ",
"#.0.r.b.Y.J.R.Y.!.L.Y.L.W.R.I.~.E.Y.L.R.W.I.K.I.Y.I.L.K.K.V.V.d.b.n.d.i.p.i.0.t.a.0.| o.>.[ O.+.&.#.:.+.` W U B V B C m n C C C ",
"t.n.s.J.Q.).M.Y.W.).I.R.R.Q.J.T.R.W.C.I.J.T.d.K.R.Q.d.J.R.W.J.l.l.G.6.i.u.a.7.a.l.a.` O.;.<.) ] >.5.' ' ^ ! B B n C h C C n n n ",
"e.y.l.G.^.E.K.J.).R.K.L.R.L.J.J.!.L.n.J.Y.R.H.K.P.K.G.W.'.R.Y.n.J.n.y.s.s.f.t.y.l.u.,._ +.;._ +.5.,.o._ _ R C n m n m h C C m h ",
"l L $.b.C.Q.R.^.R.K.K.C.L.W.R.K.V.b.b.H.V.L.L.E.J.~.).'.).^.R.J.s.s.s.h.a.g.0.f.0.t.,.5.{ +.[ ;.o.:.' ' ! E C n f b g h b h g h ",
"$ & 9 J *.r.G.V.H.V.n.l.n.J.R.J.n.s.r.H.n.T.E.'.).).'.).'.W.C.r.+.~ T W ^ T T T ! _ ^ o.$.} o.:.+.' ' ^ ! U C b k f f f b b b g ",
"o o $ > r K o.l.m.G.d.s.n.E.G.n.g.s.5.t.l.L.~./.).'.S.C.r.#.N r 3 < : > 3 7 7 r f N k A T / ! +.o.o.! ! ! R b b b f y f f b f f ",
"u < = = 3 t m / g.l.a.t.l.z.l.f.l.0.5.,.s.n.J.J.R.r.~ s 3 : + o X X . X o + = - 3 7 7 9 t t g R ! / ! E W V b b f f f f b b g f ",
"w.P z r 9 t f B [ f.d.l.f.t.f.a.5.;._ +.+.0.t.r.' b 3 : $ o X X . X X o + : = : : > < 3 < 3 3 r t b B J A B k k f y y g g a g g ",
"#.~ ~ N m k b m ^ 5.r.s.a.0.y.a.<.^ U Z E W ^ W b 3 : = $ o o $ = > 7 l J K N s r r r 7 , , 3 3 7 7 9 9 9 y t 8 t t q q g y q y ",
"b.s./ J f t y U _ 0.5.y.0.s.5.t.u.R f n m B b f 8 3 - = = - ; 9 b ~ / w.e.l.5.$.$.' U B k 9 1 7 9 7 7 7 3 3 < , 7 0 6 8 8 0 6 8 ",
"w.$./ E m t 6 f E +.0.0.a.u.0.0.t.U g f b b f r 6 , ; ; , 6 y b T _ _ ^ $.$.o.o.,.$.o.o.' V b f y 9 7 3 3 3 < ; 3 1 1 1 6 6 6 6 ",
"* & & < 7 r 8 t g Z +.u.f.a.t.f.:.W m b f b t 6 1 , ; , 3 1 8 k B R B n k b f b f m U / ! ^ W U m f 9 9 7 7 3 7 , 1 6 6 6 8 8 8 ",
"  .     . o : 3 t m ( a.L.n.s.y.,.( U m b t 8 , ; - ; = = 7 m ^ o.5.w.$.O.R A f 6 - ; 9 N W E J V k b f y t y s y 8 6 6 8 8 0 0 ",
". % .     . X + ; f B 5.~.{.C.G.l.5.V b y r 3 , - - + + 3 b r 7 5 5 3 5 r s s s t 9 = + 3 A J W W U b b m B m b f t 8 t y f y f ",
"% # . . . O % $ + - m t.{.%X{.R.Y.n.W y 6 6 3 - = @ o = 3 : $ . . .       . . X o $ + $ $ 3 V ~ W m b b n m b b b k y y g y g y ",
"s w > & * 5 w 3 - - m a.).>X*X{.R.f.C 0 6 0 , , ; - + @ @ - > $ O .   . . . .     . . . X + 6 8 6 8 t b b B B I B m f b f b b m ",
"r.e.$./ K J B S E ^ 0.L.+X,X:X#XR.;.n 8 0 y 8 f R T C V T T ~ L l 9 < > 3 7 5 < < > = + : 1 6 , y B _ ..2.+.:...;.! b y t t y y ",
"+.+.E W W W C W Z E t.^.#X,X#X+XY.;.g 0 q C C R ,.u...` ` +.+.5.;.! m U R R b g b n n Z U y ; 6 C ^ U W ! ( W ` ! m 8 6 6 6 6 r ",
"W C Z Z Z h g q g ;.~.).*X*X+X(.n.( h g n R :.,.u.f.u...^ n m C Z Z h y q q h R [ W n q , , g ( 0.t.:._ ( U m n V U m y y y s s ",
"C g t 8 8 8 t U r.+X{.$X%X%X'.J.o.E C R W ^ [ f.u.f.u.J.s.0.U y 1 6 6 6 6 0 8 6 , , - , t ( :.t.,.5.;.7.7.7.` [ ..5.! b t y s d ",
"E.l.[ _ $.r.W.+X&X%X+X#X%X+X~.t.( C W Q u.t.2.t.f.u.f.G.Y.L.Y.J.s.o.! B m k y y f n ` y.n.n.n.f.0.[ _ +.7.a.a.0.0.7.( b t 8 r r ",
"+X{.W.^. X%X+X%X%X%X{.*X*X+Xl.;.R Z Z [ t.H.s.n.m.s.t.G.Y.^.J.R.W.^.R.^.{.'.J.W.^.R.n.J.Y.Y.l.l.0.7.W ^ 1.u.0.t.0.t.( m y t 8 t ",
"*X+X.X.X#X&X$X.X*X>X*X*X+X^.a.Q W Z Z W ..;...;.u.f.n.n.E.W.R.L.^.~.).'.+X{.^.).{.R.J.f.L.J.l.a.f.4.2.` +.q.4.0.t.7.` m f t t y ",
">X&X{.&X%X*X&X*X*X1X1X%X^.J.a.2.( Z C n h h g g y n ( l.I.~._.~.~.{.{.+X{.+X{.+X'.).^.L.f.a.t.n.u.l.7.0.[ ..1.t.2.,.( V y f y k ",
"1X&X%X&X#X*X%X#X*X3X5X#X~.G.n.a.0.Q C g g C Z h 0 1 6 b ,.G.Y.).[.).#X+X#X+X+X+X+X'.~.J.n.y.s.l.l.f.a.6.2.+.| +.7.;.` B k f N A ",
",X:X%X*X*X%X^.{.*X3X:X+X~.E.l.J.G.7.Z h C 2.2...` h ; - 8 V ` l.W..X).+X+X#X).{.'.).Y.Y.G.G.t.l.n.l.7.t.:. .` +.:.+.U B n m b V ",
">X*X{. X{.G.5.Y.*X:X*X{.'.R.Y.E.t.( C C [ t.u.0...C 1 - ; , t U s.G.Y.W.XX_.W.W.^.R.J.n.J.n.0.9.s.a.7.7.0.2.` _ ' / U B b b B V ",
"R.E.J.a.( h B ~.#X1X*X*X{.'.R.l.U g g C W Q W C g q 1 6 q q 8 t m ;.a.L.J.R.T.E.G.G.s.l.a.l.l.n.0.t.7.t.,.5.' / T W U U b B U R ",
"G.0.( h 6 , ' {.>X3X3X:X*X'.a.m t 1 , ; - - - - ; , 6 g g g g y q b ! :.f.G.G.F.n.f.h.j.j.n.n.0.1.5.;.;.,.:.^ W W W E U m n ~ I ",
"2.W 0 ; = m S.-X3X5X5X1X%XR.m 1 : + o + @ @ + = - 6 1 0 q g g h g q t B [ 0.5.u.0.0...p.f.x...7.,.o.` +.[ ' K ~ / K J T V U C Z ",
"W g , @ r c.#X>X3X3X:X#X)./ 6 - + + + + + + + = = = - ; , 6 q y y 8 6 6 b E ^ ' ;.` [ ..i.t.:.o.[ _ _ W / K K K #.~ W ~ ! ! R U ",
"g 6 - , / {.%X,X*X#X(.b.~ t - @ + + + + + + + @ @ - - - @ - ; , ; ; - ; ; 9 m ( ^ ( ^ _ _ [ _ } ! ^ W K J J J ~ P ' ! ~ ! ' ^ W ",
"g , - y w.).{. XS.A.r.~ 8 ; = @ = @ @ = @ @ = - - ; : = @ @ - - ; : = = = = 3 b ' ;.[ _ ! E W ! ^ W W V A N J K ~ / ~ K ' / ! C ",
"q , , B y.r.] w.w.w.' U 8 , , y f 7 - - - ; = - ; 7 ; - - - - ; ; ; = = & & $ - f / ` ` ( ^ V Y ! ! U K J N b T ' ' J K ) ' V C ",
"t 1 1 U ] b s A T b t 1 - - 6 V R f 1 , , , - - < , , ; ; ; - ; , , < > > = + + - r B Y ^ W E R ! ^ W W J N N J / W N N J J n n ",
"t 1 6 K N t t b f 0 6 < - m $.:.! U f q 1 1 ; , , , , , ; , , 1 1 6 6 6 1 , = = + : 6 m Y W W ` W _ _ ] V N m K K K N J J T B C ",
"f 8 8 A f 9 8 f k t 0 0 b 0.L.G.0._ R h g 0 6 6 y g q q q q 8 6 0 0 0 6 8 1 ; = = = - 8 V W ) W [ [ ' ] K N N J ~ J J J P ~ C n ",
"m y 6 A s r 9 f m b b W +.7.5.f.a.7.W C C C h n n C h n m h q y y g 6 6 0 8 , : = = - , k ( W ` +.:.` $.~ J N J J G N J P ~ B C ",
"E s 8 N r 7 7 6 f n R Z ( W W W W W n n n h g g g y g g g q q 0 0 6 1 1 6 6 3 < ; ; , 6 y E / } ,.o.[ _ ! J G J G G G J ~ J m V ",
"' B t J 9 : @ = ; 8 q y y h h h q y 8 8 1 , - ; ; , ; ; = = = - = = + @ + @ = - , r f m t U ` :.` :.+.` G A N J x G J L ~ J N A ",
"e.[ b b f 3 ; , 6 6 6 6 6 6 6 6 6 6 8 6 6 6 6 6 0 9 6 , ; - ; , , , 1 , , , , 6 n ( _ _ b U ` [ ..;.[ ! G A J N x z L P J J N m ",
"r.l.U f N m f n C R C Z ` _ D X._ @.S X.X.X.D F F A j b b h g j h g q g g g g ^ a.u.:.[ n ( _ +.+.;.! T G A z N z z G N J A k m ",
"&.b.5.m V ! U U Z W [ ' 2.t.0.5.r.e.w.X.F D A j j M M h n j g g g y 0 q h Z :.l.n.5.;.W B ( :.+.+._ U b N N d d z x z z K J N N ",
"L w.a.( b ~ ! E Z R ( ! T _ W D S T A M r t r 8 9 t r r 0 f g g t y t y n 0.L.E.t.,.o.U b [ 2.7.( R b x b f s z d z f N A J ~ U ",
"P #.5.$.U m / ( E m y 8 8 r r 9 7 9 9 9 7 7 3 < 3 7 7 7 9 r t t t y y b +.G.Y.b.5.$.| m b } 7.[ W x k b z s s d z s z J J K / ~ ",
"P *./ $._ V ~ +.( C t 6 6 9 7 r t s 9 9 9 7 < < < 3 < 7 9 t t y s k b R y.E.s.s.5.t.E b n :._ ( J N f b f r r f s d z J P ] ~ J ",
"P *.&.#.&.K T _ ( Z y 8 t r t f b b k s s 9 7 3 3 3 7 9 s f f k m B T ,.z.J.n.s.s.y.R f W [ W U J B b f s r s s d z G L #.P J x ",
"P *.&.*.P J W +.W W b y r y m / E ! V B k s 9 r 9 r p N A W E ^ ! / $.r.e.b.n.b.y.w.R B U ( E U A B b s 9 r x G d G J P L P ~ ~ ",
"J &.*.&.P z N o...` C b f b ^ u.0.0.5.` / ~ J A ~ #.w.e.r.e.a.5.t.t.w.e.d.t.r.5.t.w.) U ! W U K J B f 9 r z z L L N G J L P o.#.",
"v #.P &.P l w J 0.t.Q C C E O.l.f.t.^ ;.5.l.5.y.b.C.r.C.L.S.5.6.w.w.$.t.u.s.$.$.w.w.T W / _ V K K A r r r 9 7 l L N f N J P $.w.",
"l L P P P z 2 5 J y.a...;.p.5.n.J.b.y.t.G.G.G.G.S.C.S.S.W.L.r.>.w.w.w.w.t.5.+.+.O.{ ! ~ ' _ / K U N s d z e 7 r N ~ J N J P w.e.",
"w G L L J z * * 5 J s.G.t.f.t.G.C.L.b.~.~.).~.'.~.Q.).#X).A.w.e.%.w.o.,.) { ' o.] ' o.w.w.$.~ / J b d l i w w r s K J J J #.&.#.",
"w l H P G u & & & 2 G m.n.f.i.i.l.b.R.T.^.).{.{.^.).^.^.R.r.6.e.6.$.) ! W E _ ] O.,.t.t.b.w.] #.~ d d z d u u r 7 9 f J ~ P d e ",
"5 w v v z w # # % * 2 z S.W.6.i.s.N.r.H.Y.Q.b.G.l.b.r.d.s.j.6.8.3.,.E ^ ! { / O.w.e.w.e.M.b.w.#.~ l 5 z z l u u = > 7 d s 7 4 4 ",
"% * 2 5 i 5 % O # % * 3 P +X(.G.t.0.L.E.R.U.B.z.b.a.6.<.5.:.+.[ O.^ ! W [ ` $.,.o./ r.M.R.K.r.P J l w 5 u 7 3 7 & $ : > > < 2 4 ",
"O O # * 4 5 & O O # & > f +X*Xe.&.).}.#X+X+XR.E.J.L.V.J.y.f.5.;.W W U ! ^ o.>.3.O.<.z.I.I.`.r.L G i l 5 2 > : 4 % # > 3 3 9 5 i ",
"O O O % * 2 * O O O & : b {.*X*X:X>X>X>X>X1X1X:X&X&X#X#X].W./.Y.J.r.~ T ! W _ o.,.l.G.Y.).[.=.J G e w 4 2 * & & O # < 7 r d f z ",
". . . # % * & # . O $ < o.).@X1X4X5X2X1X1X4X2X5X5X5X:X1X2X,X.X.X.X$X(.c.P K A ' d.K.C.)..XD.P G z w : * & & O O O # & < 9 r r d ",
". . . O # & % # . X # d e.{.*X=X1X2X2X=X;X;X;X;X<X<X;X;X;X;XoXoXOXoXoXoXoX-.P *.Z.A.D.D.|.-.v c z w * & & # O O # # % * 5 5 w u "
};
