/* XPM */
static char *out[] = {
/* columns rows colors chars-per-pixel */
"64 64 215 2 ",
"   c #2B1608",
".  c #4A2415",
"X  c #5C2C1A",
"o  c #68321E",
"O  c #583F2A",
"+  c #763A24",
"@  c #7E3D26",
"#  c #63432F",
"$  c #6E402D",
"%  c #6A4D37",
"&  c #77523D",
"*  c #7F5D46",
"=  c #814A35",
"-  c #8E4B34",
";  c #96523A",
":  c #865540",
">  c #8C5D46",
",  c #9D5943",
"<  c #955F49",
"1  c #A45E45",
"2  c #89664F",
"3  c #9B644E",
"4  c #916A53",
"5  c #9A6F56",
"6  c #AB644A",
"7  c #A16851",
"8  c #AD6D51",
"9  c #A86D58",
"0  c #B36A51",
"q  c #B76F53",
"w  c #A1765D",
"e  c #A7755C",
"r  c #AE755B",
"t  c #B4715D",
"y  c #B97658",
"u  c #A87B63",
"i  c #AE7D64",
"p  c #B77764",
"a  c #BD7564",
"s  c #B27861",
"d  c #B47F64",
"f  c #BB7E63",
"g  c #C1785B",
"h  c #C87E61",
"j  c #C07B6B",
"k  c #AC836B",
"l  c #BE8466",
"z  c #B3876E",
"x  c #BA876A",
"c  c #BF8B6C",
"v  c #B78C72",
"b  c #BC8E72",
"n  c #C38264",
"m  c #CC8566",
"M  c #C78568",
"N  c #C4816F",
"B  c #C48A6C",
"V  c #CC8C6D",
"C  c #CC8C6E",
"Z  c #D18969",
"A  c #D48C6E",
"S  c #D88F6F",
"D  c #C98270",
"F  c #C88973",
"G  c #D08B78",
"H  c #C39072",
"J  c #C69677",
"K  c #C89172",
"L  c #CC9475",
"P  c #CA997A",
"I  c #CF9C7E",
"U  c #D19071",
"Y  c #D09072",
"T  c #D29172",
"R  c #D09273",
"E  c #D39273",
"W  c #D49374",
"Q  c #D59475",
"!  c #DA9472",
"~  c #DD9876",
"^  c #D79778",
"/  c #D1967C",
"(  c #D89778",
")  c #D59A7B",
"_  c #D99878",
"`  c #D9997A",
"'  c #DB9A7A",
"]  c #DA9A7B",
"[  c #DC9B7B",
"{  c #DB9C7D",
"}  c #DA9D7E",
"|  c #DE9D7D",
" . c #DC9D7E",
".. c #DD9D7E",
"X. c #E09E7D",
"o. c #E29F7D",
"O. c #E2A07F",
"+. c #DD9E80",
"@. c #DE9F80",
"#. c #DF9F80",
"$. c #D99E87",
"%. c #D4A082",
"&. c #DFA081",
"*. c #DCA386",
"=. c #D8A485",
"-. c #DCA88A",
";. c #DFAB8E",
":. c #DFAF94",
">. c #E0A081",
",. c #E2A181",
"<. c #E0A182",
"1. c #E1A283",
"2. c #E3A282",
"3. c #E5A382",
"4. c #E4A383",
"5. c #E6A483",
"6. c #E5A484",
"7. c #E6A584",
"8. c #E6A585",
"9. c #E7A685",
"0. c #E7A686",
"q. c #E8A786",
"w. c #E8A787",
"e. c #E9A887",
"r. c #E0A58A",
"t. c #E3AC8D",
"y. c #E7AD8F",
"u. c #E8A888",
"i. c #E9A888",
"p. c #E9A989",
"a. c #EAA989",
"s. c #EAAA8A",
"d. c #EBAA8A",
"f. c #EBAB8B",
"g. c #EBAC8C",
"h. c #EBAE8F",
"j. c #ECAC8C",
"k. c #ECAD8D",
"l. c #EDAD8D",
"z. c #EDAE8E",
"x. c #EEAF8F",
"c. c #EDAF90",
"v. c #E4B195",
"b. c #E9B193",
"n. c #EDB091",
"m. c #EEB090",
"M. c #EFB090",
"N. c #EDB192",
"B. c #EEB192",
"V. c #EFB192",
"C. c #EFB293",
"Z. c #ECB496",
"A. c #E6B599",
"S. c #EAB79A",
"D. c #EEB899",
"F. c #EEBC9E",
"G. c #F0B293",
"H. c #F0B394",
"J. c #F0B496",
"K. c #F1B596",
"L. c #F1B597",
"P. c #F2B698",
"I. c #F2B798",
"U. c #F2B799",
"Y. c #F3B799",
"T. c #F3B899",
"R. c #F2B89A",
"E. c #F3B89A",
"W. c #F3B99A",
"Q. c #F3B99B",
"!. c #F4B99B",
"~. c #F4BA9B",
"^. c #F4BA9C",
"/. c #F4BB9D",
"(. c #F5BB9D",
"). c #F5BC9E",
"_. c #F5BD9E",
"`. c #F5BD9F",
"'. c #F1BFA1",
"]. c #F5BEA0",
"[. c #F6BEA0",
"{. c #ECC4A7",
"}. c #F6C0A1",
"|. c #F6C0A2",
" X c #F6C1A2",
".X c #F6C2A3",
"XX c #F7C2A3",
"oX c #F6C3A4",
"OX c #F2C4A5",
"+X c #F7C4A5",
"@X c #F7C5A6",
"#X c #F7C6A7",
"$X c #F7C8A9",
"%X c #F0CBAD",
"&X c #F4CDAE",
"*X c #F8C8A9",
"=X c #F8C9AA",
"-X c #F8CAAB",
";X c #F8CBAC",
":X c #F8CCAD",
">X c #F8CDAE",
",X c #F9CEAF",
"<X c #F3D1B3",
"1X c #F7D1B2",
"2X c #F0D4B6",
"3X c #F6D4B6",
"4X c #FAD3B4",
"5X c #FAD7B8",
"6X c #F1D8B9",
"7X c #F7D8BA",
"8X c #F5DBBB",
"9X c #FADDBE",
"0X c #F6DDC0",
"qX c #F9E1C3",
"wX c #FBE5C7",
/* pixels */
":.h.&.<.) %.$.-.-.h.v.b.v.:.;.:.;.;.;.v.:.A.:.A.v.A.y.:.;.:.;.;.-.r.%.*.=.-.=.*.) } ) ` R / C R C R C R L / K E V C C E U W Y C ",
"=.u.r.} I %.%.*.v.v.v.v.S.A.:.:.:.:.:.v.S.S.A.Z.b.v.y.y.:.y.r.r.r.;.+.$.*.r.*.+.{ ] ] ] ] ^ ] ^ ) L K K J L R C Y Y U Y Q T E Y ",
"J -.I J %.=.I -.:.v.:.v.b.A.v.v.:.v.:.v.A.A.y.b.b.Z.y.b.y.y.r.y.y.y.<.*.t.y.*.r.<.<._ [ ,.6.[ +.} %.L J P J B K C C M V U A M V ",
"J I L H P I %.-.:.:.:.:.v.:.:.:.:.v.:.y.A.b.y.y.b.b.b.h.y.y.r.t.y.t.r.*.y.y.p.0.0.1. .| <.1.<.<.r.%.I P P K B B V V M M V V m m ",
"J I P I P =.=.;.:.:.:.v.b.:.:.v.;.:.:.y.y.y.y.n.y.C.h.N.y.y.y.h.y.V.f.y.p.f.p.f.w.,.X.>.[ <.+.r.@.@.I } L L B M M V m V n V h m ",
"I %.I I ;.v.:.:.A.A.C.A.b.b.b.y.y.y.A.y.y.y.y.h.b.L.P.L.N.n.L.N.V.V.z.f.s.s.s.q.q.X.X.| ..+.+.@.&.$.} / / C V m V V V m M m m h ",
"=.;.$.y.L.L.y.C.b.L.y.b.C.b.y.b.L.L.A.Y.L.E.J.R.Q.^.N.J.E.J.g.c.c.G.u.p.a.f.4.7.,.2.] @.| @.` | #.+.R L Y Y n M M V n m m Z h M ",
"y.y.h.C._.~.L.N.I.^.L.J.E.!.L.L.).E.E.L._.~.U.J.Q.P.J.Z.E.h.y.s.m.c.u.w.s.f.s.>.>. .' ] >. .o.[ <.) R C C V n n M n n h m M h h ",
"h.L.U.Q.P._.~.`.L.!.P.P.U.!.~.L.J.L.L.E.U.~.U.U.L.P.L.L.h.h.p.n.u.p.u.d.p.M.j.5.[ +.] |  .&.@.,.` ^ Y C V V n h g n n n h h g g ",
"L.L.!.P./.(./.J.J.P.V.L.Q.Y.W.C.P.B.L.L.E.J.P.K.P.E.K.L.L.n.h.V.g.u.0.t.x.h.s.9.>. ...[ @.<.+.@.^ E C V V M h f a g g g g g f g ",
"L.^.Z.L.~._.L.U.C.J.s.C.!.(.n.h.C.V.y.L.U.Y.N./.(.[.C.L._.Q.y.c.p.s.6.s.c.V.0.w.1.1.` +.1.r.] +.] ^ V V M M y f y g y a g n g g ",
"L.L.K.J.(.Q.L.L.J.V.h.J.!.L.n.y.N.h.C.L.(.^.Q._..X].L.L.!.C.y.u.p.s.u.u.f.j.w.5.1. ...[ @.,. .`  .Q V M M n f y f y y y n g g g ",
"} y.b.L.L.Q.L.V.y.z.n.L.C.h.y.s.0.j.h.L.Q..X].XX]..XQ.I.y.r.) ) L ) L C B E ^  .Q  . . . .@.{ +.^ Q V V n f y f y g y g y g g n ",
"3 f L 1.z.n.V.l.j.y.z.N.C.y.0.6.6.w.j.C.(.).].].Q.y.r.L p 3 3 > > < 3 3 7 s f l M V C Y ^ ^ ^ ^ / E V n n y y g y y g y g y y g ",
"= , r B ^ p.w.k.k.p.0.d.h.l.@.>.1.0.1.h.L.!.p.$.x 7 : & o X . . . o o + : > > , 9 9 1 8 n C M Y E R n l f g q y q q 0 0 q y 0 q ",
"9 7 6 t M ` 0.p.k.w.0.0.f.s.+.Q [ [ | 1.p.1.C 8 > + o X X . . . X $ = = : = : < 3 , ; ; 3 7 8 r p s 8 r r 8 0 8 0 6 1 6 6 6 6 1 ",
"B f r f M Q <.s.6.u.9.u.0.q.Q C Z U V ^ E C 8 > + @ + o o & : 5 e B K B p s r r 3 < - < , 3 3 7 3 3 3 3 , 7 6 6 1 1 1 6 1 6 6 6 ",
"^ l t r M U { 5.w.2.5.6.a.w.Q f l n n M f t 7 - = @ = - , r B R <.<.6.<.r.} ^ Y R n s 7 7 7 3 3 3 3 3 < < , 1 1 1 6 6 6 8 8 0 0 ",
"] R p 8 8 M E #.0.w.{ 4.w.e.Y f y f y f f 8 , ; ; ; ; 9 f U U ] | ..^ { @.6.] | [ ] C n n l 8 7 3 7 3 7 7 7 6 8 8 8 6 8 y y y y ",
": > 7 8 8 y M Q 7.a.3.#.0.1.` V n g y 8 9 1 ; ; , , , , t M V V V n n y f y l M U U C C W M l r r 8 9 8 t p 8 0 t t y y g g g g ",
"  . . = > 7 y C _ z.j.u.7.4.] W M n t 8 , ; ; ; = @ - s R 1.p.y.@. .^ Y f 9 ; ; ; t n C M M n n n f y f l f y p t y y f g m M C ",
"  . . . X + , M | J.!.n.j.u.1.^ M y 8 , , - = + o - r f p l H H b B B M n f 9 < @ = 9 V R U Y V M n n n M n g y g f n n M M m m ",
"O O O & : $ + 6 | !.+X+X^.E.w.] f 8 1 , ; - + o + - = + . O . . . $ $ & = : & & = $ + e M f t y g Z n C C C V M g f 8 0 y 8 8 t ",
"x x p l f r 0 M p.^.:X:X*X].C.^ y 1 1 1 ; ; - + @ = - > $ .   . . . .   . . . . . X + - 1 6 y V _  .X.X.4.2. .n t 6 1 1 8 8 r t ",
"E ^ C A C Q _ 3.n..X,X1X;X.Xp.E 0 6 0 q 8 C E R C Q R ) L b 9 < : < > > = > < > - 7 y t 6 y M W C W ^ X. .X.C y 8 9 8 r s f f n ",
"Q Q U U V h h 5.).#X,X3X,X].u.m y 0 y Q Q _ 5.5.| Q _ ..3.>.Q Z C C C h n M C A S m 0 , 0 | 0.5.2.Q V m R V C C f 8 9 9 r r t r ",
"g y 6 1 6 n u.|..X=X-X=X+X^.{ M g g h _ 5.a.q.j.6._ M g m m g g y 0 0 h m ! m g 0 ; ; g ..p.9.6.0.q.| [ ^ X.^ _ n s 3 9 9 r t y ",
"g y y M r.'.#X@X#X,X=X#X].p.Q A U Q Q Q 3.M.j.s.L.J.6.Q g 6 1 , 1 1 1 , ; ; - ; 8 M <.s.M.w.X.X.7.4.3.3.0.e.5.| V p 9 8 t p f l ",
"^.|.].#X#X=X#X$X*X:X*X|.z...A ! ! X.X.7.6.z.s.z.l.K.Y.^.Y.L.y.1.) R B M M ) { p.n.~.H.K.f.j.3.X.^ 2.q.0.7.e.9.+.M y t t t f f n ",
".X+X=X,X=X:X;X:X4X,X*XL.5.Q A A | X.w.j.M.j.f.j.M.L.!.Y.E.^.}.|.[.|.].].].^.^.^.I.V.G.V.m.f.i.3.X.| | 3.7.3.3.[ C f t y M n M V ",
"#X1X-X,X>X;X:X,X4X=XQ.z.X.Q Z Z ! | ' X.3.s.6.j.M.I.L.L.E.(.^..X=X:X X.X@X.X^.E.L.G.w.s.h.j.3.e.3.X.Q | 4.,.` ` C M t f m V m Z ",
"1X,X,X;X:X:X:X3X3X.XJ.s.3.! W A Z h g g g g g W 0.G.G.Y.).(.].#X=X=X@X#X=X#X].Y.L.V.s.a.V.j.f.5.f.X.^ [ <.{ _ ( Y M f y m V V V ",
":X,X;X:XoX;X:X8X:X).J.V.f.0.! V g n m A h q 1 1 0 E 0.L.E.}.`.+X+X=X+X#XoX*X|.[.P.M.j.V.j.V.s.k.3.O.' | _ ^ ^ ` C C f n M C C R ",
";X=X|.].R..X,X5X:X!.K.n.V.V.0.! h g ! 3.3.| h , - , y R 5.J.!.(.].#X.X].|.}.}.E.K.m.l.j.M.x.f.a.0.#.>.` ] R R R C C n f C V C C ",
"L.V.| A 0.=X:X1X=X|.C.L.!.V._ A Z Q | f.s.3.A 0 - ; ; 6 h  .5.V.I.^.J.(.P.!.V.J.V.V.a.l.M.x.7.5.0.<.] ^ / ) L / C / l M C R C C ",
"_ h 1 0 h.=X:X3X,X@X(.^.Y.| m g m Q ~ ! Q h q 1 6 q 0 6 0 f M [ p.M.N.N.K.G.d.a.z.j.f.f.h.a.3.,.1.+.^ L R L L / ) ) C R ) W Y m ",
"0 ; = M `.1X8XwX5X,X@X^.{ g 0 6 1 , ; ; - ; , 6 q g g g g y 0 M C { 4.f.u.s.4.w.5.w.w.j.4.9.| >.{ { W L B K / ) L +.{ @.) Q V A ",
"; @ t v.:X3XwXwXqX,X`.E t ; @ $ + + + + @ - , 1 6 6 0 y g g q 8 8 f C ^ X.X.X.| O.X.4.7.,.' ^ ^ ] ^ K C F K ) / L +.@.} ` E Z V ",
"- 6 } '.1X8X8X9X1X#X} 0 ; @ + + @ @ + + + = = - ; , ; 1 0 6 , , , , 6 n W ` E Q _ ' Q _ ` ^ Y Q Q L n B B L K ) L r.} +.) U m Z ",
"- l y..X,X1X#X'.R.@.f ; = + + + + + + + = = = = - @ @ = , , - = = = = ; f U Q _ ` Q U U ] W Y W Q C B l B R K V L R K Y R V M M ",
"; C t.Q.S.R.n.h.^ y ; - @ @ + @ @ @ + = - - ; - @ @ @ = = ; - - @ @ + + @ 9 V +.^ _ U W U E W Q Y R K B l L K C B B K L C V V m ",
"6 L ) L ) @.{ ^ E y - - 1 8 8 ; ; - - - - - , , - = = - ; ; ; = = & & @ + @ < p U Q U U T W Q Q Q V B l l K K B B K J L K V V Z ",
"8 ) M r l R l y 9 ; @ , n Q n 8 1 , ; ; - ; ; ; , ; - ; ; 1 , , 7 7 : = = = + - 8 M V C Q ' W ^ ] ] B l l J B H H J H L B C m Z ",
"t K r 3 r y y 6 7 , , Y +.Q C n y 6 1 , , 1 6 6 6 1 1 1 1 6 6 6 8 9 7 < - = @ @ - 6 n C ^ ' ] ] $.} K l B H c c H J K B B C V V ",
"9 n 9 9 7 y y t 8 g C s.u.3.Q W h g q 0 6 q g h g a g y 0 0 q q 0 6 6 7 ; - @ = - ; y U Q | | 3.+.} K K l H c H H P I K l B M F ",
"8 l r 9 r r f n V Q Q _ >.4.X.Q W m m g h h n n h h g 0 q 0 0 0 6 6 8 7 , > - = , , q C _ | X.X.X.] V B B F c c H P P K B B M B ",
"8 B 3 ; - - , t g h y M Z V h n g g 6 1 1 , ; , 6 , = = - ; = = = = = - = ; 1 s f f 8 M ' ,.( X.^ Q B V B B d x H J c H K C l B ",
"f f 9 - @ @ ; - ; ; ; ; 1 ; ; - - = = @ @ = = = = @ @ @ - - ; ; , , , 1 6 y U _ #.] g M <.#. .' +.Q C B c l f f c x B K K K B B ",
"Y d s r 9 s n h y y 0 7 ; , ; 1 1 1 6 t t y t t 0 0 0 t t t q a 0 y 0 g n ,.s.0.3.,.m Q ' 6.<. .U C n c f d d c x f c B K ^ / Y ",
"+.K f M C V A Q _ E G G G G G F G F M j D f p y a t t t g g g q 0 0 g V 0.j.V.7.>.Q M E X.>...^ V n l f d s f x d l H K ) ) } / ",
"r.r.n f L W V C Q Y M G U G F N N f 8 9 9 7 3 7 7 9 7 0 q y r q 8 y M <.n.J.u.6.1.E f E ,.<.E C C M d r s f d d f c H I %.} K C ",
"%.-.) n R ^ Q C M r 9 8 r 9 9 9 9 9 9 < < < > > < 3 7 9 r t r r p M Q u.J.J.y.s.1.C n Q X.[ U V C B f 9 r x x f c H J J %.L K K ",
"P %.I ) B { ] E M f 9 7 1 8 y f t p 9 r 3 3 < < < 3 9 s y p y l M Q +.V.c.Z.h.b.#.E m Q ^ _ C C V B s 9 9 B J K c K K L L %.} ) ",
"J %.%.%.K R } ^ M l t 8 9 t l M M n n y 9 7 3 7 9 r f M C C R E ^ ` 0.h.b.b.h.y.1.Q C C ^ W C C R B r 9 r i i J J c B K L ) *.*.",
"b %.P %.H c / ` Q V 8 8 8 f C } ] ^ K V B K l B L } ) <.t.u.+.1.4.0.&.u.y.h.6.1.@.{ Y U ) _ C E C B r d e 7 7 x L K c c K $.*.y.",
"z P I P b i d L ] M y q l E #.<.<...E ] t.+.} *.t.y.y.b.b.b.u.1.4.*.r.8.y.u.r.@.#.) ` Q <.] ^ R R x f x x w 9 r B / L B L %.r.*.",
"w H P P B u 5 d L Q U U V ,.1.w.e.k.1.0.p.z.y.J.J.D.D.Q.R.J.t.r.{ &.+.0.<.>.} 1.] { } 1.<.<.` ` C x d x i u w r r B B L L *.%.I ",
"w x J I x 5 & * w K @.7.w.3.e.0.p.M.h.H.E.).^.].Q.]..XoXXXZ.r.t.6.<.@.+.( ^ { +.+.&.8.p.h.r.*.` P d d b k i i e < 9 d B I H i e ",
"5 5 b x d 5 # % * e x r.R.I.w.u.a.k.d.H.Q._.K.K.L.P.S.D.b.C.6.i.0.u.( ( (  .` @.1.t.1.c.C.J.$.I P i 4 x b z e e = : 7 r 7 4 4 4 ",
"% & 2 4 u 5 % # % & < i S.$XC.j.p.w.y.C.P.E.n.y.k.y.u.8.8.0.3.<.>.[ ) ^  .] @.1.&.+.u.G.R.E.y.I H d 7 5 u w 3 7 & # : : > < < 4 ",
"O O # * 4 4 % O # % & 3 L :X#Xh.=.Q.|..X].(.R.~.C.L.n.c.u.u.X.>.Q Q T Q Q +.&.u.#.@.h.L.T.|.b.I H i k 4 4 > * 4 # # > 3 3 9 7 d ",
"O O O % * 2 * O O O & > B +X,X{.1X1X:X,X4X7X7X,X:X;X>X#X[.Q.Q.Q.C.r.W R Q Q ` +.1.s.C.L.XX Xy.K H e w 4 4 * & & # # < 7 r d f x ",
". . . # % * & # . O $ < +.].=X7X0XqX8X7X7X0X8XqXqX9X3X7X8X5X@X@X#X;X'.b.%.L F { h.L.Z.].@XF.I H c w * * & & O O O # & < 9 r r d ",
". . . O # & % # . X # d t.XX<X<X7X8X8X<X2X2X2X2X6X6X2X2X2X2X%X%X&X%X%X%X%X:.I -.A.S.S.OXOX:.b v k w * & & # O O # # % * 5 5 w u "
};
