/* XPM */
static char *out[] = {
/* columns rows colors chars-per-pixel */
"64 64 212 2 ",
"   c #2B1608",
".  c #4A2415",
"X  c #5C2C1A",
"o  c #68321E",
"O  c #583F2A",
"+  c #763A24",
"@  c #7E3D26",
"#  c #63432F",
"$  c #6E402D",
"%  c #6A4D37",
"&  c #77523D",
"*  c #7F5D46",
"=  c #814A35",
"-  c #8E4B34",
";  c #96523A",
":  c #865540",
">  c #8C5D46",
",  c #9D5943",
"<  c #955F49",
"1  c #A45E45",
"2  c #89664F",
"3  c #9B644E",
"4  c #916A53",
"5  c #9A6F56",
"6  c #AB644A",
"7  c #A16851",
"8  c #AD6D51",
"9  c #A86D58",
"0  c #B36A51",
"q  c #B76F53",
"w  c #A1765D",
"e  c #A7755C",
"r  c #AE755B",
"t  c #B4715D",
"y  c #B97658",
"u  c #A87B63",
"i  c #AE7D64",
"p  c #BD7564",
"a  c #B27861",
"s  c #B47F64",
"d  c #BB7E63",
"f  c #C1785B",
"g  c #C87E61",
"h  c #C07B6B",
"j  c #AC836B",
"k  c #BE8466",
"l  c #B3876E",
"z  c #BA876A",
"x  c #BF8B6C",
"c  c #B78C72",
"v  c #BC8E72",
"b  c #C38264",
"n  c #CC8566",
"m  c #C78568",
"M  c #C4816F",
"N  c #C48A6C",
"B  c #CC8C6D",
"V  c #CC8C6E",
"C  c #D18969",
"Z  c #D48C6E",
"A  c #D88F6F",
"S  c #C98270",
"D  c #C88973",
"F  c #D38E7E",
"G  c #C39072",
"H  c #C69677",
"J  c #C89172",
"K  c #CC9475",
"L  c #CA997A",
"P  c #CF9C7E",
"I  c #D19071",
"U  c #D09072",
"Y  c #D29172",
"T  c #D09273",
"R  c #D39273",
"E  c #D49374",
"W  c #D59475",
"Q  c #DD9876",
"!  c #D79778",
"~  c #D1967C",
"^  c #D89778",
"/  c #D59A7B",
"(  c #D99878",
")  c #D9997A",
"_  c #DB9A7A",
"`  c #DA9A7B",
"'  c #DC9B7B",
"]  c #DB9C7D",
"[  c #DA9D7E",
"{  c #DE9D7D",
"}  c #DC9D7E",
"|  c #E09E7D",
" . c #E29F7D",
".. c #E2A07F",
"X. c #D89380",
"o. c #D89982",
"O. c #DD9E80",
"+. c #DE9F80",
"@. c #DF9F80",
"#. c #D4A082",
"$. c #DFA081",
"%. c #DCA386",
"&. c #D8A485",
"*. c #DCA88A",
"=. c #DFAB8E",
"-. c #DFAF94",
";. c #E0A081",
":. c #E2A181",
">. c #E3A181",
",. c #E0A182",
"<. c #E1A283",
"1. c #E3A282",
"2. c #E4A382",
"3. c #E5A382",
"4. c #E4A383",
"5. c #E5A484",
"6. c #E6A584",
"7. c #E6A585",
"8. c #E7A685",
"9. c #E7A686",
"0. c #E8A786",
"q. c #E8A787",
"w. c #E9A887",
"e. c #E0A58A",
"r. c #E3AC8D",
"t. c #E7AD8F",
"y. c #E8A888",
"u. c #E9A888",
"i. c #E9A989",
"p. c #EAA989",
"a. c #EAAA8A",
"s. c #EBAA8A",
"d. c #EBAB8B",
"f. c #EBAC8C",
"g. c #EBAE8F",
"h. c #ECAC8C",
"j. c #ECAD8D",
"k. c #EDAD8D",
"l. c #ECAE8F",
"z. c #EEAF8F",
"x. c #EDAF90",
"c. c #EEAF90",
"v. c #E4B195",
"b. c #E9B193",
"n. c #EDB091",
"m. c #EFB090",
"M. c #EEB091",
"N. c #EDB192",
"B. c #EEB192",
"V. c #EFB192",
"C. c #EFB293",
"Z. c #ECB496",
"A. c #E6B599",
"S. c #EAB79A",
"D. c #EEBC9E",
"F. c #F0B293",
"G. c #F0B394",
"H. c #F0B495",
"J. c #F1B495",
"K. c #F0B496",
"L. c #F1B596",
"P. c #F1B597",
"I. c #F2B596",
"U. c #F2B698",
"Y. c #F2B799",
"T. c #F2B89A",
"R. c #F3B89A",
"E. c #F3B99A",
"W. c #F3B99B",
"Q. c #F4B99B",
"!. c #F4BA9C",
"~. c #F4BB9C",
"^. c #F4BB9D",
"/. c #F5BC9E",
"(. c #F5BD9E",
"). c #F1BFA1",
"_. c #F5BEA0",
"`. c #F6BEA0",
"'. c #F6BFA0",
"]. c #F6BFA1",
"[. c #F6C0A2",
"{. c #F6C1A2",
"}. c #F6C1A3",
"|. c #F6C2A3",
" X c #F6C3A4",
".X c #F7C3A5",
"XX c #F2C4A5",
"oX c #F7C4A5",
"OX c #F7C5A6",
"+X c #F7C6A7",
"@X c #F7C7A8",
"#X c #F7C8A9",
"$X c #F0CBAD",
"%X c #F8C8A9",
"&X c #F8C9AA",
"*X c #F8CAAB",
"=X c #F8CBAC",
"-X c #F8CCAD",
";X c #F9CEAF",
":X c #F3D1B3",
">X c #F7D1B2",
",X c #F0D4B6",
"<X c #F6D4B6",
"1X c #FAD3B4",
"2X c #FAD7B8",
"3X c #F1D8B9",
"4X c #F7D8BA",
"5X c #F5DBBB",
"6X c #FADDBE",
"7X c #F6DDC0",
"8X c #F9E1C3",
"9X c #FBE5C7",
/* pixels */
"-.B.4...( J k z z L #.r.-.-.-.t.-.A.-.v.=.v.v.S.v.v.S.D.A.A.b.v.t.t.=.t.7.t.7.t.e.e.,.y.7.i.%.4.^ ` ^ { ) ] ! ^ I R I E I ! I E ",
"%.s.y.5.t.t.N.Z.T.T.T.^.(.D.D.D.D.D.D.(._._.|.(.D.D._.(.D.T.T.P.L.Z.t.g.V.V.V.g.i.y.7.5.f.f.9.,.{ ] +.@.5.1.{ ^ W I I I E R E R ",
"m U Y _ a.V.V.Q.Q.(.Z.E._.].A.W.D.|.S.[.|.OX^.)._.[.T.[.[._.C.P.P.T.t.Z.B.J.f.B.n.M.q.y.c.h...{ { { ! { $.>.{ ^ R R B V Z E C Z ",
"e 3 < 3 r K i.B.R.T.P.U.`.].P.P./.W.`.[.+X[././.[._.^.Q._.Q.Y.P.T.P.x.g.m.M.g.g.f.p.0.a.z.q..._ { ' ) O.:.| ..E E V C C Z C C n ",
"# O X X # & i / e.P.L.Q.D.'.T.T.P.Q._.|._.[.!.`.Q.'./.D.H.T.Y.Q.P.L.G.g.7.l.d.y.q.y.4.y.4.5.` { _ ] ` <.' ,.' ^ V I B Z C C C Z ",
"4 4 & # % & > 7 m ] P.Y.W.Q.P.B.P.T._.[.[.{.T.N.Q.~.'.R.R.C.P.P.R.Y.K.i.j.d.d.p.d.5.y.f.q.@.[ ] { ` ` { { O.Q I V B B C C C C C ",
"r.v.#.G i u 7 9 k T [ L.Q./.g.V.C.Q.Y._.'.{.t.C.P./.T.Q.T.Q.T.(.Q.Q.M.I.B.z.4.y.y.i.2.p.a.6.` { O.,.^ +.<.:.W I V C m n n C m n ",
"Z.T.A.v.t.O.U b m U ~ 7.T.Y.J.i.V.V.W./.T.Z.t.g.C.C.U._.oX~._.W._.Y.U.C.C.i.q.q.a.f.y.p.k.y.+.+.O.] @.O.<.` Y V V n g g n n g b ",
"i.c.C.H.t.7.O.[ I E T O.j.U.C.C.x.Z.E.P.g.V.5.i.i.x.U.].].|.|.[.P.L.t.t.<.<.<.a.6.i.h.j.9.h.4.<.] O.` $.} $.^ Z n g f g f f f b ",
"..<.<.O.<.O.@.O.[ ) ] @.l.V.J.m.m.l.J.f.l.7.<.i.y.a.U.R.T.g.e.P K H x a a k x D U D U ! ^ { O.<.{ { ] ] <.] ^ Z n f d d f f f f ",
";.<.[ O.5.^ B B I ` ^ 5.m.m.j.m.V.F.k.M.i.@.^ _ >.y.y.i./ k 7 : = $ o # # + + > 3 7 7 d b D B E ^ O.! O.+.$.V B m b y d d b y p ",
"t.r.<.5.i.5.^ m g b ^ <.f.j.g.z.V.M.j.j.i.C m B Y E E B t 3 : $ # X . . . . . X $ & : 3 9 r t t d d B U _ ) U b b d p d b b d f ",
"<.e.O.e.y.q.@.^ b y m _ :.l.z.c.p.h.c.k.2.B d k b n k d 1 - @ + + o o o o # + : : : = : : > < < < 3 7 r r k b b y d p f y f y f ",
"s 4 > < 7 s m B n f p n ( ;.a.V.j.y.j.p.a.I b d k b y 9 , - = = - - , 6 y x T P / x r 7 7 < > - - < ; , , < 3 7 8 t t q q 0 q q ",
"X X . % & : > < 9 t 8 y D { 5.L.L.B.6.y.<.^ b b d d 1 6 , ; - , 1 8 y B / @.` <.i.7./ Y V b t 8 1 7 , < < > : : > 7 6 6 6 0 1 6 ",
". . O 2 u & & & = : ; 1 b W ..P._.V.m.m.p._ m f y 8 , ; ; - - - , 1 y B ! T m d k b b N T ! E D b d r 9 3 < : : > - , , 6 1 1 1 ",
"# # # & # . . X o $ + @ - Z 2.^.oXoX^.P.a.@.b t 6 1 ; - - - + @ 1 m / r.l.V.O.E b y 6 , ; 8 k V D D b d 9 9 3 < ; , 1 8 6 8 8 8 ",
"H 9 3 > $ X . X $ = $ @ = m f.^.;X-XoX^.Y...f 1 1 , ; @ @ + o 3 r 7 7 7 e s d z b d y 9 , + = 8 D m k d k d y t k y 8 8 q 0 q q ",
"i.y.) J s 9 < 7 a a r d E m.L._.1X1X+X{.m.W 6 1 6 1 - - - @ + + + @ . . .     . X & + & : : o o 9 T U ! B b d m b d t f g g f b ",
"9.i.e...<.O./ Y V C Z Z Z i.(.oX2X2X&X^.l.I 6 1 q 8 8 m B b t 8 t a 4 & O .                   . @ r d t q f f k h d t y f p f y ",
"2.Q ^ W C Z n C B n f f ^ ^.oX-X;X1XoX^.<.n 0 0 p Z V _ y.i.....[ O.O.%.J s 3 > < * $ $ $ $ o o + , ; , q b B W V Y m m b b g g ",
"(.i.Z g f f p 0 6 1 f e.|._.[.-X;X&X_.f.] m f f n ^ 2.2.y.i.8.^ Y E { { _ Z n n B n b b m k b b f 1 , f I _ | 3.4...I f q 0 q q ",
"&X].L.m.@.V d b T t.D.&X-X@X|.;X;X@XV.;.I n n W ^ _ | 4.q.V.i.g.>.U q 0 q f q 0 q g g C C C q 1 - ; b @.` E m f m m 8 6 6 8 8 8 ",
"1X-XoX|.oX^.^._.-X@XoX|.-X*X-X;X;X|.i.^ Z C A Q 2.0.2.y.j.k.y.Z.Y.T.r.T b 8 1 , 1 , ; - - = - , b ^ ! _ :.>._ m r t f d b b k b ",
";X1X*X=X|..X@X-X@X&X.X&X@X-X2X1X|.Q.2.^ C C Z { 5.i.q.p.p.k.m.x.L.Q.U.U._.(.L.t.[ T B B n ` <.l.y.0.6._ Y ) ..>.^ ! ^ B d d a d ",
"1X2X;X&X%X.X@X;X&X&X&X&X1X2X2X1X(.m.2.^ A C C V Z V Z ^ | k.x.F.^.C.Y.Y.(.[.|.[._.^.^.(.(.P.U.m.c.s.p.0.` R _ 2.4.@.>.D s y a r ",
"2X6X;X;X-X-X@X=X>X;X|.-X;X6X6X&X^.V.0.4...( g f f f 0 6 0 g A z.T.(.B.W._..X(.OX.X.X!._._.].C.M.i.z.4.6.5.| V | 5.0.| T k d a y ",
"2X6X1X>X;X;X&X&X1X;X+X@X2X6X4XoXT.L.j.a.m.>.C p g Z A n q , 1 b 7.J.P.W.|.&X.X.X%X+X'.[..X[.m.y.f.p.8.0.d.9.^ R 2.:.| ^ N b k k ",
"-X2X4X1X;X>X*X|.Q.Q.T.@X-X6X1XoXQ.L.J.Q.f.| C g n 0.y.0.^ f ; ; 6 W h.R.E.oX.X&X+X=XOXoX^.'.Y.C.a.s.0.s.9.q.@.Q ] @. ._ m m b b ",
"OX&X@XoX(.L.f.| Z Y P.&X1X2X1X@XOX^._.U.Q g f n _ i.p.2.Q g , - - , f ^ l.Y.].oX*X@X+X].].(.U.l.c.h.s.p.s.q.4.| @.| @.) B n m m ",
"'.'.V.i.| W y 1 6 <.D.;X2X6X1X>X&XoXV.` y 0 6 q g n f f q 6 , 0 q 8 1 0 I 0.d.P.T..XR.R.L.m.x.M.c.F.5.s.s.z. .| @. .^ { B V b C ",
"^.m.2.A g 1 = - ) oX&X2X6X9X8X4X1XD.E t , - @ + @ + + @ - , 6 p g y q 8 q m _ 4.J.P.J.J.m.m.h.z.m.c.d.y.a.0.6.:..._ E Y B V D V ",
"f...Z f , = ; / D.1X2X6X9X9X8X2X_.O.8 ; + + + @ + + o = - ; , 8 0 y q f q q f W _ y.2.y.h.s.a.j.w.j.5.p.2.9.3.4.` ^ E ^ m V U Y ",
"| Z f 1 = - T T.@X2X2X2X1X1X@XD.<.d , = @ @ + + + + + @ = - - ; ; 1 0 0 y 8 6 8 b E ' | @...5.$.5.y.q.4.,.<.,.] +.! ) T D B I V ",
"W g 1 ; - b %.|.-X;X@X@XoX|.7.Y y 1 = + + @ + + o + + @ = - = = + - - ; , , - ; , d m ! ^ { W _ { :.! ^ O.O.T ! W / T T / ` T I ",
"C y 1 - 6 E t.T.L.v.r.y.m.L.7.m 6 ; - , , - = @ = @ @ = - ; - @ @ = = - - = @ + = = 7 J ..{ E E ! ! E W _ ^ V J / ! E T _ ! R V ",
"g 0 , - y O.t.[ k D ) ] U Y b 8 - 1 d ! b 6 , ; ; - - - ; 7 - - : - - ; - : @ + + + @ 7 I +.' _ E E E W Y ~ N N K / / / _ [ U Z ",
"b 6 , , m ! ! y 8 y m b 8 8 , @ - 8 U ^ W f 8 1 , ; - - - ; , - ; > ; , , ; > : = + + @ , b W ' E E R R W ~ D N K / / / [ ~ I C ",
"b r , 1 D T s 9 9 t d k t 8 , , B l.y.5.^ W g y 6 6 ; , 6 6 1 , , 1 ; 1 6 6 1 7 3 - + + @ 3 d I ! ^ I W ] [ N z J [ T T ~ T B C ",
"n t 1 , D J s 9 8 t f m b f d B 2.V.L.M.d.Q C g f 0 0 0 g g f f f q 6 6 q q 6 6 6 , = + @ - , b E E ^ [ <.O.~ d N T U T E V n n ",
"V t 0 8 k J r 9 9 y d m m ^ _ { ^ @.<.0...{ A Z n g g n n Z V C g f q q 0 y 6 8 6 6 > = + - - q C ^ ` <.O.<./ m k J J ~ T B n C ",
"` m 8 d x x 7 , ; - ; 0 f C C n n C Z C C g f f p 0 q q p p p q 0 6 6 6 1 1 , , , , ; - - ; 1 1 n ^ | @.7.7./ N x J K ~ T B C C ",
"t...t b N d 3 - @ @ = , 0 0 1 0 q p 0 q 0 8 1 1 , ; - - , , - - = = + = = = + + + @ @ - 9 y d 8 g { _ <.7.7.~ N x H G ~ ~ Y n Z ",
"t.a.V d ~ x a 9 8 8 y p f f p p p h p p h h h M S h h h p q 0 6 6 1 , 1 6 6 1 , 1 , 1 f ) Q ^ y B { { { 5._ K G x H H L K B B B ",
"%.Z.7.N T / V V B C n A W Q Q o.X.o.o.;.O.@.X.F F X.D S M D M M h h p f p p p p 0 f C y.5.6...m U @.+.:._ ) J J x H L P D m m J ",
"P t.g.) N [ ^ W I ^ I W <.| @.;.+.O.7.,.7.] o.D M M h t h m h q p p p p y 0 0 q g Q l.V.5.@.! b ^ O.@.| ` J N x N H L L N N N D ",
"L e.N.B.J T T W ! { A C / U k B T T M M m N a 9 9 9 3 3 8 r 7 7 r y 0 0 r t 0 k ) L.V.P.2.{ b n @.7.| ] T D d d x N x G G D b m ",
"L #.r.x.<.k / ) ^ Q W g d 8 1 6 9 9 7 7 9 9 7 7 7 4 < < 3 3 3 3 9 8 8 t d y d I l.P.C.e.<.] b m 5.:._ Y m k a a k x d z J J N m ",
"H / #.t.f.T N 2._ _ ^ n y y 8 9 9 r y s a a r 9 3 < < < > 3 7 7 7 r 8 y y b U y.g.F.r.7.<.) f I _ { E B a s r z z z s J N K T T ",
"P #.&.<.i.[ k O.+.{ ^ n f f y 8 y d k N b d a 9 7 < < > 3 9 r t d d k b B I <.g.g.g.r.7.a.I b ^ ! ! Y s a s r s d a N J K K ) / ",
"#.*./ / %.r.m U 7.2.Z n f d t d I E B U I N d r 9 9 7 9 r k b U E ^ V Y ! ;.r.Z.B.H.<.l.i.m m _ ^ ( N a a a r a a d x T ~ / T J ",
"#.&.&.#.&.%.T B ..0.{ Z g f d B i.y.5.@.2.` Y m N d z N ~ [ O.7.i.y.<.@.;.7.g.t.L.c.t.r.<.b U ^ ( ! N r r r a s z N H L #.#.J b ",
"L *.&.*.#.H d / ..0.8._ C g n @.f.x.5.7.| 4.7.i.<.<.r.Z.N.P.Z.T.a.g.i.<.[ <.r.t.t.t.d.t./ V Y ) E ! s r 8 d H L N K K L L L ~ / ",
"H &.*.*.&.x 7 d K 7.k.2.Q ^ W i.L.C.M.7.7.2.f.l.d.g.Z.t.A.Z.H.H.P.e.<.[ $.7.i.y.t.9.f.t.O.E ] ^ ^ D a 9 r s z L L J G H K P / ~ ",
"v #.#.#.P z 4 4 u / l.F.q.f...i.L.U.B.C.M.P.g.g.P.(.L.D.|.oXP.Z.Y.r.[ O.,.7.:.7.<.y.<.7.O.] ^ ` / J r a r 7 3 s P G s v L #.O.%.",
"l L P P P z 4 & > e O.T.V.y.q.0.V._.Y.L.E.(.R.(.oX|._.oX;X&X|.v.t.t.<.O.<.,.+.+.4.<.<.7.y.%.%.[ _ J s d x u 7 9 J P v G J / %.r.",
"w G L #.H s * % & * i v.R.m.y.P.u.P.T.~._.].[.oXoX@XoX&XOX_.Z.[ <.g.r.e.` ) ` O.] $.7.i.t.t.7.%.~ N s s j u 7 e s J J K G P %.e.",
"w z L L G u & % % & 4 G S._.j.a.z.m.B.C.E.Q._./.P.Z.W.P.Z.t.l.y.e.7.<.O.^ ) ( { ,.<.t.g.P.J.t.[ / x s x j i u r 7 8 s J J L x i ",
"5 w c v z e % # % * & 7 %.*X^.j.y.i.5.B.Y.!.P.Q.B.f.d.a.t.t.<.y.u...E ^ { ;.( +.<.4.e.B.U.).t.[ P x 3 z z s u e : ; 7 s s 9 < 4 ",
"% & 2 5 j 5 % O # % & 2 z &X&XE.9.5.L.(.|._.Y.T.T.M.z.a.y.4.$.| { ` E W | _ +.<.i.! r.B.~./.Z.%.L k e 5 i w 5 w : $ > > > < < > ",
"O O # * 4 4 & O # # & > r |.-XS.&.D.@X*X@X=X.X|._.[.E.R.l.M.i.q.] ! I E E ] O.y.4.<.t.U.Q.[.H.#.G s z 5 > : : 4 & # > < 3 w 7 s ",
"O O O % & 2 * O O O & : k D.1X>X>X4X<X>X1X4X6X4X>X;X;X&XOX^.`.W.Q.n./ K T ~ ` +.<.a.C.U.[.}.r.H G e e 5 > : & & O # < 7 a s s z ",
". . . # % * & # . O $ < O._.#X4X7X8X5X4X4X7X5X8X8X6X,X4X5X2X+X+X+X=X).v.#.K D ] g.P.B.).+X)./ G x w * * & & O O O # & < 9 r r i ",
". . . O # & % # . X # s r. X:X:X4X5X5X:X,X,X,X,X3X3X,X,X,X,X$X$X$X$X$X$X$X-.P *.A.D.D.).XX-.v c l w * & & # O O # # % * 5 3 w u "
};
