/* XPM */
static char *out[] = {
/* columns rows colors chars-per-pixel */
"64 64 223 2 ",
"   c #2B1608",
".  c #4A2415",
"X  c #5C2C1A",
"o  c #68321E",
"O  c #583F2A",
"+  c #763A24",
"@  c #7E3D26",
"#  c #63432F",
"$  c #6E402D",
"%  c #6A4D37",
"&  c #77523D",
"*  c #7F5D46",
"=  c #814A35",
"-  c #8E4B34",
";  c #96523A",
":  c #865540",
">  c #8C5D46",
",  c #9D5943",
"<  c #955F49",
"1  c #A45E45",
"2  c #89664F",
"3  c #9B644E",
"4  c #916A53",
"5  c #9A6F56",
"6  c #AB644A",
"7  c #A16851",
"8  c #AD6D51",
"9  c #A86D58",
"0  c #B36A51",
"q  c #B76F53",
"w  c #A1765D",
"e  c #A7755C",
"r  c #AE755B",
"t  c #B4715D",
"y  c #B97658",
"u  c #A87B63",
"i  c #AE7D64",
"p  c #B77764",
"a  c #BD7564",
"s  c #B27861",
"d  c #B47F64",
"f  c #BB7E63",
"g  c #C1785B",
"h  c #C87E61",
"j  c #C07B6B",
"k  c #AC836B",
"l  c #BE8466",
"z  c #B3876E",
"x  c #BA876A",
"c  c #BF8B6C",
"v  c #B78C72",
"b  c #BC8E72",
"n  c #C38264",
"m  c #CC8566",
"M  c #C78568",
"N  c #C4816F",
"B  c #C48A6C",
"V  c #CC8C6D",
"C  c #CC8C6E",
"Z  c #D18969",
"A  c #D48C6E",
"S  c #D88F6F",
"D  c #C88973",
"F  c #CC8A78",
"G  c #D08B78",
"H  c #D38E7E",
"J  c #C39072",
"K  c #C69677",
"L  c #C89172",
"P  c #CC9475",
"I  c #C09379",
"U  c #CA997A",
"Y  c #CF9C7E",
"T  c #D19071",
"R  c #D09072",
"E  c #D29172",
"W  c #D09273",
"Q  c #D39273",
"!  c #D49374",
"~  c #D59475",
"^  c #DA9472",
"/  c #DD9876",
"(  c #D79778",
")  c #D1967C",
"_  c #D89778",
"`  c #D59A7B",
"'  c #D99878",
"]  c #D9997A",
"[  c #DB9A7A",
"{  c #DA9A7B",
"}  c #DC9B7B",
"|  c #DB9C7D",
" . c #DA9D7E",
".. c #DE9D7D",
"X. c #DC9D7E",
"o. c #DD9D7E",
"O. c #E09E7D",
"+. c #E29F7D",
"@. c #E2A07F",
"#. c #D89380",
"$. c #D89982",
"%. c #DD9E80",
"&. c #DE9F80",
"*. c #DF9F80",
"=. c #D4A082",
"-. c #DFA081",
";. c #DCA386",
":. c #D8A485",
">. c #D7A88D",
",. c #DCA88A",
"<. c #DFAB8E",
"1. c #DBAB91",
"2. c #DFAF94",
"3. c #E0A081",
"4. c #E2A181",
"5. c #E3A181",
"6. c #E0A182",
"7. c #E1A283",
"8. c #E3A282",
"9. c #E4A281",
"0. c #E4A382",
"q. c #E4A383",
"w. c #E5A383",
"e. c #E6A483",
"r. c #E5A484",
"t. c #E6A584",
"y. c #E6A585",
"u. c #E7A685",
"i. c #E7A686",
"p. c #E8A787",
"a. c #E9A887",
"s. c #E0A58A",
"d. c #E3AC8D",
"f. c #E7AD8F",
"g. c #E8A888",
"h. c #E9A888",
"j. c #E9A989",
"k. c #EAA989",
"l. c #EAAA8A",
"z. c #EBAA8A",
"x. c #EBAB8B",
"c. c #EBAC8C",
"v. c #EBAE8F",
"b. c #ECAC8C",
"n. c #ECAD8D",
"m. c #EDAD8D",
"M. c #EDAE8E",
"N. c #ECAE8F",
"B. c #EEAF8F",
"V. c #EDAF90",
"C. c #E4B195",
"Z. c #E9B193",
"A. c #EDB091",
"S. c #EFB090",
"D. c #EEB091",
"F. c #EDB192",
"G. c #EEB192",
"H. c #EFB293",
"J. c #ECB496",
"K. c #E6B599",
"L. c #EAB79A",
"P. c #EEB899",
"I. c #EEBC9E",
"U. c #F0B293",
"Y. c #F0B394",
"T. c #F0B495",
"R. c #F1B495",
"E. c #F0B496",
"W. c #F1B596",
"Q. c #F1B597",
"!. c #F2B596",
"~. c #F2B697",
"^. c #F2B798",
"/. c #F3B799",
"(. c #F3B899",
"). c #F2B89A",
"_. c #F3B89A",
"`. c #F3B99B",
"'. c #F4B99B",
"]. c #F4BA9B",
"[. c #F4BA9C",
"{. c #F4BB9C",
"}. c #F4BB9D",
"|. c #F5BB9D",
" X c #F5BC9E",
".X c #F5BD9E",
"XX c #F5BD9F",
"oX c #F5BE9F",
"OX c #F1BFA1",
"+X c #F5BEA0",
"@X c #F6BFA1",
"#X c #F6C0A1",
"$X c #F6C0A2",
"%X c #F6C1A3",
"&X c #F7C2A3",
"*X c #F6C3A4",
"=X c #F2C4A5",
"-X c #F7C4A5",
";X c #F7C5A6",
":X c #F7C6A7",
">X c #F7C7A8",
",X c #F7C8A9",
"<X c #F0CBAD",
"1X c #F4CDAE",
"2X c #F8C8A9",
"3X c #F8C9AA",
"4X c #F8CAAB",
"5X c #F8CBAC",
"6X c #F8CCAD",
"7X c #F8CDAE",
"8X c #F9CEAF",
"9X c #F3D1B3",
"0X c #F7D1B2",
"qX c #F0D4B6",
"wX c #F6D4B6",
"eX c #FAD3B4",
"rX c #FAD7B8",
"tX c #F1D8B9",
"yX c #F7D8BA",
"uX c #F5DBBB",
"iX c #FADDBE",
"pX c #F6DDC0",
"aX c #F9E1C3",
/* pixels */
"2.G.e.u.' B k k u k K Y Y =.>.C.1.2.C.2.1.C.2.C.2.C.C.L.L.L.K.K.C.C.2.C.d.Z.v.f.f.v.s.s.;.s.j.g.-.6. .7.6.7.o.o.( ( ( } ' [ ! ~ ",
"<.j.B.b.u.W d u u u K U Y :.1.2.2.1.1.2.C.C.C.2.2.C.C.C.K.K.K.2.2.2.C.2.d.f.f.v.f.d.s.s.s.s.g.s.s.6.6.9.i.i.7.*.} } [ } O.} X.! ",
"J ..+.t.e.' i k e k I Y =.>.>.1.2.2.>.C.C.K.<.2.2.C.2.C.C.L.2.C.2.C.<.C.f.C.i.c.c.c.7.d.s.d.s.N.B.M.r.i.i.k.9.4...{ ! } ..@.( ~ ",
"b ^ ^ / ' m d w e k I Y :.=.>.1.2.2.C.C.K.2.C.2.C.C.2.C.L.K.C.C.K.2.2.1.K.f.f.v./.W.J.N.W.D.c.n.V.x.l.r.l.g.r.O.o.( ' ( O...' ~ ",
"b ^ Z A m h y i w x U =.Y >.>.2.1.C.C.K.C.K.C.C.2.C.C.K.C.K.K.L.C.K.L.XXQ.`.Q.).T.Q.U.W.v.F.n.n.i.c.t.i.9.p.9...( | ] } _ ..( _ ",
"b ^ Z Z m g f s i x U =.Y :.>.C.2.C.K.C.K.K.K.K.L.L.I.I.OXOXOXXXXX`.{.I.`.P.P.R.Q.U.Y.G.M.g.p.r.h.h.r.@.5.g.y.X.}  .|  .-.%.' A ",
"I / m Z Z h g f l L Y =.d.J.d.L.I.&X|.@X&X-X|.@XOXOXI.I.$X-XoXOX+X+XQ.].].{.A.Y.T.R.v.H.G.b.q.g.h.h.3.5.t.b.i.@.*.6.] &.7.6.E A ",
"I [ A Z Z m h B G ( %.d.W.`.Q.). XI.{.XX*X%X@XXX%XoX].].@X$X#XXXXX(.T.Q.[.W.N.n././.F.H.Q.S.k.y.g.g.5.r.c.z.i.q.r.*.%.%.-...' A ",
"J / A A Z Z C ! L =.;.c.N.H.R.).Q.XX{.@XXX&X$X$X|.].F.(.`.@XoX#XT.D.A.R.W.`.Y.T.W.^.Q.^.J.Y.n.l.7.q.4.g.i.c.y.q.O...( 5.O.*.{ S ",
"J / A A A S ] L J J L I ) ) =.d.J./.{.XX%X@X@X@X XD.D.H.XX'.XX`.U.c.j.v.W.{.@X@X@X@X].W.T.D.q. . .] ] ( W D R R Q Q _ } O.{ X.E ",
"L ..A S ^ A 8 < : > @ + + & & 5 J ,.s.J.^.XXQ.`._.Y.q.l./.|.Q.T.y.y.7.y.T.&X{.XX%X%XJ.J.s.Y s e 7 3 3 7 7 9 r f l n l M W ( T V ",
"U ..S Z ^ n 1 , r i 5 : $ O O o = < r B %.g.A.Y.R.V.r.r.T./.F.g.j.r.*.y.W.`.].P.Q.s.J r 7 = $ o X X X o = : : < 7 7 7 1 8 f f n ",
"L 6./ S / S Z ` ;.d.,.<.I e > : = - < r f E &.N.b.D.y.j.q.c.j.q. .%.X.7.g.A.Y.7.B 9 = $ X X . . . . o $ + & = : > ; ; ; < 3 , 7 ",
"I =.{ A O.( ' O.q.g.J.L.K.,.=.D f r 8 r f l ! y.z.z.k.y.p.y.y.O.! ! ~ ~ ( 6.( f 3 = $ o X X X o & > e s s 7 3 3 7 3 < ; ; < , > ",
"K =.` ! 6.*.( q.q.y.-.%.s.d. .` P B f l n D D X.g.l.8.8.t.l.7.{ M M n V C C y 1 - @ + + @ = > 9 B  .%.7. .] M M B B p 9 9 7 > > ",
"Y =.:.( s.j.| O.! l D =.J.Q.f.g.6.C y 8 y V ! { z.j.8.3.i.r.t.( l y f f l p 6 ; - = @ - , 9 f J ! ( ( `  .( ! ! ] ( C D B d 7 < ",
"Y :.;.X.%.j.&.W 8 C f.I.L.I.J.g. .( m y 8 y M ~ O.g.7.y.*.r.t.X.n y t y y 0 1 ; - - - ; ; 7 t f y t 8 t 8 8 8 y f C M R n l y 8 ",
"=.=.:.;.7.g.6.n 0 =.C.,.L x i 5 > < 7 1 6 8 f V ' q.t.g.t.r.y.{ V n p y 8 3 ; - - : + + < y W X.$.W M n p 8 ; = @ ; p D B B n f ",
">.>.Y 6. .7. .n l Y i : O . .       . o = < 8 n C q.g.h.c.U.q.7.W M t 8 1 3 - = @ o o 3 r 3 : & & & & > 3 7 3 > @ + = n W ( C n ",
":.=.Y :.` n M l y > .     . O .       . o + @ 8 Z ..U.|.{.Y.V.q.{ n 6 , 1 ; @ + o X = @ o   .                 . . X X ; D D t y ",
":.:.=.:.` n f 3 @ + o o $ & * % . . . % & $ o = C O.Q.6X;X#X`./.X.g , 1 < - @ + X X + @ = O O     . . O . . . X . . . @ 3 6 y ~ ",
",.:.:.:.;.c.6.m y ~  .D ` P J d i u r d r 7 7 0 X.b.XXeX8X,X-XN.! 8 1 1 1 ; 1 , ; , s l L J d 9 < < e d r 7 3 < ; - ; 6 1 1 g V ",
"1.d.,.;.;.b.z.b.y.' O.g.y.s.X. .%.' Z A A ' ! X.B.|.@XyXyXeX).c.Z 0 , 6 t y M X.O.O.! { 7.7.{ T V T Z E m n g m Z ~ V 8 1 T ' ! ",
"d.d.,.;.;.g.x.Y.U.b...~ ' A m Z ~ A A Z m h g ! `.@X:XeXyX8XXXj.T q 6 q E ] ( @.j.O.C V ~ ( ! A m g 0 0 g Z S ~ Z q - - g ( O...",
",.,.:.;.;.j.m.!.!.(.n.} m n g m n g q 0 6 y  .@X@X%X6XyX8X4X).q.m f g m m ..z.b.i.c.r.( g 8 1 8 6 6 6 q 0 6 , ; = - q / O.{ ! { ",
"d.s.s.d.s.i.`.U.^.|.|.|.B./ n 0 1 1 6 y ] I.6X8X-X-X5X6X8X@XD.' m m A S ^ O.z.z.z.D.W.A.N.-.! M n t 8 1 1 1 8 f T @.j.t.c.@.( R ",
"c.f.;.d.s.B.U.R.XX@XXX4X-X-X)./.D.W.D.OX4X8X4X5X4XeX4X8X8X@X7.T m A A O.g.b.y.i.m.U.h./.`. XY.@X X@XT.v.T.`.Q.T.U.D.y.p.h.k.O.~ ",
"c.f.s.s.s.B./.|.-X:X8X5X8X-X@XXX-X&X:X,X5X4X2X4X8X8X7X8X:XW.O.A Z Z A ' q.i.i.t.z.D.D.W.|.[.^._.XX;X@X.X&X X/.^.U.n.y.r.h.h.9.@.",
"r.i.6.s.%.D.|.|.-X:XeXeX5X>XoX X@X4X8X3X;X:XeX0X0XeXyX4X|.D...~ m A h h g g g m A 9.n.`.Y.`./.-XoX;X&X-X#X$X].^.U.z.i.r.w.p.9.0.",
"r.8.6.-.7.T.|./.:X,X4XeXeX3X%X@X:X4X8X:X2X,X8XyXiXiXeX&X).B.g.w.} Z g g g g q 1 1 y ( b.).].`.oX-X:X:X-X-X%XoX/.R.D.n.a.a.y.q.5.",
"i.y.o.&.7.D.W./.-X8X>XeXeX8X-X:X,XeX4X6X4X:X-X8XiXaX6X&X).W.c.N.h./ g g A @.S m 0 ; , f 7.S.Y.XX-X:XOXOX%XXXY.R.^.S.i.h.a.h.5.5.",
"i.7.%.| 4.B.W.`.%X$X&X4XeXeX4X,X5X,X-X`./.|.:X8XiXiX6XXXXX'.W.R.b.' m h O.z.q./ m ; - ; 8 V 7.b.!.^.^.^.XX!.D.z.B.B.k.p.m.g.r.5.",
"%.-. .-.*.x.U.!.!.|.'.:X&X@X@XXXQ.B...~ ..`.4XeXyXyX6X-X@X XXXU.( h g Z / q.' Z q 6 1 6 , 6 g ' *.j.n.U.N.D.x.B.t.a.h.z.w.i.7.q.",
"@.| *.%.7.z.S.U./.T.`.`.Q.D.z...~ g 6 y c.@X4XyXiXyX6X:X@X#X).( y 1 6 6 0 1 , , , 6 q q y q 0 y Z ~ 9.r.z.j.t.5.9.9.y.i.h.7.%. .",
"3.q.(  .3.z.h.c.U.(.S.z.g.@.m y 1 - 1 d.:X8X,XiXaXpXyXeX,X@X( t , - + + + + @ - , 6 1 0 y y q 6 0 f m ' *.9./ X.O.O.O.3.@.3.( ( ",
" .` ] ` 6.p.h.p.m.S.q.{ ( m 0 - - 6 ;.-XeXyXeXiXaXaXaX6X-X7.0 - + + + + + + @ @ = - ; ; 6 0 0 1 1 1 8 n ! ~ E E ~ E ! ! ' ( ! P ",
"~ ` ~ ] ] 8.0.t.y.z./ C g 0 ; = 6 d.OX4X8XyXyXyXyXeX,XOXs.f ; @ + + + + o + $ @ @ - @ @ = ; ; - - - - < f ! W ( E ! R ! E ~ W D ",
"Q E ~ Q ( o.O.} +.O.T g 0 ; = 1 ( K.-X4X8X8X4X:X-XQ.d.W p , = + + + + + $ + @ = = = + + @ - = - + + + + - s ! ( ( ~ E C ! E W B ",
"R W D P W [ ! ' [ { n y 1 ; - M  .).I.`.L.Q.j.c.T.T.( y , ; = - - - = = - = - ; ; ; @ = = - = - = + $ $ + = 7 C ~ [ C E ! { W C ",
"B c B c P ' ( ! [ E g 1 ; ; 0 D 6.c.` n C X. .{ ( ( M 8 , 1 t l 8 < - - - - = - < ; - - - - ; ; ; : = + $ $ @ , M C A A ( ]  .W ",
"d x l B B { | ' ^ Z q 1 ; , n D W W s 0 y Z V n 8 8 ; @ @ 6 M E f t 1 , ; ; - ; - ; - ; ; < ; 1 , 3 < - + + + = < n C ~ { %.;.=.",
"l x c c C ] 4.....m t 6 , , n n D s 7 7 0 f n y 6 1 ; - f O.O.^ A n y 6 1 , , 1 6 6 1 1 6 1 6 6 1 ; , ; = + + = - 8 C ( 7.s.s.=.",
"f x l c P  .| 7.r.C 8 8 1 1 f n l s 3 7 t f f n t t 8 l 6.D.q.O.^ A g g q q 0 y g g q q q 0 1 6 6 , ; , - = + - ; 3 M { *.i. .P ",
"x x x c L ` 6.i.v.( t 8 t 6 M l y r 9 8 y f f m M Z E ( X.O.-.O...A m h h g g q g g q 6 6 , , ; = + + + + = - 1 8 1 V { 4.6.] J ",
"d c J K J ` 7.A.f.g.n t y p D l 3 < - ; ; 1 0 n h A V m m T A A h g y 0 1 1 , , , , - - @ @ + + o $ + @ - 8 f W n 8 T 6.{ ] W L ",
"x J Y U U P s.v.H.A.7.f y n n p 9 , - = = ; 1 6 8 0 6 0 y y 0 0 6 1 1 1 , ; ; , , ; - - ; - - ; , 1 1 6 y { O.} C f ! ] } ( P B ",
"K ) Y =.Y Y ` d.H.W.j.D t D D M M n t y f g y n g n y y y q 0 t p N j j j N p a y y 0 y y y q y y y q V y.b...O.n C ( ..` W f B ",
"U Y Y =.:.Y Y ;.G.V.f. .f f ( W T ! E C m h A E ] $.G C #.#.G #.$.G M N F N a a j g a a a y q 0 q g Z q.U.g.{ T f ( O.{ W n f l ",
"K =.:.,.:.:.=.:.i.F.A.A.L p C %.C E E ^ ! m n W D L G #.H H G ! G C a s r s 9 8 9 8 0 a y q 0 t y T y.W.F.7.} M f { ( W f f l B ",
"U :.:.=.:.=.Y =. .=.s.f.j.f f 6.( R ! E ~ M y t 8 8 p n l a p s r r 7 3 3 3 3 3 7 7 9 8 r t y y M O.N.B.j.7.' y M { W f d d l B ",
"=.,.=.:.:.:.) J f L ` ;.%.D 9 ! 7.@.! ~ E M y t t r 9 s p l s r r 9 3 3 3 7 > < 9 9 7 9 t y y D %.N.i.n.s.j.n n ! ^ n s s f d J ",
"=.,.:.:.:.=.L e 3 x U L W W y M y.5...S Z n y y f y l n M D l s d r 7 7 3 3 < 3 9 9 r r y l C 7.J.v.j.s.j.! l V ! C s r d l B B ",
"U ,.:.,.:.U d 5 * 4 u l P %.( Q %.h.@.+.m n g n l L W ! C ( D n p r 8 9 3 3 8 s p B M M M E 6.D.j.v.j.f. .l M ! T l r d l L P ) ",
"L :.,.:.:.b w 2 * : < 5 J s.F.f.6.5.0.9.A n n M X.c.N.j.y.s. .! D l l d l n J C `  . .( !  .c.j.Z.f.f.;.C B T C f d f l J P ` ) ",
"b =.Y =.Y b w * * > * : e d.L.}.z...@.y.' _ Z { /.W.g.q.-.&.&.;.;.;. .=.=.d.s.d.7.6.~ ( | c.q.d.f.C.s.` E T V l f J J c L P ` ;.",
"z U Y Y Y x 4 % * * & & w ,.I.@XQ.0.z.j.y...7.z.I.Q.V.s.r.g.s.s.d.,.,.f.K.J.f.s.%.` ! ! y.q.6.7.s.f.s.` ( E l 9 r B L c J L  .d.",
"w J U Y K x * % % & & 4 w U +X:X`.g.5.l.8.6.y.W.`.W.F.A.T.W.J.Z.L.L.L.OXI.,.d.i. .( W ( O.6.7.N.f.f.;. .W J d e 7 f B L D P =.;.",
"w z K Y b e & % % & * > w J >X5X}.l.5.q.i.r.j.T.T.].}.|.$X].I.I.I.P.P.P.d.;.g.7.*.~ Q ~ 7.-.c.d.A.d.;.) J c i e 7 7 s B P Y c i ",
"5 w b b x w % # # % % * 4 c :X8X+XH.3.@.i.U.Y.^.E./.H.W.H.Q.J.).f.f.d.A.l.i. .o.] ( W ] %.d.d.W.T.f.U x x J i e > : 3 r d 7 4 4 ",
"% & 4 5 k 4 % O # # % : 3 c 4X5X&Xg.-.c.%X$X`.W.`.^.H.v.D.v.i.q.q.7.7.*.3.} ] (  . . . .7.N.T.).`.:.J e w u w 7 > $ & > > < < 4 ",
"O O # * 4 4 * O # # % : < W >XeX<.d.%X4X:X7X3X:XoX$X}.{.~.W.v.n.q.q.{ ~ T ~ ` } o.i.i. .7.T.`.+Xf.K i d 2 4 > 4 & # : 3 3 9 5 i ",
"O O O % * 2 * O O O % = r A.3X8XwXyXeXeXeXyXaXpXyX7XeX7X2X%XoX{.].R.y.W W ~ ' { 7.y.v.A.^.oXI.=.J d w e 2 > & & # O > 7 r d f x ",
". . . # % * & # . O $ < %.+X3XyXpXaXuXyXyXpXuXaXaXaXwXyXuXrX;X;X:X5XOXC.=.P D %.v.Q.J.%X;XI.Y J c w * * & & O O O # & < 9 r r d ",
". . . O # & % # . X # d d.*X8X9XiXuXuX9XqXqXqXqXtXtXqXqXqXqX<X<X1X<X<X<X<X2.Y ,.K.L.I.I.=X2.b v x w * & & # O O # # % * 5 5 w u "
};
