/* XPM */
static char *out[] = {
/* columns rows colors chars-per-pixel */
"64 64 222 2 ",
"   c #2B1608",
".  c #4A2415",
"X  c #5C2C1A",
"o  c #68321E",
"O  c #583F2A",
"+  c #763A24",
"@  c #7E3D26",
"#  c #63432F",
"$  c #6E402D",
"%  c #6A4D37",
"&  c #77523D",
"*  c #7F5D46",
"=  c #814A35",
"-  c #8E4B34",
";  c #96523A",
":  c #865540",
">  c #8C5D46",
",  c #9D5943",
"<  c #955F49",
"1  c #A45E45",
"2  c #89664F",
"3  c #9B644E",
"4  c #916A53",
"5  c #9A6F56",
"6  c #AB644A",
"7  c #A16851",
"8  c #AD6D51",
"9  c #A86D58",
"0  c #B36A51",
"q  c #B76F53",
"w  c #A1765D",
"e  c #A7755C",
"r  c #AE755B",
"t  c #B4715D",
"y  c #B97658",
"u  c #A87B63",
"i  c #AE7D64",
"p  c #B77764",
"a  c #BD7564",
"s  c #B27861",
"d  c #B47F64",
"f  c #BB7E63",
"g  c #C1785B",
"h  c #C87E61",
"j  c #AC836B",
"k  c #BE8466",
"l  c #B3876E",
"z  c #BA876A",
"x  c #BF8B6C",
"c  c #B78C72",
"v  c #BC8E72",
"b  c #C38264",
"n  c #CC8566",
"m  c #C78568",
"M  c #C4816F",
"N  c #C48A6C",
"B  c #CC8C6D",
"V  c #CC8C6E",
"C  c #D18969",
"Z  c #D48C6E",
"A  c #D88F6F",
"S  c #C98270",
"D  c #C88973",
"F  c #CC8A78",
"G  c #D38E7E",
"H  c #C39072",
"J  c #C69677",
"K  c #C89172",
"L  c #CC9475",
"P  c #CA997A",
"I  c #CF9C7E",
"U  c #D19071",
"Y  c #D09072",
"T  c #D29172",
"R  c #D09273",
"E  c #D39273",
"W  c #D49374",
"Q  c #D59475",
"!  c #DA9472",
"~  c #DD9876",
"^  c #D79778",
"/  c #D1967C",
"(  c #D89778",
")  c #D59A7B",
"_  c #D99878",
"`  c #D9997A",
"'  c #DB9A7A",
"]  c #DA9A7B",
"[  c #DC9B7B",
"{  c #DB9C7D",
"}  c #DA9D7E",
"|  c #DE9D7D",
" . c #DC9D7E",
".. c #DD9D7E",
"X. c #E09E7D",
"o. c #E2A07F",
"O. c #DD9E80",
"+. c #DE9F80",
"@. c #DF9F80",
"#. c #CFA186",
"$. c #D4A082",
"%. c #DFA081",
"&. c #DCA386",
"*. c #D8A485",
"=. c #D7A88D",
"-. c #DCA88A",
";. c #DFAB8E",
":. c #DBAB91",
">. c #DFAF94",
",. c #E0A081",
"<. c #E3A181",
"1. c #E0A182",
"2. c #E1A283",
"3. c #E3A282",
"4. c #E4A281",
"5. c #E4A382",
"6. c #E4A383",
"7. c #E5A383",
"8. c #E6A483",
"9. c #E5A484",
"0. c #E6A585",
"q. c #E7A685",
"w. c #E7A686",
"e. c #E8A786",
"r. c #E8A787",
"t. c #E9A887",
"y. c #E0A58A",
"u. c #E3AC8D",
"i. c #E7AD8F",
"p. c #E8A888",
"a. c #E9A888",
"s. c #E9A989",
"d. c #EAA989",
"f. c #EAAA8A",
"g. c #EBAA8A",
"h. c #EBAB8B",
"j. c #EBAC8C",
"k. c #EBAE8F",
"l. c #ECAC8C",
"z. c #ECAD8D",
"x. c #EDAD8D",
"c. c #EDAE8E",
"v. c #ECAE8F",
"b. c #EEAF8F",
"n. c #EDAF90",
"m. c #E4B195",
"M. c #E9B193",
"N. c #EDB091",
"B. c #EEB090",
"V. c #EEB091",
"C. c #EDB192",
"Z. c #EEB192",
"A. c #EFB192",
"S. c #EFB293",
"D. c #ECB496",
"F. c #E6B599",
"G. c #EAB79A",
"H. c #EEB899",
"J. c #EEBC9E",
"K. c #F0B293",
"L. c #F0B394",
"P. c #F1B495",
"I. c #F0B496",
"U. c #F1B596",
"Y. c #F1B597",
"T. c #F2B596",
"R. c #F2B697",
"E. c #F2B698",
"W. c #F2B799",
"Q. c #F3B799",
"!. c #F3B899",
"~. c #F2B89A",
"^. c #F3B89A",
"/. c #F3B99A",
"(. c #F3B99B",
"). c #F4B99B",
"_. c #F4BA9B",
"`. c #F4BA9C",
"'. c #F4BB9D",
"]. c #F5BB9D",
"[. c #F5BC9D",
"{. c #F5BC9E",
"}. c #F5BD9E",
"|. c #F5BE9F",
" X c #F1BFA1",
".X c #F5BEA0",
"XX c #F6BEA0",
"oX c #F6BFA0",
"OX c #F6BFA1",
"+X c #F6C0A2",
"@X c #F6C1A2",
"#X c #F6C1A3",
"$X c #F6C2A3",
"%X c #F7C2A3",
"&X c #F6C3A4",
"*X c #F7C3A5",
"=X c #F2C4A5",
"-X c #F7C4A5",
";X c #F7C4A6",
":X c #F7C5A6",
">X c #F7C6A7",
",X c #F7C8A9",
"<X c #F0CBAD",
"1X c #F4CDAE",
"2X c #F8C8A9",
"3X c #F8C9AA",
"4X c #F8CAAB",
"5X c #F8CBAC",
"6X c #F8CCAD",
"7X c #F9CEAF",
"8X c #F3D1B3",
"9X c #F7D1B2",
"0X c #F0D4B6",
"qX c #F6D4B6",
"wX c #FAD3B4",
"eX c #FAD7B8",
"rX c #F1D8B9",
"tX c #F7D8BA",
"yX c #F5DBBB",
"uX c #FADDBE",
"iX c #F6DDC0",
"pX c #F9E1C3",
/* pixels */
">.Z.q.0.^ N j j e u J I #.=.:.>.>.m.m.G.>.m.>.m.m.m.m.H.J..XG.G.G..X!.H.D.Q.P.S.k.N.k.n.s.N.k.s.i.0.1.u.9.6.' ..^ _ W ' ( Q Q E ",
";.0.x.l.q.Q b d z I :.m.H.H.H.$X@X$X+X+X|.J.J.J.J.J.J.J.+X+X.XXX|.}.}.(.!.).!.Q.U.D.S.k.V.Z.B.d.s.0.r.0.d.8.o.[ [ ' | ' | ' Q Z ",
"J X.o.q.5.' m E 9.Z.n.Q.{.;XOX+X@X-XoX$X>X*X].XX,X6X+X&X4X4X`..XXXXX).J.^.].S.P.L.U.k.n.z.P.h.a.q.d.1.0.r.,._ [ ` ..( | | | Z Z ",
"H Z ! ! E k t r p f d k } U.J.|.;X+X+X+X4X;XOX).%X+X@X;X,X;X/.|.+XOX).C.^.P.U.U.U.P.n.0.l.p.k.r.8.p.0.q.t...] ( ..' ' X.o.( E Z ",
"H A C f 3 : $ $ # # # % & z *.D.{.;X.X+X+X;XOX).^.:X;X;X;X;X{.!.Q.].U.W.D.^.P.U.A.L.n.f.0.l.d.d.o.r.0.l.5...` ' ' ' | o._ A Z Z ",
"J Z g , < 3 u e > # X O # = 4 f ` i.].].(.+X).S.U..XXX+X;X+XS.W.).'.^.U.U.A.U.U.T.P.A.s.r.4.q.<.5.2.a.d.q.] ' ' ' ' X.| _ Z C C ",
"L C y D 6.D.D.{.H.=.u 5 < < > 7 b Q 2.Q.!.%XS.n.S.Q.{.+XOX].n.S.U.].S.].].@X^.].Q.^.k.c.a.g.8.q.q.h.0.d.t.2.] O.<.6.O.| _ Z m n ",
"&.5.2.A.].].|.|.,X;XJ.u.&.L k f m Y ( 9.P.].R.k.n.D.{.{.OXS.a.B.A.U.Q..X&X+X+X{.{.R.S.n.n.d.2.9.s.h.h.r.h.1. .{ 1.+.%._ ( Y m b ",
"8.n.k.n.n.Q.R.{.J.|.R.S.Z.k.,.{ Y W ^ %.l.W.L.L.r.C.^.].D.D.8.j.u.S.Q.%X+X;XOX+X).Q.n.i.%.{ ' 6.1.2.o.q.2.2.+.1. .%.{ | Q C m h ",
"i.h.r.t.l.r.X.] 2.6.9.1.0.y.y.6.,.' ' 1.c.I.T.A.n.b.Z.n.S.i.6.9.0.i.S.Q.).R.i.&.} L k s r r p f x k b D Y Y Q ` { O.%.' ^ n h y ",
"i.h.X.8.5.b b p.D.^.k.i.6.` V Y Q 3.{ q.c.!.v.P.A.A.s.n.c.5.E ( ' 6.r.n.6.V 9 < : & o o $ $ o $ : < < 9 f m b B Y ( ( | Q C g a ",
"D.k.1.| B f i.{.OX^.k.k.n.8.Z g y n ( 5.n.I.A.x.A.l.s.n.A.W m D Y E Q W b 3 : $ o X . . . . . X o $ $ - 3 3 7 7 8 k V E E b g y ",
"M.P.t.E f %.R.G.} x d d f E E m 0 q h ' 5.n.A.V.h.c.n.A.l.V f b b D k f 1 : @ + o o X X X o $ = = = = = : : : ; ; < 1 t y f y g ",
"x.D.n.B m u.#.5 $ O X O . o > 8 q q y m ' q.c.A.Z.d.p.d.p.W b f b b f 8 , - @ @ @ = - , 8 s N E V z r 7 3 < : : : > - > - < 8 0 ",
"1.Z.h.Y V H # .   . % 5 .     $ ; 7 1 f Y X.8.P.Q.A.s.r.5.( b b f y 1 1 ; ; - ; , 1 8 f B Q ( | %.2.E V V k r 7 < < > > : : - 6 ",
"o.| 5.V 8 @ . . . O & 2       . # @ - 6 B _ 0.U.].P.P.k.d.( m f y 8 , ; ; ; - - - - 1 y k p y y f f f b Y ( E N f t 7 < > : : ; ",
"( m y 1 - 1 < > : & % % . . . O # $ o = t | r.OX%X$XS.U.l.| b t 6 1 ; - = = o o = 8 D } *.{ V D y 9 ; - ; t b V m m p 9 < < ; 1 ",
"' B b y b o.v.{ ] V d 5 & # # % > @ + + - 8.h.OX7X4X;X].S.O.f , , , - @ + X X : w < > & : 2 < w e r 8 3 = + - p D b f f s s b y ",
"P.T.n.A.r.' 8.n.S.U.6.] ) L z z d t 8 f Z U.U.;XeXtX4X;XP.| 8 , , ; @ = + o o @ + o   O         . X . o % $ X : N Q B b b m b b ",
"L.P.A.c.P.l.t.q.p.6.1.8.0.{ E C C C Z Z | U.|.,XeXeX7XOXn.Y 0 , 1 1 - 8 7 ; - < 3 < & % .                   . . 3 N y t g b f y ",
"6.n.n.Q.R.].A.o.( W Y Z C Z C Z n n g g ' {.OX7XeXeX6X+Xp.Y 0 6 6 b b Y O.6.] O.( | } ) d 7 > < > & % & $ X . X = , 1 b Y ( ( Y ",
"r.n.P.Q.Q.+X,XU.X.h g b h h g q 6 6 y 1.OX%X;X7X9X7X2XR.9.m y q g C ' X.5.t.,.^ ^ { q.1.| Z C m Y k f y s 8 r y 8 , y m Q ' o.B ",
"l.c.h.R.{.2X%X>X+XQ.| m y 0 1 t b 9.J.4X4X6X2X7X9X7X).n.' C g m Z Z Y d.h.c.r.r.( b y b h m 0 0 q g m Z Q Z g 6 ; b Q Q b y 6 6 ",
"l.A.l.Q.;X,X7X,X6XXX].^.R.A.Z.Q.2X,X2X,X6X4X7X9X7X6X^.0.! C C A | X.| a.d.h.r.L.P.p.V 8 1 1 1 1 6 1 ; ; ; - = ; g E ( | ' f t m ",
"t.P.Q.OX%X6X9XeX4X+X+X].].;X>X6X$X;X;X4X4XwXwXwX6X;XU.5.Z C C ! | d.d.h.q.h.h.P.Z.].R.@XP.y.R b 8 8 1 1 8 b ( 7.5.X.Y E ..1.^ V ",
"l.Q.{.+X4X7XtXtX5X,X+X{.OX2X7X4X4X;X;X7X9XwXtX9X2X].n.,.Q C Z C A A _ ' 8.g.A.A.].(.Q.Q.{.+X*XOX{.].R.Q.Q.P.Z.l.q.o._ m (  .5.m ",
"n.{.{.;X6XeXtXeX7X7X|.|.;X7X6X4X4X4X+X7XtXtXtXwX%X^.k.q.X.' C b g g 0 0 y n ' U.P.].D.^.{.;X>X:X.X+XP.|.^.U.k.0.8.d.' W Y 1.X.D ",
"U.].{.;XwX6XtXtXtX9X>X4X7X9X7X6X7X4X;X;XtXiXpXwX%X(.k.d.c.r.! h g g m g 6 , 6 C k.Q..XQ.+X4X,X&X>XXX!.].OXS.8.0.r.4.5.X.W _ | V ",
"l.^.].>X2X6X9XeXeXwX6X6X2X2X,X6X+X{.{.,XwXeXtX7XXXQ.P.Q.P.Z.| C g Z 5.5.Z y - , y { S.{.@X-X2X6X;X,X%X+XQ.U.r.g.4.r.8.0.' W ^ W ",
"c.P.}.;X.X;X2X,X6X2X%X%X+X).n.2.' 8.{.4X7XeXeX6X.X].].].].8.Z m n ! l.r.o.Z 1 - - 1 B q.P.`.+XOX%X{.OX^.).P.d.d.a.0.4.5.5.( ' ^ ",
"B.A.U.{.OX%X{.{.{.).l.d.5.' g 0 h S.{.4XwXpXwX9X6X;X{.{.d.B q y h ! A Z m g 1 1 1 1 1 g ' c.x.V.^.].n.A.P.P.q.8.s.g.q.q.5.' W ^ ",
"h.h.c.P.OX{.{.A.l.r.| C g 1 - q S.;X,X6XiXpXpXiXtX4XOX0.m 8 , ; ; - - - ; , 6 q g y 8 6 g Q <.a.A.n.n.t.z.d.0.9.e.r.8.0.0.' W V ",
"o.l.B.P.P.).A.t.| A g 6 - ; b ^.2XeX7XeXpXpXpXpXwX2Xk.b 1 = o + + + + + - , 1 8 8 q y y 6 y m _ | r.8.q.o.w.6.d.8.q.} 6.1.| ^ R ",
"a.8.d.h.A.l.r.^ n g 1 - ; E J.;X7XeXeXeXpXpXtX9X;XS.B 1 - + + + + o o + - = - , 1 1 0 y q 6 6 f Y ^ ' ' ~ @.2.2.2.^ ] { O.' Q V ",
"1.q.X.5.d.d.E n y 6 - - B M.+X4X9XtX9X7X7X7XJ.G.9.Y 1 - + + o + o o o + @ = = - @ - ; 1 1 1 ; , 8 D U E Q ' ( ` ^ ' K ' W ` Y V ",
"X.o.X.| 5.X.C g 8 ; - t { H.%X+X6X;X{.D.Q.).A.O.y , - = = @ + + @ + + @ = = = + + + - - - = = = - , b ^ ' T Y Y Q E L D L E V V ",
"( [ ~ | | ! n y , ; 1 V ' S.D.&.Q } %.%.{ 0.9.1.f 1 1 t f 1 ; - - - = - - ; - = @ = = : - = @ + + @ ; m ' ' Y Y U Y Y D x W E E ",
"^ ' ~ ' _ Z h 6 , ; f E ` 6.V y t b W Y m f f 1 - @ , b ' g 8 , , ; - - ; , , - : - - - - - = $ $ $ + : f E Q Y Y R E V N Q ( Z ",
"E ' W _ A Z g 8 , 1 k D D E s 8 8 p f b y 8 1 - = 8 V | ~ Q b y 6 , - - - ; - ; ; ; - ; , , ; < : + + + - y m Y Y ) Q L x Q Y Z ",
"E ( ~ | ' b b 0 1 1 k k N x 9 8 8 y f b b 8 8 1 f p.U.k.t.| Z m y 6 , , 8 0 6 6 6 6 , , 8 6 1 1 , : + + = - b Y ( { } R x E Y B ",
"m ( X.2.' g f b 6 1 m D k f r r 0 g b B b b m Q ' 9.k.A.t.5.' Z m h y g g n n n g y 6 6 0 q 6 8 3 : @ @ = - 8 W ^ &.&.} x W W Y ",
"k ( 1.2.8.m y V m 8 V D 9 7 r 9 6 8 y h C A ' ( ( ( _ | X.( A C C m h b g b h b g 0 6 6 6 6 , 1 ; - : @ - ; 1 Y O.6.&.I D R Y C ",
"x ] 6.s.Z.{ y N ( k b D 9 , - @ @ - ; 8 g h g h n C m m h g 0 6 1 , - ; , 1 ; ; - - = = - = o o + + = 1 t p 1 Y +.6.} L H L V C ",
"z ) p.Y.Q.d.b p ] ^ b N f 9 3 ; , 1 6 6 q q 8 0 g q 8 6 0 8 6 6 6 1 , , , ; - = = = @ @ - - = - - , y B ' B t ^ { O.L K J L Y B ",
"f L i.P.D.Q.] p N %.A E m N b n n h h C C ( G G F G F E F ( Q G F F D M g g a y y y y y 0 y 6 8 0 n X.r.o.Y b ' ' ' L H H L D m ",
"z x &.n.S.U.c.D f ] { ` ^ Z Z Q Z m h _ | X.%.%.} 1.&.%.&.' G D D M y t y g g y g g y q q 8 8 g Z h.h.X.' b E X.| Q H x J L N N ",
"P I L i.W.^.S.O.p D ( ' Y Y Z ( _ Z g E ' W N G G Y D S D V f t 9 9 3 3 8 8 3 9 q t 8 q 0 0 q Z c.P.o.' B b ' 5.` V k x L L k N ",
"P I L } Z.R.S.n.D y R ~ | ! Z Z ' Z b y r 8 7 9 r 8 7 7 7 9 7 3 3 < < < < > < 3 9 8 8 t 0 y B 0.).l.X.( b m O.' V z f x x V N N ",
"L *.$.} 9.Z.Z.U.` t b 8.3.| ! ^ Z C g y t 8 7 9 7 r 9 r r s w 7 < < < > > < < 3 3 7 9 t y V 8.U.k.9.1.Q y E ( E d d f x z L K E ",
"I *.*.$.*.u.n.k.2.y r ] t.q.X.( Q n g y y t t t y f f f f s r 7 3 < > > > < 7 9 t t t y B 2.k.n.k.9.6.m b ( W z s f s z L D Q ) ",
"$.-.#.*.1.&.] } 9.V 9 D h.h.~ _ ^ Z q y f f b B Y Z m B m k t 9 7 3 < < 9 s p N b b k V 1.^.k.B.k.n.( f Y ' m s s d s K L / R L ",
"$.*.$.O.*.I f x y.] N V h.r.X.' | Z g g h B O.s.s.o.' _ ( D f s s s r s N E ^ ' | ^ E ' k.k.s.i.D.k.m b Q E f r s f H H ) I N k ",
"P *.&.&.I x w 5 z R E _ h.A.8.0.| A h h B { x.S.n.a.q.t.1.2.O.' L } *.y.&.u.r.d.1.O.' 6.p.k.u.u.i.6.b Y B k s f f H J I L P L ) ",
"J *.*.*.I z 2 & 4 f ) 1.c.U.q.X.4.X.Q Q 8.U.S.N.C.0.5.5.0.r.p.u.i.i.i.n.k.i.p.%.} { 6.p.p.i.i.i.i.` B Y b s z J x K J R R ) } / ",
"v $.I *.I z 4 * 2 4 z i.{.R.l.| l.v.| q.c.[.D.P.R.S.p.k.Z.n.i.i.D.{.D.P.U.D.] *.%.p.2.6.p.k.u.i.i.} Y V s r 9 K J x x H ) &.y.&.",
"l P I P I d 2 % 2 2 w *.:X+XR.<.x.c.8.0.c.P.'.XX*X%XD.U.|.R.S.D.|.,X,XH.i.i.9.+.6.2.%.9.q.p.6.i.u.} R x s 7 9 s L K v x ) } y.u.",
"w H P $.J f & & & & 4 H %X:X|.h.o.n.d.r.n.{.].+X$X+X&X4X$X%X{.%X{.|.H.s.) i.u.9.` ' { 2.2.p.i.i.&.} D c i w 9 s f / L L L $.&.-.",
"w z P I x w % % & & 4 s m.6X}.U.s.z.d.d.c.P.!.~.W.L.^.].Y.|.+XH.l.D.k.r.w.p.6.' ' Q { O.p.k./.P.y.L z v j i i w 7 p N K P I z i ",
"5 w v z d 5 # # % & & 7 L 9X.XQ.s.l.o.x.I._.P.P.P.^.k.k.k.n.u.u.y.k.6.9.6.8.` ' ' y.' 9.n.XXU.D.*.J 5 z z l u 7 = 3 9 d d w 4 4 ",
"% & 2 5 u 5 % # # % & > x ;X3XY.6.2.Z.oX,X+X(./.].R.V.n.v.j.8.<.1.{ ' Q ..| ' ' 0.r.E 9.[.{.].i.I z 7 5 u 5 5 3 & & > > > < 2 > ",
"O O # * 4 4 % O # % & < f OX4Xm.-.&X,X5X4X7X,X2X.X@X|.{.K.L.Z.A.0.<.Y Y Y ( ' p.9.6.2.E.(.+X|.*.H d l 5 4 * 2 4 % % > 3 3 w 7 i ",
"O O O % * 2 & O O O & : m |.9XwXtXtXqX9XwXtXuXyX9X9XwX7X3X+XXXXX^.R.) L R / ( +.2.f.S.E.+X#Xu.H H w u 4 > * * & O # < 7 s d f z ",
". . . # % * & # . O $ < O..X3XtXiXpXyXtXtXiXyXpXpXpXtXtXyXeX:X:X>X5X Xm.$.L D { k.Y.Z. X:X X) H x w * * & & O O O # & < 9 r r s ",
". . . O # & % # . X # d u.&X8X8XtXyXyX8X0X0X0X0XrXrX0X0X0X0X<X<X1X<X<X<X<X>.I -.F.J.J. X=X>.v c l w * & & # O O # # % * 5 3 e u "
};
