/* XPM */
static char *out[] = {
/* columns rows colors chars-per-pixel */
"64 64 226 2 ",
"   c #2B1608",
".  c #4A2415",
"X  c #5C2C1A",
"o  c #68321E",
"O  c #583F2A",
"+  c #763A24",
"@  c #7E3D26",
"#  c #63432F",
"$  c #6E402D",
"%  c #6A4D37",
"&  c #77523D",
"*  c #7F5D46",
"=  c #814A35",
"-  c #8E4B34",
";  c #96523A",
":  c #865540",
">  c #8C5D46",
",  c #9D5943",
"<  c #955F49",
"1  c #A45E45",
"2  c #89664F",
"3  c #9B644E",
"4  c #916A53",
"5  c #9A6F56",
"6  c #AB644A",
"7  c #A16851",
"8  c #AD6D51",
"9  c #A86D58",
"0  c #B36A51",
"q  c #B76F53",
"w  c #A1765D",
"e  c #A7755C",
"r  c #AE755B",
"t  c #B4715D",
"y  c #B97658",
"u  c #A87B63",
"i  c #AE7D64",
"p  c #B77764",
"a  c #BD7564",
"s  c #B27861",
"d  c #B47F64",
"f  c #BB7E63",
"g  c #C1785B",
"h  c #C87E61",
"j  c #C07B6B",
"k  c #AC836B",
"l  c #BE8466",
"z  c #B3876E",
"x  c #BA876A",
"c  c #BF8B6C",
"v  c #B78C72",
"b  c #BC8E72",
"n  c #C38264",
"m  c #CC8566",
"M  c #C78568",
"N  c #C4816F",
"B  c #C48A6C",
"V  c #CC8C6D",
"C  c #CC8C6E",
"Z  c #D18969",
"A  c #D48C6E",
"S  c #D88F6F",
"D  c #C98270",
"F  c #C88973",
"G  c #CC8A78",
"H  c #D08B78",
"J  c #D38E7E",
"K  c #C39072",
"L  c #C69677",
"P  c #C89172",
"I  c #CC9475",
"U  c #CA997A",
"Y  c #CF9C7E",
"T  c #D19071",
"R  c #D09072",
"E  c #D29172",
"W  c #D09273",
"Q  c #D39273",
"!  c #D49374",
"~  c #D59475",
"^  c #DA9472",
"/  c #DD9876",
"(  c #D79778",
")  c #D1967C",
"_  c #D89778",
"`  c #D59A7B",
"'  c #D99878",
"]  c #D9997A",
"[  c #DB9A7A",
"{  c #DA9A7B",
"}  c #DC9B7B",
"|  c #DB9C7D",
" . c #DA9D7E",
".. c #DE9D7D",
"X. c #DC9D7E",
"o. c #DD9D7E",
"O. c #E09E7D",
"+. c #E29F7D",
"@. c #E2A07F",
"#. c #D89380",
"$. c #D89982",
"%. c #DD9E80",
"&. c #DE9F80",
"*. c #DF9F80",
"=. c #DD9986",
"-. c #D4A082",
";. c #DFA081",
":. c #DCA386",
">. c #D8A485",
",. c #DCA88A",
"<. c #DFAF94",
"1. c #E0A081",
"2. c #E3A181",
"3. c #E0A182",
"4. c #E1A283",
"5. c #E3A282",
"6. c #E4A281",
"7. c #E4A383",
"8. c #E5A383",
"9. c #E5A483",
"0. c #E6A483",
"q. c #E5A484",
"w. c #E6A584",
"e. c #E6A585",
"r. c #E7A685",
"t. c #E7A686",
"y. c #E8A786",
"u. c #E8A787",
"i. c #E9A887",
"p. c #E0A58A",
"a. c #E3AC8D",
"s. c #E7AD8F",
"d. c #E8A888",
"f. c #E9A989",
"g. c #EAA989",
"h. c #EAAA8A",
"j. c #EBAA8A",
"k. c #EBAB8B",
"l. c #EBAC8C",
"z. c #EBAE8F",
"x. c #ECAC8C",
"c. c #ECAD8D",
"v. c #EDAD8D",
"b. c #ECAE8F",
"n. c #EDAE8F",
"m. c #EEAF8F",
"M. c #EEAF90",
"N. c #E4B195",
"B. c #E9B193",
"V. c #EDB091",
"C. c #EEB090",
"Z. c #EFB090",
"A. c #EEB091",
"S. c #EDB192",
"D. c #EEB192",
"F. c #EFB192",
"G. c #EFB293",
"H. c #ECB496",
"J. c #EAB79A",
"K. c #EEB899",
"L. c #EEBC9E",
"P. c #F0B293",
"I. c #F0B394",
"U. c #F0B495",
"Y. c #F1B495",
"T. c #F0B496",
"R. c #F1B596",
"E. c #F1B597",
"W. c #F2B596",
"Q. c #F2B697",
"!. c #F2B698",
"~. c #F2B798",
"^. c #F2B799",
"/. c #F3B799",
"(. c #F3B899",
"). c #F2B89A",
"_. c #F3B89A",
"`. c #F3B99A",
"'. c #F3B99B",
"]. c #F4B99B",
"[. c #F4BA9B",
"{. c #F4BA9C",
"}. c #F4BB9C",
"|. c #F4BB9D",
" X c #F5BB9D",
".X c #F5BC9E",
"XX c #F5BD9E",
"oX c #F5BD9F",
"OX c #F5BE9F",
"+X c #F1BFA1",
"@X c #F5BEA0",
"#X c #F6BEA0",
"$X c #F6BFA1",
"%X c #F6C0A2",
"&X c #F6C1A2",
"*X c #F6C1A3",
"=X c #F6C2A3",
"-X c #F7C2A3",
";X c #F6C3A4",
":X c #F7C3A5",
">X c #F2C4A5",
",X c #F7C4A6",
"<X c #F7C5A6",
"1X c #F7C6A7",
"2X c #F7C7A8",
"3X c #F7C8A9",
"4X c #F0CBAD",
"5X c #F8C8A9",
"6X c #F8C9AA",
"7X c #F8CAAB",
"8X c #F8CBAC",
"9X c #F8CCAD",
"0X c #F8CDAE",
"qX c #F9CEAF",
"wX c #F3D1B3",
"eX c #F7D1B2",
"rX c #F0D4B6",
"tX c #F6D4B6",
"yX c #FAD3B4",
"uX c #FAD7B8",
"iX c #F1D8B9",
"pX c #F7D8BA",
"aX c #F5DBBB",
"sX c #F6DDC0",
"dX c #F9E1C3",
"fX c #FBE5C7",
/* pixels */
"<.D.y.y._ M 7 > & $ O O O $ > s I q.H.$X:X1X$X{.E..XXX1X*X6X_.{.{.].~.^.T.|.!./.D.H.C.l.d.l.f.i.2.0.q.d.p.7.[ ..( ] ~ [ ( ( Q ~ ",
",.y.v.v._ t > : > > $ # $ = > < 8 n ` C.$X&X}.!.E.`.=X&X*X&X!.T.~.}..X`.XX(.[.].(.S.D.h.l.f.e.5.5.e.d.y.0.O...} } } O.[ } ] _ Q ",
"K ^ } / g r z U N.H.>.K x d e p f V W 4.R.:X/.U.D.}.).&X1X}.c.D.U.XX|.&X=X,X].[.!.E.d.n.n.l.5.u.d.h.6.9.0.@._ [ } } ( ....[ T S ",
"c m Z Z A :.U.~.$X&X+X&X.XU.&.] ~ ~ ] [ n.|.`.(.^.R.~.}.@XR.S.h.W.~.#X|.,X-X|.XX].D.S.v.e.d.q.e.l.i.e.5.5..._ ' O.} } O.@.~ T A ",
"x S m ^ 5.D.H.(.`.XX`.{.~.T.d.d.%.&. .5.l.E.Y.Y.G.!.R.}.I.z.0.h.k.Y.).XXK.}.K.S.d.d.` ~ R R ` 5.3.q.0.e.@...] } } o.@.5.' ! Z A ",
"K ../ 8.I.C.G.h.U.E.T.E.B.s.d.q.;.2.5.u.n.W.Q.P.R.R.T.A.G.p.&.3.e.h.G.~.p.! d 7 3 3 > : < < 3 8 l n V E _ ] [ %.&.&.4.*.[ T V Z ",
"K m.d.f.k.n.] _ d.K.K.^./.z.d.o.~ [ ' e.f.~.Z.T.G./.D.S.R.&.V ~ [ &. .| n 9 : @ $ X X X . X . $ : < 3 l n C V ] 4.d.;.3.' R h m ",
"c Z.u.i.v.+.M &.*X@X'.`..X(.T.q.~ M V ' f.A.P.D.T.Z.l.n.R.] l M C R M f 0 > @ $ # X X . X . X O $ & = < 7 9 t f R [ &...' Z M h ",
"x h.0.e.O.R ~ XXS.E.~.}.K.D.S.f._ Z n E [ f.n./.I.G.c.Z.C. .f n y n y 0 , - = @ @ @ @ > < 7 e s 7 < - : : < < , 1 n W &.( A n n ",
"z h.l.y._ Z 5.S.S.p.&. .5.` W W A M g M ^ 2.C.I.}.~.v.c.C.} V n f t 6 1 , ; - ; , 8 n R ] &.p.4.%.C l r 9 3 ; : - , t M Q Z h g ",
"x D.h.f.[ ~ &.Y s 5 < e i 5 3 8 8 0 8 g V +.0.}.6X1X'.~.G.&.V n t 8 ; ; ; ; ; , 8 f C %.%.&.E ` ` ` ~ ! W B 9 3 > < > 7 f M g g ",
"L B.A.k.( R l & X O X . . . . X o @ - ; t / y.}.uX0X*X`.XX0.M 0 6 1 ; - ; = = 1 B  .d.4.q.1.~ C C n f n W ~ ~ f 9 3 > > < 7 t y ",
"c :.| &.n 6 = X . X . . . . . . X $ o $ = _ G.;XtXtX0X1XI.&.y 1 1 , - = @ + , n R ` 5.z.4.f.&._ W M f 6 , f V C n s 7 > : : 1 g ",
"x o.R f 1 , W W l B d 7 < > > 3 e 9 7 p T v.}.1XyXtX0X@Xs.C 0 1 8 1 1 , = = - < 9 l P -.] >.` C M n f 8 < - 7 F P B f 3 < : ; 6 ",
"I 4.V ( c.0.[ d.C.G.3.%. .~ A G ~ ~ ~ ' O.~.}.qXyXyX&X}.t.M 1 1 0 t t T Q V 8 3 : @ @ : 5 e 7 r s e 3 7 7 : + e B B y r 7 < - , ",
" .q.l.Z.W.Y.v.y.8.+._ ! ' ! ~ A A m g M C.@X;X2X0X1X}.z.| n q 6 g A V ( i.e.5.} R s > $ X X . X o O X X o # X @ B R M n f 9 1 1 ",
"Y p.I.W.W..X}.W.5.! m A Z A h y 6 y _ (.&X8X9X8X1X&XG.&.V M g h h V [ i.f.y...[ ( | ! V 8 , - + o o X o X . . o 6 n y f f M C y ",
">.d.l.E.#X*X:X$X[.R.q.Q n n n C :.K.2X<X7XqXqX0X1X}.d.Q m m Z A ~ A / 8.c.k.l.7.~ n g g h g t 8 r 8 8 8 t 9 3 , , ; , 0 n n n t ",
">.d.m.`.oX6X3X7X1X&X/..X*X@X(.;X5X2X;X7XqXyX8X0X1XR...A m m Z ^ +.0.O.t.m.v.l.E.D.s.R n y y 6 6 t y t h h g 0 ; - 6 n T T T M M ",
":.v.P./.&X8X0XyX0X:X|.}.<X7X6X7X7X6X7X0X0XqX0X1X}.v.O.A Z m m A / +.y.r.c.f.k.C.].!.~.T.B.q.R f 8 , - - - - - , g T V V o.0.5.! ",
"4.x.Y..X1XqXeXuX0X<X|.%X&X6X7X7X,X1X6XyX0XaXyX1XI.G.8.+.~ A h h g h h Z ..f.f.n.E._.[.#X}.#X.X.XY.I.q.&.| &.e.f.@.o.1.o.M C } ] ",
"d.G.(.$X6XqXuXuXtX5X<X1X3X9X0X0X5X6XyXuXpXaXtX@XY.Z.Z.v.f.} m y q h q 1 6 g +.n._._..X~.$X&X#X|..X{.].W.`.m.n.u.f.} [ 3.[ g 8 1 ",
"l.|.E.-X8XuXpXdXaXyX6X8X8XqX1X0X5XqX;X0XaXaX1X&XW.`.l.R.v.O.m g h } ~ m 0 , 6 ~ G..X^.(.-X<X|.OX%X#XT.Y.P.Z.8.h.f.0.R ! @.o.0 t ",
"M./.oX,XqXpXaXaXaXtXyX2X0X6X;X@X.X&X9X1XaXtX*XXX*X(.~.C.&.Z g h / u.0.[ A 6 - , C k.G.(.&X1X*X&X*X$XT.I.E.f.t.9.l.f.} C o.0.( ! ",
"l..X*X9XqXyXeXyX0X6X&X@X(.C.5.} 0.&X6XyXtXpX8X6X{.@X(.| y 0 0 g m A A Z g 6 ; ; 1 n 1.~.(.5X*X=X|.#X].`.R.G.t.h.e.9.y.( R 1.y.o.",
"Y. X,X1X6X7X0X1X&X~.v.O.~ m y M G.@X6XyXdXdXfXtX6XR.~ t 1 - = = = = - ; , 1 0 q 6 1 g [ `.&X&X.X|._.Y.I.W.Z.f.i.i.y.8.o.A | f.[ ",
"Q.%X.X1X:X:XXX(.G.y.Z g 0 1 t l.&X6X1XdXfXfXaX0XXX .6 - + o o + + + + = ; 6 0 y q q 1 g &.n.W./.^.T.l.Z.Z.F.k.t.j.i...5.} 1.o._ ",
"/.oX~..X$XXXI.y.+.Z q , ; t d.&X0XyXqXaXaXtX1XI.4.y ; + + = = + + + @ - ; , 1 6 q q q 0 M ( +.f.P.m.h.h.c.l.i.0.x.g.@.+.0._ | _ ",
"Z.[.I..X~.T.y.o.Z g 1 - 8 4.XX0XtXtXyXyX1XK.&.R t , = + + + $ + + + @ @ = - - ; 1 q q y 0 t M | 1.i.u.f.0.h.u.x.y.g.0.w.O._ ( ] ",
"v.G.G.Y.P.k.[ Z g 1 - 1 ` T.+X0X0X;X@X@X}.q.l , ; - - - - = @ + @ = @ = - = = + = ; 1 1 1 , 1 n ( | 2.O.2.1.u.t.j.e.5.3.+.o.[ _ ",
"m.W.d.Z.k.5.Z g q , ; f 4.XXz.N.K.T.d.d.s.3.l 6 6 l V n 6 1 - - - - = - < - + + @ - - - - : : < l ( ! _ | o.] 8.7.u.o.*.@...( ] ",
"x.Z.f.y.y./ M y 6 , 6 C k.d.R B  .[ R n n 8 - = 6 C | ~ n 8 1 ; ; - = - , < - - : - - = = @ @ @ - n ^ _ _ ] _ _ 2.o.]  .0...! Q ",
"0.x.@.8.[ ~ h y 1 1 g ~  .B y f C R f r 6 , = 8 C o.2.O.A m 0 1 ; ; - , ; , - ; - ; ; ; : @ @ @ + < V &._ ^ Q _ W ~ (  .~ %.Q Q ",
"t.0.O.} } A g 0 1 6 M W W t t t B R C y y 0 f t.!.~.k.1.+.A h y 6 1 6 g g q 0 1 1 , , , 1 < > = + + 6 ~ ^ W ~ Q ( ! W R ~ { ~ R ",
"2.2./ / / T y 0 8 y n P P y 8 n R ~ R B R _ ] 0.C.R.v.0.5.! Z Z m m h A ' ' A Z g 0 1 0 0 8 , - @ + @ t ! ] R ( ~ W B B P ` C R ",
"+.o.} } ^ m y q 0 f F l l r t n W ~ T _ f.0.} ~ [ ...._ ..~ Z m m m M m A ' A Z h y q y g 6 1 , - @ @ ; M Q C R ~ W R B B ~ R R ",
"_ / / [ A m g t 8 f B l s r y f y n M ~ A A m m h m h g q 0 6 1 1 1 1 q 0 q 0 6 1 0 0 y q 0 8 6 ; = @ - 8 R R Q T ( I B l ) W ~ ",
"_ ] _ [ A g n f y f P l r 9 8 1 , 6 q 0 q q q q q 0 6 < ; - - = + + @ = : @ @ = = = - ; ; , 1 1 , - = = , M T ~ o. .` B B ) ] Q ",
"Q .._ ..~ g n B f n R l r 9 - = + = = = : < - - < > & & $ % # $ # o $ $ $ $ o $ $ $ X o o $ $ - < ; - - < f T [ &.%.` B B | Q R ",
"E _ ..O.&.y t V M n ~ M y 9 < - - + . . . . . . . . . . . . . .         . . . . . . . .       . @ ; ; , 6 y W [ 4.;. .B B Q R Z ",
"M ~ o.f.4.R t V R n R W n f t p y 6 - @ o X X . . . . X . . . . . . . . . . . X X . . .     . o + 1 t f y y ~ &.&.p. .P B ~ ~ Z ",
"M Q o.l.C.4.n n  .T R ~ W C n n M h m t , : = $ $ $ = = & $ $ o X X X o o + + + + $ o o o $ : ; 1 t Q Q V f [ o.4.;.` B P ( E V ",
"B ~ %.S.P.G.R y W %.~ | | ! A Z m Z Z _ G D f f x x t p p t 9 t 7 7 , 6 8 1 ; , , 1 , 1 0 p 0 0 y ~ O.1.~ C | ;.%. .I B P ` C Z ",
"x W &.G.].~.p.f n &.X.` o._ A ~ m m C 4.q.4.J H J H J N N D N N F F j N H F N a a a a j j a g g A t.0.1._ W [ |  .` W c L ) W V ",
"d R a._.E.).T.` s ! %.%.~ ' ~ } A m ^ 1.+.q.=.$.#.=.&.=.G H N D D D j j N D a a j g g g q y g A t.n.5.&.C ~ [ 3.~ ` B K P I F V ",
"x B  .G. X|.(.d.l l *.o.] ( / _ _ m V ( _ ~ $.#.4.q.4.8.4.J F N N a t p a 0 0 p a q q q 0 t M t.~.d.+.~ M o.3.1._ R c c U P c M ",
"I ) I z.[.OXE.~.` f ( 0.1.O.S ^ ^ Z f n f f N G J #.G J #.G p 9 3 3 < 7 3 3 , 8 t t 0 0 t n [ I.b.d.o.Q M 7.| [ R B d c U L l M ",
"U -.I  .E./.`.G.s.l M 6.f.+./ S ^ m f t t 8 t p p p e t p e 7 3 3 < > < 3 3 3 7 8 t 0 t f ~ l.D.z.4.1.M V &.} P B d d l c P B M ",
"U >.-.%.&.G.T./.d.P r 3.y.8.} / A h f l y y y f f f f f i i 7 7 > < > > < 5 7 8 8 t t f R d.G.E.q.f.&.M C *.! B s s d l l I C W ",
"Y >.>.-. .e.z.n.s.~ r W n.0.1.^ ~ h g f n f n M C C C n l s e 7 3 < < 7 t s f n n n M R q.R.!.z.d.d.Q n ' } ! p r d p x I F ~ ( ",
"-.,.-.>.-.:.:.&.e.4.n V n.e.} .._ M g g M ~ [ [ ~ _ R R B l s r e s 8 l V ~ ~ _ ~ W R %.S.}.z.s.z.f.n E _ } n e r d s P I ) Q I ",
"-.>.>.>.>.-.c d p.X.( ! G.n.+...} Z h M ( t.G.l.k.y.8.} | ` P l B I ~  .d.l.t.q.f.3. .p.~.T.z.s.S.| M E ( V r s s f B P Y -.P B ",
"U ,.>.,.-.L e 3 i B X.e.c.I.5.y.} ^ Q 8.n.R.C.G.t.l.f.n.l.C.s.z.N.K.T.(.T.T.s.z.q.&.4.h.s.s.B.A.d.R V ~ V f s x d K L U Y U I ` ",
"L >.>.,.>.c 7 > 2 7 P l.].(.0.5.v.0.5.v.~.T.T.C.s.d.l.C.I.G.T.H.K.K.K.K.K.S.d.4.%.4.k.D.V.d.d.z.p.! T W n r B P P K L U ) Y ` ) ",
"b >.-.>.Y c w & * 4 5 >.$X&Xl.i.R.C.0.C.!.}.C.R.(.}.z.~.(.K.H.K.@X;X}.@XT.T.%.&.q.d.t.t.t.l.e.s.p.&.~ ! s s 9 l ` c c P ) :.%.:.",
"z U Y Y Y x 2 % * > < c &X1X~.0.v.G.0.k.(.`./.XX&X@X@X@X@X`.&X&X6X0X1XJ.S.z.a.p.e.1.o.1.t.l.s.s.p.&.] l x e 3 9 I B c B Y -.p.a.",
"w K U -.L d * % & & 4 d N.5X}.G.t.~.v.G.I.[.oX$XXX;X@X1X;X*X&X1X@X@XH.&.q.z.f.p.[  . .p.t.l.z.G.:.%.E x z i w r f ) I K K -.4.p.",
"u x U U K w & % % & > 7 >.qX6XD.f.x.j.0.I.G.T.R.~.K.~.T.}.@X@Xz.S.z.d.z.l.y.q.o.]  .4.5.l.D.T.S.4.-.c c z i u r 9 p c I I U x i ",
"5 w x b z w # # % & & < x 0X3XE.h.h.*.v.E.#XE._.}.(.d.n.n.n.4.1.t.k.3.3.3.+.} ] | 3.| s.S.#X).R.>.U w z b z i u = 3 9 f x w < 4 ",
"% & 2 4 k 5 # O # # & > s XXqX'.s.4.c.|.*X;X|.[..XT.b.l.G.h.p.4.0.[ ~ ! o.[ | ` q.d.~ z.|.|..Xe.) c u 5 u e 5 w * + > > > > < > ",
"O O # * 4 4 % O # # & > 8 +XqXK.>.K.,XqX7X9X0X,X@X&X).'.A.~.C.C.p.+.! ! R ]  .p.d.7.;.T.).*X'.:.K i z 5 2 > * 4 % # : < < 7 3 s ",
"O O O % & 2 & O O O % : n oXqXeXuXpXtXeXyXaXaXpXtX0X9X3X3X|.#X|.[.T.%.W W ) ] %.4.h.G.!.&X*XB.U K w w 4 > * & * O # < 7 s d f x ",
". . . # % * & # . O $ < %.@X7XpXsXdXaXpXpXsXaXdXdXdXrXpXaXuX<X<X1X8X+XB.-.I F X.l.E.D.+X<X+XY K c w * * & & O O O # & < 9 r r s ",
". . . O # & % # . X # d a.;XwXwXpXaXaXwXrXrXrXrXiXiXrXrXrXrX4X4X4X4X4X4X4X<.Y ,.B.L.L.+X>X<.K v z u * & & # O O # # % * 5 3 w u "
};
