/* XPM */
static char *out[] = {
/* columns rows colors chars-per-pixel */
"64 64 218 2 ",
"   c #2B1608",
".  c #4A2415",
"X  c #5C2C1A",
"o  c #68321E",
"O  c #583F2A",
"+  c #763A24",
"@  c #7E3D26",
"#  c #63432F",
"$  c #6E402D",
"%  c #6A4D37",
"&  c #77523D",
"*  c #7F5D46",
"=  c #814A35",
"-  c #8E4B34",
";  c #96523A",
":  c #865540",
">  c #8C5D46",
",  c #9D5943",
"<  c #955F49",
"1  c #A45E45",
"2  c #89664F",
"3  c #9B644E",
"4  c #916A53",
"5  c #9A6F56",
"6  c #AB644A",
"7  c #A16851",
"8  c #AD6D51",
"9  c #A86D58",
"0  c #B36A51",
"q  c #B76F53",
"w  c #A1765D",
"e  c #A7755C",
"r  c #AE755B",
"t  c #B4715D",
"y  c #B97658",
"u  c #A87B63",
"i  c #AE7D64",
"p  c #B77764",
"a  c #B27861",
"s  c #B47F64",
"d  c #BB7E63",
"f  c #C1785B",
"g  c #C87E61",
"h  c #AC836B",
"j  c #BE8466",
"k  c #B3876E",
"l  c #BA876A",
"z  c #BF8B6C",
"x  c #B78C72",
"c  c #BC8E72",
"v  c #C38264",
"b  c #CC8566",
"n  c #C78568",
"m  c #C4816F",
"M  c #C48A6C",
"N  c #CC8C6D",
"B  c #CC8C6E",
"V  c #D18969",
"C  c #D48C6E",
"Z  c #D88F6F",
"A  c #C88973",
"S  c #D08B78",
"D  c #C39072",
"F  c #C69677",
"G  c #C89172",
"H  c #CC9475",
"J  c #C09379",
"K  c #CA997A",
"L  c #CF9C7E",
"P  c #D19071",
"I  c #D09072",
"U  c #D29172",
"Y  c #D09273",
"T  c #D39273",
"R  c #D49374",
"E  c #D59475",
"W  c #DA9472",
"Q  c #DD9876",
"!  c #D79778",
"~  c #D1967C",
"^  c #D89778",
"/  c #D59A7B",
"(  c #D99878",
")  c #D9997A",
"_  c #DB9A7A",
"`  c #DA9A7B",
"'  c #DC9B7B",
"]  c #DB9C7D",
"[  c #DA9D7E",
"{  c #DE9D7D",
"}  c #DC9D7E",
"|  c #DD9D7E",
" . c #E09E7D",
".. c #E29F7D",
"X. c #E2A07F",
"o. c #DD9E80",
"O. c #DE9F80",
"+. c #DF9F80",
"@. c #CFA186",
"#. c #D4A082",
"$. c #DFA081",
"%. c #DCA386",
"&. c #D8A485",
"*. c #D7A88D",
"=. c #DCA88A",
"-. c #DFAB8E",
";. c #DBAB91",
":. c #DFAF94",
">. c #E0A081",
",. c #E2A181",
"<. c #E3A181",
"1. c #E0A182",
"2. c #E1A283",
"3. c #E3A282",
"4. c #E4A281",
"5. c #E5A382",
"6. c #E4A383",
"7. c #E5A483",
"8. c #E6A483",
"9. c #E5A484",
"0. c #E6A584",
"q. c #E6A585",
"w. c #E7A685",
"e. c #E7A686",
"r. c #E8A787",
"t. c #E0A58A",
"y. c #E3AC8D",
"u. c #E7AD8F",
"i. c #E8A888",
"p. c #E9A888",
"a. c #E9A989",
"s. c #EAA989",
"d. c #EAAA8A",
"f. c #EBAA8A",
"g. c #EBAB8B",
"h. c #EBAC8C",
"j. c #EBAE8F",
"k. c #ECAC8C",
"l. c #ECAD8D",
"z. c #EDAD8D",
"x. c #EDAE8E",
"c. c #ECAE8F",
"v. c #EEAF8F",
"b. c #EDAF90",
"n. c #E4B195",
"m. c #E9B193",
"M. c #EDB091",
"N. c #EEB090",
"B. c #EFB090",
"V. c #EEB091",
"C. c #EDB192",
"Z. c #EEB192",
"A. c #EFB192",
"S. c #EFB293",
"D. c #ECB496",
"F. c #E6B599",
"G. c #EAB79A",
"H. c #EEBC9E",
"J. c #F0B293",
"K. c #F0B394",
"L. c #F0B495",
"P. c #F1B495",
"I. c #F0B496",
"U. c #F1B596",
"Y. c #F1B597",
"T. c #F2B596",
"R. c #F2B697",
"E. c #F2B799",
"W. c #F3B799",
"Q. c #F3B899",
"!. c #F2B89A",
"~. c #F3B99A",
"^. c #F3B99B",
"/. c #F4B99B",
"(. c #F4BA9B",
"). c #F4BB9D",
"_. c #F5BB9D",
"`. c #F5BC9D",
"'. c #F5BC9E",
"]. c #F5BD9E",
"[. c #F5BD9F",
"{. c #F1BFA1",
"}. c #F5BEA0",
"|. c #F6BEA0",
" X c #F6BFA0",
".X c #F6BFA1",
"XX c #F6C0A1",
"oX c #F6C0A2",
"OX c #F6C1A2",
"+X c #F6C2A3",
"@X c #F7C2A3",
"#X c #F6C3A4",
"$X c #F2C4A5",
"%X c #F7C4A5",
"&X c #F7C4A6",
"*X c #F7C5A6",
"=X c #F7C6A7",
"-X c #F7C7A8",
";X c #F7C8A9",
":X c #F0CBAD",
">X c #F4CDAE",
",X c #F8C9AA",
"<X c #F8CAAB",
"1X c #F8CBAC",
"2X c #F8CCAD",
"3X c #F8CDAE",
"4X c #F9CEAF",
"5X c #F3D1B3",
"6X c #F0D4B6",
"7X c #F6D4B6",
"8X c #FAD3B4",
"9X c #FAD7B8",
"0X c #F1D8B9",
"qX c #F7D8BA",
"wX c #F5DBBB",
"eX c #FADDBE",
"rX c #F6DDC0",
"tX c #F9E1C3",
/* pixels */
":.Z.0.<.E M h h w h F L K *.;.D.:.G.:.:.;.:.;.:.;.:.:.n.n.n.:.:.;.;.;.:.y.F.n.n.;.:.=.-.t.a.y.u.2.t.2.t.[ / ( ! Y Y B E U T Y U ",
";.d.z.8. .M s h u h K L L &.:.C.n.n.:.;.;.;.:.:.:.:.n.n.n.n.n.:.:.;.;.;.n.n.F.:.y.-.=.=.y.y.-.9.2.[ %.o.2./ ! Y Y B B P E T Y B ",
"F ..{ X.{ G i h u h J L L :.:.n.n.n.*.=.;.:.;.:.:.n.:.n.n.G.:.:.;.:.=.;.:.F.:.:.:.-.&.-.:.u.%.2.%.%./ %.1.+.E ) ! ! B R ( ) I T ",
"c E C C V s e e u h D L L =.:.:.n.:.&.#.;.:.;.;.:.:.:.n.G.n.:.:.:.:.;.;.:.n.:.:.:.:.=.&.y.-.t.t.t.%.[ %.2.} ] ( ) ( ] ! 2.{ ' ! ",
"l W C V y r e u w h F L L =.;.n.:.:.=.=.#.;.;.:.:.n.:.F.n.n.:.:.;.:.;.:.;.n.:.n.:.:.;.;.;.y.t.i.q.t.2.q.[ 1.2.a.2.r.<.<...2.{ ' ",
"x E V b v a 9 w u h K K #.&.;.;.;.=.=.=.=.=.y.y.D.:.n.n.n.:.n.:.:.:.;.;.:.F.F.:.F.;.;.:.n.y.y.u.u.u.j.j.x.f.r.q.r.q.3.6.{ ) ) ) ",
"l ) b b v d 9 w u h D #.&.;.=.-.u.u.y.I.E.!.D.).+X&X{.[.{.@XG.G.G.G.n.G.G.{.G.{. X^.D.E.^._.C.D.Y.J.h.d.x.k.2.2.8.r.' { ' 2.! ^ ",
"x E b g g p e e i h F L =.;.=.q.q.y.y.u.u.C.I.E. X.X X[.#X.X.X X{.{.Y.Y.@X@X X[. X/.S.U./.E.Z.j.P.B.j.a.d.e.+.| r.2.( ! ] o.` E ",
"k T b b f d r u u h F / #.y.=.[ B n j j s j A %.j.^.).@X XXX.X@XE.Y.S.Q.E.`..X.XU.L.P.L.K.U.x.B.k.x.k.v.a.r.2.8.$.+.] { ' 2.} [ ",
"l P b g v d a e i l / #.t.#.M 9 < = + $ $ $ & < M t.D.E.[..X.X[._.C.M.j.^. X.X).K.x.B.x.T.S.B.B.B.b.b.j.B.d.p.9.$.{  .' +.6.2.] ",
"z E g g g v a r a G / [ ) j 3 3 7 u < & $ # o $ : 7 d / j._.K./.W.T.i.i.U.XX^.R.Z.j.q.j.L.(.Z./.E._.B.S.A.B.6.q.1.2.) +.8.a.{ { ",
"F Y V g b g s a s G %.[ H z G %.D.G.!.:.K w 4 < < < 7 d ~ p.S.L.(.B.3.q.L.(.Y.L.C.q.9.g.U.'._.(..X XL.v.S.u.q.o.$.[ [ { 2.9.} ] ",
"z Y P N v v s r u K i.h.2.u.u.K.L.).'.#X{.D.&./ z s a j n ) 2.L.B.h.q.r.d.U.L.C.q.9.3.r.d.).(. X).+XI.D.i.t.] ~ B Y B Y B B A A ",
"c K Y N M j s u u L a.p.g.a.g.d.j.P._.Y.Y.b.u.t.$.! Y B R U ] r.x.k.g.q.N.j.j.s.9.{ 1.9.k.P.T.I.D.&./ G l 9 3 < 3 < 3 9 7 7 8 a ",
"D L B M z M d u s #.e.a.d.s.8.s.9.q.o.t.i.e./ / ( ` I E ^ ( ` i.x.A.q.r.d.x.q.q.] ! T ] 3.s.q./ j 9 = $ $ # X X X X . o & = = 3 ",
"#.K H G G z l d l / d.z.f.6.9.E v ~ =.u.D.Z.r.{ ! N f v R } +.q.x.u.w.w.d.d.f.$.U n n N E ! B 8 , = X X X . . . . . X o $ & + = ",
"L L K K D D z l s ~ q.T.x.q.( v Y !.[.^.D.T.x.p.+.I y 8 y (  .p.r.p.3.q.w.g.r.6.v d d v j d t 3 = $ o o o o $ + & < 3 9 < ; ; < ",
"#.#.#.K K K K D G Y +.x.Z.+.v n u.D.%.M d s s j j v f 0 q v ! { r.f.r.8.q.q.3.[ v t t y y r 6 ; = @ @ @ - ; 7 r z B Y Y Y v j a ",
"#.#.L L #.#.K L / ( { 8.k.6.v Y #.r & X X . . . o = - 6 8 d n ! 2.d.i.p.f.s.] ! n d 8 t r 1 ; - - - = ; , t r d j v d n B Y A M ",
"#.#.#.L #.L L L C.+.! { k.{ B d : X   . . # .     . X @ ; 6 j N { s.B.k.A.s.1.E A v t 8 7 ; - = = = + + - 9 d v j y 8 7 1 ; ; 6 ",
"#.#.L L L L K #.u.1.B N v 0 6 - @ $ $ $ # O .     . X o o @ 1 V W s._.`.S.x.i.$.B d 8 7 ; ; = = $ X o < r l d z s s a s 9 7 = @ ",
"=.&.&.&.[ #.L &.C.b.$.Q Z d 0 v j.` Y z r 3 & # $ % : = $ + @ v ..b.=X1XXXE.B.r.E y ; ; ; = + + X o = : o X . . . . X $ & & & $ ",
"y.u.*.=.=.=.L ) ! ] w.S.W.E.9.} q.v.a.s.q.o.Y G M A a r r t y ( Z.(.=X8X4X#XB.r.U 8 ; ; - = + o X o o $ X . .                   ",
"y.t.&.&.=.=.&.w.6.{ s.Z.E.Y.T.x.w.w.+._ ] E N N V V b V E E E 9.`.+X,X7X8X;X_.2.v 6 ; 1 , ; 6 3 7 r a s z u 2 $ $ o $ # # # o o ",
"%.=.&.%.&.=.=.x.r.<.s.R.T.[.`._.f.+.U E n V V T b C b b f f b x.`.-X3XqX7X1X[.t.v 6 , 8 y f B 2.] ! ! ] +.2.( B d d v j 9 t 9 6 ",
"y.t.-.t.-.=.t.6.9.<.B.U.R.(. X.X.XB.( v y y f f y 0 6 1 q E E.=X=X1X3X3X4X=X^.2.v 0 8 q V Q <.<.p.( V N E { _ C b f f y v b V N ",
"j.l.t.y.u.y.3.9...p.k.T.R..X[.=X=X=XT.x.2.V q 8 8 y d 1.{.1X#X;X<X4X,X3X3X#Xd.! g g f b b ! q.r.s.k.{ I y 8 6 8 8 0 6 0 q y 0 0 ",
"c.i.t.t.u.y.x.Z.8.q.B.A.(.[..X;X3X<X|.[.@X]./.Z.E.^..X*X;X<X<X;X3X4X2X<X3X`.q.V b b V W { <.w.w.s.A.S.B.u.` v t 8 1 ; ; ; - = - ",
"q.e.2.t.%.%.a.E...r.P._.W..X=X1X2X4X-X=X)._.W._.#X<X=X=X+X<X1X4X4X8X3X3X#X(.+.V b b Z 2.8.s.w.s.p.N.U.Q./.(.Y._.L.C.q.1.] +.{ 2.",
"7.1.2.o.%.#.q.x.f.j.T./.[.#X=X1X8X8X1X*X(.Y.T.(.=X-X=X#X#X,X4X4X9XqX4X1X.Xx.+.C C b V C Q _ ..<.p.v.P.L.^._./._..X.XXX_./.U.U.Z.",
"9.8.o.[ 1.%.] w.s.A.B.(.+X,X+X8XqXrX,X#X XXX(.=X<X4X#X=X1X4X1X4XrXeX3X.XR.A..._ E N f y y q 8 q b { i.U./._.Y.XX@X-X[.[._._.v.x.",
"q.X.| ] w.[ 1.6.p.v.S.(.%X*X*X4XqX9X4X1X1X;X=X=X1X2X#X+X=X=X3X4XtXtX4X[./.A.x.g.r.W f y f v q 1 , 8 V q./._./.[.=X#X X[._.(.P.k.",
"O.$.[ O.4.2.2.s.p.g.x./._.@X@X<X;X4X2X<X#X<X#X=X_.[.Y.L.L..X,X9XqXrX1X XT.R.U.E.d...g f b Q { C 1 - ; f ] B.T.'.[..X_._.Y.R.v.j.",
"$.{ ..[ 2.6.q.r.k.e.z.P./._.XXXX@XXX+XE._.`.T.B.s._ b b B.*X3X9XqXqX1XXX_.W.`.(.s.W g v Q 5.6.Q f - - ; 8 n +.f.Z.A.K.S.A.A.f.p.",
"2.>.! o.$.t.2.d.f.f.r.x./.[.Y.`._.W.z.x.d.9.E b y 8 6 ( _.=X1X9XeX9X#X#X@X@XE.B.U v 8 f E Q V g q 1 , 1 1 8 y ( 6.a.3.f.B.g.2.9.",
"] ` ) ! O.[ o.p.g.w.<.w.S.W.T.T.R.x.6.Q E v 8 , - 1 E [.,X1X3X7XtXrX9X,X=X+XZ.I t 1 ; ; ; ; ; ; , 6 q q y 0 1 y V _ { 6.p.6.] ' ",
"/ ! E / ~ / ` 6.r...{ 4.w.x.z.x.q._ V g q , - - 8 o._.4X=X4X4XtXeXtXrX7X=XL.I 8 - + $ @ + + @ - ; , 6 8 0 q 6 6 6 f I ( P _ U ( ",
"! T / T / / / { <._ Q } 4.8.q.<.E b f 8 ; - ; d i.{.;X4X8X3X4X8XqX7X=X{.E.E 8 - + + + + o + @ @ = - ; , 1 8 8 1 , , 8 v I V n V ",
"I H A G Y ~ Y ( { C V W ' 8.Q E b y 6 ; - ; y ( C.#X=X3X1X4X{.#X+XE.t.{ T r - @ + @ o + + + + @ = = @ + - ; - - - - = 3 j Y N b ",
"M n M M B M H | +.C C Z Q ..Q N y 6 ; ; , y U 1.`.{.#X+X+XI.u.L.Y.i.Y t 6 ; = @ @ + @ + @ @ = = - = + $ = : = = @ + + + < j B B ",
"j j j z z B H [  .( P W C _ Q b 6 , ; ; 6 B Y e.x.i.~ / [ 1.$.2.1.9.E y , 1 8 9 ; - = : = : : - - : = : = - : : + $ $ + + - t N ",
"j j j j M M H ) 2.<.{ W E C C g 8 , ; ; y A M / ~ d t d H E B j d a 6 - - ; y d 8 , , - ; = - - - > : : - ; ; > > = + + + + = r ",
"l z d z z G B ] q.d.9.+.C b n v 8 6 - 1 v M d M d r 6 t v v d t 6 6 - @ , f v M v y 3 ; ; ; - ; - ; - - , , , , , > = $ $ + + ; ",
"s z l l D G Y ] i.Z.x.q._ v b B j 8 , 6 A j j l s 8 8 y d d v 8 6 6 , 1 B q...T V v t 1 1 , ; , 6 , , , 1 , 6 1 , , ; @ + + @ = ",
"s z z z z G Y %.u.R.U.B.1.A f E T n 6 0 B j r r 9 t t y d d v v 0 y f I ! +...{ C b f f 0 6 6 8 8 8 8 6 , , 1 1 ; , - = + = - - ",
"l D L K G H Y [ Z.E.E.U.x.U d v ' / v d A f 6 - , 3 , 1 6 t f n V b V B V I ! E C b f y q 0 6 1 8 6 1 ; ; - - = @ $ + = ; 7 r , ",
"K L L #./ / Y / b.E.V.Y.L.2.d v ) 2.Y T n j 8 3 ; = + = ; 1 6 y f f y v v v f f p q 1 ; - ; = - - - + @ @ @ + + = - - y B Y f 6 ",
"K L L #.#./ ~ L y.R.S.U.T.a.H d / +.{ ( ) B v y f r 9 8 y f f y q q q q y 0 6 6 8 6 6 , 1 , ; ; ; - - - - ; , 6 0 y v } ' ! d y ",
"H #.&.&.#.[ / / #.y.u.K.b.b.o.j M +.9.2.( U B I V T n d y b B T I B S S A S A A m d y p 8 r t q 0 8 0 q q y q f y V _ { R B d B ",
"K &.&.#.#.&.L L L ~ [ 1.q.q.1.d j T 1.6.{ B N A T ! T N d d j z M M B B Y M v j j a 9 7 9 9 t t r 8 q 0 t t t d H o.$.E T f y ~ ",
"#.=.@.&.&.&.F z d z ~ / / ) / A v N ( +.} ) P I ( ) U B N v t a a a s l z j a r 9 7 < 3 3 9 7 7 9 r 8 t y p y A ` q.] ! B t d I ",
"#.&.&.&.=.#.F w 5 r #./ H N ' ^ ` E { { 3.( T E ! ) E n v d y t y d s j M d a 9 7 < < < 3 5 7 7 9 9 9 t d d v T $.o.) T d y j d ",
"K &.%.&.&.#.s 4 > 4 D L H B ` l.i.' ! 2. .` ( E R } ! Y v v j d d v M A j s a 9 7 3 < 3 < 7 7 9 9 r 9 d d n Y / o.2.P v d z j d ",
"F &.=.&.&.D u * & 2 4 s / 1.r.E.Y.' { ] ) ) } _ E ( _ R T E ! Y I R ! Y M d r 9 9 7 7 5 e a z M v j j v H / o.%.t.( A n b v a a ",
"c #.#.#.L c w 4 & 2 2 4 D u.C.`.(.6.[ 2.( ( T { ] { ' ] $.q.1.[ / %.[ t.%.[ D j l l s l l G G / R Y M G / [ / / [ n v n M d 9 l ",
"k K L L L l 4 & & 2 * 2 s u.^.{.+Xh.o.$.! ! ) 1.u.9.e.2.i.i.%./ L / %.%.t.&.&.#.#.K M M M G Y E O./ ~ ~ / / ~ ~ ~ z z j M z z G ",
"w D K #.K l * % & & * 4 s y.*X*X_.A.+.{ E / / i.b.C.t.y.y.b.u.=.#.=.-.:.;.:.n.:.K L G M j G H [ / / / H H / / Y j j s s M G H L ",
"w l F L z e & # & % * 4 u =.3X*X).j.9.,.$.) 2.h.j.j.Z.u.D.Y.Y.D.D.u.m.n.F.E.n.#.#./ ~ M A G ~ ` [ [ #.~ / / H M j s r r j G z a ",
"5 5 c c l w % # % & % > 7 %.1X<X).B.{ { $.N.K.P.E.R.h.M.M.V.u.C.D.u.t.u.u.Z.2.O.] ( I Y Y ~ ( +.e.y.%.%.[ K z l s 9 3 9 s s 5 4 ",
"% & 2 4 h 5 % # # # % : 3 / ,X1X).q.o.i. X#X.X(.[.^.V.c.Z.j.i.2.q.o.1.2.q.2.) ) ] ) ! ~ ` [ [ y.K.U.%./ M x l u u : = > < < > > ",
"O O # * 4 4 * O # # % > < ` <X4X-.:.{.=X<X1X4X;X}.OXoX.X~.R.Z.Z.a.i.+.) I ! ! O.) $.1.r./ 2.j./.E.C.K z r 5 < 4 > % % < < w 3 r ",
"O O O % * 2 * O O O % = r Z.<X8XqXqX7X3X4XqXeXwXqX>X8X4X4X*X|.[.`.Y.t.T Y Y ! ` 2.e.j.j.T.[.`.u.L D e u 4 < & * % # > 7 a s d l ",
". . . # % * & # . O $ < o.}.,XqXrXtXwXqXqXrXwXtXtXtX7XqXwX9X*X*X=X1X{.n.#.H A ] j.Y.Z.}.*X{./ D z w * * & & O O O # & < 9 r r a ",
". . . O # & % # . X # s y.#X5X5XqXwXwX5X6X6X6X6X0X0X6X6X6X6X:X:X>X:X:X:X:X:.L =.F.G.H.{.$X:.c x h w * & & # O O # # % * 5 3 w u "
};
