/* XPM */
static char *out[] = {
/* columns rows colors chars-per-pixel */
"64 64 215 2 ",
"   c #2B1608",
".  c #4A2415",
"X  c #5C2C1A",
"o  c #68321E",
"O  c #583F2A",
"+  c #763A24",
"@  c #7E3D26",
"#  c #63432F",
"$  c #6E402D",
"%  c #6A4D37",
"&  c #77523D",
"*  c #7F5D46",
"=  c #814A35",
"-  c #8E4B34",
";  c #96523A",
":  c #865540",
">  c #8C5D46",
",  c #9D5943",
"<  c #955F49",
"1  c #A45E45",
"2  c #89664F",
"3  c #9B644E",
"4  c #916A53",
"5  c #9A6F56",
"6  c #AB644A",
"7  c #A16851",
"8  c #AD6D51",
"9  c #A86D58",
"0  c #B36A51",
"q  c #B76F53",
"w  c #A1765D",
"e  c #A7755C",
"r  c #AE755B",
"t  c #B4715D",
"y  c #B97658",
"u  c #A87B63",
"i  c #AE7D64",
"p  c #B77764",
"a  c #BD7564",
"s  c #B27861",
"d  c #B47F64",
"f  c #BB7E63",
"g  c #C1785B",
"h  c #C87E61",
"j  c #AC836B",
"k  c #BE8466",
"l  c #B3876E",
"z  c #BA876A",
"x  c #BF8B6C",
"c  c #BF8470",
"v  c #B78C72",
"b  c #BC8E72",
"n  c #C38264",
"m  c #CC8566",
"M  c #C78568",
"N  c #C4816F",
"B  c #C48A6C",
"V  c #CC8C6D",
"C  c #CC8C6E",
"Z  c #D18969",
"A  c #D48C6E",
"S  c #D88F6F",
"D  c #C98270",
"F  c #C88973",
"G  c #D08B78",
"H  c #C39072",
"J  c #C69677",
"K  c #C89172",
"L  c #CC9475",
"P  c #CA997A",
"I  c #CF9C7E",
"U  c #D19071",
"Y  c #D09072",
"T  c #D29172",
"R  c #D09273",
"E  c #D39273",
"W  c #D49374",
"Q  c #D59475",
"!  c #DA9472",
"~  c #DD9876",
"^  c #D79778",
"/  c #D1967C",
"(  c #D89778",
")  c #D59A7B",
"_  c #D99878",
"`  c #D9997A",
"'  c #DB9A7A",
"]  c #DA9A7B",
"[  c #DC9B7B",
"{  c #DB9C7D",
"}  c #DA9D7E",
"|  c #DE9D7D",
" . c #DC9D7E",
".. c #DD9D7E",
"X. c #E09E7D",
"o. c #E2A07F",
"O. c #D89982",
"+. c #DD9E80",
"@. c #DE9F80",
"#. c #DF9F80",
"$. c #CFA186",
"%. c #D4A082",
"&. c #DFA081",
"*. c #DCA386",
"=. c #D8A485",
"-. c #DCA88A",
";. c #DFAB8E",
":. c #DFAF94",
">. c #E0A081",
",. c #E2A181",
"<. c #E1A283",
"1. c #E3A282",
"2. c #E4A281",
"3. c #E4A382",
"4. c #E4A383",
"5. c #E6A483",
"6. c #E5A484",
"7. c #E6A584",
"8. c #E6A585",
"9. c #E7A685",
"0. c #E7A686",
"q. c #E8A786",
"w. c #E8A787",
"e. c #E0A58A",
"r. c #E3AC8D",
"t. c #E7AD8F",
"y. c #E8A888",
"u. c #E9A888",
"i. c #E9A989",
"p. c #EAA989",
"a. c #EAAA8A",
"s. c #EBAA8A",
"d. c #EBAB8B",
"f. c #EBAE8F",
"g. c #ECAC8C",
"h. c #ECAD8D",
"j. c #EDAD8D",
"k. c #EDAE8E",
"l. c #ECAE8F",
"z. c #EEAF8F",
"x. c #EDAF90",
"c. c #E4B195",
"v. c #EDB091",
"b. c #EEB091",
"n. c #EDB192",
"m. c #EEB192",
"M. c #EFB192",
"N. c #EFB293",
"B. c #ECB496",
"V. c #E6B599",
"C. c #EAB79A",
"Z. c #EEB899",
"A. c #EEBC9E",
"S. c #F0B293",
"D. c #F0B394",
"F. c #F1B495",
"G. c #F0B496",
"H. c #F1B597",
"J. c #F2B596",
"K. c #F2B697",
"L. c #F2B698",
"P. c #F2B798",
"I. c #F2B799",
"U. c #F3B799",
"Y. c #F2B89A",
"T. c #F3B99A",
"R. c #F3B99B",
"E. c #F4B99B",
"W. c #F4BA9B",
"Q. c #F4BA9C",
"!. c #F4BB9C",
"~. c #F4BB9D",
"^. c #F5BB9D",
"/. c #F5BC9D",
"(. c #F5BC9E",
"). c #F5BD9E",
"_. c #F1BFA1",
"`. c #F5BEA0",
"'. c #F6BEA0",
"]. c #F6BFA0",
"[. c #F6BFA1",
"{. c #F6C0A2",
"}. c #F6C1A2",
"|. c #F6C1A3",
" X c #F6C2A3",
".X c #F7C2A3",
"XX c #F6C3A4",
"oX c #F7C3A5",
"OX c #F2C4A5",
"+X c #F7C4A5",
"@X c #F7C4A6",
"#X c #F7C5A6",
"$X c #F7C6A7",
"%X c #F7C7A8",
"&X c #F7C8A9",
"*X c #F0CBAD",
"=X c #F4CDAE",
"-X c #F8C8A9",
";X c #F8C9AA",
":X c #F8CAAB",
">X c #F8CBAC",
",X c #F8CCAD",
"<X c #F8CDAE",
"1X c #F9CEAF",
"2X c #F3D1B3",
"3X c #F7D1B2",
"4X c #F0D4B6",
"5X c #F6D4B6",
"6X c #FAD3B4",
"7X c #FAD7B8",
"8X c #F1D8B9",
"9X c #F7D8BA",
"0X c #F5DBBB",
"qX c #F6DDC0",
"wX c #F9E1C3",
/* pixels */
"c.m.2.8.^ } y.I.G.I.Z.'.[.+X.X+X`.$X}.}.~..XoXoX}.oX~.}.A.`.A.].B.B.B.Z.f.m.f.B.y.r.e.t.e.y.8.6.<.8.<.8.] ..^ ..( _ W Q E Q T E ",
";.8.<.Y B M V K L ` g.~.{.{.oX.X}.}.}.{.oXoX$XoX-X$X$X).{.{.{.}.T.).K.G.T.T.T.I.n.t.t.l.b.h.M.p.i.8.y.X.@.X.o.X.[ ' ( ^ W E Q A ",
"Y n < : = & $ $ & * w / t.{.R.{.}.+X].).`.oX~.:X$X:XI.A.{.{.Q.}.G.P.v.G.I.~.m.z.l.z.8.a.h.g.7.u.9.5.[ ' | >._ [ ` ..E E T Q A T ",
"y ; = > 2 * $ X # $ & < f Q 8.Z.XX{.}.}.^.}.I. X-X:X}.Q.{.].T.J.I.D.m.N.I.J.J.f.f.p.q.8.g.y.<.>.i.y.>._ | ..] ( | ' ^ E E A Z Z ",
"6 f L e.t.c.=.x w 5 < 3 9 n Y y.Q.{.}.~.D.U.B.oX.X$X}.I.J.J.T.T.I.T.J.I.B.J.x.J.d.d.i.a.3.4.>.0.w.g.#.| ^ ..` X.[ ' T T Z Z Z A ",
"[ N.'.Q.[.].}.~.I.;.) B k n Y ` g.T.~.G.M.M.m.{.}.}.H.G.B.z./.T.].~.].).].).J.J.J.z.g.<.y.2.8.p.p.i.<.] | ] +.' <.] E V m m Z Z ",
"b.J.B.B.^./.T.Z.T.T.y.8.e.] T ) 6.J.D.D.m.F.v.~.].).t.f.b.v.v.'.+XoX'.oXoX}.v.Z.l.f.<.7.8.g.5.p.a.d.#.<.' <.] +.<.[ Z Z m M n m ",
"j.g.i.8.t.t.8.e.f.y.y.6.g.<.+.] 6.l.z.F.J.J.J.B.I.B.f.8.l.f.M.].+X{.].`.'.B.B.i.y.+.` } 6.d.i.6.i.8.#.` <.<. . .<._ Z m m h h n ",
">.y.T V &.m.B.I.i.<.^ ^ ( X.>.6.<.F.S.J.M.I.D.D.M.m.<.6.>.i.d.I.L.B.r.%.B c k i 9 9 9 s k Y B C Y ( Q } +.<.+.<. ._ Z m g n g g ",
"2._ y } T.~.m.B.m.8.2.E M M Q #.i.d.N.m.F.G.J.M.J.z.^ T ^ ` +.6.8.E p 3 = $ $ X X X X X + < 3 7 r f M V E ] } { ..! Z h g g g y ",
">.M M m.).Z.+./ R ) +.[ Z h y T 2.f.f.m.z.U.l.S.M.M.C M V C C C V t ; = $ $ X . . . . . X o $ & ; 7 9 8 y f B E Q ( m g g g y a ",
">.f ` ;.b 5 = $ + = < 8 h g y g ^ <.i.x.J.G.M.h.M.g.E f n M k n y 3 : @ $ + o o o $ + + > < : @ = : : ; < , 1 8 k M n y f g g g ",
"X.M / r X . . % w & # & : 6 8 y n Q <.M.J.U.M.b.d.y.Q V f f f y 6 , - - = - ; 3 8 k V / ` ) B 8 3 3 < : = : : , < 7 9 y y g y g ",
"2.B 9 X . . O 5 b & . . # = ; 3 0 Z [ i.U.T.T.M.m.8.] C M p 0 1 , , ; , ; 1 8 f Y ( ] ` e.<.<./ K B p 8 3 ; - ; > : : < 0 q 0 0 ",
"n 7 = $ # & & & # O . . . # o @ - f ( y.].:X}.~.I.z.( C f y 1 ; ; ; - : = - , f C Y n f f f f k K Q Q R B y 9 7 < : - : 1 6 1 6 ",
"y 1 f ] B f 9 3 & O . . O * @ o @ ; X.i.oX5X1XoX}.U.>.f 8 1 1 ; - = + o = t D R 6.;.#.( Q B y 1 3 1 p V Y C B y 9 < : = ; 1 , , ",
"X.8.[ y.g.l.y.+.k 9 2 2 5 s 3 < , f i.J.oX5X5X1X].F.] t , 6 , - @ + X @ 3 3 : & & * > 3 9 s s s 7 - + , f C M k s r 7 3 1 8 6 8 ",
"J.z.2.>.j.k.l.z.g.8.` R E Z V A ] X.M.).1X9X9X1X].8.Z 6 1 6 ; - ; @ o + + $ X . .         . O $ $ & # X < B C V M f f M f q y q ",
"J.J.z.M.w.8.] _ ] ( M Z A E Z Z h Q F.oX3X9X5X:X).i.n 1 1 q 8 6 V V y y f k l u 2 # . . . .           . X r E V f n n n M Z n n ",
"E.I.T.~.F.( Z A A A m Z h g 0 0 E ~.$X$X5X1X1X].Z.#.g 6 0 g T ^ _ 2.2.{ @.{ X.>.+.B r 7 7 3 = $ $ $ X . X : 1 ; 0 f g g g g y y ",
"T.`.$X:XoXT.#.Z y 0 8 8 , 6 M m.oX:X$X3X:X1X$X).6.^ n g g m Z >.2.u.i.6.Q C E o.[ ! Z A T E Z n y t 9 7 7 8 ; q C [ X.[ E m m Z ",
"T.].-X:X1X:X}.T.M.2.[ ` y.I.-X-X-X:X,X>X:X1X$Xm.#.Z m Z A S Q [ i.h.x.l.z. .n 0 0 q q 0 8 0 g M U S Z n q ; 1 M Z V _ X.( g q q ",
"].$X>X3X,X3X}.'.[..X|.$X:X:X X%X-X1X-X1X,X1XT.d._ Z m T ] 9.,.u.p.g.8.J.M.J.v.#.M t , , , 1 ; , ; ; = @ - 0 C X.6.T q 0 6 6 1 8 ",
"$X1X3X3X9X5X$X`.+X].oX:X1X+X}.:X3X3X3X3X3X$XJ.6._ Z m Z S X.2.p.k.d.x.J.~.I.I.D.].~.m.e.R M t 6 8 8 f Y | 2.] E | X.n 8 k V B B ",
"-X$X:X9X9X9X1X[.}.oX:X1X1X1X$X:X5X0X5X9X:X}.F.g.[ Q Z Z n m m m m ! 2.U.G.^.E.].~.[.].}.}.oX).).U.U.g.M.g.g.6._ V ] #.] T B n k ",
":X$X3X9X0XwX5X,X>X-X<X<X3X-X1X:X:X3XwX9X:X~.F.l.y.2.[ m g g h g 8 6 q ( M.~.].'.I..X{.+XoX.XoX[.).k.g.g.g.g.y...T C X.6...p d s ",
":X:X:X9X0XwX5X3X3X1X,X1X:X:X].$X1X5X9X5X:X].M.S.J.M.>.A h h E ~ A y - 1 M M.)./.).:X`.$X:X1X].~.].T.d.u.w.g.6.2.X.T Q | <.M s p ",
"$X,X,X1X6X1X&X-X:XoX}.Z.m.y.F.}.3X0X9X3X:X}.U.J.~.z.( m m A 5.y.y.~ 0 - , y #.M.).}.$X+X,X-X.X'.T.T.z.7.u.i.5.6.8.] T ' >.C n n ",
"@X$XoX$X`.].I.K.g.y.( m q T J.$X1X9X9X5X$X}.^.].B.( g g h ~ 6.i.X.S g , - ; 6 Y 8.T.].-X}.+X}.}.J.T.g.g.7.p.y.9.2.2.^ ( ] Y V F ",
"].|.'.).T.M.y.( A g , ; M Z.$X:X5XqXwXwX5X:X$XB.( y 6 1 6 0 0 0 0 8 1 6 8 6 1 6 M >.M.T.].Q.U.J.J.z.g.g.g.8.p.5.2.2.X._ X.Y T Y ",
"E.'.J.J.d.2.Z g 1 - ; V ).6X:X3XwXwXwXwXwX3XZ.E 8 ; + + + + o + = ; , 0 g g q 0 0 n ( y.z.U.j.b.l.M.0.g.p.g.o.5.2.<.[ { ] Q V C ",
"^.m.z.2._ m q ; = 1 ) ~.1X5X5X5XwXwXwX9X3X}. .8 ; $ o + @ + + + - - - , 8 0 q y g 0 y C <.i.g.u.s.u.u.w.h.p.8.6.8.2. .E Q Y V C ",
"p.d.2.! h y , = , ` I.:X1X9X5X9X5X,X$X}.v.+.f ; @ + + + + + o + + @ = ; ; , 6 y q 0 1 8 n ( ..2...<...6.8.0.4.4.+.&.] ` E E Y R ",
"u.6.[ h y 1 - ; M 6.).:X1X>X-XoX).).I.e.M 6 ; = + $ + + + + + + = = - = = @ - , ; ; ; ; , f E ^ E ^ E ] <.#.<.+.[ ^ ) ^ Y Y C Y ",
"o.X.m g 0 , - f ] l.J.y.} 6.e.6.6.i.8.8.M 1 ; 1 8 1 - - - - = - - - - @ + @ @ - - - @ @ = : 9 T Q ^ U E ^ ' ( ` ^ W K L Q R V C ",
"~ ~ m 0 1 ; 1 Y ` 6.E y t k E Q Y M n y , - 1 B +.n 1 , , ; - - ; ; 3 : = - - - - - @ + $ $ @ 9 ) ..E C E T R T L B L R E E C C ",
"( ! g 0 ; , t R B R f 8 6 y n M y 6 1 - @ , f ( ] _ M y 1 , ; - - ; - ; - ; - ; ; ; : = $ + + + 6 T ] ( Z T Y E V k L ` E T A A ",
"^ T g 8 1 , f B B K s 9 9 0 f n f 8 8 , 8 <.I.z.y.X._ Z y 6 1 ; , 1 1 1 ; , ; ; , 1 1 , < = + + @ , V T W E S ) R k L ^ ( E T A ",
"] ! 0 f 8 1 s C B B 8 9 t n n M M k n V ] g.l.J.z.y.( S m g 0 y g Z h g g y 6 6 8 8 1 6 1 ; + @ + - , V T ^ Q } ) B C Q T Y m A ",
">.( y t k 6 f R p 9 9 9 r t f n Z ( | ' .._ ..2.8.>._ S Q Z Z Z A Z Z A T h q 0 q y 6 6 8 3 : @ @ = - y Q ] +.+.+.k V T Q V Z m ",
"<.>.n t B k f ` 9 ; - = @ - , q g Z m Z Z T E Q m h a y 0 0 0 0 8 0 q y 0 1 1 1 1 6 , 1 1 1 ; : @ - ; 8 Y  .e.6.+.B B E T Z Z Z ",
"d.d._ p B ` V R p 9 < - = ; 6 6 6 8 0 0 g g a q 8 6 1 , , ; ; ; , ; - - - - = = = = @ + + + @ - , 9 0 6 E  .r.6.+.B K Y E m Z Z ",
"x.U.8.Y f #.R C M M f f M Z m m m m h D D T N G G G D G G G D D N a 0 0 8 8 , 1 , 1 ; ; - - ; f T ) n 0 _ y.@.%.) K B L R Q Z A ",
"B.J.J.6.n C X.] ] T A T S Z Z [ 2.2.>.,.8.y.y.r.v.e.e.+.O.( G D N N N N N a a q a g q 8 0 0 h >.6.2.M g <.X.] ` P B K K R V Y V ",
"e.^.I.J.) k ) 6._ ' S _ ! S m 2.>.#. .#.] <. .+.e.e.) D f N p t 0 a q 0 0 a a y q y 0 q y A 8.l.o.2.M C ] | ^ ) B K L R n m M M ",
"L 6.T.J.t.k M >.] Q ~ _ ..! m M n f f N N f p p p y p 9 3 3 3 < 3 7 3 3 9 8 0 0 0 8 8 y T l.J.8.X.Q n ( <.X.) B B x P J B B B B ",
"P +.f.I.I.+.y ) 2.[ Q ' ] ( h y 0 8 3 7 7 9 9 9 9 9 9 7 3 3 > > > > > 3 7 9 9 8 t t t C y.T.y.<.[ V f >.6.} B k k B x B H K k B ",
"P I <.M.U.l.k f <.<.[ [ [ Q m g f t 8 8 y f p p f s 9 9 9 3 < > > > < 3 7 9 9 8 y p M >.J.B.y.+. .f M X.X.C d d f B k B K F B B ",
"L ] %.6.f.m.] p Y y.6.2._ S m g y y q g k B V V n f s r 9 7 3 < < 3 7 r p y p f f V  .m.m.v.6.8.E y Y ( C f s f l f f K B L K E ",
"I =.=.%.y.f.8.k n 5.8.X.~ [ m g g g n Q ] Q Q Q C n f s r 9 3 7 9 s n C ^ E Y C E  .x.x.J.t.y.8.n h W E B s s s d f K B L B Q ) ",
"$.=.) =.<.f.e.R k ] 2.2.X.>.m g n m E l.z.g.y.y.>.^ B n f k f k C ` ^ 6.i.d...[ ..M.f.f.b.D.l.X.f T C Y f s r s f B H R ) / R L ",
"%.=.%.+.=.I x / R Q 5.i.8.2.S h m Q g.M.z.g.i.6.y.y.6.e.%.*.e.t.v.Z.v.l.g.f.<.<.6.x.y.y.f.f.g.Y M Q Y n p d d s x b J L ) I B k ",
"P =.=.*.I x 5 l R ) g.F.8.o.X.( S y.F.J.m.m.<.i.i.b.x.m.c.C.B.Z.B.I.I.m.6.@. .<.8.t.r.i.y.f.t.Y C Q C p t K B x K P P I / P L ) ",
"J =.=.%.I i 2 4 u L J.T.z. .9.2.2.g.G.U.U.v.F.v.M.M.G.B.B.B.C.T.I.G.Z.l.e.+.<.8.i.y.y.y.y.t.t.( { ` V 9 f x J L K K J R R ) %./ ",
"b %.I =.P i 2 * 2 i e.~.].p.p.l.g.l.J.T.~./.B.I.Z.A.B.A.`.oX+X:X$X~.I.v.@.<.] 4.4.y.<.i.y.f.=.+.} +.f e 9 7 r P x x x R ) e.e.*.",
"l P I P P u * % 2 4 K ~.$XJ.>.x.k.k.l.T.].}.~.].oX.XoX X:X:X:X:X$Xy.e.d.f.@.@.@.4.<.<.6.d.v.6.e.+.R k x l 9 9 f / K b K } e.e.r.",
"w H P %.J u & & & * i c..X].u.d.M.x.i.Q.T.}.).XX}..XXX:XoXoXA.).f.&.y.i.8.8. .] ` &.4.f.f.I.f.y.} J k v i w 9 s k / L L R *.+.*.",
"w z P I x w % % & * 5 L $X}.F.g.l.h.b.M.K.J.!.Y.I.v.f.N.m.x.f.t.g.u.6.4.>.#.] ] @.<.i.f.K.T.T.*.} x l x j i i 9 7 p B K P x i i ",
"5 w b z z 5 # # % & > s c.3XT.M.i.g.6.G.G.W.J.F.x.M.6.y.6.8.@.0.e.<.^ ^ [ } ` } 1.e.+.n.I.].v.e.L l 5 H z l u 7 = 3 9 d s 5 4 4 ",
"% & 2 5 u 5 # # # % * 3 %.<XoXv.6.y.Q.].@X`.).T.~.G.b.x.l.g.5. .] _ E Q ..>.X.<.d./ +.n./.(.D.%.x l 9 e u 5 5 3 & & > > > < 2 > ",
"O O # * 4 4 % O # % & < B ;X:Xc.;.XX%X>X:X3X-X:X`.}.~./.S.D.M.M.8...U T Q  .*.y.6.4.f.L.R.{.v.P x i l 4 4 * 2 4 # % > 3 3 7 7 i ",
"O O O % * 2 & O O O & > C `.3X3X9X9X5X3X6X9XqX0X3X1X3X1X:X}.'.^.T.f.) L R / ` @.<.a.N.L.`.|.r.H H w u 4 > * * & O # < 7 s d f z ",
". . . # % * & # . O $ < +.`.:X9XqXwX0X9X9XqX0XwXwXwX9X9X0X7X#X@X$X>X_.c.%.L F { f.H.m._.#X_.) H x w * * & & O O O # & < 9 r r s ",
". . . O # & % # . X # d r.XX2X2X9X0X0X2X4X4X4X4X8X8X4X4X4X4X*X*X=X*X*X*X*X:.I -.V.A.A._.OX:.b v l w * & & # O O # # % * 5 3 e u "
};
