/* XPM */
static char *out[] = {
/* columns rows colors chars-per-pixel */
"64 64 215 2 ",
"   c #2B1608",
".  c #4A2415",
"X  c #5C2C1A",
"o  c #68321E",
"O  c #583F2A",
"+  c #763A24",
"@  c #7E3D26",
"#  c #63432F",
"$  c #6E402D",
"%  c #6A4D37",
"&  c #77523D",
"*  c #7F5D46",
"=  c #814A35",
"-  c #8E4B34",
";  c #96523A",
":  c #865540",
">  c #8C5D46",
",  c #9D5943",
"<  c #955F49",
"1  c #A45E45",
"2  c #89664F",
"3  c #9B644E",
"4  c #916A53",
"5  c #9A6F56",
"6  c #AB644A",
"7  c #A16851",
"8  c #AD6D51",
"9  c #A86D58",
"0  c #B36A51",
"q  c #B76F53",
"w  c #A1765D",
"e  c #A7755C",
"r  c #AE755B",
"t  c #B4715D",
"y  c #B97658",
"u  c #A87B63",
"i  c #AE7D64",
"p  c #BD7564",
"a  c #B27861",
"s  c #B47F64",
"d  c #BB7E63",
"f  c #C1785B",
"g  c #C87E61",
"h  c #AC836B",
"j  c #BE8466",
"k  c #B3876E",
"l  c #BA876A",
"z  c #BF8B6C",
"x  c #B78C72",
"c  c #BC8E72",
"v  c #C38264",
"b  c #CC8566",
"n  c #C78568",
"m  c #C48A6C",
"M  c #CC8C6D",
"N  c #CC8C6E",
"B  c #D18969",
"V  c #D48C6E",
"C  c #D88F6F",
"Z  c #C88973",
"A  c #CC8A78",
"S  c #D08B78",
"D  c #C39072",
"F  c #C69677",
"G  c #C89172",
"H  c #CC9475",
"J  c #CA997A",
"K  c #CF9C7E",
"L  c #D19071",
"P  c #D09072",
"I  c #D29172",
"U  c #D09273",
"Y  c #D39273",
"T  c #D49374",
"R  c #D59475",
"E  c #DA9472",
"W  c #DD9876",
"Q  c #D79778",
"!  c #D1967C",
"~  c #D89778",
"^  c #D59A7B",
"/  c #D99878",
"(  c #D9997A",
")  c #DB9A7A",
"_  c #DA9A7B",
"`  c #DC9B7B",
"'  c #DB9C7D",
"]  c #DA9D7E",
"[  c #DE9D7D",
"{  c #DC9D7E",
"}  c #DD9D7E",
"|  c #E09E7D",
" . c #E2A07F",
".. c #DD9E80",
"X. c #DE9F80",
"o. c #DF9F80",
"O. c #D4A082",
"+. c #DFA081",
"@. c #DCA386",
"#. c #D8A485",
"$. c #D7A88D",
"%. c #DCA88A",
"&. c #DFAB8E",
"*. c #DBAB91",
"=. c #DFAF94",
"-. c #E0A081",
";. c #E2A181",
":. c #E3A181",
">. c #E0A182",
",. c #E1A283",
"<. c #E3A282",
"1. c #E4A281",
"2. c #E4A382",
"3. c #E4A383",
"4. c #E5A383",
"5. c #E5A483",
"6. c #E6A483",
"7. c #E5A484",
"8. c #E6A585",
"9. c #E7A685",
"0. c #E7A686",
"q. c #E8A787",
"w. c #E9A887",
"e. c #E0A58A",
"r. c #E3AC8D",
"t. c #E7AD8F",
"y. c #E8A888",
"u. c #E9A888",
"i. c #E9A989",
"p. c #EAAA8A",
"a. c #EBAA8A",
"s. c #EBAB8B",
"d. c #EBAC8C",
"f. c #EBAE8F",
"g. c #ECAC8C",
"h. c #ECAD8D",
"j. c #ECAE8F",
"k. c #EEAF8F",
"l. c #EDAF90",
"z. c #EEAF90",
"x. c #E4B195",
"c. c #E9B193",
"v. c #EDB091",
"b. c #EEB090",
"n. c #EEB091",
"m. c #EDB192",
"M. c #EEB192",
"N. c #EFB192",
"B. c #EFB293",
"V. c #ECB496",
"C. c #E1B49A",
"Z. c #E6B599",
"A. c #EAB79A",
"S. c #EEB899",
"D. c #EEBC9E",
"F. c #F0B293",
"G. c #F0B394",
"H. c #F0B495",
"J. c #F0B496",
"K. c #F1B596",
"L. c #F1B597",
"P. c #F2B596",
"I. c #F2B698",
"U. c #F2B798",
"Y. c #F2B799",
"T. c #F3B799",
"R. c #F2B89A",
"E. c #F3B89A",
"W. c #F3B99A",
"Q. c #F3B99B",
"!. c #F4B99B",
"~. c #F4BA9C",
"^. c #F4BB9C",
"/. c #F4BB9D",
"(. c #F5BB9D",
"). c #F5BC9D",
"_. c #F5BC9E",
"`. c #F5BD9E",
"'. c #F5BD9F",
"]. c #F5BE9F",
"[. c #F1BFA1",
"{. c #F5BEA0",
"}. c #F6BEA0",
"|. c #F6BFA1",
" X c #F6C0A2",
".X c #F6C1A2",
"XX c #F7C2A3",
"oX c #F6C3A4",
"OX c #F7C3A5",
"+X c #F2C4A5",
"@X c #F7C4A5",
"#X c #F7C5A6",
"$X c #F7C6A7",
"%X c #F7C7A8",
"&X c #F7C8A9",
"*X c #F0CBAD",
"=X c #F4CDAE",
"-X c #F8C8A9",
";X c #F8C9AA",
":X c #F8CAAB",
">X c #F8CBAC",
",X c #F8CCAD",
"<X c #F8CDAE",
"1X c #F9CEAF",
"2X c #F3D1B3",
"3X c #F7D1B2",
"4X c #F0D4B6",
"5X c #F6D4B6",
"6X c #FAD3B4",
"7X c #FAD7B8",
"8X c #F1D8B9",
"9X c #F7D8BA",
"0X c #F5DBBB",
"qX c #F6DDC0",
"wX c #F9E1C3",
/* pixels */
"=.M.6.9.R m u h w h J O.O.*.x.x.Z.Z.=.=.$.*.*.x.*.Z.=.Z.x.A.=.=.x.Z.=.t.&.Z.t.f.t.t.%.p.y.d.d.r.@.e.@.y.7.>.] { R Q R Q ~ ~ T R ",
"&.i.w.u.o.Z k h u i F J #.*.Z.A.x.x.C.*.*.*.=.=.=.x.x.x.Z.x.=.=.Z.x.x.=.=.x.t.t.r.&.%.e.y.p.r.r.0.>.X.,.,.>.{ ] ( ( _ ` [ ` ) T ",
"F [ | :.` N u u w k D O.O.x.=.x.=.=.$.*.*.=.*.=.=.Z.=.x.Z.A.=.=.=.Z.*.*.=.t.%.=.=.t.O.%.r.t.%.0.7.7.} ,.0.i.` ` -.;.' } [ ` L R ",
"x E E E R m i u u h D K #.r.=.=.x.=.$.*.*.=.*.*.C.=.=.x.Z.x.=.=.=.x.=.=.=.=.*.=.t.%.$.@.r.r.e.&.y.0.y.a.l.j.p.y.p.-./ }  .( ) R ",
"x ` E E P m i h u h F O.O.%.$.=.*.&.*.*.*.=.=.=.=.x.=.Z.C.Z.x.=.*.=.=.x.=.x.*.t.*.=.r.r.r.t.t.f.f.B.j.v.i.p.y.q.>.>.;.6.` / Q / ",
"c Q W E R m s i u z K K O.@.%.*.*.*.%.%.=.*.*.=.=.x.x.x.Z.=.=.=.=.=.x.x.x.Z.t.c.J.V.R.B.L.c.N.f.B.N.l.0.y.i.u.7.>.;.;.| ` R ( Q ",
"z | E E E P s d m G K O.#.%.O.#.%.*.%.x.=.c.t.x.Z.S.=.Z.Z.x.x.A.D.D.D./. X`.V.U.E.(.V.Y.R.n.0.k.B.F.2.2.0.0.X.1.o.>.( ` } ( T Q ",
"z [ R C C N d j G H K O.#.%.#.#.%.*.=.t.B.S.G.J./.[._.D.[.D.R.S..X`.[.[.XXE.J.B.J.U.G.f.N.s.p.s.n.h.2.2.y.0.-.o.>.-.o.-.o.] ( ( ",
"s ( E E V M d n N K ^ ....,.>.r.t.V.J.U.E.|.|.XX`.'./.}.'.XXE.E.J.E.`.|.`.T.N.B.j.m.j.l.p.G.p.z.j.N.p.s.9.0.-.7.X.2.6.9. .} { { ",
"s ( W E C g s m ^ K ....,.3.0.0.k.n.B.J.E.E.|.].|.~.E./.|.|.).B.B.m.^.`.`.P.f.s.g.n.B.k.n.B.T.J.B.f.f.u.y.7.7.-.,.2.2.X.>._ } Q ",
"z ] C E C b y G O.%.@.%.%.r.( ^ ^ ! G O.t.E.J.`.`.].V.E.|.XXJ.f.f.B.V.J.E.B.7.y.0.f.f.T.T.).E.(.J.B.7.e.,...^ ! ( ^ N P U ! P / ",
"D ] E C E b d U @.%.%.^ U s 9 < > : & & 4 h O.@.f.c.N.P.E.E.N.0.p.s.B.B.B.y.>.>.7.a.F.E.XX|.`.T.V.f...H z s r 9 r 9 7 r d j j j ",
"l ] [ W C b g ( ^ ! d 9 , < > : + # # # # + > 9 d ^ 7.k.f.P.f.7.-.u.f.B.7.,.] -.o.u.P.E.J.!.c.@.H d 9 > + & # X $ = = > < 7 7 8 ",
"z ^ _ W R n L o.X.n t y m ! ^ H z w 4 : : = : < 8 j N _ 0.s.u.2.2.<.p.0.2.} Q ~ o.2.f.N.d.Q s < = $ X . X . . . X X $ + = : - : ",
"D O.( ` ! n B 0.-.( T >.r.d.3.c.t.%.! H m j t t y j v N o.p.6.9.0.i.-.8.>._ b P T ( / } M 8 : + o X . . . X X = > 4 : : > < : = ",
"^ K O...T v ( s.y.6.-.>.u.7.;.>.7...^ H U N v n v n n M _ 0.0.2.8.8.9.:.2.P f v n M M v 0 : + o X X o $ : 3 r m H G l s s a 9 < ",
"J #.#.0.M v -.F.s.u.-.9.:.T M H ! ..,.,.( T v y 8 d M Q ( 9.0.0. .-.2.1.;.M y y t d t 8 , = + @ + = - 9 s m H ^ T ^ ! T U U G j ",
"O.O.@.f.T v ..f.s.7.[ ` v t ^ c.S.J.r..._ ! I v 6 6 v N ` 2.0.4.:.o.-.-.o.M y r t r 8 , ; - - - : - 3 r d d y 0 r 8 r r d m N v ",
"O.O.O.t.] G T p.n.f.R v r ] *.%.H s > > = : > 7 6 6 8 v T :.9.0.u.2.} -.( H d y r 6 ; ; ; - = = + = 3 j N U j d t 7 ; - @ - 8 j ",
"O.O.K t.0.M R 0.B.y.Q t a #.H > X .         . X = ; 1 t P / u.f.j.0.0.-...P v t 8 , ; = = @ o X = < 3 4 < > > 7 9 9 < 3 > $ @ r ",
"O.O.K ..^ v n I / -.Q t r 9 $   . . . .       . X $ = 6 v ~ u.!.!.U.N.f.>.T d 8 , ; - @ + X . + = X . .         . X X X X X X : ",
"%.#.@.J.d.B M M N y 1 ; - o X X + & & O . . X & : $ + + y W g.|.>X@X^.B.g.R t ; ; ; @ + o . X o + $ # .       . . .     . . . X ",
"&.*.e.c.J.0.X.6.( d 1 , 8 ! m N G m s i w i r d r 7 > , n g.n.$X6X3X[.!.g.T 6 ; , ; @ - - = - r j m h 3 : & = < 4 > = = + $ X + ",
"r.&.] T [ W :.p.b.p.0.,.( 0.s.g.g.u.2.] ) I M B V V T ( 9.P.E.>X0X9X>X!.y.n 1 , 1 6 , d P T ~ R } >..._ T M b P N y 8 8 t t t t ",
"%.%.! B B V 6.n.B.T.G.P.9.:.} -./ E L V Y L C V b b g g y.|.XX3X9X6X>X`.7.b 8 1 1 g n M / | T P I Q R ~ V b f f q f g V C R d , ",
"r.e...W W C 6.n.P.E.^.!.).B.| B b g B B L n g f q 8 d 0.XX@X>X1X3X<X@XJ.>.n q 0 y v T [ 2.0.u.[ b q 0 8 q 0 0 8 6 6 0 1 , - = 1 ",
"d.t.} 7.W V  .N.P.E.U.^.XXOXn.2.B f 6 6 8 6 , 6 v ,.S.;X>X>X;X>X1X1X!.g./ b f b b b L  .9.0.u.k.f.u.N y 8 8 , ; ; - - ; 1 v M } ",
"d.y.| E B V u.P.P.U.^.`.$X;X@X^.T.f.o.R ( } ,.f.XX-X;X$X,X>X1X<X1X;XE.>.I b b B ` [ W [ 9.6.5.f.T.T.B.J.E.B.0...-.o...0.k.n.p.6.",
"7.y.>.6.V W k.P.G.!.|.$X;X<X<X<X^.`.!.!.Q.E.|.-X@X-X$X>X;X1X6X6X1X$XF.:.B g g V E  .:.2.2.u.y.n.B.T.P.E.^.|.`.].U.P.N.B.u.a.6.9.",
"7.>.,.g.[ :.N.B.P.^.XX$X<X<X1X:X@X|.T.P.E.|.-X;X$X|.>X3X<X1X9X3X;X`.P.o.L b b b g f g g B W u.f.P.P.P.L.`.`.).'. X`.!.N.s.6.-.:.",
"8.8.} g.[  .s.P.P.XX`.$X<X6X3X1X;X`.F.E.XX>X@X-X|.$X$X3X<X0X0X3X$X`.g.9.[ E b f y y 8 6 1 8 v -.F.^.J.E.|.XX`.|. X|.F.F.k.a.[  .",
"8.,...g. .:.k.n.P.|.`.@X3X9X9X1X>X|.T.`.$X%X;X@X;X&X$X<X6X0XwX3X$XT.f.a.b.u.E f y f B b q ; ; 8 R a.F.J.XX|.^.E.'.U.L.n.k.a.9.:.",
"..+.] 0.W | a.F.J.!.`.-X<X9X3X6X,X$XXX-X@X-XOX$XR.!.|.3X3X0XqX6X[.U.N.J.B.k.[ b p C [ | C q - - 1 n ` k.n.!.!.U.b.F.s.h.6.a.w.w.",
";.] +.9.6.[ 0.s.P.P.^.[.;X>X1X>X$XXX].E.`.U.p.[ | B.XX>X9XqX0X<X@XE.J.`.T. .B f g E | E B q , ; , , y R 0.g.n.k.j.a.q.9.6.y.0.<.",
"+.o.T 0.u.9.| 9.n.E.n.E.|.XX`.|.!.I.0.7.-.C y q -.|.`.>X9XwX7X1X;X@XS.!.7.b 0 0 q y 8 8 1 6 6 q 0 8 1 y L 2.2.u.y.0.| 8.8.9.>.2.",
"] ^ ^ :.a.a.6.-.n.P.E.J.|.).L.s.u.[ B g q , 1 _ XX-X@X1XqXwXwX0X6X@X^.>.n 6 - @ @ + + @ ; , 6 0 q y 0 6 y n T (  .[ / / ) [ ] ` ",
"R ^ R :.2.a.6.6.2.f.B.!.P.P.2.} C g 8 , - 1 ( XX>X>X-X1X0XwXqXqX>X@X0.v , @ o + + + + @ - ; ; , , 0 t 8 1 8 t M L R L T P T T U ",
"T U R ( 0.4.;.R } 9.s.g.a.o.R n f 1 - - r ..^.;X6X,X3X<X3X9X1X&X|.f.n 1 - + + + + o + + @ @ - = ; , , , ; ; ; 8 n P P N N M N N ",
"P U Z ^ >.2.~ V R [  .6.4.L p q 1 ; - 0 ] T.D.;X6X1X;X;X;X$Xt.>./ n 1 - @ + o + + + $ + @ = @ + @ - - - - - @ = , j I R P N v n ",
"M n m R ( ) ~ B R R [ [ Q g 0 , ; - , n 0.D.[.@X-X@XE.J.`.B.e.I t , - = - = @ @ = = = = - - = @ = = = - = + $ $ + - j T Q N n N ",
"j l z / ( ] R / V B E W B y 1 ; - , d R e.D.V.t.e.y.>.2.>.a.>._ r , , y t 1 ; ; : : = - - , - : = = : - = = $ $ o $ - d N P N M ",
"j j m R X.:.` ` R n B V B 8 , ; , 0 n M 7.e.H d j U Q P n v y 1 - - 1 d n y 8 , ; ; - - - - ; - : - ; ; ; > - = $ $ + - d N P U ",
"j m j ! 7.k.7.-.T g d L B d , ; 1 j d v ^ H t r 0 n v v t 8 , - - 8 n I I N d 0 , ; - - , , ; , , , ; , 1 3 > : @ $ $ @ 3 M M ^ ",
"l m z G e.p.f.0.} v t n P v 1 ; 8 j d j G d 8 8 0 y v v t 8 7 , 8 Q 0.2.| T n y 8 1 , 1 0 0 8 0 6 , , 1 6 , , > = + @ = ; n P ^ ",
"s G G K 0.N.N.J.y.M y d P I t 6 t M j l s r 8 r t d v n y y d n N / } 6.( / n g f y 0 0 q y t f 0 1 , 1 , ; ; - = @ = < ; v T O.",
"l z F ! 0.N.N.H.L.] j y I ( M t n I d 9 7 r 9 9 0 t d g n N I I M M R ~ C N b g f q 8 1 1 6 1 ; ; ; - @ + $ o + = < 8 a 6 n ! ^ ",
"H K H ! ..B.j.V.J.f.n t j _ P n n H r 7 ; - @ = - , 1 q f b f f g b f p p y 6 1 1 ; - ; ; ; = = @ @ + + + @ = ; r N N n t H H R ",
"J K K ! O.t.N.N.J.f.^ y a T ( Q T P j t 8 , - - 1 8 6 8 y q 0 0 0 y 8 0 t 0 7 6 1 3 , , , ; ; ; ; , , 1 0 8 6 y / T Q n v ~ U m ",
"F O.#.O.^ @.f.B.f.f.0.G 8 M -.7._ ~ N M n N m d t j n B N T L R N L S S A S n j p y t t q q y t t t t t q p n [ [ / R v M } ! G ",
"J #.O.O.#.O.@.y.r.0.u.U 8 d ` 9.X.R P P I ~ / B v d n N m G ^ ^ R U U S G Z n p a r 8 t y t t y q 0 0 8 f B o.0.} I n y Q ( G j ",
"O.%.O.#.O.O.K H K e...! r 0 M -.7.( M P R ` I I n j t a a d j m n z d d d d e 7 7 5 7 9 9 r 9 t t t 8 y M 7.y.,.( P 8 d Q U d d ",
"O.%.#.O.#.K G w z @.H m d 8 y Q 0.2./ / [ ) R L n v a 8 r a d j n v d a a r 3 3 3 3 7 7 9 r 9 8 y y y v _ e.,...R v t n U l s d ",
"J %.#.%.O.J e > 4 m m G n m j ~ 7.w.:.;.( _ ~ R M n j j y d d N n m d s r r 7 7 4 7 9 9 8 r 9 t y n H ( -.e.X.o.M d v N j s d G ",
"G O.%.#.#.z 5 * * 4 s G ^ o.I R 2.0. .} X.~ ( T P M P P U P P N I M n a r 9 9 7 7 9 i s j j d d m ! >.>.e.%...M n n n v a s G ! ",
"c O.K O.K c w * : > 3 l #.c.7.y.<.u.( 6.2.[ M P ~ | ' e.,...T ] -.>.! H m l s d k m d H G U m N ^ e.^ >.r.@.n v M Z d d d m H ^ ",
"k J K K K k 4 & * * > 3 ^ V.B.V.d.X.2.,.{ } R R 8.p.r.f.i...! ! ..@.@.O.O.O.K K O.H G G K H ! ^ ] O.O.@.@.H j m m l a d m m ! O.",
"w D J K F h * % & & > 5 z V.[.).f.<.>.9.} ] ( e.t.V.c.V.c.r.%.e.#.e.%.x.x.x.%.#.O.U N G m ! ! ^ ! O.^ ] ^ ! H m i r r G m G ! #.",
"w k F J c e & % % & > 4 h t.%XOXE.0.-.2.2.>.,.,.f.U.V.).`.W.S.V.Z.c.V.V.D.Z.#.O...] U G H ! ^ ^ X.@...^ ^ H z i r 9 e j H H z i ",
"5 w x c k w % # # & & > 9 *.$X1X^.B.} +.;.p.0.f.f.T.c.J.B.n.V.S.J.t.r.c.l.t.( ( X.' H U ^ ^ } ,.p.f...O.G J h s 9 4 3 s l a 5 4 ",
"% & 4 4 h 5 % O # % & : 3 @.<X<X.Xr.+.0.E.!.!.!.E.U.B.f.n.d.y.,.8.e.,.,.8.>.} Q { } Q _ } -.0.k.L.r.^ m i k i w 3 & = > < > < 4 ",
"O O # * 4 4 & O # # % : < e.1X<X%.r.^.;X$X;XXX#X]. X/.U.n.K.p.d.>.>.( ~ P R R ` ) ;.,.} ] n.n.^.c.O.l D 4 5 > 4 * # = < < 7 3 r ",
"O O O % * 2 & O O O % : a U.;X7X9X9X5X6X6X9X0X9X6X<X3X<X1X`.]./.T.L.,.U U U / Q +.8.y.f.E.].D.@.H l e u 4 * & * # # > 7 r s d l ",
". . . # % * & # . O $ < ..{.;X9XqXwX0X9X9XqX0XwXwXwX5X9X0X7X$X$X$X>X[.x.O.H Z X.f.L.V.[.$XD.K D z w * * & & O O O # & < 9 r r s ",
". . . O # & % # . X # s r.oX1X2X0X0X0X2X4X4X4X4X8X8X4X4X4X4X*X*X=X*X*X*X*X=.K %.Z.A.D.D.+X=.c x k w * & & # O O # # % * 5 5 w u "
};
