/* XPM */
static char *out[] = {
/* columns rows colors chars-per-pixel */
"64 64 223 2 ",
"   c #2B1608",
".  c #4A2415",
"X  c #5C2C1A",
"o  c #68321E",
"O  c #583F2A",
"+  c #763A24",
"@  c #7E3D26",
"#  c #63432F",
"$  c #6E402D",
"%  c #6A4D37",
"&  c #77523D",
"*  c #7F5D46",
"=  c #814A35",
"-  c #8E4B34",
";  c #96523A",
":  c #865540",
">  c #8C5D46",
",  c #9D5943",
"<  c #955F49",
"1  c #A45E45",
"2  c #89664F",
"3  c #9B644E",
"4  c #916A53",
"5  c #9A6F56",
"6  c #AB644A",
"7  c #A16851",
"8  c #AD6D51",
"9  c #A86D58",
"0  c #B36A51",
"q  c #B76F53",
"w  c #A1765D",
"e  c #A7755C",
"r  c #AE755B",
"t  c #B4715D",
"y  c #B97658",
"u  c #A87B63",
"i  c #AE7D64",
"p  c #BD7564",
"a  c #B27861",
"s  c #B47F64",
"d  c #BB7E63",
"f  c #C1785B",
"g  c #C87E61",
"h  c #C07B6B",
"j  c #AC836B",
"k  c #BE8466",
"l  c #B3876E",
"z  c #BA876A",
"x  c #BF8B6C",
"c  c #B78C72",
"v  c #BC8E72",
"b  c #C38264",
"n  c #CC8566",
"m  c #C78568",
"M  c #C4816F",
"N  c #C48A6C",
"B  c #CC8C6D",
"V  c #CC8C6E",
"C  c #D18969",
"Z  c #D48C6E",
"A  c #D88F6F",
"S  c #C88973",
"D  c #CC8A78",
"F  c #D38E7E",
"G  c #C39072",
"H  c #C69677",
"J  c #C89172",
"K  c #CC9475",
"L  c #CA997A",
"P  c #CF9C7E",
"I  c #D19071",
"U  c #D09072",
"Y  c #D29172",
"T  c #D09273",
"R  c #D39273",
"E  c #D49374",
"W  c #D59475",
"Q  c #DA9472",
"!  c #DD9876",
"~  c #D79778",
"^  c #D1967C",
"/  c #D89778",
"(  c #D59A7B",
")  c #D99878",
"_  c #D9997A",
"`  c #DB9A7A",
"'  c #DA9A7B",
"]  c #DC9B7B",
"[  c #DB9C7D",
"{  c #DA9D7E",
"}  c #DE9D7D",
"|  c #DD9D7E",
" . c #E09E7D",
".. c #E29F7D",
"X. c #E2A07F",
"o. c #D89380",
"O. c #DD9E80",
"+. c #DE9F80",
"@. c #DF9F80",
"#. c #DD9986",
"$. c #CFA186",
"%. c #D4A082",
"&. c #DFA081",
"*. c #DCA386",
"=. c #D8A485",
"-. c #DCA88A",
";. c #DFAF94",
":. c #E0A081",
">. c #E2A181",
",. c #E3A181",
"<. c #E0A182",
"1. c #E1A283",
"2. c #E4A382",
"3. c #E5A382",
"4. c #E4A383",
"5. c #E5A383",
"6. c #E5A483",
"7. c #E6A483",
"8. c #E5A484",
"9. c #E6A584",
"0. c #E6A585",
"q. c #E7A685",
"w. c #E7A686",
"e. c #E8A786",
"r. c #E9A887",
"t. c #E0A58A",
"y. c #E3AC8D",
"u. c #E7AD8F",
"i. c #E8A888",
"p. c #E9A888",
"a. c #E9A989",
"s. c #EAA989",
"d. c #EAAA8A",
"f. c #EBAB8B",
"g. c #EBAC8C",
"h. c #EBAE8F",
"j. c #ECAC8C",
"k. c #ECAD8D",
"l. c #EDAD8D",
"z. c #EDAE8E",
"x. c #EDAE8F",
"c. c #EEAF8F",
"v. c #EDAF90",
"b. c #EEAF90",
"n. c #E4B195",
"m. c #E9B193",
"M. c #EDB091",
"N. c #EEB090",
"B. c #EFB090",
"V. c #EEB091",
"C. c #EDB192",
"Z. c #EEB192",
"A. c #EFB192",
"S. c #EFB293",
"D. c #ECB496",
"F. c #E6B599",
"G. c #EAB79A",
"H. c #EEB899",
"J. c #EEBC9E",
"K. c #F0B293",
"L. c #F0B394",
"P. c #F1B495",
"I. c #F0B496",
"U. c #F1B596",
"Y. c #F1B597",
"T. c #F2B698",
"R. c #F2B798",
"E. c #F3B799",
"W. c #F3B899",
"Q. c #F2B89A",
"!. c #F3B89A",
"~. c #F4B99B",
"^. c #F4BA9B",
"/. c #F4BA9C",
"(. c #F4BB9C",
"). c #F4BB9D",
"_. c #F5BB9D",
"`. c #F5BC9D",
"'. c #F5BC9E",
"]. c #F5BD9E",
"[. c #F5BE9F",
"{. c #F1BFA1",
"}. c #F5BEA0",
"|. c #F6BEA0",
" X c #F6BFA0",
".X c #F6BFA1",
"XX c #F6C0A1",
"oX c #F6C0A2",
"OX c #F6C1A2",
"+X c #F6C1A3",
"@X c #F6C2A3",
"#X c #F7C2A3",
"$X c #F6C3A4",
"%X c #F7C3A5",
"&X c #F2C4A5",
"*X c #F7C4A5",
"=X c #F7C4A6",
"-X c #F7C5A6",
";X c #F7C6A7",
":X c #F7C7A8",
">X c #F0CBAD",
",X c #F4CDAE",
"<X c #F8C8A9",
"1X c #F8C9AA",
"2X c #F8CAAB",
"3X c #F8CBAC",
"4X c #F8CCAD",
"5X c #F8CDAE",
"6X c #F9CEAF",
"7X c #EECEB0",
"8X c #F3D1B3",
"9X c #F7D1B2",
"0X c #F0D4B6",
"qX c #F6D4B6",
"wX c #FAD3B4",
"eX c #FAD7B8",
"rX c #F1D8B9",
"tX c #F7D8BA",
"yX c #F5DBBB",
"uX c #FADDBE",
"iX c #F6DDC0",
"pX c #F9E1C3",
"aX c #FBE5C7",
/* pixels */
";.C.7.q.' N s k J t.D././.@XOX$X@X-X@X:X.X:X@X:X$X:X$X<X=X:X.X X)..X).!.Y.^.U.W.A.V.h.b.k.z.d.d.6.d.2.p.9.+.` | ) _ / ) ) ~ E E ",
"-.p.j.p.} U n V ~ ' 1.&.t.a.^..X$X$X+X@X:X=X$X.X.X.X@X=X:X=X=X}.|._.`.^.E.E.W.T.P.K.N.N.b.r.s.w.q.2.8.q.q.] } / ' ~ ) ` | ] A Y ",
"J ! Q ] J a 3 < > > > < 3 d &.Q.^.:X).@X=X1X=X|.W.^..X=X1X1X~.}.W..XU.P.!.`.Z.T.T.T.j.z.N.k.p.9.e.9.} f.p.O.) } _ ] _ ] ` ) B Z ",
"G m C 8 > = + + + # X X O $ < d { i.U.oX*X@X.X.XW.U.XX@X1X=X!.T.T.T.^.I.^.`.^.|..X^.U.P.T.K.0.9.d.9.9.9.f.| | [ O.' [ ) ` I C Z ",
"J g y 6 7 z K -.P v > & $ % = > 7 N { C.W.^.^..Xz.K.Q..X.X`.C.R.k.P._..X|.#X|.=X|.|.W.W.f.d.e.9.d.d.p.0.9.O.O.<.[ O.} ] I I n C ",
"=.Z S _ u.H..XoX@X@XJ.-.H z a 8 8 d J ~ k.W.^.T.N.k..X.X.X^.C.k.z.C.`.+X*XOX=X|..X^.h.-.^ J N J K W T W [ ) @.O.@.O.&.` E n n n ",
"t.A.p.R.E.`.K.[._..XH.`.^.U.&.~ V B B T >.P.P.U.K.K.N.H.T.K.t.a.f.K.K.oX.X.Xu.-.K z e 3 > : & = < 9 9 r k J V W &.:.[ ] W C g g ",
"b.K.l.z.K.b.s.0.k.a.u.i.h.a.t.t.>._ T T &.j.z.N.D.b.k.N.P.k.1.} 1.e.f.K.K.&.k 7 : + # X X . . . X + = > e a a d V W _ _ ~ n g f ",
"y.a.9.a.e.9.n U t.D.H..XU.D.t.~ B I W &.1.K.v.K.N.C.k.K.N.a.W E I ) ' 1.W d 3 : $ o X X . X X X o + + + = < 3 7 7 d U ~ Z n d f ",
"N.a.w.1.9.n b D.=X=X=X@X@XU.P.8.B y d ~ 1.f.b.V.b.b.z.k.K.e.C n n B B S d 6 - @ + + + + = > 3 r d a 7 < < > > - > , 6 b B b f f ",
"D.U.s.8.I y t.OXXXQ.t.&.{ { ~ ' E g 6 b ) 9.h.b.z.B.p.k.z.s.n d b b d d 8 1 - = = - ; 6 d K W 1.i.0.K x k s 3 > > > : < 8 d y f ",
"N.T.T.>.N U D.y.J 3 + o # X $ : 8 t q y B ` 9.N.^.U.z.k.K.1.V N b d t 6 1 , ; ; , 1 8 d I ) ~ ~ 1.&.&.~ { ~ V s 7 3 < > > < 8 y ",
"1.h.C.t.b ~ K : . . . O %     . X = < 6 f W  .P..X|.P.W.N.q.W V d y 6 1 ; ; - - - ; 6 b V I S b y d d k S T W K d r 3 > = - 3 q ",
"| } i.t.b 7 + . . . O O O       . # $ = 7 U | N.1X1X=X|.|.j.) b t 6 1 < - = + o = y J { i.0.[ W V b 8 , ; 8 b m V N s 7 > = ; 1 ",
"' T y 8 - - ; > 3 e 5 4 & O X O % : o + @ m ..U.2XtX1X:X`.U.W t 1 1 ; - = + . = 7 9 : > > < > e d d 9 8 < @ = s V S y r 9 > ; 1 ",
"} ) Q b b ) j.1.0.a.t.^ K x d d d a 7 9 y W P.^.wXtXeX1X.Xi.S 1 , 1 - = = o X + + o . . .       . X # $ & = X = N N N b d a y q ",
"d.j.K.P.f.,.3.C.k.d.p.9.) ` E E B E Z ) ..z.^.=X5XtX9X3XT.1.f 6 ; 6 ; , 8 1 < 1 1 7 4 : O . . .           . . X 7 T N b b B b f ",
"L.P.V.P.W.^.N.q.X.) E Z ~ Q ) Z E B n f B K.oX:X6X6X6X@XU.[ f 6 1 8 b b ~ 1.>.| ' _ [ ( J r 3 < > = $ % % X . X - 1 1 t b g g f ",
"K.E.k.P.^.@XW.k.) C g n B Z g f q 6 6 U W.1X.X6X3X6X.X^.f.~ y q q f m } :.p...` ) ) ! ..} E B Z Z m t 8 8 8 3 7 8 1 y Z ~ E g f ",
"s.K.K.}.<X@X=X@X`.k.) n f y 8 t b { H.=X6X5X1X<X6X3XoXh.&.n g g C C n ) d.p.9.e. .m t q f f q q q f g C E E C y , 8 b B | 9.} n ",
"9.P.P.`.^.1X5X5X=X=X|..XU.P.U.oX-X<X<X1X1X1X1X9X3X1X`.a.E n g Z Q  . .9.9.p.9.z.N.N.~ b 8 6 1 1 1 1 , 1 ; ; = - 6 Q  .E d d d 8 ",
"k.P.`..X:X9X3X9X3X=XXX|..X^.<X1X<X3X=X5X9X9X3X9X3X=XT.1.E n n C Q ..i.r.s.q.p.N.~.K.Q.W.^.z.{ V b t 8 6 8 y n ) &.) | } n 6 8 t ",
"K.`.^.=X5X9X9XeX9X3XW.^.^.=X$X$X<X@X=X5X9X9X9X9X:X.Xj.9.) A n n C Z n A } 9.9.j.W.^.T.W..X@X`..X.X`.C.W.P.P.s.s.8.` B ` | T S m ",
"U.W..X=X5XqXtXtXeX3X[.`.=X1X:X<X2X:X=X5XeXtXuX9X:XT.j.p.q...Z f y y q 6 8 y Q f.P._.T.T.`.*X@X@X.X.X`.^.U.P.w.p.p...U V 1.9.J s ",
"k..X2X:X3XuXuXaXeX6X3X6X4X6X6X5X=X1X=X6X9XtXuX9XoXW.f.N.k.K...n q f C n q , 1 B 0.~.Q.`.^.<XOX1X@X@X.XoXP.N.q.w.3.9.) V W 9.U s ",
"P.^.@X:X6XuXuXtXtXeX6X1X3X1X1X:X|.`.@X1X9XtXtX5X@XK.S.P.`.z.! n f Z 3.,.! f ; ; d 8.T.T..X<X:X=X:X@X`.^.W.K.p.8.3.9.} W E >.T s ",
"T.|.`.5X5XeX6X6X3X1X.X].=X|.s.| ) K.`.5XeXuX9X3XoX|.H.`.T.] f f n  .,.,.} A 1 - ; y W N.|.<X|.*X)..X^.W.W.K.f.p.w.9.}  .E &.U b ",
"T.`..X@X<X;X.XoX|.U.s.>.| B q 0 &..X:X5XuXuXtXeX6X=X@XC._ f 6 6 y f f y y q 1 1 1 1 8 T z.T.^.W.^.U.P.l.V.K.j.w.j.9.,.,.} _ ~ N ",
"K.^.`.XXQ..XU.P.p.9.Z f 1 ; 6 1.=X5X3XtXpXpXaXaXeX1XD.T 8 ; = + + @ + @ - , 6 y y q 6 y I q.j.E.M.N.j.l.d.r.j.d.3.f.9.9.' _ ~ U ",
"N.P.^.E.`.U.j.>.! n 0 ; = y u.=X6X9X9XtXpXuXuXtX3XQ.W 7 - $ o + @ @ + = - ; 1 6 y q q q y B ` q.x.h.d.s.s.p.p.r.d.s.q.3.[ ) W B ",
"k.P.A.P.P.k.! C g 8 - - k D.@X6XeXpXeXuXeXtX:X.XH.&.8 - @ + $ + $ + o @ = = - ; , 8 0 y q y d E ,.w.4.q.3.9.,.p.5.w.} 1.1._ m J ",
"B.b.z.j.z.} C y 6 ; - d h.@X1X9XqXeX1X;X3XoXh.W b 8 ; = + + + $ + $ $ + = = - = = ; 1 1 6 1 1 y T ) ` ) ..| @.+.<.@.} } &.W U U ",
"7.p.e.f...Z f 8 ; ; t ' C.1X@XOXQ.~.h.C.C.W.f.T 6 ; ; ; ; ; - @ @ = = - = - = @ $ = - - - ; - ; 8 I ~ ~ ~ ) _ _ ~ _ W ~ ~ W U T ",
"q.,.,.,.! g q , ; 6 T &.P.h.~ k K O.{ ' [ ' W y , , y U U 8 1 ; ; - = ; ; 7 > = = = = - - @ @ @ = 7 T } ! ~ ~ E W T U T W T V V ",
">.| Q ! E f 1 ; , V U ' 0.V 8 8 b T S b y t ; = = 1 b ) ! S t 1 , ; = - ; 3 ; - - - - - - = + + + + 7 R &.] V K U E N x E W V U ",
"} ! Q Q n q 1 ; 8 T N U ( d 8 8 d m b d 8 6 ; ; S a.p.>...` C t 6 , ; ; , , , ; ; ; ; ; 1 < - = + + @ 7 T ) U I W T N k W ~ T U ",
") ] ! Q f y 1 , t K x J N t 8 y d B B S t y y B 0.^.U.P.3.,.E n y 0 6 q f b y q 8 8 1 6 6 6 7 3 = + + = 8 I U E W _ J k U ' T Z ",
") [ ] Z f f 6 , d T J x d y a y b n B C C ~  .,.>.e.f.j.p.,.! E A n n B Z B Z Z C y q q q 6 6 1 , = + @ - y U E _ [ ^ k T T V Z ",
"}  .] Q y b y 6 d ' k t 9 r 7 1 6 y f Z Q ! Z E Q ! Q Q Z Z g n g n f f g C g f y q 8 q q 6 1 6 1 > + = = 6 S _ 1.t.K k U W V C ",
"] 3.,.` b y U d b { N 7 , - @ + - , 6 q y q y g n g f q 0 6 , ; ; ; ; , 1 , ; ; ; - - - - - ; < , ; = = ; 1 V ' t.t.=.x W W V C ",
"T q.e.e.V y U ~ k J b d 9 7 ; 6 q y q q q q q q q 0 8 q q t t t 8 6 8 8 1 1 ; ; @ @ + @ + $ o $ + = ; 8 8 6 V &.O.t.( J U ~ U C ",
"T >.i.k.t.b m ..U U U V U C Z C n Z Z Q | ] #.F #.#.#.#.t.&.&.o.) F F S M M p q 8 6 1 1 1 , ; - - 1 b I U y ~ &.{ { K x J T I C ",
"V e.h.D.U._ y T &.&.W _ [ | Q Q n E #.>.e.d.&.&.u.u.<.0.u.i.F D F M y p h M f f p p y f y y 6 8 y I } 9.) U ) ..| { N G K ^ U Z ",
"b 1.K.V.Q.p.d k 1...~ W ! ! ! ! A B W W T W T T F U B D W S a 8 s 9 7 9 r 8 6 8 y y q 0 0 0 q g | s.>...I Z ` ..[ K x G P K V C ",
"s } C.`.H.Q.W y J 3.) ) / } !  .E b y y 8 8 8 r 8 9 9 9 9 r 7 7 3 < < 3 < 3 3 7 9 0 q q 6 q g  .C.a.} ) b ) 1.} T N z G H J m V ",
"k N u.R.E.P.a.k d [ 1.} } ] ! ! A g d t 8 6 8 8 y a a r r 9 e 7 3 < > > < < 3 7 9 8 8 8 t b | K.P.8.} U b } 1.W N z z G J G N N ",
"L ^ ( h.W.^.N.( s T >.9.9.3.Q ] Z g y d y y t k k m b d s a 9 9 3 < > < 3 7 3 9 9 r 8 y b | w.C.a.0.[ b S &.W N z d s x z J b N ",
"L P K &.T.P.N.a.N y &.e.f...! Q A b f b m N B B V I V N k s 9 9 7 < < 3 9 r y d k d d N { h.C.k.w.0.[ d E ) S y s s z d k J m N ",
"L %.=.{ 1.M.N.C.K 8 B p.e.,.} } C g b n B @.f.p. . .) E S k s a 9 9 8 s k T W W V V V [ h.C.C.h.q.q.B b I E d r r s s z x J J U ",
"P =.*.{ =.h.h.u.&.d d 3.k.e.9. .Q g g C } P.P.P.K.j.p.,.1._ J N J T W { <.t.p.9.8.' _ 1.D.h.M.u.h.{ b B ~ S r r a a s x K J ^ W ",
"P -.%.=.=.=.K O.1.T y } P.j.>.3. .Z C ..z.T.N.j.i.d.e.d.K.K.t.u.m.U.j.D.U.U.w.a.0.8.' y.M.b.z.a.u.W b V I k e a a s d J T K T U ",
"%.-.*.%.=.P d J t.{ W [ T.j. .,.3. ...b.U.W.P.h.C.a.0.h.D.D.m.h.Y.D.m.h.H.C.t.{ { { &.0.h.u.i.i.t.V S U b r s d s z G J ^ { J b ",
"L =.=.-.%.G 5 5 j J { 8.b.P.3.9.j.p.q.K.U.E.W.^.c.P.K.E.D.H.D.[.J.@XU.U.D.u.O.&.&.g.0.u.0.u.i.u.&.W Y W r s x L x G L P K K K ^ ",
"L %.=.=.%.z 5 & > e ^ C.W.`.e.9.N.d.f.j._.^.W.`..X~._.[.[.XX$X@X=X1X=XQ.H.a.&.<.1.9.4.1.8.y.y.i.-._ { J a a s z L G J K ^ ^ { K ",
"v %.P $.P c w & : 4 e y.oX=Xk.9.l.B.s.N.P.oX).@X=X%X].=X-X3X=X=X3X1XH.t.k.u.t.<.>.>.| >.8.h.t.y.&.&.W z s 7 < a K G z J T *.&.*.",
"l L P L P c 4 % : > 3 K <X@XW.8.9.l.j.j.W.W..X`.<X<X;X:X3X<X=X[.).D.O.1.h.w.q.' } ! } &.0.Z.h.a.1.{ K s x e 7 9 G J G J K { t.w.",
"w G L L J l * % & & 5 z D.3X|.U.9.b.k.K.h.P.U.Q.).(.W.D.D..XD.C.C.a.i.d.0.1.} _ ~ ' [ 8.p.P.Z.C.t.=.x x u u e r a J K K J { *.*.",
"w l L P G e & % % & > e y.3X3XW.d.9.w.f.U.T.T.Y.P.A.i.i.h.i.w.i.w.i.&.>.>.] ' ' [ &.&.u.C.W.~.N.t.^ s G z j s e 7 r k L L P c s ",
"5 w c v l 5 # # % * & > G :X3XoXh.w.<.W.`.'.L.~.Q.L.0.h.k.w.O.@.1.+.W ) [ } ' } 8.1.W 0.Q.|.T.D.{ J 5 e v j u e : > 7 s s e 4 2 ",
"% * 4 5 j 5 % # % % & < a oX3X=X6.t.R.$X3XOX)._.[.U.K.v.P.h.e.1.1.~ T I ' } ' 0.u.0.~ a.(.|.).y.^ x j 4 e 5 < 5 & $ : > > < < 4 ",
"O O # * 5 4 & O # % & : 8 H.6XoX-.$X-X3X4X6X:X:X.X%X@X|.U.W.V.P.k.9.W U U ( _ 1.9.1.a.!._.OX).P G i l e > > : 4 % # : 3 3 w 7 i ",
"O O O % & 2 : O O O & : k oX9X9XuXuX9XwXwXtXiXuXwX9X6X6X5X=X[.`.^.W.O.K W W ~ O.6.f.U.~.|.[.h.H G w w 5 4 * & & # O < 7 r s d z ",
". . . # % * & # . O $ < O.}.1XtXiXpXyXtXtXiXyXpXpXpXqXtXyXeX-X:X;X3X{.n.%.K S <.h.Y.D.{.-X{.P G x w : * & & O O O # & < 9 r r s ",
". . . O # & % # . X # s y.$X5X8XiXiXyX8X0X0X0X0XrXrX0X0X0X0X7X>X,X>X>X7X>X;.P -.F.G.J.J.&X;.v c c w * & & # O O # # % * 5 3 w u "
};
