/* XPM */
static char *out[] = {
/* columns rows colors chars-per-pixel */
"64 64 229 2 ",
"   c #2B1608",
".  c #4A2415",
"X  c #5C2C1A",
"o  c #68321E",
"O  c #583F2A",
"+  c #763A24",
"@  c #7E3D26",
"#  c #63432F",
"$  c #6E402D",
"%  c #6A4D37",
"&  c #77523D",
"*  c #7F5D46",
"=  c #814A35",
"-  c #8E4B34",
";  c #96523A",
":  c #865540",
">  c #8C5D46",
",  c #9D5943",
"<  c #955F49",
"1  c #A45E45",
"2  c #89664F",
"3  c #9B644E",
"4  c #916A53",
"5  c #9A6F56",
"6  c #AB644A",
"7  c #A16851",
"8  c #AD6D51",
"9  c #A86D58",
"0  c #B36A51",
"q  c #B76F53",
"w  c #A1765D",
"e  c #A7755C",
"r  c #AE755B",
"t  c #B4715D",
"y  c #B97658",
"u  c #A87B63",
"i  c #AE7D64",
"p  c #B77764",
"a  c #BD7564",
"s  c #B27861",
"d  c #B47F64",
"f  c #BB7E63",
"g  c #C1785B",
"h  c #C87E61",
"j  c #C07B6B",
"k  c #AC836B",
"l  c #BE8466",
"z  c #B3876E",
"x  c #BA876A",
"c  c #BF8B6C",
"v  c #B78C72",
"b  c #BC8E72",
"n  c #C38264",
"m  c #CC8566",
"M  c #C78568",
"N  c #C4816F",
"B  c #C48A6C",
"V  c #CC8C6D",
"C  c #CC8C6E",
"Z  c #D18969",
"A  c #D48C6E",
"S  c #D88F6F",
"D  c #C98270",
"F  c #C88973",
"G  c #D08B78",
"H  c #D38E7E",
"J  c #C39072",
"K  c #C69677",
"L  c #C89172",
"P  c #CC9475",
"I  c #CA997A",
"U  c #CF9C7E",
"Y  c #D19071",
"T  c #D09072",
"R  c #D29172",
"E  c #D09273",
"W  c #D39273",
"Q  c #D49374",
"!  c #D59475",
"~  c #DA9472",
"^  c #DD9876",
"/  c #D79778",
"(  c #D1967C",
")  c #D89778",
"_  c #D59A7B",
"`  c #D99878",
"'  c #D9997A",
"]  c #DB9A7A",
"[  c #DA9A7B",
"{  c #DC9B7B",
"}  c #DB9C7D",
"|  c #DA9D7E",
" . c #DE9D7D",
".. c #DC9D7E",
"X. c #DD9D7E",
"o. c #E09E7D",
"O. c #E29F7D",
"+. c #E2A07F",
"@. c #D89380",
"#. c #DD9E80",
"$. c #DE9F80",
"%. c #DF9F80",
"&. c #DD9986",
"*. c #D99E87",
"=. c #CFA186",
"-. c #D4A082",
";. c #DFA081",
":. c #DCA386",
">. c #D8A485",
",. c #D7A88D",
"<. c #DCA88A",
"1. c #DFAB8E",
"2. c #DFAF94",
"3. c #E2A181",
"4. c #E0A182",
"5. c #E1A283",
"6. c #E3A282",
"7. c #E4A281",
"8. c #E4A382",
"9. c #E4A383",
"0. c #E5A383",
"q. c #E5A483",
"w. c #E6A483",
"e. c #E5A484",
"r. c #E6A584",
"t. c #E6A585",
"y. c #E7A685",
"u. c #E7A686",
"i. c #E8A786",
"p. c #E8A787",
"a. c #E9A887",
"s. c #E0A58A",
"d. c #E3AC8D",
"f. c #E7AD8F",
"g. c #E8A888",
"h. c #E9A888",
"j. c #E9A989",
"k. c #EAA989",
"l. c #EAAA8A",
"z. c #EBAA8A",
"x. c #EBAB8B",
"c. c #EBAC8C",
"v. c #EBAE8F",
"b. c #ECAC8C",
"n. c #ECAD8D",
"m. c #EDAD8D",
"M. c #EDAE8E",
"N. c #ECAE8F",
"B. c #EDAE8F",
"V. c #EEAF8F",
"C. c #EDAF90",
"Z. c #EEAF90",
"A. c #E4B195",
"S. c #E9B193",
"D. c #EDB091",
"F. c #EFB090",
"G. c #EEB091",
"H. c #EDB192",
"J. c #EEB192",
"K. c #EFB192",
"L. c #EFB293",
"P. c #ECB496",
"I. c #E6B599",
"U. c #EAB79A",
"Y. c #EEB899",
"T. c #EEBC9E",
"R. c #F0B293",
"E. c #F0B394",
"W. c #F0B495",
"Q. c #F1B495",
"!. c #F0B496",
"~. c #F1B596",
"^. c #F1B597",
"/. c #F2B596",
"(. c #F2B697",
"). c #F2B698",
"_. c #F2B798",
"`. c #F2B799",
"'. c #F3B899",
"]. c #F2B89A",
"[. c #F3B99A",
"{. c #F3B99B",
"}. c #F4B99B",
"|. c #F4BA9B",
" X c #F4BA9C",
".X c #F4BB9D",
"XX c #F5BB9D",
"oX c #F5BC9E",
"OX c #F5BD9E",
"+X c #F5BD9F",
"@X c #F1BFA1",
"#X c #F5BEA0",
"$X c #F6BEA0",
"%X c #F6BFA0",
"&X c #F6BFA1",
"*X c #F6C0A2",
"=X c #F6C1A2",
"-X c #F6C1A3",
";X c #F6C2A3",
":X c #F7C2A3",
">X c #F6C3A4",
",X c #F7C3A5",
"<X c #F2C4A5",
"1X c #F7C4A6",
"2X c #F7C5A6",
"3X c #F7C6A7",
"4X c #F7C7A8",
"5X c #F7C8A9",
"6X c #F0CBAD",
"7X c #F4CDAE",
"8X c #F8C8A9",
"9X c #F8CAAB",
"0X c #F8CBAC",
"qX c #F8CCAD",
"wX c #F8CDAE",
"eX c #F9CEAF",
"rX c #F3D1B3",
"tX c #F7D1B2",
"yX c #F0D4B6",
"uX c #F6D4B6",
"iX c #FAD3B4",
"pX c #FAD7B8",
"aX c #F1D8B9",
"sX c #F7D8BA",
"dX c #F5DBBB",
"fX c #FADDBE",
"gX c #F6DDC0",
"hX c #F9E1C3",
"jX c #FBE5C7",
/* pixels */
"2.J.r.t.' B k k e k K I U 1.S.T.Y.@X@X;X-X1X;X>X*X:X*X-X#X-X@X3X-X,X@X,X{.*XXX.XW.W.D.R.K.Q.K.N.f.f.g.g.9.k.;.6./ ` Q { ) ! Q Q ",
"1.l.m.a.y.P d k u x I I -.P.Y.S.D.n._.}.,X2X2X2X>X,X-X&X,X;X3X2X3X5X$X*X*X*X$X|._.Q.W.L./.E.L.N.c.f.u.k.k.k.q.+.o.'  .'  .{ ' W ",
"K O.+.r.8.W z z u c n y t 9 7 7 9 s K S.].$X+X*X:X3XOX,X$X,XXX*X3X9X#X%X*X-X}.}.}.E.c.v.~.(.j.c.k.j.4.y.p.a.o.8.9.9.W '  . .R ) ",
"c ^ ^ ^ o.T x i x s 3 = $ # O X O O & 7 K >.H.`.;X,X&X$XXXXX`.,X5X3X*X!.#X.X}.`.XXD.C.D./.Q.n.C.g.y.t.w.e.7.o.o.e.+./ ) o.) / ) ",
"x ^ S ^ S C l x < = : < 7 7 & # # # $ - < s P g.!.oXoX&XL.Q.!.oX#X-XoX(.W.Q.}..X(.(.(.XX_.!.J.R.b.z.g.k.9.6.+.t.w.w. .| ` [ ) ' ",
"J { ~ S S h n 9 7 i | f.T.T.T.U c d s r e y M ) t.`.$XXX`.C.H.}.-X*XXXC.H.N.Q.}.oXOX+X%X*XXX`.Q.L.b.g.t.r.q.i.t.a.;.+. .| ' #.' ",
"J o.S ~ S m g f | Y.Y.].;X,XY.;X.X`.5.:.E T T [ } C./.(.}.L.b.}.*X&XH.c.f.f.f.`.=X1X+X;X=XOXH.H.N.f.{ O.5.g.3.y.u.u.o.X.;.3.' } ",
"J  .S A S A Y s.}._./.!.XX}.(./.`.(.H.f.g.$.) ) ;.g.W.R.XXF.C.H._.Y.b.5.b.z.k.L.&XoX[.Y.Y.1.:.P B d f f l F F M C ! / [ ;.$.[ [ ",
"b ] A A ~ +.g.L.b.F.u.t.5.D.D.P.f.g.6.f.3.5.%.9.;.g.R.XXQ.L.W.Q.N.C.t.$.%.;.g.K.D.C.#.P s < : = $ $ $ $ $ > < 9 7 f n M C  ./ / ",
"c / A S ^ 6.t.x.x.t.! n 4.Y.].Y.Y.H.d.} E P ] +.t.k.K.C.(.G.Q.R.R.C.3.C Q R } X.;.E y 3 : $ X X . . . . X X # & : 3 7 9 f p B Y ",
"b X.A ~ ^ b.3.a.i.' y } #X3XT.XX].Q.f.t.! n f M X.z.x.Q.Q.R.x.G.K.Q.[ n M T M F n y , = $ $ X X X X X o $ & = & = : - > > 3 1 f ",
"K | Q Z o.x.g.i.X.M C (.*X].d.( _ ( W ) ! m t y T { w.F.)./.n.l.F.m.+.n l f l n y 8 ; = = @ = = > 1 r f P L l 9 7 < < : : : - ; ",
"J | ) A ^ Q.L.K.E M #.Y.*.s : @ $ $ : 3 t g q y g Y { x./.}.K.H.b.b.o.Y f f f f 8 1 - - - < , 8 p V E ;.| ;.$.} P F l r 1 ; : , ",
"K U _ R ! a.Q.H.) T 5.l $ . . . $ .   . # - 6 8 t M ! 9.Q.}.}.L.K.N.;.C M y t 1 , ; - - ; ; ; 7 l n n f n M F V F E ( T C p 7 3 ",
"L -.P P P 9.5.f.! C r X     . O & O     . X $ = , f A +.Q.8X,X$XXX}.9.E n t 1 , ; - @ @ + + 3 n $.t.} ( P n 8 7 , 7 y T C F l s ",
"-.-.U ( _ / ! R M 1 - = $ & & & & . . . . # $ o @ - W 6.}.eXtX5X3X[.F.R y , , , - + o X $ 7 e < 4 < < 7 e p p s 9 ; = ; l F B f ",
"U -.-.>.4.! n g 1 1 y 9./ [ E c 7 > & & : 5 < - = ; Q Q.}.eXfXpX5XoXa.V 1 , 1 - = + o o @ + + . . .       . # $ & * & o = l B B ",
"-.-.-.d.g.' ) q.t.a.w.+.C.F.C.x.9.) E P T M m M C X.z.`.,XtXfXiX0X(.3.f 1 , 6 - , 1 - = - - > & # .                   . X > T M ",
"-.-.U f.C.m.F.(.Q.b.o.u.l.b.{ 6.+.^ Z V Q ! Z W A W t.$XeXsXpXiX3X}.[ f 1 6 q f n ) ] [ [ #._ _ K x < > : : $ # O X . . . + 1 3 ",
"-.-.-.s.Q.b.E./.}.}./.F.a.` ! A ) ! A A W m n q g 3..X;X0XeXeX5X;XK.' g q 0 g W { { +...' ] ] $.e.o.C M C C n y r 8 3 ; > 1 1 8 ",
"-.-.( _ ;.6.b.(.(.&X$X$XQ.;.m g y g q 0 8 1 8 R H.8X,X5X0XqXeX5X(.t.W h n M m A { k.k.x.i.^ m M M m m m y g y M V A T W g 8 ; t ",
">.>.;.' o.{ F.Q.}.&X3X4X5X&XL.z.o.T M n m [ `.5X5X0XqXeXeXeX5X*XQ.X.Z m Z S ! ) o.a.b.k.R.F.k.! f 6 6 1 6 1 6 1 6 1 , - = - y X.",
"s.d.:.9.;.6.b.}.*X,X;X0XeXeX*XXXoXOX_.;X*X9X#X5XqXeX3XtXpXiX*X&XF.X.m m A ~ +.r.a.x.y.a.F.).R./.!.H.5.! M f 6 , , , 1 y T o.Q ! ",
"d.s.| 0.a.N.Q.}.;X3X5XiXiX0X,X;X%XXXXX4X0X9X-X,XeXeXtXiXfXeX.X(.m.[ A m A Z ! ~ o.t.w.z.F.).(.[..X$XoXoX:X$X`.L.Q.Q.N.z.b.z.{ T ",
"s.5.>.N.m._.}.;X,X9XeXfXpXiX0X=X(.&X&XqX0X9X,X8XqXtXuXfXuXeX}./.i.9.^ ~ m g g y q q g ~ i.(.}.oX`.oXoX%X*X%X|.XX!.(.k.k.u.k.t.o.",
"d.s.6.t.k.Q.;X,X9X9XtXsXfXfXeX3X*X;XqXeXeXeX5X9X0XeXpXhXfX9XXXL.K.z.z.i.S g g n n 0 , 1 n 9.(.|.XXXX:X2X2X;X,X&X.XQ.L.x.i.w.w.o.",
"N.n.3.t.F.oX&X8X5XtX0XfXfXhXeXtX9XqX3XeXeXeX%X,X5XiXuXfXsX0X(.R.R.Q.b.z.{ h g S O.o.n 1 , t R m.XXXX+X2X3X5XXX&X&X}.b.b.u.a.6.9.",
"N.g.s.z.(..X$X>X9XtXeXsXsXfXiXeXeX9X,XoX,XQ.K.`.9XtXsXpXpX5X$X/..X.XC.' Z h m o.x.t.~ g ; - 1 n t.C.}.;X2X1XoX}.*X}.C.k.b.a.w.+.",
"t.9.5.F./.(.}.8X2X9X5XtX9XtX=X;X|.oXL.b.! m ) XX5XtXsXfXeXeX*X&XoXoX$.n q g m ^ ~ A h q , 1 , 1 y { x.XX|.OX}.}.Q.(.x.x.i.a.w.i.",
"q.$.9.a./.Q.}.&X2X2X,X-X,XoXQ.b.t.^ Z q 1 g L.;X0XeXsXfXfXfXeX3X$X4.f 1 ; - - - - ; , , 8 y q 8 6 y R 9.m.R.R.V.F.b.f.k.k.i.i.a.",
"e.e.] i.m.K.N.oX*X=X}..X(.H.3.^ m q - ; M .X3X5XeXfXhXjXhXhX9X,X5.g ; + o + $ + + = - , 0 q 0 y y q q Z o.k.u.b.h.z.9.t.a.z.+.7.",
"t.+.X.9.F.k.m.Q.}.}.Q.K.k.o.Y g 6 - , R .X9XiXtXpXsXfXfXfXeX#Xf.n , = o + @ + o @ - - = , , , 8 g q 8 8 f Y {  .6.+.o.o.w.w.%.' ",
"$.;.| k.b.n.b.K.G.L.b.w.! Z y 1 = 1 _ .X3XeXuXsXuXiXiX0X,XY.5.M 1 - + + + + $ + o @ + - - - = , 1 6 , 1 1 t C _ ! / ! | ' 3.[ [ ",
";.$.O.7.l.b.z.a.a.u.6.! m y 1 - ; M d.#X0XpXpXtX5X$X$XXXf.C 8 , = + + + @ + + + @ @ @ = = + + - - - - - - - 7 M W R T T ' / ' ! ",
"4.+.) #.y.a.$.0.7.i.A m y 6 - ; y } f.:X,X@XY.C.S.N.x.L.K.[ 8 1 6 y 8 , - - = - - - = ; - = @ = = - @ @ @ = @ < V  .Z T T / L P ",
"} ' ]  .i.o.^ ] o.o.T g 0 , ; 6 R ' f.f._ L F | X.^ T R C t ; ; y E C t 6 , ; - - - - < , ; - - - - - = + $ + + < n Q T Y E P L ",
"_ { ^  .' ^ ^ ` S ) M t , , , n E ! ;.F y t y E M M t 8 , = = t B ) Q T f 0 , , - ; - < ; ; ; ; ; < ; < > : + + + ; n R C R T P ",
"` ' _ ) ^ ) ~ ~ ) Z g 6 1 , 1 n C C E f 8 8 t n n n 8 8 7 , n N.H.t.{ W m g 0 , 1 , 6 6 1 , , , 1 1 6 7 3 , = + @ @ , n T R ! _ ",
"T P F ) ] ^ S ~ Z M f 8 1 1 6 n B c B s 8 t t l T Z q y l V [ C.Q.L. .^ S m y q q q g h n h q 8 8 q 8 6 1 3 - + @ = @ 8 C ) ! | ",
"C M P { 9.^ ^ ~ m g f t 6 1 8 B B l s r r y f n Z Z m Y %. .] $.9.9.o.) S A Z m m M h m m m g 8 q 0 0 6 8 7 < : = = - , T #.:.| ",
"l l P 6.t.a.3.[ n t l n t 6 8 E l 9 3 9 8 6 6 8 q h Z ~ R ! W ~ V W m n g y 0 8 6 6 6 0 8 , ; , ; ; - - - ; - : - ; , , M 5.e.;.",
"l B E 5.g.b.b.+.m 0 f Y M f y L n 7 ; - = @ = - 1 6 q q y g n n y q 6 6 6 1 1 , , ; , ; - = = @ @ + + + + + + = 7 p f 1 T ;.4.[ ",
"c L P 9.J.Q.N.x.! y t ! ' V y n l t 8 1 ; , 6 q q y q q g N j j n N N D G G N D N N t q t q 8 0 0 0 1 1 , , , f ! o.C t Q 4.( E ",
"x l P s./.[.E.f.t.n t M ;._ C M C V M M V M h n Z A @.) } @.@.@.4.$.@.[ @.H F N N j j j N g a y a y 0 8 q q m 3.3.+.T f { [ [ V ",
"f L E d.C.`./.Q.N.) y y ! o./ ] ! ) / ) ! ! h n Z | ( &.@.&.@.&.W &.@.@.N p r y 7 t q 0 0 y t q 8 0 6 8 g ! z.k.X.{ M T } | E m ",
"l c K >.L.(.`.!.`.t.n 8 n $.$.[ ! R Q ^ ^ ^ W n M l l f f l f f r e r s e 3 7 3 3 7 3 7 7 9 8 8 0 8 8 y Q v.N.3.[ C g ) t.[ B B ",
"I U L | J.].R.(.(.`.! t p E [ #./ ` ! ^ { ) m M f y 7 7 7 r 7 9 r e 9 9 7 9 < < < < < < 7 9 7 t t t y C t.L.s.X.{ g y } $.P l B ",
"I U P _ f.(.L.L.~.(.5.f s l [ 3.q.o.' ^ { ^ A g n f t 8 t p y f f s r r r 7 < < < < > 3 7 8 9 8 y y M ;.L.f.5.4.[ f M E R l l M ",
"P >.-.} | f.J.~.N.C.f.C 8 t V a.w.i.0.7.^ ^ Z g y y t y y n n F n n f r 9 9 3 3 < < 3 r r p s l f C $.D.f.c.e.t.l n Q ) f c B W ",
"U >.-.-.-.s.H.v.f.t.g._ r t n $.k.a.w.^ +.^ W f f f n n Q ! ! Q Y C n f r s 9 9 7 9 f l L V M C W ;.S.S.S.D.S.! f M Y M f l C _ ",
"=.<.=.>.>.:.' | ;.5.[ :.B n T ) 9.k. .+.o.^ A h n V M $.b.b.6.t.e.3.V B B B l F F _ E } ..$.! ' } N.d.f.S.H.:.B n Q M f l c C P ",
"-.>.>.>.-.U c e ( 5.| _ )  .z.o.a.a.6.9.+.~ A A W ) t.c.G.g.t.t.g.g.9.s.s.s.s.d.v.d.9.5.t.5.[ [ f.v.d.d.S.d.E M T C d d c P L l ",
"I >.:.>.U K w 4 e K ( ' ! b.Q.t.O.a.7.o.o. . .w.g.N.J.R.C.k.s.t.v.N.f.n.d.d.d.f.f.S.t.;.) } | 9.g.f.d.d.s.| C T M n f B C I P _ ",
"K >.,.>.>.x 5 & 2 7 x 4.k.N.}.t.7.b.C.7.7.3.6.g.|.}.`.L.L.N.N.H.F.N.P.P.P.A.U.L.P.f.5.' _ ;.t.9.s.5.s.s.s.E T C M l L L ( _ | ( ",
"b -.-.-.U b 5 * * 2 5 _ H..X].n.;.Z.b.i.a.b.3.t.Q.XXY.XXXXXXD.(.].@XT.*X3X>XT.T.S.f.| | 4.9.| 5.4.5.:.d.5.W B l l l c L P :.s.:.",
"z I U U U x 2 % * 2 4 x U.;X#X(.f.t.z.j.g.l.g.Z.(.}.oX.X;X*X@X@X,X;X*X-X5X;Xd.;.f.s.4.| %.| | | ;.d.s.s.| L s 9 l L b c P | s.d.",
"w J I -.I d * % & & 2 d 1.2X,X3Xf.8.6.b.l.N.b.J.f.(.H. X@X.X].>X@X`.P.Y.P.S.$.t.5.4.) ' ) [ 4.9.4.f.s.s.J c i 9 r ( P L P | :.<.",
"w x I U c u & % & & 4 w | 3X2X+X/.9.e.3.h.B.'.L.~.F.L.K.D.M.f.f.f.g.v.j.f.t.e.5.3.] ) ) ;.4.N.m.d.s._ I J c d e 7 p B K I U x i ",
"5 w b x d 5 # # % & & < x 5X5X#XE.x.+.u.!.oXE.Q.Q.XXc.D.D.G.6.5.5.t.;.9.9.3.) [ [ $.[ } t.H.H.].f.-.x i K J u e : 3 9 d d w 4 4 ",
"% & 2 5 k 5 # # # % & > s @XwX#XN.5.C.}.5X>X{.[.*X(.G.N.(.L.g.5.t.} ! W )  .' ' 4.u.;.) H.`.XXH.s.J d 5 u w 3 5 : & > > > < 2 > ",
"O O # * 4 4 & O # # & > 8 ].9X@X>.T.>X0X9XeXeX5X#X=X*XoX}.!.J.Q.N.g.' T T ) [ $.+.g.5.D.E.*X.XS.K d x w 4 * : 4 % # > 3 3 w 3 i ",
"O O O % * 2 & O O O & - n `.eXiXsXsXuXtXiXsXfXdXsXtXiXeXeX*X$X+XOX[.s.P E ( / [ 5.l.L.).*X=XS.I J u w 5 > * & & O # < 7 s d f x ",
". . . # % * & # . O $ < #.#X9XsXgXhXdXsXsXgXdXhXhXhXuXsXdXpX5X3X3X0X@XA.-.P F } v.^.J.#X3X@X_ J c w * * & & O O O # & < 9 r r s ",
". . . O # & % # . X # d d.>XrXrXsXdXdXrXyXyXyXyXaXaXyXyXyXyX6X6X7X6X6X6X6X2.U <.I.T.T.@X<X2.b v z w * & & # O O # # % * 5 3 w u "
};
