/* XPM */
static char *out[] = {
/* columns rows colors chars-per-pixel */
"64 64 230 2 ",
"   c #2B1608",
".  c #4A2415",
"X  c #5C2C1A",
"o  c #68321E",
"O  c #583F2A",
"+  c #763A24",
"@  c #7E3D26",
"#  c #63432F",
"$  c #6E402D",
"%  c #6A4D37",
"&  c #77523D",
"*  c #7F5D46",
"=  c #814A35",
"-  c #8E4B34",
";  c #96523A",
":  c #865540",
">  c #8C5D46",
",  c #9D5943",
"<  c #955F49",
"1  c #A45E45",
"2  c #89664F",
"3  c #9B644E",
"4  c #916A53",
"5  c #9A6F56",
"6  c #AB644A",
"7  c #A16851",
"8  c #AD6D51",
"9  c #A86D58",
"0  c #B36A51",
"q  c #B76F53",
"w  c #A1765D",
"e  c #A7755C",
"r  c #AE755B",
"t  c #B4715D",
"y  c #B97658",
"u  c #A87B63",
"i  c #AE7D64",
"p  c #B77764",
"a  c #BD7564",
"s  c #B27861",
"d  c #B47F64",
"f  c #BB7E63",
"g  c #C1785B",
"h  c #C87E61",
"j  c #C07B6B",
"k  c #AC836B",
"l  c #BE8466",
"z  c #B3876E",
"x  c #BA876A",
"c  c #BF8B6C",
"v  c #B78C72",
"b  c #BC8E72",
"n  c #C38264",
"m  c #CC8566",
"M  c #C78568",
"N  c #C4816F",
"B  c #C48A6C",
"V  c #CC8C6D",
"C  c #CC8C6E",
"Z  c #D18969",
"A  c #D48C6E",
"S  c #D88F6F",
"D  c #C88973",
"F  c #CC8A78",
"G  c #D08B78",
"H  c #D38E7E",
"J  c #C39072",
"K  c #C69677",
"L  c #C89172",
"P  c #CC9475",
"I  c #C09379",
"U  c #CA997A",
"Y  c #CF9C7E",
"T  c #D19071",
"R  c #D09072",
"E  c #D29172",
"W  c #D09273",
"Q  c #D39273",
"!  c #D49374",
"~  c #D59475",
"^  c #DA9472",
"/  c #DD9876",
"(  c #D79778",
")  c #D1967C",
"_  c #D89778",
"`  c #D59A7B",
"'  c #D99878",
"]  c #D9997A",
"[  c #DB9A7A",
"{  c #DA9A7B",
"}  c #DC9B7B",
"|  c #DB9C7D",
" . c #DA9D7E",
".. c #DE9D7D",
"X. c #DD9D7E",
"o. c #E09E7D",
"O. c #E29F7D",
"+. c #E2A07F",
"@. c #D89380",
"#. c #D89982",
"$. c #DD9E80",
"%. c #DE9F80",
"&. c #DF9F80",
"*. c #DD9986",
"=. c #D4A082",
"-. c #DFA081",
";. c #DCA386",
":. c #D8A485",
">. c #D7A88D",
",. c #DCA88A",
"<. c #DFAB8E",
"1. c #DBAB91",
"2. c #DFAF94",
"3. c #E0A081",
"4. c #E2A181",
"5. c #E3A181",
"6. c #E0A182",
"7. c #E1A283",
"8. c #E3A282",
"9. c #E4A281",
"0. c #E4A382",
"q. c #E4A383",
"w. c #E5A383",
"e. c #E5A483",
"r. c #E6A483",
"t. c #E5A484",
"y. c #E6A584",
"u. c #E6A585",
"i. c #E7A685",
"p. c #E7A686",
"a. c #E8A787",
"s. c #E9A887",
"d. c #E0A58A",
"f. c #E3AC8D",
"g. c #E7AD8F",
"h. c #E8A888",
"j. c #E9A888",
"k. c #E9A989",
"l. c #EAA989",
"z. c #EAAA8A",
"x. c #EBAA8A",
"c. c #EBAB8B",
"v. c #EBAC8C",
"b. c #EBAE8F",
"n. c #ECAC8C",
"m. c #ECAD8D",
"M. c #EDAD8D",
"N. c #EDAE8E",
"B. c #ECAE8F",
"V. c #EDAE8F",
"C. c #EEAF8F",
"Z. c #E4B195",
"A. c #E9B193",
"S. c #EDB091",
"D. c #EFB090",
"F. c #EEB091",
"G. c #EDB192",
"H. c #EEB192",
"J. c #EFB192",
"K. c #EFB293",
"L. c #ECB496",
"P. c #E6B599",
"I. c #EAB79A",
"U. c #EEB899",
"Y. c #EEBC9E",
"T. c #F0B293",
"R. c #F0B394",
"E. c #F0B495",
"W. c #F1B495",
"Q. c #F0B496",
"!. c #F1B596",
"~. c #F1B597",
"^. c #F2B596",
"/. c #F2B697",
"(. c #F2B698",
"). c #F2B798",
"_. c #F2B799",
"`. c #F3B799",
"'. c #F2B89A",
"]. c #F3B89A",
"[. c #F3B99A",
"{. c #F3B99B",
"}. c #F4B99B",
"|. c #F4BA9B",
" X c #F4BA9C",
".X c #F4BB9C",
"XX c #F4BB9D",
"oX c #F5BB9D",
"OX c #F5BC9E",
"+X c #F5BD9F",
"@X c #F5BE9F",
"#X c #F1BFA1",
"$X c #F5BEA0",
"%X c #F6BEA0",
"&X c #F6BFA1",
"*X c #F6C0A1",
"=X c #F6C0A2",
"-X c #F6C1A3",
";X c #F6C2A3",
":X c #F7C2A3",
">X c #F6C3A4",
",X c #F7C3A5",
"<X c #F2C4A5",
"1X c #F7C4A5",
"2X c #F7C4A6",
"3X c #F7C5A6",
"4X c #F7C6A7",
"5X c #F7C7A8",
"6X c #F0CBAD",
"7X c #F4CDAE",
"8X c #F8C8A9",
"9X c #F8C9AA",
"0X c #F8CAAB",
"qX c #F8CBAC",
"wX c #F8CCAD",
"eX c #F8CDAE",
"rX c #F9CEAF",
"tX c #F3D1B3",
"yX c #F7D1B2",
"uX c #F0D4B6",
"iX c #F6D4B6",
"pX c #FAD3B4",
"aX c #FAD7B8",
"sX c #F1D8B9",
"dX c #F7D8BA",
"fX c #F5DBBB",
"gX c #FADDBE",
"hX c #F6DDC0",
"jX c #F9E1C3",
"kX c #FBE5C7",
/* pixels */
"2.H.r.i.' B k k w k U Y Y =.>.Z.1.Z.2.Z.1.Z.2.Z.Z.Z.Z.Z.Z.I.P.P.Z.Z.2.Z.f.P.b.H.g.b.h.b.h.h.k.V.h.z.h.z.u.k.t.q.| } ( [ [ ..[ [ ",
"<.k.C.n.i.W x k u u K U Y ,.1.2.2.1.Z.1.2.Z.Z.2.Z.Z.Z.Z.I.P.P.Z.Z.Z.P.I.Y.'.OX~.~.Q.W.W.).J.H.V.B.h.k.a.p.p.a.+.4.[ [ [ o.} [ ..",
"J ..O.y.r.[ f k i z I Y =.1.1.Z.Z.P.Z.P.I.XXP.P.P.Y.P.XX#X;X$XOX#X#XU.#X$X=XU.(.Q.~.B.W.T.R.v.z.B.v.t.p.i.k.9.u.4.{ ! } } +.} } ",
"b / ^ / o.A n x k x ) =.1.1.Z.I.#X#X#X#X3X;X$X#X,X$X#X#X3X0X3X$X=X$X{.'.$XXX_.W._.!.G.B.W.K.a.q.z.p.t.+.t.q.j.k.4.' ' ' | | %.{ ",
"b ^ S A A m n l d J =.,.,.P.U.OXOX:X-X:X=X,X$X-X#X$X'.OXXXOX-X-X|.OX|.OX~.'.J.W.F.~.H.T.F.K.V.m.u.j.y.a.9.a.j.c.+.[ ] &.| 7...%.",
"c ^ A A Z g n c L U %.d.g.b.H.H.).*X*X:X,X=X-X=X$X$X).'.).=X=X$X$XOXW.Q.(.K.W.H.H.).].).~.F.K.V.j.t.w.a.v.h.a.9.u.q.%.%.7.-.%.{ ",
"c / A A m h g B U J c J L L c P f.[.oX.X:X,X XOX$X:XS.W.W.3X'.OX$X[.z.H.R.OXW.].XX&X{.$X~.).z.H.j.h.%.u.x.k.-.+.y.6.| -.7.6.| | ",
"I / A Z Z h n y 9 > : = = & % & < z :.g.{.).).OXoX.Xb.C.H.).]..XOXV.h.k.V.).$X+X:X$X.XOX.XW.g.;.:.W C W W D M D Q ~ ( ] 7.&.| [ ",
"c / A A A Z g 1 ; < 3 7 : $ O O o $ > r c %.z.`.K.).z.k.u.R.[.).V.z.d.z.u.R.-X:XoXOX.XL.f.:.c r < < : > < 3 3 r p f n M V ~ } [ ",
"B / A A A / R M P :.f.<.,.J i < : = - ; 8 n Q 7.J.V.V.z.k.K.W.V.h.%.7.4.h.V.`.).R.f.U r < = + o X . . . o $ = : < 3 7 7 8 r M Z ",
"L } A A ^ y.{ | 7.n.h.g.A.).f.%.` B r 8 t f n W 7.V.7.a.k.C.h.z.y.[ ! } ..h.d.c.{ l < = + o . . . . . o $ = & = : > - ; ; 3 3 7 ",
"U _ S Z } u.$...3.%.{ ` d.d.%.;.%.~ C n n n B C $.z.t.y.b.j.k.h.z.W M V ( ( ` T y , = $ $ X X X $ = < i c f r 7 7 7 3 ; < , , , ",
"J ` _ ^ } V...o.[ R f Q 7.A.L.K.u.4.C f t f C ( | z.u.k.y.v.h.c.y.C g M n n n f 1 ; @ + + + : 3 r J ` h.7.7.` T B n f f 9 7 3 3 ",
"c Y ] Q { b.u.{ C 8 M L.oX~.).H.k.7.| C y 6 y C [ q.t.u.a.j.t.y.7.C y y f f y 8 , - - - ; , r l W ~ ` ` ` ` ` ~ ] ] ` W V n d 9 ",
"K =.Y ) ` F.7.{ y f :.P.1. .c d r e 9 r 8 8 6 f T +.y.u.a.z.&.y.4.~ f y y y 1 1 ; ; - - ; , 1 y M n f y t t 6 8 y B B C T W f p ",
"Y =.Y Y ` k.h.%.f M Y x 4 $ . . .     . $ ; , 8 M Q q.F.W.V.j.u.q.( M f y 8 , ; ; - = + @ 3 l Q | ] C C C n t 1 ; = , y W C n n ",
"Y :.=.:.Y -.7.y.n l 7 X       O O       . o + , y W +.W.U.!.K.H.k...M y 6 1 , - @ + X $ < e : : $ # $ : < 7 9 9 3 : $ = d T V W ",
"=.=.:.Y ;.%.C M 8 - $ . X $ % % O . . . O & o $ ; C $.).0X0X$X.XW.4.n 1 , , ; @ $ X X : = $ . .             . . . X X X : L ` M ",
">.>.=.:.,.` f 8 , 1 f p d B d i 7 4 2 4 9 7 ; - ; ] y.OXdXdX4X:X).9.y , 1 1 = = @ o $ + : < & # .     . O . . . . . . . o 6 8 t ",
":.=.Y =.f.b.k.u.u.~ _ h.b.h.k.7.%.~ C C T m C ( 4.c.R.$XgXgXyX:XR.W 0 , 8 6 , t n n M C `  .) J i 7 < 7 i 7 3 < < - + + , 6 , q ",
":.:.=.=.Y 7.B.V.c.k...4.&.y.} ^ T A Z A A Q Q T T H..X0XpXdXrX:Xc.T 8 1 8 h n R +.9.( [ ] 7.7.q.( T m ~ Q T g f f M n M f 1 y C ",
",.:.:.:.;.:.k.V./.^.).y.A Z Z R A Q A m h q 8 n c.$X4X0XyXrX0X.Xk.Z q 0 y m ..$.n.i.q.~ M m m V A m g q q g m A ~ A h 1 - 6 V ..",
"1.f.:.;.t.f.u./.).,X.X[.c.[ g q 0 q 6 1 1 y ` OX3XyXqXrXqXyX.XA...A g m A T ~ y.B.J.c.c.y.T 8 , , 1 , 1 6 6 , , ; - = 1 m +.T Q ",
"f.f.:.;.d.7.R.`..X$X:X,X4XOXW.7._ T C ` A.5X4X4XrX0XqX9X0X0X.X7.~ m Z ~ o.o.o.k.z.h.z.R./.).S.h.| C f 8 6 1 1 6 n T / p.j.u...C ",
",.,.:.;.;.c.W.W.W.OX4XqX0X:X=X%XoX$XOX0X3XqX9XqX0XpXqXyXrX4XH.$.Z Z m ^ o.c.x.n.a.b.c./.U..XoXOX{.oX.XXX~..XW./.H.C.k.n.i.z.q.+.",
"f.d.d.,.f.k.R.[.$X:XrXrXyX8X4XoXOXOX9X9X8X3XwXqXrXrXdXyX0X.XV...A m Z A A ^ ^ ' o.y.c.(. X}..X+X=X%X3X$X=X%XoX[.W.x.a.y.z.t.9.%.",
"v.g.;.f.b.A.R.OX4X0X4XyXpXpX:XOXOX4X0XrX9XrXqXpXpXgXdXyX:X.Xc.y.^ ~ m h g g q 0 0 g Q c.).XX'.&X3X3X$X:X4X,X]..XJ.H.q.a.j.x.9.y.",
"v.g.d.d.g.H.OX).$X4XrXyXdXpX4X2X0XrX0X3X0X8XrX0XyXgXjXrX:X).V.c.i.9.A g y h Z h 0 ; 1 n h.`.].[.:X4X3X,X4X,XOX^.T.V.u.t.k.j.9.O.",
"t.d.6.p.;.H.oXOXOX4XiXdXpXrXrXrX8XrXqX9X0X0X$X0XyXgXgXrXOX~.T.^.V.V./ M g ^ 9.9.~ y - ; 8 ~ y.).).3X:X1XoXOX|..XF.C.n.z.w.a.9.0.",
"t.8.6.-.;.c.oX$X$X4X0X0X0X9X8X,X,X4X$XR.z.k.OX4XpXdXdX0X$X`.OX.XW...Z h Z } y.9.} h , - ; 1 M %.H.].$XoX].^.Q.D.N.z.h.s.s.u.i.5.",
"u.u.X.t.7.J.J.).OX$X.X%XoXOXW.W.H.c.^ g g y.).0XdXgXpXrX=X:X.X.X%.M 0 g h A m h y 8 1 8 0 6 1 f [ c.b.^.R.W.h.v.z.D.u.j.s.j.&.5.",
"u.7.$.| 7.C.C.V..X].~.).R.H.q./ A g , , [ OX:X0XgXjXgXdXyX4XOX4.f 1 - - - = + = ; , 6 y g y q 8 y T | j.V.M.p.t.h.z.l.a.p.q.&.+.",
"$.-. .-.9.z.b.^.^.W.W.W.h.+.~ g , - ; ( $XyX0XpXkXkXjXjXpX4X7.f , @ o $ + @ + = - , , 6 8 y y y 8 8 n ( ..a.&.9...9.7.7.-.7.$.-.",
"+. .-.$.7.h.D.b.D.V.c.+.[ m y , = , ` OXrXaXyXpXgXjXdXrX4XL.M , @ $ + + + $ + @ @ = - ; , 6 q q 0 1 1 y T ' ' _ ' _ _ } X.{ ` ) ",
"3.7.` | i.u.w.j.j.z...Q n y ; = 1 { L.4XrXdXyXrXyX0X.XL.k.C , - @ o o o + + o + @ = + @ @ ; ; ; ; ; - ; 8 C R _ ! ~ C Q ( ] P ~ ",
" .` ] ] %.9.4.+.h.q.~ n r , - ; M f.[.4X0X0X:X'.$X[.g.Q y 1 - @ @ + + + + + @ = - - @ + @ @ - - - = @ + = < M | %.] A R ' ~ R W ",
") ` ~ ` ] | } } [ o.A g 1 ; - f ~ c.).L. .u.q.u.u.c.k.] 8 ; , t t 1 ; - - - = - - < - : = - - - - = + + $ + : f _ ..~ Q E ~ ~ ` ",
"~ W ~ Q ~ ` [ ' [ [ m q , ; 1 V ~ 7.W f t M ` Q C M n 1 = = 6 C R y 6 , ; ; - - ; ; ; - ; - - ; ; : : = + + + - t E _ ! ~ (  . .",
"R W D P W [ ! _ } / g 6 , , 8 M L P y 8 8 f n n t 6 , = - y C _ [ R g 8 1 , - - , , , , ; 1 ; , 1 1 , < : + + + : y C ( { ;.` :.",
"B c B B L ~ } [ ..T y 8 1 , r n B B r 7 8 y f n y 6 8 1 M c.R.h.q.[ A h q 6 1 1 q y 8 q q 8 1 6 0 6 1 1 3 : + + = ; n Q $.;.;.:.",
"l x l B l W 3.3...W 8 y 8 , 8 B n x 8 8 8 n M M f y f C ] v.j.V.q.q.^ Z m h n g g m Z m h q 0 0 8 6 , 1 , ; = + = ; 8 ( | d.d.,.",
"d x f f B W $.7.q.( y t n 6 t C p 9 9 8 r y n n m T ~ ^ [ / / ^ ( A m Z m h h g y q y q 8 6 6 1 ; - - - - = = : , 1 8 ~ 7.d.7.` ",
"f x d f c P  .b.z.u.n r B l t L 8 ; - : - - , q n h g h Z V h h g q , 1 , ; - ; - ; = = @ @ + + + o X o + @ ; y n f t [ &.;.) P ",
"d f f x c L ;.b.J.H.| y n W l n y 1 - - - ; 1 6 0 6 6 0 y q 6 6 8 6 6 6 q 8 8 6 6 1 , ; ; , ; ; , ; , ; , 6 M } %.n n _ 4.%.` L ",
"d c x J x B :.R.A.).z.W y W W D B B n f f m m m m G m D M H Z Q G H F Q D C N M n j g g g g a a y y q t y [ 4.t...M T -.$.] L L ",
"x J U J c c ) b.K.~.).%.f n | ~ ~ ! ~ T T g m ' ..*.#.@.*.) &.$.;.*.` C N n l y j g y a y q q q q 0 y m +.h.y.} Q M | %.$.W c c ",
"P Y Y Y U P L ;.U..Xb.V.W f L $.! ~ Q ^ ( T g T ~ C n V C C l M G C l r e 9 < 3 8 r 7 8 a y 6 q 0 y h +.K.V.( ( B M | %.~ M p f ",
"U Y Y ` =.U L Y K.W.H.n.g.B l  .$.! ! ~ _ A g r 8 7 7 9 r 9 9 7 9 9 9 3 3 3 < < 7 3 3 7 r r r 8 y h } S.W.h.| R n T ] ~ c f f n ",
"K =.:.:.:.=.Y P :.G.S.J.V.| f _ &.../ } ~ Z g f 8 8 7 9 8 s s r e e 9 9 3 < < < > 4 3 7 9 r r y n ( u.R.k.d.%.M y ~ ~ C d f f C ",
"U :.:.=.:.=.Y Y Y Y %.g.V.%.f B t.4.{ [ ^ m f f r 8 8 t n n f f p r e 7 3 < < < 3 7 9 r t y f M ] k.V.z.h.f.| n M ! R f d f c ) ",
"=.,.=.:.:.:.U c d d P ;.7.7.n p { j...[ / Z g f f f f C C R M M n d e 9 9 9 3 9 r d p B M D M _ V.B.h.A.S.A.M n ~ _ f s f B B P ",
"=.,.:.:.,.=.L w 4 < c =. .| $.V ..p.q.[ ..m h h m T q.h.u.4.[ / ~ B d r f f f f L ~ ` { | ` ` 7.L.b.f.g.A. .M V ~ C d p D P P n ",
"U ,.:.,.:.=.z 4 > * w x P 7.z.v.4.z.y.4._ A m Q _ C.b.n.a.j.u.u.-.u.=.$.;.f.h.g.g.h.u.-.` ` %.H.k.b.k.A.;.L V R C n f B P P P ) ",
"L :.,.:.:.U i > * 2 < 4 x A.~.[.H.q.j.c.4._ ( 4.!.T.R.h.t.p.9.h.h.f.f.<.f.f.S.A.g.7.%.` ..4.h.k.f.f.g.;.| L W T C n J J P P ] ) ",
"b =.Y =.Y J w 2 * * * * w ,.Y.;X.Xa.z.H.h.i.| k./.Q.S.S.V.F.a.V.L.L.g.#XU.L.Z.L.A.-.{ $.j.g.7.7.f.L.g.%.| ~ V n d J c l L Y  .;.",
"z U Y Y Y x 4 & * * & * w :.#X:X$XV.%.c.u.h.q.c.OXOX[.U.{.K.Q.Q.'..X#X;X4XOX,.f.g.$.X.&.p.q.7.f.k.g.;.%.:.W f 9 r B L c L ) 7.f.",
"w J U Y K x * % & & & 2 w U :X0X$XS.5.z.j.h.y.R.{.$X#X%X.X=X#X3X#X#X#X#X.Xf. .g.7.} ` { ] t.p.u.g.g.;.;.L P r e 9 f B L B Y ;.;.",
"w z K Y b u & # % & * * 5 c 0XqX#XR.5.e.u.n.H.E.E.W.XX.XOX[.=X#XL.A.L.g.g.f.u.7.7.~ ( ` %.f.D.K.Q.f.=.P J c i e 7 7 s B P P z r ",
"5 w b b x w % # # % % * 4 B 4XrX$XK.| q.K.oXR.).Q.`.K.D.K.F.h.g.z.g.d.h.h.p.{ X.] | ] 6.f.T.G.].E.f.J i z J i u > : 3 r r 7 3 4 ",
"% & 4 4 k 4 & O # # % : 3 c 0XrXXXd.t.'.5X3X=X}.{.).K.b.W.v.h.7.q.%...' [ ..] (  .8.7.( B.Q.'.'.b.U l r w w 4 5 * $ = > > < < 4 ",
"O O # * 4 4 * O # # % : < ` 5XpX<.P.#X0X4XeX9X0XOX=XXX$X/.!.J.R.z.p.[ ~ R ~ ~ } 9.p.7.7.K. X$X.X=.c k z 2 4 * 4 & O : 3 3 9 3 i ",
"O O O % * 2 * O O O % : s S.9XaXdXgXpXpXpXdXjXhXaXeXyXrXrX3X@XXX}.[.t.W W ~ ' { 7.u.J.W.OX@XU.=.J d w w 2 > & & # O > 7 r d f x ",
". . . # % * & # . O $ < $.$X9XdXhXjXfXdXdXhXfXjXjXjXiXdXfXaX3X3X4XqX#XZ.=.P D -.b.~.L.#X3XY.Y J c w * * & & O O O # & < 9 r r d ",
". . . O # & % # . X # d f.>XrXtXfXfXfXtXuXuXuXuXsXsXuXuXuXuX6X6X7X6X6X6X6X2.Y ,.P.I.Y.Y.<X2.b v x w * & & # O O # # % * 5 5 w u "
};
