/* XPM */
static char *out[] = {
/* columns rows colors chars-per-pixel */
"64 64 221 2 ",
"   c #2B1608",
".  c #4A2415",
"X  c #5C2C1A",
"o  c #68321E",
"O  c #583F2A",
"+  c #763A24",
"@  c #7E3D26",
"#  c #63432F",
"$  c #6E402D",
"%  c #6A4D37",
"&  c #77523D",
"*  c #7F5D46",
"=  c #814A35",
"-  c #8E4B34",
";  c #96523A",
":  c #865540",
">  c #8C5D46",
",  c #9D5943",
"<  c #955F49",
"1  c #A45E45",
"2  c #89664F",
"3  c #9B644E",
"4  c #916A53",
"5  c #9A6F56",
"6  c #AB644A",
"7  c #A16851",
"8  c #AD6D51",
"9  c #A86D58",
"0  c #B36A51",
"q  c #B76F53",
"w  c #A1765D",
"e  c #A7755C",
"r  c #AE755B",
"t  c #B4715D",
"y  c #B97658",
"u  c #A87B63",
"i  c #AE7D64",
"p  c #B77764",
"a  c #BD7564",
"s  c #B27861",
"d  c #B47F64",
"f  c #BB7E63",
"g  c #C1785B",
"h  c #C87E61",
"j  c #C07B6B",
"k  c #AC836B",
"l  c #BE8466",
"z  c #B3876E",
"x  c #BA876A",
"c  c #BF8B6C",
"v  c #B78C72",
"b  c #BC8E72",
"n  c #C38264",
"m  c #CC8566",
"M  c #C78568",
"N  c #C4816F",
"B  c #C48A6C",
"V  c #CC8C6D",
"C  c #CC8C6E",
"Z  c #D18969",
"A  c #D48C6E",
"S  c #D88F6F",
"D  c #C88973",
"F  c #D38E7E",
"G  c #C39072",
"H  c #C69677",
"J  c #C89172",
"K  c #CC9475",
"L  c #CA997A",
"P  c #CF9C7E",
"I  c #D19071",
"U  c #D09072",
"Y  c #D29172",
"T  c #D09273",
"R  c #D39273",
"E  c #D49374",
"W  c #D59475",
"Q  c #DA9472",
"!  c #DD9876",
"~  c #D79778",
"^  c #D1967C",
"/  c #D89778",
"(  c #D59A7B",
")  c #D99878",
"_  c #D9997A",
"`  c #DB9A7A",
"'  c #DA9A7B",
"]  c #DC9B7B",
"[  c #DB9C7D",
"{  c #DA9D7E",
"}  c #DE9D7D",
"|  c #DC9D7E",
" . c #DD9D7E",
".. c #E09E7D",
"X. c #E29F7D",
"o. c #E2A07F",
"O. c #D89380",
"+. c #D89982",
"@. c #DD9E80",
"#. c #DE9F80",
"$. c #DF9F80",
"%. c #CFA186",
"&. c #D4A082",
"*. c #DFA081",
"=. c #DCA386",
"-. c #D8A485",
";. c #D7A88D",
":. c #DCA88A",
">. c #DFAB8E",
",. c #DFAF94",
"<. c #E0A081",
"1. c #E2A181",
"2. c #E3A181",
"3. c #E0A182",
"4. c #E1A283",
"5. c #E4A281",
"6. c #E4A382",
"7. c #E4A383",
"8. c #E5A383",
"9. c #E6A483",
"0. c #E5A484",
"q. c #E6A584",
"w. c #E6A585",
"e. c #E7A685",
"r. c #E7A686",
"t. c #E8A786",
"y. c #E9A887",
"u. c #E0A58A",
"i. c #E3AC8D",
"p. c #E7AD8F",
"a. c #E9A888",
"s. c #E9A989",
"d. c #EAA989",
"f. c #EAAA8A",
"g. c #EBAA8A",
"h. c #EBAB8B",
"j. c #EBAC8C",
"k. c #EBAE8F",
"l. c #ECAC8C",
"z. c #ECAD8D",
"x. c #EDAD8D",
"c. c #EDAE8E",
"v. c #EEAF8F",
"b. c #EEAF90",
"n. c #E4B195",
"m. c #E9B193",
"M. c #EDB091",
"N. c #EEB090",
"B. c #EEB091",
"V. c #EDB192",
"C. c #EEB192",
"Z. c #EFB192",
"A. c #EFB293",
"S. c #ECB496",
"D. c #E6B599",
"F. c #EAB79A",
"G. c #EEB899",
"H. c #EEBC9E",
"J. c #F0B293",
"K. c #F0B394",
"L. c #F1B495",
"P. c #F0B496",
"I. c #F1B596",
"U. c #F1B597",
"Y. c #F2B596",
"T. c #F2B697",
"R. c #F2B698",
"E. c #F2B799",
"W. c #F3B799",
"Q. c #F3B899",
"!. c #F2B89A",
"~. c #F3B89A",
"^. c #F3B99A",
"/. c #F4B99B",
"(. c #F4BA9B",
"). c #F4BA9C",
"_. c #F4BB9C",
"`. c #F4BB9D",
"'. c #F5BB9D",
"]. c #F5BC9D",
"[. c #F5BD9E",
"{. c #F5BD9F",
"}. c #F5BE9F",
"|. c #F1BFA1",
" X c #F5BEA0",
".X c #F6BEA0",
"XX c #F6BFA1",
"oX c #F6C0A2",
"OX c #F6C1A2",
"+X c #F6C1A3",
"@X c #F6C2A3",
"#X c #F6C3A4",
"$X c #F7C3A5",
"%X c #F2C4A5",
"&X c #F7C4A5",
"*X c #F7C4A6",
"=X c #F7C5A6",
"-X c #F7C6A7",
";X c #F7C7A8",
":X c #F0CBAD",
">X c #F4CDAE",
",X c #F8C8A9",
"<X c #F8C9AA",
"1X c #F8CAAB",
"2X c #F8CBAC",
"3X c #F8CCAD",
"4X c #F8CDAE",
"5X c #F9CEAF",
"6X c #EECEB0",
"7X c #F3D1B3",
"8X c #F7D1B2",
"9X c #F0D4B6",
"0X c #F6D4B6",
"qX c #FAD3B4",
"wX c #FAD7B8",
"eX c #F1D8B9",
"rX c #F7D8BA",
"tX c #F5DBBB",
"yX c #FADDBE",
"uX c #F6DDC0",
"iX c #F9E1C3",
/* pixels */
",.V.9.e.' B k i e d H H H =.>.S.i.S.m.!.!.{.H.|.H.|.H.oX{.=XoX-XoXXX[.oX)./.I.Q.C.B.k.L.x.J.g.M.r.f.a.a.q.a.5.6.) _ / ) ) ~ ~ E ",
":.r.l.l.t.W M i i c K ^ i.E.(.{.{.].+X@X&X*X#X#X X#XoXoX#X=X=X-X,X#X'.).[._.Q.R.L.A.v.B.v.B.M.f.e.0.a.t.e.9.8.6.' ~ ) `  .` ) ) ",
"G ! ] 9.t. .n x N D B U K ~ T ^ { k.L.OX=X-X{.&X=X,X_.).'.oX+X,X#XXXI.Q.~.{.T.C.Z.Z.j.B.v.K.s.q.0.a. .2.6.9.1.t.$.] R ) } $.` ) ",
"c Z S ! ] W B f d 9 < > : : = = > s { k.{.OXXXXX-X,X'.Y.].Q.XX#X,X XT.V./.Q.L.B.Z.v.L.B.!.J.v.a.f.q.o.$.6.5.q.q.5._ ~ _ 8. .` / ",
"v A Z S S A f 3 : & = & $ X X . X $ > f K r.L.+X[.OX'.Q.Z.J._.=X X#XZ.K.C.U.Q.'.L.T.].E.T.T.v.v.a.s.7.t.q.y.a.a.5.@._ [ | *.` / ",
"H S Z A Z g 3 > 9 J -.;.-.z > & & * > < r M | k.)./._.L.k.v._.oXoXQ.L.l.k.M.Q._.XX[. X{._.S.k.f.0.*.` { 4.$.#.@.7.@.<.@.| @.| E ",
"G ` M S Z g g =.S.{./.{.|.=Xm.>.&.J d y y M C [ M.E.J.Z.f.J.S._._.L.s.f.l.J.L.).oXOX!.!.S.i.( G x s 9 r d l f n T ~ R _ [ 7.W ~ ",
"H ` A ! 2.$.k.B.Q.W.L.W.oX XU.Q.J.p.3.) Y C U T t.b.L.v.Z.v.J.Z.L.s.7.4.s.z.L.T.^.V.=.J e 3 > = $ $ O X + : > 3 f n n J | { _ W ",
"c ` A 5.t.j.l.B.l.l.s.k.k.A.k.M.f.4._ ( Y _ W _ $.z.z.A.k.Z.B.v.a.w._  .| 0.l.Z.7.U r < + o X . . . . . X # $ = > 3 7 r f Y ~ S ",
"G $.A 2.a.d.a.f.a.E M | V.!./.K.k.r._ V M U ` 3.q.B.c.x.v.x.Z.Z.z.` V V E R [ ~ M 8 ; = + o o X X X o + > > = = : : > ; 7 8 M V ",
"G s.S 2.l.Z.6.9.W y ( oX;X1XH.U.J.V.<./ n y n ` 7.z.a.z.v.Z.s.v.z.} f n M C n n t , - = = = = - 3 r s D T K d r 7 3 : - > < , s ",
"H i.*.@.W.Q.t.) f C H.{.H.i.^ U J C C M m y y m ] 9.c.v.B.c.f.a.f.` f y l n n t 6 , - - ; , 8 y J ^ #.*.k.0.{ T J n s 7 < < < > ",
"v p.@.4.M._.f.R f 0.m.H > $ X X . X $ ; 6 q 0 n A ..s.W.N.Z.p.v.9.` M l y y 0 6 , ; ; , , 7 8 M M U K ~ _ [ _ [ ~ ' ^ n 7 3 > > ",
"B -.7.] r.Z.f.Y J ^ 5 . .   . $ .     . o - 1 t V ) a.[..XU.L.Z.a._ V n y 6 1 , ; ; - - - ; 7 y n n j f f f l n Y ~ ~ C n y 7 > ",
"G P 0._ 3.w.} W r = X   . O O O .     . . o + - f ] 2.{.1X,X/.Q.Z.7.M f 8 7 ; - - - + o - y M { r.s.~ Y V f 8 , , y j M M n 8 < ",
"P -.f._ Y V t ; - 6 s 7 7 7 > & % . . X & + $ @ , 9.t._.8X8X=X'.Q.7.n 6 1 1 ; = @ o X : s p e i f d f N D M y 8 , - ; f B l t 8 ",
"P -.i.2.` 7.` R I 2.z.k.k.k.0.K N B p p d 9 7 8 n z.L.=X0XyX4XOXM.*.y , , , - @ + o o : = o . O . . . O & : > < > = $ 3 n n l l ",
"&.=.C.Z.Q.W.Y.v.y...6.t.s.s.a.r.0.` E Y A A ` } 5.L. X1XyXrX5X Xp.C 0 , 1 , - , ; = = = = = X X           . . . . . X o s ^ C n ",
"-.u.a.5.L.].Z.L.Y.Z.$...} ) A I E A A E A E g M 7._.{.4XrX0X=X{.s.I 1 , 8 y 8 V _ } W ) ~ ^ c e * $ # $ O . . O . . . X ; d 8 t ",
"&.( ] ..J.L.T._.&X[.L.1.A g M m S m h y q 0 f 0.#X#X<X<X8X2X XL.7.n 8 6 t V / / 6.q.] ) $.9.3.{ U n f f f 7 3 < > - + = 1 8 f U ",
"-.4.$.o.z.W.Q.OX#X2X#XXXY.5.M t 8 6 6 8 j 0.{.1X=X;X4X5X1X,XQ.f.Y M g g h M / t.w.f.w.` m U A / S m h h g n h m n M n l , 1 t M ",
"4.3.t.t.W.L._.OX;X4X5X,XXX(./.J.v.p.M.{.=X;X2X<X1X2X5X5X1XOXU.@.Z m Z A W I ) 9.a.t.v.v.9.M 0 6 0 0 0 0 q q g h h y 1 - ; M ..M ",
"0.a.a.v.T. X'.,X5XwX5X5X,X=XL._.oX1X@X&X,X,X#X1X5XqX4X5X1X#Xs.) Z m m S ] 0.X.q.s.f.f.L.T.Q.=._ M t , , , ; = - - - , f I ) ) ] ",
"f.s.s.v. XOX=X;XqX0XrX5X4X#X/.Q.*X;X1X=X,X#X1X4XqX8X0X1XoXT.a.` S Z m Z ) $.o.9.t.t.z.Z.Q.Q.[._.OXXXk.7.[ Y U W $.o.5.7.5.W V ` ",
"q.a.9.T.{.2X1X5X8XyXrXrX,X&X'.oX#X2X5X1X#X,X0X0X0XyXrX1XQ.Z.l.9.W A h g g h g m A 9.z.Z.L.'.W.{._.@X[.OX)./.Y.T.f.z.a.s.2.] M ` ",
"l.l.l.T.#X1X5X5X0XtXyXrXqX;X<X;X2X<X4X,X,X2X5X8XrXyXrX,X_.K.v.a.t.} A y q g y 6 6 y } v././._.'. X+X{.{.XX)./.B.z.6.5.w.9.$.Y I ",
"J.Z.v.T.#X2X1X5XwXyXrXrX0XqX1X1X,X8X;X;X=X,X;X8XrXyX4X#X X/.Z.M.Z.t.A g g S S m 8 , 8 ) T.oXT._.@X&X).XXoXoXL.Z.l.a.} q.9.w._ R ",
"R.z.v.T.&X-X1X-X5X5X8X8X4X1X;XoX#X_.k.t.M.oX;X8XrXyX4X#X#XQ.Q.Q.L.) M g Z 6.t.! A 1 - 1 ~ v.T.Q.XX+X{.{.oX{.Q.Z.v.a.5.5.t.6.$.R ",
"s.f.z.T.).=X=X;X#X*X=X=X_.Q.Z.f.$.S h m k.=X1X0XrXyX4X1XoX#X^.Q.~ f q g A $...) m 0 ; , 6 A w.U._.oX_._.T.T.J.v.s.g.q.q.5.6.o.` ",
"s.a.v.l.Q.'.oXoX X{._.L.z.o.A g 0 1 t p.=X1X4XrXyXiXiXrX2X#XM.U r , , , 1 1 1 6 6 6 6 0 6 0 I 9.v.T.Q.L.J.v.v.z.g.y.e.8.8.2.o.` ",
"a.f.d.f.L./.Y.'.Q.T.a.o.) m 8 , , n M.2X8X8X4XyXiXiXyXrX4X!.C 8 - @ o o o @ + - , 0 0 g y q 0 A 0.v.a.v.z.z.9.8.0.g.5.t.4.9.` ] ",
"q.a.c.l.A.N.T.L.T.t./ m h 6 - , T !.;X8XtX0XrXyXyXyX4X1X{._ 8 - + o + @ @ + @ - , 1 6 0 y g g q I $.7.t.z.9.5.#.0.q.9.9.9.7.[ [ ",
"..6.t.Z.r.x.v.J.*.W h g 1 ; , Y S.;X<X0XyXyXrX0X;X=XU.k.~ f , - @ + + + o + @ = @ ; , 1 8 g g g y C W 5.5.9.$.3.} 5.7.7.$.3.| @.",
"3.$.9.9.9.a.l.w.) M y 6 ; ; n 7.G.=X4X8X0X5X1X#X{.Z.@.n 8 , - @ + + + + + $ @ @ = - - - , 0 q y q r V ~ ` ] ] ) W } @.` { _ ^ T ",
"o.0.} } ..5...` A g 1 , 1 f / r.L.#Xp.m.S.T.p.S.T.L.$.M 6 6 1 6 , ; = = = - - - - - + + = , ; , , 7 7 M ~ ] E W R ~ Y ~ ~ ~ U U ",
"..! ] Q } ! ` A M 0 , ; 0 T W 4.k.~ f n { 3.| { 3.^ D 8 1 t J W y 6 ; ; ; - - ; 3 < = = - - - - : = = 3 D | @.) ~ Y U U ~ Y B U ",
") | ! ] / ] / E y 6 1 1 l K D [ C f r f V ~ C n t 8 - = - t I E A f 6 , ; - - ; ; , - - - - - - = + + = < D ~ } R E A ~ R J M W ",
"W _ ` ) ) Q S Z f 8 1 1 M C B K B t 0 y n M V y 8 6 ; , W w.} ` S m y 6 , ; - ; ; , ; ; ; ; ; ; : = + + @ , n W ) E W ~ ~ J B T ",
"W ) W } ] ) h m V t 1 6 U J n D d y t n m V m f y y 0 C k.L.q.5.` A g y 6 1 , 0 0 6 1 , , , , , 1 < - = + - , n W W Y ~ _ ^ l C ",
"I ) ( <.o.` M y R f 6 t E D f d f d y n V Z m M m / / ~ 7.s.f.5.$.W m n m g g g h h g q 6 1 1 1 8 1 ; = = = = 1 C R ~ _ @.^ n U ",
"M C _ r.6.5.V y M Y y f ^ C 8 7 7 6 , 1 0 g M E S ) A E / } } ` E S Z m h h h h g h g g 0 0 0 q 1 1 , ; = + = ; y I @.u.=.&.D U ",
"M U _ 0.N.a.] f M | C f ^ D s 1 - @ @ - , 6 g g g g h M Z m M j h g a 0 8 8 8 8 8 6 1 1 6 6 6 1 1 1 3 ; - = - ; 8 R @.=.r.^ J J ",
"B T ~ s.I.Y.*.n f { ~ M U J l n t r 8 g g h g g g y q a a a t y y y 0 0 8 6 1 1 , ; = - - - @ + + @ @ = - < 1 6 8 ] { 3.=.^ G K ",
"l J _ s.!.U.V.E y U #.~ $.! I E Y E Z h A ) } $.#.O.F O.+.O.O.O.O.F D D D j a q y 0 6 1 1 ; ; = = @ @ - 6 y M t y ] ) ~ &.J H K ",
"d J ' k.P.!.L.s.l f _ o._ ` W ) W } ! I Z } @.@.~ *.+.*.( +.` @.F F D D f a j j g h g g a y g q 0 1 6 g U ) ` n n ` _ ^ U G c K ",
"l B ^ r.M.L.U.M.T r M 3.| W ) ! ` ] ] Q m M D l l C C D D N B D N p y s e 9 t t t y a g g y 0 0 y g A 9.9.] Y n C ~ _ T c B G J ",
"L ^ K @.Z.E.Z.Q.r.l t ` 0.$.W ......W S m y 8 8 0 t 8 y t s 9 s r e 7 3 3 3 < 7 9 s r t y t 8 t M } l.l.<.' g n ] <.U J x c M B ",
"L P K ( s.L.Z.C.U.^ 8 D 7.3.$...o.! W Z h g f t y y y f n l s s s r 7 < < < < 3 5 7 9 0 y y t M @.B.m.0.$.W y V 3.{ B l c B M B ",
"L -.-.{  .s.C.Z.k.@.9 s @.f.e.a.} ] W Z g g n y t f n D M M M f r 9 3 3 < > < 7 7 9 9 8 t n n W w.M.i.7.[ U y E ~ J s d f B M U ",
"P -.=.{ -.u.k.p.s.4.d 1 Y z.z.9.} ! Q m h n l n C U Y E ) Y V f s 9 3 , < < 7 9 s y y y f M ~ r.k.p.0.0.@.f n E J s s f l l ^ W ",
"P :.&.-.-.&.-.{ 4.0.C t f f.w.a.5...S Z h M M Y t.v.o.9.t.$.Y M f s 8 t r d d B U D l n J | r.M.k.k.0.t.V m I W B s r s l K T K ",
"&.:.=.-.-.P b r { 0.( n l w.z.9.t.5.! A m m E t.T.v.0.s.v.a.7.@.@.T K ^ { { { { 3.| W K ~ 7.p.i.k.k.p.W m I C M s s r f ^ { K n ",
"L -.-.:.&.H e > i ^ K T C q.Z.t.8.t.} ` S o.v.J.v.z.7.7.3.l.s.p.k.p.p.S.i.k.r.r.@.#.~ { { r.i.r.i.k.u.C V Y M f r d f J K K K ( ",
"L &.-.-.-.x 5 * > 7 l { 7.r.L.a.5.z.z.7.t.l.Q.T.T.J.k.f.z.Z.k.p.p.p.p.i.p.p.k.@.@.~ ` 4.q.q.0.i.i.k.~ V U J d f J G G H ^ ^ { K ",
"b &.P %.P v w * * 4 5 ^ p.[.S.L.0.J.f.z.f.K.J.Q.U.Q.M.Z.J.L.p.S.!.#X!.!.U.S.r.{ { 1.' <.4.w.@.i.p.m.^ W E x 7 s G J x J T { *.=.",
"z L P L P v 4 % * > > r i.{.{.E.w.9.z.v.N.v.T./.#X@X{.{.oX{.{.{.;X;X1XoXp.r.s.@.|  .` ' 7.7.i.r.K.0.{ ~ J d 7 7 d ^ c J K ( =.r.",
"w G L &.J z * % & & > i P &X#X#Xs.e.z.Z.l.L.T.Q.{.oXoXoX#X;X=X=X!.{.!.m.{ s.p.r. ._ W @.@.r.s.T.k.:.^ ^ d k e 9 r J K K J { =.=.",
"w z L P G e & % % & > 5 x !.1XOXB.q.s.z.f.J.R.L.L.U.T.T.T.T.{.T.k.k.p.0.a.f.w.@.[ ~ { { s.p.J.U.J.u.^ c x k i e 7 9 f J L P v d ",
"5 w v b z e # # % * & > e F.1X#XT.l.$.s.J._.C./.!.E.f.k.z.k.7.0.4.r.*.<.*.7._ } ` 3.[ *.k.L.R.].k.-.x e B k u e : > 7 d d w 4 2 ",
"% * 4 5 k 5 % # % % & > 7 r.5X2X!.u.s.{.=X=X`.'.}.T.J.Z.L.Z.r.3.4._ ) Y ) ` ' @.3.s.' _ J.).|.!.0.G x 4 e 5 5 5 : $ : > > < < 4 ",
"O O # * 5 4 & O # % & > < i.5X4X:.U.#X2X3X5X;X;X X$X+X.XQ.P.B.Z.z.q.W U U ( _ 4.q.r.@.k.L.{.|.L.H x x e > > : 4 % # > 3 3 7 7 i ",
"O O O % & 2 * O O O % : f ).1X0X0XrX0XqXqXtXuXyXrX5X5X5X4X=X}./.`.W.4.K W T ~ #.3.h.M.Q..XOXU.P G i w 5 4 * & & # # < 7 r d f x ",
". . . # % * & # . O $ < @. X<XrXuXiXtXrXrXuXtXiXiXiX0XrXtXwX=X;X-X2X|.n.&.K D 3.k.U.S.|.=X|.P G c w : * & & O O O # & < 9 r r d ",
". . . O # & % # . X # d i.#X4X7XuXuXtX7X9X9X9X9XeXeX9X9X9X9X6X:X>X:X:X6X:X,.P :.D.F.H.H.%X,.b v z w * & & # O O # # % * 5 5 w u "
};
