/* XPM */
static char *out[] = {
/* columns rows colors chars-per-pixel */
"64 64 204 2 ",
"   c #2B1608",
".  c #4A2415",
"X  c #5C2C1A",
"o  c #68321E",
"O  c #583F2A",
"+  c #763A24",
"@  c #7E3D26",
"#  c #63432F",
"$  c #6E402D",
"%  c #6A4D37",
"&  c #77523D",
"*  c #7F5D46",
"=  c #814A35",
"-  c #8E4B34",
";  c #96523A",
":  c #865540",
">  c #8C5D46",
",  c #9D5943",
"<  c #955F49",
"1  c #A45E45",
"2  c #89664F",
"3  c #9B644E",
"4  c #916A53",
"5  c #9A6F56",
"6  c #AB644A",
"7  c #A16851",
"8  c #AD6D51",
"9  c #A86D58",
"0  c #B36A51",
"q  c #B76F53",
"w  c #A1765D",
"e  c #A7755C",
"r  c #AE755B",
"t  c #B4715D",
"y  c #B97658",
"u  c #A87B63",
"i  c #AE7D64",
"p  c #B77764",
"a  c #BD7564",
"s  c #B27861",
"d  c #B47F64",
"f  c #BB7E63",
"g  c #C1785B",
"h  c #C87E61",
"j  c #C07B6B",
"k  c #BE8466",
"l  c #B3876E",
"z  c #BA876A",
"x  c #BF8B6C",
"c  c #B78C72",
"v  c #BC8E72",
"b  c #C38264",
"n  c #CC8566",
"m  c #C78568",
"M  c #C48A6C",
"N  c #CC8C6D",
"B  c #CC8C6E",
"V  c #D18969",
"C  c #D48C6E",
"Z  c #D88F6F",
"A  c #C98270",
"S  c #C88973",
"D  c #CC8A78",
"F  c #D08B78",
"G  c #D38E7E",
"H  c #C39072",
"J  c #C69677",
"K  c #C89172",
"L  c #CC9475",
"P  c #C09379",
"I  c #CA997A",
"U  c #CF9C7E",
"Y  c #D19071",
"T  c #D09072",
"R  c #D29172",
"E  c #D09273",
"W  c #D39273",
"Q  c #D49374",
"!  c #D59475",
"~  c #DA9472",
"^  c #DD9876",
"/  c #D79778",
"(  c #D1967C",
")  c #D89778",
"_  c #D59A7B",
"`  c #D99878",
"'  c #D9997A",
"]  c #DA9A7B",
"[  c #DC9B7B",
"{  c #DB9C7D",
"}  c #DA9D7E",
"|  c #DE9D7D",
" . c #DC9D7E",
".. c #E09E7D",
"X. c #E29F7D",
"o. c #E2A07F",
"O. c #D89380",
"+. c #DD9E80",
"@. c #DE9F80",
"#. c #DF9F80",
"$. c #DD9986",
"%. c #D4A082",
"&. c #DFA081",
"*. c #DCA386",
"=. c #D8A485",
"-. c #DCA88A",
";. c #DFAB8E",
":. c #DFAF94",
">. c #E0A081",
",. c #E2A181",
"<. c #E3A181",
"1. c #E0A182",
"2. c #E1A283",
"3. c #E3A282",
"4. c #E5A382",
"5. c #E4A383",
"6. c #E5A383",
"7. c #E5A484",
"8. c #E6A585",
"9. c #E7A685",
"0. c #E7A686",
"q. c #E8A787",
"w. c #E9A887",
"e. c #E0A58A",
"r. c #E3AC8D",
"t. c #E7AD8F",
"y. c #E8A888",
"u. c #E9A989",
"i. c #EAA989",
"p. c #EAAA8A",
"a. c #EBAA8A",
"s. c #EBAB8B",
"d. c #EBAC8C",
"f. c #EBAE8F",
"g. c #ECAC8C",
"h. c #EDAD8D",
"j. c #EDAE8E",
"k. c #ECAE8F",
"l. c #EDAE8F",
"z. c #EDAF90",
"x. c #E4B195",
"c. c #EDB091",
"v. c #EEB090",
"b. c #EFB090",
"n. c #EDB192",
"m. c #EEB192",
"M. c #EFB293",
"N. c #ECB496",
"B. c #E6B599",
"V. c #EAB79A",
"C. c #EEB899",
"Z. c #EEBC9E",
"A. c #F0B394",
"S. c #F0B495",
"D. c #F0B496",
"F. c #F1B597",
"G. c #F2B596",
"H. c #F2B698",
"J. c #F2B799",
"K. c #F3B899",
"L. c #F2B89A",
"P. c #F3B89A",
"I. c #F3B99A",
"U. c #F3B99B",
"Y. c #F4B99B",
"T. c #F4BA9C",
"R. c #F4BB9D",
"E. c #F5BB9D",
"W. c #F5BC9D",
"Q. c #F5BD9E",
"!. c #F5BD9F",
"~. c #F5BE9F",
"^. c #F1BFA1",
"/. c #F5BEA0",
"(. c #F6C0A2",
"). c #F6C1A2",
"_. c #F6C2A3",
"`. c #F7C2A3",
"'. c #F6C3A4",
"]. c #F7C3A5",
"[. c #F2C4A5",
"{. c #F7C4A6",
"}. c #F7C6A7",
"|. c #F7C8A9",
" X c #F0CBAD",
".X c #F4CDAE",
"XX c #F8C8A9",
"oX c #F8C9AA",
"OX c #F8CAAB",
"+X c #F8CBAC",
"@X c #F8CCAD",
"#X c #F8CDAE",
"$X c #F9CEAF",
"%X c #F3D1B3",
"&X c #F0D4B6",
"*X c #F6D4B6",
"=X c #FAD3B4",
"-X c #FAD7B8",
";X c #F1D8B9",
":X c #F7D8BA",
">X c #F5DBBB",
",X c #F6DDC0",
"<X c #F9E1C3",
"1X c #FBE5C7",
/* pixels */
":.M.7.9._ K z i u x U :.:.x.:.x.:.:.:.x.x.V.V.C.V.C.V.C.x.V.c.n.r.t.r.t.t.r.y.t.e.7.2.y.8.;.2.2.) @.} >.@.} `  .W W B Q B ! B W ",
"-.u.h.q.2._ M x x U t.n.x.x.V.:.:.x.x.x.V.V.V.C.L.U./.E.U./.I.J.N.t.k.k.M.D.D.d.d.y.s.s.h.2.,.@.#.#.>.{ <.{ | / Q B T T Q R R T ",
"K o.7.9.7. .J U =.N.n.V.L.U.N.H.J.C.x.I.E.^.V.Q./.T.N.Q.L.T.M.J.A.D.d.M.A.M.d.k.k.g.7.0.u.9.[ } | >.] | >.7.] ` ! W N V T C N T ",
"z ^ | ^ { } %.r.L.E.H.J.!./.E.U.!./.E.U.)./.U.W.T.T.J.H.E.T.H.J.I.M.k.k.M.k.u.u.g.q.u.u.0.1.@.+.| #.| | 2.1.[ / ! B N V B B V n ",
"i / X.y.e.v.N.W.T.E.U.!.U.!.E./.W.W.U.!.U.(.J.T.J.Q.U.I.G.N.G.I.G.M.k.c.t.d.y.i.q.y.h.s.+.o.+.*.} =.@.1.{ @.] / N Y V C V Y n V ",
"K ..0.h.M.D.U.L.Q.(.Q.U.T.J.J.J.Q.U.Q.U.E.J.F.J.L.J.H.F.G.I.J.H.J.b.f.p.v.p.q.y.s.h.s.u.7.>.@.} >.@.1.2.2.] / E B N V V V V V V ",
"%.2.1.a.v.G.n.L.T.Q.J.U.U.E.D.P.E.`.J.J.D.P.f.F.U.R.f.D.U.T.D.J.I.J.d.v.k.s.9.s.h.v.u.a.0.3.' @.1.7.{ <.1. .W R C V n V V n n V ",
"P P J } d.M.F.D./.U.F.I.U.J.D.D.E.E.H.D.D.M.S.F.Q.U.J.I.).`./.I.E.H.h.u.d.y.y.u.l.i.u.a.u.7.| >.7.2.+.@.2.[ ~ C C n h n V V m h ",
"= % = 5 z =.r.n.n.F.F.U.H.G.v.F.M.J.c.S.k.k.k.I.D.W./.(.[.}.`./.D.d.1. .! ] ] _ T E !  . .#.| >.+.1.@.1.@.| ~ C m b g h b n g h ",
"+ o X X & 3 f E 7.d.M.D.M.k.h.D.J.D.n.d.d.y.s.h.J.Q.(././.U.N.;._ z 7 3 < < 7 7 7 9 f b N T E ! _ { { | >.] / N m g f f b b b g ",
"J u = = = : < s K } 7.d.b.M.y.b.M.n.7.y.7.y.7.s.M.U.n.N.2.K 7 < = $ X X X X X $ = > < 7 r r 8 t f T N / ] } N b b f y f f b f f ",
"N.:.%.v i 9 3 8 f M ] y.k.z.u.h.l.y.6.2.1. . .1.t.d.2.K r > + o X X . . X X $ = = = : > < < , , 1 9 t s M B B b f f f f b b g f ",
"e.r.e.2._ E M N f M ! 0.u.h.0.h.u.h.0.#.T W T ! { } B 8 ; = + $ o o $ = > e z K z r 9 e 9 3 < < ; 1 3 9 3 7 9 r 8 y y y y a y g ",
"E 2.t.;.=.E b f b T ! #.s.q.u.d.s.h.h.~ b b m m N b y , - = + = - < s m _ 8.r.t.y.1. ._ E M f 8 7 1 3 3 < < < > > 3 8 0 8 8 0 8 ",
"J.I.t.t.t.7.T f t b B [ q.u.7.y.i.h.6.` b f y f b f 6 , ; ; ; , 9 f M ` ] | ] 1.&.2.} 1.@.2.E T b f 8 7 3 3 > > > < , 1 8 6 1 6 ",
":.%.v x M x b f y t b B X.i.q.9.y.u.6.` B b f f y 8 1 , , , < ; 1 t b N N f f y f f f b T ! ! ! ! T M s 9 7 3 ; 3 < , 1 6 6 6 6 ",
"3 $ . . . . $ > 3 8 t m W s.M.M.t.a.7. .Q B f f 8 1 ; ; - - @ - 9 K @.t.8.2.[ Q b f 6 ; - 9 b T T T M b f s r 8 9 8 9 8 6 8 8 0 ",
".     O .     . X = ; y E 3.I.E.H.M.h.3.] m f 8 6 < - = = o = 8 p 9 7 3 9 r u f f s s 9 > + < z E T m m m b b m m b t 6 q 8 8 8 ",
"  . . # O .   . O + o ; N 9.I.OX}./.n.M.| h 3 6 1 ; = @ o + > ; + X . .       . O X X $ % % o : m ` B b b N m M n N y y y y 8 y ",
"= = & & % # O $ > > @ + b u.E.$X=X}.U.n.] y 3 6 1 - - = + + + @ : $ . .   . . . . .   . . . X o 1 8 6 6 y m b b n h g y y y g y ",
"*.e._ J x x K M x M m E >.G.`.-X*X$XE.t.m 8 6 y 0 8 M N f f b N E U v u > > < 5 > > < < = + = ; 1 1 6 b ! X...X...>.` N y y t y ",
"y.r.*.1. .! ! R Q ! ! ~ 0.I.OX=X*XOXQ.2.m 0 8 g W E | 0.0.| ] ] 2.0.0.] T T W T m b b b n V n b 1 1 b R / ! / ^ >.| / b 8 6 6 6 ",
"#.| Q ! ! ! V C V h q ~ I.}.OX=X$X|.M.| h a y m | i.X.u.h.0.W B N / R T C h q a n ! C ! T h , - 6 V #.0.0.0.! T B T b b f y t f ",
"v./ h g g g 0 6 1 y } (.$X|.|.OXOXU.8.! C V V C ` <.a.h.M.v.h.3.C y 6 6 0 8 0 0 8 1 ; ; ; ; 6 h ..0.1.@.0.0.6.| / T ! ` ! f s s ",
"Q.E.k. .A h b T 2.U.'.+X}.+X$X+XQ.n.] ! C / | 2.X.9.s.h.d.G.I.E.D.D.y.1.E N f y 8 t y b R <.h.M.h.a.>.] [ 7.9.u.7.7.9.7./ b t y ",
"}.}././.`./.`.}.}.OXOXOX+X=X$X}.U.3.! V C ` 4.u.g.i.g.h.h.D.J.N.I.J.J.Q.(.Q.`./.I.J.J.J.I.I.J.J.v.h.0.X.] | <.q.0.7.9.7.| b y r ",
"}.$X`.}.{.}.}.@XOX@X'.$X$X*XOX/.n.<.C C C ~ Z [ ..<...u.v.G.D.U.T.Q.N.!.`.}.(.`./.`.U.E.H.I.h.l.v.k.6.9.3.| / 6.q.y.7.0.X.m 8 t ",
"$X*X$X}.OX|.+X$X$X|.$X$X,X*X}.H.M.7.^ C C n h g g a q g Z u.M.H.!.Q.G./.}.`.`./.'.`.Q.U.(.D.h.s.g.h.u.0.u.w.] | u.7.3.<...M t y ",
"+X-X*X#X@X$X#X$XOX$X$X-X>X-X(.J.v.h.0.<.C h a n V V q 1 1 g ` M.J.E.U.`.'.XX`.XX).}.}.(.Q.J.v.k.i.k.s.q.7.9.| | 2.3.<.<.! m y y ",
"$X-X*X=X$X$X@X|.|.}.OX=X,X=X`.J.G.M.M.a.^ V h C u.7...n 1 - , b [ h.I.E.}.XXXXXXXX}.`./.E.H.M.h.v.g.s.a.u.7.| #.@.#.>.X._ m b b ",
"OX*X@X$X$X@X!.I.N.I.(.=X-X=X/.E.U./.k.>.C V V o.v.k.| ~ y ; - , 8 N | M.J./.I.`.)./.L.E.I.J.h.l.b.l.9.u.a.u.[ X.| | ] | ! m b B ",
"`.`.'.Q./.A.7.R n d.}.=X-X$X|.`./.I.| h g h C ` ~ V g y 8 6 8 0 8 8 f ` d.M.D.D.J.U.G.M.D.b.k.s.h.s.9.9.q.4.3.] { ] ] / Q b b B ",
"U.J.D.v.X.C y 1 m /.$X,X,X>X=X+XU.@.g 0 1 , ; - = - - , 1 y a g y y q g B 1.y.M.k.M.t.l.s.h.h.v.0.y.9.y.2.7.1.@.E ! / _ B b b N ",
"A.M.0.! n 6 - 8 n.OX*X1X1X1X*X[.*.y , = + + + + + @ - ; , 6 0 q q g g q t b ! | 9.0.0.6.u.a.u.q.u.7.>.@.2.,.X. .! E Q / E N N Y ",
"h.u.C h 6 = , e.|.=X*X<X<X<X[.k.b 1 @ + @ = + + + @ @ = ; , ; , 6 q 0 8 6 6 8 B / X./ [ #.0.o.9.3.+./ ] | { L ( E L E _ ] _ E R ",
"s.[ h 6 - - L Z.$X*X*X=X$X/.8.N 6 - + + + + + + + + @ = - - = @ ; , ; - ; ; - , b E ! ~ ] ] ] ` | ] _ ! _ / K L E ( ! ( / / ] T ",
"| Z q , - t ;.}.OXOX`.Q.N.*.f 1 - = + + + + @ @ @ - - ; - - @ @ @ - ; - = = + = : s E >.] | ] / / ) ! / E T K M K { / ( / { ) ! ",
"~ n 0 , , N t.N.t.t.y.8.y.] y , , 6 y 9 ; ; - - - - ; , 3 - - - - : ; ; - = + + + = 9 T #.| / / ) ! ! ~ ! T M M L _ E L { _ ! V ",
"! n 6 ; 0 ! } N b ! ! E m y , = 1 N Q m 8 1 ; ; ; - - ; , 3 - ; ; ; ; ; , < : - + + @ 3 b ) B R / / T / ] ] b z K } E L ' _ B V ",
"R b 6 , y E b 8 t b b t 8 , = , N  ./ Q n y 6 , < ; , , 1 1 ; ; 1 , 1 1 6 9 1 < : @ + = 3 f T W / ) ! ! |  .M f B ! L T K K n n ",
"T b 6 6 y L p 9 6 f f y 8 8 8 _ k.M.6.| ! V g y 6 8 0 g g a q y 0 6 6 q 0 0 8 9 , : + = = 1 m W / ] _ 1.@.*.K M M L K E K E N V ",
"/ m 8 8 y K s 9 9 f b b b M ` <.q.k.s.6.| ! V n h n h n C C V n g 0 0 y y 0 q 8 6 ; = = : ; 8 B / | { 3.e.=.E x x K L L U E N n ",
"` W y 8 f K 9 9 t s y h R | ! ~ / X.! ^ ! ! h n h h q g h n q 0 6 0 1 6 6 1 , 1 1 , - : < 9 1 N / X.] 1.7.2.T M x H x K U _ N V ",
"} _ m 8 m M 7 - ; - ; 8 g g a g h n g a y 0 6 1 , , ; , , , - - - - - = = = @ + @ = ; 6 y b t b [ +.| | 2.] H M H H H K U E M B ",
"/ 7.#.b b E 9 ; - = ; 1 1 1 , 1 1 6 8 8 1 1 , 1 6 6 6 6 1 , - - - ; ; , , 1 , 1 , 6 f ^ ` <.b B [ @.#.2.[ / M K x H K I E M M S ",
"L e.k._ f ! M s s y h h h V A A D F G G G G O.G G O.G m b h h a g g g g g a a y a n 6.a.7.>.B T >.X.| X. .E M M x x J U K K M m ",
"J e.n.d.M M L T T W n C [ <.] | <.7.$.#.2.#.F G G S j m n A a a h g y a g g q h / v.k.u.3.<.m ! >.7.| / ! K z x z x x M K S k m ",
"U U d.v.| M / / / ! C ! 6.| ` #.2.#.$.} *.G b j z t 9 t g t 9 q g y 0 q 0 q g ! d.J.v.2.1.` m / 0.7.` W M M d d z x x z L K K M ",
"I _ %.k.y.W B ] C W ! V m M b x f f t s s s 9 7 < 3 < 3 3 5 7 9 9 t t y t y N u.M.D.y.1.} W b [ .. .W T b f f f z x f M S K ( T ",
"U =.=.2.y.>.M !  .] ~ n 8 0 7 9 7 9 9 9 e 9 7 3 3 > > > < < 3 7 7 9 t y f m @.c.D.k.7.2.2.m m  . ./ T b z f s s z r f K K L _ ( ",
"U -.%.*.2.y.K N 2.2.! V y y 8 8 t f y f f s 9 7 < < : > < 7 7 r r p y f B #.d.D.M.n.2.t.1.M N | ~ ! m f f s r f s d z J U } ( K ",
"U -.=.%.=.=.E M ` X.Z V b y s y b m m M N f s 9 9 7 < 3 9 f f M T T N E  .y.n.n.N.t.t.y.! m / / / Q n f s r s s d z H I %.U K x ",
"U -.=.-.U U z L ! [ ^ ! g y y M ] u.3.<._ T b f s s p M S E Q 2.2.2.1.7.2.c.n.c.t.k.r.t.T T W / E Q M s 9 r z H d H K U I U ( ( ",
"K =.-.=.=.z e u K ..7.^ V b b E u.h.u.7.7.2.2.2.@.%.e.r.t.n.N.N.n.y.8.2.2.y.t.d.y.s.y.*./ ! / / / m f r r s z I J M M K I U +.%.",
"v %.U =.U z 5 > e _ 0.0.| / C 6.h.J.t.8.2.y.7.u.c.N.t.N.D.C.k.N.k.e.} 1.t.d.2.y.y.t.1.*._ ] / ] ! S r r r 9 7 l I M f x K U } e.",
"l I U U U z 2 & > u 2.v.u.<.0.u.D.J.M.n.M.M.A.A.C.N.C.C.`.Z.U.N.M.*.} >.y.7.#.| 2.1.1. .*.1._ _ / M s d z e 9 r x ( M M K U *.r.",
"w H I U K z * % % > x M.n.h.y.A.h.H.J.W.U./.Q./.Q.`./.}.[.}.N.y.8.y.+.2.'  .{ +.} 2.1.2.2.y.*.} E M d l i w w r r M K K K _ %.=.",
"w l J U v u & % & & 5 J U.H.p.p.l.c.U.P.Q././.E.Q./.!./.U.I.n.y.8.y.2. .! Q ] } @.2.y.y.c.n.8.%.( x i z d u u r 7 9 f K E U z e ",
"5 w v v z w # # % & = 9 ;.OXN.p.d.m.y.S.L.R.N.M.k.n.y.f.d.j.8.0.5.2.Q / /  .] @.7.r.e.r.J.Q.r.%.( x 5 z z l u u : > 7 d s 7 4 4 ",
"% * 2 5 i 5 % # # % & < x |.}.M.y.q.H.Y.Q.K.U.G.D.k.s.0.u.,.#.| @.) / ! | [ &.7.7._ 7.n.E.E.N.%.K x w 5 u 7 3 7 & $ = > > < 2 4 ",
"O O # * 4 5 & O # # & > s /.$XN.=./.].OX}.}.`.`.Q./.G.D.h.g.s.0.] / T / ) +.1.5.8.3.z.J.J.(.N.U H i l 5 2 > : 4 % # > 3 3 9 5 i ",
"O O O % * 2 & O O O % : b Q.$X$X*X=X=X=X=X:X:X*X#X#XOXOX_.T.~.L.D.k.( E / ! ] +.2.l.A.L./.(.t.K H e w 4 2 * & & O # < 7 r d f z ",
". . . # % * & # . O $ < +./.oX:X,X<X>X:X:X,X>X<X<X<X*X:X>X-X}.}.}.+X^.x.U L S { f.F.N./.}.Z.U H z w : * & & O O O # & < 9 r r d ",
". . . O # & % # . X # d r.'.$X%X:X>X>X%X&X&X&X&X;X;X&X&X&X&X X X.X X X X X:.U -.B.V.Z.Z.[.:.v c z w * & & # O O # # % * 5 5 w u "
};
