/* XPM */
static char *out[] = {
/* columns rows colors chars-per-pixel */
"64 64 215 2 ",
"   c #2B1608",
".  c #4A2415",
"X  c #5C2C1A",
"o  c #68321E",
"O  c #583F2A",
"+  c #763A24",
"@  c #7E3D26",
"#  c #63432F",
"$  c #6E402D",
"%  c #6A4D37",
"&  c #77523D",
"*  c #7F5D46",
"=  c #814A35",
"-  c #8E4B34",
";  c #96523A",
":  c #865540",
">  c #8C5D46",
",  c #9D5943",
"<  c #955F49",
"1  c #A45E45",
"2  c #89664F",
"3  c #9B644E",
"4  c #916A53",
"5  c #9A6F56",
"6  c #AB644A",
"7  c #A16851",
"8  c #AD6D51",
"9  c #A86D58",
"0  c #B36A51",
"q  c #B76F53",
"w  c #A1765D",
"e  c #A7755C",
"r  c #AE755B",
"t  c #B4715D",
"y  c #B97658",
"u  c #A87B63",
"i  c #AE7D64",
"p  c #BD7564",
"a  c #B27861",
"s  c #B47F64",
"d  c #BB7E63",
"f  c #C1785B",
"g  c #C87E61",
"h  c #C07B6B",
"j  c #AC836B",
"k  c #BE8466",
"l  c #B3876E",
"z  c #BA876A",
"x  c #BF8B6C",
"c  c #B78C72",
"v  c #BC8E72",
"b  c #C38264",
"n  c #CC8566",
"m  c #C78568",
"M  c #C48A6C",
"N  c #CC8C6D",
"B  c #CC8C6E",
"V  c #D18969",
"C  c #D48C6E",
"Z  c #D88F6F",
"A  c #C88973",
"S  c #D38E7E",
"D  c #C39072",
"F  c #C69677",
"G  c #C89172",
"H  c #CC9475",
"J  c #CA997A",
"K  c #CF9C7E",
"L  c #D19071",
"P  c #D09072",
"I  c #D29172",
"U  c #D09273",
"Y  c #D39273",
"T  c #D49374",
"R  c #D59475",
"E  c #DA9472",
"W  c #DD9876",
"Q  c #D79778",
"!  c #D1967C",
"~  c #D89778",
"^  c #D59A7B",
"/  c #D99878",
"(  c #D9997A",
")  c #DB9A7A",
"_  c #DA9A7B",
"`  c #DC9B7B",
"'  c #DB9C7D",
"]  c #DA9D7E",
"[  c #DE9D7D",
"{  c #DC9D7E",
"}  c #DD9D7E",
"|  c #E09E7D",
" . c #E29F7D",
".. c #E2A07F",
"X. c #D89380",
"o. c #D89982",
"O. c #DD9E80",
"+. c #DE9F80",
"@. c #DF9F80",
"#. c #DD9986",
"$. c #D99E87",
"%. c #CFA186",
"&. c #D4A082",
"*. c #DFA081",
"=. c #DCA386",
"-. c #D8A485",
";. c #DCA88A",
":. c #DFAB8E",
">. c #DFAF94",
",. c #E0A081",
"<. c #E3A181",
"1. c #E0A182",
"2. c #E1A283",
"3. c #E3A282",
"4. c #E5A382",
"5. c #E4A383",
"6. c #E5A483",
"7. c #E6A483",
"8. c #E5A484",
"9. c #E6A584",
"0. c #E6A585",
"q. c #E7A685",
"w. c #E7A686",
"e. c #E8A786",
"r. c #E9A887",
"t. c #E0A58A",
"y. c #E3AC8D",
"u. c #E7AD8F",
"i. c #E8A888",
"p. c #E9A888",
"a. c #E9A989",
"s. c #EAA989",
"d. c #EAAA8A",
"f. c #EBAA8A",
"g. c #EBAB8B",
"h. c #EBAC8C",
"j. c #EBAE8F",
"k. c #ECAC8C",
"l. c #ECAD8D",
"z. c #EDAD8D",
"x. c #ECAE8F",
"c. c #EEAF8F",
"v. c #EEAF90",
"b. c #E4B195",
"n. c #E9B193",
"m. c #EDB091",
"M. c #EEB090",
"N. c #EFB090",
"B. c #EDB192",
"V. c #EEB192",
"C. c #EFB192",
"Z. c #EFB293",
"A. c #ECB496",
"S. c #E6B599",
"D. c #EAB79A",
"F. c #EEB899",
"G. c #EEBC9E",
"H. c #F0B293",
"J. c #F0B394",
"K. c #F0B495",
"L. c #F0B496",
"P. c #F1B596",
"I. c #F1B597",
"U. c #F2B596",
"Y. c #F2B698",
"T. c #F2B798",
"R. c #F2B799",
"E. c #F3B899",
"W. c #F2B89A",
"Q. c #F3B89A",
"!. c #F3B99B",
"~. c #F4B99B",
"^. c #F4BA9C",
"/. c #F4BB9C",
"(. c #F4BB9D",
"). c #F5BB9D",
"_. c #F5BC9E",
"`. c #F5BD9E",
"'. c #F5BD9F",
"]. c #F5BE9F",
"[. c #F1BFA1",
"{. c #F5BEA0",
"}. c #F6BEA0",
"|. c #F6BFA1",
" X c #F6C0A2",
".X c #F6C1A2",
"XX c #F6C1A3",
"oX c #F6C2A3",
"OX c #F6C3A4",
"+X c #F7C3A5",
"@X c #F2C4A5",
"#X c #F7C4A5",
"$X c #F7C5A6",
"%X c #F7C6A7",
"&X c #F7C7A8",
"*X c #F7C8A9",
"=X c #F0CBAD",
"-X c #F8C8A9",
";X c #F8C9AA",
":X c #F8CAAB",
">X c #F8CBAC",
",X c #F8CDAE",
"<X c #F9CEAF",
"1X c #F3D1B3",
"2X c #F7D1B2",
"3X c #F0D4B6",
"4X c #F6D4B6",
"5X c #FAD3B4",
"6X c #FAD7B8",
"7X c #F1D8B9",
"8X c #F7D8BA",
"9X c #F5DBBB",
"0X c #FADDBE",
"qX c #F6DDC0",
"wX c #F9E1C3",
/* pixels */
">.V.e.w./ M j j w w J J K :.;.b.>.S.>.b.:.b.b.D.b.D.D.S.S.S.b.A.b.b.u.u.u.A.u.u.t.t.t.y.w.h.w.i.1.t.+.9.+.9.) [ Q ( R ) / Q Y T ",
";.e.z.k.r.Y z s s j F J &.:.:.b.b.>.>.>.>.b.S.S.S.S.S.S.S.S.S.D.m.u.u.u.m.j.j.u.y.t.w.h.u.h.h.a.z.i.w.5.9.3.[ ` ` ` [ ) ` ) ~ Y ",
"D | | 7.3./ b ^ ;.:.:.u.A.[.S.!.[.!.b.D.[. XD.[. XoXD.[.!.}.W.!.L.Y.l.A.R.).Z.Z.m.U.h.J.c.L.l.g.i.a.2.9.w.<.~ ) [ ` Q } ,.) L Y ",
"x V Z E E B / t.A.J.U.Y.}.|. X}.#XoX}.Q.$X X_. X;X-XOXoX$X X}.`.oX).U.L.Y.T.P.Y.L.Z.l.a.c.c.k.i.l.a.q.<.1.| / ' ` } ` | @.~ R C ",
"D Z B d 9 5 9 9 r M t.^.Y. X).|.|.+X}.`.Y.^.^.}.#X$X`.OX!.}.`.}.I.).J.P.J.U.J.P.h.c.l.c.d.d.0.p.w.d.<.<.` [ ` } ) 1.,.` R R C C ",
"F n 7 = $ # O X # $ 3 M =.A.Q.^. X}.|.Q.R.Y.L. X#XoX}.Q.^.Q.^.~.Q.R.L.K.L.U.U.m.g.a.M.g.w.<.8.9.a.r.<.[ [ O.+.{ ,.+.{ / R V V V ",
"D 8 > 3 9 w & # # # $ < a R *.L.}.#XQ.Y.L.U.M. X-X-X!.~.P.Y.L.Y.U.~.m.U.Y.^.Z.Z.l.Z.a.r.d.r.<.p.l.c. .+.+.<.( +.*.0./ R I I m n ",
"d y M =.S.A.>.F j w 5 7 r b U 5.Q.`.Y.P.Z.C.Q.}.-X}.J.A.J.J.R.^. X`.Y.}.`.^.Y.L.Z.m.p.5.i.p.p.p.c.d.<.+.5.1.+.+.9.+./ R I C g b ",
"J w.u.J.U.Q.^.).b.y.U B b B U ] w.R.L.U.k.J.L. X!.R.l.N.d.Z.Y. X}.`.).oX`.).L.U.h.a.w.i.w.k.k.c.p.p.4.*.{ ,.+.5.+.+._ R V n f b ",
"t.w.h.l.N.J.U.A.u.i.a.,.Q R ' Q 2.c.J.N.J.J.Q.R.H.l.u.w.d.l.U.~.`.^. X`.`.Y.A.u.=.^ ] 1.p.9.w.<.9.[ { { ,.2.2.2.*.{ ` Y V n f d ",
";.y.+.*.` *.{ *.{ *.^ *.+.1.Q ) <.l.h.m.H.L.n.C.Z.C.[ ,.9.k.k.Y.Y.L.=.^ H D d r 9 r 9 r b B b M P P N Q +.+._ ,.+.,.U I V n y d ",
";.,.Q y m *.t.y.u.] B m B U ` { 9.a.l.l.J.N.c.h.H.w.Y Z _ [ ,.9.t.B r < & + o X O X . X = > < 3 r d d m B B U R ] Q Y B m f d f ",
";.,.b y +.A.m.A.i.w.{ P d d m { 5.k.c.z.z.k.h.l.f.<.n m m B B Y b 8 ; = o O . . . . . . X # $ = : < 3 9 7 9 8 d b B B B k d f f ",
"u.,.d n h.t.Q G G R _ Z n f y n ` a.l.a.d.d.d.d.d.<.b d d d m y 8 ; = + $ o o o $ + & > < < > = : > > > > > < < 7 7 6 9 r r q q ",
"y.w.d U G 5 & $ $ > < t b f q f B ` 9.k.c.c.4.w.i.<.m d d d y 8 8 , - = = = - 3 y A B ] &.{ M d r r < < ; < ; < 3 3 : : > 7 1 6 ",
";.=.d a $ . . . * * O # : 6 0 8 b B ` p.U.N.w.w.i._ B b k y 8 1 1 ; - - , 1 8 y B U B B R ( Y U R U B M k r 8 7 < < : : : - , 1 ",
"K 1.k :     . # 4 * O O O + = , 6 b Z w.J.R.c.N.9.[ P M y y 6 < - - - - = = 3 a m P m b y t 8 r r d A U m A M d 8 7 < 3 > ; 1 8 ",
"&.b 1 = $ # $ $ # . . . O # $ @ = 1 R ,.`.oX`.L.Z.w.Q d 8 6 1 ; - = $ o = 8 B U ( ( ( S P A d 8 ; = - 8 b A A k a y y 8 y b t 0 ",
"&.M 1 t Q k s a 3 & O O # & : + + @ V a. X5XoX X^.J.R t 1 0 , - @ + . $ 7 7 : # & $ O # & > < 3 < > o o 5 M M B B m y b B n y g ",
"=.i.t.+.d.h.a.w.Q d d a r b r 9 t m 9.U.#X6X6X;XoXk.N 6 1 8 , - ; + o + + + $ . .               . . . . X 7 B B m y d d d f y y ",
":.J.l.a. .g.a.p.<.5.R R V V n C / W Z.}.#X6X6X<X`.u.n 8 1 0 0 8 m B b b b m k D w & # O X O . . . . . . . @ 1 1 1 y m P R / N n ",
";.k.U.Z.l.[ _ Z C C V V C V g f f R `.oX;X5X5X<X`.w.n 0 6 y B I Q <.9.[ ` / { +.{ U b d k m a 8 8 8 6 9 8 8 1 6 d B [ ` w.w.B y ",
"t.N.Z.~.`././ g f g y f q 8 1 t t.#X$X&X<X5X;XoXL.,.g f f n V ,.9.d.<.r._ B b Z R Z f b g f f C R / I V 0 ; ; B ..[ m b g d 8 8 ",
"y.l.U.~.-X-X'.m.+.g 8 8 t b +.!.<X:X;X%X<X<X$X^.i.R n V Z C Z _ s.s.w.k.Z.w.m 6 , 1 6 6 8 8 0 q 0 6 ; = ; q N R +.5.[ P y 8 d m ",
"t.Z.U.`.oX<X#X:X`.!.L.R.^.OX;X<X-X>X;X5X6X<X-XR.` V n C / <.9.p.9.k.i.c.N.~.J.P.+.B y 8 1 1 ; ; ; 1 8 m ` a.r.<.I Y [ ,.` / _ B ",
"i.N.R. X-X<X5X<X;XoX X#X>X;X>X$X,X-X;X<X6X;XoXk._ V n C [ 9.k.d.d.r.k.k.U.~.^.~.^.`.).`.`.Y.A.g.N.Z.Z.Z.N.c.f.0.[ N P _ ,.5.8.B ",
"j.U.Y.#X>X8X5X<X;XoX`.-X<X<X$X-X<X5X;X6X5X;XU.d.` Z n V V E n V V E W d.U.~.L.~.~. X^.#X-X:X^. X`.`.c.l.a.l.w.w.9. .m R <.d.2.U ",
"v.Q.}.oX<X8X8X<X<X-X-X&X5X<X;X;X<X5X6XqX6XoXU.k.r. .R n g f f f 0 1 8 n p.U.^.~.`.}.`.#X+X;XoX+X X^.Z.g.g.w.w.w.a.4. .B [ 4.5.U ",
"w.R.`.-X>X8X8X6X<X<X<X<X<X<X;X&X-X<X8XwX<X`.Z.Z.g.N.9.Z f f V W C f , , y [ c.~.Q.`.#X-X#X>X$X;X}.`.~.N.w.r.9.a.9.w. ._ U ,.+.Q ",
"l.U.}.#X;X<X5X:X<X:X>X;X#X}.Q.Y.$X<X8X6X;X`.Y.U.~.Z.w.Z g g  .p.p.[ f ; - 1 m { Z.~. X#X$X-XoX X X~.P.Z.c.c.k.s.k.i.9. .Q _ ,./ ",
"w.R.L.^.|.-X}.}. X}.J.c.i./ V l.-X5X6X6X<X$XR.`.`.k.n g g E  .p.4.W f 1 ; ; ; q I g.j.^.`.}.J.R.^.H.d.f.f.c.w.f.l.z.,.<.+./ Q Q ",
"p.Z.U.U.).}.T.T.N.<.R n 0 6 R !.<X5X8X4X6X;XoX`.L.B 8 6 0 y y 0 8 6 1 1 q q 6 1 0 m { p.U.U.U.c.N.c.g.a.N.c.8.p.l.w.<.,.<./ ^ B ",
"} g.N.~.Q.).l.w./ n 8 ; ; m !.;X>XqXwXwXqX6X$XJ.m 6 - @ + + + + @ ; ; 8 q y q y 0 8 f R +.a.d.l.r.r.9.a.r.N.d.5.<...` +._ { ( ^ ",
"1.4.d.l.U.c.9.Z g 6 - ; B !.;X<X6XqXwXwX0X<X}.U 6 = + + @ @ + $ = - = - 1 6 8 q y q 6 8 m R  .*.4. . .<.9.d.r.<.+.Q ( ( ( ! ! B ",
"<.<.<.s.z.<.V f 6 - - m R.>X<X8X8X6X<X:X$X`.^ t ; @ + + + + X o + @ @ = - ; ; 1 6 6 ; ; 1 y B R Q R I ( ( 2.Q ] R [ U U Q _ U ! ",
"| '  .,.q./ g 8 ; - y t.#X>X;X<X<X;X XA.t.P 8 ; = + + + + + + + @ @ = = @ + @ - - - - = : = 3 m R Q R P / R R U Q Y U M U Q R U ",
"T / ) ,./ C y 1 - 6 U m.!.D.n.A.j.j.m.Z._ y ; ; - , - = = = = = = - ; - @ @ @ = : - = @ + + @ ; d { { _ U R P R P R G M B ] ( ` ",
"R Q ` ` / n 0 , ; b Q 5.{ d b U ] _ / Q m 9 ; 6 m P r , , ; ; - - ; < < - : : - ; ; : = @ + $ + : t Y _ R R I Y R / R d H ( ( Y ",
"Y _ R / R g 1 , 1 U A B d r 8 m B m 8 8 ; @ - y P / b y 8 , ; - - - - ; ; ; - ; , 1 ; < < < @ $ @ : 6 P R Q B Y / +.U k A ( P U ",
"M R Q U R f 8 1 8 B M M a 9 8 y b y 6 9 , 1 P i.w.{ Z n g 0 1 , , 1 1 1 6 1 1 1 1 6 6 6 9 1 - @ + @ = 6 B Y Y Q ,.+.^ k A U U U ",
"b U Q / I f 8 6 3 b M z 9 9 r d d m t y d U w.Q.N.w.W E n g y q 8 y g g f f y q 6 0 q 6 1 6 < - + @ = - y R Q  .+.1.&.D M H R V ",
"M P _ [ | d t t 6 b b r 9 9 r d b n V Y [  . .<.p.9. .E C C n n g f f g n g y 0 6 6 6 1 1 1 3 > = @ : ; 6 Y _ *.t.t.=.D D H U V ",
"M H R 9.5.U 8 d y A r ; , < - ; 6 f n V C I V E E Z g n g f 0 6 6 8 1 6 6 , - - ; ; = @ @ = + @ = < 1 8 6 P / 5.5.5.J G G ! G C ",
"k G ^ i.N.5.d q A k y 1 ; = @ - 1 6 1 1 8 y f f f q 8 8 1 , ; - ; ; ; - - = @ @ - = = = - - = - 8 m B m t Y [ ,.*.*.H D F J H V ",
"s G &.j.j.m.R y b U b d r 8 y g y g f f y f y f q f h m h m h m h h y y q q 0 0 0 q q y 0 8 0 f R 9.<.` y ~ [ ,._ ^ G G D J G G ",
"z x &.u.m.j.u.m y R P P P P V g T / ` { ` X.#.<.#.w.*.#.o.P B m h h h h h f y y p p q 0 0 y m ,.N.<.[ B m / +.1.{ P D M F J G A ",
"J K H t.N.R.l.t.b H U H R Q V V E 2.X.Q _ X.S #.+.*.X.S m d r y r 8 0 q 8 0 0 q q t 0 0 y P 5.L.l.<.R b P 9.[ _ U D d k D G b M ",
"J &.! &.j.L.Z.m.R d Q Y Z R R V n B g d B m b h h d a a 9 7 3 < < 3 < < 3 7 8 8 t t 8 q C i.J.A.u.[ I y ] 5.{ P M s s d x H M m ",
"F -.&.$.=.j.U.B.w.b m +.R Q R I d t 8 6 6 8 9 9 7 9 9 8 9 7 < < > < < < < 7 9 r 8 y y m +.Y.A.u.*.{ m d Q <.R M s s s M z H A U ",
"K &.-.&.=.t.j.j.j.U d { 9.../ V b y t 8 8 8 r t d r r r r 9 3 < < > < < 9 9 r 8 t y m ] A.Q.B.w.w.` d m ` Y m s r a s s G A R Q ",
"&.;.%.-.=.-.=.t.+.,.d B d.4.R C g y q y y M d m m m a a r 9 3 3 < < 7 r d M m b m Y Q j.U.R.a.n.u./ y R _ R d a a a 9 M G ! U H ",
"&.-.-.&.-.^ J z M =.B m a.4./ V g y y f / 5.Q U / R m k d r 9 9 r r d m / ` / R _ [ i.N.A.l.c.l.h.m b P Q m a r s a d x J &.G b ",
"J ;.-.;.&.K d 5 5 G G U 4.d.[ W n f b R w.Z.a.g.w.w.{ / U M k H R { 5.h.a.h.w.h.<.<.u.m.i.u.u.m.{ b B R P d r k M x A U J J H ^ ",
"F -.;.;.-.D e > * 2 r R k.k. .W E V R 4.Z.Z.g.9.1.p.d.h.u.u.u.u.m.J.A.A.A.t.t.+.t.w.h.u.u.t.u.y./ B Q R b 9 a D J G D F H K ^ ! ",
"v &.&.&.K D w * & * > s u.L.<.4.0. . .Z.Y.Y.m.j.g.j.u.B.B.J.u.D.Q.R.A.A.j.=.( *.i.w.5.0.i.u.t.u.{ / R Y d r 7 9 G H s v J &.O.=.",
"l J K K K x 4 & & * * 4 &. XA.w.c.f.4.l.Q.T.Q.R.^.Y.L.Y.[.Q.F.#X-X#XA.j.j.1.+.+.5.5.+.,.i.y.u.t.t.( ( M d l 7 7 s J v D H ^ =.y.",
"w D J &.F s 2 % & & & 5 G oX`.c.p.k.9.k.R.`. X}.[.XX!.OX X#X$XOX X!.&.t.h.i.1.*.( *.*.5.w.Z.J.u.=.&.J k s j e e r x G J D K ^ t.",
"w z J K D r & % % & * < j D.;XJ.w.d.g.g.Q.^.Q.`.`.!.R.!.oX$X[.A.A.a.5.i.u.0.+.[ ( [ O.t.j.L.K.j.;.&.G x l l u e 9 9 s G J J F l ",
"5 w c v z w % # % & % > 9 b.:X`.c.j.5.d.B.^.Y.~.Q.E.i.d.x.m.2.i.p.h.` } [ ,./ +.{ 5.+.u.Y.[.L.m.=.&.s s D c u u < > 7 s x r < 4 ",
"% & 2 5 j 5 & O # % & > 7 :.<X;XL.t.5.W.oX`.Q.!.^.J.j.u.N.w.,.+.6.O./ R ` Q ~ } u.i.R u.Y.Q._.A.&.D s 4 j w 5 w 4 % = > < < < > ",
"O O # * 4 4 * O # # % > 3 y.<X<X=.u.{.:X:X>X#X>X{..X].Y.L.m.g.g.5.{ P P P { ) 2.5.d.2.Y.I.(.!.u.F s j w 2 2 : 4 & # & < < 5 3 r ",
"O O O % & 2 * O O O % : a Y.;X2X4X8X4X2X5X8XwXqX5X<X2X;X$X[.}._.~.j.( H U ! Q +.2.d.Z.Y. XXXA.J D w w 4 > : & & # O > 7 a s s z ",
". . . # % * & # . O $ < O.{.*X8XqXwX9X8X8XqX9XwXwXwX3X8X9X6X$X&X%X>X[.n.&.H A ' j.I.V.[.$X[.^ D x w * * & & O O O # & < 9 r r i ",
". . . O # & % # . X # s y.OX1X1X8X9X9X1X3X3X3X3X7X7X3X3X3X3X=X=X=X=X=X=X=X>.K ;.S.G.G.[.@X>.v c l w * & & # O O # # % * 5 3 w u "
};
