/* XPM */
static char *out[] = {
/* columns rows colors chars-per-pixel */
"64 64 216 2 ",
"   c #2B1608",
".  c #4A2415",
"X  c #5C2C1A",
"o  c #68321E",
"O  c #583F2A",
"+  c #763A24",
"@  c #7E3D26",
"#  c #63432F",
"$  c #6E402D",
"%  c #6A4D37",
"&  c #77523D",
"*  c #7F5D46",
"=  c #814A35",
"-  c #8E4B34",
";  c #96523A",
":  c #865540",
">  c #8C5D46",
",  c #9D5943",
"<  c #955F49",
"1  c #A45E45",
"2  c #89664F",
"3  c #9B644E",
"4  c #916A53",
"5  c #9A6F56",
"6  c #AB644A",
"7  c #A16851",
"8  c #AD6D51",
"9  c #A86D58",
"0  c #B36A51",
"q  c #B76F53",
"w  c #A1765D",
"e  c #A7755C",
"r  c #AE755B",
"t  c #B4715D",
"y  c #B97658",
"u  c #A87B63",
"i  c #AE7D64",
"p  c #BD7564",
"a  c #B27861",
"s  c #B47F64",
"d  c #BB7E63",
"f  c #C1785B",
"g  c #C87E61",
"h  c #C07B6B",
"j  c #AC836B",
"k  c #BE8466",
"l  c #B3876E",
"z  c #BA876A",
"x  c #BF8B6C",
"c  c #B78C72",
"v  c #BC8E72",
"b  c #C38264",
"n  c #CC8566",
"m  c #C78568",
"M  c #C4816F",
"N  c #C48A6C",
"B  c #CC8C6D",
"V  c #CC8C6E",
"C  c #D18969",
"Z  c #D48C6E",
"A  c #D88F6F",
"S  c #C98270",
"D  c #C88973",
"F  c #C39072",
"G  c #C69677",
"H  c #C89172",
"J  c #CC9475",
"K  c #CA997A",
"L  c #CF9C7E",
"P  c #D19071",
"I  c #D09072",
"U  c #D29172",
"Y  c #D09273",
"T  c #D39273",
"R  c #D49374",
"E  c #D59475",
"W  c #DA9472",
"Q  c #DD9876",
"!  c #D79778",
"~  c #D1967C",
"^  c #D89778",
"/  c #D59A7B",
"(  c #D99878",
")  c #D9997A",
"_  c #DB9A7A",
"`  c #DA9A7B",
"'  c #DC9B7B",
"]  c #DB9C7D",
"[  c #DA9D7E",
"{  c #DE9D7D",
"}  c #DC9D7E",
"|  c #DD9D7E",
" . c #E09E7D",
".. c #E29F7D",
"X. c #E2A07F",
"o. c #D89380",
"O. c #DD9E80",
"+. c #DE9F80",
"@. c #DF9F80",
"#. c #DD9986",
"$. c #CFA186",
"%. c #D4A082",
"&. c #DFA081",
"*. c #DCA386",
"=. c #D8A485",
"-. c #DCA88A",
";. c #DFAB8E",
":. c #DFAF94",
">. c #E0A081",
",. c #E2A181",
"<. c #E3A181",
"1. c #E0A182",
"2. c #E1A283",
"3. c #E3A282",
"4. c #E5A382",
"5. c #E4A383",
"6. c #E5A484",
"7. c #E6A584",
"8. c #E6A585",
"9. c #E7A685",
"0. c #E7A686",
"q. c #E8A786",
"w. c #E8A787",
"e. c #E9A887",
"r. c #E0A58A",
"t. c #E3AC8D",
"y. c #E7AD8F",
"u. c #E8A888",
"i. c #E9A888",
"p. c #E9A989",
"a. c #EAA989",
"s. c #EAAA8A",
"d. c #EBAA8A",
"f. c #EBAB8B",
"g. c #EBAC8C",
"h. c #EBAE8F",
"j. c #ECAC8C",
"k. c #ECAD8D",
"l. c #EDAD8D",
"z. c #ECAE8F",
"x. c #EEAF8F",
"c. c #EDAF90",
"v. c #EEAF90",
"b. c #E4B195",
"n. c #E9B193",
"m. c #EDB091",
"M. c #EFB090",
"N. c #EEB091",
"B. c #EDB192",
"V. c #EEB192",
"C. c #EFB192",
"Z. c #EFB293",
"A. c #ECB496",
"S. c #E6B599",
"D. c #EAB79A",
"F. c #EEBC9E",
"G. c #F0B293",
"H. c #F0B394",
"J. c #F0B495",
"K. c #F1B495",
"L. c #F0B496",
"P. c #F1B596",
"I. c #F1B597",
"U. c #F2B596",
"Y. c #F2B698",
"T. c #F2B798",
"R. c #F2B799",
"E. c #F2B89A",
"W. c #F3B89A",
"Q. c #F3B99A",
"!. c #F3B99B",
"~. c #F4B99B",
"^. c #F4BA9C",
"/. c #F4BB9C",
"(. c #F4BB9D",
"). c #F5BB9D",
"_. c #F5BC9E",
"`. c #F5BD9E",
"'. c #F1BFA1",
"]. c #F5BEA0",
"[. c #F6BEA0",
"{. c #F6BFA0",
"}. c #F6BFA1",
"|. c #F6C0A2",
" X c #F6C1A2",
".X c #F6C1A3",
"XX c #F6C2A3",
"oX c #F6C3A4",
"OX c #F7C3A5",
"+X c #F2C4A5",
"@X c #F7C4A5",
"#X c #F7C5A6",
"$X c #F7C6A7",
"%X c #F7C7A8",
"&X c #F7C8A9",
"*X c #F0CBAD",
"=X c #F8C8A9",
"-X c #F8C9AA",
";X c #F8CAAB",
":X c #F8CBAC",
">X c #F8CCAD",
",X c #F8CDAE",
"<X c #F9CEAF",
"1X c #F3D1B3",
"2X c #F7D1B2",
"3X c #F0D4B6",
"4X c #F6D4B6",
"5X c #FAD3B4",
"6X c #FAD7B8",
"7X c #F1D8B9",
"8X c #F7D8BA",
"9X c #F5DBBB",
"0X c #FADDBE",
"qX c #F6DDC0",
"wX c #F9E1C3",
"eX c #FBE5C7",
/* pixels */
":.V.5.,.( N i e w j K =.:.:.:.y.:.S.:.b.;.b.b.D.b.b.D.F.S.S.n.b.y.y.;.y.8.y.8.y.r.r.1.1.1.2.*.5.^ ` ^ { ) ] ! ( P T P R P ! R R ",
"-.d.w.6.` H x x J ~ =.;.n.S.b.b.b.:.b.b.S.S.S.S.S.S.S.D.F.D.V.h.n.y.y.y.p.p.p.h.p.p.0.6.j.g.0.1.{ ] +.&.6.3.{ ' E P P P R T R T ",
"F { T _ s.h.p.N.Z.J.D.Q.].}.S.!.F.OXD.|.OX#X(.'.F.|.D.|.|.].Z.Y.I.Y.y.A.V.K.p.V.m.N.w.u.v.j.6.5...{ ! { &.<.{ ( T T B V Z R C Z ",
"x D N D ` 2.p.V.W.W.I.Y.[.}.!.Y._.!.[.|.$X|._._.|.].!.Q.].Q.R.I.W.I.c.L.W.N.h.h.J.a.q.s.x.w.5.` ..' ) ( ,. .{ ] _ E C B Z C C n ",
"> : = : > 5 H y.V.Y.I.~.Y.{.).Q.I.~.~.#X].|.^.[.~.{._._.J.Q.R.~.I.~.H.P.k.z.f.N.w.w.5.u.5.s.` { _ ] ` ] ' 1.' | ! P B Z C C C Z ",
"$ # O X O # & u ~ ;.I.R.!.~._.V.I.~.|.|.|. XY.R.~./.{.W.W.Z.I.K.W.R.L.J.k.f.f.a.f.5.u.9.w.5.O.` { ` ` { { O.` P V P B C C C C C ",
"z G w & & & & > 9 H 1.I.~._.J.I.Z.~.R.}.{. XV.Z.I._.Y.~.P.~.c.Y.Q.~.N.U.V.x.5.w.w.a.4.a.s.7.` { O.1.^ +.1.,.) A V P m n n C m n ",
"r.p.S.=.H s e 7 a N ~ 8.Q.R.K.N.C.C.!._.|.Q.k.h.Z.Z.Y.~.`./.R.!.].R.Y.Z.Z.c.w.w.s.w.u.a.l.u.+.+.O.] ] O.2.` _ V V n g g n n g b ",
"2.v.Z.J.y.8.%.Y m D Y &.k.Y.Z.Z.c.c.Q.`.R.I.h.N.p.c.Y.}.}.#XOX|.]._.J.Y.V.c.a.s.7.p.j.k.0.j.5.2.] O.` &.} &.^ A n g g g g g f b ",
"q.2.p.k.h.p.8.+.! P P Y u.G.K.C.C.c.K.A.H.c.p.p.u.s.Y.W.|.{. X|.R.V.y.y.2.O.O.2.8.6.6.6.0.6.q.2.{ { ] ] 2.` _ Z n n d d f f f f ",
"E ) ! O.6.&.! ` O.` T ` 7.G.k.C.C.G.l.N.Z.k.+.,.<.u.u.I.!.V.O.H x d u 9 7 r 9 y N N b m Y O.E _ ] O.! O.+.&.E P m b f d d b y p ",
"D 1.2.2.5.] U b I V ~ ) 8.k.h.x.C.N.k.k.Z.,.A ! ! _ &.0.1.m 9 : @ $ X X O O X o = > < 7 a b b V I V R E ` ) ! V b d d d b b d f ",
"&.p.p.k.u.w.( V b y n ` ,.c.x.v.a.j.v.l.l.{ m C m I P ! d 7 > @ + o . . . . . . X $ + : < 3 7 9 7 6 r b d N D B b d p b y f y f ",
"8.2./ Y / ) ! Q n y p n ( >.s.j.k.u.k.a.s.{ b d b b b d 8 ; = @ + o o $ @ @ = > 3 3 > : > > : < < < 3 , 3 7 6 9 r y t q q q q q ",
"Y r > : 3 7 a b m f q y D R 1.j.N.V.7.u.w.{ m b d b y t 6 ; - - - > ; 6 d H Y O.1.O.N d a r < ; - ; ; < < < : > > 3 , 6 6 0 1 6 ",
"& O O % 5 w > > , 7 6 0 b C ` s.R.C.s.u.a.` Y b b d 8 1 1 , ; ; , 1 6 d Y Y ~ T ` ` ! ! E Y D k a 9 7 , 3 < : : > - ; , 1 1 1 1 ",
". . . * j j & % $ = = ; 1 m E a.Y.W.C.c.s.8.) D y t 1 , - ; - - = - 1 d D Y m b y t 8 t y b I ! N m d d 9 9 3 < > ; , 1 6 8 6 8 ",
"$ X $ # O . . . . . o $ @ 1 E 7.].#X(.R.R.k.! d 8 6 1 ; - - + o - r D ~ *.u.u.&.T B b 8 , - - 8 m m N k b d y 9 8 y d 8 0 0 q 0 ",
"%.d , > = $ . . . $ @ + @ ; ( j.].5X$X X|.R.P 0 1 1 ; - = @ X + 7 7 : = > 3 > > 3 9 7 7 7 < $ o 3 z b N B V b d b m t y g g f b ",
"0.w.r.` F 9 3 7 9 a r 8 k ! c.Y.-X5X2X%X].y.n 6 6 8 ; ; , = + + @ + $ . .         . . . . . . . X < N V I d y d h b p d d p f y ",
"4.w.7.&.` O.! T B V C Q Z Q G.}.&X8X5X:XR.2.g 6 1 y q d I T D V D I x s w & O O . . . . . . . . . @ 1 1 , 6 y m V I m m d b g g ",
"K.5.Q T P C P C Z n n f f ,.|.OX<X2X<XOXY.+.b 8 0 g ! ( { 5.9.+.O.] { { [ V b a s a r 7 7 3 3 , 6 8 , 1 y P  .4.5.9.5.P d y q y ",
"}.}.{ B d d y y q 6 6 B A.%XXX#X<X2X]._.s.` g b n C C 5.w.a.4.a.<.I b C A Z g f f g f C C T V C y , - d ` P m V Z ! m y 6 6 8 0 ",
"%X#XOX~.V.! m b V / n.XX:X;XOX$X<X;X|.N.&.C n C Q E Q ..k.l.u.j.R.a.I 8 1 1 1 6 0 0 0 0 q 6 , - ; 6 n T ,.<.>.R n t 8 y y b d d ",
"OX:X;X:XXXOX_.}._.#XOX;X%X>X;X5X<X:X_.k.Q C C Q Q 5.w.a.a.l.d.c.I.W.Y.Y.p.` B y 6 1 ; ; ; 1 8 m Q q.7.<.' ) ` <._ B B ( b d a a ",
"-X<X<X:X=XOXOX#X-X-X-XOX;X-X2X2X,XOXY.7.! C C A R { w.a.l.l.c.G.v.Z.R.R.`.|.OX|.].I.c.h.Z.I.Y.c.v.d.a.q.5.T P Q 5.@.<.>.B y a r ",
"-X<X<X<X>X;XOX:X2X<XXX=X<X5X5X5X:X].k.5.Q ( C C n g f g n E { x.C._.V.!.!.OX`.#XOXOX^.].].}.Z.N.z.x.5.7.p.7.V B +.q. .6.T d a y ",
"<X5X5X2X<X<X-X-X2X<X$X%X<X8X8X8X:XR.k.s.a.<.E g f f f f q 6 6 n 8.K.I.!./.|.OXOX=X$X{.|.OX|.R.C.C.a.9.q.f.0...T ` ,. .,.( b d d ",
"OX8X8X5X<X2X;X>X>X<X%X-X$X<X8X0XOX_.K.C.j.v...C f n Q ..R g , , 8 E j.W.Q.].OX;X$X:X#XOX].{.R.Z.s.d.q.d.0.w.7.4.E ....<.T m b b ",
"#X;X<X<X:X-X=X|.].!.V.Y.-X2X8X2X#X(.Y.Y.I.j.Q n g Z a.a.u...f - - , b +.x.R.}.#X;X%X$X}.}.`.Y.I.v.j.d.a.d.w.5.4...` @. .! n m m ",
"{.{.].{._.Y.j.8.Q n P !.-X5X5X2X-X#X~.{.J.( f g n ....,.Q A f 1 ; , ; 0 P q.f.R.{.OXW.W._.[.c.N.v.G.s.d.d.x...6.4...^ { ` V b B ",
"/./.Y.G.j.Q n q 1 6 w.|.<X8XwX8X5X=X}.N.! y 6 6 0 0 6 1 6 1 , 1 y y 0 6 q m Q 5.K.I.K.K.Y.U.j.x.M.v.f.u.s.7.7.,.6.@._ ! _ V D V ",
"K.I.q.,.Z f 1 = , O.}.:X2XwXwXeX8X:XZ.T 8 , = + o + o + = ; 1 0 q y q f q q d E _ u.j.C.j.d.s.k.e.k.s.a.5.0.4.5.` X.T _ T V V I ",
"C.z.{ C p , = 1 O.].<X<X5X0XwX8X<X!.[ 8 ; + o + @ + + + = - - ; , 1 6 0 y y 8 0 b E ' 5.9.7.7.&.4.u.w.5.1.<.1.2.+.! ) Y T V P V ",
"0...n f 1 - , ! (.<X2X2X8X8X&X].D.1.y ; = + + + o + o + @ = = - - - - 6 0 0 6 1 1 d B ! ` { E _ { ,.] ( O.O.! ! E / Y Y / ` Y P ",
" .E f 6 ; ; b y.&X:X-X%XXX].R.y.V 8 ; = + + + + + + + + = = - - = + @ - ; ; - - - - 7 N / ! R R ! ! R E _ ^ E H H ! Y Y ^ ! T P ",
"( Z y 1 - 8 ( V.!.y.;.u.r.u.n.u.I 6 ; , 6 6 ; - = - = = - - , - + @ = - - - - @ + + @ < m +.' ( R R P E T ~ H N x / Y / ) [ I Z ",
"' D 8 , , b ! u./ d b E ! V B b 8 - - y E V 8 , , ; - - ; ; , > - > - = ; ; : = + + + $ ; b E ' _ R T T E R P N x J Y / ] ~ C C ",
"' D 6 1 6 Y B Y d t t m m y 1 , - - 8 I ( ( g y 8 1 ; ; - ; - ; ; , - ; , , ; < > < @ + @ - 0 P ! ! C E E [ ~ N x / Y ! ~ Y B C ",
"_ n 0 6 6 H H N t 6 8 d m y 6 6 1 V k.N.f...R n p 0 1 , 1 6 6 6 6 1 1 1 1 6 6 6 6 3 - @ + @ - 8 V P P P ` O.%.H k H I Y Y Y n n ",
"R V 0 t 1 H H z 9 7 y m m g h m V &.k.K.c.q...A n f q 0 y g n g f p q 0 0 y 0 8 6 6 , : + + = ; y V P ! O.2.*.J k F H ~ Y J n C ",
"` E y 0 y N D a r 7 y y n C Q { Q ' ) <.w.7...E Z C n g n n n n n g y q q q q 6 6 6 1 > - = - ; 6 V ( O.8.8.r.J x x J J Y U C C ",
"[ >.n 0 b Y d , ; ; = ; 0 g g n n C C P A Z f g f y 6 0 0 q 0 0 6 , ; ; 1 1 - - - - = - - , 7 8 6 m E ' 8.8.%.J x F F ~ Y ~ n Z ",
"/ s.2.b y ~ a 7 - @ @ - 1 1 1 6 0 q q y q 0 6 1 1 , - - , , ; ; - = = = - = = @ @ = = - 6 m V I y B { { 6.&.{ F x x G H / V B B ",
"H y.z.` y Y N d r 0 t d f g g g g S M h h S h S S S S S M M y y 0 6 0 q 0 q q 0 0 6 1 y E 7.,...d T +.,.+.! ~ H x N J %.H N m H ",
"x %.h.y.N N Y I P V I n A Q { &.+.O.8.1.8.r.&.O.#.o.E D D m D S M p p f y f f q q y n ,.c.7.,.E n E .. .{ ( H x N x J K G N H D ",
"K L p.V.2.H H E ! ! Z C A ,.( ] O.2.o.+.O.2.o.Y D D h p 8 p y 8 0 q 0 q y y 0 q p Z ,.I.Z.7.` n C ,. .` ` Y d x x N x F F H b N ",
"K %.&.c.N./ m ` ( T E T n C N b I V M h M M d r 9 7 7 < 3 7 3 3 7 8 8 8 r 0 8 8 V 5.Z.Z.p.1.] d I ,.2.` ~ z d s s x z z H H N m ",
"G =.%.8.y.p.N D _ _ E W f y 8 7 7 6 7 9 9 9 7 9 3 < < < > < > < < 7 7 8 t d y m ` G.V.y.2.8.( d P { ' ! b d a s a x s H F J J Y ",
"L %.=.%.p.c.[ b +.{ { E n d y 8 6 6 8 9 a r a 9 7 < < > < > < 3 7 9 8 y r a N ! j.h.V.8.s.u.I d E ! T B s s r s s s z H J D E / ",
"%.-.$.=.*.u.r.b E 5.! T n d t y y y d d b N d s 9 9 < < < 3 3 r d b d b V V ~ p.V.J.y.z.h.j.b n ( ( V b s a 9 a a s N J H ~ Y J ",
"%.=.=.%.=.*.%.H V &.>.' Z f y y m ` ( T ! T N b s r 9 7 r a d N T ` O.^ &._ 1.h.I.v.p.p.V.&.d V ( ! V d a r a s z z G H %.%.H b ",
"K -.=.-.%.K d G J ` 9.4.A g f b T c.z.x.0.5...^ V H D H Y [ *.k.s.h.p.g.6.1.2.y.y.y.f.m.u./ m P R ! V s 8 a x F d F J K K K J / ",
"G =.-.-.=.x e w z / l.a.Q C n Z a.Z.N.k.8.1.,.6.f.h.s.y.S.V.J.J.I.c.y.[ &.1.u.u.y.0.g.y.y./ I E ) T b r 9 r x J H H F G J L / ~ ",
"v %.%.%.L z 5 2 3 s r.G.w.<.{ 5.j.Y.V.Z.N.h.2.h.N.I.y.B.B.|.S.A.R.V.O.O.1.8.,.8.r.u.2.8.u.=.~ ` } ! a r r e 7 d ~ F s v K %.O.*.",
"l K L L L z 4 & : 2 x V.Y.u.w.q.u.N.R.K.Q.T.W.J.!.Q.R.I.'.:XXXF.(.V.,.O.2.1.+.+.5.2.2.8.u.2.*.[ *.Y d s x e 7 9 x Y v F H / *.t.",
"w F K %.G s * % & & 5 *.W.C.u.x.i.j.G./.].}.|.[.'..X!.oX#X@X|.D./ r.u.r.2.1.` O.] &.8.p.y.N.8.*./ H s s j u 7 e r H H J F L *.r.",
"w z K K F u & % % & 2 s D.].k.s.x.s.V.Z.Q.~.]._.`./.!.]._.A.R.u.r.8.y.,.1.) ( { 1.2.y.h.I.K.y.*./ F s x j i u e 9 9 s H H K x i ",
"5 w c v z e % # % & & 9 %.;X(.k.s.a.6.V.R.^.I.~.V.j.f.s.y.y.2.u.i.w.{ | { >.( +.2.5.r.V.Y.'.y.r.%.x 3 z z s u e : > 7 s s 9 < 4 ",
"% & 2 5 j 5 % O # % & 2 z %X-XQ.0.2.N._.XX].R.E.Y.N.x.s.a.5.&. .{ O.^ E  ._ +.2.p.! *.V./._.A.*.K F e 5 j w 5 w : $ > > > < < > ",
"O O # * 4 4 & O # # % > 9 F.<XD.=.F.%X;X%X:XOX#X].|.Q.W.h.N.s.w.] ! P E E ] O.u.5.2.y.Y.!.|.J.%.F s z 5 2 : : 4 & # : < 3 w < s ",
"O O O % & 2 * O O O & : b !.2X2X2X8X4X2X5X8X0X8X2X<X<X-X#X(.[.!.~.m./ J Y ~ ! +.2.s.Z.Y.|..Xn.G F w e 5 > : & & O % < 7 a s s z ",
". . . # % * & # . O $ < O.].&X8XqXwX9X8X8XqX9XwXwX0X3X8X9X6X$X$X$X:X'.b.%.J D ] h.I.V.'.$X'./ F x w * * & & O O O # & < 9 r r i ",
". . . O # & % # . X # s t.oX1X1X8X9X9X1X3X3X3X3X7X7X3X3X3X3X*X*X*X*X*X*X*X:.L -.S.F.F.'.+X:.v c l w * & & # O O # # % * 5 3 w u "
};
