/* XPM */
static char *out[] = {
/* columns rows colors chars-per-pixel */
"64 64 218 2 ",
"   c #2B1608",
".  c #4A2415",
"X  c #5C2C1A",
"o  c #68321E",
"O  c #583F2A",
"+  c #763A24",
"@  c #7E3D26",
"#  c #63432F",
"$  c #6E402D",
"%  c #6A4D37",
"&  c #77523D",
"*  c #7F5D46",
"=  c #814A35",
"-  c #8E4B34",
";  c #96523A",
":  c #865540",
">  c #8C5D46",
",  c #9D5943",
"<  c #955F49",
"1  c #A45E45",
"2  c #89664F",
"3  c #9B644E",
"4  c #916A53",
"5  c #9A6F56",
"6  c #AB644A",
"7  c #A16851",
"8  c #AD6D51",
"9  c #A86D58",
"0  c #B36A51",
"q  c #B76F53",
"w  c #A1765D",
"e  c #A7755C",
"r  c #AE755B",
"t  c #B4715D",
"y  c #B97658",
"u  c #A87B63",
"i  c #AE7D64",
"p  c #B77764",
"a  c #BD7564",
"s  c #B27861",
"d  c #B47F64",
"f  c #BB7E63",
"g  c #C1785B",
"h  c #C87E61",
"j  c #C07B6B",
"k  c #AC836B",
"l  c #BE8466",
"z  c #B3876E",
"x  c #BA876A",
"c  c #BF8B6C",
"v  c #B78C72",
"b  c #BC8E72",
"n  c #C38264",
"m  c #CC8566",
"M  c #C78568",
"N  c #C4816F",
"B  c #C48A6C",
"V  c #CC8C6D",
"C  c #CC8C6E",
"Z  c #D18969",
"A  c #D48C6E",
"S  c #D88F6F",
"D  c #C88973",
"F  c #CC8A78",
"G  c #D38E7E",
"H  c #C39072",
"J  c #C69677",
"K  c #C89172",
"L  c #CC9475",
"P  c #CA997A",
"I  c #CF9C7E",
"U  c #D19071",
"Y  c #D09072",
"T  c #D29172",
"R  c #D09273",
"E  c #D39273",
"W  c #D49374",
"Q  c #D59475",
"!  c #DA9472",
"~  c #DD9876",
"^  c #D79778",
"/  c #D1967C",
"(  c #D89778",
")  c #D59A7B",
"_  c #D99878",
"`  c #D9997A",
"'  c #DB9A7A",
"]  c #DA9A7B",
"[  c #DC9B7B",
"{  c #DB9C7D",
"}  c #DA9D7E",
"|  c #DE9D7D",
" . c #DC9D7E",
".. c #DD9D7E",
"X. c #E09E7D",
"o. c #E2A07F",
"O. c #D89380",
"+. c #DD9E80",
"@. c #DE9F80",
"#. c #DF9F80",
"$. c #DD9986",
"%. c #D4A082",
"&. c #DFA081",
"*. c #DCA386",
"=. c #D8A485",
"-. c #DCA88A",
";. c #DFAB8E",
":. c #DFAF94",
">. c #E0A081",
",. c #E2A181",
"<. c #E0A182",
"1. c #E1A283",
"2. c #E3A282",
"3. c #E5A382",
"4. c #E4A383",
"5. c #E5A383",
"6. c #E5A483",
"7. c #E6A483",
"8. c #E5A484",
"9. c #E6A585",
"0. c #E7A685",
"q. c #E7A686",
"w. c #E8A786",
"e. c #E9A887",
"r. c #E0A58A",
"t. c #E3AC8D",
"y. c #E7AD8F",
"u. c #E8A888",
"i. c #E9A888",
"p. c #E9A989",
"a. c #EAA989",
"s. c #EAAA8A",
"d. c #EBAA8A",
"f. c #EBAB8B",
"g. c #EBAC8C",
"h. c #EBAE8F",
"j. c #ECAC8C",
"k. c #ECAD8D",
"l. c #EDAD8D",
"z. c #EDAE8E",
"x. c #ECAE8F",
"c. c #EDAE8F",
"v. c #EEAF8F",
"b. c #EDAF90",
"n. c #EEAF90",
"m. c #E4B195",
"M. c #E9B193",
"N. c #EDB091",
"B. c #EFB090",
"V. c #EEB091",
"C. c #EDB192",
"Z. c #EEB192",
"A. c #EFB192",
"S. c #EFB293",
"D. c #ECB496",
"F. c #E6B599",
"G. c #EAB79A",
"H. c #EEB899",
"J. c #EEBC9E",
"K. c #F0B293",
"L. c #F0B394",
"P. c #F1B495",
"I. c #F0B496",
"U. c #F1B596",
"Y. c #F1B597",
"T. c #F2B596",
"R. c #F2B697",
"E. c #F2B698",
"W. c #F2B799",
"Q. c #F3B799",
"!. c #F3B899",
"~. c #F2B89A",
"^. c #F3B99A",
"/. c #F3B99B",
"(. c #F4B99B",
"). c #F4BA9B",
"_. c #F4BA9C",
"`. c #F4BB9D",
"'. c #F5BB9D",
"]. c #F5BC9D",
"[. c #F5BC9E",
"{. c #F5BD9E",
"}. c #F5BD9F",
"|. c #F1BFA1",
" X c #F5BEA0",
".X c #F6BEA0",
"XX c #F6C0A1",
"oX c #F6C0A2",
"OX c #F6C1A2",
"+X c #F6C1A3",
"@X c #F6C2A3",
"#X c #F7C2A3",
"$X c #F6C3A4",
"%X c #F2C4A5",
"&X c #F7C4A6",
"*X c #F7C5A6",
"=X c #F7C6A7",
"-X c #F7C7A8",
";X c #F7C8A9",
":X c #F0CBAD",
">X c #F8C9AA",
",X c #F8CAAB",
"<X c #F8CBAC",
"1X c #F8CCAD",
"2X c #F8CDAE",
"3X c #F9CEAF",
"4X c #F3D1B3",
"5X c #F7D1B2",
"6X c #F0D4B6",
"7X c #F6D4B6",
"8X c #FAD3B4",
"9X c #FAD7B8",
"0X c #F1D8B9",
"qX c #F7D8BA",
"wX c #F5DBBB",
"eX c #FADDBE",
"rX c #F6DDC0",
"tX c #F9E1C3",
/* pixels */
"=.r.) ) / ) / r.h.I.D.D.m.G.m.G.m.G.m.m.m.D.m.H.G.~.H.H.D.D.C.C.t.t.r.t.r.y.t.*.} *.} &.] | ] ] R ) ) ) / ) R R C C C Y C U C C ",
"=.=.@.t.L.~._.^.W.~.~.I.{.{.XXH.I.G.G.m.G.G.D.I.H./.H.G.I.D.D.h.t.t.t.9.t.r.t.1.*.@.@.@.1.| { ` Q / / / ) ) / R R U U U W E Y Y ",
"@.t.t.K.I._.I.).Y.[.D.W.).'._.}.OX@XH.H.`.#XE.[.).}.D.I.W.~.S.D.h.h.*.j.h.Z.9.u.q.s.2.8.3.2.' | ..#./ } } P H R R E C W Q ^ C R ",
"w c 1.c.).!.Y.E.).~.Y.A.~.T._.{.&X+X).!.XX(.W.~._.E.I.S.(.T.I.K.I.A.u.u.b.h.p.9.p.a.w.o.2.| [ ' 2.|  .+.,./ C D R C C V Y T Y Y ",
"O = e } t.K.I.I.I.}.U.~.Z.W.~. XXX+X).^.^.W._.].Y.^.I.W.L.E.I.I.b.K.c.k.q.p.9.q.q.j.0.o.' +.] ..{ &.@.<.) ) R R C C V V M V Z T ",
"O # & 5 c ) s.I.W.Y.H.K.I.Z.).}.XX`.~.!.Y.W.).^.).^.Y.I.K.I.T.I.L.g.j.p.u.s.q.8.f.j.0.|  .'  .{ | @.<.@.{ W C V V V C M M M m Z ",
"e 5 < 3 r K ^ h.).^.n.K.L.Q.I.}. X+XI.I.Y.).I.Y.Y.Y.h.I.I.).h.I.c.s.8.p.p.p.4.i.j.n.o.| | <.W ` +.8.| @.' / K D C Z M V M M g m ",
"t.) V f l B ^ 2.!.I.Z.c.K.E.~.~.+XI.C.C.Y.L.Y.^.).!.K./.].).I.L.T.j.p.p.f.u.2.a.v.f.o.' <.] ) ) @.<.#.) ] W D B D V M M Z V n g ",
"h.p.+.^ C W ` >.u.B.l.Z.c.E.).+XZ.C.y.K.c.K.Y.XX).`._.XX{.`.E.).c.j.p.s.9.s.a.j.q.s.2.>. .|  . .{  .] ] W W V n l n n M h m h n ",
"1.1.1.1. .] '  .0.h.Z.A.P.I.P.I.B.u.h.s.h.s.!.E. X{.{.{.+X{.).I.h.h.p.q.s.s.j.j.p.8.+.#.>.+.+.{  .` ] ` W T C n g g g h m n g g ",
"{ { T ^ ' 1.` >.9.B.s.A.K.Q.k.T.A.h.1.9.s.K.Z.).{.{.G.).G.G.t.t.@.} Q +.9.s.2.u.u.u.o.2.1.&.] ) }  .E ^ ^ R n f f f t g g g y y ",
"u.&.T M M Y ` #.u.j.c.v.L.Z.v.z.K.1.^ ^ 1.q.s.Z.Z.+.K i 9 9 9 5 7 7 9 r B C V V Q ^ ^ ` 1. . .] '  .W Y W V n p f y t t f g g g ",
"u.p.o.T n f M | 8.c.j.Z.c.c.l.A.g.] V W U Q ^ #.Y s 3 : + $ o O X X X o = 3 7 r y M M T T ^ )  .)  .Q Q V D n l y y y f y g f g ",
"f C ] S M g y V | q.c.A.s.s.s.f.f.^ M M M M C n y 1 - @ + o X . . . . . X $ & = 3 r t f f f V Y / Q W U B n l f f y f y y g g y ",
"4 5 7 y n g q g U X.q.B.c.j.2.q.q.| n l n n f y 8 1 - = = = @ @ = = & > > < = = : > : < , , 1 t f n n V B n y y y g q y y y q y ",
"e * & : < 7 6 8 n W o.v.K.c.u.q.8.( C l n f t 8 6 , ; ; ; < 1 r n B Y ) @.Q f 9 7 3 < ; ; ; ; < 3 3 3 7 r r 8 8 t q 0 0 q 0 q q ",
"O . . O # = = > 8 Z ( S.Y.Y.h.j.1.` Y M f y 8 1 ; , ; < , 6 8 n Y ` ] 1.1.p.1.) B l r 9 , < < < < < > < : < , 6 1 1 1 6 1 6 6 6 ",
"# . . . O $ + + = g _ K.,X&XH.K.s.| U g y 8 7 ; - - - = = , t D T Y V n n V V V Y Y W R B r 8 9 3 < : : : - ; , 1 1 1 1 6 6 6 6 ",
"9 = X o & < = @ = y o.I.1X8X+X{.W.2.n 0 6 6 ; - = @ o @ 3 B R 1.t.h.#._ T M t 6 1 9 y M Y Y l f r 9 < < < < ; 1 6 8 6 1 8 8 6 0 ",
" ./ H n B n l n ` p.K.).3X8X3X+XE.1.g 1 6 6 ; = = $ X - 9 9 7 5 i x D F R B l t 7 = @ 7 B K B f l p t 9 t s 8 6 0 8 6 8 t f y q ",
"W U V Z V U U Q V q.XX+X1X9X3X&Xs.Q q 6 6 8 ; 8 6 ; - @ $ @ o . O . . o & * > > > * + $ 3 B D T V n f n f f t y q y y f f n g n ",
"W U T m h h g g #.).+X>X3X3X,X{.h.U q 6 0 h f Y 3.o.Q D V n i 4 # .             . . . . X 7 n f y y f g n f y t t t f g g g g g ",
"g g 0 q 6 t V h.,X1X+X8X<X;X{.I.8.A q q g S Q ] 2.u.o.#.#.| ` { C s < = & # X . X X . . o - ; ; 8 f g V V Y n g f M g M M M g M ",
"Y.9.~ +.h./.=X=X2X>X;X;X3X&X).q.! Z n m A Z ` 0.v.l.d.o.( U W _ | Q m M V f r 8 r r 8 8 f t , 8 V o.X.| 7.2._ g f y t t t t 8 8 ",
"#X#X&X3X&X1X;X1X1X1X5X5X$X&XK.| Z V Z ! | | | j.e.j.d.L.s.` g q 0 y q q 0 y g U U S V g , - 6 Q Q C m V V T n 8 1 1 6 t t f y f ",
" X{.;X,X3X1X;X1X3X5X3X1X1X Xs.( Z m U ( 7.u.u.s.s.0.f.K.R.).Q. .n 8 1 1 1 1 , ; ; - = - 6 M ( _ 1.o.[ M y 8 y f t t p p n l l l ",
"&X;X-X3X5X5X&X1X5X9X8X3X XW.2.( Z Z m S ~ s.7.u.j.j.q.K.W.{.~.).}.XXs.r./ V y y f M C | s.K.9.| ( _ ` | U V C V t r 9 r p p r t ",
"3X1X,X;X8X1X;X-X3XqXqX*X+XK.s.| ( Z m m h m h m ! 7.c.Z.).).!.E. X+XXX#X,X+X{.).{.`.I.v.A.f.u.o.~ Y Y | 7.e.2.U y r 9 t p p s y ",
"1X1X3X3X,X,X&X>X3XqXqX-XI.K.c.j.o.~ h g y h g 0 1 q T j.K.).).^.).#X-X>X*X,X*X+X{.).Z.K.a.e.u.q.o.( V | X.0.0.^ f y r p f f f n ",
"&X+X{.Z.u.u.`.;XqXqX5X&X).Z.Z.W.Z.X.Z g h S ~ Z y , 1 y #.K.).{.{.+X>X-X>X>X#X#X+X`.K.j.p.e.e.a.p.o.T ( 2.1.o.W l p f f n n B M ",
"j.q.T n y 2.{.5X8XrX,X&X X).h.Y.q.( m h ! s.7.7.~ g - - 6 Y 1.K.{.;X&X;X,X;X+X&X+X}.K.Z.u.s.7.e.a.q.` Q | o.{ W M n l n n C n D ",
"m q ; ; Y {.&X1XrXqX8X;X1X+X).8.V g y m X.7.2.( A g , - ; 1 y W j.!.{.+X&X&X{.{. XI.B.h.A.l.j.u.d.i.o.` | X.] W V M M M C V V C ",
"; = - D {.3X3XqXtXtXtX9X;X{.2.n 6 1 1 6 6 0 6 6 1 1 1 q q 0 1 t V 8.c.!.Y.).!.!.Z.K.e.B.f.A.f.k.6.5.>.| _  .` W n B n C C Y Y R ",
"@ ; Q H.3X9XqXqXtXtXrX3X+X1.f , @ + o $ + + @ @ - 1 0 y g g g 0 q M ' 1.Z.Z.K.Z.c.s.j.j.v.v.f.e.0.2.|  . .] ) Y M n V C Y E E E ",
"; W C.&X9XqX8X9X9X3X/.H.9.f ; @ $ + + @ + @ + = ; , ; 1 0 q y g q 0 y Z 1.s.8.u.q.q.o.q.c.Z.2.o.8.#.] ] }  .L Y n n n M Y R V C ",
"n @./.&X1X,X;X{.+XH.1.Y f , = @ @ + $ $ + + + @ @ - - - ; 1 0 0 0 6 1 6 V ( ' | o.| | | u.u.2.#.1. .^ / ] ) Y C B M M V Y E C C ",
"Y s.Z.r.+.9.1.p.p.Z.+.y ; - = - @ @ @ @ + @ @ = = - = @ + - - ; - = : - ; f Y / T ^ Q ' ` | { { ^ ^ R C R ) R Y V Y V Y V T C A ",
"Q @.D 8 y C ^ Q U Y n 6 ; 6 l n 6 ; - - - = = - ; ; = @ @ = = - = = @ @ = = t R _ ^ W W W W R W Q R L B C / / / Q C V V C C C C ",
"L R s 9 8 n l g 8 8 - @ - y M T n t , ; ; - = - ; < - - - - = - - = + + + + @ r W 1.Q W T E C W T Q n n B / E ) ) C n C C T m Z ",
"K B r 7 8 f f f 8 6 ; 3 ) u.1.Q S M q 1 , ; - ; , , ; - ; ; ; ; , < = = = + + = 9 M Q Q W E C Y W / n f K / Q Q E n l M C V Z m ",
"B f 9 9 t n l M t y f Q s.!.j.7.! T g y 6 6 1 0 0 q 6 6 1 , 1 1 1 1 , < > = + @ = 3 n T Y Q Q Q Q ) B f V / ) / D l n n n V Z Z ",
"l 8 9 9 t y n M Z Q ^ ' | q.s.u.| U Z m m h g g m m m h y 0 6 0 0 0 1 1 1 ; = @ = = 1 M Y Q ( _ ` } B f B L / / C B f M m m Z Z ",
"p < = = = ; 1 g h m n V W _ T Z m m g g n g g g n m g y q q 6 0 q 0 1 6 8 7 = = = - - y W ] ( 2.1.*.c l H R K / L C f n V A Z A ",
"l 9 ; - = ; , 1 1 1 1 6 q q 0 0 6 1 , ; ; ; ; 1 1 1 ; - ; ; - - ; - - ; , ; - = : < 1 6 R ' X.>.2.1.J c H J R P / K l V C V Y V ",
"R n f f f M g n y g y q 6 1 1 6 1 7 6 6 6 6 6 6 , ; - - @ @ @ = @ @ @ @ @ = - 7 r l y 8 C | X.1. .@.J B B H K P R B l n n m M M ",
"{ W W U Y m Z ( ..#.+.G $.O.O.O.O.G G G G F N N a n a y q 0 0 q q q 0 6 1 6 f Q { | U t Q [ +.|  .^ J B c c J P P c B M B n B B ",
"` { C T ( ! h | o.#.[ [ ..1.O.$.1.O.F F G F f j N N a a a j y y y g 0 y g U X.h.8.2.Y M ^ o.~ | [ ) B B c H H P H H l B H K l M ",
"n ] T Y ^ ^ m V T M F G W F F F W N s s f t 9 y f q 8 0 a y q 0 q 0 q g ` I.C.r.<.[ M n o.#.| [ ^ Y B f l c H c l c n B K D B M ",
"l T [ ] ( [ Z g 8 6 6 9 9 9 9 r 9 9 7 7 3 3 3 7 3 3 7 9 r t t t 8 8 f _ j.I.y.u.+.[ n T #.6.&.} B B l f s l c x d d K Y C E C T ",
"/ C  .8.| | ! m y 8 7 7 9 t t r 9 9 7 3 4 < < < 3 < 3 7 9 r r t t f Y u.S.C.y.r.@.V f W 2.| ] E n l l d d c l f s l L K / ) W / ",
"} +.W 1.2.| T m g y 8 8 t n f f p r 7 7 3 < > < 3 9 3 9 t t t f l C ] h.I.I.t.y.p.n y W [ >.W B l l s r d f t s f H H R / / K B ",
"%.*./  .q.| S V g y t t B Q W C M f r 9 9 7 3 7 9 s f n C M M M R _ u.y.I.C.t.u. .n M Q  ._ C B B n r 9 f l d d H J P P %.D B l ",
"P =./ ) u.q.| U g g f f _ j.a.u.#.Q M n p f f B n R ^ #.#.#.'  .^ 1.s.K.M.h.t.y.^ C Y ^ Q ( B B C n 9 9 d K l c K L P %./ ) ) ) ",
"J =.) ) r.9.t.| Z m m C 2.u.j.p.2.#.8.1.1.+.@.t.D.H.H.D.I.y.r. .<.9.s.Z.t.r.9.r. .U Q U W W V K E f 9 9 f c P P K K J R ) } ) / ",
"b %.P P J } 1.p.q.| Z 2.Z.Z.u.K.c.9.1.j.j.Z.s./.H./.m.I.h.t.] 1.<.8.2.8.<.1.] <.+.) W T  .} V R Y f 9 r e 7 s P c c c K ) *.r.*.",
"z P I P J c H } c.s.X.f.K.!.Z.W.!.I.Z.Z.!.Y.Y.H. X{./.H.Y.y.1.1.1.<.2.1.1. .@.@. .} ] ` #.) Q / C d x x i 9 9 c L K b H ) } r.t.",
"w H P %.c u 4 i P D.Z.E.B.!.Z._.W.!.~.#X#XOXXX>X X-X X/.y.+.r.u.+.+. . .E ` { 1. .&.9.s.r.+.) ) B f d k e e r p l R K L L } *.r.",
"w x P P x 5 & 4 5 J t.D.`.Z.h.L.I.I.Y.^.^._.~.H.H.H.I.r.h.p.u.1.+.{ ^ T W ` +.+.4.r.p.h.C.r.*.%.L r x x k i i 9 7 s n K P P x i ",
"5 w H x i 5 # & * w x t. X`.9.k.p.f.h.I.W.).N.N.s.h.&.1.9.u.8.#.` ` T ^ ^  .] 1.2.s.r.C.Y.Y.*.I J s w J x z u 5 = 3 9 d d 5 < 4 ",
"% & 2 5 i 5 # # % & 4 i G.&XK.s.q.S.)./.`.~.L.P.Z.V.9.1.1.4. .^ ] _ W Q | >.1.r. .&.y.C./.[.t.L H i 5 e u w 5 5 & + > > > < < > ",
"O O # * 4 4 % O # % * 3 / >X-X;.m.$X;X<X&X&X`.+XH.oX^.K.x.V.p.o.^ T U W W ..+.u.&.u.C.E./.oXy.P x i i 4 4 : 2 4 # # > 3 3 w 7 i ",
"O O O % * 2 & O O O & > D  X5X5XqXqX7X5X8XqXrXqX5X8X2X>X*X+X.X).(.t.) L R / ` @.1.s.S.E.oX+X;.H H e u 4 > * & & O # < 7 s d f x ",
". . . # % * & # . O $ < +. X>XqXrXtXwXqXqXrXwXtXtXeXqXqXwX9X*X&X=X<X|.m.%.L D { h.Y.Z.|.*X|.) H c w * * & & O O O # & < 9 r r i ",
". . . O # & % # . X # d t.$X4X4XqXwXwX4X6X6X6X6X0X0X6X6X6X6X:X:X:X:X:X:X:X:.I -.F.J.J.|.%X:.H v z w * & & # O O # # % * 5 3 e u "
};
