/* XPM */
static char *out[] = {
/* columns rows colors chars-per-pixel */
"64 64 208 2 ",
"   c #2B1608",
".  c #4A2415",
"X  c #5C2C1A",
"o  c #68321E",
"O  c #583F2A",
"+  c #763A24",
"@  c #7E3D26",
"#  c #63432F",
"$  c #6E402D",
"%  c #6A4D37",
"&  c #77523D",
"*  c #7F5D46",
"=  c #814A35",
"-  c #8E4B34",
";  c #96523A",
":  c #865540",
">  c #8C5D46",
",  c #9D5943",
"<  c #955F49",
"1  c #A45E45",
"2  c #89664F",
"3  c #9B644E",
"4  c #916A53",
"5  c #9A6F56",
"6  c #AB644A",
"7  c #A16851",
"8  c #AD6D51",
"9  c #A86D58",
"0  c #B36A51",
"q  c #B76F53",
"w  c #A1765D",
"e  c #A7755C",
"r  c #AE755B",
"t  c #B4715D",
"y  c #B97658",
"u  c #A87B63",
"i  c #AE7D64",
"p  c #B77764",
"a  c #BD7564",
"s  c #B27861",
"d  c #B47F64",
"f  c #BB7E63",
"g  c #C1785B",
"h  c #C87E61",
"j  c #C07B6B",
"k  c #AC836B",
"l  c #BE8466",
"z  c #B3876E",
"x  c #BA876A",
"c  c #BF8B6C",
"v  c #B78C72",
"b  c #BC8E72",
"n  c #C38264",
"m  c #CC8566",
"M  c #C78568",
"N  c #C48A6C",
"B  c #CC8C6D",
"V  c #CC8C6E",
"C  c #D18969",
"Z  c #D48C6E",
"A  c #D88F6F",
"S  c #C98270",
"D  c #C88973",
"F  c #CC8A78",
"G  c #D08B78",
"H  c #C39072",
"J  c #C69677",
"K  c #C89172",
"L  c #CC9475",
"P  c #CA997A",
"I  c #CF9C7E",
"U  c #D19071",
"Y  c #D09072",
"T  c #D29172",
"R  c #D09273",
"E  c #D39273",
"W  c #D49374",
"Q  c #D59475",
"!  c #DA9472",
"~  c #DD9876",
"^  c #D79778",
"/  c #D1967C",
"(  c #D89778",
")  c #D59A7B",
"_  c #D99878",
"`  c #D9997A",
"'  c #DB9A7A",
"]  c #DA9A7B",
"[  c #DC9B7B",
"{  c #DB9C7D",
"}  c #DA9D7E",
"|  c #DE9D7D",
" . c #DC9D7E",
".. c #DD9D7E",
"X. c #E09E7D",
"o. c #E29F7D",
"O. c #E2A07F",
"+. c #D89380",
"@. c #D89982",
"#. c #DD9E80",
"$. c #DE9F80",
"%. c #D4A082",
"&. c #DFA081",
"*. c #DCA386",
"=. c #D8A485",
"-. c #DCA88A",
";. c #DFAB8E",
":. c #DBAB91",
">. c #DFAF94",
",. c #E0A081",
"<. c #E2A181",
"1. c #E0A182",
"2. c #E1A283",
"3. c #E3A282",
"4. c #E4A281",
"5. c #E4A382",
"6. c #E4A383",
"7. c #E6A483",
"8. c #E5A484",
"9. c #E6A584",
"0. c #E6A585",
"q. c #E7A685",
"w. c #E7A686",
"e. c #E8A787",
"r. c #E0A58A",
"t. c #E3AC8D",
"y. c #E7AD8F",
"u. c #E8A888",
"i. c #E9A888",
"p. c #E9A989",
"a. c #EAA989",
"s. c #EAAA8A",
"d. c #EBAB8B",
"f. c #EBAE8F",
"g. c #ECAC8C",
"h. c #ECAD8D",
"j. c #EDAD8D",
"k. c #ECAE8F",
"l. c #EDAE8F",
"z. c #EEAF8F",
"x. c #E4B195",
"c. c #E9B193",
"v. c #EDB091",
"b. c #EEB090",
"n. c #EEB091",
"m. c #EDB192",
"M. c #EEB192",
"N. c #EFB192",
"B. c #EFB293",
"V. c #ECB496",
"C. c #E6B599",
"Z. c #EAB79A",
"A. c #EEBC9E",
"S. c #F0B394",
"D. c #F0B495",
"F. c #F1B495",
"G. c #F0B496",
"H. c #F1B596",
"J. c #F1B597",
"K. c #F2B697",
"L. c #F2B799",
"P. c #F3B799",
"I. c #F3B899",
"U. c #F2B89A",
"Y. c #F3B99A",
"T. c #F4B99B",
"R. c #F4BA9B",
"E. c #F4BA9C",
"W. c #F4BB9D",
"Q. c #F5BB9D",
"!. c #F5BC9D",
"~. c #F5BD9E",
"^. c #F5BD9F",
"/. c #F5BE9F",
"(. c #F1BFA1",
"). c #F5BEA0",
"_. c #F6BEA0",
"`. c #F6BFA0",
"'. c #F6BFA1",
"]. c #F6C0A1",
"[. c #F6C0A2",
"{. c #F6C1A3",
"}. c #F7C2A3",
"|. c #F6C3A4",
" X c #F2C4A5",
".X c #F7C4A5",
"XX c #F7C4A6",
"oX c #F7C6A7",
"OX c #F0CBAD",
"+X c #F4CDAE",
"@X c #F8C8A9",
"#X c #F8C9AA",
"$X c #F8CAAB",
"%X c #F8CBAC",
"&X c #F8CCAD",
"*X c #F8CDAE",
"=X c #F9CEAF",
"-X c #F3D1B3",
";X c #F7D1B2",
":X c #F0D4B6",
">X c #FAD3B4",
",X c #FAD7B8",
"<X c #F1D8B9",
"1X c #F7D8BA",
"2X c #F5DBBB",
"3X c #FADDBE",
"4X c #F6DDC0",
"5X c #F9E1C3",
/* pixels */
">.n.9.7._ N k k u u b %.I =.:.x.>.x.>.x.>.>.x.C.x.C.x.Z.A.Z.C.x.>.>.>.>.t.f.S.G.f.f.p.k.y.n.k.y.r.u.6.u.7.1.] ' Q _ Q ' ^ ( W E ",
"=.s.j.g.q.Q x k u u b I %.=.-.>.>.>.>.x.>.>.>.>.x.x.x.Z.A.C.x.>.>.x.>.>.t.t.y.f.l.h.y.u.f.M.B.l.h.u.w.7.u.O.X._ ' ' | [ | ' W Y ",
"H X.o.9.5.^ d u u k b I %.=.%.:.>.C.;.x.x.x.:.x.x.x.>.x.C.A.>.>.>.>.>.:.t.V.t.m.D.D.l.b.z.S.p.l.s.p.1.0.u.<.[ ' [ | Q | o.' U A ",
"c Z ! ~ A B d u k k b I =.=.=.>.>.>.x.x.C.>.>.:.>.>.>.x.Z.C.>.>.>.C.x.C.Q.Y.L.D.H.M.S.l.S.j.l.h.u.5.5.5.e.| ' ' | ' [ | X.( T Z ",
"b A Z A A C f d k k b %.I %.=.:.:.>.>.x.>.>.>.>.>.x.C.^.U.^.!._.R.Q.Q.!.S.K.D.K.M.B.b.p.w.u.u.h.4.0.X.w.w.| ' [ ] [ ..1._ Q Z Z ",
"b _ Z Z A Z m l l b P =.-.-.:.>.C.Z.Z.Z.Z.Z.Z.U.^.|.|..XoX.XQ.!.!.Q.Y.K.D.K.D.G.H.M.M.d.i.u.d.q.w.<.5.u.w...X.[ $.$.2.| ' U C C ",
"H | Z Z A ( M D W $.*.V.Y._.Z.`.[.oX_.'.}.[.U.^.!..XU.}.]..XM.L.Y.T.v.K.K.S.p.H.K.Q.g.z.a.h.3.q.w.w.<.e.0.0.] #.&.6. .,._ W M M ",
"H X.A Z A ! / W | q.h.b.D.Y.!.^.}.`._.`..X)._.U.U.U.^.^.oX}.K.b.U.S.S.S.H.m.S.K.!.K.f.f.b.p.w.0.u.d.u.q.h.5...#.&.<.#.$._ Z m n ",
"l | C A _ X.^ / / I / ` } c.K._.U.].Y.}.)..X]._.f.S.L.!.^.}.S.z.l.h.b.K.L.Q.!.[.!.K.m.S.f.u.} ) ^ ) W W R Q W [ ^ $.#.1._ W M h ",
"i [ A A _ n r 7 3 < > & > 7 c *.f.m.K.U.!.]._.K.b.f.l.Y.!.Q.b.u.d.p.y.H.^.!.!.]._.K.f.*./ f t 9 7 7 7 7 r f n N V K ^ ` _ Z M g ",
"d X.C C q , : : : $ X X X # $ < s R } f.L._.L.m.f.u.d.K.!.H.6.2.2.w.0.H.!.].Y.V.*.L u 7 : $ o X X $ $ = > 3 3 8 0 r y Y W W g g ",
"H t.[ T f p N I %.P u > : & = = ; 8 l W y.B.K.y.p.u.u.h.m.y.<.' <.5.u.f.Y.S.$.l 3 = $ X X . . . X X $ $ = = : - ; , , 7 p g y y ",
"H u.1.| ( $.w.>.c.L.V.t.%.K f t 8 0 y N W d.s.j.p.p.p.d.p.p.` ` W [ | u.6.^ r < @ o X X . X X $ : 5 5 7 < < 3 3 - : ; 3 , 3 7 y ",
"c %.w.X.| X.w.0.f.f.V.t.-.} ^ L N n n M Y ` u.p.e.u.w.w.u.6.W m B V Y T B y ; = $ $ o $ @ < w l / *.} R V l N s 9 7 3 < < > ; , ",
"P *.0.1.<.5.| ^ ^ #.$.6.*.*.Y M l n f V Q } 5.0.e.d.6.u.w.p.B n l n f l y 6 - = @ @ = , 8 n D ` 2.*.#.` }  .R ^ W n 0 7 3 < = - ",
"%.$.y.0.<.[ f y #.c.L.L.U.f.5.` V y 6 p W [ <.e.p.w.0.0.p.w.V y f f p y 6 , - - - ; , 6 y f l n M n f l n D V R Y V N l r 3 > : ",
"%.) 6.h.} n 8 L x.V.t.} K K l l f y 8 8 f T [ p.p.w.e.w.w.<.T M y y 0 6 , ; - ; - = = , y V N n f f q 6 ; - ; r f M n n y t 7 3 ",
"=.) 2.f.6.y t %.%.d < $ # . . . o = , 1 0 M A <.l.g.u.d.h.5.` V l y 6 , ; - - @ o $ 3 d D K D c l l f s r 3 = + , l M M M n f n ",
"=.} V ^ [ M l d & X     . .       . o @ , n m | b.`.m.B.b.f.[ V f 8 , ; - = o X $ 3 < $ $ . . . . $ $ & & & @ $ o < N K n n g y ",
"%.%.V n y 1 , o . . . O # .   . . . $ o + ; n [ b.oX.XY._.K.6.N 6 , , - = + X X = + o . . .                   . X $ 7 0 0 n B ( ",
"%.*.p.T y 6 , s 6 < 7 w 5 > & & & 7 < : @ = f p.H.=X>X$X}.K.6.n , 1 1 - - = + + = , 7 4 % O . O # % # $ $ & @ o X + , 6 n | <.u.",
"*.*.j.p.u._ W ^ w.6.y.0.$./ / R V M m n M W 6.S._.>X1X=X@XV.` y 1 1 6 , y M D V ^ [ ` ) / x r r f N l p 9 6 7 8 0 y 6 1 n n n n ",
"*.6.Q w.S.D.w.X.| w.X.| [ [ C Z W A C W Z Z w.Q.oX>X>X>X@XL.T r 1 0 g M Y u.2.[ ( _ ^ <.$.| m C Z C M h M C m m m 6 ; Y | [ f 6 ",
"t.6.2.p.H.K.P.S.p.! C C Z Z Z m Z h g q y [ Q.].&X>X>X=X@Xb.W y q q M [ 5.w.p.q.| B n g M h g q 0 q y h m m g 6 - ; f T [ | ` T ",
"6.6.s.l.b.Y._.}.U.p.Z n q y q q 6 1 1 M f.@XoX@X#X&X&X&XY.u.Z M h m m ! q.j.p.b.S.y.Q n 1 1 1 1 , 1 , ; - - - 1 n o.2.[ B ( <.,.",
"t.t.q.h.H.!.]..XoX}.U.h.[ m l f n R f.@X%X&X&X$X%X&X=X}.S.` C m W _ [ | w.j.d.p.S.F.P.K.m.t.#.V n f p n B ^ <.d.s.p.5.| ^ B | X.",
"b.u.| l.K.]._.oX=X@X^.^._.}.Y._.].XX}.@X>X=X@X>X=X>X@X].h._ M C ( | <.w.s.j.d.p.l.Q.M.K.Q.}.!._.}.!.B.K.L.Q.d.p.0.u.X.X.<.' Z X.",
"f.g.q.S._.]..X@X>X*XoX}.[.!.!.^.%X@XoX@X$X&X>X>X>X=X}.H.w.! m m Z A A A [ | 5.w.b.S.H.K.Q.^.).).oX_.!.Q._.L.l.q.w.w.4.o.q.| T _ ",
"p.u.p.Y.L.]..X=X>X>X=X&XY.!._.@X$X$X}.oX@X=X>X3X>X=X^.S.<.[ A Z h g g y 0 0 q Z w.K.U.^.K._.|.oX_.}.).T.Y.L.S.i.7.q.6.4.X.<.Q ( ",
"0.2.b.S.Q.]..X$X>X>X>X@XoX_.oX%X=X@XoX.X=X&X>X4X3X@XQ.M.M.p.5.! h y h C m q , , y ^ H.P.!.{..X}.@XoX`.}._.L.S.w.p.w.q.w.q.<.' ( ",
"e.q.w.H.K.]._.@X>X>X@X$X%X&X).&X&X=X^.oX@X=X;X3X1X@XS.S.H.K.h.X.C h m o.q.| g ; - 6 n <.H.^.P.!.oX.XK.L.Q.b.f.l.e.d.5.0.5.w.[ Q ",
"0.2.w.l.K.].[.}.@X=X&X=X&X@XoX^.!.m.u.S.@X=X>X3X>X.XT.Y.L.!.d.W m M A q.w.| m 1 ; ; , 0 Q p.n.M.!.K.S.l.S.l.w.e.s.6.q.4.6.| X.W ",
"<.q.u.l.h.Q.P.^.!.].!.^.K.S.h.q.Y h Z L..X>X1X1X=X@XY.!._.S.W g y M Z A m n 0 6 6 0 8 6 0 B 1.d.p.S.u.l.h.w.e.s.u.u.} &.$.2.} ^ ",
"4.$.5.w.h.K.L.K.L.K.m.u.5.A M q , 0 y.].&X>X3X5X1X=XoX_.Y.W y 1 , ; - - - - , 6 q y y q q q n T o.<.q.5.2.5.0.0.6.w.X.| <.' ) W ",
"1.2.[ q.h.T.b.L.L.h.X._ C y ; - r f.].&X=X4X4X5X5X1X.XU.) y - + + + $ + @ - - 1 1 6 6 q y y 6 y M _ ( [ [ | ( [ $.$.T W } ) V W ",
"X.[ | w.g.j.h.h.h.X.Z g 0 ; - y f..X;X>X>X4X5X5X1X&X^.$.y - $ o + + + + @ = = = - - ; 1 6 7 , , 7 y D U Q R U T ^ U T Y ^ K K R ",
"^ [ | <.o.7.w.p.| Z g 6 - - y y.!.$X;X>X>X>X>X$XU.V.$.l ; = + + $ + + + + @ = - @ + @ - - - - - = ; 8 V _ T W W Y W T W K D N ^ ",
"^ [ [ [  .| X.<.W g 8 ; - 6 W V.oX.X$X&XoX_.^.L.0.M 8 ; = + + + + + + + = = = - @ + @ = - = + + + @ @ 7 V ^ ^ U Y U R Y / l N W ",
"E W T Q _ [ ! _ C q , - ; M W m.U.f.*.t.y.p.0.p.5.V 1 ; 1 0 , ; ; - = - - ; - ; - : - : - ; = = $ $ + @ , M R U A Q B / ) N l U ",
"U V Y W [ ' Q Z h 6 ; ; y V ^ $.R d f V ) W V M n 1 = ; y V n 6 1 ; - - - - - ; ; - - - ; , ; > > = + $ = , y B W T Q ) $.N n V ",
"n N V ' [ | [ C y 1 ; , l N V V r 6 8 n M n 8 6 ; = - t V ^ V n q 1 ; ; - ; ; , ; ; ; , , 7 1 3 < > @ + $ = ; l B ( ) *.} L N Y ",
"l N N [ 2.| | h y 7 ; , N l D f 9 6 8 y n n 8 6 1 , M d.b.5._ Z M q 6 , , 6 q 0 0 6 6 1 6 6 8 1 3 ; : + @ = - 6 V ^ =.*.*.L N V ",
"l V c } t.p.[ l q 0 , , D N f r 6 8 8 f M m y y n V ^ u.f.d.[ A C m y a q g g n h h 0 6 0 0 1 , 1 , - = = > ; , B &.} *.*./ V V ",
"x c H %.f.h.u.V y f 0 1 R l 7 7 9 7 8 8 f M m ! _ W W ( $.<._ Z Z M g g n y q q y 6 ; ; ; - = + @ + + = ; 7 0 , V #.[ ) ) J K B ",
"d H K =.p.n.l.<.y f M y N l < > = @ @ - 6 q g h n h m C m M g y q 0 , ; ; , ; ; - = @ @ + + + @ @ = - 8 l Y M q Y  .[ ) L H D D ",
"l H I I t.D.M.l.Y t D N n f 9 3 ; - , , 6 6 6 6 0 0 q 0 0 6 6 1 1 1 1 1 1 1 1 , ; ; , 1 1 1 6 1 1 7 y ^ X.| Y f ^ ] [ / H H N N ",
"J I / I *.K.f.m.0.n r W R V l f M M g n m m h m G F S G F G S D G +.S G S j g l f n y y g g 0 q g m [ p.5.| n B 2.2.R D c N c N ",
"J I / ) $.f.k.m.S.W y N $.^ V Y U T m g ! [ @.@. .+.] ' } $.` +.+.S S S n g n g g g g y g q 0 q V 5.b.q.| T n W 6.} N f c D N N ",
"J %.%.*.} *.f.B.l.0.l s Q [ W A W A Z M n Y n n S G D D n D N V d r r r 9 0 y r q t q y 8 q y B #.m.l.<.` M f ` ` / f f x D V Y ",
"I =.%.} %.%.y.y.u.p.W 0 N #.( ! W U W M y 0 8 3 7 9 9 9 9 9 r w 7 3 3 3 3 7 7 7 7 7 r t y y N ^ f.l.0.$.[ n M ^ T f s d l N ^ / ",
"I -.%.*.*.%.I / } t.^ f r $.o.| [ ( C n n f 8 6 8 t 0 p s s r w 9 7 < < 3 7 3 7 9 r 8 0 f D ^ y.m.y.$.2.Y n Y W D i 9 d K / / L ",
"%.-.%.=.=.%.H w H r.^ M 8 W 4.<.| _ Z g g f y y n M M M D l y r r 7 < < 3 7 7 r p y y y N ` y.y.l.t.0.[ M m Q B f s d c P ) K l ",
"P -.*.-.%.J u > 5 b l V l M <.q.| | A h g f f T 1.$.] ` W V l d 9 9 7 7 9 s d N D V D Y W f.l.f.y.h.y.R n U Z n f x c P / P L / ",
"P =.=.=.%.c 5 > : > w L } ^ 2.5.<.| ! M g n Y 5.b.y.0.2.1.[ R V l n D K L / ) ) 2.} ^ ^ 2.y.y.y.c.f.$.D Y Y N f N K N K L / ) / ",
"b %.I %.I c 5 * * > > u / S.g.w.o.p.( A B [ p.n.m.b. .6.<.y.$.r.*.*.%.*.t.y.*.$.$.#.W $.w.y.r.t.y.m./ W W K r r f K x H K %.*.8.",
"z P I I P x 2 % * * : > K !.T.S.2.w.6.[ | u.b.M.L.M.p.u.y.u.0.6.t.t.t.:.L.y.0.} ) ^ } 2.w.y.u.y.y.t.#.R ^ l 9 9 d K K K K ) r.t.",
"w H P I K d * % & & : 5 d V.)._.2.2.s.u.<.h.K.L.U.'.H.Y.f.U.m.L.x.Z.A._.2.t.t.1.[ [ ^ 2.2.6.y.V.t.t.} ) x d w e 9 l N L K ) %.-.",
"w z J I H e & % & & : > u -.#X^.m.6.u.h.n.M.U.Y.).).^.!.).|.).^.A.A.L.t.u.y.0. .^ W ` } 0.p.m.D.f.*.} K b i u e 7 7 d N / I d u ",
"5 5 b b d w % # % & & : 5 %.oXoXV.p.5.u.b.P.n.I.Y.R.m.H.D.Y.m.l.y.f.0.y.y.0.` ^ ^ ` ^ 2.f.L.L.L.m.-.K u b x u e : = 3 r r 5 4 4 ",
"% & 2 4 k 5 % O % % % : 3 P #X@X].y.<.u.~.!.U.J.Y.G.M.g.b.h.u.X.6.6.[ [ X.[ ] ^ 2.r.) #.D.L.^.U.t.P c w w w 4 7 2 $ = : > < < 4 ",
"O O # * 4 4 & O O % % : < ^ oX>Xt.-.Z.$XoX&X}.}.W.^.P.Y.D.N.p.g.1...U U T _ ` 2.8.y.} y.m.W.!.K.I c z i 4 > : 4 & # & 3 3 9 7 i ",
"O O O % * 2 * O O O % = 8 H.=X>X>X,X>X>X>X1X3X1X>X*X=X=XoXE./.!.J.S.} R R Q ^ #.2.s.B.J.[.^.C.%.H i w w 2 * & : # # > 7 r d f x ",
". . . # % * & # . O $ < #.).#X1X4X5X2X1X1X4X2X5X5X5X1X1X2X,XoX.XoX%X(.x.%.L D { f.J.V.).oXA.I H c w : * & & O O O # & < 9 r r d ",
". . . O # & % # . X # d t.}.=X-X1X2X2X-X:X:X:X:X<X<X:X:X:X:XOXOX+XOXOXOXOX>.I -.C.Z.A.A. X>.b v k w * & & # O O # # % * 5 5 w u "
};
