/* XPM */
static char *out[] = {
/* columns rows colors chars-per-pixel */
"64 64 206 2 ",
"   c #2B1608",
".  c #4A2415",
"X  c #5C2C1A",
"o  c #68321E",
"O  c #583F2A",
"+  c #763A24",
"@  c #7E3D26",
"#  c #63432F",
"$  c #6E402D",
"%  c #6A4D37",
"&  c #77523D",
"*  c #7F5D46",
"=  c #814A35",
"-  c #8E4B34",
";  c #96523A",
":  c #865540",
">  c #8C5D46",
",  c #9D5943",
"<  c #955F49",
"1  c #A45E45",
"2  c #89664F",
"3  c #9B644E",
"4  c #916A53",
"5  c #9A6F56",
"6  c #AB644A",
"7  c #A16851",
"8  c #AD6D51",
"9  c #A86D58",
"0  c #B36A51",
"q  c #B76F53",
"w  c #A1765D",
"e  c #A7755C",
"r  c #AE755B",
"t  c #B4715D",
"y  c #B97658",
"u  c #A87B63",
"i  c #AE7D64",
"p  c #B77764",
"a  c #BD7564",
"s  c #B27861",
"d  c #B47F64",
"f  c #BB7E63",
"g  c #C1785B",
"h  c #C87E61",
"j  c #AC836B",
"k  c #BE8466",
"l  c #B3876E",
"z  c #BA876A",
"x  c #BF8B6C",
"c  c #B78C72",
"v  c #BC8E72",
"b  c #C38264",
"n  c #CC8566",
"m  c #C78568",
"M  c #C4816F",
"N  c #C48A6C",
"B  c #CC8C6D",
"V  c #CC8C6E",
"C  c #D18969",
"Z  c #D48C6E",
"A  c #D88F6F",
"S  c #C98270",
"D  c #C88973",
"F  c #CC8A78",
"G  c #C39072",
"H  c #C69677",
"J  c #C89172",
"K  c #CC9475",
"L  c #CA997A",
"P  c #CF9C7E",
"I  c #D19071",
"U  c #D09072",
"Y  c #D29172",
"T  c #D09273",
"R  c #D39273",
"E  c #D49374",
"W  c #D59475",
"Q  c #DA9472",
"!  c #DD9876",
"~  c #D79778",
"^  c #D1967C",
"/  c #D89778",
"(  c #D59A7B",
")  c #D99878",
"_  c #D9997A",
"`  c #DB9A7A",
"'  c #DA9A7B",
"]  c #DC9B7B",
"[  c #DB9C7D",
"{  c #DA9D7E",
"}  c #DE9D7D",
"|  c #DC9D7E",
" . c #DD9D7E",
".. c #E09E7D",
"X. c #E2A07F",
"o. c #D89380",
"O. c #DD9E80",
"+. c #DE9F80",
"@. c #DF9F80",
"#. c #DD9986",
"$. c #D4A082",
"%. c #DFA081",
"&. c #DCA386",
"*. c #D8A485",
"=. c #DCA88A",
"-. c #DFAB8E",
";. c #DFAF94",
":. c #E0A081",
">. c #E3A181",
",. c #E0A182",
"<. c #E1A283",
"1. c #E3A282",
"2. c #E4A281",
"3. c #E5A382",
"4. c #E4A383",
"5. c #E6A483",
"6. c #E5A484",
"7. c #E6A584",
"8. c #E6A585",
"9. c #E7A685",
"0. c #E7A686",
"q. c #E9A887",
"w. c #E0A58A",
"e. c #E3AC8D",
"r. c #E7AD8F",
"t. c #E8A888",
"y. c #E9A888",
"u. c #E9A989",
"i. c #EAAA8A",
"p. c #EBAA8A",
"a. c #EBAB8B",
"s. c #EBAC8C",
"d. c #EBAE8F",
"f. c #ECAD8D",
"g. c #EDAD8D",
"h. c #EDAE8E",
"j. c #ECAE8F",
"k. c #EDAE8F",
"l. c #EEAF8F",
"z. c #E4B195",
"x. c #E9B193",
"c. c #EDB091",
"v. c #EEB091",
"b. c #EDB192",
"n. c #EEB192",
"m. c #EFB192",
"M. c #EFB293",
"N. c #ECB496",
"B. c #E6B599",
"V. c #EAB79A",
"C. c #EEB899",
"Z. c #EEBC9E",
"A. c #F0B394",
"S. c #F1B495",
"D. c #F0B496",
"F. c #F1B596",
"G. c #F1B597",
"H. c #F2B596",
"J. c #F2B698",
"K. c #F2B799",
"L. c #F3B899",
"P. c #F2B89A",
"I. c #F3B89A",
"U. c #F3B99A",
"Y. c #F3B99B",
"T. c #F4B99B",
"R. c #F4BA9C",
"E. c #F4BB9C",
"W. c #F4BB9D",
"Q. c #F5BB9D",
"!. c #F5BC9E",
"~. c #F5BD9E",
"^. c #F1BFA1",
"/. c #F5BEA0",
"(. c #F6C0A1",
"). c #F6C0A2",
"_. c #F6C1A2",
"`. c #F6C2A3",
"'. c #F7C2A3",
"]. c #F2C4A5",
"[. c #F7C4A5",
"{. c #F7C4A6",
"}. c #F7C5A6",
"|. c #F7C6A7",
" X c #F7C7A8",
".X c #F7C8A9",
"XX c #F0CBAD",
"oX c #F4CDAE",
"OX c #F8C8A9",
"+X c #F8C9AA",
"@X c #F8CAAB",
"#X c #F8CBAC",
"$X c #F8CCAD",
"%X c #F8CDAE",
"&X c #F9CEAF",
"*X c #F3D1B3",
"=X c #F7D1B2",
"-X c #F0D4B6",
";X c #FAD3B4",
":X c #FAD7B8",
">X c #F1D8B9",
",X c #F7D8BA",
"<X c #F5DBBB",
"1X c #FADDBE",
"2X c #F6DDC0",
"3X c #F9E1C3",
/* pixels */
"-.v.&.1.$.( L $.$.z.z.x.z.N.z.z.-.z.z.z.z.x.z.N.z.x.z.x.e.x.r.e.w.e.e.-.e.e.<.8.{ 6.<.<.' | [ ' ' [ ' ' ~ ~ T T D U V R U U U E ",
"$.i.6.&.P L J L -.=.-.-.B.B.z.;.;.z.z.z.z.x.x.r.b.x.r.r.C.C.e.e.e.e.r.r.b.r.u.e.s.y.6.+.+.+.+.+.+.| } ] | ( T U V B U U W Y E U ",
"J 0.{ ( K J x $.=.e.=.z.z.D.e.x.x.z.-.x.x.C.r.N.N.b.r.d.J.E.n.D.b.n.r.s.d.n.u.s.s.y...:.:.<.' ....&.' ..:.[ U I D U m B Z Y C C ",
"x [ ' ^ ^ ^ *.e.x.x.x.x./.K.N.D.N.D.r.b.C.S.E.U.K.S.D.n.K.K.v.d.n.n.u.a.v.v.s.t.s.y...} :.,.] ' :.[ ' ' +.( U V U C C C C C C n ",
"x { | =.w.r.b.K.C.C.G.T.D.U.K.U.U.E.U.~.E.~.E.K.J.K.G.P.N.D.n.A.d.s.s.f.u.q.u.i.u.i...| ' [ ] | ] &.| :./ W U B B B n B n C B C ",
"( e.x.b.D.K.U.K.W.E.~.U.E.K.G.P.W.E.!.G.E.E.K.G.P.K.K.S.S.A.d.s.s.a.u.u.q.7.u.i.l.0...| | ' { | ,.$.:.[ / U N m V C C C C C C C ",
"7.l.l.K.E.).D.U.W.~.C.K.W.R.N.K.T.R.N.K.K.E.b.D.J.L.d.J.J.E.d.s.n.n.0.y.y.y.4.g.s.y...{ | | ~ { +.4.| [ ~ R m b n C h m m n b m ",
"i.g.G.J./.E.U.K.E.~.J.G.E.~.G.G.R.I.M.D.K.U.A.D.U.U.S.J.E.U.D.n.A.i.0.u.l.h.u.i.l.r.:.| +.O.{ | <.<.| ~ ~ I n b n b h h n m b h ",
"+.0.l.J.P./.K.P.N.E.D.D.D.W.E.E.n.M.d.n.J.K.D.!.E.!.~.'.~.E.U.l.8.r.<.u.h.r.i.0.X.0.} } O.@.{ +.| <.[ ' Y Z n m f b g g g h g g ",
"w f ( =.D.J.U.K.E.D.N.d.J.K.E.J.n.d.s.s.n.!.!.(.'.~.{.'.'.~.d.u.W V N N J x k b V U R W [ O.+.| | [ / / W V m b f f f g g g h g ",
"O $ : i K <.u.G.M.n.d.s.H.J.D.D.n.d.<.u.d.U.E.).`.'.C.D.-.$.l 9 > : + + : < < 7 r f t f m V V / ' | E E E V b b f k y f g b g g ",
"# # + = 7 b T <.d.n.h.u.l.n.l.d.n.u.1.4.g.v.J.W.R.z.^ i < = $ X X . . . X $ + = > < 3 3 6 7 8 k V R U I U m b f f f y f b g g g ",
"l e 7 3 3 t f U <.s.k.s.u.s.s.d.0.8.} <.<.i.g.D.<.N 6 > + $ X X X X X + = < > : > 3 < , ; ; , 7 7 r f b b k f f y g y g y g y g ",
"-.=.^ N f d k m [ p.a.g.u.u.s.y.y.' E E W ' [ ] B 8 ; = + + $ + = 3 r N ( ^ T z k f p 9 7 < < 3 7 7 7 7 7 7 6 6 t q q q q q q 0 ",
"&.&.T V b k k U ' s.8.u.a.p.7.u.i.W h B V B m b t 1 - = = - ; 8 k ^ ~ 6.s.d.<.<.6.<.~ ~ U f 7 9 9 9 3 3 , > > , 6 8 6 6 6 0 6 6 ",
"D.n.6.[ V y 8 m ` :.9.y.p.0.y.y.i.W f f b m b t 8 , ; ; , 6 t b Y ~ ' / :.{ ] | 4.4.:.{ | R V b f r 7 3 3 > > ; , 1 1 1 6 6 6 6 ",
"K J G N b k 8 t m E 7.l.8.u.u.u.1.' m k f b y 8 1 , < , 1 6 6 f m U V B m m f f k n V ~ ~ / U E B f 9 9 7 3 < 3 1 6 6 8 8 8 8 8 ",
"O . . X & > 7 8 y m ) i.A.g.y.y.4./ V m b y 8 1 < ; ; ; - , k / <.e.u.1.&.' V f 8 ; ; 6 b U R V B b b f t t p y 8 8 6 8 t t y y ",
". O       X $ - 7 f n y.U.E.d.n.s.1.V m k t 1 , - - @ o ; f k d z z d k k G k k p 9 - @ - b N E ~ R b m m B b b f f t y f b y g ",
"O O     . . O o $ , m :.(. X/.U.J.s.~ f 8 6 1 ; - @ o @ 7 ; + . . .     . # # # + = & + + > b E U m b b m b b b f t q q y g f g ",
"> : # # # : < = o + g 0.U.&X@X{.E.n.~ t 1 8 1 ; - - @ + + = = O . .       .       . . . X + 3 8 8 8 g n m B B V m b f f f b g b ",
"#.K G x N m m b f m } v.OX;X;X X/.u.V 8 6 q 0 8 B b y t b m J l e 2 = & : > : : > : = = = 7 8 1 t m ~ ..:.X.X...' b t 8 8 8 8 8 ",
"0.4.~ W E Q Z ) ) ) 7.~.@X,X=X@XE.0.b 0 0 g m B ..y.X...} } ! 6.+./ m B U E b t t m h B U b 1 6 I X.W E ` ] U W B f 8 8 t f y f ",
"W Y U Y W Z n g g Y J.(.&X,X=X{.E.} h y g C ! 2.7.u.i.:.| Z Y Q ) Q C g g y g C ! ! C g 1 ; 0 W X.0.4.| [ I n m B V f y k f f f ",
"g g g g 0 6 1 y +.(.'.@X&X%X@XE.y.` n B C Y ` i.u.l.l.l.l.4.U y 6 0 8 8 8 q q q 6 1 ; , 6 B X.i.8.:...4.4.7.] | ] ] b s t t r d ",
"u.W k f b V <.E.OX+XOX@X@X@X(.v.} Z A ) ..:.X.y.l.l.s.m.U.E.U.d.6.~ V f y t 8 6 8 t B X.v.m.v.i.8.} ` ..9.i.u.y.7.} m t t t y r ",
"'.'.U.'.{.%X|.OX@X%X X;X%X@XD.0.) Z C ! y.n.y.l.l.l.y.K.S.~.D.J.U.E.U./.'.'.D.J.U.E.s.v.A.J.l.l.y.2.W ' X.g.2.u.7.4.m f y f t p ",
"%X[.E.|.$X@X@X+X=X&X%X&X%X{.v.} W Z C Q X.7.4.7.l.g.s.l.U.!.E.b.E.).(.'. X{.E./.'.~.J.h.S.l.l.l.s.y.>.| ..4.8.7.0.X.V f p f f k ",
"@X+X'.%X+X=X#X@X=X;X,X;X'.~.s.1.Q Q C C n n h g g C ! v.A.W.!.~.E.'.'.'.{. X{.{./.'.U.E.p.g.u.l.0.i.0.9.] 5.X.7.X.| V b t b b b ",
";X|.@X%X;X%X@X@X=X,X1X%X'.J.l.y.1...Z h g h n g 0 1 6 b :.A.~.E.{.'.OXOXOX{. X X{.'.~.D.n.p.p.y.l.i.0.,.2.| +.....] I b f m m B ",
",X=X$X&X&X%X{. X&X,X,X=X(.E.l.m.A.g.Q h h ) ..1.) h ; ; 8 V } v.U.'.).OX+X X/.{.{.'.J.J.v.m.0.l.p.l.4.y.:.:./ ' ..| B b n C m U ",
"&X&XOXOX X(.b.C.&X;X;X X'.U.J.J.J.X.A C Z 7.u.7.4.Q 8 - - 1 t V u.A.U.). X/.~.R.!.E.D.n.D.h.l.y.p.g.7.0.4.:.[ E ' ( N f b C B V ",
"!./.S.v.1.Y C D.+X;X%X%X{.'.~./.<.n g n Q 2...! C g 6 6 6 6 6 q m :.r.J.J.~.U.E.n.A.k.l.u.l.i.g.9.u.1.4.1.+.' ~ R ~ N b k V Y Y ",
"v.0.) C 0 , V /.%X,X,X=X@X{.~.6.b 8 6 6 6 1 , ; ; , 1 q g g f y t f ~ 4.g.K.A.h.l.p.f.g.a.p.l.i.5.:.1.| <.[ ~ R T ~ N N b V B B ",
"X.W y , = t x. X,X3X3X1X;X@X4.b 1 - o + @ @ + @ - 1 1 0 y y y g g t 8 m ' 7.u.i.y.7.X.0.a.f.>.1.:.+./ ' ~ ^ K ^ ~ ( V V U ~ V U ",
"Q g , @ 1 e. X=X,X3X3X,X%XD.b , = o + @ @ + + @ - = - ; 1 1 0 y y t 6 6 f V / ' ....' ..7.0.+.'  .' W E ^ K ^ ^ ~ T T ( { ~ U C ",
"g 6 = ; E /.&X,X;X,X=X{.r.T 6 - + + o + o + + @ @ - - - = - ; 1 , , ; ; ; 6 b / W ' W ' )  ._ ' ~ / U V N N K ^ T T ^  .[ ' B Z ",
"q ; = g r.{.&X+X X/.C.<.b 1 - = @ + @ + @ @ @ = - - - = @ @ = - ; - = + = = > p ~ } ] ' W Y Y Y W E U D N b V T ^ K ' ( ( ~ C B ",
"0 ; ; V b.`.r.d.r.d.s.<.k 1 ; , 8 1 = - - - = - ; 3 ; = - - - - ; ; = & + & $ = t E W | W W B Y E / U J N b N ^ T ^ K ( ( T m C ",
"6 ; 8 R e.U m E ' E V b 6 - , b T b 1 , , ; - - ; , , ; ; ; - ; , , , > : = @ @ = 7 b E ' W E U ~ ~ / K J k N K T K N V K m n n ",
"1 , y ( V p t b b t 8 1 - , k R W I b t 1 , ; ; ; ; , , ; , , 3 1 6 1 7 7 < = = + = ; f Y E ~ ~ ~ [ / ^ G x N K N K K V N n B n ",
"8 1 y T k 9 8 y f t 6 6 1 U n.g.7.) Z h y 6 6 1 6 q 0 6 6 6 6 1 6 q 0 6 8 1 , = + = = , m Y ` ' [ } ] ( J x G J J J K T V B B C ",
"8 8 t J d 9 7 y b k 8 f V <.u.v.s.X.Z n n h y g h n g h n n 0 0 0 a 0 6 0 0 , > = = = ; y W E ..:.<.' ( J G x N J L J K N U C C ",
"f 8 t x r 9 9 y b b B W [ ` W } 1.| I n C C h h h g g h h y 0 0 0 0 6 1 6 6 , ; > - ; 7 8 B `  .,.| | T T J x N L L L J D V B B ",
"V s f k 3 > - ; , t g h h n n C n m y y 0 8 1 , , , , , ; - - ; - - = = @ @ @ - - 8 f N t m @.<.{ ..' ~ V G x x H L L K k N m D ",
"1.m p x 3 - = = ; 1 1 , 1 6 1 1 6 1 , , , ; ; ; , , , ; - - - ; ; ; , , , , , 6 h ' [ ] m B | ] +.] / K V x x x K L K G N N N N ",
"d.<.t N d 8 9 p m n g h h g p a p M a M M S M D F M a a a p y g g h y g y y y Z y.g...:.B R ~  .| ..U I N x d k J J x G N V b N ",
"x.e.N k K V B C B ` ..} <.:.#.+.6.<.#.W W U F D M a M a m a a a g a y q g n ~ s.D.0.} ~ n E  .<.<.E N b x k d k x z N N J V N N ",
"=.v.{ b N ~ R Y C W ' } W #.o.#.o./ T F f p a y 9 t t t 0 a p a y y 8 y h } a.U.r.4.| R h | <.4.~ V k k f d k x d x N N K ( T U ",
"L r.e.T f V ~ R U n b k f f a p t 8 t r 9 7 3 < < 3 3 7 7 9 t t t t t f E m.J.n.e.<.| m m } <.] R b d k f i z d f N J K ( ( ~ ^ ",
"$.=.-.6.U m E / W C t 8 7 7 3 7 9 8 9 9 9 7 < < > < > 3 7 t 8 y t f y V 1.J.d.u.e.u.' b B } ~ ~ V N s d r d s f x J N P $.^ J J ",
"$.=.&.s.6.V R ..' B f 8 8 t 8 p f f f t r 9 7 3 3 < 3 7 r y y k b m V ~ n.n.A.u.d.d.~ b E ' W E V x d 9 r z d d J H L L P J J N ",
"L *.&.=.$.^ T 4.~ V b t 8 t t V m U V m f r 9 9 7 8 r f b I U ~ U ~ / 4.n.v.s.d.e.s./ B Y ~ I V N x r 9 r J J J x J J L K ( ( T ",
"L $.=.&.L x K | } E B f t y b <.0.4.:.' ~ V N N J T { <.e.u.i.<.t.<.<.4.x.d.u.6.u.e.' V / Y V T V x r 9 r r d L x x J J ( &.&.^ ",
"x $.P $.J d i J <.u.) m m B U s.l.u./ ( { 6.+.w.s.d.e.d.D.D.w.w.w.<.[ e.t.u.+.+.0.e.W T ( ~ K K J f e e e 7 9 J ^ J k J ^ &.&.6.",
"l L P P L d 2 e ^ v.i.` ' X.X.s.s.m.s.e.d.e.e.r.C.D.b.N.D.C.v.e.w.&.+.w.w.,.+.| 4.:._ ~ <.{ ~ T V d d d l e 9 f K K J J P &.w.0.",
"w G L $.J d : 2 e ' s.l.4.8.a.k.d.D.J.A.E.D.U.R.^././. X'.~.u.8.+.,.| ,.( { { | +.1.+.<.<.&.{ ( G d d z i e 9 r s N K K ^ *.$.( ",
"w l H L x w & & * e $.A.A.8.t.u.j.n.S.K.E._./.`.(./.).W.(.D.,.:.6.,.:.~ ~ ~ [ O.O.,.8.t.b.<.{ ( J i l x j i d 7 < r x K P G i w ",
"5 5 v x d w # # & 2 e K ~.U.0.t.u.h.d.D.Y.E.F.L.b.C.r.r.r.c.4.8.,.<.E / / | _ +.<.e.<.d.M.J.&.( K i 4 x l l e w = > 9 r 9 5 4 4 ",
"% * 2 4 i 5 # O % & : 5 e.@XD.s.y.t.b.E.~.I.c.r.k.r.4.6.3.0.>...| ~ W ~ ..] +.<.{ | r.b.Q.P.e.L J d 7 w e 5 3 3 & & > : > < < 4 ",
"O O # * 4 4 & O O # & < x .X Xr.&.(.).@X{.{.C.Y.~.K.c.k.0.0.0...W W I W ) O.%.t.6.<.b.P.U.W.r.L z i j 4 4 > : 4 % # > 3 3 9 7 i ",
"O O O % * 2 * O O O & : b |.&X+X=X&X&X=X;X,X,X,X$X%X+X|./.R.Y.Y.M.8.E T W W _ O.<.i.M.G.).W.r.H x e w 4 2 * & & O # < 7 r d f z ",
". . . # % * & # . O $ < O./.+X,X2X3X<X,X,X2X<X3X3X3X,X,X<X:X}.[.|.#X^.z.$.K D [ d.G.N./.}.Z.P G x w : * & & O O O # & < 9 r r d ",
". . . O # & % # . X # d e.'.*X*X,X<X<X*X-X-X-X-X>X>X-X-X-X-XXXXXoXXXXXXXXX;.P =.B.V.V.].].;.v c j w * & & # O O # # % * 5 5 w u "
};
