/* XPM */
static char *out[] = {
/* columns rows colors chars-per-pixel */
"64 64 231 2 ",
"   c #2B1608",
".  c #4A2415",
"X  c #5C2C1A",
"o  c #68321E",
"O  c #583F2A",
"+  c #763A24",
"@  c #7E3D26",
"#  c #63432F",
"$  c #6E402D",
"%  c #6A4D37",
"&  c #77523D",
"*  c #7F5D46",
"=  c #814A35",
"-  c #8E4B34",
";  c #96523A",
":  c #865540",
">  c #8C5D46",
",  c #9D5943",
"<  c #955F49",
"1  c #A45E45",
"2  c #89664F",
"3  c #9B644E",
"4  c #916A53",
"5  c #9A6F56",
"6  c #AB644A",
"7  c #A16851",
"8  c #AD6D51",
"9  c #A86D58",
"0  c #B36A51",
"q  c #B76F53",
"w  c #A1765D",
"e  c #A7755C",
"r  c #AE755B",
"t  c #B4715D",
"y  c #B97658",
"u  c #A87B63",
"i  c #AE7D64",
"p  c #B77764",
"a  c #BD7564",
"s  c #B27861",
"d  c #B47F64",
"f  c #BB7E63",
"g  c #C1785B",
"h  c #C87E61",
"j  c #C07B6B",
"k  c #AC836B",
"l  c #BE8466",
"z  c #B3876E",
"x  c #BA876A",
"c  c #BF8B6C",
"v  c #B78C72",
"b  c #BC8E72",
"n  c #C38264",
"m  c #CC8566",
"M  c #C78568",
"N  c #C48A6C",
"B  c #CC8C6D",
"V  c #CC8C6E",
"C  c #D18969",
"Z  c #D48C6E",
"A  c #D88F6F",
"S  c #C88973",
"D  c #CC8A78",
"F  c #D08B78",
"G  c #D38E7E",
"H  c #C39072",
"J  c #C69677",
"K  c #C89172",
"L  c #CC9475",
"P  c #CA997A",
"I  c #CF9C7E",
"U  c #D19071",
"Y  c #D09072",
"T  c #D29172",
"R  c #D09273",
"E  c #D39273",
"W  c #D49374",
"Q  c #D59475",
"!  c #DA9472",
"~  c #DD9876",
"^  c #D79778",
"/  c #D1967C",
"(  c #D89778",
")  c #D59A7B",
"_  c #D99878",
"`  c #D9997A",
"'  c #DB9A7A",
"]  c #DA9A7B",
"[  c #DC9B7B",
"{  c #DB9C7D",
"}  c #DA9D7E",
"|  c #DE9D7D",
" . c #DC9D7E",
".. c #DD9D7E",
"X. c #E09E7D",
"o. c #E2A07F",
"O. c #CA9E84",
"+. c #D89380",
"@. c #D89982",
"#. c #DD9E80",
"$. c #DE9F80",
"%. c #DF9F80",
"&. c #DD9986",
"*. c #D99E87",
"=. c #D4A082",
"-. c #DFA081",
";. c #DCA386",
":. c #D8A485",
">. c #D7A88D",
",. c #DCA88A",
"<. c #DFAB8E",
"1. c #DBAB91",
"2. c #DFAF94",
"3. c #E0A081",
"4. c #E3A181",
"5. c #E0A182",
"6. c #E1A283",
"7. c #E3A282",
"8. c #E5A382",
"9. c #E4A383",
"0. c #E5A383",
"q. c #E5A483",
"w. c #E6A483",
"e. c #E5A484",
"r. c #E6A584",
"t. c #E6A585",
"y. c #E7A685",
"u. c #E7A686",
"i. c #E8A786",
"p. c #E8A787",
"a. c #E9A887",
"s. c #E0A58A",
"d. c #E3AC8D",
"f. c #E7AD8F",
"g. c #E8A888",
"h. c #E9A888",
"j. c #E9A989",
"k. c #EAA989",
"l. c #EAAA8A",
"z. c #EBAA8A",
"x. c #EBAB8B",
"c. c #EBAC8C",
"v. c #EBAE8F",
"b. c #ECAC8C",
"n. c #ECAD8D",
"m. c #EDAD8D",
"M. c #EDAE8E",
"N. c #ECAE8F",
"B. c #EDAE8F",
"V. c #EEAF8F",
"C. c #EDAF90",
"Z. c #EEAF90",
"A. c #E4B195",
"S. c #E9B193",
"D. c #EDB091",
"F. c #EEB091",
"G. c #EDB192",
"H. c #EEB192",
"J. c #EFB192",
"K. c #EFB293",
"L. c #ECB496",
"P. c #E6B599",
"I. c #EAB79A",
"U. c #EEB899",
"Y. c #EEBC9E",
"T. c #F0B293",
"R. c #F0B394",
"E. c #F0B495",
"W. c #F1B495",
"Q. c #F0B496",
"!. c #F1B596",
"~. c #F1B597",
"^. c #F2B596",
"/. c #F2B697",
"(. c #F2B698",
"). c #F2B798",
"_. c #F2B799",
"`. c #F3B799",
"'. c #F3B899",
"]. c #F2B89A",
"[. c #F3B89A",
"{. c #F3B99B",
"}. c #F4B99B",
"|. c #F4BA9B",
" X c #F4BA9C",
".X c #F4BB9C",
"XX c #F4BB9D",
"oX c #F5BB9D",
"OX c #F5BC9D",
"+X c #F5BC9E",
"@X c #F5BD9E",
"#X c #F1BFA1",
"$X c #F5BEA0",
"%X c #F6BEA0",
"&X c #F6BFA0",
"*X c #F6C0A1",
"=X c #F6C0A2",
"-X c #F6C1A2",
";X c #F6C1A3",
":X c #F6C2A3",
">X c #F7C2A3",
",X c #F6C3A4",
"<X c #F7C3A5",
"1X c #F2C4A5",
"2X c #F7C4A5",
"3X c #F7C4A6",
"4X c #F7C5A6",
"5X c #F7C6A7",
"6X c #F7C7A8",
"7X c #F7C8A9",
"8X c #F0CBAD",
"9X c #F4CDAE",
"0X c #F8C8A9",
"qX c #F8C9AA",
"wX c #F8CAAB",
"eX c #F8CBAC",
"rX c #F8CCAD",
"tX c #F8CDAE",
"yX c #F9CEAF",
"uX c #F3D1B3",
"iX c #F7D1B2",
"pX c #F0D4B6",
"aX c #F6D4B6",
"sX c #FAD3B4",
"dX c #FAD7B8",
"fX c #F1D8B9",
"gX c #F7D8BA",
"hX c #F5DBBB",
"jX c #FADDBE",
"kX c #F6DDC0",
"lX c #F9E1C3",
/* pixels */
"2.K.k.h.' K d k w k J I =.>.,.2.A.A.A.A.A.I.A.I.P.Y.I.Y.Y.$XY.Y.I.Y.Y.].~.[.~.^.D.K.v.F.C.K.J.C.g.j.6.g.e.5.' { Q ^ ^ ' ( ( R T ",
"<.l.m.b.y.Q l k u k P =.=.,.1.A.A.A.A.A.P.I.I.Y.$X:X5X-X5X,X>X-X-X-X%X+X@X X X X[.~.W.J.T.C.J.n.n.g.p.9.t.7.o.] ' ' ' ' | ' ( T ",
"H ~ | w.0.' x k d b I =.<.A.A.Y.Y.Y.Y.$X:X<X:X,XwXwX,XwX7XwX@X$X=X;X[.|.XX+XQ.'.~.K.l.c.f.J.k.l.u.x.5.u.p.8.^ [ ]  .W | X.[ Y Z ",
"N A ! ~ ~ Z l N =.f.I.Y.:X:X:X:X5X5X<X:X5X,X-X:X0X7X7X4XtX:X%X%X;X@X'.(. X`.Q.^.'.T.K.g.j.n.u.w.t.7.w.t.3.| ' ' ..' [ | X.^ T Z ",
"c ~ ~ _ ! ! ^ g.L.E.(.|.U.%X{.;X-X5X,X4X-X<X|.%X@X5X,X0X,X<XoX&X X X[.(.W.(.~.[.Q.~.G.K.l.l.u.u.7.u.u.g.| #.] #.` %...%.E E Y Z ",
"J ~ [ | X.[ _ [ t.e.n.V.W.|.&X=X>X;X<X;X:X>X'._.+X:X4X5X5XXX'.(.XXXX}.^.].(.|.|.[.^.Q.Z.M.j.p.r.i.l.l.l.p.0.$.| #.#.5._ W Z C C ",
"J 8.E K x e 4 5 w 5 5 x ;.).~.XX$X2X+X;X<X:XW.Q.`.5X+X4XXX+XC.E.~.:X'.$X+X5X%X&X+XXXK.g.e.6.{ 6.u.l.7.6.6.t.( X.6.e.#.#.Q Z m m ",
"J Q r < : = + # # O X # : i K *.S.Q.XX@X3X%XB.v.W.|.&X+X|.W.v.v.XX'.:X>X<X,X,X$X).g.) N x d r p l d d n Y T T Q 6.$. .] _ C h h ",
"J n 1 8 s x b d : $ o $ $ = 3 s S #.c.(.^.|.^.J.g.).|.Q.K.B.j.c.B.%XoX&X%XY.<.L d 9 : $ $ o o $ & : > 9 r f f M B _ ] -.E C h n ",
"I V R ;.T.L.I.L.f.O.x r 9 7 7 0 f S ^ l.T.W.B.M.l.v.G.v.l.l.t.e.c.l.(.F.6.c 9 = $ X . . . . . X o $ + = > 3 7 7 9 f V W T m h g ",
"<.g.3.B.J.(.L.(._.I.;.s.:.` N l n M S 3.B.W.n.C.x.J.u.C.e.%._ ..%.e.5.` f 7 = $ o X . . X $ & < 3 < : : < < : > < 3 1 y N M y g ",
"f.j.9.e.g.3.{ { e.s.6.3.e.Q V V Y Y T | B.B.M.l.M.z.x.n.%.B V B E Q Y f 7 = + $ $ + + : 9 d K ) #.R f s d 9 < < < < : < 3 9 y y ",
"g.e.7.t.T n Q f.I.|.XXW.j.5.M f f B W 6.u.l.j.M.t.l.n.C.] n f n n M f 0 ; - = = = < 9 l R #.e.d.e.g.#.` K Y l s 7 3 < < : > 1 t ",
"F.3.4.E y R Y.$X-X-X_.B.g.8.( g 0 y V Q 3.t.j.b.x.l.k.k.%.n y f f f 0 1 ; ; ; , 7 9 f M Y R Y T R Q Q ^ } ` W V l p 9 < > - ; 6 ",
"Q.W.[ n n f.L.I.<.=.x f d n f g y 0 y M _ u.l.T.F.V.q.p.{ Y n f f t 1 , ; ; ; ; , 1 p S Y Y f n f y 6 6 y N M Y Y S r 9 < > - ; ",
"F.Q.6.f Q f.I e * # X . . . X + ; 1 6 f W %.B.).(.J.F.V.6.W n f t 6 ; - ; = + @ 8 S @.s.s.;.Q Y V n t , = - 6 n V n f s r 7 7 8 ",
"| g.6.n V i $ .     . O       . X $ - 8 C [ B.<X$X+XW.^.e.^ l 0 1 , - = @ o @ 9 f d 9 e 3 4 3 w 9 9 9 5 < = + 7 S Y M n y s l y ",
"( ( ( g 3 o . . . O # O . . . . # X o + y %.T.7XyX7X:X XT.Q 0 , , ; = + o X > - = X . .         . . . . . X X # 9 R Y n n n l n ",
"V f 1 - - t 9 9 i i 7 3 > * * > < > = ; y T.Q.rXgXsX0XXXl.B 1 1 1 ; - ; = @ @ - < : O . . . . . . . . . . . . X = 8 1 8 g n f y ",
"_ T B V Q 3.g.e.f.f.6.) ) R R n B M U [ g.|.%XrXgXsX5X'.6.f 1 1 0 6 y Y ^ Q W Q ` ) K f 9 < < < 5 < < < > - = - 8 6 y E 3.8.o.[ ",
"V.'.W.W.3...e.l.3.3.| [ U U U A A ! C C e.%X+XyXsXyX<X|.{ g 6 6 g T V [ 8.3.W Q ^ 3.#.$.C M S V n n f f n M C C 1 6 n M C ] [ V ",
"c.B.T.T.W.J.8.( Q Z A E Q Z Z m g q y { $X:X4XwXyXwX$Xc.Q g y y m Q 8.8.w.g.w.] M g h h h y 0 0 y h C Z C h 8 - ; V %.[ M y 8 6 ",
"u.V.B.|.$X+XW.j.Q m 0 q q q 1 1 0 E L.5X7XwXwXyXyX7XT.3.U M h Z U _ | g.u.b.p.J.c.Q 0 1 1 1 , 1 1 1 ; ; - = - f | %.^ %.%.M 0 n ",
"l.T.V.XX<X5X=X@XoXJ.3.Q T R E 6.$X7X-X5XwXwXyXwXyX:Xl.Q m C Z _ 8.3.7.7.x.l.B.T.`.(.Q.v.g.Q n y y 8 t f V ] u.u.l.%.Y T %.$.Q V ",
"u.l.V.$X+XwXyXrX-X%X|.|.XX<X5XwX,X5X,XtXqXgXsXyX:X|.8.Q M m Z ~ [ w.t.p.i.l.l.K.D.'.(. X&X-X-X&X).(.W.^.J.T.B.M.u.p.` V E u.6.V ",
"B.n.%XoXrX0XsXyXtX,X+XXX%XrXrX7X7X,X4X0XyXgXsXwX$XT.8.! Q C m m m m m C [ g.m.K.W.^.~.}.@X$X<X;X@X X`.(./.V.V.b.g.9.X.Q T 3.7.S ",
"B.^.W.5XwXgXsXsXsX5X'.oXwXsXwXwX:X,X5XyXiXjXgX5X|.T.u.p.7.[ h y y g 8 1 8 g ] F.'.`.~.%X&X0X;X;X=X<X'. X~.B.8.g.t.g.| | W | ' V ",
"F.%X:X5XyXgXjXgXgXwX&X5X0XyXqXwXwX4X6XrXgXgXjX<X|.'.n.x.B.8.m y h A A h 0 , 6 C B.W./.XX<X>X>X,X4X-X[._.XXB.l.w.g.t.8.o.%.( | Y ",
"T.|.<XwX,XgXgXjXgXsX0XrX7XrXrXyX5X0X5XwXsXgXsX7X'.'.W.'.B.8.C h C u.8.o.C 6 - , f %.B.}.XX<X,X5X*X>X+X|.T.V.l.l.t.t.0.w.{ ^ _ ^ ",
"T.$X+X$XwXrXiXgXgXsXyXeXwX:X).B.l.^.7XyXsXgXsX<X|.+X XXX%.m h h _ u.3.~ Z 0 ; ; , t ^ g.W.(.%X$XoX'.(.T.J.n.x.x.z.g.w.0.3.Q ^ ( ",
"'. X^.=X5X0X,XqX<X$XQ.T.B.8.m g ] %X5XyXsXgXyXiX5X<X|.6.l 0 6 0 g a 0 0 6 6 6 q 0 0 0 A u.M.v.'.'.Q.C.V.J.C.t.p.l.b.7.t.w.{ Q Q ",
"T.V.W.oX;XoX+X|.Q.l.3.A h 6 , m |.7X7XsXjXlXkXlXsX:X6.y 1 - @ @ + + + = , 6 q y y y q q U | 9.l.V.J.l.x.b.j.i.u.l.p.%.%.7.] E U ",
"7.n.F.}. X+XQ.B.%.Q h 8 - , U $X7XrXyXjXlXlXlXjX5Xl.f , + $ + @ + + + - ; , , 8 0 y y y y M U %.8.u.i.w.8.u.t.j.%.3.#.o.{ ] Q E ",
"w.b.n.T.(.^.l.[ Z g 1 = ; ) Y.wXyXsXsXgXlXlXyX<XI.S , - + + + $ + o + @ = - - ; , 0 y y 0 0 f C ( [ | [ X.%.7.3.{ { [ ` ` ^ T B ",
"6.M.y.a.J.l.Q m y 1 = ; ^ XX7XyXgXgXyXiXrX7XL.{ M 6 = @ + + o + + + $ + = = = + @ ; ; , 1 7 , 8 M ( Z ( _ ' Q ` ` ` R R Q ] Y Y ",
"7.p.y.w.x._ M y 6 - ; n c.:XwXrXyX:XY.Y.$XQ.#.y 1 ; - - ; - = = = = = = ; - @ + @ - - - - - = - 7 V ] ] X.^ T T Q W R N R R W R ",
"%.q.| w.[ U a 6 ; ; y ( g.:XI.s.s.g.e.g.g.v.%.n 1 6 n R y 1 , ; - = - ; ; , - - = - - - = + $ + + < n %. .] Y T Y Q R N n Q ) ( ",
"' | | | _ n 0 , ; 1 V Q g.e.M f V ) ( S n f 6 = = 1 V ( B y 6 , , ; - - ; ; ; ; ; - ; ; > = & & + $ > f W ( E Y Q Q ` N M Q ( E ",
"[ ..! ( A f 1 , ; f V Y { M 8 8 f V n f 6 1 - - y { [ [ [ U g 0 1 , ; , , 1 , ; , 1 ; , 7 7 < - = + + - f T B T ( ` ) V l ) R T ",
"( ( ( Q Z y 6 1 ; y S l R f 8 8 f n l f 8 8 1 f c.'.W.u.%.~ C g y 6 1 q h g q 0 q 6 6 6 8 6 1 , - = + + , f V Q #.#.*.R l K Y Y ",
"V _ Q ] V y y 1 ; y M N N d 8 y f n M B n V Y { u.n.D.l.8.| A C m h h m C Z C Z g q 0 y q 6 1 6 < = $ & = 1 Y { #.6.6.) l R E U ",
"N Q ` ` A 0 y t 1 t K l d s s r y g n m ^ 3.3._ ] ' | | ~ A C C m h h h h m m g q 0 0 0 0 6 6 1 , - = = ; , B { s.6.s.I N R R V ",
"l ) _ 3.[ g 8 M t d R f 1 3 ; ; ; 1 0 h C Z m Z C C h g y q 6 1 ; ; - , , , - = = = @ = = @ @ @ @ = - 3 t 1 l %.s.9.=.I H L R R ",
"l R %.w.u.V 0 S R f V f 8 ; @ + - 1 1 6 0 8 0 q y 0 6 6 6 6 6 1 6 1 , , 1 ; - = = = = = = = = = = ; p n Q 0 V [ $.$.) K K L R V ",
"f R *.f.f.e.f f Q V n M f p r t n m g h h m S D D G G G G G G G F F D D g g q y 0 y 0 y 8 0 6 1 1 V [ 8.( n E 3.' | R L K L K S ",
"x N *.B.Q.R.) y V ) R Y V V C B M m _ | 3.7.3.+.e.d.<.<.d.{ G D F S j a a j j g g g g y q 0 0 g Q u.g.X.T l ` { { ) K N H I N N ",
"J I E s.W./.g.N d ( ) Q ' Q V Q A C ~ { [ ( Y G &.@.D R L Y p r 9 9 7 7 r 8 6 8 y q 0 0 0 q l _ T.B.( ( M T | %.` R l N H L l N ",
"P I P } G.).).6.f l ` Q T Y U Q [ m M f y p t t t 9 9 9 r 9 3 < 3 3 < < 3 3 3 9 t t 8 0 0 y E B.Q.e.{ T n Q %.#.R x d l c H c M ",
"L :.:.*.f.W.~.(.R y V [ ) _ ^ ~ U M y 0 1 7 7 9 9 9 9 9 9 e 9 3 < > < > > < 3 7 9 9 8 t p Y g.Q.s.3.[ V y ] ` R f d d x x K M Y ",
"P :.:.:.=.f.E.E.<.n s ` 6.$.' [ U h y t t 8 8 s d p d p d r 9 7 < > < > < 7 9 9 9 8 t f E c.B.v.u.6.{ n M ( ^ n s d d d H V R ) ",
"=.,.=.:.*.*.g.C.M.` 9 M u.l.~ ~ A h 0 y y y f l S S l n l r 9 9 7 3 > 7 r f f f f n l E B.Q.n.G.f.g.V l W ( B f r s e x L ) R K ",
"=.:.:.;.,.=.#.) 6.{ l f 6.i.[ ~ ! h y y n V 3.[ | _ W T B l s r r r s f K Q ( { Q E Q ;.Q.K.f.f.v.f.n M ( E l r s r f H I =.K N ",
"P :.;.:.:.I x e x *.L N T t.t.o.! m a h B 6.B.C.l.x.u.u.[ ` R R R =.;.<.g.g.9.p.6.#.] f.f.v.d.v.f.{ l W V M r f i l N R L / P / ",
"J :.,.:.:.H u > 4 r x L %.l.u.[ | A m C 8.B.Q.v.f.9.9.g.j.j.g.s.d.f.f.G.L.f.t.#.{ o.u.f.j.g.j.g.f.T Y W Y s s H J H N K L L I / ",
"b =.=.=.I b e > * 4 4 c g.'.J.3.u.w.Q 8.T.'.C.K.T.C.9.F.D.J.g.v.Y.Y.L.L.L.f.` #.-.l.6.u.g.c.e.f.v.] Y ^ n r 9 s L H f H K =.*.} ",
"z P I I I z 4 & & * * 5 =.|.XXu.g.x.r.%.T.W.(.).{.'.Q.K.~.~.~.Y.:X,X&XI.L.G.6...9.3.6.5.7.g.e.g.s.` ` V x e 7 9 l P N c K L ;.s.",
"w H P =.P z * % & & * 5 x $X-X+X3.g.z.p.F.|.oX&XXX&XXX&X:X%X-X5XY.$XI.;.g.c.d.6.] } ` 5.-.l.F.E.u.*.R x d k w e s K K V N I =.;.",
"w x J I H e * # % % * 4 d I.0X$Xc.9.l.l.V.W._.}. X XOX+X$X<X:XI.I.f.v.t.d.f.e.( ( ) } $.g.Q.'.Q.<.=.H x d d u e 7 r l H P P z i ",
"5 5 v b x w % # % & % * 9 <.0X:XL.l.3.w.F.(.K.E.Q.}.v.n.B.K.d.g.g.c.9.6.9.7.] ] { #...e.F.}.~.'.<.:.i d H k u e : < 7 i x w 4 4 ",
"% & 2 4 k 5 & O # # % : 7 ;.wXeXoX6.9.'.4X%X.X}.oX!.H.N.H.f.7.3.t.o.` ^  . .' { q.g.( e.~.+XXXL.=.H i 3 u w 5 7 > $ : > > > > > ",
"O O # * 4 4 * O O # % : 3 f.wXrX:.I.:X5XwXeX6X6X$X-X+X+XQ.K.F.c.e.3.E U Y ` [ u.g.j.e.K.'.oX+X<.J i x 5 > * > 4 & O : 3 3 9 3 i ",
"O O O % * 2 * O O O % = f ).wXiXsXgXaXtXyXgXkXhXiX9XsX0X0X$X%X.X}.E.#.R R Q ^ ] -.t.K.~.XX-XL.L H e i 5 4 * & & # # < 7 r d f x ",
". . . # % * & # . O $ < #.$XqXgXkXlXhXgXgXkXhXlXlXlXaXgXhXdX4X4X5XeX#XA.=.L S { v.~.L.$X4X#XI H c w * * & & O O O # & < 9 r r s ",
". . . O # & % # . X # d d.,XuXuXgXhXhXuXpXpXpXpXfXfXpXpXpXpX8X8X9X8X8X8X8X2.I ,.P.I.I.#X1X2.b v k w * & & # O O # # % * 5 3 w u "
};
