/* XPM */
static char *out[] = {
/* columns rows colors chars-per-pixel */
"64 64 225 2 ",
"   c #2B1608",
".  c #4A2415",
"X  c #5C2C1A",
"o  c #68321E",
"O  c #583F2A",
"+  c #763A24",
"@  c #7E3D26",
"#  c #63432F",
"$  c #6E402D",
"%  c #6A4D37",
"&  c #77523D",
"*  c #7F5D46",
"=  c #814A35",
"-  c #8E4B34",
";  c #96523A",
":  c #865540",
">  c #8C5D46",
",  c #9D5943",
"<  c #955F49",
"1  c #A45E45",
"2  c #89664F",
"3  c #9B644E",
"4  c #916A53",
"5  c #9A6F56",
"6  c #AB644A",
"7  c #A16851",
"8  c #AD6D51",
"9  c #A86D58",
"0  c #B36A51",
"q  c #B76F53",
"w  c #A1765D",
"e  c #A7755C",
"r  c #AE755B",
"t  c #B4715D",
"y  c #B97658",
"u  c #A87B63",
"i  c #AE7D64",
"p  c #B77764",
"a  c #BD7564",
"s  c #B27861",
"d  c #B47F64",
"f  c #BB7E63",
"g  c #C1785B",
"h  c #C87E61",
"j  c #AC836B",
"k  c #BE8466",
"l  c #B3876E",
"z  c #BA876A",
"x  c #BF8B6C",
"c  c #B78C72",
"v  c #BC8E72",
"b  c #C38264",
"n  c #CC8566",
"m  c #C78568",
"M  c #C48A6C",
"N  c #CC8C6D",
"B  c #CC8C6E",
"V  c #D18969",
"C  c #D48C6E",
"Z  c #D88F6F",
"A  c #C98270",
"S  c #C88973",
"D  c #CC8A78",
"F  c #D38E7E",
"G  c #C39072",
"H  c #C69677",
"J  c #C89172",
"K  c #CC9475",
"L  c #C09379",
"P  c #CA997A",
"I  c #CF9C7E",
"U  c #D19071",
"Y  c #D09072",
"T  c #D29172",
"R  c #D09273",
"E  c #D39273",
"W  c #D49374",
"Q  c #D59475",
"!  c #DA9472",
"~  c #DD9876",
"^  c #D79778",
"/  c #D1967C",
"(  c #D89778",
")  c #D59A7B",
"_  c #D99878",
"`  c #D9997A",
"'  c #DB9A7A",
"]  c #DA9A7B",
"[  c #DC9B7B",
"{  c #DB9C7D",
"}  c #DA9D7E",
"|  c #DE9D7D",
" . c #DC9D7E",
".. c #DD9D7E",
"X. c #E09E7D",
"o. c #E29F7D",
"O. c #E2A07F",
"+. c #D89380",
"@. c #DD9E80",
"#. c #DE9F80",
"$. c #DF9F80",
"%. c #DD9986",
"&. c #CFA186",
"*. c #D4A082",
"=. c #DFA081",
"-. c #DCA386",
";. c #D8A485",
":. c #D7A88D",
">. c #DCA88A",
",. c #DFAB8E",
"<. c #DBAB91",
"1. c #DFAF94",
"2. c #E0A081",
"3. c #E2A181",
"4. c #E3A181",
"5. c #E0A182",
"6. c #E1A283",
"7. c #E3A282",
"8. c #E4A281",
"9. c #E4A382",
"0. c #E4A383",
"q. c #E5A483",
"w. c #E6A483",
"e. c #E5A484",
"r. c #E6A584",
"t. c #E6A585",
"y. c #E7A685",
"u. c #E7A686",
"i. c #E8A786",
"p. c #E8A787",
"a. c #E9A887",
"s. c #E0A58A",
"d. c #E3AC8D",
"f. c #E7AD8F",
"g. c #E8A888",
"h. c #E9A989",
"j. c #EAAA8A",
"k. c #EBAA8A",
"l. c #EBAB8B",
"z. c #EBAC8C",
"x. c #EBAE8F",
"c. c #ECAC8C",
"v. c #ECAD8D",
"b. c #EDAD8D",
"n. c #EDAE8E",
"m. c #ECAE8F",
"M. c #EDAE8F",
"N. c #EEAF8F",
"B. c #EEAF90",
"V. c #E4B195",
"C. c #E9B193",
"Z. c #EDB091",
"A. c #EEB090",
"S. c #EFB090",
"D. c #EEB091",
"F. c #EDB192",
"G. c #EEB192",
"H. c #EFB192",
"J. c #EFB293",
"K. c #ECB496",
"L. c #E6B599",
"P. c #EAB79A",
"I. c #EEB899",
"U. c #EEBC9E",
"Y. c #F0B293",
"T. c #F0B394",
"R. c #F1B495",
"E. c #F0B496",
"W. c #F1B596",
"Q. c #F1B597",
"!. c #F2B596",
"~. c #F2B697",
"^. c #F2B698",
"/. c #F2B799",
"(. c #F3B799",
"). c #F3B899",
"_. c #F3B89A",
"`. c #F3B99A",
"'. c #F3B99B",
"]. c #F4B99B",
"[. c #F4BA9B",
"{. c #F4BA9C",
"}. c #F4BB9D",
"|. c #F5BB9D",
" X c #F5BC9D",
".X c #F5BC9E",
"XX c #F5BD9E",
"oX c #F5BD9F",
"OX c #F1BFA1",
"+X c #F5BEA0",
"@X c #F6BEA0",
"#X c #F6BFA0",
"$X c #F6BFA1",
"%X c #F6C0A2",
"&X c #F6C1A2",
"*X c #F6C1A3",
"=X c #F6C2A3",
"-X c #F7C2A3",
";X c #F6C3A4",
":X c #F2C4A5",
">X c #F7C4A5",
",X c #F7C4A6",
"<X c #F7C5A6",
"1X c #F7C6A7",
"2X c #F7C7A8",
"3X c #F0CBAD",
"4X c #F4CDAE",
"5X c #F8C8A9",
"6X c #F8C9AA",
"7X c #F8CAAB",
"8X c #F8CBAC",
"9X c #F8CDAE",
"0X c #F9CEAF",
"qX c #F3D1B3",
"wX c #F0D4B6",
"eX c #F6D4B6",
"rX c #FAD3B4",
"tX c #FAD7B8",
"yX c #F1D8B9",
"uX c #F7D8BA",
"iX c #F5DBBB",
"pX c #FADDBE",
"aX c #F6DDC0",
"sX c #F9E1C3",
"dX c #FBE5C7",
/* pixels */
"1.G.r.4.Q M j j w l H I *.1.<.1.<.<.<.<.:.1.<.1.<.1.1.1.1.1.1.1.<.1.<.1.d.1.d.V.s.d.>.,.s.x.f.f.s.s.5.-.s.5.] { ^ ^ ^ { ( ( R T ",
",.j.b.w.X.M d j u j P I I <.1.<.<.>.>.:.<.<.1.1.1.1.1.V.V.V.L.1.1.1.,.<.V.V.1.d.d.d.d.f.Z.Z.G.x.z.h.h.h.x.j.g.t.9.2.3.| O.| [ ( ",
"L o.| O.| J i i e z L I ;.1.>.>.<.<.*.>.<.1.<.L.L.L.1.L.L.P.1.L.V.L.V.L.I.U.V.I.I.U.C.E././.f.G.G.J.h.x.b.Z.t.p.t.i.| 2.X.2.W ^ ",
"v Q ! ' W k u u u l P I I >.;.;.>.,.,.V.I.U.L.I.}.}.U.U.OX}.I.I.OXOXOXOX;X=X+X).oX{.Q.Q.'._.E.S.E.S.x.t.k.h.t.0.O.' | X.X.^ _ Q ",
"z ^ ~ X.N k d j u z P *.*.;.-.,.F.Q.K._.Q..X`.XXOX>X*X*X.X*X{.|._..X*X=XOX$X).'.E.{.I._.G.Z.S.G.M.S.y.t.0.h.0.e. .3.8.4.` ^ ^ ` ",
"c ' ~ ~ U m k k x J ) } @.s.,.C.C.C.C.F.Q..X*X=X-X%X*X*X$X@X.XE._./.$X*X%XQ._./.`./.).S.G.B.M.N.G.B.x.w.g.r.r.e.3.@.w.3. .] ] ` ",
"l $.Z Z E M d b J ) ) @.} ] B B M k d x ] F.J..X*X=XOX@X=X-XE.E.`.`.).@X%X[.x.H.T.^.Z.R.J.Y.Z.E.Y.Y.z.j.h.y.5.3.w.h.3.y.e.2.` { ",
"c O.Z Z E m d k P *.} M d 3 : = & $ $ $ : r K s.I.[._.`.+X.X_.n.H.Z.E.E..X!.z.j.G.Z.R.~.]._.).'.[.W.Z.h.h.0.} 3.h.r.7.3.2.[ ] { ",
"j ^ Z C Z m s m K J s < = > < : $ # X # # = < s x @.x.).E.].).S.h.x.).'.E.Z.h.h.t.H.!.{.$X@XoX@XJ.F.s.5.Q R B Q Y Y m N B Q W ^ ",
"l W Z V C n f N W y 7 d I >.d.<.*.l w < < > < 3 s S ` u.!.!.~.h.0.z.Q.E./.f.t.0.e.n.[._._.[.J.f.-./ x r 3 < > > < 3 3 9 s f b b ",
"c ^ Z V C U f W Q W } C.'..X~.$X*XOXd.>.*.K f p f m N ` z.R.c.h.u.l.f.x.z.y.] X.5.h.z.G./.d.x w > = o o X X . X o + & : < 7 6 9 ",
"v Q C V ! Z V $.a.g.h.z.!.J.).'.{.E.f.f.d.@.Q R U Y B R h.S.n.b.z.j.h.y.h.$.Q W } X.0.s.R s < @ o X . . . . . X + $ $ + = : > : ",
"z / U Z Z Z ! k.h.n.b.z.h.y.2.s.@.s.5.5.] ^ U N W ^ Q ] 0.b.z.N.t.k.g.n.6.W m N N B Y N t ; @ $ o o X o o = > e s r 3 3 < < > - ",
"x H R W W V [ t.g.j.h.g._ f B d.I.[.K.H.u. .U b f m ^ $.y.k.b.h.u.u.b.z.y.m f f f b b 8 1 = @ + + = ; 3 r k / } } ) J M k f r 7 ",
"L P / ^ ^ U ` a.S.N.5._ y Y F.OXOX.Xx.f.0.6.W m f y b Q X.h.h.b.h.c.u.p.w.U t y y f 8 6 , ; - - ; , 7 y m N b J R ^ B / R ^ Y k ",
"I P *.*.*.B _ j.).z._ f f V.L.>.R s 3 > 3 9 r y y 8 t m ^ 6.b.S.H.x.0.t.O.U b y y 8 1 ; ; - = - > - , 8 b b f s t 8 8 6 y k m m ",
"I I *.;.P m W u.Z.R.R y J ,.L > X . . .     X + > 6 8 f V $.k.(.A.n.M.h.2.W m f 8 7 ; - = - @ $ + 3 f / I / J Y f y 6 ; = = 7 f ",
"*.*.;.;.@.B R } n.h._ b M 9 #   . . O O     . . o + ; 6 n ~ k.[.@X_._.z.u.^ m 8 6 , ; = @ + . $ < < : & $ $ $ = < 3 3 < < + $ 3 ",
"*.;.*.;.0.j.R ^ ' ^ M t , @ . X O # # . . . . O % $ $ @ y 8.u.*X8X5XI.Q.R.0.f 1 ; ; = @ + o . + o o   O         . . . . . # X o ",
"*.*.*.I C..X} W m t 1 - ; S M k x d w > % $ & 4 7 - = - y k.b.=XrX0X1X.X!.` q , 1 , @ = @ $ o + = : # O . . . O O . . . . . . . ",
"*.*.I *.} F.@.2.2.$.[ _ ^ y.k.b.z.j.s.-.) +.B J m n N ` 8.(.).5XrXrX0X=Xz.W 6 , , 6 , y b m B R B R / L i 7 3 9 9 7 > > : = + @ ",
">.;.;.;.d.Z.0.h.J.b.A.h.2.[ 4.w.6.$.[ ^ ^ Z T U E Y C C X.).@X8XrXuX0X$Xx.U 0 1 6 b m n ' O.' ^ | ` 2.} _ V N N S f f y b b f f ",
"s.f.:.>.W Q N X.n.!.J.[.[.Y.' ^ ! W n U C U n n h g q W (.>X*X0XrXrX1X.Xj.U 8 q y n U [ t.h.$.' U V m V V n y t y b h n V h 6 , ",
"d.,.;.-.' ! U X.n.!.).@X>XoXE.X.V g g g b y 6 1 6 b s.$X8X<X1X8X0X9X$XJ.4.N g g V V U O.k.p.k.b.l._ y 6 6 1 1 1 6 , , ; ; - - 1 ",
"-.>.;.@.[ 4.Z h.S.!.).$X@X<X-X*XH.w.U b q y b U d.%X>X8X5X7X0XrX8X0X$Xn.Q N n U ! X.~ y.t.a.h.!.J.!.H.S.s.] B b y 8 t f g U [ u.",
"d.s.,.s.h.g.2.b.R.!.).$X5X8X0X6X$X.X[.J.(.).%X>X5X=X=X<X7X0XrXrX0X1X[.y.! n C U ~ O.y.q.i.t.n.H.!.!.R.)./.%X@X`.|.Z.S.A.R.S.j.z.",
"x.v.s.d.h.h.X.b.R.[.[.1X8XrX8X9X1X*X'.[.%X1X>X8X1X>X*X0XrXrXrXuX0X=Xn.w.' W n n V h h V W O.a.S.!.).F.~.$X*X.X+X+X).E.^.^.H.8.0.",
"f.u.s.s.y.$.$.b.).@X$X1XrXrXrX0X0X%X[.R.@X>X8X5X8X%X>X8XrXrXuXrX8X@XH.a.y.X.Z h g q 8 6 6 q n 8.!.).[./.*X*X.X+X>X*X[.J.R.n.O.X.",
"t.u.6.s.u.h.w.J.).%X>X5X8XuXrXuX8X>X@X@X%X5X8X8X>X1X;XrX0XuXsXsX1X.XH.S.h.N.8.V q h n n q , ; y ^ J.)..X.X*XoX,X@X=X).'.S.n.y.a.",
"q.5.@.@.h.S.h.H..X*X=X5XrXrXuXuXrX8X5X<X<X5X5X7X1X*X=X5X0XrXsXuX8X@X!.S.R.N.a.Z b n X.X.~ g ; - 6 m 6.H.).@X$X|..X[.[.J.S.b.h.y.",
"e.w.@.} 8.n.0.n..X*X$X1X8XrX0XrXrXrX>X5X5X1XQ.R.x.H.).5X0XuXuXrX8X>XE.[.@XS.U h b W X.X.~ n 1 ; ; 6 y Q j.R.n.)._.R.n.n.k.b.0.h.",
"t.2...{ h.h.8.h.).@X@X%X,X5X8X1X5X=X@X).E.h.! h Y Z.@X5XrXuXrXeX0X>X@X=XQ.W y 6 q g g y y 6 1 6 q 6 1 y W 8.h.b.R.M.h.p.c.t.9.e.",
"#.=.} @.w.b.8.l.n.).'.@X|.-X-X$XJ.n.w.[ V y 6 y 6.%X%X8XrXsXsXpXuX8X%X[._ y , - @ @ @ @ = , 6 q q q q q q U ' w.y.q.w.6.4.w.4.0.",
"=.| o.} a.S.a.y.b.S.!._..X|.(.S.y.[ n g 1 ; 8 h.1X5X<X5XuXdXdXdXsX8X$X .t ; + $ $ + $ + - - ; , 6 8 q q y 8 b Y ` [ _ |  .[ 4.0.",
"6.2.^ @.y.!.h.y.l.h.k.E./.`.a.$.W n 6 - ; y s.>X0XrX5X9XuXsXuXrX5X=X@.y ; = $ + + $ o + @ = = - - , 1 6 6 6 , t m W B U W ( Q Q ",
"{ ` Q ^ #.h.b.8.4.t.r.h.J.h.' V g 0 ; - f f.OX5XrX0X0X0X0X5X=XI.f.} f , - @ + $ + + o + @ = = @ + @ = - ; ; - = 7 b Y Y U Y B B ",
") ^ Q ) Q 0.p.4.~ 4.8.a.y.' n g 6 ; - t ^ E.=X8X8XrX>X*XU.'.F.0.b 8 , - @ @ @ + + + @ = = - - @ + + = - = = @ @ + , m ] ^ R B W ",
"^ E Q R / ] 8._ Z W [ X.' n g 8 , ; 6 N 6.F.%XI.L.C.f.t.f.h.x.2.N 6 , 7 t 6 ; ; ; - = = - ; ; = - = = - - @ + @ + + > f ^ W T U ",
"Y K S J R Q _ ! Z W ! ~ W b 6 1 , 1 f R 2.H.5.B b / W ^ Y N b y 1 - - y R m 6 6 , ; = = - - - : - - - ; > < = = @ + + - f U m B ",
"S m M M R ^ ~ R ~ C C Z U y 6 , 1 8 N B Q } f 8 t f N m y 6 6 - @ = t N Q Y m t 6 , ; ; 1 1 , < , , - ; 1 1 1 > = + + + ; f m B ",
"k k k x B @.$.} _ C V n n f 6 1 , f N b M m t 8 8 y f b f 8 8 7 ; S u.k.X.' V h q 6 1 6 8 y q y q 0 1 6 6 6 1 , - + + @ @ 6 N ^ ",
"z k k k J @.u.w.6.^ m g n b 8 , 1 f m k S k 8 8 8 y f m m y f f N } a.h.z.X.! V h g g g g h n h b 0 6 6 8 1 6 1 > = + @ = ; B ] ",
"z x f x K 5.t.j.z.5.m y b B y 6 6 k m f f d 9 r 8 f f f m N U ^ W U U _ _ $.U n b g 0 q q q 6 6 1 , - ; ; ; = = @ = @ > 7 , x ] ",
"d x z k K @.j.z.Z.f.R y f W B f y m B r 7 7 7 , , ; 1 q n U n n n n b b b g 0 6 1 ; - - ; ; - @ @ @ + + $ o o o $ - 9 p f 6 U ^ ",
"d x x x G @.x.E.J.~.0.N t N ^ W y m N y 7 ; = @ = ; 1 8 0 8 q q 0 q 8 8 6 6 6 1 1 1 6 1 1 , ; ; - ; ; ; ; ; ; , , f U  .b f R ' ",
"z G I J G ) f.Q.Q.~.H.Q y y Q } Y m N b f y t 8 t f g g h h b b g b b b S S A A D D D S g a g y y q q q 0 8 8 q m X.[ ' b m ] Q ",
"P I I *.P I -.E.I./.D.t.M f B  .}  .Y T B U N U n b n W ^ +.W W +.+.W +. .%.+.B S F y y y y 0 q g y 0 q 8 q y U a.0._ V b Q } R ",
"P I I *.*.I *.x.~.F.J.f.) f m ^ 2.$.^ B Q R ^ ^ ^ b b B R Y B U / F S S B Y b i r 9 3 7 7 7 7 6 q 8 6 6 8 y V t.S.2.^ f m } ] S ",
"K ;.;.;.*.} ) d.Z.G.f.T.s.k p R 2.5._ ! U ^ ^ ^ W m f s r r r r r s r s 9 r 9 7 < < > < < 3 3 9 9 0 6 r t B 0.Z.5. .B t b ' R m ",
"P ;.;.;.*.;.I *.f.t.d.u.f.k r k ' w.3. .[ _ ' ^ U b f y t 8 8 r s s s r s r 9 3 3 < < > < < 4 7 7 3 8 y m 5.f.u.5.^ f y W R x k ",
"*.>.&.;.;.;.P P / P } t.5.Y 9 f U w.O.8.3.X.Q ^ U m f f f y r s y k f f d r 7 7 < < > > > 7 7 9 7 r y B 2.z.u.u.u.Y t N ^ m s f ",
"*.;.;.;.>.*.H i e r -.-.) R f b W X.8.0.7.| _ U B b f b m S m B Y Y m b f s 9 7 3 3 3 7 r d y s b b R 2.f.u.s.s.} k m Y Y f s k ",
"P ;.-.;.;.*.d 5 4 4 G *.K W W |  .X.0.a.o._ W ^ N M b U ^ 0.s.-. .u.] ) M k s d i i f x J Q Y R J Q s.f.0.f.s.-.m m N Y f f k P ",
"H ;.>.;.;.G u > * > 4 d ) 5.t.n.6.] 8.a.w.^ W ^ _ W ^ u.Z.f.g.@.$.0.d.s.6.*.I I *.I I ) -.@.^ Q ] 5.d.-.s.s.-.N m N m k f k K / ",
"v *.*.*.I v e 2 & 2 > 2 z C.H.W.G.0.@.h.h.$.W ^ $.t.@.j.J.x.@.@.s.f.s.f.d.d.-.>.,.f.*.*.I  .] } #.s.) s.s.} J N B B b f J K / } ",
"l P I I I z 4 & & > * : i d.'.[.*Xz.@.=.s.5. .Q 6.j.Z.R..XE.x.d.d.,.,.f.I.L.I.L.,.,.} / I } @.} 5.=.@.s.s.) R B K k d x M K ) s.",
"w G P *.P l * % & & * 4 e ;.+X<XOXG.$.@.} 5.@.0.5.d.Z.R.E.Q.R.K.d.L.C.I.U.>XOXd.*.d.*.) R / } } ) 5.-.s.}  .J M f r f J M P *.-.",
"w z H I G e * # % % * > e / 2X<X}.x.e.3.t.5.t.f.f.C.H.Q.'.OXOX}.OXI.I.L.I.I.L.0.6.} ` Q Q ] @.s.s.s.s.-.*.) x i r 9 s x P J l i ",
"5 5 c v l w & # % & % : 3 J 1X7X*XJ.| | t.A.T.R.E.!.x.S.x.D.f.F.K.f.s.f.x.j.6. .=.] Y ^ ^ 0.2.f.Z.Z.@.I x P l i < > < r d w 4 4 ",
"% & 2 4 j 5 & O # # % : 3 S 5X8X=Xt.} g.#X;X+X`.+X`.G.m.G.f.g.0.t.5.5.2.2.5. .` { ] { 2.#.s.f.R.`.j.P x e l w 7 3 & = > > > > > ",
"O O # * 4 4 : O O # % : < R <X0XV.1.OX1X<X8X0X5X+X&X.X$X`.~.G.H.h.h.$.` Y W ^ #.` 2.t.u.] Z._.@XK.*.l x 7 4 > 4 : O & 3 3 9 3 r ",
"O O O % * 2 * O O O % = r G.7XrXuXuXeX9X0XuXpXiXuX4XrX0X0X<X@XoX XQ.h.E R R ^ ] =.t.x.Z..X}.}.,.J x e u 4 > & * % O : 7 r d f z ",
". . . # % * & # . O $ < @.+X6XuXaXsXiXuXuXaXiXsXsXsXeXuXiXtX<X<X1X8XOXV.*.K S { x.Q.K.+X<XOXI G x w * * & & O O O # & < 9 r r s ",
". . . O # & % # . X # d d.;XqXqXuXiXiXqXwXwXwXwXyXyXwXwXwXwX3X3X4X3X3X3X3X1.I >.L.P.P.OX:X1.v c j w * * & # O O # # % * 5 4 w u "
};
