/* XPM */
static char *out[] = {
/* columns rows colors chars-per-pixel */
"64 64 226 2 ",
"   c #2B1608",
".  c #4A2415",
"X  c #5C2C1A",
"o  c #68321E",
"O  c #583F2A",
"+  c #763A24",
"@  c #7E3D26",
"#  c #63432F",
"$  c #6E402D",
"%  c #6A4D37",
"&  c #77523D",
"*  c #7F5D46",
"=  c #814A35",
"-  c #8E4B34",
";  c #96523A",
":  c #865540",
">  c #8C5D46",
",  c #9D5943",
"<  c #955F49",
"1  c #A45E45",
"2  c #89664F",
"3  c #9B644E",
"4  c #916A53",
"5  c #9A6F56",
"6  c #AB644A",
"7  c #A16851",
"8  c #AD6D51",
"9  c #A86D58",
"0  c #B36A51",
"q  c #B76F53",
"w  c #A1765D",
"e  c #A7755C",
"r  c #AE755B",
"t  c #B4715D",
"y  c #B97658",
"u  c #A87B63",
"i  c #AE7D64",
"p  c #B77764",
"a  c #BD7564",
"s  c #B27861",
"d  c #B47F64",
"f  c #BB7E63",
"g  c #C1785B",
"h  c #C87E61",
"j  c #C07B6B",
"k  c #AC836B",
"l  c #BE8466",
"z  c #B3876E",
"x  c #BA876A",
"c  c #BF8B6C",
"v  c #B78C72",
"b  c #BC8E72",
"n  c #C38264",
"m  c #CC8566",
"M  c #C78568",
"N  c #C4816F",
"B  c #C48A6C",
"V  c #CC8C6D",
"C  c #CC8C6E",
"Z  c #D18969",
"A  c #D48C6E",
"S  c #D88F6F",
"D  c #C98270",
"F  c #C88973",
"G  c #CC8A78",
"H  c #D08B78",
"J  c #D38E7E",
"K  c #C39072",
"L  c #C69677",
"P  c #C89172",
"I  c #CC9475",
"U  c #CA997A",
"Y  c #CF9C7E",
"T  c #D19071",
"R  c #D09072",
"E  c #D09273",
"W  c #D39273",
"Q  c #D49374",
"!  c #D59475",
"~  c #DA9472",
"^  c #DD9876",
"/  c #D79778",
"(  c #D1967C",
")  c #D89778",
"_  c #D59A7B",
"`  c #D99878",
"'  c #D9997A",
"]  c #DB9A7A",
"[  c #DA9A7B",
"{  c #DC9B7B",
"}  c #DB9C7D",
"|  c #DA9D7E",
" . c #DE9D7D",
".. c #DC9D7E",
"X. c #DD9D7E",
"o. c #E09E7D",
"O. c #E29F7D",
"+. c #E2A07F",
"@. c #D89380",
"#. c #DD9E80",
"$. c #DE9F80",
"%. c #DF9F80",
"&. c #DD9986",
"*. c #D4A082",
"=. c #DFA081",
"-. c #DCA386",
";. c #D8A485",
":. c #D7A88D",
">. c #DCA88A",
",. c #DFAB8E",
"<. c #DFAF94",
"1. c #E0A081",
"2. c #E3A181",
"3. c #E0A182",
"4. c #E1A283",
"5. c #E3A282",
"6. c #E4A281",
"7. c #E4A382",
"8. c #E4A383",
"9. c #E5A483",
"0. c #E6A483",
"q. c #E5A484",
"w. c #E6A585",
"e. c #E7A685",
"r. c #E7A686",
"t. c #E8A786",
"y. c #E8A787",
"u. c #E9A887",
"i. c #E0A58A",
"p. c #E3AC8D",
"a. c #E7AD8F",
"s. c #E8A888",
"d. c #E9A888",
"f. c #E9A989",
"g. c #EAA989",
"h. c #EAAA8A",
"j. c #EBAA8A",
"k. c #EBAB8B",
"l. c #EBAC8C",
"z. c #EBAE8F",
"x. c #ECAC8C",
"c. c #ECAD8D",
"v. c #EDAD8D",
"b. c #EDAE8E",
"n. c #ECAE8F",
"m. c #EDAE8F",
"M. c #EEAF8F",
"N. c #EEAF90",
"B. c #E9B193",
"V. c #EDB091",
"C. c #EEB090",
"Z. c #EFB090",
"A. c #EEB091",
"S. c #EDB192",
"D. c #EEB192",
"F. c #EFB192",
"G. c #EFB293",
"H. c #EEB899",
"J. c #EEBC9E",
"K. c #F0B293",
"L. c #F0B394",
"P. c #F0B495",
"I. c #F1B495",
"U. c #F0B496",
"Y. c #F1B596",
"T. c #F1B597",
"R. c #F2B596",
"E. c #F2B697",
"W. c #F2B698",
"Q. c #F2B798",
"!. c #F2B799",
"~. c #F3B799",
"^. c #F3B899",
"/. c #F2B89A",
"(. c #F3B89A",
"). c #F3B99A",
"_. c #F3B99B",
"`. c #F4B99B",
"'. c #F4BA9B",
"]. c #F4BA9C",
"[. c #F4BB9C",
"{. c #F4BB9D",
"}. c #F5BB9D",
"|. c #F5BC9E",
" X c #F5BD9E",
".X c #F5BD9F",
"XX c #F5BE9F",
"oX c #F1BFA1",
"OX c #F5BEA0",
"+X c #F6BEA0",
"@X c #F6BFA0",
"#X c #F6BFA1",
"$X c #F6C0A1",
"%X c #F6C0A2",
"&X c #F6C1A2",
"*X c #F6C1A3",
"=X c #F6C2A3",
"-X c #F7C2A3",
";X c #F6C3A4",
":X c #F7C3A5",
">X c #F2C4A5",
",X c #F7C4A5",
"<X c #F7C5A6",
"1X c #F7C6A7",
"2X c #F7C7A8",
"3X c #F7C8A9",
"4X c #F0CBAD",
"5X c #F8C8A9",
"6X c #F8C9AA",
"7X c #F8CAAB",
"8X c #F8CBAC",
"9X c #F8CDAE",
"0X c #F9CEAF",
"qX c #F3D1B3",
"wX c #F7D1B2",
"eX c #F0D4B6",
"rX c #F6D4B6",
"tX c #FAD3B4",
"yX c #FAD7B8",
"uX c #F1D8B9",
"iX c #F7D8BA",
"pX c #F5DBBB",
"aX c #FADDBE",
"sX c #F6DDC0",
"dX c #F9E1C3",
"fX c #FBE5C7",
/* pixels */
"<.D.t.t.` B i i i K _ B.H.oX`.+X|.;X;X5X<X1X5X5X%X|. X;X<X5X;X<X}.@X|.XX`.}.Q.~.D.Y.V.F.z.l.c.N.w.8.0.w.8.8.]  ./ ' ! ] ` / W W ",
">.t.v.x.u.! n f B C C E P P Q 8./.+X*X-X1X5X<X<X%X}.`.%X1X5X1X@X|._.}.).}.^.Q.Q.^.G.D.F.S.f.z.l.d.9.8.9.j.9. .{ { { o.] { { ) W ",
"K o.{ 0.9.] l r < : & & & & = 7 Y p.B.}.;X5X-X<X-X}.S.`.1X0X*XXX`.}.U.XX}.}.G.'.W.T.z.G.L.V.r.y.s.w.6.y.j.r.) {  .{ / X. .] T S ",
"c A S ^ ^ n < + @ $ $ X X X o $ > 9 B [ '.+X@X%X%XG.S.Y.5X1X*X/.I.G.P.XX;X@X{.|.$X'.S.G.Q.Z.w.w.f.u.e.y.k.r.o.} $.{ { o.+./ T A ",
"x S Z S g , > s L >.>.L w < : > > 3 8 C [ c.`.+X/.L.b.'.@X-X}.Q.z.P.L..X@X-X@X$X@X+X/.Y.V.c.y.y.y.j.0.z.r.w.3.2.$.3.1.5.` Q Z A ",
"K ` Z A g f -.H.XX*X-X;XoXB.:.( B n f C Q [ z.~.`.Z.N.Y.}./.I.z.h.j.F.Q.@X%X*X%X*X/.Y.a.4.[ / Q 3.4.$.X.4.1.$.#.$.4.4.%.] ! T Z ",
"K +.S { o.c.z.Q.'.@X/.XX@X_.S.B.c.y.T W / } 4.L.G.Q.l.G.Y.Q.l.p.w.k.f.I.`.+Xa.i._ L d d 7 3 3 7 9 p r d n P V W } 2.=.3.=.{ M m ",
"L +.o.d.z.M.N.V.L.c.l.V.E.U.z.p.r.9.X.} o.$.4.D.U.Z.l.m.I.L.f./ ] X.=.4.c.4.n 9 3 = $ o X X X X # + : > 7 r d f B R Q [ $.` Z n ",
"v 4.2.j.r.y.x.x.W / i.G.Q.|.Q.S.4./ V T / 9.d.F.L.G.c.Z.Z.E.j.W M R C ! R n 6 < @ o X X . X . . X $ $ = = > , 7 7 7 t C / / Z n ",
"v -.9.9.w.d.9.T M z.oX-X-X@X}.U.b.} m f V { r.l.F.Z.v.c.C.Z.x.V f f n B f 8 , = @ + $ $ + = : < e r 9 < < < < < - - , 7 y M M f ",
"b i.$.f.j.k.A l $.XXH.oX'.'.z.l.r.o.Z g f W / 9.Z.E.l.b.Z.L.4.R f f y y 8 1 - - = = - 7 y P E =.8.8./ Q C n d 9 < > - > 3 9 9 y ",
"L >.i.f.K.f.V M P.H.a.( K d r r r y g g g M R X.b.'.'.I.P.Z.8.W C f t 6 1 ; - - ; < 7 y I / ! T C T R P Q ! Q R C r 7 , < > > 3 ",
"b -.i.z.S.N.R / i.K < = $ # X X X o = , 1 y M { w.XX1X;X`.(.c.X.M f 8 1 ; - - - @ , y Q 3.l.p.8./ R n y 8 8 f W C B f y 3 > : : ",
"c L 4.i.V.l.E M w X .     .       . X o + - 8 { k.%XtX0X5X+XI.1.f 6 1 , - = = X @ r c K L *._ / / Q C n y 1 - 1 f P P B r 3 > : ",
"L Y #.E X./ y ; @ o X o $ # . . . X o $ $ @ = [ F.<XwXyX0X<Xc.Q q 1 , ; = = o X = = $ $ o & o $ & > > 3 3 3 < = > K B n l y 7 < ",
"Y Y r.R n t ; , Q [ C P P l r r p d y r f C X.c.|.;XtXyX0X%Xf.M 0 1 1 , 1 8 7 ; , , ; + X X     . . . . . . X X X 7 C Q R l y y ",
"Y *.i.1.W 4.w.9.] d.l.b.f.y.` Q T A A ) ~ A { Y.}.7X0XwX1X@Xy.M 6 1 8 M n ! o.$./ [ / [ I f 7 , = & $ o X o . . . $ 9 y 8 f n V ",
"*.*.a.T.~.I.G.j.d.2.2.{ ) ! ~ ! ~ A m h y M L.+X;X3X8X1X-XS./ n 0 0 y Z ^ ] 2.o.] ! ! { %.! A m M n f t r 9 9 , , , 1 1 q g n n ",
";.*.w.b.E.`.Y.}.`.c.A m m m g n g q 1 t } =X@X<X7X6X;X;X|.w.m n h m m Z { f.7.f.k.9.m y y g y g q y y m !  .A M g 1 - 8 Z X.]  .",
"*.Y #.y.I.E.}.%X5X-X{.N.f.] M n n C -._.7X7X1X5X0X0X<X@XP.[ M n Z ~ ^ ] 6.u.e.y.Z.K.S.g.#.n y 8 6 6 , , , ; - = = ; t ! ] V M ^ ",
"*.*.} f.N.E.}.1X5X0X;X%X|.+X}.}.}.<X-X7X1X7X1X0XwXtX;XXXy.) m M M A ^ 9.9.u.u.j.v.L.L.Q.T.`.Q.Q.f.#.C n y n n C / 9.]  .%.6.V y ",
">.-.4.g.Q.`.+X1X0XwX0X<X@X.X}.+X7X6X1X;X<X8X0XwXtX0X@XZ.g.{ A Z m n m h h Z ] e.M.K.~.E.Q.}.+X'.-X].`.R.~.I.M.M.Z.c.r. .W / $.M ",
",.,.4.x.E.%XXX7XtXiX0X1X-X}.E.-X0X0X<X;X5XtX0XiXsX0X~.Z.v.g.o.] m g 0 g q 0 1 y { ~.!.^.(.}.Q.XX%X,X}.+X|.}.N.N.c.Z.w.9./ ! / %.",
"p.-.w.L.|.;X5X0XaXaXtX2X<X-X-X3X0X0X<X1X0X0XiXiXdX1XQ.Z.Z.b.N.w.^ n y m ^ m q , 8 V 9.^.|.`.*X%X1X<X%XOX|.~.~.l.l.g.w.6.6.T T 1.",
"4.-.y.~.|.5X7XwXiXdXiX0X9X6X8X0X8X0X<X<X;X0XtXsXwX1X~.~.F.~.F.2.A h h X.9.w.^ q - , y %.l.+X;X5X=X;X*X-X@X}.~.F.w.r.9.9.9.+.T %.",
"i.-.f.}.%X7X9X0XiXiXiXtXwX8X7X1X%XQ.z.z.-X0XtXiXtX;X#X'.+X'.2.n y y A { { ^ A q ; ; ; 8 W f./.=X-X@X#X.X}.}./.Z.c.t.w.r.g.9.] / ",
"l.l.p.}.:X0X3X0XtXyX5X5X;X*XP.x.+.R g y.;XtXtXiXyXwX%XXX'.4.y 1 1 , ; , , 1 1 1 1 q 6 1 0 R 9.L.!.+XG.Q.`.E.N.M.j.u.6.r.j.d.X./ ",
"N.w.h.|.-X,X;X<X5X;X+XI.N.w.! g 8 1 ! |.3XwXaXdXfXiX7XoX$.y - + $ $ + $ + = - , 8 q q y q q m %.c.E.F.Z.Y.l.v.k.x.g.r.w.j.0.2.] ",
"r.w.j.}./.#X@X-X}.}.N.f./ m 8 - ; T `.7X7XiXsXfXsXtX*Xf.f - + + @ @ + + + - = - ; , 6 q y q 0 M / 9.y.c.0.f.y.g.t.f.0.d.o.9.+.o.",
"6.6.j.I.(.'.+X'.~.c.+.! h 6 - ; C H.5XtXtXyXiX0X1X/.r.M , @ + + $ $ $ o + @ @ = - - - , 8 6 1 1 f W X.{ +.+.+.1.j.j.w.3.9.2.1.} ",
"r.9.9.Z.Z.E.L.~.c.2.A g 8 ; - M P.;X5XtXwX7X;XoXz.Q 8 , = @ $ @ @ @ $ + @ = @ - = @ + - - ; - - , y C W /  .W ] 3.r.X.1.$.8.} o.",
"9.+.+.g.Z.Z.b.c.2.A g 8 , - y #.XX1X-XoXH.S.G.L.F.Q 8 ; 1 8 1 ; - - = = - - - ; = @ @ = - - = = = : r R ) ' W T ] / ' / }  ./ / ",
"X.+.+.j.k.b.g.w.T n 0 1 - 1 T f.H.S.| -.4.4.] Q n 6 - , 8 ) C 0 , , ; - = - ; , - - - - - - = + $ + = y ! X.[ / R ! R / Q ! W / ",
"3. .7.9.d.d.9. .m y 6 ; ; t / f.i.B y M W M y 8 1 = - f ! { { m g 8 ; ; - ; , , , ; ; ; , ; ; - = + + - M  .] W A R R R Q P P R ",
"2.2.{ 6.+.9.) / n t , , 1 C T #.C r 8 f C M t 8 6 6 M K.~.F.6.{ A h q 6 8 y g n g q 6 8 6 6 6 7 < : + @ 6 ! W ! ~ W C E I K l I ",
"O.X.{ { +.o.! V n 8 , , 8 ! E ( B 8 8 y T W n l M ! 3.c.E.F.w.o.^ A Z Z A A ! ) ] ) m y q y q 0 7 ; @ @ - y R R ! Q E / _ P l E ",
") ^ ^ { ~ { ! m t 6 , 1 8 C C E d 8 t M A ! V X.2.6.X.o.o.X.S A m h g g y g g h h M y y y y y t 0 7 - @ @ , M T R / / | ( B c / ",
"` ' { { ^ ^ A y y t 6 1 t M l B r 8 y f M m A ! ~ Z Z m m n q 6 1 , - - - - ; ; , - - - , 1 0 0 0 6 , = = - y T ! } X.#._ B n W ",
"P I T  .{ ) m y n n 8 6 8 M n f r y t t q q q g 0 0 0 8 6 , = = = : - - = - : : = = + $ $ $ + - 1 8 , ; - ; 6 V / %.| 4.-.C f R ",
"B B T [ o.] A y t n y 8 8 M B r r r 1 ; ; - - - - - - - : > 3 5 e d b v B L b i i w 5 = @ X . . + - 3 , , 1 6 M  .%.-.i.-.B B I ",
"f l P %.2.+./ y 6 n M n t M C y 9 , - = $ + $ o o $ : i v b Y *.L Y :.:.L ( L i 7 < = $ X .     . + = 6 r n t M / %.#.-._ P B T ",
"l d P %.f.h.2.M 8 y W T M B P f r 8 3 , 8 6 , @ = + = 5 w 5 i w 2 2 w 3 : > > : = + $ o X X . X = ; 1 n R W n Q %.=.X.' ( P P C ",
"l c B #.z.G.r./ y t M Q Q P C E n M f M M V a 0 6 7 3 r < > 5 e < < < - ; 3 ; ; - ; - ; - = = 1 8 8 y / 7.+.M W o.4./ ! L L P E ",
"l c B =.P.~.G.4.M 8 f _ X.} ` / W T P A Z m G D J j t a a 0 0 p p 8 a p a a t 8 t r 8 8 q t y t 0 q A 2.2.X.V / 2.$./ P K K E V ",
"d B B -.B./.L.U.Q t 8 I } ` / / ! ' { ^ M M ! ..@.J j D G D N N j j F J F N j D N j a a a j t q 0 m 2.y. ./ C 4.4.=.E P c K P M ",
"x c K ( a.Y.^.Y.c.M 8 f =.X.] W ` ]  .~ A n V / &.@.J J @.@.@.@.@.J @.@.H N N D N j j a t 0 8 0 h w.N.w./ V W 3.w.[ P l c B K M ",
"I ( K I r.'.S.Q.}.p.f r I w.X. .{ o.) ^ ! M t y f F G J J J H &.&.H j N p t t t 0 9 0 0 q 8 6 g } Y.l.8.[ M C 2.$.E d f c L c M ",
"U *.( ( -.S.G.G.Q.a.C 7 n X.+.X.2.{ ) ! A n t 8 6 9 r r r 9 9 r e 7 ; - > < 3 < < 3 7 7 r 8 8 M z.z.i.4.^ n W / / B d d c P B M ",
"L ;.*.#.( p.z.G.V.Z./ 9 9 W w.k.2.o.] ! A n l y 8 9 9 9 7 3 3 2 > > : - : : : > > < 3 9 9 y n =.z.z.-.y.A C / } B s d x d I P E ",
"Y *.;.*.| _ p.l.a.f.$.s 6 M u.j.w.] ] ! A n M n f y y f l d i w 5 < > : : > > > < 3 7 9 y n [ z.z.s.s.$.M W } Q l r p d c P ! / ",
"*.>.*.;.*.*._ $.#.r.X.E 8 n [ k.d.o.! A A m n M n M B C P I f d r 7 > > < < 3 7 r y r f M [ s.P.L.B.r.E C { / V f r 8 c I ( W I ",
"*.;.;.*.;.*.c e P i.1.Q M C 2.7.u.2. .! A m V W 9.j.y.$.9.=.E M l s 9 8 r y l C W W C C _ f.G.S.S.B.4.M T / V f d s d P ( *.P n ",
"U >.;.>.*.L e < w L ( _ W } n.r.o.w. . ./ %.9.j.l.Z.N.V.f.N.w.f.-.| #.4.-.i.r.p.w.y.4.$.=.a.a.A.r.B.Q R T / n d x c K U ( U I ( ",
"L ;.;.>.;.c 7 2 2 5 x _ 9.y.L.g.o.f.N.9.2.k.I.'.`.Q.z.l.y.x.S.S.G.S.G.Y.Q.H.B.z.l.4.$.2.f.l.s.p.a.p./ Q / M d l I K L U ( Y _ ( ",
"b *.*.*.Y c 5 & * 2 5 L l.`.P.E.8.d.l.C.z.N.V.}.%X}.G.`.P.Q.S.H._.XXH._._._.B.l.4.o.=.r.r.r.-.i.B.i.! / Q d 7 d I c l P ( _ #.-.",
"z U Y Y Y x 2 % * > 2 i ,.|.#X'.l.2.d.k.c.Z.G./.&XOX@XXX=X=XoXXX;X<X5X;XoXH.B.8.8.=.$.1.r.8.8.p.S.i./ / C r 7 9 B P c K ( *.i.p.",
"w K U Y L d * % & & 2 w Y @X-X-Xz.r.9.Z.v.G.Q.`.XX@X@X<X;X<X;X5XoX=X=XoXq.4.z.l.#.X./ $.4.f.l.G.a.i.( I d d w r r I I L K *.4.i.",
"u x U U K w & % % & > 5 b _.0X@XY.w.w.9.v.G.I.G.Q.P.`./././.=XoXH.B.G.l.l.f.y.2./ } [ $.p.z.P.Q.B.-.K c z i u r 9 r l P I U x i ",
"5 w x b z w # # % & & 2 d oX7X=XQ.c.%.w.L.+XT.(.[.^.s.z.m.m.r.p.y.x.i.y.y.w./ %.$.=./ -.l.Q.Q.Y.a.*.i i K z i u : 3 9 d x w < 4 ",
"% & 2 5 k 5 # O # # & > 7 H.0X;XY.4.b.@X7X;X{.}.XX_.G.G.E.Z.w.4.9.] [ ! / ] } X.4.s.} #.G.`.|.H.i.K i 5 u e 5 w * + > > > > < > ",
"O O # * 4 4 & O # # & > 1 z.0X=X:.J.;X0X7XwX8X6XOX&X@X$X/.E.I.E.l.w.Q R R ' / 8.8.f.4.a.Y.%X_.z.L d z 5 2 2 * 4 % # : < < 7 3 s ",
"O O O % & 2 & O O O % : l Q.0XwXiXiXrXwXtXiXdXsXyX0XtXwX0X-X+X|.+XY.4.I E ( ! #.4.h.G.W.%X*XB.L K r w 4 > * & * O # < 7 s d d x ",
". . . # % * & # . O $ < #.OX3XiXsXdXpXiXiXsXpXdXdXdXeXiXpXyX<X;X1X8XoXB.*.I F ..l.T.D.oX<XoXY K c w * * & & O O O # & < 9 r r s ",
". . . O # & % # . X # d p.;XqXqXiXpXpXqXeXeXeXeXuXuXeXeXeXeX4X4X4X4X4X4X4X<.Y >.B.J.J.oX>X<.K v z u * & & # O O # # % * 5 5 w u "
};
