/* XPM */
static char *out[] = {
/* columns rows colors chars-per-pixel */
"64 64 208 2 ",
"   c #4A2415",
".  c #5C2C1A",
"X  c #68321E",
"o  c #583F2A",
"O  c #763A24",
"+  c #7E3D26",
"@  c #63432F",
"#  c #6E402D",
"$  c #6A4D37",
"%  c #77523D",
"&  c #7F5D46",
"*  c #814A35",
"=  c #8E4B34",
"-  c #96523A",
";  c #865540",
":  c #8C5D46",
">  c #9D5943",
",  c #955F49",
"<  c #A45E45",
"1  c #89664F",
"2  c #9B644E",
"3  c #916A53",
"4  c #9A6F56",
"5  c #AB644A",
"6  c #A16851",
"7  c #AD6D51",
"8  c #A86D58",
"9  c #B36A51",
"0  c #B76F53",
"q  c #A1765D",
"w  c #A7755C",
"e  c #AE755B",
"r  c #B4715D",
"t  c #B97658",
"y  c #A87B63",
"u  c #AE7D64",
"i  c #B77764",
"p  c #BD7564",
"a  c #B27861",
"s  c #B47F64",
"d  c #BB7E63",
"f  c #C1785B",
"g  c #C87E61",
"h  c #C07B6B",
"j  c #BE8466",
"k  c #B3876E",
"l  c #BA876A",
"z  c #BF8B6C",
"x  c #B78C72",
"c  c #BC8E72",
"v  c #C38264",
"b  c #CC8566",
"n  c #C78568",
"m  c #C4816F",
"M  c #C48A6C",
"N  c #CC8C6D",
"B  c #CC8C6E",
"V  c #D18969",
"C  c #D48C6E",
"Z  c #C98270",
"A  c #C88973",
"S  c #D08B78",
"D  c #D38E7E",
"F  c #C39072",
"G  c #C69677",
"H  c #C89172",
"J  c #CC9475",
"K  c #CA997A",
"L  c #CF9C7E",
"P  c #D19071",
"I  c #D09072",
"U  c #D29172",
"Y  c #D09273",
"T  c #D39273",
"R  c #D49374",
"E  c #D59475",
"W  c #DA9472",
"Q  c #DD9876",
"!  c #D79778",
"~  c #D1967C",
"^  c #D89778",
"/  c #D59A7B",
"(  c #D99878",
")  c #D9997A",
"_  c #DB9A7A",
"`  c #DA9A7B",
"'  c #DC9B7B",
"]  c #DB9C7D",
"[  c #DA9D7E",
"{  c #DE9D7D",
"}  c #DC9D7E",
"|  c #DD9D7E",
" . c #E09E7D",
".. c #E2A07F",
"X. c #D89380",
"o. c #DD9E80",
"O. c #DE9F80",
"+. c #DF9F80",
"@. c #D4A082",
"#. c #DFA081",
"$. c #DCA386",
"%. c #D8A485",
"&. c #DCA88A",
"*. c #DFAB8E",
"=. c #DFAF94",
"-. c #E0A081",
";. c #E2A181",
":. c #E0A182",
">. c #E1A283",
",. c #E3A282",
"<. c #E4A382",
"1. c #E5A382",
"2. c #E4A383",
"3. c #E5A383",
"4. c #E6A483",
"5. c #E5A484",
"6. c #E6A585",
"7. c #E7A686",
"8. c #E8A786",
"9. c #E8A787",
"0. c #E9A887",
"q. c #E0A58A",
"w. c #E3AC8D",
"e. c #E7AD8F",
"r. c #E8A888",
"t. c #E9A989",
"y. c #EAA989",
"u. c #EAAA8A",
"i. c #EBAA8A",
"p. c #EBAB8B",
"a. c #EBAC8C",
"s. c #EBAE8F",
"d. c #ECAC8C",
"f. c #ECAD8D",
"g. c #EDAD8D",
"h. c #EDAE8E",
"j. c #ECAE8F",
"k. c #EDAE8F",
"l. c #EEAF8F",
"z. c #EDAF90",
"x. c #EEAF90",
"c. c #E4B195",
"v. c #E9B193",
"b. c #EDB091",
"n. c #EFB090",
"m. c #EDB192",
"M. c #EEB192",
"N. c #EFB192",
"B. c #EFB293",
"V. c #ECB496",
"C. c #E6B599",
"Z. c #EAB79A",
"A. c #EEB899",
"S. c #EEBC9E",
"D. c #F0B293",
"F. c #F0B394",
"G. c #F0B495",
"H. c #F0B496",
"J. c #F1B597",
"K. c #F2B698",
"L. c #F2B798",
"P. c #F2B799",
"I. c #F3B799",
"U. c #F3B899",
"Y. c #F2B89A",
"T. c #F3B89A",
"R. c #F3B99B",
"E. c #F4B99B",
"W. c #F4BA9C",
"Q. c #F4BB9D",
"!. c #F5BB9D",
"~. c #F5BC9D",
"^. c #F5BD9F",
"/. c #F5BE9F",
"(. c #F1BFA1",
"). c #F5BEA0",
"_. c #F6C0A1",
"`. c #F6C0A2",
"'. c #F6C1A3",
"]. c #F6C2A3",
"[. c #F7C2A3",
"{. c #F6C3A4",
"}. c #F7C3A5",
"|. c #F2C4A5",
" X c #F7C5A6",
".X c #F7C6A7",
"XX c #F7C7A8",
"oX c #F7C8A9",
"OX c #F0CBAD",
"+X c #F4CDAE",
"@X c #F8C9AA",
"#X c #F8CAAB",
"$X c #F8CBAC",
"%X c #F8CCAD",
"&X c #F8CDAE",
"*X c #F9CEAF",
"=X c #F3D1B3",
"-X c #F7D1B2",
";X c #F0D4B6",
":X c #F6D4B6",
">X c #FAD3B4",
",X c #FAD7B8",
"<X c #F1D8B9",
"1X c #F7D8BA",
"2X c #F5DBBB",
"3X c #FADDBE",
"4X c #F6DDC0",
"5X c #F9E1C3",
/* pixels */
"*.u.{ O.[ %.@.&.*.c.c.c.=.c.c.c.=.c.=.c.*.c.c.c.w.=.*.=.*.w.*.w.$.$.%.&.%.q.%.q./ / E / Y / Y ~ J Y J ~ J Y J B N B B I B U B I ",
"&.$.[ L [ @.@.$.w.=.c.c.c.=.c.=.=.=.c.*.=.c.e.w.w.*.*.*.w.w.w.q.$.$.$.$.q.$.$./ / / E ~ / / / ~ Y J H H K J J A A B I I R U U I ",
"K @.K K q.*.%.&.*.c.w.c.c.c.=.w.c.c.&.*.w.v.w.e.u.e.q.w.w.v.q.r.6.6.>.q.6.w.o.o.' ' E ) O.:./ [ / L H H H H z M M B M B T R N I ",
"K L K %.w.&.%.%.c.c.c.c.V.v.c.w.v.w.*.w.v.e.e.e.s.e.w.w.s.s.w.w.r.6.5.6.s.e.5.:.;.{ | } >.:.O.o.$.@.K K K F z j M M v n B B n b ",
"%.&.$.w.c.v.c.V.c.V.V.V.v.B.v.H.v.V.v.v.v.m.b.F.b.F.v.V.b.V.V.B.e.s.j.b.e.a.2.;.{ -.O.;.o...o.$.[ [ ~ K H H M M v n v M v n b V ",
"*.w.e.J.Y.B.B.V.!.L.Y.K.V.V.P.P.E.Y.K.H.P.P.J.P.Y.P.K.J.J.B.B.s.b.n.s.u.i.u.1. .+.{  .{ :.{ O.[ %.) / J Y n M M M n n n b b V V ",
"B.E.J.Q.Q.Q.m.Y.W.).L.R.E.Q.H.T.Y.W.B.P.H.T.s.J.R.Q.s.M.M.m.t.k.k.g.6.u.y.6._ { { O.' O.-.<.) [ / / H B A A j v n n v n n b b b ",
"W.T.U.P.^.E.J.H.W.R.J.K.R.K.H.H.!.K.P.H.Y.B.G.J.L.J.a.t.b.b.a.t.d.0.t.e.i.6.{ _ +.' ` ` O.[ ` ` / / B n A n j j n v j j n b n g ",
"H.J.K.R.L.Q.H.T.m.J.J.E.H.J.P.J.B.P.b.G.B.K.K.P.H.H.s.k.e.x.t.u.6.a.p.g.u.5.O.O.) } / O.} O.} ' ! Y A A v n v v j v f g v g f g ",
"J.J.I.Y.W.L.B.B.G.J.P.V.L.x.M.H.L.B.H.G.J.T.E.P.P.J.B.z.l.b.p.e.p.r.k.p.y.5.>.o.} ` O.o.#.| o.! Y B A n v v v f f f t f f f f f ",
"B.H.k.P.E.J.e.F.B.P.s.H.M.F.r.D.J.Q.m.R.~._.)./.E.E.e.s.k.b.r.e.p.z.7.i.p.z.O.+.o.:.) O.O.o.! ! R E n v v v t t t t 0 t f f t f ",
"/ s.f.M.I.D.y.u.F.H.B.B.g.z.a.e.L.R.W.R.{.{.).Q.Q.J.s.w.r.q.q.6.q.:.} 2.t.7.| ' >.O.] ` :.] ) ) ! N n j v d r r t r r r d f t f ",
"6 H >.s.k.l.9.x.e.F.s.s.2.t.9.e.s.W.Q._.Q.].Q.A.w.*.J j a s e l s s s A B Y R ) ) O.] | ) ` ^ ` Y B n v d d t t r r r t r p f f ",
", e M O.a.p.8.9.e.d.e.r.q.;.-.6.k.B.Y.J.H.*.K e 6 : % # # X X O ; : , 8 s d v v B Y / ! ^ E E T B n v j d d t t t t p f f t f t ",
"e i i I 5.k.3.y.p.s.2.t.>.| R ' r.u.u.6.Y a : * O X           X # % * : , 2 < 6 7 r j J Y R n N N n t d d d e t t t 9 0 t f 9 0 ",
"j d d A } t.7.5.i.t.9.9.] I N I ! ) ( n 7 - * # # . . X # * : 4 e 6 , , 2 6 2 , 2 , 2 7 r v v j v d t 7 r r 7 7 r 9 9 7 9 9 7 5 ",
"d r d B ( t.6.9.3.6.8.t.E n v M v n j r > = + + + * - 6 s J %.q.q.O.Y B j j e 6 , 2 2 6 6 6 6 e 7 9 8 8 6 7 6 5 < < < 5 5 5 5 < ",
"n r 7 t R ;.t.6.6.:.<.<.! j d d d d t 5 > - = = - 5 t A ! :.5.5.2.:.2.:.O.) E B j 8 6 6 6 6 6 6 6 6 6 2 6 6 < < < < < < 5 5 7 5 ",
", < < 7 v _ <.i.6.6.O.-.) P d d d t 5 < > > - < 5 7 t n R E I R R E Y ! ] >.} } E n d d 7 8 6 6 6 8 2 6 8 8 6 5 5 7 5 5 7 r 7 9 ",
"  X + - r A ' n.M.u.q.o.} E n v i 5 > - - - - = = < d B } ! Y n v d 7 7 t v B P E B n n v t 7 7 7 7 7 7 d r 7 5 7 7 7 r t d t d ",
"    X O = d E B.T.J.s.a.>.! n d 7 7 > - = = O * 8 M ~ >.w.r.:.[ / Y j r - = - t A P n v j d d d i d d d t t r t r t t f d v v v ",
"@ * : O O = E B.XX{.R.B.f._ d 5 5 5 - * * X X 2 8 6 : , q e s z M j d a e 2 ; = i Y R I N n n n b n n v d d i t t t d t d v v n ",
"l A a e 8 t  .L.*X-XR.Q.s._ 7 5 9 5 = = * O X * + O           o # % # * ; * # O * r n v d d t v b N v n n n t t d v d d d d t t ",
"C C C E ' { l.Q.-X*XoXY.t.b 0 5 0 5 < t d 7 8 e e a , #                 .   . X + > < 5 d n I E { { _ ( ' R d 9 7 7 7 5 7 r 9 r ",
"V b g v t ' Y.oX*X-X.XQ.-.b 9 0 f b v ' 1.5.' o.E ] / Y s e 6 e 6 2 , , 2 - - 8 t 7 < r n R ! ' ) ' ( ' R n t 7 < < 6 7 r d j j ",
"0 5 < r O._.#X%X&XXX_.B.{ n f f N { +.5.g.t.+.U R E { ' ^ V V V b v v b C R C g 5 < 0 ! 4.8.<.' E I R U Y N B t r 5 7 7 e e s s ",
"j I / Y.#X*XoX%XoX).b.<.^ V b V C _ 4.e.x.G.a.5.C d 5 0 f f 9 9 t g g b f 0 > - < V R 6.t.d.-.6...+.T `  .;.E j r 7 6 6 6 e 7 r ",
"{.oX.X.X#X&X&X.X.XY.6.! E C ^ Q  .+.<.g.n.J.T.D.L.u.Y d t 5 < > > - - = > < t C t.g.u.O.2.3.-.1.8.4.1.6.y.<.R v t 7 5 7 r r r t ",
".X&X.X&X#X*X&X*X_.B.{ E V E Q 6.i.d.d.k.a.G.Y.^.L.Q.Y.).P.V.e.w.} } ) 2.w.P.J.Y.B.T.p.t.-.{ ' 4...4.5.9.4.4.! v r r e r r d d j ",
"*X&XoX&X-X*X*X{.Q.u.Q V V W Q  .5.7.i.d.N.F.J.K.W.E.Q.Q.).].{.).[.).).).{.Y.J.B.F.x.k.p.u...Q { ,.5.8.6.1.{ U v d t r t j v M A ",
"-X*X.X-X1X:X{.Q.H.f.! C C b b b b b f b W u.n.T.R.Q.P.).].oX)..X.X.X)._.)._.d.g.g.D.y.d.d.i._ _ +.6.>.;.;._ B A j v r v b N n N ",
"-X*X{.{.:X3X.XD.x.a.<. .W b f f V b f 5 5 f _ u.^.T.W.Q.XX.XXXXX#X#X}.{.'.T.B.t.d.k.d.d.k.t...{ ' ' +.} :.! I N n n d v I I N B ",
"Q.A.H.{.*X-X^.P.x.n.p.f._ C g V Q <.Q V 5 > 5 n ;.N.K.).{.$XXX&X{.oX{.oX).!.T.D.a.g.g.k.y.i.6.<.( _ ^ ` ~ T B Y v v d n N I I I ",
"Q C 6.{.*X-X).E.J.J.L.9.W C C Q t.8.5.{ b > = - 7 b O.l.W.).{.'.).^.).Q.T.I.Y.D.n.d.g.h.h.y.6.-.{ ^ ^ E Y J Y Y B n d v I I ~ P ",
"9 7 w.oX1X:X{.{.Q._.t.E b b V  .1. .V b t < - > < 5 t ^ p.K.B.T.J.T.b.H.H.F.a.n.p.n.4.i.d.x...:.| ) B Y Y J H ~ Y n t j B U V V ",
"= M _.-X3X1X:X'.{.u.b 9 r 9 9 5 5 < > > < 5 t f f 0 7 r B ;.r.d.G.B.a.p.k.p.z.g.l.p.8.8.u.8.;.o.] / B B E J J ! / I n n T P C N ",
"8 e.#X3X3X3X:X#Xe.A 5 - + O O O O O + - > 5 0 f 0 f t 0 7 d P -.7.u.6.t.8.u.8.d.9.y.7.4.O.1.{ | Y Y H Y J J Y / Y ] ! ` U U V C ",
"/ Q.>X1X1X:XoXV.Y 5 * O O + + O X + * * = - > < 5 0 t 0 7 5 7 n E ] | _ { | -.6.8...-.` } ` ) ! Y H H ~ ~ J Y J ~ ] } ) E I V V ",
"q.XXoX.XoXQ.q.A 7 - O O O O X O O + O + = = * * - > - > > > - 2 d J R ! ) ( E ` { ] R ! ( ^ B U J H n Y / / A H / >.[ [ T U b V ",
"6.V.V.v.b.u.Y 7 - * + * * + * + * * = = - = + O = = = = = * * * = 8 n ` | _ ! Y E R U U E E I M H M A I } ~ B H / [ / Y U N b b ",
"Y A A [ R B v 5 = - 5 d 6 - - = * = - - > - * = = = - - * ; * % O * - M ! O.{ E U E I E U E P B M M v ~ ! E M J M M H J n b b V ",
"j 8 r v d 5 < = + > d A d 5 < - - = = - , , - - - = - - - : ; * % O + ; e I ) R E U I P E E ) I A n M B ! H z j M H H H N B V b ",
"d 8 5 t t 7 < > e O.-./ N f 5 < - - = > < < - - > < > < 7 7 2 2 - * O * ; 5 v U C R I ! ) } E E A M j H / J l z F J H H B I N V ",
"s 6 6 t v t r d ) k.B.6.Q C g 0 7 5 < 9 f f 9 5 9 5 5 5 t r 7 5 < = * + ; = < v R E ! ^ | } ` E Y M M A ~ F z z H K J M A B B B ",
"e 6 6 7 r v A ( !  .+.<.' ^ V b g b g g g b g g f t 0 f 0 0 9 9 5 < - ; * - - 9 A ( E  .} +.+.] Y A M H H z j F F L K M j n v A ",
"e = * * - 5 f v f v n n v f f t f 0 t 0 9 9 0 9 < 5 < 5 < < < < 5 < - : = - < < n _  . .:.{ ` T Y M A B F z j z H K H M n M M n ",
"s > = * - - = = - < 5 < < > = = = = + + * * O O O + O + + * O * * = + - 8 d r t d ( _ { +.o.T ) Y J M H F z s l H H z M A A j n ",
"d d 8 r d f 9 5 9 < - - - - - - - - > > < > - - > > > > < 5 < 5 5 5 5 f E ! ` N v E { } +.` ` ! H H M v z d s d z z l M J H M M ",
"d M N I V C ! X.D D S S Z Z h h d h p m h m h p f v f f f f f f f v _ p.t.<.<.R n ( O.,.' ` ! E A H M z s d s F z s z M A ~ Y I ",
"M n E E C E E R X.E X.S S S D h p p p 0 p p 0 0 0 f t f f 0 0 f b _ b.l.6.6.<.B b ^  .{ } E B A M z j s s s l s s M H M ~ / / ~ ",
"L Y B ( R N d i a s e e r r 8 6 6 2 , , 2 6 2 6 8 r 7 0 f d r j E f.t.t.u.s._ b V { ) ` ( E j n M M d a a l s a s H M K [ [ J H ",
"L %.Y ! ^ B d 7 8 6 6 6 e e 8 6 2 , : , , , , 2 6 8 7 e d d d B 5.x.s.s.z.s.! n R { ) T U B n M H M s 8 s z a a z F K K @.H M z ",
"H @./ ] ) ! v r 8 6 6 8 i t t d 8 6 2 , , , , 8 8 t i j d v M ) <.B.B.F.u.u.) R ^ { _ R N N B H A z e 8 s H z l z K K L K L ~ ~ ",
"H @.~ ~ ) ! J t r 6 8 e n I B n j s a 8 8 e e d M A R R R ! ` O.e.m.m.e.s.O.} E { ^ R B B I U J H j 8 8 d l H K M M H H K %.o.~ ",
"c @.K H H J B v d t 7 j ' 6.O./ B J Y / E / E >.e.v.6.r.r.e.5.t.w.v.w.r.2.q.! ! O.} B I Y ` B J J l e e 6 8 a K z M j H L $.#.$.",
"k K L K F z H A P N n C r.i.6.>.2.;.5.r.r.w.w.v.A.V.b.e.e.r.q.:.w.w.q.q.5.} ) / O.} E ~ [ ` ~ J H d s s s w e j Y M M M / %.w.w.",
"q F K K l w s z Y r.<.i.<.2.r.s.r.e.G.F.b.L.R.].).Q.Q.B.s.5.q.w.$.q.} o.) } [ o.[ ] } o.[ / ~ J M d s u u q 8 e d J H H ~ %.%.@.",
"q k G L l 4 & q s %.b.J.n.9.u.u.k.b.Y.T.).).{.{..X].^.V.s.e.6.w.6.o.) ! E R ` [ O.>.r.r.r.$.[ ~ H u l z s y y 8 2 a z H L F s w ",
"4 q c c s 4 $ & 3 u H V.^.G.6.u.a.M.e.G.Y.Q.b.Y.R.Q.s.s.e.h.6.7.2.>.R ^ ^ } ) O.2.w.q.e.m.b.[ ~ F w 4 F l k y 4 * , 8 s e 2 3 3 ",
"$ & 3 4 u 3 @ $ % & 2 H XX).s.r.r.b.M.M.E.U.N.z.b.p.6.,.6.;.-.{ O.^ ! E } ' #.>.o.q.e.m.R.J.q.J F s 4 w w 6 2 2 % # ; ; : , 3 3 ",
"o o @ : 3 3 $ o @ $ & 2 $.$X).>.w.).}.{.Q.Q.R.E.H.U.B.M.t.d.<.-.E E I ! ^ O.:.2.O.,.z.P.P.`.w.K l u s 3 : : ; 3 $ $ : , 2 8 4 u ",
"o o o $ : 1 & o o o % - Y {.*X X:X>X>X>X>X1X1X*X&X&X#X@X].W./.Y.H.5.~ Y ! E ` o.>.k.F.Y.).[.*.H F w q 3 1 & % % o @ , 6 e s d l ",
"      @ $ & % @   o # , o.).@X1X4X5X2X1X1X4X2X5X5X5X:X1X2X,X.X.X.X$X(.c.L J A ] s.J.V.)..XS.L F z q ; & % % o o o @ % , 8 e e s ",
"      o @ % $ @   . @ s w.{.*X=X1X2X2X=X;X;X;X;X<X<X;X;X;X;XOXOX+XOXOXOXOX=.L &.C.Z.S.S.|.=.c x l q & % % @ o o @ @ $ & 4 4 q y "
};
