/* XPM */
static char *out[] = {
/* columns rows colors chars-per-pixel */
"64 64 220 2 ",
"   c #2B1608",
".  c #4A2415",
"X  c #5C2C1A",
"o  c #68321E",
"O  c #583F2A",
"+  c #763A24",
"@  c #7E3D26",
"#  c #63432F",
"$  c #6E402D",
"%  c #6A4D37",
"&  c #77523D",
"*  c #7F5D46",
"=  c #814A35",
"-  c #8E4B34",
";  c #96523A",
":  c #865540",
">  c #8C5D46",
",  c #9D5943",
"<  c #955F49",
"1  c #A45E45",
"2  c #89664F",
"3  c #9B644E",
"4  c #916A53",
"5  c #9A6F56",
"6  c #AB644A",
"7  c #A16851",
"8  c #AD6D51",
"9  c #A86D58",
"0  c #B36A51",
"q  c #B76F53",
"w  c #A1765D",
"e  c #A7755C",
"r  c #AE755B",
"t  c #B4715D",
"y  c #B97658",
"u  c #A87B63",
"i  c #AE7D64",
"p  c #B77764",
"a  c #BD7564",
"s  c #B27861",
"d  c #B47F64",
"f  c #BB7E63",
"g  c #C1785B",
"h  c #C87E61",
"j  c #C07B6B",
"k  c #AC836B",
"l  c #BE8466",
"z  c #B3876E",
"x  c #BA876A",
"c  c #BF8B6C",
"v  c #B78C72",
"b  c #BC8E72",
"n  c #C38264",
"m  c #CC8566",
"M  c #C78568",
"N  c #C48A6C",
"B  c #CC8C6D",
"V  c #CC8C6E",
"C  c #D18969",
"Z  c #D48C6E",
"A  c #D88F6F",
"S  c #C98270",
"D  c #C88973",
"F  c #CC8A78",
"G  c #D08B78",
"H  c #D38E7E",
"J  c #C39072",
"K  c #C69677",
"L  c #C89172",
"P  c #CC9475",
"I  c #C09379",
"U  c #CA997A",
"Y  c #CF9C7E",
"T  c #D19071",
"R  c #D09072",
"E  c #D29172",
"W  c #D09273",
"Q  c #D39273",
"!  c #D49374",
"~  c #D59475",
"^  c #DA9472",
"/  c #DD9876",
"(  c #D79778",
")  c #D1967C",
"_  c #D89778",
"`  c #D59A7B",
"'  c #D99878",
"]  c #D9997A",
"[  c #DB9A7A",
"{  c #DA9A7B",
"}  c #DC9B7B",
"|  c #DB9C7D",
" . c #DA9D7E",
".. c #DE9D7D",
"X. c #DC9D7E",
"o. c #DD9D7E",
"O. c #E09E7D",
"+. c #E29F7D",
"@. c #E2A07F",
"#. c #D89380",
"$. c #D89982",
"%. c #DD9E80",
"&. c #DE9F80",
"*. c #DF9F80",
"=. c #CFA186",
"-. c #D4A082",
";. c #DFA081",
":. c #DCA386",
">. c #D8A485",
",. c #D7A88D",
"<. c #DCA88A",
"1. c #DFAB8E",
"2. c #DBAB91",
"3. c #DFAF94",
"4. c #E0A081",
"5. c #E2A181",
"6. c #E3A181",
"7. c #E0A182",
"8. c #E1A283",
"9. c #E3A282",
"0. c #E4A281",
"q. c #E4A382",
"w. c #E5A382",
"e. c #E4A383",
"r. c #E5A383",
"t. c #E6A483",
"y. c #E5A484",
"u. c #E6A584",
"i. c #E6A585",
"p. c #E7A685",
"a. c #E7A686",
"s. c #E8A787",
"d. c #E9A887",
"f. c #E0A58A",
"g. c #E3AC8D",
"h. c #E7AD8F",
"j. c #E8A888",
"k. c #E9A989",
"l. c #EAAA8A",
"z. c #EBAA8A",
"x. c #EBAB8B",
"c. c #EBAC8C",
"v. c #EBAE8F",
"b. c #ECAC8C",
"n. c #ECAD8D",
"m. c #EDAD8D",
"M. c #ECAE8F",
"N. c #EDAE8F",
"B. c #EEAF8F",
"V. c #E4B195",
"C. c #E9B193",
"Z. c #EEB090",
"A. c #EEB091",
"S. c #EDB192",
"D. c #EEB192",
"F. c #EFB192",
"G. c #EFB293",
"H. c #ECB496",
"J. c #E6B599",
"K. c #EAB79A",
"L. c #EEB899",
"P. c #EEBC9E",
"I. c #F0B293",
"U. c #F0B394",
"Y. c #F0B495",
"T. c #F1B495",
"R. c #F0B496",
"E. c #F1B596",
"W. c #F1B597",
"Q. c #F2B697",
"!. c #F2B798",
"~. c #F2B799",
"^. c #F3B799",
"/. c #F2B89A",
"(. c #F3B99A",
"). c #F3B99B",
"_. c #F4B99B",
"`. c #F4BA9B",
"'. c #F4BA9C",
"]. c #F4BB9D",
"[. c #F5BB9D",
"{. c #F5BC9D",
"}. c #F5BD9E",
"|. c #F5BD9F",
" X c #F5BE9F",
".X c #F1BFA1",
"XX c #F5BEA0",
"oX c #F6BEA0",
"OX c #F6BFA1",
"+X c #F6C0A2",
"@X c #F6C2A3",
"#X c #F7C2A3",
"$X c #F7C3A5",
"%X c #F2C4A5",
"&X c #F7C4A5",
"*X c #F7C5A6",
"=X c #F7C6A7",
"-X c #F7C7A8",
";X c #F7C8A9",
":X c #F0CBAD",
">X c #F4CDAE",
",X c #F8C8A9",
"<X c #F8C9AA",
"1X c #F8CAAB",
"2X c #F8CBAC",
"3X c #F8CCAD",
"4X c #F8CDAE",
"5X c #F9CEAF",
"6X c #F3D1B3",
"7X c #F7D1B2",
"8X c #F0D4B6",
"9X c #FAD3B4",
"0X c #FAD7B8",
"qX c #F1D8B9",
"wX c #F7D8BA",
"eX c #F5DBBB",
"rX c #FADDBE",
"tX c #F6DDC0",
"yX c #F9E1C3",
"uX c #FBE5C7",
/* pixels */
"3.A.u.t.' N k k u u b Y Y ,.,.V.3.V.3.V.3.3.3.V.3.J.3.K.J.K.J.V.3.3.3.3.2.g.j.h.g.g.f.g.y.j.g.h.f.f.8.j.t.e.{ [ ( ' ( [ _ _ ! Q ",
">.l.m.b.p.~ x k u u b U =.-.<.3.3.3.3.V.3.3.3.3.3.3.V.V.J.V.V.3.3.3.1.3.3.g.c.c.g.f.f.:.f.f.a.f.g.e.e.t.j.r.O.' [ [ ..o...[ ! R ",
"J O.+.u.w.( d u u k z Y -.=.-.2.3.3.1.V.V.V.2.3.3.V.3.V.J.K.3.3.3.3.,.1.3.g.:.j.g.g.:.:.f.g.f.g.k.k.7.i.j.d.[ [ } } ~ ..O.[ T Z ",
"c Z ^ / / T d u u k z U >.Y >.2.3.3.1.V.J.3.3.2.3.3.3.V.K.J.3.3.3.3.3.2.3.g.j.j.h.f.8.:.h.S.v.n.M.c.q.a.s.a.5.[ ..[ } ..O._ E Z ",
"b A Z [ A A f i u k z U Y -.>.2.2.3.3.V.3.3.3.3.3.V.3.V.V.J.3.V.3.3.1.V.1.3.v.Y.S.G.Z.Y.h.M.x.n.j.k.8.a.4.y.4.} { [ _ 4.[ ~ Z Z ",
"J / Z ^ A Z M f d d z U =.=.>.2.3.3.V.V.3.3.V.2.3.V.V.3.J.J.J.J.H.L.P.J./.Q.Y.R.H.D.Z.x.c.k.8.i.a.p.9.*.*.4.5.[ [ { | o.[ T C C ",
"J ..Z ^ ^ / C n n c J -.,.,.,.1.J.L.V.K.K.K.1.3.H.P.V.L.XX*X)..X_.OXR./.Q.!.v.M.D.U.b.k.c.a.&.p.d.p...*.e.z.6.%.;.&.{ 4.o.! M M ",
"J O.Z Z ^ ^ Q M c W -.1.H.H.H.L.XXXXL.P.$X@XP./.XX/.L.).=X#X X/./.).Y.Y.Y.F.v.v.D.I.v.M.B.k.u.i.u.9.O.4.d.d.8.%.;.%.%.&.4.~ C n ",
"l 4.C ^ / [ ` V V %.a.S.Y././.oX_.OX{.#XXX$X+XoX!.T.H.!. X#X X/.H.Y.B.Q.S.S.M.T.S.Q.S.I.v.Z.j.a.4.6.4.d.r.d.e.8.| &.X.7.O._ C h ",
"x %.Z ^ @.O.] ) P ` ` ` :.<.h.W.[.]. XXX XOXOX{.^.M.v.S.{._.{.!.v.a.h.v._.Y.!.!.{.Q.!.H.I.S.k.8.&.%.%.{ _ ] { ] ] ] &.%.&.~ C g ",
"x %.A / / V t r 3 < = & * 2 w P h.H.H.!.~.oX~.).Y.M.e.Z.).{.F.v.a.u.&.v.{.#X).OX{.XXC.H.h.f.L x p s r r r f f M D W V ( { ] m g ",
"I :...[ C t ; > < : & O O O # & 3 f P %.H.!.T.Y.S.j.8.j.!.!.H.j.r.4.6.h.).).).).).V.<.) x 7 : = $ $ $ = : < 9 8 t s t f W R M f ",
"J f.j.u.Q n l W -.,.Y i < = & & = - 7 l P e.c.Y.k.k.e.a.k.M.a.y.%.} O.c.S.).E.h.) s < = $ X . . . . X $ $ & = > ; , , 7 8 p p f ",
"c Y h.O.o._ %.e.h.S.H.h.,.I d r 9 7 8 y l W e.k.x.k.e.i.j.e.e.&.] ` O.4.j.k.o.l 7 = $ o X . . . o $ : < : > : > > > ; - < < < 7 ",
"K Y ;.y.r.p.%.p.8.j.a.g.:.;.P ) L N f l n V ~ p.s.x.*.e.a.k.4.~ C V D W _ ( y 1 : + $ o o + + < r J V V x s r r 9 1 - , , < : - ",
"-.-.;.y.k.e.4.( B L _ %.g.g.%.W V f y y V W _ 4.z.a.&.4.z.d.y.B n l l l B f 1 - = + + = - 7 t M _ ]  . . .` W P V n t 8 9 < > = ",
"-.<.o.a.i.e.Q f f f.H.{.L._.v.a.] M t 8 y W _ e.w.a.4.r.6.d.e.V t y t f p 8 , , - - - < 7 y f D N E L W L P P ` W T V N t 9 < ; ",
">.<.8.e.M.e.n 8 ` V.V.<.:.P V x p y t 6 8 n V ( e.i.r.y.i.r.9.V f y t t 8 1 ; - - : : - , 8 t y t 0 8 9 1 , < 8 p n M M n f r 7 ",
">.,.&.Q &.e.f t ` -.s < + O . . . $ = < 6 t n C 4.B.r.a.y.k.o.~ B n 8 6 1 < - - = + o = r V W ] ` W n n t 7 - + - t l M D B f l ",
"-.-.{ n E V l f r + .   . . .     . . o = , y B O.B.Y.B.S.M.y._ V y 6 , , - = + o o : 3 9 3 > > < < 7 9 7 7 3 = $ = f W _ B n n ",
"-.>.B.~ n 8 , ; + X X $ % % . . . . # & o $ ; T _ Y.@X+XR.Q.M.4.M 6 ; , - = + X X + + $   .         . . . . . . . . < N f f f B ",
":.<.k.x.5.B q 8 D W N L J d 7 & * > 7 < : - , ~ d.!.5X5X,XOXW.4.f 1 , , - @ + X o + = = O O     . . . . . . . X . . + 1 9 l [ *.",
"<.f.W 4.j.R.a.+.~ a.y.y.e.a.( ` ` ~ M C V ~ [ x.!.@X5X0X7X<Xh.~ q 1 , 1 ; 8 8 8 y M M V V x 2 > > 3 < < < 7 > - - < 7 6 6 n f l ",
"g.e.X.d.E.Q.^.n.d.O.*.W T C Z m Z C Z Z T M C x.+X*X7XwX7X*Xh.V q 6 6 y f M / 4.o.} _ X.r.&.W C V W T l y y y M Z C 8 , R { V t ",
"f.e.&.c.B.[.^. X/.e.m h M h m C m h g y 0 M h.+X$X2X2X0X<X@Xk.T 0 6 0 C _ 4.e.r.[ T M B T _ C m g g g h m Z Z Z y ; - y ( O.[ O.",
"c.g.8.5.T.!.[.{.#X Xx.~ h y 6 6 6 , , 0 { XX<X;X,X2X5X5X,XR.e.C g g h M ~ p.x.x.b.d._ y 1 1 6 6 6 6 6 0 q 6 , - - , T [ ~ C _ 4.",
"Z.Z._ y.Q._.E.+X*X,X|.|.).l.~ T W ] :.XX<X5X;X1X5X9X,X1X@XB.~ m m Z Z [ O.d.w.z.x.I.D.Y.M.;.n t 9 , ; ; , 1 6 n o.k.i.r.4.~ M o.",
"v.c.4.c.!._.{. X5X4X-X@X@XXX[.{.*X,X$X;X1X2X1X3X9X9X4X@X{.9.C M C A / p.z.a.d.p.c.Z.E.R.{. XOX{.{.I.j.j.D.Y.U.M.M.c.0.i.r.*.V ( ",
"j.j.&.B.F.XX{.,X-X9X5X3X$X{.!. X$X1X3X=X#X7X4X7X0X0X4X+XS.O.C Z m Z A [ [ p.p.B.c.F.I.).!.oX{.#X+X#XXX_.)./.F.M.d.p.w.a.4.5..._ ",
"i.8.e.M.T.{. X*X7X9X9X4X*X).!. X2X4X=X&X;X7X9X9XrX7X*X).B.+.^ Z Z h h g y q g C e.n.T.^.{._.OX+X-X=X+X#XoX~.U.M.z.9.i.u.u.@.&._ ",
"s.i.o.B.Q.+X). X5XwX4X5X2X*X{.$X2X5X#X=X;X5X2XtXuX0XXX!.E.k.*.} Z g q g h q 1 , q _ d.E.{.|.[.+X,X3X X+XOX{.D.N.Z.x.9.i.d.a.O.[ ",
"i.e.o.9.Y.!._.OX,X4X1X4X3X,X*X=X1X-X#X X*X-X5XwXyX7XXXY.Y.F.c.d.[ h g Z [ [ h 1 ; , f _ B.Y.!.XX*X@X[.).XX).F.n.B.e.i.0.d.w.*.X.",
"5.5.o.d.b.T.^.|.{.@X*X1X$X@X X XS.v.e.k.{.2X7XwX7X<X{.{.W.{.).p.Z h h +.p.u./ h ; - ; 8 D e.B.Y.Y.).B.E.D.Y.x.B.j.d.u.d.e.e.*.4.",
"0.&.O.a.b.B.).Q.~._.)./._.U.k.o.Z g f a.@X2XwXwXwX,X*XoX{.OXB.C g g C / O.~ m q 1 , , , 6 n { y.c.x.B.n.b.x.d.i.d.u.a.u.4.%.&.{ ",
"7.8.[ p.n.Z.Z.^.~.^.x.k.9./ g 0 ; 6 ) @X2X0X0XrXtXwX*X*X$XR.B t 6 1 1 , , , ; , 6 q 0 y 0 0 t R o.p.*.e.i.d.4.e.e.i.O.*.9.7.~ ` ",
"O.o.o.@.d.m.b.n.E.M.o.^ m q ; - 1 %.XX<X5X0XtXyXuXuX7X*XR.R 8 - = + + + @ @ ; ; 1 6 6 0 y q 8 8 n R / [ O.} [ _ 4.4.} _ [ ` W T ",
"_ [ [ 5.+.u.e.x.j.o.C g 6 - = 8 :.XX<X0X9X9XtXuXtX0X=XP.W 6 - + $ + + + + @ @ - - ; ; 6 6 0 , , , t M W T ! T T R W ~ ( Q W L W ",
"( ~ _ } } ..O.5.o.C y 1 ; = 8 %.L.*X5X7X0X9X0X5X=XP.S.` r ; = + @ + + + + + @ = - = @ - ; ; - = = - 7 n W T T T R V E R W V N P ",
"W W T ~ [ } ~ } ~ h 6 ; - 1 M g.P.,X.X<X*X@XL.P.S. .f 6 ; = + + @ + + + + = @ - = + + + - - = = $ & + ; l { V ( ! Q B T W W l W ",
"D D B ! } [ ~ ^ C q ; - ; f W g.H.y.] ;.g.y.y.h.a.W 1 ; ; ; ; - - = @ = = - - > : = = = = : = + & $ $ $ - t R Q ~ E V W ~ L l V ",
"l N N [ [ o.[ ~ g 6 ; ; 8 V W ;.V y r D W W D M f 8 ; - 7 M n 6 < ; - - - - - ; - - - : - - - : = : + + + : 8 B B V T ( U  .l B ",
"l N B [ 8.&...Q g 1 ; ; f n N N t 6 9 t l f 8 1 < @ + , n W T f 8 1 , ; ; - ; ; ; ; ; ; ; , , , 3 - + + @ + = 6 M B E ( :. .N c ",
"l N l %.a.k.5.V t 0 ; ; l n l f 8 9 7 r f n 8 8 6 ; 8 %.v.e.~ C g q , , , 1 6 8 6 8 1 6 1 1 6 1 , , = $ $ @ = ; n ~ ~ :.g. .N L ",
"x c l  .j.v.n._ y t 8 , M M p r 8 9 8 y n M f y l n T 4.B.d.o.~ C g q 0 q q y g h h q 6 6 6 6 , < , : + + = ; ; f ( {  .f.) L L ",
"d N J -.g.v.v.a.M y n t n N 7 < < 1 , 1 0 f n Z Z Z C ~ ~ &.^ Q m h y q q q 0 q q 0 , , ; ; - = + + o + - 7 t 7 y { | ;.` W N L ",
"l N Y U g.M.D.c._ y l N f l 9 < = + + @ , 6 0 g g g g h m h g 0 0 1 , ; ; ; ; ; ; - = @ @ @ + + + @ = 7 f L E r n o.{ ] ) J c D ",
"K Y P Y :.R.v.S.k.D r L P N f p 8 8 6 8 q y 0 q q q 0 q 0 0 1 1 6 0 1 7 6 6 , 1 , ; ; , 1 6 1 1 6 6 8 Q o.5.~ f Q &.( ~ L N l N ",
"K Y ) ` :.c.M.S.R.%.y n  .( V V T C n f Z ~ ~ H #.G F F H G F F H G S D D f g g n j a y g g q 0 y h _ d.4...M n %.*.~ L c n N N ",
"K -.-.>. .:.h.G.v.n.D f L X.Z V C T Z h M _ _ ` E #.H H H $.$.#.G D D D y t g f q a y a y y 0 q n [ B.c.[ [ n T o.| N l d L V R ",
"Y >.-. .-.-.:.f.j.g. .y l O.[ ^ T Z A m g f n y f M V V n n M N f 8 9 9 9 9 9 9 9 r 8 t t t t n { l.S.e.8.T y T [ W d d x l W ) ",
"Y <.-.:.:.>.Y P ) j.%.n 6 o.+...} _ C M g f 8 9 9 8 9 r s s r 8 9 7 < < 3 3 < 7 9 9 7 0 t f f ~ c.T.e.8.%.n f Q _ D r d l L ) P ",
"-.<.-.>.>.-.J 7 l f.` N 8 D 4.w..._ Z h h f t 8 t t f f l l r 9 r 7 < < 3 < < 3 9 9 8 8 p M ( y.M.x.a.8.( f V Q M s r d L U L l ",
"U <.:.<.-.K u > 2 x x V l n 4.p.....~ h g f y f n M M V V l p r 9 9 3 3 < 7 7 r t p y p n { l.v.j.n.h.f.M n ~ V s s d c L Y P ) ",
"U >.>.>.-.c w * * 2 w J  .` :.q.6...[ h g n M ( y.e.4.%.{ W n f s r 9 7 r s x N L P V B _ y.v.c.C.g.a.W N V R f l x c J P U ` ) ",
"b -.Y -.Y c 5 * * * 2 w P C.k.a.u.a./ A M Z ( c.F.Z.8.&.5.e.&.%.` Y L Y ` :.] ` | %.W ( ;.h.f.g.h.S.( B V Q p d f L n J L -. .:.",
"z U Y Y U z 2 % * * * 2 c H./.U.8.u.e.} _ p.k.S.L.D.e.&.i.k.y.e.g.f.g.2.V.h.f._ ` ` ` | a.a.y.f.h.g.W W ( L 9 9 s L N c L ` f.g.",
"w J U Y L d * % & & & 3 i h.XX X4.9.l.j.[ a.S.~./.^.S.Z.a.c.c.H.V.H.P.@XV.g.g.;.~ ` ( | &.e.e.g.h.g._ ] P x w 9 9 l L P L ` >.<.",
"w z K Y J e & % & & * > u Y ;X*XH.8.j.n.j.j.H.Y.{.{.|.{.OX].)..X.XP.XXL.f.;.i.;.{ ! ( ( 8.f.l.v.M.:. .) L d u e 7 7 d N ) Y d u ",
"5 5 b b x e % # % & & : 3 Y =X1X].n.5.j.j.Z.A.U./.`.U.R.!.(.L.H.S.H.g.h.h.j.%.o.( ( W  .e.v.M.W.S.<.U d x z u e : = 3 r s 5 4 4 ",
"% & 2 4 k 5 % O % # % : 3 J <X3X+Xx.5.j.}.{./.W.).W.M.c.Z.x.j.8.a.e.&.o.O.} { ( { %.%.%.v.H.!._.H.Y J 9 i u 7 7 > % = : > < < 4 ",
"O O # * 4 4 & O O % % : < V =X7X3.<.L.*X=X3X,X#X].|.^.(.Y.F.k.b.7.5.~ Q E ( ] %.5.h. .e.S.].{.XX:.J x i 4 2 : 4 & # & 3 3 9 7 i ",
"O O O % * 2 * O O O % = 8 v.;X7X>X0X9X9X9X9XwXwX9X4X5X5X=X'. X{.).H. .W W ~ _ %.8.j.c.Y.{.+X/.-.J i w u 2 * & * # # > 7 r d f x ",
". . . # % * & # . O $ < %.XX<XwXtXyXeXwXwXtXeXyXyXyXwXwXeX0X=X&X=X2X.XV.-.P D | v.W.H.XX=XP.Y J c w : * & & O O O # & < 9 r r d ",
". . . O # & % # . X # d g.#X5X6XwXeXeX6X8X8X8X8XqXqX8X8X8X8X:X:X>X:X:X:X:X3.Y <.J.K.P.P.%X3.b v k w * & & # O O # # % * 5 5 w u "
};
