/* XPM */
static char *out[] = {
/* columns rows colors chars-per-pixel */
"64 64 214 2 ",
"   c #2B1608",
".  c #4A2415",
"X  c #5C2C1A",
"o  c #68321E",
"O  c #583F2A",
"+  c #763A24",
"@  c #7E3D26",
"#  c #63432F",
"$  c #6E402D",
"%  c #6A4D37",
"&  c #77523D",
"*  c #7F5D46",
"=  c #814A35",
"-  c #8E4B34",
";  c #96523A",
":  c #865540",
">  c #8C5D46",
",  c #9D5943",
"<  c #955F49",
"1  c #A45E45",
"2  c #89664F",
"3  c #9B644E",
"4  c #916A53",
"5  c #9A6F56",
"6  c #AB644A",
"7  c #A16851",
"8  c #AD6D51",
"9  c #A86D58",
"0  c #B36A51",
"q  c #B76F53",
"w  c #A1765D",
"e  c #A7755C",
"r  c #AE755B",
"t  c #B4715D",
"y  c #B97658",
"u  c #A87B63",
"i  c #AE7D64",
"p  c #B77764",
"a  c #BD7564",
"s  c #B27861",
"d  c #B47F64",
"f  c #BB7E63",
"g  c #C1785B",
"h  c #C87E61",
"j  c #C07B6B",
"k  c #AC836B",
"l  c #BE8466",
"z  c #B3876E",
"x  c #BA876A",
"c  c #BF8B6C",
"v  c #B78C72",
"b  c #BC8E72",
"n  c #C38264",
"m  c #CC8566",
"M  c #C78568",
"N  c #C48A6C",
"B  c #CC8C6D",
"V  c #CC8C6E",
"C  c #D18969",
"Z  c #D48C6E",
"A  c #D88F6F",
"S  c #C88973",
"D  c #D38E7E",
"F  c #C39072",
"G  c #C69677",
"H  c #C89172",
"J  c #CC9475",
"K  c #CA997A",
"L  c #CF9C7E",
"P  c #D09072",
"I  c #D29172",
"U  c #D09273",
"Y  c #D39273",
"T  c #D49374",
"R  c #D59475",
"E  c #DA9472",
"W  c #DD9876",
"Q  c #D79778",
"!  c #D1967C",
"~  c #D89778",
"^  c #D59A7B",
"/  c #D99878",
"(  c #D9997A",
")  c #DB9A7A",
"_  c #DA9A7B",
"`  c #DC9B7B",
"'  c #DA9D7E",
"]  c #DE9D7D",
"[  c #DC9D7E",
"{  c #DD9D7E",
"}  c #E09E7D",
"|  c #E2A07F",
" . c #D89380",
".. c #DD9E80",
"X. c #DE9F80",
"o. c #DF9F80",
"O. c #D4A082",
"+. c #DFA081",
"@. c #DCA386",
"#. c #D8A485",
"$. c #D7A88D",
"%. c #DCA88A",
"&. c #DFAB8E",
"*. c #DBAB91",
"=. c #DFAF94",
"-. c #E0A081",
";. c #E2A181",
":. c #E3A181",
">. c #E0A182",
",. c #E1A283",
"<. c #E3A282",
"1. c #E4A382",
"2. c #E5A382",
"3. c #E5A383",
"4. c #E5A483",
"5. c #E6A483",
"6. c #E5A484",
"7. c #E6A585",
"8. c #E7A685",
"9. c #E7A686",
"0. c #E8A786",
"q. c #E8A787",
"w. c #E9A887",
"e. c #E0A58A",
"r. c #E3AC8D",
"t. c #E7AD8F",
"y. c #E8A888",
"u. c #E9A888",
"i. c #E9A989",
"p. c #EAAA8A",
"a. c #EBAA8A",
"s. c #EBAB8B",
"d. c #EBAC8C",
"f. c #EBAE8F",
"g. c #ECAC8C",
"h. c #EDAD8D",
"j. c #ECAE8F",
"k. c #EEAF8F",
"l. c #EDAF90",
"z. c #E4B195",
"x. c #E9B193",
"c. c #EDB091",
"v. c #EEB090",
"b. c #EFB090",
"n. c #EEB091",
"m. c #EDB192",
"M. c #EEB192",
"N. c #EFB192",
"B. c #EFB293",
"V. c #ECB496",
"C. c #E1B49A",
"Z. c #E6B599",
"A. c #EAB79A",
"S. c #EEB899",
"D. c #EEBC9E",
"F. c #F0B394",
"G. c #F0B495",
"H. c #F1B495",
"J. c #F0B496",
"K. c #F1B597",
"L. c #F2B596",
"P. c #F2B698",
"I. c #F2B798",
"U. c #F3B799",
"Y. c #F2B89A",
"T. c #F3B89A",
"R. c #F3B99B",
"E. c #F4B99B",
"W. c #F4BA9C",
"Q. c #F4BB9C",
"!. c #F4BB9D",
"~. c #F5BB9D",
"^. c #F5BC9D",
"/. c #F5BD9E",
"(. c #F5BD9F",
"). c #F5BE9F",
"_. c #F1BFA1",
"`. c #F5BEA0",
"'. c #F6BEA0",
"]. c #F6BFA1",
"[. c #F6C0A1",
"{. c #F6C0A2",
"}. c #F6C1A2",
"|. c #F6C2A3",
" X c #F7C2A3",
".X c #F6C3A4",
"XX c #F7C3A5",
"oX c #F2C4A5",
"OX c #F7C4A5",
"+X c #F7C5A6",
"@X c #F7C6A7",
"#X c #F7C7A8",
"$X c #F7C8A9",
"%X c #F0CBAD",
"&X c #F4CDAE",
"*X c #F8C8A9",
"=X c #F8C9AA",
"-X c #F8CAAB",
";X c #F8CBAC",
":X c #F8CCAD",
">X c #F8CDAE",
",X c #F9CEAF",
"<X c #F3D1B3",
"1X c #F7D1B2",
"2X c #F0D4B6",
"3X c #F6D4B6",
"4X c #FAD3B4",
"5X c #FAD7B8",
"6X c #F1D8B9",
"7X c #F7D8BA",
"8X c #F5DBBB",
"9X c #FADDBE",
"0X c #F6DDC0",
"qX c #F9E1C3",
/* pixels */
"=.M.5.8._ H u k i k K O.O.*.*.z.*.Z.z.z.=.A.A.A.z.Z.A._.D._.z.A.z.Z.=.t.&.Z.t.f.t.t.p.p.y.c.d.f.r.u.6.y.6.>.' [ R ~ R Q Q ~ T R ",
"&.i.w.u.0.Q x k i i G K #.*.*.=.z.z.C.z.z.z.z.=.=.z.z.z.D.A.z.z.Z.z.z.=.x.z.t.t.f.s.%.s.y.r.b.r.s.6.6.,.,.>.[ ' ( ( _ ` ] ` R T ",
"G ] } :.2._ d u i z F O.O.*.#.z.=.A.=.z.z.A.*.=.=.Z.=.z.Z.A.=.=.=.Z.=.*.=.t.%.=.s.t.,.%.r.t.%.9.6.6.[ ,.9.i.` ` _ ` T ] } [ Z Z ",
"v E E W A M i u i k F L #.#.*.=.z.z.=.z.A.A.=.*.C.=.=.z.Z.z.=.=.A.z.=.*.=.=.*.r.t.%.6.@.r.r.e.&.r.9.<.<.u.6.o.} [ ` / [ | ( I C ",
"c A E E Y C s i u k G O.O.%.$.=.*.z.=.z.=.z.=.=.=.z.=.Z.C.Z.z.z.z.=.=.z.=.z.*.r.*.=.r.r.r.t.t.f.f.B.j.u.6.p.o.<._ ` _ ] ` / Y Z ",
"H W W W ] E M f x c K L O.#.%.*.*.z.z.=.=.z.z.=.=.z.z.z.Z.z.z.=.z.=.*.z.z.Z.t.x.V.V.G.G.K.x.N.f.h.p.l.9.y.o.:.o._ ~ _ ~ ` R Z m ",
"c o.E E ] :.Z V N H H K #.%.#.*.%.z.z.z.z.z.t.z.Z.S.=.Z.Z._.z.A.D.D.x.!.{.!.V.I.Y.~.s.B.Y.n.6.9.9.s.<.1.:.6.{ } [ _ R ` [ ( M m ",
"c ] R E } :.W P H H H J #.%.*.=.z.*.=.t.B.S.D.J.S.A.S.D._.OX[._.}._.Y.P.~.T.J.B.H.c.f.f.N.s.<.o.6.6.] } | o.-.[ [ _ Q ~ o.~ V m ",
"d o.E ] } | ] _ V R ! #.e.z.x.S.V.)._.#X|.+X]. X!.(.!.'.(. X[.OXP.Y.P.P.G.U.N.B.j.m.j.l.p.F.p.0.6.6.} o.} 9.0.6._ [ Q [ { [ P M ",
"d } W E o.8.2.] Q ~ ..r.G.U.R.R.R.).[.[.OXOX].).].W.T.H.U.].[.[.P.m.G.N.P.G.f.s.s.n.N.b.n.B.f.p.0.2.o.:.y.s.6.>.,.[ _ X.>._ I n ",
"x :.A E 2.f.6.6.' %.@.f.N.B.G.U.E. XY.).[.+X!./.[.).V.c.G. XU.R.E.B.6.p.G.R.c.H.H.~.V.U.U.P.p.p.<.<._ e.,.6.^ ! _ [ R { } [ P h ",
"N o.E W p.r.r.r.#.^ F N H F F R r.R.R.R.[.[.~.E.).R.c.p.f.U.R.P.Y.s.6.6.B.H.~.R.[.!.!.Y.P.x.6.' J J N H V N f l V V V T _ ~ P h ",
"F b.] ] ` R V x 9 7 > : & & % & > d K #.e.f.N.U.H.U.s.u.6.H.U.P.p.p.>.,.6.N.R.[.R.[.L.G.r.O.c r 3 < : > > < < 9 r s s f n I B h ",
"c 6.| W A M 0 , 3 7 7 > = # O O # + : 7 f J >.s.H.B.p.<.6.s.B.p.1.<.o.{ <.u.G.G.H.f.^ d 7 > $ X X . . . X + + = > , , ; , 8 y y ",
"F :._ ` ] R M P ' e.e.#.K x 4 > : : = , 9 l M _ p.b.6.6.0.p.5.0.6.} T ` } p.0.u.{ l < = # X . . . . . # + = + = = > = : > < : ; ",
"K _ { | u.>.>.>.y.5.r.r.x.r.#.J J N f y f f n V >.u.9.6.u.9.9.2.<.P m C T R Q P y , = $ X X X X # = < 9 x d 9 7 7 3 > : > > > = ",
"O.' >.h.0.0.-.u.2.o.' >.:.>.^ ^ J H n n f M B U _ 6.6.u.| 8.9.9._ h g n n B n y , - + + $ + = < 9 N J ' ' ' J J N N f 9 7 7 < : ",
",._ ,.f.h.0.2.2._ g l #.x.x.V.x.6._ V f t y B R { <.6.6.:.1.9.3._ g t y y y y 6 ; = @ = = , 7 s l V V V V J H B V U H n n s 7 ; ",
"r.' _ b.b.h.[ R y n e.A.D.S.e.#.! B f f t 8 t B Q <.} 0.6.:.o.<._ m t t t y 1 , ; - = - ; ; 3 0 y f r r r 6 , , 1 s f M n l 8 0 ",
"e.I I t.G.h.` f 0 ' z.*.H 7 = # O X $ = 3 6 8 g Z _ 6.p.p.6.6.:._ V f y t 6 , - - = = $ + , d J ^ R V N n a 7 : @ + ; s M l l f ",
">._ V } <.s.~ y f ! x > X . . .       . X = , t n R 6.H.c.f.u.r.[ U l y 1 , ; - @ + X # : 3 : & O # O $ = : : : = $ $ 6 N U B n ",
"f.r.R P B n n l y > X   . . # .       . # X + - f T 0.Y.).R.H.f.u.R g 1 , ; - @ $ X X + + .   O                   . . $ s n t f ",
"G.R.6.{ I f , - - > : > < 4 > = # # # : > = + + r 6.6.|.,X:XR.P.c._ 6 ; , ; + @ $ X X $ + : # O . . . # # O X O X X . X < 7 f ~ ",
"o.<.} 0.p.o.V n B 6.9.6.r.6.^ U J J N l f t y n _ b.H.+X5X4X#XE.h.B 1 ; 6 , - 1 6 6 f B Q ^ R N d 9 9 f N s 6 7 3 > ; 6 6 6 t f ",
"A C C 2.f.P.c.s.W } ,.6.,.<.{ _ T Z C Z C E Z E } P.~.:X5X7X-X).6.m 6 , 1 g y M Q ] Q _ _ o.:.o.C m m m h g g m m C V f , n _ M ",
"] Z A 8.P.Y.~.E.L.6.` E E Z m C Z C C C m M h m N.!.OX,X5X4X-XR.<.M 8 6 q M _ ` } <.` P B C Y Z m g 0 8 q g m Z M y ; = 6 C 2.o.",
":.W A u.P.~.E.).).T.:.A h g y h g g 6 6 8 y U R.#X+XOX,X;X;X!.G.` M q g M m P 6.u.s.6.9.{ M 6 6 6 6 , 1 6 1 ; - @ - , M ~ U B { ",
"2.Z A h.P.Y.~.).[.+XQ.G.h.Q f 8 6 6 6 y ( S.+X$X-X*X=X:X,X:X!.9.T M h m W ` ` 0.p.u.s.B.P.G.4.' R M f y t 0 t f V o...6.9.[ M P ",
"` C ` b.b.E.~. XOX,X-X+X!.~.H.B.f.N.G.|.+X:X$X*X+X,X,X4X-X-XH.:.C M m E } u.6.u.6.u.p.G.G.R.R.[.Y.U.U.T.B.P.G.P.h.b.6.u.| o.P V ",
"6.W p.h.H.U.).OX-X-X,X@X+X~.~.P.~.).-X-X-X].*X$X,X4X5X1X,X Xb.` C M m Z E } ] :.6.u.b.b.P.Y.P.Y.[.[.[.~.)./.R.H.h.6.6.:.2.o.} P ",
"7.7.u.h.P.~.~. X,X4X-X,X$X[.N.P.[.$X+XOX XOX#X,X4X5X7X1X+X).p.o.A Z h g g g q q y Z } b.U.R.P.!.OX$X[.).[. XY.P.c.s.{ | 6.6.] Q ",
"7.,.u.g.U.R.).[.,X7X4X,X1X[.H.~.OX-X-X+X@X#X=X,X7X9X9X>X+X~.f.6.0.] C g y g g q 1 , 0 I b.U.P.~.OX[. X).[. X~.B.N.0.6.:.8.8.o.` ",
"..+.:.u.N.!.[.OX$X4X5X4X-X+XOX XOX@X X*XOX*XXX,X,X9XqX,X[.~.b.b.h.p.W m y Y ] W h 6 - , f <.b.~.~.).[.[.P.E.E.P.v.u.6.0.6.<.| o.",
";.:.2.8.N.R.~.).OX-X,X,X$X;X$X+X@X X).T.G.U.#X:X,X7X5X-X+XU.P.Y.H.0.A m m W 0.:.A y - - ; t T 6.b.G.U.P.Y.B.N.k.j.a.q.8.0.:.9.o.",
"+.p.o.2.u.U.H.).[.+X[.OX]. X/.U.E.h.E C ` R.[.,X5X9X:X:X+XOXR.[.c.I y y M W A Z g q , 1 1 6 6 M ] p.0.s.b.b.1.6.6.u.} 7.7.8.[ { ",
"o.6.u.:.a.N.H.U.).~.P.H.H.s.| W Y g 6 y f.+X$X,X9X9X5X,X,XOX[.G.T t 1 , 1 1 ; ; , 1 8 q y q 6 0 n R { :.u.6.o.o.:.2.] o.<.] [ R ",
"_ 6.0.0.1.a.c.U.B.R.B.s.} ~ m q , - 8 f.+X,X$X4X7XqXqXqX,X+XH.Q 8 ; + + $ + + @ - , 1 8 8 q q q 6 y B ~ R ` R _ Q [ _ ] R T T U ",
"_ 2.u.| o.3.u.h.N.h.o.E C g 6 - ; y r.+X,X4X,X,XqXqXqX5X,X!._ 8 - + + + + $ + @ @ - - ; , 6 8 6 6 1 8 f V I I U T T R U R I C V ",
"R } o.] ` 1.:.u.u.2.C h y 1 - - l c.D.-X4X5X:X4X4X4X|._.G.,.t ; = @ $ + + $ o + = = @ @ @ ; - ; ; ; - , y P P V V P M V P P n M ",
"B Q ~ R ( ) o.| o.R n q 6 - - t >.S.+X$X,X4X-X+X*X).c.' B y , = @ + + + + + @ = = : = + @ = = = = = + @ : t U R R V B M P V f n ",
"l U R ~ Y E ` | E C 0 1 ; ; 1 P >.D.|.|._.D.G.t.s.B.s.~ 8 , ; ; - - = - = = = ; : , = = = = = : = + + + + = 7 V I P B V V U n N ",
"l V ~ Q W W ` ` A g 6 , ; , n U ,.x.r.^ ^ ' { [ _ ~ Q M 6 ; 6 f n 6 , ; ; - - - - ; : = : - ; ; > : = + + + = 7 M B B V U ^ N n ",
"l U R >.6.2.A Y T h 1 , , t N B { [ f y f J H B y t 1 - @ - 8 V P n 8 1 , , - - ; ; - - ; , ; , , , > = + + + = 6 B M U ' #.B N ",
"x H ^ { s.p._ B m n 8 , 1 y n f J l r 8 t f f f 0 6 , - ; l T T A M y 8 6 , ; , 8 6 6 1 6 6 1 1 6 1 , > = + + + - f B Q #.#.P c ",
"d H ' 9.9.N.,.B f B y 6 1 l l l l s 6 0 8 y f B t 8 0 8 n 6.s.0.Q Y n g q q 8 q y g g h y 8 6 8 6 3 , < = + + = - t U { #.' N N ",
"x c #.r.c.N.h.U f M P y 0 B M s s r 9 r y f n M n n M C U R ] :.] E Z m g g g y q g g q 1 , 1 ; ; = @ @ + = > 7 7 y Q _ ' ! c N ",
"J ! J 6.B.G.j.,.n l B V f V f r , , ; ; ; 1 6 y m Z m C C C m Z Z M g y q 8 , ; , , ; ; - - @ @ + $ $ + ; s f M r n I _ ^ J l c ",
"K L ! ' N.H.B.N.R y M ! V N l t 1 ; = - ; , 6 8 y y q q y y q 0 0 6 , , , - - - ; - - = - - - - ; , , 1 f Q _ ~ f V Q Q ! F l F ",
"G O.#.O.,.N.H.B.>.l f ' _ ~ V P l l f y f h h m m M n j a j p a p j p j j j p t 8 8 6 6 6 q 8 t 8 t q M _ o.` U y I R R N c c H ",
"K #.O.O.#.,.f.y.r.J y U >.o.Q P P I R P n M Y V V R  .D  . .^ ^  .H M M M l a y y r p t y q t 8 q g C 2.9.` R h M ~ R c l d F J ",
"O.%.O.#.O.e.#.J e.' 8 f ' 0.Q T Z ( T R B n f f f l M D U U B J H N s r 9 9 7 9 9 9 7 t t t 8 t n Q <.s.6.6.B y U _ n f d c c J ",
"O.%.#.O.#.L x i #.J f 0 P 6.:.o.o.` / T P n y t y t s f n l d l f s 9 7 7 3 < < 7 7 7 9 t r y f R ,.9.,.9.' f y R U s s x x F N ",
"K %.#.%.O.H 9 3 i F F f g <.6.u.| ] _ R M n f f f f l l l N N n d s 9 9 3 3 7 7 7 9 9 9 8 f n Q ,.s.r.6.-.I f B B l 9 d d H J ^ ",
"H O.%.#.#.c 5 * > 9 x H V [ 8.8.2.] ~ I n n n l P R U P V P H n d s r 9 7 7 7 9 s f f y l N Q ,.s.r.r.>.Q M M B n s 9 d F J ^ ! ",
"b O.L O.L b w * : 4 4 F ' 0.,.y.<.u.( T M M n P ,.f.6.{ [ >.U U J l r s s d s l l J N N H U ] r.r.r.e.^ V M M N s d r c J K ! #.",
"z K L L L z 4 & * * > i #.V.B.h.o.u.{ I C P R >.B.p.r.[ #.' O.^ #.! H H ^ O.L J J ! J U R o.6.,.r.r.O.U P N l s s F c c F J O.r.",
"w F K L G k * % & & > e K )._.^.>.<.6.` I ' f.G.G.V.r.e.#.r.%.e.#.#.%.z.e.#.#.^ J U H Q R ' >.,.#.e.^ ' J H r 9 9 c N H c J O.#.",
"w z G K b e & % % & > 4 F S.#XXXc.| -.<.6.:.f.U.~.I.V.G.V.S.S.V.Z.x.V.V.=.#.e.#.^ P P R ^ ' >.6.r.@...Q F l e 9 9 9 l F J K x i ",
"5 w v b z w # # % & & > s _.@X[.H.s.[ u.;.p.9.P.!.U.x.J.B.!.V.S.x.t.r.x.r.6.( ( Q U H U [ r.6.c.p.r.^ x H x k i < < 7 d d 9 4 4 ",
"% & > 4 k 5 # O # % & : 9 A.>XOXP.r.+.9.T.E.H.E.P.I.B.f.n.p.y.,.7.,.,.,.7.>.{ Q [ { Q _ r.f.G.V.f.O.H 9 x d e 7 : + : > > > < 4 ",
"O O # * 4 4 & O # # & : 7 x.,X+X#.r.!.$X@X$X|.+X).{.H.I.n.f.p.d.>.{ T R P [ R ` >.6.' { N.R.~.Q.O.x x e 4 > > 4 & # : < < 9 3 d ",
"O O O % * 2 & O O O % : f ).=X5X7X5X4X4X4X7X7X5X4X>X-X+X#X/.).!.U.K.' U U R / [ +.7.N.P.T.).V.^ F i i 7 4 : & * # # < 7 r d f x ",
". . . # % * & # . O $ < ..`.=X7X0XqX8X7X7X0X8XqXqXqX3X7X8X5X@X@X@X;X_.z.O.J S X.f.K.V._.@XD.L F c w * * & & O O O # & < 9 r r d ",
". . . O # & % # . X # d r..X,X<X8X8X8X<X2X2X2X2X6X6X2X2X2X2X%X%X&X%X%X%X%X=.L %.Z.A.D.D.oX=.b v z w * & & # O O # # % * 5 5 w u "
};
