/* XPM */
static char *out[] = {
/* columns rows colors chars-per-pixel */
"64 64 216 2 ",
"   c #2B1608",
".  c #4A2415",
"X  c #5C2C1A",
"o  c #68321E",
"O  c #583F2A",
"+  c #763A24",
"@  c #7E3D26",
"#  c #63432F",
"$  c #6E402D",
"%  c #6A4D37",
"&  c #77523D",
"*  c #7F5D46",
"=  c #814A35",
"-  c #8E4B34",
";  c #96523A",
":  c #865540",
">  c #8C5D46",
",  c #9D5943",
"<  c #955F49",
"1  c #A45E45",
"2  c #89664F",
"3  c #9B644E",
"4  c #916A53",
"5  c #9A6F56",
"6  c #AB644A",
"7  c #A16851",
"8  c #AD6D51",
"9  c #A86D58",
"0  c #B36A51",
"q  c #B76F53",
"w  c #A1765D",
"e  c #A7755C",
"r  c #AE755B",
"t  c #B4715D",
"y  c #B97658",
"u  c #A87B63",
"i  c #AE7D64",
"p  c #B77764",
"a  c #BD7564",
"s  c #B27861",
"d  c #B47F64",
"f  c #BB7E63",
"g  c #C1785B",
"h  c #C87E61",
"j  c #C07B6B",
"k  c #AC836B",
"l  c #BE8466",
"z  c #B3876E",
"x  c #BA876A",
"c  c #BF8B6C",
"v  c #B78C72",
"b  c #BC8E72",
"n  c #C38264",
"m  c #CC8566",
"M  c #C78568",
"N  c #C48A6C",
"B  c #CC8C6D",
"V  c #CC8C6E",
"C  c #D18969",
"Z  c #D48C6E",
"A  c #C98270",
"S  c #C88973",
"D  c #CC8A78",
"F  c #D08B78",
"G  c #D38E7E",
"H  c #C39072",
"J  c #C69677",
"K  c #C89172",
"L  c #CC9475",
"P  c #CA997A",
"I  c #CF9C7E",
"U  c #D19071",
"Y  c #D09072",
"T  c #D29172",
"R  c #D09273",
"E  c #D39273",
"W  c #D49374",
"Q  c #D59475",
"!  c #DA9472",
"~  c #D79778",
"^  c #D1967C",
"/  c #D89778",
"(  c #D59A7B",
")  c #D99878",
"_  c #D9997A",
"`  c #DB9A7A",
"'  c #DA9A7B",
"]  c #DC9B7B",
"[  c #DB9C7D",
"{  c #DA9D7E",
"}  c #DE9D7D",
"|  c #DC9D7E",
" . c #DD9D7E",
".. c #E09E7D",
"X. c #E29F7D",
"o. c #E2A07F",
"O. c #DD9E80",
"+. c #DE9F80",
"@. c #DF9F80",
"#. c #D99E87",
"$. c #D4A082",
"%. c #DFA081",
"&. c #DCA386",
"*. c #D8A485",
"=. c #DCA88A",
"-. c #DFAB8E",
";. c #DFAF94",
":. c #E0A081",
">. c #E2A181",
",. c #E3A181",
"<. c #E0A182",
"1. c #E1A283",
"2. c #E3A282",
"3. c #E5A382",
"4. c #E4A383",
"5. c #E5A383",
"6. c #E5A483",
"7. c #E6A483",
"8. c #E5A484",
"9. c #E6A584",
"0. c #E6A585",
"q. c #E7A685",
"w. c #E7A686",
"e. c #E8A786",
"r. c #E8A787",
"t. c #E0A58A",
"y. c #E3AC8D",
"u. c #E7AD8F",
"i. c #E8A888",
"p. c #E9A888",
"a. c #E9A989",
"s. c #EAA989",
"d. c #EAAA8A",
"f. c #EBAA8A",
"g. c #EBAB8B",
"h. c #EBAC8C",
"j. c #EBAE8F",
"k. c #ECAC8C",
"l. c #ECAD8D",
"z. c #EDAD8D",
"x. c #EDAE8E",
"c. c #EEAF8F",
"v. c #EDAF90",
"b. c #E4B195",
"n. c #E9B193",
"m. c #EFB090",
"M. c #EEB091",
"N. c #EDB192",
"B. c #EEB192",
"V. c #EFB192",
"C. c #EFB293",
"Z. c #ECB496",
"A. c #E6B599",
"S. c #EAB79A",
"D. c #EEB899",
"F. c #EEBC9E",
"G. c #F0B293",
"H. c #F0B394",
"J. c #F1B495",
"K. c #F0B496",
"L. c #F1B597",
"P. c #F2B697",
"I. c #F2B698",
"U. c #F2B799",
"Y. c #F3B799",
"T. c #F3B899",
"R. c #F2B89A",
"E. c #F3B89A",
"W. c #F3B99A",
"Q. c #F3B99B",
"!. c #F4B99B",
"~. c #F4BA9C",
"^. c #F4BB9C",
"/. c #F4BB9D",
"(. c #F5BB9D",
"). c #F5BC9E",
"_. c #F5BD9E",
"`. c #F5BD9F",
"'. c #F5BE9F",
"]. c #F1BFA1",
"[. c #F5BEA0",
"{. c #F6BEA0",
"}. c #F6BFA1",
"|. c #F6C0A2",
" X c #F6C1A2",
".X c #F6C2A3",
"XX c #F7C2A3",
"oX c #F6C3A4",
"OX c #F7C3A5",
"+X c #F2C4A5",
"@X c #F7C4A6",
"#X c #F7C5A6",
"$X c #F7C6A7",
"%X c #F7C7A8",
"&X c #F3C9AA",
"*X c #F7C8A9",
"=X c #F0CBAD",
"-X c #F4CDAE",
";X c #F8C8A9",
":X c #F8C9AA",
">X c #F8CAAB",
",X c #F8CBAC",
"<X c #F8CDAE",
"1X c #F9CEAF",
"2X c #F3D1B3",
"3X c #F7D1B2",
"4X c #F0D4B6",
"5X c #F6D4B6",
"6X c #FAD3B4",
"7X c #FAD7B8",
"8X c #F1D8B9",
"9X c #F7D8BA",
"0X c #F5DBBB",
"qX c #FADDBE",
"wX c #F6DDC0",
"eX c #F9E1C3",
/* pixels */
";.N.%.%.( L P I *.b.b.Z.b.S.Z.b.b.b.;.b.;.b.b.S.b.R.b.Z.A.Z.n.u.y.u.-.u.-.u.y.y.1.t.1.+.O.:.{ O._  .{ ] _ Q L E Y T Y E U W Y T ",
"*.d.t.( ( P J $.-.-.b.S.S.Z.S.b.S.S.b.b.S.S.S.Z.D.D.D.D.Z.n.n.n.u.b.u.j.N.B.u.y.h.i.a.:.:.,.,.} +.O.:.@.O._ L R Y Y U Y Q T E T ",
"L u.O.I ( P P -.n.n.u.K.U.D.N.E.E.Q.n.Z.L.R.Z.K.Q.'.Z.I.R./.C.I.K.L.d.v.V.J.u.g.k.f.1.:.>.1.] @.} 1._ } >.' Y Y V Z m Z Y Z C Z ",
"K ] ] P  .t.u.n.~.K.I.U.F.E.R.R.`.'.I.E.|.}.Q.^. XE.K.K.~.!.J.C.I.N.u.h.G.l.g.s.x.s.>.} <...] } :.:.O.O.>./ E Y V Z C C Z C C m ",
"K 3.4.k.j.E.K.(.^.|.~.}.^. X~.{.[.).'.}.Q.~./.Q.R.E.K.E.I.U.K.H.u.g.g.V.a.g.q.g.r.p.X.:.]  .' ..` 1.+.1.Q _ T Y B Z B T m Z m C ",
"<.p.l.V.P.U.R.W.).~.}.^.!.R.E._.[./.E.~./.^.Q.R.E.Q.I.L.U.K.L.j.j.g.x.g.d.7.q.g.l.g.@.}  .O...' %.,.<.O.] T V M B B B C m m m C ",
"8.j.g.K.Y.(.J.U.^.}.K.E.E.Q.N.I.Q.`.I.E.^.~.C.R.E.E.N.K.R.K.K.H.H.H.a.s.s.g.1.g.l.l.' } } +._ } 1.0.O.:.' ) V m B C h m m C h M ",
"t.s.l.v.!.^.L.U.{.`.K.K.E._.^.!.).E.V.B.!.^.Y.K.^.I.R._.}.E.K.H.K.B.r.r.g.g.a.d.x.f.:.O.:.1.X.] <.%.+.' _ E B M C m h h m h h h ",
"c ^ r.V.I._.K.`.L.!.I.I.j.!.^._.K.L.j.B.B.^.L.[._.).~.oX`.(.Y.I.d.0.1.0.0.g.1.g.7.p.+.1. .%.+.>.| | O.+./ E B M h n g n g h g g ",
"& : r L t.n.K.K.!.K.N.B.H.P.W.I.I.B.i.d.M.K._.`. X[.{.[.oXR.K.y.{ L V K L K V V R W Q Q { { O.+.O.' _ | ~ U B n l f n g g g f g ",
"X # $ < d L O.l.H.K.d.j.j.!.B.K.C.B.1.0.h.I.K. XXX[.K.Z.-.$.l e > : = = > 3 3 7 s n y n V Y Y ~ { ' Y ~ Q Y n M f l y f f n g g ",
"> = = = 3 y M Q l.V.l.p.k.c.x.j.v.s.>.5.0.j.H.E.W.g.L s < = $ X X . . . X $ + : < 3 3 7 9 8 t n R Q Q R W V l l n f y y n g g g ",
"I J d r 8 t l V { l.g.v.0.x.k.k.g.5.O.O.} 5.0.j.+.B 7 ; + $ X X . X X $ = > : : : > < < > > , 7 7 t f M n n f g y f y f y y g n ",
"&.( ^ M n n n V ) 0.l.g.d.d.g.l.f.` V V T Q ~ ~ M 8 : = + $ $ $ = < 9 x L ^ Y f p p s 7 < < , , 7 7 7 3 7 9 8 8 8 q q t q 0 q q ",
"j.u.( V f y y T ' 0.r.g.p.l.0.r.p.) f M M V n n t 1 - = = - ; 8 l R Q t.g.d.%.0.t.O.R R B p 8 9 7 7 3 < 3 < > 3 8 8 6 6 6 8 1 6 ",
"u.0.+.^ M t 6 n Q } e.e.g.d.e.w.d.` n y l n f t 8 , ; ; , 6 r n E { { ~ { { ' ` O.+.O.'  .L M n p 9 3 < 3 < ; ; , 1 1 1 6 6 6 1 ",
"7 w 7 r t y 8 q n W } g.l.l.a.g.0.) M M f l t 8 , , ; , , 1 6 f B Q T Y n n f y y f M W Q ~ E E V f r 9 3 3 , 7 3 6 6 8 6 8 8 8 ",
". .   . X = < 6 t n Q s.K.V.j.g.e.` U m M y 8 1 ; - - = @ 7 M ' t.u.u.O._ ^ R n 0 ; - , n L E R V n n l p t f y t 8 8 8 8 t t t ",
". #       . o = < f m e._.XXH.K.V.a.Y n f t 1 , - = $ $ 3 l s 9 e w 3 w r d s p s 9 - $ - f V Q ~ ~ f n n M n f y f 0 y f n f g ",
"% O . . . O # o $ ; m 3.XX<X#X_.!.c.Q f 6 6 6 ; = @ o + , = $ . . .     . . O X # # $ $ $ - l E M n n n M M n n f y y t g g a y ",
"w 5 : * : 4 7 < = = C V.[.6X3X>X^.V.E 0 1 8 , , ; ; @ @ = ; < % . .   . . . .     . . . . @ , 6 1 8 f M m C m V n n f n g n g n ",
"u.O.O.' Y Z m m V ~ a.P.oX9X5X>X^.0.n 6 6 q 8 f Q Q U Y Q Q  .L x w < > < 5 3 > < < - - ; 8 8 1 y B } 5.3.| :.} ! f y t y t t 0 ",
"+.+.^ W ! Q C Q Q ~ r.[.<X5X<X;X!.0.n 0 0 M B T } g.X.` _ ' ` 0.5.` m C m Q g f n V C / Z q ; 8 W :.T W Q ) B U n t 6 6 8 t t y ",
"W U Q C Z M g q h 5.[.#X1X1X%X[.H.} M g m Z } 5.d.x.g.p.} B n n C m h y 0 q n C } W n 6 ; ; g ) 3.1.>.@.` B M n M M p y l l l l ",
"n f q q 6 6 0 W H.;X@X,X1X<X#X_.1.Q C Q W Q ~ s.e.g.s.H.H.j.' n 6 6 6 6 6 8 6 , ; ; ; , g ` 1.s.5.O.] >.1.5.) ]  .T f d s f s d ",
"I.0.) ~ +.u.^.*X*X$X>X<X1X>X|.g.~ Z C ) 3.q.7.r.g.d.g.H.K.E.~.I.U.u.1.~ E M n n M Q %.g.L.V.V.g.p.` _ ' 7.9.s.q.w.' n y y y t r ",
"oXXX^.|.*X<X&X:X>X1X>X1X1X;XZ.7.Q Z C } e.c.s.l.k.x.p.V.I._.H.E.).[.!.[.oX;XR.!.^.`.K.H.E.I.g.l.p.r.W Q :.d.7.q.r.@.n y y f t y ",
"3X#X`.XX1X<X>X#X<X3X6X<X,X[.j.} W W C Z } } } X.7.p.l.H.Y.E.Y.W.).[.[.'.>X;X X[.[.!.K.j.P.V.g.p.k.s.>.:.} e.7.3.e.{ n f p l f l ",
"1X*X%X1X<X1X*X*X1X5X9X1X XE.c.7.) ! C C g h h a q g C a.H.^.!.(.Q.[.XX;X#X>X#X;X@X@XE.I.g.k.s.k.e.f.e.5.} 7.7.q.O.~ M n t f f n ",
"9X1X<X1X1X<X,X;X<X9XqX1X_.K.V.j.s.X.Z n h m Z m y 1 , 0 W j.!.!.`.|.$X;X;X;X#X;X;X|.^.V.V.g.p.d.z.x.s.5.>.} ..} %.` V n f n M N ",
"5X7X>X1X<X<X[.XX<X9X6X>X^.(.g.I.V.g.! M m } 3.3.} C , - , n W a.K. X[.*X#X>X[.XXXXXXK.K.V.H.s.l.c.c.3.7.7.>._ o.@.%.M n n V N V ",
"<X>X#X[._.c.0.R.1X9X6X*X X_.!.).V.! m m ! p.l.7.>.W 6 ; ; , 1 n :.j.K.E.[._.!.Y.{.E.R.c.L.V.g.g.g.p.e.3.9.2.) ~ ' Q M f f M M B ",
"I.I.g.7.Z h C _.>X9X6X<XXXXX|.K.Y n y h C ! Z m g q 6 0 y y 6 6 y Q 1.V.H.^.W.E.V.H.g.V.k.V.x.v.e.r.7.7.:.+.~ _ E Q M M n V V R ",
"s.) m q ; 1 a.;X6XqXeX9X<X#XZ.T y 1 ; - - = = = ; ; 6 q g g a y 0 q B ) e.g.c.g.l.w.s.p.f.c.g.s.e.5.:.:.1.{ ' R ~ ~ V M M V Y V ",
"Z g , @ ; O.XX3X9XeXeXqX1X_.V 6 - + o + = @ + @ - 1 , 6 0 q q g a q 6 f W 3.X.0.r.e.` e.e.c.7.7.1.1.~ ' _ ( L ^ ( ^ K N V R N V ",
"n 6 = = E [.<X5X7XqX6X<X#X%.t - + + + + + + + @ = = - ; , 1 6 0 q 8 1 , 0 M W Q / ] ) } 5.3.:.[ ..' Q R L K L ^ ( L L R ( E Y B ",
"6 - = f u.%X1X5X>X%X^.j.) f ; - + + $ $ $ + + = @ - - = @ = ; , ; ; - - - , p Q ! ] / ] W ~ ` ~ Q ~ W L K N L ( L L L { { _ E Z ",
"1 - , ~ R.*X*X XR.E.j.Q 0 ; - @ = @ = @ = @ = = - ; - = @ = = ; ; - = @ + + = r ~ `  .~ Q E E Y W Q W V S l L L L L Q { _ Q Y B ",
", ; r 1.H.u.t.0.1.0.:.T 0 ; , y n 8 ; ; - ; = - - , ; - - ; - - ; ; = = + + $ + 7 V ~ ` ) / Y W Q Q T E N N N ( L L L ( ( ^ M C ",
", ; M ( L f n Q T n y , - = 1 B Q n 6 , , , - - ; ; ; ; ; ; - ; 1 , , < < : $ + + < f T ' W Y W Q / ~ L N c l Q Q L K S R K M m ",
", 1 L L f 9 f n f 8 1 , - n +.>.) W n y 1 , , ; ; , , 1 ; 1 , 1 6 6 6 6 7 3 = + + = ; f U E W ) ~ ) _ ( N N N L N K K L V S m m ",
"1 1 K K s 7 t y f 8 8 8 n t.E.H.p.} ! m g 0 6 6 y h g a a y 0 6 0 q 0 6 8 6 1 - + @ = , M W / ' }  .O.( N c c P K H J L L V B C ",
"6 8 l x r 8 r f l n f U ] 7.e.g.s.e.! Z Z Z h h h C M m m M q q q q 6 6 8 8 1 , - = - , f ~ W  .:.1.O.^ J J c H H J H P K V B C ",
"8 8 N r 9 9 9 8 y M Z Q Q Q Q Q Q Z m h m h a a a y y y q 6 6 6 6 1 ; ; , ; ; - ; < 7 t 0 U ' ] >.<. .~ K H c c H J J P H B V B ",
"n y N 7 - - + = , 8 0 q y n h h y q 1 6 , ; - ; - ; ; - - @ = - @ = @ + + @ = - 6 n V T 8 U } 3.O.%.` ( N H c H J J P L x N M S ",
"' f N s 3 - = ; 6 1 , 1 1 6 1 1 6 6 1 6 8 8 8 0 t 8 8 1 , , 1 1 8 0 0 6 8 6 6 t W >.3.} n T @.] ..} ) E K S c c c I P K K N M N ",
"g.Y f K n f y n m Z C G D D D D G Q D G G G D F D D A A A M a n n g y y a n M } c.s.,.` M ) / ..<.<.Y V N N d x H H c H K K l N ",
"n.#.f L ^ V Y Y Z X.:.o.6.>.0.r.u.y.%.Q G D A j n M n n n n M a g y q 0 g U r.B.V.1.} U m ' ,.@.O.) V N c l f d c x x K K K K N ",
"*.u.N N L R Z Q C ) ~ Q Q G L Q F F B l r p t r 9 a t t t g g a t y 0 t m g.H.W.0.>.] C n :.<.1.Q R n c f d p x x f c K N ~ ~ Y ",
"P y.( l V Q ~ _ Z M y t y p s 8 9 7 7 7 7 3 < 3 < 7 7 7 9 r t t y p y n { V.K.N.0.%.' n M +.1. .L n f n f s d x f f H J L ( { ( ",
"$.=.t.( N O.' ' ! m 0 6 8 8 7 r r s r 8 9 7 < < < < > 3 7 s r y n l l L i.K.j.j.0.u.T f T <.) L V l s f p r r d f x H I $.{ R K ",
"$.*.*.*.^ T >.] Q C f 8 y t t f n n f s s r 7 3 3 3 3 9 f n l n V V R +.K.K.j.g.j.u.V n ' ] Q V V l f s r r x f x H H P $.L K K ",
"P *.&.*.Q L O.,.W C h t t y l E Y ( V S p f 8 8 r s f M V ~ E Q ~ {  .i.v.K.j.j.u.u.V B E ) W Y B N f r 9 x P P c J K L L ( { { ",
"J *.=.$.J x L +.} W m g f n ) i.r.0.1.{ { Q K L ( #.t.u.u.u.a.r.0.1.t.u.n.n.j.t.u.1.T V ~ W Y V R N s 9 s s s H I c N K L ( &.&.",
"b $.$.$.J i i L t.r.Q C C ) ..j.j.y.} @.0.u.0.h.N.R.u.D.K.R.0.0.t.t.<.e.i.g.+.1.t.1.Y ^ ( { W E V N r d e 7 3 d K K c c K #.O.u.",
"z P I I P z 4 5 ^ j.e.} :.g.p.B.K.V.g.a.m.V.C.H.I.D.K.D.].R.j.u.t.%.{ >.0.2. .@.1.1._ ( <.O.~ R E x s x x w 9 8 N ^ L N L $.t.&.",
"w H P $.J d * > w P u.V.a.V.g.P.K.R.L.!.Q.).`.|.^. X[.;XoXR.y.t.1.%. .<.' :. .%.O.%.{ i.y.t._ _ V x d x i i w r r l N L L $.$.I ",
"w x J I H w & & & 5 P j.H.B.p.w.B.H.L.E.).[.{.{.[.[..X`.R.Z.t.t.i.0.+.~ / ~ [ O.O.%.0.a.N.y.%._ P x i H d i i i < 7 s c I J i e ",
"5 5 v b d w # # % * 5 c R._.r.a.s.c.g.H.Q._.K.K.j.B.u.u.h.v.0.p.r.:./ / / | / +.1.y.1.j.R.Q.t.{ P z 4 x b z e u : : 3 9 7 4 4 4 ",
"% & 2 4 u 5 % O % % & 4 I *X].l.a.r.V.R.~.E.L.j.H.u.i.0.0.>.<.:.:._ _ ~ | ' +.1.%.~ i.G.R.I.u.I H x e 3 w w 4 7 > # = : > < < 4 ",
"O O # * 4 4 & O # # & > p XX>Xj.*.Q. X;X#X#X[.[.Q.^.C.K.s.d.r.:.` / E Q Q O.%.i.0.+.j.L.T.|.H.I H i v 4 4 > * 4 % O > 3 3 9 7 d ",
"O O O % * 2 * O O O & > f `.1X>X5X9X5X1X6X9X9X6X1X,X<X$XoX[.{.Q.U.t.( R Q Q _ O.1.d.C.L. X Xu.K H e w 4 4 : & & # # < 7 r d f x ",
". . . # % * & # . O $ < O.[.:X9XwXeX0X9X9XwX0XeXeXqX5X9X0X7X#X#X$X,X].n.$.L S [ j.L.Z.[.#XF.I H c w * * & & O O O # & < 9 r r d ",
". . . O # & % # . X # d y.OX2X2X9X0X0X2X4X4X4X4X8X8X4X4X4X4X=X=X-X=X=X=X=X;.I =.A.S.S.+X+X;.b v k w * & & # O O # # % * 5 5 w u "
};
