/* XPM */
static char *out[] = {
/* columns rows colors chars-per-pixel */
"64 64 212 2 ",
"   c #2B1608",
".  c #4A2415",
"X  c #5C2C1A",
"o  c #68321E",
"O  c #583F2A",
"+  c #763A24",
"@  c #7E3D26",
"#  c #63432F",
"$  c #6E402D",
"%  c #6A4D37",
"&  c #77523D",
"*  c #7F5D46",
"=  c #814A35",
"-  c #8E4B34",
";  c #96523A",
":  c #865540",
">  c #8C5D46",
",  c #9D5943",
"<  c #955F49",
"1  c #A45E45",
"2  c #89664F",
"3  c #9B644E",
"4  c #916A53",
"5  c #9A6F56",
"6  c #AB644A",
"7  c #A16851",
"8  c #AD6D51",
"9  c #A86D58",
"0  c #B36A51",
"q  c #B76F53",
"w  c #A1765D",
"e  c #A7755C",
"r  c #AE755B",
"t  c #B4715D",
"y  c #B97658",
"u  c #A87B63",
"i  c #AE7D64",
"p  c #B77764",
"a  c #BD7564",
"s  c #B27861",
"d  c #B47F64",
"f  c #BB7E63",
"g  c #C1785B",
"h  c #C87E61",
"j  c #C07B6B",
"k  c #AC836B",
"l  c #BE8466",
"z  c #B3876E",
"x  c #BA876A",
"c  c #BF8B6C",
"v  c #B78C72",
"b  c #BC8E72",
"n  c #C38264",
"m  c #CC8566",
"M  c #C78568",
"N  c #C4816F",
"B  c #C48A6C",
"V  c #CC8C6D",
"C  c #CC8C6E",
"Z  c #D18969",
"A  c #D48C6E",
"S  c #D88F6F",
"D  c #C88973",
"F  c #CC8A78",
"G  c #D08B78",
"H  c #C39072",
"J  c #C69677",
"K  c #C89172",
"L  c #CC9475",
"P  c #CA997A",
"I  c #CF9C7E",
"U  c #D19071",
"Y  c #D09072",
"T  c #D29172",
"R  c #D09273",
"E  c #D39273",
"W  c #D49374",
"Q  c #D59475",
"!  c #DA9472",
"~  c #DD9876",
"^  c #D79778",
"/  c #D1967C",
"(  c #D89778",
")  c #D59A7B",
"_  c #D99878",
"`  c #D9997A",
"'  c #DB9A7A",
"]  c #DA9A7B",
"[  c #DC9B7B",
"{  c #DB9C7D",
"}  c #DA9D7E",
"|  c #DE9D7D",
" . c #DC9D7E",
".. c #DD9D7E",
"X. c #E09E7D",
"o. c #E29F7D",
"O. c #E2A07F",
"+. c #DD9E80",
"@. c #DE9F80",
"#. c #DF9F80",
"$. c #D4A082",
"%. c #DFA081",
"&. c #DCA386",
"*. c #D8A485",
"=. c #DCA88A",
"-. c #DFAB8E",
";. c #DFAF94",
":. c #E2A181",
">. c #E0A182",
",. c #E1A283",
"<. c #E3A282",
"1. c #E4A281",
"2. c #E5A382",
"3. c #E4A383",
"4. c #E5A383",
"5. c #E6A483",
"6. c #E5A484",
"7. c #E6A585",
"8. c #E7A685",
"9. c #E7A686",
"0. c #E8A786",
"q. c #E8A787",
"w. c #E9A887",
"e. c #E0A58A",
"r. c #E3AC8D",
"t. c #E7AD8F",
"y. c #E8A888",
"u. c #E9A888",
"i. c #E9A989",
"p. c #EAA989",
"a. c #EAAA8A",
"s. c #EBAA8A",
"d. c #EBAB8B",
"f. c #EBAC8C",
"g. c #EBAE8F",
"h. c #ECAC8C",
"j. c #ECAD8D",
"k. c #EDAD8D",
"l. c #EDAE8E",
"z. c #EDAE8F",
"x. c #EEAF8F",
"c. c #EDAF90",
"v. c #E4B195",
"b. c #E9B193",
"n. c #EDB091",
"m. c #EFB090",
"M. c #EEB091",
"N. c #EDB192",
"B. c #EEB192",
"V. c #EFB192",
"C. c #EFB293",
"Z. c #ECB496",
"A. c #E6B599",
"S. c #EAB79A",
"D. c #EEB899",
"F. c #EEBC9E",
"G. c #F0B293",
"H. c #F0B394",
"J. c #F1B495",
"K. c #F0B496",
"L. c #F1B596",
"P. c #F1B597",
"I. c #F2B596",
"U. c #F2B698",
"Y. c #F2B799",
"T. c #F3B799",
"R. c #F3B899",
"E. c #F2B89A",
"W. c #F3B89A",
"Q. c #F3B99A",
"!. c #F3B99B",
"~. c #F4BA9C",
"^. c #F4BB9D",
"/. c #F5BB9D",
"(. c #F5BD9F",
"). c #F5BE9F",
"_. c #F1BFA1",
"`. c #F5BEA0",
"'. c #F6BEA0",
"]. c #E7C0A2",
"[. c #F6C0A1",
"{. c #F6C0A2",
"}. c #F6C1A3",
"|. c #F6C2A3",
" X c #F7C2A3",
".X c #F6C3A4",
"XX c #F2C4A5",
"oX c #F7C4A5",
"OX c #F7C5A6",
"+X c #F7C6A7",
"@X c #F7C7A8",
"#X c #F7C8A9",
"$X c #F0CBAD",
"%X c #F4CDAE",
"&X c #F8C8A9",
"*X c #F8CAAB",
"=X c #F8CBAC",
"-X c #F8CCAD",
";X c #F8CDAE",
":X c #F9CEAF",
">X c #F3D1B3",
",X c #F7D1B2",
"<X c #F0D4B6",
"1X c #F6D4B6",
"2X c #FAD3B4",
"3X c #FAD7B8",
"4X c #F1D8B9",
"5X c #F7D8BA",
"6X c #F5DBBB",
"7X c #FADDBE",
"8X c #F6DDC0",
"9X c #F9E1C3",
/* pixels */
"=.-.) ) R / } r.t.N.;.b.r.;.v.=.=.=.=.-.=.-.=.=.=.r.e.r.&.e.*.=.*.} &.&.) } } ) L R K C Y Y R R L R / ) / / K R D C C E Y W Y C ",
"=.I / / P $.&.t.v.t.v.v.A.A.A.b.;.;.t.r.t.r.r.e.e.e.e.&.e.e.&.} } ) ) } ) } ) L L D V M R B B l K K K L / L R Y Y Y U Y Q T E Y ",
"I I P I $.*.*.-.;.A.;.v.Z.K.v.v.;.Z.e.t.t.t.e.r.-.-.*.e.r.6.&.&.&.&.) &.{ +.Q  .Q ) Y R L L L H H H c B K K l K C Y m Y Q ( Y E ",
"$.$.I I $.I *.=.;.;.;.;.A.t.;.t.t.r.g.t.N.t.r.r.t.r.6.6.r.r.&.6.6.,.,.{ ,.,.{ ..>.@...^ :.} J J J J c c B l l n D M m V T Y Y Y ",
"*.e.*.} I *.*.;.-.t.t.b.t.b.r.N.r.g.g.N.g.g.g.t.r.t.i.g.9.r.6.i.9.f.6.6.%.<...:...O.X.O.+.$.P P H J K c c B n D n V m V m m V A ",
"t.t.t.r.t.t.t.g.N.b.b.v.b.t.t.t.N.b.g.g.t.g.N.g.C.K.H.g.N.i.g.f.f.i.i.8.%.X.O.| #.#.X.@...I P L K K D B M l n n V M B m Z m m Z ",
"N./.t.A.K.K.t.N.!.R.Z.E.Y.~.Z.Y.W./.Z.P.U.R.N.Y.H.H.i.N.c.c.9.t.d.x.6.1.O.X.( X.O.<.] X.%.*.L D K D n B B B n M M V n m m m h M ",
"~.Y.b.b.R.Y.P.R.~.!.P.P.W.~.P.H.!.W.C.P.Y.!.P.N.C.n.f.g.M.f.i.i.m.i.O.| o...[ ..%...'  .{ ) L L D M n B D M n n M n n n m m n h ",
"H.Y.Y.K.B.P.C.E.Z.C.n.I.P./.Y.W.B.C.N.W.P.R.P.B.f.m.g.k.i.i.t.g.f.,.{ X.' ..+.%.[ +.] | ) ] R L n B n n n M n n l n g M h h h g ",
"K.P.K.H.Y.B.K.C.P.g.n.g.P.D.R.K.N.g.C.P.~.R.~.B.g.g.t.f.g.t.g.i.f.,.%.X...@. .+.%. . .` ' Q L M B n n n M M f f f g g g g g g a ",
"U.~.g.n.Z.R.C.P.C.g.r.i.P./.H.C.H./.K.!./.`.C.H.I.t.&.i.z.B.i.z.f.i.@.:.%.:.^ #.@.%.Q Q Q ( C V M M y f n h y y y a q g g g y g ",
"R.K.g.f.N.Y.K.C.I.t.9.i.P.R.Y.!.~.'.`.`.`.D.Y.N.H.g.i.y.N.g.g.g.x.y.3.@.,.%...} .. .^ R Q Y C m m n y y f y t t y t y y f y y y ",
"g.G.g.g.p.N.K.n.a.i.3.f.i.H.Y.`.^.`.`.+X^.!.N.i.&.+.} &.+.+.} :.%.:.,.,.{ #...+.] } Q ) C Y V V n n f f t y t y t y y f y y y g ",
"k.m.z.i.f.t.N.r.f.9.>.,.y.k.R.Y.^.[.D.v.r.*.K s 9 9 7 8 r r r l D C Y Q { { { ` ] ^ ) R W V M B n n f f f y y a g y g y g g y a ",
"6.G.q.u.s.p.3.u.9.:.{ ,.w.m.z.K.g.6.c 9 < : $ o X X X o = : > 3 r p t f f M Y ^ Q Q C R C C l n M n p f f f q y y y q q q a 0 q ",
"R 4.q.6.d.u.9.6.6.Q ! Q ,.,.,.%.Y r < & $ X X . X . . X + & = : < 3 3 < 7 7 r B Q W T M V M l f f f y y y y 0 0 0 0 0 0 0 0 0 6 ",
"Y  .6.i.6.p.w.q.^ C M Y V R R M 8 ; = $ + $ o $ + : < e d s 3 3 3 3 , , , , , 7 9 s f n f M f f t t 8 r 8 8 8 8 6 6 6 1 1 6 6 6 ",
"V _ 6.6.6.q.u.7.{ M f n n M n t 1 ; = + = - < 9 p M ) 6.i.6.{ Q Y B p r 9 , 3 3 7 7 9 9 s y s 8 8 8 6 7 1 1 7 1 1 1 1 1 6 6 8 6 ",
"f C _ <.6.9.:.4. .M t f f n t 8 1 , - , , 9 t M U +.] 6.t.t.,.,.,.%.} ^ D p 8 9 7 3 < 7 7 9 7 7 9 8 1 6 6 8 1 6 6 8 1 6 8 t 8 6 ",
"8 n W 8.k.9.%.%.{ Y f f f y 6 1 1 ; ; , 1 6 t B R Q Y M C Y D C ) ^ ^ ] ` Q Y n y 9 3 3 7 9 7 6 0 r 9 8 t 8 8 6 8 8 8 8 t y q y ",
"= 8 V <.G.z.9.w.] Q Y n t t 1 , ; ; - - - 6 n ] &.9.,.%.Q C y t 8 t n C R Y Y C n t 9 8 7 8 8 t y f y t 8 0 t t t y y f y f f n ",
"$ + f #./.~.N.i.9.^ C f t 1 , - - = + @ 9 B L ) r.e.,.,.{ Q C f 8 - - 1 n C Y C Z n f f f y f n M n f y y y r t y t f y f f n n ",
"- : t 6.[.*XD.R.G.y.M 8 6 1 ; - = + o < 7 3 = > 5 5 w i d x p p s 9 - = ; B V R ! Y n n m M M M m m y f y y 8 y n M n M m V n m ",
"Y ( #.k.+X2X:X^.R.,.n 8 0 6 - ; - @ + @ @ @ X       . . o o o o $ $ $ $ + 3 f n n n h h V A Y T | Q M V n t 8 8 r t t y f f y y ",
"A S | [.+X3X;X.Xt.W y q q y 8 M C M n M M n r > # X X X X X X X X X X X + - ; 1 8 n m Z ( #...1.X.| Q m t 8 , , , , 7 r t f f n ",
"y Z H.OX-X3X:X`.i.C y 0 h _ Q _ 6.4.] ( { | 2.^ M f t s f p t 9 9 7 1 6 f f 0 y m A Q T ] ' ' ] | Q C n f t 6 7 7 9 r s f l l l ",
"r.[.`.@X:X,X|.~.6.W g n V o.1.6.d.x.| W m V C Q Q A h h h m g M W ! Z V y 0 6 M ~ 2.O.<.o.| T ' ! _ M Y V f 8 9 6 9 7 r s f s p ",
";X#X+X*X-X.X^.i...W A T _ ! 2.s.m.x.k.x.9.V 0 1 6 8 8 6 y g n h h q , ; 1 g | 8.u.8.4.8.w.1.3.2.8.8.o.] W f 9 6 9 7 7 7 s t y p ",
"+X*X*X2X.X`.t.| W Q ( 2.O.2.8.f.d.m.m.R.K.Q.m.6.Y n t 6 , 1 , , ; 1 y Y O.k.G.d.w.q.2.7.1.5.3.6.2.w.X.] C f r 8 7 7 8 r t f f n ",
"-X:X:X-X^.B.1.Q W Q ~ 2.w.w.d.k.x.x.H.P.D.Q.R.Q./.!.`.D.R.g.g.i.g.N.R.Y.I.G.V.d.w.2.<.X.4.O.7.5.0.5.O.Q D f t 8 8 r t y f f M V ",
":X3X-X.XR.x.{ Q Q Q Z ~ 2.8.4.w.m.G.x.K.R./.H.T.(..X`..X+X+X!.`.[.[.H.U.H.J.d.l.x.k.<.X.X.1.| 2.7.8.] Q V n y y y f f n m V B D ",
":X3X:X`.R.m.O.! Q A m m m n h g S | k.G.R.^.R.U.[.+X|.}.-X&X+X|.|.~.P.B.H.g.k.k.V.d.8.o.O.| O.@.<.[ ^ W C B l f f n n m Y Y V V ",
"+X3X*X^.H.G.w.4.! Z n h m A m q 1 6 n ,.m.~.~.~./.+X+X-X+X*X+XoX).`.P.G.z.d.g.V.k.d.8.8.o.o.| o.[ ' Q L B D n n y f n m Z W U T ",
"+X:X+X/.Y.m.G.x.2.W m h ~ w.4.! g , ; 6 M :.m.R.~.[.XX+X&X.X.X}.}.~.R.G.G.z.m.l.g.d.w.8.o.#.| ' ^ R L M D D D n y y n m A E Q E ",
"+X1XXX!.~.~.H.d.! A h S 4.m.8.4.! q - - , t M ,.m.R.g.`.|.[.R.~.~.~.z.G.G.H.f.m.i.h.4.w.4.8.( Q Q R B D D L R C M n f m Z A m Z ",
"2X:X+X`.`.^.d.T h g h S O.o.Q m g 6 , 6 8 1 6 f Q ,.t.C.^.U.K.G.R.m.x.G.H.G.s.p.k.8.6.:.4.,.] E T C D B C L Q Y V M n V W W Y Z ",
"3X7X5X:X|.K.Y y 6 6 , 1 ; ; ; ; ; 1 0 g g g y 0 8 V ^ 6.w.m.d.d.u.d.u.d.i.k.s.s.5.6.:.<.{ ..W R D R C C B R R T C C C E U A V A ",
"9X9X9X-XD.C 6 ; = o + @ + + @ = , 1 6 q q y g g t 6 y V Q | ,.1.1.1.4.7.q.d.u.4.#.O.#.{ { Q E L L R / L K L L R +.] ] ^ Q Z Z V ",
"3X7XXXZ./ 8 - @ + + @ + + + + = - ; - , , 0 8 0 6 6 , 1 f T Y Q ^ ^ ! ..6.3.' ....] Q Q Q E D L R R L ) R L B ) &.e.) Q Y Z M V ",
"XX!.r.) t ; = + @ + + + + + = = - - = @ = - ; ; ; : : : - 9 M Y ' ^ W Q { ] E E Q Q Y R T C B C R Q R W L D B L } } Q V A V m m ",
",.,.{ Y 1 ; - = @ = + = = = - - - ; = @ @ - - - - = @ & + = 3 B Q %.( ( W Q T ( U W U C B D M C D W U Q C L D C L ) M M n m V m ",
"Y V f t ; - , t t ; - - - : - - ; ; : - - - - ; - : & = & $ + - r C W ( Q W T E A W Y Y D M M D C C R R Y l l f l c n n C m V Z ",
"f y 1 , - 1 f V M t , , ; , - ; ; ; - ; , , ; , , 3 ; < < : + @ = 1 p R Q ( A Q W W C R L C B D K L D L L B l l B H f M C Y m Z ",
"p f 6 1 6 M q.,._ M t 6 6 , , , 6 6 1 , 1 1 , , 6 6 1 7 7 ; = = = = ; y C R T Q ..] ^ Q R K B B K L L L D c B K K n f n C C V V ",
"p n f n V ( :.w.| Q M g q 0 0 q y h g y y y 0 0 q y 0 8 6 3 - = $ : - , f W Q | [ #.#.@.) L D K D R L K l c H L H f f l l B M D ",
"9 t f Y T Y T T ! A V h h g g g h g h g y 0 0 q q q 8 8 8 8 , ; : : ; 1 8 V ( ` X.X.O.' ] L K B K L L H B c H J c l l l B B B B ",
"= - , 6 6 0 8 y j g 8 8 6 , - ; ; , ; ; - - - - - ; - ; ; ; - ; , 7 3 t 8 M T | :.:.| | ( R B C K R K c l x f c x K c B B C l B ",
"- , , ; ; - - - - = + + @ + @ @ - - = @ = = @ = - ; ; ; , , , 1 f C V Y f n ( ..<.#...{ ^ C D B K J H f l i f f f x D K K B B B ",
"f n h m N N j a 8 6 6 8 6 8 r q q q 0 q 8 8 0 q q g g y q y y _ 6.5.6.>.M Y | o.' ] ] { L D D K B J c f r d c f d l c L L R R Y ",
"C n m Q R T Q Q Q G G F F n N a t t t q t a g y a a q t g V ] k.M.6.3.' V Y ~ | ] ] ) Y C B C B D c f r f c d r f B H L ) ) ^ / ",
"/ C f M M B n B N j p p p r 9 3 3 3 < 3 9 s 8 t y t t g M  .6.m.x.d.#.^ V _  .X.| ` B C B D B B B c r r f l d f c K H I *.} D K ",
"R Q M f t 9 3 7 3 7 7 7 9 7 3 < < > < < 7 9 9 9 t t y n U %.d.g.K.i.,.T V ( ' ] ' Q C B B M B V C f r r f c d d K J P P $.K K B ",
"L } ^ M t 9 3 3 7 9 r p r r 7 3 < < , 3 7 8 s f l n n R ^ ,.y.C.n.t.i.^ C ( | #.Q ^ C M n B C L B f 9 r f J H c c K J P L ) ) ) ",
"H P +.C n 9 7 , 3 7 p n B n s r r 7 8 8 e f B L ) ^ ] ..@.6.t.g.Z.r.3.` Q Q ] Q ( Q C B D L R C C f r s d d P K c c H K ) &.&.) ",
"b J l D B f 6 1 7 8 p ) &.) n l L L Y ) ) &.,.y.r.k.,.i.g.g.6.t.r.i.>.] ] ) Q ( ` [ V C R L L L K f r e 7 7 f J c B l K / &.&.6.",
"z J H c L D f f f n C { y.,.{ ^ &.y.r.&.g.r.r.t.D.P.9.6.r.6.7.e.r.r.%.` +.] ] ^ ..) Y W } R R R B d l d u e s B L K B K I *.e.9.",
"w H H c c K C Y n Y T ] 6.i.,.i.i.N.K.D.b.^.P.`._.D.t.t.,.r.6.r.*.>.Q ` ) } }  .` +.@.,.} ) / / l i d z e e 9 s f K L L $.*.$.$.",
"w z J c r e l H Q | ,.@.f.j.i.i.K.K.J.^.`.}.|.|..XF.D.b.g.r.,.r.+.) U R ^ ^ { +.+.>.7.y.r.@.} P c e z z k i i 7 3 s B L I H i w ",
"5 5 b i 5 4 4 e B } y.N.Z.H.9.y.z.Y.g.R.!.|.L.D.`.R.9.r.t.n.6.,.} } Y Q (  .` @.<.r.,.g.C.n.) L c w w c z z e 7 = 3 9 r 7 5 4 4 ",
"% * 2 w e * & * 2 e B A.`.B.i.0.i.g.C.C.U.W.n.t.z.t.3.#.2.9.#.' ] ^ Q ^ ..] @.,.} r.t.G./.R.&.J c d 5 e e 5 3 3 & & > : > < < 4 ",
"O # % 2 4 4 # % % * 4 d D.*XZ.>.y.[.{.|.^./.D.!.C.Y.n.z.y.9.X.%.Q Q U Q _ +.%.y.+.i.N.E.R.^.*.I z i k 4 4 > > 4 % # > 3 3 9 7 i ",
"O O O % * 2 & O O # & < } +X:X].,X:X:X:X2X5X1X,X-X=X*X+X`.!.!.!.C.e.W R Q Q ` +.,.a.C.P.{.~.=.J c e w 4 4 * & & # # < 7 r d f x ",
". . . # % * & # . O $ < +.`.#X5X8X9X6X5X5X8X6X9X9X9X1X5X6X3XOXOX+X=X_.v.$.L D { g.P.Z.`.OXF.I H c w * * & & O O O # & < 9 r r d ",
". . . O # & % # . X # d r. X>X>X5X6X6X>X<X<X<X<X4X4X<X<X<X<X$X$X%X$X$X$X$X;.I =.A.S.S.XXXX;.b v k w * & & # O O # # % * 5 5 w u "
};
