/* XPM */
static char *out[] = {
/* columns rows colors chars-per-pixel */
"64 64 220 2 ",
"   c #2B1608",
".  c #4A2415",
"X  c #5C2C1A",
"o  c #68321E",
"O  c #583F2A",
"+  c #763A24",
"@  c #7E3D26",
"#  c #63432F",
"$  c #6E402D",
"%  c #6A4D37",
"&  c #77523D",
"*  c #7F5D46",
"=  c #814A35",
"-  c #8E4B34",
";  c #96523A",
":  c #865540",
">  c #8C5D46",
",  c #9D5943",
"<  c #955F49",
"1  c #A45E45",
"2  c #89664F",
"3  c #9B644E",
"4  c #916A53",
"5  c #9A6F56",
"6  c #AB644A",
"7  c #A16851",
"8  c #AD6D51",
"9  c #A86D58",
"0  c #B36A51",
"q  c #B76F53",
"w  c #A1765D",
"e  c #A7755C",
"r  c #AE755B",
"t  c #B4715D",
"y  c #B97658",
"u  c #A87B63",
"i  c #AE7D64",
"p  c #B77764",
"a  c #BD7564",
"s  c #B27861",
"d  c #B47F64",
"f  c #BB7E63",
"g  c #C1785B",
"h  c #C87E61",
"j  c #C07B6B",
"k  c #AC836B",
"l  c #BE8466",
"z  c #B3876E",
"x  c #BA876A",
"c  c #BF8B6C",
"v  c #B78C72",
"b  c #BC8E72",
"n  c #C38264",
"m  c #CC8566",
"M  c #C78568",
"N  c #C4816F",
"B  c #C48A6C",
"V  c #CC8C6D",
"C  c #CC8C6E",
"Z  c #D18969",
"A  c #D48C6E",
"S  c #D88F6F",
"D  c #C98270",
"F  c #C88973",
"G  c #D08B78",
"H  c #D38E7E",
"J  c #C39072",
"K  c #C69677",
"L  c #C89172",
"P  c #CC9475",
"I  c #CA997A",
"U  c #CF9C7E",
"Y  c #D19071",
"T  c #D09072",
"R  c #D29172",
"E  c #D09273",
"W  c #D39273",
"Q  c #D49374",
"!  c #D59475",
"~  c #DA9472",
"^  c #DD9876",
"/  c #D79778",
"(  c #D1967C",
")  c #D89778",
"_  c #D59A7B",
"`  c #D99878",
"'  c #D9997A",
"]  c #DB9A7A",
"[  c #DA9A7B",
"{  c #DC9B7B",
"}  c #DB9C7D",
"|  c #DA9D7E",
" . c #DE9D7D",
".. c #DC9D7E",
"X. c #DD9D7E",
"o. c #E09E7D",
"O. c #E29F7D",
"+. c #E2A07F",
"@. c #D89380",
"#. c #DD9E80",
"$. c #DE9F80",
"%. c #DF9F80",
"&. c #D4A082",
"*. c #DFA081",
"=. c #DCA386",
"-. c #D8A485",
";. c #DCA88A",
":. c #DFAB8E",
">. c #DFAF94",
",. c #E0A081",
"<. c #E2A181",
"1. c #E0A182",
"2. c #E1A283",
"3. c #E3A282",
"4. c #E4A281",
"5. c #E4A382",
"6. c #E5A382",
"7. c #E4A383",
"8. c #E5A483",
"9. c #E6A483",
"0. c #E5A484",
"q. c #E6A584",
"w. c #E6A585",
"e. c #E7A685",
"r. c #E7A686",
"t. c #E8A786",
"y. c #E8A787",
"u. c #E9A887",
"i. c #E0A58A",
"p. c #E3AC8D",
"a. c #E7AD8F",
"s. c #E8A888",
"d. c #E9A888",
"f. c #E9A989",
"g. c #EAA989",
"h. c #EAAA8A",
"j. c #EBAA8A",
"k. c #EBAB8B",
"l. c #EBAC8C",
"z. c #EBAE8F",
"x. c #ECAC8C",
"c. c #ECAD8D",
"v. c #EDAD8D",
"b. c #EDAE8E",
"n. c #ECAE8F",
"m. c #EEAF8F",
"M. c #EDAF90",
"N. c #EEAF90",
"B. c #E4B195",
"V. c #E9B193",
"C. c #EFB090",
"Z. c #EEB091",
"A. c #EDB192",
"S. c #EEB192",
"D. c #EFB192",
"F. c #EFB293",
"G. c #ECB496",
"H. c #E6B599",
"J. c #EAB79A",
"K. c #EEB899",
"L. c #EEBC9E",
"P. c #F0B293",
"I. c #F0B394",
"U. c #F0B495",
"Y. c #F1B495",
"T. c #F0B496",
"R. c #F1B597",
"E. c #F2B697",
"W. c #F2B698",
"Q. c #F2B799",
"!. c #F3B799",
"~. c #F3B899",
"^. c #F2B89A",
"/. c #F3B89A",
"(. c #F3B99A",
"). c #F3B99B",
"_. c #F4B99B",
"`. c #F4BA9B",
"'. c #F4BA9C",
"]. c #F4BB9C",
"[. c #F4BB9D",
"{. c #F5BC9E",
"}. c #F5BD9F",
"|. c #F5BE9F",
" X c #F1BFA1",
".X c #F5BEA0",
"XX c #F6BEA0",
"oX c #F6BFA1",
"OX c #F6C0A2",
"+X c #F6C1A2",
"@X c #F6C1A3",
"#X c #F6C2A3",
"$X c #F7C2A3",
"%X c #F6C3A4",
"&X c #F7C3A5",
"*X c #F2C4A5",
"=X c #F7C4A6",
"-X c #F7C5A6",
";X c #F7C6A7",
":X c #F3C9AA",
">X c #F0CBAD",
",X c #F4CDAE",
"<X c #F8C8A9",
"1X c #F8C9AA",
"2X c #F8CAAB",
"3X c #F8CBAC",
"4X c #F8CDAE",
"5X c #F9CEAF",
"6X c #F3D1B3",
"7X c #F7D1B2",
"8X c #F0D4B6",
"9X c #F6D4B6",
"0X c #FAD3B4",
"qX c #FAD7B8",
"wX c #F1D8B9",
"eX c #F7D8BA",
"rX c #F5DBBB",
"tX c #F6DDC0",
"yX c #F9E1C3",
"uX c #FBE5C7",
/* pixels */
">.A.q.0.[ P J J x P ;.>.>.>.B.>.>.>.>.>.>.B.H.J.B.K.J.L.H.J.V.A.a.a.:.p.:.a.p.z.2.i.2.s.2.w.*.2.' X.| { ' { / ) T W T ) Y ! T R ",
"-.h.v.s.2.( J B P ;.B.J.V.J.J.B.B.J.H.A.G.G.J.J.K.K.K.[.|.Q.Q.I.A.B.a.A.A.D.F.b.l.s.d.f.f.p.r.1.$.#.+.+.4. .{ / Q T W T ! R W R ",
"J d.8.9.2._ J &.p.G.A.T.Q.K.A.U.U.).V.).|.|.G.).).|.K.[.^.[.F.W.Y.R.h.M.D.Y.a.k.x.j.3.s.f.3.] *. .o.'  .2.4.} ! ! A m A T A Z A ",
"x { { ) X.1.p.A.'.).W.Q.L.oX).^.|.|.[.|.OXoX).'.OX.XL.L.'.(.Y.F.W.A.a.l.P.F.k.d.b.s.w.r.d.o.{  .o.^ [ #.<.,.[ T / A Z Z A Z Z Z ",
"x o.7.x.d.I.T.{.[.OX'.oX)..X'.XX).{.|.oX).'.[.).^.{.).[.W.Q.T.Q.G.T.k.s.s.z.r.k.d.s.r.k.,.X.' o.^ X.#.2.X...' / Y A V R m A m Z ",
"( 2.s.D.D.Q.^.(.{.'.oX[.}.^.).Q.].[.XX'.[.'.).^.{.).W.R.Q.T.R.T.R.A.b.l.h.f.r.r.t.k.b.s.4.#.o.[ o.{ 2.*.2.' ! R A V V Z m m Z Z ",
"| s.3.x.N.R.Y.Q.].oX^.}.oX).A.(.).}.K.[.|.'.F.^.]..XA.T.^.{.T.^./.'.Z.M.b.k.2.s.c.c.d.k.8.+.'  .O.3.#.,.2.%.Q R Y Z h m m Z h M ",
"c c J ( k.A.R.Q.XX}.{.}.OXT.A.I.{.[.^.{.).W.A.T.OX[.^.R.oXXX{.^.`.E.z.y.k.d.r.y.g.j.t.8.y.2.O.{ 1.2.#.X.o.' ! T Z m h h m h h h ",
"$ $ & * i | p.A.A._.W.).W.Q.z.T.T.{.).W.A.I.Z.R.Y.{.'.=X}.=X+X|.Q.a.i.*.( ' | | E E / X.X.*.o.<.....#.$.#.[ W A h n g h g h g g ",
"$ X X O & < s F #.f.A.R.W.Y.M.A.W.R.T.M.Z.b.z.b.Q.{.XXoX&X#X).p.=.J r w 7 3 7 7 9 9 t n M C E Q ) [ ' ..*.' Q V h f n g g g f g ",
"x w * = : > , t F [ 0.A.I.I.y.x.F.Y.f.a.l.k.2.h.I.{.K.I.p.U r 3 > & X X X X X + = : ; 3 r t 8 y p Y T ! ..' V M n l y f f n g g ",
"H.>.&.P l s 8 r n M [ d.R.m.b.s.M.x.c.r.w.2.2.3.f.b.l.( l 3 = o O X . . . X # + = = = = < 3 3 < 3 7 r n C C M l n f y y h g g g ",
"a.a.;.2._ / B M l V ! 0.r.b.x.x.k.n.j.8.W ) R / ' | W y , : + + o X o @ = 7 i B p 9 7 7 7 < > > > < 3 7 7 8 s t y f y g y y y g ",
"| =.a.w.*.E n l B E [ 2.h.h.r.r.j.j.M.+.M M M C V F f 6 - = @ @ : ; 9 l ( i.s.2.i.| ( C F p t 7 3 , , 3 3 < < < 7 8 8 t 0 0 q q ",
"[.OXK.Y.A.s.C y t M R o.d.x.3.t.d.x.r.,.M n f n M n 8 1 ; ; - ; 6 y n ! *.2.2.r.f.w.1.| #.#.Q F f y 8 7 3 < > > < 3 1 6 6 8 1 6 ",
"p.&.( L ( E M n y q n R 3.h.t.r.t.g.r.X.Y M f f l 0 6 , , , , , 6 y n M ( V n n M M M V Q / ! Q Q F l r 9 3 < > > ; , 1 6 6 6 1 ",
"< & # X . $ : 9 8 8 q m ! h.D.D.t.s.9.,.W T n f 8 7 , ; ; - = - 1 l ) w.*.o.! Y n y 6 , , a M T T Q F l f r 9 7 , 7 6 8 6 8 8 8 ",
"    . O       X + ; , g T 4.W.Q.F.l.f.2.] Y l y 6 , - - = + = 8 n N F P ' ( E C F M a 6 - = , n C C n B M n f f f 8 8 8 8 8 y y ",
"  . . O       . X $ o 1 Y ,.T.2X=XoXA.D.2.M 8 6 6 , = = o + < 3 : $ # # X # $ * 3 3 3 3 3 : + ; B / R Y n M n M n f t y f f a g ",
": * * & % O O % > = + + Z e.[.7X7X<X}.A.*.y 1 6 6 - - = + + + + @ .                     . X X o 7 n y 0 y n n n M y y t y g a y ",
"( #.( L c F F M n l n C 3.Y.#XqX9X4X|.c.C 8 1 0 6 1 a n 8 8 r f x d w * $ # $ % O O # + o X o = ; 1 6 n M V Y R C T n n g g g n ",
"s.d.2.0.#.W Z A ! A ~ ] k.[.<X9XqX3X|.w.M 0 6 y C n ) w.e.+.X.[ #.#.1.E n M M F f t t r 0 0 a n 8 6 y F ` ..+.<.+.X.V y t 8 t 0 ",
"8.{ Z Z ~ ! Z A E m y ` [.=X<X5X7X2XI.2.M g 8 h ] e.{ d.y.t.Q C T [ ` ! Z m g g h A ! ` ~ ~ a , , g ` 8.+.' V T C B y t t t t y ",
"{ Y m Z A h y 6 0 a 1.oX;X2X3X2X<X{.s.~ Z m M T ~ 4.k.d.m.D.h.{ V 8 1 6 0 0 0 q a y 0 0 1 ; - 6 Y +...+.8.8. .T n M M f l l l l ",
").k.) m q a f C 1.oX=X3X;X4X4X4XoXI.{ ! Z ` ] ,.{ 4.k.b.l.b.I.).D.z.' C y t 8 1 ; ; , 1 8 M o.b.h.h.4.] { 8.8.5.' o.) M s f s d ",
"2XOX}.).).|.oX=X<X;X2X1X4X7X5X2X).w.! Z A ] e.y.k.h.k.t.b.A.'.W.Q.Q.!.{.XX[.|.W.Y.M.I.T.R.R.W.D.b.d.8.{ ` X.3.r.r.<.+.M y y t r ",
"4X7X XOX@X<X:X1X2X3X#X4X7XqX3XOXD.3.Z A A ~ ~ ] ,.e.4.k.N.P.I.Q.{.).A.oX=X<XoX@X@X}.K.(.(.'.F.P.M.N.e.r.,.{ ] e.y.h.+.C y f t t ",
"7X7X=X{.&X4X2X3X4X3X4X4XrXqX<X).D.8.~ A ! Z m h h g y h ] k.N.Q.{.(.W.|.2X<X=X=X<X@X{.{.}.Q.P.d.x.k.t.t.d.4.] ..t.5.*.C l f f l ",
"5X0X<X3X@X1X4X5X<X1X2XqXtX9XOX'.b.b.8.4.Z h y h m h 0 1 , l X.Y.).].|.oX=X2X;X<X=X=XOX@X'.[.c.x.t.j.t.g.0.q.o.+.4.4.| W f f f n ",
"qXeX0X5X5X4X3X4X4X<X3X9XtX5XoXY.R.P.b.k.] m h Z 4.4.~ g , - 6 n 2.F.'.].<X<X1X<X<X;X=X#XoXY.D.h.v.b.g.s.u.0.0.X.*.] +.E n n M B ",
"5XqX2X2X4X=X{.Q.I.[.OX9X9X7X[.W.Q.oXM.+.! Z Z o.x.k.<.~ q ; = , q T 2.Y.'.$X.X$X#X#X).{.).(.k.c.N.N.6.d.g.h.+.+.%.*.' E n C B C ",
"<X;X).Q.Q.k.` h R ).2XqXqX3X=X{.OX[.2.h h h A { +.~ m g 8 1 1 6 6 6 n [ x.I.T.!.XX).^.R.R.A.x.k.C.x.t.u.x.3.,.+.#.} / V n M M V ",
"W.W.x.3.! g , 0 0.=X3XtXrXrX5X1X).7.g 0 1 1 , , - ; ; , 1 q g g y q 8 f R 0.s.F.D.I.c.D.x.D.b.M.c.y.8.g.e.0.| ' W ' E R n C C E ",
"D.e.` h 6 - , #.=X3XqXuXuXuXqX=X2.f 1 = + + + + + + - , 1 6 0 q y g g q y n Q  .r.r.e.r.j.d.k.g.f.3.,.,.2.2.' _ / / ) W M C T C ",
"4.! y 1 = ; E  X7XrXqXuXyXtX:XA.n , + + + = + + @ = @ - - , , 1 0 q q 8 6 8 q Y ! o.[ o.3.q.,.9.y.2./ [ X.| P ( _ ' E E E E B C ",
"! g 1 = - T K.:XqXqX9X9X7X XB.V 6 - + + + + + $ + @ + = - - = = ; , ; - ; - - 7 n E Q ! ] ' ' } X.[ ) ` #.( C L ( ( P E _ / T V ",
"h 0 ; = 8 p. X4X2X5X#X XA.| f 6 - = + + + + + + @ = - - - - + + @ - - - = = @ = > f ` { ) ) Q ) ! ] Q ) P R l B ( _ P | | ' W A ",
"g 1 - ; M a.[.G.G.a.s.f.a.W 0 , ; 1 8 , - - = - - - ; < , - - : : - ; - - + + + @ : y ( *.X.[ T Q R Q Q ! F B l P ( ! | #.! Y V ",
"g 1 - 6 ' a.( n P ` R V M t - = 8 C E n 8 6 ; ; - - - - , < - - ; ; ; ; ; > = & + $ @ 7 V ` R / ! ! R ` ) P f l P | Q ( / ) M Z ",
"q 1 ; y | ( r 9 l F f 8 6 - = , F [ W Y m y 6 , , ; ; , 1 1 ; ; , , , , 7 1 3 ; = @ + = 7 M T T ! / / ) #.P l f C ! E C ! W Z m ",
"0 6 , f E B 9 8 r f l r 6 , 8 *.M.b.3. .Y m q 0 1 1 0 g g g 0 q 6 6 1 0 0 6 6 1 - = + + = 6 V ! R ) ) 1.| P l l B L L P ! Y m m ",
"y 8 1 p P x 8 7 y f l y y M / 7.z.F.k.4.] A A h h g h m Z Z V h y q 0 q y 6 6 6 1 - @ @ - , a W / ) #.2.i.&.c c L J K P ( E V Z ",
"M q 1 f P s 9 r t f g Z ! o.! ` ] o.~ ` ~ A m h h M g g m m g 0 0 0 6 6 6 6 1 1 , ; - = < 8 6 R ) 3./ *.i.| c J J K J I ( W V Z ",
"X.a 6 l l 7 ; , ; ; 6 t h g g g m h g q q 0 6 , ; ; 1 , 1 , - - - - - - - @ + + = = ; 8 y n 8 V 3.,.X.} #.( c B c J L I ( M V V ",
"2.! 8 B l 7 - @ + = ; 1 1 , 1 6 1 6 1 6 , 1 ; , , 6 6 1 , ; - - - - - , , ; - , , 6 M ] ] ' y ! o.2.,.<.( P L J c J I &.L B M F ",
"B.s.M l P s 9 7 8 f g g g h h j N N D D G G G H H H H j a j j q y g g g a y q 0 a Y r.r.t.] n ! ] #. . .( F L c c P I P F B M B ",
"p.I.( l P P n F C Z Z ) o.,.H ) ,.0.1.1.2.} @.@.@.H j D D D g N N j y g q y q h { D.x.e.r.] n ] ,.<.] ( P T n x x J J J L L n B ",
"&.a.a.B F / T Y ) A Z +.8.<.,.*.d.2.*.2.;.( D j l y p p g q 9 0 g g q 0 q 0 g ) I.Q.s.+.4.C M o.0.2.) F C l f s c c x c L L V B ",
"P s.M.,.B ( Q ! C ~ Z W C T M E j f f l x d 9 7 3 3 7 7 7 7 7 9 9 r t t t f T c.A.T.i.2.' m M 3.o.| C c d l p f x x d L B L Q T ",
"I -.a.f.P f / ' ! ~ Y f 8 6 9 8 9 7 7 7 9 9 9 3 < < < < < 3 7 7 9 9 r t a V 0.A.T.a.0.i.{ n Y X.} ! M n d f s x f s J P P L | _ ",
"&.;.| p.i.B F 2.4.+.Z n y r 1 8 r f r t p s 7 7 < < : < < 9 9 r r f y f C 1.a.z.z.M.2.a.W n ! X.} T l f p s 9 d f l c K &.| E L ",
"&.;.-.-.;.P l { r.,.Z n y t t y n M n n n f s 9 9 3 < 7 8 p n n C V M F | z.A.A.G.a.f.w.Y n ! ) ) C l s r r x d f c J I &.&.L B ",
"I -.=.-.&.P B ' o.4.) m r y y T 2.,.! ) C C f p r p f l n ( [ 2.#.1.X.,.2.A.z.z.l.V.a.i.n Y R ! F F d r 9 x L I c J L P P ( ( | ",
"K -.;.-.&.c d &.7.8.<.A h g h o.D.z.w.2.0.| *.| | | i.a.A.A.A.D.z.s.i.2.i.a.z.a.a.a.s.#.T W / W ! B s r s s s x U J B L P P =.=.",
"b &.&.&.U x 5 x &.y.0.o.) S ! b.b.I.2.+.2.s.w.l.A.G.p.K.K.^.z.Y.M.i.| #.a.l.0.2.a.p.2.| _ | Q ' ) B r d r 7 3 r L L c c L ( #.i.",
"z I U U U v 4 2 i | A.D.r.r.e.s.W.R.F.Z.C.D.F.x.W.K.Y.K. X^.K.V.a.=.| ..r.3.1.*.s.2.2.#.1.#...} ' x s x x e 7 9 B ( P B L &.=.=.",
"w J I &.I d > & * u ;.W.S.k.r.M.A.^.R.(.).{.[.OXoXOX(.:X%X=XY.i.2.p.X.1.#.*.*.7.#.*.3.s.p.i.*.*.P l d x i i w e r l B P K &.&.U ",
"w x K U J u & % % > d =.^.Q.k.r.f.m.R.Q.{..XXXXXoX.X#X@X).).a.0.s.w.2.[ ) / } #.#.*.w.f.A.a.i.#.( x i J d i i i 3 7 s c I I i e ",
"5 5 v b d e # # % * * e p.<Xz.z.g.h.s.I.).^.R.W.U.A.a.a.l.M.p.d.y.,.) ) ....) *.2.p.2.z.^.).a.| P J 7 d b z u u > : 3 9 r 5 4 4 ",
"% & 2 4 u 5 % O # % & > J #X XA.k.2.M.).'./.R.Y.U.a.s.w.f.,.2.+.,.' ' / ..[ 1.2.s./ s.P.^.[.A.-.I x e 3 i 5 4 7 > # = : > < < 4 ",
"O O # * 4 4 & O # # & : s L.5XK.-.).+X<X;X-X.X.X).[.F.T.n.h.w.u.] ) W ! ! #.{ s.w.*.a.R.~.OXI.&.J i v 5 4 > * 4 % O > 3 3 9 5 d ",
"O O O % * 2 * O O O & > f |.5X7X9XeX9X5X0XeXeXqX5X3X4X;X%X.XXX).Q.a._ E E ! [ #.7.h.F.R.+X+Xa.L J e w 5 4 : & & # # < 7 r d f x ",
". . . # % * & # . O $ < #..X1XeXtXyXrXeXeXtXrXyXyXyX9XeXrXqX-X-X;X3X XV.&.P F } z.R.G..X-XL.U J c w * * & & O O O # & < 9 r r d ",
". . . O # & % # . X # d p.&X6X6XeXrXrX6X8X8X8X8XwXwX8X8X8X8X>X>X,X>X>X>X>X>.U ;.H.J.J.*X*X>.b v k w * & & # O O # # % * 5 3 w u "
};
