/* XPM */
static char *out[] = {
/* columns rows colors chars-per-pixel */
"64 64 230 2 ",
"   c #2B1608",
".  c #4A2415",
"X  c #5C2C1A",
"o  c #68321E",
"O  c #583F2A",
"+  c #763A24",
"@  c #7E3D26",
"#  c #63432F",
"$  c #6E402D",
"%  c #6A4D37",
"&  c #77523D",
"*  c #7F5D46",
"=  c #814A35",
"-  c #8E4B34",
";  c #96523A",
":  c #865540",
">  c #8C5D46",
",  c #9D5943",
"<  c #955F49",
"1  c #A45E45",
"2  c #89664F",
"3  c #9B644E",
"4  c #916A53",
"5  c #9A6F56",
"6  c #AB644A",
"7  c #A16851",
"8  c #AD6D51",
"9  c #A86D58",
"0  c #B36A51",
"q  c #B76F53",
"w  c #A1765D",
"e  c #A7755C",
"r  c #AE755B",
"t  c #B4715D",
"y  c #B97658",
"u  c #A87B63",
"i  c #AE7D64",
"p  c #B77764",
"a  c #BD7564",
"s  c #B27861",
"d  c #B47F64",
"f  c #BB7E63",
"g  c #C1785B",
"h  c #C87E61",
"j  c #C07B6B",
"k  c #AC836B",
"l  c #BE8466",
"z  c #B3876E",
"x  c #BA876A",
"c  c #BF8B6C",
"v  c #B78C72",
"b  c #BC8E72",
"n  c #C38264",
"m  c #CC8566",
"M  c #C78568",
"N  c #C4816F",
"B  c #C48A6C",
"V  c #CC8C6D",
"C  c #CC8C6E",
"Z  c #D18969",
"A  c #D48C6E",
"S  c #D88F6F",
"D  c #C98270",
"F  c #C88973",
"G  c #D08B78",
"H  c #D38E7E",
"J  c #C39072",
"K  c #C69677",
"L  c #C89172",
"P  c #CC9475",
"I  c #CA997A",
"U  c #CF9C7E",
"Y  c #D19071",
"T  c #D09072",
"R  c #D29172",
"E  c #D09273",
"W  c #D39273",
"Q  c #D49374",
"!  c #D59475",
"~  c #DA9472",
"^  c #DD9876",
"/  c #D79778",
"(  c #D1967C",
")  c #D89778",
"_  c #D59A7B",
"`  c #D99878",
"'  c #D9997A",
"]  c #DB9A7A",
"[  c #DA9A7B",
"{  c #DC9B7B",
"}  c #DB9C7D",
"|  c #DA9D7E",
" . c #DE9D7D",
".. c #DC9D7E",
"X. c #DD9D7E",
"o. c #E09E7D",
"O. c #E29F7D",
"+. c #E2A07F",
"@. c #D89380",
"#. c #DD9E80",
"$. c #DE9F80",
"%. c #DF9F80",
"&. c #DD9986",
"*. c #CFA186",
"=. c #D4A082",
"-. c #DFA081",
";. c #DCA386",
":. c #D8A485",
">. c #D7A88D",
",. c #DCA88A",
"<. c #DFAB8E",
"1. c #DFAF94",
"2. c #E0A081",
"3. c #E2A181",
"4. c #E0A182",
"5. c #E1A283",
"6. c #E4A281",
"7. c #E4A382",
"8. c #E4A383",
"9. c #E5A483",
"0. c #E6A483",
"q. c #E5A484",
"w. c #E6A584",
"e. c #E6A585",
"r. c #E7A685",
"t. c #E7A686",
"y. c #E8A787",
"u. c #E9A887",
"i. c #E0A58A",
"p. c #E3AC8D",
"a. c #E7AD8F",
"s. c #E8A888",
"d. c #E9A888",
"f. c #E9A989",
"g. c #EAA989",
"h. c #EAAA8A",
"j. c #EBAA8A",
"k. c #EBAB8B",
"l. c #EBAC8C",
"z. c #EBAE8F",
"x. c #ECAC8C",
"c. c #ECAD8D",
"v. c #EDAD8D",
"b. c #EDAE8E",
"n. c #ECAE8F",
"m. c #EDAE8F",
"M. c #EEAF8F",
"N. c #EDAF90",
"B. c #EEAF90",
"V. c #E4B195",
"C. c #E9B193",
"Z. c #EDB091",
"A. c #EFB090",
"S. c #EEB091",
"D. c #EDB192",
"F. c #EEB192",
"G. c #EFB192",
"H. c #EFB293",
"J. c #ECB496",
"K. c #E6B599",
"L. c #EAB79A",
"P. c #EEB899",
"I. c #EEBC9E",
"U. c #F0B293",
"Y. c #F0B394",
"T. c #F0B495",
"R. c #F1B495",
"E. c #F0B496",
"W. c #F1B596",
"Q. c #F1B597",
"!. c #F2B596",
"~. c #F2B697",
"^. c #F2B698",
"/. c #F2B798",
"(. c #F2B799",
"). c #F3B799",
"_. c #F3B899",
"`. c #F2B89A",
"'. c #F3B89A",
"]. c #F3B99A",
"[. c #F3B99B",
"{. c #F4B99B",
"}. c #F4BA9B",
"|. c #F4BA9C",
" X c #F4BB9D",
".X c #F5BB9D",
"XX c #F5BC9E",
"oX c #F5BD9E",
"OX c #F5BD9F",
"+X c #F5BE9F",
"@X c #F1BFA1",
"#X c #F5BEA0",
"$X c #F6BEA0",
"%X c #F6BFA0",
"&X c #F6BFA1",
"*X c #F6C0A2",
"=X c #F6C1A2",
"-X c #F6C1A3",
";X c #F6C2A3",
":X c #F7C2A3",
">X c #F6C3A4",
",X c #F7C3A5",
"<X c #F2C4A5",
"1X c #F7C4A6",
"2X c #F7C5A6",
"3X c #F7C6A7",
"4X c #F7C7A8",
"5X c #F7C8A9",
"6X c #F0CBAD",
"7X c #F4CDAE",
"8X c #F8C8A9",
"9X c #F8C9AA",
"0X c #F8CAAB",
"qX c #F8CBAC",
"wX c #F8CCAD",
"eX c #F8CDAE",
"rX c #F9CEAF",
"tX c #F3D1B3",
"yX c #F7D1B2",
"uX c #F0D4B6",
"iX c #F6D4B6",
"pX c #FAD3B4",
"aX c #FAD7B8",
"sX c #F1D8B9",
"dX c #F7D8BA",
"fX c #F5DBBB",
"gX c #FADDBE",
"hX c #F6DDC0",
"jX c #F9E1C3",
"kX c #FBE5C7",
/* pixels */
"1.F.w.e.' B k k e u K I U a.L.@XP.@X@X:X-X>X:X>X@X:X[.-XI.-X@X3X-X>X@X@X[.$X.X.XT.T.Z.U.U.Z.z.z.a.a.s.s.8.8.] X./ ` Q ] ) ! Q W ",
"<.h.v.u.r.Q d k u f I _ a.J.Z.a.Z.T.^.#X,X2X2X2X>X2X-X&X,X;X3X2X3X>X$X$X*X$X$X}./.!.T.T.!.Y.U.n.l.e.t.e.d.8.9.+.{ {  .]  .{ ! A ",
"K O.+.w.7.] f f f l 8 9 9 9 7 9 i | a.].%X2XOX>X:X3X$XOX$X,X-X4X3X-X].%X*X-X].].Y.Y.l.z.W.U.f.l.g.f.4.r.y.u.o.7.+.X.W X. . .R A ",
"c ^ ^ O.6.` B f 9 > $ o $ O O X # = i ( <.P..X$X;X-X&X^..X.X%X,X5X>X{.W.#X XW.Y.T.Z.Z.Z.!.G.c.f.s.r.r.3.r.6.8.r.X.` / ) o.) W A ",
"x ^ S ~ S C p < $ : < w 4 & O O o $ : 7 d ! a.].*XXX`.^.U.].%X3X#X-XT.^.T.`.]..X^.!.T..XU.W.F.U.t.g.8.q.o.5.+.g.] o. .} ` { A W ",
"J { S ~ S h 1 7 B <.P.[.&XL.*.x d r 9 r y F { s..XXX$XT.Z.Z..X#X-X/.U.n.Z.G.}./.XX$XOX%X].^.U.c.c.s.3.%.w.9.t.r.4.-.|  .| / ! Z ",
"J o.S ~ S y f p.P..XP.#X;X2XP.@XL.a.( T F T T [ A.).!.!.n.U.J.$X.X].s.l.a.U.].*X;X>XOX#X-X^.a.a.s.8.{ O.d.s.3.r.t.f.' X.-.3.W Z ",
"J  .S A ^ ~ e.F.]./.!.!..X.X^.!.].J.a.7.%.) ) ) f.!.T.U.U.T.T.Y.!.b.e.5.c.c.^..X%XXX].J.Z.<.| P B x l B E E C C / ! / ..-.../ V ",
"b | S o.d.B.c.U.x.A.s.a.a.Z.Z.J.s.s.5.8.3.7.%.r.9.U.U.^.S.T.T.U.s.e.%.-.%.u.Z.].A.5.L d 3 < : : $ & & : < 7 7 r f l M ! |  ./ S ",
"x | ~ ^ c.h.k.k.k.! M e.J.P.].J.n.5./ C E ! +.e.x.c.U.N.U.S.Y.U.U.%.C C Q ) 5.e.! s < = $ o X . . . . . o $ = : 7 9 r y l T ! W ",
"b :.R o.c.x.3.t.T f 5.@X#X-XP..X!.k.{ R n n m o.t.Y.k.N.z.U.k.S.U.o.f n M C B V y 1 = $ + o X X X X X o $ $ $ + = : - > < r f V ",
"K ,._ %.n.A.s.{ M / [.[.P.5._ ( _ / ) A n y g C %.u.f.A.^.m.c.h.A.-.n y n M l p 6 ; @ @ + @ @ = < 7 r d x d 7 < > : : - : > < 7 ",
"J <.=.-.Z.T.k.Q n s.J._ 7 = $ $ $ = < t y 0 q n T +.g.T.T.!.h.D.u.o.V l f f t 6 1 - - - - < 7 s l E _ -...-.E L f d 7 < : ; : > ",
"c =.:.} Z.].Z.E E | u O . . . % #   . o - 1 6 t M ~ e.W.$X].T.T.c.%.C M f 0 6 < ; - - - ; < 7 f M M l M F C T E E E T l 8 1 < : ",
"L =._ E 5.U.5.E M 7 X   . O # & .     . X $ @ < f ^ o.].4X4X]..X^.g.C f t 6 ; - - - @ + @ 7 p E $.-.C l d s 7 1 8 B F T C l 9 < ",
"=.=.:.) ) ) C f ; - = = : : : # . . . . # $ o + ; { 7.].rXpX0X&X$XA.C 6 1 1 ; = = o X + 7 r 5 < 4 7 7 r d f p 7 < - 7 l L F p 9 ",
"U =.<.7.C M 8 6 1 F 5._ / E L w : & = > 5 < - - , o.B.&XpXdXpX0X].f.M 6 , 1 - @ @ o X @ @ $ . . O     . X & = : : : o , B B l f ",
"=.=.Z.5.{ t.g.9.n.o.7.f.Z.A.A.9...( ( C C M m ! +.g.].-XpXdXpX0X^.} y ; 1 6 ; , , - @ + = : & . .                 . . X 7 T T l ",
"=.=.;.a.].}.A.A.c.r.o.t.h.t.{ ^ / W M V Q Q Z A V Z.@X4XdXdXrX3X!.%.q 1 6 q 0 n ^ o.! { { [ ( J u > + $ % % X . . .   . o t 1 0 ",
"=._ f.7.T.T.Y.!.}.].n.o.^ ` R A Q Q A m m g q g f.=X,X0XpXrX4XXXF.) g 6 y n W W { 8.+...{ %.4.3.-.W m M C B r 7 7 > @ @ , 6 8 g ",
"=.=.%.} t.U.G.}..X%X$XT.~ m g g y g 0 8 1 0 / $X:X8X5XrX0XrX;X].5.R g g n M C 9.r.g.g.t.W C M C V Z h g y g M V V A m m q , y Q ",
";.:.-.{ t.A.'.{.3X4X3X4XXX!.f.^ Z m M T <.@X2X5X5XqXwXrXrX4X&Xn.^ Z m Z A S ~ o.g.t.x.A.U.t.V 8 6 6 6 1 6 8 0 6 6 1 , - - 0 Q C ",
"i.p.7.^ g.!.T.;X3XwX3X0X4X4X]..XXX$X].#X5XwX#X5XwXrXwXrXrXrXT.f.) Z n A ~ 9.o.w.u.k.r.A.^.^.U.J.a...M y 6 1 - ; ; , 1 n ) { W ..",
"p.i.7.9.!.W.XX%XqXrXrXrXwX;XOX}.%X-X>X4X0X2X-X5XrXrXrXpXrX3XU.r.{ R m m A ~ ^ o.9.r.k.b./.^.!.]..X$XXX$X:X^.n.c.U.A.e.r.r.3.T T ",
";.5.+.g.T.%X=X5X5XrXrXfXpXrXOX{.W.3X5XrX>X2X>XrXwXdXpXgX4XXX!.c.%.^ A M h g g g y M ~ c.Y.}.].XX/.XXXX%X%X%X}..XW.b.g.k.t.r.{ T ",
"p.i.3.u..X1X9XqXrXrXdXdXfXrX4X%X1X2XwXrX5X3X4X0XpXdXgXfX4X].U.k.u.k.+.Z g g g g 0 , 6 m s.^..X}..X$X:X2X2X-XOX].Y.x.u.r.g.r.r.T ",
"n.c.3.B.$X8X-XrXrXdXdXgXgXdX5X5X0XwX3X0X0XwX-X4XrXfXiXpX4X}.A.U.U.^.9.~ g h S o.~ g , ; y -.T.]..X:XOX2X3X5X.X.X!.A.9.u.t.u.o.+.",
"n.s.g.U.XX2X:X>XrXrXpXdXdXpXwX0XrX0X,X$X].T..X3XrXdXdXrX4X$X^.!..XU.^ M m Z 3.r.7.^ q - - 6 V t.^.$X:X;X2X3X$X].].U.k.8.h.u.6.+.",
"e.s.u.!.T.&X-X4X2X0XrXrX0X8X-X;X}.!.8.W M r.XXrXrXdXdXpX4X>X}.%XT.o.g y g Z ~ ^ Z m 0 1 , 1 , l ..U.]..X}.oX!.].A.B.k.k.t.g.0.r.",
"9.3.u.b.!..X$X$X2X2X,X-XOXW.b.O.~ h 0 1 C ].;X4XpXgXgXgXdXrX>X^.} y 1 ; ; ; ; ; ; ; 1 0 q y 0 6 f ) f.A.^.U.U.M.A.j.a.g.g.s.r. .",
"t.d.7.x.Y.].|.XX%X:X].Y.c.8.R g 0 ; - ! ,XqX3XrXfXkXjXkXfXrX^.} t ; + o + + $ + @ ; , 0 y y 0 q q g T -.f.B.t.u.d.j.8.d.s.h.+.7.",
"e.3.7.k.b.U.!..XoX^.h.3.o.Z y , - 6 _ [.rXpXrXdXfXjXgXiXrX>X-.y , @ $ + + + + + - - - ; 1 6 8 q g 8 8 n ) +.+. .8.O.o.w.u.6.%.' ",
"6.-.3.M.x.c.U.^.S.c.o.Q g q ; - 6 -.P.0XiXdXiXdXiXpX3X#XZ.-.n 1 = @ $ + + + $ + + @ @ - - - , 6 1 6 , 1 y W ^ { S / ! 5.2.6.} ..",
"6.%.o.x.h.x.h.x.u.%.R n q , - , T Z.-XeXpXaXrX0X3X$X^.5.M 8 , = @ @ @ + + + + + @ = = @ @ + = - ; - - - - 9 W W W R ! ' ' ] ' ! ",
"4.-.{ 7.r.9.3.0.3.Q g q 1 ; ; M ..U.@X:X@X@XD.n.Z.T.k.f.T 0 , 6 t 8 ; - = - @ - - ; - - @ = @ - - - + @ @ = 7 ~ ' Q M C ! / L E ",
"O.' O. .o. .o.] o.V y 1 ; ; t Q -.Z.5.E C ( ..}  .Q T M 8 - , f ) T 8 1 ; ; ; - - ; , < - : - - - - @ $ + $ @ 7 E ! W V W E L B ",
") { ^ ` Q ~ ` ` R h 8 , ; 1 V E E $.l y 0 l T V n y 7 < @ - 8 ! ! Q M f 6 1 , - - ; ; < - ; - ; ; < ; : = + + @ , C T W C E T F ",
"` '  .` ! ` ^ A Z g 0 , , 8 L F L L d 8 8 y n n h 6 6 , < C Z.n.t.o.~ Z g 8 1 ; , 6 6 6 1 , , ; 1 1 3 7 < = $ $ @ 6 V T T / ! B ",
"T / Q ` ! ^ S m M h 0 , 1 t l n B B 9 8 y f n V m y 0 y C 5.B.U.n.g.~ S Z n 0 0 q h g n n y 0 6 8 8 6 6 1 > + + @ - y E ! } / L ",
"C W ] { o.^ ~ g f M y 6 1 y F l x d r r n n M m Z Z A ^ %. .o.8.8.+.~ A S Z Z h m M m m m g q 0 q 0 6 6 8 , = + = - 1 T #.#.$.Z ",
"l V ' 5.o.-.{ M 8 M M t 6 f E f 7 9 6 9 1 7 0 g n W Q Q R Q W ~ V m a g q q 8 0 6 8 8 0 1 , ; , ; ; - - - - = : ; , , R o.5.-.T ",
"l C } 5.0.t.7.M 0 f E M f f E p 7 - @ @ = - ; 6 q y y q g g n y q 6 6 1 6 1 , ; , ; ; - = = = @ @ + + + + + ; 9 d f 6 W 5.$.| Z ",
"c L / f.F.!.g.! t y F ! M l n l y 8 , , 6 g g q g g q g j D n D D D D D G G D D n a t t t 0 8 0 0 6 , 1 1 1 f ! o.C y ^ -.-.C Z ",
"x L _ m.!.!.Y.5.M 0 l ) ) F C M V V M M m n m Z ^ } @.%.} } %.&.4.$.@.H @.H F j N j j a a a a y a 0 0 6 y A +.3.3.M n ' } ..E V ",
"f L =.n.Z.(.W.b./ 8 t [ ' { / ) / ! / ) ! Z n ^ ..| } &.@.&.} &.E &.G N r r r 8 7 t 0 0 y a t y 0 0 0 g Q x.r.{ ! n ~ 5.( _ F m ",
"x c _ s.H.~.Q.W.s.l 0 B %.%.` R ! ! { ^ ^ A n n M l f f f f y r r r r 7 3 3 3 < 3 7 3 7 q 8 8 8 0 8 f ! Z.z.4.` n n 7.r._ L B B ",
"I U P -.F.`.U.!.!.-.t t E 9.! ! / ` Q ^ ~ R n t 8 8 1 7 7 9 7 9 r e 3 7 3 < < < < < < 7 7 8 8 t t n C x.T.s.' / f V ..} E B l B ",
"I U P | F.~.H.Y.W.a.l 9 B %.3...9.o.) ~ ^ Z h p y t 6 9 p p y p p s 9 9 9 7 < < < < < 3 7 9 8 8 n Y -.Z.C.5.-.T y T / E c l B M ",
"P :.=.} 8.Y.F.W.n.Z.( 8 8 E 9.u.r.+.` ` ~ Z f f y t 8 y l B n F f d 9 7 7 7 < 7 < 7 7 r r t s l V 5.z.Z.e.l.e.M g / Q B x B L W ",
"U :.=.=.:.p.D.z.a.s._ r 8 n 3.u.g.t. .^ ^ Z n f f f V Q Q ! / W F l f r r 9 9 9 r f l B L n F C ..z.Z.C.C.Z./ f C Q B d l F ( _ ",
"*.,.*.:.-.;.' | 8.5.[ x f V ~ o.u.g.~ ^ o.S g h M V ..c.b.c.5.e.} ! M l B V l L E / W } ..' ! %.G.n.q.a.C.s.n M ! W r i B ( E P ",
"=.:.=.:.=.U f x i.' _ T V  .w.o.u.g.` ` ^ ~ Z A / e.n.l.S.f.7.e.f.s.i.$.i.i.i.p.C.p.5.5.5.} / 5.J.z.s.<.Z.Q n C Q M d x _ U B l ",
"I :.;.:.U K w 4 d L | ' ! k.b.-.O.u.O. .o.`  .s.c.!.F.U.t.e.+.z.z.n.c.C.<.a.p.a.a.l.#.-.) ..5.f.p.a.p.p.-.Y C T M l n I P I P _ ",
"K :.>.:.:.x 5 & 2 7 L 4.r.x.U.o.6.x.h.6.6.3.t.Z.}.].].T.T.c.n.D.A.n.J.J.J.V.L.J.J.<.} ' 4.5.i.5.i.a.a.i.| T T C f B K I ( _ | ( ",
"b =.=.=.U b 5 & 2 2 5 | Y.~.E.c.3.B.b.h.u.x.3.k.[..X^..X.X].A.^..X@XP.&X3X>XL.C.Z.5._ $.4.5.| 5.i.a.;.<...( B x l B c L ( ;.i.;.",
"z I U U U x 2 % 2 2 2 x L.%X#X!.8.3.j.f.s.h.s.B. XXX.XXX;X#X@X@X>X:X*X-X5XP.| -.a.i...| %.-.| i.<.p.i.5.| B 9 9 B L b c _ | i.p.",
"w J I =.I d & % % & 2 d <.2X;X$Xa.7.d.k.h.n.x.F.Y.^.}.|.@X X].>X@XP.J.P.J.a.$.s.4.5.) ' | 5.-.s.s.a.;.| J x 9 9 f ( P L P | ;.,.",
"w x I U c w & % & & 4 r =.qX2XOX!.8.r.+.d.m._.U.W.A.U.Z.Z.b.a.D.a.s.z.f.a.s.q.5.] ! ) ) -.s.n.D.p.i.I ( B k i 9 7 p B L I U x i ",
"5 w b x d 5 # # % & * < x 0X5X#XY.k.+.t.J.XXY.R.R.'.l.Z.Z.S.9.5.5.e.-.3.8.3.) ] | $.| } e.~.Y.`.a.=.x i J z u 9 = 3 9 d d w 4 4 ",
"% & 2 5 u 5 # # # % & > p @XeX#Xn.5.f. X5X>X[.]..X~.S.n.E.U.f.5.4.} ! W X. .' ] 5.t.$._ R.^..XJ.i.c d 5 u w 3 5 & & > > > < 2 > ",
"O O # * 4 4 % O # # & > t [.0X@X:.L.>XqX0XrX5X5X#X=X.XXX].E.F.G.b.s.' T T ' ] -.e.s.5.Z.Y.*X Xa.J d z 4 4 * : 4 % # > 3 3 7 7 i ",
"O O O % * 2 & O O O & - l +XrXpXdXdXiXyXpXdXgXfXdXrXpXrX9X*X$XOX$X].i.P E ( / $.5.h.H.^.*X=XC.K J u w 5 > * & & O # < 7 s d f x ",
". . . # % * & # . O $ < #.#X0XdXhXjXfXdXdXhXfXjXjXjXiXdXfXaX2X2X3XqX@XV.=.P F } z.Q.F.@X2X@X_ J c w * * & & O O O # & < 9 r r s ",
". . . O # & % # . X # d p.>XtXtXdXfXfXtXuXuXuXuXsXsXuXuXuXuX6X6X7X6X6X6X6X1.U ,.K.I.I.@X<X1.b v z w * & & # O O # # % * 5 3 w u "
};
