/* XPM */
static char *out[] = {
/* columns rows colors chars-per-pixel */
"64 64 220 2 ",
"   c #2B1608",
".  c #4A2415",
"X  c #5C2C1A",
"o  c #68321E",
"O  c #583F2A",
"+  c #763A24",
"@  c #7E3D26",
"#  c #63432F",
"$  c #6E402D",
"%  c #6A4D37",
"&  c #77523D",
"*  c #7F5D46",
"=  c #814A35",
"-  c #8E4B34",
";  c #96523A",
":  c #865540",
">  c #8C5D46",
",  c #9D5943",
"<  c #955F49",
"1  c #A45E45",
"2  c #89664F",
"3  c #9B644E",
"4  c #916A53",
"5  c #9A6F56",
"6  c #AB644A",
"7  c #A16851",
"8  c #AD6D51",
"9  c #A86D58",
"0  c #B36A51",
"q  c #B76F53",
"w  c #A1765D",
"e  c #A7755C",
"r  c #AE755B",
"t  c #B4715D",
"y  c #B97658",
"u  c #A87B63",
"i  c #AE7D64",
"p  c #B77764",
"a  c #BD7564",
"s  c #B27861",
"d  c #B47F64",
"f  c #BB7E63",
"g  c #C1785B",
"h  c #C87E61",
"j  c #C07B6B",
"k  c #AC836B",
"l  c #BE8466",
"z  c #B3876E",
"x  c #BA876A",
"c  c #BF8B6C",
"v  c #B78C72",
"b  c #BC8E72",
"n  c #C38264",
"m  c #CC8566",
"M  c #C78568",
"N  c #C4816F",
"B  c #C48A6C",
"V  c #CC8C6D",
"C  c #CC8C6E",
"Z  c #D18969",
"A  c #D48C6E",
"S  c #C98270",
"D  c #C88973",
"F  c #CC8A78",
"G  c #D08B78",
"H  c #C39072",
"J  c #C69677",
"K  c #C89172",
"L  c #CC9475",
"P  c #CA997A",
"I  c #CF9C7E",
"U  c #D19071",
"Y  c #D09072",
"T  c #D29172",
"R  c #D09273",
"E  c #D39273",
"W  c #D49374",
"Q  c #D59475",
"!  c #DA9472",
"~  c #DD9876",
"^  c #D79778",
"/  c #D1967C",
"(  c #D89778",
")  c #D59A7B",
"_  c #D99878",
"`  c #D9997A",
"'  c #DB9A7A",
"]  c #DA9A7B",
"[  c #DC9B7B",
"{  c #DB9C7D",
"}  c #DA9D7E",
"|  c #DE9D7D",
" . c #DC9D7E",
".. c #DD9D7E",
"X. c #E09E7D",
"o. c #E2A07F",
"O. c #D89982",
"+. c #DD9E80",
"@. c #DE9F80",
"#. c #DF9F80",
"$. c #D4A082",
"%. c #DCA386",
"&. c #D8A485",
"*. c #DCA88A",
"=. c #DFAB8E",
"-. c #DFAF94",
";. c #E0A081",
":. c #E2A181",
">. c #E3A181",
",. c #E0A182",
"<. c #E1A283",
"1. c #E3A282",
"2. c #E4A383",
"3. c #E5A383",
"4. c #E5A483",
"5. c #E5A484",
"6. c #E6A585",
"7. c #E7A685",
"8. c #E7A686",
"9. c #E8A786",
"0. c #E8A787",
"q. c #E9A887",
"w. c #E0A58A",
"e. c #E3AC8D",
"r. c #E7AD8F",
"t. c #E8A888",
"y. c #E9A888",
"u. c #E9A989",
"i. c #EAA989",
"p. c #EAAA8A",
"a. c #EBAA8A",
"s. c #EBAB8B",
"d. c #EBAE8F",
"f. c #ECAC8C",
"g. c #ECAD8D",
"h. c #EDAD8D",
"j. c #EDAE8E",
"k. c #ECAE8F",
"l. c #EDAE8F",
"z. c #EEAF8F",
"x. c #EDAF90",
"c. c #EEAF90",
"v. c #E4B195",
"b. c #E9B193",
"n. c #EDB091",
"m. c #EEB090",
"M. c #EFB090",
"N. c #EEB091",
"B. c #EDB192",
"V. c #EEB192",
"C. c #EFB192",
"Z. c #EFB293",
"A. c #ECB496",
"S. c #E6B599",
"D. c #EEB899",
"F. c #EEBC9E",
"G. c #F0B293",
"H. c #F0B394",
"J. c #F0B495",
"K. c #F1B495",
"L. c #F0B496",
"P. c #F1B596",
"I. c #F1B597",
"U. c #F2B596",
"Y. c #F2B697",
"T. c #F2B698",
"R. c #F2B799",
"E. c #F3B799",
"W. c #F2B89A",
"Q. c #F3B89A",
"!. c #F3B99A",
"~. c #F3B99B",
"^. c #F4B99B",
"/. c #F4BA9B",
"(. c #F4BA9C",
"). c #F4BB9C",
"_. c #F4BB9D",
"`. c #F5BB9D",
"'. c #F5BC9D",
"]. c #F5BC9E",
"[. c #F5BD9E",
"{. c #F5BD9F",
"}. c #F1BFA1",
"|. c #F5BEA0",
" X c #F6BEA0",
".X c #F6BFA0",
"XX c #F6C0A2",
"oX c #F6C1A2",
"OX c #F6C1A3",
"+X c #F6C2A3",
"@X c #F7C2A3",
"#X c #F6C3A4",
"$X c #F7C3A5",
"%X c #F2C4A5",
"&X c #F7C4A6",
"*X c #F7C5A6",
"=X c #F7C6A7",
"-X c #F7C7A8",
";X c #F7C8A9",
":X c #F0CBAD",
">X c #F8C8A9",
",X c #F8C9AA",
"<X c #F8CAAB",
"1X c #F8CBAC",
"2X c #F8CCAD",
"3X c #F8CDAE",
"4X c #F9CEAF",
"5X c #F3D1B3",
"6X c #F7D1B2",
"7X c #F0D4B6",
"8X c #F6D4B6",
"9X c #FAD3B4",
"0X c #FAD7B8",
"qX c #F1D8B9",
"wX c #F7D8BA",
"eX c #F5DBBB",
"rX c #FADDBE",
"tX c #F6DDC0",
"yX c #F9E1C3",
"uX c #FBE5C7",
/* pixels */
"O.w.r.Y.Y.(.^.~.R.'.(.`.^.].(.|.{.#X{.OX{.OX_.XXW.W.W.W.Y.W.Y.Y.B.B.d.n.d.B.x.t.5.t.6.t.6.,.] 2.( ' ) O.) ) / R C C C Y K U C C ",
"7 9 n @.H.W./.^.R.W.W._.[.(.^.W.[.|.|.{.XX|.|.{.F.L.K.Z.T.^.~.L.J.h.B.x.C.C.m.s.t.t.6.8.t.>.;. .| ..+.#.+.+.) R L U U U W E Y Y ",
"# # % u I e.r./.I.].I.~.(.`.L.~.oX+X^.'.(.{.T.].(.Y.d.L.W.W.Z.I.L.d.t.f.V.C.6.t.8.p.1.<.3.3.' | ..| ` @.1.>.W R Q E V C A ^ C R ",
"% # $ : 9 l / w./.W.~.T.W.U.L.[.#XoX/.Y.(.^.R.W.'.T.L.Z.^.U.R.T.L.t.t.t.x.q.5.,.u.i.9.o.1.| [ ' [ |  .+.:.} / Y R C C V Y C V C ",
"c k w 9 9 d C } b.'.P.W.V.Z.L.|.|.oX/.W.B.R.L.'.~.W.~.|.H.[.R.^.x.x.t.g.8.u.6.8.6.f.7.o.' +.] ..' ,.@.,.[ ) R R C C V A M Z Z V ",
"L.e.,.R B M R ^ w.Y.Z.R.L.V.I.|.[.'.L.V.B.B.Y.~.|.|..X|.'.].Y.L.H.x.f.u.t.4.8.6.t.f.7.X. .[  .{ | @.,.@. ._ R Y C V V V C Z Z Z ",
"t.e.@.,.;. .Y { 1.H.c.P.H.E.d.W./.I.r.r.H.B.r.^.{.@X|.|.|.oXV.L.x.H.7.t.t.u.2.y.f.c.6.1.,.,.] | +.5.| @.[ ` K D C Z M V V V n M ",
"t.5. ._ @.@.^ | 8.f.C.Z.^.T.J.n.R.V.t.,.r.r.C./.oXoX/.F.'./.L.b.b.w.@.,.s.t.t.a.z.s.7.| ,.[ ) ) @.,.#.) | E V B D M M h Z V h n ",
"t.7.] W M C Q 4.3.t.h.U.H.T.Z.W.V.Z.,.;.,.t.a.Y.L.B.,.I l l x c s s f B C ] )  .X.1.X.;. .|  .<.{ | ] ] ) W C C l n n n h m h n ",
"f.1.o._ C n V | 7.z.C.C.K.L.K.L.M.k.^ A ^ ' @.5.<.Y y 3 : + $ o X X $ + : 7 r s l D C W ) @.@. . .` ) ` ` R C n n f g g n h g g ",
"w.5.1.>._ Z g C | t.a.C.K.E.g.M.C.f.C M C E D R M t , : @ + X X . . . . X $ & : 7 s r f M R Y ) }  .E ^ ^ R D l f n y n f n y a ",
"k x B C W C n h A [ 4.z.^.^.Z.j.G.t.W n M M D l t 6 ; = = @ + o o o X o $ & = & : : < 3 9 8 8 l R R W Y W Y B l f f y f n n g g ",
"% 4 3 3 9 y y f n W o.C.K.Y.h.C.B.f.' Y l n l f 8 1 < ; - ; ; < 7 s p B H L d 7 < < < < - ; ; 3 7 r f V C D l l y f a f y g g h ",
"& w 4 * * < < 1 y m ' a.W.'.L.H.B.5. .R M f y 8 6 1 , < 3 1 8 f C ^ @.,.t.t.5.) K l f 7 < ; < < 3 < 3 3 8 s s s f y p y q y a a ",
"% % . . X $ $ = - t A 7.oX6XF.'.W.z.' C n y 8 6 , < ; ; ; , , f C ^ C C C ^ E ] ] ) E R D p 3 3 3 3 > > > > ; 6 t t 8 0 0 q 0 8 ",
"& $ . . . # % $ + = A 7.oX6X6XoX#XE.;.l 0 8 6 , ; - - @ - 7 l ^ e.r.=.^ C n y 8 t y M / ^ M f p s 3 < : > : : ; 1 6 1 1 6 1 6 6 ",
"l 9 > & & < 3 < < f X.Z.{.8X8X3X[.p.W t 1 8 1 ; - = + + 7 f s x H &.,.<. .^ V l 6 ; - 7 l K C C n s 9 3 < < - < , 1 1 6 1 6 6 6 ",
"|  .^ / W M V A ^ Q r.F.,X8X8X;X^.<.m 0 8 q 6 , 1 ; @ @ - - @ # X % & * 3 r s r 9 7 : @ ; l C M n f f s 9 9 8 6 7 8 8 8 0 q 0 8 ",
"W Q U C Z A A Z M A B.+X3X4X,X*XW.1.n 8 6 a y p E ^ M f t s 7 : X .       . . X X # $ $ o < B ^ E C f f f M n q 8 8 6 8 q t 8 q ",
"C C Z Z m a 0 q W W./.+X4X<XoXI.z.' h q y h A E [ u.y.o.1.| ` / c 4 & # X . .   . .     . o 7 f y q q f n n g y y y q y f f g g ",
"Q n q 0 6 y R L.*X;X=X3X3X,X|.K.| A m m m U ! >.7.a.f.t.^ ^ [ <.1. .U M l n r 9 3 < = = + - ; ; ; 6 t n h M n n q y t y q g g g ",
"#X'.L.H.Y.|.;X=X;X<X,X6X4X#XW.8.^ A A Q | ^ ' 1.p.l.f.j.l. .C h h h Z m h g g n V Y E E V y , , y V [ o.o.o.1.^ n f f f n g n g ",
"4X3X|.=X1X4X#X=X<X6X,X6X1X,Xg.X.! A m E o.a.3.a.z.x.s.c.K.E.s.@.n 8 1 6 6 8 q g h h q 8 ; = ; M | X.U Z A ^ U n t 8 1 6 6 8 1 8 ",
"6XoX#X;X4X<X=X=X3X4X4X9X,X'.l.[ Q Z Z A | 4.4.7.z.h.a.z.E.T.E.W.(.W.t.^ C t , ; ; - - , y A ' ' o.o.;.' m y 8 8 y 8 8 6 t y t y ",
"#X#X<X4X4X2X,X1X;X9XwX6X#X(.c.7._ ! Z m h m m A A o.a.H.C.(.W.].W.^.'.oX|.*X/.L.r.C.r.C.V.V.x.t.[ ^ Q >.X.C y D M l f f f l l l ",
"6X4X4X<X4X1X;X,X;X6XyX3X#XY.T.s.7.X.U g g g g q 6 0 m 1.Y./.E.(._.(.|.+X,X*X;XoX|._.].K.G.l.G.t.u.^ C [ >.3.o.X.C p r s f y p s ",
"4X<X*X4X6X,X|.*X,XwX8X3X@XW.z.W.V.a.A h g A ! ! h 6 , y ' Y././.E.|._.*X,X<X*X*X&X+Xz.E.z.G.6.i.y.4.Y C 4.8.1.7.W f 9 r r r r t ",
",X#X'.L.z.1.t.|.4XwXwX*XoX/.W.^.z.~ m h Z o.a.4.o.A 6 - 1 n ,.C.|.oXoX#X<X,X<X$X>X|.Y.z.C.s.t.q.f.i.| E X.o.1.3.' n q t p p s y ",
"s.t._ Z 0 h z.,X8XrX8X6X#X#XW./.Q h g h A 1.t.7._ ! q ; - , t W t./.oX,X*X#X*X,X|.OXE.(.Z.h.p.f.p.a.4.o.E o.X.4.^ M f l f l f n ",
"W h 1 - 1 t.#X6XrXuXuXrX4X*XH.W y 1 , 1 6 8 6 8 0 8 6 1 q 0 6 0 V 1.H.W.|.|.|.~.#X'.^.Z.Z.z.h.h.c.f.a.5.' [ o.1.) M l f n n M M ",
"y ; @ 7 e.4X*XwXyXyXyXyX4XW.n 6 ; = o o + + + @ - , 1 y g h q q y m ^ s.Y./.L.W./.K.p.C.j.Z.i.s.c.h.5.4.1.;.^ | | C f M V C D C ",
"; = 8 w.,X4X4X8XrXrX6X*X|.^ 6 - + + + @ @ + + = ; ; , 6 q q y g g y g E 7.z.h.z.h.s.t.0.C.h.f.t.a.y.3.5.3.X.]  .[ D l M M V C C ",
"= 1 } _.=X8X6X8X*X*XL.w.R r ; - + + o + + + + = @ = - ; , 1 0 g y q 6 q m ' 1.a.>.3.>.a.h.C.s.g.4.3.;.,. .| `  .Y V n C V Y Y R ",
"- D w.|.*X*X|.Y.Y.B.<.M 6 ; - @ @ @ + + @ + @ = = = - - @ = , , , , , ; 1 f W ' | X.X.;.7.z.5.X.| ' |  . .] ) ` R n M C R E E E ",
"8 ) t.b.}  . .o.o.1.^ n 6 6 8 f y , - - - - - - - , - = + = = - - - @ = : ; r E ^  .W ^ @.5. .| ' [ T ^ }  .L ^ Y M f M Y R V C ",
"M ] ,.M y n E V f y 7 - @ , M ^ ^ y 1 , , ; - - ; 3 ; - ; : - - - - @ + & $ = 9 ^  .^ W ^ ^ ^ W ^ ^ R K / ) ) E ] E M V Q E C C ",
"Y ^ K y 9 t n n 8 6 ; - 7 E @.o.' Y f 0 1 , ; ; ; , , ; - ; - ; ; < : = + $ + = 8 ^ [ | ! Q Q Q W Q R Y c ^ ^ ) E { R C V E C A ",
"R L l 8 8 q n n f y r f X.L.W.f.4.[ A h 0 1 , 1 0 6 6 1 , , , , 1 1 1 < > : + + = 7 V ^ Q W Q W ^ ^ E B B / ) / ) ) C V C C C U ",
"L / s 9 9 f n V m R W X.1.h.s.z.s.7.E Z Z g q g m Z g g g q 1 6 0 q 6 7 7 < = + @ = 7 V Y E U ^ [ ,.^ B l ) E ) ) / n M C A Z Z ",
"K l r 9 9 t y h A _ Q Q ' ' X.X.;.' _ A W U Z Z A Z Z Z Z g q 0 y q 6 6 8 1 ; = = = - t W E Q ' ,.%.} H l R ^ / E C c n C Z Z m ",
"M f ; ; - - - 1 q g g h h m Z Z g g a y 0 0 8 q 0 q y y 0 8 6 q 6 0 6 6 8 8 1 > = = : , M Q ^ ;.@.w.,.R l K L / R R n n n V Z Z ",
"R d 3 - = = , 1 1 1 1 6 0 0 q q 0 8 6 6 6 6 1 1 1 1 , ; - - - - - - - - ; ; ; ; - - 1 1 f Q [ o.<.w.>.) B K / / / L l n M Z Z Z ",
"^ M s r y n h m m m h M G G S G G G S F G G S S j a 8 1 1 1 ; ; ; ; @ @ @ - = ; t f f f y _ [ 1.1.2.) / H K K K L / l n M A Z A ",
"} ^ Y C E E A _ 5.>.;.;.6.r.t.r.r.w.O.^ @.^ G G G F S N N j a a a y y 8 0 8 0 M X. .[ U f ' X.;.1.| ^ L K H H L I L l n C V Y V ",
"B @.^ ^ U ' A ' 1.1.o.t.@.5.,.<.e.@./ G F F f N N N y j j N g j g g q a a m | h.t.3.>.W M | X.1. .@.^ L B c K I K K l l n V M M ",
"l ) [ A ^ ( [ V C n l N M N N N B l s 9 9 7 7 9 y 9 9 9 y a y a f y y f U <.U.Z.t.;.1.V Z [ @.| ;.^ L K c c H I P B B c B n B B ",
"Y B ^ [ _ [ A n y t 3 7 7 9 9 9 9 9 9 9 7 7 < < 3 3 3 9 r y 8 f l f f C 1.E.c.d.5.1.A M A t.@.X.[ ) c B c x c H c H l M H K l M ",
"5.M E <.1.| _ m n q 6 7 t p y s p s r 9 9 7 3 < 7 3 7 9 r s y p f n M X.J.L.B.w.,.@.C n ' t.;.[ ^ C l f l f c x l f c B K D B M ",
"5.^ M t.8.5.' Z y q t t q n n M f d r r 9 7 3 3 3 9 r p p l f n l D ^ Z.V.L.r.t.@.,.n g _ 4.[ } M l d f s l l x f d l K L E E R ",
"&.@.C } a.t.[ U h y y y M R Y Y C n f y r 9 9 9 s l M R ) / R Y R ) t.b.Z.B.b.w.t.[ f m | [ ' E l l l d s l d d s l Y K R ) ` / ",
"$.%.M R a.f.[ ! h n y M @.h.;.4.| ^ n l f l f B K }  .t.h.r.;. .] <.t.d.L.L.e.r.h.R y W [ ;.W C l l f r r l t s f H H R /  .K B ",
"$.%.K Y ,.6.q.X.A m h Y t.x.5.1.1.t.,.<.w.<.5.r.D.D.D.L.W.b.8.w.5.t.t.r.L.B.t.t.t.m M Q  ._ C B M l p 7 s l d d c K K P $.I B l ",
"P *.) } ^ %.x.f.| ~ A o.7.K.x.t.@.t.a.Y.B.I.D._.^.F.A.W.B.r.<.w.@.f.t.d.b.6.e.r.;.Y C R W ( C B C B r 9 9 K B c B L L $.P I ) ) ",
"J &.*.I B / e.l.g.4.X.u.C.K.K.U.H.H.H.H.H.L.H.F.F.|.W._.L.A.<.1.,.5.6.t.e.,.w.,.<.R ^ ) ) W C T E B 9 9 s l B I K K K K L I ) / ",
"b $.$.$.c d c <.x.(.t.h.C.Y.B./.|.#XW./.F.oXF.oX,X2X*X|.F.W.<.6.,.5.1.+.,.<.] ,.<.} E ) +.} E ^ R B r r e 7 9 L K c d K P $.%.%.",
"z P I I K s 4 e I Y.L.C.G.x.V.W.[.|.].[.*X,X*X&X,X,X#XW.L.@.5.t.t.,.] ) ]  .@.@.2.} ] +.t.} ^ / R d d x x 9 7 s L H b H / } w.e.",
"w H P $.c u * 4 s I B.^.H.M.C.(.G.T.W.).~.oXoX#X|.|.B.b.r.<.t.z.+.+.Q ` E ` ] <.,.5.6.f.<.1.%.) K x d k k e 7 r p R K L K } %.w.",
"w x P P x w & & * 4 K L._.C.f.t.z.l.J.Z.!.H.d.t.b.t.<.@.b.t.t.<.@.` ^ Q ( ` +.+.2.w.u.d.L.t.w.$.L d z c k i u e 7 s l K K P x i ",
"5 w v c k 5 # % & * 3 H |.oXd.g.u.s.d.L.R.(.n.n.p.t.} +.X.4.X.' ` ` Q ^ | | +.<.<.p.w.B.W.I.%.I J s 3 K x z u 9 = 3 9 f d 9 < 4 ",
"% & 2 5 k 5 # O % % * 3 w.1XF.p.8.Z.|.+X+X|.R.K.W.N.z.7.u.2.| ^ ^ W W Q | ;.<.w. . .r.B.~.].e.L H x 5 u u w 5 3 % + > > > < < > ",
"O O # * 4 4 % # # % & < c ,X*X=.v.#X-X1X1X1X#X#X|.XX!.Q.k.N.u.8.^ ^ U W W ..+.t.2.t.B.T.~.XXr.I x d d < > : : 4 % # > < 3 w 7 d ",
"O O O % * 2 & O O O & : C |.6X6XwXwX8X6X9XwXtXwX6X9X3X,X*X@X X~.^.r.) L R / ` @.<.p.Z.T.XXOX=.H H e u 4 > * & & O # < 7 s d d x ",
". . . # % * & # . O $ < +.|.;XwXtXyXeXwXwXtXeXyXyXrXwXwXeX0X*X&X=X1X}.v.$.L D { d.I.V.}.*X}.) H c w * * & & O O O # & < 9 r r i ",
". . . O # & % # . X # d e.#X5X5XwXeXeX5X7X7X7X7XqXqX7X7X7X7X:X:X:X:X:X:X:X-.I *.S.F.F.}.%X-.H v z w * & & # O O # # % * 5 3 e u "
};
