/* XPM */
static char *out[] = {
/* columns rows colors chars-per-pixel */
"64 64 222 2 ",
"   c #2B1608",
".  c #4A2415",
"X  c #5C2C1A",
"o  c #68321E",
"O  c #583F2A",
"+  c #763A24",
"@  c #7E3D26",
"#  c #63432F",
"$  c #6E402D",
"%  c #6A4D37",
"&  c #77523D",
"*  c #7F5D46",
"=  c #814A35",
"-  c #8E4B34",
";  c #96523A",
":  c #865540",
">  c #8C5D46",
",  c #9D5943",
"<  c #955F49",
"1  c #A45E45",
"2  c #89664F",
"3  c #9B644E",
"4  c #916A53",
"5  c #9A6F56",
"6  c #AB644A",
"7  c #A16851",
"8  c #AD6D51",
"9  c #A86D58",
"0  c #B36A51",
"q  c #B76F53",
"w  c #A1765D",
"e  c #A7755C",
"r  c #AE755B",
"t  c #B4715D",
"y  c #B97658",
"u  c #A87B63",
"i  c #AE7D64",
"p  c #B77764",
"a  c #BD7564",
"s  c #B27861",
"d  c #B47F64",
"f  c #BB7E63",
"g  c #C1785B",
"h  c #C87E61",
"j  c #C07B6B",
"k  c #AC836B",
"l  c #BE8466",
"z  c #B3876E",
"x  c #BA876A",
"c  c #BF8B6C",
"v  c #B78C72",
"b  c #BC8E72",
"n  c #C38264",
"m  c #CC8566",
"M  c #C78568",
"N  c #C4816F",
"B  c #C48A6C",
"V  c #CC8C6D",
"C  c #CC8C6E",
"Z  c #D18969",
"A  c #D48C6E",
"S  c #D88F6F",
"D  c #C98270",
"F  c #C88973",
"G  c #CC8A78",
"H  c #D08B78",
"J  c #D38E7E",
"K  c #C39072",
"L  c #C69677",
"P  c #C89172",
"I  c #CC9475",
"U  c #CA997A",
"Y  c #CF9C7E",
"T  c #D19071",
"R  c #D09072",
"E  c #D29172",
"W  c #D09273",
"Q  c #D39273",
"!  c #D49374",
"~  c #D59475",
"^  c #DA9472",
"/  c #DD9876",
"(  c #D79778",
")  c #D1967C",
"_  c #D89778",
"`  c #D59A7B",
"'  c #D99878",
"]  c #D9997A",
"[  c #DB9A7A",
"{  c #DA9A7B",
"}  c #DC9B7B",
"|  c #DB9C7D",
" . c #DA9D7E",
".. c #DE9D7D",
"X. c #DC9D7E",
"o. c #DD9D7E",
"O. c #E09E7D",
"+. c #E29F7D",
"@. c #E2A07F",
"#. c #D89982",
"$. c #DD9E80",
"%. c #DE9F80",
"&. c #DF9F80",
"*. c #D4A082",
"=. c #DFA081",
"-. c #DCA386",
";. c #D8A485",
":. c #DCA88A",
">. c #DFAB8E",
",. c #DFAF94",
"<. c #E0A081",
"1. c #E2A181",
"2. c #E3A181",
"3. c #E0A182",
"4. c #E1A283",
"5. c #E3A282",
"6. c #E4A281",
"7. c #E4A383",
"8. c #E5A383",
"9. c #E5A484",
"0. c #E6A584",
"q. c #E6A585",
"w. c #E7A686",
"e. c #E8A786",
"r. c #E8A787",
"t. c #E9A887",
"y. c #E0A58A",
"u. c #E3AC8D",
"i. c #E7AD8F",
"p. c #E8A888",
"a. c #E9A888",
"s. c #E9A989",
"d. c #EAA989",
"f. c #EAAA8A",
"g. c #EBAA8A",
"h. c #EBAB8B",
"j. c #EBAC8C",
"k. c #EBAE8F",
"l. c #ECAC8C",
"z. c #ECAD8D",
"x. c #EDAD8D",
"c. c #EDAE8E",
"v. c #ECAE8F",
"b. c #EDAE8F",
"n. c #EEAF8F",
"m. c #EDAF90",
"M. c #EEAF90",
"N. c #E4B195",
"B. c #E9B193",
"V. c #EDB091",
"C. c #EEB090",
"Z. c #EFB090",
"A. c #EEB091",
"S. c #EDB192",
"D. c #EEB192",
"F. c #EFB192",
"G. c #EFB293",
"H. c #ECB496",
"J. c #E6B599",
"K. c #EEB899",
"L. c #EEBC9E",
"P. c #F0B293",
"I. c #F0B394",
"U. c #F0B495",
"Y. c #F1B495",
"T. c #F0B496",
"R. c #F1B596",
"E. c #F1B597",
"W. c #F2B596",
"Q. c #F2B698",
"!. c #F2B799",
"~. c #F3B799",
"^. c #F2B89A",
"/. c #F3B89A",
"(. c #F3B99A",
"). c #F3B99B",
"_. c #F4B99B",
"`. c #F4BA9B",
"'. c #F4BA9C",
"]. c #F4BB9C",
"[. c #F4BB9D",
"{. c #F5BB9D",
"}. c #F5BC9E",
"|. c #F5BD9E",
" X c #F5BD9F",
".X c #F1BFA1",
"XX c #F5BEA0",
"oX c #F6BEA0",
"OX c #F6BFA0",
"+X c #F6C0A2",
"@X c #F6C1A3",
"#X c #F6C2A3",
"$X c #F7C2A3",
"%X c #F6C3A4",
"&X c #F7C3A5",
"*X c #F2C4A5",
"=X c #F7C4A6",
"-X c #F7C5A6",
";X c #F7C6A7",
":X c #F7C7A8",
">X c #F7C8A9",
",X c #F0CBAD",
"<X c #F8C8A9",
"1X c #F8C9AA",
"2X c #F8CAAB",
"3X c #F8CBAC",
"4X c #F8CCAD",
"5X c #F8CDAE",
"6X c #F9CEAF",
"7X c #F3D1B3",
"8X c #F7D1B2",
"9X c #F0D4B6",
"0X c #F6D4B6",
"qX c #FAD3B4",
"wX c #FAD7B8",
"eX c #F1D8B9",
"rX c #F7D8BA",
"tX c #F5DBBB",
"yX c #FADDBE",
"uX c #F6DDC0",
"iX c #F9E1C3",
"pX c #FBE5C7",
/* pixels */
"s s P p.D.'._.).!.|.'.{._.}.'.XX X$X X@X X@X[.+X^.^.^._.E.^.Q.Q.V.S.k.V.k.S.m.m.9.p.q.p.q.3.-.7._ [  ...{ | ( ( C C C R T T R C ",
"& + & 5 I p.D._.!.^.^.[.|.'._.^.|.XXXX X+XXXXX XL.T.Y.G.Q._.).T.U.x.f.m.F.F.C.l.s.p.q.w.s.2.<.X...o.$.&.$.$.` W I T T T ! Q ! R ",
"# # o = 3 f ~ p.E.}.E.).'.{.T.).$X#X_.|.'. XQ.}.'.Q.k.T.E.^.G.E.T.k.5.l.D.m.q.s.w.f.5.9.8.8.[ ..o...] %.5.2.! W ~ Q V C A ! R A ",
"z 5 < < 7 8 n ~ k.^.).Q.^.W.T.|.%X X'.E.'._.!.^._.Q.T.G._.W.!.Q.T.p.p.p.m.t.9.3.s.d.e.@.5...[ [ } ..X.$.1.O.( R ~ C Z V A C C m ",
"N.N.Y I l l B W 3.E.R.^.D.G.T.XXXX X'.Q.S.!.T.|.).OX).XX[.|.!._.m.m.m.z.w.s.q.w.q.l.f.5...$.{ o.[ 3.%.3.} ..W ( C C V A Z Z Z V ",
"T.Y.S.p.%.( W ( X.k.G.!.Y.D.E.).|.E.T.D.D.S.E.).XXXXOXXX#X}.}.T.G.m.l.s.s.h.w.q.p.l.x.5.2.<.X.| ..%.3.%.%.' W C C V V V C Z Z Z ",
"p.9.%.3.<.4.( | 5.z.M.R.).~.k.E.`.E.i.k.f.S.i._. X$XE.XXXX_.D.T.m.i.<.2.s.s.7.a.l.M.q.9.3.3.{ ..$.4...%. .] P C C Z M Z C V n M ",
"p.q.@.' Q W ( ..w.l.F.G._.Q.U.V.!.D.p.3.q.p.f.D.'.T.>.Y K d x l z s f B W  .] ] %.2.<...3.5.%.$.%.3.&.$...] Q Z C M M h Z V h n ",
"p.M.w.@.T M M [ 8.p.x.W.U.Q.G.^.D.G.| ~ ~ | %.p.q.] f 7 > & @ $ o $ $ = : 9 r p f C T ( ( ..X.4.| .. .=.( [ Q C l l n n h M g n ",
"l.p.q.8.[ m h Z [ 8.F.P.Y.T.Y.T.Z.v.[ V R C W W C y 6 ; = + $ . . . . . . o = > 3 r f l F R ~ ( ] ] X.] ] ( ~ C n f g g n g g g ",
"c I ] 2. .Q g n C ..2.F.Y.~.z.Z.F.l.' M M V F M f t , : = = + + o o X o $ & & = = > > 7 9 r t n R ( Q ( ~ ( F V M n y g f n y a ",
": 3 u x l n n y n T [ g._._.G.c.P.s.[ T M M f l t 8 , ; ; ; ; ; 7 9 r p P I l 9 3 < > > , < 3 7 t p l R ~ R B l n f y f n n g g ",
"% u u 5 e 9 7 8 t M ~ w.Y.XXE.'.F.l.[ ( C n f t 6 1 , , , 7 8 f M (  .4.4.p.9.%.R M f r , ; ; , < 3 3 9 t l l l y f a f y g g g ",
"# % # O % & : : , 8 Q O.^.;X%X'.E.m.8.( M y y 6 , ; ; - ; , 6 f C ] %.] ] ] ..%.3.| X.W F f 9 3 3 7 3 > > < 7 t f y t q q t q q ",
"$ $ . . . X o $ + = y 9.^.8X8X%XXX'.2.C y t 6 1 ; - - = - 7 y E 3.s.<...( C f l n M C  .] ] l f p 9 < > > > : 3 8 t 0 q q q 6 8 ",
"9 < = $ # & > = = ; g l.'.8X8X2X%X~.<.M 0 8 8 ; ; - @ o 3 l l P ` -.>.3.3.( C l y 7 ; 8 M R C W C l 9 7 3 > > ; , 6 1 1 6 1 6 6 ",
"3.W c c l l l C C <.s.G. XrX0X5X|.f.Z t 6 8 8 , 1 1 - + - : : > > d b b x c l l t 8 , = ; l C W n n f p 9 7 3 3 , 1 6 8 6 8 8 8 ",
"..| ] T ! A Q A ^ ~ k.[.;X5X5X>X_.4.m 0 0 q M t M ~ C g 8 , ; @ X . . . X # & & & = & & $ : l P ( Z M g f n B f t 8 8 8 q q r 8 ",
"~ ~ A ' ~ A h n M w.).#X5X6X%X|.D.5.n q q h A [ ' 8.2.q.9.q.( ~ x 5 o O . .             . X > n l y 8 f n m n y y y r y y g t y ",
"Q g q y y 0 y ~ ^.%X%X#X6X2X$XE.w.~ m h m Z A O.a.s.a.9.2...] 3.2.` M t 9 3 > = = = + o o + - ; , 6 8 y n g g g y 8 8 0 t f t g ",
"'.D.9...| p.^.2X;X>X;X5X5X1XXXY...A Z S ^ ..^ 2.q.b.l.F.k.9.W V m A A h n n g n n M n n l h 0 ; 1 M Q O.[ O.O.[ M y y y y g g n ",
"2X%X>X#X;X2X>X;X>X2X1X8X6X%X_.w.[ A A ~ ..9.a.s.f.b.l.c.b.T.F.$.M q 0 0 8 q y g m m m g 0 ; - 0 T [ ~ Q ' ..2.} C f y y f g n g ",
"6X5X|.;X3X6X%X;X2X8X6X8X3XXXz.<.^ A m Q ^ 2.8.g.m.m.h.M.Y.~.S.!._.Q. .R f 8 , , ; ; - ; 1 g Z ' @.s.8...Z M g l t 8 1 6 6 8 1 8 ",
"8X;X%X>X6X2X;X;X5X6X0XqX1X'.b.8.O.~ Z m m m m Z ^ O.g.m.~.Q.~.~.'.^.^. X$X'.T.p.p.9.9.p.F.F.l.t.2...<.2.9.n 8 8 g y 8 r t y t t ",
"5X3X2X6X6X4X6X3X>XqXrXrX%X'.M.M.w.8.Q m g g g g 8 0 g ..F.'.T.}.E._.'.$XXX-X#X%X X{.`.).D.D.m.C.@.' ~ 2.8.q.R ~ ~ l f f f l l l ",
"qX6X6X2X6X3X>X$X>X6XrX5X%X~.Q.D.T.l...m g m / ~ m 0 , 6 C l.~.'.[.'.XX#X1X-X>X$XXX[.}.Y.P.b.P.s.s.@.( Q 2.8.w.5.[ f r s f y p s ",
"6X2XXX$X$X'.f.XX1XrX0X5X$XXX~.^.D.@.m m Z } 5.l.9.' 0 ; , g [ D.~.XX[.;X1X2X;X-X=X#X'.~.Y.P.q.d.a.s...( ( w.8.0.9.B 9 r r r r t ",
"'.T.g...A n  .XX6XrXrX8X3X$X@X_.5.n g g Q O.8.8.O.~ g , - ; 8 V w.Y.|.$X2X1X2X&X<XXXOX~.Q.m.s.t.l.d.w...O.@.5.8.8.F t t p p s y ",
"9.^ g 6 ; n _.1X0XiXpXpX5X1X'.<.g 8 1 1 6 8 6 8 6 6 1 1 6 8 1 6 g <.F.|.XX%XXX XXX@X~.'.G.x.f.l.f.g.9.8.' } O.9...C f f f l f n ",
"Z q - - n E.3X8XyXpXpXyX6X|.( t , @ o + + + + + = - , q g g g q q g ' s.T.E._.).'.Q._.G.G.x.b.x.M.l.g.9.2.} [ 2.O.C l f n n M M ",
"q ; - C '.6X6XrXrXyX8X;XXX4.t , = + + @ + + o @ - , ; 6 q q 0 g g y y Q 2.l.x.P.U.Y.f.F.c.G.d.l.M.x.9.8.5.<.( ....C l n V C n C ",
"; - l D.1X6X6X6X2XXXK.9.( f , = @ + + + + + + + = = - - 1 , 6 q g y 0 8 n ~ <.w.x.h.w.r.l.x.l.s.f.a.8.9.8.O.[ } } F l f M M M M ",
"- t ` [.;X8X;XXXG.Y.f.( 6 ; - - @ = @ @ + @ @ = @ = - - = = - 1 1 1 , 1 1 y E <.2.8.2.8.6.d.x.z.8.8.$.3. ...] X.! C n C M R R W ",
"; F y.^.N.-.4.%.3.<.4.~ y 1 8 n M 1 ; - - - - - ; ; ; - @ @ = - - - - @ : ; 8 R ( ~ ' ] %.+.9.O...[ ..( ] ) ] ] ( C M M W Q Q Q ",
"8 ] 4.| l l C ( F g 6 ; = - t R [ l 6 1 , , - - ; , , ; - ; = - - ; = + + = $ 7 W  .~ ( _ ..~ ' [ } E Q W ` I (  .R f M R W V C ",
"n ] ] l r 8 f n f 8 7 - , P 3...<.^ M t 6 1 ; - ; ; ; ; ; ; ; - ; ; : = & $ + + 9 ~ ......( ! ! ( ( ! P I W W `  .( M V ~ Q C C ",
"n ( P d 9 t y M n y t t C T.W.U.9.O.~ m q 6 1 1 6 q 1 6 ; , ; 1 1 6 , 3 > : + + @ 7 Z ..^ ~ ~ ~ ! ~ ! I c F I ` ( | )  .Q Q C A ",
"F I l r 8 y n n C n C ' O.p.m.l.x.9.' Z m g y y h m h n g q 6 6 0 0 q 6 6 , - + + @ 7 V ~ ! ~ ~ ' ] ] ! B l W ` ` ` ` T Q C C Z ",
"n ) s 9 9 f y n m ' ' ' ' _ ~ ../ ..Q Z Z Z h m m Z Z A m g q q y g 0 8 0 7 > = @ = = 8 T Q T ' [ 3.( Y B c P ` `  .C C C W Z Z ",
"B F 9 7 3 ; - 1 g m h n m m m m h g y 0 q 6 6 0 y y y y q 8 0 8 0 0 6 1 8 6 , : = = - ; n T ~ [ 3.-. .W B l P )  .W c M C Z Z m ",
"F B 7 ; = = - , 1 1 , 1 6 q 8 0 8 0 6 6 1 1 , 1 , 1 , ; - - - - = = = = - ; ; ; : : , , t ~ ' <.%.y.3.` B c P ) I W M M h V m Z ",
"] M f 9 9 8 h n n h h h n n D D G G G D G D D n y 0 6 1 , , ; - - - = + + + @ - 1 t y y 8 ~ } 3.9.y.2.` P K K U ) I B l M Z Z Z ",
"] ] M V T Q m A ..2.#...| 2.#.4.4.3.#.#...#.H H D G N D Z Z g g g y 0 8 6 6 1 y ~ [ T T t ( } 5.5.7.[ ) I K P P I I l B M A Z A ",
"R 3.( ~ ' ' A S 9.2.<.<.q.5.<.-.>.y.J H J H N j G N N j m m N h h g y q g h ! 8.F.w.6.~ n [ [ <.5...( I P K K K Y Y F l M V R V ",
"l %...( T [ } ! ' ] E W W J H G G I d p r r 7 t y f y t f g g j y g t g Z 3.z.~.s.8.2.~ M ..O.5.$.%.( I B P c P P Y B l n M M M ",
"M R [ ( ( _ ' T n y 8 8 t 9 r r r s s 9 9 7 7 7 7 7 w 9 r t f f n f y Z <.F.W.G.p.<.[ Z Z } 5...<.( I P P c x K U Y B c B n B B ",
"%.B ( 5.O.} W C n n 8 6 8 f f d p d r r 9 9 < 3 7 9 7 9 r y t f l n n ] x.~.M.k.9.5.A M A s.%.5.} ` c B c x s c U K l M K P l M ",
"B.~ M 9.w...' A M f t t y n n n n f r 9 9 7 3 3 7 9 9 t f f n n M C ( p.U.T.S.q.y.4.C g [ 5.@.} ' C l f l f s x c f c B P F B M ",
"-.9.M 9.w.9.[ ! h g y g n ~ Q W V l p s 9 9 7 9 9 p l C T E C ~ W ( q.G.D.T.k.i.p.3.n g ' 8.[  .M l f f r s x x x d f P I ~ Q W ",
"*.>.~ W g.p.1.A m g y M 3.s.8.2...R M f p d f l F W [ 2.w.8.2...| %.m.B.G.S.k.k.k.~ g m ..} [ Q B l f d s r d d s s B P P ` ] ` ",
"*.-.~ W q.l.O.^ Z Z h ^ z.W.s.l.s.w.%.$.` %.$.p.k.T.B.D.T.Y.f.q.2.s.4.k.T.T.u.i.p.C g ~ } 3.Q C M P f r r s t s s K K W ) ..W C ",
"*.-.Y Y 3.q.t.O.' ~ S 5.P.m.9.2.5.p.l.f.D.D.S.S.K.K.K.T.!.B.w.%.9.p.7.i.i.s.p.p.4.C F ~ [ ' C B W F p 9 r d d d x c P U *.Y P l ",
"U :.` %.Y -.m.l.@.2.+.l.M.Y.m.m.j.D.D.E.F.E.K.[._.'.H.^.D.i.4.y.7.l.p.k.9.q.u.i.<.~ C ] E _ C C C P r 9 7 c K c B I I *.U Y ) ` ",
"L ;.:.*.K P i.b.z.x.s.s.F.Y.Y.W.'._.|.XXXXXXXX#X1X2X;X[.[.H.p.3.3.q.q.3.%.3.3.3.4.( ] ) ( ~ Q E Q C 9 9 r d x Y U P K P I Y ` ) ",
"b *.*.*.K d z ` m.'.x.x.F.Q.V.'.XX%XXX%X%X1X$X>X1X4X|.[.H.i.4.q.3.7.( $.3.4.| 3.4. .` ` $.3.Q ( ( B r r e 7 7 B Y K d b U *.-.-.",
"z U Y Y K d 4 e I k.T.F.P.m.D.Q.|.XX}.|.-X1X-X=X1X#XH.B.p.%.9.9.p.3.( ' { { %.%.7.4.%.$.p. .` ( W d d x x e 7 r K I b K )  .y.u.",
"w K U *.L u * > 5 z >._.I.Z.F.'.P.Q.^.].)._.E.U.G.D.y.B.i.a.p.s.$.$.~ ] Q ] { 4.3.7.q.l.i.4.-.` P x d x k e 7 r p P P I P  .-.y.",
"w x U U x e & & & > d -.[.F.l.p.n.b.U.G.(.G.k.p.>.5.X.%.4.9.9.| ] ] ( ~ _ ] $.$.7.y.s.k.T.p.y.*.U d z c k i u e 7 r l P P U x i ",
"5 w v K d 5 % # % * > u E.$Xk.z.s.x.k.T.!.'.V.V.f.p. .$.O.9.[ [ ] ] ~ ( ....$.4.4.f.y.S.^.E.-.Y L z 3 b x z u e = < 9 d d 9 < 4 ",
"% & 2 5 k 5 % O # % * < *.3X%Xf.w.G.XX#X#XXX!.Y.^.A.n.q.s.7...( ( ~ ! ~ ..<.4.y.X.| i.S.).}.>.` K x 5 w u w 5 7 * + > > > < < > ",
"O O # * 4 4 & O # # & > B 1X4X>.N.%X:X3X3X3X%X%XXX+X(./.v.A.s.w.o.( T ! ! o.$.p.7.p.S.Q.).+Xi.Y x d d 5 > : : 4 % # > < 3 w 7 d ",
"O O O % & 2 * O O O & : C XX8X8XrXrX0X8XqXrXuXrX8XqX5X1X-X$XoX)._.i.` I W ) ] %.4.f.G.Q.+X@X>.K K e w 4 > : & & O # < 7 s d d x ",
". . . # % * & # . O $ < $.XX>XrXuXiXtXrXrXuXtXiXiXyXrXrXtXwX-X=X;X3X.XN.*.I F | k.E.D..X-X.X` K c w * * & & O O O # & < 9 r r i ",
". . . O # & % # . X # d u.%X7X7XrXtXtX7X9X9X9X9XeXeX9X9X9X9X,X,X,X,X,X,X,X,.Y :.J.L.L..X*X,.K v z w * & & # O O # # % * 5 3 e u "
};
