/* XPM */
static char *out[] = {
/* columns rows colors chars-per-pixel */
"64 64 218 2 ",
"   c #2B1608",
".  c #4A2415",
"X  c #5C2C1A",
"o  c #68321E",
"O  c #583F2A",
"+  c #763A24",
"@  c #7E3D26",
"#  c #63432F",
"$  c #6E402D",
"%  c #6A4D37",
"&  c #77523D",
"*  c #7F5D46",
"=  c #814A35",
"-  c #8E4B34",
";  c #96523A",
":  c #865540",
">  c #8C5D46",
",  c #9D5943",
"<  c #955F49",
"1  c #A45E45",
"2  c #89664F",
"3  c #9B644E",
"4  c #916A53",
"5  c #9A6F56",
"6  c #AB644A",
"7  c #A16851",
"8  c #AD6D51",
"9  c #A86D58",
"0  c #B36A51",
"q  c #B76F53",
"w  c #A1765D",
"e  c #A7755C",
"r  c #AE755B",
"t  c #B4715D",
"y  c #B97658",
"u  c #A87B63",
"i  c #AE7D64",
"p  c #B77764",
"a  c #BD7564",
"s  c #B27861",
"d  c #B47F64",
"f  c #BB7E63",
"g  c #C1785B",
"h  c #C87E61",
"j  c #C07B6B",
"k  c #BE8466",
"l  c #B3876E",
"z  c #BA876A",
"x  c #BF8B6C",
"c  c #B78C72",
"v  c #BC8E72",
"b  c #C38264",
"n  c #CC8566",
"m  c #C78568",
"M  c #C4816F",
"N  c #C48A6C",
"B  c #CC8C6D",
"V  c #CC8C6E",
"C  c #D18969",
"Z  c #D48C6E",
"A  c #D88F6F",
"S  c #C88973",
"D  c #D08B78",
"F  c #D38E7E",
"G  c #C39072",
"H  c #C69677",
"J  c #C89172",
"K  c #CC9475",
"L  c #CA997A",
"P  c #CF9C7E",
"I  c #D19071",
"U  c #D09072",
"Y  c #D29172",
"T  c #D09273",
"R  c #D39273",
"E  c #D49374",
"W  c #D59475",
"Q  c #DA9472",
"!  c #DD9876",
"~  c #D79778",
"^  c #D1967C",
"/  c #D89778",
"(  c #D59A7B",
")  c #D99878",
"_  c #D9997A",
"`  c #DB9A7A",
"'  c #DA9A7B",
"]  c #DC9B7B",
"[  c #DB9C7D",
"{  c #DA9D7E",
"}  c #DE9D7D",
"|  c #DC9D7E",
" . c #DD9D7E",
".. c #E09E7D",
"X. c #E29F7D",
"o. c #E2A07F",
"O. c #D89380",
"+. c #DD9E80",
"@. c #DE9F80",
"#. c #DF9F80",
"$. c #DD9986",
"%. c #D4A082",
"&. c #DFA081",
"*. c #DCA386",
"=. c #D8A485",
"-. c #DCA88A",
";. c #DFAB8E",
":. c #DFAF94",
">. c #E0A081",
",. c #E2A181",
"<. c #E0A182",
"1. c #E1A283",
"2. c #E3A282",
"3. c #E4A281",
"4. c #E4A382",
"5. c #E5A382",
"6. c #E4A383",
"7. c #E5A383",
"8. c #E6A483",
"9. c #E5A484",
"0. c #E6A585",
"q. c #E7A686",
"w. c #E8A786",
"e. c #E8A787",
"r. c #E9A887",
"t. c #E0A58A",
"y. c #E3AC8D",
"u. c #E7AD8F",
"i. c #E8A888",
"p. c #E9A989",
"a. c #EAA989",
"s. c #EAAA8A",
"d. c #EBAA8A",
"f. c #EBAB8B",
"g. c #EBAC8C",
"h. c #EBAE8F",
"j. c #ECAC8C",
"k. c #ECAD8D",
"l. c #EDAD8D",
"z. c #EDAE8E",
"x. c #ECAE8F",
"c. c #EDAE8F",
"v. c #EEAF8F",
"b. c #EDAF90",
"n. c #EEAF90",
"m. c #E4B195",
"M. c #E9B193",
"N. c #EDB091",
"B. c #EFB090",
"V. c #EEB091",
"C. c #EDB192",
"Z. c #EEB192",
"A. c #EFB192",
"S. c #EFB293",
"D. c #ECB496",
"F. c #E6B599",
"G. c #EAB79A",
"H. c #EEB899",
"J. c #EEBC9E",
"K. c #F0B293",
"L. c #F0B394",
"P. c #F0B495",
"I. c #F1B495",
"U. c #F0B496",
"Y. c #F1B597",
"T. c #F2B698",
"R. c #F2B798",
"E. c #F2B799",
"W. c #F3B799",
"Q. c #F3B899",
"!. c #F2B89A",
"~. c #F3B89A",
"^. c #F3B99B",
"/. c #F4B99B",
"(. c #F4BA9C",
"). c #F4BB9C",
"_. c #F4BB9D",
"`. c #F5BB9D",
"'. c #F5BC9D",
"]. c #F5BC9E",
"[. c #F5BD9F",
"{. c #F5BE9F",
"}. c #F1BFA1",
"|. c #F5BEA0",
" X c #F6BEA0",
".X c #F6C0A1",
"XX c #F6C0A2",
"oX c #F6C1A2",
"OX c #F6C2A3",
"+X c #F7C2A3",
"@X c #F6C3A4",
"#X c #F7C3A5",
"$X c #F2C4A5",
"%X c #F7C4A6",
"&X c #F7C5A6",
"*X c #F7C6A7",
"=X c #F7C7A8",
"-X c #F7C8A9",
";X c #F0CBAD",
":X c #F4CDAE",
">X c #F8C9AA",
",X c #F8CAAB",
"<X c #F8CBAC",
"1X c #F8CCAD",
"2X c #F8CDAE",
"3X c #F9CEAF",
"4X c #F3D1B3",
"5X c #F7D1B2",
"6X c #F0D4B6",
"7X c #F6D4B6",
"8X c #FAD3B4",
"9X c #FAD7B8",
"0X c #F1D8B9",
"qX c #F7D8BA",
"wX c #F5DBBB",
"eX c #FADDBE",
"rX c #F6DDC0",
"tX c #F9E1C3",
/* pixels */
";.s.} @.^ ^ %.%.%.;.m.D.m.m.m.m.:.m.:.m.m.m.m.m.y.:.;.:.;.y.;.y.*.t.=.-.=.t.=.t.( +.W ( T ( T ^ K K K ^ K T K V B V V U V Y V U ",
"-.i.=.P L L %.%.=.;.m.m.m.:.m.:.:.:.m.m.:.m.D.y.u.;.u.;.y.y.y.t.t.*.*.*.t.*.t.=.+.( W _ ( ( ( ^ ~ K K J L K J S S V U U E Y Y U ",
"L %.L J L %.P -.;.m.t.u.m.D.:.y.m.m.t.;.y.M.y.u.u.u.t.y.y.M.t.i.0.0.1.t.0.y.t.t.@.<.W _ @.<.( { ( %.L L J J x N N V N V R E B U ",
"x P L J P =.=.=.m.m.m.D.D.M.m.y.M.y.;.y.M.u.u.u.h.u.y.k.h.h.y.u.D.u.9.0.h.u.p.0.,.}  .| 1.<.@.+.*.%.L L L J x k N N b m V V m n ",
"J +.P =.t.U.D.D.D.D.D./.U.S.M.U.M.D.M.M.M.C.N.L.N.U.M.D.N.D.D.S.u.h.x.N.u.g.i.a.} >.@.,.+.o.+.*.{ =.^ P J J N N b m b m m m n C ",
"t.i.u.N.!.Y./.!.`.Y.!.T.).E.E.E./.!.T./.!.E.Y.E.!.E.T.Y.Y.S.S.h.N.B.h.s.d.s.e.3.#.} ..+.<.} @.+.=.%.( K T m N N N m m m n n C C ",
"S./.Y._._. XC.!.(.|.E.^./._.U.~.!.(.S.E.U.~.h.Y.^._.h.Z.Z.C.p.c.c.l.0.s.a.f.,.} } @.] @.>.2._ { <.+.T V S S k b m m b m m n n h ",
"I.~.Q.E.[./.Y.U.(.^.Y.T.^.T.U.U.`.T.E.U.!.S.P.Y.R.Y.I.V.N.N.g.p.f.r.p.u.S.j.2.` #.] ' ' @.>.' ' +.( K m S m k k m b k k m n m h ",
"U.Y.T.^.R._./.~.C.Y.Y././.Y.S.Y.S.E.N.P.S.T.T.E.U.U.U.Y.u.n.p.p.0.g.f.l.f.k.e.3._ | ( @.| @.| >.~ W S V m m b b k b g h b h g h ",
"Y.Y.W.!.(. X).S.P.S.E.Y./.U.Z.k.S.U.U.P.Y.~./.E.E.U.S.Y.v.S.n.u.f.i.c.f.n.f.e.3.| ' @.+.&. .+.' T E U m B b b g g g y g g g g g ",
"u.U.c.E./. XS.L.V.I.h.Y./.L.i.u.k.U.C.^.'..X|.{. X/.D.U.Y.V.i.u.f.b.0.d.f.f.9.0.+.<._ @.@.+.~ ~ ~ W m B m b y y y y q y g g y g ",
"f K t.Z.W.Y.S.s.k.v.S.S.U.b.g.0.v.n.U.^.@X@X|.oX%X].U.u.i.+.W W ' _ K Y '  ._ ] 1.@.[ ' <.[ _ _ ~ T B m m k t t y t t t f g g g ",
": 7 V @.a.v.v.n.i.L.h.I.k.p.e.0.9.k.U..X_.oX_./.y.=.K k 7 7 3 3 3 9 7 9 s N m B U E ~  ._ ' / ' ~ W B b k f y y t y y y t a g g ",
"> , r N ' f.f.e.u.j.u.u.u.,.<.+.2.w.N.Y.U.u.+.f 7 : & $ X X X . X $ = : 3 7 8 r r r k V / W W R W U B b f f y y y y a g g y g y ",
"b s t f V 1.7.a.f.h.6.p.e.<.E ~ ) >.#.0.1.B 7 : = $ X . . X . X $ & = = : > > < 3 7 , 9 b m m B B V b k f f r y y y 0 q y g 0 q ",
"S f y b V _ q.a.d.p.e.e.f.] B m V U U U m 8 > = + $ $ o $ = < r x J k r r r 8 7 7 , 3 3 7 7 9 7 r r 8 8 t t 8 8 t 0 0 8 0 0 8 6 ",
"T f 8 y m ` 0.0.3.0.w.p.0. .b b b m m k t 1 ; : @ = ; 7 d V ~ t.t.i.i.t.] _ K m f 8 3 7 7 7 7 7 7 7 3 3 , 6 7 6 1 1 1 6 6 6 6 1 ",
"f f 8 6 g Z ` 0.0.<.2.3.w. .m f f f f y 8 , ; ; ; 1 8 b U ~ ] ] +.<.1.<.@.1.1.@. .V b y y 9 7 3 , 3 , , 3 7 1 1 6 1 6 1 6 6 8 6 ",
"X + : 1 8 b B ..j.k.@.9.e.#.B m f f 8 6 1 1 ; , , 1 1 t B ~ V B m m f b m U U | ' _ V U V b 8 7 7 9 3 7 7 9 7 6 6 8 6 6 8 t 8 0 ",
"  . . $ ; 8 m ) Z.Y.u.i.f.,.E B m y 8 , ; ; ; - = ; f V 1.i.i.2.<._ V b 8 , , 8 m V K V U b f y f y 8 t f t 8 6 8 8 8 t g b y f ",
"  . O # $ @ 8 ~ n.+X].U.v.a.~ B y 8 6 1 - - @ o = r d 9 9 l z k N V B N y 9 ; = ; f V U V U B b b m k m b b f y t y y g f b b b ",
"# & > 4 : @ - E V.@X=X X).S.>.b 6 6 1 ; - @ o + ; ; + . . . . . # & = : > > > = + - b W Y m f f b m m b b b b y y y f b f b b m ",
"K ^ N N m B C a.!.5X5X<XoXI.E g 0 q 1 , , , = = @ = = # O .     . . . . . . . X X + ; 6 6 8 0 b C E U W ) ) V m f b 8 t t y 8 t ",
"Z C Z Z ) ) ) n.%X3X7X<XoXp.B q 0 y y y E ] E Y ~ ~ V J i 5 : = > 4 > < < : @ @ = , 1 1 t B U _ }  .` ) 3.+.T b 8 1 , 1 8 6 0 t ",
"Z Z h b y g ,.oX=X5X3X<X).i.C y 0 h A E W 9.0.+.W '  .9. .T B V U U m m y b b B B m 6 6 m E ~ ] V W E ] _ _ m b 8 8 7 8 t f k k ",
"q 0 1 6 b u.%X=X2X<X=XoXI.#.V b h C ` 9.a.p.v.a.] B n C A C A h g g b Z ` ..) h q ; , n 8.w.p.8...~ E Y ) ) ) W b t 8 8 8 r d d ",
"Z W W N.%X3X=X1X-X1XJ.Y.0.) Z A ) ) E ,.n.P.g.S.V.f.E b 0 0 6 0 0 0 6 0 6 6 ; ; 1 g E 0.p.j.>.0.>.w. .#.3.a...) m y 7 7 7 r 8 t ",
"@XoX*X*X,X2X<X*X3X=X/.i. .Z / ! 0.3.4.0.B.v.n.K.R.).Y.S.S.1.W B b y 6 6 8 y b ~ p.l.s.j.k.7.} } w.8.5.0.a.r.8.` B y 8 8 t t t y ",
" X2X1X2X%X3X2X3X<XoXI.3.E Z Z ) X.j.j.v.j.k.v.I.R._.!.).E. X X+X].].U./.U.E.Y.!.S.~.S.V.w.w.` ] ~ 8.8.e.8.8.3.+.m f r t t f f k ",
"<X2X3X2X1X3X7X3X=X Xv...~ Z Z Z ) } } } ,.r.Y.T.U./._._.|. X@X|.+X|. X X@X!.Y.S.L.n.c.f.s.p.0.,.} } 3.0.5.3...~ S f t y k b N S ",
"5X3X1X<X3X7XqX8XoX/.a.8.} Q n n h n g g y g Z e.^._.E. XOX+X|.*X*X*X|..X X.XU.Y.l.K.a.j.j.d.3.w.#.X.) ,.,.X.W W B b t b n B b B ",
"5X3X<X%X<X5XqX1XoXI.k.f.j.X.C g h n Q C g 6 , t ] n.U./. X+X=X=X,X,X#X@X=X X/.U.I.c.e.j.c.p.e.w.w.] _ | <. .W Y V m f b U U B V ",
"+X%XU.U. X5X7X<X).B.S.U.n.8.A n n } r.e.} C 1 ; , b _ j.Y. X X<X@X-X@X=X|.+X~./.g.l.l.c.a.d.8.f.,.` / ' ^ ~ W T B m f k B U U U ",
"f.#.Z ] +X5X9X<XoXY.Y./.f.) Z C ) r.j.w.X.A 0 ; - , 8 m 9.V.!.). X[. X_.~.]./.K.B.j.l.z.z.a.0.e.3.} / W K K T T V m f b U U ^ I ",
"n 8 , 1.<X9X9X5X<X X).k.W n y h Z ) C h g y 1 6 q q 6 0 m  .2.v.Y.~.S.U.Y.L.g.B.f.B.e.d.j.n.o.<.3.+.V K T K J ^ T K b k V Y C C ",
", - f ).5XtXtXtX8XoXi.m t 1 , - - - @ @ ; , 6 g g g g g y g Z ` e.f.g.f.c.f.b.e.v.f.w.w.s.w.,.+.1.( K V W K K ~ ( ~ m V R I Z B ",
"@ 6 ;.1X8XtXtXeX=XE.B 6 - + o + + + + @ - , , 6 q q y g g q 0 b V ] ,.r.w.r.3.w.e.a.q.8.@.5.}  .~ T J T K K T ( T [ ~ ' ~ Y C Z ",
"; T J.3XqX7X7X%X!.W 8 - + + @ + + + + = @ @ - ; , , 0 q 8 6 1 1 8 m E ` ` ) ] ` X.o.>.' | ' _ ~ T J J V ^ K K K ^ [  ._ W U C C ",
"8 t.).<X-X=XD.t.V t ; @ + + o + + @ $ @ @ - = - = - ; , , , ; ; - 3 y ~ _ ) W ' ) [ E ~ ) / V Y K J m S T ( K J K 1.{ { _ Y n C ",
"b i.D.M.N.u.i. .f , - - ; - = @ = = - - ; ; - = @ = - - ; - = + = @ = 9 T #.} ) W E Y Y W W U N J N N N T ^ W J V W ( T Y B n n ",
"m ' S B E ~ B m 8 - ; y N y ; - - - - - ; 3 3 ; - - - ; ; ; - = + = $ = 3 N ~ ] Y W U W Y W I Y N N b N V W W K N N J K V n n C ",
"V N 8 t b f 8 1 - - 6 m T b 8 1 , ; ; - ; < , , ; - ; ; , , 3 > > = @ + = > y E E Y U I W W _ ~ T m N N K T T k N J J J B V C n ",
"G d 7 8 f y 1 6 1 b <.u.#.) m y 6 , ; , 1 0 6 1 , 1 , 1 8 0 6 8 6 , = @ = : - t B E U ~ _ | W ) ~ J k N J ~ G x k G N J V U B C ",
"G s 7 8 b b t f B  .e.v.n.,.E h g q 0 0 g h g g g y 0 6 y y 0 6 0 6 , : : = - ; y V ~ /  . .'  .' J N S K K G x G x K J S V V V ",
"d r 7 8 t b k Y ~ ~ W 4.] } ) Z n n h h h h h n g g q g q q q 0 0 8 1 , : = - , 1 m ~ ..| @.+.,.] T N G G J k x x P L J k m b S ",
"k 9 > : : ; 8 y g f g j j g g 0 6 6 1 , , 1 1 1 , ; ; , ; ; ; - ; , ; ; - ; , 1 t y W ..<.} ' } ) N S V G S x f x L K J m N N m ",
"k f < = = - ; ; , , , 1 1 , - - - - - - = = @ = + @ $ @ @ = + = = - @ - , f g B b y E } ..+.E _ _ K N J G x d z J J x N S S k m ",
"N f d t f m g g j a t 8 8 t r 0 t a a q a t 0 8 0 0 0 0 y q q q q 0 6 q W #.' <.E b E | #.' ` ~ W J N b x f d d x x z N K J N N ",
"U k B V B A ~  .] $.$.$.O.$.O.O.S S S b j M m S g b g g g g g g g g h } n.f.4.r.U n W 2.>.#.~ W S J N x d f s z x d f N S K T U ",
"t.T V W ~ W W ) ] W O.~ ~ D F S b a a q r r a t 0 t y g y q q q g n +.V.I.u.i.,.V B ..} <. .~ S N x k d d d z d d d J N ^ K ( ^ ",
"=.t.V ~ ' _ n b y d r r t t 7 7 7 3 < < < 7 < 3 7 9 8 q y f t y b ' i.V.V.h.0.] C B _ ....] B m N N f s s z d s d J N ^ { { K J ",
"P =.T ~ / ' V b t 7 7 7 r r 9 9 8 7 < < < < < 3 7 9 8 9 f f f k E w.h.h.b.h.0.E m V _ ] ` E m N J N d 9 d x s s x G L L %.K N x ",
"J %.( K _ @.W m t 8 7 8 t y y y s 9 3 < < < 3 7 7 y p k f b B Y ] j.S.L.s.N.t.] B ~ ` _ U B V J S x r 9 r G x z x L L P L P ^ ^ ",
"J %.%.^ K ~  .V y 8 9 7 s U V V V z d r 9 r r f N S E E ` ~ ' #.i.u.C.N.h.i.<._ U / _ U V U B K J k 9 9 d z x L N N J J L L +.^ ",
"v %.L L J K W T b y 8 r N 0.@.<._ K T ( W ( W 1.i.M.0.i.i.0.9.0.9.M.y.i.p.0.~ ~ ) | _ T T ' V K K z r r r 9 9 L J N k J ^ *.&.*.",
"l L P L G z J E ) B f m ` d.9.1.1.,.@.i.i.y.t.;.H.D.N.u.u.1.t.<.y.y.t.t.i.| _ ( @.| ~ ^ { ' ^ K J f d d d e r d K N N N ( =.t.y.",
"w G L L x e 5 f T ] _ 3.3.6.i.h.i.u.N.L.N.E.D./.|._.J.Y.h.9.=.y.*.t.+.1._ | { +.{ [ +.+.{ ( ^ K N f d i i w 9 r f K J J ^ %.=.%.",
"w l H P z 5 & 4 s J t.V.B.2.s.s.v.N.!.~.|.|.@X@X*XOX[.D.h.i.0.y.0.<._ ~ W E ' { @.1.i.i.i.*.{ ^ J d z x d u u 9 3 9 x J P G d e ",
"5 w v v d 4 # & > r x u.[.P.0.s.g.Z.u.P.!._.N.!.^._.h.h.u.z.0.q.6.1.E / / | _ @.6.y.t.u.C.N.{ ^ G s 5 G z l u 5 = < 7 d r 3 4 4 ",
"% * 4 5 i 4 # # & & 3 z oX|.h.i.i.N.Z.Z./.Q.A.b.N.f.0.2.0.,.>.} @./ ~ W | ] &.1.+.t.u.C.^.Y.t.K G d 5 e e 7 3 3 & $ : : > < 4 4 ",
"O O # > 4 4 % O # % * 3 P <X|.1.y.|.#X@X_._.^./.U.Q.S.v.p.j.3.>.W W U ~ / @.<.6.@.2.b.E.E.XXy.L z i d 4 > > : 4 % % > < 3 9 5 i ",
"O O O % > 2 * O O O & : T @X3X&X7X8X8X8X8XqXqX3X2X2X,X>XOX(.{.!.U.9.^ T ~ W ' +.1.c.L.!.|.+X;.J G e w 4 2 * & & O # < 7 r d f z ",
". . . # % * & # . O $ < +.|.>XqXrXtXwXqXqXrXwXtXtXtX7XqXwX9X*X*X*X<X}.m.P K S [ h.Y.D.|.*XJ.P G x w : * & & O O O # & < 9 r r d ",
". . . O # & % # . X # d y.@X3X4XqXwXwX4X6X6X6X6X0X0X6X6X6X6X;X;X:X;X;X;X;X:.P -.F.G.J.J.$X:.v c z w * & & # O O # # % * 5 5 w u "
};
