/* XPM */
static char *out[] = {
/* columns rows colors chars-per-pixel */
"64 64 217 2 ",
"   c #2B1608",
".  c #4A2415",
"X  c #5C2C1A",
"o  c #68321E",
"O  c #583F2A",
"+  c #763A24",
"@  c #7E3D26",
"#  c #63432F",
"$  c #6E402D",
"%  c #6A4D37",
"&  c #77523D",
"*  c #7F5D46",
"=  c #814A35",
"-  c #8E4B34",
";  c #96523A",
":  c #865540",
">  c #8C5D46",
",  c #9D5943",
"<  c #955F49",
"1  c #A45E45",
"2  c #89664F",
"3  c #9B644E",
"4  c #916A53",
"5  c #9A6F56",
"6  c #AB644A",
"7  c #A16851",
"8  c #AD6D51",
"9  c #A86D58",
"0  c #B36A51",
"q  c #B76F53",
"w  c #A1765D",
"e  c #A7755C",
"r  c #AE755B",
"t  c #B4715D",
"y  c #B97658",
"u  c #A87B63",
"i  c #AE7D64",
"p  c #B77764",
"a  c #BD7564",
"s  c #B27861",
"d  c #B47F64",
"f  c #BB7E63",
"g  c #C1785B",
"h  c #C87E61",
"j  c #C07B6B",
"k  c #AC836B",
"l  c #BE8466",
"z  c #B3876E",
"x  c #BA876A",
"c  c #BF8B6C",
"v  c #B78C72",
"b  c #BC8E72",
"n  c #C38264",
"m  c #CC8566",
"M  c #C78568",
"N  c #C4816F",
"B  c #C48A6C",
"V  c #CC8C6D",
"C  c #CC8C6E",
"Z  c #D18969",
"A  c #D48C6E",
"S  c #D88F6F",
"D  c #C98270",
"F  c #C88973",
"G  c #CC8A78",
"H  c #D38E7E",
"J  c #C39072",
"K  c #C69677",
"L  c #C89172",
"P  c #CC9475",
"I  c #CA997A",
"U  c #CF9C7E",
"Y  c #D19071",
"T  c #D09072",
"R  c #D29172",
"E  c #D09273",
"W  c #D39273",
"Q  c #D49374",
"!  c #D59475",
"~  c #DA9472",
"^  c #DD9876",
"/  c #D79778",
"(  c #D1967C",
")  c #D89778",
"_  c #D59A7B",
"`  c #D99878",
"'  c #D9997A",
"]  c #DB9A7A",
"[  c #DA9A7B",
"{  c #DC9B7B",
"}  c #DB9C7D",
"|  c #DA9D7E",
" . c #DE9D7D",
".. c #DC9D7E",
"X. c #DD9D7E",
"o. c #E09E7D",
"O. c #E29F7D",
"+. c #E2A07F",
"@. c #D89380",
"#. c #D89982",
"$. c #DD9E80",
"%. c #DE9F80",
"&. c #DF9F80",
"*. c #CFA186",
"=. c #D4A082",
"-. c #DFA081",
";. c #DCA386",
":. c #D8A485",
">. c #D7A88D",
",. c #DCA88A",
"<. c #DFAB8E",
"1. c #DBAB91",
"2. c #DFAF94",
"3. c #E0A081",
"4. c #E2A181",
"5. c #E3A181",
"6. c #E0A182",
"7. c #E1A283",
"8. c #E4A281",
"9. c #E4A382",
"0. c #E5A382",
"q. c #E4A383",
"w. c #E5A383",
"e. c #E6A483",
"r. c #E5A484",
"t. c #E6A584",
"y. c #E6A585",
"u. c #E7A685",
"i. c #E7A686",
"p. c #E8A787",
"a. c #E9A887",
"s. c #E0A58A",
"d. c #E3AC8D",
"f. c #E7AD8F",
"g. c #E8A888",
"h. c #E9A989",
"j. c #EAAA8A",
"k. c #EBAA8A",
"l. c #EBAB8B",
"z. c #EBAC8C",
"x. c #EBAE8F",
"c. c #ECAC8C",
"v. c #ECAD8D",
"b. c #EDAD8D",
"n. c #ECAE8F",
"m. c #EDAE8F",
"M. c #EEAF8F",
"N. c #E4B195",
"B. c #E9B193",
"V. c #EEB090",
"C. c #EEB091",
"Z. c #EDB192",
"A. c #EEB192",
"S. c #EFB192",
"D. c #EFB293",
"F. c #ECB496",
"G. c #E6B599",
"H. c #EAB79A",
"J. c #EEB899",
"K. c #EEBC9E",
"L. c #F0B293",
"P. c #F0B394",
"I. c #F0B495",
"U. c #F1B495",
"Y. c #F0B496",
"T. c #F1B596",
"R. c #F1B597",
"E. c #F2B697",
"W. c #F2B799",
"Q. c #F3B799",
"!. c #F2B89A",
"~. c #F3B99A",
"^. c #F3B99B",
"/. c #F4B99B",
"(. c #F4BA9B",
"). c #F4BA9C",
"_. c #F4BB9D",
"`. c #F5BB9D",
"'. c #F5BC9D",
"]. c #F5BD9E",
"[. c #F5BD9F",
"{. c #F5BE9F",
"}. c #F1BFA1",
"|. c #F5BEA0",
" X c #F6BEA0",
".X c #F6BFA1",
"XX c #F6C0A1",
"oX c #F6C0A2",
"OX c #F7C2A3",
"+X c #F7C3A5",
"@X c #F2C4A5",
"#X c #F7C4A5",
"$X c #F7C5A6",
"%X c #F7C6A7",
"&X c #F7C7A8",
"*X c #F7C8A9",
"=X c #F0CBAD",
"-X c #F4CDAE",
";X c #F8C8A9",
":X c #F8C9AA",
">X c #F8CAAB",
",X c #F8CBAC",
"<X c #F8CCAD",
"1X c #F8CDAE",
"2X c #F9CEAF",
"3X c #F3D1B3",
"4X c #F7D1B2",
"5X c #F0D4B6",
"6X c #FAD3B4",
"7X c #FAD7B8",
"8X c #F1D8B9",
"9X c #F7D8BA",
"0X c #F5DBBB",
"qX c #FADDBE",
"wX c #F6DDC0",
"eX c #F9E1C3",
"rX c #FBE5C7",
/* pixels */
"2.C.t.e.` B k k u u b U U >.>.N.2.N.2.N.2.2.2.N.2.G.2.H.G.H.G.N.2.2.2.2.1.d.g.f.i.d.s.s.s.g.d.f.s.s.7.g.e.r.[ ] / ` / ] ) ) Q W ",
":.j.b.c.u.! x k u u b I *.:.,.2.2.2.2.N.2.2.2.2.2.2.N.N.G.G.N.2.2.2.2.2.2.d.z.z.d.s.s.s.s.s.i.s.d.7.w.e.g.w.o.` ] ]  .X. .] Q T ",
"J o.O.t.0./ d u u k z U =.*.=.1.2.2.<.N.N.N.1.2.2.N.2.N.G.H.2.2.2.2.>.1.2.d.s.g.d.d.:.;.s.i.s.i.k.h.6.y.g.a.] ] { { !  .o.] Y S ",
"c A ~ ^ ] Y d u u k z I :.U :.1.2.2.N.N.G.2.2.1.2.2.2.N.H.G.2.2.2.2.2.1.2.d.g.g.d.s.7.s.f.d.n.v.n.z.9.i.p.i.4.{  .] {  .o.) R A ",
"b S A S S S f i u k z I U =.:.1.1.2.2.N.2.2.2.2.2.N.2.N.N.G.2.N.2.2.2.G.B.2.d.B.d.D.V.V.z.n.g.v.g.l.7.i.3.r.4.{ [ ] ' 3.] ! A A ",
"J ^ A A S A M f d d z I *.*.:.1.2.2.N.N.2.2.N.1.2.N.G.2.G.G.G.G.2.2.G.G.!.E.I.Y.F.A.V.l.z.g.7.y.i.y.w.&.&.&.4.] { [ } X.] Y Z Z ",
"J  .A A ~ ^ M n f c J I :.>.>.2.G.G.2.H.H.H.2.2.2.G.2.J.J._.J.}./..XR.!.E.Q.n.n.A.P.c.M.v.i.%.u.a.w. .&.&.k.5.$.-.%.' 3. .Q M M ",
"J o.A A S ~ W M c B K :.B.2.2.B.J.J.J._.+X_._.!.{.!.{.^.%XOX{.!.!.^.P.U.T.S.n.V.A.L.x.n.V.h.t.y.t.7. . .g.a.7.$.-.%.$.%.%.! Z n ",
"l 3.Z ! ` ] _ C B P | l.n.!.!. X/..X'.OX|.+XoX XQ.U.F.Q.{.OX{.!.F.L.V.E.A.L.n.U.v.E.A.L.x.V.g.i.3.5.3.r.w.g.w.7.} %...6.&.) Z h ",
"x { A S +.o.' ( P _ | q.v.v.L.R.`._.{.{.{..X.X'.Q.n.n.A.'./.'.Q.v.i.f.x./.T.A.L.T.E.Q.F.L.A.n.7.%.%.%.4.%.' [ ' ' ' %.%.%.! Z g ",
"x o.S ^ ^  .P L x d r i x x x =.B.^.F.Q.W. XW.^.^.n.7.V.^.'.S.T.g.t.%.i.A.OX/..X'.{.B.F.A.n.| E B l f l f f f B C E C / [ ' m g ",
"J ;. .] A n 9 , > : & $ $ $ $ & w J =.s.F.D.U.U.Q.g.7.g.A.Q.F.g.w.3.5.7.A.^.^.^.oX^.B.s.=.c 9 < : = & = : < 3 8 y s t f E Y M f ",
"J s.g.t.W n 6 9 9 i u < % o o $ $ - 7 l P q.z.A.h.h.7.i.h.n.v.q...{ %.w.h.U.T.Q.d.U d 7 : $ X X . . . X $ & & - - , , 3 7 p p f ",
"c U d.o.X.R V C 6.d.F.f.=.d 7 < < - , 8 n C %.h.v.h.7.y.g.q.q.%.' _ / ] g.l.g.[ f 3 & o X . . . X X $ & : = = : > > ; - < < < 7 ",
"K U y.3.w.&.! %.7.g.y.n.n.2.=.( L B t y f n C %.p.l.&.q.i.h.3.%.! C V R ) %.V y , = $ o X o X $ : 9 f l x s 9 9 9 7 - , , < : - ",
"=.=.d.%.h.7. .&.&.6.%.$.d.7.' E C f y y n V C _ k.i.%.3.k.a.r. .B n n n V B y , = + + $ = - < r B ' | | | _ E P C C f r 9 3 > : ",
"=.,.s.%.y.w.[ } n f E i.n./.x.i.' C t 8 t V ) } 0.i.3.w.5.a.w.&.f y t f p y 6 , - = = = - 9 y n B R E ! P P P _ W ! C B f r 3 < ",
":.,.7.%.n.7.W f 8 U B.F.A.B.q.' E l f 6 1 t C / w.y.w.r.y.w.w.[ n y t t t 6 , - - - : - ; 1 t y t 0 8 9 6 6 1 9 p n M M n f y 8 ",
":.>.%.W %.l.C 8 n s.=.J r 3 = $ $ & = < 1 8 t C ) g.w.g.i.v.X./ V n t 0 9 1 - - : = $ + < f B ' _ W n n p 8 - @ @ , t B C V n n ",
"=.=.[ n R %.! y B d : X . . .         X = - 9 n W w.v.U.U.n.y./ C n t 6 , ; = @ @ X o : 7 3 > = : > < 3 7 7 3 > $ $ < B _ V n n ",
"=.:.h.! n n t y 9 $ . . X O O .     . o o o = t C 4.Q.oX}.E.n.r.R n 6 , , - @ + X X = = X   .         . . . . . . . X 8 B f f V ",
";.,.h.h.4.V q , 1 7 < 3 7 7 > & % % & < : + @ - ) w._.2X;X.XR.n._ q , , ; @ @ + X o + + = # .       . . . . . X . . X ; 9 8 Y &.",
",.s.E [ g.n.i.~ ! i.%.r.q.%.R E P C n j f n n W v.Q.oX6X6X:X^.l.V 0 , 1 ; ; 1 1 1 t f B J B w > : > < 7 7 7 3 < ; - < t 6 n f y ",
"d.q...4.T.E.Q.v.5.o.&.{ %.) A m A C A M Y S Z ~ T.^.$X9X9X*X_.q.Z 1 , 6 y y Y %.w.{ [ ..w.%.[ Y C V Y V m y y f Z Z h 6 8 [ ' M ",
"s.q.%.r.g.`.Q.{.!.h.) ! Z h m Z m h h h g g n v.+XoX<X6X6X1X_.i.n 6 1 y A } ] w.&.] V V Y ) S A h h y g h A A A m 0 - ; n ) ] 7.",
"z.d.7.4.U.Q.`.'.OX{.y.A h y y y y 0 1 , 6 C J.*X$X<X2X2X6X$XT.%.m y y n A 3.l.k.c.c.4.V q 1 1 6 6 6 6 0 q 6 , ; - - 8 ! ] R T  .",
"V.V./ +.E./.T.'.$X;X[.[.n.%.n q 8 t f _ J.2X*X>X:X6X;X>X1XoXw.! m Z Z ! ~ a.0.k.v.L.A.T.n.q.n t 9 , ; ; , 1 1 y C w.y.w.%.&.M ! ",
"x.z.3.g.!./.'.{.*X1X&XOXOX{.`.T.!._.+X*X>X<X>X<X6X6X1X*X:XQ.{ m Z S ] &.k.i.a.w.v.V.T.T.'.{..X|._.L.g.g.A.T.P.n.n.v.8.y.w.&.) V ",
"g.g.%.l.S./.'.OX&X6X2X<X+X'.Q.{.+X>X<X%XOX$X1X6X6X9X1X1XoXv.~ A m A S 5.w.y.w.n.i.S.L.^.Q. X'.OXoXOX|./.^.!.S.n.i.u.0.i.3.4. .) ",
"y.7.3.n.U.!.{.{.<X6X6X1X$X^.Q.{.+X1X%X#X*X$X6X6XqX9X6X$X^.h.] A A Z m h h h h Z { v.U.Q.'./..XoX&X%X+XOX XW.P.n.k.i.y.t.t.+.%. .",
"p.y.} k.E.`.Q.{.<X6X1X2X,XOX_.+X2X2XOX%X*X2X<X6XeXeX:XoXT.V.&.{ ^ Z y y g g 1 , 6 M %.T._.[.`.+X%X<X{.oX.X'.A.m.V.l.w.y.a.i. .] ",
"y.3.X.w.n.Q./..X;X1X>X1X<X;X$X*X>X&XOX{.$X&X:X6XeXeX:X/.W.S.v.v.i.! g g A ] A y , ; 8 C g.A.Q./.$X{.`.^._.U.S.v.V.q.y.8.a.0.&...",
"4.4.{ w.c.U.Q.[.'.XX$X>X+X:X{.{._._.L.n.F.oX:X6X9X6X+X'.R.Q.^.Q.y.~ h m  .t.&.) 0 - = , y ) g.L.n.^.Q.T.A.V.l.n.g.g.t.a.y.w.&.3.",
"8.%.%.i.c.n.A.E.W./.^.!./.P.T.v.w.@.h V L.OX:X9X9X<X$X X'..XoXn.) m h A w.5.~ m 0 , , , , 8 V %.g.l.n.v.c.l.y.y.q.t.i.t.3.$.%.' ",
"6.7.] u.v.V.V.Q.W.Q.k.n.k.g.] Z g 6 1 ..oX:X:XqXeX9X$X>X+X$XL.W y q 6 q q q 1 1 1 q 0 y y 0 6 n ! &.&.w.y.g.%.7.%.y.%.&.| 6.! _ ",
"o.} X.+.a.b.c.v.T.n.0.%. .A y , - , ' _.2X4X6XeXrXrX9X<X:X!.! 0 , = @ + @ + @ ; , 6 0 0 y q 8 6 t n C ] %.{ ] ) { ] { ) ] _ P Y ",
") ] ] 4.O.t.t.c.g.0.] S h q ; @ 1 | _.4X6X6X6XeXeXeX9X6X_./ 8 ; $ + @ + + + @ - - ; ; 1 1 0 6 , , 1 t V T Q Y Y T E ) ) W E C E ",
"/ ! ) { {  .o.4.w.] Z g 0 ; = 6 %.!.*X4X6X6X6X9X9X:X$XJ.7.y ; @ @ + + + + + @ @ - - @ @ ; ; - = = = - 9 n R Y Y T V R T W C B P ",
"R E Y ! ] { ! { +.) g 6 ; - ; C l.+X}.:X1X1X$X$XoXT.| C y , @ + @ + + + + @ @ = - = + + @ - = = $ $ + + , V C / Q S V Y W ( f B ",
"C F V Q { ] ! ~ { m q , ; ; y W B.^.B.f.!.B.l.n.T.g.V 1 ; - - = - = @ = = = - - , = @ = = = = = & $ $ $ + - s W ! R C C ! ( B B ",
"n B B ] ] X.] ] m h 1 , ; 0 V ! %.[ n n R } / ! W E y , - , f f 7 ; - ; - - - - - ; - - - - - : = : & + $ + : s V C T / I | B V ",
"l B V ] 7.%. .] m y 6 ; , y B B P t 9 9 n B n t 9 1 = + - 8 V V f 6 , ; ; - ; ; ; ; - ; ; , , , 3 , > + @ + = - y V R / ;.;.I c ",
"l B l ( i.h.4.] n y 6 , , f f n l 8 7 8 f n y 8 6 , = , ! q.! Y M g 6 , , , ; 1 6 8 1 1 1 1 1 6 , , - = $ @ @ = , V Y ;.,.;.B L ",
"x c l I g.n.v.7.M t y 6 1 l l l f 7 7 8 n M n y t t t V i.n.0.] S m y 0 6 6 0 y h h g q 6 6 6 1 , , - = = = - ; ; M [ | s.( F B ",
"d B J U ;.x.n.V.Q y f l 8 B f 9 3 9 9 8 0 f n n M A R ! ! %.{  .A Z h g q q 0 q q y q 6 , , ; = + + $ + @ < 9 t , C } 6.U E B L ",
"l B U I :.n.A.z.r.n p B f p l 7 : = = @ - , 0 g m h h h m m Z h g q 0 1 , ; ; ; ; ; - @ @ @ @ + + @ = - 8 n R C y Y [ ' ( J c F ",
"K U P U =.n.x.Z.V.' r n P B f s 8 3 : - , 6 1 6 0 q 0 q q y 6 0 6 6 1 1 , 1 ; ; ; ; - ; ; , ; 1 6 0 6 y W 4.] V n %./ ! L B l B ",
"K U ( _ %.g.n.Z.T.r.n p ( / C C M B n f h Z m Z A C D j D N j N D D D D G D j a f j a y g g y 0 q g h  .a. .) n Y &.! C c n B B ",
"K =.=.:.| ;.g.D.n.v._ f l ..A A Z Y A A g A ) _ R H H H H #.#.} H @.D D N j t f a a y a y y 0 q y V &.L.y.{ C n ! } Y l d c C T ",
"U :.=.| =.=.;.s.g.d.g.B t ( ] ~ Y A S A m f n n f f B C E V B B B j s 9 r 8 9 r r 7 8 t t t t t V %.A.g.7.) n f ] E l d x l R ( ",
"U ,.=.;.;.:.U P ( g.$.T 6 B O. .{ ) Z A h f 8 9 9 8 9 r s s r s 9 9 3 3 3 3 < 7 9 9 7 0 t f t B %.U.q.7.7.! t C ) F r d l L ( P ",
"=.,.=.:.:.=.J 7 l s._ B y y / 0. .) ! m h f t 8 t 0 r f n l p r r 7 7 < 3 3 < 3 9 9 8 8 p f V %.n.l.i.7.%.M n W W l r s B I L l ",
"I ,.;.,.=.K u > 2 i x C C f T u. . ./ Z g f y t y f l B C B n f 9 9 3 3 < < 3 9 9 p y p f C %.x.g.v.f.k.! n A ! n s s c L U P ( ",
"I :.:.:.=.c w > * 2 7 J | _ / 9.5. .{ A g n f n / 7.} / [ ! P n s r 9 7 7 7 r f c P C V C ' f.z.B.d.z.[ B M T V l l c B P I _ ( ",
"b =.U =.U c 5 * * > 2 w P B.i.i.t.i.^ S m M M [ S.V.7.%.4.r.%.$._ U L K P E P _ } $.W ! ' f.s.d.f.A.$.C C Y n d f L n J L =.| ;.",
"z I U U I z 2 % * * * 2 c F.!.P.7.t.q.{ ) { &.L.J.A.q.%.y.7.r.q.d.s.d.1.B.f.s.:._ _ _ } i.g.7.s.f.d.| E / P s 9 s L B c L _ s.d.",
"w J I U L d * % & & & 3 u f.|.{.i.3.j.g.] %.l.W.!.Q.T.V.i.v.z.F.N.F.K.OXG.d.s.s.! _ / } %.r.7.d.f.d.| _ P B w 9 9 l L P L _ :.,.",
"w z K U J e & % & & * > u U *X$XF.7.g.v.g.g.F.T.'.{.[.'..X_.|.}.}.K..XJ.g.6.y.7.' Q / / 7.s.l.x.n.;.| ( L d u e 7 7 d B ( U d u ",
"5 5 b b x e % # % & & : 3 U %X>X_.v.4.g.g.V.C.P.!.(.P.T.I.~.J.J.f.F.d.f.g.g.&.../ / E | q.x.n.R.Z.,.I x c z u e : = 3 r s 5 4 4 ",
"% & 2 4 k 5 % O % # % : 3 J :X<XoXl.4.g.].'.!.R.^.R.n.z.V.l.g.7.q.q.%.X.o.{ [ / [ %.$.$.z.F.Q./.F.U J 9 u u 7 7 > % = : > < < 4 ",
"O O # * 4 4 & O O % % : < C %X4X2.,.J.$X%X<X&XOX_.[.Q.~.I.S.h.c.6.4.! W R / ' &.4.f.| } A._.'._.;.J x i 4 2 : 4 & # & 3 3 9 3 i ",
"O O O % * 2 * O O O % = 8 n.*X4X-X7X6X6X6X6X9X9X6X1X2X2X%X).{.'.^.F.| E E ! / $.7.g.v.P.'.oX!.=.J i w u 2 > & * # # > 7 r d f x ",
". . . # % * & # . O $ < $.|.:X9XwXeX0X9X9XwX0XeXeXeX9X9X0X7X%X#X%X,X}.N.=.P F } x.R.F.|.%XK.U J c w : * & & O O O # & < 9 r r d ",
". . . O # & % # . X # d d.OX2X3X9X0X0X3X5X5X5X5X8X8X5X5X5X5X=X=X-X=X=X=X=X2.U ,.G.H.K.K.@X2.b v k w * & & # O O # # % * 5 5 w u "
};
