/* XPM */
static char *out[] = {
/* columns rows colors chars-per-pixel */
"64 64 157 2 ",
"   c #2B1608",
".  c #4A2415",
"X  c #5C2C1A",
"o  c #68321E",
"O  c #583F2A",
"+  c #763A24",
"@  c #7E3D26",
"#  c #63432F",
"$  c #6E402D",
"%  c #6A4D37",
"&  c #77523D",
"*  c #7F5D46",
"=  c #814A35",
"-  c #8E4B34",
";  c #96523A",
":  c #865540",
">  c #8C5D46",
",  c #9D5943",
"<  c #955F49",
"1  c #A45E45",
"2  c #89664F",
"3  c #9B644E",
"4  c #916A53",
"5  c #9A6F56",
"6  c #AB644A",
"7  c #A16851",
"8  c #AD6D51",
"9  c #A86D58",
"0  c #B36A51",
"q  c #B76F53",
"w  c #A1765D",
"e  c #A7755C",
"r  c #AE755B",
"t  c #B4715D",
"y  c #B97658",
"u  c #A87B63",
"i  c #AE7D64",
"p  c #B77764",
"a  c #B27861",
"s  c #B47F64",
"d  c #BB7E63",
"f  c #C1785B",
"g  c #C87E61",
"h  c #BE8466",
"j  c #B3876E",
"k  c #BA876A",
"l  c #BF8B6C",
"z  c #BC8E72",
"x  c #C38264",
"c  c #CC8566",
"v  c #C78568",
"b  c #C48A6C",
"n  c #CC8C6D",
"m  c #CC8C6E",
"M  c #D18969",
"N  c #D48C6E",
"B  c #D88F6F",
"V  c #C39072",
"C  c #C69677",
"Z  c #C89172",
"A  c #CC9475",
"S  c #CA997A",
"D  c #CF9C7E",
"F  c #D19071",
"G  c #D09072",
"H  c #D09273",
"J  c #D39273",
"K  c #D59475",
"L  c #DA9472",
"P  c #DD9876",
"I  c #D1967C",
"U  c #D89778",
"Y  c #D59A7B",
"T  c #D9997A",
"R  c #DB9A7A",
"E  c #DC9B7B",
"W  c #DB9C7D",
"Q  c #DA9D7E",
"!  c #DE9D7D",
"~  c #DC9D7E",
"^  c #DD9D7E",
"/  c #E09E7D",
"(  c #E29F7D",
")  c #E2A07F",
"_  c #DD9E80",
"`  c #DE9F80",
"'  c #D4A082",
"]  c #DFA081",
"[  c #DCA386",
"{  c #D8A485",
"}  c #DCA88A",
"|  c #DFAF94",
" . c #E3A181",
".. c #E1A283",
"X. c #E4A382",
"o. c #E4A383",
"O. c #E6A483",
"+. c #E6A585",
"@. c #E7A686",
"#. c #E8A786",
"$. c #E9A887",
"%. c #E0A58A",
"&. c #E3AC8D",
"*. c #E7AD8F",
"=. c #E8A888",
"-. c #EAA989",
";. c #EAAA8A",
":. c #EBAA8A",
">. c #EBAB8B",
",. c #EBAC8C",
"<. c #EBAE8F",
"1. c #EDAD8D",
"2. c #EEAF8F",
"3. c #EEAF90",
"4. c #E9B193",
"5. c #EFB090",
"6. c #EDB192",
"7. c #EFB293",
"8. c #EEB899",
"9. c #EEBC9E",
"0. c #F0B293",
"q. c #F1B495",
"w. c #F0B496",
"e. c #F2B596",
"r. c #F2B698",
"t. c #F3B799",
"y. c #F2B89A",
"u. c #F3B89A",
"i. c #F4B99B",
"p. c #F4BA9C",
"a. c #F4BB9D",
"s. c #F5BB9D",
"d. c #F5BC9E",
"f. c #F5BD9F",
"g. c #F1BFA1",
"h. c #F6BEA0",
"j. c #F6BFA1",
"k. c #F6C1A2",
"l. c #F7C2A3",
"z. c #F7C3A5",
"x. c #F7C5A6",
"c. c #F7C6A7",
"v. c #F0CBAD",
"b. c #F8C8A9",
"n. c #F8C9AA",
"m. c #F8CBAC",
"M. c #F8CCAD",
"N. c #F9CEAF",
"B. c #F7D1B2",
"V. c #F0D4B6",
"C. c #FAD3B4",
"Z. c #F1D8B9",
"A. c #F7D8BA",
"S. c #F5DBBB",
"D. c #F6DDC0",
"F. c #F9E1C3",
"G. c #FBE5C7",
/* pixels */
"| 7.#.-.E Z s i s S } 4.4.9.9.g.g.j.f.l.f.l.g.z.k.x.x.x.g.z.l.l.g.z.9.f.p.p.r.t.6.0.5.0.5.7.7.7.=.=.=.;.....E ! U R K E U U J K ",
"{ #.1.1.#.U c v T >.w.8.s.k.x.c.b.x.b.c.b.x.x.l.x.x.b.n.m.b.x.z.k.k.h.d.h.d.s.i.i.q.q.7.q.7.7.3.1.:.=.#.-.O.! E E E ! P ! P U J ",
"b K P ( U v 9 e a a r h [ a.h.c.x.b.j.c.m.m.h.d.j.c.x.N.n.b.h.j.k.l.r.t.p.d.w.p.r.r.<.2.2.e.>.:.=.;.` #.-.O.U P ! ! K ! ! E N N ",
"z c c x 1 = @ $ o X X o : V *.w.k.h.j.c.m.b.d.t.h.l.x.c.m.k.p.r.j.k.u.7.i.r.t.r.t.r.6.=.,.3.1.+.#.o.O.:.#.! U P ! P E ! ) K F N ",
"l v y 6 , e s l 5 = X X o = 7 b [ t.a.x.l.z.u.q.7.l.x.m.x.h.r.t.r.h.p.r.q.d.t.d.t.i.7.3.>.1.:.#. .#.-.2.) ^ T ! E ~ ( X.U J N N ",
"V B g N &.u.h.p.g.| z 7 3 > , 1 h T <.p.k.h.r.<.6.a.x.l.f.w.7.3.u.h.z.h.d.j.l.l.d.t.i.0.5.:.=.+.-.1.1.>.O.! ` _ ] ` ..` P F n M ",
"V 2.o.6.u.h.u.h.c.b.9.<.} I p d x K K 2.i.s.3.=.7.j.f.a.r.7.=.2.e.j.k.c.b.b.l.l.d.d.w.3.1.>...$.2.0.-.1.#.@.W ] ..@.] ..R G v c ",
"C q.2.2.e.0.5.7.y.r.7.6.e.*...T K J K ] e.e.0.,.w.r.t.6.0.*.@.=.7.d.l.l.b.c.k.f.p.w.%.Q W Y Y ..o.)  .X.#.o.` _ o....._ R N c g ",
"z 3.$.2.1.! m Q ..*.4.7.*.@.W E U ~ T o.2.e.q.0.<.w.<.7.=.+.X.-.;.q.p.d.w.*.D V s s 7 7 7 9 7 s d d h m n U U ..` ..] ..U N x x ",
"C 2.o.#.! y [ k.c.x.k.p.u.q.~ v v J ( X.1.q.e.<.2.5.0.0. .U P E ..$.2.@.H r < + o X X . X . X + = > < r d x n G K ~ ~ ` U M g f ",
"S t.o./ x K g.c.x.k.7.7.<.7.! n y x N X.2.i.2.2.2.0.2.0.! M v n F U J x 8 ; + o X X . . . . . X $ + + : < 7 1 8 r m m K K M f f ",
"D y.5.K x <.9.} Z r 7 < 7 y h x f q x K +.5.0.2.2.2.1.1.^ d d h n v d 8 , - + $ @ $ $ + : : 4 9 e > = = > > > > > , 8 d Z x f y ",
"S 7.q.~ v *.k = . . . O   . o - 1 0 q n P ;.q.e.3.5.2.2.T v y d d d t 1 ; ; - - - 1 t h Z T %.=.` H d s e 3 - : = > ; > 1 t y f ",
"S <.,.K v 7 .       # &       . + = 1 d B  .e.d.t.6.e.:.E n x d y 8 1 , ; ; , , 7 8 x A K H U ^ ..Q Q Y A x d 7 , > > : : : 7 0 ",
"I ! Y m , $ . X + $ % O       . o X o , N X.2.x.b.j.t.6...G d y t 1 ; - ; - + = 7 b H Q Q F d p p d p n U ] H x y r , > : = = 1 ",
"Q m y , ; m n h H Z e 4 & $ # * : $ $ o d $.t.N.C.b.j.i.0.m t 1 6 , - = = X + 7 b z b A Q Y K G v y , : 1 h m A F b r 7 3 : - ; ",
"{ Q W X... .1.q.5.0...[ D D Z b d d d x ! e.d.A.A.N.x.d.#.v 1 1 , - @ @ X X : > + X X # . o & 7 9 r 9 7 @ @ 7 m n b d p 8 1 1 6 ",
"*.w.e.3.>.) O.:.#.o.o...U J K N K J R L 2.i.b.C.D.C.z.7.T q 1 1 1 - , ; @ @ @ @ > o . .         . . X o $ X o a Z n n h x v m y ",
"| 5.2.e.h.s.#.! K J c N K ! N B N v q m u.c.b.A.A.C.9.6.J q , 6 f q x P ! ! H K H Z i 5 % $ X X .           . + h F y y x v y x ",
"[ 1.q.e.k.l.h.@.N d y f x f 0 1 , 8 T h.b.n.N.C.C.c.u.=.N q 6 0 M U B P #. .U P o.@.=._ F d d h s 7 > > = X . + 1 , , q x x x y ",
"..1.q.d.h.n.m.x.t.6.K x q t y x ..k.m.m.c.N.N.N.n.k.<.~ x f f v v L O.:.#.-.( K n K P P B n c c x v x d y y y d , 6 J X.O.O.E K ",
"=.7.i.d.x.m.N.b.l.h.j.d.h.h.x.x.b.n.m.m.m.C.C.N.n.e...n c c B K L P O.$.-.1.0.<.K y 1 6 0 0 6 6 y g N B N g 0 - , n F n K / O.n ",
"<.i.e.k.m.C.B.C.N.z.u.d.l.m.b.m.b.m.b.N.C.S.N.m.l.0.U c c N K X.-.:.X.-.:.2.2.e.t.e.^ Z r 1 - ; ; ; = = @ @ = 0 F X...U d y 8 1 ",
"3.t.h.x.N.C.A.A.C.c.u.i.b.M.N.n.c.b.M.B.A.S.C.z.h.:.K c M N N P ( O.$.#.1.2.0.q.h.s.p.d.x.d.<.Q A h d d n T +.-.O.K R ^ ! p 8 v ",
",.d.l.m.N.S.D.S.M.x.d.z.c.C.B.m.l.m.N.A.S.F.N.h.q.>.! U N M g g f f f c R 3.5.t.t.t.u.h.j.c.x.z.a.s.i.i.q.e.3.2.o.! n U ` ..K F ",
"q.h.x.m.C.D.G.F.C.m.m.n.N.C.C.N.b.n.N.C.D.G.N.s.0.5.$.#. .M f y g g 8 , 1 v $.q.d.p.p.h.b.b.n.c.x.h.d.s.e.3.>.$.-.) K n E O.=.m ",
"r.k.h.m.C.D.S.D.A.C.c.b.M.N.k.h.p.x.b.C.D.F.b.d.w.e.3.e.$.L y f L ( B g , ; q / i.j.t.k.m.N.z.b.c.b.i.s.e.0. .@.:.#.! F K +.X.A ",
"t.h.k.c.C.N.N.m.b.j.i.u.i.@.N M >.l.m.A.D.A.b.h.d.h.a.2.! M g M #.3.O.P v ; - 1 K 5.u.h.n.m.x.b.n.c.h.p.i.7.$.O.:.#.X.! F / ) H ",
"5.u.j.c.l.l.d.d.3.1./ P g 6 , K p.b.B.S.S.C.b.b.x.z.w.K d f v P  .#.P B f 1 ; ; , v @.i.j.x.l.z.h.j.d.d.w.e.>.1.#.-.O.O.P U E U ",
"2.e.j.h.j.t.q.$.( N f , @ ; Q l.m.N.A.F.F.F.A.N.n.7.F 8 1 , 1 1 1 1 6 1 1 6 q q 6 1 x ( 0.r.s.i.s.i.r.e.0.5.2.:.:.:.#.o.( U E U ",
"2.e.3.p.d.w.! L c 0 = @ 1 %.h.B.C.C.S.G.G.G.S.N.w.n 1 - + o X + + + @ ; 1 0 0 y f f 0 x E :.:.e.e.e.1.1.>.0.-.1.1.>.X.#.) ! K T ",
">.3.5.5.0. .m f 6 = @ t 6.l.m.C.S.A.D.D.D.C.b.w.J 1 = + + @ + + + @ @ @ - , 1 0 y y y q x J ( #.1.2.+.#.-.$.>.:.>.:.O. .X.! K J ",
"O.1.:.>.O.J d 6 = + 6 ..a.N.N.A.A.C.M.C.c.u.&.F 6 ; @ + + + o o o + + @ = ; - ; 1 q q 8 8 q n ! ) O./ O.) O.$.-.X.O.` ..` _ J K ",
"@.O.O.) P g 8 ; @ ; G @.l.m.b.x.g.w.y.h.r...d , - @ + @ @ @ @ + + + @ @ - = @ + - ; , ; , , 1 v K U U U ~ ` .. .~ T T W _ T K J ",
" .X.P P N d , @ - x K ;.q.` n Q ..( E @.:.@.p 1 , q y 6 , ; = - = - = - , = + + = - - - - = = ; h T J K K T J U U U A H U E m G ",
"( ! E N n 8 ; = 1 F A [ Z t 8 d K G x y y 1 @ @ 8 J U x t 1 ; ; - = - ; 7 ; - - - - - = = + + + : h ! ! T J m G K H Z b H K G m ",
"U P P L y 1 ; ; t A b H r 8 6 y x d 8 1 , @ - y H ! P E v y 1 , ; - - ; ; , ; ; - ; ; ; - = + + + - d ` T K G J N G Z x Z H H K ",
"U R U N y 6 , ; y Z b b e 8 8 y x n y t 8 1 G q.h.e.$.( P c y 6 1 , 1 6 0 6 , , 1 , 1 , 1 , < = + + = d K K F F K K H h A K T J ",
"K / K K y y 1 ; p A h s e r r h n B x v K / W ,.w.i.:.#.( L c v f f g B N M g g q 0 6 q 8 8 , ; = + + - d J m K U ^ H h A W F m ",
"G E U P d 8 p 1 d H 9 7 r 9 1 8 d v N ! X.! R P  .X.O.! ! P B N L N n N T ! L c f y q f 0 6 6 1 ; + @ @ , v G K / ] Q h A H G n ",
"v T ! X.v 8 x x a Y 9 ; = @ + = , 0 y g f v c N c v f y 0 0 6 1 1 6 0 y y f y 0 0 q 0 0 0 8 8 6 , : @ ; - d J ! ` ..[ b b K K n ",
"v U X.-...p x W s b s 9 , - ; 8 0 0 6 6 0 q 0 0 1 1 1 , 1 , , ; - - ; - - = @ @ = = = - - = - - - - ; 7 1 t K ^ ..%.[ b Z K F n ",
"b W o.6.0.T t Y H Z v b b m x M N B n K P _ F T T _ F T _ _ H H H G v f y 8 , , , , ; ; - = + + @ 7 d n d y K ] ....I b Z Y m n ",
"k T ;.7.i.<.d x ..W U K U K N g P X.O.#.1...o.;.<.6.....<.] T K K v v h m m x f g f f y f 0 1 , q U E ) n x ! ^ ..Y A z C H H n ",
"s I &.u.e.u.Q s T ..U U K U P M L O.W Y ] ` _ %.W %.} { H x d h d 7 t d q q q y q q q q 0 q q v ( :.X.X.h K !  .~ K Z b Z H b v ",
"k b %.7.s.a.6.b h  .T K U U P N g y y 8 y d y r 9 9 r r r 3 3 < < > 3 3 3 < 9 8 8 0 0 6 6 y N >.t.o./ F h U X.^ T Z z b S Z b v ",
"S I H <.p.h.w...p K ] / / / B N x y 8 1 1 7 7 9 9 9 7 9 9 7 < < < > : > > 3 < 7 8 t 6 6 q N +.q.2.o.J h v $...U n x s l S C h x ",
"S D H ` w.y.y.7.F p )  .X.! B M x y t 8 t y y p h d p r r 7 3 < > > : > 2 3 3 7 8 8 8 y G ;.q.<.&.] J y K ..T b h s s h b Z b v ",
"S { Q ` #.7.q.t.] r H :.#.( L N y y y y y x v m v v d d r r 7 7 > > > 3 7 a a a e p d F @.e.0.<.[ ..v y K T m p a a s l h A A F ",
"D { { Q Q &.<.3.=.d h $.-.! E N y y d x ` O.! P P K n x d y e 7 7 7 9 d v H K m G m H ..w.7.6.*.*.( d x R H d 9 a s a k A Z K T ",
"' } ' { ' [ [  .#.T y  .1.+.P L f d d R r.s.5.2.:.+.K F Z b d h h b Z T o.>.@.O.~ ` T 6.0.q.&.*.<.F y F U m 9 e a s a C H I H H ",
"' { { { { ' b h <.~ F X.e.$.) P N c U =.i.q.;.;.3.$.-.@.<.[ Q [ <.4.7.7.i.<.<.,.$.O.=.,.6.<.*.*.*.x v m F d r a a s b Z D Q Z h ",
"S } { } ' C e 3 k A ~ +.q.2.! ) P R 1.i.e.7.7.=...;.3.7.<.w.w.y.4.7.w.r.3.=.o...~ +.;.<.=.*.*.*.Q v m K d r k k s V C S D S A Y ",
"C { { } { z 5 * 2 u W 2.i.t./ 1.1.#.3.q.d.r.t.q.q.w.r.e.w.w.8.8.f.w.w.w.6.[ ` _ =.=.;.=.=.*.@.*.Q K U G 9 a Z S Z V C S I D Q H ",
"z { ' { D l w * * 3 a <.j.k.O.1.0.-.1.q.d.h.r.h.j.d.r.s.h.l.9.n.N.n.y.7.<...T ..+.#.] ..=.,.&.*.` T U h r r 9 h Q b l Z H [ ` [ ",
"j S D D D k 2 % * * 5 D b.c.0. .0.5.:.7.j.h.j.l.b.c.l.x.m.n.m.n.N.z.[ %.7.&.] ~ ( / ] ..;.<.<.&.%.T H s h 7 < 9 A b l b D ' %.*.",
"w V S ' C j * % & & 3 V f.b.p.1.:.e.$.q.u.i.h.j.f.x.l.z.b.n.g.f.4.*.` *.;.;...~ U E ) @.=.7.q.7.[ Q b h j i w r d I H C C ' [ } ",
"u k S S V w & % % & 2 u *.N.l.0.=.,.:.2.e.r.t.p.i.e.<.*.w.7.<.*.6.:.:.#.@.] E U T W ..@.7.i.a.<.[ S k C j i u e 9 p b S S S j s ",
"5 w z z j w # # % * & 3 S C.c.w.:.=.( <.p.h.e.u.e.0.@.<.<.*.^ ..@.O.T W ~ ( R ^ ..%.W *.r.h.r.<.[ S 5 j z j i u = 3 9 s k w 4 4 ",
"% * 2 3 i 5 # O # # & < d b.B.9.*.[ w.z.c.z.a.p.d.w.3.5.5.;...` _ U J F ! ! W ] <...K <.i.a.h.&.S l u 5 i w 5 w * + > > > < < 2 ",
"O O # * 3 3 % O # # & > t f.N.8.{ 9.x.N.m.N.n.b.j.k.a.h.q.7.7.0.@.] F m F T W +.-...=.7.i.k.9.[ V i j 5 2 * * 4 % # : < < w 3 a ",
"O O O % * 2 * O O O % : h f.N.B.A.A.C.B.C.S.F.D.B.B.C.N.n.k.h.p.i.7.Q A H K T W +.;.7.r.k.k.<.Z V w u 3 2 * & & O # 3 7 a s s k ",
". . . # % * & # . O $ > ^ j.n.A.D.F.A.A.A.D.S.F.F.F.A.A.S.A.x.x.b.M.g.4.' A n ~ <.r.7.g.z.f.D Z l w * * & & O O O # + < 9 r r s ",
"O . . O # & % # . X # s *.z.B.C.A.S.A.V.V.Z.V.Z.Z.Z.V.Z.Z.Z.v.v.v.v.v.v.v.| D } 4.9.9.g.z.| V j j u * * & # O O # # $ * 5 3 w u "
};
