/* XPM */
static char *out[] = {
/* columns rows colors chars-per-pixel */
"64 64 228 2 ",
"   c #2B1608",
".  c #4A2415",
"X  c #5C2C1A",
"o  c #68321E",
"O  c #583F2A",
"+  c #763A24",
"@  c #7E3D26",
"#  c #63432F",
"$  c #6E402D",
"%  c #6A4D37",
"&  c #77523D",
"*  c #7F5D46",
"=  c #814A35",
"-  c #8E4B34",
";  c #96523A",
":  c #865540",
">  c #8C5D46",
",  c #9D5943",
"<  c #955F49",
"1  c #A45E45",
"2  c #89664F",
"3  c #9B644E",
"4  c #916A53",
"5  c #9A6F56",
"6  c #AB644A",
"7  c #A16851",
"8  c #AD6D51",
"9  c #A86D58",
"0  c #B36A51",
"q  c #B76F53",
"w  c #A1765D",
"e  c #A7755C",
"r  c #AE755B",
"t  c #B4715D",
"y  c #B97658",
"u  c #A87B63",
"i  c #AE7D64",
"p  c #B77764",
"a  c #BD7564",
"s  c #B27861",
"d  c #B47F64",
"f  c #BB7E63",
"g  c #C1785B",
"h  c #C87E61",
"j  c #C07B6B",
"k  c #AC836B",
"l  c #BE8466",
"z  c #B3876E",
"x  c #BA876A",
"c  c #BF8B6C",
"v  c #B78C72",
"b  c #BC8E72",
"n  c #C38264",
"m  c #CC8566",
"M  c #C78568",
"N  c #C4816F",
"B  c #C48A6C",
"V  c #CC8C6D",
"C  c #CC8C6E",
"Z  c #D18969",
"A  c #D48C6E",
"S  c #D88F6F",
"D  c #C98270",
"F  c #C88973",
"G  c #CC8A78",
"H  c #D08B78",
"J  c #C39072",
"K  c #C69677",
"L  c #C89172",
"P  c #CC9475",
"I  c #CA997A",
"U  c #CF9C7E",
"Y  c #D19071",
"T  c #D09072",
"R  c #D29172",
"E  c #D09273",
"W  c #D39273",
"Q  c #D49374",
"!  c #D59475",
"~  c #DA9472",
"^  c #DD9876",
"/  c #D79778",
"(  c #D1967C",
")  c #D89778",
"_  c #D59A7B",
"`  c #D99878",
"'  c #D9997A",
"]  c #DB9A7A",
"[  c #DA9A7B",
"{  c #DC9B7B",
"}  c #DB9C7D",
"|  c #DA9D7E",
" . c #DE9D7D",
".. c #DC9D7E",
"X. c #DD9D7E",
"o. c #E09E7D",
"O. c #E29F7D",
"+. c #E2A07F",
"@. c #D89380",
"#. c #DD9E80",
"$. c #DE9F80",
"%. c #DF9F80",
"&. c #DD9986",
"*. c #CFA186",
"=. c #D4A082",
"-. c #DFA081",
";. c #DCA386",
":. c #D8A485",
">. c #D7A88D",
",. c #DCA88A",
"<. c #DFAB8E",
"1. c #DFAF94",
"2. c #E2A181",
"3. c #E0A182",
"4. c #E1A283",
"5. c #E3A282",
"6. c #E4A281",
"7. c #E4A382",
"8. c #E4A383",
"9. c #E5A383",
"0. c #E5A483",
"q. c #E6A483",
"w. c #E5A484",
"e. c #E6A584",
"r. c #E6A585",
"t. c #E7A685",
"y. c #E7A686",
"u. c #E8A786",
"i. c #E8A787",
"p. c #E9A887",
"a. c #E0A58A",
"s. c #E3AC8D",
"d. c #E7AD8F",
"f. c #E8A888",
"g. c #E9A888",
"h. c #E9A989",
"j. c #EAA989",
"k. c #EAAA8A",
"l. c #EBAA8A",
"z. c #EBAB8B",
"x. c #EBAC8C",
"c. c #EBAE8F",
"v. c #ECAC8C",
"b. c #ECAD8D",
"n. c #EDAD8D",
"m. c #EDAE8E",
"M. c #ECAE8F",
"N. c #EDAE8F",
"B. c #EEAF8F",
"V. c #EDAF90",
"C. c #EEAF90",
"Z. c #E4B195",
"A. c #E9B193",
"S. c #EDB091",
"D. c #EFB090",
"F. c #EEB091",
"G. c #EDB192",
"H. c #EEB192",
"J. c #EFB192",
"K. c #EFB293",
"L. c #ECB496",
"P. c #E6B599",
"I. c #EAB79A",
"U. c #EEB899",
"Y. c #EEBC9E",
"T. c #F0B293",
"R. c #F0B394",
"E. c #F0B495",
"W. c #F1B495",
"Q. c #F0B496",
"!. c #F1B596",
"~. c #F1B597",
"^. c #F2B596",
"/. c #F2B697",
"(. c #F2B698",
"). c #F2B798",
"_. c #F2B799",
"`. c #F3B899",
"'. c #F2B89A",
"]. c #F3B99A",
"[. c #F3B99B",
"{. c #F4B99B",
"}. c #F4BA9B",
"|. c #F4BA9C",
" X c #F4BB9D",
".X c #F5BB9D",
"XX c #F5BC9E",
"oX c #F5BD9E",
"OX c #F5BD9F",
"+X c #F1BFA1",
"@X c #F5BEA0",
"#X c #F6BEA0",
"$X c #F6BFA0",
"%X c #F6BFA1",
"&X c #F6C0A2",
"*X c #F6C1A2",
"=X c #F6C1A3",
"-X c #F6C2A3",
";X c #F7C2A3",
":X c #F6C3A4",
">X c #F7C3A5",
",X c #F2C4A5",
"<X c #F7C4A6",
"1X c #F7C5A6",
"2X c #F7C6A7",
"3X c #F7C7A8",
"4X c #F7C8A9",
"5X c #F0CBAD",
"6X c #F4CDAE",
"7X c #F8C8A9",
"8X c #F8CAAB",
"9X c #F8CBAC",
"0X c #F8CCAD",
"qX c #F8CDAE",
"wX c #F9CEAF",
"eX c #F3D1B3",
"rX c #F7D1B2",
"tX c #F0D4B6",
"yX c #F6D4B6",
"uX c #FAD3B4",
"iX c #FAD7B8",
"pX c #F1D8B9",
"aX c #F7D8BA",
"sX c #F5DBBB",
"dX c #FADDBE",
"fX c #F6DDC0",
"gX c #F9E1C3",
"hX c #FBE5C7",
/* pixels */
"1.H.e.r.! B k k e z K U U <.1.1.1.L.L.Y.Y.<X-X:X&X;X&X=X@X=X+X1X=X>X+X>X[.#X.X XE.E.S.T.J.W.J.M.d.d.f.N.f.j.-.5... .' { ) ' Q Q ",
"<.k.n.p.O.L d k u x I U =.,.1._.S.L.).`.[.1X1X1X:X>X=X%X>X-X1X%X1X4X1X%X&X&X#X}.).W.E.K.^.R.K.N.x.d.y.j.j.j.g.t.o.2.+.'  .{ ' ) ",
"K O. .e. .P k k u x L T n f 9 e r s s ( W.#XOX&X;X2XoX>X>X>X.X&X2X8X@X$X&X=X{.{.{..XH.c.!./.h.F.C.F.3.t.i.p.t.7.2.8. .'  . .! ) ",
"c ^ ~ ^ ! B d k x c f 7 : + + o o o # = s I :.A.-X>X%X#X>X[._._.7X1X&X%X@X X{._..X`.V.S.^.W.b.N.H.b.r.q.k.6.o.o.w.t.+.)  .) / ) ",
"x  .S ^ Z B d x c e = & = > : % O # # % : 3 s P w.`.XX%X#X%XQ././.=X>X1XE.W.W. X/..X/.W.).Q.H./.x.F.f.j.8.5.+.r.O.j.6.| ` [ ) ' ",
"J { ^ A S h f l f 7 9 J ,.A.Y.1.K k e e 9 9 t B ' 8._..X#X`.F.C.[.%X>X[.G.c.F.H.XXoXOX$X&X.X_.W.H.C.F.r.e.0.u.r.p.g.t. .| ' [ ' ",
"x o.S S Z m y l n | s.'. X>XU.-X1X=XA.s.| T B T / ..y././..Xk.C.[.%X_.L.d.d.f.N.`.<XOX-X*X>X[.`./.T.y.O.4.f.2.t.y.y.6.8.-.2.' ..",
"J  .S A Z m n C t._.^.Q..X{./. X=X/.G.L.c.8./ ) [ [ q.T..XW.V.G._.U.H.d.x.j.j.f.`.XX[..X>XY.A.s.<._ L l L F P W ! W ! ' ..[ [ [ ",
"z ' A A Z V ] g.v.F.C.W.N.S.S.L.A.A.N.f.f.4.%.8...+.t.N.W.`.E.W.M.V.b.x.%.-.6.y.g.F.W.d.| c 9 9 < : = = = : < 9 9 9 f M M R / [ ",
"z / A Z S Z r.z.z.j.x.6./ #.d.U.U.G.s.w.#./ ! / -.2.t.V./.F.W.T.T.V.F.q.Q W ! ' -.8...n 9 ; $ o X . . . . . X $ : > 3 9 s p l V ",
"b ' Z Z S ^ 2.p.t.j. .M ! `.Y..X'.[.f.d.s.! f n T O.+.x.W.T.z.F.J.W.b.6.M M n F T T f 1 > = o o X X . . . o o $ & = & : > 3 ; 7 ",
"K / Z Z ~ ~ f.t.j.q.m n L.'._.L.d.c.w.w.w.) n y g Y ' 6.F.^.b.k.C.n.b.6.V f l n M f 6 ; - @ + + @ = : < 9 s f s 9 < > ; < > - > ",
"c _ Y A Z ^ x.J.k. .n -.L.c.K s 3 7 9 e f M h g y l C  .q.F.J.G.x.x.x.2.C n f f t 8 1 - - : - ; 7 r l ( _ %.#.} ! L l f 9 1 - > ",
"c I _ T C ' y.G.T. .M -.=.3 # . . O . . o = 1 8 t y M ! 6.F.{.K.J.F.x. .R M f t 8 , ; - ; ; ; ; 7 y M M M M F V ( E ! T C B y 1 ",
"L =.P P P ' ) d.F. .M T : .   . . % .     . X @ > 1 t Y O./..X#X.X{.b.y.) M 0 8 1 ; - - = + o ; p R ! _ P M s t 8 7 7 l T ! M l ",
"=.=.U I _ [ ! ' 8./ t - $ X o # # # .   . . O o + + - V 2.W.7XwX9X=X/.N.' y 1 , , - @ + o o < r r e 9 r s p f f f 9 ; = ; f B B ",
"U =.=.=.U s.' C y 6 ; 1 C M l l 7 2 # O # & < > + @ - n j.`.qXiXwX9X[.F.T 8 ; 1 - @ + o X = = $ . . O .   . o = = * : > + @ p C ",
"=.=.:.:.:.H.O.! ^ ] ' O.j.C.F.z.8./ J x l M x f f m ] q.`.%XwXuXiX9X[.8.M 1 , 1 ; - ; = + @ = : $ . .                 . X X : c ",
"=.=.U =.:.H.8.b.W.T.y.2.+.v.k.g.t.q./ W Q ! Z W A W m 2..X7XwXuXiX9XH.8.h 6 , 6 0 t C [ [ [ W ( ( K e * = & # # X . . . . . o 3 ",
"=.=.=.=.:.H.R.^.{.{.^.C.W.t. .^ ) S A S ) S Z m h y Z W.1X7XwXwXqX>XH.O.m 0 6 y ! ! ) +.t.] ] ..w. .#.W C M M M r 9 3 ; - = - 1 ",
"=.=.=.U _ s.-.k.C.%X`.#X#XW.^ m g g h h g y 6 6 g y.=X7X=XqXqX7X9X#Xx.' h g g m Z  .j.z.t.q.! Y M Y S S m h y g n A V Y M V y , ",
",.:.-.:.[ [ O.j.T./.%X3X4X>X[.F.q.Y g y y a V f.>X9X0X7XwXwX4X9X1X`.8.Y m m ! S ! ^ t.j.j.F.C.8.Y y 6 6 6 1 0 6 0 0 0 6 , - @ 1 ",
"<.s.:.,.-.5.' N.`..X.X9XwX9X&X.XXXoXF.`.[.%X@X4X0XwX2X7X9XuX9XwX>X/. .Z m Z A  .p.z.t.p.k.(.T.^.Q.`.4.#.C f 1 1 , , - - , y V [ ",
"s.a.| :.p.c.g.W.`.%X%X7XuXwX9X-X$X#X.X.X9X8X1X%X7XwXrX7XwXuXqX1X%XN. .Y A Z A S o.r.q.t.D.c./.]. X#XXXXX;X#X_.H.W.b.N.l.v.l.t.6.",
"a.4.:.:.w.F.x././.>X7XwXuXaX9XwX%X%X[.%X9X8X>X7X=XrXyXiXyXaXqX>XW.N.2. .S Z h g y y g m ^ j.F.XX_.XXXX$X&X$X%X.XQ./.W.T.b.j.r.k.",
"s.a.s.a.8.k.C..X8X8X7X9XdXaXaXqX1X%X#XwXwX9X7X7X9X1XqXuXgXgXwX%XW.l.l.u.t.~ g y y g 6 1 6 h q.W..X/./.1X1X=X>X%X.X`./.W.N.q.q.o.",
"M.b.a.r.f.C.T.#X%X7X=XwXdXgXaXwX8X0X2XwXwXuX7X>X4X7X1XiXaXgX7X#XT.W.x./.T.q.m g Z o.S h 1 , 0 ! F..XW..X2X7X=X1X%X%XT./.F.p.2.8.",
"M.f.a.w.b..XW.`.8X1XqX9XaXdXaXiXwX8X>X7X9X9X#X_..X1XqXiXaXiX7X#X X X_./.g.! h h ^ r.2. .m , - 1 M 6.W.`.1X<XXX=X&X{.[.W.v.g.t.2.",
"r.8.4.a.t./.N.`..X8X4XrX8XwXwXwX1X1X%X#XF.q.!  ./.1XqXdXiXiX9X1XXXXX[.F.V g y m ~ 6.^ S g 1 ; , , g [ C.}.oX{.{.W./././.b.p.q.u.",
"0.%.4.#.8.b.b.T.#X1X>X=X>X>X%X`.[.x.+.) h 6 y y.=X7XwXiXdXdXaXqX7X=Xc.C 0 , , , , , , , 1 6 y q 0 6 y ! 8.T.T.B.D.C.d.j.j.u.u.t.",
"w.w. .%.6.F.t.N.`.*X[..X>X.Xk.j.O.! y 1 ; t s.7XwX9XwXhXgXgXgXuX9XW.n 6 - + o + + + + - 1 0 0 y y y 6 y Y O.y.v.C.l.8.r.p.l.+.6.",
"r.+.X.[ t.N.g.j.{.{.[..X.Xb.6.) m 0 - - l c.1XrXiXwXiXdXgXgXuX1X XW 1 = + + + + + + @ = - ; , 1 0 q y 8 y g T  .5.O. .o.q.t.q.t.",
"%.-.| 2.6.W.v.J.F.T./.F.t. .Z h 1 - - M A.1XqXaXiXiXuXiXqX7X_.A.R t - @ + + $ + o + + @ @ - = - ; 6 6 6 1 1 y W ! / ! | ' 2.2.+.",
"-. .O.%.4.v.l.p.j.y.b.t.] Z g 6 ; - f w.=XqXwXiXiX9X7X=X%Xc./ f 1 - @ + @ + + + + + @ = = = @ + @ - - - - - ; 8 V R T T ! / ' ! ",
"3.+./ #.t.p.%.9.6.u. .' Z h 6 ; ; 0 T c.1XqX X=X%X`.z.F.`.T./ y , , , , , ; = - - - - - ; - + + + - = - @ = + = 7 T ! ! T ! L P ",
"} ' ' / -.q.^ ) o. .' Y n 0 , ; 1 V ' y.Y.w.F ! 4.#..._ [ ! y , , 0 M R a 1 ; - - - - ; , , - - - - - - = $ + + + 1 M / ] E M C ",
"_ / ! _ ' %.^ ~ S ^ ] Z y 1 ; , f ! [ g.W l t l R ! M a 8 1 = @ ; l Q ' V f 8 1 ; ; - ; ; ; ; ; ; ; ; ; ; : = & + @ 1 C T R T P ",
"! ( _ ) ' [  .~ ! S A h 0 , , 1 V C E / l t 8 y n n n 8 8 1 ; 8 a.c.t.+.) Z n 0 1 , 1 6 1 1 1 , 1 , 1 1 1 7 < = $ @ = 1 M R ! T ",
"T P F T ' ..) ~ ) Z h n 8 1 , 6 B c B L p t 8 y l C M y y y t ! F.`.b.g.O.^ m g q y 0 h h h y y q 0 1 0 6 8 7 > = @ @ - t T T / ",
"V M B L #.O. .~ ' h g M f 1 1 8 C B l d r y t n M Z m h Z ^ ' ' %.q.t.6.+.) Z A A m h n m m h n y 0 0 0 6 6 7 ; : = @ = 1 T ! | ",
"l l l C ..p.t.q.) h 0 n M t 6 t P B y 9 e t 8 t q g h S ! ] W ~ V S A Z h h g a 0 0 6 0 8 0 1 , ; , , ; - ; ; ; - - : , , Y [ -.",
"x l l L -.k.v.k.2.M 0 l / M y t W B 9 ; - - = - ; 6 q y g g n g n y q 0 6 1 1 , ; - , ; ; - = @ @ + + + o + o + = 3 t t 7 R 3.-.",
"x c d L -.W.c.H.C./ t t _ [ M f M B t 8 1 ; - 1 q 0 0 q y g q a a a a n M H N D n N a q t 6 , , , , ; 1 1 , ; ; t T ! M a [ [ O.",
"x l l L 4.F.R.H.W.8.n 8 V -.! M C V M M V M m n h m Z ! } #.@.@.' [ | ' %.) H H G M j a N n a y a y q 8 0 0 6 g 2.+. .M M [ [ / ",
"s c c L | c.^.W.W.T.! y y [ 2.%.! ) / ' ! ' ) Y n ! ^ &.@.&.@.&./ &.@...( G n g a t 8 t 0 q t q 8 q 0 0 6 y m q.t.6.' M ! | [ ( ",
"l c K J _ b._.Q._._.s.x 9 B $.%.-.' Q ! ^ ^  .! M h V M f l n l a a s s p e 7 3 3 3 3 7 3 3 9 8 0 0 8 6 y Z q.F.q.' V n t.-.( L ",
"I =.I K ! d.T././._.F._ p f T  .+.` ! ^ {  .) R m g 8 8 1 8 7 9 r e 9 9 9 9 3 3 < < ; > 3 3 7 7 9 t 0 t M q.F.f.+./ y C 8...l B ",
"I U U _ _ #.K.K.!./.H.s.B 8 l [ 0.o. .^  . .^ Z m g y 8 t 9 8 f f s r r r 9 3 < 3 < > > 3 7 7 7 9 t t n #.d.d.-.4.V y E O.T l l ",
"P :.=.:.=.| s.!.M.V.F.c.T t t W q.u.9.t.O.+.] A g g f y t t f n l M f p r e 7 3 < < > 3 9 e t r 9 y M -.d.c.w.r.[ f f / T M l V ",
"U :.=.=.=.U #.c.d.f.f.f.R t 8 n j.p.q.6.+.^ ' A h f n f n Y T T Y C M l p s 9 9 9 7 9 r l M M l l B ' A.A.S.A.f.R a T ! B p B ( ",
"=.,.*.:.:.=.K P ( 4.[ ;. .n y n %.j.2.t.o.O.^ S m n g V -.v.5.t.w.2.! R V M p f d l x T / $.T ! W [ w.d.A.A.s.-.n M T L d l C P ",
"=.:.:.:.=.U c 5 z 4._ _ 8.! / ] +.p.5.8.+. . .~ W Y ! w.F.F.r.r.f.f.a.a.a.| | #.a.:.8.4.w.4.[ [ [ 8.s.s.A.s.<.C M C M l l J L l ",
"I :.;.:.:.K e 4 2 x K ( %.6.y.b.O.p.6.g.o. .' +. .M.H.T.V.g.a.r.8.c.d.b.s.s.s.d.d.A.w.w.| } _ [ -.d.s.s.a.<.[ T M V l l c ( P _ ",
"K :.>.:.:.x 5 & & 2 e ( g.M.W.`.6.+.C.j.6.2. .+.x.`._.K.K.M.M.G.D.M.F.L.L.Z.I.K.L.d.<.' _ / #.8.a.4.a.a.a.-.! C M l n L P ( | ( ",
"b =.=.=.U b w * & 2 2 x s. X'..Xd.8.v.C.p.v.2.2.s./.U..X.X XS.`.'.+XL._.Y.:XY.Y.L.L.| | 3.8.| 4.3.4.;.<.s.| L L l l p L L ;.a.;.",
"z I U U U z 2 % * 2 * w :.-X@X%X`.q.t.h.f.k.f.y.C.[./. X-X&X+X+X>X-X&X=X4X1XY.-.a.a.3.| %.[ | | %.#.a.a.f.( c s l L l c L | a.s.",
"w J I =.I d * % & & * w K 1X>X1X[.b.5.x.k.t.v.H.d.C.G.|. X X'.:X+X>XL.U.L.`.d.w.4.3.| ' / [ ..8.3.w.a.a.( K x r r P L L J =.;.,.",
"w x I U c e & # & % * 5 x Y.qX1X Xb.w.2.g.N.N.H.!.D.H.J.S.m.d.d.d.f.c.h.d.r.w.4.2.] ) / ..3.w.c.s.a._ _ I c z e 7 r l K I U x s ",
"5 w b x d 5 # # % & & 2 r Y.4X9X Xz.+.y.Q.XXR.W.W./.x.S.S.F.8.4.4.r.-.8.8.2.) [ [ $.[ } #.G.G.'.d.=.l z K J u e : 3 9 d d w 4 4 ",
"% & 2 3 k 5 # # # % & > 9 A.qX9X X4.y.{.4X:X[.].#X`.F.M._.K.f.4.r.} ' W ) / ' ' 3.y.-.) G.`..X_.s.J d 5 u w 5 5 : $ > > > < 2 > ",
"O O # * 4 4 & O # # & > 7 L.8X9X:. X:X9X8XwXwX7X@X*X%XXX[.W.H.W.N.f.%.T T ! / $.+.f.4.s.R.&X XA.K x d e 2 * : 4 % # > 3 3 w 3 i ",
"O O O % * 2 & O O O & = f _.wXuXaXaXyXrXuXaXdXsXaXwXuXwXwX&X#XOXoX[.a.( E ( / [ 4.k.K.(.&X%XA.I J u w 5 > * & & O # < 7 s d f x ",
". . . # % * & # . O $ < #.@X8XaXfXgXsXaXaXfXsXgXgXgXyXaXsXiX1X1X2X9X+XZ.=.T F } c.~.H.@X1X+X_ J c w * * & & O O O # & < 9 r r s ",
". . . O # & % # . X # d s.:XeXeXaXsXsXeXtXtXtXtXpXpXtXtXtXtX5X5X6X5X5X5X5X1.U ,.P.Y.Y.+X,X1.b v z w * & & # O O # # % * 5 3 w u "
};
