/* XPM */
static char *out[] = {
/* columns rows colors chars-per-pixel */
"64 64 221 2 ",
"   c #4A2415",
".  c #5C2C1A",
"X  c #68321E",
"o  c #583F2A",
"O  c #763A24",
"+  c #7E3D26",
"@  c #63432F",
"#  c #6E402D",
"$  c #6A4D37",
"%  c #77523D",
"&  c #7F5D46",
"*  c #814A35",
"=  c #8E4B34",
"-  c #96523A",
";  c #865540",
":  c #8C5D46",
">  c #9D5943",
",  c #955F49",
"<  c #A45E45",
"1  c #89664F",
"2  c #9B644E",
"3  c #916A53",
"4  c #9A6F56",
"5  c #AB644A",
"6  c #A16851",
"7  c #AD6D51",
"8  c #A86D58",
"9  c #B36A51",
"0  c #B76F53",
"q  c #A1765D",
"w  c #A7755C",
"e  c #AE755B",
"r  c #B4715D",
"t  c #B97658",
"y  c #A87B63",
"u  c #AE7D64",
"i  c #B77764",
"p  c #BD7564",
"a  c #B27861",
"s  c #B47F64",
"d  c #BB7E63",
"f  c #C1785B",
"g  c #C87E61",
"h  c #C07B6B",
"j  c #AC836B",
"k  c #BE8466",
"l  c #B3876E",
"z  c #BA876A",
"x  c #BF8B6C",
"c  c #B78C72",
"v  c #BC8E72",
"b  c #C38264",
"n  c #CC8566",
"m  c #C78568",
"M  c #C4816F",
"N  c #C48A6C",
"B  c #CC8C6D",
"V  c #CC8C6E",
"C  c #D18969",
"Z  c #D48C6E",
"A  c #D88F6F",
"S  c #C88973",
"D  c #CC8A78",
"F  c #D08B78",
"G  c #D38E7E",
"H  c #C39072",
"J  c #C69677",
"K  c #C89172",
"L  c #CC9475",
"P  c #CA997A",
"I  c #CF9C7E",
"U  c #D19071",
"Y  c #D09072",
"T  c #D29172",
"R  c #D09273",
"E  c #D39273",
"W  c #D49374",
"Q  c #D59475",
"!  c #DA9472",
"~  c #DD9876",
"^  c #D79778",
"/  c #D1967C",
"(  c #D89778",
")  c #D59A7B",
"_  c #D99878",
"`  c #D9997A",
"'  c #DB9A7A",
"]  c #DA9A7B",
"[  c #DC9B7B",
"{  c #DB9C7D",
"}  c #DA9D7E",
"|  c #DE9D7D",
" . c #DC9D7E",
".. c #DD9D7E",
"X. c #E09E7D",
"o. c #E29F7D",
"O. c #E2A07F",
"+. c #D89380",
"@. c #D89982",
"#. c #DD9E80",
"$. c #DE9F80",
"%. c #DF9F80",
"&. c #CFA186",
"*. c #D4A082",
"=. c #DFA081",
"-. c #DCA386",
";. c #D8A485",
":. c #DCA88A",
">. c #DFAF94",
",. c #E0A081",
"<. c #E3A181",
"1. c #E0A182",
"2. c #E1A283",
"3. c #E3A282",
"4. c #E4A281",
"5. c #E4A382",
"6. c #E4A383",
"7. c #E5A383",
"8. c #E5A483",
"9. c #E6A483",
"0. c #E5A484",
"q. c #E6A585",
"w. c #E7A685",
"e. c #E7A686",
"r. c #E8A786",
"t. c #E8A787",
"y. c #E9A887",
"u. c #E0A58A",
"i. c #E3AC8D",
"p. c #E7AD8F",
"a. c #E8A888",
"s. c #E9A989",
"d. c #EAA989",
"f. c #EAAA8A",
"g. c #EBAA8A",
"h. c #EBAB8B",
"j. c #EBAC8C",
"k. c #EBAE8F",
"l. c #ECAC8C",
"z. c #ECAD8D",
"x. c #EDAD8D",
"c. c #ECAE8F",
"v. c #EDAE8F",
"b. c #EEAF8F",
"n. c #E9B193",
"m. c #EEB090",
"M. c #EFB090",
"N. c #EEB091",
"B. c #EDB192",
"V. c #EEB192",
"C. c #EFB293",
"Z. c #ECB496",
"A. c #EEB899",
"S. c #EEBC9E",
"D. c #F0B293",
"F. c #F0B394",
"G. c #F0B495",
"H. c #F1B495",
"J. c #F0B496",
"K. c #F1B596",
"L. c #F1B597",
"P. c #F2B596",
"I. c #F2B697",
"U. c #F2B698",
"Y. c #F2B798",
"T. c #F2B799",
"R. c #F3B799",
"E. c #F3B899",
"W. c #F2B89A",
"Q. c #F3B89A",
"!. c #F3B99A",
"~. c #F3B99B",
"^. c #F4B99B",
"/. c #F4BA9B",
"(. c #F4BA9C",
"). c #F4BB9C",
"_. c #F4BB9D",
"`. c #F5BB9D",
"'. c #F5BC9E",
"]. c #F5BD9E",
"[. c #F5BD9F",
"{. c #F5BE9F",
"}. c #F1BFA1",
"|. c #F5BEA0",
" X c #F6BEA0",
".X c #F6BFA1",
"XX c #F6C0A1",
"oX c #F6C0A2",
"OX c #F6C1A2",
"+X c #F6C1A3",
"@X c #F6C2A3",
"#X c #F7C2A3",
"$X c #F6C3A4",
"%X c #F7C3A5",
"&X c #F2C4A5",
"*X c #F7C4A5",
"=X c #F7C4A6",
"-X c #F7C5A6",
";X c #F7C6A7",
":X c #F7C7A8",
">X c #F7C8A9",
",X c #F0CBAD",
"<X c #F8C8A9",
"1X c #F8C9AA",
"2X c #F8CAAB",
"3X c #F8CBAC",
"4X c #F8CDAE",
"5X c #F9CEAF",
"6X c #F3D1B3",
"7X c #F7D1B2",
"8X c #F0D4B6",
"9X c #F6D4B6",
"0X c #FAD3B4",
"qX c #FAD7B8",
"wX c #F1D8B9",
"eX c #F7D8BA",
"rX c #F5DBBB",
"tX c #FADDBE",
"yX c #F6DDC0",
"uX c #F9E1C3",
"iX c #FBE5C7",
/* pixels */
">.V.r.r.( N u u 6 6 2 2 , , e ` f.Z.S..X.X;X>X>XL.'.].*X+X>X|.(.I.^.I.T.J.I.D.C.V.I.m.D.a.j.s.y.e.6.9.a.u.6.' | ^ ` Q ' ^ ^ E Q ",
":.r.x.x.y.Y r , * # o . . o # , e N ` c..XOX;XXXL.L.~.OX+X@X.XQ.I.~.I.!.`.E.I.C.E.C.V.f.j.s.k.e.3.6.6.r.d.X.| [ [ [ X.' [ ` ( E ",
"H ! [ 9.Y 7 : 2 e u 4 % % % * : 2 t b [ H.%X'.[.I.).B.OX;X;XA.A.G.I.Z.|.'.`.C./.U.L.k.v.v.M.3.t.a.f.4.t.h.e.( ' [ [ ^ | | ' U A ",
"x Z A C t e P i.S.S.A.i.&.P x s i b B ' 6.L.~.Q.T.C.B.S.|.'.B.k.P.C.C._.=X#X_.'.XXQ.B.k.D.a.0.q.j.y.w.t.h.e.X.] X.[ [ X.O.Q U Z ",
"z A C A n e.C.Q.!.[.@X$X.X`.Z.p.#.^ Q ] ] k.H.Q.C.U.K.'.C.L.k.f.h.M.W.[..X@X.XXXQ.I.k.a.1.} ) 6.1.0.9.k.e.t.1.[ [ 1.O.3._ W C Z ",
"H | A X.h.m.C.C.C.L.'.S.`.A.Z.B.p.6.$.X.6.d.I.D.K.K.J.L.D.c.e.2.q.f.M.Y.'.B.i.*.x z d e 8 8 e a k b B T ( ` ' #.$.2.2.%.' U B C ",
"H y.X.s.M.D.f.d.a.B.p.T.I.~.a.a.6.5._ ,.d.b.M.I.C.R.V.C.K.B._ Q ' 6.1.a.a.^ a 6 ; O # X X o . X * , 2 7 b V B Q } 5.=.1._ Y g n ",
"J w.t.y.k.b.5.m $.L.~.!.'.Q.J.i.1.Y B A 6.f.D.V.J.M.j.v.H.b.^ m Q Y Q E Y t , * # X .   .       X O * ; 2 8 r a N Y ` | _ C m g ",
"z f.9.q.e.t.Y Q C.XX[.@XS.`.L.L.2.^ b n ^ 9.v.R.F.C.z.M.M.x.Q b b b m b t 5 = + O # X # # % * , , , = ; ; , , > , 7 b Q ^ Z b b ",
"l e.j.r.e.~ V p.~.I.A.n.p.6.u.2...A B d V [ e.F.).Y.x.z.m.d.` B b d d r 7 - = * * ; , 6 d V Q } #.Q k e 8 6 , = = - 2 8 b m g f ",
"x i.f.d.h.Q E c.k.*.a w u 6 6 e d d t f m E _ k.[.;X~.Y.I.b.^ Y d d 7 5 > - = - , 5 7 N #.$.` $.$.1.Q W R V a 8 , : : : 2 e t f ",
"J i.N.M.D.E ` J 4 # .   o     . X + = > r m _ t.XX4X>X.X.XL.6.m d 7 5 > - = = = - 7 d E 6.,.Q V V b d b Y Q Q Y d 6 2 : : : , r ",
"x -.1.e.2.E t *                   . # O + > ! b..X0X5X4XXXQ.2.b < 5 < - * * O + 8 V I e.a.p.a.6.^ Y b t > 7 d V V N t 6 ; ; ; 5 ",
"z I $.Y t > = 6 2 , 2 , ; # # X # ; O O * - ,.L.*X0X0X5X@XB._ 0 < 5 < = * O . ; e a z x ` ;.I ^ Y m b i e - = r K L N a 6 : ; - ",
"L *.^ Y b m V a.M.M.e.e.} Q V D m N d m Q 9.d.'.>XqX7X3X|.k.m 9 < 9 > > 9 6 = * + + X # % ; * : 2 6 2 2 2 6 + * a V b d a 8 = = ",
"I -.1.t.P.C.w.X.h.d.6.<.9.[ Q ^ [ ^ Q A C ~ C.XX4X5X1X@X~.6.m 5 5 9 b d Y [ ` E Y a 6 ; X .       .     . . . . : N V m N d r t ",
"I :.D.P.I.I.I.P.<.[ Q Q A ~ _ Q n b t f ! `.@X3X;X3X*X[.p.] b t 9 t b ` _ 5.5.$.^ ] ] ] B a > : * O X X . .     . 7 d t r d b t ",
";.:.p.L.R.`.%X|./.e.~ n f t t 0 9 7 V n.2X>X1X3X4X>X@XC.<.C g b m n n Q w.t.t.6._ m B Z A C b d d t t 7 r 8 2 - > > - > 0 f b b ",
";.-.w.H.I.XX@X2X>X*XR.R.b.e.] 6.f.A.|.2X3X4X1X5X4X1XQ.x.` n f n Q ~ Q ~ y.x.5.d.V.y.Y t 9 t 9 0 r t f C A ! n f 5 - > b U Q V m ",
"&.*.t.D.`.@X;X>X4X>X_.).-X.X.X.X2X1X@X;X5X5X5X7X5X@XC.9.! C m n ~ o.X.w.d.y.w.t.M.D.C.J.n.` m 0 7 > = = = = * * = 5 m B Y ` <.9.",
"-.u.h.Q.`.;X>XqX0X5X@XoX'.[..X2X=X;X@X3X5X7X7X0X;X'.M.y.` Z n C m C Z _ | y.y.M.x.C.D.R.L. X`.'.H.e.] Y V Y Y [ O.[ [ 9.X.b b Y ",
":.e.D.R.@X>X5X0XqX7X-X*X[.[.;X3X4X1X;X3X0XqXtXeX;XR.M.M.d.[ A m f t f 0 t f A w.b.D.R.I.I.`. X_.'.(.^.P.!.H.b.b.M.y.' Q ' ^ t < ",
":.c.L.'.3X5X4XtXtXeX1X>X*X3X;X5X7X5X*X3X4XeXtXqX*X!.j.M.x.M.X.C f f m n 0 5 < b 9.R.T.E.Q.`._.{.oX*X`.[.'.`.d.h.b.M.X.Q ^ <.Y d ",
"i.b.I.XX3X4X7XrXtXtX0X:X5X1X3X1X5X>X>X;X5XqXeX5X|.R.Y.M.~.x.! g m n X.O.~ m < > t X.D.E.XX@X+XOX;X;XXX|.'.R.b.8.j.d.<.[ Y ` 1.O.",
"6.k.~.*X1X0X7XtXeXqX7X5X4X1X*X[.M.x.Q.1X5XeX0X5X@X|.R.'.M._ f f f Z 6.t.X._ 0 - = 7 Y h.E.*X+X>X@X*X@X$XQ.`.M.f.q.e.9.9.^ Q <.y.",
"x.B.'.`.>X2X4X5X4X1X*X[.[.M.9.Q n X.'.>X0XuXuX0X;X$X.XD.^ t 5 5 5 t f f b t 5 < < > 5 B y.I.OX@X$X.X.X[.'.I.D.M.y.r.7.e.<.E [ 9.",
"p.I.I.`.%X5X@X>X@X.Xb.e.~ C r < B `.[.4XeXiXuXuXqX3Xk.Y r > + # # O O + = > > 9 0 0 < 7 B y.k.R.T.[.C.L.~.I.h.b.g.y.6.e.9.,.Q X.",
"c.D.R.'.>X*X.X`.R.b.[ n f < > m S.;X5X4XtXuXuXeX0XXX^ 7 - O # O + + O O - > < 5 0 0 t 9 0 n X.s.D.I.b.M.z.j.x.h.l.d.e.9.9.9.Q ( ",
"e.b.F.`.[..X`.H.9.[ n 0 - > Y A.>X0X5X0XeXeX0X1XA.a.d > * O O O O O # * * = = - > 5 9 t t r d Q ,.y.t.d.9.f.t.l.r.d.9.y.X.9.^ ` ",
"x.x.C.H.Q.`.C.5._ m 9 - > V H.$X5XqXeX0X0X;XA.e.Y t > = O O O # O O O O + * = * * = < 5 7 5 < 7 V [ <.$.<.,.<.e.g.9.9.1.5...' ( ",
"e.x.h.M.I.I.<.! n 0 - - m a.S.;X4X5X$X.X[..Xp.] r < - > 5 < = = = = * * = = * * + + = = = - ; = 6 m E _ ` ..` 7.e.t...%.O.6.^ ` ",
"9.d.s.d.M.x.~ n f < = 9 } B..XL.k.i.i.a.p.p.p.$.b 7 7 B _ t 5 - > - * = - , : + * * + * = = + O * , b ( ( ` Q ^ <.[ ` } } | W E ",
"9.w.w.h.9.<.Z g 5 > < V } C.e.V d V ^ ` Y m b 7 = = 7 Y ` Y t 5 > - = = - , , - = = = - ; = + + O O ; V O...E ( R Q ^ } Q ` E E ",
"1.9.5.[ O.~ B 0 < - r ^ } e.V r r d V m t 7 7 - = b $.,.$.[ Y d 5 < - - - > > > - - - - < , : * * O O > V ` _ E A W R Y E V Q Y ",
"<.<.~ ~ ~ ! d 9 < < b Q Q } i r 9 d b N b t 0 7 N c.D.D.d.w.Q C f 9 < 5 0 f 9 9 5 5 > < 5 5 > 6 : * O + , V Y ^ Q R V Y K K V Y ",
"o...[ [ O.C t 5 5 < S V L L a 7 t d m V E b Y Q 6.t.k.b.M.w._ C n n f f C Z C m n t 5 5 f 9 7 5 < = + + ; < m Y Q R Y L N N Y Y ",
"( ~ ~ ` ! n t r < 5 N L b z t r t b m B Z Q X.O._ [ ..X.X.[ A Z n n C m g n C C g t 9 t t 9 7 r 5 > * O O = t E Q ^ ` *.N N R Q ",
"( ` ( ` _ f t d 7 7 K L d e t 7 7 5 0 t b n C m C C C n n g f 0 9 5 5 5 9 9 9 5 < < < < 5 < < < 7 > : * * = 5 Q ..$.2.$.N N ` E ",
"E ^ ( | [ m 9 N d t Y E e 6 = = = * - 5 9 0 5 9 t t 9 9 9 9 < 5 < < > < < 5 - = = = + * * + # O = - = - < 5 < Y $.6.$.u.Q N E Y ",
"m ( | 9.5.B 7 b E b V E b 8 , = = 7 t t f f f h M M M M D D M M D M M k h t 0 5 5 5 > > < - = * = * > a m b 9 Y 2.e.-.u.I N Y C ",
"d Q ..s.6.[ r t Y V N R b b b m b n C Q Q @.+.+.G +.+.,.+.@.+.+.F G M M M M h h p p p f p t 9 5 < 9 m [ [ E t ] $.6.} -.J K Q C ",
"m E ..j.m.f.Y r L } Y Q ^ Q E E A g Z ~ X.,.1.@.@.+.+.+.} +.F M M h p r h p t 0 p p 0 0 t 9 0 t f Q w.w.t.Q m ..2.=.) ` K K T B ",
"N Q #.B.D.C.O.t b #.Q [ { ..^ [ [ Q n ! ` ^ V Y V V d k N N u e 8 6 2 6 7 7 6 8 0 t 9 0 9 7 9 n O.D.6.,.5.E Y =.#.} L Q K J V C ",
"z R $.k.^.Y.C.V e V  .) ^ ! ` ^ [ _ V b b t r t t a a e s a e 8 6 6 2 , 2 2 2 6 e 7 7 7 t r b [ L.k.9.[ _ m ' <.9.$.^ K J / R B ",
"s L 1.Z.L.W.I.a.a i ^ <.Q _ _ [ ! ` C b d t 7 t t b d d a s e e 6 2 2 2 , 4 2 6 6 7 8 t 0 b ^ B.C.k.3.$.m B ' e.$.) N H x L S B ",
"z N } p.I.L.E.L.^ t m ..$...X.( ( A B b b g t t b m V N b d a e 6 2 2 , 2 6 e r a a 0 t m Q f.C.M.e.2.Q b Y 6.1.( Y x x K K x m ",
"L / L 6.C.Q.L.Q.p.b r ..e.9.X.[ [ ! d b d d t D G +.E G Y m i a e 8 , 6 7 i i b m m b V ` k.b.C.c.a.1.E d ^ { ' L N s z P J k m ",
"P *.L } k.R.D.C.R.^ r V s.y.O.~ ! Z g f m m E 5.e.X.$...[ V d a s a a d N Y E _ ` Q V E e.C.p.V.k.f.6.b B $.` K N s s k x K N m ",
"P ;.*.#.$.C.k.R.M.6.e d e.h.O.X._ Q g k m Q t.I.D.M.h.b.5.,.` V N E Q 1.2.f.t.h.6.6.` 1.p.I.C.L.f.k.^ m V %.W b e a s k k L V R ",
"I ;.;.*.} q.k.v.p.e.b 7 [ x.y.<.X.[ n b Y X.D.B.k.d.y.y.k.d.p.a.p.p.p.B.A.C.k.a.e.2.$.6.B.k.c.k.k.a.m b _ ` V a e s i z L S Q ^ ",
"*.:.*.;.*.-.-.$.2.e.E d E D.t.9.<.X.C A y.I.H.C.k.d.$.6.M.~.k.D.n.Z.i.n.Z.A.e.u.$.} ] a.B.k.:.c.k.$.b B ( [ d w e s a K L / E L ",
"*.;.;.;.;.*.x s u.-.^ W [ b.x.5.y.5.X.O.I.~.Q.C.L.B.x.c.~.I.A.Z.A.|.A.Z.A.C.-.} $.1.6.e.p.a.a.p.C.E m T ^ B e a a d N K I *.K N ",
"P :.;.:.*.J w 2 u x  .1.1.D.c.e.h.D.t.h.b.H.`.`.A.R.R.`.Q.`.S.@X.X3X*X@XJ.J.-.1.1.e.2.f.6.p.a.N.i.Y B Q m a a z s H J P I P L ) ",
"J ;.;.:.;.x 6 : 1 6 K 6.k.D.C.<.x.H.b.b.c.D.'.[.@X.XXXXX@X$X@X>X1X3X1XA.f.k.a.2.6.2.6.1.6.a.a.k.u.` ^ E b e z K K H J P / I ) / ",
"v ;.*.;.I x q % & 3 4 I A.OXR.f.6.m.M.m.k.L.m..X.X*X@X;X$X;X$X$X|.>Xi.} 6.k.6.6.1.1.[ ,.e.j.q.k.:.$.Q V a e 6 a ) x x K / -.#.-.",
"l P I I I z 1 $ & : , z n.$X.XB.w.t.M.h.M.M.C.A.OX|.'.[.@X$XOXZ.A.C.e.6.k.f.6.....] ..,.e.j.M.c.e.$.` k z w 2 8 L N x N I *.u.i.",
"q H P *.J s & $ % % 3 e *.<X*X`.t.e.h.D.x.H.B.C.B.A.M.x.f.k.p.k.p.k.y.e.0.6.} ] ' } } u.e.C.R.R.-.1.L z u u q e d / L H H *.2.u.",
"y z P P H q % $ $ % : 6 J $X;X|.M.y.w.w.x.C.I.C.Y.D.b.a.p.a.6.6.6.6.,.X.X.X...] } } 2.e.C.I.~.B.u.*.x x l u y e 8 i x L L P z u ",
"4 q z v l q @ @ $ % % , a ;X>X@XB.y.%.D.L. XL.Q.).E.a.p.v.v.6.<.X...^ ^ } O.[ $.6.y.E p.B. XW.K.;.P q u v l u y * 2 8 d z q , 3 ",
"$ % 1 3 j 4 @ o @ @ % : e S.5X$Xk.2.Q.@X3X$X_./..X~.C.D.I.k.d.w.9.' Y Y ..' { 6.k.a.Q k._._.'.k./ x y 4 y w 4 q & O : : : : , : ",
"o o @ & 3 3 $ o @ @ % : 7 A.5XS.:.S.=X5X2X7X3X1X|.OX@XXXQ.I.H.I.x.5.W W Y ` } u.6.6.a.J.W.+X~.-.H u l 4 1 : & 3 $ @ ; , , 6 2 a ",
"o o o $ % 1 % o o o $ ; b R.5X7XqXeX9X7X0XrXuXtXqX0X0X7X5X*X X|.'.~.$.R R / ` #.2.f.C.U.OX+Xn.J H q q 3 : & % & o @ , 6 a s d z ",
"      @ $ & % @   o # , #.|.2XeXyXuXrXeXeXyXrXuXuXuX8XeXrXqX-X-X;X3X}.n.*.L S  .j.L.V.}.-X}.I H x q & & % % o o o @ % , 8 e e a ",
"      o @ % $ @   . @ s i.$X6X6XeXrXrX6X8X8X8X8XwXwX8X8X8X8X,X,X,X,X,X,X,X>.I :.n.S.S.}.&X>.H c l y & % % @ o o @ @ $ & 4 2 q y "
};
