/* XPM */
static char *out[] = {
/* columns rows colors chars-per-pixel */
"64 64 219 2 ",
"   c #2B1608",
".  c #4A2415",
"X  c #5C2C1A",
"o  c #68321E",
"O  c #583F2A",
"+  c #763A24",
"@  c #7E3D26",
"#  c #63432F",
"$  c #6E402D",
"%  c #6A4D37",
"&  c #77523D",
"*  c #7F5D46",
"=  c #814A35",
"-  c #8E4B34",
";  c #96523A",
":  c #865540",
">  c #8C5D46",
",  c #9D5943",
"<  c #955F49",
"1  c #A45E45",
"2  c #89664F",
"3  c #9B644E",
"4  c #916A53",
"5  c #9A6F56",
"6  c #AB644A",
"7  c #A16851",
"8  c #AD6D51",
"9  c #A86D58",
"0  c #B36A51",
"q  c #B76F53",
"w  c #A1765D",
"e  c #A7755C",
"r  c #AE755B",
"t  c #B4715D",
"y  c #B97658",
"u  c #A87B63",
"i  c #AE7D64",
"p  c #B77764",
"a  c #BD7564",
"s  c #B27861",
"d  c #B47F64",
"f  c #BB7E63",
"g  c #C1785B",
"h  c #C87E61",
"j  c #C07B6B",
"k  c #AC836B",
"l  c #BE8466",
"z  c #B3876E",
"x  c #BA876A",
"c  c #BF8B6C",
"v  c #B78C72",
"b  c #BC8E72",
"n  c #C38264",
"m  c #CC8566",
"M  c #C78568",
"N  c #C4816F",
"B  c #C48A6C",
"V  c #CC8C6D",
"C  c #CC8C6E",
"Z  c #D18969",
"A  c #D48C6E",
"S  c #D88F6F",
"D  c #C88973",
"F  c #D08B78",
"G  c #D38E7E",
"H  c #C39072",
"J  c #C69677",
"K  c #C89172",
"L  c #CC9475",
"P  c #CA997A",
"I  c #CF9C7E",
"U  c #D19071",
"Y  c #D09072",
"T  c #D29172",
"R  c #D09273",
"E  c #D39273",
"W  c #D49374",
"Q  c #D59475",
"!  c #DA9472",
"~  c #D79778",
"^  c #D1967C",
"/  c #D89778",
"(  c #D59A7B",
")  c #D99878",
"_  c #D9997A",
"`  c #DB9A7A",
"'  c #DA9A7B",
"]  c #DC9B7B",
"[  c #DB9C7D",
"{  c #DA9D7E",
"}  c #DE9D7D",
"|  c #DC9D7E",
" . c #DD9D7E",
".. c #E09E7D",
"X. c #E2A07F",
"o. c #D89380",
"O. c #DD9E80",
"+. c #DE9F80",
"@. c #DF9F80",
"#. c #DD9986",
"$. c #D4A082",
"%. c #DFA081",
"&. c #DCA386",
"*. c #D8A485",
"=. c #DCA88A",
"-. c #DFAB8E",
";. c #DFAF94",
":. c #E0A081",
">. c #E2A181",
",. c #E3A181",
"<. c #E0A182",
"1. c #E1A283",
"2. c #E3A282",
"3. c #E4A281",
"4. c #E4A383",
"5. c #E5A383",
"6. c #E5A483",
"7. c #E6A483",
"8. c #E5A484",
"9. c #E6A585",
"0. c #E7A685",
"q. c #E7A686",
"w. c #E8A786",
"e. c #E9A887",
"r. c #E0A58A",
"t. c #E3AC8D",
"y. c #E7AD8F",
"u. c #E8A888",
"i. c #E9A888",
"p. c #E9A989",
"a. c #EAA989",
"s. c #EAAA8A",
"d. c #EBAA8A",
"f. c #EBAB8B",
"g. c #EBAC8C",
"h. c #EBAE8F",
"j. c #ECAC8C",
"k. c #ECAD8D",
"l. c #EDAD8D",
"z. c #EDAE8E",
"x. c #ECAE8F",
"c. c #EDAE8F",
"v. c #EEAF8F",
"b. c #E4B195",
"n. c #E9B193",
"m. c #EDB091",
"M. c #EFB090",
"N. c #EDB192",
"B. c #EEB192",
"V. c #EFB192",
"C. c #EFB293",
"Z. c #ECB496",
"A. c #E6B599",
"S. c #EAB79A",
"D. c #EEB899",
"F. c #EEBC9E",
"G. c #F0B293",
"H. c #F0B394",
"J. c #F1B495",
"K. c #F0B496",
"L. c #F1B596",
"P. c #F1B597",
"I. c #F2B697",
"U. c #F2B698",
"Y. c #F2B799",
"T. c #F3B799",
"R. c #F3B899",
"E. c #F2B89A",
"W. c #F3B89A",
"Q. c #F3B99A",
"!. c #F3B99B",
"~. c #F4B99B",
"^. c #F4BA9B",
"/. c #F4BA9C",
"(. c #F4BB9C",
"). c #F4BB9D",
"_. c #F5BB9D",
"`. c #F5BC9D",
"'. c #F5BC9E",
"]. c #F5BD9E",
"[. c #F5BD9F",
"{. c #F1BFA1",
"}. c #F5BEA0",
"|. c #F6BEA0",
" X c #F6C0A1",
".X c #F6C0A2",
"XX c #F6C1A2",
"oX c #F6C1A3",
"OX c #F6C2A3",
"+X c #F7C2A3",
"@X c #F6C3A4",
"#X c #F7C3A5",
"$X c #F2C4A5",
"%X c #F7C4A6",
"&X c #F7C5A6",
"*X c #F7C6A7",
"=X c #F7C7A8",
"-X c #F7C8A9",
";X c #F0CBAD",
":X c #F4CDAE",
">X c #F8C9AA",
",X c #F8CAAB",
"<X c #F8CBAC",
"1X c #F8CCAD",
"2X c #F8CDAE",
"3X c #F9CEAF",
"4X c #F3D1B3",
"5X c #F7D1B2",
"6X c #F0D4B6",
"7X c #F6D4B6",
"8X c #FAD3B4",
"9X c #FAD7B8",
"0X c #F1D8B9",
"qX c #F7D8BA",
"wX c #F5DBBB",
"eX c #FADDBE",
"rX c #F6DDC0",
"tX c #F9E1C3",
"yX c #FBE5C7",
/* pixels */
"-.-.( ( ^ L K { r.K.Z.Z.b.S.b.S.b.S.b.b.b.S.b.D.S.E.D.D.Z.S.n.n.t.t.r.r.r.r.r.&.{ &.{ { ' ..' [ ^ ( ( ( ^ ( R R C C C Y C U C C ",
"*.*.{ r.y.n./.W.Y.E.E.K.).).F.D.Z.S.S.b.S.S.Z.Z.D.F.].].K.Z.Z.b.m.-.r.8.t.r.t.1.&.&.+.+.O.} [ _ _ ^ ^ ^ ( ( ^ R R Y U U W E Y Y ",
"r.t.t.C.Y./.Z./.(.'.C.K.^. X!.[.XXOXD.D.].[.S.Y.^.[.Y.).Y.E.n.n.x.h.&.t.y.M.q.u.q.s.2.8.t.f.` [  .@._ { { { J R R E C E Q ~ C R ",
"r r D 8.^.Y.I.U.^.E.P.I.E._._.].@X+X X]. X.X'.W._._.).(.~.Y.K.C.K.V.x.h.K.m.x.9.h.a.w.q.t.1.] ` 1.+.{ { &.{ R C R C C V Y U Y Y ",
"# # & u P t.J.K.K.(.L.].B.Y.E. X X X+X_.Q.'./.`.P.!.W.Y.H.U.J.K.x.G.x.h.g.x.f.g.0.j.q.q...O.'  .~ %.+.<.{ ( R R C C V V M V Z Y ",
"# O # & 3 z ( t.Y./.).).J.B./.[. X X+XY.!.W.!.Q.Y.Q.P.K.C.P.P.m.H.g.j.g.l.f.i.w.f.i.8.5.} `  .[ [ [ <.+.[ ~ Y V C C V M M n m m ",
"d 5 > > < 9 l _ m.[.P.).H.T.m.[. X+X].].Y./.K.Y.P.P.m.K.K.Y.h.K.x.C.8.u.u.u.5.5.w.M.X.1.} [ Q _ O.O._ +.` [ C D D Z M V M M n m ",
"E.t.( B l f n Y r.I.J.J.G.B.x.Y.oX].].Y.P.H.m.E.W.!.J.K.`.'.J.H.P.x.s.p.f.u.2.1.u.f.u.X.>.' _ ( [ O.@._ ' R D B D V M M Z V n g ",
"y.p.t.8.~ Y C ~ Q u.C.J.G.G.m. X!._.E.C.c.G.m.E.!.].K. X]. XU.Y.x.J.u.s.9.f.q.j.q.s.u.X. .} { | [ :.[ [ _ W C V l n n M h m h n ",
"<.1.1.1.1.' ` / [ 1.m.V.M.K.Y.J.J.C.x.g.x.x.C.J.|.'.[.|..X]. XK.x.y.u.q.s.s.j.j.p.t.4.8.:.O.%.{ O._ ' _ _ T C M g g h h h h g g ",
"8.[ Y ~ ` :._ { [ 8.s.G.I.T.k.J.V.x.f.9.s.f.u.G._.|.E._.].).n.y.t.1.Q _ >.s.2.q.u.i.X.>.+.%.' ( { { E ~ ( Q n n f f t g g g y y ",
"C.u.X.Q C V C / 5.w.x.v.H.m.M.z.G.m.8.~  ...%.t.C.m.<.^ c s r e 9 7 7 9 d B B B C R E Q :.| { ' ` | Q Q Q Y M f f y t t f g g g ",
"t.u.8.8.E n y m / w.h.B.x.c.l.V.M.J.%.Y V Y E [ { [ l 8 > @ $ $ X O X X X = > 7 9 f l M C E Q _ ( | Q / Y C l l y y y f y g f g ",
"e e B E Q m y y V ] w.G.m.s.s.x.f.x.1.M M n B D M f 6 ; = + $ X X . . . . X $ & & < 9 8 r r y n C R W U C V n f f y y y y y y g ",
"# * & 3 8 f y y g U / u.M.G.4.w.s.f._ V n B f l y t , - = = @ $ + & $ = : > : = = = - > < , ; , 8 y y f B n y y y y q y y y q g ",
"4 H 5 & : : , 8 y n U ..J.G.u.0.f.8./ C B l f y t 6 , ; ; - ; , 8 p f B { ( ^ l r 7 3 < ; ; - ; 3 < < , 7 9 9 8 t 0 0 0 q 0 q 0 ",
"% % O . . # & - ; t m ] f.).Y.h.f.8./ E M l t 8 1 , ; ; ; 3 7 t f C Q [ [ u.4.r.~ C n f 8 9 < < < < > > : - : 3 1 1 1 6 1 6 6 6 ",
"& # . . . . $ $ + = y ) x.#X+X).J.f. .E n p 0 6 < - - - - = - 7 f D E D n n n M M D W / ~ C f r 8 3 < : : - - ; 1 1 1 1 6 6 6 6 ",
"d 7 & # $ % : = + + , >.G.<X<X&X].E.5.Y t 8 1 1 ; - @ + + ; r C { t.8.t.%.~ n p 6 3 , p M Y B D n s 7 7 3 3 ; 1 6 8 6 1 8 8 6 0 ",
"f. .D B B B l r f n / C.].8X8X8X=X).8.n 8 6 6 ; - = + X @ 7 9 3 < u z x R C B f p 7 - @ ; f B n B p f y r t p r 0 8 8 8 t t y q ",
"` ' _ Q m U U ! Q ) X.). X8XqX8X=XY.] g 1 8 0 , ; 9 ; = @ + o $   . . . . $ & : : : * $ X - f Y V C l n f n f y t f f f f n h n ",
"W U T A Z m m h g V C.+X&X8X3X3X+XJ.[ g 6 6 g y n _ ` Y D n f p 5 & .               . . . X < n l y t f n f y y y t y g y g g g ",
"V g y y 0 8 1 y [ ].oX,X3X8X,X=X).x.Y g q y M ] ` X.X.w.@.} _ [ %.{ s 7 > : $ # O X X X X o = ; ; 8 y M V U C V n M n n M M n M ",
"].x./ Y Y _ t. X2X>X-X=X3X<X&X].G.[ V h m A V ) i.l.d.u.f.) C E } _ ! V V Y n p p r t t p y 8 , 6 M / } 7.8.>.Y f y t 0 y t 0 8 ",
"+X+X.X+X#X1X-X<X=X1X,X5X<X3X&X].5.Q m A ! ] / ] 3.j.d.m.m.G.[ n 0 y y y 0 0 q h m S A A g 1 - 1 M ` A V h m n y 1 9 8 y p f f l ",
"=X]. X&X3X<X=X1X=X,X3X3X8X<X+XG.[ Z m A ] 5.u.a.u.a.f.f.I.Y.Y.J.%.l 8 1 1 1 1 , , ; - - - 1 h Q ) ] ..] M t 8 y t p y p f f f l ",
"%X-X X3X5X5X=X<X&X8X5X8X8X=XK.f.] A m Z ! X.7.u.j.j.w.G.Y.'.Y./.].].K.m.r.( M f y f y C :.f.,.8.] Q Y  .../ C Q f r 9 r p d r s ",
"3X1X,X3X8X8X-X<X3X8XqXqX8X XJ.f.3.! Z m Z m h h Z S ..f.^.!.R.U..X'. X.X&XoX'.Y.'.W.G.v.V.f.u.w.u./ m Y 7.5.,.[ B r r t p p s y ",
"<X1X3X3X,X,X%X,X=X3XrXtX=X).G.j.u.w.] Z g g g g 8 6 0 Z 5.J.J.[.!.+X].>X&X=X&X.X).!.E.C.a.l.w.f.8.>.Q Y ) 0.X.5.V f f f f f f n ",
"&XoX&X[.!.C.x.Y.5X8X9XqX&XY.G.G.M.G.w.A h g A ` A g 1 , 0 Q x.'.[.|.+X*X>X=X@X+XoX(.].G.a.0.u.i.0.w.5.Q Q ..X.O.Y n f n n n B M ",
"G.G.5...A h V ).<XqXqX8X=X+Xh.I.).G./ Z h Z ] f.w.5.n , - 1 f >.m.].].=X,X-XOX%X&X+XG.G.u.s.7.e.a.0.X...] X.Q  .Y V l M V C B C ",
"..A y 1 ; y C.+X8XwXqX8X3X.X!.).Y./ g g h S X.w.5.) m 1 ; ; ; 0 Y 8.C.E.%X#X].'. X].P.h.V.l.j.u.d.i.5...} [ '  .E V M M C V V C ",
"g 1 = - y Y.3X5X3XyXtXyXqX3X+XY.Q y 6 6 8 y y y 8 8 1 6 8 y 0 6 6 m  .x.P./.W.R.G.G.l.M.f.V.f.k.6.5.:...[ | _ O.C B n C C Y Y R ",
"; @ - B Y.<X8X8XqXtXrXtXqX<XY.Y 8 ; + + + + + + = - ; 6 y g g y q 0 n / w.G.G.M.c.s.f.j.v.v.j.e.0.2.5.| [ ' ( Q C n V C Y E E Q ",
"@ ; M C.=X8X8X9XwXwX:X=X=X).Y 8 - @ o @ @ @ + + = ; - , 6 q 8 y g y 1 t Y X.5.i.w.w.X.8.l.G.0.0.8.8.' ' { { L Q C V n M Y R V C ",
"- f %.E.<X,X=X@X*X+X).m.r.C 8 ; - + $ + + + + + + @ = - ; ; , 6 q 0 1 1 8 n E ) X.} ] } u.u.2.@.:.| ~ ~ ' ( R Y Y V M V Y E C C ",
"1 Q t.Z.*.{ u.t.8.M.x.u.V 1 - - @ @ @ @ + + + @ = = - - @ + = ; ; ; - ; - ; t Y E Q Q _ _ ..[ [ ~ _ Q R C ~ R Q Y Y D Y V T C A ",
"n R { C t t D / ] E Q C f 1 1 8 n 6 ; - - = - - - ; ; - @ @ @ - = - = @ + @ = 9 C / / E Q E Q Q Q ^ K B D ^ ^ ^ ^ R C V C C C C ",
"C C B s 9 8 y M M t 6 1 = = , M ) C 8 1 ; ; - - - ; ; ; - - = - - ; @ + + + + + 9 Q ) W ! E C R T Q C l B ^ E ( ( R n C Y Y m Z ",
"K B B 9 9 9 y f n 8 6 < ; f {  ...! m y 8 1 ; - ; , ; ; ; ; - ; , ; ; : : & + + @ 3 n Q ) U C Y W ^ R l B J Q Q E M n M C V Z m ",
"n B f 9 7 r f M n f t y n w.Y.G.8.` A m y y 6 1 1 0 8 0 1 6 1 1 1 1 , 7 3 < = @ + @ , B Y Q Q Q Q ( ^ B l R ( ^ D B l n n V Z Z ",
"B f 9 9 9 0 y f M m E ` ..X.w.i.f.../ Z m m h g h h h m m g 0 6 0 8 0 1 6 1 < = + + - 1 Y Y ) ) [ { { B x L Q ^ R D n M m m Z Z ",
"C s - - - - = ; y h h m Z ! A / Q V m h h h g g g h g h h y 6 0 q q 6 6 8 8 , : = = = - y Q E [ 1.&.( J B J K ^ L C l M V A Z A ",
"( f 9 ; - - - ; 1 6 1 1 6 q t q q 6 6 , , ; - ; 1 1 , , , ; - ; ; ; - - , , ; : : = ; , 8 C / [ 4.1.( J H B L R ^ K l M C V Y V ",
"R R l l y f h m g h y y q 0 6 1 1 1 1 1 , 1 1 1 1 1 ; ; - = @ = @ = = @ @ @ @ - , 0 y f 6 m ` 1.| 1. .J x H H P R B l V n m M M ",
"M [ W U U A m m / ]  . ./ o.#.o.#.#.o.G o.G G D D j j j y q 0 0 0 q 0 6 1 1 1 0 Y ) / Q y Y O.} [ ~ ^ C c c J P P c c M B n B B ",
"f { Q U E ) V Z X.@.! ]  .1.o.#.O.r.o.G F F D j N M j h a j a a y g 0 q q g h X.x.a.>.) n Q `  . .{ C C c H H P H B l B H K l M ",
"n B ~ Y Q Q ! V A Y C V o.G F C Q o.D j l j p 8 y y t 8 q y t 0 y 0 6 0 h A w.m.x...] C B ) ] [ 1.^ B f l c H c x B c B K D B M ",
"R f Y ' / ] ] A n t 9 9 9 9 9 r 9 e 7 7 7 7 3 7 3 7 3 9 7 r t t 8 0 8 y Y f.J.Y.%.] ) M m 1.%.1.^ C l f s x c x d f C Y C E C T ",
"r.C B O.} _ ` A n y 0 6 6 8 t r r 9 9 7 7 < < < < < 3 3 7 7 r t t t p M 1.J.J.t.&.O.Y y U 4.+.~ C l f s d c x f d l L K ( ( W ^ ",
"r.t.B Q 2.3.! S h y 8 8 t n f l l f r 9 9 7 > < < < < 9 9 y 8 y y f f ) K.K.x.t.u.t.B y Q :.W Q B f s r d f t s x H H L ( ^ B B ",
"$.&.^ C w.5.) S C y t t f Y W R R M f y r 9 3 3 7 9 9 p n V n n C Y E r.K.N.t.u.u.8.n n | ] Q C l l r 9 f l d f H J P P ^ D B l ",
"P *.( ( 1.w.] ) Z h f f g 1.a.f.8.>.E D f d s f f B B ^ _ O.O.{ ~ [ [ x.n.h.t.y.t.1.M V Q ` E B B n 9 9 d K x c K P P $.^ ( ( ( ",
"J *.*.( { 8.8.} ] A V m Y 8.j.w.2.@.:.1.5.%.{ &.t.y.n.Z.J.y.u.1.<.%.8.n.y.r.9.8.8.O.Y Y ) ) M B E f 9 9 f c J J K K J R ~ { ( ^ ",
"b $.P P H { 1.m.0.3.A 2.8.f.u.G.g.q.<.r.g.C.s.S.D.!.b.K.Y.J.1.{ <.4.1.u.r.r.%.<.%.1.D / | { V R Y f e e e 7 s P c c c R ( r.r.&.",
"z P I P H d x %.x.s.8.a.u.f.B.C.J.J.m.B.Y.P.P.D.{.].F.Y.].E.1.1.1.<.<.:.1.:.+.+.8.{ ^ _ 1.( Q ^ K d x x i 9 9 c L B b J { { r.t.",
"w H P $.c w > e ( C.x.U.a.m.I./.E.R.W.OX XXX#X@X}.*X@XOXC.r.{ u.{ O.|  .E [ { 1.{ %.<.s.r.{ { ( B f z k u w r d l ^ K L ^ { &.&.",
"w x P J z 5 & > 5 J t.Y.I.m.x.H.J.J.Y./.|./.(.E.Y.E.F.n.h.u.r.1.r.[ ~ T Q _ O.O.4.r.p.h.m.r.&.$.H u x x k i i 7 7 p B K P J d e ",
"5 w H x s 5 # % * w z b.}.Y.q.h.j.B.h.K.K.^.m.g.s.y.4.1.8.h.8.q.<._ Y ~ ~ { _ 1.2.s.r.N.P.P.*.I H e w H z z u < = 7 9 d s 5 4 4 ",
"% & 2 5 u 4 # # % & 4 d {.=XC.q.q.m.E.(.].E.H.C.m.s.9.:.1.4. .[ ' ) W Q } :.1.1.{ <.y.N.Y.'.t.L H d 5 e u w 5 3 % + > > > < < > ",
"O O # > 4 4 % O # % * 7 { >X+X*.b.@X=X<X@X%X[..XE.).J.K.u.f.5.X.~ T U Q Q  .&.u.%.4.N.U.!..Xy.P x i i 4 4 > 2 4 # % > 3 3 w 7 i ",
"O O O % * 2 & O O O & > C OX5X:XqXqX7X5X8XqXqXqX5X3X,X,X&X'.|._.Z.r.( L R ^ _ +.1.s.C.U..XoX-.H H w u 4 > * * & O # < 7 s d f x ",
". . . # % * & # . O $ < O.}.1XqXrXtXwXqXqXrXwXtXtXeXqXqXwX9X&X%X*X<X{.b.$.L D [ h.P.B.{.&X{.( H c w * * & & O O O # & < 9 r r s ",
". . . O # & % # . X # d t.@X4X4XqXwXwX4X6X6X6X6X0X0X6X6X6X6X;X;X:X;X;X;X;X;.I =.A.F.F.{.$X;.H v z w * & & # O O # # % * 5 3 e u "
};
