/* XPM */
static char *out[] = {
/* columns rows colors chars-per-pixel */
"64 64 220 2 ",
"   c #2B1608",
".  c #4A2415",
"X  c #5C2C1A",
"o  c #68321E",
"O  c #583F2A",
"+  c #763A24",
"@  c #7E3D26",
"#  c #63432F",
"$  c #6E402D",
"%  c #6A4D37",
"&  c #77523D",
"*  c #7F5D46",
"=  c #814A35",
"-  c #8E4B34",
";  c #96523A",
":  c #865540",
">  c #8C5D46",
",  c #9D5943",
"<  c #955F49",
"1  c #A45E45",
"2  c #89664F",
"3  c #9B644E",
"4  c #916A53",
"5  c #9A6F56",
"6  c #AB644A",
"7  c #A16851",
"8  c #AD6D51",
"9  c #A86D58",
"0  c #B36A51",
"q  c #B76F53",
"w  c #A1765D",
"e  c #A7755C",
"r  c #AE755B",
"t  c #B4715D",
"y  c #B97658",
"u  c #A87B63",
"i  c #AE7D64",
"p  c #B77764",
"a  c #BD7564",
"s  c #B27861",
"d  c #B47F64",
"f  c #BB7E63",
"g  c #C1785B",
"h  c #C87E61",
"j  c #C07B6B",
"k  c #AC836B",
"l  c #BE8466",
"z  c #B3876E",
"x  c #BA876A",
"c  c #BF8B6C",
"v  c #B78C72",
"b  c #BC8E72",
"n  c #C38264",
"m  c #CC8566",
"M  c #C78568",
"N  c #C4816F",
"B  c #C48A6C",
"V  c #CC8C6D",
"C  c #CC8C6E",
"Z  c #D18969",
"A  c #D48C6E",
"S  c #D88F6F",
"D  c #C88973",
"F  c #D08B78",
"G  c #D38E7E",
"H  c #C39072",
"J  c #C69677",
"K  c #C89172",
"L  c #CC9475",
"P  c #CA997A",
"I  c #CF9C7E",
"U  c #D19071",
"Y  c #D09072",
"T  c #D29172",
"R  c #D09273",
"E  c #D39273",
"W  c #D49374",
"Q  c #D59475",
"!  c #DA9472",
"~  c #DD9876",
"^  c #D79778",
"/  c #D1967C",
"(  c #D89778",
")  c #D59A7B",
"_  c #D99878",
"`  c #D9997A",
"'  c #DB9A7A",
"]  c #DA9A7B",
"[  c #DC9B7B",
"{  c #DB9C7D",
"}  c #DA9D7E",
"|  c #DE9D7D",
" . c #DC9D7E",
".. c #DD9D7E",
"X. c #E09E7D",
"o. c #E29F7D",
"O. c #E2A07F",
"+. c #D89380",
"@. c #DD9E80",
"#. c #DE9F80",
"$. c #DF9F80",
"%. c #DD9986",
"&. c #CFA186",
"*. c #D4A082",
"=. c #DFA081",
"-. c #DCA386",
";. c #D8A485",
":. c #DCA88A",
">. c #DFAF94",
",. c #E0A081",
"<. c #E2A181",
"1. c #E3A181",
"2. c #E0A182",
"3. c #E1A283",
"4. c #E4A281",
"5. c #E4A382",
"6. c #E5A382",
"7. c #E4A383",
"8. c #E5A383",
"9. c #E6A483",
"0. c #E5A484",
"q. c #E6A584",
"w. c #E6A585",
"e. c #E7A685",
"r. c #E7A686",
"t. c #E8A786",
"y. c #E9A887",
"u. c #E0A58A",
"i. c #E3AC8D",
"p. c #E7AD8F",
"a. c #E8A888",
"s. c #E9A888",
"d. c #E9A989",
"f. c #EAA989",
"g. c #EAAA8A",
"h. c #EBAA8A",
"j. c #EBAB8B",
"k. c #EBAC8C",
"l. c #EBAE8F",
"z. c #ECAC8C",
"x. c #ECAD8D",
"c. c #EDAD8D",
"v. c #EDAE8E",
"b. c #EEAF8F",
"n. c #EEAF90",
"m. c #E4B195",
"M. c #E9B193",
"N. c #EDB091",
"B. c #EEB090",
"V. c #EFB090",
"C. c #EEB091",
"Z. c #EDB192",
"A. c #EEB192",
"S. c #EFB192",
"D. c #EFB293",
"F. c #ECB496",
"G. c #E6B599",
"H. c #EAB79A",
"J. c #EEB899",
"K. c #EEBC9E",
"L. c #F0B293",
"P. c #F0B394",
"I. c #F1B495",
"U. c #F0B496",
"Y. c #F1B596",
"T. c #F1B597",
"R. c #F2B596",
"E. c #F2B698",
"W. c #F2B799",
"Q. c #F3B799",
"!. c #F3B899",
"~. c #F2B89A",
"^. c #F3B89A",
"/. c #F3B99A",
"(. c #F4B99B",
"). c #F4BA9B",
"_. c #F4BA9C",
"`. c #F4BB9D",
"'. c #F5BB9D",
"]. c #F5BC9D",
"[. c #F5BD9E",
"{. c #F5BE9F",
"}. c #F1BFA1",
"|. c #F5BEA0",
" X c #F6BEA0",
".X c #F6BFA1",
"XX c #F6C0A2",
"oX c #F6C1A2",
"OX c #F6C1A3",
"+X c #F6C2A3",
"@X c #F6C3A4",
"#X c #F7C3A5",
"$X c #F2C4A5",
"%X c #F7C4A5",
"&X c #F7C4A6",
"*X c #F7C5A6",
"=X c #F7C6A7",
"-X c #F7C7A8",
";X c #F0CBAD",
":X c #F4CDAE",
">X c #F8C8A9",
",X c #F8C9AA",
"<X c #F8CAAB",
"1X c #F8CBAC",
"2X c #F8CCAD",
"3X c #F8CDAE",
"4X c #F9CEAF",
"5X c #EECEB0",
"6X c #F3D1B3",
"7X c #F7D1B2",
"8X c #F0D4B6",
"9X c #F6D4B6",
"0X c #FAD3B4",
"qX c #FAD7B8",
"wX c #F1D8B9",
"eX c #F7D8BA",
"rX c #F5DBBB",
"tX c #FADDBE",
"yX c #F6DDC0",
"uX c #F9E1C3",
/* pixels */
">.Z.9.e.] B k i e d J J J u.i.i.i.F.Z.}.K.|.K.}.K.}.K.%X@X>X*X=X`..X[.oX_.(.Y.!.A.C.l.I.c.I.h.g.r.g.d.s.q.t.4.5._ ` ( _ _ ^ W W ",
":.r.z.z.t.Q M i d c R ) i.W.).|.(.].OX+X%X&X@XOX|.[.].[.OX*X,X=X>X'.'._.[.W.!.E.I.D.b.C.b.C.f.e.e.0.0.4.e.0.8.5.] ^ _ ' ..' _ T ",
"H ~ [ 0.0...n x N F Y ] 0.d.u.r.l.Q.`.oX*X=X|.%X&X>X'._.'.oXOX>X.X.XY./.^.(.D.A.S.S.k.C.b.P.d.q.t.d...1.5.f.<.d.` [ E _ | X.E A ",
"c Z Z ~ [ Q B c c i r 9 e 5 5 5 d ] l.J.%XoX.X.X=X>X'.R.]./..X=X>X|.Z.Z.(.].I.C.S.b.I.C.~.L.b.d.g.q.O.X.5.r.q.q.@.` ^ ` 8...E A ",
"v A Z S S A f 9 : = & & # X X X # = 9 / =.P.(.OX[.oX'.Q.S.I.'.[.|.'.S.P.A.Q.[.'.!. X].W.Z.I.b.z.d.8.s.z.q.y.s.d.} @.` 3. ...Q Q ",
"J S m A Z g 3 > 7 d J I v 5 & $ % & : < s Y 0.T._.(.'.I.S.b.'.|./.Z.h.z.P.S..X.X.X[.|.|.'.F.M.g.0.,.] ,.3.,.#.@.$.@.,.@.=.] ^ A ",
"H [ m S A g g ] Z..X(.|.}.K.:.J v d 7 7 8 M C [ R.W.I.S.g.S.F.'.I.I.3.g.z.S.W._.].oX~.~.Z.i.) H x f s f B l f M R ^ E #.#.3.Q T ",
"J ' A ~ 1.5.l.C./.Q.Q.Q.oX|./.i.S.2.Q C V M V R t.n.x.b.b.b.k.S.b.d.#.3.c.b.A././.Z.} c r 3 > & $ $ $ $ : > < 9 f n M C  .} ` Y ",
"H [ S e.t.k.z.C.z.z.r.b.l.D.l.d.,.3.` ) T ^ Q ` O.Z.x.D.b.S.C.b.g.@.T .. .0.z.S.@.M 7 > $ o X . . . . . o $ & > < 6 7 r f ^ ^ S ",
"H O.~ 1.s.f.h.z.d.W M  .Z.F.(.P.l.#.` V n M [ ,.q.C.v.c.b.c.S.S.b.T V V C E _ ^ f 3 : + o X X X X X # & > > = : : : > < 7 s M V ",
"H d.[ 1.z.S.5.q.! y ) XX>X1XK.Q.F.Z.,.! n y n ' 5.V.s.x.b.S.g.b.z.Q y n M M n f 6 ; @ $ + @ = - 3 r d D R D r 9 7 < : - > 3 , s ",
"J i.,.5.Q.Q.t._ g C K.|.K.i.;./ / C C M m y y m [ q.v.b.C.v.g.d.g.E f y l n y 8 1 ; - - ; 1 8 f Y ) #.=.0.=.R C C d 8 < < < < > ",
"v i.3.3.C.'.g.E f 0.H.J 5 & $ X . X $ - 6 q 0 n A X.g.Q.B.S.C.b.q.! M n y t 6 1 ; ; ; ; , 7 8 M M Y V C C R Y ( ^ ] Y f 7 3 > > ",
"B ;.u.[ t.S.g.E C / 5 X .   . O       . o - 1 t V ' d.[. XT.I.S.g.` V g t 6 , ; - - - @ - 7 M Q [ ( R n f t 8 8 n Y Y C n y 3 > ",
"H I 0.` ( @.^ Y r = .   . O O .       . # o + - n [ 1.|.<X>X(.Q.S.5.n 8 6 7 ; - = + X : d K F } #.#.R R Y M 8 , - 1 y M M n 8 < ",
"I ;.g.W T V 8 ; - 8 s 7 9 7 > & % O X & > + + @ 7 q.z.oXqX4X&X'.Q.q.y , 1 , - @ + X $ > < = $ & & & & > 7 7 7 3 > + - f B f f 8 ",
"I u.q.1.q.d.' E U 1.b.l.l.l.0.] Y L c n d f f M T I.I.&XqXeX4XoXZ.E 6 , , ; - - + o o + $ X . .           . . . X X X 3 D Y M l ",
";.u.A.S.!.Q.R.b.y.X.5.t.d.d.d...' T T T Q ' ' ' 5.I.|.1XqXeX4X|.g.m 6 , 6 6 1 f f f n M B v e & O O X X . . . . . . . $ f y y n ",
";.u.t.q.I.].S.I.R.S.O.~ ! _ A Q _ ' A S A Z g A S.oX|.3X4X0X&XQ.3.h 1 1 q V M E 1.| Q _ 4.e.../ M f s d r 7 > > = $ o - 7 6 0 n ",
"I ) [ X.S.Q.Q.+X%X[.C.<.A g y g h g q 6 0 y ( '.,X1X,X,X4X1X|.g.[ n q q g V ! O.5.q.[ A A Q Q S A m n n h n g n n n n y 1 8 V O.",
";.3.| O.I.Q.Q.oXoX1X&X.XR.b._ m f g f Y u.|.=X1X&X4X3X4X1X>X/.,.m m h Z m A ! t.q.b.c.d.Q y 1 6 0 0 6 0 0 n m m n y , - 6 _ M n ",
"3.,.t.z.Q.Q.%XoX>X3X4X>X.X).(.[./.'.@X*X%X>X1X,X1X1X4X4X1XoXb.( m m Z Q [ | O.y.s.t.b.!.).U.,.M f 6 1 , , ; ; - = - , y Y [ X.M ",
"0.d.S.b..X|.'.>X4XqX4X1X>X.XI..X|.<X+X%X>X>X>X7X4X0X0X4X&X'.5._ Z Z m S [ 0.o.q.d.g.g.I.Q.!.I.|..X].q.@.^ Y M m U ,.O.5.[ U E [ ",
"b.d.d.b.|.oX&X7X0XeXeX4X1X&X(.Q.&X3X1X*X>X&X4X9X0XeX0X1X|.I.d.' S Z h g h h h Z [ t.C.S.].!.[.'.oX.X'.(.[.W.Q.b.z.b.d.5.5.T V ' ",
"q.d.q.Q.%X1X7X4X0XtXeXeX>X%X'.oX>X1X*X<XOX>X9X0X0XuXeX1XQ.S.z.z.1.~ h y q g q 6 1 g O.S.).'.Q.|.'.+X[.oX_.(.R.b.g.q.5.q.1.[ M ' ",
"z.z.z.I.=X3X4X4X0XrXrXeX0X3X,X-X1X,X=X>X>X1X4X0XtXuXeX>X'.P.b.S.S.5.A y g A S h 6 ; y [ (.(.'.'.|.OX%X.X.X_.(.C.s.5.4.X.q.O.T U ",
"S.S.b./.%X1X7X4XqXqXeXeX0X0X1X1X>X>X/.Q.I.>X>X0XeXuX4X&X|.(.b.'.S.O.m g A t.5.X.Z 6 - 6 _ !.!.%X+X%X_..XoXoXI.S.z.s.| q.q.q.` E ",
"E.b.b.I.%X=X1X=X=X4X1X>X&XoX/.Z.S.q.A m d.oX>X4XeXeX1X&X.X[.'.Q.O.n g g S 5.O.~ A 0 ; - 8 Y t.!..XOX|.R.W.R.S.z.S.s.q.4.t.5.O.E ",
"d.g.b.I._..X]..X[.&X|.'.b.d.X.S g 0 6 A /.&X1XeXeXtXeX0X&XoX/.[ t 6 1 6 8 q 6 0 6 6 1 8 6 8 V c.N.!.P.R.S.B.z.g.d.h.q.q.5.5.O.[ ",
"d.d.b.z.I.'._.!.|.Q.S.q.| A g 6 - 1 ` |.1X1X1XeXuXuXuXeX1XQ.` t ; @ + + + + @ - ; 6 q g g 0 q V q.l.b.C.b.b.s.s.h.y.e.8.8.1.O.[ ",
"d.g.f.d.I.(.R.'./.b.| Q m 0 ; - 8 r.|.1X4X0X4XtXuXuX0X4X&X0.8 ; + + $ @ @ @ @ - ; 1 1 0 y g 0 y Y #.4.b.b.e.1.8.0.h.4.3.3.q.| [ ",
"q.d.v.z.D.B.I.I.z.| m g 0 ; - t d.oX>X4XrXeX1X0X0X>XK.M.u.f ; @ @ + + + + + + @ - - ; , 6 g g q y M Q O.q.q. .#.0.q.q.@.=...] _ ",
"X.5.t.h.r.c.b.z.[ m y 0 ; ; 0 ..Z.4X,X0X0X4X>X>X'.F.@.M 6 ; = @ + + + + o + @ @ @ - @ @ - 6 6 8 6 6 g T Q _ ` ` ^ ..[ ..^ ] _ ) ",
",.O.q.O.0.e.z.,.A g 0 , ; 8 Q 3.J.&X~.F.~.Z.b.S.I.S.u.n 1 ; , 1 ; - = = = = - - - - + + @ - ; ; ; ; ; y Q [ [ E Q R _ R Q R / R ",
"O.0.X.| X.4.X.[ m y 1 , 1 Y ( t.Q.0.l l ` q.` ^ E R f 1 , s M E t 6 ; ; - - - ; < < @ = - ; - - = + @ : t [ [ [ E E V R ^ R B Y ",
"X.~ [ ! | ~ ` A h 6 , , g R Q 3.] f t t V R n 0 0 3 - @ ; f Q Q Z g 1 , ; - - ; , < - ; - ; ; - : @ + $ = r W _ [ T Y Y ^ D B Y ",
"_  .~ [ ! [ ! Z y 6 1 6 M L D ) n t 8 t f M n t 8 1 ; 8 ` b...X.A A g 6 , ; ; , ; 1 ; ; ; ; , 3 > > = @ + = 8 E E W / ^ E K M Q ",
"Q ` ' _ [ ! A m n 8 1 1 M C B B f 8 0 y n M V y y y n ` D.I.b.q.| Q m g 0 6 6 q y q q 6 6 1 1 1 6 1 < - @ @ - 0 Y W Q ^ } K M R ",
"Q _ ^ | [ _ h n V t 1 6 Y C n f d s t n m V m m T [ [ ..O.d.q.d.1.| Z Z m h g Z A A m m q q 6 q 0 8 1 , : = + ; n ! _ #.3./ l C ",
"U _ ) ,.O.' M y E n 8 0 R D r 7 r 8 1 6 q g h A _ ! S T ! Q Q A A m m n m h g g m m h g y y q 0 6 6 6 , > = = - 8 E } :.i./ B Y ",
"M Q ` r.5.5.V y M ] M f / C 8 < - @ @ = ; 6 q g q y g h n g y q 6 6 1 , , , 1 1 1 1 ; ; ; , , , - , , < ; - ; , 1 U @.u.u./ D L ",
"M L ` 0.B.g.[ f n  .] M C V n s 7 , 1 q g g g g y y a a a a a j j a a q t t 0 1 , - - - = = @ + o o + + - 1 r t 8 E @.@.3.L H C ",
"B R ^ l.Y.R.0.V t / ] R ^ _ M V Y A m m A _ ' #.=.%.G +.:.l.#.2.%.,.G +.G G N j j a t q 0 0 6 1 , ; = - 8 Y Y V y [ ^ ] ) L H L ",
"l K ` d.~.~.Z.` y l #.#.#.~ ` Q [ [ S Z A O.5.,.#.3.,.+.u.0.u.u.3.G D D D j a j N j a a j g g q q 0 6 g [ 5.,.Y M [ _ ^ J K J L ",
"d K ] z.U.~.I.d.M t C O.` [ Q _ Q | ~ ! Z T T R M Y R F M D D K D j s r 9 9 9 y 8 8 t y q y 0 0 0 g m 1.t.5.[ M Y  .` / c H L C ",
"l B @.l.Q.I.Q.S.) r y `  .[ _ ~ [ [ [ ! m y t 8 8 8 8 8 r 9 8 9 r 9 7 7 3 < < 3 7 7 9 8 t t 0 6 y m d.S.q.[ T n ] ,.` D c B H B ",
"P / L u.S.W.S.I.S.D 9 V 0.6.` X.X.X.! S m n t r 0 t 8 f f f r s r r 7 3 3 < > 3 3 7 7 8 r p 8 t M 5.z.z.,.] g n [ ,.M l x H M B ",
"P I L ) l.I.S.A.l.) 8 r 5.t.q.X.O.~ Q Z h g f y y y n n M B f s s r 7 < < < > < 5 9 7 9 8 0 t M @.C.M.0.0.[ y M [ L f s c B M B ",
"P *.;.} ..N.A.S.l.0.d 7 V g.e.t.| [ Q A g n n n g C Y E Y R M n s r 9 7 < 3 7 9 8 s f f y n M ,.g.Z.0.r.u.Y f W L l s x f B K Y ",
"I ;.-.} ;.u.l.p.d.3.M 1 t 5.s.q.| ~ ! A h n m V [ g.s.5.O.X.Q C n s r r r r f n V Y C M C Y #.l.l.p.l.g.@.f Y E B s r s c K / Q ",
"I :.*.;.;.-.*.) 3.0.R f 0 [ d.d.4.| ' S m m V ..Z.I.z.g.k.z.,.O.) / l L ) ;.} u.r.0. .}  . .r.p.l.l.0.i.V m U C d s r l / L R L ",
"*.:.-.:.;.I b r ;.2.) Y M ' t.z.t.4.~ ! S ! q.C.Z.d.0.#.0.d.g.d.d.l.i.p.F.F.M.p.d.0.,.] #.u.p.i.M.l.d.[ m U C l s d d K / } L n ",
"P ;.;.:.*.J e > i J L R E q.d.b.8.t.e.5.X.d.(./.b.R.L.S.t.z.F.!.m.F.M.K.i.M.M.S.O.#._ } 3.r.i.p.i.l.u.W V E n f c H H I L L L ) ",
"P *.;.;.;.x 5 * > 7 l  .d.C.D.b.e.z.C.z.t.z.S.]..X(.`.Q.I.I.Q._.}.F.K..X|.T.F.M.@.=.7.3.q.q.0.i.i.M.u.^ ^ C d i P H H J / / } L ",
"b *.I &.I v w * : 4 5 / z.[.F.I.0.d.g.S.C.P.g.Q.|.#X}.|.|.|.K.|.oX<X-X,X&XQ.r.r.<.<.] ,.3.w.@.i.p.M.) Q R x 7 9 H H x K R -.=.-.",
"z P I P I v 4 % : > > r i.+X|.W.g.O.q.b.B.I.b.(.OX+XoX-X4X>X*X-X-X>X&XoXM.@.d.3.0...' ] w.3.i.r.P.i.#.^ H d 7 9 i / L K L ) u.r.",
"w H P *.K z * % & & > i I %X*XOXd.e.q.S.z.I.S.!.I.`.~.oX'.|.(.&Xl.C.l.Z.0.d.d.t...` Q @.,.z.d.T.l.:.) L d k e e r B L L K } -.-.",
"w z P I H e & % % & > 5 x XX<XoXC.q.d.0.g.A.E.T.I.S.l.b.l.a.l.Z.d.a.0.0.g.3.q.@.{ ^ } 0.d.Z.(.T.F.u./ x x k d e 3 9 f K P I v d ",
"5 w v b z e # # % * & > e H.<X&Xl.z.@.d.]..XA.(.~.W.g.l.x.k.u.$.3.r...,. .| ` | #.d.[ =.C.Q.E.].M.*.x 5 B k u e : > 7 d d w 4 2 ",
"% * 4 5 k 5 % # % % & > 7 i.4X1X~.u.d.@X1X*X`.'.{./.L.S.I.S.r.e.3.` T T _ ' ] @.0.d.] ` W._.}.J.0.H x 4 e 5 5 5 : $ : > > < < 4 ",
"O O # * 5 4 & O # % & > < i.4X>X:.K.*X1X2X4X-X-X|.#XOX X/.U.C.I.x.q.Q Y Y ) ` 3.q.r.u.S.I.oX}.M.J x x e > > : 4 % # > 3 3 7 7 i ",
"O O O % & 2 * O O O % : f _.7X9XrXrX9X0X0XrXyXtXqX7X4X4X3X*X{.(.`.Q.3.L Q R ^ #.3.j.Y.(. XoXM.I H i w 5 4 * & & # # < 7 r d f x ",
". . . # % * & # . O $ < @.|.,XeXyXuXrXeXeXyXrXuXuXuX9XeXrXqX*X-X=X1X}.m.*.L D 2.l.T.F.}.*X}.I H c w : * & & O O O # & < 9 r r d ",
". . . O # & % # . X # d i.@X3X6XyXyXrX6X8X8X8X8XwXwX8X8X8X8X5X;X:X;X;X5X;X>.I :.G.H.K.K.$X>.b v v w * & & # O O # # % * 5 5 w u "
};
