/* XPM */
static char *out[] = {
/* columns rows colors chars-per-pixel */
"64 64 218 2 ",
"   c #2B1608",
".  c #4A2415",
"X  c #5C2C1A",
"o  c #68321E",
"O  c #583F2A",
"+  c #763A24",
"@  c #7E3D26",
"#  c #63432F",
"$  c #6E402D",
"%  c #6A4D37",
"&  c #77523D",
"*  c #7F5D46",
"=  c #814A35",
"-  c #8E4B34",
";  c #96523A",
":  c #865540",
">  c #8C5D46",
",  c #9D5943",
"<  c #955F49",
"1  c #A45E45",
"2  c #89664F",
"3  c #9B644E",
"4  c #916A53",
"5  c #9A6F56",
"6  c #AB644A",
"7  c #A16851",
"8  c #AD6D51",
"9  c #A86D58",
"0  c #B36A51",
"q  c #B76F53",
"w  c #A1765D",
"e  c #A7755C",
"r  c #AE755B",
"t  c #B4715D",
"y  c #B97658",
"u  c #A87B63",
"i  c #AE7D64",
"p  c #B77764",
"a  c #BD7564",
"s  c #B27861",
"d  c #B47F64",
"f  c #BB7E63",
"g  c #C1785B",
"h  c #C87E61",
"j  c #C07B6B",
"k  c #AC836B",
"l  c #BE8466",
"z  c #B3876E",
"x  c #BA876A",
"c  c #BF8B6C",
"v  c #B78C72",
"b  c #BC8E72",
"n  c #C38264",
"m  c #CC8566",
"M  c #C78568",
"N  c #C4816F",
"B  c #C48A6C",
"V  c #CC8C6D",
"C  c #CC8C6E",
"Z  c #D18969",
"A  c #D48C6E",
"S  c #D88F6F",
"D  c #C88973",
"F  c #D38E7E",
"G  c #C39072",
"H  c #C69677",
"J  c #C89172",
"K  c #CC9475",
"L  c #CA997A",
"P  c #CF9C7E",
"I  c #D19071",
"U  c #D09072",
"Y  c #D29172",
"T  c #D09273",
"R  c #D39273",
"E  c #D49374",
"W  c #D59475",
"Q  c #DA9472",
"!  c #DD9876",
"~  c #D79778",
"^  c #D1967C",
"/  c #D89778",
"(  c #D59A7B",
")  c #D99878",
"_  c #D9997A",
"`  c #DB9A7A",
"'  c #DA9A7B",
"]  c #DC9B7B",
"[  c #DB9C7D",
"{  c #DA9D7E",
"}  c #DE9D7D",
"|  c #DC9D7E",
" . c #DD9D7E",
".. c #E09E7D",
"X. c #E29F7D",
"o. c #E2A07F",
"O. c #D89380",
"+. c #DD9E80",
"@. c #DE9F80",
"#. c #DD9986",
"$. c #CFA186",
"%. c #D4A082",
"&. c #DFA081",
"*. c #DCA386",
"=. c #D8A485",
"-. c #D7A88D",
";. c #DCA88A",
":. c #DFAB8E",
">. c #DBAB91",
",. c #DFAF94",
"<. c #E0A081",
"1. c #E2A181",
"2. c #E3A181",
"3. c #E0A182",
"4. c #E1A283",
"5. c #E3A282",
"6. c #E4A281",
"7. c #E4A382",
"8. c #E4A383",
"9. c #E6A483",
"0. c #E5A484",
"q. c #E6A585",
"w. c #E7A685",
"e. c #E7A686",
"r. c #E8A787",
"t. c #E9A887",
"y. c #E0A58A",
"u. c #E3AC8D",
"i. c #E7AD8F",
"p. c #E8A888",
"a. c #E9A888",
"s. c #E9A989",
"d. c #EAA989",
"f. c #EAAA8A",
"g. c #EBAA8A",
"h. c #EBAB8B",
"j. c #EBAC8C",
"k. c #EBAE8F",
"l. c #ECAC8C",
"z. c #ECAD8D",
"x. c #EDAD8D",
"c. c #EDAE8E",
"v. c #ECAE8F",
"b. c #EDAF90",
"n. c #E4B195",
"m. c #E9B193",
"M. c #EDB091",
"N. c #EEB090",
"B. c #EFB090",
"V. c #EEB091",
"C. c #EEB192",
"Z. c #EFB192",
"A. c #EFB293",
"S. c #ECB496",
"D. c #E6B599",
"F. c #EAB79A",
"G. c #EEB899",
"H. c #EEBC9E",
"J. c #F0B293",
"K. c #F0B394",
"L. c #F1B495",
"P. c #F0B496",
"I. c #F1B596",
"U. c #F1B597",
"Y. c #F2B596",
"T. c #F2B697",
"R. c #F2B698",
"E. c #F2B799",
"W. c #F3B799",
"Q. c #F3B899",
"!. c #F2B89A",
"~. c #F3B89A",
"^. c #F3B99A",
"/. c #F3B99B",
"(. c #F4B99B",
"). c #F4BA9B",
"_. c #F4BA9C",
"`. c #F4BB9D",
"'. c #F5BB9D",
"]. c #F5BC9E",
"[. c #F5BE9F",
"{. c #F1BFA1",
"}. c #F5BEA0",
"|. c #F6BEA0",
" X c #F6BFA0",
".X c #F6BFA1",
"XX c #F6C0A2",
"oX c #F6C1A2",
"OX c #F6C1A3",
"+X c #F7C2A3",
"@X c #F6C3A4",
"#X c #F2C4A5",
"$X c #F7C4A5",
"%X c #F7C4A6",
"&X c #F7C5A6",
"*X c #F7C6A7",
"=X c #F7C8A9",
"-X c #F0CBAD",
";X c #F4CDAE",
":X c #F8C8A9",
">X c #F8C9AA",
",X c #F8CAAB",
"<X c #F8CBAC",
"1X c #F8CCAD",
"2X c #F9CEAF",
"3X c #F3D1B3",
"4X c #F7D1B2",
"5X c #F0D4B6",
"6X c #F6D4B6",
"7X c #FAD3B4",
"8X c #FAD7B8",
"9X c #F1D8B9",
"0X c #F7D8BA",
"qX c #F5DBBB",
"wX c #FADDBE",
"eX c #F6DDC0",
"rX c #F9E1C3",
"tX c #FBE5C7",
/* pixels */
",.C.w.q.~ B k k e u H P P -.>.,.,.n.n.n.,.n.,.n.,.n.n.G.H.G.F.F.m.F.,.G.m.G.L.A.k.M.k.M.k.M.k.v.s.q.8.p.q.8.`  .~ ) E ` / W W R ",
":.g.x.l.w.W n i u u H P P =.-.>.,.n.,.n.n.,.n.,.n.,.n.,.G.F.F.,.m.n.n.m.A.A.Q.E.I.L.A.k.V.C.N.j.j.q.r.q.d.8.o.] ] ` } ` } ` W A ",
"H X.o.w.7.` f f f H P >.n.n.u.n.F.H.n.F.G.F.,.S.G.F.,.G.H.{.n.n.G.G.n.G.~._.A.L.K.I.g.s.z.J.s.j.d.g.3.w.r.w.) ] _  ./  .} } A A ",
"G ! } X.6./ M N ( u.m.G.{.{.`.{.%X&XXXXX,X&X X|.+XXXoX&X=X&X X|.XX.X(.H.{.`.I.L.!.L.b.M.K.J.x.r.g.p.q.8.t.6.' /  .` ` ..X./ R A ",
"G ! Q } ` ( n f f x c J T p.L. X|.%X}.&X@X&X.X+X~.|.+X%X&X%X|.+X(.'._.E.S.~.K.I.J.K.M.J.r.j.d.g.r.r.6.q.7.4._ ` ` ` } o.) S A A ",
"H Q A A f < : & % $ $ $ & < J p.E. X'.|.@XXX+X_.I.E.|.+X%XXX`.E.(.`.~.L.L.J.M.I.Y.L.J.x.r.6.w.w.6.4.1.6.w.' } ` } ` @.} ` I Z Z ",
"K ! g q , < < 5 > % X O O # & e H y.v.`.+X+X_.E.A.W.L. X.X&Xb.A.I.'.K.R.J.J.s.J.W.~.k.c.a.g.9.w.w.6.` d.t.4.' +.[ <.+.} ) A M m ",
"H } g y C 3.u.S.G.:.v 5 < > : < r x / s.`._.T.k.M.S.L.]..X`.A.j.Z.L.E.L.E.R.R.`.].T.A.b.B.d.4.8.q.6.o.r.h.3.| [ 3.@.&.) / U M n ",
"H 8.6.8.M.W.R.`.`.|.`.L.*.P c p t l T @.j._.E.K.r.g.A._._._.v.j.u.g.A.`.XX%X.XXX(.E.m.J.x.j.y.8.<.d.w.d.w.w.@.3.[ <.[ } W Z M h ",
"K g.r.t.J.J.L.E.R.!.(.R.J.m.y.` T D I W 8.P.Y.Z.g.p.C.b.J.M.k.0.q.s.A.W.|. X@XXX XR.m.s.y.<.@.@.@.4.1.1.w.<.@.@.@.+.<.` ~ m h y ",
"K s...d.x.J.r.p.g.M.k.i.s.s.{ 3.@.[ R ` 8.M.v.L.x.Z.s.b.M.v.4.1.1.8.r.(.`._.m.:.=.P J c s r r s l n f n U W C ( _ @./ [ } Z g a ",
"%.k.3.6.r.8.M V *.:.y.y.q._ A C I / ` ..q.x.Z.x.Z.l.s.b.Z.r./ Q }  .3.s.M.{ l 9 > = $ o o X O X & : < 3 s f f M C T W R ` V g y ",
"%.L.t.w.` M g s.E.`.G.L.s.8.R M y n V <.6.b.Z.V.h.g.s.Z.g.8.V V C C W ( C y , = o X . . . . . . . o + = : 3 3 7 9 t f D C M y g ",
"{ L.b.w.U y { L.G.:.( W %._ } Z g 0 q Z ..q.c.Z.g.d.p.g.x.4.n f n N M l t , - @ o X X . X X X $ & : = + = : : > : > , , 9 8 8 q ",
"/ C.s.d.B B *.=.i : $ $ & * < 8 y y 6 g U <.8.x.B.B.8.r.g.o.n y f n y t 6 ; = + + @ @ - 3 s d J K C 9 9 7 3 > - - > - > > > - 6 ",
"<.@.k.q.V V J & .     . #     O : 1 6 0 n ) ..g.L.v.p.r.d./ B f f t 8 1 , ; - - ; , , 8 n D C W [ <.W T T B f s 9 , , > > : : , ",
"[ / @.8.T f = .   . O * &       . $ & , t A ` x.J.K.s.M.p.} I M y 8 1 , ; - - - = - - 6 y f y t 8 9 8 y n C T C l f p 9 < > - , ",
"p.V g y 6 = - < & & $ # #     . . X X o - n } s.`._.E.A.A.8.W f 8 1 , ; - - @ o o > t D W { O.T V n 8 3 - - 9 p D n f s s 7 6 8 ",
"v. .V M y n W q.W W f 7 > $ X O $ : o o + 1 o.j.&X2X{.`.`.J.I t , 1 ; = + + . X > 9 = # & # # $ : 3 3 7 3 = X : f n y f n f n n ",
"K.K.B.c.L.l.} w.K.g.s.{ C x x s p 9 9 6 f I B.L.1X0X2X&X+XB.V 6 1 1 - = = o X + @ + o   .           . . X X X . > B C l g n f y ",
"..q.B.L.B.J.r.w.w.d.@.8.<.[ R W m A Z Q ` 6.E. X1X8X0X2X`.y.n 6 , 8 , 1 8 1 , , 1 9 s 5 & . . . . . .         . X 7 8 6 t V V U ",
"<.8.L.W.W.E.(.x...A A Z A A A A A m h g g 3. X@X4XqX7X1X|.8.m 6 6 0 n n W 6.<.[ ..[ <.<._ x s 7 e e 3 > : = o X + - , g W ` w.<.",
"d.c.g.T._. X|.+XK.! g y g m g g 0 6 1 n k.&X X:X4X0X,X&X_.q.g 0 0 n A ....q.o.} / / / @.../ M m Z Z g y f M f n m 8 8 n n g y 0 ",
"l.g.l.W.|. X@X=X1X|.g.R g 6 6 6 0 n *.XX1X,X&X,X4X1X:X|.J.` n g m m m ` d.g.r.d.w.T t 8 y g q 8 6 6 q M S S h 8 ; - n } ` f 9 y ",
"6.x.B. X|.&X*X4X1XXX|. XK.J.v.K.R.%X&X,X,X,X1X7X1X2X*X_.4.I Z A S ! / o.w.h.g.L.C.J.y.C 8 1 , , , , ; ; - - = - 6 Q U W  .<.~ C ",
"r.B.`._. X@X,X4X4X=XXX`..X|. X,X,X&X%X&X4X1X2X4X0X1X@XM...Z Z Z S 6.w.w.g.g.d.B.J.L.E.R.|.L.v._ J f t y f M W 4.w.o.} M I | 8.C ",
"d.L.J.`.*X2X*X0X0X2X[.[.`.|.+X1X,X1XXX,X4X4X4X7X0X,XR.j.X.Q Z A A Q W ! X.d.w.B.L.'.J.E.].%X_.&X}.+XK.R.~.I.g.A.j.d.` } U } X.T ",
"B.L.L._.,X1X2X0X0X4X*X|.+X@X:X1X2X,X&X+X4X4X0XqX7X@XL.g.r.} S Z h g y q q y Z 6.J.W.R.R.XX|. X@X*X&X|.`. XA.g.q.w.w.6...} R  .C ",
"l.~.`.|.*X2X2X8X0X7X1X,X*X:X&X4X1X:X&X*X:X8X0XrX4X+XK.B.g.x.4.S g y h m q 1 , 0 U j.R.`.`.$X&X1X&X*X@XXXW.I.x.g.6.r.9.q.o.E / W ",
"d.L.E.`.@X&X:X2X7X7X2X1X:X:X,X&X@X_.E. X,X4X4XqX2X'.'.J.J.J.g.` h g S X.! m 1 - , f 4.v.(.`.*X:X,X*X.X+X(.L.M.d.a.g.8.7.6./ ` ~ ",
"d.Z.x.]..X+X_.&X*X,X|.`.`._.v.p.` S 1.|.1X0X4XqX1X%XL._.`._.` Z h Z ! d.g.X.g ; - , 6 C q.L.E. X@X+XR.(.L.L.d.x.s.g.w.w.6.4.E ~ ",
"g.h.d.J. X]._._. X(.B.g.q.` Z q 6 M J. X2X7X7X0X2X,X|. X@X8.n q y m A S A h 0 1 6 , ; 1 n ..p.B.(.R.B.B.L.v.g.r.x.r.9.q.q.6.E T ",
"6.l.g.M.K.(.(.R.B.r.o.Q g 6 ; ; n !.+X,X2XqXrXrXqX7X*X Xy.M 6 , ; ; ; ; - , , 8 q q 0 0 6 f R 6.r.x.j.j.r.e.r.j.9.w.w.8.<.6.~ T ",
"6.9.g.h.Z.K.R.g.1.W Z y , = ; D `.,X,X1X7XrXtXtXrX7X&Xs.M 1 = o o + o + = - , 1 6 0 0 q q 0 y M W ` 6.4.6.4.6.4.w.8.4.[ +.` W C ",
"3.w...7.d.B.g.X.A M 8 ; - 1 I G.*X4X4X0XqXrXqX7X2X*Xu.M 1 - o + + + o + @ = = - ; , , 0 0 0 1 6 g U I R } ` / _ 1.<.W ` [ _ U C ",
"..o...} r.r.1.Z h 0 , = , C k.&X1X2X4X4X2X1X@XH.A.*.M 6 - @ + o + o o o @ + = - = + - ; , ; - - ; 8 n U W Y U U W R K Q W R C C ",
"/ ] ! } } X./ m q 1 - ; f [ M.*X X@X{.!.M.K.E.A.` y 1 - @ + + + + + + @ = - - = + + @ = - = + = + @ 3 B R ` U U I U U R c T T R ",
"~ } ! ! } ` S g 8 ; ; 8 T _ M.y.T J _ @. . .3.3.` y , 1 8 8 , - - - = - - - , - = = = = - = + $ $ $ + > M W W U U T R T B T / A ",
"W ` E } } ! m y , , ; M T _ / l t p l T C M 8 t 1 - = 6 C W t 6 1 , - - - - - ; - - = - - - = = & + o + - y C U U W T T c ( U A ",
"C / ` } ` Q m f 1 , , l B C c 8 8 9 f n n 8 1 , - = 6 C ` W m g 0 1 ; - - , ; , , ; ; ; , , 1 3 , = + + = - y U R T ( ( c R C V ",
"M / } 4.` / f g 6 , , D l D d r 9 9 t f n n 8 8 , y *.J.t.6.Q Z y 0 1 , , 0 q q 0 8 6 6 1 8 6 8 , - @ + + @ , V U _ _ @.J E E U ",
"l / [ 4.9.} y f f 6 9 D n l r 9 9 8 f h Z V n M I / 8.s.M.8.X.Z Z g g y g n h Z Z g 6 6 0 0 6 6 1 > & + @ - - f W { *.*.K T U Z ",
"c ' [ s.C.p.n y C l 8 W f 9 , 7 7 1 6 t g Z S / Q W A / o.X.A Z Z h y y g g y g y 8 , , 1 1 ; = = = @ = > 7 ; t / 8.{ %.K K C Z ",
"x T *.k.!.J.T t J ~ p B n 9 - = @ @ - , 0 q y y g h n h h g q 6 6 , - - , , ; - - = @ @ = + + o + + = 9 n V t f ..+.K K H T T V ",
"f K y.L.S.E.8.n y ( T D M p 8 9 , 6 y q 0 q 0 q 0 q 0 6 6 6 6 6 6 0 0 8 0 6 , , ; ; ; , , , , 1 , , y ` .. .t I ` ` _ G G T V M ",
"x c *.M.A.I.E.( f T [ _ ~ A B M M M h Z A W O.O.F D F F O.O.F F O.F F D j g g g g g y q g q 8 0 q M 8...` W f W  .W T c H K B B ",
"L P K s.E.~.J.s.c f / ` U U A / / / g Z ` ..O.#.[ #.F #.*.3.O.F D N j f 8 y q 0 q g q q q 0 6 y I j.j.1.` V M 7.6.( l c K J l B ",
"L P K { C.T.A.b.K y B ! } C C A Q W M h M C f j D D j f n N n f r 9 3 3 3 7 7 1 9 8 8 0 0 0 q Z j.R.p./ W y T <.[ D f x c C B B ",
"K =.%.[ 0.C.C.I.*.s s { 5.} ` ~ A S h f 8 8 7 9 7 9 7 9 9 9 9 9 < < < > > < > 3 3 9 9 t 8 t V y.k.m.<.@.M f / [ V d f c x K J R ",
"P =.=.%.=.u.b.k.p.l 9 T t.w.../ W A h y y t t 9 8 8 t 9 t s r 9 3 < > > > > < < 3 3 7 8 y B @.M.j.0.4...n h ` T f f s x K D W ( ",
"%.;.$.=.3.*._ { 0.( 9 f q.h.o.) ~ S g y f f 8 y f n y l n l t 9 7 3 > > , 3 3 9 r s 8 t B 4.k.M.k.b.y.T n ` W B s d s J K ^ T K ",
"%.=.%.=.=.P f c y._ B f 4.r...! } A g g g n M W  .Q U U R l p r 9 7 3 , 7 r p l B l n D @.A.A.m.S.k.q.n V W C d s f c G ( P B l ",
"L =.*.*.P H 5 5 x T W ) 6.Z.9.q.} Q h n h V ..J.x.a.w.t.} T D n s f d x c T ( [ _ / T [ p.G.u.m.i.m.T n V I f s s G H P K L K ( ",
"H =.-.=.=.x 5 & 4 f ( 3.r.L.w...6...W m W <.A.M.x.q.7.8.q.y.p.<.%.=.y.u.u.i.p.8.y.[ [ <.v.i.i.u.i.*.V V I n f c c J H T T ( { ^ ",
"b %.P =.P x 4 * 2 4 l s.J.T.j.X.6.r.} ! q.L.S.L.T.A.1.w.s.M.i.s.m.S.:.k.m.S.*.=.&.<.4.g.p.k.y.i.i.{ U T B s 9 x H c c J ( *.y.*.",
"z L P L P d 2 % 2 2 w %.|.XXR.1.6.c.9.q.B.K.R.E.`.E.L.M.K.M.S.m.G.{.XXG.S.i.8.@.@.4.&.6.q.p.8.u.u.{ T J f 7 9 s K J b c ( { y.u.",
"w G L %.H f & % & & 4 J !.&X_.J.6.g.d.r.d.L.`.XX`.|._._.!.`.].@X{.&X XS.( i.u.0._ ` [ 4.4.p.i.m.*.{ J v i w 9 s f ^ K J K %.*.;.",
"w x L P c w & % & & 4 s m.1X:XI.s.8.d.g.x.L.Q.!._._.(.`.{.[.XX XG.m.k.r.e.p.8.` ` W [ @.y.v.^.J.:.P x b k i i w 7 p B J L P x i ",
"5 w b x d 5 # # % & * 7 K 4X:X!.x.p.o.w.v.).L.L.L.~.j.M.M.M.u.u.s.k.8.8.8.8._ ` ` @.` 0.v.R.I.S.=.H 5 v x z u 5 = 3 9 d d w 4 4 ",
"% & 2 5 u 5 % # # % & > c &X2XXXj.4.s.`.=XXX/.^.'.T.V.v.v.j.9.2.3.[ ` W  .} } ` q.y.W y.L.].'.i.P x 7 5 u 5 5 5 & & > > > < 2 > ",
"O O # * 4 4 % O # % & > f .X,XG.=.H.=X<X,X2X=X:X}.oX[.].J.K.C.Z.q.<.U U U ` ` 6.0.p.4.M./.XX|.=.G d z 5 4 * 2 4 % % > 3 3 w 7 i ",
"O O O % * 2 & O O O & - M [.4X7X0X0X6X4X7X0XwXqX4X4X7X2X>XXX|.`.~.T.( K T ^ ( @.4.f.A.R.XXOXm.G G w u 4 > * * & O # < 7 s d f x ",
". . . # % * & # . O $ < +.}.>X0XeXrXqX0X0XeXqXrXrXrX0X0XqX8X&X&X*X<X{.n.%.K D [ k.U.C.{.&X{.( G c w * * & & O O O # & < 9 r r s ",
". . . O # & % # . X # d u.@X3X3X0XqXqX3X5X5X5X5X9X9X5X5X5X5X-X-X;X-X-X-X-X,.P ;.D.H.H.{.#X,.b v z w * & & # O O # # % * 5 3 e u "
};
